<?xml version="1.0" encoding="UTF-8" standalone="no"?>
<!DOCTYPE svg PUBLIC "-//W3C//DTD SVG 1.1//EN"
 "http://www.w3.org/Graphics/SVG/1.1/DTD/svg11.dtd">
<!-- Generated by graphviz version 2.43.0 (0)
 -->
<!-- Title: /home/runner/work/cocos&#45;headers/cocos&#45;headers/cocos2dx/layers_scenes_transitions_nodes/CCTransitionPageTurn.h Pages: 1 -->
<svg width="2303pt" height="764pt"
 viewBox="0.00 0.00 2302.50 764.00" xmlns="http://www.w3.org/2000/svg" xmlns:xlink="http://www.w3.org/1999/xlink">
<g id="graph0" class="graph" transform="scale(1 1) rotate(0) translate(4 760)">
<title>/home/runner/work/cocos&#45;headers/cocos&#45;headers/cocos2dx/layers_scenes_transitions_nodes/CCTransitionPageTurn.h</title>
<!-- Node1 -->
<g id="node1" class="node">
<title>Node1</title>
<g id="a_node1"><a xlink:title=" ">
<polygon fill="#999999" stroke="#666666" points="726,-756 554,-756 554,-693 726,-693 726,-756"/>
<text text-anchor="start" x="562" y="-744" font-family="Helvetica,sans-Serif" font-size="10.00">/home/runner/work/cocos</text>
<text text-anchor="start" x="562" y="-733" font-family="Helvetica,sans-Serif" font-size="10.00">&#45;headers/cocos&#45;headers</text>
<text text-anchor="start" x="562" y="-722" font-family="Helvetica,sans-Serif" font-size="10.00">/cocos2dx/layers_scenes</text>
<text text-anchor="start" x="562" y="-711" font-family="Helvetica,sans-Serif" font-size="10.00">_transitions_nodes/CCTransition</text>
<text text-anchor="middle" x="640" y="-700" font-family="Helvetica,sans-Serif" font-size="10.00">PageTurn.h</text>
</a>
</g>
</g>
<!-- Node2 -->
<g id="node2" class="node">
<title>Node2</title>
<g id="a_node2"><a xlink:href="../../dc/dfd/cocos2d_8h.html" target="_top" xlink:title=" ">
<polygon fill="white" stroke="#666666" points="717.5,-657 562.5,-657 562.5,-616 717.5,-616 717.5,-657"/>
<text text-anchor="start" x="570.5" y="-645" font-family="Helvetica,sans-Serif" font-size="10.00">/home/runner/work/cocos</text>
<text text-anchor="start" x="570.5" y="-634" font-family="Helvetica,sans-Serif" font-size="10.00">&#45;headers/cocos&#45;headers</text>
<text text-anchor="middle" x="640" y="-623" font-family="Helvetica,sans-Serif" font-size="10.00">/cocos2dx/include/cocos2d.h</text>
</a>
</g>
</g>
<!-- Node1&#45;&gt;Node2 -->
<g id="edge1" class="edge">
<title>Node1&#45;&gt;Node2</title>
<path fill="none" stroke="#63b8ff" d="M640,-682.68C640,-673.81 640,-664.83 640,-657.23"/>
<polygon fill="#63b8ff" stroke="#63b8ff" points="636.5,-682.94 640,-692.94 643.5,-682.94 636.5,-682.94"/>
</g>
<!-- Node3 -->
<g id="node3" class="node">
<title>Node3</title>
<g id="a_node3"><a xlink:href="../../d4/d5d/_d_s___dictionary_8h.html" target="_top" xlink:title=" ">
<polygon fill="white" stroke="#666666" points="140,-580 0,-580 0,-528 140,-528 140,-580"/>
<text text-anchor="start" x="8" y="-568" font-family="Helvetica,sans-Serif" font-size="10.00">/home/runner/work/cocos</text>
<text text-anchor="start" x="8" y="-557" font-family="Helvetica,sans-Serif" font-size="10.00">&#45;headers/cocos&#45;headers</text>
<text text-anchor="start" x="8" y="-546" font-family="Helvetica,sans-Serif" font-size="10.00">/cocos2dx/robtop/xml/DS</text>
<text text-anchor="middle" x="70" y="-535" font-family="Helvetica,sans-Serif" font-size="10.00">_Dictionary.h</text>
</a>
</g>
</g>
<!-- Node2&#45;&gt;Node3 -->
<g id="edge2" class="edge">
<title>Node2&#45;&gt;Node3</title>
<path fill="none" stroke="#63b8ff" d="M552.35,-631.15C451.82,-624.81 282.72,-610.3 140.43,-580.09"/>
<polygon fill="#63b8ff" stroke="#63b8ff" points="552.27,-634.65 562.47,-631.78 552.7,-627.67 552.27,-634.65"/>
</g>
<!-- Node4 -->
<g id="node4" class="node">
<title>Node4</title>
<g id="a_node4"><a xlink:href="../../d3/db7/_assets_manager_8h.html" target="_top" xlink:title=" ">
<polygon fill="white" stroke="#666666" points="309.5,-580 158.5,-580 158.5,-528 309.5,-528 309.5,-580"/>
<text text-anchor="start" x="166.5" y="-568" font-family="Helvetica,sans-Serif" font-size="10.00">/home/runner/work/cocos</text>
<text text-anchor="start" x="166.5" y="-557" font-family="Helvetica,sans-Serif" font-size="10.00">&#45;headers/cocos&#45;headers</text>
<text text-anchor="start" x="166.5" y="-546" font-family="Helvetica,sans-Serif" font-size="10.00">/extensions/AssetsManager</text>
<text text-anchor="middle" x="234" y="-535" font-family="Helvetica,sans-Serif" font-size="10.00">/AssetsManager.h</text>
</a>
</g>
</g>
<!-- Node2&#45;&gt;Node4 -->
<g id="edge4" class="edge">
<title>Node2&#45;&gt;Node4</title>
<path fill="none" stroke="#63b8ff" d="M552.31,-622.44C488.63,-612.39 400.58,-597.32 324,-580 319.41,-578.96 314.71,-577.84 309.98,-576.66"/>
<polygon fill="#63b8ff" stroke="#63b8ff" points="551.89,-625.92 562.31,-624.01 552.97,-619 551.89,-625.92"/>
</g>
<!-- Node5 -->
<g id="node5" class="node">
<title>Node5</title>
<g id="a_node5"><a xlink:href="../../de/d8b/_c_c_control_8h.html" target="_top" xlink:title=" ">
<polygon fill="white" stroke="#666666" points="1460,-580 1266,-580 1266,-528 1460,-528 1460,-580"/>
<text text-anchor="start" x="1274" y="-568" font-family="Helvetica,sans-Serif" font-size="10.00">/home/runner/work/cocos</text>
<text text-anchor="start" x="1274" y="-557" font-family="Helvetica,sans-Serif" font-size="10.00">&#45;headers/cocos&#45;headers</text>
<text text-anchor="start" x="1274" y="-546" font-family="Helvetica,sans-Serif" font-size="10.00">/extensions/GUI/CCControlExtension</text>
<text text-anchor="middle" x="1363" y="-535" font-family="Helvetica,sans-Serif" font-size="10.00">/CCControl.h</text>
</a>
</g>
</g>
<!-- Node2&#45;&gt;Node5 -->
<g id="edge5" class="edge">
<title>Node2&#45;&gt;Node5</title>
<path fill="none" stroke="#63b8ff" d="M727.69,-625.74C863.69,-610.59 1124.52,-581.55 1265.99,-565.8"/>
<polygon fill="#63b8ff" stroke="#63b8ff" points="727.27,-622.26 717.72,-626.85 728.04,-629.22 727.27,-622.26"/>
</g>
<!-- Node8 -->
<g id="node8" class="node">
<title>Node8</title>
<g id="a_node8"><a xlink:href="../../dc/d4a/_c_c_edit_box_8h.html" target="_top" xlink:title=" ">
<polygon fill="white" stroke="#666666" points="1094,-228 946,-228 946,-176 1094,-176 1094,-228"/>
<text text-anchor="start" x="954" y="-216" font-family="Helvetica,sans-Serif" font-size="10.00">/home/runner/work/cocos</text>
<text text-anchor="start" x="954" y="-205" font-family="Helvetica,sans-Serif" font-size="10.00">&#45;headers/cocos&#45;headers</text>
<text text-anchor="start" x="954" y="-194" font-family="Helvetica,sans-Serif" font-size="10.00">/extensions/GUI/CCEditBox</text>
<text text-anchor="middle" x="1020" y="-183" font-family="Helvetica,sans-Serif" font-size="10.00">/CCEditBox.h</text>
</a>
</g>
</g>
<!-- Node2&#45;&gt;Node8 -->
<g id="edge38" class="edge">
<title>Node2&#45;&gt;Node8</title>
<path fill="none" stroke="#63b8ff" d="M637.71,-605.55C635.06,-549.53 637.2,-427.72 697,-352 758.82,-273.73 871.19,-234.92 945.72,-216.93"/>
<polygon fill="#63b8ff" stroke="#63b8ff" points="634.23,-606.06 638.29,-615.84 641.22,-605.66 634.23,-606.06"/>
</g>
<!-- Node9 -->
<g id="node9" class="node">
<title>Node9</title>
<g id="a_node9"><a xlink:href="../../db/da9/_c_c_edit_box_impl_8h.html" target="_top" xlink:title=" ">
<polygon fill="white" stroke="#666666" points="590,-140 442,-140 442,-88 590,-88 590,-140"/>
<text text-anchor="start" x="450" y="-128" font-family="Helvetica,sans-Serif" font-size="10.00">/home/runner/work/cocos</text>
<text text-anchor="start" x="450" y="-117" font-family="Helvetica,sans-Serif" font-size="10.00">&#45;headers/cocos&#45;headers</text>
<text text-anchor="start" x="450" y="-106" font-family="Helvetica,sans-Serif" font-size="10.00">/extensions/GUI/CCEditBox</text>
<text text-anchor="middle" x="516" y="-95" font-family="Helvetica,sans-Serif" font-size="10.00">/CCEditBoxImpl.h</text>
</a>
</g>
</g>
<!-- Node2&#45;&gt;Node9 -->
<g id="edge39" class="edge">
<title>Node2&#45;&gt;Node9</title>
<path fill="none" stroke="#63b8ff" d="M609.18,-608.89C577.26,-578.22 532,-524.58 532,-467 532,-467 532,-467 532,-289 532,-235.76 524.48,-173.74 519.75,-140"/>
<polygon fill="#63b8ff" stroke="#63b8ff" points="606.88,-611.53 616.57,-615.82 611.66,-606.43 606.88,-611.53"/>
</g>
<!-- Node10 -->
<g id="node10" class="node">
<title>Node10</title>
<g id="a_node10"><a xlink:href="../../d4/dd3/_c_c_edit_box_impl_android_8h.html" target="_top" xlink:title=" ">
<polygon fill="white" stroke="#666666" points="156,-52 8,-52 8,0 156,0 156,-52"/>
<text text-anchor="start" x="16" y="-40" font-family="Helvetica,sans-Serif" font-size="10.00">/home/runner/work/cocos</text>
<text text-anchor="start" x="16" y="-29" font-family="Helvetica,sans-Serif" font-size="10.00">&#45;headers/cocos&#45;headers</text>
<text text-anchor="start" x="16" y="-18" font-family="Helvetica,sans-Serif" font-size="10.00">/extensions/GUI/CCEditBox</text>
<text text-anchor="middle" x="82" y="-7" font-family="Helvetica,sans-Serif" font-size="10.00">/CCEditBoxImplAndroid.h</text>
</a>
</g>
</g>
<!-- Node2&#45;&gt;Node10 -->
<g id="edge40" class="edge">
<title>Node2&#45;&gt;Node10</title>
<path fill="none" stroke="#63b8ff" d="M552.2,-625.3C488.53,-616.3 409.32,-601.28 384,-580 342.49,-545.12 338,-521.22 338,-467 338,-467 338,-467 338,-201 338,-153.11 213.89,-87.55 138.5,-52.15"/>
<polygon fill="#63b8ff" stroke="#63b8ff" points="551.89,-628.79 562.28,-626.69 552.85,-621.85 551.89,-628.79"/>
</g>
<!-- Node11 -->
<g id="node11" class="node">
<title>Node11</title>
<g id="a_node11"><a xlink:href="../../dd/dfd/_c_c_edit_box_impl_i_o_s_8h.html" target="_top" xlink:title=" ">
<polygon fill="white" stroke="#666666" points="322,-52 174,-52 174,0 322,0 322,-52"/>
<text text-anchor="start" x="182" y="-40" font-family="Helvetica,sans-Serif" font-size="10.00">/home/runner/work/cocos</text>
<text text-anchor="start" x="182" y="-29" font-family="Helvetica,sans-Serif" font-size="10.00">&#45;headers/cocos&#45;headers</text>
<text text-anchor="start" x="182" y="-18" font-family="Helvetica,sans-Serif" font-size="10.00">/extensions/GUI/CCEditBox</text>
<text text-anchor="middle" x="248" y="-7" font-family="Helvetica,sans-Serif" font-size="10.00">/CCEditBoxImplIOS.h</text>
</a>
</g>
</g>
<!-- Node2&#45;&gt;Node11 -->
<g id="edge41" class="edge">
<title>Node2&#45;&gt;Node11</title>
<path fill="none" stroke="#63b8ff" d="M552.46,-628.08C512.78,-620.92 467.39,-606.99 434,-580 390.1,-544.51 376,-523.45 376,-467 376,-467 376,-467 376,-201 376,-149.66 382.03,-129.64 352,-88 341.23,-73.06 325.57,-61.18 309.66,-52.03"/>
<polygon fill="#63b8ff" stroke="#63b8ff" points="551.97,-631.55 562.41,-629.76 553.13,-624.65 551.97,-631.55"/>
</g>
<!-- Node12 -->
<g id="node12" class="node">
<title>Node12</title>
<g id="a_node12"><a xlink:href="../../d7/d4d/_c_c_edit_box_impl_mac_8h.html" target="_top" xlink:title=" ">
<polygon fill="white" stroke="#666666" points="488,-52 340,-52 340,0 488,0 488,-52"/>
<text text-anchor="start" x="348" y="-40" font-family="Helvetica,sans-Serif" font-size="10.00">/home/runner/work/cocos</text>
<text text-anchor="start" x="348" y="-29" font-family="Helvetica,sans-Serif" font-size="10.00">&#45;headers/cocos&#45;headers</text>
<text text-anchor="start" x="348" y="-18" font-family="Helvetica,sans-Serif" font-size="10.00">/extensions/GUI/CCEditBox</text>
<text text-anchor="middle" x="414" y="-7" font-family="Helvetica,sans-Serif" font-size="10.00">/CCEditBoxImplMac.h</text>
</a>
</g>
</g>
<!-- Node2&#45;&gt;Node12 -->
<g id="edge42" class="edge">
<title>Node2&#45;&gt;Node12</title>
<path fill="none" stroke="#63b8ff" d="M561.17,-612.54C495.96,-588.14 414,-542.45 414,-467 414,-467 414,-467 414,-201 414,-147.98 414,-85.88 414,-52.07"/>
<polygon fill="#63b8ff" stroke="#63b8ff" points="560.06,-615.86 570.66,-615.99 562.45,-609.28 560.06,-615.86"/>
</g>
<!-- Node13 -->
<g id="node13" class="node">
<title>Node13</title>
<g id="a_node13"><a xlink:href="../../de/dac/_c_c_edit_box_impl_tizen_8h.html" target="_top" xlink:title=" ">
<polygon fill="white" stroke="#666666" points="820,-52 672,-52 672,0 820,0 820,-52"/>
<text text-anchor="start" x="680" y="-40" font-family="Helvetica,sans-Serif" font-size="10.00">/home/runner/work/cocos</text>
<text text-anchor="start" x="680" y="-29" font-family="Helvetica,sans-Serif" font-size="10.00">&#45;headers/cocos&#45;headers</text>
<text text-anchor="start" x="680" y="-18" font-family="Helvetica,sans-Serif" font-size="10.00">/extensions/GUI/CCEditBox</text>
<text text-anchor="middle" x="746" y="-7" font-family="Helvetica,sans-Serif" font-size="10.00">/CCEditBoxImplTizen.h</text>
</a>
</g>
</g>
<!-- Node2&#45;&gt;Node13 -->
<g id="edge43" class="edge">
<title>Node2&#45;&gt;Node13</title>
<path fill="none" stroke="#63b8ff" d="M629.27,-606.3C618.04,-573.05 602,-516.87 602,-467 602,-467 602,-467 602,-377 602,-247.33 569.97,-195.82 642,-88 652.06,-72.94 667.19,-61.1 682.82,-52.01"/>
<polygon fill="#63b8ff" stroke="#63b8ff" points="626,-607.55 632.58,-615.85 632.61,-605.26 626,-607.55"/>
</g>
<!-- Node14 -->
<g id="node14" class="node">
<title>Node14</title>
<g id="a_node14"><a xlink:href="../../dd/d41/_c_c_edit_box_impl_win_8h.html" target="_top" xlink:title=" ">
<polygon fill="white" stroke="#666666" points="986,-52 838,-52 838,0 986,0 986,-52"/>
<text text-anchor="start" x="846" y="-40" font-family="Helvetica,sans-Serif" font-size="10.00">/home/runner/work/cocos</text>
<text text-anchor="start" x="846" y="-29" font-family="Helvetica,sans-Serif" font-size="10.00">&#45;headers/cocos&#45;headers</text>
<text text-anchor="start" x="846" y="-18" font-family="Helvetica,sans-Serif" font-size="10.00">/extensions/GUI/CCEditBox</text>
<text text-anchor="middle" x="912" y="-7" font-family="Helvetica,sans-Serif" font-size="10.00">/CCEditBoxImplWin.h</text>
</a>
</g>
</g>
<!-- Node2&#45;&gt;Node14 -->
<g id="edge44" class="edge">
<title>Node2&#45;&gt;Node14</title>
<path fill="none" stroke="#63b8ff" d="M642.2,-605.81C646.92,-552.97 660.71,-439.92 697,-352 747.46,-229.74 846.24,-104.68 890.11,-52.39"/>
<polygon fill="#63b8ff" stroke="#63b8ff" points="638.7,-605.58 641.35,-615.84 645.68,-606.17 638.7,-605.58"/>
</g>
<!-- Node25 -->
<g id="node25" class="node">
<title>Node25</title>
<g id="a_node25"><a xlink:href="../../db/d24/_c_c_scale9_sprite_8h.html" target="_top" xlink:title=" ">
<polygon fill="white" stroke="#666666" points="1775,-580 1581,-580 1581,-528 1775,-528 1775,-580"/>
<text text-anchor="start" x="1589" y="-568" font-family="Helvetica,sans-Serif" font-size="10.00">/home/runner/work/cocos</text>
<text text-anchor="start" x="1589" y="-557" font-family="Helvetica,sans-Serif" font-size="10.00">&#45;headers/cocos&#45;headers</text>
<text text-anchor="start" x="1589" y="-546" font-family="Helvetica,sans-Serif" font-size="10.00">/extensions/GUI/CCControlExtension</text>
<text text-anchor="middle" x="1678" y="-535" font-family="Helvetica,sans-Serif" font-size="10.00">/CCScale9Sprite.h</text>
</a>
</g>
</g>
<!-- Node2&#45;&gt;Node25 -->
<g id="edge35" class="edge">
<title>Node2&#45;&gt;Node25</title>
<path fill="none" stroke="#63b8ff" d="M727.71,-631.14C879.12,-623.27 1199.26,-605.14 1469,-580 1505.57,-576.59 1545.63,-572.01 1580.82,-567.69"/>
<polygon fill="#63b8ff" stroke="#63b8ff" points="727.35,-627.65 717.54,-631.66 727.71,-634.64 727.35,-627.65"/>
</g>
<!-- Node26 -->
<g id="node26" class="node">
<title>Node26</title>
<g id="a_node26"><a xlink:href="../../de/d56/_c_c_scroll_view_8h.html" target="_top" xlink:title=" ">
<polygon fill="white" stroke="#666666" points="1899.5,-316 1738.5,-316 1738.5,-264 1899.5,-264 1899.5,-316"/>
<text text-anchor="start" x="1746.5" y="-304" font-family="Helvetica,sans-Serif" font-size="10.00">/home/runner/work/cocos</text>
<text text-anchor="start" x="1746.5" y="-293" font-family="Helvetica,sans-Serif" font-size="10.00">&#45;headers/cocos&#45;headers</text>
<text text-anchor="start" x="1746.5" y="-282" font-family="Helvetica,sans-Serif" font-size="10.00">/extensions/GUI/CCScrollView</text>
<text text-anchor="middle" x="1819" y="-271" font-family="Helvetica,sans-Serif" font-size="10.00">/CCScrollView.h</text>
</a>
</g>
</g>
<!-- Node2&#45;&gt;Node26 -->
<g id="edge45" class="edge">
<title>Node2&#45;&gt;Node26</title>
<path fill="none" stroke="#63b8ff" d="M727.87,-635.56C979.73,-635.15 1692,-629.56 1784,-580 1809.2,-566.43 1804.97,-551.01 1822,-528 1833.9,-511.93 1842.68,-510.97 1849,-492 1869.36,-430.91 1845.45,-354.77 1830.03,-316.09"/>
<polygon fill="#63b8ff" stroke="#63b8ff" points="727.66,-632.06 717.67,-635.58 727.67,-639.06 727.66,-632.06"/>
</g>
<!-- Node28 -->
<g id="node28" class="node">
<title>Node28</title>
<g id="a_node28"><a xlink:href="../../d8/d12/_http_client_8h.html" target="_top" xlink:title=" ">
<polygon fill="white" stroke="#666666" points="2132.5,-398.5 1955.5,-398.5 1955.5,-357.5 2132.5,-357.5 2132.5,-398.5"/>
<text text-anchor="start" x="1963.5" y="-386.5" font-family="Helvetica,sans-Serif" font-size="10.00">/home/runner/work/cocos</text>
<text text-anchor="start" x="1963.5" y="-375.5" font-family="Helvetica,sans-Serif" font-size="10.00">&#45;headers/cocos&#45;headers</text>
<text text-anchor="middle" x="2044" y="-364.5" font-family="Helvetica,sans-Serif" font-size="10.00">/extensions/network/HttpClient.h</text>
</a>
</g>
</g>
<!-- Node2&#45;&gt;Node28 -->
<g id="edge49" class="edge">
<title>Node2&#45;&gt;Node28</title>
<path fill="none" stroke="#63b8ff" d="M727.88,-635.16C1025.73,-633.61 1981.07,-625.11 2028,-580 2077.59,-532.33 2060.48,-439.42 2049.85,-398.8"/>
<polygon fill="#63b8ff" stroke="#63b8ff" points="727.55,-631.66 717.57,-635.21 727.59,-638.66 727.55,-631.66"/>
</g>
<!-- Node29 -->
<g id="node29" class="node">
<title>Node29</title>
<g id="a_node29"><a xlink:href="../../d3/d95/_http_request_8h.html" target="_top" xlink:title=" ">
<polygon fill="white" stroke="#666666" points="2019,-574.5 1831,-574.5 1831,-533.5 2019,-533.5 2019,-574.5"/>
<text text-anchor="start" x="1839" y="-562.5" font-family="Helvetica,sans-Serif" font-size="10.00">/home/runner/work/cocos</text>
<text text-anchor="start" x="1839" y="-551.5" font-family="Helvetica,sans-Serif" font-size="10.00">&#45;headers/cocos&#45;headers</text>
<text text-anchor="middle" x="1925" y="-540.5" font-family="Helvetica,sans-Serif" font-size="10.00">/extensions/network/HttpRequest.h</text>
</a>
</g>
</g>
<!-- Node2&#45;&gt;Node29 -->
<g id="edge51" class="edge">
<title>Node2&#45;&gt;Node29</title>
<path fill="none" stroke="#63b8ff" d="M727.96,-633.41C963.82,-627.48 1606.72,-609.05 1817,-580 1827.2,-578.59 1837.85,-576.68 1848.32,-574.54"/>
<polygon fill="#63b8ff" stroke="#63b8ff" points="727.62,-629.92 717.71,-633.67 727.79,-636.91 727.62,-629.92"/>
</g>
<!-- Node30 -->
<g id="node30" class="node">
<title>Node30</title>
<g id="a_node30"><a xlink:href="../../d1/d33/_http_response_8h.html" target="_top" xlink:title=" ">
<polygon fill="white" stroke="#666666" points="2268,-486.5 2072,-486.5 2072,-445.5 2268,-445.5 2268,-486.5"/>
<text text-anchor="start" x="2080" y="-474.5" font-family="Helvetica,sans-Serif" font-size="10.00">/home/runner/work/cocos</text>
<text text-anchor="start" x="2080" y="-463.5" font-family="Helvetica,sans-Serif" font-size="10.00">&#45;headers/cocos&#45;headers</text>
<text text-anchor="middle" x="2170" y="-452.5" font-family="Helvetica,sans-Serif" font-size="10.00">/extensions/network/HttpResponse.h</text>
</a>
</g>
</g>
<!-- Node2&#45;&gt;Node30 -->
<g id="edge57" class="edge">
<title>Node2&#45;&gt;Node30</title>
<path fill="none" stroke="#63b8ff" d="M728.07,-634.01C1028.97,-628.68 2001.03,-609.25 2061,-580 2088.21,-566.73 2084.15,-549.95 2105,-528 2118.64,-513.64 2134.89,-498.39 2147.73,-486.73"/>
<polygon fill="#63b8ff" stroke="#63b8ff" points="727.59,-630.52 717.65,-634.2 727.71,-637.52 727.59,-630.52"/>
</g>
<!-- Node31 -->
<g id="node31" class="node">
<title>Node31</title>
<g id="a_node31"><a xlink:href="../../da/d1e/_web_socket_8h.html" target="_top" xlink:title=" ">
<polygon fill="white" stroke="#666666" points="2294.5,-574.5 2113.5,-574.5 2113.5,-533.5 2294.5,-533.5 2294.5,-574.5"/>
<text text-anchor="start" x="2121.5" y="-562.5" font-family="Helvetica,sans-Serif" font-size="10.00">/home/runner/work/cocos</text>
<text text-anchor="start" x="2121.5" y="-551.5" font-family="Helvetica,sans-Serif" font-size="10.00">&#45;headers/cocos&#45;headers</text>
<text text-anchor="middle" x="2204" y="-540.5" font-family="Helvetica,sans-Serif" font-size="10.00">/extensions/network/WebSocket.h</text>
</a>
</g>
</g>
<!-- Node2&#45;&gt;Node31 -->
<g id="edge58" class="edge">
<title>Node2&#45;&gt;Node31</title>
<path fill="none" stroke="#63b8ff" d="M727.93,-634.41C1000.96,-630.68 1831.83,-616.53 2099,-580 2109.12,-578.62 2119.69,-576.69 2130.06,-574.51"/>
<polygon fill="#63b8ff" stroke="#63b8ff" points="727.63,-630.92 717.68,-634.55 727.72,-637.91 727.63,-630.92"/>
</g>
<!-- Node3&#45;&gt;Node2 -->
<g id="edge3" class="edge">
<title>Node3&#45;&gt;Node2</title>
<path fill="none" stroke="#63b8ff" d="M150.06,-578.19C152.74,-578.84 155.39,-579.44 158,-580 298.97,-609.98 466.37,-624.51 562.26,-630.96"/>
<polygon fill="#63b8ff" stroke="#63b8ff" points="150.88,-574.79 140.33,-575.69 149.14,-581.57 150.88,-574.79"/>
</g>
<!-- Node6 -->
<g id="node6" class="node">
<title>Node6</title>
<g id="a_node6"><a xlink:href="../../d0/d7e/_c_c_control_button_8h.html" target="_top" xlink:title=" ">
<polygon fill="white" stroke="#666666" points="1824,-492 1630,-492 1630,-440 1824,-440 1824,-492"/>
<text text-anchor="start" x="1638" y="-480" font-family="Helvetica,sans-Serif" font-size="10.00">/home/runner/work/cocos</text>
<text text-anchor="start" x="1638" y="-469" font-family="Helvetica,sans-Serif" font-size="10.00">&#45;headers/cocos&#45;headers</text>
<text text-anchor="start" x="1638" y="-458" font-family="Helvetica,sans-Serif" font-size="10.00">/extensions/GUI/CCControlExtension</text>
<text text-anchor="middle" x="1727" y="-447" font-family="Helvetica,sans-Serif" font-size="10.00">/CCControlButton.h</text>
</a>
</g>
</g>
<!-- Node5&#45;&gt;Node6 -->
<g id="edge6" class="edge">
<title>Node5&#45;&gt;Node6</title>
<path fill="none" stroke="#63b8ff" d="M1470.06,-527.71C1520.66,-515.75 1580.62,-501.58 1629.89,-489.94"/>
<polygon fill="#63b8ff" stroke="#63b8ff" points="1468.99,-524.36 1460.07,-530.07 1470.6,-531.17 1468.99,-524.36"/>
</g>
<!-- Node7 -->
<g id="node7" class="node">
<title>Node7</title>
<g id="a_node7"><a xlink:href="../../d6/d86/_c_c_control_extensions_8h.html" target="_top" xlink:title=" ">
<polygon fill="white" stroke="#666666" points="1468,-316 1274,-316 1274,-264 1468,-264 1468,-316"/>
<text text-anchor="start" x="1282" y="-304" font-family="Helvetica,sans-Serif" font-size="10.00">/home/runner/work/cocos</text>
<text text-anchor="start" x="1282" y="-293" font-family="Helvetica,sans-Serif" font-size="10.00">&#45;headers/cocos&#45;headers</text>
<text text-anchor="start" x="1282" y="-282" font-family="Helvetica,sans-Serif" font-size="10.00">/extensions/GUI/CCControlExtension</text>
<text text-anchor="middle" x="1371" y="-271" font-family="Helvetica,sans-Serif" font-size="10.00">/CCControlExtensions.h</text>
</a>
</g>
</g>
<!-- Node5&#45;&gt;Node7 -->
<g id="edge20" class="edge">
<title>Node5&#45;&gt;Node7</title>
<path fill="none" stroke="#63b8ff" d="M1255.75,-548.52C1105.54,-541.13 847.54,-523.92 819,-492 803.6,-474.77 806.04,-459.14 819,-440 843.15,-404.33 874.97,-430.42 909,-404 931.61,-386.45 922.47,-366.75 947,-352 1000.46,-319.86 1165.92,-303.65 1273.64,-296.29"/>
<polygon fill="#63b8ff" stroke="#63b8ff" points="1255.78,-552.03 1265.93,-549.02 1256.11,-545.03 1255.78,-552.03"/>
</g>
<!-- Node17 -->
<g id="node17" class="node">
<title>Node17</title>
<g id="a_node17"><a xlink:href="../../d3/db7/_c_c_control_colour_picker_8h.html" target="_top" xlink:title=" ">
<polygon fill="white" stroke="#666666" points="1150,-404 956,-404 956,-352 1150,-352 1150,-404"/>
<text text-anchor="start" x="964" y="-392" font-family="Helvetica,sans-Serif" font-size="10.00">/home/runner/work/cocos</text>
<text text-anchor="start" x="964" y="-381" font-family="Helvetica,sans-Serif" font-size="10.00">&#45;headers/cocos&#45;headers</text>
<text text-anchor="start" x="964" y="-370" font-family="Helvetica,sans-Serif" font-size="10.00">/extensions/GUI/CCControlExtension</text>
<text text-anchor="middle" x="1053" y="-359" font-family="Helvetica,sans-Serif" font-size="10.00">/CCControlColourPicker.h</text>
</a>
</g>
</g>
<!-- Node5&#45;&gt;Node17 -->
<g id="edge18" class="edge">
<title>Node5&#45;&gt;Node17</title>
<path fill="none" stroke="#63b8ff" d="M1439.49,-522.41C1451.29,-514.3 1461.9,-504.28 1469,-492 1480.57,-471.99 1484.37,-457.26 1469,-440 1422.88,-388.21 1227.31,-415.98 1159,-404 1156.11,-403.49 1153.19,-402.96 1150.24,-402.4"/>
<polygon fill="#63b8ff" stroke="#63b8ff" points="1437.28,-519.66 1430.71,-527.98 1441.03,-525.57 1437.28,-519.66"/>
</g>
<!-- Node18 -->
<g id="node18" class="node">
<title>Node18</title>
<g id="a_node18"><a xlink:href="../../dd/d5a/_c_c_control_hue_picker_8h.html" target="_top" xlink:title=" ">
<polygon fill="white" stroke="#666666" points="1022,-492 828,-492 828,-440 1022,-440 1022,-492"/>
<text text-anchor="start" x="836" y="-480" font-family="Helvetica,sans-Serif" font-size="10.00">/home/runner/work/cocos</text>
<text text-anchor="start" x="836" y="-469" font-family="Helvetica,sans-Serif" font-size="10.00">&#45;headers/cocos&#45;headers</text>
<text text-anchor="start" x="836" y="-458" font-family="Helvetica,sans-Serif" font-size="10.00">/extensions/GUI/CCControlExtension</text>
<text text-anchor="middle" x="925" y="-447" font-family="Helvetica,sans-Serif" font-size="10.00">/CCControlHuePicker.h</text>
</a>
</g>
</g>
<!-- Node5&#45;&gt;Node18 -->
<g id="edge21" class="edge">
<title>Node5&#45;&gt;Node18</title>
<path fill="none" stroke="#63b8ff" d="M1255.9,-534.72C1190.73,-523.25 1105.88,-507.7 1031,-492 1028.04,-491.38 1025.03,-490.74 1022,-490.08"/>
<polygon fill="#63b8ff" stroke="#63b8ff" points="1255.32,-538.17 1265.78,-536.45 1256.54,-531.28 1255.32,-538.17"/>
</g>
<!-- Node19 -->
<g id="node19" class="node">
<title>Node19</title>
<g id="a_node19"><a xlink:href="../../d2/d29/_c_c_control_potentiometer_8h.html" target="_top" xlink:title=" ">
<polygon fill="white" stroke="#666666" points="1362,-404 1168,-404 1168,-352 1362,-352 1362,-404"/>
<text text-anchor="start" x="1176" y="-392" font-family="Helvetica,sans-Serif" font-size="10.00">/home/runner/work/cocos</text>
<text text-anchor="start" x="1176" y="-381" font-family="Helvetica,sans-Serif" font-size="10.00">&#45;headers/cocos&#45;headers</text>
<text text-anchor="start" x="1176" y="-370" font-family="Helvetica,sans-Serif" font-size="10.00">/extensions/GUI/CCControlExtension</text>
<text text-anchor="middle" x="1265" y="-359" font-family="Helvetica,sans-Serif" font-size="10.00">/CCControlPotentiometer.h</text>
</a>
</g>
</g>
<!-- Node5&#45;&gt;Node19 -->
<g id="edge23" class="edge">
<title>Node5&#45;&gt;Node19</title>
<path fill="none" stroke="#63b8ff" d="M1468.94,-522.87C1482,-514.87 1493.67,-504.76 1502,-492 1514.64,-472.65 1516.16,-458.27 1502,-440 1499.68,-437.01 1426.51,-418.45 1362.08,-402.58"/>
<polygon fill="#63b8ff" stroke="#63b8ff" points="1467.15,-519.86 1460.18,-527.83 1470.6,-525.95 1467.15,-519.86"/>
</g>
<!-- Node20 -->
<g id="node20" class="node">
<title>Node20</title>
<g id="a_node20"><a xlink:href="../../de/d08/_c_c_control_saturation_brightness_picker_8h.html" target="_top" xlink:title=" ">
<polygon fill="white" stroke="#666666" points="1248,-492 1040,-492 1040,-440 1248,-440 1248,-492"/>
<text text-anchor="start" x="1048" y="-480" font-family="Helvetica,sans-Serif" font-size="10.00">/home/runner/work/cocos</text>
<text text-anchor="start" x="1048" y="-469" font-family="Helvetica,sans-Serif" font-size="10.00">&#45;headers/cocos&#45;headers</text>
<text text-anchor="start" x="1048" y="-458" font-family="Helvetica,sans-Serif" font-size="10.00">/extensions/GUI/CCControlExtension</text>
<text text-anchor="middle" x="1144" y="-447" font-family="Helvetica,sans-Serif" font-size="10.00">/CCControlSaturationBrightnessPicker.h</text>
</a>
</g>
</g>
<!-- Node5&#45;&gt;Node20 -->
<g id="edge25" class="edge">
<title>Node5&#45;&gt;Node20</title>
<path fill="none" stroke="#63b8ff" d="M1289.49,-524.14C1263.09,-513.77 1233.54,-502.16 1208.01,-492.14"/>
<polygon fill="#63b8ff" stroke="#63b8ff" points="1288.48,-527.5 1299.07,-527.89 1291.04,-520.98 1288.48,-527.5"/>
</g>
<!-- Node21 -->
<g id="node21" class="node">
<title>Node21</title>
<g id="a_node21"><a xlink:href="../../d6/d7e/_c_c_control_slider_8h.html" target="_top" xlink:title=" ">
<polygon fill="white" stroke="#666666" points="1574,-404 1380,-404 1380,-352 1574,-352 1574,-404"/>
<text text-anchor="start" x="1388" y="-392" font-family="Helvetica,sans-Serif" font-size="10.00">/home/runner/work/cocos</text>
<text text-anchor="start" x="1388" y="-381" font-family="Helvetica,sans-Serif" font-size="10.00">&#45;headers/cocos&#45;headers</text>
<text text-anchor="start" x="1388" y="-370" font-family="Helvetica,sans-Serif" font-size="10.00">/extensions/GUI/CCControlExtension</text>
<text text-anchor="middle" x="1477" y="-359" font-family="Helvetica,sans-Serif" font-size="10.00">/CCControlSlider.h</text>
</a>
</g>
</g>
<!-- Node5&#45;&gt;Node21 -->
<g id="edge27" class="edge">
<title>Node5&#45;&gt;Node21</title>
<path fill="none" stroke="#63b8ff" d="M1469.85,-532.2C1490.37,-523.23 1509.36,-510.38 1522,-492 1540.78,-464.68 1519.6,-428.37 1500.41,-404.37"/>
<polygon fill="#63b8ff" stroke="#63b8ff" points="1468.29,-529.06 1460.34,-536.06 1470.92,-535.55 1468.29,-529.06"/>
</g>
<!-- Node22 -->
<g id="node22" class="node">
<title>Node22</title>
<g id="a_node22"><a xlink:href="../../de/dba/_c_c_control_stepper_8h.html" target="_top" xlink:title=" ">
<polygon fill="white" stroke="#666666" points="1786,-404 1592,-404 1592,-352 1786,-352 1786,-404"/>
<text text-anchor="start" x="1600" y="-392" font-family="Helvetica,sans-Serif" font-size="10.00">/home/runner/work/cocos</text>
<text text-anchor="start" x="1600" y="-381" font-family="Helvetica,sans-Serif" font-size="10.00">&#45;headers/cocos&#45;headers</text>
<text text-anchor="start" x="1600" y="-370" font-family="Helvetica,sans-Serif" font-size="10.00">/extensions/GUI/CCControlExtension</text>
<text text-anchor="middle" x="1689" y="-359" font-family="Helvetica,sans-Serif" font-size="10.00">/CCControlStepper.h</text>
</a>
</g>
</g>
<!-- Node5&#45;&gt;Node22 -->
<g id="edge29" class="edge">
<title>Node5&#45;&gt;Node22</title>
<path fill="none" stroke="#63b8ff" d="M1463.32,-524.6C1489,-515.68 1516.1,-504.76 1540,-492 1585.97,-467.46 1632.86,-429.27 1661.46,-404.2"/>
<polygon fill="#63b8ff" stroke="#63b8ff" points="1461.89,-521.39 1453.55,-527.92 1464.15,-528.01 1461.89,-521.39"/>
</g>
<!-- Node23 -->
<g id="node23" class="node">
<title>Node23</title>
<g id="a_node23"><a xlink:href="../../de/dc7/_c_c_control_switch_8h.html" target="_top" xlink:title=" ">
<polygon fill="white" stroke="#666666" points="900,-404 706,-404 706,-352 900,-352 900,-404"/>
<text text-anchor="start" x="714" y="-392" font-family="Helvetica,sans-Serif" font-size="10.00">/home/runner/work/cocos</text>
<text text-anchor="start" x="714" y="-381" font-family="Helvetica,sans-Serif" font-size="10.00">&#45;headers/cocos&#45;headers</text>
<text text-anchor="start" x="714" y="-370" font-family="Helvetica,sans-Serif" font-size="10.00">/extensions/GUI/CCControlExtension</text>
<text text-anchor="middle" x="803" y="-359" font-family="Helvetica,sans-Serif" font-size="10.00">/CCControlSwitch.h</text>
</a>
</g>
</g>
<!-- Node5&#45;&gt;Node23 -->
<g id="edge31" class="edge">
<title>Node5&#45;&gt;Node23</title>
<path fill="none" stroke="#63b8ff" d="M1255.53,-549.26C1097.25,-542.64 816.76,-526.19 786,-492 764.63,-468.26 776.87,-429.68 788.89,-404.33"/>
<polygon fill="#63b8ff" stroke="#63b8ff" points="1255.63,-552.77 1265.77,-549.69 1255.92,-545.78 1255.63,-552.77"/>
</g>
<!-- Node24 -->
<g id="node24" class="node">
<title>Node24</title>
<g id="a_node24"><a xlink:href="../../d8/dec/_color_picker_delegate_8h.html" target="_top" xlink:title=" ">
<polygon fill="white" stroke="#666666" points="1460,-492 1266,-492 1266,-440 1460,-440 1460,-492"/>
<text text-anchor="start" x="1274" y="-480" font-family="Helvetica,sans-Serif" font-size="10.00">/home/runner/work/cocos</text>
<text text-anchor="start" x="1274" y="-469" font-family="Helvetica,sans-Serif" font-size="10.00">&#45;headers/cocos&#45;headers</text>
<text text-anchor="start" x="1274" y="-458" font-family="Helvetica,sans-Serif" font-size="10.00">/extensions/GUI/CCControlExtension</text>
<text text-anchor="middle" x="1363" y="-447" font-family="Helvetica,sans-Serif" font-size="10.00">/ColorPickerDelegate.h</text>
</a>
</g>
</g>
<!-- Node5&#45;&gt;Node24 -->
<g id="edge33" class="edge">
<title>Node5&#45;&gt;Node24</title>
<path fill="none" stroke="#63b8ff" d="M1363,-517.56C1363,-509.04 1363,-500.1 1363,-492.16"/>
<polygon fill="#63b8ff" stroke="#63b8ff" points="1359.5,-517.66 1363,-527.66 1366.5,-517.66 1359.5,-517.66"/>
</g>
<!-- Node6&#45;&gt;Node7 -->
<g id="edge7" class="edge">
<title>Node6&#45;&gt;Node7</title>
<path fill="none" stroke="#63b8ff" d="M1773.37,-433.19C1782.14,-424.8 1790.1,-414.97 1795,-404 1804.42,-382.9 1810.13,-369.47 1795,-352 1753.61,-304.22 1580.21,-293 1468.39,-290.85"/>
<polygon fill="#63b8ff" stroke="#63b8ff" points="1770.99,-430.62 1765.85,-439.89 1775.65,-435.85 1770.99,-430.62"/>
</g>
<!-- Node7&#45;&gt;Node8 -->
<g id="edge8" class="edge">
<title>Node7&#45;&gt;Node8</title>
<path fill="none" stroke="#63b8ff" d="M1263.91,-262.76C1208.95,-249.3 1143.38,-233.23 1094.07,-221.15"/>
<polygon fill="#63b8ff" stroke="#63b8ff" points="1263.15,-266.18 1273.69,-265.16 1264.81,-259.38 1263.15,-266.18"/>
</g>
<!-- Node16 -->
<g id="node16" class="node">
<title>Node16</title>
<g id="a_node16"><a xlink:href="../../d3/d58/cocos-ext_8h.html" target="_top" xlink:title=" ">
<polygon fill="white" stroke="#666666" points="1960,-134.5 1820,-134.5 1820,-93.5 1960,-93.5 1960,-134.5"/>
<text text-anchor="start" x="1828" y="-122.5" font-family="Helvetica,sans-Serif" font-size="10.00">/home/runner/work/cocos</text>
<text text-anchor="start" x="1828" y="-111.5" font-family="Helvetica,sans-Serif" font-size="10.00">&#45;headers/cocos&#45;headers</text>
<text text-anchor="middle" x="1890" y="-100.5" font-family="Helvetica,sans-Serif" font-size="10.00">/extensions/cocos&#45;ext.h</text>
</a>
</g>
</g>
<!-- Node7&#45;&gt;Node16 -->
<g id="edge17" class="edge">
<title>Node7&#45;&gt;Node16</title>
<path fill="none" stroke="#63b8ff" d="M1449.35,-260.44C1514.16,-237.06 1608.75,-203.47 1692,-176 1735.89,-161.52 1785.61,-146.21 1824.24,-134.55"/>
<polygon fill="#63b8ff" stroke="#63b8ff" points="1447.83,-257.27 1439.61,-263.96 1450.2,-263.86 1447.83,-257.27"/>
</g>
<!-- Node8&#45;&gt;Node9 -->
<g id="edge9" class="edge">
<title>Node8&#45;&gt;Node9</title>
<path fill="none" stroke="#63b8ff" d="M935.89,-186.65C839.37,-170.18 682.56,-143.42 590.35,-127.69"/>
<polygon fill="#63b8ff" stroke="#63b8ff" points="935.46,-190.12 945.9,-188.36 936.64,-183.22 935.46,-190.12"/>
</g>
<!-- Node8&#45;&gt;Node16 -->
<g id="edge16" class="edge">
<title>Node8&#45;&gt;Node16</title>
<path fill="none" stroke="#63b8ff" d="M1104.15,-192.68C1275.35,-175.76 1661.38,-137.6 1819.97,-121.92"/>
<polygon fill="#63b8ff" stroke="#63b8ff" points="1103.78,-189.2 1094.18,-193.67 1104.47,-196.17 1103.78,-189.2"/>
</g>
<!-- Node9&#45;&gt;Node10 -->
<g id="edge10" class="edge">
<title>Node9&#45;&gt;Node10</title>
<path fill="none" stroke="#63b8ff" d="M431.99,-99.6C344.8,-85.47 214.41,-63.69 165,-52 162.07,-51.31 159.09,-50.57 156.09,-49.8"/>
<polygon fill="#63b8ff" stroke="#63b8ff" points="431.44,-103.05 441.87,-101.19 432.55,-96.14 431.44,-103.05"/>
</g>
<!-- Node9&#45;&gt;Node11 -->
<g id="edge11" class="edge">
<title>Node9&#45;&gt;Node11</title>
<path fill="none" stroke="#63b8ff" d="M431.96,-86.03C396.87,-74.77 356.44,-61.8 322.44,-50.89"/>
<polygon fill="#63b8ff" stroke="#63b8ff" points="431.11,-89.44 441.7,-89.16 433.25,-82.77 431.11,-89.44"/>
</g>
<!-- Node9&#45;&gt;Node12 -->
<g id="edge12" class="edge">
<title>Node9&#45;&gt;Node12</title>
<path fill="none" stroke="#63b8ff" d="M478.53,-81.41C467.15,-71.82 454.81,-61.41 443.99,-52.29"/>
<polygon fill="#63b8ff" stroke="#63b8ff" points="476.32,-84.12 486.22,-87.89 480.83,-78.77 476.32,-84.12"/>
</g>
<!-- Node9&#45;&gt;Node13 -->
<g id="edge13" class="edge">
<title>Node9&#45;&gt;Node13</title>
<path fill="none" stroke="#63b8ff" d="M592.83,-84.27C620.66,-73.87 651.84,-62.21 678.77,-52.14"/>
<polygon fill="#63b8ff" stroke="#63b8ff" points="591.28,-81.11 583.14,-87.89 593.74,-87.67 591.28,-81.11"/>
</g>
<!-- Node9&#45;&gt;Node14 -->
<g id="edge14" class="edge">
<title>Node9&#45;&gt;Node14</title>
<path fill="none" stroke="#63b8ff" d="M600.33,-96.2C614.25,-93.45 628.53,-90.63 642,-88 725.07,-71.76 746.82,-72.23 829,-52 831.92,-51.28 834.9,-50.52 837.89,-49.73"/>
<polygon fill="#63b8ff" stroke="#63b8ff" points="599.4,-92.81 590.27,-98.19 600.76,-99.68 599.4,-92.81"/>
</g>
<!-- Node15 -->
<g id="node15" class="node">
<title>Node15</title>
<g id="a_node15"><a xlink:href="../../d4/d91/_c_c_edit_box_impl_wp8_8h.html" target="_top" xlink:title=" ">
<polygon fill="white" stroke="#666666" points="654,-52 506,-52 506,0 654,0 654,-52"/>
<text text-anchor="start" x="514" y="-40" font-family="Helvetica,sans-Serif" font-size="10.00">/home/runner/work/cocos</text>
<text text-anchor="start" x="514" y="-29" font-family="Helvetica,sans-Serif" font-size="10.00">&#45;headers/cocos&#45;headers</text>
<text text-anchor="start" x="514" y="-18" font-family="Helvetica,sans-Serif" font-size="10.00">/extensions/GUI/CCEditBox</text>
<text text-anchor="middle" x="580" y="-7" font-family="Helvetica,sans-Serif" font-size="10.00">/CCEditBoxImplWp8.h</text>
</a>
</g>
</g>
<!-- Node9&#45;&gt;Node15 -->
<g id="edge15" class="edge">
<title>Node9&#45;&gt;Node15</title>
<path fill="none" stroke="#63b8ff" d="M540.92,-79.52C547.69,-70.42 554.91,-60.71 561.28,-52.16"/>
<polygon fill="#63b8ff" stroke="#63b8ff" points="538.02,-77.55 534.86,-87.66 543.63,-81.73 538.02,-77.55"/>
</g>
<!-- Node17&#45;&gt;Node7 -->
<g id="edge19" class="edge">
<title>Node17&#45;&gt;Node7</title>
<path fill="none" stroke="#63b8ff" d="M1155.74,-349.22C1195.17,-338.55 1239.9,-326.46 1278.33,-316.06"/>
<polygon fill="#63b8ff" stroke="#63b8ff" points="1154.57,-345.9 1145.83,-351.89 1156.4,-352.66 1154.57,-345.9"/>
</g>
<!-- Node18&#45;&gt;Node17 -->
<g id="edge22" class="edge">
<title>Node18&#45;&gt;Node17</title>
<path fill="none" stroke="#63b8ff" d="M970.79,-434.24C985.4,-424.42 1001.4,-413.67 1015.36,-404.29"/>
<polygon fill="#63b8ff" stroke="#63b8ff" points="968.72,-431.41 962.37,-439.89 972.62,-437.22 968.72,-431.41"/>
</g>
<!-- Node19&#45;&gt;Node7 -->
<g id="edge24" class="edge">
<title>Node19&#45;&gt;Node7</title>
<path fill="none" stroke="#63b8ff" d="M1303.94,-345.41C1315.76,-335.82 1328.59,-325.41 1339.83,-316.29"/>
<polygon fill="#63b8ff" stroke="#63b8ff" points="1301.51,-342.88 1295.94,-351.89 1305.92,-348.31 1301.51,-342.88"/>
</g>
<!-- Node20&#45;&gt;Node17 -->
<g id="edge26" class="edge">
<title>Node20&#45;&gt;Node17</title>
<path fill="none" stroke="#63b8ff" d="M1109.75,-432.63C1099.78,-423.21 1089.04,-413.06 1079.62,-404.16"/>
<polygon fill="#63b8ff" stroke="#63b8ff" points="1107.52,-435.34 1117.19,-439.66 1112.33,-430.25 1107.52,-435.34"/>
</g>
<!-- Node21&#45;&gt;Node7 -->
<g id="edge28" class="edge">
<title>Node21&#45;&gt;Node7</title>
<path fill="none" stroke="#63b8ff" d="M1438.06,-345.41C1426.24,-335.82 1413.41,-325.41 1402.17,-316.29"/>
<polygon fill="#63b8ff" stroke="#63b8ff" points="1436.08,-348.31 1446.06,-351.89 1440.49,-342.88 1436.08,-348.31"/>
</g>
<!-- Node22&#45;&gt;Node7 -->
<g id="edge30" class="edge">
<title>Node22&#45;&gt;Node7</title>
<path fill="none" stroke="#63b8ff" d="M1586.26,-349.22C1546.83,-338.55 1502.1,-326.46 1463.67,-316.06"/>
<polygon fill="#63b8ff" stroke="#63b8ff" points="1585.6,-352.66 1596.17,-351.89 1587.43,-345.9 1585.6,-352.66"/>
</g>
<!-- Node23&#45;&gt;Node7 -->
<g id="edge32" class="edge">
<title>Node23&#45;&gt;Node7</title>
<path fill="none" stroke="#63b8ff" d="M910.12,-352.7C911.42,-352.46 912.71,-352.23 914,-352 1037.51,-329.89 1181.1,-311.99 1273.88,-301.43"/>
<polygon fill="#63b8ff" stroke="#63b8ff" points="909.23,-349.31 900.06,-354.62 910.54,-356.19 909.23,-349.31"/>
</g>
<!-- Node24&#45;&gt;Node17 -->
<g id="edge34" class="edge">
<title>Node24&#45;&gt;Node17</title>
<path fill="none" stroke="#63b8ff" d="M1262.85,-437.22C1224.41,-426.55 1180.81,-414.46 1143.34,-404.06"/>
<polygon fill="#63b8ff" stroke="#63b8ff" points="1261.93,-440.59 1272.5,-439.89 1263.8,-433.85 1261.93,-440.59"/>
</g>
<!-- Node25&#45;&gt;Node6 -->
<g id="edge36" class="edge">
<title>Node25&#45;&gt;Node6</title>
<path fill="none" stroke="#63b8ff" d="M1697.39,-518.96C1702.49,-510.02 1707.89,-500.54 1712.67,-492.16"/>
<polygon fill="#63b8ff" stroke="#63b8ff" points="1694.35,-517.24 1692.44,-527.66 1700.43,-520.71 1694.35,-517.24"/>
</g>
<!-- Node25&#45;&gt;Node7 -->
<g id="edge37" class="edge">
<title>Node25&#45;&gt;Node7</title>
<path fill="none" stroke="#63b8ff" d="M1775.41,-524.52C1801.8,-514.74 1825.25,-503.39 1833,-492 1852.14,-463.9 1814.42,-353.3 1813,-352 1764.12,-307.17 1582.85,-295.02 1468.18,-291.89"/>
<polygon fill="#63b8ff" stroke="#63b8ff" points="1774.2,-521.23 1765.97,-527.91 1776.57,-527.82 1774.2,-521.23"/>
</g>
<!-- Node26&#45;&gt;Node16 -->
<g id="edge48" class="edge">
<title>Node26&#45;&gt;Node16</title>
<path fill="none" stroke="#63b8ff" d="M1852.37,-256.33C1859.52,-247.74 1866.32,-238.04 1871,-228 1885.21,-197.53 1888.94,-158.04 1889.83,-134.72"/>
<polygon fill="#63b8ff" stroke="#63b8ff" points="1849.71,-254.06 1845.76,-263.9 1854.98,-258.67 1849.71,-254.06"/>
</g>
<!-- Node27 -->
<g id="node27" class="node">
<title>Node27</title>
<g id="a_node27"><a xlink:href="../../d8/dbb/_c_c_table_view_8h.html" target="_top" xlink:title=" ">
<polygon fill="white" stroke="#666666" points="1861.5,-228 1700.5,-228 1700.5,-176 1861.5,-176 1861.5,-228"/>
<text text-anchor="start" x="1708.5" y="-216" font-family="Helvetica,sans-Serif" font-size="10.00">/home/runner/work/cocos</text>
<text text-anchor="start" x="1708.5" y="-205" font-family="Helvetica,sans-Serif" font-size="10.00">&#45;headers/cocos&#45;headers</text>
<text text-anchor="start" x="1708.5" y="-194" font-family="Helvetica,sans-Serif" font-size="10.00">/extensions/GUI/CCScrollView</text>
<text text-anchor="middle" x="1781" y="-183" font-family="Helvetica,sans-Serif" font-size="10.00">/CCTableView.h</text>
</a>
</g>
</g>
<!-- Node26&#45;&gt;Node27 -->
<g id="edge46" class="edge">
<title>Node26&#45;&gt;Node27</title>
<path fill="none" stroke="#63b8ff" d="M1803.71,-254.4C1799.83,-245.63 1795.74,-236.36 1792.12,-228.16"/>
<polygon fill="#63b8ff" stroke="#63b8ff" points="1800.56,-255.93 1807.8,-263.66 1806.96,-253.1 1800.56,-255.93"/>
</g>
<!-- Node27&#45;&gt;Node16 -->
<g id="edge47" class="edge">
<title>Node27&#45;&gt;Node16</title>
<path fill="none" stroke="#63b8ff" d="M1820.88,-169.54C1835.73,-157.82 1852.14,-144.87 1865.25,-134.53"/>
<polygon fill="#63b8ff" stroke="#63b8ff" points="1818.5,-166.95 1812.82,-175.89 1822.84,-172.45 1818.5,-166.95"/>
</g>
<!-- Node28&#45;&gt;Node16 -->
<g id="edge50" class="edge">
<title>Node28&#45;&gt;Node16</title>
<path fill="none" stroke="#63b8ff" d="M2031.94,-348.11C2014.61,-307.97 1980.49,-233.76 1942,-176 1932.2,-161.29 1919.33,-146.16 1908.84,-134.65"/>
<polygon fill="#63b8ff" stroke="#63b8ff" points="2028.72,-349.5 2035.87,-357.32 2035.16,-346.75 2028.72,-349.5"/>
</g>
<!-- Node29&#45;&gt;Node16 -->
<g id="edge52" class="edge">
<title>Node29&#45;&gt;Node16</title>
<path fill="none" stroke="#63b8ff" d="M1925.83,-523.07C1926.72,-488.4 1928,-429.57 1928,-379 1928,-379 1928,-379 1928,-289 1928,-231.8 1908.16,-166.4 1897.15,-134.53"/>
<polygon fill="#63b8ff" stroke="#63b8ff" points="1922.32,-523.34 1925.56,-533.43 1929.32,-523.53 1922.32,-523.34"/>
</g>
<!-- Node29&#45;&gt;Node28 -->
<g id="edge53" class="edge">
<title>Node29&#45;&gt;Node28</title>
<path fill="none" stroke="#63b8ff" d="M1944.2,-524.93C1968.44,-489.48 2009.54,-429.39 2030.63,-398.55"/>
<polygon fill="#63b8ff" stroke="#63b8ff" points="1941.18,-523.15 1938.42,-533.38 1946.95,-527.1 1941.18,-523.15"/>
</g>
<!-- Node29&#45;&gt;Node30 -->
<g id="edge54" class="edge">
<title>Node29&#45;&gt;Node30</title>
<path fill="none" stroke="#63b8ff" d="M1990.2,-530.11C2028.85,-516.55 2077.33,-499.53 2114.2,-486.59"/>
<polygon fill="#63b8ff" stroke="#63b8ff" points="1988.87,-526.87 1980.59,-533.49 1991.19,-533.48 1988.87,-526.87"/>
</g>
<!-- Node30&#45;&gt;Node16 -->
<g id="edge55" class="edge">
<title>Node30&#45;&gt;Node16</title>
<path fill="none" stroke="#63b8ff" d="M2166.99,-435.31C2163.59,-411.55 2156.5,-378.03 2142,-352 2086.6,-252.58 1975.13,-170.49 1920.96,-134.54"/>
<polygon fill="#63b8ff" stroke="#63b8ff" points="2163.55,-436 2168.31,-445.47 2170.49,-435.11 2163.55,-436"/>
</g>
<!-- Node30&#45;&gt;Node28 -->
<g id="edge56" class="edge">
<title>Node30&#45;&gt;Node28</title>
<path fill="none" stroke="#63b8ff" d="M2132.91,-439.69C2113.76,-426.61 2090.73,-410.9 2072.91,-398.74"/>
<polygon fill="#63b8ff" stroke="#63b8ff" points="2131.18,-442.74 2141.41,-445.49 2135.12,-436.96 2131.18,-442.74"/>
</g>
</g>
</svg>
