<?xml version="1.0" encoding="UTF-8" standalone="no"?>
<!DOCTYPE svg PUBLIC "-//W3C//DTD SVG 1.1//EN"
 "http://www.w3.org/Graphics/SVG/1.1/DTD/svg11.dtd">
<!-- Generated by graphviz version 2.43.0 (0)
 -->
<!-- Title: CCMouseHandler Pages: 1 -->
<svg width="200pt" height="152pt"
 viewBox="0.00 0.00 199.50 152.00" xmlns="http://www.w3.org/2000/svg" xmlns:xlink="http://www.w3.org/1999/xlink">
<g id="graph0" class="graph" transform="scale(1 1) rotate(0) translate(4 148)">
<title>CCMouseHandler</title>
<!-- Node1 -->
<g id="node1" class="node">
<title>Node1</title>
<g id="a_node1"><a xlink:title=" ">
<polygon fill="#bfbfbf" stroke="black" points="35.5,-0.5 35.5,-19.5 136.5,-19.5 136.5,-0.5 35.5,-0.5"/>
<text text-anchor="middle" x="86" y="-7.5" font-family="Helvetica,sans-Serif" font-size="10.00">CCMouseHandler</text>
</a>
</g>
</g>
<!-- Node2 -->
<g id="node2" class="node">
<title>Node2</title>
<g id="a_node2"><a xlink:href="../../d3/dbf/classcocos2d_1_1_c_c_object.html" target="_top" xlink:title="NA.">
<polygon fill="none" stroke="black" points="4,-67.5 4,-86.5 66,-86.5 66,-67.5 4,-67.5"/>
<text text-anchor="middle" x="35" y="-74.5" font-family="Helvetica,sans-Serif" font-size="10.00">CCObject</text>
</a>
</g>
</g>
<!-- Node2&#45;&gt;Node1 -->
<g id="edge1" class="edge">
<title>Node2&#45;&gt;Node1</title>
<path fill="none" stroke="midnightblue" d="M48.13,-59.27C58.07,-46.6 71.33,-29.7 79.23,-19.63"/>
<polygon fill="midnightblue" stroke="midnightblue" points="45.3,-57.21 41.88,-67.23 50.8,-61.53 45.3,-57.21"/>
</g>
<!-- Node3 -->
<g id="node3" class="node">
<title>Node3</title>
<g id="a_node3"><a xlink:href="../../d5/d61/classcocos2d_1_1_c_c_copying.html" target="_top" xlink:title="NA NA.">
<polygon fill="none" stroke="black" points="0,-124.5 0,-143.5 70,-143.5 70,-124.5 0,-124.5"/>
<text text-anchor="middle" x="35" y="-131.5" font-family="Helvetica,sans-Serif" font-size="10.00">CCCopying</text>
</a>
</g>
</g>
<!-- Node3&#45;&gt;Node2 -->
<g id="edge2" class="edge">
<title>Node3&#45;&gt;Node2</title>
<path fill="none" stroke="midnightblue" d="M35,-114.12C35,-104.82 35,-94.06 35,-86.71"/>
<polygon fill="midnightblue" stroke="midnightblue" points="31.5,-114.41 35,-124.41 38.5,-114.41 31.5,-114.41"/>
</g>
<!-- Node4 -->
<g id="node4" class="node">
<title>Node4</title>
<g id="a_node4"><a xlink:href="../../d7/dcd/classcocos2d_1_1_c_c_mouse_delegate.html" target="_top" xlink:title=" ">
<polygon fill="none" stroke="black" points="84.5,-67.5 84.5,-86.5 191.5,-86.5 191.5,-67.5 84.5,-67.5"/>
<text text-anchor="middle" x="138" y="-74.5" font-family="Helvetica,sans-Serif" font-size="10.00">CCMouseDelegate</text>
</a>
</g>
</g>
<!-- Node4&#45;&gt;Node1 -->
<g id="edge3" class="edge">
<title>Node4&#45;&gt;Node1</title>
<path fill="none" stroke="#9a32cd" stroke-dasharray="5,2" d="M124.62,-59.27C114.48,-46.6 100.96,-29.7 92.9,-19.63"/>
<polygon fill="#9a32cd" stroke="#9a32cd" points="122.01,-61.61 130.99,-67.23 127.47,-57.24 122.01,-61.61"/>
<text text-anchor="middle" x="149.5" y="-41" font-family="Helvetica,sans-Serif" font-size="10.00"> m_pDelegate</text>
</g>
</g>
</svg>
