<?xml version="1.0" encoding="UTF-8" standalone="no"?>
<!DOCTYPE svg PUBLIC "-//W3C//DTD SVG 1.1//EN"
 "http://www.w3.org/Graphics/SVG/1.1/DTD/svg11.dtd">
<!-- Generated by graphviz version 2.43.0 (0)
 -->
<!-- Title: CCPageTurn3D Pages: 1 -->
<svg width="121pt" height="412pt"
 viewBox="0.00 0.00 121.00 412.00" xmlns="http://www.w3.org/2000/svg" xmlns:xlink="http://www.w3.org/1999/xlink">
<g id="graph0" class="graph" transform="scale(1 1) rotate(0) translate(4 408)">
<title>CCPageTurn3D</title>
<!-- Node1 -->
<g id="node1" class="node">
<title>Node1</title>
<g id="a_node1"><a xlink:title="This action simulates a page turn from the bottom right hand corner of the screen.">
<polygon fill="#999999" stroke="#666666" points="100,-19 13,-19 13,0 100,0 100,-19"/>
<text text-anchor="middle" x="56.5" y="-7" font-family="Helvetica,sans-Serif" font-size="10.00">CCPageTurn3D</text>
</a>
</g>
</g>
<!-- Node2 -->
<g id="node2" class="node">
<title>Node2</title>
<g id="a_node2"><a xlink:href="../../d7/dce/classcocos2d_1_1_c_c_grid3_d_action.html" target="_top" xlink:title="Base class for CCGrid3D actions.">
<polygon fill="white" stroke="#666666" points="104,-74 9,-74 9,-55 104,-55 104,-74"/>
<text text-anchor="middle" x="56.5" y="-62" font-family="Helvetica,sans-Serif" font-size="10.00">CCGrid3DAction</text>
</a>
</g>
</g>
<!-- Node2&#45;&gt;Node1 -->
<g id="edge1" class="edge">
<title>Node2&#45;&gt;Node1</title>
<path fill="none" stroke="#63b8ff" d="M56.5,-44.66C56.5,-35.93 56.5,-25.99 56.5,-19.09"/>
<polygon fill="#63b8ff" stroke="#63b8ff" points="53,-44.75 56.5,-54.75 60,-44.75 53,-44.75"/>
</g>
<!-- Node3 -->
<g id="node3" class="node">
<title>Node3</title>
<g id="a_node3"><a xlink:href="../../d5/d1e/classcocos2d_1_1_c_c_grid_action.html" target="_top" xlink:title="Base class for Grid actions.">
<polygon fill="white" stroke="#666666" points="97,-129 16,-129 16,-110 97,-110 97,-129"/>
<text text-anchor="middle" x="56.5" y="-117" font-family="Helvetica,sans-Serif" font-size="10.00">CCGridAction</text>
</a>
</g>
</g>
<!-- Node3&#45;&gt;Node2 -->
<g id="edge2" class="edge">
<title>Node3&#45;&gt;Node2</title>
<path fill="none" stroke="#63b8ff" d="M56.5,-99.66C56.5,-90.93 56.5,-80.99 56.5,-74.09"/>
<polygon fill="#63b8ff" stroke="#63b8ff" points="53,-99.75 56.5,-109.75 60,-99.75 53,-99.75"/>
</g>
<!-- Node4 -->
<g id="node4" class="node">
<title>Node4</title>
<g id="a_node4"><a xlink:href="../../dd/d8d/classcocos2d_1_1_c_c_action_interval.html" target="_top" xlink:title="An interval action is an action that takes place within a certain period of time.">
<polygon fill="white" stroke="#666666" points="105.5,-184 7.5,-184 7.5,-165 105.5,-165 105.5,-184"/>
<text text-anchor="middle" x="56.5" y="-172" font-family="Helvetica,sans-Serif" font-size="10.00">CCActionInterval</text>
</a>
</g>
</g>
<!-- Node4&#45;&gt;Node3 -->
<g id="edge3" class="edge">
<title>Node4&#45;&gt;Node3</title>
<path fill="none" stroke="#63b8ff" d="M56.5,-154.66C56.5,-145.93 56.5,-135.99 56.5,-129.09"/>
<polygon fill="#63b8ff" stroke="#63b8ff" points="53,-154.75 56.5,-164.75 60,-154.75 53,-154.75"/>
</g>
<!-- Node5 -->
<g id="node5" class="node">
<title>Node5</title>
<g id="a_node5"><a xlink:href="../../dd/d89/classcocos2d_1_1_c_c_finite_time_action.html" target="_top" xlink:title="Base class actions that do have a finite time duration.">
<polygon fill="white" stroke="#666666" points="113,-239 0,-239 0,-220 113,-220 113,-239"/>
<text text-anchor="middle" x="56.5" y="-227" font-family="Helvetica,sans-Serif" font-size="10.00">CCFiniteTimeAction</text>
</a>
</g>
</g>
<!-- Node5&#45;&gt;Node4 -->
<g id="edge4" class="edge">
<title>Node5&#45;&gt;Node4</title>
<path fill="none" stroke="#63b8ff" d="M56.5,-209.66C56.5,-200.93 56.5,-190.99 56.5,-184.09"/>
<polygon fill="#63b8ff" stroke="#63b8ff" points="53,-209.75 56.5,-219.75 60,-209.75 53,-209.75"/>
</g>
<!-- Node6 -->
<g id="node6" class="node">
<title>Node6</title>
<g id="a_node6"><a xlink:href="../../d7/d12/classcocos2d_1_1_c_c_action.html" target="_top" xlink:title="Base class for CCAction objects.">
<polygon fill="white" stroke="#666666" points="87,-294 26,-294 26,-275 87,-275 87,-294"/>
<text text-anchor="middle" x="56.5" y="-282" font-family="Helvetica,sans-Serif" font-size="10.00">CCAction</text>
</a>
</g>
</g>
<!-- Node6&#45;&gt;Node5 -->
<g id="edge5" class="edge">
<title>Node6&#45;&gt;Node5</title>
<path fill="none" stroke="#63b8ff" d="M56.5,-264.66C56.5,-255.93 56.5,-245.99 56.5,-239.09"/>
<polygon fill="#63b8ff" stroke="#63b8ff" points="53,-264.75 56.5,-274.75 60,-264.75 53,-264.75"/>
</g>
<!-- Node7 -->
<g id="node7" class="node">
<title>Node7</title>
<g id="a_node7"><a xlink:href="../../d3/dbf/classcocos2d_1_1_c_c_object.html" target="_top" xlink:title="NA.">
<polygon fill="white" stroke="#666666" points="87.5,-349 25.5,-349 25.5,-330 87.5,-330 87.5,-349"/>
<text text-anchor="middle" x="56.5" y="-337" font-family="Helvetica,sans-Serif" font-size="10.00">CCObject</text>
</a>
</g>
</g>
<!-- Node7&#45;&gt;Node6 -->
<g id="edge6" class="edge">
<title>Node7&#45;&gt;Node6</title>
<path fill="none" stroke="#63b8ff" d="M56.5,-319.66C56.5,-310.93 56.5,-300.99 56.5,-294.09"/>
<polygon fill="#63b8ff" stroke="#63b8ff" points="53,-319.75 56.5,-329.75 60,-319.75 53,-319.75"/>
</g>
<!-- Node8 -->
<g id="node8" class="node">
<title>Node8</title>
<g id="a_node8"><a xlink:href="../../d5/d61/classcocos2d_1_1_c_c_copying.html" target="_top" xlink:title="NA NA.">
<polygon fill="white" stroke="#666666" points="91.5,-404 21.5,-404 21.5,-385 91.5,-385 91.5,-404"/>
<text text-anchor="middle" x="56.5" y="-392" font-family="Helvetica,sans-Serif" font-size="10.00">CCCopying</text>
</a>
</g>
</g>
<!-- Node8&#45;&gt;Node7 -->
<g id="edge7" class="edge">
<title>Node8&#45;&gt;Node7</title>
<path fill="none" stroke="#63b8ff" d="M56.5,-374.66C56.5,-365.93 56.5,-355.99 56.5,-349.09"/>
<polygon fill="#63b8ff" stroke="#63b8ff" points="53,-374.75 56.5,-384.75 60,-374.75 53,-374.75"/>
</g>
</g>
</svg>
