<?xml version="1.0" encoding="UTF-8" standalone="no"?>
<!DOCTYPE svg PUBLIC "-//W3C//DTD SVG 1.1//EN"
 "http://www.w3.org/Graphics/SVG/1.1/DTD/svg11.dtd">
<!-- Generated by graphviz version 2.43.0 (0)
 -->
<!-- Title: CCKeyboardDelegate Pages: 1 -->
<svg width="786pt" height="335pt"
 viewBox="0.00 0.00 786.00 335.00" xmlns="http://www.w3.org/2000/svg" xmlns:xlink="http://www.w3.org/1999/xlink">
<g id="graph0" class="graph" transform="scale(1 1) rotate(0) translate(4 331)">
<title>CCKeyboardDelegate</title>
<!-- Node1 -->
<g id="node1" class="node">
<title>Node1</title>
<g id="a_node1"><a xlink:title=" ">
<polygon fill="#999999" stroke="#666666" points="120,-206 0,-206 0,-187 120,-187 120,-206"/>
<text text-anchor="middle" x="60" y="-194" font-family="Helvetica,sans-Serif" font-size="10.00">CCKeyboardDelegate</text>
</a>
</g>
</g>
<!-- Node2 -->
<g id="node2" class="node">
<title>Node2</title>
<g id="a_node2"><a xlink:href="../../d0/d45/class_c_c_layer.html" target="_top" xlink:title="CCLayer is a subclass of CCNode that implements the TouchEventsDelegate protocol.">
<polygon fill="white" stroke="#666666" points="213,-206 156,-206 156,-187 213,-187 213,-206"/>
<text text-anchor="middle" x="184.5" y="-194" font-family="Helvetica,sans-Serif" font-size="10.00">CCLayer</text>
</a>
</g>
</g>
<!-- Node1&#45;&gt;Node2 -->
<g id="edge1" class="edge">
<title>Node1&#45;&gt;Node2</title>
<path fill="none" stroke="#63b8ff" d="M130.32,-196.5C139.32,-196.5 148.09,-196.5 155.82,-196.5"/>
<polygon fill="#63b8ff" stroke="#63b8ff" points="130.1,-193 120.1,-196.5 130.1,-200 130.1,-193"/>
</g>
<!-- Node3 -->
<g id="node3" class="node">
<title>Node3</title>
<g id="a_node3"><a xlink:href="../../d3/d7e/classcocos2d_1_1_c_c_layer_multiplex.html" target="_top" xlink:title="CCMultipleLayer is a CCLayer with the ability to multiplex it&#39;s children.">
<polygon fill="white" stroke="#666666" points="352,-243 249,-243 249,-224 352,-224 352,-243"/>
<text text-anchor="middle" x="300.5" y="-231" font-family="Helvetica,sans-Serif" font-size="10.00">CCLayerMultiplex</text>
</a>
</g>
</g>
<!-- Node2&#45;&gt;Node3 -->
<g id="edge2" class="edge">
<title>Node2&#45;&gt;Node3</title>
<path fill="none" stroke="#63b8ff" d="M222.83,-208.62C238.2,-213.6 255.74,-219.3 270.17,-223.98"/>
<polygon fill="#63b8ff" stroke="#63b8ff" points="223.69,-205.21 213.1,-205.46 221.53,-211.87 223.69,-205.21"/>
</g>
<!-- Node4 -->
<g id="node4" class="node">
<title>Node4</title>
<g id="a_node4"><a xlink:href="../../dd/d1e/classcocos2d_1_1_c_c_layer_r_g_b_a.html" target="_top" xlink:title="CCLayerRGBA is a subclass of CCLayer that implements the CCRGBAProtocol protocol using a solid color ...">
<polygon fill="white" stroke="#666666" points="343,-206 258,-206 258,-187 343,-187 343,-206"/>
<text text-anchor="middle" x="300.5" y="-194" font-family="Helvetica,sans-Serif" font-size="10.00">CCLayerRGBA</text>
</a>
</g>
</g>
<!-- Node2&#45;&gt;Node4 -->
<g id="edge3" class="edge">
<title>Node2&#45;&gt;Node4</title>
<path fill="none" stroke="#63b8ff" d="M223.33,-196.5C234.42,-196.5 246.6,-196.5 257.91,-196.5"/>
<polygon fill="#63b8ff" stroke="#63b8ff" points="223.1,-193 213.1,-196.5 223.1,-200 223.1,-193"/>
</g>
<!-- Node18 -->
<g id="node18" class="node">
<title>Node18</title>
<g id="a_node18"><a xlink:href="../../d3/dbc/classcocos2d_1_1extension_1_1_c_c_scroll_view.html" target="_top" xlink:title="ScrollView support for cocos2d for iphone.">
<polygon fill="white" stroke="#666666" points="341,-160 260,-160 260,-141 341,-141 341,-160"/>
<text text-anchor="middle" x="300.5" y="-148" font-family="Helvetica,sans-Serif" font-size="10.00">CCScrollView</text>
</a>
</g>
</g>
<!-- Node2&#45;&gt;Node18 -->
<g id="edge17" class="edge">
<title>Node2&#45;&gt;Node18</title>
<path fill="none" stroke="#63b8ff" d="M218.57,-183.16C236.93,-175.75 259.33,-166.71 275.91,-160.02"/>
<polygon fill="#63b8ff" stroke="#63b8ff" points="217.08,-179.98 209.12,-186.97 219.7,-186.47 217.08,-179.98"/>
</g>
<!-- Node5 -->
<g id="node5" class="node">
<title>Node5</title>
<g id="a_node5"><a xlink:href="../../da/d2c/classcocos2d_1_1_c_c_layer_color.html" target="_top" xlink:title="CCLayerColor is a subclass of CCLayer that implements the CCRGBAProtocol protocol.">
<polygon fill="white" stroke="#666666" points="471,-290 388,-290 388,-271 471,-271 471,-290"/>
<text text-anchor="middle" x="429.5" y="-278" font-family="Helvetica,sans-Serif" font-size="10.00">CCLayerColor</text>
</a>
</g>
</g>
<!-- Node4&#45;&gt;Node5 -->
<g id="edge4" class="edge">
<title>Node4&#45;&gt;Node5</title>
<path fill="none" stroke="#63b8ff" d="M343.13,-209.92C346.19,-211.33 349.18,-212.86 352,-214.5 379.29,-230.38 406.02,-256.56 419.49,-270.7"/>
<polygon fill="#63b8ff" stroke="#63b8ff" points="344.4,-206.65 333.82,-206.01 341.68,-213.11 344.4,-206.65"/>
</g>
<!-- Node7 -->
<g id="node7" class="node">
<title>Node7</title>
<g id="a_node7"><a xlink:href="../../d1/da0/classcocos2d_1_1_c_c_menu.html" target="_top" xlink:title="A CCMenu.">
<polygon fill="white" stroke="#666666" points="458,-216 401,-216 401,-197 458,-197 458,-216"/>
<text text-anchor="middle" x="429.5" y="-204" font-family="Helvetica,sans-Serif" font-size="10.00">CCMenu</text>
</a>
</g>
</g>
<!-- Node4&#45;&gt;Node7 -->
<g id="edge6" class="edge">
<title>Node4&#45;&gt;Node7</title>
<path fill="none" stroke="#63b8ff" d="M353.08,-200.56C369.43,-201.85 386.86,-203.22 400.85,-204.32"/>
<polygon fill="#63b8ff" stroke="#63b8ff" points="353.33,-197.07 343.08,-199.77 352.78,-204.05 353.33,-197.07"/>
</g>
<!-- Node8 -->
<g id="node8" class="node">
<title>Node8</title>
<g id="a_node8"><a xlink:href="../../d4/d38/classcocos2d_1_1extension_1_1_c_c_control.html" target="_top" xlink:title=" ">
<polygon fill="white" stroke="#666666" points="462,-179 397,-179 397,-160 462,-160 462,-179"/>
<text text-anchor="middle" x="429.5" y="-167" font-family="Helvetica,sans-Serif" font-size="10.00">CCControl</text>
</a>
</g>
</g>
<!-- Node4&#45;&gt;Node8 -->
<g id="edge7" class="edge">
<title>Node4&#45;&gt;Node8</title>
<path fill="none" stroke="#63b8ff" d="M353.16,-185.52C367.97,-182.37 383.68,-179.03 396.9,-176.22"/>
<polygon fill="#63b8ff" stroke="#63b8ff" points="352.14,-182.16 343.08,-187.66 353.59,-189 352.14,-182.16"/>
</g>
<!-- Node6 -->
<g id="node6" class="node">
<title>Node6</title>
<g id="a_node6"><a xlink:href="../../d9/d19/classcocos2d_1_1_c_c_layer_gradient.html" target="_top" xlink:title="CCLayerGradient is a subclass of CCLayerColor that draws gradients across the background.">
<polygon fill="white" stroke="#666666" points="640,-327 541,-327 541,-308 640,-308 640,-327"/>
<text text-anchor="middle" x="590.5" y="-315" font-family="Helvetica,sans-Serif" font-size="10.00">CCLayerGradient</text>
</a>
</g>
</g>
<!-- Node5&#45;&gt;Node6 -->
<g id="edge5" class="edge">
<title>Node5&#45;&gt;Node6</title>
<path fill="none" stroke="#63b8ff" d="M481,-292.42C489.67,-294.45 498.59,-296.54 507,-298.5 520.31,-301.6 534.84,-304.95 547.94,-307.97"/>
<polygon fill="#63b8ff" stroke="#63b8ff" points="481.52,-288.95 470.99,-290.06 479.92,-295.76 481.52,-288.95"/>
</g>
<!-- Node9 -->
<g id="node9" class="node">
<title>Node9</title>
<g id="a_node9"><a xlink:href="../../d5/d52/classcocos2d_1_1extension_1_1_c_c_control_button.html" target="_top" xlink:title="for Cocos2D.">
<polygon fill="white" stroke="#666666" points="639.5,-290 541.5,-290 541.5,-271 639.5,-271 639.5,-290"/>
<text text-anchor="middle" x="590.5" y="-278" font-family="Helvetica,sans-Serif" font-size="10.00">CCControlButton</text>
</a>
</g>
</g>
<!-- Node8&#45;&gt;Node9 -->
<g id="edge8" class="edge">
<title>Node8&#45;&gt;Node9</title>
<path fill="none" stroke="#63b8ff" d="M467.59,-184.55C468.79,-185.48 469.93,-186.46 471,-187.5 497.3,-212.91 478.38,-238.73 507,-261.5 516.78,-269.28 529.15,-273.99 541.33,-276.81"/>
<polygon fill="#63b8ff" stroke="#63b8ff" points="469.42,-181.57 459.11,-179.13 465.65,-187.47 469.42,-181.57"/>
</g>
<!-- Node11 -->
<g id="node11" class="node">
<title>Node11</title>
<g id="a_node11"><a xlink:href="../../d3/def/classcocos2d_1_1extension_1_1_c_c_control_colour_picker.html" target="_top" xlink:title=" ">
<polygon fill="white" stroke="#666666" points="653.5,-253 527.5,-253 527.5,-234 653.5,-234 653.5,-253"/>
<text text-anchor="middle" x="590.5" y="-241" font-family="Helvetica,sans-Serif" font-size="10.00">CCControlColourPicker</text>
</a>
</g>
</g>
<!-- Node8&#45;&gt;Node11 -->
<g id="edge10" class="edge">
<title>Node8&#45;&gt;Node11</title>
<path fill="none" stroke="#63b8ff" d="M465.19,-183.82C467.2,-184.99 469.15,-186.21 471,-187.5 489.82,-200.62 487.01,-213.24 507,-224.5 513.92,-228.39 521.59,-231.49 529.38,-233.95"/>
<polygon fill="#63b8ff" stroke="#63b8ff" points="466.63,-180.63 456.15,-179.12 463.41,-186.84 466.63,-180.63"/>
</g>
<!-- Node12 -->
<g id="node12" class="node">
<title>Node12</title>
<g id="a_node12"><a xlink:href="../../da/de8/classcocos2d_1_1extension_1_1_c_c_control_hue_picker.html" target="_top" xlink:title=" ">
<polygon fill="white" stroke="#666666" points="647.5,-216 533.5,-216 533.5,-197 647.5,-197 647.5,-216"/>
<text text-anchor="middle" x="590.5" y="-204" font-family="Helvetica,sans-Serif" font-size="10.00">CCControlHuePicker</text>
</a>
</g>
</g>
<!-- Node8&#45;&gt;Node12 -->
<g id="edge11" class="edge">
<title>Node8&#45;&gt;Node12</title>
<path fill="none" stroke="#63b8ff" d="M472.19,-179.35C483.48,-182 495.71,-184.87 507,-187.5 520.31,-190.6 534.84,-193.95 547.94,-196.97"/>
<polygon fill="#63b8ff" stroke="#63b8ff" points="472.66,-175.86 462.13,-176.98 471.06,-182.68 472.66,-175.86"/>
</g>
<!-- Node13 -->
<g id="node13" class="node">
<title>Node13</title>
<g id="a_node13"><a xlink:href="../../d8/dfb/classcocos2d_1_1extension_1_1_c_c_control_potentiometer.html" target="_top" xlink:title="for Cocos2D.">
<polygon fill="white" stroke="#666666" points="658,-179 523,-179 523,-160 658,-160 658,-179"/>
<text text-anchor="middle" x="590.5" y="-167" font-family="Helvetica,sans-Serif" font-size="10.00">CCControlPotentiometer</text>
</a>
</g>
</g>
<!-- Node8&#45;&gt;Node13 -->
<g id="edge12" class="edge">
<title>Node8&#45;&gt;Node13</title>
<path fill="none" stroke="#63b8ff" d="M472.55,-169.5C487.99,-169.5 505.87,-169.5 522.93,-169.5"/>
<polygon fill="#63b8ff" stroke="#63b8ff" points="472.29,-166 462.29,-169.5 472.29,-173 472.29,-166"/>
</g>
<!-- Node14 -->
<g id="node14" class="node">
<title>Node14</title>
<g id="a_node14"><a xlink:href="../../d2/d34/classcocos2d_1_1extension_1_1_c_c_control_saturation_brightness_picker.html" target="_top" xlink:title=" ">
<polygon fill="white" stroke="#666666" points="674,-141.5 507,-141.5 507,-111.5 674,-111.5 674,-141.5"/>
<text text-anchor="start" x="515" y="-129.5" font-family="Helvetica,sans-Serif" font-size="10.00">CCControlSaturationBrightness</text>
<text text-anchor="middle" x="590.5" y="-118.5" font-family="Helvetica,sans-Serif" font-size="10.00">Picker</text>
</a>
</g>
</g>
<!-- Node8&#45;&gt;Node14 -->
<g id="edge13" class="edge">
<title>Node8&#45;&gt;Node14</title>
<path fill="none" stroke="#63b8ff" d="M472.09,-158.25C490.98,-153.14 513.61,-147.02 533.94,-141.53"/>
<polygon fill="#63b8ff" stroke="#63b8ff" points="471.03,-154.91 462.29,-160.9 472.86,-161.67 471.03,-154.91"/>
</g>
<!-- Node15 -->
<g id="node15" class="node">
<title>Node15</title>
<g id="a_node15"><a xlink:href="../../d1/d6f/classcocos2d_1_1extension_1_1_c_c_control_slider.html" target="_top" xlink:title=" ">
<polygon fill="white" stroke="#666666" points="637,-93 544,-93 544,-74 637,-74 637,-93"/>
<text text-anchor="middle" x="590.5" y="-81" font-family="Helvetica,sans-Serif" font-size="10.00">CCControlSlider</text>
</a>
</g>
</g>
<!-- Node8&#45;&gt;Node15 -->
<g id="edge14" class="edge">
<title>Node8&#45;&gt;Node15</title>
<path fill="none" stroke="#63b8ff" d="M465.22,-154.67C467.24,-153.36 469.19,-151.97 471,-150.5 491.69,-133.67 484.65,-117.04 507,-102.5 517.96,-95.37 531.28,-90.9 543.98,-88.1"/>
<polygon fill="#63b8ff" stroke="#63b8ff" points="463.04,-151.88 456.04,-159.84 466.47,-157.98 463.04,-151.88"/>
</g>
<!-- Node16 -->
<g id="node16" class="node">
<title>Node16</title>
<g id="a_node16"><a xlink:href="../../d7/d7a/classcocos2d_1_1extension_1_1_c_c_control_stepper.html" target="_top" xlink:title=" ">
<polygon fill="white" stroke="#666666" points="642,-56 539,-56 539,-37 642,-37 642,-56"/>
<text text-anchor="middle" x="590.5" y="-44" font-family="Helvetica,sans-Serif" font-size="10.00">CCControlStepper</text>
</a>
</g>
</g>
<!-- Node8&#45;&gt;Node16 -->
<g id="edge15" class="edge">
<title>Node8&#45;&gt;Node16</title>
<path fill="none" stroke="#63b8ff" d="M466.54,-154.51C468.13,-153.26 469.63,-151.93 471,-150.5 499.67,-120.59 475.16,-91.02 507,-64.5 516.01,-56.99 527.45,-52.42 538.91,-49.68"/>
<polygon fill="#63b8ff" stroke="#63b8ff" points="464.55,-151.62 458.03,-159.98 468.34,-157.51 464.55,-151.62"/>
</g>
<!-- Node17 -->
<g id="node17" class="node">
<title>Node17</title>
<g id="a_node17"><a xlink:href="../../d9/dd1/classcocos2d_1_1extension_1_1_c_c_control_switch.html" target="_top" xlink:title="for Cocos2D.">
<polygon fill="white" stroke="#666666" points="639.5,-19 541.5,-19 541.5,0 639.5,0 639.5,-19"/>
<text text-anchor="middle" x="590.5" y="-7" font-family="Helvetica,sans-Serif" font-size="10.00">CCControlSwitch</text>
</a>
</g>
</g>
<!-- Node8&#45;&gt;Node17 -->
<g id="edge16" class="edge">
<title>Node8&#45;&gt;Node17</title>
<path fill="none" stroke="#63b8ff" d="M467.72,-153.84C468.89,-152.79 469.99,-151.68 471,-150.5 508.06,-107.25 465.34,-66.34 507,-27.5 516.33,-18.8 528.84,-13.94 541.3,-11.3"/>
<polygon fill="#63b8ff" stroke="#63b8ff" points="465.37,-151.21 459.21,-159.84 469.4,-156.93 465.37,-151.21"/>
</g>
<!-- Node10 -->
<g id="node10" class="node">
<title>Node10</title>
<g id="a_node10"><a xlink:href="../../d7/dc3/classcocos2d_1_1extension_1_1_c_c_edit_box.html" target="_top" xlink:title="Class for edit box.">
<polygon fill="white" stroke="#666666" points="778,-290 710,-290 710,-271 778,-271 778,-290"/>
<text text-anchor="middle" x="744" y="-278" font-family="Helvetica,sans-Serif" font-size="10.00">CCEditBox</text>
</a>
</g>
</g>
<!-- Node9&#45;&gt;Node10 -->
<g id="edge9" class="edge">
<title>Node9&#45;&gt;Node10</title>
<path fill="none" stroke="#63b8ff" d="M649.98,-280.5C670.3,-280.5 692.39,-280.5 709.93,-280.5"/>
<polygon fill="#63b8ff" stroke="#63b8ff" points="649.85,-277 639.85,-280.5 649.85,-284 649.85,-277"/>
</g>
<!-- Node19 -->
<g id="node19" class="node">
<title>Node19</title>
<g id="a_node19"><a xlink:href="../../d8/d28/classcocos2d_1_1extension_1_1_c_c_table_view.html" target="_top" xlink:title="UITableView counterpart for cocos2d for iphone.">
<polygon fill="white" stroke="#666666" points="469.5,-142 389.5,-142 389.5,-123 469.5,-123 469.5,-142"/>
<text text-anchor="middle" x="429.5" y="-130" font-family="Helvetica,sans-Serif" font-size="10.00">CCTableView</text>
</a>
</g>
</g>
<!-- Node18&#45;&gt;Node19 -->
<g id="edge18" class="edge">
<title>Node18&#45;&gt;Node19</title>
<path fill="none" stroke="#63b8ff" d="M351.25,-143.45C363.86,-141.66 377.23,-139.77 389.24,-138.06"/>
<polygon fill="#63b8ff" stroke="#63b8ff" points="350.75,-139.99 341.34,-144.85 351.73,-146.92 350.75,-139.99"/>
</g>
</g>
</svg>
