<?xml version="1.0" encoding="UTF-8" standalone="no"?>
<!DOCTYPE svg PUBLIC "-//W3C//DTD SVG 1.1//EN"
 "http://www.w3.org/Graphics/SVG/1.1/DTD/svg11.dtd">
<!-- Generated by graphviz version 2.43.0 (0)
 -->
<!-- Title: CCTransitionSplitCols Pages: 1 -->
<svg width="264pt" height="357pt"
 viewBox="0.00 0.00 263.50 357.00" xmlns="http://www.w3.org/2000/svg" xmlns:xlink="http://www.w3.org/1999/xlink">
<g id="graph0" class="graph" transform="scale(1 1) rotate(0) translate(4 353)">
<title>CCTransitionSplitCols</title>
<!-- Node1 -->
<g id="node1" class="node">
<title>Node1</title>
<g id="a_node1"><a xlink:title="CCTransitionSplitCols: The odd columns goes upwards while the even columns goes downwards.">
<polygon fill="#999999" stroke="#666666" points="181.5,-74 61.5,-74 61.5,-55 181.5,-55 181.5,-74"/>
<text text-anchor="middle" x="121.5" y="-62" font-family="Helvetica,sans-Serif" font-size="10.00">CCTransitionSplitCols</text>
</a>
</g>
</g>
<!-- Node8 -->
<g id="node8" class="node">
<title>Node8</title>
<g id="a_node8"><a xlink:href="../../de/d82/classcocos2d_1_1_c_c_transition_split_rows.html" target="_top" xlink:title="CCTransitionSplitRows: The odd rows goes to the left while the even rows goes to the right.">
<polygon fill="white" stroke="#666666" points="184,-19 59,-19 59,0 184,0 184,-19"/>
<text text-anchor="middle" x="121.5" y="-7" font-family="Helvetica,sans-Serif" font-size="10.00">CCTransitionSplitRows</text>
</a>
</g>
</g>
<!-- Node1&#45;&gt;Node8 -->
<g id="edge7" class="edge">
<title>Node1&#45;&gt;Node8</title>
<path fill="none" stroke="#63b8ff" d="M121.5,-44.66C121.5,-35.93 121.5,-25.99 121.5,-19.09"/>
<polygon fill="#63b8ff" stroke="#63b8ff" points="118,-44.75 121.5,-54.75 125,-44.75 118,-44.75"/>
</g>
<!-- Node2 -->
<g id="node2" class="node">
<title>Node2</title>
<g id="a_node2"><a xlink:href="../../d1/dc8/classcocos2d_1_1_c_c_transition_scene.html" target="_top" xlink:title="Base class for CCTransition scenes.">
<polygon fill="white" stroke="#666666" points="107,-129 0,-129 0,-110 107,-110 107,-129"/>
<text text-anchor="middle" x="53.5" y="-117" font-family="Helvetica,sans-Serif" font-size="10.00">CCTransitionScene</text>
</a>
</g>
</g>
<!-- Node2&#45;&gt;Node1 -->
<g id="edge1" class="edge">
<title>Node2&#45;&gt;Node1</title>
<path fill="none" stroke="#63b8ff" d="M72.62,-103.6C84.8,-94.11 100.16,-82.13 110.38,-74.17"/>
<polygon fill="#63b8ff" stroke="#63b8ff" points="70.16,-101.08 64.43,-109.98 74.46,-106.6 70.16,-101.08"/>
</g>
<!-- Node3 -->
<g id="node3" class="node">
<title>Node3</title>
<g id="a_node3"><a xlink:href="../../d1/da4/classcocos2d_1_1_c_c_scene.html" target="_top" xlink:title="CCScene is a subclass of CCNode that is used only as an abstract concept.">
<polygon fill="white" stroke="#666666" points="83,-184 24,-184 24,-165 83,-165 83,-184"/>
<text text-anchor="middle" x="53.5" y="-172" font-family="Helvetica,sans-Serif" font-size="10.00">CCScene</text>
</a>
</g>
</g>
<!-- Node3&#45;&gt;Node2 -->
<g id="edge2" class="edge">
<title>Node3&#45;&gt;Node2</title>
<path fill="none" stroke="#63b8ff" d="M53.5,-154.66C53.5,-145.93 53.5,-135.99 53.5,-129.09"/>
<polygon fill="#63b8ff" stroke="#63b8ff" points="50,-154.75 53.5,-164.75 57,-154.75 50,-154.75"/>
</g>
<!-- Node4 -->
<g id="node4" class="node">
<title>Node4</title>
<g id="a_node4"><a xlink:href="../../d0/ded/classcocos2d_1_1_c_c_node.html" target="_top" xlink:title="CCNode is the main element.">
<polygon fill="white" stroke="#666666" points="81.5,-239 25.5,-239 25.5,-220 81.5,-220 81.5,-239"/>
<text text-anchor="middle" x="53.5" y="-227" font-family="Helvetica,sans-Serif" font-size="10.00">CCNode</text>
</a>
</g>
</g>
<!-- Node4&#45;&gt;Node3 -->
<g id="edge3" class="edge">
<title>Node4&#45;&gt;Node3</title>
<path fill="none" stroke="#63b8ff" d="M53.5,-209.66C53.5,-200.93 53.5,-190.99 53.5,-184.09"/>
<polygon fill="#63b8ff" stroke="#63b8ff" points="50,-209.75 53.5,-219.75 57,-209.75 50,-209.75"/>
</g>
<!-- Node5 -->
<g id="node5" class="node">
<title>Node5</title>
<g id="a_node5"><a xlink:href="../../d3/dbf/classcocos2d_1_1_c_c_object.html" target="_top" xlink:title="NA.">
<polygon fill="white" stroke="#666666" points="84.5,-294 22.5,-294 22.5,-275 84.5,-275 84.5,-294"/>
<text text-anchor="middle" x="53.5" y="-282" font-family="Helvetica,sans-Serif" font-size="10.00">CCObject</text>
</a>
</g>
</g>
<!-- Node5&#45;&gt;Node4 -->
<g id="edge4" class="edge">
<title>Node5&#45;&gt;Node4</title>
<path fill="none" stroke="#63b8ff" d="M53.5,-264.66C53.5,-255.93 53.5,-245.99 53.5,-239.09"/>
<polygon fill="#63b8ff" stroke="#63b8ff" points="50,-264.75 53.5,-274.75 57,-264.75 50,-264.75"/>
</g>
<!-- Node6 -->
<g id="node6" class="node">
<title>Node6</title>
<g id="a_node6"><a xlink:href="../../d5/d61/classcocos2d_1_1_c_c_copying.html" target="_top" xlink:title="NA NA.">
<polygon fill="white" stroke="#666666" points="88.5,-349 18.5,-349 18.5,-330 88.5,-330 88.5,-349"/>
<text text-anchor="middle" x="53.5" y="-337" font-family="Helvetica,sans-Serif" font-size="10.00">CCCopying</text>
</a>
</g>
</g>
<!-- Node6&#45;&gt;Node5 -->
<g id="edge5" class="edge">
<title>Node6&#45;&gt;Node5</title>
<path fill="none" stroke="#63b8ff" d="M53.5,-319.66C53.5,-310.93 53.5,-300.99 53.5,-294.09"/>
<polygon fill="#63b8ff" stroke="#63b8ff" points="50,-319.75 53.5,-329.75 57,-319.75 50,-319.75"/>
</g>
<!-- Node7 -->
<g id="node7" class="node">
<title>Node7</title>
<g id="a_node7"><a xlink:href="../../d7/d1a/classcocos2d_1_1_c_c_transition_ease_scene.html" target="_top" xlink:title="CCTransitionEaseScene can ease the actions of the scene protocol.">
<polygon fill="white" stroke="#666666" points="255.5,-129 125.5,-129 125.5,-110 255.5,-110 255.5,-129"/>
<text text-anchor="middle" x="190.5" y="-117" font-family="Helvetica,sans-Serif" font-size="10.00">CCTransitionEaseScene</text>
</a>
</g>
</g>
<!-- Node7&#45;&gt;Node1 -->
<g id="edge6" class="edge">
<title>Node7&#45;&gt;Node1</title>
<path fill="none" stroke="#63b8ff" d="M171.46,-103.88C159.04,-94.34 143.26,-82.21 132.79,-74.17"/>
<polygon fill="#63b8ff" stroke="#63b8ff" points="169.35,-106.67 179.41,-109.98 173.62,-101.12 169.35,-106.67"/>
</g>
</g>
</svg>
