<?xml version="1.0" encoding="UTF-8" standalone="no"?>
<!DOCTYPE svg PUBLIC "-//W3C//DTD SVG 1.1//EN"
 "http://www.w3.org/Graphics/SVG/1.1/DTD/svg11.dtd">
<!-- Generated by graphviz version 2.43.0 (0)
 -->
<!-- Title: CCEaseElastic Pages: 1 -->
<svg width="355pt" height="420pt"
 viewBox="0.00 0.00 355.00 420.00" xmlns="http://www.w3.org/2000/svg" xmlns:xlink="http://www.w3.org/1999/xlink">
<g id="graph0" class="graph" transform="scale(1 1) rotate(0) translate(4 416)">
<title>CCEaseElastic</title>
<!-- Node1 -->
<g id="node1" class="node">
<title>Node1</title>
<g id="a_node1"><a xlink:title="Ease Elastic abstract class.">
<polygon fill="#bfbfbf" stroke="black" points="126.5,-56.5 126.5,-75.5 212.5,-75.5 212.5,-56.5 126.5,-56.5"/>
<text text-anchor="middle" x="169.5" y="-63.5" font-family="Helvetica,sans-Serif" font-size="10.00">CCEaseElastic</text>
</a>
</g>
</g>
<!-- Node8 -->
<g id="node8" class="node">
<title>Node8</title>
<g id="a_node8"><a xlink:href="../../d9/d6b/classcocos2d_1_1_c_c_ease_elastic_in.html" target="_top" xlink:title="Ease Elastic In action.">
<polygon fill="none" stroke="black" points="0,-0.5 0,-19.5 95,-19.5 95,-0.5 0,-0.5"/>
<text text-anchor="middle" x="47.5" y="-7.5" font-family="Helvetica,sans-Serif" font-size="10.00">CCEaseElasticIn</text>
</a>
</g>
</g>
<!-- Node1&#45;&gt;Node8 -->
<g id="edge7" class="edge">
<title>Node1&#45;&gt;Node8</title>
<path fill="none" stroke="midnightblue" d="M140.96,-52.37C118.11,-42.26 86.69,-28.35 66.74,-19.52"/>
<polygon fill="midnightblue" stroke="midnightblue" points="139.61,-55.6 150.17,-56.44 142.44,-49.2 139.61,-55.6"/>
</g>
<!-- Node9 -->
<g id="node9" class="node">
<title>Node9</title>
<g id="a_node9"><a xlink:href="../../d4/db6/classcocos2d_1_1_c_c_ease_elastic_in_out.html" target="_top" xlink:title="Ease Elastic InOut action.">
<polygon fill="none" stroke="black" points="113.5,-0.5 113.5,-19.5 225.5,-19.5 225.5,-0.5 113.5,-0.5"/>
<text text-anchor="middle" x="169.5" y="-7.5" font-family="Helvetica,sans-Serif" font-size="10.00">CCEaseElasticInOut</text>
</a>
</g>
</g>
<!-- Node1&#45;&gt;Node9 -->
<g id="edge8" class="edge">
<title>Node1&#45;&gt;Node9</title>
<path fill="none" stroke="midnightblue" d="M169.5,-45.8C169.5,-36.91 169.5,-26.78 169.5,-19.75"/>
<polygon fill="midnightblue" stroke="midnightblue" points="166,-46.08 169.5,-56.08 173,-46.08 166,-46.08"/>
</g>
<!-- Node10 -->
<g id="node10" class="node">
<title>Node10</title>
<g id="a_node10"><a xlink:href="../../d0/d9c/classcocos2d_1_1_c_c_ease_elastic_out.html" target="_top" xlink:title="Ease Elastic Out action.">
<polygon fill="none" stroke="black" points="244,-0.5 244,-19.5 347,-19.5 347,-0.5 244,-0.5"/>
<text text-anchor="middle" x="295.5" y="-7.5" font-family="Helvetica,sans-Serif" font-size="10.00">CCEaseElasticOut</text>
</a>
</g>
</g>
<!-- Node1&#45;&gt;Node10 -->
<g id="edge9" class="edge">
<title>Node1&#45;&gt;Node10</title>
<path fill="none" stroke="midnightblue" d="M198.66,-52.5C222.28,-42.38 254.93,-28.39 275.63,-19.52"/>
<polygon fill="midnightblue" stroke="midnightblue" points="197.28,-49.29 189.47,-56.44 200.04,-55.72 197.28,-49.29"/>
</g>
<!-- Node2 -->
<g id="node2" class="node">
<title>Node2</title>
<g id="a_node2"><a xlink:href="../../d0/d79/classcocos2d_1_1_c_c_action_ease.html" target="_top" xlink:title="Base class for Easing actions.">
<polygon fill="none" stroke="black" points="127.5,-112.5 127.5,-131.5 211.5,-131.5 211.5,-112.5 127.5,-112.5"/>
<text text-anchor="middle" x="169.5" y="-119.5" font-family="Helvetica,sans-Serif" font-size="10.00">CCActionEase</text>
</a>
</g>
</g>
<!-- Node2&#45;&gt;Node1 -->
<g id="edge1" class="edge">
<title>Node2&#45;&gt;Node1</title>
<path fill="none" stroke="midnightblue" d="M169.5,-101.8C169.5,-92.91 169.5,-82.78 169.5,-75.75"/>
<polygon fill="midnightblue" stroke="midnightblue" points="166,-102.08 169.5,-112.08 173,-102.08 166,-102.08"/>
</g>
<!-- Node3 -->
<g id="node3" class="node">
<title>Node3</title>
<g id="a_node3"><a xlink:href="../../dd/d8d/classcocos2d_1_1_c_c_action_interval.html" target="_top" xlink:title="An interval action is an action that takes place within a certain period of time.">
<polygon fill="none" stroke="black" points="120.5,-168.5 120.5,-187.5 218.5,-187.5 218.5,-168.5 120.5,-168.5"/>
<text text-anchor="middle" x="169.5" y="-175.5" font-family="Helvetica,sans-Serif" font-size="10.00">CCActionInterval</text>
</a>
</g>
</g>
<!-- Node3&#45;&gt;Node2 -->
<g id="edge2" class="edge">
<title>Node3&#45;&gt;Node2</title>
<path fill="none" stroke="midnightblue" d="M169.5,-157.8C169.5,-148.91 169.5,-138.78 169.5,-131.75"/>
<polygon fill="midnightblue" stroke="midnightblue" points="166,-158.08 169.5,-168.08 173,-158.08 166,-158.08"/>
</g>
<!-- Node4 -->
<g id="node4" class="node">
<title>Node4</title>
<g id="a_node4"><a xlink:href="../../dd/d89/classcocos2d_1_1_c_c_finite_time_action.html" target="_top" xlink:title="Base class actions that do have a finite time duration.">
<polygon fill="none" stroke="black" points="113,-224.5 113,-243.5 226,-243.5 226,-224.5 113,-224.5"/>
<text text-anchor="middle" x="169.5" y="-231.5" font-family="Helvetica,sans-Serif" font-size="10.00">CCFiniteTimeAction</text>
</a>
</g>
</g>
<!-- Node4&#45;&gt;Node3 -->
<g id="edge3" class="edge">
<title>Node4&#45;&gt;Node3</title>
<path fill="none" stroke="midnightblue" d="M169.5,-213.8C169.5,-204.91 169.5,-194.78 169.5,-187.75"/>
<polygon fill="midnightblue" stroke="midnightblue" points="166,-214.08 169.5,-224.08 173,-214.08 166,-214.08"/>
</g>
<!-- Node5 -->
<g id="node5" class="node">
<title>Node5</title>
<g id="a_node5"><a xlink:href="../../d7/d12/classcocos2d_1_1_c_c_action.html" target="_top" xlink:title="Base class for CCAction objects.">
<polygon fill="none" stroke="black" points="139,-280.5 139,-299.5 200,-299.5 200,-280.5 139,-280.5"/>
<text text-anchor="middle" x="169.5" y="-287.5" font-family="Helvetica,sans-Serif" font-size="10.00">CCAction</text>
</a>
</g>
</g>
<!-- Node5&#45;&gt;Node4 -->
<g id="edge4" class="edge">
<title>Node5&#45;&gt;Node4</title>
<path fill="none" stroke="midnightblue" d="M169.5,-269.8C169.5,-260.91 169.5,-250.78 169.5,-243.75"/>
<polygon fill="midnightblue" stroke="midnightblue" points="166,-270.08 169.5,-280.08 173,-270.08 166,-270.08"/>
</g>
<!-- Node6 -->
<g id="node6" class="node">
<title>Node6</title>
<g id="a_node6"><a xlink:href="../../d3/dbf/classcocos2d_1_1_c_c_object.html" target="_top" xlink:title="NA.">
<polygon fill="none" stroke="black" points="138.5,-336.5 138.5,-355.5 200.5,-355.5 200.5,-336.5 138.5,-336.5"/>
<text text-anchor="middle" x="169.5" y="-343.5" font-family="Helvetica,sans-Serif" font-size="10.00">CCObject</text>
</a>
</g>
</g>
<!-- Node6&#45;&gt;Node5 -->
<g id="edge5" class="edge">
<title>Node6&#45;&gt;Node5</title>
<path fill="none" stroke="midnightblue" d="M169.5,-325.8C169.5,-316.91 169.5,-306.78 169.5,-299.75"/>
<polygon fill="midnightblue" stroke="midnightblue" points="166,-326.08 169.5,-336.08 173,-326.08 166,-326.08"/>
</g>
<!-- Node7 -->
<g id="node7" class="node">
<title>Node7</title>
<g id="a_node7"><a xlink:href="../../d5/d61/classcocos2d_1_1_c_c_copying.html" target="_top" xlink:title="NA NA.">
<polygon fill="none" stroke="black" points="134.5,-392.5 134.5,-411.5 204.5,-411.5 204.5,-392.5 134.5,-392.5"/>
<text text-anchor="middle" x="169.5" y="-399.5" font-family="Helvetica,sans-Serif" font-size="10.00">CCCopying</text>
</a>
</g>
</g>
<!-- Node7&#45;&gt;Node6 -->
<g id="edge6" class="edge">
<title>Node7&#45;&gt;Node6</title>
<path fill="none" stroke="midnightblue" d="M169.5,-381.8C169.5,-372.91 169.5,-362.78 169.5,-355.75"/>
<polygon fill="midnightblue" stroke="midnightblue" points="166,-382.08 169.5,-392.08 173,-382.08 166,-382.08"/>
</g>
</g>
</svg>
