<?xml version="1.0" encoding="UTF-8" standalone="no"?>
<!DOCTYPE svg PUBLIC "-//W3C//DTD SVG 1.1//EN"
 "http://www.w3.org/Graphics/SVG/1.1/DTD/svg11.dtd">
<!-- Generated by graphviz version 2.43.0 (0)
 -->
<!-- Title: CCTMXLayerInfo Pages: 1 -->
<svg width="335pt" height="219pt"
 viewBox="0.00 0.00 335.00 219.00" xmlns="http://www.w3.org/2000/svg" xmlns:xlink="http://www.w3.org/1999/xlink">
<g id="graph0" class="graph" transform="scale(1 1) rotate(0) translate(4 215)">
<title>CCTMXLayerInfo</title>
<!-- Node1 -->
<g id="node1" class="node">
<title>Node1</title>
<g id="a_node1"><a xlink:title="CCTMXLayerInfo contains the information about the layers like:">
<polygon fill="#bfbfbf" stroke="black" points="122,-0.5 122,-19.5 220,-19.5 220,-0.5 122,-0.5"/>
<text text-anchor="middle" x="171" y="-7.5" font-family="Helvetica,sans-Serif" font-size="10.00">CCTMXLayerInfo</text>
</a>
</g>
</g>
<!-- Node2 -->
<g id="node2" class="node">
<title>Node2</title>
<g id="a_node2"><a xlink:href="../../d3/dbf/classcocos2d_1_1_c_c_object.html" target="_top" xlink:title="NA.">
<polygon fill="none" stroke="black" points="116,-134.5 116,-153.5 178,-153.5 178,-134.5 116,-134.5"/>
<text text-anchor="middle" x="147" y="-141.5" font-family="Helvetica,sans-Serif" font-size="10.00">CCObject</text>
</a>
</g>
</g>
<!-- Node2&#45;&gt;Node1 -->
<g id="edge1" class="edge">
<title>Node2&#45;&gt;Node1</title>
<path fill="none" stroke="midnightblue" d="M150.4,-124.28C155.68,-95.25 165.63,-40.54 169.45,-19.52"/>
<polygon fill="midnightblue" stroke="midnightblue" points="146.92,-123.87 148.57,-134.34 153.81,-125.13 146.92,-123.87"/>
</g>
<!-- Node4 -->
<g id="node4" class="node">
<title>Node4</title>
<g id="a_node4"><a xlink:href="../../d7/d5f/classcocos2d_1_1_c_c_dictionary.html" target="_top" xlink:title="CCDictionary is a class like NSDictionary in Obj&#45;C .">
<polygon fill="none" stroke="black" points="26,-67.5 26,-86.5 106,-86.5 106,-67.5 26,-67.5"/>
<text text-anchor="middle" x="66" y="-74.5" font-family="Helvetica,sans-Serif" font-size="10.00">CCDictionary</text>
</a>
</g>
</g>
<!-- Node2&#45;&gt;Node4 -->
<g id="edge4" class="edge">
<title>Node2&#45;&gt;Node4</title>
<path fill="none" stroke="midnightblue" d="M135.45,-126.05C130.09,-118.98 123.29,-111.03 116,-105 107.03,-97.58 95.7,-91.27 86.1,-86.61"/>
<polygon fill="midnightblue" stroke="midnightblue" points="132.73,-128.25 141.41,-134.33 138.41,-124.16 132.73,-128.25"/>
</g>
<!-- Node3 -->
<g id="node3" class="node">
<title>Node3</title>
<g id="a_node3"><a xlink:href="../../d5/d61/classcocos2d_1_1_c_c_copying.html" target="_top" xlink:title="NA NA.">
<polygon fill="none" stroke="black" points="112,-191.5 112,-210.5 182,-210.5 182,-191.5 112,-191.5"/>
<text text-anchor="middle" x="147" y="-198.5" font-family="Helvetica,sans-Serif" font-size="10.00">CCCopying</text>
</a>
</g>
</g>
<!-- Node3&#45;&gt;Node2 -->
<g id="edge2" class="edge">
<title>Node3&#45;&gt;Node2</title>
<path fill="none" stroke="midnightblue" d="M147,-181.12C147,-171.82 147,-161.06 147,-153.71"/>
<polygon fill="midnightblue" stroke="midnightblue" points="143.5,-181.41 147,-191.41 150.5,-181.41 143.5,-181.41"/>
</g>
<!-- Node4&#45;&gt;Node1 -->
<g id="edge3" class="edge">
<title>Node4&#45;&gt;Node1</title>
<path fill="none" stroke="#9a32cd" stroke-dasharray="5,2" d="M62.11,-57.11C61.79,-50.44 62.79,-43.3 67,-38 74.14,-29.02 98.43,-22.44 121.73,-18.02"/>
<polygon fill="#9a32cd" stroke="#9a32cd" points="58.7,-58.04 63.54,-67.46 65.64,-57.08 58.7,-58.04"/>
<text text-anchor="middle" x="104" y="-41" font-family="Helvetica,sans-Serif" font-size="10.00"> m_pProperties</text>
</g>
<!-- Node5 -->
<g id="node5" class="node">
<title>Node5</title>
<g id="a_node5"><a xlink:href="../../d0/da2/classcocos2d_1_1_c_c_dict_element.html" target="_top" xlink:title="CCDictElement is used for traversing CCDictionary.">
<polygon fill="none" stroke="black" points="0,-134.5 0,-153.5 90,-153.5 90,-134.5 0,-134.5"/>
<text text-anchor="middle" x="45" y="-141.5" font-family="Helvetica,sans-Serif" font-size="10.00">CCDictElement</text>
</a>
</g>
</g>
<!-- Node5&#45;&gt;Node4 -->
<g id="edge5" class="edge">
<title>Node5&#45;&gt;Node4</title>
<path fill="none" stroke="#9a32cd" stroke-dasharray="5,2" d="M43.26,-124.09C43.28,-117.87 43.93,-111.01 46,-105 48.36,-98.16 53.12,-91.61 57.41,-86.68"/>
<polygon fill="#9a32cd" stroke="#9a32cd" points="39.78,-124.47 43.77,-134.29 46.77,-124.12 39.78,-124.47"/>
<text text-anchor="middle" x="81" y="-108" font-family="Helvetica,sans-Serif" font-size="10.00"> m_pElements</text>
</g>
<!-- Node6 -->
<g id="node6" class="node">
<title>Node6</title>
<g id="a_node6"><a xlink:href="../../d9/d24/classcocos2d_1_1_c_c_size.html" target="_top" xlink:title="NA.">
<polygon fill="none" stroke="black" points="183,-67.5 183,-86.5 233,-86.5 233,-67.5 183,-67.5"/>
<text text-anchor="middle" x="208" y="-74.5" font-family="Helvetica,sans-Serif" font-size="10.00">CCSize</text>
</a>
</g>
</g>
<!-- Node6&#45;&gt;Node1 -->
<g id="edge6" class="edge">
<title>Node6&#45;&gt;Node1</title>
<path fill="none" stroke="#9a32cd" stroke-dasharray="5,2" d="M198.06,-58.53C190.89,-45.95 181.53,-29.51 175.91,-19.63"/>
<polygon fill="#9a32cd" stroke="#9a32cd" points="195.02,-60.27 203.01,-67.23 201.1,-56.81 195.02,-60.27"/>
<text text-anchor="middle" x="226" y="-41" font-family="Helvetica,sans-Serif" font-size="10.00"> m_tLayerSize</text>
</g>
<!-- Node7 -->
<g id="node7" class="node">
<title>Node7</title>
<g id="a_node7"><a xlink:href="../../d2/df3/classcocos2d_1_1_c_c_point.html" target="_top" xlink:title="NA.">
<polygon fill="none" stroke="black" points="263.5,-67.5 263.5,-86.5 318.5,-86.5 318.5,-67.5 263.5,-67.5"/>
<text text-anchor="middle" x="291" y="-74.5" font-family="Helvetica,sans-Serif" font-size="10.00">CCPoint</text>
</a>
</g>
</g>
<!-- Node7&#45;&gt;Node1 -->
<g id="edge7" class="edge">
<title>Node7&#45;&gt;Node1</title>
<path fill="none" stroke="#9a32cd" stroke-dasharray="5,2" d="M282.39,-58.31C278.08,-51.08 272.22,-43.21 265,-38 251.92,-28.56 235.6,-22.41 220.25,-18.4"/>
<polygon fill="#9a32cd" stroke="#9a32cd" points="279.49,-60.3 287.3,-67.46 285.66,-56.99 279.49,-60.3"/>
<text text-anchor="middle" x="301" y="-41" font-family="Helvetica,sans-Serif" font-size="10.00"> m_tOffset</text>
</g>
</g>
</svg>
