<?xml version="1.0" encoding="UTF-8" standalone="no"?>
<!DOCTYPE svg PUBLIC "-//W3C//DTD SVG 1.1//EN"
 "http://www.w3.org/Graphics/SVG/1.1/DTD/svg11.dtd">
<!-- Generated by graphviz version 2.43.0 (0)
 -->
<!-- Title: CCTMXLayerInfo Pages: 1 -->
<svg width="335pt" height="215pt"
 viewBox="0.00 0.00 335.00 215.00" xmlns="http://www.w3.org/2000/svg" xmlns:xlink="http://www.w3.org/1999/xlink">
<g id="graph0" class="graph" transform="scale(1 1) rotate(0) translate(4 211)">
<title>CCTMXLayerInfo</title>
<!-- Node1 -->
<g id="node1" class="node">
<title>Node1</title>
<g id="a_node1"><a xlink:title="CCTMXLayerInfo contains the information about the layers like:">
<polygon fill="#999999" stroke="#666666" points="220,-19 122,-19 122,0 220,0 220,-19"/>
<text text-anchor="middle" x="171" y="-7" font-family="Helvetica,sans-Serif" font-size="10.00">CCTMXLayerInfo</text>
</a>
</g>
</g>
<!-- Node2 -->
<g id="node2" class="node">
<title>Node2</title>
<g id="a_node2"><a xlink:href="../../d3/dbf/classcocos2d_1_1_c_c_object.html" target="_top" xlink:title="NA.">
<polygon fill="white" stroke="#666666" points="178,-151 116,-151 116,-132 178,-132 178,-151"/>
<text text-anchor="middle" x="147" y="-139" font-family="Helvetica,sans-Serif" font-size="10.00">CCObject</text>
</a>
</g>
</g>
<!-- Node2&#45;&gt;Node1 -->
<g id="edge1" class="edge">
<title>Node2&#45;&gt;Node1</title>
<path fill="none" stroke="#63b8ff" d="M150.39,-122.11C155.64,-93.69 165.52,-40.19 169.39,-19.23"/>
<polygon fill="#63b8ff" stroke="#63b8ff" points="146.95,-121.5 148.57,-131.97 153.83,-122.77 146.95,-121.5"/>
</g>
<!-- Node4 -->
<g id="node4" class="node">
<title>Node4</title>
<g id="a_node4"><a xlink:href="../../d7/d5f/classcocos2d_1_1_c_c_dictionary.html" target="_top" xlink:title="CCDictionary is a class like NSDictionary in Obj&#45;C .">
<polygon fill="white" stroke="#666666" points="106,-85 26,-85 26,-66 106,-66 106,-85"/>
<text text-anchor="middle" x="66" y="-73" font-family="Helvetica,sans-Serif" font-size="10.00">CCDictionary</text>
</a>
</g>
</g>
<!-- Node2&#45;&gt;Node4 -->
<g id="edge4" class="edge">
<title>Node2&#45;&gt;Node4</title>
<path fill="none" stroke="#63b8ff" d="M135.44,-123.75C130.07,-116.77 123.27,-108.93 116,-103 107.17,-95.8 96.07,-89.69 86.58,-85.15"/>
<polygon fill="#63b8ff" stroke="#63b8ff" points="132.68,-125.91 141.4,-131.93 138.34,-121.78 132.68,-125.91"/>
</g>
<!-- Node3 -->
<g id="node3" class="node">
<title>Node3</title>
<g id="a_node3"><a xlink:href="../../d5/d61/classcocos2d_1_1_c_c_copying.html" target="_top" xlink:title="NA NA.">
<polygon fill="white" stroke="#666666" points="182,-207 112,-207 112,-188 182,-188 182,-207"/>
<text text-anchor="middle" x="147" y="-195" font-family="Helvetica,sans-Serif" font-size="10.00">CCCopying</text>
</a>
</g>
</g>
<!-- Node3&#45;&gt;Node2 -->
<g id="edge2" class="edge">
<title>Node3&#45;&gt;Node2</title>
<path fill="none" stroke="#63b8ff" d="M147,-177.3C147,-168.41 147,-158.28 147,-151.25"/>
<polygon fill="#63b8ff" stroke="#63b8ff" points="143.5,-177.58 147,-187.58 150.5,-177.58 143.5,-177.58"/>
</g>
<!-- Node4&#45;&gt;Node1 -->
<g id="edge3" class="edge">
<title>Node4&#45;&gt;Node1</title>
<path fill="none" stroke="#9a32cd" stroke-dasharray="5,2" d="M62.14,-55.6C61.87,-49.09 62.89,-42.15 67,-37 74.15,-28.05 98.44,-21.58 121.75,-17.28"/>
<polygon fill="#9a32cd" stroke="#9a32cd" points="58.71,-56.31 63.5,-65.76 65.64,-55.38 58.71,-56.31"/>
<text text-anchor="middle" x="104" y="-40" font-family="Helvetica,sans-Serif" font-size="10.00"> m_pProperties</text>
</g>
<!-- Node5 -->
<g id="node5" class="node">
<title>Node5</title>
<g id="a_node5"><a xlink:href="../../d0/da2/classcocos2d_1_1_c_c_dict_element.html" target="_top" xlink:title="CCDictElement is used for traversing CCDictionary.">
<polygon fill="white" stroke="#666666" points="90,-151 0,-151 0,-132 90,-132 90,-151"/>
<text text-anchor="middle" x="45" y="-139" font-family="Helvetica,sans-Serif" font-size="10.00">CCDictElement</text>
</a>
</g>
</g>
<!-- Node5&#45;&gt;Node4 -->
<g id="edge5" class="edge">
<title>Node5&#45;&gt;Node4</title>
<path fill="none" stroke="#9a32cd" stroke-dasharray="5,2" d="M43.26,-121.83C43.27,-115.69 43.93,-108.92 46,-103 48.28,-96.47 52.82,-90.24 57,-85.46"/>
<polygon fill="#9a32cd" stroke="#9a32cd" points="39.77,-122.08 43.77,-131.89 46.76,-121.73 39.77,-122.08"/>
<text text-anchor="middle" x="81" y="-106" font-family="Helvetica,sans-Serif" font-size="10.00"> m_pElements</text>
</g>
<!-- Node6 -->
<g id="node6" class="node">
<title>Node6</title>
<g id="a_node6"><a xlink:href="../../d9/d24/classcocos2d_1_1_c_c_size.html" target="_top" xlink:title="NA.">
<polygon fill="white" stroke="#666666" points="233,-85 183,-85 183,-66 233,-66 233,-85"/>
<text text-anchor="middle" x="208" y="-73" font-family="Helvetica,sans-Serif" font-size="10.00">CCSize</text>
</a>
</g>
</g>
<!-- Node6&#45;&gt;Node1 -->
<g id="edge6" class="edge">
<title>Node6&#45;&gt;Node1</title>
<path fill="none" stroke="#9a32cd" stroke-dasharray="5,2" d="M197.91,-57.05C190.87,-44.86 181.76,-29.11 176.15,-19.41"/>
<polygon fill="#9a32cd" stroke="#9a32cd" points="194.97,-58.96 203.01,-65.87 201.04,-55.46 194.97,-58.96"/>
<text text-anchor="middle" x="226" y="-40" font-family="Helvetica,sans-Serif" font-size="10.00"> m_tLayerSize</text>
</g>
<!-- Node7 -->
<g id="node7" class="node">
<title>Node7</title>
<g id="a_node7"><a xlink:href="../../d2/df3/classcocos2d_1_1_c_c_point.html" target="_top" xlink:title="NA.">
<polygon fill="white" stroke="#666666" points="318.5,-85 263.5,-85 263.5,-66 318.5,-66 318.5,-85"/>
<text text-anchor="middle" x="291" y="-73" font-family="Helvetica,sans-Serif" font-size="10.00">CCPoint</text>
</a>
</g>
</g>
<!-- Node7&#45;&gt;Node1 -->
<g id="edge7" class="edge">
<title>Node7&#45;&gt;Node1</title>
<path fill="none" stroke="#9a32cd" stroke-dasharray="5,2" d="M282.2,-56.76C277.89,-49.7 272.09,-42.06 265,-37 251.89,-27.65 235.56,-21.58 220.21,-17.66"/>
<polygon fill="#9a32cd" stroke="#9a32cd" points="279.25,-58.66 287.13,-65.74 285.38,-55.29 279.25,-58.66"/>
<text text-anchor="middle" x="301" y="-40" font-family="Helvetica,sans-Serif" font-size="10.00"> m_tOffset</text>
</g>
</g>
</svg>
