<?xml version="1.0" encoding="UTF-8" standalone="no"?>
<!DOCTYPE svg PUBLIC "-//W3C//DTD SVG 1.1//EN"
 "http://www.w3.org/Graphics/SVG/1.1/DTD/svg11.dtd">
<!-- Generated by graphviz version 2.43.0 (0)
 -->
<!-- Title: CCCallFunc Pages: 1 -->
<svg width="1663pt" height="668pt"
 viewBox="0.00 0.00 1663.00 668.00" xmlns="http://www.w3.org/2000/svg" xmlns:xlink="http://www.w3.org/1999/xlink">
<g id="graph0" class="graph" transform="scale(1 1) rotate(0) translate(4 664)">
<title>CCCallFunc</title>
<!-- Node1 -->
<g id="node1" class="node">
<title>Node1</title>
<g id="a_node1"><a xlink:title="Calls a &#39;callback&#39;.">
<polygon fill="#999999" stroke="#666666" points="1655,-391.5 1584,-391.5 1584,-372.5 1655,-372.5 1655,-391.5"/>
<text text-anchor="middle" x="1619.5" y="-379.5" font-family="Helvetica,sans-Serif" font-size="10.00">CCCallFunc</text>
</a>
</g>
</g>
<!-- Node2 -->
<g id="node2" class="node">
<title>Node2</title>
<g id="a_node2"><a xlink:href="../../df/d52/classcocos2d_1_1_c_c_action_instant.html" target="_top" xlink:title="Instant actions are immediate actions.">
<polygon fill="white" stroke="#666666" points="1547,-435.5 1452,-435.5 1452,-416.5 1547,-416.5 1547,-435.5"/>
<text text-anchor="middle" x="1499.5" y="-423.5" font-family="Helvetica,sans-Serif" font-size="10.00">CCActionInstant</text>
</a>
</g>
</g>
<!-- Node2&#45;&gt;Node1 -->
<g id="edge1" class="edge">
<title>Node2&#45;&gt;Node1</title>
<path fill="none" stroke="#63b8ff" d="M1535.62,-412.91C1554.03,-406.04 1576.18,-397.78 1592.95,-391.53"/>
<polygon fill="#63b8ff" stroke="#63b8ff" points="1534.25,-409.68 1526.1,-416.45 1536.7,-416.24 1534.25,-409.68"/>
</g>
<!-- Node3 -->
<g id="node3" class="node">
<title>Node3</title>
<g id="a_node3"><a xlink:href="../../dd/d89/classcocos2d_1_1_c_c_finite_time_action.html" target="_top" xlink:title="Base class actions that do have a finite time duration.">
<polygon fill="white" stroke="#666666" points="1415,-441.5 1302,-441.5 1302,-422.5 1415,-422.5 1415,-441.5"/>
<text text-anchor="middle" x="1358.5" y="-429.5" font-family="Helvetica,sans-Serif" font-size="10.00">CCFiniteTimeAction</text>
</a>
</g>
</g>
<!-- Node3&#45;&gt;Node2 -->
<g id="edge2" class="edge">
<title>Node3&#45;&gt;Node2</title>
<path fill="none" stroke="#63b8ff" d="M1425.25,-429.16C1434.17,-428.78 1443.18,-428.39 1451.68,-428.02"/>
<polygon fill="#63b8ff" stroke="#63b8ff" points="1425.08,-425.67 1415.24,-429.59 1425.38,-432.66 1425.08,-425.67"/>
</g>
<!-- Node4 -->
<g id="node4" class="node">
<title>Node4</title>
<g id="a_node4"><a xlink:href="../../d7/d12/classcocos2d_1_1_c_c_action.html" target="_top" xlink:title="Base class for CCAction objects.">
<polygon fill="white" stroke="#666666" points="1265,-441.5 1204,-441.5 1204,-422.5 1265,-422.5 1265,-441.5"/>
<text text-anchor="middle" x="1234.5" y="-429.5" font-family="Helvetica,sans-Serif" font-size="10.00">CCAction</text>
</a>
</g>
</g>
<!-- Node4&#45;&gt;Node3 -->
<g id="edge3" class="edge">
<title>Node4&#45;&gt;Node3</title>
<path fill="none" stroke="#63b8ff" d="M1275.12,-432C1283.7,-432 1292.93,-432 1301.99,-432"/>
<polygon fill="#63b8ff" stroke="#63b8ff" points="1275.03,-428.5 1265.03,-432 1275.03,-435.5 1275.03,-428.5"/>
</g>
<!-- Node5 -->
<g id="node5" class="node">
<title>Node5</title>
<g id="a_node5"><a xlink:href="../../d3/dbf/classcocos2d_1_1_c_c_object.html" target="_top" xlink:title="NA.">
<polygon fill="white" stroke="#666666" points="169,-296.5 107,-296.5 107,-277.5 169,-277.5 169,-296.5"/>
<text text-anchor="middle" x="138" y="-284.5" font-family="Helvetica,sans-Serif" font-size="10.00">CCObject</text>
</a>
</g>
</g>
<!-- Node5&#45;&gt;Node1 -->
<g id="edge36" class="edge">
<title>Node5&#45;&gt;Node1</title>
<path fill="none" stroke="#9a32cd" stroke-dasharray="5,2" d="M142.01,-267.35C152.46,-202.59 189.75,0 247,0 247,0 247,0 1500.5,0 1580.84,0 1612.37,-312.38 1617.67,-372.17"/>
<polygon fill="#9a32cd" stroke="#9a32cd" points="138.51,-267.03 140.42,-277.45 145.43,-268.12 138.51,-267.03"/>
<text text-anchor="middle" x="1029.5" y="-14" font-family="Helvetica,sans-Serif" font-size="10.00"> m_pCallFuncO</text>
<text text-anchor="middle" x="1029.5" y="-3" font-family="Helvetica,sans-Serif" font-size="10.00">m_pSelectorTarget</text>
</g>
<!-- Node5&#45;&gt;Node4 -->
<g id="edge4" class="edge">
<title>Node5&#45;&gt;Node4</title>
<path fill="none" stroke="#63b8ff" d="M140.39,-306.85C146.34,-384.04 172.78,-660 247,-660 247,-660 247,-660 1030.5,-660 1149.48,-660 1215.9,-484.66 1230.44,-441.51"/>
<polygon fill="#63b8ff" stroke="#63b8ff" points="143.86,-306.31 139.63,-296.6 136.88,-306.83 143.86,-306.31"/>
</g>
<!-- Node7 -->
<g id="node7" class="node">
<title>Node7</title>
<g id="a_node7"><a xlink:href="../../d0/ded/classcocos2d_1_1_c_c_node.html" target="_top" xlink:title="CCNode is the main element.">
<polygon fill="white" stroke="#666666" points="1057.5,-408.5 1001.5,-408.5 1001.5,-389.5 1057.5,-389.5 1057.5,-408.5"/>
<text text-anchor="middle" x="1029.5" y="-396.5" font-family="Helvetica,sans-Serif" font-size="10.00">CCNode</text>
</a>
</g>
</g>
<!-- Node5&#45;&gt;Node7 -->
<g id="edge7" class="edge">
<title>Node5&#45;&gt;Node7</title>
<path fill="none" stroke="#63b8ff" d="M140.7,-306.89C145.38,-357.25 159.9,-488.11 187,-521 205.37,-543.3 218.11,-546 247,-546 247,-546 247,-546 754,-546 848.82,-546 888.1,-576.06 966,-522 1006.14,-494.14 1022,-432.58 1026.78,-408.71"/>
<polygon fill="#63b8ff" stroke="#63b8ff" points="144.17,-306.32 139.79,-296.67 137.19,-306.95 144.17,-306.32"/>
</g>
<!-- Node5&#45;&gt;Node7 -->
<g id="edge28" class="edge">
<title>Node5&#45;&gt;Node7</title>
<path fill="none" stroke="#9a32cd" stroke-dasharray="5,2" d="M144.39,-306.35C153.08,-334.36 172.68,-386.28 206,-418 242.02,-452.29 260.04,-450.83 308,-464 527.62,-524.29 592.83,-501.25 820,-485 885.39,-480.32 907.67,-493.92 966,-464 991.35,-451 1012.25,-423.63 1022.21,-408.89"/>
<polygon fill="#9a32cd" stroke="#9a32cd" points="147.69,-305.17 141.5,-296.57 140.98,-307.15 147.69,-305.17"/>
<text text-anchor="middle" x="500" y="-507" font-family="Helvetica,sans-Serif" font-size="10.00"> m_pUserObject</text>
</g>
<!-- Node11 -->
<g id="node11" class="node">
<title>Node11</title>
<g id="a_node11"><a xlink:href="../../d2/d51/classcocos2d_1_1_c_c_camera.html" target="_top" xlink:title="A CCCamera is used in every CCNode.">
<polygon fill="white" stroke="#666666" points="652,-474.5 584,-474.5 584,-455.5 652,-455.5 652,-474.5"/>
<text text-anchor="middle" x="618" y="-462.5" font-family="Helvetica,sans-Serif" font-size="10.00">CCCamera</text>
</a>
</g>
</g>
<!-- Node5&#45;&gt;Node11 -->
<g id="edge12" class="edge">
<title>Node5&#45;&gt;Node11</title>
<path fill="none" stroke="#63b8ff" d="M149.66,-305.47C161.57,-324.96 182.31,-355.74 206,-377 245.15,-412.12 257.93,-420.9 308,-437 404.41,-467.99 525.86,-468.57 583.58,-466.68"/>
<polygon fill="#63b8ff" stroke="#63b8ff" points="152.53,-303.45 144.41,-296.65 146.52,-307.04 152.53,-303.45"/>
</g>
<!-- Node12 -->
<g id="node12" class="node">
<title>Node12</title>
<g id="a_node12"><a xlink:href="../../d6/d70/classcocos2d_1_1_c_c_grid_base.html" target="_top" xlink:title="Base class for other.">
<polygon fill="white" stroke="#666666" points="790,-287.5 716,-287.5 716,-268.5 790,-268.5 790,-287.5"/>
<text text-anchor="middle" x="753" y="-275.5" font-family="Helvetica,sans-Serif" font-size="10.00">CCGridBase</text>
</a>
</g>
</g>
<!-- Node5&#45;&gt;Node12 -->
<g id="edge14" class="edge">
<title>Node5&#45;&gt;Node12</title>
<path fill="none" stroke="#63b8ff" d="M155.62,-270.18C168.41,-258.06 187.06,-242.13 206,-232 247.78,-209.65 261.25,-208.68 308,-201 465.92,-175.04 520.32,-131.32 668,-193 705.33,-208.59 734.53,-249.75 746.32,-268.48"/>
<polygon fill="#63b8ff" stroke="#63b8ff" points="152.83,-268 148.11,-277.49 157.72,-273.02 152.83,-268"/>
</g>
<!-- Node13 -->
<g id="node13" class="node">
<title>Node13</title>
<g id="a_node13"><a xlink:href="../../d7/dfd/classcocos2d_1_1_c_c_texture2_d.html" target="_top" xlink:title="CCTexture2D class.">
<polygon fill="white" stroke="#666666" points="540,-309.5 460,-309.5 460,-290.5 540,-290.5 540,-309.5"/>
<text text-anchor="middle" x="500" y="-297.5" font-family="Helvetica,sans-Serif" font-size="10.00">CCTexture2D</text>
</a>
</g>
</g>
<!-- Node5&#45;&gt;Node13 -->
<g id="edge17" class="edge">
<title>Node5&#45;&gt;Node13</title>
<path fill="none" stroke="#63b8ff" d="M179.21,-288.45C248.84,-290.97 391.04,-296.1 459.9,-298.59"/>
<polygon fill="#63b8ff" stroke="#63b8ff" points="179.19,-284.95 169.07,-288.09 178.94,-291.94 179.19,-284.95"/>
</g>
<!-- Node14 -->
<g id="node14" class="node">
<title>Node14</title>
<g id="a_node14"><a xlink:href="../../db/d28/classcocos2d_1_1_c_c_g_l_program.html" target="_top" xlink:title="CCGLProgram Class that implements a glProgram.">
<polygon fill="white" stroke="#666666" points="290,-260.5 206,-260.5 206,-241.5 290,-241.5 290,-260.5"/>
<text text-anchor="middle" x="248" y="-248.5" font-family="Helvetica,sans-Serif" font-size="10.00">CCGLProgram</text>
</a>
</g>
</g>
<!-- Node5&#45;&gt;Node14 -->
<g id="edge20" class="edge">
<title>Node5&#45;&gt;Node14</title>
<path fill="none" stroke="#63b8ff" d="M177.18,-274.27C190.67,-269.78 205.62,-264.79 218.21,-260.6"/>
<polygon fill="#63b8ff" stroke="#63b8ff" points="176.04,-270.96 167.66,-277.45 178.25,-277.61 176.04,-270.96"/>
</g>
<!-- Node15 -->
<g id="node15" class="node">
<title>Node15</title>
<g id="a_node15"><a xlink:href="../../d3/d89/classcocos2d_1_1_c_c_grabber.html" target="_top" xlink:title="FBO class that grabs the the contents of the screen NA NA.">
<polygon fill="white" stroke="#666666" points="404.5,-148.5 335.5,-148.5 335.5,-129.5 404.5,-129.5 404.5,-148.5"/>
<text text-anchor="middle" x="370" y="-136.5" font-family="Helvetica,sans-Serif" font-size="10.00">CCGrabber</text>
</a>
</g>
</g>
<!-- Node5&#45;&gt;Node15 -->
<g id="edge23" class="edge">
<title>Node5&#45;&gt;Node15</title>
<path fill="none" stroke="#63b8ff" d="M140.58,-267.16C143.96,-239.16 154.46,-188.58 187,-163 229.47,-129.61 295.49,-129.92 335.25,-133.93"/>
<polygon fill="#63b8ff" stroke="#63b8ff" points="137.08,-267.03 139.55,-277.33 144.04,-267.74 137.08,-267.03"/>
</g>
<!-- Node16 -->
<g id="node16" class="node">
<title>Node16</title>
<g id="a_node16"><a xlink:href="../../d9/d2e/classcocos2d_1_1_c_c_array.html" target="_top" xlink:title="NA.">
<polygon fill="white" stroke="#666666" points="276,-106.5 220,-106.5 220,-87.5 276,-87.5 276,-106.5"/>
<text text-anchor="middle" x="248" y="-94.5" font-family="Helvetica,sans-Serif" font-size="10.00">CCArray</text>
</a>
</g>
</g>
<!-- Node5&#45;&gt;Node16 -->
<g id="edge26" class="edge">
<title>Node5&#45;&gt;Node16</title>
<path fill="none" stroke="#63b8ff" d="M139.78,-267.07C142.09,-233.81 151.21,-166.55 187,-125 195.55,-115.07 208.39,-108.43 219.99,-104.12"/>
<polygon fill="#63b8ff" stroke="#63b8ff" points="136.27,-267.14 139.21,-277.32 143.26,-267.53 136.27,-267.14"/>
</g>
<!-- Node17 -->
<g id="node17" class="node">
<title>Node17</title>
<g id="a_node17"><a xlink:href="../../de/dee/classcocos2d_1_1_c_c_scheduler.html" target="_top" xlink:title="Scheduler is responsible for triggering the scheduled callbacks.">
<polygon fill="white" stroke="#666666" points="539,-62.5 461,-62.5 461,-43.5 539,-43.5 539,-62.5"/>
<text text-anchor="middle" x="500" y="-50.5" font-family="Helvetica,sans-Serif" font-size="10.00">CCScheduler</text>
</a>
</g>
</g>
<!-- Node5&#45;&gt;Node17 -->
<g id="edge31" class="edge">
<title>Node5&#45;&gt;Node17</title>
<path fill="none" stroke="#63b8ff" d="M138.89,-267.09C139.83,-224.96 148.44,-126.69 206,-78 278.11,-17 399.01,-31.11 460.53,-43.63"/>
<polygon fill="#63b8ff" stroke="#63b8ff" points="135.39,-267.15 138.79,-277.18 142.39,-267.21 135.39,-267.15"/>
</g>
<!-- Node18 -->
<g id="node18" class="node">
<title>Node18</title>
<g id="a_node18"><a xlink:href="../../d5/dcb/classcocos2d_1_1_c_c_action_manager.html" target="_top" xlink:title="CCActionManager is a singleton that manages all the actions.">
<polygon fill="white" stroke="#666666" points="422,-631.5 318,-631.5 318,-612.5 422,-612.5 422,-631.5"/>
<text text-anchor="middle" x="370" y="-619.5" font-family="Helvetica,sans-Serif" font-size="10.00">CCActionManager</text>
</a>
</g>
</g>
<!-- Node5&#45;&gt;Node18 -->
<g id="edge34" class="edge">
<title>Node5&#45;&gt;Node18</title>
<path fill="none" stroke="#63b8ff" d="M139.91,-306.53C142.88,-362.46 154.13,-521.62 187,-560 219.57,-598.03 276.46,-612.78 317.98,-618.47"/>
<polygon fill="#63b8ff" stroke="#63b8ff" points="143.4,-306.33 139.41,-296.52 136.41,-306.68 143.4,-306.33"/>
</g>
<!-- Node6 -->
<g id="node6" class="node">
<title>Node6</title>
<g id="a_node6"><a xlink:href="../../d5/d61/classcocos2d_1_1_c_c_copying.html" target="_top" xlink:title="NA NA.">
<polygon fill="white" stroke="#666666" points="70,-296.5 0,-296.5 0,-277.5 70,-277.5 70,-296.5"/>
<text text-anchor="middle" x="35" y="-284.5" font-family="Helvetica,sans-Serif" font-size="10.00">CCCopying</text>
</a>
</g>
</g>
<!-- Node6&#45;&gt;Node5 -->
<g id="edge5" class="edge">
<title>Node6&#45;&gt;Node5</title>
<path fill="none" stroke="#63b8ff" d="M80.2,-287C89.22,-287 98.51,-287 106.9,-287"/>
<polygon fill="#63b8ff" stroke="#63b8ff" points="80.19,-283.5 70.19,-287 80.19,-290.5 80.19,-283.5"/>
</g>
<!-- Node7&#45;&gt;Node1 -->
<g id="edge37" class="edge">
<title>Node7&#45;&gt;Node1</title>
<path fill="none" stroke="#9a32cd" stroke-dasharray="5,2" d="M1067.68,-394.01C1108.33,-388.99 1175.43,-382 1233.5,-382 1233.5,-382 1233.5,-382 1500.5,-382 1528.57,-382 1560.39,-382 1583.91,-382"/>
<polygon fill="#9a32cd" stroke="#9a32cd" points="1067.18,-390.55 1057.69,-395.27 1068.05,-397.49 1067.18,-390.55"/>
<text text-anchor="middle" x="1358.5" y="-396" font-family="Helvetica,sans-Serif" font-size="10.00"> m_pCallFuncN</text>
<text text-anchor="middle" x="1358.5" y="-385" font-family="Helvetica,sans-Serif" font-size="10.00">m_pCallFuncND</text>
</g>
<!-- Node7&#45;&gt;Node4 -->
<g id="edge6" class="edge">
<title>Node7&#45;&gt;Node4</title>
<path fill="none" stroke="#9a32cd" stroke-dasharray="5,2" d="M1067.84,-405.07C1107.05,-411.44 1167.91,-421.34 1203.93,-427.19"/>
<polygon fill="#9a32cd" stroke="#9a32cd" points="1068.31,-401.6 1057.88,-403.45 1067.19,-408.51 1068.31,-401.6"/>
<text text-anchor="middle" x="1139.5" y="-439" font-family="Helvetica,sans-Serif" font-size="10.00"> m_pOriginalTarget</text>
<text text-anchor="middle" x="1139.5" y="-428" font-family="Helvetica,sans-Serif" font-size="10.00">m_pTarget</text>
</g>
<!-- Node7&#45;&gt;Node7 -->
<g id="edge27" class="edge">
<title>Node7&#45;&gt;Node7</title>
<path fill="none" stroke="#9a32cd" stroke-dasharray="5,2" d="M1009.13,-418.05C1010.49,-422.88 1017.28,-426.5 1029.5,-426.5 1049.05,-426.5 1054.7,-417.23 1046.45,-408.58"/>
<polygon fill="#9a32cd" stroke="#9a32cd" points="1012.45,-419.18 1012.55,-408.58 1005.86,-416.8 1012.45,-419.18"/>
<text text-anchor="middle" x="1029.5" y="-429.5" font-family="Helvetica,sans-Serif" font-size="10.00"> m_pParent</text>
</g>
<!-- Node8 -->
<g id="node8" class="node">
<title>Node8</title>
<g id="a_node8"><a xlink:href="../../d2/df3/classcocos2d_1_1_c_c_point.html" target="_top" xlink:title="NA.">
<polygon fill="white" stroke="#666666" points="527.5,-394.5 472.5,-394.5 472.5,-375.5 527.5,-375.5 527.5,-394.5"/>
<text text-anchor="middle" x="500" y="-382.5" font-family="Helvetica,sans-Serif" font-size="10.00">CCPoint</text>
</a>
</g>
</g>
<!-- Node8&#45;&gt;Node7 -->
<g id="edge8" class="edge">
<title>Node8&#45;&gt;Node7</title>
<path fill="none" stroke="#9a32cd" stroke-dasharray="5,2" d="M537.88,-391.78C574.26,-396.36 629.8,-397.47 668,-371 683.36,-360.36 670.21,-342.99 686,-333 736.33,-301.15 760.83,-326.2 820,-333 886.19,-340.61 903.44,-344.09 966,-367 982.48,-373.04 1000.2,-382.41 1012.54,-389.45"/>
<polygon fill="#9a32cd" stroke="#9a32cd" points="538.1,-388.28 527.7,-390.35 537.12,-395.21 538.1,-388.28"/>
<text text-anchor="middle" x="753" y="-358" font-family="Helvetica,sans-Serif" font-size="10.00"> m_obAnchorPoint</text>
<text text-anchor="middle" x="753" y="-347" font-family="Helvetica,sans-Serif" font-size="10.00">m_obAnchorPointInPoints</text>
<text text-anchor="middle" x="753" y="-336" font-family="Helvetica,sans-Serif" font-size="10.00">m_obPosition</text>
</g>
<!-- Node8&#45;&gt;Node12 -->
<g id="edge21" class="edge">
<title>Node8&#45;&gt;Node12</title>
<path fill="none" stroke="#9a32cd" stroke-dasharray="5,2" d="M533.79,-371.79C544.58,-367.7 556.71,-363.39 568,-360 611.68,-346.89 632,-364.99 668,-337 681.81,-326.26 672.88,-313.56 686,-302 694.42,-294.58 705.31,-289.4 715.81,-285.8"/>
<polygon fill="#9a32cd" stroke="#9a32cd" points="532.38,-368.58 524.31,-375.44 534.9,-375.11 532.38,-368.58"/>
<text text-anchor="middle" x="618" y="-363" font-family="Helvetica,sans-Serif" font-size="10.00"> m_obStep</text>
</g>
<!-- Node9 -->
<g id="node9" class="node">
<title>Node9</title>
<g id="a_node9"><a xlink:href="../../d9/d24/classcocos2d_1_1_c_c_size.html" target="_top" xlink:title="NA.">
<polygon fill="white" stroke="#666666" points="273,-368.5 223,-368.5 223,-349.5 273,-349.5 273,-368.5"/>
<text text-anchor="middle" x="248" y="-356.5" font-family="Helvetica,sans-Serif" font-size="10.00">CCSize</text>
</a>
</g>
</g>
<!-- Node9&#45;&gt;Node7 -->
<g id="edge9" class="edge">
<title>Node9&#45;&gt;Node7</title>
<path fill="none" stroke="#9a32cd" stroke-dasharray="5,2" d="M282.87,-368.59C322.54,-379.32 390.43,-396.09 450,-403 621.32,-422.87 665.54,-407.67 838,-409 894.89,-409.44 909.29,-413.51 966,-409 977.61,-408.08 990.32,-406.2 1001.23,-404.33"/>
<polygon fill="#9a32cd" stroke="#9a32cd" points="283.75,-365.2 273.18,-365.94 281.9,-371.96 283.75,-365.2"/>
<text text-anchor="middle" x="618" y="-417" font-family="Helvetica,sans-Serif" font-size="10.00"> m_obContentSize</text>
</g>
<!-- Node9&#45;&gt;Node12 -->
<g id="edge15" class="edge">
<title>Node9&#45;&gt;Node12</title>
<path fill="none" stroke="#9a32cd" stroke-dasharray="5,2" d="M283.38,-358.2C355.72,-355.82 528.48,-346.46 668,-310 689.89,-304.28 713.93,-294.77 730.67,-287.6"/>
<polygon fill="#9a32cd" stroke="#9a32cd" points="282.94,-354.71 273.05,-358.51 283.16,-361.71 282.94,-354.71"/>
<text text-anchor="middle" x="500" y="-350" font-family="Helvetica,sans-Serif" font-size="10.00"> m_sGridSize</text>
</g>
<!-- Node9&#45;&gt;Node13 -->
<g id="edge18" class="edge">
<title>Node9&#45;&gt;Node13</title>
<path fill="none" stroke="#9a32cd" stroke-dasharray="5,2" d="M277.86,-345.24C287.3,-341.16 297.95,-336.98 308,-334 322.29,-329.76 408.12,-315.13 459.74,-306.5"/>
<polygon fill="#9a32cd" stroke="#9a32cd" points="276.23,-342.14 268.53,-349.42 279.09,-348.53 276.23,-342.14"/>
<text text-anchor="middle" x="370" y="-337" font-family="Helvetica,sans-Serif" font-size="10.00"> m_tContentSize</text>
</g>
<!-- Node10 -->
<g id="node10" class="node">
<title>Node10</title>
<g id="a_node10"><a xlink:href="../../da/dbf/structcocos2d_1_1_c_c_affine_transform.html" target="_top" xlink:title=" ">
<polygon fill="white" stroke="#666666" points="806.5,-394.5 699.5,-394.5 699.5,-375.5 806.5,-375.5 806.5,-394.5"/>
<text text-anchor="middle" x="753" y="-382.5" font-family="Helvetica,sans-Serif" font-size="10.00">CCAffineTransform</text>
</a>
</g>
</g>
<!-- Node10&#45;&gt;Node7 -->
<g id="edge10" class="edge">
<title>Node10&#45;&gt;Node7</title>
<path fill="none" stroke="#9a32cd" stroke-dasharray="5,2" d="M816.88,-375.21C859.32,-370.34 916.41,-367.17 966,-376 980.57,-378.6 996.2,-384.35 1008.18,-389.45"/>
<polygon fill="#9a32cd" stroke="#9a32cd" points="816.21,-371.76 806.7,-376.44 817.05,-378.71 816.21,-371.76"/>
<text text-anchor="middle" x="902" y="-401" font-family="Helvetica,sans-Serif" font-size="10.00"> m_sAdditionalTransform</text>
<text text-anchor="middle" x="902" y="-390" font-family="Helvetica,sans-Serif" font-size="10.00">m_sInverse</text>
<text text-anchor="middle" x="902" y="-379" font-family="Helvetica,sans-Serif" font-size="10.00">m_sTransform</text>
</g>
<!-- Node11&#45;&gt;Node7 -->
<g id="edge11" class="edge">
<title>Node11&#45;&gt;Node7</title>
<path fill="none" stroke="#9a32cd" stroke-dasharray="5,2" d="M662.19,-467.8C729.07,-470.76 860.94,-471.05 966,-437 985.09,-430.81 1004.42,-417.79 1016.43,-408.72"/>
<polygon fill="#9a32cd" stroke="#9a32cd" points="662.19,-464.3 652.03,-467.31 661.85,-471.29 662.19,-464.3"/>
<text text-anchor="middle" x="753" y="-473" font-family="Helvetica,sans-Serif" font-size="10.00"> m_pCamera</text>
</g>
<!-- Node12&#45;&gt;Node7 -->
<g id="edge13" class="edge">
<title>Node12&#45;&gt;Node7</title>
<path fill="none" stroke="#9a32cd" stroke-dasharray="5,2" d="M800.23,-271.45C845.85,-267.39 915.85,-267.88 966,-299 1000.44,-320.38 1018.99,-368.51 1025.63,-389.22"/>
<polygon fill="#9a32cd" stroke="#9a32cd" points="799.64,-267.99 790.04,-272.46 800.34,-274.95 799.64,-267.99"/>
<text text-anchor="middle" x="902" y="-302" font-family="Helvetica,sans-Serif" font-size="10.00"> m_pGrid</text>
</g>
<!-- Node13&#45;&gt;Node12 -->
<g id="edge16" class="edge">
<title>Node13&#45;&gt;Node12</title>
<path fill="none" stroke="#9a32cd" stroke-dasharray="5,2" d="M550.22,-295.69C598.93,-291.42 672.36,-284.98 715.9,-281.16"/>
<polygon fill="#9a32cd" stroke="#9a32cd" points="549.87,-292.2 540.22,-296.56 550.49,-299.18 549.87,-292.2"/>
<text text-anchor="middle" x="618" y="-298" font-family="Helvetica,sans-Serif" font-size="10.00"> m_pTexture</text>
</g>
<!-- Node14&#45;&gt;Node7 -->
<g id="edge29" class="edge">
<title>Node14&#45;&gt;Node7</title>
<path fill="none" stroke="#9a32cd" stroke-dasharray="5,2" d="M288.08,-238.42C403.56,-203.81 748.7,-119.16 966,-266 1009.76,-295.57 1023.62,-364.28 1027.32,-389.5"/>
<polygon fill="#9a32cd" stroke="#9a32cd" points="286.81,-235.15 278.26,-241.41 288.85,-241.84 286.81,-235.15"/>
<text text-anchor="middle" x="618" y="-189" font-family="Helvetica,sans-Serif" font-size="10.00"> m_pShaderProgram</text>
</g>
<!-- Node14&#45;&gt;Node12 -->
<g id="edge24" class="edge">
<title>Node14&#45;&gt;Node12</title>
<path fill="none" stroke="#9a32cd" stroke-dasharray="5,2" d="M300.53,-251.44C337.21,-251.92 387.65,-252.92 432,-255 534.93,-259.82 656.21,-269.69 715.56,-274.79"/>
<polygon fill="#9a32cd" stroke="#9a32cd" points="300.13,-247.94 290.08,-251.31 300.04,-254.93 300.13,-247.94"/>
<text text-anchor="middle" x="500" y="-265" font-family="Helvetica,sans-Serif" font-size="10.00"> m_pShaderProgram</text>
</g>
<!-- Node14&#45;&gt;Node13 -->
<g id="edge19" class="edge">
<title>Node14&#45;&gt;Node13</title>
<path fill="none" stroke="#9a32cd" stroke-dasharray="5,2" d="M300.25,-254.59C337.26,-257.94 388.23,-264.11 432,-275 447.42,-278.84 464.17,-285.09 477.07,-290.38"/>
<polygon fill="#9a32cd" stroke="#9a32cd" points="300.46,-251.1 290.2,-253.72 299.86,-258.07 300.46,-251.1"/>
<text text-anchor="middle" x="370" y="-278" font-family="Helvetica,sans-Serif" font-size="10.00"> m_pShaderProgram</text>
</g>
<!-- Node15&#45;&gt;Node12 -->
<g id="edge22" class="edge">
<title>Node15&#45;&gt;Node12</title>
<path fill="none" stroke="#9a32cd" stroke-dasharray="5,2" d="M414.9,-131.63C475.97,-123.67 588.06,-117.6 668,-163 711.64,-187.78 738.89,-245.57 748.3,-268.44"/>
<polygon fill="#9a32cd" stroke="#9a32cd" points="414.26,-128.18 404.83,-133.02 415.22,-135.12 414.26,-128.18"/>
<text text-anchor="middle" x="500" y="-132" font-family="Helvetica,sans-Serif" font-size="10.00"> m_pGrabber</text>
</g>
<!-- Node16&#45;&gt;Node7 -->
<g id="edge25" class="edge">
<title>Node16&#45;&gt;Node7</title>
<path fill="none" stroke="#9a32cd" stroke-dasharray="5,2" d="M286.36,-95.81C359.97,-94.11 528.72,-93.46 668,-117 804.17,-140.01 867.16,-108.55 966,-205 1020.2,-257.88 1027.46,-357.92 1028.38,-389.32"/>
<polygon fill="#9a32cd" stroke="#9a32cd" points="286.11,-92.31 276.2,-96.06 286.29,-99.31 286.11,-92.31"/>
<text text-anchor="middle" x="618" y="-120" font-family="Helvetica,sans-Serif" font-size="10.00"> m_pChildren</text>
</g>
<!-- Node16&#45;&gt;Node17 -->
<g id="edge32" class="edge">
<title>Node16&#45;&gt;Node17</title>
<path fill="none" stroke="#9a32cd" stroke-dasharray="5,2" d="M276.76,-83.2C286.43,-78.95 297.49,-74.68 308,-72 359.82,-58.77 421.74,-54.66 460.73,-53.44"/>
<polygon fill="#9a32cd" stroke="#9a32cd" points="275.25,-80.04 267.63,-87.39 278.17,-86.4 275.25,-80.04"/>
<text text-anchor="middle" x="370" y="-75" font-family="Helvetica,sans-Serif" font-size="10.00"> m_pScriptHandlerEntries</text>
</g>
<!-- Node17&#45;&gt;Node7 -->
<g id="edge30" class="edge">
<title>Node17&#45;&gt;Node7</title>
<path fill="none" stroke="#9a32cd" stroke-dasharray="5,2" d="M549.21,-48.37C655.54,-39.25 905.56,-24.25 966,-78 1014.15,-120.82 1026.05,-340.09 1028.13,-389.22"/>
<polygon fill="#9a32cd" stroke="#9a32cd" points="548.73,-44.89 539.07,-49.25 549.34,-51.87 548.73,-44.89"/>
<text text-anchor="middle" x="753" y="-45" font-family="Helvetica,sans-Serif" font-size="10.00"> m_pScheduler</text>
</g>
<!-- Node18&#45;&gt;Node7 -->
<g id="edge33" class="edge">
<title>Node18&#45;&gt;Node7</title>
<path fill="none" stroke="#9a32cd" stroke-dasharray="5,2" d="M432.79,-624.58C576.55,-630.03 924.43,-639.72 966,-608 999.12,-582.73 1021.47,-446.54 1027.1,-408.74"/>
<polygon fill="#9a32cd" stroke="#9a32cd" points="432.52,-621.07 422.39,-624.18 432.25,-628.07 432.52,-621.07"/>
<text text-anchor="middle" x="618" y="-633" font-family="Helvetica,sans-Serif" font-size="10.00"> m_pActionManager</text>
</g>
<!-- Node19 -->
<g id="node19" class="node">
<title>Node19</title>
<g id="a_node19"><a xlink:href="../../d1/d65/classcocos2d_1_1_c_c_component_container.html" target="_top" xlink:title="NA NA.">
<polygon fill="white" stroke="#666666" points="820,-593.5 686,-593.5 686,-574.5 820,-574.5 820,-593.5"/>
<text text-anchor="middle" x="753" y="-581.5" font-family="Helvetica,sans-Serif" font-size="10.00">CCComponentContainer</text>
</a>
</g>
</g>
<!-- Node19&#45;&gt;Node7 -->
<g id="edge35" class="edge">
<title>Node19&#45;&gt;Node7</title>
<path fill="none" stroke="#9a32cd" stroke-dasharray="5,2" d="M830.39,-593.66C874.27,-595.07 928.03,-589.26 966,-560 1016.11,-521.38 1026.08,-437.05 1028.03,-408.6"/>
<polygon fill="#9a32cd" stroke="#9a32cd" points="830.47,-590.16 820.33,-593.21 830.16,-597.16 830.47,-590.16"/>
<text text-anchor="middle" x="902" y="-597" font-family="Helvetica,sans-Serif" font-size="10.00"> m_pComponentContainer</text>
</g>
</g>
</svg>
