<?xml version="1.0" encoding="UTF-8" standalone="no"?>
<!DOCTYPE svg PUBLIC "-//W3C//DTD SVG 1.1//EN"
 "http://www.w3.org/Graphics/SVG/1.1/DTD/svg11.dtd">
<!-- Generated by graphviz version 2.43.0 (0)
 -->
<!-- Title: CCTMXObjectGroup Pages: 1 -->
<svg width="370pt" height="215pt"
 viewBox="0.00 0.00 370.00 215.00" xmlns="http://www.w3.org/2000/svg" xmlns:xlink="http://www.w3.org/1999/xlink">
<g id="graph0" class="graph" transform="scale(1 1) rotate(0) translate(4 211)">
<title>CCTMXObjectGroup</title>
<!-- Node1 -->
<g id="node1" class="node">
<title>Node1</title>
<g id="a_node1"><a xlink:title="CCTMXObjectGroup represents the TMX object group.">
<polygon fill="#999999" stroke="#666666" points="234,-19 122,-19 122,0 234,0 234,-19"/>
<text text-anchor="middle" x="178" y="-7" font-family="Helvetica,sans-Serif" font-size="10.00">CCTMXObjectGroup</text>
</a>
</g>
</g>
<!-- Node2 -->
<g id="node2" class="node">
<title>Node2</title>
<g id="a_node2"><a xlink:href="../../d3/dbf/classcocos2d_1_1_c_c_object.html" target="_top" xlink:title="NA.">
<polygon fill="white" stroke="#666666" points="186,-151 124,-151 124,-132 186,-132 186,-151"/>
<text text-anchor="middle" x="155" y="-139" font-family="Helvetica,sans-Serif" font-size="10.00">CCObject</text>
</a>
</g>
</g>
<!-- Node2&#45;&gt;Node1 -->
<g id="edge1" class="edge">
<title>Node2&#45;&gt;Node1</title>
<path fill="none" stroke="#63b8ff" d="M158.25,-122.11C163.28,-93.69 172.75,-40.19 176.46,-19.23"/>
<polygon fill="#63b8ff" stroke="#63b8ff" points="154.8,-121.51 156.51,-131.97 161.7,-122.73 154.8,-121.51"/>
</g>
<!-- Node5 -->
<g id="node5" class="node">
<title>Node5</title>
<g id="a_node5"><a xlink:href="../../d7/d5f/classcocos2d_1_1_c_c_dictionary.html" target="_top" xlink:title="CCDictionary is a class like NSDictionary in Obj&#45;C .">
<polygon fill="white" stroke="#666666" points="106,-85 26,-85 26,-66 106,-66 106,-85"/>
<text text-anchor="middle" x="66" y="-73" font-family="Helvetica,sans-Serif" font-size="10.00">CCDictionary</text>
</a>
</g>
</g>
<!-- Node2&#45;&gt;Node5 -->
<g id="edge5" class="edge">
<title>Node2&#45;&gt;Node5</title>
<path fill="none" stroke="#63b8ff" d="M139.97,-124.13C133.07,-117.14 124.53,-109.18 116,-103 106.45,-96.09 94.87,-89.83 85.26,-85.14"/>
<polygon fill="#63b8ff" stroke="#63b8ff" points="137.8,-126.92 147.23,-131.74 142.86,-122.09 137.8,-126.92"/>
</g>
<!-- Node7 -->
<g id="node7" class="node">
<title>Node7</title>
<g id="a_node7"><a xlink:href="../../d9/d2e/classcocos2d_1_1_c_c_array.html" target="_top" xlink:title="NA.">
<polygon fill="white" stroke="#666666" points="239,-85 183,-85 183,-66 239,-66 239,-85"/>
<text text-anchor="middle" x="211" y="-73" font-family="Helvetica,sans-Serif" font-size="10.00">CCArray</text>
</a>
</g>
</g>
<!-- Node2&#45;&gt;Node7 -->
<g id="edge8" class="edge">
<title>Node2&#45;&gt;Node7</title>
<path fill="none" stroke="#63b8ff" d="M169.33,-124.12C180.11,-111.81 194.47,-95.39 203.21,-85.41"/>
<polygon fill="#63b8ff" stroke="#63b8ff" points="166.5,-122.04 162.55,-131.87 171.77,-126.65 166.5,-122.04"/>
</g>
<!-- Node3 -->
<g id="node3" class="node">
<title>Node3</title>
<g id="a_node3"><a xlink:href="../../d5/d61/classcocos2d_1_1_c_c_copying.html" target="_top" xlink:title="NA NA.">
<polygon fill="white" stroke="#666666" points="190,-207 120,-207 120,-188 190,-188 190,-207"/>
<text text-anchor="middle" x="155" y="-195" font-family="Helvetica,sans-Serif" font-size="10.00">CCCopying</text>
</a>
</g>
</g>
<!-- Node3&#45;&gt;Node2 -->
<g id="edge2" class="edge">
<title>Node3&#45;&gt;Node2</title>
<path fill="none" stroke="#63b8ff" d="M155,-177.3C155,-168.41 155,-158.28 155,-151.25"/>
<polygon fill="#63b8ff" stroke="#63b8ff" points="151.5,-177.58 155,-187.58 158.5,-177.58 151.5,-177.58"/>
</g>
<!-- Node4 -->
<g id="node4" class="node">
<title>Node4</title>
<g id="a_node4"><a xlink:href="../../d2/df3/classcocos2d_1_1_c_c_point.html" target="_top" xlink:title="NA.">
<polygon fill="white" stroke="#666666" points="312.5,-85 257.5,-85 257.5,-66 312.5,-66 312.5,-85"/>
<text text-anchor="middle" x="285" y="-73" font-family="Helvetica,sans-Serif" font-size="10.00">CCPoint</text>
</a>
</g>
</g>
<!-- Node4&#45;&gt;Node1 -->
<g id="edge3" class="edge">
<title>Node4&#45;&gt;Node1</title>
<path fill="none" stroke="#9a32cd" stroke-dasharray="5,2" d="M276.79,-56.4C272.88,-49.49 267.59,-42.06 261,-37 250.21,-28.7 236.74,-22.97 223.82,-19.01"/>
<polygon fill="#9a32cd" stroke="#9a32cd" points="273.91,-58.46 281.54,-65.81 280.16,-55.31 273.91,-58.46"/>
<text text-anchor="middle" x="316.5" y="-40" font-family="Helvetica,sans-Serif" font-size="10.00"> m_tPositionOffset</text>
</g>
<!-- Node5&#45;&gt;Node1 -->
<g id="edge4" class="edge">
<title>Node5&#45;&gt;Node1</title>
<path fill="none" stroke="#9a32cd" stroke-dasharray="5,2" d="M62.1,-55.57C61.82,-49.05 62.85,-42.12 67,-37 74.3,-28 98.11,-21.69 121.82,-17.49"/>
<polygon fill="#9a32cd" stroke="#9a32cd" points="58.67,-56.29 63.48,-65.73 65.6,-55.36 58.67,-56.29"/>
<text text-anchor="middle" x="104" y="-40" font-family="Helvetica,sans-Serif" font-size="10.00"> m_pProperties</text>
</g>
<!-- Node6 -->
<g id="node6" class="node">
<title>Node6</title>
<g id="a_node6"><a xlink:href="../../d0/da2/classcocos2d_1_1_c_c_dict_element.html" target="_top" xlink:title="CCDictElement is used for traversing CCDictionary.">
<polygon fill="white" stroke="#666666" points="90,-151 0,-151 0,-132 90,-132 90,-151"/>
<text text-anchor="middle" x="45" y="-139" font-family="Helvetica,sans-Serif" font-size="10.00">CCDictElement</text>
</a>
</g>
</g>
<!-- Node6&#45;&gt;Node5 -->
<g id="edge6" class="edge">
<title>Node6&#45;&gt;Node5</title>
<path fill="none" stroke="#9a32cd" stroke-dasharray="5,2" d="M43.26,-121.83C43.27,-115.69 43.93,-108.92 46,-103 48.28,-96.47 52.82,-90.24 57,-85.46"/>
<polygon fill="#9a32cd" stroke="#9a32cd" points="39.77,-122.08 43.77,-131.89 46.76,-121.73 39.77,-122.08"/>
<text text-anchor="middle" x="81" y="-106" font-family="Helvetica,sans-Serif" font-size="10.00"> m_pElements</text>
</g>
<!-- Node7&#45;&gt;Node1 -->
<g id="edge7" class="edge">
<title>Node7&#45;&gt;Node1</title>
<path fill="none" stroke="#9a32cd" stroke-dasharray="5,2" d="M201.81,-56.68C195.56,-44.55 187.54,-29.01 182.59,-19.41"/>
<polygon fill="#9a32cd" stroke="#9a32cd" points="198.86,-58.58 206.55,-65.87 205.08,-55.38 198.86,-58.58"/>
<text text-anchor="middle" x="226.5" y="-40" font-family="Helvetica,sans-Serif" font-size="10.00"> m_pObjects</text>
</g>
</g>
</svg>
