<?xml version="1.0" encoding="UTF-8" standalone="no"?>
<!DOCTYPE svg PUBLIC "-//W3C//DTD SVG 1.1//EN"
 "http://www.w3.org/Graphics/SVG/1.1/DTD/svg11.dtd">
<!-- Generated by graphviz version 2.43.0 (0)
 -->
<!-- Title: CCTMXObjectGroup Pages: 1 -->
<svg width="370pt" height="219pt"
 viewBox="0.00 0.00 370.00 219.00" xmlns="http://www.w3.org/2000/svg" xmlns:xlink="http://www.w3.org/1999/xlink">
<g id="graph0" class="graph" transform="scale(1 1) rotate(0) translate(4 215)">
<title>CCTMXObjectGroup</title>
<!-- Node1 -->
<g id="node1" class="node">
<title>Node1</title>
<g id="a_node1"><a xlink:title="CCTMXObjectGroup represents the TMX object group.">
<polygon fill="#bfbfbf" stroke="black" points="122,-0.5 122,-19.5 234,-19.5 234,-0.5 122,-0.5"/>
<text text-anchor="middle" x="178" y="-7.5" font-family="Helvetica,sans-Serif" font-size="10.00">CCTMXObjectGroup</text>
</a>
</g>
</g>
<!-- Node2 -->
<g id="node2" class="node">
<title>Node2</title>
<g id="a_node2"><a xlink:href="../../d3/dbf/classcocos2d_1_1_c_c_object.html" target="_top" xlink:title="NA.">
<polygon fill="none" stroke="black" points="124,-134.5 124,-153.5 186,-153.5 186,-134.5 124,-134.5"/>
<text text-anchor="middle" x="155" y="-141.5" font-family="Helvetica,sans-Serif" font-size="10.00">CCObject</text>
</a>
</g>
</g>
<!-- Node2&#45;&gt;Node1 -->
<g id="edge1" class="edge">
<title>Node2&#45;&gt;Node1</title>
<path fill="none" stroke="midnightblue" d="M158.26,-124.28C163.32,-95.25 172.85,-40.54 176.52,-19.52"/>
<polygon fill="midnightblue" stroke="midnightblue" points="154.78,-123.89 156.51,-134.34 161.67,-125.09 154.78,-123.89"/>
</g>
<!-- Node5 -->
<g id="node5" class="node">
<title>Node5</title>
<g id="a_node5"><a xlink:href="../../d7/d5f/classcocos2d_1_1_c_c_dictionary.html" target="_top" xlink:title="CCDictionary is a class like NSDictionary in Obj&#45;C .">
<polygon fill="none" stroke="black" points="26,-67.5 26,-86.5 106,-86.5 106,-67.5 26,-67.5"/>
<text text-anchor="middle" x="66" y="-74.5" font-family="Helvetica,sans-Serif" font-size="10.00">CCDictionary</text>
</a>
</g>
</g>
<!-- Node2&#45;&gt;Node5 -->
<g id="edge5" class="edge">
<title>Node2&#45;&gt;Node5</title>
<path fill="none" stroke="midnightblue" d="M140.25,-126.7C133.3,-119.55 124.65,-111.36 116,-105 106.3,-97.87 94.49,-91.41 84.78,-86.59"/>
<polygon fill="midnightblue" stroke="midnightblue" points="138.12,-129.55 147.52,-134.45 143.23,-124.76 138.12,-129.55"/>
</g>
<!-- Node7 -->
<g id="node7" class="node">
<title>Node7</title>
<g id="a_node7"><a xlink:href="../../d9/d2e/classcocos2d_1_1_c_c_array.html" target="_top" xlink:title="NA.">
<polygon fill="none" stroke="black" points="183,-67.5 183,-86.5 239,-86.5 239,-67.5 183,-67.5"/>
<text text-anchor="middle" x="211" y="-74.5" font-family="Helvetica,sans-Serif" font-size="10.00">CCArray</text>
</a>
</g>
</g>
<!-- Node2&#45;&gt;Node7 -->
<g id="edge8" class="edge">
<title>Node2&#45;&gt;Node7</title>
<path fill="none" stroke="midnightblue" d="M169.1,-126.63C180.05,-113.92 194.8,-96.8 203.57,-86.63"/>
<polygon fill="midnightblue" stroke="midnightblue" points="166.43,-124.37 162.55,-134.23 171.73,-128.94 166.43,-124.37"/>
</g>
<!-- Node3 -->
<g id="node3" class="node">
<title>Node3</title>
<g id="a_node3"><a xlink:href="../../d5/d61/classcocos2d_1_1_c_c_copying.html" target="_top" xlink:title="NA NA.">
<polygon fill="none" stroke="black" points="120,-191.5 120,-210.5 190,-210.5 190,-191.5 120,-191.5"/>
<text text-anchor="middle" x="155" y="-198.5" font-family="Helvetica,sans-Serif" font-size="10.00">CCCopying</text>
</a>
</g>
</g>
<!-- Node3&#45;&gt;Node2 -->
<g id="edge2" class="edge">
<title>Node3&#45;&gt;Node2</title>
<path fill="none" stroke="midnightblue" d="M155,-181.12C155,-171.82 155,-161.06 155,-153.71"/>
<polygon fill="midnightblue" stroke="midnightblue" points="151.5,-181.41 155,-191.41 158.5,-181.41 151.5,-181.41"/>
</g>
<!-- Node4 -->
<g id="node4" class="node">
<title>Node4</title>
<g id="a_node4"><a xlink:href="../../d2/df3/classcocos2d_1_1_c_c_point.html" target="_top" xlink:title="NA.">
<polygon fill="none" stroke="black" points="257.5,-67.5 257.5,-86.5 312.5,-86.5 312.5,-67.5 257.5,-67.5"/>
<text text-anchor="middle" x="285" y="-74.5" font-family="Helvetica,sans-Serif" font-size="10.00">CCPoint</text>
</a>
</g>
</g>
<!-- Node4&#45;&gt;Node1 -->
<g id="edge3" class="edge">
<title>Node4&#45;&gt;Node1</title>
<path fill="none" stroke="#9a32cd" stroke-dasharray="5,2" d="M277.1,-58.16C273.16,-51.03 267.78,-43.27 261,-38 250,-29.44 236.18,-23.55 223,-19.51"/>
<polygon fill="#9a32cd" stroke="#9a32cd" points="274,-59.79 281.56,-67.21 280.28,-56.69 274,-59.79"/>
<text text-anchor="middle" x="316.5" y="-41" font-family="Helvetica,sans-Serif" font-size="10.00"> m_tPositionOffset</text>
</g>
<!-- Node5&#45;&gt;Node1 -->
<g id="edge4" class="edge">
<title>Node5&#45;&gt;Node1</title>
<path fill="none" stroke="#9a32cd" stroke-dasharray="5,2" d="M62.06,-57.07C61.74,-50.4 62.75,-43.26 67,-38 74.29,-28.97 98.1,-22.56 121.81,-18.25"/>
<polygon fill="#9a32cd" stroke="#9a32cd" points="58.66,-58.03 63.52,-67.44 65.6,-57.05 58.66,-58.03"/>
<text text-anchor="middle" x="104" y="-41" font-family="Helvetica,sans-Serif" font-size="10.00"> m_pProperties</text>
</g>
<!-- Node6 -->
<g id="node6" class="node">
<title>Node6</title>
<g id="a_node6"><a xlink:href="../../d0/da2/classcocos2d_1_1_c_c_dict_element.html" target="_top" xlink:title="CCDictElement is used for traversing CCDictionary.">
<polygon fill="none" stroke="black" points="0,-134.5 0,-153.5 90,-153.5 90,-134.5 0,-134.5"/>
<text text-anchor="middle" x="45" y="-141.5" font-family="Helvetica,sans-Serif" font-size="10.00">CCDictElement</text>
</a>
</g>
</g>
<!-- Node6&#45;&gt;Node5 -->
<g id="edge6" class="edge">
<title>Node6&#45;&gt;Node5</title>
<path fill="none" stroke="#9a32cd" stroke-dasharray="5,2" d="M43.26,-124.09C43.28,-117.87 43.93,-111.01 46,-105 48.36,-98.16 53.12,-91.61 57.41,-86.68"/>
<polygon fill="#9a32cd" stroke="#9a32cd" points="39.78,-124.47 43.77,-134.29 46.77,-124.12 39.78,-124.47"/>
<text text-anchor="middle" x="81" y="-108" font-family="Helvetica,sans-Serif" font-size="10.00"> m_pElements</text>
</g>
<!-- Node7&#45;&gt;Node1 -->
<g id="edge7" class="edge">
<title>Node7&#45;&gt;Node1</title>
<path fill="none" stroke="#9a32cd" stroke-dasharray="5,2" d="M201.94,-58.16C195.58,-45.63 187.35,-29.41 182.38,-19.63"/>
<polygon fill="#9a32cd" stroke="#9a32cd" points="198.9,-59.9 206.55,-67.23 205.14,-56.73 198.9,-59.9"/>
<text text-anchor="middle" x="226.5" y="-41" font-family="Helvetica,sans-Serif" font-size="10.00"> m_pObjects</text>
</g>
</g>
</svg>
