<?xml version="1.0" encoding="UTF-8" standalone="no"?>
<!DOCTYPE svg PUBLIC "-//W3C//DTD SVG 1.1//EN"
 "http://www.w3.org/Graphics/SVG/1.1/DTD/svg11.dtd">
<!-- Generated by graphviz version 2.43.0 (0)
 -->
<!-- Title: /home/runner/work/cocos&#45;headers/cocos&#45;headers/cocos2dx/support/CCProfiling.h Pages: 1 -->
<svg width="724pt" height="520pt"
 viewBox="0.00 0.00 723.50 520.00" xmlns="http://www.w3.org/2000/svg" xmlns:xlink="http://www.w3.org/1999/xlink">
<g id="graph0" class="graph" transform="scale(1 1) rotate(0) translate(4 516)">
<title>/home/runner/work/cocos&#45;headers/cocos&#45;headers/cocos2dx/support/CCProfiling.h</title>
<!-- Node1 -->
<g id="node1" class="node">
<title>Node1</title>
<g id="a_node1"><a xlink:title=" ">
<polygon fill="#bfbfbf" stroke="black" points="140.5,-470.5 140.5,-511.5 310.5,-511.5 310.5,-470.5 140.5,-470.5"/>
<text text-anchor="start" x="148.5" y="-499.5" font-family="Helvetica,sans-Serif" font-size="10.00">/home/runner/work/cocos</text>
<text text-anchor="start" x="148.5" y="-488.5" font-family="Helvetica,sans-Serif" font-size="10.00">&#45;headers/cocos&#45;headers</text>
<text text-anchor="middle" x="225.5" y="-477.5" font-family="Helvetica,sans-Serif" font-size="10.00">/cocos2dx/support/CCProfiling.h</text>
</a>
</g>
</g>
<!-- Node2 -->
<g id="node2" class="node">
<title>Node2</title>
<g id="a_node2"><a xlink:href="../../db/d9f/cc_config_8h.html" target="_top" xlink:title="cocos2d (cc) configuration file">
<polygon fill="none" stroke="black" points="170,-56.5 170,-75.5 237,-75.5 237,-56.5 170,-56.5"/>
<text text-anchor="middle" x="203.5" y="-63.5" font-family="Helvetica,sans-Serif" font-size="10.00">ccConfig.h</text>
</a>
</g>
</g>
<!-- Node1&#45;&gt;Node2 -->
<g id="edge1" class="edge">
<title>Node1&#45;&gt;Node2</title>
<path fill="none" stroke="midnightblue" d="M140.31,-474.74C80.63,-458.57 11.5,-426.3 11.5,-363.5 11.5,-363.5 11.5,-363.5 11.5,-177 11.5,-109.19 102.78,-82.59 159.46,-72.62"/>
<polygon fill="midnightblue" stroke="midnightblue" points="160.32,-76.02 169.62,-70.94 159.18,-69.12 160.32,-76.02"/>
</g>
<!-- Node4 -->
<g id="node4" class="node">
<title>Node4</title>
<g id="a_node4"><a xlink:href="../../dd/d69/_c_c_object_8h.html" target="_top" xlink:title=" ">
<polygon fill="none" stroke="black" points="180.5,-286 180.5,-305 282.5,-305 282.5,-286 180.5,-286"/>
<text text-anchor="middle" x="231.5" y="-293" font-family="Helvetica,sans-Serif" font-size="10.00">cocoa/CCObject.h</text>
</a>
</g>
</g>
<!-- Node1&#45;&gt;Node4 -->
<g id="edge3" class="edge">
<title>Node1&#45;&gt;Node4</title>
<path fill="none" stroke="midnightblue" d="M226.11,-470.38C227.26,-433.1 229.76,-352.46 230.91,-315.59"/>
<polygon fill="midnightblue" stroke="midnightblue" points="234.42,-315.38 231.23,-305.27 227.42,-315.16 234.42,-315.38"/>
</g>
<!-- Node8 -->
<g id="node8" class="node">
<title>Node8</title>
<g id="a_node8"><a xlink:title=" ">
<polygon fill="none" stroke="#bfbfbf" points="655.5,-168.5 655.5,-187.5 699.5,-187.5 699.5,-168.5 655.5,-168.5"/>
<text text-anchor="middle" x="677.5" y="-175.5" font-family="Helvetica,sans-Serif" font-size="10.00">string</text>
</a>
</g>
</g>
<!-- Node1&#45;&gt;Node8 -->
<g id="edge31" class="edge">
<title>Node1&#45;&gt;Node8</title>
<path fill="none" stroke="midnightblue" d="M310.57,-485.47C450.89,-475.64 715.5,-446.14 715.5,-363.5 715.5,-363.5 715.5,-363.5 715.5,-294.5 715.5,-258.25 698.41,-218.67 687.15,-196.53"/>
<polygon fill="midnightblue" stroke="midnightblue" points="690.23,-194.87 682.47,-187.66 684.04,-198.14 690.23,-194.87"/>
</g>
<!-- Node12 -->
<g id="node12" class="node">
<title>Node12</title>
<g id="a_node12"><a xlink:href="../../de/d03/platform_8h.html" target="_top" xlink:title=" ">
<polygon fill="none" stroke="black" points="49,-286 49,-305 162,-305 162,-286 49,-286"/>
<text text-anchor="middle" x="105.5" y="-293" font-family="Helvetica,sans-Serif" font-size="10.00">platform/platform.h</text>
</a>
</g>
</g>
<!-- Node1&#45;&gt;Node12 -->
<g id="edge15" class="edge">
<title>Node1&#45;&gt;Node12</title>
<path fill="none" stroke="midnightblue" d="M213.33,-470.38C189.91,-432.62 138.9,-350.36 116.46,-314.18"/>
<polygon fill="midnightblue" stroke="midnightblue" points="119.19,-311.93 110.94,-305.27 113.24,-315.62 119.19,-311.93"/>
</g>
<!-- Node14 -->
<g id="node14" class="node">
<title>Node14</title>
<g id="a_node14"><a xlink:href="../../d9/d8d/_c_c_dictionary_8h.html" target="_top" xlink:title=" ">
<polygon fill="none" stroke="black" points="264,-414.5 264,-433.5 383,-433.5 383,-414.5 264,-414.5"/>
<text text-anchor="middle" x="323.5" y="-421.5" font-family="Helvetica,sans-Serif" font-size="10.00">cocoa/CCDictionary.h</text>
</a>
</g>
</g>
<!-- Node1&#45;&gt;Node14 -->
<g id="edge20" class="edge">
<title>Node1&#45;&gt;Node14</title>
<path fill="none" stroke="midnightblue" d="M254.9,-470.5C270.07,-460.44 288.24,-448.38 302.07,-439.21"/>
<polygon fill="midnightblue" stroke="midnightblue" points="304.06,-442.1 310.45,-433.65 300.19,-436.26 304.06,-442.1"/>
</g>
<!-- Node3 -->
<g id="node3" class="node">
<title>Node3</title>
<g id="a_node3"><a xlink:href="../../dd/d96/_c_c_platform_config_8h.html" target="_top" xlink:title=" ">
<polygon fill="none" stroke="black" points="94,-0.5 94,-19.5 251,-19.5 251,-0.5 94,-0.5"/>
<text text-anchor="middle" x="172.5" y="-7.5" font-family="Helvetica,sans-Serif" font-size="10.00">platform/CCPlatformConfig.h</text>
</a>
</g>
</g>
<!-- Node2&#45;&gt;Node3 -->
<g id="edge2" class="edge">
<title>Node2&#45;&gt;Node3</title>
<path fill="none" stroke="midnightblue" d="M198.38,-56.08C194.09,-48.61 187.84,-37.72 182.56,-28.52"/>
<polygon fill="midnightblue" stroke="midnightblue" points="185.54,-26.68 177.52,-19.75 179.47,-30.17 185.54,-26.68"/>
</g>
<!-- Node5 -->
<g id="node5" class="node">
<title>Node5</title>
<g id="a_node5"><a xlink:href="../../d9/d2d/_c_c_data_visitor_8h.html" target="_top" xlink:title=" ">
<polygon fill="none" stroke="black" points="343,-224.5 343,-243.5 436,-243.5 436,-224.5 343,-224.5"/>
<text text-anchor="middle" x="389.5" y="-231.5" font-family="Helvetica,sans-Serif" font-size="10.00">CCDataVisitor.h</text>
</a>
</g>
</g>
<!-- Node4&#45;&gt;Node5 -->
<g id="edge4" class="edge">
<title>Node4&#45;&gt;Node5</title>
<path fill="none" stroke="midnightblue" d="M254.14,-285.98C281.24,-275.77 326.81,-258.61 357.5,-247.05"/>
<polygon fill="midnightblue" stroke="midnightblue" points="358.78,-250.31 366.9,-243.51 356.31,-243.76 358.78,-250.31"/>
</g>
<!-- Node9 -->
<g id="node9" class="node">
<title>Node9</title>
<g id="a_node9"><a xlink:href="../../d9/dc8/cc_macros_8h.html" target="_top" xlink:title=" ">
<polygon fill="none" stroke="black" points="216,-224.5 216,-243.5 287,-243.5 287,-224.5 216,-224.5"/>
<text text-anchor="middle" x="251.5" y="-231.5" font-family="Helvetica,sans-Serif" font-size="10.00">ccMacros.h</text>
</a>
</g>
</g>
<!-- Node4&#45;&gt;Node9 -->
<g id="edge10" class="edge">
<title>Node4&#45;&gt;Node9</title>
<path fill="none" stroke="midnightblue" d="M234.37,-285.98C237.22,-277.49 241.68,-264.2 245.34,-253.32"/>
<polygon fill="midnightblue" stroke="midnightblue" points="248.77,-254.1 248.64,-243.51 242.14,-251.87 248.77,-254.1"/>
</g>
<!-- Node6 -->
<g id="node6" class="node">
<title>Node6</title>
<g id="a_node6"><a xlink:href="../../d3/d41/_c_c_platform_macros_8h.html" target="_top" xlink:title=" ">
<polygon fill="none" stroke="black" points="61,-112.5 61,-131.5 222,-131.5 222,-112.5 61,-112.5"/>
<text text-anchor="middle" x="141.5" y="-119.5" font-family="Helvetica,sans-Serif" font-size="10.00">platform/CCPlatformMacros.h</text>
</a>
</g>
</g>
<!-- Node5&#45;&gt;Node6 -->
<g id="edge5" class="edge">
<title>Node5&#45;&gt;Node6</title>
<path fill="none" stroke="midnightblue" d="M389.64,-224.39C389.36,-210.38 386.65,-182.75 370.5,-168 350.22,-149.48 287.21,-137.95 232.4,-131.21"/>
<polygon fill="midnightblue" stroke="midnightblue" points="232.62,-127.71 222.28,-130.01 231.79,-134.66 232.62,-127.71"/>
</g>
<!-- Node5&#45;&gt;Node8 -->
<g id="edge9" class="edge">
<title>Node5&#45;&gt;Node8</title>
<path fill="none" stroke="midnightblue" d="M435.13,-224.44C493.9,-213.43 594.52,-194.56 645.65,-184.97"/>
<polygon fill="midnightblue" stroke="midnightblue" points="646.3,-188.41 655.49,-183.13 645.01,-181.53 646.3,-188.41"/>
</g>
<!-- Node6&#45;&gt;Node2 -->
<g id="edge6" class="edge">
<title>Node6&#45;&gt;Node2</title>
<path fill="none" stroke="midnightblue" d="M151.46,-112.32C160.63,-104.34 174.44,-92.31 185.53,-82.65"/>
<polygon fill="midnightblue" stroke="midnightblue" points="188.12,-85.04 193.36,-75.83 183.52,-79.76 188.12,-85.04"/>
</g>
<!-- Node6&#45;&gt;Node3 -->
<g id="edge7" class="edge">
<title>Node6&#45;&gt;Node3</title>
<path fill="none" stroke="midnightblue" d="M143.93,-112.37C148.96,-94.54 160.58,-53.3 167.35,-29.27"/>
<polygon fill="midnightblue" stroke="midnightblue" points="170.73,-30.17 170.08,-19.59 164,-28.27 170.73,-30.17"/>
</g>
<!-- Node7 -->
<g id="node7" class="node">
<title>Node7</title>
<g id="a_node7"><a xlink:title=" ">
<polygon fill="none" stroke="#bfbfbf" points="0,-56.5 0,-75.5 113,-75.5 113,-56.5 0,-56.5"/>
<text text-anchor="middle" x="56.5" y="-63.5" font-family="Helvetica,sans-Serif" font-size="10.00">CCPlatformDefine.h</text>
</a>
</g>
</g>
<!-- Node6&#45;&gt;Node7 -->
<g id="edge8" class="edge">
<title>Node6&#45;&gt;Node7</title>
<path fill="none" stroke="midnightblue" d="M127.84,-112.32C114.58,-103.9 94.23,-90.97 78.65,-81.07"/>
<polygon fill="midnightblue" stroke="midnightblue" points="80.44,-78.06 70.12,-75.65 76.69,-83.97 80.44,-78.06"/>
</g>
<!-- Node9&#45;&gt;Node2 -->
<g id="edge14" class="edge">
<title>Node9&#45;&gt;Node2</title>
<path fill="none" stroke="midnightblue" d="M252.71,-224.49C254.25,-211.99 256.28,-187.96 252.5,-168 246.51,-136.38 227.87,-103.54 215.38,-84.2"/>
<polygon fill="midnightblue" stroke="midnightblue" points="218.13,-82.01 209.67,-75.63 212.3,-85.89 218.13,-82.01"/>
</g>
<!-- Node10 -->
<g id="node10" class="node">
<title>Node10</title>
<g id="a_node10"><a xlink:href="../../d5/d22/_c_c_common_8h.html" target="_top" xlink:title=" ">
<polygon fill="none" stroke="black" points="115.5,-168.5 115.5,-187.5 243.5,-187.5 243.5,-168.5 115.5,-168.5"/>
<text text-anchor="middle" x="179.5" y="-175.5" font-family="Helvetica,sans-Serif" font-size="10.00">platform/CCCommon.h</text>
</a>
</g>
</g>
<!-- Node9&#45;&gt;Node10 -->
<g id="edge11" class="edge">
<title>Node9&#45;&gt;Node10</title>
<path fill="none" stroke="midnightblue" d="M239.93,-224.32C229.08,-216.18 212.62,-203.84 199.62,-194.09"/>
<polygon fill="midnightblue" stroke="midnightblue" points="201.38,-191.03 191.28,-187.83 197.18,-196.63 201.38,-191.03"/>
</g>
<!-- Node11 -->
<g id="node11" class="node">
<title>Node11</title>
<g id="a_node11"><a xlink:title=" ">
<polygon fill="none" stroke="#bfbfbf" points="299.5,-168.5 299.5,-187.5 361.5,-187.5 361.5,-168.5 299.5,-168.5"/>
<text text-anchor="middle" x="330.5" y="-175.5" font-family="Helvetica,sans-Serif" font-size="10.00">CCStdC.h</text>
</a>
</g>
</g>
<!-- Node9&#45;&gt;Node11 -->
<g id="edge13" class="edge">
<title>Node9&#45;&gt;Node11</title>
<path fill="none" stroke="midnightblue" d="M264.19,-224.32C276.4,-215.98 295.08,-203.21 309.5,-193.35"/>
<polygon fill="midnightblue" stroke="midnightblue" points="311.56,-196.19 317.84,-187.65 307.61,-190.41 311.56,-196.19"/>
</g>
<!-- Node10&#45;&gt;Node6 -->
<g id="edge12" class="edge">
<title>Node10&#45;&gt;Node6</title>
<path fill="none" stroke="midnightblue" d="M173.23,-168.08C167.86,-160.46 159.98,-149.26 153.42,-139.94"/>
<polygon fill="midnightblue" stroke="midnightblue" points="156.28,-137.91 147.66,-131.75 150.55,-141.94 156.28,-137.91"/>
</g>
<!-- Node12&#45;&gt;Node6 -->
<g id="edge19" class="edge">
<title>Node12&#45;&gt;Node6</title>
<path fill="none" stroke="midnightblue" d="M96.41,-285.84C87.34,-276.51 73.97,-260.73 68.5,-244 65.74,-235.55 66.22,-232.59 68.5,-224 77.78,-189.05 106.06,-156.69 124.57,-138.43"/>
<polygon fill="midnightblue" stroke="midnightblue" points="127.01,-140.94 131.82,-131.5 122.17,-135.88 127.01,-140.94"/>
</g>
<!-- Node13 -->
<g id="node13" class="node">
<title>Node13</title>
<g id="a_node13"><a xlink:href="../../d6/dde/_c_c_thread_8h.html" target="_top" xlink:title=" ">
<polygon fill="none" stroke="black" points="78,-224.5 78,-243.5 151,-243.5 151,-224.5 78,-224.5"/>
<text text-anchor="middle" x="114.5" y="-231.5" font-family="Helvetica,sans-Serif" font-size="10.00">CCThread.h</text>
</a>
</g>
</g>
<!-- Node12&#45;&gt;Node13 -->
<g id="edge16" class="edge">
<title>Node12&#45;&gt;Node13</title>
<path fill="none" stroke="midnightblue" d="M106.79,-285.98C108.06,-277.58 110.04,-264.48 111.68,-253.66"/>
<polygon fill="midnightblue" stroke="midnightblue" points="115.18,-253.92 113.21,-243.51 108.26,-252.87 115.18,-253.92"/>
</g>
<!-- Node13&#45;&gt;Node6 -->
<g id="edge18" class="edge">
<title>Node13&#45;&gt;Node6</title>
<path fill="none" stroke="midnightblue" d="M111.05,-224.33C106.51,-211.63 99.86,-187.36 106.5,-168 110.22,-157.16 117.73,-146.92 124.85,-138.96"/>
<polygon fill="midnightblue" stroke="midnightblue" points="127.55,-141.19 131.94,-131.55 122.5,-136.35 127.55,-141.19"/>
</g>
<!-- Node13&#45;&gt;Node10 -->
<g id="edge17" class="edge">
<title>Node13&#45;&gt;Node10</title>
<path fill="none" stroke="midnightblue" d="M124.94,-224.32C134.65,-216.26 149.32,-204.08 161,-194.37"/>
<polygon fill="midnightblue" stroke="midnightblue" points="163.41,-196.92 168.87,-187.83 158.94,-191.53 163.41,-196.92"/>
</g>
<!-- Node14&#45;&gt;Node4 -->
<g id="edge22" class="edge">
<title>Node14&#45;&gt;Node4</title>
<path fill="none" stroke="midnightblue" d="M314.84,-414.45C306.18,-405.68 292.72,-391.47 282.5,-378 266.65,-357.1 251.04,-331.15 241.35,-314.22"/>
<polygon fill="midnightblue" stroke="midnightblue" points="244.33,-312.39 236.37,-305.4 238.24,-315.83 244.33,-312.39"/>
</g>
<!-- Node15 -->
<g id="node15" class="node">
<title>Node15</title>
<g id="a_node15"><a xlink:title=" ">
<polygon fill="none" stroke="#bfbfbf" points="373.5,-347.5 373.5,-377.5 493.5,-377.5 493.5,-347.5 373.5,-347.5"/>
<text text-anchor="start" x="381.5" y="-365.5" font-family="Helvetica,sans-Serif" font-size="10.00">support/data_support</text>
<text text-anchor="middle" x="433.5" y="-354.5" font-family="Helvetica,sans-Serif" font-size="10.00">/uthash.h</text>
</a>
</g>
</g>
<!-- Node14&#45;&gt;Node15 -->
<g id="edge21" class="edge">
<title>Node14&#45;&gt;Node15</title>
<path fill="none" stroke="midnightblue" d="M339.26,-414.48C354.72,-406.12 378.8,-393.09 398.75,-382.3"/>
<polygon fill="midnightblue" stroke="midnightblue" points="400.44,-385.36 407.58,-377.52 397.11,-379.2 400.44,-385.36"/>
</g>
<!-- Node16 -->
<g id="node16" class="node">
<title>Node16</title>
<g id="a_node16"><a xlink:href="../../da/d35/_c_c_array_8h.html" target="_top" xlink:title=" ">
<polygon fill="none" stroke="black" points="291.5,-353 291.5,-372 355.5,-372 355.5,-353 291.5,-353"/>
<text text-anchor="middle" x="323.5" y="-360" font-family="Helvetica,sans-Serif" font-size="10.00">CCArray.h</text>
</a>
</g>
</g>
<!-- Node14&#45;&gt;Node16 -->
<g id="edge23" class="edge">
<title>Node14&#45;&gt;Node16</title>
<path fill="none" stroke="midnightblue" d="M323.5,-414.48C323.5,-406.08 323.5,-392.98 323.5,-382.16"/>
<polygon fill="midnightblue" stroke="midnightblue" points="327,-382.01 323.5,-372.01 320,-382.01 327,-382.01"/>
</g>
<!-- Node18 -->
<g id="node18" class="node">
<title>Node18</title>
<g id="a_node18"><a xlink:href="../../d0/d8a/_c_c_string_8h.html" target="_top" xlink:title=" ">
<polygon fill="none" stroke="black" points="511.5,-353 511.5,-372 579.5,-372 579.5,-353 511.5,-353"/>
<text text-anchor="middle" x="545.5" y="-360" font-family="Helvetica,sans-Serif" font-size="10.00">CCString.h</text>
</a>
</g>
</g>
<!-- Node14&#45;&gt;Node18 -->
<g id="edge25" class="edge">
<title>Node14&#45;&gt;Node18</title>
<path fill="none" stroke="midnightblue" d="M361.1,-414.46C397.48,-405.98 454.08,-392.23 502.5,-378 505.43,-377.14 508.46,-376.21 511.49,-375.24"/>
<polygon fill="midnightblue" stroke="midnightblue" points="512.63,-378.55 521.05,-372.12 510.46,-371.9 512.63,-378.55"/>
</g>
<!-- Node17 -->
<g id="node17" class="node">
<title>Node17</title>
<g id="a_node17"><a xlink:title=" ">
<polygon fill="none" stroke="#bfbfbf" points="300.5,-280.5 300.5,-310.5 420.5,-310.5 420.5,-280.5 300.5,-280.5"/>
<text text-anchor="start" x="308.5" y="-298.5" font-family="Helvetica,sans-Serif" font-size="10.00">support/data_support</text>
<text text-anchor="middle" x="360.5" y="-287.5" font-family="Helvetica,sans-Serif" font-size="10.00">/ccCArray.h</text>
</a>
</g>
</g>
<!-- Node16&#45;&gt;Node17 -->
<g id="edge24" class="edge">
<title>Node16&#45;&gt;Node17</title>
<path fill="none" stroke="midnightblue" d="M328.49,-352.73C333.35,-344.2 340.93,-330.87 347.5,-319.33"/>
<polygon fill="midnightblue" stroke="midnightblue" points="350.57,-321.01 352.48,-310.59 344.49,-317.55 350.57,-321.01"/>
</g>
<!-- Node18&#45;&gt;Node4 -->
<g id="edge30" class="edge">
<title>Node18&#45;&gt;Node4</title>
<path fill="none" stroke="midnightblue" d="M522.04,-352.85C515.75,-350.74 508.92,-348.62 502.5,-347 410.26,-323.73 384.68,-330.18 291.5,-311 286.12,-309.89 280.49,-308.65 274.93,-307.36"/>
<polygon fill="midnightblue" stroke="midnightblue" points="275.58,-303.92 265.05,-305.03 273.98,-310.74 275.58,-303.92"/>
</g>
<!-- Node18&#45;&gt;Node8 -->
<g id="edge28" class="edge">
<title>Node18&#45;&gt;Node8</title>
<path fill="none" stroke="midnightblue" d="M579.69,-355.41C605.5,-348.94 639.6,-336.04 658.5,-311 683.65,-277.69 682.8,-225.85 680.1,-198.08"/>
<polygon fill="midnightblue" stroke="midnightblue" points="683.53,-197.31 678.9,-187.78 676.58,-198.12 683.53,-197.31"/>
</g>
<!-- Node19 -->
<g id="node19" class="node">
<title>Node19</title>
<g id="a_node19"><a xlink:title=" ">
<polygon fill="none" stroke="#bfbfbf" points="596,-286 596,-305 649,-305 649,-286 596,-286"/>
<text text-anchor="middle" x="622.5" y="-293" font-family="Helvetica,sans-Serif" font-size="10.00">string.h</text>
</a>
</g>
</g>
<!-- Node18&#45;&gt;Node19 -->
<g id="edge26" class="edge">
<title>Node18&#45;&gt;Node19</title>
<path fill="none" stroke="midnightblue" d="M555.88,-352.73C568.35,-342.21 589.47,-324.38 604.59,-311.62"/>
<polygon fill="midnightblue" stroke="midnightblue" points="606.9,-314.25 612.28,-305.13 602.38,-308.9 606.9,-314.25"/>
</g>
<!-- Node20 -->
<g id="node20" class="node">
<title>Node20</title>
<g id="a_node20"><a xlink:title=" ">
<polygon fill="none" stroke="#bfbfbf" points="438.5,-286 438.5,-305 494.5,-305 494.5,-286 438.5,-286"/>
<text text-anchor="middle" x="466.5" y="-293" font-family="Helvetica,sans-Serif" font-size="10.00">stdarg.h</text>
</a>
</g>
</g>
<!-- Node18&#45;&gt;Node20 -->
<g id="edge27" class="edge">
<title>Node18&#45;&gt;Node20</title>
<path fill="none" stroke="midnightblue" d="M534.85,-352.73C522.05,-342.21 500.38,-324.38 484.87,-311.62"/>
<polygon fill="midnightblue" stroke="midnightblue" points="486.93,-308.78 476.99,-305.13 482.48,-314.18 486.93,-308.78"/>
</g>
<!-- Node21 -->
<g id="node21" class="node">
<title>Node21</title>
<g id="a_node21"><a xlink:title=" ">
<polygon fill="none" stroke="#bfbfbf" points="513,-286 513,-305 578,-305 578,-286 513,-286"/>
<text text-anchor="middle" x="545.5" y="-293" font-family="Helvetica,sans-Serif" font-size="10.00">functional</text>
</a>
</g>
</g>
<!-- Node18&#45;&gt;Node21 -->
<g id="edge29" class="edge">
<title>Node18&#45;&gt;Node21</title>
<path fill="none" stroke="midnightblue" d="M545.5,-352.73C545.5,-343.18 545.5,-327.62 545.5,-315.28"/>
<polygon fill="midnightblue" stroke="midnightblue" points="549,-315.13 545.5,-305.13 542,-315.13 549,-315.13"/>
</g>
</g>
</svg>
