<?xml version="1.0" encoding="UTF-8" standalone="no"?>
<!DOCTYPE svg PUBLIC "-//W3C//DTD SVG 1.1//EN"
 "http://www.w3.org/Graphics/SVG/1.1/DTD/svg11.dtd">
<!-- Generated by graphviz version 2.43.0 (0)
 -->
<!-- Title: /home/runner/work/cocos&#45;headers/cocos&#45;headers/cocos2dx/misc_nodes/CCRenderTexture.h Pages: 1 -->
<svg width="1929pt" height="731pt"
 viewBox="0.00 0.00 1928.50 731.00" xmlns="http://www.w3.org/2000/svg" xmlns:xlink="http://www.w3.org/1999/xlink">
<g id="graph0" class="graph" transform="scale(1 1) rotate(0) translate(4 727)">
<title>/home/runner/work/cocos&#45;headers/cocos&#45;headers/cocos2dx/misc_nodes/CCRenderTexture.h</title>
<!-- Node1 -->
<g id="node1" class="node">
<title>Node1</title>
<g id="a_node1"><a xlink:title=" ">
<polygon fill="#999999" stroke="#666666" points="1336,-723 1114,-723 1114,-682 1336,-682 1336,-723"/>
<text text-anchor="start" x="1122" y="-711" font-family="Helvetica,sans-Serif" font-size="10.00">/home/runner/work/cocos</text>
<text text-anchor="start" x="1122" y="-700" font-family="Helvetica,sans-Serif" font-size="10.00">&#45;headers/cocos&#45;headers</text>
<text text-anchor="middle" x="1225" y="-689" font-family="Helvetica,sans-Serif" font-size="10.00">/cocos2dx/misc_nodes/CCRenderTexture.h</text>
</a>
</g>
</g>
<!-- Node2 -->
<g id="node2" class="node">
<title>Node2</title>
<g id="a_node2"><a xlink:href="../../db/d7f/_c_c_node_8h.html" target="_top" xlink:title=" ">
<polygon fill="white" stroke="#666666" points="701.5,-591 576.5,-591 576.5,-572 701.5,-572 701.5,-591"/>
<text text-anchor="middle" x="639" y="-579" font-family="Helvetica,sans-Serif" font-size="10.00">base_nodes/CCNode.h</text>
</a>
</g>
</g>
<!-- Node1&#45;&gt;Node2 -->
<g id="edge1" class="edge">
<title>Node1&#45;&gt;Node2</title>
<path fill="none" stroke="#63b8ff" d="M1128.89,-681.98C1003.76,-656.57 789.47,-613.06 691.12,-593.08"/>
<polygon fill="#63b8ff" stroke="#63b8ff" points="691.62,-589.61 681.12,-591.05 690.23,-596.47 691.62,-589.61"/>
</g>
<!-- Node32 -->
<g id="node32" class="node">
<title>Node32</title>
<g id="a_node32"><a xlink:href="../../d5/d8a/_c_c_sprite_8h.html" target="_top" xlink:title=" ">
<polygon fill="white" stroke="#666666" points="1291.5,-646 1158.5,-646 1158.5,-627 1291.5,-627 1291.5,-646"/>
<text text-anchor="middle" x="1225" y="-634" font-family="Helvetica,sans-Serif" font-size="10.00">sprite_nodes/CCSprite.h</text>
</a>
</g>
</g>
<!-- Node1&#45;&gt;Node32 -->
<g id="edge55" class="edge">
<title>Node1&#45;&gt;Node32</title>
<path fill="none" stroke="#63b8ff" d="M1225,-681.95C1225,-673.85 1225,-664.5 1225,-656.47"/>
<polygon fill="#63b8ff" stroke="#63b8ff" points="1228.5,-656.26 1225,-646.26 1221.5,-656.26 1228.5,-656.26"/>
</g>
<!-- Node40 -->
<g id="node40" class="node">
<title>Node40</title>
<g id="a_node40"><a xlink:title=" ">
<polygon fill="#e0e0e0" stroke="#999999" points="1406,-646 1310,-646 1310,-627 1406,-627 1406,-646"/>
<text text-anchor="middle" x="1358" y="-634" font-family="Helvetica,sans-Serif" font-size="10.00">kazmath/mat4.h</text>
</a>
</g>
</g>
<!-- Node1&#45;&gt;Node40 -->
<g id="edge75" class="edge">
<title>Node1&#45;&gt;Node40</title>
<path fill="none" stroke="#63b8ff" d="M1265.63,-681.95C1286.83,-671.75 1312.2,-659.54 1330.98,-650.5"/>
<polygon fill="#63b8ff" stroke="#63b8ff" points="1332.65,-653.58 1340.15,-646.09 1329.62,-647.27 1332.65,-653.58"/>
</g>
<!-- Node3 -->
<g id="node3" class="node">
<title>Node3</title>
<g id="a_node3"><a xlink:href="../../d9/dc8/cc_macros_8h.html" target="_top" xlink:title=" ">
<polygon fill="white" stroke="#666666" points="729.5,-239 658.5,-239 658.5,-220 729.5,-220 729.5,-239"/>
<text text-anchor="middle" x="694" y="-227" font-family="Helvetica,sans-Serif" font-size="10.00">ccMacros.h</text>
</a>
</g>
</g>
<!-- Node2&#45;&gt;Node3 -->
<g id="edge2" class="edge">
<title>Node2&#45;&gt;Node3</title>
<path fill="none" stroke="#63b8ff" d="M619.26,-571.93C587.85,-556.8 530,-522.18 530,-472.5 530,-472.5 530,-472.5 530,-415.5 530,-333.18 622.05,-270.37 668.22,-244.04"/>
<polygon fill="#63b8ff" stroke="#63b8ff" points="670.03,-247.04 677.07,-239.13 666.63,-240.92 670.03,-247.04"/>
</g>
<!-- Node10 -->
<g id="node10" class="node">
<title>Node10</title>
<g id="a_node10"><a xlink:href="../../d3/d15/_c_c_affine_transform_8h.html" target="_top" xlink:title=" ">
<polygon fill="white" stroke="#666666" points="502,-426 354,-426 354,-407 502,-407 502,-426"/>
<text text-anchor="middle" x="428" y="-414" font-family="Helvetica,sans-Serif" font-size="10.00">cocoa/CCAffineTransform.h</text>
</a>
</g>
</g>
<!-- Node2&#45;&gt;Node10 -->
<g id="edge11" class="edge">
<title>Node2&#45;&gt;Node10</title>
<path fill="none" stroke="#63b8ff" d="M597.6,-571.96C572.24,-565.25 540.14,-553.96 516,-536 478.79,-508.32 450.21,-460.55 436.66,-434.93"/>
<polygon fill="#63b8ff" stroke="#63b8ff" points="439.75,-433.3 432.07,-426 433.52,-436.5 439.75,-433.3"/>
</g>
<!-- Node16 -->
<g id="node16" class="node">
<title>Node16</title>
<g id="a_node16"><a xlink:href="../../da/d35/_c_c_array_8h.html" target="_top" xlink:title=" ">
<polygon fill="white" stroke="#666666" points="1504.5,-365.5 1409.5,-365.5 1409.5,-346.5 1504.5,-346.5 1504.5,-365.5"/>
<text text-anchor="middle" x="1457" y="-353.5" font-family="Helvetica,sans-Serif" font-size="10.00">cocoa/CCArray.h</text>
</a>
</g>
</g>
<!-- Node2&#45;&gt;Node16 -->
<g id="edge21" class="edge">
<title>Node2&#45;&gt;Node16</title>
<path fill="none" stroke="#63b8ff" d="M701.71,-579.96C840.67,-578.16 1170.5,-570.28 1276,-536 1319.86,-521.75 1330.03,-512.2 1364,-481 1399.69,-448.22 1431.19,-400.19 1446.73,-374.59"/>
<polygon fill="#63b8ff" stroke="#63b8ff" points="1449.94,-376.06 1452.05,-365.67 1443.92,-372.47 1449.94,-376.06"/>
</g>
<!-- Node18 -->
<g id="node18" class="node">
<title>Node18</title>
<g id="a_node18"><a xlink:title=" ">
<polygon fill="#e0e0e0" stroke="#999999" points="260,-365.5 208,-365.5 208,-346.5 260,-346.5 260,-365.5"/>
<text text-anchor="middle" x="234" y="-353.5" font-family="Helvetica,sans-Serif" font-size="10.00">CCGL.h</text>
</a>
</g>
</g>
<!-- Node2&#45;&gt;Node18 -->
<g id="edge23" class="edge">
<title>Node2&#45;&gt;Node18</title>
<path fill="none" stroke="#63b8ff" d="M576.37,-580.75C474.72,-577.3 276.78,-553.57 193,-426 181.15,-407.95 198.67,-386.46 214.35,-372.32"/>
<polygon fill="#63b8ff" stroke="#63b8ff" points="216.85,-374.79 222.21,-365.65 212.32,-369.45 216.85,-374.79"/>
</g>
<!-- Node19 -->
<g id="node19" class="node">
<title>Node19</title>
<g id="a_node19"><a xlink:href="../../da/d2f/cc_g_l_state_cache_8h.html" target="_top" xlink:title=" ">
<polygon fill="white" stroke="#666666" points="146,-426 0,-426 0,-407 146,-407 146,-426"/>
<text text-anchor="middle" x="73" y="-414" font-family="Helvetica,sans-Serif" font-size="10.00">shaders/ccGLStateCache.h</text>
</a>
</g>
</g>
<!-- Node2&#45;&gt;Node19 -->
<g id="edge24" class="edge">
<title>Node2&#45;&gt;Node19</title>
<path fill="none" stroke="#63b8ff" d="M576.35,-580.95C463.1,-580.75 229.59,-575.39 160,-536 119.41,-513.03 92.44,-462.47 80.32,-435.41"/>
<polygon fill="#63b8ff" stroke="#63b8ff" points="83.45,-433.81 76.29,-426 77.01,-436.57 83.45,-433.81"/>
</g>
<!-- Node20 -->
<g id="node20" class="node">
<title>Node20</title>
<g id="a_node20"><a xlink:href="../../de/d32/_c_c_g_l_program_8h.html" target="_top" xlink:title=" ">
<polygon fill="white" stroke="#666666" points="336,-426 202,-426 202,-407 336,-407 336,-426"/>
<text text-anchor="middle" x="269" y="-414" font-family="Helvetica,sans-Serif" font-size="10.00">shaders/CCGLProgram.h</text>
</a>
</g>
</g>
<!-- Node2&#45;&gt;Node20 -->
<g id="edge27" class="edge">
<title>Node2&#45;&gt;Node20</title>
<path fill="none" stroke="#63b8ff" d="M603.63,-571.98C573.22,-564.15 528.45,-551.45 491,-536 414.91,-504.62 330.58,-455.25 291.35,-431.36"/>
<polygon fill="#63b8ff" stroke="#63b8ff" points="293.17,-428.37 282.81,-426.13 289.51,-434.34 293.17,-428.37"/>
</g>
<!-- Node21 -->
<g id="node21" class="node">
<title>Node21</title>
<g id="a_node21"><a xlink:title=" ">
<polygon fill="#e0e0e0" stroke="#999999" points="695.5,-536 582.5,-536 582.5,-517 695.5,-517 695.5,-536"/>
<text text-anchor="middle" x="639" y="-524" font-family="Helvetica,sans-Serif" font-size="10.00">kazmath/kazmath.h</text>
</a>
</g>
</g>
<!-- Node2&#45;&gt;Node21 -->
<g id="edge31" class="edge">
<title>Node2&#45;&gt;Node21</title>
<path fill="none" stroke="#63b8ff" d="M639,-571.75C639,-564.8 639,-554.85 639,-546.13"/>
<polygon fill="#63b8ff" stroke="#63b8ff" points="642.5,-546.09 639,-536.09 635.5,-546.09 642.5,-546.09"/>
</g>
<!-- Node22 -->
<g id="node22" class="node">
<title>Node22</title>
<g id="a_node22"><a xlink:href="../../dc/dbc/_c_c_script_support_8h.html" target="_top" xlink:title=" ">
<polygon fill="white" stroke="#666666" points="857,-481 681,-481 681,-462 857,-462 857,-481"/>
<text text-anchor="middle" x="769" y="-469" font-family="Helvetica,sans-Serif" font-size="10.00">script_support/CCScriptSupport.h</text>
</a>
</g>
</g>
<!-- Node2&#45;&gt;Node22 -->
<g id="edge32" class="edge">
<title>Node2&#45;&gt;Node22</title>
<path fill="none" stroke="#63b8ff" d="M652.94,-571.95C666.45,-563.44 687.29,-549.7 704,-536 722.18,-521.09 741.23,-502.01 753.97,-488.68"/>
<polygon fill="#63b8ff" stroke="#63b8ff" points="756.7,-490.88 761.02,-481.2 751.61,-486.07 756.7,-490.88"/>
</g>
<!-- Node29 -->
<g id="node29" class="node">
<title>Node29</title>
<g id="a_node29"><a xlink:href="../../d8/d76/_c_c_protocols_8h.html" target="_top" xlink:title=" ">
<polygon fill="white" stroke="#666666" points="1267,-536 1183,-536 1183,-517 1267,-517 1267,-536"/>
<text text-anchor="middle" x="1225" y="-524" font-family="Helvetica,sans-Serif" font-size="10.00">CCProtocols.h</text>
</a>
</g>
</g>
<!-- Node2&#45;&gt;Node29 -->
<g id="edge44" class="edge">
<title>Node2&#45;&gt;Node29</title>
<path fill="none" stroke="#63b8ff" d="M701.71,-574.83C817.98,-564.31 1064.96,-541.97 1172.8,-532.22"/>
<polygon fill="#63b8ff" stroke="#63b8ff" points="1173.15,-535.7 1182.79,-531.32 1172.52,-528.73 1173.15,-535.7"/>
</g>
<!-- Node4 -->
<g id="node4" class="node">
<title>Node4</title>
<g id="a_node4"><a xlink:href="../../d5/d22/_c_c_common_8h.html" target="_top" xlink:title=" ">
<polygon fill="white" stroke="#666666" points="670,-184 542,-184 542,-165 670,-165 670,-184"/>
<text text-anchor="middle" x="606" y="-172" font-family="Helvetica,sans-Serif" font-size="10.00">platform/CCCommon.h</text>
</a>
</g>
</g>
<!-- Node3&#45;&gt;Node4 -->
<g id="edge3" class="edge">
<title>Node3&#45;&gt;Node4</title>
<path fill="none" stroke="#63b8ff" d="M679.86,-219.98C666.21,-211.77 645.31,-199.18 629.22,-189.49"/>
<polygon fill="#63b8ff" stroke="#63b8ff" points="630.77,-186.33 620.4,-184.17 627.16,-192.33 630.77,-186.33"/>
</g>
<!-- Node6 -->
<g id="node6" class="node">
<title>Node6</title>
<g id="a_node6"><a xlink:href="../../db/d9f/cc_config_8h.html" target="_top" xlink:title="cocos2d (cc) configuration file">
<polygon fill="white" stroke="#666666" points="811.5,-74 744.5,-74 744.5,-55 811.5,-55 811.5,-74"/>
<text text-anchor="middle" x="778" y="-62" font-family="Helvetica,sans-Serif" font-size="10.00">ccConfig.h</text>
</a>
</g>
</g>
<!-- Node3&#45;&gt;Node6 -->
<g id="edge10" class="edge">
<title>Node3&#45;&gt;Node6</title>
<path fill="none" stroke="#63b8ff" d="M714.39,-219.95C729.21,-212.64 748.46,-200.64 759,-184 778.54,-153.16 780.23,-109.01 779.35,-84.23"/>
<polygon fill="#63b8ff" stroke="#63b8ff" points="782.84,-83.84 778.8,-74.04 775.85,-84.21 782.84,-83.84"/>
</g>
<!-- Node9 -->
<g id="node9" class="node">
<title>Node9</title>
<g id="a_node9"><a xlink:title=" ">
<polygon fill="#e0e0e0" stroke="#999999" points="750,-184 688,-184 688,-165 750,-165 750,-184"/>
<text text-anchor="middle" x="719" y="-172" font-family="Helvetica,sans-Serif" font-size="10.00">CCStdC.h</text>
</a>
</g>
</g>
<!-- Node3&#45;&gt;Node9 -->
<g id="edge9" class="edge">
<title>Node3&#45;&gt;Node9</title>
<path fill="none" stroke="#63b8ff" d="M698.13,-219.75C701.51,-212.57 706.42,-202.18 710.62,-193.27"/>
<polygon fill="#63b8ff" stroke="#63b8ff" points="713.85,-194.63 714.95,-184.09 707.52,-191.64 713.85,-194.63"/>
</g>
<!-- Node5 -->
<g id="node5" class="node">
<title>Node5</title>
<g id="a_node5"><a xlink:href="../../d3/d41/_c_c_platform_macros_8h.html" target="_top" xlink:title=" ">
<polygon fill="white" stroke="#666666" points="719,-129 603,-129 603,-110 719,-110 719,-129"/>
<text text-anchor="middle" x="661" y="-117" font-family="Helvetica,sans-Serif" font-size="10.00">CCPlatformMacros.h</text>
</a>
</g>
</g>
<!-- Node4&#45;&gt;Node5 -->
<g id="edge4" class="edge">
<title>Node4&#45;&gt;Node5</title>
<path fill="none" stroke="#63b8ff" d="M615.08,-164.75C623.09,-157.03 634.96,-145.6 644.62,-136.28"/>
<polygon fill="#63b8ff" stroke="#63b8ff" points="647.31,-138.55 652.09,-129.09 642.46,-133.51 647.31,-138.55"/>
</g>
<!-- Node5&#45;&gt;Node6 -->
<g id="edge5" class="edge">
<title>Node5&#45;&gt;Node6</title>
<path fill="none" stroke="#63b8ff" d="M679.8,-109.98C698.62,-101.46 727.82,-88.23 749.5,-78.41"/>
<polygon fill="#63b8ff" stroke="#63b8ff" points="751.2,-81.48 758.86,-74.17 748.31,-75.11 751.2,-81.48"/>
</g>
<!-- Node7 -->
<g id="node7" class="node">
<title>Node7</title>
<g id="a_node7"><a xlink:href="../../dd/d96/_c_c_platform_config_8h.html" target="_top" xlink:title=" ">
<polygon fill="white" stroke="#666666" points="825.5,-19 668.5,-19 668.5,0 825.5,0 825.5,-19"/>
<text text-anchor="middle" x="747" y="-7" font-family="Helvetica,sans-Serif" font-size="10.00">platform/CCPlatformConfig.h</text>
</a>
</g>
</g>
<!-- Node5&#45;&gt;Node7 -->
<g id="edge7" class="edge">
<title>Node5&#45;&gt;Node7</title>
<path fill="none" stroke="#63b8ff" d="M668.04,-109.66C682.41,-91.61 715.33,-50.28 733.8,-27.08"/>
<polygon fill="#63b8ff" stroke="#63b8ff" points="736.61,-29.16 740.11,-19.16 731.14,-24.8 736.61,-29.16"/>
</g>
<!-- Node8 -->
<g id="node8" class="node">
<title>Node8</title>
<g id="a_node8"><a xlink:title=" ">
<polygon fill="#e0e0e0" stroke="#999999" points="687.5,-74 574.5,-74 574.5,-55 687.5,-55 687.5,-74"/>
<text text-anchor="middle" x="631" y="-62" font-family="Helvetica,sans-Serif" font-size="10.00">CCPlatformDefine.h</text>
</a>
</g>
</g>
<!-- Node5&#45;&gt;Node8 -->
<g id="edge8" class="edge">
<title>Node5&#45;&gt;Node8</title>
<path fill="none" stroke="#63b8ff" d="M656.05,-109.75C651.94,-102.49 645.97,-91.95 640.9,-82.98"/>
<polygon fill="#63b8ff" stroke="#63b8ff" points="643.83,-81.07 635.86,-74.09 637.74,-84.52 643.83,-81.07"/>
</g>
<!-- Node6&#45;&gt;Node7 -->
<g id="edge6" class="edge">
<title>Node6&#45;&gt;Node7</title>
<path fill="none" stroke="#63b8ff" d="M772.88,-54.75C768.64,-47.49 762.47,-36.95 757.22,-27.98"/>
<polygon fill="#63b8ff" stroke="#63b8ff" points="760.09,-25.95 752.02,-19.09 754.05,-29.49 760.09,-25.95"/>
</g>
<!-- Node10&#45;&gt;Node5 -->
<g id="edge20" class="edge">
<title>Node10&#45;&gt;Node5</title>
<path fill="none" stroke="#63b8ff" d="M431.8,-406.94C440.27,-387.03 460,-335.86 460,-291 460,-291 460,-291 460,-228.5 460,-166.71 534.62,-140.12 592.92,-128.78"/>
<polygon fill="#63b8ff" stroke="#63b8ff" points="593.66,-132.2 602.86,-126.96 592.4,-125.32 593.66,-132.2"/>
</g>
<!-- Node11 -->
<g id="node11" class="node">
<title>Node11</title>
<g id="a_node11"><a xlink:href="../../d6/d09/_c_c_geometry_8h.html" target="_top" xlink:title=" ">
<polygon fill="white" stroke="#666666" points="953,-365.5 867,-365.5 867,-346.5 953,-346.5 953,-365.5"/>
<text text-anchor="middle" x="910" y="-353.5" font-family="Helvetica,sans-Serif" font-size="10.00">CCGeometry.h</text>
</a>
</g>
</g>
<!-- Node10&#45;&gt;Node11 -->
<g id="edge12" class="edge">
<title>Node10&#45;&gt;Node11</title>
<path fill="none" stroke="#63b8ff" d="M498.09,-406.99C595.41,-395.18 769.34,-374.07 856.76,-363.46"/>
<polygon fill="#63b8ff" stroke="#63b8ff" points="857.22,-366.93 866.72,-362.25 856.38,-359.98 857.22,-366.93"/>
</g>
<!-- Node11&#45;&gt;Node5 -->
<g id="edge13" class="edge">
<title>Node11&#45;&gt;Node5</title>
<path fill="none" stroke="#63b8ff" d="M904.05,-346.48C880.79,-313.34 795.54,-193.52 759,-165 740.85,-150.84 717.48,-140 698.11,-132.57"/>
<polygon fill="#63b8ff" stroke="#63b8ff" points="699.27,-129.27 688.68,-129.09 696.85,-135.84 699.27,-129.27"/>
</g>
<!-- Node12 -->
<g id="node12" class="node">
<title>Node12</title>
<g id="a_node12"><a xlink:href="../../dd/d69/_c_c_object_8h.html" target="_top" xlink:title=" ">
<polygon fill="white" stroke="#666666" points="1121.5,-299.5 1050.5,-299.5 1050.5,-280.5 1121.5,-280.5 1121.5,-299.5"/>
<text text-anchor="middle" x="1086" y="-287.5" font-family="Helvetica,sans-Serif" font-size="10.00">CCObject.h</text>
</a>
</g>
</g>
<!-- Node11&#45;&gt;Node12 -->
<g id="edge14" class="edge">
<title>Node11&#45;&gt;Node12</title>
<path fill="none" stroke="#63b8ff" d="M933.74,-346.37C964.39,-335.22 1017.93,-315.75 1052.66,-303.12"/>
<polygon fill="#63b8ff" stroke="#63b8ff" points="1054.16,-306.3 1062.36,-299.6 1051.77,-299.72 1054.16,-306.3"/>
</g>
<!-- Node15 -->
<g id="node15" class="node">
<title>Node15</title>
<g id="a_node15"><a xlink:title=" ">
<polygon fill="#e0e0e0" stroke="#999999" points="935.5,-299.5 884.5,-299.5 884.5,-280.5 935.5,-280.5 935.5,-299.5"/>
<text text-anchor="middle" x="910" y="-287.5" font-family="Helvetica,sans-Serif" font-size="10.00">math.h</text>
</a>
</g>
</g>
<!-- Node11&#45;&gt;Node15 -->
<g id="edge19" class="edge">
<title>Node11&#45;&gt;Node15</title>
<path fill="none" stroke="#63b8ff" d="M910,-346.37C910,-337.16 910,-322.29 910,-310.27"/>
<polygon fill="#63b8ff" stroke="#63b8ff" points="913.5,-309.91 910,-299.91 906.5,-309.91 913.5,-309.91"/>
</g>
<!-- Node12&#45;&gt;Node3 -->
<g id="edge18" class="edge">
<title>Node12&#45;&gt;Node3</title>
<path fill="none" stroke="#63b8ff" d="M1050.17,-283.65C978.72,-272.99 818.62,-249.1 739.72,-237.32"/>
<polygon fill="#63b8ff" stroke="#63b8ff" points="740.01,-233.83 729.6,-235.81 738.98,-240.75 740.01,-233.83"/>
</g>
<!-- Node13 -->
<g id="node13" class="node">
<title>Node13</title>
<g id="a_node13"><a xlink:href="../../d9/d2d/_c_c_data_visitor_8h.html" target="_top" xlink:title=" ">
<polygon fill="white" stroke="#666666" points="1132.5,-239 1039.5,-239 1039.5,-220 1132.5,-220 1132.5,-239"/>
<text text-anchor="middle" x="1086" y="-227" font-family="Helvetica,sans-Serif" font-size="10.00">CCDataVisitor.h</text>
</a>
</g>
</g>
<!-- Node12&#45;&gt;Node13 -->
<g id="edge15" class="edge">
<title>Node12&#45;&gt;Node13</title>
<path fill="none" stroke="#63b8ff" d="M1086,-280.37C1086,-272.25 1086,-259.81 1086,-249.39"/>
<polygon fill="#63b8ff" stroke="#63b8ff" points="1089.5,-249.17 1086,-239.17 1082.5,-249.17 1089.5,-249.17"/>
</g>
<!-- Node13&#45;&gt;Node5 -->
<g id="edge16" class="edge">
<title>Node13&#45;&gt;Node5</title>
<path fill="none" stroke="#63b8ff" d="M1055.8,-219.93C1011.31,-207.39 925.47,-183.52 852,-165 803.66,-152.81 748.14,-140.01 709.46,-131.28"/>
<polygon fill="#63b8ff" stroke="#63b8ff" points="710.04,-127.82 699.51,-129.04 708.5,-134.65 710.04,-127.82"/>
</g>
<!-- Node14 -->
<g id="node14" class="node">
<title>Node14</title>
<g id="a_node14"><a xlink:title=" ">
<polygon fill="#e0e0e0" stroke="#999999" points="1346,-184 1302,-184 1302,-165 1346,-165 1346,-184"/>
<text text-anchor="middle" x="1324" y="-172" font-family="Helvetica,sans-Serif" font-size="10.00">string</text>
</a>
</g>
</g>
<!-- Node13&#45;&gt;Node14 -->
<g id="edge17" class="edge">
<title>Node13&#45;&gt;Node14</title>
<path fill="none" stroke="#63b8ff" d="M1124.24,-219.98C1170.73,-209.63 1248.37,-192.34 1291.9,-182.65"/>
<polygon fill="#63b8ff" stroke="#63b8ff" points="1292.93,-186 1301.93,-180.41 1291.41,-179.17 1292.93,-186"/>
</g>
<!-- Node17 -->
<g id="node17" class="node">
<title>Node17</title>
<g id="a_node17"><a xlink:title=" ">
<polygon fill="#e0e0e0" stroke="#999999" points="1505,-305 1385,-305 1385,-275 1505,-275 1505,-305"/>
<text text-anchor="start" x="1393" y="-293" font-family="Helvetica,sans-Serif" font-size="10.00">support/data_support</text>
<text text-anchor="middle" x="1445" y="-282" font-family="Helvetica,sans-Serif" font-size="10.00">/ccCArray.h</text>
</a>
</g>
</g>
<!-- Node16&#45;&gt;Node17 -->
<g id="edge22" class="edge">
<title>Node16&#45;&gt;Node17</title>
<path fill="none" stroke="#63b8ff" d="M1455.38,-346.37C1453.89,-338.4 1451.6,-326.2 1449.55,-315.27"/>
<polygon fill="#63b8ff" stroke="#63b8ff" points="1452.98,-314.54 1447.69,-305.36 1446.1,-315.83 1452.98,-314.54"/>
</g>
<!-- Node19&#45;&gt;Node5 -->
<g id="edge26" class="edge">
<title>Node19&#45;&gt;Node5</title>
<path fill="none" stroke="#63b8ff" d="M77.27,-406.99C86.81,-387.18 109,-336.23 109,-291 109,-291 109,-291 109,-228.5 109,-130.99 444.93,-119.89 592.66,-119.73"/>
<polygon fill="#63b8ff" stroke="#63b8ff" points="592.97,-123.23 602.97,-119.73 592.97,-116.23 592.97,-123.23"/>
</g>
<!-- Node19&#45;&gt;Node18 -->
<g id="edge25" class="edge">
<title>Node19&#45;&gt;Node18</title>
<path fill="none" stroke="#63b8ff" d="M96.41,-406.99C123.95,-396.99 169.87,-380.3 201.01,-368.99"/>
<polygon fill="#63b8ff" stroke="#63b8ff" points="202.36,-372.22 210.56,-365.52 199.97,-365.64 202.36,-372.22"/>
</g>
<!-- Node20&#45;&gt;Node3 -->
<g id="edge28" class="edge">
<title>Node20&#45;&gt;Node3</title>
<path fill="none" stroke="#63b8ff" d="M288.65,-406.95C356.75,-377.3 582.97,-278.83 664.44,-243.37"/>
<polygon fill="#63b8ff" stroke="#63b8ff" points="666.3,-246.37 674.07,-239.17 663.51,-239.96 666.3,-246.37"/>
</g>
<!-- Node20&#45;&gt;Node12 -->
<g id="edge29" class="edge">
<title>Node20&#45;&gt;Node12</title>
<path fill="none" stroke="#63b8ff" d="M324.83,-406.99C477.54,-383.72 900.04,-319.34 1040.17,-297.98"/>
<polygon fill="#63b8ff" stroke="#63b8ff" points="1040.79,-301.43 1050.15,-296.46 1039.74,-294.51 1040.79,-301.43"/>
</g>
<!-- Node20&#45;&gt;Node18 -->
<g id="edge30" class="edge">
<title>Node20&#45;&gt;Node18</title>
<path fill="none" stroke="#63b8ff" d="M263.84,-406.87C258.77,-398.4 250.9,-385.24 244.51,-374.57"/>
<polygon fill="#63b8ff" stroke="#63b8ff" points="247.32,-372.45 239.19,-365.67 241.32,-376.05 247.32,-372.45"/>
</g>
<!-- Node22&#45;&gt;Node4 -->
<g id="edge33" class="edge">
<title>Node22&#45;&gt;Node4</title>
<path fill="none" stroke="#63b8ff" d="M696.5,-461.95C651.91,-455.04 600.76,-443.53 587,-426 531.9,-355.81 577.01,-237.81 597.35,-193.25"/>
<polygon fill="#63b8ff" stroke="#63b8ff" points="600.6,-194.55 601.69,-184.02 594.27,-191.57 600.6,-194.55"/>
</g>
<!-- Node22&#45;&gt;Node14 -->
<g id="edge42" class="edge">
<title>Node22&#45;&gt;Node14</title>
<path fill="none" stroke="#63b8ff" d="M857.22,-465.43C939.92,-459.45 1056.68,-447.49 1097,-426 1205.07,-368.4 1196.25,-309.35 1280,-220 1289.01,-210.39 1299.35,-199.9 1307.75,-191.52"/>
<polygon fill="#63b8ff" stroke="#63b8ff" points="1310.46,-193.76 1315.09,-184.23 1305.53,-188.79 1310.46,-193.76"/>
</g>
<!-- Node23 -->
<g id="node23" class="node">
<title>Node23</title>
<g id="a_node23"><a xlink:title=" ">
<polygon fill="#e0e0e0" stroke="#999999" points="706,-426 596,-426 596,-407 706,-407 706,-426"/>
<text text-anchor="middle" x="651" y="-414" font-family="Helvetica,sans-Serif" font-size="10.00">CCAccelerometer.h</text>
</a>
</g>
</g>
<!-- Node22&#45;&gt;Node23 -->
<g id="edge34" class="edge">
<title>Node22&#45;&gt;Node23</title>
<path fill="none" stroke="#63b8ff" d="M750.04,-461.98C730.97,-453.42 701.34,-440.11 679.45,-430.28"/>
<polygon fill="#63b8ff" stroke="#63b8ff" points="680.86,-427.07 670.3,-426.17 677.99,-433.46 680.86,-427.07"/>
</g>
<!-- Node24 -->
<g id="node24" class="node">
<title>Node24</title>
<g id="a_node24"><a xlink:href="../../d3/dff/_c_c_touch_8h.html" target="_top" xlink:title=" ">
<polygon fill="white" stroke="#666666" points="983.5,-426 830.5,-426 830.5,-407 983.5,-407 983.5,-426"/>
<text text-anchor="middle" x="907" y="-414" font-family="Helvetica,sans-Serif" font-size="10.00">touch_dispatcher/CCTouch.h</text>
</a>
</g>
</g>
<!-- Node22&#45;&gt;Node24 -->
<g id="edge35" class="edge">
<title>Node22&#45;&gt;Node24</title>
<path fill="none" stroke="#63b8ff" d="M791.17,-461.98C813.77,-453.3 849.06,-439.75 874.75,-429.88"/>
<polygon fill="#63b8ff" stroke="#63b8ff" points="876.34,-433.02 884.42,-426.17 873.83,-426.49 876.34,-433.02"/>
</g>
<!-- Node25 -->
<g id="node25" class="node">
<title>Node25</title>
<g id="a_node25"><a xlink:href="../../da/ddc/_c_c_set_8h.html" target="_top" xlink:title=" ">
<polygon fill="white" stroke="#666666" points="1088,-426 1002,-426 1002,-407 1088,-407 1088,-426"/>
<text text-anchor="middle" x="1045" y="-414" font-family="Helvetica,sans-Serif" font-size="10.00">cocoa/CCSet.h</text>
</a>
</g>
</g>
<!-- Node22&#45;&gt;Node25 -->
<g id="edge38" class="edge">
<title>Node22&#45;&gt;Node25</title>
<path fill="none" stroke="#63b8ff" d="M813.34,-461.98C861.92,-452.66 939.79,-437.7 991.66,-427.74"/>
<polygon fill="#63b8ff" stroke="#63b8ff" points="992.52,-431.14 1001.68,-425.82 991.2,-424.27 992.52,-431.14"/>
</g>
<!-- Node27 -->
<g id="node27" class="node">
<title>Node27</title>
<g id="a_node27"><a xlink:title=" ">
<polygon fill="#e0e0e0" stroke="#999999" points="762,-426 724,-426 724,-407 762,-407 762,-426"/>
<text text-anchor="middle" x="743" y="-414" font-family="Helvetica,sans-Serif" font-size="10.00">map</text>
</a>
</g>
</g>
<!-- Node22&#45;&gt;Node27 -->
<g id="edge41" class="edge">
<title>Node22&#45;&gt;Node27</title>
<path fill="none" stroke="#63b8ff" d="M764.71,-461.75C761.19,-454.57 756.09,-444.18 751.72,-435.27"/>
<polygon fill="#63b8ff" stroke="#63b8ff" points="754.76,-433.53 747.21,-426.09 748.48,-436.61 754.76,-433.53"/>
</g>
<!-- Node28 -->
<g id="node28" class="node">
<title>Node28</title>
<g id="a_node28"><a xlink:title=" ">
<polygon fill="#e0e0e0" stroke="#999999" points="812,-426 780,-426 780,-407 812,-407 812,-426"/>
<text text-anchor="middle" x="796" y="-414" font-family="Helvetica,sans-Serif" font-size="10.00">list</text>
</a>
</g>
</g>
<!-- Node22&#45;&gt;Node28 -->
<g id="edge43" class="edge">
<title>Node22&#45;&gt;Node28</title>
<path fill="none" stroke="#63b8ff" d="M773.46,-461.75C777.12,-454.57 782.41,-444.18 786.95,-435.27"/>
<polygon fill="#63b8ff" stroke="#63b8ff" points="790.2,-436.59 791.62,-426.09 783.97,-433.41 790.2,-436.59"/>
</g>
<!-- Node24&#45;&gt;Node11 -->
<g id="edge37" class="edge">
<title>Node24&#45;&gt;Node11</title>
<path fill="none" stroke="#63b8ff" d="M907.44,-406.87C907.86,-398.75 908.5,-386.31 909.03,-375.89"/>
<polygon fill="#63b8ff" stroke="#63b8ff" points="912.54,-375.83 909.56,-365.67 905.55,-375.47 912.54,-375.83"/>
</g>
<!-- Node24&#45;&gt;Node12 -->
<g id="edge36" class="edge">
<title>Node24&#45;&gt;Node12</title>
<path fill="none" stroke="#63b8ff" d="M919.3,-406.94C949.45,-385.98 1027.28,-331.84 1064.95,-305.64"/>
<polygon fill="#63b8ff" stroke="#63b8ff" points="1067.4,-308.2 1073.61,-299.62 1063.4,-302.45 1067.4,-308.2"/>
</g>
<!-- Node25&#45;&gt;Node12 -->
<g id="edge40" class="edge">
<title>Node25&#45;&gt;Node12</title>
<path fill="none" stroke="#63b8ff" d="M1049.99,-406.89C1054.9,-398.11 1062.32,-383.97 1067,-371 1074.4,-350.49 1079.73,-325.97 1082.83,-309.53"/>
<polygon fill="#63b8ff" stroke="#63b8ff" points="1086.29,-310.05 1084.62,-299.59 1079.4,-308.81 1086.29,-310.05"/>
</g>
<!-- Node26 -->
<g id="node26" class="node">
<title>Node26</title>
<g id="a_node26"><a xlink:title=" ">
<polygon fill="#e0e0e0" stroke="#999999" points="1058,-365.5 1026,-365.5 1026,-346.5 1058,-346.5 1058,-365.5"/>
<text text-anchor="middle" x="1042" y="-353.5" font-family="Helvetica,sans-Serif" font-size="10.00">set</text>
</a>
</g>
</g>
<!-- Node25&#45;&gt;Node26 -->
<g id="edge39" class="edge">
<title>Node25&#45;&gt;Node26</title>
<path fill="none" stroke="#63b8ff" d="M1044.56,-406.87C1044.14,-398.75 1043.5,-386.31 1042.97,-375.89"/>
<polygon fill="#63b8ff" stroke="#63b8ff" points="1046.45,-375.47 1042.44,-365.67 1039.46,-375.83 1046.45,-375.47"/>
</g>
<!-- Node29&#45;&gt;Node14 -->
<g id="edge54" class="edge">
<title>Node29&#45;&gt;Node14</title>
<path fill="none" stroke="#63b8ff" d="M1255.07,-516.95C1283.21,-508.27 1322.19,-494.26 1331,-481 1392.15,-389 1349.2,-244.55 1331.03,-193.84"/>
<polygon fill="#63b8ff" stroke="#63b8ff" points="1334.23,-192.41 1327.48,-184.25 1327.67,-194.84 1334.23,-192.41"/>
</g>
<!-- Node30 -->
<g id="node30" class="node">
<title>Node30</title>
<g id="a_node30"><a xlink:href="../../df/de6/cc_types_8h.html" target="_top" xlink:title=" ">
<polygon fill="white" stroke="#666666" points="1208,-426 1144,-426 1144,-407 1208,-407 1208,-426"/>
<text text-anchor="middle" x="1176" y="-414" font-family="Helvetica,sans-Serif" font-size="10.00">ccTypes.h</text>
</a>
</g>
</g>
<!-- Node29&#45;&gt;Node30 -->
<g id="edge45" class="edge">
<title>Node29&#45;&gt;Node30</title>
<path fill="none" stroke="#63b8ff" d="M1212.52,-516.87C1202.09,-508.89 1187.87,-496.02 1181,-481 1174.59,-467 1173.68,-449.45 1174.17,-436.35"/>
<polygon fill="#63b8ff" stroke="#63b8ff" points="1177.68,-436.4 1174.87,-426.18 1170.69,-435.92 1177.68,-436.4"/>
</g>
<!-- Node31 -->
<g id="node31" class="node">
<title>Node31</title>
<g id="a_node31"><a xlink:href="../../d5/d70/_c_c_texture2_d_8h.html" target="_top" xlink:title=" ">
<polygon fill="white" stroke="#666666" points="1322,-481 1190,-481 1190,-462 1322,-462 1322,-481"/>
<text text-anchor="middle" x="1256" y="-469" font-family="Helvetica,sans-Serif" font-size="10.00">textures/CCTexture2D.h</text>
</a>
</g>
</g>
<!-- Node29&#45;&gt;Node31 -->
<g id="edge49" class="edge">
<title>Node29&#45;&gt;Node31</title>
<path fill="none" stroke="#63b8ff" d="M1230.12,-516.75C1234.36,-509.49 1240.53,-498.95 1245.78,-489.98"/>
<polygon fill="#63b8ff" stroke="#63b8ff" points="1248.95,-491.49 1250.98,-481.09 1242.91,-487.95 1248.95,-491.49"/>
</g>
<!-- Node30&#45;&gt;Node11 -->
<g id="edge47" class="edge">
<title>Node30&#45;&gt;Node11</title>
<path fill="none" stroke="#63b8ff" d="M1143.91,-408.44C1097.83,-398.31 1012.53,-379.55 958.66,-367.7"/>
<polygon fill="#63b8ff" stroke="#63b8ff" points="959.18,-364.23 948.66,-365.5 957.67,-371.07 959.18,-364.23"/>
</g>
<!-- Node30&#45;&gt;Node14 -->
<g id="edge46" class="edge">
<title>Node30&#45;&gt;Node14</title>
<path fill="none" stroke="#63b8ff" d="M1195.68,-406.93C1210.66,-399.46 1230.72,-387.28 1243,-371 1285.4,-314.78 1258.92,-282.69 1291,-220 1296.08,-210.06 1303.34,-199.99 1309.75,-191.95"/>
<polygon fill="#63b8ff" stroke="#63b8ff" points="1312.55,-194.06 1316.24,-184.12 1307.16,-189.59 1312.55,-194.06"/>
</g>
<!-- Node30&#45;&gt;Node18 -->
<g id="edge48" class="edge">
<title>Node30&#45;&gt;Node18</title>
<path fill="none" stroke="#63b8ff" d="M1143.75,-411.67C1129.44,-410.06 1112.4,-408.27 1097,-407 776.87,-380.52 388.77,-363.37 270.15,-358.46"/>
<polygon fill="#63b8ff" stroke="#63b8ff" points="270.29,-354.96 260.16,-358.04 270.01,-361.95 270.29,-354.96"/>
</g>
<!-- Node31&#45;&gt;Node11 -->
<g id="edge52" class="edge">
<title>Node31&#45;&gt;Node11</title>
<path fill="none" stroke="#63b8ff" d="M1253.33,-461.86C1248.52,-447.85 1236.99,-420.4 1217,-407 1206.54,-399.98 1048.11,-376.62 963.06,-364.47"/>
<polygon fill="#63b8ff" stroke="#63b8ff" points="963.46,-360.99 953.07,-363.05 962.47,-367.92 963.46,-360.99"/>
</g>
<!-- Node31&#45;&gt;Node12 -->
<g id="edge51" class="edge">
<title>Node31&#45;&gt;Node12</title>
<path fill="none" stroke="#63b8ff" d="M1256.07,-461.78C1255.75,-448.62 1253.4,-423.47 1241,-407 1221.37,-380.92 1203.62,-389.88 1177,-371 1148.98,-351.13 1119.68,-324.06 1102.14,-307.06"/>
<polygon fill="#63b8ff" stroke="#63b8ff" points="1104.12,-304.1 1094.53,-299.6 1099.22,-309.1 1104.12,-304.1"/>
</g>
<!-- Node31&#45;&gt;Node14 -->
<g id="edge50" class="edge">
<title>Node31&#45;&gt;Node14</title>
<path fill="none" stroke="#63b8ff" d="M1257.96,-461.99C1267.21,-421.86 1306.56,-251.16 1319.71,-194.13"/>
<polygon fill="#63b8ff" stroke="#63b8ff" points="1323.19,-194.58 1322.03,-184.05 1316.37,-193 1323.19,-194.58"/>
</g>
<!-- Node31&#45;&gt;Node30 -->
<g id="edge53" class="edge">
<title>Node31&#45;&gt;Node30</title>
<path fill="none" stroke="#63b8ff" d="M1243.15,-461.98C1230.86,-453.84 1212.09,-441.41 1197.52,-431.76"/>
<polygon fill="#63b8ff" stroke="#63b8ff" points="1199.36,-428.78 1189.09,-426.17 1195.49,-434.61 1199.36,-428.78"/>
</g>
<!-- Node32&#45;&gt;Node2 -->
<g id="edge56" class="edge">
<title>Node32&#45;&gt;Node2</title>
<path fill="none" stroke="#63b8ff" d="M1158.35,-629.47C1047.55,-619.45 826.34,-599.44 711.68,-589.07"/>
<polygon fill="#63b8ff" stroke="#63b8ff" points="711.86,-585.58 701.59,-588.16 711.23,-592.55 711.86,-585.58"/>
</g>
<!-- Node32&#45;&gt;Node14 -->
<g id="edge74" class="edge">
<title>Node32&#45;&gt;Node14</title>
<path fill="none" stroke="#63b8ff" d="M1272.37,-626.93C1373.62,-607.96 1602,-561.41 1602,-527.5 1602,-527.5 1602,-527.5 1602,-470.5 1602,-347.05 1587.32,-284.4 1482,-220 1442.62,-195.92 1389.82,-184.5 1356.35,-179.35"/>
<polygon fill="#63b8ff" stroke="#63b8ff" points="1356.6,-175.85 1346.2,-177.9 1355.6,-182.78 1356.6,-175.85"/>
</g>
<!-- Node32&#45;&gt;Node29 -->
<g id="edge57" class="edge">
<title>Node32&#45;&gt;Node29</title>
<path fill="none" stroke="#63b8ff" d="M1225,-626.66C1225,-609.17 1225,-569.8 1225,-546.27"/>
<polygon fill="#63b8ff" stroke="#63b8ff" points="1228.5,-546.16 1225,-536.16 1221.5,-546.16 1228.5,-546.16"/>
</g>
<!-- Node32&#45;&gt;Node30 -->
<g id="edge63" class="edge">
<title>Node32&#45;&gt;Node30</title>
<path fill="none" stroke="#63b8ff" d="M1218.97,-626.97C1207.64,-610.4 1183.45,-572.25 1174,-536 1165.03,-501.61 1169.08,-459.68 1172.66,-436.04"/>
<polygon fill="#63b8ff" stroke="#63b8ff" points="1176.14,-436.45 1174.32,-426.02 1169.23,-435.31 1176.14,-436.45"/>
</g>
<!-- Node33 -->
<g id="node33" class="node">
<title>Node33</title>
<g id="a_node33"><a xlink:href="../../d1/d48/_c_c_texture_atlas_8h.html" target="_top" xlink:title=" ">
<polygon fill="white" stroke="#666666" points="1559.5,-481 1416.5,-481 1416.5,-462 1559.5,-462 1559.5,-481"/>
<text text-anchor="middle" x="1488" y="-469" font-family="Helvetica,sans-Serif" font-size="10.00">textures/CCTextureAtlas.h</text>
</a>
</g>
</g>
<!-- Node32&#45;&gt;Node33 -->
<g id="edge58" class="edge">
<title>Node32&#45;&gt;Node33</title>
<path fill="none" stroke="#63b8ff" d="M1242,-626.84C1274.02,-610.35 1345.17,-572.76 1402,-536 1425.89,-520.55 1452,-500.84 1469.11,-487.5"/>
<polygon fill="#63b8ff" stroke="#63b8ff" points="1471.47,-490.1 1477.18,-481.17 1467.15,-484.59 1471.47,-490.1"/>
</g>
<!-- Node34 -->
<g id="node34" class="node">
<title>Node34</title>
<g id="a_node34"><a xlink:href="../../d9/d8d/_c_c_dictionary_8h.html" target="_top" xlink:title=" ">
<polygon fill="white" stroke="#666666" points="1749.5,-426 1630.5,-426 1630.5,-407 1749.5,-407 1749.5,-426"/>
<text text-anchor="middle" x="1690" y="-414" font-family="Helvetica,sans-Serif" font-size="10.00">cocoa/CCDictionary.h</text>
</a>
</g>
</g>
<!-- Node32&#45;&gt;Node34 -->
<g id="edge64" class="edge">
<title>Node32&#45;&gt;Node34</title>
<path fill="none" stroke="#63b8ff" d="M1291.6,-628.03C1403.02,-615.51 1615.19,-591.6 1616,-591 1666.94,-553.04 1683.17,-472.97 1688.04,-436.42"/>
<polygon fill="#63b8ff" stroke="#63b8ff" points="1691.56,-436.53 1689.26,-426.19 1684.6,-435.71 1691.56,-436.53"/>
</g>
<!-- Node33&#45;&gt;Node6 -->
<g id="edge61" class="edge">
<title>Node33&#45;&gt;Node6</title>
<path fill="none" stroke="#63b8ff" d="M1499.43,-461.88C1535.89,-433.31 1647,-337.46 1647,-230.5 1647,-230.5 1647,-230.5 1647,-173.5 1647,-89.42 998.02,-70 821.74,-66.28"/>
<polygon fill="#63b8ff" stroke="#63b8ff" points="821.6,-62.78 811.53,-66.07 821.46,-69.78 821.6,-62.78"/>
</g>
<!-- Node33&#45;&gt;Node12 -->
<g id="edge60" class="edge">
<title>Node33&#45;&gt;Node12</title>
<path fill="none" stroke="#63b8ff" d="M1468.88,-461.96C1403.94,-432.97 1191.57,-338.14 1114.38,-303.67"/>
<polygon fill="#63b8ff" stroke="#63b8ff" points="1115.79,-300.47 1105.24,-299.59 1112.94,-306.86 1115.79,-300.47"/>
</g>
<!-- Node33&#45;&gt;Node14 -->
<g id="edge62" class="edge">
<title>Node33&#45;&gt;Node14</title>
<path fill="none" stroke="#63b8ff" d="M1492.72,-461.91C1507.87,-433.07 1552.11,-337.98 1514,-275 1479.56,-218.08 1400.64,-192.14 1356.1,-181.67"/>
<polygon fill="#63b8ff" stroke="#63b8ff" points="1356.62,-178.2 1346.1,-179.44 1355.1,-185.03 1356.62,-178.2"/>
</g>
<!-- Node33&#45;&gt;Node30 -->
<g id="edge59" class="edge">
<title>Node33&#45;&gt;Node30</title>
<path fill="none" stroke="#63b8ff" d="M1437.87,-461.98C1377.06,-451.65 1275.61,-434.42 1218.47,-424.71"/>
<polygon fill="#63b8ff" stroke="#63b8ff" points="1218.78,-421.22 1208.34,-422.99 1217.61,-428.12 1218.78,-421.22"/>
</g>
<!-- Node34&#45;&gt;Node12 -->
<g id="edge66" class="edge">
<title>Node34&#45;&gt;Node12</title>
<path fill="none" stroke="#63b8ff" d="M1630.48,-408.03C1571.84,-400.28 1479.85,-387.04 1401,-371 1300.91,-350.63 1184.86,-319.07 1125.47,-302.32"/>
<polygon fill="#63b8ff" stroke="#63b8ff" points="1126.32,-298.93 1115.75,-299.57 1124.42,-305.66 1126.32,-298.93"/>
</g>
<!-- Node34&#45;&gt;Node16 -->
<g id="edge67" class="edge">
<title>Node34&#45;&gt;Node16</title>
<path fill="none" stroke="#63b8ff" d="M1656.12,-406.99C1615.05,-396.68 1545.76,-379.28 1500.7,-367.97"/>
<polygon fill="#63b8ff" stroke="#63b8ff" points="1501.47,-364.56 1490.92,-365.52 1499.77,-371.35 1501.47,-364.56"/>
</g>
<!-- Node35 -->
<g id="node35" class="node">
<title>Node35</title>
<g id="a_node35"><a xlink:title=" ">
<polygon fill="#e0e0e0" stroke="#999999" points="1757,-371 1637,-371 1637,-341 1757,-341 1757,-371"/>
<text text-anchor="start" x="1645" y="-359" font-family="Helvetica,sans-Serif" font-size="10.00">support/data_support</text>
<text text-anchor="middle" x="1697" y="-348" font-family="Helvetica,sans-Serif" font-size="10.00">/uthash.h</text>
</a>
</g>
</g>
<!-- Node34&#45;&gt;Node35 -->
<g id="edge65" class="edge">
<title>Node34&#45;&gt;Node35</title>
<path fill="none" stroke="#63b8ff" d="M1691.03,-406.87C1691.84,-400.11 1693.01,-390.35 1694.1,-381.26"/>
<polygon fill="#63b8ff" stroke="#63b8ff" points="1697.6,-381.46 1695.31,-371.11 1690.65,-380.63 1697.6,-381.46"/>
</g>
<!-- Node36 -->
<g id="node36" class="node">
<title>Node36</title>
<g id="a_node36"><a xlink:href="../../d0/d8a/_c_c_string_8h.html" target="_top" xlink:title=" ">
<polygon fill="white" stroke="#666666" points="1843,-365.5 1775,-365.5 1775,-346.5 1843,-346.5 1843,-365.5"/>
<text text-anchor="middle" x="1809" y="-353.5" font-family="Helvetica,sans-Serif" font-size="10.00">CCString.h</text>
</a>
</g>
</g>
<!-- Node34&#45;&gt;Node36 -->
<g id="edge68" class="edge">
<title>Node34&#45;&gt;Node36</title>
<path fill="none" stroke="#63b8ff" d="M1707.3,-406.99C1727.05,-397.29 1759.55,-381.31 1782.49,-370.03"/>
<polygon fill="#63b8ff" stroke="#63b8ff" points="1784.25,-373.07 1791.68,-365.52 1781.16,-366.79 1784.25,-373.07"/>
</g>
<!-- Node36&#45;&gt;Node12 -->
<g id="edge73" class="edge">
<title>Node36&#45;&gt;Node12</title>
<path fill="none" stroke="#63b8ff" d="M1786.06,-346.4C1779.65,-344.31 1772.63,-342.3 1766,-341 1644,-317.02 1264.37,-298.73 1132.05,-292.94"/>
<polygon fill="#63b8ff" stroke="#63b8ff" points="1131.99,-289.43 1121.85,-292.49 1131.69,-296.42 1131.99,-289.43"/>
</g>
<!-- Node36&#45;&gt;Node14 -->
<g id="edge71" class="edge">
<title>Node36&#45;&gt;Node14</title>
<path fill="none" stroke="#63b8ff" d="M1787.26,-346.44C1764.98,-337.32 1729.65,-321.9 1701,-305 1645.95,-272.52 1643.85,-244.93 1585,-220 1507.35,-187.11 1406.96,-178.51 1356.3,-176.27"/>
<polygon fill="#63b8ff" stroke="#63b8ff" points="1356.39,-172.77 1346.26,-175.89 1356.12,-179.77 1356.39,-172.77"/>
</g>
<!-- Node37 -->
<g id="node37" class="node">
<title>Node37</title>
<g id="a_node37"><a xlink:title=" ">
<polygon fill="#e0e0e0" stroke="#999999" points="1762.5,-299.5 1709.5,-299.5 1709.5,-280.5 1762.5,-280.5 1762.5,-299.5"/>
<text text-anchor="middle" x="1736" y="-287.5" font-family="Helvetica,sans-Serif" font-size="10.00">string.h</text>
</a>
</g>
</g>
<!-- Node36&#45;&gt;Node37 -->
<g id="edge69" class="edge">
<title>Node36&#45;&gt;Node37</title>
<path fill="none" stroke="#63b8ff" d="M1799.15,-346.37C1787.57,-336.21 1768.12,-319.16 1753.86,-306.65"/>
<polygon fill="#63b8ff" stroke="#63b8ff" points="1755.98,-303.87 1746.16,-299.91 1751.37,-309.13 1755.98,-303.87"/>
</g>
<!-- Node38 -->
<g id="node38" class="node">
<title>Node38</title>
<g id="a_node38"><a xlink:title=" ">
<polygon fill="#e0e0e0" stroke="#999999" points="1837,-299.5 1781,-299.5 1781,-280.5 1837,-280.5 1837,-299.5"/>
<text text-anchor="middle" x="1809" y="-287.5" font-family="Helvetica,sans-Serif" font-size="10.00">stdarg.h</text>
</a>
</g>
</g>
<!-- Node36&#45;&gt;Node38 -->
<g id="edge70" class="edge">
<title>Node36&#45;&gt;Node38</title>
<path fill="none" stroke="#63b8ff" d="M1809,-346.37C1809,-337.16 1809,-322.29 1809,-310.27"/>
<polygon fill="#63b8ff" stroke="#63b8ff" points="1812.5,-309.91 1809,-299.91 1805.5,-309.91 1812.5,-309.91"/>
</g>
<!-- Node39 -->
<g id="node39" class="node">
<title>Node39</title>
<g id="a_node39"><a xlink:title=" ">
<polygon fill="#e0e0e0" stroke="#999999" points="1920.5,-299.5 1855.5,-299.5 1855.5,-280.5 1920.5,-280.5 1920.5,-299.5"/>
<text text-anchor="middle" x="1888" y="-287.5" font-family="Helvetica,sans-Serif" font-size="10.00">functional</text>
</a>
</g>
</g>
<!-- Node36&#45;&gt;Node39 -->
<g id="edge72" class="edge">
<title>Node36&#45;&gt;Node39</title>
<path fill="none" stroke="#63b8ff" d="M1819.65,-346.37C1832.38,-336.06 1853.88,-318.65 1869.37,-306.09"/>
<polygon fill="#63b8ff" stroke="#63b8ff" points="1871.7,-308.71 1877.26,-299.7 1867.29,-303.27 1871.7,-308.71"/>
</g>
</g>
</svg>
