<?xml version="1.0" encoding="UTF-8" standalone="no"?>
<!DOCTYPE svg PUBLIC "-//W3C//DTD SVG 1.1//EN"
 "http://www.w3.org/Graphics/SVG/1.1/DTD/svg11.dtd">
<!-- Generated by graphviz version 2.43.0 (0)
 -->
<!-- Title: CCScriptHandlerEntry Pages: 1 -->
<svg width="320pt" height="203pt"
 viewBox="0.00 0.00 319.50 203.00" xmlns="http://www.w3.org/2000/svg" xmlns:xlink="http://www.w3.org/1999/xlink">
<g id="graph0" class="graph" transform="scale(1 1) rotate(0) translate(4 199)">
<title>CCScriptHandlerEntry</title>
<!-- Node1 -->
<g id="node1" class="node">
<title>Node1</title>
<g id="a_node1"><a xlink:title="NA NA.">
<polygon fill="#999999" stroke="#666666" points="215,-85 93,-85 93,-66 215,-66 215,-85"/>
<text text-anchor="middle" x="154" y="-73" font-family="Helvetica,sans-Serif" font-size="10.00">CCScriptHandlerEntry</text>
</a>
</g>
</g>
<!-- Node4 -->
<g id="node4" class="node">
<title>Node4</title>
<g id="a_node4"><a xlink:href="../../d1/da0/classcocos2d_1_1_c_c_scheduler_script_handler_entry.html" target="_top" xlink:title=" ">
<polygon fill="white" stroke="#666666" points="144,-30 0,-30 0,0 144,0 144,-30"/>
<text text-anchor="start" x="8" y="-18" font-family="Helvetica,sans-Serif" font-size="10.00">CCSchedulerScriptHandler</text>
<text text-anchor="middle" x="72" y="-7" font-family="Helvetica,sans-Serif" font-size="10.00">Entry</text>
</a>
</g>
</g>
<!-- Node1&#45;&gt;Node4 -->
<g id="edge3" class="edge">
<title>Node1&#45;&gt;Node4</title>
<path fill="none" stroke="#63b8ff" d="M133.72,-60.03C120.92,-50.9 104.48,-39.17 91.78,-30.11"/>
<polygon fill="#63b8ff" stroke="#63b8ff" points="131.73,-62.91 141.9,-65.87 135.79,-57.21 131.73,-62.91"/>
</g>
<!-- Node5 -->
<g id="node5" class="node">
<title>Node5</title>
<g id="a_node5"><a xlink:href="../../da/d95/classcocos2d_1_1_c_c_touch_script_handler_entry.html" target="_top" xlink:title="NA NA.">
<polygon fill="white" stroke="#666666" points="311.5,-24.5 162.5,-24.5 162.5,-5.5 311.5,-5.5 311.5,-24.5"/>
<text text-anchor="middle" x="237" y="-12.5" font-family="Helvetica,sans-Serif" font-size="10.00">CCTouchScriptHandlerEntry</text>
</a>
</g>
</g>
<!-- Node1&#45;&gt;Node5 -->
<g id="edge4" class="edge">
<title>Node1&#45;&gt;Node5</title>
<path fill="none" stroke="#63b8ff" d="M174.79,-59.85C190.51,-48.77 211.56,-33.93 224.7,-24.67"/>
<polygon fill="#63b8ff" stroke="#63b8ff" points="172.4,-57.25 166.25,-65.87 176.44,-62.97 172.4,-57.25"/>
</g>
<!-- Node2 -->
<g id="node2" class="node">
<title>Node2</title>
<g id="a_node2"><a xlink:href="../../d3/dbf/classcocos2d_1_1_c_c_object.html" target="_top" xlink:title="NA.">
<polygon fill="white" stroke="#666666" points="185,-140 123,-140 123,-121 185,-121 185,-140"/>
<text text-anchor="middle" x="154" y="-128" font-family="Helvetica,sans-Serif" font-size="10.00">CCObject</text>
</a>
</g>
</g>
<!-- Node2&#45;&gt;Node1 -->
<g id="edge1" class="edge">
<title>Node2&#45;&gt;Node1</title>
<path fill="none" stroke="#63b8ff" d="M154,-110.66C154,-101.93 154,-91.99 154,-85.09"/>
<polygon fill="#63b8ff" stroke="#63b8ff" points="150.5,-110.75 154,-120.75 157.5,-110.75 150.5,-110.75"/>
</g>
<!-- Node3 -->
<g id="node3" class="node">
<title>Node3</title>
<g id="a_node3"><a xlink:href="../../d5/d61/classcocos2d_1_1_c_c_copying.html" target="_top" xlink:title="NA NA.">
<polygon fill="white" stroke="#666666" points="189,-195 119,-195 119,-176 189,-176 189,-195"/>
<text text-anchor="middle" x="154" y="-183" font-family="Helvetica,sans-Serif" font-size="10.00">CCCopying</text>
</a>
</g>
</g>
<!-- Node3&#45;&gt;Node2 -->
<g id="edge2" class="edge">
<title>Node3&#45;&gt;Node2</title>
<path fill="none" stroke="#63b8ff" d="M154,-165.66C154,-156.93 154,-146.99 154,-140.09"/>
<polygon fill="#63b8ff" stroke="#63b8ff" points="150.5,-165.75 154,-175.75 157.5,-165.75 150.5,-165.75"/>
</g>
</g>
</svg>
