<?xml version="1.0" encoding="UTF-8" standalone="no"?>
<!DOCTYPE svg PUBLIC "-//W3C//DTD SVG 1.1//EN"
 "http://www.w3.org/Graphics/SVG/1.1/DTD/svg11.dtd">
<!-- Generated by graphviz version 2.43.0 (0)
 -->
<!-- Title: CCBlendProtocol Pages: 1 -->
<svg width="716pt" height="446pt"
 viewBox="0.00 0.00 716.00 446.00" xmlns="http://www.w3.org/2000/svg" xmlns:xlink="http://www.w3.org/1999/xlink">
<g id="graph0" class="graph" transform="scale(1 1) rotate(0) translate(4 442)">
<title>CCBlendProtocol</title>
<!-- Node1 -->
<g id="node1" class="node">
<title>Node1</title>
<g id="a_node1"><a xlink:title="Specify the blending function according glBlendFunc Please refer to glBlendFunc in OpenGL ES Manual h...">
<polygon fill="#bfbfbf" stroke="black" points="0,-247.5 0,-266.5 98,-266.5 98,-247.5 0,-247.5"/>
<text text-anchor="middle" x="49" y="-254.5" font-family="Helvetica,sans-Serif" font-size="10.00">CCBlendProtocol</text>
</a>
</g>
</g>
<!-- Node2 -->
<g id="node2" class="node">
<title>Node2</title>
<g id="a_node2"><a xlink:href="../../da/d2c/classcocos2d_1_1_c_c_layer_color.html" target="_top" xlink:title="CCLayerColor is a subclass of CCLayer that implements the CCRGBAProtocol protocol.">
<polygon fill="none" stroke="black" points="145.5,-304.5 145.5,-323.5 228.5,-323.5 228.5,-304.5 145.5,-304.5"/>
<text text-anchor="middle" x="187" y="-311.5" font-family="Helvetica,sans-Serif" font-size="10.00">CCLayerColor</text>
</a>
</g>
</g>
<!-- Node1&#45;&gt;Node2 -->
<g id="edge1" class="edge">
<title>Node1&#45;&gt;Node2</title>
<path fill="none" stroke="midnightblue" d="M82.16,-270.48C107.07,-280.92 140.97,-295.13 163.16,-304.43"/>
<polygon fill="midnightblue" stroke="midnightblue" points="83.34,-267.18 72.76,-266.54 80.63,-273.63 83.34,-267.18"/>
</g>
<!-- Node4 -->
<g id="node4" class="node">
<title>Node4</title>
<g id="a_node4"><a xlink:href="../../db/d1b/classcocos2d_1_1_c_c_texture_protocol.html" target="_top" xlink:title="CCNode objects that uses a CCTexture2D to render the images.">
<polygon fill="none" stroke="black" points="134,-228.5 134,-247.5 240,-247.5 240,-228.5 134,-228.5"/>
<text text-anchor="middle" x="187" y="-235.5" font-family="Helvetica,sans-Serif" font-size="10.00">CCTextureProtocol</text>
</a>
</g>
</g>
<!-- Node1&#45;&gt;Node4 -->
<g id="edge3" class="edge">
<title>Node1&#45;&gt;Node4</title>
<path fill="none" stroke="midnightblue" d="M108.43,-248.84C116.82,-247.66 125.41,-246.46 133.67,-245.31"/>
<polygon fill="midnightblue" stroke="midnightblue" points="107.75,-245.4 98.33,-250.25 108.72,-252.33 107.75,-245.4"/>
</g>
<!-- Node3 -->
<g id="node3" class="node">
<title>Node3</title>
<g id="a_node3"><a xlink:href="../../d9/d19/classcocos2d_1_1_c_c_layer_gradient.html" target="_top" xlink:title="CCLayerGradient is a subclass of CCLayerColor that draws gradients across the background.">
<polygon fill="none" stroke="black" points="286,-342.5 286,-361.5 385,-361.5 385,-342.5 286,-342.5"/>
<text text-anchor="middle" x="335.5" y="-349.5" font-family="Helvetica,sans-Serif" font-size="10.00">CCLayerGradient</text>
</a>
</g>
</g>
<!-- Node2&#45;&gt;Node3 -->
<g id="edge2" class="edge">
<title>Node2&#45;&gt;Node3</title>
<path fill="none" stroke="midnightblue" d="M234.7,-326.11C255.1,-331.4 278.68,-337.52 297.8,-342.48"/>
<polygon fill="midnightblue" stroke="midnightblue" points="235.53,-322.71 224.97,-323.59 233.77,-329.49 235.53,-322.71"/>
</g>
<!-- Node5 -->
<g id="node5" class="node">
<title>Node5</title>
<g id="a_node5"><a xlink:href="../../d7/d70/classcocos2d_1_1_c_c_atlas_node.html" target="_top" xlink:title="CCAtlasNode is a subclass of CCNode that implements the CCRGBAProtocol and CCTextureProtocol protocol...">
<polygon fill="none" stroke="black" points="295.5,-304.5 295.5,-323.5 375.5,-323.5 375.5,-304.5 295.5,-304.5"/>
<text text-anchor="middle" x="335.5" y="-311.5" font-family="Helvetica,sans-Serif" font-size="10.00">CCAtlasNode</text>
</a>
</g>
</g>
<!-- Node4&#45;&gt;Node5 -->
<g id="edge4" class="edge">
<title>Node4&#45;&gt;Node5</title>
<path fill="none" stroke="midnightblue" d="M208.72,-253.65C226.01,-266.14 251.65,-283.4 276,-295 283.52,-298.58 291.89,-301.74 299.89,-304.41"/>
<polygon fill="midnightblue" stroke="midnightblue" points="210.63,-250.71 200.5,-247.61 206.49,-256.35 210.63,-250.71"/>
</g>
<!-- Node8 -->
<g id="node8" class="node">
<title>Node8</title>
<g id="a_node8"><a xlink:href="../../d9/d38/classcocos2d_1_1_c_c_motion_streak.html" target="_top" xlink:title="MotionStreak.">
<polygon fill="none" stroke="black" points="288,-266.5 288,-285.5 383,-285.5 383,-266.5 288,-266.5"/>
<text text-anchor="middle" x="335.5" y="-273.5" font-family="Helvetica,sans-Serif" font-size="10.00">CCMotionStreak</text>
</a>
</g>
</g>
<!-- Node4&#45;&gt;Node8 -->
<g id="edge7" class="edge">
<title>Node4&#45;&gt;Node8</title>
<path fill="none" stroke="midnightblue" d="M234.7,-250.11C255.1,-255.4 278.68,-261.52 297.8,-266.48"/>
<polygon fill="midnightblue" stroke="midnightblue" points="235.53,-246.71 224.97,-247.59 233.77,-253.49 235.53,-246.71"/>
</g>
<!-- Node9 -->
<g id="node9" class="node">
<title>Node9</title>
<g id="a_node9"><a xlink:href="../../d0/d0a/classcocos2d_1_1_c_c_particle_batch_node.html" target="_top" xlink:title="CCParticleBatchNode is like a batch node: if it contains children, it will draw them in 1 single Open...">
<polygon fill="none" stroke="black" points="276,-228.5 276,-247.5 395,-247.5 395,-228.5 276,-228.5"/>
<text text-anchor="middle" x="335.5" y="-235.5" font-family="Helvetica,sans-Serif" font-size="10.00">CCParticleBatchNode</text>
</a>
</g>
</g>
<!-- Node4&#45;&gt;Node9 -->
<g id="edge8" class="edge">
<title>Node4&#45;&gt;Node9</title>
<path fill="none" stroke="midnightblue" d="M250.28,-238C258.77,-238 267.45,-238 275.87,-238"/>
<polygon fill="midnightblue" stroke="midnightblue" points="250.06,-234.5 240.06,-238 250.06,-241.5 250.06,-234.5"/>
</g>
<!-- Node10 -->
<g id="node10" class="node">
<title>Node10</title>
<g id="a_node10"><a xlink:href="../../dd/dd8/classcocos2d_1_1_c_c_particle_system.html" target="_top" xlink:title="Particle System base class.">
<polygon fill="none" stroke="black" points="284,-190.5 284,-209.5 387,-209.5 387,-190.5 284,-190.5"/>
<text text-anchor="middle" x="335.5" y="-197.5" font-family="Helvetica,sans-Serif" font-size="10.00">CCParticleSystem</text>
</a>
</g>
</g>
<!-- Node4&#45;&gt;Node10 -->
<g id="edge9" class="edge">
<title>Node4&#45;&gt;Node10</title>
<path fill="none" stroke="midnightblue" d="M234.7,-225.89C255.1,-220.6 278.68,-214.48 297.8,-209.52"/>
<polygon fill="midnightblue" stroke="midnightblue" points="233.77,-222.51 224.97,-228.41 235.53,-229.29 233.77,-222.51"/>
</g>
<!-- Node23 -->
<g id="node23" class="node">
<title>Node23</title>
<g id="a_node23"><a xlink:href="../../d4/de7/classcocos2d_1_1_c_c_sprite.html" target="_top" xlink:title="CCSprite is a 2d image ( http://en.wikipedia.org/wiki/Sprite_(computer_graphics) )">
<polygon fill="none" stroke="black" points="306,-152.5 306,-171.5 365,-171.5 365,-152.5 306,-152.5"/>
<text text-anchor="middle" x="335.5" y="-159.5" font-family="Helvetica,sans-Serif" font-size="10.00">CCSprite</text>
</a>
</g>
</g>
<!-- Node4&#45;&gt;Node23 -->
<g id="edge22" class="edge">
<title>Node4&#45;&gt;Node23</title>
<path fill="none" stroke="midnightblue" d="M208.72,-222.35C226.01,-209.86 251.65,-192.6 276,-181 285.45,-176.5 296.24,-172.66 305.95,-169.64"/>
<polygon fill="midnightblue" stroke="midnightblue" points="206.49,-219.65 200.5,-228.39 210.63,-225.29 206.49,-219.65"/>
</g>
<!-- Node26 -->
<g id="node26" class="node">
<title>Node26</title>
<g id="a_node26"><a xlink:href="../../dd/d95/classcocos2d_1_1_c_c_sprite_batch_node.html" target="_top" xlink:title="CCSpriteBatchNode is like a batch node: if it contains children, it will draw them in 1 single OpenGL...">
<polygon fill="none" stroke="black" points="279.5,-114.5 279.5,-133.5 391.5,-133.5 391.5,-114.5 279.5,-114.5"/>
<text text-anchor="middle" x="335.5" y="-121.5" font-family="Helvetica,sans-Serif" font-size="10.00">CCSpriteBatchNode</text>
</a>
</g>
</g>
<!-- Node4&#45;&gt;Node26 -->
<g id="edge25" class="edge">
<title>Node4&#45;&gt;Node26</title>
<path fill="none" stroke="midnightblue" d="M200.26,-219.96C215.6,-198.67 243.83,-163.57 276,-143 281.94,-139.2 288.7,-136.1 295.47,-133.59"/>
<polygon fill="midnightblue" stroke="midnightblue" points="197.2,-218.22 194.32,-228.41 202.93,-222.24 197.2,-218.22"/>
</g>
<!-- Node6 -->
<g id="node6" class="node">
<title>Node6</title>
<g id="a_node6"><a xlink:href="../../d7/d84/classcocos2d_1_1_c_c_label_atlas.html" target="_top" xlink:title="CCLabelAtlas is a subclass of CCAtlasNode.">
<polygon fill="none" stroke="black" points="454.5,-323.5 454.5,-342.5 535.5,-342.5 535.5,-323.5 454.5,-323.5"/>
<text text-anchor="middle" x="495" y="-330.5" font-family="Helvetica,sans-Serif" font-size="10.00">CCLabelAtlas</text>
</a>
</g>
</g>
<!-- Node5&#45;&gt;Node6 -->
<g id="edge5" class="edge">
<title>Node5&#45;&gt;Node6</title>
<path fill="none" stroke="midnightblue" d="M386,-319.97C408.03,-322.63 433.61,-325.71 454.34,-328.22"/>
<polygon fill="midnightblue" stroke="midnightblue" points="386.18,-316.47 375.84,-318.75 385.35,-323.42 386.18,-316.47"/>
</g>
<!-- Node7 -->
<g id="node7" class="node">
<title>Node7</title>
<g id="a_node7"><a xlink:href="../../d2/d8b/classcocos2d_1_1_c_c_tile_map_atlas.html" target="_top" xlink:title="CCTileMapAtlas is a subclass of CCAtlasNode.">
<polygon fill="none" stroke="black" points="448,-285.5 448,-304.5 542,-304.5 542,-285.5 448,-285.5"/>
<text text-anchor="middle" x="495" y="-292.5" font-family="Helvetica,sans-Serif" font-size="10.00">CCTileMapAtlas</text>
</a>
</g>
</g>
<!-- Node5&#45;&gt;Node7 -->
<g id="edge6" class="edge">
<title>Node5&#45;&gt;Node7</title>
<path fill="none" stroke="midnightblue" d="M385.9,-308.04C405.72,-305.65 428.43,-302.91 447.9,-300.56"/>
<polygon fill="midnightblue" stroke="midnightblue" points="385.35,-304.58 375.84,-309.25 386.18,-311.53 385.35,-304.58"/>
</g>
<!-- Node11 -->
<g id="node11" class="node">
<title>Node11</title>
<g id="a_node11"><a xlink:href="../../d9/df5/classcocos2d_1_1_c_c_particle_system_quad.html" target="_top" xlink:title="CCParticleSystemQuad is a subclass of CCParticleSystem.">
<polygon fill="none" stroke="black" points="431,-209.5 431,-228.5 559,-228.5 559,-209.5 431,-209.5"/>
<text text-anchor="middle" x="495" y="-216.5" font-family="Helvetica,sans-Serif" font-size="10.00">CCParticleSystemQuad</text>
</a>
</g>
</g>
<!-- Node10&#45;&gt;Node11 -->
<g id="edge10" class="edge">
<title>Node10&#45;&gt;Node11</title>
<path fill="none" stroke="midnightblue" d="M397.2,-207.32C408.26,-208.66 419.83,-210.05 430.97,-211.4"/>
<polygon fill="midnightblue" stroke="midnightblue" points="397.55,-203.84 387.2,-206.12 396.71,-210.79 397.55,-203.84"/>
</g>
<!-- Node12 -->
<g id="node12" class="node">
<title>Node12</title>
<g id="a_node12"><a xlink:href="../../dc/d49/classcocos2d_1_1_c_c_particle_explosion.html" target="_top" xlink:title="An explosion particle system.">
<polygon fill="none" stroke="black" points="595,-418.5 595,-437.5 708,-437.5 708,-418.5 595,-418.5"/>
<text text-anchor="middle" x="651.5" y="-425.5" font-family="Helvetica,sans-Serif" font-size="10.00">CCParticleExplosion</text>
</a>
</g>
</g>
<!-- Node11&#45;&gt;Node12 -->
<g id="edge11" class="edge">
<title>Node11&#45;&gt;Node12</title>
<path fill="none" stroke="midnightblue" d="M519.09,-234.66C532.58,-244.93 548.88,-259.49 559,-276 591,-328.21 553.14,-364.3 595,-409 598.62,-412.87 603.06,-415.94 607.84,-418.4"/>
<polygon fill="midnightblue" stroke="midnightblue" points="520.87,-231.62 510.73,-228.55 516.74,-237.27 520.87,-231.62"/>
</g>
<!-- Node13 -->
<g id="node13" class="node">
<title>Node13</title>
<g id="a_node13"><a xlink:href="../../d6/d20/classcocos2d_1_1_c_c_particle_fire.html" target="_top" xlink:title="A fire particle system.">
<polygon fill="none" stroke="black" points="609.5,-380.5 609.5,-399.5 693.5,-399.5 693.5,-380.5 609.5,-380.5"/>
<text text-anchor="middle" x="651.5" y="-387.5" font-family="Helvetica,sans-Serif" font-size="10.00">CCParticleFire</text>
</a>
</g>
</g>
<!-- Node11&#45;&gt;Node13 -->
<g id="edge12" class="edge">
<title>Node11&#45;&gt;Node13</title>
<path fill="none" stroke="midnightblue" d="M518.28,-234.83C531.6,-245.25 548.02,-259.91 559,-276 584.45,-313.3 562.56,-339.59 595,-371 599.1,-374.97 604.06,-378.11 609.31,-380.59"/>
<polygon fill="midnightblue" stroke="midnightblue" points="520.15,-231.85 510.06,-228.62 515.93,-237.44 520.15,-231.85"/>
</g>
<!-- Node14 -->
<g id="node14" class="node">
<title>Node14</title>
<g id="a_node14"><a xlink:href="../../d7/d6c/classcocos2d_1_1_c_c_particle_fireworks.html" target="_top" xlink:title="A fireworks particle system.">
<polygon fill="none" stroke="black" points="595,-342.5 595,-361.5 708,-361.5 708,-342.5 595,-342.5"/>
<text text-anchor="middle" x="651.5" y="-349.5" font-family="Helvetica,sans-Serif" font-size="10.00">CCParticleFireworks</text>
</a>
</g>
</g>
<!-- Node11&#45;&gt;Node14 -->
<g id="edge13" class="edge">
<title>Node11&#45;&gt;Node14</title>
<path fill="none" stroke="midnightblue" d="M516.46,-235.06C529.48,-245.85 546.23,-260.81 559,-276 578.29,-298.93 571.49,-314.42 595,-333 599.87,-336.85 605.58,-339.95 611.44,-342.43"/>
<polygon fill="midnightblue" stroke="midnightblue" points="518.5,-232.21 508.53,-228.62 514.09,-237.64 518.5,-232.21"/>
</g>
<!-- Node15 -->
<g id="node15" class="node">
<title>Node15</title>
<g id="a_node15"><a xlink:href="../../df/da7/classcocos2d_1_1_c_c_particle_flower.html" target="_top" xlink:title="A flower particle system.">
<polygon fill="none" stroke="black" points="602,-304.5 602,-323.5 701,-323.5 701,-304.5 602,-304.5"/>
<text text-anchor="middle" x="651.5" y="-311.5" font-family="Helvetica,sans-Serif" font-size="10.00">CCParticleFlower</text>
</a>
</g>
</g>
<!-- Node11&#45;&gt;Node15 -->
<g id="edge14" class="edge">
<title>Node11&#45;&gt;Node15</title>
<path fill="none" stroke="midnightblue" d="M513.72,-235.5C532.63,-252.37 564.06,-278.41 595,-295 601.82,-298.66 609.48,-301.82 616.89,-304.46"/>
<polygon fill="midnightblue" stroke="midnightblue" points="515.95,-232.79 506.19,-228.67 511.25,-237.98 515.95,-232.79"/>
</g>
<!-- Node16 -->
<g id="node16" class="node">
<title>Node16</title>
<g id="a_node16"><a xlink:href="../../d9/d53/classcocos2d_1_1_c_c_particle_galaxy.html" target="_top" xlink:title="A galaxy particle system.">
<polygon fill="none" stroke="black" points="601,-266.5 601,-285.5 702,-285.5 702,-266.5 601,-266.5"/>
<text text-anchor="middle" x="651.5" y="-273.5" font-family="Helvetica,sans-Serif" font-size="10.00">CCParticleGalaxy</text>
</a>
</g>
</g>
<!-- Node11&#45;&gt;Node16 -->
<g id="edge15" class="edge">
<title>Node11&#45;&gt;Node16</title>
<path fill="none" stroke="midnightblue" d="M529.78,-232.32C548.86,-239.75 573.19,-249.08 595,-257 603.71,-260.16 613.24,-263.48 621.91,-266.44"/>
<polygon fill="midnightblue" stroke="midnightblue" points="530.91,-229 520.32,-228.62 528.36,-235.52 530.91,-229"/>
</g>
<!-- Node17 -->
<g id="node17" class="node">
<title>Node17</title>
<g id="a_node17"><a xlink:href="../../d1/d3f/classcocos2d_1_1_c_c_particle_meteor.html" target="_top" xlink:title="A meteor particle system.">
<polygon fill="none" stroke="black" points="601,-228.5 601,-247.5 702,-247.5 702,-228.5 601,-228.5"/>
<text text-anchor="middle" x="651.5" y="-235.5" font-family="Helvetica,sans-Serif" font-size="10.00">CCParticleMeteor</text>
</a>
</g>
</g>
<!-- Node11&#45;&gt;Node17 -->
<g id="edge16" class="edge">
<title>Node11&#45;&gt;Node17</title>
<path fill="none" stroke="midnightblue" d="M569.42,-228.03C580.05,-229.34 590.77,-230.65 600.79,-231.89"/>
<polygon fill="midnightblue" stroke="midnightblue" points="569.64,-224.53 559.29,-226.78 568.78,-231.48 569.64,-224.53"/>
</g>
<!-- Node18 -->
<g id="node18" class="node">
<title>Node18</title>
<g id="a_node18"><a xlink:href="../../dd/dcd/classcocos2d_1_1_c_c_particle_rain.html" target="_top" xlink:title="A rain particle system.">
<polygon fill="none" stroke="black" points="607.5,-190.5 607.5,-209.5 695.5,-209.5 695.5,-190.5 607.5,-190.5"/>
<text text-anchor="middle" x="651.5" y="-197.5" font-family="Helvetica,sans-Serif" font-size="10.00">CCParticleRain</text>
</a>
</g>
</g>
<!-- Node11&#45;&gt;Node18 -->
<g id="edge17" class="edge">
<title>Node11&#45;&gt;Node18</title>
<path fill="none" stroke="midnightblue" d="M569.22,-210C582.28,-208.39 595.49,-206.76 607.36,-205.31"/>
<polygon fill="midnightblue" stroke="midnightblue" points="568.78,-206.52 559.29,-211.22 569.64,-213.47 568.78,-206.52"/>
</g>
<!-- Node19 -->
<g id="node19" class="node">
<title>Node19</title>
<g id="a_node19"><a xlink:href="../../d5/d45/classcocos2d_1_1_c_c_particle_smoke.html" target="_top" xlink:title="An smoke particle system.">
<polygon fill="none" stroke="black" points="602,-152.5 602,-171.5 701,-171.5 701,-152.5 602,-152.5"/>
<text text-anchor="middle" x="651.5" y="-159.5" font-family="Helvetica,sans-Serif" font-size="10.00">CCParticleSmoke</text>
</a>
</g>
</g>
<!-- Node11&#45;&gt;Node19 -->
<g id="edge18" class="edge">
<title>Node11&#45;&gt;Node19</title>
<path fill="none" stroke="midnightblue" d="M529.78,-205.68C548.86,-198.25 573.19,-188.92 595,-181 603.71,-177.84 613.24,-174.52 621.91,-171.56"/>
<polygon fill="midnightblue" stroke="midnightblue" points="528.36,-202.48 520.32,-209.38 530.91,-209 528.36,-202.48"/>
</g>
<!-- Node20 -->
<g id="node20" class="node">
<title>Node20</title>
<g id="a_node20"><a xlink:href="../../d8/dfe/classcocos2d_1_1_c_c_particle_snow.html" target="_top" xlink:title="An snow particle system.">
<polygon fill="none" stroke="black" points="605.5,-114.5 605.5,-133.5 697.5,-133.5 697.5,-114.5 605.5,-114.5"/>
<text text-anchor="middle" x="651.5" y="-121.5" font-family="Helvetica,sans-Serif" font-size="10.00">CCParticleSnow</text>
</a>
</g>
</g>
<!-- Node11&#45;&gt;Node20 -->
<g id="edge19" class="edge">
<title>Node11&#45;&gt;Node20</title>
<path fill="none" stroke="midnightblue" d="M523.86,-204.36C535.22,-197.85 548.19,-189.7 559,-181 577.13,-166.42 575.43,-155.58 595,-143 600.91,-139.2 607.67,-136.07 614.39,-133.52"/>
<polygon fill="midnightblue" stroke="midnightblue" points="521.81,-201.49 514.78,-209.42 525.22,-207.61 521.81,-201.49"/>
</g>
<!-- Node21 -->
<g id="node21" class="node">
<title>Node21</title>
<g id="a_node21"><a xlink:href="../../da/d14/classcocos2d_1_1_c_c_particle_spiral.html" target="_top" xlink:title="An spiral particle system.">
<polygon fill="none" stroke="black" points="604.5,-76.5 604.5,-95.5 698.5,-95.5 698.5,-76.5 604.5,-76.5"/>
<text text-anchor="middle" x="651.5" y="-83.5" font-family="Helvetica,sans-Serif" font-size="10.00">CCParticleSpiral</text>
</a>
</g>
</g>
<!-- Node11&#45;&gt;Node21 -->
<g id="edge20" class="edge">
<title>Node11&#45;&gt;Node21</title>
<path fill="none" stroke="midnightblue" d="M527.62,-204.7C538.59,-198.59 550.3,-190.62 559,-181 584.07,-153.28 567.13,-129.9 595,-105 599.33,-101.13 604.48,-98.05 609.88,-95.58"/>
<polygon fill="midnightblue" stroke="midnightblue" points="525.9,-201.65 518.67,-209.4 529.15,-207.85 525.9,-201.65"/>
</g>
<!-- Node22 -->
<g id="node22" class="node">
<title>Node22</title>
<g id="a_node22"><a xlink:href="../../d6/da3/classcocos2d_1_1_c_c_particle_sun.html" target="_top" xlink:title="A sun particle system.">
<polygon fill="none" stroke="black" points="609.5,-38.5 609.5,-57.5 693.5,-57.5 693.5,-38.5 609.5,-38.5"/>
<text text-anchor="middle" x="651.5" y="-45.5" font-family="Helvetica,sans-Serif" font-size="10.00">CCParticleSun</text>
</a>
</g>
</g>
<!-- Node11&#45;&gt;Node22 -->
<g id="edge21" class="edge">
<title>Node11&#45;&gt;Node22</title>
<path fill="none" stroke="midnightblue" d="M529.12,-204.9C539.93,-198.9 551.16,-190.96 559,-181 591.87,-139.25 557.88,-105.02 595,-67 599.06,-62.85 604.06,-59.6 609.38,-57.06"/>
<polygon fill="midnightblue" stroke="midnightblue" points="527.51,-201.8 520.22,-209.49 530.72,-208.02 527.51,-201.8"/>
</g>
<!-- Node24 -->
<g id="node24" class="node">
<title>Node24</title>
<g id="a_node24"><a xlink:href="../../df/d72/classcocos2d_1_1_c_c_label_t_t_f.html" target="_top" xlink:title="CCLabelTTF is a subclass of CCTextureNode that knows how to render text labels.">
<polygon fill="none" stroke="black" points="458,-152.5 458,-171.5 532,-171.5 532,-152.5 458,-152.5"/>
<text text-anchor="middle" x="495" y="-159.5" font-family="Helvetica,sans-Serif" font-size="10.00">CCLabelTTF</text>
</a>
</g>
</g>
<!-- Node23&#45;&gt;Node24 -->
<g id="edge23" class="edge">
<title>Node23&#45;&gt;Node24</title>
<path fill="none" stroke="midnightblue" d="M375.34,-162C400.59,-162 433.27,-162 457.94,-162"/>
<polygon fill="midnightblue" stroke="midnightblue" points="375.02,-158.5 365.02,-162 375.02,-165.5 375.02,-158.5"/>
</g>
<!-- Node25 -->
<g id="node25" class="node">
<title>Node25</title>
<g id="a_node25"><a xlink:href="../../d4/d5b/classcocos2d_1_1_c_c_text_field_t_t_f.html" target="_top" xlink:title="A simple text input field with TTF font.">
<polygon fill="none" stroke="black" points="605.5,-0.5 605.5,-19.5 697.5,-19.5 697.5,-0.5 605.5,-0.5"/>
<text text-anchor="middle" x="651.5" y="-7.5" font-family="Helvetica,sans-Serif" font-size="10.00">CCTextFieldTTF</text>
</a>
</g>
</g>
<!-- Node24&#45;&gt;Node25 -->
<g id="edge24" class="edge">
<title>Node24&#45;&gt;Node25</title>
<path fill="none" stroke="midnightblue" d="M541.73,-154.08C548.11,-151.39 554.14,-147.8 559,-143 596.81,-105.67 557.88,-67.02 595,-29 598.77,-25.14 603.36,-22.06 608.26,-19.61"/>
<polygon fill="midnightblue" stroke="midnightblue" points="540.5,-150.8 532.21,-157.41 542.81,-157.41 540.5,-150.8"/>
</g>
<!-- Node27 -->
<g id="node27" class="node">
<title>Node27</title>
<g id="a_node27"><a xlink:href="../../dc/dfb/classcocos2d_1_1_c_c_label_b_m_font.html" target="_top" xlink:title="CCLabelBMFont is a subclass of CCSpriteBatchNode.">
<polygon fill="none" stroke="black" points="448.5,-114.5 448.5,-133.5 541.5,-133.5 541.5,-114.5 448.5,-114.5"/>
<text text-anchor="middle" x="495" y="-121.5" font-family="Helvetica,sans-Serif" font-size="10.00">CCLabelBMFont</text>
</a>
</g>
</g>
<!-- Node26&#45;&gt;Node27 -->
<g id="edge26" class="edge">
<title>Node26&#45;&gt;Node27</title>
<path fill="none" stroke="midnightblue" d="M401.74,-124C417.39,-124 433.78,-124 448.33,-124"/>
<polygon fill="midnightblue" stroke="midnightblue" points="401.59,-120.5 391.59,-124 401.59,-127.5 401.59,-120.5"/>
</g>
<!-- Node28 -->
<g id="node28" class="node">
<title>Node28</title>
<g id="a_node28"><a xlink:href="../../da/d5a/classcocos2d_1_1_c_c_t_m_x_layer.html" target="_top" xlink:title="CCTMXLayer represents the TMX layer.">
<polygon fill="none" stroke="black" points="455.5,-76.5 455.5,-95.5 534.5,-95.5 534.5,-76.5 455.5,-76.5"/>
<text text-anchor="middle" x="495" y="-83.5" font-family="Helvetica,sans-Serif" font-size="10.00">CCTMXLayer</text>
</a>
</g>
</g>
<!-- Node26&#45;&gt;Node28 -->
<g id="edge27" class="edge">
<title>Node26&#45;&gt;Node28</title>
<path fill="none" stroke="midnightblue" d="M386.22,-112C408.56,-106.62 434.51,-100.35 455.36,-95.32"/>
<polygon fill="midnightblue" stroke="midnightblue" points="385.14,-108.66 376.24,-114.41 386.79,-115.47 385.14,-108.66"/>
</g>
</g>
</svg>
