<?xml version="1.0" encoding="UTF-8" standalone="no"?>
<!DOCTYPE svg PUBLIC "-//W3C//DTD SVG 1.1//EN"
 "http://www.w3.org/Graphics/SVG/1.1/DTD/svg11.dtd">
<!-- Generated by graphviz version 2.43.0 (0)
 -->
<!-- Title: CCBlendProtocol Pages: 1 -->
<svg width="716pt" height="434pt"
 viewBox="0.00 0.00 716.00 434.00" xmlns="http://www.w3.org/2000/svg" xmlns:xlink="http://www.w3.org/1999/xlink">
<g id="graph0" class="graph" transform="scale(1 1) rotate(0) translate(4 430)">
<title>CCBlendProtocol</title>
<!-- Node1 -->
<g id="node1" class="node">
<title>Node1</title>
<g id="a_node1"><a xlink:title="Specify the blending function according glBlendFunc Please refer to glBlendFunc in OpenGL ES Manual h...">
<polygon fill="#999999" stroke="#666666" points="98,-259 0,-259 0,-240 98,-240 98,-259"/>
<text text-anchor="middle" x="49" y="-247" font-family="Helvetica,sans-Serif" font-size="10.00">CCBlendProtocol</text>
</a>
</g>
</g>
<!-- Node2 -->
<g id="node2" class="node">
<title>Node2</title>
<g id="a_node2"><a xlink:href="../../da/d2c/classcocos2d_1_1_c_c_layer_color.html" target="_top" xlink:title="CCLayerColor is a subclass of CCLayer that implements the CCRGBAProtocol protocol.">
<polygon fill="white" stroke="#666666" points="228.5,-315 145.5,-315 145.5,-296 228.5,-296 228.5,-315"/>
<text text-anchor="middle" x="187" y="-303" font-family="Helvetica,sans-Serif" font-size="10.00">CCLayerColor</text>
</a>
</g>
</g>
<!-- Node1&#45;&gt;Node2 -->
<g id="edge1" class="edge">
<title>Node1&#45;&gt;Node2</title>
<path fill="none" stroke="#63b8ff" d="M82.74,-262.98C107.51,-273.18 140.91,-286.93 162.93,-296"/>
<polygon fill="#63b8ff" stroke="#63b8ff" points="83.96,-259.7 73.38,-259.13 81.29,-266.17 83.96,-259.7"/>
</g>
<!-- Node4 -->
<g id="node4" class="node">
<title>Node4</title>
<g id="a_node4"><a xlink:href="../../db/d1b/classcocos2d_1_1_c_c_texture_protocol.html" target="_top" xlink:title="CCNode objects that uses a CCTexture2D to render the images.">
<polygon fill="white" stroke="#666666" points="240,-241 134,-241 134,-222 240,-222 240,-241"/>
<text text-anchor="middle" x="187" y="-229" font-family="Helvetica,sans-Serif" font-size="10.00">CCTextureProtocol</text>
</a>
</g>
</g>
<!-- Node1&#45;&gt;Node4 -->
<g id="edge3" class="edge">
<title>Node1&#45;&gt;Node4</title>
<path fill="none" stroke="#63b8ff" d="M108.43,-241.77C116.82,-240.66 125.41,-239.52 133.67,-238.43"/>
<polygon fill="#63b8ff" stroke="#63b8ff" points="107.79,-238.32 98.33,-243.1 108.7,-245.26 107.79,-238.32"/>
</g>
<!-- Node3 -->
<g id="node3" class="node">
<title>Node3</title>
<g id="a_node3"><a xlink:href="../../d9/d19/classcocos2d_1_1_c_c_layer_gradient.html" target="_top" xlink:title="CCLayerGradient is a subclass of CCLayerColor that draws gradients across the background.">
<polygon fill="white" stroke="#666666" points="385,-352 286,-352 286,-333 385,-333 385,-352"/>
<text text-anchor="middle" x="335.5" y="-340" font-family="Helvetica,sans-Serif" font-size="10.00">CCLayerGradient</text>
</a>
</g>
</g>
<!-- Node2&#45;&gt;Node3 -->
<g id="edge2" class="edge">
<title>Node2&#45;&gt;Node3</title>
<path fill="none" stroke="#63b8ff" d="M235.49,-317.49C255.3,-322.5 277.99,-328.23 296.65,-332.94"/>
<polygon fill="#63b8ff" stroke="#63b8ff" points="236.28,-314.08 225.73,-315.03 234.57,-320.87 236.28,-314.08"/>
</g>
<!-- Node5 -->
<g id="node5" class="node">
<title>Node5</title>
<g id="a_node5"><a xlink:href="../../d7/d70/classcocos2d_1_1_c_c_atlas_node.html" target="_top" xlink:title="CCAtlasNode is a subclass of CCNode that implements the CCRGBAProtocol and CCTextureProtocol protocol...">
<polygon fill="white" stroke="#666666" points="375.5,-315 295.5,-315 295.5,-296 375.5,-296 375.5,-315"/>
<text text-anchor="middle" x="335.5" y="-303" font-family="Helvetica,sans-Serif" font-size="10.00">CCAtlasNode</text>
</a>
</g>
</g>
<!-- Node4&#45;&gt;Node5 -->
<g id="edge4" class="edge">
<title>Node4&#45;&gt;Node5</title>
<path fill="none" stroke="#63b8ff" d="M209.02,-247.16C226.29,-259.46 251.78,-276.32 276,-287.5 282.95,-290.71 290.61,-293.53 298.04,-295.94"/>
<polygon fill="#63b8ff" stroke="#63b8ff" points="210.94,-244.23 200.78,-241.2 206.83,-249.9 210.94,-244.23"/>
</g>
<!-- Node8 -->
<g id="node8" class="node">
<title>Node8</title>
<g id="a_node8"><a xlink:href="../../d9/d38/classcocos2d_1_1_c_c_motion_streak.html" target="_top" xlink:title="MotionStreak.">
<polygon fill="white" stroke="#666666" points="383,-278 288,-278 288,-259 383,-259 383,-278"/>
<text text-anchor="middle" x="335.5" y="-266" font-family="Helvetica,sans-Serif" font-size="10.00">CCMotionStreak</text>
</a>
</g>
</g>
<!-- Node4&#45;&gt;Node8 -->
<g id="edge7" class="edge">
<title>Node4&#45;&gt;Node8</title>
<path fill="none" stroke="#63b8ff" d="M235.49,-243.49C255.3,-248.5 277.99,-254.23 296.65,-258.94"/>
<polygon fill="#63b8ff" stroke="#63b8ff" points="236.28,-240.08 225.73,-241.03 234.57,-246.87 236.28,-240.08"/>
</g>
<!-- Node9 -->
<g id="node9" class="node">
<title>Node9</title>
<g id="a_node9"><a xlink:href="../../d0/d0a/classcocos2d_1_1_c_c_particle_batch_node.html" target="_top" xlink:title="CCParticleBatchNode is like a batch node: if it contains children, it will draw them in 1 single Open...">
<polygon fill="white" stroke="#666666" points="395,-241 276,-241 276,-222 395,-222 395,-241"/>
<text text-anchor="middle" x="335.5" y="-229" font-family="Helvetica,sans-Serif" font-size="10.00">CCParticleBatchNode</text>
</a>
</g>
</g>
<!-- Node4&#45;&gt;Node9 -->
<g id="edge8" class="edge">
<title>Node4&#45;&gt;Node9</title>
<path fill="none" stroke="#63b8ff" d="M250.28,-231.5C258.77,-231.5 267.45,-231.5 275.87,-231.5"/>
<polygon fill="#63b8ff" stroke="#63b8ff" points="250.06,-228 240.06,-231.5 250.06,-235 250.06,-228"/>
</g>
<!-- Node10 -->
<g id="node10" class="node">
<title>Node10</title>
<g id="a_node10"><a xlink:href="../../dd/dd8/classcocos2d_1_1_c_c_particle_system.html" target="_top" xlink:title="Particle System base class.">
<polygon fill="white" stroke="#666666" points="387,-204 284,-204 284,-185 387,-185 387,-204"/>
<text text-anchor="middle" x="335.5" y="-192" font-family="Helvetica,sans-Serif" font-size="10.00">CCParticleSystem</text>
</a>
</g>
</g>
<!-- Node4&#45;&gt;Node10 -->
<g id="edge9" class="edge">
<title>Node4&#45;&gt;Node10</title>
<path fill="none" stroke="#63b8ff" d="M235.49,-219.51C255.3,-214.5 277.99,-208.77 296.65,-204.06"/>
<polygon fill="#63b8ff" stroke="#63b8ff" points="234.57,-216.13 225.73,-221.97 236.28,-222.92 234.57,-216.13"/>
</g>
<!-- Node23 -->
<g id="node23" class="node">
<title>Node23</title>
<g id="a_node23"><a xlink:href="../../d4/de7/classcocos2d_1_1_c_c_sprite.html" target="_top" xlink:title="CCSprite is a 2d image ( http://en.wikipedia.org/wiki/Sprite_(computer_graphics) )">
<polygon fill="white" stroke="#666666" points="365,-167 306,-167 306,-148 365,-148 365,-167"/>
<text text-anchor="middle" x="335.5" y="-155" font-family="Helvetica,sans-Serif" font-size="10.00">CCSprite</text>
</a>
</g>
</g>
<!-- Node4&#45;&gt;Node23 -->
<g id="edge22" class="edge">
<title>Node4&#45;&gt;Node23</title>
<path fill="none" stroke="#63b8ff" d="M209.41,-216.03C226.73,-204.05 252.08,-187.65 276,-176.5 285.48,-172.08 296.28,-168.26 305.99,-165.22"/>
<polygon fill="#63b8ff" stroke="#63b8ff" points="207.3,-213.24 201.13,-221.85 211.33,-218.96 207.3,-213.24"/>
</g>
<!-- Node26 -->
<g id="node26" class="node">
<title>Node26</title>
<g id="a_node26"><a xlink:href="../../dd/d95/classcocos2d_1_1_c_c_sprite_batch_node.html" target="_top" xlink:title="CCSpriteBatchNode is like a batch node: if it contains children, it will draw them in 1 single OpenGL...">
<polygon fill="white" stroke="#666666" points="391.5,-130 279.5,-130 279.5,-111 391.5,-111 391.5,-130"/>
<text text-anchor="middle" x="335.5" y="-118" font-family="Helvetica,sans-Serif" font-size="10.00">CCSpriteBatchNode</text>
</a>
</g>
</g>
<!-- Node4&#45;&gt;Node26 -->
<g id="edge25" class="edge">
<title>Node4&#45;&gt;Node26</title>
<path fill="none" stroke="#63b8ff" d="M200.62,-213.73C216.15,-193.09 244.37,-159.37 276,-139.5 282.06,-135.69 288.95,-132.58 295.83,-130.05"/>
<polygon fill="#63b8ff" stroke="#63b8ff" points="197.69,-211.81 194.6,-221.94 203.34,-215.95 197.69,-211.81"/>
</g>
<!-- Node6 -->
<g id="node6" class="node">
<title>Node6</title>
<g id="a_node6"><a xlink:href="../../d7/d84/classcocos2d_1_1_c_c_label_atlas.html" target="_top" xlink:title="CCLabelAtlas is a subclass of CCAtlasNode.">
<polygon fill="white" stroke="#666666" points="535.5,-333 454.5,-333 454.5,-314 535.5,-314 535.5,-333"/>
<text text-anchor="middle" x="495" y="-321" font-family="Helvetica,sans-Serif" font-size="10.00">CCLabelAtlas</text>
</a>
</g>
</g>
<!-- Node5&#45;&gt;Node6 -->
<g id="edge5" class="edge">
<title>Node5&#45;&gt;Node6</title>
<path fill="none" stroke="#63b8ff" d="M386,-311.16C408.03,-313.67 433.61,-316.6 454.34,-318.97"/>
<polygon fill="#63b8ff" stroke="#63b8ff" points="386.17,-307.65 375.84,-310 385.38,-314.61 386.17,-307.65"/>
</g>
<!-- Node7 -->
<g id="node7" class="node">
<title>Node7</title>
<g id="a_node7"><a xlink:href="../../d2/d8b/classcocos2d_1_1_c_c_tile_map_atlas.html" target="_top" xlink:title="CCTileMapAtlas is a subclass of CCAtlasNode.">
<polygon fill="white" stroke="#666666" points="542,-296 448,-296 448,-277 542,-277 542,-296"/>
<text text-anchor="middle" x="495" y="-284" font-family="Helvetica,sans-Serif" font-size="10.00">CCTileMapAtlas</text>
</a>
</g>
</g>
<!-- Node5&#45;&gt;Node7 -->
<g id="edge6" class="edge">
<title>Node5&#45;&gt;Node7</title>
<path fill="none" stroke="#63b8ff" d="M385.9,-299.54C405.72,-297.15 428.43,-294.41 447.9,-292.06"/>
<polygon fill="#63b8ff" stroke="#63b8ff" points="385.35,-296.08 375.84,-300.75 386.18,-303.03 385.35,-296.08"/>
</g>
<!-- Node11 -->
<g id="node11" class="node">
<title>Node11</title>
<g id="a_node11"><a xlink:href="../../d9/df5/classcocos2d_1_1_c_c_particle_system_quad.html" target="_top" xlink:title="CCParticleSystemQuad is a subclass of CCParticleSystem.">
<polygon fill="white" stroke="#666666" points="559,-222 431,-222 431,-203 559,-203 559,-222"/>
<text text-anchor="middle" x="495" y="-210" font-family="Helvetica,sans-Serif" font-size="10.00">CCParticleSystemQuad</text>
</a>
</g>
</g>
<!-- Node10&#45;&gt;Node11 -->
<g id="edge10" class="edge">
<title>Node10&#45;&gt;Node11</title>
<path fill="none" stroke="#63b8ff" d="M397.2,-201.44C408.26,-202.7 419.83,-204.02 430.97,-205.3"/>
<polygon fill="#63b8ff" stroke="#63b8ff" points="397.53,-197.95 387.2,-200.29 396.74,-204.91 397.53,-197.95"/>
</g>
<!-- Node12 -->
<g id="node12" class="node">
<title>Node12</title>
<g id="a_node12"><a xlink:href="../../dc/d49/classcocos2d_1_1_c_c_particle_explosion.html" target="_top" xlink:title="An explosion particle system.">
<polygon fill="white" stroke="#666666" points="708,-426 595,-426 595,-407 708,-407 708,-426"/>
<text text-anchor="middle" x="651.5" y="-414" font-family="Helvetica,sans-Serif" font-size="10.00">CCParticleExplosion</text>
</a>
</g>
</g>
<!-- Node11&#45;&gt;Node12 -->
<g id="edge11" class="edge">
<title>Node11&#45;&gt;Node12</title>
<path fill="none" stroke="#63b8ff" d="M519.32,-228.01C532.75,-238.07 548.91,-252.3 559,-268.5 590.7,-319.39 553.54,-355.2 595,-398.5 598.29,-401.94 602.25,-404.72 606.51,-406.97"/>
<polygon fill="#63b8ff" stroke="#63b8ff" points="521.14,-225.01 510.98,-222.02 517.06,-230.7 521.14,-225.01"/>
</g>
<!-- Node13 -->
<g id="node13" class="node">
<title>Node13</title>
<g id="a_node13"><a xlink:href="../../d6/d20/classcocos2d_1_1_c_c_particle_fire.html" target="_top" xlink:title="A fire particle system.">
<polygon fill="white" stroke="#666666" points="693.5,-389 609.5,-389 609.5,-370 693.5,-370 693.5,-389"/>
<text text-anchor="middle" x="651.5" y="-377" font-family="Helvetica,sans-Serif" font-size="10.00">CCParticleFire</text>
</a>
</g>
</g>
<!-- Node11&#45;&gt;Node13 -->
<g id="edge12" class="edge">
<title>Node11&#45;&gt;Node13</title>
<path fill="none" stroke="#63b8ff" d="M518.5,-228.19C531.77,-238.4 548.05,-252.72 559,-268.5 584.27,-304.91 562.8,-331.04 595,-361.5 599.12,-365.4 604.1,-368.45 609.35,-370.84"/>
<polygon fill="#63b8ff" stroke="#63b8ff" points="520.42,-225.26 510.3,-222.1 516.24,-230.88 520.42,-225.26"/>
</g>
<!-- Node14 -->
<g id="node14" class="node">
<title>Node14</title>
<g id="a_node14"><a xlink:href="../../d7/d6c/classcocos2d_1_1_c_c_particle_fireworks.html" target="_top" xlink:title="A fireworks particle system.">
<polygon fill="white" stroke="#666666" points="708,-352 595,-352 595,-333 708,-333 708,-352"/>
<text text-anchor="middle" x="651.5" y="-340" font-family="Helvetica,sans-Serif" font-size="10.00">CCParticleFireworks</text>
</a>
</g>
</g>
<!-- Node11&#45;&gt;Node14 -->
<g id="edge13" class="edge">
<title>Node11&#45;&gt;Node14</title>
<path fill="none" stroke="#63b8ff" d="M516.92,-228.64C529.86,-239.2 546.36,-253.72 559,-268.5 578.24,-290.98 571.56,-306.44 595,-324.5 599.41,-327.9 604.49,-330.67 609.75,-332.92"/>
<polygon fill="#63b8ff" stroke="#63b8ff" points="519.01,-225.83 509.01,-222.32 514.64,-231.3 519.01,-225.83"/>
</g>
<!-- Node15 -->
<g id="node15" class="node">
<title>Node15</title>
<g id="a_node15"><a xlink:href="../../df/da7/classcocos2d_1_1_c_c_particle_flower.html" target="_top" xlink:title="A flower particle system.">
<polygon fill="white" stroke="#666666" points="701,-315 602,-315 602,-296 701,-296 701,-315"/>
<text text-anchor="middle" x="651.5" y="-303" font-family="Helvetica,sans-Serif" font-size="10.00">CCParticleFlower</text>
</a>
</g>
</g>
<!-- Node11&#45;&gt;Node15 -->
<g id="edge14" class="edge">
<title>Node11&#45;&gt;Node15</title>
<path fill="none" stroke="#63b8ff" d="M513.71,-228.87C532.6,-245.59 564.03,-271.34 595,-287.5 601.29,-290.78 608.28,-293.61 615.13,-296"/>
<polygon fill="#63b8ff" stroke="#63b8ff" points="515.96,-226.18 506.18,-222.09 511.27,-231.39 515.96,-226.18"/>
</g>
<!-- Node16 -->
<g id="node16" class="node">
<title>Node16</title>
<g id="a_node16"><a xlink:href="../../d9/d53/classcocos2d_1_1_c_c_particle_galaxy.html" target="_top" xlink:title="A galaxy particle system.">
<polygon fill="white" stroke="#666666" points="702,-278 601,-278 601,-259 702,-259 702,-278"/>
<text text-anchor="middle" x="651.5" y="-266" font-family="Helvetica,sans-Serif" font-size="10.00">CCParticleGalaxy</text>
</a>
</g>
</g>
<!-- Node11&#45;&gt;Node16 -->
<g id="edge15" class="edge">
<title>Node11&#45;&gt;Node16</title>
<path fill="none" stroke="#63b8ff" d="M529.34,-225.8C548.47,-233.31 572.98,-242.71 595,-250.5 603.12,-253.37 611.96,-256.32 620.16,-258.98"/>
<polygon fill="#63b8ff" stroke="#63b8ff" points="530.46,-222.48 519.87,-222.07 527.89,-228.99 530.46,-222.48"/>
</g>
<!-- Node17 -->
<g id="node17" class="node">
<title>Node17</title>
<g id="a_node17"><a xlink:href="../../d1/d3f/classcocos2d_1_1_c_c_particle_meteor.html" target="_top" xlink:title="A meteor particle system.">
<polygon fill="white" stroke="#666666" points="702,-241 601,-241 601,-222 702,-222 702,-241"/>
<text text-anchor="middle" x="651.5" y="-229" font-family="Helvetica,sans-Serif" font-size="10.00">CCParticleMeteor</text>
</a>
</g>
</g>
<!-- Node11&#45;&gt;Node17 -->
<g id="edge16" class="edge">
<title>Node11&#45;&gt;Node17</title>
<path fill="none" stroke="#63b8ff" d="M569.42,-221.53C580.05,-222.84 590.77,-224.15 600.79,-225.39"/>
<polygon fill="#63b8ff" stroke="#63b8ff" points="569.64,-218.03 559.29,-220.28 568.78,-224.98 569.64,-218.03"/>
</g>
<!-- Node18 -->
<g id="node18" class="node">
<title>Node18</title>
<g id="a_node18"><a xlink:href="../../dd/dcd/classcocos2d_1_1_c_c_particle_rain.html" target="_top" xlink:title="A rain particle system.">
<polygon fill="white" stroke="#666666" points="695.5,-204 607.5,-204 607.5,-185 695.5,-185 695.5,-204"/>
<text text-anchor="middle" x="651.5" y="-192" font-family="Helvetica,sans-Serif" font-size="10.00">CCParticleRain</text>
</a>
</g>
</g>
<!-- Node11&#45;&gt;Node18 -->
<g id="edge17" class="edge">
<title>Node11&#45;&gt;Node18</title>
<path fill="none" stroke="#63b8ff" d="M569.6,-203.92C582.54,-202.42 595.61,-200.9 607.36,-199.53"/>
<polygon fill="#63b8ff" stroke="#63b8ff" points="568.81,-200.49 559.29,-205.13 569.62,-207.45 568.81,-200.49"/>
</g>
<!-- Node19 -->
<g id="node19" class="node">
<title>Node19</title>
<g id="a_node19"><a xlink:href="../../d5/d45/classcocos2d_1_1_c_c_particle_smoke.html" target="_top" xlink:title="An smoke particle system.">
<polygon fill="white" stroke="#666666" points="701,-167 602,-167 602,-148 701,-148 701,-167"/>
<text text-anchor="middle" x="651.5" y="-155" font-family="Helvetica,sans-Serif" font-size="10.00">CCParticleSmoke</text>
</a>
</g>
</g>
<!-- Node11&#45;&gt;Node19 -->
<g id="edge18" class="edge">
<title>Node11&#45;&gt;Node19</title>
<path fill="none" stroke="#63b8ff" d="M531.4,-199.45C550.25,-192.54 573.85,-183.96 595,-176.5 603.84,-173.38 613.49,-170.05 622.23,-167.06"/>
<polygon fill="#63b8ff" stroke="#63b8ff" points="530.19,-196.16 522.01,-202.89 532.6,-202.73 530.19,-196.16"/>
</g>
<!-- Node20 -->
<g id="node20" class="node">
<title>Node20</title>
<g id="a_node20"><a xlink:href="../../d8/dfe/classcocos2d_1_1_c_c_particle_snow.html" target="_top" xlink:title="An snow particle system.">
<polygon fill="white" stroke="#666666" points="697.5,-130 605.5,-130 605.5,-111 697.5,-111 697.5,-130"/>
<text text-anchor="middle" x="651.5" y="-118" font-family="Helvetica,sans-Serif" font-size="10.00">CCParticleSnow</text>
</a>
</g>
</g>
<!-- Node11&#45;&gt;Node20 -->
<g id="edge19" class="edge">
<title>Node11&#45;&gt;Node20</title>
<path fill="none" stroke="#63b8ff" d="M524.84,-198.24C535.95,-192.18 548.5,-184.64 559,-176.5 577.14,-162.45 575.62,-151.77 595,-139.5 600.94,-135.74 607.71,-132.63 614.43,-130.09"/>
<polygon fill="#63b8ff" stroke="#63b8ff" points="523.11,-195.19 515.91,-202.96 526.38,-201.38 523.11,-195.19"/>
</g>
<!-- Node21 -->
<g id="node21" class="node">
<title>Node21</title>
<g id="a_node21"><a xlink:href="../../da/d14/classcocos2d_1_1_c_c_particle_spiral.html" target="_top" xlink:title="An spiral particle system.">
<polygon fill="white" stroke="#666666" points="698.5,-93 604.5,-93 604.5,-74 698.5,-74 698.5,-93"/>
<text text-anchor="middle" x="651.5" y="-81" font-family="Helvetica,sans-Serif" font-size="10.00">CCParticleSpiral</text>
</a>
</g>
</g>
<!-- Node11&#45;&gt;Node21 -->
<g id="edge20" class="edge">
<title>Node11&#45;&gt;Node21</title>
<path fill="none" stroke="#63b8ff" d="M529.16,-198.36C539.66,-192.7 550.68,-185.39 559,-176.5 583.99,-149.79 567.6,-126.72 595,-102.5 599.35,-98.66 604.51,-95.58 609.91,-93.12"/>
<polygon fill="#63b8ff" stroke="#63b8ff" points="527.51,-195.27 520.16,-202.9 530.66,-201.52 527.51,-195.27"/>
</g>
<!-- Node22 -->
<g id="node22" class="node">
<title>Node22</title>
<g id="a_node22"><a xlink:href="../../d6/da3/classcocos2d_1_1_c_c_particle_sun.html" target="_top" xlink:title="A sun particle system.">
<polygon fill="white" stroke="#666666" points="693.5,-56 609.5,-56 609.5,-37 693.5,-37 693.5,-56"/>
<text text-anchor="middle" x="651.5" y="-44" font-family="Helvetica,sans-Serif" font-size="10.00">CCParticleSun</text>
</a>
</g>
</g>
<!-- Node11&#45;&gt;Node22 -->
<g id="edge21" class="edge">
<title>Node11&#45;&gt;Node22</title>
<path fill="none" stroke="#63b8ff" d="M531.24,-198.3C541.37,-192.78 551.65,-185.56 559,-176.5 591.93,-135.89 558.08,-101.52 595,-64.5 599.08,-60.41 604.09,-57.25 609.42,-54.81"/>
<polygon fill="#63b8ff" stroke="#63b8ff" points="529.44,-195.29 522.07,-202.9 532.58,-201.55 529.44,-195.29"/>
</g>
<!-- Node24 -->
<g id="node24" class="node">
<title>Node24</title>
<g id="a_node24"><a xlink:href="../../df/d72/classcocos2d_1_1_c_c_label_t_t_f.html" target="_top" xlink:title="CCLabelTTF is a subclass of CCTextureNode that knows how to render text labels.">
<polygon fill="white" stroke="#666666" points="532,-167 458,-167 458,-148 532,-148 532,-167"/>
<text text-anchor="middle" x="495" y="-155" font-family="Helvetica,sans-Serif" font-size="10.00">CCLabelTTF</text>
</a>
</g>
</g>
<!-- Node23&#45;&gt;Node24 -->
<g id="edge23" class="edge">
<title>Node23&#45;&gt;Node24</title>
<path fill="none" stroke="#63b8ff" d="M375.34,-157.5C400.59,-157.5 433.27,-157.5 457.94,-157.5"/>
<polygon fill="#63b8ff" stroke="#63b8ff" points="375.02,-154 365.02,-157.5 375.02,-161 375.02,-154"/>
</g>
<!-- Node25 -->
<g id="node25" class="node">
<title>Node25</title>
<g id="a_node25"><a xlink:href="../../d4/d5b/classcocos2d_1_1_c_c_text_field_t_t_f.html" target="_top" xlink:title="A simple text input field with TTF font.">
<polygon fill="white" stroke="#666666" points="697.5,-19 605.5,-19 605.5,0 697.5,0 697.5,-19"/>
<text text-anchor="middle" x="651.5" y="-7" font-family="Helvetica,sans-Serif" font-size="10.00">CCTextFieldTTF</text>
</a>
</g>
</g>
<!-- Node24&#45;&gt;Node25 -->
<g id="edge24" class="edge">
<title>Node24&#45;&gt;Node25</title>
<path fill="none" stroke="#63b8ff" d="M541.68,-150.32C548.07,-147.73 554.11,-144.23 559,-139.5 596.57,-103.14 558.08,-64.52 595,-27.5 598.43,-24.06 602.53,-21.27 606.92,-19.02"/>
<polygon fill="#63b8ff" stroke="#63b8ff" points="540.54,-147.01 532.16,-153.5 542.76,-153.65 540.54,-147.01"/>
</g>
<!-- Node27 -->
<g id="node27" class="node">
<title>Node27</title>
<g id="a_node27"><a xlink:href="../../dc/dfb/classcocos2d_1_1_c_c_label_b_m_font.html" target="_top" xlink:title="CCLabelBMFont is a subclass of CCSpriteBatchNode.">
<polygon fill="white" stroke="#666666" points="541.5,-130 448.5,-130 448.5,-111 541.5,-111 541.5,-130"/>
<text text-anchor="middle" x="495" y="-118" font-family="Helvetica,sans-Serif" font-size="10.00">CCLabelBMFont</text>
</a>
</g>
</g>
<!-- Node26&#45;&gt;Node27 -->
<g id="edge26" class="edge">
<title>Node26&#45;&gt;Node27</title>
<path fill="none" stroke="#63b8ff" d="M401.74,-120.5C417.39,-120.5 433.78,-120.5 448.33,-120.5"/>
<polygon fill="#63b8ff" stroke="#63b8ff" points="401.59,-117 391.59,-120.5 401.59,-124 401.59,-117"/>
</g>
<!-- Node28 -->
<g id="node28" class="node">
<title>Node28</title>
<g id="a_node28"><a xlink:href="../../da/d5a/classcocos2d_1_1_c_c_t_m_x_layer.html" target="_top" xlink:title="CCTMXLayer represents the TMX layer.">
<polygon fill="white" stroke="#666666" points="534.5,-93 455.5,-93 455.5,-74 534.5,-74 534.5,-93"/>
<text text-anchor="middle" x="495" y="-81" font-family="Helvetica,sans-Serif" font-size="10.00">CCTMXLayer</text>
</a>
</g>
</g>
<!-- Node26&#45;&gt;Node28 -->
<g id="edge27" class="edge">
<title>Node26&#45;&gt;Node28</title>
<path fill="none" stroke="#63b8ff" d="M386.99,-108.64C409.19,-103.42 434.85,-97.4 455.48,-92.55"/>
<polygon fill="#63b8ff" stroke="#63b8ff" points="385.99,-105.28 377.06,-110.97 387.6,-112.09 385.99,-105.28"/>
</g>
</g>
</svg>
