<?xml version="1.0" encoding="UTF-8" standalone="no"?>
<!DOCTYPE svg PUBLIC "-//W3C//DTD SVG 1.1//EN"
 "http://www.w3.org/Graphics/SVG/1.1/DTD/svg11.dtd">
<!-- Generated by graphviz version 2.43.0 (0)
 -->
<!-- Title: CCSpeed Pages: 1 -->
<svg width="78pt" height="196pt"
 viewBox="0.00 0.00 78.00 196.00" xmlns="http://www.w3.org/2000/svg" xmlns:xlink="http://www.w3.org/1999/xlink">
<g id="graph0" class="graph" transform="scale(1 1) rotate(0) translate(4 192)">
<title>CCSpeed</title>
<!-- Node1 -->
<g id="node1" class="node">
<title>Node1</title>
<g id="a_node1"><a xlink:title="Changes the speed of an action, making it take longer (speed&gt;1) or less (speed&lt;1) time.">
<polygon fill="#bfbfbf" stroke="black" points="5,-0.5 5,-19.5 65,-19.5 65,-0.5 5,-0.5"/>
<text text-anchor="middle" x="35" y="-7.5" font-family="Helvetica,sans-Serif" font-size="10.00">CCSpeed</text>
</a>
</g>
</g>
<!-- Node2 -->
<g id="node2" class="node">
<title>Node2</title>
<g id="a_node2"><a xlink:href="../../d7/d12/classcocos2d_1_1_c_c_action.html" target="_top" xlink:title="Base class for CCAction objects.">
<polygon fill="none" stroke="black" points="4.5,-56.5 4.5,-75.5 65.5,-75.5 65.5,-56.5 4.5,-56.5"/>
<text text-anchor="middle" x="35" y="-63.5" font-family="Helvetica,sans-Serif" font-size="10.00">CCAction</text>
</a>
</g>
</g>
<!-- Node2&#45;&gt;Node1 -->
<g id="edge1" class="edge">
<title>Node2&#45;&gt;Node1</title>
<path fill="none" stroke="midnightblue" d="M35,-45.8C35,-36.91 35,-26.78 35,-19.75"/>
<polygon fill="midnightblue" stroke="midnightblue" points="31.5,-46.08 35,-56.08 38.5,-46.08 31.5,-46.08"/>
</g>
<!-- Node3 -->
<g id="node3" class="node">
<title>Node3</title>
<g id="a_node3"><a xlink:href="../../d3/dbf/classcocos2d_1_1_c_c_object.html" target="_top" xlink:title="NA.">
<polygon fill="none" stroke="black" points="4,-112.5 4,-131.5 66,-131.5 66,-112.5 4,-112.5"/>
<text text-anchor="middle" x="35" y="-119.5" font-family="Helvetica,sans-Serif" font-size="10.00">CCObject</text>
</a>
</g>
</g>
<!-- Node3&#45;&gt;Node2 -->
<g id="edge2" class="edge">
<title>Node3&#45;&gt;Node2</title>
<path fill="none" stroke="midnightblue" d="M35,-101.8C35,-92.91 35,-82.78 35,-75.75"/>
<polygon fill="midnightblue" stroke="midnightblue" points="31.5,-102.08 35,-112.08 38.5,-102.08 31.5,-102.08"/>
</g>
<!-- Node4 -->
<g id="node4" class="node">
<title>Node4</title>
<g id="a_node4"><a xlink:href="../../d5/d61/classcocos2d_1_1_c_c_copying.html" target="_top" xlink:title="NA NA.">
<polygon fill="none" stroke="black" points="0,-168.5 0,-187.5 70,-187.5 70,-168.5 0,-168.5"/>
<text text-anchor="middle" x="35" y="-175.5" font-family="Helvetica,sans-Serif" font-size="10.00">CCCopying</text>
</a>
</g>
</g>
<!-- Node4&#45;&gt;Node3 -->
<g id="edge3" class="edge">
<title>Node4&#45;&gt;Node3</title>
<path fill="none" stroke="midnightblue" d="M35,-157.8C35,-148.91 35,-138.78 35,-131.75"/>
<polygon fill="midnightblue" stroke="midnightblue" points="31.5,-158.08 35,-168.08 38.5,-158.08 31.5,-158.08"/>
</g>
</g>
</svg>
