<?xml version="1.0" encoding="UTF-8" standalone="no"?>
<!DOCTYPE svg PUBLIC "-//W3C//DTD SVG 1.1//EN"
 "http://www.w3.org/Graphics/SVG/1.1/DTD/svg11.dtd">
<!-- Generated by graphviz version 2.43.0 (0)
 -->
<!-- Title: /home/runner/work/cocos&#45;headers/cocos&#45;headers/cocos2dx/support/tinyxml2/tinyxml2.h Pages: 1 -->
<svg width="662pt" height="225pt"
 viewBox="0.00 0.00 661.50 225.00" xmlns="http://www.w3.org/2000/svg" xmlns:xlink="http://www.w3.org/1999/xlink">
<g id="graph0" class="graph" transform="scale(1 1) rotate(0) translate(4 221)">
<title>/home/runner/work/cocos&#45;headers/cocos&#45;headers/cocos2dx/support/tinyxml2/tinyxml2.h</title>
<!-- Node1 -->
<g id="node1" class="node">
<title>Node1</title>
<g id="a_node1"><a xlink:title=" ">
<polygon fill="#999999" stroke="#666666" points="452.5,-217 300.5,-217 300.5,-165 452.5,-165 452.5,-217"/>
<text text-anchor="start" x="308.5" y="-205" font-family="Helvetica,sans-Serif" font-size="10.00">/home/runner/work/cocos</text>
<text text-anchor="start" x="308.5" y="-194" font-family="Helvetica,sans-Serif" font-size="10.00">&#45;headers/cocos&#45;headers</text>
<text text-anchor="start" x="308.5" y="-183" font-family="Helvetica,sans-Serif" font-size="10.00">/cocos2dx/support/tinyxml2</text>
<text text-anchor="middle" x="376.5" y="-172" font-family="Helvetica,sans-Serif" font-size="10.00">/tinyxml2.h</text>
</a>
</g>
</g>
<!-- Node2 -->
<g id="node2" class="node">
<title>Node2</title>
<g id="a_node2"><a xlink:href="../../dd/d96/_c_c_platform_config_8h.html" target="_top" xlink:title=" ">
<polygon fill="white" stroke="#666666" points="157,-19 0,-19 0,0 157,0 157,-19"/>
<text text-anchor="middle" x="78.5" y="-7" font-family="Helvetica,sans-Serif" font-size="10.00">platform/CCPlatformConfig.h</text>
</a>
</g>
</g>
<!-- Node1&#45;&gt;Node2 -->
<g id="edge1" class="edge">
<title>Node1&#45;&gt;Node2</title>
<path fill="none" stroke="#63b8ff" d="M300.31,-186.39C215.4,-180.59 85.98,-165.81 55.5,-129 31.43,-99.93 52.61,-53.11 67.28,-27.91"/>
<polygon fill="#63b8ff" stroke="#63b8ff" points="70.44,-29.46 72.66,-19.11 64.46,-25.81 70.44,-29.46"/>
</g>
<!-- Node3 -->
<g id="node3" class="node">
<title>Node3</title>
<g id="a_node3"><a xlink:href="../../d3/d41/_c_c_platform_macros_8h.html" target="_top" xlink:title=" ">
<polygon fill="white" stroke="#666666" points="226,-129 65,-129 65,-110 226,-110 226,-129"/>
<text text-anchor="middle" x="145.5" y="-117" font-family="Helvetica,sans-Serif" font-size="10.00">platform/CCPlatformMacros.h</text>
</a>
</g>
</g>
<!-- Node1&#45;&gt;Node3 -->
<g id="edge2" class="edge">
<title>Node1&#45;&gt;Node3</title>
<path fill="none" stroke="#63b8ff" d="M300.22,-167.05C261.09,-155.28 215.14,-141.45 183.54,-131.95"/>
<polygon fill="#63b8ff" stroke="#63b8ff" points="184.4,-128.55 173.81,-129.02 182.38,-135.25 184.4,-128.55"/>
</g>
<!-- Node6 -->
<g id="node6" class="node">
<title>Node6</title>
<g id="a_node6"><a xlink:title=" ">
<polygon fill="#e0e0e0" stroke="#999999" points="297,-129 244,-129 244,-110 297,-110 297,-129"/>
<text text-anchor="middle" x="270.5" y="-117" font-family="Helvetica,sans-Serif" font-size="10.00">ctype.h</text>
</a>
</g>
</g>
<!-- Node1&#45;&gt;Node6 -->
<g id="edge7" class="edge">
<title>Node1&#45;&gt;Node6</title>
<path fill="none" stroke="#63b8ff" d="M338.23,-164.91C322.81,-154.8 305.59,-143.51 292.37,-134.84"/>
<polygon fill="#63b8ff" stroke="#63b8ff" points="294.21,-131.86 283.92,-129.3 290.37,-137.71 294.21,-131.86"/>
</g>
<!-- Node7 -->
<g id="node7" class="node">
<title>Node7</title>
<g id="a_node7"><a xlink:title=" ">
<polygon fill="#e0e0e0" stroke="#999999" points="368,-129 315,-129 315,-110 368,-110 368,-129"/>
<text text-anchor="middle" x="341.5" y="-117" font-family="Helvetica,sans-Serif" font-size="10.00">limits.h</text>
</a>
</g>
</g>
<!-- Node1&#45;&gt;Node7 -->
<g id="edge8" class="edge">
<title>Node1&#45;&gt;Node7</title>
<path fill="none" stroke="#63b8ff" d="M363.86,-164.91C359.46,-156.16 354.61,-146.52 350.55,-138.47"/>
<polygon fill="#63b8ff" stroke="#63b8ff" points="353.56,-136.66 345.93,-129.3 347.3,-139.81 353.56,-136.66"/>
</g>
<!-- Node8 -->
<g id="node8" class="node">
<title>Node8</title>
<g id="a_node8"><a xlink:title=" ">
<polygon fill="#e0e0e0" stroke="#999999" points="436.5,-129 386.5,-129 386.5,-110 436.5,-110 436.5,-129"/>
<text text-anchor="middle" x="411.5" y="-117" font-family="Helvetica,sans-Serif" font-size="10.00">stdio.h</text>
</a>
</g>
</g>
<!-- Node1&#45;&gt;Node8 -->
<g id="edge9" class="edge">
<title>Node1&#45;&gt;Node8</title>
<path fill="none" stroke="#63b8ff" d="M389.14,-164.91C393.54,-156.16 398.39,-146.52 402.45,-138.47"/>
<polygon fill="#63b8ff" stroke="#63b8ff" points="405.7,-139.81 407.07,-129.3 399.44,-136.66 405.7,-139.81"/>
</g>
<!-- Node9 -->
<g id="node9" class="node">
<title>Node9</title>
<g id="a_node9"><a xlink:title=" ">
<polygon fill="#e0e0e0" stroke="#999999" points="508,-129 455,-129 455,-110 508,-110 508,-129"/>
<text text-anchor="middle" x="481.5" y="-117" font-family="Helvetica,sans-Serif" font-size="10.00">stdlib.h</text>
</a>
</g>
</g>
<!-- Node1&#45;&gt;Node9 -->
<g id="edge10" class="edge">
<title>Node1&#45;&gt;Node9</title>
<path fill="none" stroke="#63b8ff" d="M414.41,-164.91C429.68,-154.8 446.74,-143.51 459.84,-134.84"/>
<polygon fill="#63b8ff" stroke="#63b8ff" points="461.79,-137.74 468.2,-129.3 457.93,-131.9 461.79,-137.74"/>
</g>
<!-- Node10 -->
<g id="node10" class="node">
<title>Node10</title>
<g id="a_node10"><a xlink:title=" ">
<polygon fill="#e0e0e0" stroke="#999999" points="579,-129 526,-129 526,-110 579,-110 579,-129"/>
<text text-anchor="middle" x="552.5" y="-117" font-family="Helvetica,sans-Serif" font-size="10.00">string.h</text>
</a>
</g>
</g>
<!-- Node1&#45;&gt;Node10 -->
<g id="edge11" class="edge">
<title>Node1&#45;&gt;Node10</title>
<path fill="none" stroke="#63b8ff" d="M440.04,-164.91C467.66,-154 498.77,-141.72 521.25,-132.84"/>
<polygon fill="#63b8ff" stroke="#63b8ff" points="522.62,-136.06 530.63,-129.14 520.05,-129.55 522.62,-136.06"/>
</g>
<!-- Node11 -->
<g id="node11" class="node">
<title>Node11</title>
<g id="a_node11"><a xlink:title=" ">
<polygon fill="#e0e0e0" stroke="#999999" points="653.5,-129 597.5,-129 597.5,-110 653.5,-110 653.5,-129"/>
<text text-anchor="middle" x="625.5" y="-117" font-family="Helvetica,sans-Serif" font-size="10.00">stdarg.h</text>
</a>
</g>
</g>
<!-- Node1&#45;&gt;Node11 -->
<g id="edge12" class="edge">
<title>Node1&#45;&gt;Node11</title>
<path fill="none" stroke="#63b8ff" d="M452.56,-168.77C497.21,-156.31 551.71,-141.1 587.44,-131.12"/>
<polygon fill="#63b8ff" stroke="#63b8ff" points="588.76,-134.39 597.45,-128.33 586.87,-127.65 588.76,-134.39"/>
</g>
<!-- Node3&#45;&gt;Node2 -->
<g id="edge5" class="edge">
<title>Node3&#45;&gt;Node2</title>
<path fill="none" stroke="#63b8ff" d="M132.69,-109.69C121.84,-101.6 106.63,-88.66 97.5,-74 88.95,-60.26 84.06,-42.46 81.39,-29.2"/>
<polygon fill="#63b8ff" stroke="#63b8ff" points="84.83,-28.55 79.63,-19.32 77.93,-29.78 84.83,-28.55"/>
</g>
<!-- Node4 -->
<g id="node4" class="node">
<title>Node4</title>
<g id="a_node4"><a xlink:href="../../db/d9f/cc_config_8h.html" target="_top" xlink:title="cocos2d (cc) configuration file">
<polygon fill="white" stroke="#666666" points="174,-74 107,-74 107,-55 174,-55 174,-74"/>
<text text-anchor="middle" x="140.5" y="-62" font-family="Helvetica,sans-Serif" font-size="10.00">ccConfig.h</text>
</a>
</g>
</g>
<!-- Node3&#45;&gt;Node4 -->
<g id="edge3" class="edge">
<title>Node3&#45;&gt;Node4</title>
<path fill="none" stroke="#63b8ff" d="M144.67,-109.75C144.02,-102.8 143.08,-92.85 142.26,-84.13"/>
<polygon fill="#63b8ff" stroke="#63b8ff" points="145.73,-83.72 141.31,-74.09 138.77,-84.37 145.73,-83.72"/>
</g>
<!-- Node5 -->
<g id="node5" class="node">
<title>Node5</title>
<g id="a_node5"><a xlink:title=" ">
<polygon fill="#e0e0e0" stroke="#999999" points="305,-74 192,-74 192,-55 305,-55 305,-74"/>
<text text-anchor="middle" x="248.5" y="-62" font-family="Helvetica,sans-Serif" font-size="10.00">CCPlatformDefine.h</text>
</a>
</g>
</g>
<!-- Node3&#45;&gt;Node5 -->
<g id="edge6" class="edge">
<title>Node3&#45;&gt;Node5</title>
<path fill="none" stroke="#63b8ff" d="M162.05,-109.98C178.39,-101.57 203.63,-88.59 222.63,-78.81"/>
<polygon fill="#63b8ff" stroke="#63b8ff" points="224.36,-81.86 231.65,-74.17 221.16,-75.63 224.36,-81.86"/>
</g>
<!-- Node4&#45;&gt;Node2 -->
<g id="edge4" class="edge">
<title>Node4&#45;&gt;Node2</title>
<path fill="none" stroke="#63b8ff" d="M130.54,-54.98C121.37,-47.15 107.56,-35.34 96.47,-25.86"/>
<polygon fill="#63b8ff" stroke="#63b8ff" points="98.52,-23.01 88.64,-19.17 93.97,-28.33 98.52,-23.01"/>
</g>
</g>
</svg>
