<?xml version="1.0" encoding="UTF-8" standalone="no"?>
<!DOCTYPE svg PUBLIC "-//W3C//DTD SVG 1.1//EN"
 "http://www.w3.org/Graphics/SVG/1.1/DTD/svg11.dtd">
<!-- Generated by graphviz version 2.43.0 (0)
 -->
<!-- Title: CCMenuItemFont Pages: 1 -->
<svg width="1780pt" height="730pt"
 viewBox="0.00 0.00 1780.00 729.54" xmlns="http://www.w3.org/2000/svg" xmlns:xlink="http://www.w3.org/1999/xlink">
<g id="graph0" class="graph" transform="scale(1 1) rotate(0) translate(4 725.54)">
<title>CCMenuItemFont</title>
<!-- Node1 -->
<g id="node1" class="node">
<title>Node1</title>
<g id="a_node1"><a xlink:title="A CCMenuItemFont Helper class that creates a CCMenuItemLabel class with a Label.">
<polygon fill="#999999" stroke="#666666" points="1772,-555.04 1671,-555.04 1671,-536.04 1772,-536.04 1772,-555.04"/>
<text text-anchor="middle" x="1721.5" y="-543.04" font-family="Helvetica,sans-Serif" font-size="10.00">CCMenuItemFont</text>
</a>
</g>
</g>
<!-- Node2 -->
<g id="node2" class="node">
<title>Node2</title>
<g id="a_node2"><a xlink:href="../../d3/dc3/classcocos2d_1_1_c_c_menu_item_label.html" target="_top" xlink:title="An abstract class for &quot;label&quot; CCMenuItemLabel items Any CCNode that supports the CCLabelProtocol prot...">
<polygon fill="white" stroke="#666666" points="1634,-555.04 1528,-555.04 1528,-536.04 1634,-536.04 1634,-555.04"/>
<text text-anchor="middle" x="1581" y="-543.04" font-family="Helvetica,sans-Serif" font-size="10.00">CCMenuItemLabel</text>
</a>
</g>
</g>
<!-- Node2&#45;&gt;Node1 -->
<g id="edge1" class="edge">
<title>Node2&#45;&gt;Node1</title>
<path fill="none" stroke="#63b8ff" d="M1644.58,-545.54C1653.37,-545.54 1662.3,-545.54 1670.81,-545.54"/>
<polygon fill="#63b8ff" stroke="#63b8ff" points="1644.36,-542.04 1634.36,-545.54 1644.36,-549.04 1644.36,-542.04"/>
</g>
<!-- Node3 -->
<g id="node3" class="node">
<title>Node3</title>
<g id="a_node3"><a xlink:href="../../d3/ddc/classcocos2d_1_1_c_c_menu_item.html" target="_top" xlink:title="CCMenuItem base class.">
<polygon fill="white" stroke="#666666" points="1491,-555.04 1411,-555.04 1411,-536.04 1491,-536.04 1491,-555.04"/>
<text text-anchor="middle" x="1451" y="-543.04" font-family="Helvetica,sans-Serif" font-size="10.00">CCMenuItem</text>
</a>
</g>
</g>
<!-- Node3&#45;&gt;Node2 -->
<g id="edge2" class="edge">
<title>Node3&#45;&gt;Node2</title>
<path fill="none" stroke="#63b8ff" d="M1501.17,-545.54C1509.93,-545.54 1519.09,-545.54 1527.93,-545.54"/>
<polygon fill="#63b8ff" stroke="#63b8ff" points="1501.1,-542.04 1491.1,-545.54 1501.1,-549.04 1501.1,-542.04"/>
</g>
<!-- Node4 -->
<g id="node4" class="node">
<title>Node4</title>
<g id="a_node4"><a xlink:href="../../de/d2e/classcocos2d_1_1_c_c_node_r_g_b_a.html" target="_top" xlink:title="CCNodeRGBA is a subclass of CCNode that implements the CCRGBAProtocol protocol.">
<polygon fill="white" stroke="#666666" points="1287,-489.04 1204,-489.04 1204,-470.04 1287,-470.04 1287,-489.04"/>
<text text-anchor="middle" x="1245.5" y="-477.04" font-family="Helvetica,sans-Serif" font-size="10.00">CCNodeRGBA</text>
</a>
</g>
</g>
<!-- Node4&#45;&gt;Node3 -->
<g id="edge3" class="edge">
<title>Node4&#45;&gt;Node3</title>
<path fill="none" stroke="#63b8ff" d="M1285.66,-492.24C1325.13,-505.04 1385.17,-524.51 1420.7,-536.04"/>
<polygon fill="#63b8ff" stroke="#63b8ff" points="1286.68,-488.89 1276.09,-489.14 1284.52,-495.55 1286.68,-488.89"/>
</g>
<!-- Node5 -->
<g id="node5" class="node">
<title>Node5</title>
<g id="a_node5"><a xlink:href="../../d0/ded/classcocos2d_1_1_c_c_node.html" target="_top" xlink:title="CCNode is the main element.">
<polygon fill="white" stroke="#666666" points="1065,-502.04 1009,-502.04 1009,-483.04 1065,-483.04 1065,-502.04"/>
<text text-anchor="middle" x="1037" y="-490.04" font-family="Helvetica,sans-Serif" font-size="10.00">CCNode</text>
</a>
</g>
</g>
<!-- Node5&#45;&gt;Node2 -->
<g id="edge39" class="edge">
<title>Node5&#45;&gt;Node2</title>
<path fill="none" stroke="#9a32cd" stroke-dasharray="5,2" d="M1074.9,-505.09C1151.9,-529.79 1335.44,-580.96 1491,-564.54 1508.6,-562.68 1527.83,-558.81 1543.9,-555.05"/>
<polygon fill="#9a32cd" stroke="#9a32cd" points="1075.78,-501.69 1065.19,-501.93 1073.61,-508.35 1075.78,-501.69"/>
<text text-anchor="middle" x="1349" y="-569.54" font-family="Helvetica,sans-Serif" font-size="10.00"> m_pLabel</text>
</g>
<!-- Node5&#45;&gt;Node4 -->
<g id="edge4" class="edge">
<title>Node5&#45;&gt;Node4</title>
<path fill="none" stroke="#63b8ff" d="M1075.58,-490.17C1111.83,-487.89 1166.53,-484.45 1203.8,-482.1"/>
<polygon fill="#63b8ff" stroke="#63b8ff" points="1075.18,-486.69 1065.42,-490.81 1075.62,-493.68 1075.18,-486.69"/>
</g>
<!-- Node5&#45;&gt;Node5 -->
<g id="edge26" class="edge">
<title>Node5&#45;&gt;Node5</title>
<path fill="none" stroke="#9a32cd" stroke-dasharray="5,2" d="M1017,-511.59C1018.34,-516.42 1025,-520.04 1037,-520.04 1056.2,-520.04 1061.74,-510.77 1053.65,-502.12"/>
<polygon fill="#9a32cd" stroke="#9a32cd" points="1020.32,-512.72 1020.35,-502.12 1013.72,-510.38 1020.32,-512.72"/>
<text text-anchor="middle" x="1037" y="-523.04" font-family="Helvetica,sans-Serif" font-size="10.00"> m_pParent</text>
</g>
<!-- Node6 -->
<g id="node6" class="node">
<title>Node6</title>
<g id="a_node6"><a xlink:href="../../d3/dbf/classcocos2d_1_1_c_c_object.html" target="_top" xlink:title="NA.">
<polygon fill="white" stroke="#666666" points="169,-395.04 107,-395.04 107,-376.04 169,-376.04 169,-395.04"/>
<text text-anchor="middle" x="138" y="-383.04" font-family="Helvetica,sans-Serif" font-size="10.00">CCObject</text>
</a>
</g>
</g>
<!-- Node6&#45;&gt;Node3 -->
<g id="edge37" class="edge">
<title>Node6&#45;&gt;Node3</title>
<path fill="none" stroke="#9a32cd" stroke-dasharray="5,2" d="M141.41,-405.25C150.37,-474.08 184.47,-699.54 247,-699.54 247,-699.54 247,-699.54 1146,-699.54 1210.19,-699.54 1383.99,-588.89 1435.45,-555.17"/>
<polygon fill="#9a32cd" stroke="#9a32cd" points="144.88,-404.76 140.15,-395.28 137.93,-405.64 144.88,-404.76"/>
<text text-anchor="middle" x="757" y="-713.54" font-family="Helvetica,sans-Serif" font-size="10.00"> m_pListener</text>
<text text-anchor="middle" x="757" y="-702.54" font-family="Helvetica,sans-Serif" font-size="10.00">m_pfnSelector</text>
</g>
<!-- Node6&#45;&gt;Node5 -->
<g id="edge5" class="edge">
<title>Node6&#45;&gt;Node5</title>
<path fill="none" stroke="#63b8ff" d="M141.7,-405.2C147.65,-445.37 163.3,-534.62 187,-552.54 247.04,-597.93 906.23,-567.41 970,-544.54 994.17,-535.87 1016.3,-514.54 1027.77,-502.06"/>
<polygon fill="#63b8ff" stroke="#63b8ff" points="145.13,-404.46 140.25,-395.06 138.2,-405.45 145.13,-404.46"/>
</g>
<!-- Node6&#45;&gt;Node5 -->
<g id="edge27" class="edge">
<title>Node6&#45;&gt;Node5</title>
<path fill="none" stroke="#9a32cd" stroke-dasharray="5,2" d="M152.94,-403.29C165.57,-418.56 185.34,-440.43 206,-455.54 246.75,-485.35 258.82,-494.13 308,-505.54 372.88,-520.59 269.18,-568.39 970,-504.54 982.87,-503.37 996.99,-500.96 1008.85,-498.6"/>
<polygon fill="#9a32cd" stroke="#9a32cd" points="155.38,-400.75 146.36,-395.17 149.93,-405.15 155.38,-400.75"/>
<text text-anchor="middle" x="500" y="-539.54" font-family="Helvetica,sans-Serif" font-size="10.00"> m_pUserObject</text>
</g>
<!-- Node11 -->
<g id="node11" class="node">
<title>Node11</title>
<g id="a_node11"><a xlink:href="../../d2/d51/classcocos2d_1_1_c_c_camera.html" target="_top" xlink:title="A CCCamera is used in every CCNode.">
<polygon fill="white" stroke="#666666" points="404,-496.04 336,-496.04 336,-477.04 404,-477.04 404,-496.04"/>
<text text-anchor="middle" x="370" y="-484.04" font-family="Helvetica,sans-Serif" font-size="10.00">CCCamera</text>
</a>
</g>
</g>
<!-- Node6&#45;&gt;Node11 -->
<g id="edge11" class="edge">
<title>Node6&#45;&gt;Node11</title>
<path fill="none" stroke="#63b8ff" d="M165.23,-400.17C197.94,-417.99 255.89,-448.22 308,-468.54 316.85,-471.99 326.63,-475.15 335.73,-477.83"/>
<polygon fill="#63b8ff" stroke="#63b8ff" points="166.77,-397.01 156.32,-395.27 163.4,-403.15 166.77,-397.01"/>
</g>
<!-- Node12 -->
<g id="node12" class="node">
<title>Node12</title>
<g id="a_node12"><a xlink:href="../../d6/d70/classcocos2d_1_1_c_c_grid_base.html" target="_top" xlink:title="Base class for other.">
<polygon fill="white" stroke="#666666" points="794,-319.04 720,-319.04 720,-300.04 794,-300.04 794,-319.04"/>
<text text-anchor="middle" x="757" y="-307.04" font-family="Helvetica,sans-Serif" font-size="10.00">CCGridBase</text>
</a>
</g>
</g>
<!-- Node6&#45;&gt;Node12 -->
<g id="edge13" class="edge">
<title>Node6&#45;&gt;Node12</title>
<path fill="none" stroke="#63b8ff" d="M140.5,-365.54C144.36,-329.99 158.05,-256.52 206,-224.54 270.35,-181.62 224.34,-101.68 672,-254.54 701.2,-264.51 730.18,-286.99 745.28,-299.91"/>
<polygon fill="#63b8ff" stroke="#63b8ff" points="137,-365.37 139.56,-375.65 143.97,-366.02 137,-365.37"/>
</g>
<!-- Node13 -->
<g id="node13" class="node">
<title>Node13</title>
<g id="a_node13"><a xlink:href="../../d7/dfd/classcocos2d_1_1_c_c_texture2_d.html" target="_top" xlink:title="CCTexture2D class.">
<polygon fill="white" stroke="#666666" points="540,-294.04 460,-294.04 460,-275.04 540,-275.04 540,-294.04"/>
<text text-anchor="middle" x="500" y="-282.04" font-family="Helvetica,sans-Serif" font-size="10.00">CCTexture2D</text>
</a>
</g>
</g>
<!-- Node6&#45;&gt;Node13 -->
<g id="edge16" class="edge">
<title>Node6&#45;&gt;Node13</title>
<path fill="none" stroke="#63b8ff" d="M154.42,-368.31C167.01,-355.34 185.95,-338.21 206,-328.54 289.86,-288.1 401.61,-282.85 459.88,-283.24"/>
<polygon fill="#63b8ff" stroke="#63b8ff" points="151.74,-366.05 147.45,-375.74 156.84,-370.84 151.74,-366.05"/>
</g>
<!-- Node14 -->
<g id="node14" class="node">
<title>Node14</title>
<g id="a_node14"><a xlink:href="../../db/d28/classcocos2d_1_1_c_c_g_l_program.html" target="_top" xlink:title="CCGLProgram Class that implements a glProgram.">
<polygon fill="white" stroke="#666666" points="290,-253.04 206,-253.04 206,-234.04 290,-234.04 290,-253.04"/>
<text text-anchor="middle" x="248" y="-241.04" font-family="Helvetica,sans-Serif" font-size="10.00">CCGLProgram</text>
</a>
</g>
</g>
<!-- Node6&#45;&gt;Node14 -->
<g id="edge19" class="edge">
<title>Node6&#45;&gt;Node14</title>
<path fill="none" stroke="#63b8ff" d="M144.16,-365.97C150.93,-343.31 164.65,-305.84 187,-280.54 197.45,-268.71 212.6,-259.4 225.07,-253.09"/>
<polygon fill="#63b8ff" stroke="#63b8ff" points="140.74,-365.22 141.39,-375.79 147.47,-367.12 140.74,-365.22"/>
</g>
<!-- Node15 -->
<g id="node15" class="node">
<title>Node15</title>
<g id="a_node15"><a xlink:href="../../d3/d89/classcocos2d_1_1_c_c_grabber.html" target="_top" xlink:title="FBO class that grabs the the contents of the screen NA NA.">
<polygon fill="white" stroke="#666666" points="404.5,-392.04 335.5,-392.04 335.5,-373.04 404.5,-373.04 404.5,-392.04"/>
<text text-anchor="middle" x="370" y="-380.04" font-family="Helvetica,sans-Serif" font-size="10.00">CCGrabber</text>
</a>
</g>
</g>
<!-- Node6&#45;&gt;Node15 -->
<g id="edge22" class="edge">
<title>Node6&#45;&gt;Node15</title>
<path fill="none" stroke="#63b8ff" d="M179.17,-385.02C223.39,-384.44 293.68,-383.52 335.19,-382.98"/>
<polygon fill="#63b8ff" stroke="#63b8ff" points="179.02,-381.52 169.07,-385.15 179.11,-388.52 179.02,-381.52"/>
</g>
<!-- Node16 -->
<g id="node16" class="node">
<title>Node16</title>
<g id="a_node16"><a xlink:href="../../d9/d2e/classcocos2d_1_1_c_c_array.html" target="_top" xlink:title="NA.">
<polygon fill="white" stroke="#666666" points="276,-106.04 220,-106.04 220,-87.04 276,-87.04 276,-106.04"/>
<text text-anchor="middle" x="248" y="-94.04" font-family="Helvetica,sans-Serif" font-size="10.00">CCArray</text>
</a>
</g>
</g>
<!-- Node6&#45;&gt;Node16 -->
<g id="edge25" class="edge">
<title>Node6&#45;&gt;Node16</title>
<path fill="none" stroke="#63b8ff" d="M140.15,-365.58C143.7,-310.56 156.15,-158.32 187,-120.54 195.16,-110.55 208.1,-104.69 219.87,-101.27"/>
<polygon fill="#63b8ff" stroke="#63b8ff" points="136.65,-365.57 139.53,-375.77 143.63,-366 136.65,-365.57"/>
</g>
<!-- Node17 -->
<g id="node17" class="node">
<title>Node17</title>
<g id="a_node17"><a xlink:href="../../de/dee/classcocos2d_1_1_c_c_scheduler.html" target="_top" xlink:title="Scheduler is responsible for triggering the scheduled callbacks.">
<polygon fill="white" stroke="#666666" points="539,-133.04 461,-133.04 461,-114.04 539,-114.04 539,-133.04"/>
<text text-anchor="middle" x="500" y="-121.04" font-family="Helvetica,sans-Serif" font-size="10.00">CCScheduler</text>
</a>
</g>
</g>
<!-- Node6&#45;&gt;Node17 -->
<g id="edge30" class="edge">
<title>Node6&#45;&gt;Node17</title>
<path fill="none" stroke="#63b8ff" d="M140.29,-365.77C143.98,-315.78 156.35,-186.36 187,-158.54 226.3,-122.87 386.37,-121.21 460.71,-122.47"/>
<polygon fill="#63b8ff" stroke="#63b8ff" points="136.79,-365.7 139.58,-375.92 143.77,-366.18 136.79,-365.7"/>
</g>
<!-- Node18 -->
<g id="node18" class="node">
<title>Node18</title>
<g id="a_node18"><a xlink:href="../../d5/dcb/classcocos2d_1_1_c_c_action_manager.html" target="_top" xlink:title="CCActionManager is a singleton that manages all the actions.">
<polygon fill="white" stroke="#666666" points="672,-644.04 568,-644.04 568,-625.04 672,-625.04 672,-644.04"/>
<text text-anchor="middle" x="620" y="-632.04" font-family="Helvetica,sans-Serif" font-size="10.00">CCActionManager</text>
</a>
</g>
</g>
<!-- Node6&#45;&gt;Node18 -->
<g id="edge33" class="edge">
<title>Node6&#45;&gt;Node18</title>
<path fill="none" stroke="#63b8ff" d="M140.73,-405.36C145.25,-452.07 159.02,-566.97 187,-591.54 299.14,-690 496.24,-661.88 579.79,-644.08"/>
<polygon fill="#63b8ff" stroke="#63b8ff" points="144.21,-404.92 139.8,-395.29 137.24,-405.57 144.21,-404.92"/>
</g>
<!-- Node7 -->
<g id="node7" class="node">
<title>Node7</title>
<g id="a_node7"><a xlink:href="../../d5/d61/classcocos2d_1_1_c_c_copying.html" target="_top" xlink:title="NA NA.">
<polygon fill="white" stroke="#666666" points="70,-395.04 0,-395.04 0,-376.04 70,-376.04 70,-395.04"/>
<text text-anchor="middle" x="35" y="-383.04" font-family="Helvetica,sans-Serif" font-size="10.00">CCCopying</text>
</a>
</g>
</g>
<!-- Node7&#45;&gt;Node6 -->
<g id="edge6" class="edge">
<title>Node7&#45;&gt;Node6</title>
<path fill="none" stroke="#63b8ff" d="M80.2,-385.54C89.22,-385.54 98.51,-385.54 106.9,-385.54"/>
<polygon fill="#63b8ff" stroke="#63b8ff" points="80.19,-382.04 70.19,-385.54 80.19,-389.04 80.19,-382.04"/>
</g>
<!-- Node8 -->
<g id="node8" class="node">
<title>Node8</title>
<g id="a_node8"><a xlink:href="../../d2/df3/classcocos2d_1_1_c_c_point.html" target="_top" xlink:title="NA.">
<polygon fill="white" stroke="#666666" points="527.5,-426.04 472.5,-426.04 472.5,-407.04 527.5,-407.04 527.5,-426.04"/>
<text text-anchor="middle" x="500" y="-414.04" font-family="Helvetica,sans-Serif" font-size="10.00">CCPoint</text>
</a>
</g>
</g>
<!-- Node8&#45;&gt;Node5 -->
<g id="edge7" class="edge">
<title>Node8&#45;&gt;Node5</title>
<path fill="none" stroke="#9a32cd" stroke-dasharray="5,2" d="M537.61,-423.09C574.79,-427.66 632.39,-428.8 672,-401.54 687.06,-391.17 674.5,-374.24 690,-364.54 742.89,-331.46 924.56,-341.8 970,-384.54 999.71,-412.49 961.57,-443.46 988,-474.54 993.36,-480.85 1001.16,-484.94 1008.92,-487.61"/>
<polygon fill="#9a32cd" stroke="#9a32cd" points="538.08,-419.62 527.69,-421.73 537.13,-426.55 538.08,-419.62"/>
<text text-anchor="middle" x="757" y="-389.54" font-family="Helvetica,sans-Serif" font-size="10.00"> m_obAnchorPoint</text>
<text text-anchor="middle" x="757" y="-378.54" font-family="Helvetica,sans-Serif" font-size="10.00">m_obAnchorPointInPoints</text>
<text text-anchor="middle" x="757" y="-367.54" font-family="Helvetica,sans-Serif" font-size="10.00">m_obPosition</text>
</g>
<!-- Node8&#45;&gt;Node12 -->
<g id="edge20" class="edge">
<title>Node8&#45;&gt;Node12</title>
<path fill="none" stroke="#9a32cd" stroke-dasharray="5,2" d="M532.35,-403.24C543.48,-398.82 556.18,-394.12 568,-390.54 613.31,-376.83 634.34,-396.22 672,-367.54 685.6,-357.18 677.1,-344.77 690,-333.54 698.46,-326.17 709.36,-321 719.86,-317.4"/>
<polygon fill="#9a32cd" stroke="#9a32cd" points="530.99,-400.01 523.04,-407.01 533.62,-406.5 530.99,-400.01"/>
<text text-anchor="middle" x="620" y="-393.54" font-family="Helvetica,sans-Serif" font-size="10.00"> m_obStep</text>
</g>
<!-- Node9 -->
<g id="node9" class="node">
<title>Node9</title>
<g id="a_node9"><a xlink:href="../../d9/d24/classcocos2d_1_1_c_c_size.html" target="_top" xlink:title="NA.">
<polygon fill="white" stroke="#666666" points="273,-357.04 223,-357.04 223,-338.04 273,-338.04 273,-357.04"/>
<text text-anchor="middle" x="248" y="-345.04" font-family="Helvetica,sans-Serif" font-size="10.00">CCSize</text>
</a>
</g>
</g>
<!-- Node9&#45;&gt;Node5 -->
<g id="edge8" class="edge">
<title>Node9&#45;&gt;Node5</title>
<path fill="none" stroke="#9a32cd" stroke-dasharray="5,2" d="M263.93,-364.83C274.97,-376.57 290.99,-391.54 308,-400.54 365.45,-430.94 385.93,-424.59 450,-435.54 477.93,-440.31 897.16,-479.59 1008.84,-490.01"/>
<polygon fill="#9a32cd" stroke="#9a32cd" points="266.44,-362.39 257.13,-357.34 261.25,-367.09 266.44,-362.39"/>
<text text-anchor="middle" x="620" y="-460.54" font-family="Helvetica,sans-Serif" font-size="10.00"> m_obContentSize</text>
</g>
<!-- Node9&#45;&gt;Node12 -->
<g id="edge14" class="edge">
<title>Node9&#45;&gt;Node12</title>
<path fill="none" stroke="#9a32cd" stroke-dasharray="5,2" d="M283.18,-346.54C319.96,-345.35 380.17,-343.07 432,-339.54 536.55,-332.42 659.7,-319.87 719.6,-313.49"/>
<polygon fill="#9a32cd" stroke="#9a32cd" points="282.89,-343.05 273,-346.86 283.11,-350.05 282.89,-343.05"/>
<text text-anchor="middle" x="500" y="-341.54" font-family="Helvetica,sans-Serif" font-size="10.00"> m_sGridSize</text>
</g>
<!-- Node9&#45;&gt;Node13 -->
<g id="edge17" class="edge">
<title>Node9&#45;&gt;Node13</title>
<path fill="none" stroke="#9a32cd" stroke-dasharray="5,2" d="M282.82,-335.83C291,-333.22 299.77,-330.62 308,-328.54 362.34,-314.81 377.6,-319.06 432,-305.54 445.01,-302.31 459.21,-297.97 471.18,-294.08"/>
<polygon fill="#9a32cd" stroke="#9a32cd" points="281.61,-332.54 273.2,-338.97 283.79,-339.19 281.61,-332.54"/>
<text text-anchor="middle" x="370" y="-331.54" font-family="Helvetica,sans-Serif" font-size="10.00"> m_tContentSize</text>
</g>
<!-- Node10 -->
<g id="node10" class="node">
<title>Node10</title>
<g id="a_node10"><a xlink:href="../../da/dbf/structcocos2d_1_1_c_c_affine_transform.html" target="_top" xlink:title=" ">
<polygon fill="white" stroke="#666666" points="810.5,-426.04 703.5,-426.04 703.5,-407.04 810.5,-407.04 810.5,-426.04"/>
<text text-anchor="middle" x="757" y="-414.04" font-family="Helvetica,sans-Serif" font-size="10.00">CCAffineTransform</text>
</a>
</g>
</g>
<!-- Node10&#45;&gt;Node5 -->
<g id="edge9" class="edge">
<title>Node10&#45;&gt;Node5</title>
<path fill="none" stroke="#9a32cd" stroke-dasharray="5,2" d="M793.31,-403.81C838.96,-389.8 918.69,-374.01 970,-412.54 992.94,-429.77 968.5,-453.49 988,-474.54 993.57,-480.55 1001.33,-484.56 1008.99,-487.24"/>
<polygon fill="#9a32cd" stroke="#9a32cd" points="792.01,-400.55 783.56,-406.93 794.15,-407.21 792.01,-400.55"/>
<text text-anchor="middle" x="906" y="-437.54" font-family="Helvetica,sans-Serif" font-size="10.00"> m_sAdditionalTransform</text>
<text text-anchor="middle" x="906" y="-426.54" font-family="Helvetica,sans-Serif" font-size="10.00">m_sInverse</text>
<text text-anchor="middle" x="906" y="-415.54" font-family="Helvetica,sans-Serif" font-size="10.00">m_sTransform</text>
</g>
<!-- Node11&#45;&gt;Node5 -->
<g id="edge10" class="edge">
<title>Node11&#45;&gt;Node5</title>
<path fill="none" stroke="#9a32cd" stroke-dasharray="5,2" d="M414.53,-486.93C541.07,-488.07 906.34,-491.37 1008.92,-492.3"/>
<polygon fill="#9a32cd" stroke="#9a32cd" points="414.46,-483.43 404.43,-486.84 414.4,-490.43 414.46,-483.43"/>
<text text-anchor="middle" x="620" y="-491.54" font-family="Helvetica,sans-Serif" font-size="10.00"> m_pCamera</text>
</g>
<!-- Node12&#45;&gt;Node5 -->
<g id="edge12" class="edge">
<title>Node12&#45;&gt;Node5</title>
<path fill="none" stroke="#9a32cd" stroke-dasharray="5,2" d="M804.18,-299.23C852.34,-291.47 926.73,-288.36 970,-330.54 1016.19,-375.56 948.04,-423.91 988,-474.54 993.18,-481.11 1001.03,-485.28 1008.89,-487.93"/>
<polygon fill="#9a32cd" stroke="#9a32cd" points="803.57,-295.79 794.32,-300.95 804.77,-302.68 803.57,-295.79"/>
<text text-anchor="middle" x="906" y="-333.54" font-family="Helvetica,sans-Serif" font-size="10.00"> m_pGrid</text>
</g>
<!-- Node13&#45;&gt;Node12 -->
<g id="edge15" class="edge">
<title>Node13&#45;&gt;Node12</title>
<path fill="none" stroke="#9a32cd" stroke-dasharray="5,2" d="M550.2,-289.36C599.89,-294.23 675.47,-301.65 719.89,-306"/>
<polygon fill="#9a32cd" stroke="#9a32cd" points="550.3,-285.86 540.01,-288.36 549.62,-292.82 550.3,-285.86"/>
<text text-anchor="middle" x="620" y="-304.54" font-family="Helvetica,sans-Serif" font-size="10.00"> m_pTexture</text>
</g>
<!-- Node14&#45;&gt;Node5 -->
<g id="edge28" class="edge">
<title>Node14&#45;&gt;Node5</title>
<path fill="none" stroke="#9a32cd" stroke-dasharray="5,2" d="M286.78,-230.9C407.43,-193.17 786.26,-95.65 970,-290.54 998.18,-320.43 962.98,-441.95 988,-474.54 993.09,-481.18 1000.92,-485.37 1008.78,-488.01"/>
<polygon fill="#9a32cd" stroke="#9a32cd" points="285.37,-227.67 276.9,-234.04 287.49,-234.34 285.37,-227.67"/>
<text text-anchor="middle" x="620" y="-178.54" font-family="Helvetica,sans-Serif" font-size="10.00"> m_pShaderProgram</text>
</g>
<!-- Node14&#45;&gt;Node12 -->
<g id="edge23" class="edge">
<title>Node14&#45;&gt;Node12</title>
<path fill="none" stroke="#9a32cd" stroke-dasharray="5,2" d="M300.51,-245.1C337.18,-246.24 387.62,-247.87 432,-249.54 484.45,-251.51 498.11,-246.61 550,-254.54 614.95,-264.46 688.87,-287.07 728.09,-300"/>
<polygon fill="#9a32cd" stroke="#9a32cd" points="300.17,-241.58 290.07,-244.77 299.96,-248.58 300.17,-241.58"/>
<text text-anchor="middle" x="500" y="-257.54" font-family="Helvetica,sans-Serif" font-size="10.00"> m_pShaderProgram</text>
</g>
<!-- Node14&#45;&gt;Node13 -->
<g id="edge18" class="edge">
<title>Node14&#45;&gt;Node13</title>
<path fill="none" stroke="#9a32cd" stroke-dasharray="5,2" d="M300.21,-249.71C337,-254.42 387.71,-261.45 432,-269.54 441.03,-271.19 450.69,-273.2 459.78,-275.21"/>
<polygon fill="#9a32cd" stroke="#9a32cd" points="300.57,-246.23 290.21,-248.45 299.7,-253.18 300.57,-246.23"/>
<text text-anchor="middle" x="370" y="-272.54" font-family="Helvetica,sans-Serif" font-size="10.00"> m_pShaderProgram</text>
</g>
<!-- Node15&#45;&gt;Node12 -->
<g id="edge21" class="edge">
<title>Node15&#45;&gt;Node12</title>
<path fill="none" stroke="#9a32cd" stroke-dasharray="5,2" d="M414.89,-381.24C474.37,-378.46 583.34,-369.76 672,-342.54 680.55,-339.91 681.78,-337.07 690,-333.54 702.1,-328.34 715.73,-323.25 727.46,-319.11"/>
<polygon fill="#9a32cd" stroke="#9a32cd" points="414.57,-377.75 404.73,-381.68 414.87,-384.74 414.57,-377.75"/>
<text text-anchor="middle" x="500" y="-382.54" font-family="Helvetica,sans-Serif" font-size="10.00"> m_pGrabber</text>
</g>
<!-- Node16&#45;&gt;Node5 -->
<g id="edge24" class="edge">
<title>Node16&#45;&gt;Node5</title>
<path fill="none" stroke="#9a32cd" stroke-dasharray="5,2" d="M281.6,-83.22C396.25,-38.74 784.04,90.98 970,-106.54 998.06,-136.35 963.87,-441.47 988,-474.54 992.98,-481.37 1000.88,-485.61 1008.84,-488.24"/>
<polygon fill="#9a32cd" stroke="#9a32cd" points="280,-80.08 271.97,-87 282.56,-86.6 280,-80.08"/>
<text text-anchor="middle" x="620" y="-10.54" font-family="Helvetica,sans-Serif" font-size="10.00"> m_pChildren</text>
</g>
<!-- Node16&#45;&gt;Node17 -->
<g id="edge31" class="edge">
<title>Node16&#45;&gt;Node17</title>
<path fill="none" stroke="#9a32cd" stroke-dasharray="5,2" d="M286.43,-97.72C323.53,-99.24 381.9,-102.56 432,-109.54 441.42,-110.85 451.49,-112.71 460.89,-114.65"/>
<polygon fill="#9a32cd" stroke="#9a32cd" points="286.22,-94.21 276.1,-97.32 285.95,-101.2 286.22,-94.21"/>
<text text-anchor="middle" x="370" y="-112.54" font-family="Helvetica,sans-Serif" font-size="10.00"> m_pScriptHandlerEntries</text>
</g>
<!-- Node17&#45;&gt;Node5 -->
<g id="edge29" class="edge">
<title>Node17&#45;&gt;Node5</title>
<path fill="none" stroke="#9a32cd" stroke-dasharray="5,2" d="M549.31,-111.92C645.31,-92.02 860.26,-64.03 970,-180.54 1014.88,-228.19 949.09,-421.9 988,-474.54 993.03,-481.34 1000.93,-485.57 1008.89,-488.2"/>
<polygon fill="#9a32cd" stroke="#9a32cd" points="548.35,-108.54 539.3,-114.05 549.81,-115.39 548.35,-108.54"/>
<text text-anchor="middle" x="757" y="-106.54" font-family="Helvetica,sans-Serif" font-size="10.00"> m_pScheduler</text>
</g>
<!-- Node18&#45;&gt;Node5 -->
<g id="edge32" class="edge">
<title>Node18&#45;&gt;Node5</title>
<path fill="none" stroke="#9a32cd" stroke-dasharray="5,2" d="M663.32,-646.58C733.29,-663.84 874.8,-687.29 970,-626.54 1015.25,-597.66 1030.47,-527.87 1034.65,-502.21"/>
<polygon fill="#9a32cd" stroke="#9a32cd" points="664.08,-643.16 653.53,-644.09 662.36,-649.95 664.08,-643.16"/>
<text text-anchor="middle" x="757" y="-668.54" font-family="Helvetica,sans-Serif" font-size="10.00"> m_pActionManager</text>
</g>
<!-- Node19 -->
<g id="node19" class="node">
<title>Node19</title>
<g id="a_node19"><a xlink:href="../../d1/d65/classcocos2d_1_1_c_c_component_container.html" target="_top" xlink:title="NA NA.">
<polygon fill="white" stroke="#666666" points="824,-616.04 690,-616.04 690,-597.04 824,-597.04 824,-616.04"/>
<text text-anchor="middle" x="757" y="-604.04" font-family="Helvetica,sans-Serif" font-size="10.00">CCComponentContainer</text>
</a>
</g>
</g>
<!-- Node19&#45;&gt;Node5 -->
<g id="edge34" class="edge">
<title>Node19&#45;&gt;Node5</title>
<path fill="none" stroke="#9a32cd" stroke-dasharray="5,2" d="M834.41,-612.37C876.95,-612.21 929.36,-606.1 970,-582.54 1002.69,-563.59 1023.87,-521.29 1032.11,-502.21"/>
<polygon fill="#9a32cd" stroke="#9a32cd" points="834.4,-608.87 824.38,-612.3 834.36,-615.87 834.4,-608.87"/>
<text text-anchor="middle" x="906" y="-614.54" font-family="Helvetica,sans-Serif" font-size="10.00"> m_pComponentContainer</text>
</g>
<!-- Node20 -->
<g id="node20" class="node">
<title>Node20</title>
<g id="a_node20"><a xlink:href="../../d8/dda/classcocos2d_1_1_c_c_r_g_b_a_protocol.html" target="_top" xlink:title="RGBA protocol that affects CCNode&#39;s color and opacity NA.">
<polygon fill="white" stroke="#666666" points="1086,-465.04 988,-465.04 988,-446.04 1086,-446.04 1086,-465.04"/>
<text text-anchor="middle" x="1037" y="-453.04" font-family="Helvetica,sans-Serif" font-size="10.00">CCRGBAProtocol</text>
</a>
</g>
</g>
<!-- Node20&#45;&gt;Node4 -->
<g id="edge35" class="edge">
<title>Node20&#45;&gt;Node4</title>
<path fill="none" stroke="#63b8ff" d="M1096.52,-462.34C1130.82,-466.33 1173.3,-471.26 1203.93,-474.82"/>
<polygon fill="#63b8ff" stroke="#63b8ff" points="1096.49,-458.81 1086.15,-461.14 1095.68,-465.77 1096.49,-458.81"/>
</g>
<!-- Node21 -->
<g id="node21" class="node">
<title>Node21</title>
<g id="a_node21"><a xlink:href="../../d7/d39/structcc_color3_b.html" target="_top" xlink:title="RGB color composed of bytes 3 bytes.">
<polygon fill="white" stroke="#666666" points="1069.5,-418.04 1004.5,-418.04 1004.5,-399.04 1069.5,-399.04 1069.5,-418.04"/>
<text text-anchor="middle" x="1037" y="-406.04" font-family="Helvetica,sans-Serif" font-size="10.00">ccColor3B</text>
</a>
</g>
</g>
<!-- Node21&#45;&gt;Node2 -->
<g id="edge38" class="edge">
<title>Node21&#45;&gt;Node2</title>
<path fill="none" stroke="#9a32cd" stroke-dasharray="5,2" d="M1079.73,-406.44C1109.52,-405.66 1150.44,-406.04 1186,-411.54 1335.23,-434.62 1503.4,-509.33 1560.13,-535.98"/>
<polygon fill="#9a32cd" stroke="#9a32cd" points="1079.56,-402.95 1069.68,-406.76 1079.79,-409.94 1079.56,-402.95"/>
<text text-anchor="middle" x="1349" y="-480.54" font-family="Helvetica,sans-Serif" font-size="10.00"> m_tColorBackup</text>
<text text-anchor="middle" x="1349" y="-469.54" font-family="Helvetica,sans-Serif" font-size="10.00">m_tDisabledColor</text>
</g>
<!-- Node21&#45;&gt;Node4 -->
<g id="edge36" class="edge">
<title>Node21&#45;&gt;Node4</title>
<path fill="none" stroke="#9a32cd" stroke-dasharray="5,2" d="M1079.79,-411.45C1110.27,-414.75 1152,-421.75 1186,-436.54 1204.72,-444.69 1223.18,-459.74 1234.2,-469.7"/>
<polygon fill="#9a32cd" stroke="#9a32cd" points="1079.81,-407.94 1069.51,-410.43 1079.12,-414.9 1079.81,-407.94"/>
<text text-anchor="middle" x="1145" y="-450.54" font-family="Helvetica,sans-Serif" font-size="10.00"> _displayedColor</text>
<text text-anchor="middle" x="1145" y="-439.54" font-family="Helvetica,sans-Serif" font-size="10.00">_realColor</text>
</g>
</g>
</svg>
