<?xml version="1.0" encoding="UTF-8" standalone="no"?>
<!DOCTYPE svg PUBLIC "-//W3C//DTD SVG 1.1//EN"
 "http://www.w3.org/Graphics/SVG/1.1/DTD/svg11.dtd">
<!-- Generated by graphviz version 2.43.0 (0)
 -->
<!-- Title: CCHttpResponse Pages: 1 -->
<svg width="268pt" height="276pt"
 viewBox="0.00 0.00 268.00 276.00" xmlns="http://www.w3.org/2000/svg" xmlns:xlink="http://www.w3.org/1999/xlink">
<g id="graph0" class="graph" transform="scale(1 1) rotate(0) translate(4 272)">
<title>CCHttpResponse</title>
<!-- Node1 -->
<g id="node1" class="node">
<title>Node1</title>
<g id="a_node1"><a xlink:title="defines the object which users will receive at onHttpCompleted(sender, HttpResponse) callback Please ...">
<polygon fill="#bfbfbf" stroke="black" points="0,-0.5 0,-19.5 98,-19.5 98,-0.5 0,-0.5"/>
<text text-anchor="middle" x="49" y="-7.5" font-family="Helvetica,sans-Serif" font-size="10.00">CCHttpResponse</text>
</a>
</g>
</g>
<!-- Node2 -->
<g id="node2" class="node">
<title>Node2</title>
<g id="a_node2"><a xlink:href="../../d3/dbf/classcocos2d_1_1_c_c_object.html" target="_top" xlink:title="NA.">
<polygon fill="none" stroke="black" points="63,-191.5 63,-210.5 125,-210.5 125,-191.5 63,-191.5"/>
<text text-anchor="middle" x="94" y="-198.5" font-family="Helvetica,sans-Serif" font-size="10.00">CCObject</text>
</a>
</g>
</g>
<!-- Node2&#45;&gt;Node1 -->
<g id="edge1" class="edge">
<title>Node2&#45;&gt;Node1</title>
<path fill="none" stroke="midnightblue" d="M86.79,-181.99C78.27,-159.96 64.34,-121.35 57,-87 51.84,-62.87 49.95,-33.68 49.31,-19.53"/>
<polygon fill="midnightblue" stroke="midnightblue" points="83.56,-183.36 90.48,-191.38 90.08,-180.79 83.56,-183.36"/>
</g>
<!-- Node4 -->
<g id="node4" class="node">
<title>Node4</title>
<g id="a_node4"><a xlink:href="../../da/d7c/classcocos2d_1_1extension_1_1_c_c_http_request.html" target="_top" xlink:title="defines the object which users must packed for CCHttpClient::send(HttpRequest*) method.">
<polygon fill="none" stroke="black" points="66.5,-67.5 66.5,-86.5 157.5,-86.5 157.5,-67.5 66.5,-67.5"/>
<text text-anchor="middle" x="112" y="-74.5" font-family="Helvetica,sans-Serif" font-size="10.00">CCHttpRequest</text>
</a>
</g>
</g>
<!-- Node2&#45;&gt;Node4 -->
<g id="edge4" class="edge">
<title>Node2&#45;&gt;Node4</title>
<path fill="none" stroke="midnightblue" d="M93.02,-181.19C92.64,-167.93 92.74,-149.79 95,-134 96.89,-120.76 99.11,-117.79 103,-105 104.84,-98.95 107.09,-92.2 108.88,-86.96"/>
<polygon fill="midnightblue" stroke="midnightblue" points="89.54,-181.55 93.44,-191.4 96.53,-181.27 89.54,-181.55"/>
</g>
<!-- Node2&#45;&gt;Node4 -->
<g id="edge5" class="edge">
<title>Node2&#45;&gt;Node4</title>
<path fill="none" stroke="#9a32cd" stroke-dasharray="5,2" d="M100.76,-181.56C101.62,-178.72 102.41,-175.8 103,-173 109.61,-141.72 111.37,-103.61 111.83,-86.74"/>
<polygon fill="#9a32cd" stroke="#9a32cd" points="97.41,-180.55 97.52,-191.14 104.04,-182.79 97.41,-180.55"/>
<text text-anchor="middle" x="131.5" y="-141.5" font-family="Helvetica,sans-Serif" font-size="10.00"> _pTarget</text>
</g>
<!-- Node5 -->
<g id="node5" class="node">
<title>Node5</title>
<g id="a_node5"><a xlink:href="../../d6/d9f/classcocos2d_1_1extension_1_1_c_c_http_client.html" target="_top" xlink:title="Singleton that handles asynchrounous http requests Once the request completed, a callback will issued...">
<polygon fill="none" stroke="black" points="180,-134.5 180,-153.5 260,-153.5 260,-134.5 180,-134.5"/>
<text text-anchor="middle" x="220" y="-141.5" font-family="Helvetica,sans-Serif" font-size="10.00">CCHttpClient</text>
</a>
</g>
</g>
<!-- Node2&#45;&gt;Node5 -->
<g id="edge7" class="edge">
<title>Node2&#45;&gt;Node5</title>
<path fill="none" stroke="midnightblue" d="M122.93,-187.37C146.69,-177 179.7,-162.59 200.45,-153.53"/>
<polygon fill="midnightblue" stroke="midnightblue" points="121.45,-184.2 113.69,-191.41 124.25,-190.61 121.45,-184.2"/>
</g>
<!-- Node3 -->
<g id="node3" class="node">
<title>Node3</title>
<g id="a_node3"><a xlink:href="../../d5/d61/classcocos2d_1_1_c_c_copying.html" target="_top" xlink:title="NA NA.">
<polygon fill="none" stroke="black" points="59,-248.5 59,-267.5 129,-267.5 129,-248.5 59,-248.5"/>
<text text-anchor="middle" x="94" y="-255.5" font-family="Helvetica,sans-Serif" font-size="10.00">CCCopying</text>
</a>
</g>
</g>
<!-- Node3&#45;&gt;Node2 -->
<g id="edge2" class="edge">
<title>Node3&#45;&gt;Node2</title>
<path fill="none" stroke="midnightblue" d="M94,-238.12C94,-228.82 94,-218.06 94,-210.71"/>
<polygon fill="midnightblue" stroke="midnightblue" points="90.5,-238.41 94,-248.41 97.5,-238.41 90.5,-238.41"/>
</g>
<!-- Node4&#45;&gt;Node1 -->
<g id="edge3" class="edge">
<title>Node4&#45;&gt;Node1</title>
<path fill="none" stroke="#9a32cd" stroke-dasharray="5,2" d="M96.49,-60C84.13,-47.25 67.31,-29.89 57.36,-19.63"/>
<polygon fill="#9a32cd" stroke="#9a32cd" points="94.03,-62.49 103.5,-67.23 99.06,-57.62 94.03,-62.49"/>
<text text-anchor="middle" x="123" y="-41" font-family="Helvetica,sans-Serif" font-size="10.00"> _pHttpRequest</text>
</g>
<!-- Node5&#45;&gt;Node4 -->
<g id="edge6" class="edge">
<title>Node5&#45;&gt;Node4</title>
<path fill="none" stroke="#9a32cd" stroke-dasharray="5,2" d="M196.64,-128.94C175.25,-116.07 144.28,-97.43 126.33,-86.63"/>
<polygon fill="#9a32cd" stroke="#9a32cd" points="195.06,-132.08 205.43,-134.23 198.67,-126.08 195.06,-132.08"/>
<text text-anchor="middle" x="199.5" y="-108" font-family="Helvetica,sans-Serif" font-size="10.00"> _pSelector</text>
</g>
</g>
</svg>
