<?xml version="1.0" encoding="UTF-8" standalone="no"?>
<!DOCTYPE svg PUBLIC "-//W3C//DTD SVG 1.1//EN"
 "http://www.w3.org/Graphics/SVG/1.1/DTD/svg11.dtd">
<!-- Generated by graphviz version 2.43.0 (0)
 -->
<!-- Title: CCFileUtils Pages: 1 -->
<svg width="228pt" height="140pt"
 viewBox="0.00 0.00 228.00 140.00" xmlns="http://www.w3.org/2000/svg" xmlns:xlink="http://www.w3.org/1999/xlink">
<g id="graph0" class="graph" transform="scale(1 1) rotate(0) translate(4 136)">
<title>CCFileUtils</title>
<!-- Node1 -->
<g id="node1" class="node">
<title>Node1</title>
<g id="a_node1"><a xlink:title="Helper class to handle file operations.">
<polygon fill="#bfbfbf" stroke="black" points="74.5,-56.5 74.5,-75.5 144.5,-75.5 144.5,-56.5 74.5,-56.5"/>
<text text-anchor="middle" x="109.5" y="-63.5" font-family="Helvetica,sans-Serif" font-size="10.00">CCFileUtils</text>
</a>
</g>
</g>
<!-- Node3 -->
<g id="node3" class="node">
<title>Node3</title>
<g id="a_node3"><a xlink:href="../../d7/d50/classcocos2d_1_1_c_c_file_utils_win32.html" target="_top" xlink:title="Helper class to handle file operations.">
<polygon fill="none" stroke="black" points="0,-0.5 0,-19.5 101,-19.5 101,-0.5 0,-0.5"/>
<text text-anchor="middle" x="50.5" y="-7.5" font-family="Helvetica,sans-Serif" font-size="10.00">CCFileUtilsWin32</text>
</a>
</g>
</g>
<!-- Node1&#45;&gt;Node3 -->
<g id="edge2" class="edge">
<title>Node1&#45;&gt;Node3</title>
<path fill="none" stroke="midnightblue" d="M92.61,-49.54C82.09,-39.91 68.93,-27.87 60.15,-19.83"/>
<polygon fill="midnightblue" stroke="midnightblue" points="90.28,-52.15 100.02,-56.32 95.01,-46.99 90.28,-52.15"/>
</g>
<!-- Node4 -->
<g id="node4" class="node">
<title>Node4</title>
<g id="a_node4"><a xlink:href="../../d4/d1e/classcocos2d_1_1_c_c_file_utils_win_r_t.html" target="_top" xlink:title="Helper class to handle file operations.">
<polygon fill="none" stroke="black" points="119,-0.5 119,-19.5 220,-19.5 220,-0.5 119,-0.5"/>
<text text-anchor="middle" x="169.5" y="-7.5" font-family="Helvetica,sans-Serif" font-size="10.00">CCFileUtilsWinRT</text>
</a>
</g>
</g>
<!-- Node1&#45;&gt;Node4 -->
<g id="edge3" class="edge">
<title>Node1&#45;&gt;Node4</title>
<path fill="none" stroke="midnightblue" d="M126.68,-49.54C137.38,-39.91 150.76,-27.87 159.68,-19.83"/>
<polygon fill="midnightblue" stroke="midnightblue" points="124.23,-47.03 119.14,-56.32 128.91,-52.24 124.23,-47.03"/>
</g>
<!-- Node2 -->
<g id="node2" class="node">
<title>Node2</title>
<g id="a_node2"><a xlink:href="../../dc/d72/classcocos2d_1_1_type_info.html" target="_top" xlink:title=" ">
<polygon fill="none" stroke="black" points="80.5,-112.5 80.5,-131.5 138.5,-131.5 138.5,-112.5 80.5,-112.5"/>
<text text-anchor="middle" x="109.5" y="-119.5" font-family="Helvetica,sans-Serif" font-size="10.00">TypeInfo</text>
</a>
</g>
</g>
<!-- Node2&#45;&gt;Node1 -->
<g id="edge1" class="edge">
<title>Node2&#45;&gt;Node1</title>
<path fill="none" stroke="midnightblue" d="M109.5,-101.8C109.5,-92.91 109.5,-82.78 109.5,-75.75"/>
<polygon fill="midnightblue" stroke="midnightblue" points="106,-102.08 109.5,-112.08 113,-102.08 106,-102.08"/>
</g>
</g>
</svg>
