<?xml version="1.0" encoding="UTF-8" standalone="no"?>
<!DOCTYPE svg PUBLIC "-//W3C//DTD SVG 1.1//EN"
 "http://www.w3.org/Graphics/SVG/1.1/DTD/svg11.dtd">
<!-- Generated by graphviz version 2.43.0 (0)
 -->
<!-- Title: CCFileUtils Pages: 1 -->
<svg width="368pt" height="286pt"
 viewBox="0.00 0.00 368.00 286.00" xmlns="http://www.w3.org/2000/svg" xmlns:xlink="http://www.w3.org/1999/xlink">
<g id="graph0" class="graph" transform="scale(1 1) rotate(0) translate(4 282)">
<title>CCFileUtils</title>
<!-- Node1 -->
<g id="node1" class="node">
<title>Node1</title>
<g id="a_node1"><a xlink:title="Helper class to handle file operations.">
<polygon fill="#bfbfbf" stroke="black" points="43,-0.5 43,-19.5 113,-19.5 113,-0.5 43,-0.5"/>
<text text-anchor="middle" x="78" y="-7.5" font-family="Helvetica,sans-Serif" font-size="10.00">CCFileUtils</text>
</a>
</g>
</g>
<!-- Node2 -->
<g id="node2" class="node">
<title>Node2</title>
<g id="a_node2"><a xlink:href="../../dc/d72/classcocos2d_1_1_type_info.html" target="_top" xlink:title=" ">
<polygon fill="none" stroke="black" points="0,-134.5 0,-153.5 58,-153.5 58,-134.5 0,-134.5"/>
<text text-anchor="middle" x="29" y="-141.5" font-family="Helvetica,sans-Serif" font-size="10.00">TypeInfo</text>
</a>
</g>
</g>
<!-- Node2&#45;&gt;Node1 -->
<g id="edge1" class="edge">
<title>Node2&#45;&gt;Node1</title>
<path fill="none" stroke="midnightblue" d="M27.21,-124.12C26.41,-108.33 26.92,-85.48 34,-67 41.34,-47.83 57.66,-29.98 68.23,-19.79"/>
<polygon fill="midnightblue" stroke="midnightblue" points="23.72,-124.49 27.94,-134.21 30.71,-123.98 23.72,-124.49"/>
</g>
<!-- Node7 -->
<g id="node7" class="node">
<title>Node7</title>
<g id="a_node7"><a xlink:href="../../d0/ddc/classcocos2d_1_1_c_c_file_utils.html" target="_top" xlink:title="Helper class to handle file operations.">
<polygon fill="none" stroke="black" points="43,-67.5 43,-86.5 113,-86.5 113,-67.5 43,-67.5"/>
<text text-anchor="middle" x="78" y="-74.5" font-family="Helvetica,sans-Serif" font-size="10.00">CCFileUtils</text>
</a>
</g>
</g>
<!-- Node2&#45;&gt;Node7 -->
<g id="edge7" class="edge">
<title>Node2&#45;&gt;Node7</title>
<path fill="none" stroke="midnightblue" d="M41.89,-125.9C51.41,-113.27 63.98,-96.6 71.5,-86.63"/>
<polygon fill="midnightblue" stroke="midnightblue" points="38.83,-124.14 35.61,-134.23 44.42,-128.36 38.83,-124.14"/>
</g>
<!-- Node3 -->
<g id="node3" class="node">
<title>Node3</title>
<g id="a_node3"><a xlink:href="../../d7/d5f/classcocos2d_1_1_c_c_dictionary.html" target="_top" xlink:title="CCDictionary is a class like NSDictionary in Obj&#45;C .">
<polygon fill="none" stroke="black" points="82,-134.5 82,-153.5 162,-153.5 162,-134.5 82,-134.5"/>
<text text-anchor="middle" x="122" y="-141.5" font-family="Helvetica,sans-Serif" font-size="10.00">CCDictionary</text>
</a>
</g>
</g>
<!-- Node3&#45;&gt;Node1 -->
<g id="edge2" class="edge">
<title>Node3&#45;&gt;Node1</title>
<path fill="none" stroke="#9a32cd" stroke-dasharray="5,2" d="M172.17,-136.48C196.72,-132.16 222.58,-125.51 230,-116 236.31,-107.91 244.5,-92.97 227,-67 201.91,-29.76 148.63,-17.23 113.07,-13.05"/>
<polygon fill="#9a32cd" stroke="#9a32cd" points="171.45,-133.06 162.15,-138.14 172.59,-139.96 171.45,-133.06"/>
<text text-anchor="middle" x="298" y="-74.5" font-family="Helvetica,sans-Serif" font-size="10.00"> m_pFilenameLookupDict</text>
</g>
<!-- Node3&#45;&gt;Node7 -->
<g id="edge8" class="edge">
<title>Node3&#45;&gt;Node7</title>
<path fill="none" stroke="#9a32cd" stroke-dasharray="5,2" d="M110.43,-125.9C101.88,-113.27 90.59,-96.6 83.84,-86.63"/>
<polygon fill="#9a32cd" stroke="#9a32cd" points="107.56,-127.91 116.07,-134.23 113.36,-123.99 107.56,-127.91"/>
<text text-anchor="middle" x="164" y="-108" font-family="Helvetica,sans-Serif" font-size="10.00"> m_pFilenameLookupDict</text>
</g>
<!-- Node4 -->
<g id="node4" class="node">
<title>Node4</title>
<g id="a_node4"><a xlink:href="../../d3/dbf/classcocos2d_1_1_c_c_object.html" target="_top" xlink:title="NA.">
<polygon fill="none" stroke="black" points="29,-201.5 29,-220.5 91,-220.5 91,-201.5 29,-201.5"/>
<text text-anchor="middle" x="60" y="-208.5" font-family="Helvetica,sans-Serif" font-size="10.00">CCObject</text>
</a>
</g>
</g>
<!-- Node4&#45;&gt;Node3 -->
<g id="edge3" class="edge">
<title>Node4&#45;&gt;Node3</title>
<path fill="none" stroke="midnightblue" d="M75.26,-194C87.42,-181.25 103.98,-163.89 113.77,-153.63"/>
<polygon fill="midnightblue" stroke="midnightblue" points="72.73,-191.58 68.36,-201.23 77.8,-196.41 72.73,-191.58"/>
</g>
<!-- Node5 -->
<g id="node5" class="node">
<title>Node5</title>
<g id="a_node5"><a xlink:href="../../d5/d61/classcocos2d_1_1_c_c_copying.html" target="_top" xlink:title="NA NA.">
<polygon fill="none" stroke="black" points="25,-258.5 25,-277.5 95,-277.5 95,-258.5 25,-258.5"/>
<text text-anchor="middle" x="60" y="-265.5" font-family="Helvetica,sans-Serif" font-size="10.00">CCCopying</text>
</a>
</g>
</g>
<!-- Node5&#45;&gt;Node4 -->
<g id="edge4" class="edge">
<title>Node5&#45;&gt;Node4</title>
<path fill="none" stroke="midnightblue" d="M60,-248.12C60,-238.82 60,-228.06 60,-220.71"/>
<polygon fill="midnightblue" stroke="midnightblue" points="56.5,-248.41 60,-258.41 63.5,-248.41 56.5,-248.41"/>
</g>
<!-- Node6 -->
<g id="node6" class="node">
<title>Node6</title>
<g id="a_node6"><a xlink:href="../../d0/da2/classcocos2d_1_1_c_c_dict_element.html" target="_top" xlink:title="CCDictElement is used for traversing CCDictionary.">
<polygon fill="none" stroke="black" points="109,-201.5 109,-220.5 199,-220.5 199,-201.5 109,-201.5"/>
<text text-anchor="middle" x="154" y="-208.5" font-family="Helvetica,sans-Serif" font-size="10.00">CCDictElement</text>
</a>
</g>
</g>
<!-- Node6&#45;&gt;Node3 -->
<g id="edge5" class="edge">
<title>Node6&#45;&gt;Node3</title>
<path fill="none" stroke="#9a32cd" stroke-dasharray="5,2" d="M145.22,-192.16C139.05,-179.63 131.06,-163.41 126.25,-153.63"/>
<polygon fill="#9a32cd" stroke="#9a32cd" points="142.13,-193.81 149.68,-201.23 148.41,-190.72 142.13,-193.81"/>
<text text-anchor="middle" x="174" y="-175" font-family="Helvetica,sans-Serif" font-size="10.00"> m_pElements</text>
</g>
<!-- Node7&#45;&gt;Node1 -->
<g id="edge6" class="edge">
<title>Node7&#45;&gt;Node1</title>
<path fill="none" stroke="#9a32cd" stroke-dasharray="5,2" d="M78,-57.04C78,-44.67 78,-29.12 78,-19.63"/>
<polygon fill="#9a32cd" stroke="#9a32cd" points="74.5,-57.23 78,-67.23 81.5,-57.23 74.5,-57.23"/>
<text text-anchor="middle" x="121.5" y="-41" font-family="Helvetica,sans-Serif" font-size="10.00"> s_sharedFileUtils</text>
</g>
<!-- Node7&#45;&gt;Node7 -->
<g id="edge9" class="edge">
<title>Node7&#45;&gt;Node7</title>
<path fill="none" stroke="#9a32cd" stroke-dasharray="5,2" d="M123.23,-81.97C127.97,-81 131,-79.34 131,-77 131,-73.25 123.24,-71.26 113.17,-71.02"/>
<polygon fill="#9a32cd" stroke="#9a32cd" points="122.77,-78.5 113.17,-82.98 123.47,-85.47 122.77,-78.5"/>
<text text-anchor="middle" x="174.5" y="-74.5" font-family="Helvetica,sans-Serif" font-size="10.00"> s_sharedFileUtils</text>
</g>
</g>
</svg>
