<?xml version="1.0" encoding="UTF-8" standalone="no"?>
<!DOCTYPE svg PUBLIC "-//W3C//DTD SVG 1.1//EN"
 "http://www.w3.org/Graphics/SVG/1.1/DTD/svg11.dtd">
<!-- Generated by graphviz version 2.43.0 (0)
 -->
<!-- Title: /home/runner/work/cocos&#45;headers/cocos&#45;headers/cocos2dx/actions/CCActionInstant.h Pages: 1 -->
<svg width="676pt" height="489pt"
 viewBox="0.00 0.00 675.50 489.00" xmlns="http://www.w3.org/2000/svg" xmlns:xlink="http://www.w3.org/1999/xlink">
<g id="graph0" class="graph" transform="scale(1 1) rotate(0) translate(4 485)">
<title>/home/runner/work/cocos&#45;headers/cocos&#45;headers/cocos2dx/actions/CCActionInstant.h</title>
<!-- Node1 -->
<g id="node1" class="node">
<title>Node1</title>
<g id="a_node1"><a xlink:title=" ">
<polygon fill="#999999" stroke="#666666" points="493,-481 299,-481 299,-440 493,-440 493,-481"/>
<text text-anchor="start" x="307" y="-469" font-family="Helvetica,sans-Serif" font-size="10.00">/home/runner/work/cocos</text>
<text text-anchor="start" x="307" y="-458" font-family="Helvetica,sans-Serif" font-size="10.00">&#45;headers/cocos&#45;headers</text>
<text text-anchor="middle" x="396" y="-447" font-family="Helvetica,sans-Serif" font-size="10.00">/cocos2dx/actions/CCActionInstant.h</text>
</a>
</g>
</g>
<!-- Node2 -->
<g id="node2" class="node">
<title>Node2</title>
<g id="a_node2"><a xlink:title=" ">
<polygon fill="#e0e0e0" stroke="#999999" points="412,-184 368,-184 368,-165 412,-165 412,-184"/>
<text text-anchor="middle" x="390" y="-172" font-family="Helvetica,sans-Serif" font-size="10.00">string</text>
</a>
</g>
</g>
<!-- Node1&#45;&gt;Node2 -->
<g id="edge1" class="edge">
<title>Node1&#45;&gt;Node2</title>
<path fill="none" stroke="#63b8ff" d="M396,-439.71C396,-416.09 396,-375.41 396,-340.5 396,-340.5 396,-340.5 396,-283.5 396,-252.14 393.45,-215.74 391.67,-194.22"/>
<polygon fill="#63b8ff" stroke="#63b8ff" points="395.15,-193.83 390.81,-184.17 388.18,-194.43 395.15,-193.83"/>
</g>
<!-- Node3 -->
<g id="node3" class="node">
<title>Node3</title>
<g id="a_node3"><a xlink:href="../../d7/d80/cc_type_info_8h.html" target="_top" xlink:title=" ">
<polygon fill="white" stroke="#666666" points="535.5,-404 458.5,-404 458.5,-385 535.5,-385 535.5,-404"/>
<text text-anchor="middle" x="497" y="-392" font-family="Helvetica,sans-Serif" font-size="10.00">ccTypeInfo.h</text>
</a>
</g>
</g>
<!-- Node1&#45;&gt;Node3 -->
<g id="edge2" class="edge">
<title>Node1&#45;&gt;Node3</title>
<path fill="none" stroke="#63b8ff" d="M426.85,-439.95C442.37,-430.12 460.81,-418.43 474.89,-409.51"/>
<polygon fill="#63b8ff" stroke="#63b8ff" points="476.87,-412.4 483.44,-404.09 473.12,-406.49 476.87,-412.4"/>
</g>
<!-- Node11 -->
<g id="node11" class="node">
<title>Node11</title>
<g id="a_node11"><a xlink:href="../../d6/d35/_c_c_action_8h.html" target="_top" xlink:title=" ">
<polygon fill="white" stroke="#666666" points="173,-404 103,-404 103,-385 173,-385 173,-404"/>
<text text-anchor="middle" x="138" y="-392" font-family="Helvetica,sans-Serif" font-size="10.00">CCAction.h</text>
</a>
</g>
</g>
<!-- Node1&#45;&gt;Node11 -->
<g id="edge11" class="edge">
<title>Node1&#45;&gt;Node11</title>
<path fill="none" stroke="#63b8ff" d="M317.19,-439.95C272.9,-428.96 219.25,-415.65 182.27,-406.48"/>
<polygon fill="#63b8ff" stroke="#63b8ff" points="182.85,-403.02 172.3,-404.01 181.16,-409.81 182.85,-403.02"/>
</g>
<!-- Node4 -->
<g id="node4" class="node">
<title>Node4</title>
<g id="a_node4"><a xlink:href="../../d3/d41/_c_c_platform_macros_8h.html" target="_top" xlink:title=" ">
<polygon fill="white" stroke="#666666" points="296.5,-129 135.5,-129 135.5,-110 296.5,-110 296.5,-129"/>
<text text-anchor="middle" x="216" y="-117" font-family="Helvetica,sans-Serif" font-size="10.00">platform/CCPlatformMacros.h</text>
</a>
</g>
</g>
<!-- Node3&#45;&gt;Node4 -->
<g id="edge3" class="edge">
<title>Node3&#45;&gt;Node4</title>
<path fill="none" stroke="#63b8ff" d="M487.61,-384.81C479.03,-376.4 466.58,-362.92 459,-349 444.91,-323.13 440,-314.96 440,-285.5 440,-285.5 440,-285.5 440,-228.5 440,-199.04 442.62,-185.01 421,-165 403.6,-148.89 350.85,-137.65 303.21,-130.5"/>
<polygon fill="#63b8ff" stroke="#63b8ff" points="303.54,-127.01 293.14,-129.04 302.54,-133.94 303.54,-127.01"/>
</g>
<!-- Node8 -->
<g id="node8" class="node">
<title>Node8</title>
<g id="a_node8"><a xlink:title=" ">
<polygon fill="#e0e0e0" stroke="#999999" points="525.5,-349 468.5,-349 468.5,-330 525.5,-330 525.5,-349"/>
<text text-anchor="middle" x="497" y="-337" font-family="Helvetica,sans-Serif" font-size="10.00">typeinfo</text>
</a>
</g>
</g>
<!-- Node3&#45;&gt;Node8 -->
<g id="edge8" class="edge">
<title>Node3&#45;&gt;Node8</title>
<path fill="none" stroke="#63b8ff" d="M497,-384.75C497,-377.8 497,-367.85 497,-359.13"/>
<polygon fill="#63b8ff" stroke="#63b8ff" points="500.5,-359.09 497,-349.09 493.5,-359.09 500.5,-359.09"/>
</g>
<!-- Node9 -->
<g id="node9" class="node">
<title>Node9</title>
<g id="a_node9"><a xlink:title=" ">
<polygon fill="#e0e0e0" stroke="#999999" points="596.5,-349 543.5,-349 543.5,-330 596.5,-330 596.5,-349"/>
<text text-anchor="middle" x="570" y="-337" font-family="Helvetica,sans-Serif" font-size="10.00">ctype.h</text>
</a>
</g>
</g>
<!-- Node3&#45;&gt;Node9 -->
<g id="edge9" class="edge">
<title>Node3&#45;&gt;Node9</title>
<path fill="none" stroke="#63b8ff" d="M508.73,-384.98C519.73,-377 536.42,-364.88 549.6,-355.31"/>
<polygon fill="#63b8ff" stroke="#63b8ff" points="552.02,-357.88 558.06,-349.17 547.91,-352.21 552.02,-357.88"/>
</g>
<!-- Node10 -->
<g id="node10" class="node">
<title>Node10</title>
<g id="a_node10"><a xlink:title=" ">
<polygon fill="#e0e0e0" stroke="#999999" points="667.5,-349 614.5,-349 614.5,-330 667.5,-330 667.5,-349"/>
<text text-anchor="middle" x="641" y="-337" font-family="Helvetica,sans-Serif" font-size="10.00">string.h</text>
</a>
</g>
</g>
<!-- Node3&#45;&gt;Node10 -->
<g id="edge10" class="edge">
<title>Node3&#45;&gt;Node10</title>
<path fill="none" stroke="#63b8ff" d="M520.14,-384.98C543.82,-376.27 580.87,-362.63 607.71,-352.75"/>
<polygon fill="#63b8ff" stroke="#63b8ff" points="609.27,-355.91 617.44,-349.17 606.85,-349.34 609.27,-355.91"/>
</g>
<!-- Node5 -->
<g id="node5" class="node">
<title>Node5</title>
<g id="a_node5"><a xlink:href="../../db/d9f/cc_config_8h.html" target="_top" xlink:title="cocos2d (cc) configuration file">
<polygon fill="white" stroke="#666666" points="109.5,-74 42.5,-74 42.5,-55 109.5,-55 109.5,-74"/>
<text text-anchor="middle" x="76" y="-62" font-family="Helvetica,sans-Serif" font-size="10.00">ccConfig.h</text>
</a>
</g>
</g>
<!-- Node4&#45;&gt;Node5 -->
<g id="edge4" class="edge">
<title>Node4&#45;&gt;Node5</title>
<path fill="none" stroke="#63b8ff" d="M193.51,-109.98C170.48,-101.27 134.46,-87.63 108.37,-77.75"/>
<polygon fill="#63b8ff" stroke="#63b8ff" points="109.49,-74.44 98.9,-74.17 107.02,-80.98 109.49,-74.44"/>
</g>
<!-- Node6 -->
<g id="node6" class="node">
<title>Node6</title>
<g id="a_node6"><a xlink:href="../../dd/d96/_c_c_platform_config_8h.html" target="_top" xlink:title=" ">
<polygon fill="white" stroke="#666666" points="250.5,-19 93.5,-19 93.5,0 250.5,0 250.5,-19"/>
<text text-anchor="middle" x="172" y="-7" font-family="Helvetica,sans-Serif" font-size="10.00">platform/CCPlatformConfig.h</text>
</a>
</g>
</g>
<!-- Node4&#45;&gt;Node6 -->
<g id="edge6" class="edge">
<title>Node4&#45;&gt;Node6</title>
<path fill="none" stroke="#63b8ff" d="M226.4,-109.74C239.78,-97.37 260.05,-74.15 249,-55 240.58,-40.41 225.35,-30.17 210.65,-23.23"/>
<polygon fill="#63b8ff" stroke="#63b8ff" points="211.71,-19.87 201.14,-19.13 208.93,-26.3 211.71,-19.87"/>
</g>
<!-- Node7 -->
<g id="node7" class="node">
<title>Node7</title>
<g id="a_node7"><a xlink:title=" ">
<polygon fill="#e0e0e0" stroke="#999999" points="240.5,-74 127.5,-74 127.5,-55 240.5,-55 240.5,-74"/>
<text text-anchor="middle" x="184" y="-62" font-family="Helvetica,sans-Serif" font-size="10.00">CCPlatformDefine.h</text>
</a>
</g>
</g>
<!-- Node4&#45;&gt;Node7 -->
<g id="edge7" class="edge">
<title>Node4&#45;&gt;Node7</title>
<path fill="none" stroke="#63b8ff" d="M210.72,-109.75C206.29,-102.42 199.84,-91.73 194.38,-82.7"/>
<polygon fill="#63b8ff" stroke="#63b8ff" points="197.35,-80.84 189.19,-74.09 191.36,-84.46 197.35,-80.84"/>
</g>
<!-- Node5&#45;&gt;Node6 -->
<g id="edge5" class="edge">
<title>Node5&#45;&gt;Node6</title>
<path fill="none" stroke="#63b8ff" d="M91.42,-54.98C106.45,-46.69 129.54,-33.94 147.16,-24.22"/>
<polygon fill="#63b8ff" stroke="#63b8ff" points="149.23,-27.07 156.3,-19.17 145.85,-20.94 149.23,-27.07"/>
</g>
<!-- Node11&#45;&gt;Node4 -->
<g id="edge25" class="edge">
<title>Node11&#45;&gt;Node4</title>
<path fill="none" stroke="#63b8ff" d="M102.94,-387.13C78.59,-381.06 46.89,-369.68 26,-349 4.32,-327.55 0,-316 0,-285.5 0,-285.5 0,-285.5 0,-228.5 0,-169.15 66.05,-142.41 125.1,-130.37"/>
<polygon fill="#63b8ff" stroke="#63b8ff" points="126.1,-133.74 135.26,-128.42 124.78,-126.87 126.1,-133.74"/>
</g>
<!-- Node12 -->
<g id="node12" class="node">
<title>Node12</title>
<g id="a_node12"><a xlink:href="../../dd/d69/_c_c_object_8h.html" target="_top" xlink:title=" ">
<polygon fill="white" stroke="#666666" points="238,-294 136,-294 136,-275 238,-275 238,-294"/>
<text text-anchor="middle" x="187" y="-282" font-family="Helvetica,sans-Serif" font-size="10.00">cocoa/CCObject.h</text>
</a>
</g>
</g>
<!-- Node11&#45;&gt;Node12 -->
<g id="edge12" class="edge">
<title>Node11&#45;&gt;Node12</title>
<path fill="none" stroke="#63b8ff" d="M143.1,-384.79C148.19,-375.94 156.08,-361.74 162,-349 168.94,-334.06 175.72,-316.61 180.46,-303.79"/>
<polygon fill="#63b8ff" stroke="#63b8ff" points="183.8,-304.86 183.93,-294.27 177.22,-302.47 183.8,-304.86"/>
</g>
<!-- Node17 -->
<g id="node17" class="node">
<title>Node17</title>
<g id="a_node17"><a xlink:href="../../d6/d09/_c_c_geometry_8h.html" target="_top" xlink:title=" ">
<polygon fill="white" stroke="#666666" points="153,-349 35,-349 35,-330 153,-330 153,-349"/>
<text text-anchor="middle" x="94" y="-337" font-family="Helvetica,sans-Serif" font-size="10.00">cocoa/CCGeometry.h</text>
</a>
</g>
</g>
<!-- Node11&#45;&gt;Node17 -->
<g id="edge21" class="edge">
<title>Node11&#45;&gt;Node17</title>
<path fill="none" stroke="#63b8ff" d="M130.73,-384.75C124.46,-377.18 115.21,-366.05 107.57,-356.84"/>
<polygon fill="#63b8ff" stroke="#63b8ff" points="110.21,-354.55 101.13,-349.09 104.83,-359.02 110.21,-354.55"/>
</g>
<!-- Node13 -->
<g id="node13" class="node">
<title>Node13</title>
<g id="a_node13"><a xlink:href="../../d9/d2d/_c_c_data_visitor_8h.html" target="_top" xlink:title=" ">
<polygon fill="white" stroke="#666666" points="367.5,-239 274.5,-239 274.5,-220 367.5,-220 367.5,-239"/>
<text text-anchor="middle" x="321" y="-227" font-family="Helvetica,sans-Serif" font-size="10.00">CCDataVisitor.h</text>
</a>
</g>
</g>
<!-- Node12&#45;&gt;Node13 -->
<g id="edge13" class="edge">
<title>Node12&#45;&gt;Node13</title>
<path fill="none" stroke="#63b8ff" d="M208.53,-274.98C230.47,-266.3 264.74,-252.75 289.69,-242.88"/>
<polygon fill="#63b8ff" stroke="#63b8ff" points="291.07,-246.1 299.08,-239.17 288.49,-239.59 291.07,-246.1"/>
</g>
<!-- Node14 -->
<g id="node14" class="node">
<title>Node14</title>
<g id="a_node14"><a xlink:href="../../d9/dc8/cc_macros_8h.html" target="_top" xlink:title=" ">
<polygon fill="white" stroke="#666666" points="196.5,-239 125.5,-239 125.5,-220 196.5,-220 196.5,-239"/>
<text text-anchor="middle" x="161" y="-227" font-family="Helvetica,sans-Serif" font-size="10.00">ccMacros.h</text>
</a>
</g>
</g>
<!-- Node12&#45;&gt;Node14 -->
<g id="edge16" class="edge">
<title>Node12&#45;&gt;Node14</title>
<path fill="none" stroke="#63b8ff" d="M182.71,-274.75C179.19,-267.57 174.09,-257.18 169.72,-248.27"/>
<polygon fill="#63b8ff" stroke="#63b8ff" points="172.76,-246.53 165.21,-239.09 166.48,-249.61 172.76,-246.53"/>
</g>
<!-- Node13&#45;&gt;Node2 -->
<g id="edge15" class="edge">
<title>Node13&#45;&gt;Node2</title>
<path fill="none" stroke="#63b8ff" d="M332.09,-219.98C342.49,-212 358.26,-199.88 370.72,-190.31"/>
<polygon fill="#63b8ff" stroke="#63b8ff" points="372.91,-193.04 378.71,-184.17 368.65,-187.49 372.91,-193.04"/>
</g>
<!-- Node13&#45;&gt;Node4 -->
<g id="edge14" class="edge">
<title>Node13&#45;&gt;Node4</title>
<path fill="none" stroke="#63b8ff" d="M323.78,-219.84C327.4,-206.77 332.08,-181.73 321,-165 310.48,-149.12 293.05,-138.89 275.38,-132.31"/>
<polygon fill="#63b8ff" stroke="#63b8ff" points="276.17,-128.89 265.58,-129.02 273.94,-135.52 276.17,-128.89"/>
</g>
<!-- Node14&#45;&gt;Node5 -->
<g id="edge20" class="edge">
<title>Node14&#45;&gt;Node5</title>
<path fill="none" stroke="#63b8ff" d="M139.99,-219.88C124.98,-212.59 105.64,-200.66 95,-184 75.35,-153.23 73.7,-109.05 74.61,-84.25"/>
<polygon fill="#63b8ff" stroke="#63b8ff" points="78.12,-84.23 75.18,-74.05 71.13,-83.84 78.12,-84.23"/>
</g>
<!-- Node15 -->
<g id="node15" class="node">
<title>Node15</title>
<g id="a_node15"><a xlink:href="../../d5/d22/_c_c_common_8h.html" target="_top" xlink:title=" ">
<polygon fill="white" stroke="#666666" points="312,-184 184,-184 184,-165 312,-165 312,-184"/>
<text text-anchor="middle" x="248" y="-172" font-family="Helvetica,sans-Serif" font-size="10.00">platform/CCCommon.h</text>
</a>
</g>
</g>
<!-- Node14&#45;&gt;Node15 -->
<g id="edge17" class="edge">
<title>Node14&#45;&gt;Node15</title>
<path fill="none" stroke="#63b8ff" d="M174.98,-219.98C188.47,-211.77 209.13,-199.18 225.04,-189.49"/>
<polygon fill="#63b8ff" stroke="#63b8ff" points="227.05,-192.36 233.77,-184.17 223.41,-186.38 227.05,-192.36"/>
</g>
<!-- Node16 -->
<g id="node16" class="node">
<title>Node16</title>
<g id="a_node16"><a xlink:title=" ">
<polygon fill="#e0e0e0" stroke="#999999" points="166,-184 104,-184 104,-165 166,-165 166,-184"/>
<text text-anchor="middle" x="135" y="-172" font-family="Helvetica,sans-Serif" font-size="10.00">CCStdC.h</text>
</a>
</g>
</g>
<!-- Node14&#45;&gt;Node16 -->
<g id="edge19" class="edge">
<title>Node14&#45;&gt;Node16</title>
<path fill="none" stroke="#63b8ff" d="M156.71,-219.75C153.19,-212.57 148.09,-202.18 143.72,-193.27"/>
<polygon fill="#63b8ff" stroke="#63b8ff" points="146.76,-191.53 139.21,-184.09 140.48,-194.61 146.76,-191.53"/>
</g>
<!-- Node15&#45;&gt;Node4 -->
<g id="edge18" class="edge">
<title>Node15&#45;&gt;Node4</title>
<path fill="none" stroke="#63b8ff" d="M242.72,-164.75C238.29,-157.42 231.84,-146.73 226.38,-137.7"/>
<polygon fill="#63b8ff" stroke="#63b8ff" points="229.35,-135.84 221.19,-129.09 223.36,-139.46 229.35,-135.84"/>
</g>
<!-- Node17&#45;&gt;Node4 -->
<g id="edge22" class="edge">
<title>Node17&#45;&gt;Node4</title>
<path fill="none" stroke="#63b8ff" d="M83.56,-329.87C74.58,-321.7 62.26,-308.55 57,-294 40.97,-249.65 50.23,-210.66 95,-165 110.83,-148.86 133,-138.52 154.05,-131.93"/>
<polygon fill="#63b8ff" stroke="#63b8ff" points="155.3,-135.21 163.94,-129.07 153.36,-128.49 155.3,-135.21"/>
</g>
<!-- Node17&#45;&gt;Node12 -->
<g id="edge23" class="edge">
<title>Node17&#45;&gt;Node12</title>
<path fill="none" stroke="#63b8ff" d="M108.94,-329.98C123.5,-321.69 145.87,-308.94 162.93,-299.22"/>
<polygon fill="#63b8ff" stroke="#63b8ff" points="164.83,-302.16 171.79,-294.17 161.36,-296.08 164.83,-302.16"/>
</g>
<!-- Node18 -->
<g id="node18" class="node">
<title>Node18</title>
<g id="a_node18"><a xlink:title=" ">
<polygon fill="#e0e0e0" stroke="#999999" points="117.5,-294 66.5,-294 66.5,-275 117.5,-275 117.5,-294"/>
<text text-anchor="middle" x="92" y="-282" font-family="Helvetica,sans-Serif" font-size="10.00">math.h</text>
</a>
</g>
</g>
<!-- Node17&#45;&gt;Node18 -->
<g id="edge24" class="edge">
<title>Node17&#45;&gt;Node18</title>
<path fill="none" stroke="#63b8ff" d="M93.67,-329.75C93.41,-322.8 93.03,-312.85 92.7,-304.13"/>
<polygon fill="#63b8ff" stroke="#63b8ff" points="96.2,-303.95 92.32,-294.09 89.2,-304.21 96.2,-303.95"/>
</g>
</g>
</svg>
