<?xml version="1.0" encoding="UTF-8" standalone="no"?>
<!DOCTYPE svg PUBLIC "-//W3C//DTD SVG 1.1//EN"
 "http://www.w3.org/Graphics/SVG/1.1/DTD/svg11.dtd">
<!-- Generated by graphviz version 2.43.0 (0)
 -->
<!-- Title: /home/runner/work/cocos&#45;headers/cocos&#45;headers/cocos2dx/actions/CCActionInstant.h Pages: 1 -->
<svg width="676pt" height="498pt"
 viewBox="0.00 0.00 675.50 498.00" xmlns="http://www.w3.org/2000/svg" xmlns:xlink="http://www.w3.org/1999/xlink">
<g id="graph0" class="graph" transform="scale(1 1) rotate(0) translate(4 494)">
<title>/home/runner/work/cocos&#45;headers/cocos&#45;headers/cocos2dx/actions/CCActionInstant.h</title>
<!-- Node1 -->
<g id="node1" class="node">
<title>Node1</title>
<g id="a_node1"><a xlink:title=" ">
<polygon fill="#bfbfbf" stroke="black" points="299,-448.5 299,-489.5 493,-489.5 493,-448.5 299,-448.5"/>
<text text-anchor="start" x="307" y="-477.5" font-family="Helvetica,sans-Serif" font-size="10.00">/home/runner/work/cocos</text>
<text text-anchor="start" x="307" y="-466.5" font-family="Helvetica,sans-Serif" font-size="10.00">&#45;headers/cocos&#45;headers</text>
<text text-anchor="middle" x="396" y="-455.5" font-family="Helvetica,sans-Serif" font-size="10.00">/cocos2dx/actions/CCActionInstant.h</text>
</a>
</g>
</g>
<!-- Node2 -->
<g id="node2" class="node">
<title>Node2</title>
<g id="a_node2"><a xlink:title=" ">
<polygon fill="none" stroke="#bfbfbf" points="368,-168.5 368,-187.5 412,-187.5 412,-168.5 368,-168.5"/>
<text text-anchor="middle" x="390" y="-175.5" font-family="Helvetica,sans-Serif" font-size="10.00">string</text>
</a>
</g>
</g>
<!-- Node1&#45;&gt;Node2 -->
<g id="edge1" class="edge">
<title>Node1&#45;&gt;Node2</title>
<path fill="none" stroke="midnightblue" d="M396,-448.3C396,-424.35 396,-382.71 396,-347 396,-347 396,-347 396,-289 396,-256.9 393.42,-219.61 391.64,-197.73"/>
<polygon fill="midnightblue" stroke="midnightblue" points="395.11,-197.22 390.78,-187.55 388.14,-197.81 395.11,-197.22"/>
</g>
<!-- Node3 -->
<g id="node3" class="node">
<title>Node3</title>
<g id="a_node3"><a xlink:href="../../d7/d80/cc_type_info_8h.html" target="_top" xlink:title=" ">
<polygon fill="none" stroke="black" points="458.5,-392.5 458.5,-411.5 535.5,-411.5 535.5,-392.5 458.5,-392.5"/>
<text text-anchor="middle" x="497" y="-399.5" font-family="Helvetica,sans-Serif" font-size="10.00">ccTypeInfo.h</text>
</a>
</g>
</g>
<!-- Node1&#45;&gt;Node3 -->
<g id="edge2" class="edge">
<title>Node1&#45;&gt;Node3</title>
<path fill="none" stroke="midnightblue" d="M426.3,-448.5C441.94,-438.44 460.66,-426.38 474.91,-417.21"/>
<polygon fill="midnightblue" stroke="midnightblue" points="477.04,-420.01 483.56,-411.65 473.25,-414.12 477.04,-420.01"/>
</g>
<!-- Node11 -->
<g id="node11" class="node">
<title>Node11</title>
<g id="a_node11"><a xlink:href="../../d6/d35/_c_c_action_8h.html" target="_top" xlink:title=" ">
<polygon fill="none" stroke="black" points="103,-392.5 103,-411.5 173,-411.5 173,-392.5 103,-392.5"/>
<text text-anchor="middle" x="138" y="-399.5" font-family="Helvetica,sans-Serif" font-size="10.00">CCAction.h</text>
</a>
</g>
</g>
<!-- Node1&#45;&gt;Node11 -->
<g id="edge11" class="edge">
<title>Node1&#45;&gt;Node11</title>
<path fill="none" stroke="midnightblue" d="M318.59,-448.5C273.96,-437.25 219.45,-423.52 182.07,-414.1"/>
<polygon fill="midnightblue" stroke="midnightblue" points="182.56,-410.62 172,-411.57 180.85,-417.4 182.56,-410.62"/>
</g>
<!-- Node4 -->
<g id="node4" class="node">
<title>Node4</title>
<g id="a_node4"><a xlink:href="../../d3/d41/_c_c_platform_macros_8h.html" target="_top" xlink:title=" ">
<polygon fill="none" stroke="black" points="135.5,-112.5 135.5,-131.5 296.5,-131.5 296.5,-112.5 135.5,-112.5"/>
<text text-anchor="middle" x="216" y="-119.5" font-family="Helvetica,sans-Serif" font-size="10.00">platform/CCPlatformMacros.h</text>
</a>
</g>
</g>
<!-- Node3&#45;&gt;Node4 -->
<g id="edge3" class="edge">
<title>Node3&#45;&gt;Node4</title>
<path fill="none" stroke="midnightblue" d="M487.59,-392.2C479.01,-383.69 466.55,-370.05 459,-356 444.76,-329.48 440,-321.1 440,-291 440,-291 440,-291 440,-233 440,-202.9 443,-188.54 421,-168 403.5,-151.66 349.96,-140.24 301.98,-132.99"/>
<polygon fill="midnightblue" stroke="midnightblue" points="302.24,-129.49 291.84,-131.51 301.23,-136.42 302.24,-129.49"/>
</g>
<!-- Node8 -->
<g id="node8" class="node">
<title>Node8</title>
<g id="a_node8"><a xlink:title=" ">
<polygon fill="none" stroke="#bfbfbf" points="468.5,-336.5 468.5,-355.5 525.5,-355.5 525.5,-336.5 468.5,-336.5"/>
<text text-anchor="middle" x="497" y="-343.5" font-family="Helvetica,sans-Serif" font-size="10.00">typeinfo</text>
</a>
</g>
</g>
<!-- Node3&#45;&gt;Node8 -->
<g id="edge8" class="edge">
<title>Node3&#45;&gt;Node8</title>
<path fill="none" stroke="midnightblue" d="M497,-392.08C497,-385.01 497,-374.86 497,-365.99"/>
<polygon fill="midnightblue" stroke="midnightblue" points="500.5,-365.75 497,-355.75 493.5,-365.75 500.5,-365.75"/>
</g>
<!-- Node9 -->
<g id="node9" class="node">
<title>Node9</title>
<g id="a_node9"><a xlink:title=" ">
<polygon fill="none" stroke="#bfbfbf" points="543.5,-336.5 543.5,-355.5 596.5,-355.5 596.5,-336.5 543.5,-336.5"/>
<text text-anchor="middle" x="570" y="-343.5" font-family="Helvetica,sans-Serif" font-size="10.00">ctype.h</text>
</a>
</g>
</g>
<!-- Node3&#45;&gt;Node9 -->
<g id="edge9" class="edge">
<title>Node3&#45;&gt;Node9</title>
<path fill="none" stroke="midnightblue" d="M508.73,-392.32C519.84,-384.11 536.74,-371.6 549.98,-361.81"/>
<polygon fill="midnightblue" stroke="midnightblue" points="552.1,-364.59 558.06,-355.83 547.94,-358.97 552.1,-364.59"/>
</g>
<!-- Node10 -->
<g id="node10" class="node">
<title>Node10</title>
<g id="a_node10"><a xlink:title=" ">
<polygon fill="none" stroke="#bfbfbf" points="614.5,-336.5 614.5,-355.5 667.5,-355.5 667.5,-336.5 614.5,-336.5"/>
<text text-anchor="middle" x="641" y="-343.5" font-family="Helvetica,sans-Serif" font-size="10.00">string.h</text>
</a>
</g>
</g>
<!-- Node3&#45;&gt;Node10 -->
<g id="edge10" class="edge">
<title>Node3&#45;&gt;Node10</title>
<path fill="none" stroke="midnightblue" d="M519.82,-392.44C543.83,-383.44 581.83,-369.19 608.87,-359.05"/>
<polygon fill="midnightblue" stroke="midnightblue" points="610.16,-362.3 618.29,-355.52 607.7,-355.75 610.16,-362.3"/>
</g>
<!-- Node5 -->
<g id="node5" class="node">
<title>Node5</title>
<g id="a_node5"><a xlink:href="../../db/d9f/cc_config_8h.html" target="_top" xlink:title="cocos2d (cc) configuration file">
<polygon fill="none" stroke="black" points="42.5,-56.5 42.5,-75.5 109.5,-75.5 109.5,-56.5 42.5,-56.5"/>
<text text-anchor="middle" x="76" y="-63.5" font-family="Helvetica,sans-Serif" font-size="10.00">ccConfig.h</text>
</a>
</g>
</g>
<!-- Node4&#45;&gt;Node5 -->
<g id="edge4" class="edge">
<title>Node4&#45;&gt;Node5</title>
<path fill="none" stroke="midnightblue" d="M193.82,-112.44C170.57,-103.48 133.85,-89.31 107.58,-79.18"/>
<polygon fill="midnightblue" stroke="midnightblue" points="108.67,-75.85 98.08,-75.52 106.15,-82.38 108.67,-75.85"/>
</g>
<!-- Node6 -->
<g id="node6" class="node">
<title>Node6</title>
<g id="a_node6"><a xlink:href="../../dd/d96/_c_c_platform_config_8h.html" target="_top" xlink:title=" ">
<polygon fill="none" stroke="black" points="93.5,-0.5 93.5,-19.5 250.5,-19.5 250.5,-0.5 93.5,-0.5"/>
<text text-anchor="middle" x="172" y="-7.5" font-family="Helvetica,sans-Serif" font-size="10.00">platform/CCPlatformConfig.h</text>
</a>
</g>
</g>
<!-- Node4&#45;&gt;Node6 -->
<g id="edge6" class="edge">
<title>Node4&#45;&gt;Node6</title>
<path fill="none" stroke="midnightblue" d="M226,-112.44C239.42,-99.87 260.34,-75.76 249,-56 240.38,-40.99 224.61,-30.5 209.57,-23.46"/>
<polygon fill="midnightblue" stroke="midnightblue" points="210.94,-20.24 200.37,-19.51 208.18,-26.67 210.94,-20.24"/>
</g>
<!-- Node7 -->
<g id="node7" class="node">
<title>Node7</title>
<g id="a_node7"><a xlink:title=" ">
<polygon fill="none" stroke="#bfbfbf" points="127.5,-56.5 127.5,-75.5 240.5,-75.5 240.5,-56.5 127.5,-56.5"/>
<text text-anchor="middle" x="184" y="-63.5" font-family="Helvetica,sans-Serif" font-size="10.00">CCPlatformDefine.h</text>
</a>
</g>
</g>
<!-- Node4&#45;&gt;Node7 -->
<g id="edge7" class="edge">
<title>Node4&#45;&gt;Node7</title>
<path fill="none" stroke="midnightblue" d="M210.72,-112.08C206.29,-104.61 199.84,-93.72 194.38,-84.52"/>
<polygon fill="midnightblue" stroke="midnightblue" points="197.29,-82.57 189.19,-75.75 191.27,-86.14 197.29,-82.57"/>
</g>
<!-- Node5&#45;&gt;Node6 -->
<g id="edge5" class="edge">
<title>Node5&#45;&gt;Node6</title>
<path fill="none" stroke="midnightblue" d="M91.42,-56.32C106.54,-47.82 129.82,-34.73 147.47,-24.8"/>
<polygon fill="midnightblue" stroke="midnightblue" points="149.61,-27.61 156.61,-19.65 146.18,-21.51 149.61,-27.61"/>
</g>
<!-- Node11&#45;&gt;Node4 -->
<g id="edge25" class="edge">
<title>Node11&#45;&gt;Node4</title>
<path fill="none" stroke="midnightblue" d="M102.88,-394.51C78.51,-388.35 46.8,-376.83 26,-356 4.02,-333.98 0,-322.11 0,-291 0,-291 0,-291 0,-233 0,-173.43 66.05,-146.1 125.1,-133.58"/>
<polygon fill="midnightblue" stroke="midnightblue" points="126.14,-136.94 135.26,-131.55 124.77,-130.07 126.14,-136.94"/>
</g>
<!-- Node12 -->
<g id="node12" class="node">
<title>Node12</title>
<g id="a_node12"><a xlink:href="../../dd/d69/_c_c_object_8h.html" target="_top" xlink:title=" ">
<polygon fill="none" stroke="black" points="136,-280.5 136,-299.5 238,-299.5 238,-280.5 136,-280.5"/>
<text text-anchor="middle" x="187" y="-287.5" font-family="Helvetica,sans-Serif" font-size="10.00">cocoa/CCObject.h</text>
</a>
</g>
</g>
<!-- Node11&#45;&gt;Node12 -->
<g id="edge12" class="edge">
<title>Node11&#45;&gt;Node12</title>
<path fill="none" stroke="midnightblue" d="M143.11,-392.2C148.21,-383.24 156.11,-368.89 162,-356 169.07,-340.54 175.91,-322.45 180.65,-309.28"/>
<polygon fill="midnightblue" stroke="midnightblue" points="184.06,-310.15 184.09,-299.55 177.46,-307.81 184.06,-310.15"/>
</g>
<!-- Node17 -->
<g id="node17" class="node">
<title>Node17</title>
<g id="a_node17"><a xlink:href="../../d6/d09/_c_c_geometry_8h.html" target="_top" xlink:title=" ">
<polygon fill="none" stroke="black" points="35,-336.5 35,-355.5 153,-355.5 153,-336.5 35,-336.5"/>
<text text-anchor="middle" x="94" y="-343.5" font-family="Helvetica,sans-Serif" font-size="10.00">cocoa/CCGeometry.h</text>
</a>
</g>
</g>
<!-- Node11&#45;&gt;Node17 -->
<g id="edge21" class="edge">
<title>Node11&#45;&gt;Node17</title>
<path fill="none" stroke="midnightblue" d="M130.73,-392.08C124.46,-384.38 115.21,-373.03 107.57,-363.65"/>
<polygon fill="midnightblue" stroke="midnightblue" points="110.16,-361.29 101.13,-355.75 104.73,-365.71 110.16,-361.29"/>
</g>
<!-- Node13 -->
<g id="node13" class="node">
<title>Node13</title>
<g id="a_node13"><a xlink:href="../../d9/d2d/_c_c_data_visitor_8h.html" target="_top" xlink:title=" ">
<polygon fill="none" stroke="black" points="274.5,-224.5 274.5,-243.5 367.5,-243.5 367.5,-224.5 274.5,-224.5"/>
<text text-anchor="middle" x="321" y="-231.5" font-family="Helvetica,sans-Serif" font-size="10.00">CCDataVisitor.h</text>
</a>
</g>
</g>
<!-- Node12&#45;&gt;Node13 -->
<g id="edge13" class="edge">
<title>Node12&#45;&gt;Node13</title>
<path fill="none" stroke="midnightblue" d="M208.23,-280.44C230.38,-271.52 265.32,-257.44 290.44,-247.32"/>
<polygon fill="midnightblue" stroke="midnightblue" points="291.9,-250.5 299.87,-243.52 289.28,-244.01 291.9,-250.5"/>
</g>
<!-- Node14 -->
<g id="node14" class="node">
<title>Node14</title>
<g id="a_node14"><a xlink:href="../../d9/dc8/cc_macros_8h.html" target="_top" xlink:title=" ">
<polygon fill="none" stroke="black" points="125.5,-224.5 125.5,-243.5 196.5,-243.5 196.5,-224.5 125.5,-224.5"/>
<text text-anchor="middle" x="161" y="-231.5" font-family="Helvetica,sans-Serif" font-size="10.00">ccMacros.h</text>
</a>
</g>
</g>
<!-- Node12&#45;&gt;Node14 -->
<g id="edge16" class="edge">
<title>Node12&#45;&gt;Node14</title>
<path fill="none" stroke="midnightblue" d="M182.71,-280.08C179.15,-272.69 173.98,-261.95 169.58,-252.81"/>
<polygon fill="midnightblue" stroke="midnightblue" points="172.71,-251.24 165.21,-243.75 166.4,-254.28 172.71,-251.24"/>
</g>
<!-- Node13&#45;&gt;Node2 -->
<g id="edge15" class="edge">
<title>Node13&#45;&gt;Node2</title>
<path fill="none" stroke="midnightblue" d="M332.09,-224.32C342.49,-216.18 358.26,-203.84 370.72,-194.09"/>
<polygon fill="midnightblue" stroke="midnightblue" points="372.99,-196.75 378.71,-187.83 368.68,-191.24 372.99,-196.75"/>
</g>
<!-- Node13&#45;&gt;Node4 -->
<g id="edge14" class="edge">
<title>Node13&#45;&gt;Node4</title>
<path fill="none" stroke="midnightblue" d="M323.83,-224.14C327.54,-210.77 332.31,-185.15 321,-168 310.36,-151.86 292.61,-141.49 274.69,-134.83"/>
<polygon fill="midnightblue" stroke="midnightblue" points="275.37,-131.37 264.77,-131.5 273.14,-138 275.37,-131.37"/>
</g>
<!-- Node14&#45;&gt;Node5 -->
<g id="edge20" class="edge">
<title>Node14&#45;&gt;Node5</title>
<path fill="none" stroke="midnightblue" d="M140.29,-224.39C125.22,-217.01 105.68,-204.88 95,-188 74.99,-156.37 73.51,-111.02 74.55,-85.78"/>
<polygon fill="midnightblue" stroke="midnightblue" points="78.04,-85.91 75.14,-75.72 71.06,-85.5 78.04,-85.91"/>
</g>
<!-- Node15 -->
<g id="node15" class="node">
<title>Node15</title>
<g id="a_node15"><a xlink:href="../../d5/d22/_c_c_common_8h.html" target="_top" xlink:title=" ">
<polygon fill="none" stroke="black" points="184,-168.5 184,-187.5 312,-187.5 312,-168.5 184,-168.5"/>
<text text-anchor="middle" x="248" y="-175.5" font-family="Helvetica,sans-Serif" font-size="10.00">platform/CCCommon.h</text>
</a>
</g>
</g>
<!-- Node14&#45;&gt;Node15 -->
<g id="edge17" class="edge">
<title>Node14&#45;&gt;Node15</title>
<path fill="none" stroke="midnightblue" d="M174.98,-224.32C188.55,-215.9 209.38,-202.97 225.32,-193.07"/>
<polygon fill="midnightblue" stroke="midnightblue" points="227.41,-195.9 234.06,-187.65 223.71,-189.95 227.41,-195.9"/>
</g>
<!-- Node16 -->
<g id="node16" class="node">
<title>Node16</title>
<g id="a_node16"><a xlink:title=" ">
<polygon fill="none" stroke="#bfbfbf" points="104,-168.5 104,-187.5 166,-187.5 166,-168.5 104,-168.5"/>
<text text-anchor="middle" x="135" y="-175.5" font-family="Helvetica,sans-Serif" font-size="10.00">CCStdC.h</text>
</a>
</g>
</g>
<!-- Node14&#45;&gt;Node16 -->
<g id="edge19" class="edge">
<title>Node14&#45;&gt;Node16</title>
<path fill="none" stroke="midnightblue" d="M156.71,-224.08C153.15,-216.69 147.98,-205.95 143.58,-196.81"/>
<polygon fill="midnightblue" stroke="midnightblue" points="146.71,-195.24 139.21,-187.75 140.4,-198.28 146.71,-195.24"/>
</g>
<!-- Node15&#45;&gt;Node4 -->
<g id="edge18" class="edge">
<title>Node15&#45;&gt;Node4</title>
<path fill="none" stroke="midnightblue" d="M242.72,-168.08C238.29,-160.61 231.84,-149.72 226.38,-140.52"/>
<polygon fill="midnightblue" stroke="midnightblue" points="229.29,-138.57 221.19,-131.75 223.27,-142.14 229.29,-138.57"/>
</g>
<!-- Node17&#45;&gt;Node4 -->
<g id="edge22" class="edge">
<title>Node17&#45;&gt;Node4</title>
<path fill="none" stroke="midnightblue" d="M83.56,-336.24C74.58,-327.97 62.25,-314.66 57,-300 40.8,-254.8 52.75,-211.5 95,-168 111.05,-151.48 133.71,-140.97 155.09,-134.31"/>
<polygon fill="midnightblue" stroke="midnightblue" points="156.15,-137.65 164.79,-131.51 154.22,-130.92 156.15,-137.65"/>
</g>
<!-- Node17&#45;&gt;Node12 -->
<g id="edge23" class="edge">
<title>Node17&#45;&gt;Node12</title>
<path fill="none" stroke="midnightblue" d="M108.94,-336.32C123.59,-327.82 146.13,-314.73 163.24,-304.8"/>
<polygon fill="midnightblue" stroke="midnightblue" points="165.2,-307.7 172.1,-299.65 161.69,-301.65 165.2,-307.7"/>
</g>
<!-- Node18 -->
<g id="node18" class="node">
<title>Node18</title>
<g id="a_node18"><a xlink:title=" ">
<polygon fill="none" stroke="#bfbfbf" points="66.5,-280.5 66.5,-299.5 117.5,-299.5 117.5,-280.5 66.5,-280.5"/>
<text text-anchor="middle" x="92" y="-287.5" font-family="Helvetica,sans-Serif" font-size="10.00">math.h</text>
</a>
</g>
</g>
<!-- Node17&#45;&gt;Node18 -->
<g id="edge24" class="edge">
<title>Node17&#45;&gt;Node18</title>
<path fill="none" stroke="midnightblue" d="M93.67,-336.08C93.41,-329.01 93.03,-318.86 92.7,-309.99"/>
<polygon fill="midnightblue" stroke="midnightblue" points="96.19,-309.61 92.32,-299.75 89.2,-309.87 96.19,-309.61"/>
</g>
</g>
</svg>
