<?xml version="1.0" encoding="UTF-8" standalone="no"?>
<!DOCTYPE svg PUBLIC "-//W3C//DTD SVG 1.1//EN"
 "http://www.w3.org/Graphics/SVG/1.1/DTD/svg11.dtd">
<!-- Generated by graphviz version 2.43.0 (0)
 -->
<!-- Title: CCKeypadDispatcher Pages: 1 -->
<svg width="164pt" height="209pt"
 viewBox="0.00 0.00 163.50 209.00" xmlns="http://www.w3.org/2000/svg" xmlns:xlink="http://www.w3.org/1999/xlink">
<g id="graph0" class="graph" transform="scale(1 1) rotate(0) translate(4 205)">
<title>CCKeypadDispatcher</title>
<!-- Node1 -->
<g id="node1" class="node">
<title>Node1</title>
<g id="a_node1"><a xlink:title="Dispatch the keypad message from the phone NA NA.">
<polygon fill="#bfbfbf" stroke="black" points="0,-0.5 0,-19.5 119,-19.5 119,-0.5 0,-0.5"/>
<text text-anchor="middle" x="59.5" y="-7.5" font-family="Helvetica,sans-Serif" font-size="10.00">CCKeypadDispatcher</text>
</a>
</g>
</g>
<!-- Node2 -->
<g id="node2" class="node">
<title>Node2</title>
<g id="a_node2"><a xlink:href="../../d3/dbf/classcocos2d_1_1_c_c_object.html" target="_top" xlink:title="NA.">
<polygon fill="none" stroke="black" points="24.5,-124.5 24.5,-143.5 86.5,-143.5 86.5,-124.5 24.5,-124.5"/>
<text text-anchor="middle" x="55.5" y="-131.5" font-family="Helvetica,sans-Serif" font-size="10.00">CCObject</text>
</a>
</g>
</g>
<!-- Node2&#45;&gt;Node1 -->
<g id="edge1" class="edge">
<title>Node2&#45;&gt;Node1</title>
<path fill="none" stroke="midnightblue" d="M56.12,-114.19C57,-87.4 58.57,-39.31 59.21,-19.69"/>
<polygon fill="midnightblue" stroke="midnightblue" points="52.62,-114.12 55.79,-124.23 59.61,-114.35 52.62,-114.12"/>
</g>
<!-- Node4 -->
<g id="node4" class="node">
<title>Node4</title>
<g id="a_node4"><a xlink:href="../../d9/d2e/classcocos2d_1_1_c_c_array.html" target="_top" xlink:title="NA.">
<polygon fill="none" stroke="black" points="71.5,-67.5 71.5,-86.5 127.5,-86.5 127.5,-67.5 71.5,-67.5"/>
<text text-anchor="middle" x="99.5" y="-74.5" font-family="Helvetica,sans-Serif" font-size="10.00">CCArray</text>
</a>
</g>
</g>
<!-- Node2&#45;&gt;Node4 -->
<g id="edge4" class="edge">
<title>Node2&#45;&gt;Node4</title>
<path fill="none" stroke="midnightblue" d="M68.67,-116.53C76.51,-106.74 86.14,-94.7 92.53,-86.71"/>
<polygon fill="midnightblue" stroke="midnightblue" points="65.89,-114.41 62.38,-124.41 71.36,-118.78 65.89,-114.41"/>
</g>
<!-- Node3 -->
<g id="node3" class="node">
<title>Node3</title>
<g id="a_node3"><a xlink:href="../../d5/d61/classcocos2d_1_1_c_c_copying.html" target="_top" xlink:title="NA NA.">
<polygon fill="none" stroke="black" points="20.5,-181.5 20.5,-200.5 90.5,-200.5 90.5,-181.5 20.5,-181.5"/>
<text text-anchor="middle" x="55.5" y="-188.5" font-family="Helvetica,sans-Serif" font-size="10.00">CCCopying</text>
</a>
</g>
</g>
<!-- Node3&#45;&gt;Node2 -->
<g id="edge2" class="edge">
<title>Node3&#45;&gt;Node2</title>
<path fill="none" stroke="midnightblue" d="M55.5,-171.12C55.5,-161.82 55.5,-151.06 55.5,-143.71"/>
<polygon fill="midnightblue" stroke="midnightblue" points="52,-171.41 55.5,-181.41 59,-171.41 52,-171.41"/>
</g>
<!-- Node4&#45;&gt;Node1 -->
<g id="edge3" class="edge">
<title>Node4&#45;&gt;Node1</title>
<path fill="none" stroke="#9a32cd" stroke-dasharray="5,2" d="M88.75,-58.53C81.01,-45.95 70.89,-29.51 64.81,-19.63"/>
<polygon fill="#9a32cd" stroke="#9a32cd" points="85.88,-60.55 94.11,-67.23 91.85,-56.88 85.88,-60.55"/>
<text text-anchor="middle" x="118.5" y="-41" font-family="Helvetica,sans-Serif" font-size="10.00"> m_pDelegates</text>
</g>
</g>
</svg>
