<?xml version="1.0" encoding="UTF-8" standalone="no"?>
<!DOCTYPE svg PUBLIC "-//W3C//DTD SVG 1.1//EN"
 "http://www.w3.org/Graphics/SVG/1.1/DTD/svg11.dtd">
<!-- Generated by graphviz version 2.43.0 (0)
 -->
<!-- Title: CCKeypadDelegate Pages: 1 -->
<svg width="776pt" height="335pt"
 viewBox="0.00 0.00 776.00 335.00" xmlns="http://www.w3.org/2000/svg" xmlns:xlink="http://www.w3.org/1999/xlink">
<g id="graph0" class="graph" transform="scale(1 1) rotate(0) translate(4 331)">
<title>CCKeypadDelegate</title>
<!-- Node1 -->
<g id="node1" class="node">
<title>Node1</title>
<g id="a_node1"><a xlink:title=" ">
<polygon fill="#999999" stroke="#666666" points="110,-206 0,-206 0,-187 110,-187 110,-206"/>
<text text-anchor="middle" x="55" y="-194" font-family="Helvetica,sans-Serif" font-size="10.00">CCKeypadDelegate</text>
</a>
</g>
</g>
<!-- Node2 -->
<g id="node2" class="node">
<title>Node2</title>
<g id="a_node2"><a xlink:href="../../d0/d45/class_c_c_layer.html" target="_top" xlink:title="CCLayer is a subclass of CCNode that implements the TouchEventsDelegate protocol.">
<polygon fill="white" stroke="#666666" points="203,-206 146,-206 146,-187 203,-187 203,-206"/>
<text text-anchor="middle" x="174.5" y="-194" font-family="Helvetica,sans-Serif" font-size="10.00">CCLayer</text>
</a>
</g>
</g>
<!-- Node1&#45;&gt;Node2 -->
<g id="edge1" class="edge">
<title>Node1&#45;&gt;Node2</title>
<path fill="none" stroke="#63b8ff" d="M120.36,-196.5C129.26,-196.5 137.98,-196.5 145.71,-196.5"/>
<polygon fill="#63b8ff" stroke="#63b8ff" points="120.28,-193 110.28,-196.5 120.28,-200 120.28,-193"/>
</g>
<!-- Node3 -->
<g id="node3" class="node">
<title>Node3</title>
<g id="a_node3"><a xlink:href="../../d3/d7e/classcocos2d_1_1_c_c_layer_multiplex.html" target="_top" xlink:title="CCMultipleLayer is a CCLayer with the ability to multiplex it&#39;s children.">
<polygon fill="white" stroke="#666666" points="342,-243 239,-243 239,-224 342,-224 342,-243"/>
<text text-anchor="middle" x="290.5" y="-231" font-family="Helvetica,sans-Serif" font-size="10.00">CCLayerMultiplex</text>
</a>
</g>
</g>
<!-- Node2&#45;&gt;Node3 -->
<g id="edge2" class="edge">
<title>Node2&#45;&gt;Node3</title>
<path fill="none" stroke="#63b8ff" d="M212.83,-208.62C228.2,-213.6 245.74,-219.3 260.17,-223.98"/>
<polygon fill="#63b8ff" stroke="#63b8ff" points="213.69,-205.21 203.1,-205.46 211.53,-211.87 213.69,-205.21"/>
</g>
<!-- Node4 -->
<g id="node4" class="node">
<title>Node4</title>
<g id="a_node4"><a xlink:href="../../dd/d1e/classcocos2d_1_1_c_c_layer_r_g_b_a.html" target="_top" xlink:title="CCLayerRGBA is a subclass of CCLayer that implements the CCRGBAProtocol protocol using a solid color ...">
<polygon fill="white" stroke="#666666" points="333,-206 248,-206 248,-187 333,-187 333,-206"/>
<text text-anchor="middle" x="290.5" y="-194" font-family="Helvetica,sans-Serif" font-size="10.00">CCLayerRGBA</text>
</a>
</g>
</g>
<!-- Node2&#45;&gt;Node4 -->
<g id="edge3" class="edge">
<title>Node2&#45;&gt;Node4</title>
<path fill="none" stroke="#63b8ff" d="M213.33,-196.5C224.42,-196.5 236.6,-196.5 247.91,-196.5"/>
<polygon fill="#63b8ff" stroke="#63b8ff" points="213.1,-193 203.1,-196.5 213.1,-200 213.1,-193"/>
</g>
<!-- Node18 -->
<g id="node18" class="node">
<title>Node18</title>
<g id="a_node18"><a xlink:href="../../d3/dbc/classcocos2d_1_1extension_1_1_c_c_scroll_view.html" target="_top" xlink:title="ScrollView support for cocos2d for iphone.">
<polygon fill="white" stroke="#666666" points="331,-160 250,-160 250,-141 331,-141 331,-160"/>
<text text-anchor="middle" x="290.5" y="-148" font-family="Helvetica,sans-Serif" font-size="10.00">CCScrollView</text>
</a>
</g>
</g>
<!-- Node2&#45;&gt;Node18 -->
<g id="edge17" class="edge">
<title>Node2&#45;&gt;Node18</title>
<path fill="none" stroke="#63b8ff" d="M208.57,-183.16C226.93,-175.75 249.33,-166.71 265.91,-160.02"/>
<polygon fill="#63b8ff" stroke="#63b8ff" points="207.08,-179.98 199.12,-186.97 209.7,-186.47 207.08,-179.98"/>
</g>
<!-- Node5 -->
<g id="node5" class="node">
<title>Node5</title>
<g id="a_node5"><a xlink:href="../../da/d2c/classcocos2d_1_1_c_c_layer_color.html" target="_top" xlink:title="CCLayerColor is a subclass of CCLayer that implements the CCRGBAProtocol protocol.">
<polygon fill="white" stroke="#666666" points="461,-290 378,-290 378,-271 461,-271 461,-290"/>
<text text-anchor="middle" x="419.5" y="-278" font-family="Helvetica,sans-Serif" font-size="10.00">CCLayerColor</text>
</a>
</g>
</g>
<!-- Node4&#45;&gt;Node5 -->
<g id="edge4" class="edge">
<title>Node4&#45;&gt;Node5</title>
<path fill="none" stroke="#63b8ff" d="M333.13,-209.92C336.19,-211.33 339.18,-212.86 342,-214.5 369.29,-230.38 396.02,-256.56 409.49,-270.7"/>
<polygon fill="#63b8ff" stroke="#63b8ff" points="334.4,-206.65 323.82,-206.01 331.68,-213.11 334.4,-206.65"/>
</g>
<!-- Node7 -->
<g id="node7" class="node">
<title>Node7</title>
<g id="a_node7"><a xlink:href="../../d1/da0/classcocos2d_1_1_c_c_menu.html" target="_top" xlink:title="A CCMenu.">
<polygon fill="white" stroke="#666666" points="448,-216 391,-216 391,-197 448,-197 448,-216"/>
<text text-anchor="middle" x="419.5" y="-204" font-family="Helvetica,sans-Serif" font-size="10.00">CCMenu</text>
</a>
</g>
</g>
<!-- Node4&#45;&gt;Node7 -->
<g id="edge6" class="edge">
<title>Node4&#45;&gt;Node7</title>
<path fill="none" stroke="#63b8ff" d="M343.08,-200.56C359.43,-201.85 376.86,-203.22 390.85,-204.32"/>
<polygon fill="#63b8ff" stroke="#63b8ff" points="343.33,-197.07 333.08,-199.77 342.78,-204.05 343.33,-197.07"/>
</g>
<!-- Node8 -->
<g id="node8" class="node">
<title>Node8</title>
<g id="a_node8"><a xlink:href="../../d4/d38/classcocos2d_1_1extension_1_1_c_c_control.html" target="_top" xlink:title=" ">
<polygon fill="white" stroke="#666666" points="452,-179 387,-179 387,-160 452,-160 452,-179"/>
<text text-anchor="middle" x="419.5" y="-167" font-family="Helvetica,sans-Serif" font-size="10.00">CCControl</text>
</a>
</g>
</g>
<!-- Node4&#45;&gt;Node8 -->
<g id="edge7" class="edge">
<title>Node4&#45;&gt;Node8</title>
<path fill="none" stroke="#63b8ff" d="M343.16,-185.52C357.97,-182.37 373.68,-179.03 386.9,-176.22"/>
<polygon fill="#63b8ff" stroke="#63b8ff" points="342.14,-182.16 333.08,-187.66 343.59,-189 342.14,-182.16"/>
</g>
<!-- Node6 -->
<g id="node6" class="node">
<title>Node6</title>
<g id="a_node6"><a xlink:href="../../d9/d19/classcocos2d_1_1_c_c_layer_gradient.html" target="_top" xlink:title="CCLayerGradient is a subclass of CCLayerColor that draws gradients across the background.">
<polygon fill="white" stroke="#666666" points="630,-327 531,-327 531,-308 630,-308 630,-327"/>
<text text-anchor="middle" x="580.5" y="-315" font-family="Helvetica,sans-Serif" font-size="10.00">CCLayerGradient</text>
</a>
</g>
</g>
<!-- Node5&#45;&gt;Node6 -->
<g id="edge5" class="edge">
<title>Node5&#45;&gt;Node6</title>
<path fill="none" stroke="#63b8ff" d="M471,-292.42C479.67,-294.45 488.59,-296.54 497,-298.5 510.31,-301.6 524.84,-304.95 537.94,-307.97"/>
<polygon fill="#63b8ff" stroke="#63b8ff" points="471.52,-288.95 460.99,-290.06 469.92,-295.76 471.52,-288.95"/>
</g>
<!-- Node9 -->
<g id="node9" class="node">
<title>Node9</title>
<g id="a_node9"><a xlink:href="../../d5/d52/classcocos2d_1_1extension_1_1_c_c_control_button.html" target="_top" xlink:title="for Cocos2D.">
<polygon fill="white" stroke="#666666" points="629.5,-290 531.5,-290 531.5,-271 629.5,-271 629.5,-290"/>
<text text-anchor="middle" x="580.5" y="-278" font-family="Helvetica,sans-Serif" font-size="10.00">CCControlButton</text>
</a>
</g>
</g>
<!-- Node8&#45;&gt;Node9 -->
<g id="edge8" class="edge">
<title>Node8&#45;&gt;Node9</title>
<path fill="none" stroke="#63b8ff" d="M457.59,-184.55C458.79,-185.48 459.93,-186.46 461,-187.5 487.3,-212.91 468.38,-238.73 497,-261.5 506.78,-269.28 519.15,-273.99 531.33,-276.81"/>
<polygon fill="#63b8ff" stroke="#63b8ff" points="459.42,-181.57 449.11,-179.13 455.65,-187.47 459.42,-181.57"/>
</g>
<!-- Node11 -->
<g id="node11" class="node">
<title>Node11</title>
<g id="a_node11"><a xlink:href="../../d3/def/classcocos2d_1_1extension_1_1_c_c_control_colour_picker.html" target="_top" xlink:title=" ">
<polygon fill="white" stroke="#666666" points="643.5,-253 517.5,-253 517.5,-234 643.5,-234 643.5,-253"/>
<text text-anchor="middle" x="580.5" y="-241" font-family="Helvetica,sans-Serif" font-size="10.00">CCControlColourPicker</text>
</a>
</g>
</g>
<!-- Node8&#45;&gt;Node11 -->
<g id="edge10" class="edge">
<title>Node8&#45;&gt;Node11</title>
<path fill="none" stroke="#63b8ff" d="M455.19,-183.82C457.2,-184.99 459.15,-186.21 461,-187.5 479.82,-200.62 477.01,-213.24 497,-224.5 503.92,-228.39 511.59,-231.49 519.38,-233.95"/>
<polygon fill="#63b8ff" stroke="#63b8ff" points="456.63,-180.63 446.15,-179.12 453.41,-186.84 456.63,-180.63"/>
</g>
<!-- Node12 -->
<g id="node12" class="node">
<title>Node12</title>
<g id="a_node12"><a xlink:href="../../da/de8/classcocos2d_1_1extension_1_1_c_c_control_hue_picker.html" target="_top" xlink:title=" ">
<polygon fill="white" stroke="#666666" points="637.5,-216 523.5,-216 523.5,-197 637.5,-197 637.5,-216"/>
<text text-anchor="middle" x="580.5" y="-204" font-family="Helvetica,sans-Serif" font-size="10.00">CCControlHuePicker</text>
</a>
</g>
</g>
<!-- Node8&#45;&gt;Node12 -->
<g id="edge11" class="edge">
<title>Node8&#45;&gt;Node12</title>
<path fill="none" stroke="#63b8ff" d="M462.19,-179.35C473.48,-182 485.71,-184.87 497,-187.5 510.31,-190.6 524.84,-193.95 537.94,-196.97"/>
<polygon fill="#63b8ff" stroke="#63b8ff" points="462.66,-175.86 452.13,-176.98 461.06,-182.68 462.66,-175.86"/>
</g>
<!-- Node13 -->
<g id="node13" class="node">
<title>Node13</title>
<g id="a_node13"><a xlink:href="../../d8/dfb/classcocos2d_1_1extension_1_1_c_c_control_potentiometer.html" target="_top" xlink:title="for Cocos2D.">
<polygon fill="white" stroke="#666666" points="648,-179 513,-179 513,-160 648,-160 648,-179"/>
<text text-anchor="middle" x="580.5" y="-167" font-family="Helvetica,sans-Serif" font-size="10.00">CCControlPotentiometer</text>
</a>
</g>
</g>
<!-- Node8&#45;&gt;Node13 -->
<g id="edge12" class="edge">
<title>Node8&#45;&gt;Node13</title>
<path fill="none" stroke="#63b8ff" d="M462.55,-169.5C477.99,-169.5 495.87,-169.5 512.93,-169.5"/>
<polygon fill="#63b8ff" stroke="#63b8ff" points="462.29,-166 452.29,-169.5 462.29,-173 462.29,-166"/>
</g>
<!-- Node14 -->
<g id="node14" class="node">
<title>Node14</title>
<g id="a_node14"><a xlink:href="../../d2/d34/classcocos2d_1_1extension_1_1_c_c_control_saturation_brightness_picker.html" target="_top" xlink:title=" ">
<polygon fill="white" stroke="#666666" points="664,-141.5 497,-141.5 497,-111.5 664,-111.5 664,-141.5"/>
<text text-anchor="start" x="505" y="-129.5" font-family="Helvetica,sans-Serif" font-size="10.00">CCControlSaturationBrightness</text>
<text text-anchor="middle" x="580.5" y="-118.5" font-family="Helvetica,sans-Serif" font-size="10.00">Picker</text>
</a>
</g>
</g>
<!-- Node8&#45;&gt;Node14 -->
<g id="edge13" class="edge">
<title>Node8&#45;&gt;Node14</title>
<path fill="none" stroke="#63b8ff" d="M462.09,-158.25C480.98,-153.14 503.61,-147.02 523.94,-141.53"/>
<polygon fill="#63b8ff" stroke="#63b8ff" points="461.03,-154.91 452.29,-160.9 462.86,-161.67 461.03,-154.91"/>
</g>
<!-- Node15 -->
<g id="node15" class="node">
<title>Node15</title>
<g id="a_node15"><a xlink:href="../../d1/d6f/classcocos2d_1_1extension_1_1_c_c_control_slider.html" target="_top" xlink:title=" ">
<polygon fill="white" stroke="#666666" points="627,-93 534,-93 534,-74 627,-74 627,-93"/>
<text text-anchor="middle" x="580.5" y="-81" font-family="Helvetica,sans-Serif" font-size="10.00">CCControlSlider</text>
</a>
</g>
</g>
<!-- Node8&#45;&gt;Node15 -->
<g id="edge14" class="edge">
<title>Node8&#45;&gt;Node15</title>
<path fill="none" stroke="#63b8ff" d="M455.22,-154.67C457.24,-153.36 459.19,-151.97 461,-150.5 481.69,-133.67 474.65,-117.04 497,-102.5 507.96,-95.37 521.28,-90.9 533.98,-88.1"/>
<polygon fill="#63b8ff" stroke="#63b8ff" points="453.04,-151.88 446.04,-159.84 456.47,-157.98 453.04,-151.88"/>
</g>
<!-- Node16 -->
<g id="node16" class="node">
<title>Node16</title>
<g id="a_node16"><a xlink:href="../../d7/d7a/classcocos2d_1_1extension_1_1_c_c_control_stepper.html" target="_top" xlink:title=" ">
<polygon fill="white" stroke="#666666" points="632,-56 529,-56 529,-37 632,-37 632,-56"/>
<text text-anchor="middle" x="580.5" y="-44" font-family="Helvetica,sans-Serif" font-size="10.00">CCControlStepper</text>
</a>
</g>
</g>
<!-- Node8&#45;&gt;Node16 -->
<g id="edge15" class="edge">
<title>Node8&#45;&gt;Node16</title>
<path fill="none" stroke="#63b8ff" d="M456.54,-154.51C458.13,-153.26 459.63,-151.93 461,-150.5 489.67,-120.59 465.16,-91.02 497,-64.5 506.01,-56.99 517.45,-52.42 528.91,-49.68"/>
<polygon fill="#63b8ff" stroke="#63b8ff" points="454.55,-151.62 448.03,-159.98 458.34,-157.51 454.55,-151.62"/>
</g>
<!-- Node17 -->
<g id="node17" class="node">
<title>Node17</title>
<g id="a_node17"><a xlink:href="../../d9/dd1/classcocos2d_1_1extension_1_1_c_c_control_switch.html" target="_top" xlink:title="for Cocos2D.">
<polygon fill="white" stroke="#666666" points="629.5,-19 531.5,-19 531.5,0 629.5,0 629.5,-19"/>
<text text-anchor="middle" x="580.5" y="-7" font-family="Helvetica,sans-Serif" font-size="10.00">CCControlSwitch</text>
</a>
</g>
</g>
<!-- Node8&#45;&gt;Node17 -->
<g id="edge16" class="edge">
<title>Node8&#45;&gt;Node17</title>
<path fill="none" stroke="#63b8ff" d="M457.72,-153.84C458.89,-152.79 459.99,-151.68 461,-150.5 498.06,-107.25 455.34,-66.34 497,-27.5 506.33,-18.8 518.84,-13.94 531.3,-11.3"/>
<polygon fill="#63b8ff" stroke="#63b8ff" points="455.37,-151.21 449.21,-159.84 459.4,-156.93 455.37,-151.21"/>
</g>
<!-- Node10 -->
<g id="node10" class="node">
<title>Node10</title>
<g id="a_node10"><a xlink:href="../../d7/dc3/classcocos2d_1_1extension_1_1_c_c_edit_box.html" target="_top" xlink:title="Class for edit box.">
<polygon fill="white" stroke="#666666" points="768,-290 700,-290 700,-271 768,-271 768,-290"/>
<text text-anchor="middle" x="734" y="-278" font-family="Helvetica,sans-Serif" font-size="10.00">CCEditBox</text>
</a>
</g>
</g>
<!-- Node9&#45;&gt;Node10 -->
<g id="edge9" class="edge">
<title>Node9&#45;&gt;Node10</title>
<path fill="none" stroke="#63b8ff" d="M639.98,-280.5C660.3,-280.5 682.39,-280.5 699.93,-280.5"/>
<polygon fill="#63b8ff" stroke="#63b8ff" points="639.85,-277 629.85,-280.5 639.85,-284 639.85,-277"/>
</g>
<!-- Node19 -->
<g id="node19" class="node">
<title>Node19</title>
<g id="a_node19"><a xlink:href="../../d8/d28/classcocos2d_1_1extension_1_1_c_c_table_view.html" target="_top" xlink:title="UITableView counterpart for cocos2d for iphone.">
<polygon fill="white" stroke="#666666" points="459.5,-142 379.5,-142 379.5,-123 459.5,-123 459.5,-142"/>
<text text-anchor="middle" x="419.5" y="-130" font-family="Helvetica,sans-Serif" font-size="10.00">CCTableView</text>
</a>
</g>
</g>
<!-- Node18&#45;&gt;Node19 -->
<g id="edge18" class="edge">
<title>Node18&#45;&gt;Node19</title>
<path fill="none" stroke="#63b8ff" d="M341.25,-143.45C353.86,-141.66 367.23,-139.77 379.24,-138.06"/>
<polygon fill="#63b8ff" stroke="#63b8ff" points="340.75,-139.99 331.34,-144.85 341.73,-146.92 340.75,-139.99"/>
</g>
</g>
</svg>
