<?xml version="1.0" encoding="UTF-8" standalone="no"?>
<!DOCTYPE svg PUBLIC "-//W3C//DTD SVG 1.1//EN"
 "http://www.w3.org/Graphics/SVG/1.1/DTD/svg11.dtd">
<!-- Generated by graphviz version 2.43.0 (0)
 -->
<!-- Title: XMLText Pages: 1 -->
<svg width="196pt" height="197pt"
 viewBox="0.00 0.00 196.00 197.00" xmlns="http://www.w3.org/2000/svg" xmlns:xlink="http://www.w3.org/1999/xlink">
<g id="graph0" class="graph" transform="scale(1 1) rotate(0) translate(4 193)">
<title>XMLText</title>
<!-- Node1 -->
<g id="node1" class="node">
<title>Node1</title>
<g id="a_node1"><a xlink:title="XML text.">
<polygon fill="#bfbfbf" stroke="black" points="0,-0.5 0,-19.5 57,-19.5 57,-0.5 0,-0.5"/>
<text text-anchor="middle" x="28.5" y="-7.5" font-family="Helvetica,sans-Serif" font-size="10.00">XMLText</text>
</a>
</g>
</g>
<!-- Node2 -->
<g id="node2" class="node">
<title>Node2</title>
<g id="a_node2"><a xlink:href="../../de/d13/classtinyxml2_1_1_x_m_l_node.html" target="_top" xlink:title="XMLNode is a base class for every object that is in the XML Document Object Model (DOM),...">
<polygon fill="none" stroke="black" points="55,-85 55,-104 118,-104 118,-85 55,-85"/>
<text text-anchor="middle" x="86.5" y="-92" font-family="Helvetica,sans-Serif" font-size="10.00">XMLNode</text>
</a>
</g>
</g>
<!-- Node2&#45;&gt;Node1 -->
<g id="edge1" class="edge">
<title>Node2&#45;&gt;Node1</title>
<path fill="none" stroke="midnightblue" d="M74.48,-76.4C62.3,-59.07 43.95,-32.98 34.54,-19.6"/>
<polygon fill="midnightblue" stroke="midnightblue" points="71.9,-78.81 80.51,-84.98 77.62,-74.79 71.9,-78.81"/>
</g>
<!-- Node2&#45;&gt;Node2 -->
<g id="edge4" class="edge">
<title>Node2&#45;&gt;Node2</title>
<path fill="none" stroke="#9a32cd" stroke-dasharray="5,2" d="M128.3,-102.42C132.98,-100.92 136,-98.28 136,-94.5 136,-88.45 128.26,-85.32 118.4,-85.13"/>
<polygon fill="#9a32cd" stroke="#9a32cd" points="127.79,-98.95 118.4,-103.87 128.8,-105.88 127.79,-98.95"/>
<text text-anchor="middle" x="162" y="-114" font-family="Helvetica,sans-Serif" font-size="10.00"> _firstChild</text>
<text text-anchor="middle" x="162" y="-103" font-family="Helvetica,sans-Serif" font-size="10.00">_lastChild</text>
<text text-anchor="middle" x="162" y="-92" font-family="Helvetica,sans-Serif" font-size="10.00">_next</text>
<text text-anchor="middle" x="162" y="-81" font-family="Helvetica,sans-Serif" font-size="10.00">_parent</text>
<text text-anchor="middle" x="162" y="-70" font-family="Helvetica,sans-Serif" font-size="10.00">_prev</text>
</g>
<!-- Node3 -->
<g id="node3" class="node">
<title>Node3</title>
<g id="a_node3"><a xlink:href="../../dc/d59/classtinyxml2_1_1_x_m_l_document.html" target="_top" xlink:title="A Document binds together all the functionality.">
<polygon fill="none" stroke="black" points="75.5,-0.5 75.5,-19.5 163.5,-19.5 163.5,-0.5 75.5,-0.5"/>
<text text-anchor="middle" x="119.5" y="-7.5" font-family="Helvetica,sans-Serif" font-size="10.00">XMLDocument</text>
</a>
</g>
</g>
<!-- Node2&#45;&gt;Node3 -->
<g id="edge3" class="edge">
<title>Node2&#45;&gt;Node3</title>
<path fill="none" stroke="midnightblue" d="M89.9,-75.11C92.32,-64.05 96.12,-49.86 101.5,-38 104.48,-31.43 108.98,-24.68 112.73,-19.57"/>
<polygon fill="midnightblue" stroke="midnightblue" points="86.47,-74.44 87.92,-84.93 93.33,-75.82 86.47,-74.44"/>
</g>
<!-- Node3&#45;&gt;Node2 -->
<g id="edge2" class="edge">
<title>Node3&#45;&gt;Node2</title>
<path fill="none" stroke="#9a32cd" stroke-dasharray="5,2" d="M112.23,-29.18C105.29,-46.52 95.14,-71.89 89.91,-84.98"/>
<polygon fill="#9a32cd" stroke="#9a32cd" points="115.6,-30.18 116.06,-19.6 109.1,-27.58 115.6,-30.18"/>
<text text-anchor="middle" x="137.5" y="-41" font-family="Helvetica,sans-Serif" font-size="10.00"> _document</text>
</g>
<!-- Node4 -->
<g id="node4" class="node">
<title>Node4</title>
<g id="a_node4"><a xlink:href="../../de/dc1/classtinyxml2_1_1_str_pair.html" target="_top" xlink:title=" ">
<polygon fill="none" stroke="black" points="62.5,-169.5 62.5,-188.5 110.5,-188.5 110.5,-169.5 62.5,-169.5"/>
<text text-anchor="middle" x="86.5" y="-176.5" font-family="Helvetica,sans-Serif" font-size="10.00">StrPair</text>
</a>
</g>
</g>
<!-- Node4&#45;&gt;Node2 -->
<g id="edge5" class="edge">
<title>Node4&#45;&gt;Node2</title>
<path fill="none" stroke="#9a32cd" stroke-dasharray="5,2" d="M86.5,-159.43C86.5,-142.13 86.5,-117.11 86.5,-104.1"/>
<polygon fill="#9a32cd" stroke="#9a32cd" points="83,-159.48 86.5,-169.48 90,-159.48 83,-159.48"/>
<text text-anchor="middle" x="104.5" y="-143" font-family="Helvetica,sans-Serif" font-size="10.00"> _value</text>
</g>
</g>
</svg>
