<?xml version="1.0" encoding="UTF-8" standalone="no"?>
<!DOCTYPE svg PUBLIC "-//W3C//DTD SVG 1.1//EN"
 "http://www.w3.org/Graphics/SVG/1.1/DTD/svg11.dtd">
<!-- Generated by graphviz version 2.43.0 (0)
 -->
<!-- Title: ccV2F_C4B_T2F_Triangle Pages: 1 -->
<svg width="237pt" height="181pt"
 viewBox="0.00 0.00 236.50 181.00" xmlns="http://www.w3.org/2000/svg" xmlns:xlink="http://www.w3.org/1999/xlink">
<g id="graph0" class="graph" transform="scale(1 1) rotate(0) translate(4 177)">
<title>ccV2F_C4B_T2F_Triangle</title>
<!-- Node1 -->
<g id="node1" class="node">
<title>Node1</title>
<g id="a_node1"><a xlink:title="A Triangle of ccV2F_C4B_T2F.">
<polygon fill="#999999" stroke="#666666" points="190,-19 53,-19 53,0 190,0 190,-19"/>
<text text-anchor="middle" x="121.5" y="-7" font-family="Helvetica,sans-Serif" font-size="10.00">ccV2F_C4B_T2F_Triangle</text>
</a>
</g>
</g>
<!-- Node2 -->
<g id="node2" class="node">
<title>Node2</title>
<g id="a_node2"><a xlink:href="../../d6/da5/structcc_v2_f___c4_b___t2_f.html" target="_top" xlink:title="a Point with a vertex point, a tex coord point and a color 4B">
<polygon fill="white" stroke="#666666" points="168.5,-107 74.5,-107 74.5,-88 168.5,-88 168.5,-107"/>
<text text-anchor="middle" x="121.5" y="-95" font-family="Helvetica,sans-Serif" font-size="10.00">ccV2F_C4B_T2F</text>
</a>
</g>
</g>
<!-- Node2&#45;&gt;Node1 -->
<g id="edge1" class="edge">
<title>Node2&#45;&gt;Node1</title>
<path fill="none" stroke="#9a32cd" stroke-dasharray="5,2" d="M121.5,-77.91C121.5,-59.67 121.5,-32.65 121.5,-19.03"/>
<polygon fill="#9a32cd" stroke="#9a32cd" points="118,-77.94 121.5,-87.94 125,-77.94 118,-77.94"/>
<text text-anchor="middle" x="126.5" y="-62" font-family="Helvetica,sans-Serif" font-size="10.00"> a</text>
<text text-anchor="middle" x="126.5" y="-51" font-family="Helvetica,sans-Serif" font-size="10.00">b</text>
<text text-anchor="middle" x="126.5" y="-40" font-family="Helvetica,sans-Serif" font-size="10.00">c</text>
</g>
<!-- Node3 -->
<g id="node3" class="node">
<title>Node3</title>
<g id="a_node3"><a xlink:href="../../d4/d38/structcc_vertex2_f.html" target="_top" xlink:title="A vertex composed of 2 floats: x, y.">
<polygon fill="white" stroke="#666666" points="71,-173 0,-173 0,-154 71,-154 71,-173"/>
<text text-anchor="middle" x="35.5" y="-161" font-family="Helvetica,sans-Serif" font-size="10.00">ccVertex2F</text>
</a>
</g>
</g>
<!-- Node3&#45;&gt;Node2 -->
<g id="edge2" class="edge">
<title>Node3&#45;&gt;Node2</title>
<path fill="none" stroke="#9a32cd" stroke-dasharray="5,2" d="M50.6,-146.24C57.52,-139.26 66.05,-131.29 74.5,-125 83.67,-118.18 94.77,-111.84 103.89,-107.07"/>
<polygon fill="#9a32cd" stroke="#9a32cd" points="47.73,-144.17 43.32,-153.81 52.78,-149.03 47.73,-144.17"/>
<text text-anchor="middle" x="96" y="-128" font-family="Helvetica,sans-Serif" font-size="10.00"> vertices</text>
</g>
<!-- Node4 -->
<g id="node4" class="node">
<title>Node4</title>
<g id="a_node4"><a xlink:href="../../d2/dd4/structcc_color4_b.html" target="_top" xlink:title="RGBA color composed of 4 bytes.">
<polygon fill="white" stroke="#666666" points="154,-173 89,-173 89,-154 154,-154 154,-173"/>
<text text-anchor="middle" x="121.5" y="-161" font-family="Helvetica,sans-Serif" font-size="10.00">ccColor4B</text>
</a>
</g>
</g>
<!-- Node4&#45;&gt;Node2 -->
<g id="edge3" class="edge">
<title>Node4&#45;&gt;Node2</title>
<path fill="none" stroke="#9a32cd" stroke-dasharray="5,2" d="M121.5,-143.58C121.5,-131.63 121.5,-116.72 121.5,-107.41"/>
<polygon fill="#9a32cd" stroke="#9a32cd" points="118,-143.87 121.5,-153.87 125,-143.87 118,-143.87"/>
<text text-anchor="middle" x="138" y="-128" font-family="Helvetica,sans-Serif" font-size="10.00"> colors</text>
</g>
<!-- Node5 -->
<g id="node5" class="node">
<title>Node5</title>
<g id="a_node5"><a xlink:href="../../d0/d46/structcc_tex2_f.html" target="_top" xlink:title="A texcoord composed of 2 floats: u, y.">
<polygon fill="white" stroke="#666666" points="228.5,-173 172.5,-173 172.5,-154 228.5,-154 228.5,-173"/>
<text text-anchor="middle" x="200.5" y="-161" font-family="Helvetica,sans-Serif" font-size="10.00">ccTex2F</text>
</a>
</g>
</g>
<!-- Node5&#45;&gt;Node2 -->
<g id="edge4" class="edge">
<title>Node5&#45;&gt;Node2</title>
<path fill="none" stroke="#9a32cd" stroke-dasharray="5,2" d="M183.92,-146.95C176.33,-140.03 167.13,-131.91 158.5,-125 150.61,-118.68 141.36,-112.05 134.08,-107.01"/>
<polygon fill="#9a32cd" stroke="#9a32cd" points="181.69,-149.65 191.41,-153.87 186.43,-144.51 181.69,-149.65"/>
<text text-anchor="middle" x="198" y="-128" font-family="Helvetica,sans-Serif" font-size="10.00"> texCoords</text>
</g>
</g>
</svg>
