<?xml version="1.0" encoding="UTF-8" standalone="no"?>
<!DOCTYPE svg PUBLIC "-//W3C//DTD SVG 1.1//EN"
 "http://www.w3.org/Graphics/SVG/1.1/DTD/svg11.dtd">
<!-- Generated by graphviz version 2.43.0 (0)
 -->
<!-- Title: CCEaseBounce Pages: 1 -->
<svg width="366pt" height="420pt"
 viewBox="0.00 0.00 365.50 420.00" xmlns="http://www.w3.org/2000/svg" xmlns:xlink="http://www.w3.org/1999/xlink">
<g id="graph0" class="graph" transform="scale(1 1) rotate(0) translate(4 416)">
<title>CCEaseBounce</title>
<!-- Node1 -->
<g id="node1" class="node">
<title>Node1</title>
<g id="a_node1"><a xlink:title="CCEaseBounce abstract class.">
<polygon fill="#bfbfbf" stroke="black" points="129.5,-56.5 129.5,-75.5 218.5,-75.5 218.5,-56.5 129.5,-56.5"/>
<text text-anchor="middle" x="174" y="-63.5" font-family="Helvetica,sans-Serif" font-size="10.00">CCEaseBounce</text>
</a>
</g>
</g>
<!-- Node8 -->
<g id="node8" class="node">
<title>Node8</title>
<g id="a_node8"><a xlink:href="../../d8/d2e/classcocos2d_1_1_c_c_ease_bounce_in.html" target="_top" xlink:title="CCEaseBounceIn action.">
<polygon fill="none" stroke="black" points="0,-0.5 0,-19.5 98,-19.5 98,-0.5 0,-0.5"/>
<text text-anchor="middle" x="49" y="-7.5" font-family="Helvetica,sans-Serif" font-size="10.00">CCEaseBounceIn</text>
</a>
</g>
</g>
<!-- Node1&#45;&gt;Node8 -->
<g id="edge7" class="edge">
<title>Node1&#45;&gt;Node8</title>
<path fill="none" stroke="midnightblue" d="M144.76,-52.37C121.35,-42.26 89.16,-28.35 68.71,-19.52"/>
<polygon fill="midnightblue" stroke="midnightblue" points="143.63,-55.69 154.19,-56.44 146.4,-49.26 143.63,-55.69"/>
</g>
<!-- Node9 -->
<g id="node9" class="node">
<title>Node9</title>
<g id="a_node9"><a xlink:href="../../d7/d76/classcocos2d_1_1_c_c_ease_bounce_in_out.html" target="_top" xlink:title="CCEaseBounceInOut action.">
<polygon fill="none" stroke="black" points="116,-0.5 116,-19.5 232,-19.5 232,-0.5 116,-0.5"/>
<text text-anchor="middle" x="174" y="-7.5" font-family="Helvetica,sans-Serif" font-size="10.00">CCEaseBounceInOut</text>
</a>
</g>
</g>
<!-- Node1&#45;&gt;Node9 -->
<g id="edge8" class="edge">
<title>Node1&#45;&gt;Node9</title>
<path fill="none" stroke="midnightblue" d="M174,-45.8C174,-36.91 174,-26.78 174,-19.75"/>
<polygon fill="midnightblue" stroke="midnightblue" points="170.5,-46.08 174,-56.08 177.5,-46.08 170.5,-46.08"/>
</g>
<!-- Node10 -->
<g id="node10" class="node">
<title>Node10</title>
<g id="a_node10"><a xlink:href="../../d1/d43/classcocos2d_1_1_c_c_ease_bounce_out.html" target="_top" xlink:title="EaseBounceOut action.">
<polygon fill="none" stroke="black" points="250.5,-0.5 250.5,-19.5 357.5,-19.5 357.5,-0.5 250.5,-0.5"/>
<text text-anchor="middle" x="304" y="-7.5" font-family="Helvetica,sans-Serif" font-size="10.00">CCEaseBounceOut</text>
</a>
</g>
</g>
<!-- Node1&#45;&gt;Node10 -->
<g id="edge9" class="edge">
<title>Node1&#45;&gt;Node10</title>
<path fill="none" stroke="midnightblue" d="M204.09,-52.5C228.46,-42.38 262.14,-28.39 283.5,-19.52"/>
<polygon fill="midnightblue" stroke="midnightblue" points="202.49,-49.38 194.6,-56.44 205.18,-55.84 202.49,-49.38"/>
</g>
<!-- Node2 -->
<g id="node2" class="node">
<title>Node2</title>
<g id="a_node2"><a xlink:href="../../d0/d79/classcocos2d_1_1_c_c_action_ease.html" target="_top" xlink:title="Base class for Easing actions.">
<polygon fill="none" stroke="black" points="132,-112.5 132,-131.5 216,-131.5 216,-112.5 132,-112.5"/>
<text text-anchor="middle" x="174" y="-119.5" font-family="Helvetica,sans-Serif" font-size="10.00">CCActionEase</text>
</a>
</g>
</g>
<!-- Node2&#45;&gt;Node1 -->
<g id="edge1" class="edge">
<title>Node2&#45;&gt;Node1</title>
<path fill="none" stroke="midnightblue" d="M174,-101.8C174,-92.91 174,-82.78 174,-75.75"/>
<polygon fill="midnightblue" stroke="midnightblue" points="170.5,-102.08 174,-112.08 177.5,-102.08 170.5,-102.08"/>
</g>
<!-- Node3 -->
<g id="node3" class="node">
<title>Node3</title>
<g id="a_node3"><a xlink:href="../../dd/d8d/classcocos2d_1_1_c_c_action_interval.html" target="_top" xlink:title="An interval action is an action that takes place within a certain period of time.">
<polygon fill="none" stroke="black" points="125,-168.5 125,-187.5 223,-187.5 223,-168.5 125,-168.5"/>
<text text-anchor="middle" x="174" y="-175.5" font-family="Helvetica,sans-Serif" font-size="10.00">CCActionInterval</text>
</a>
</g>
</g>
<!-- Node3&#45;&gt;Node2 -->
<g id="edge2" class="edge">
<title>Node3&#45;&gt;Node2</title>
<path fill="none" stroke="midnightblue" d="M174,-157.8C174,-148.91 174,-138.78 174,-131.75"/>
<polygon fill="midnightblue" stroke="midnightblue" points="170.5,-158.08 174,-168.08 177.5,-158.08 170.5,-158.08"/>
</g>
<!-- Node4 -->
<g id="node4" class="node">
<title>Node4</title>
<g id="a_node4"><a xlink:href="../../dd/d89/classcocos2d_1_1_c_c_finite_time_action.html" target="_top" xlink:title="Base class actions that do have a finite time duration.">
<polygon fill="none" stroke="black" points="117.5,-224.5 117.5,-243.5 230.5,-243.5 230.5,-224.5 117.5,-224.5"/>
<text text-anchor="middle" x="174" y="-231.5" font-family="Helvetica,sans-Serif" font-size="10.00">CCFiniteTimeAction</text>
</a>
</g>
</g>
<!-- Node4&#45;&gt;Node3 -->
<g id="edge3" class="edge">
<title>Node4&#45;&gt;Node3</title>
<path fill="none" stroke="midnightblue" d="M174,-213.8C174,-204.91 174,-194.78 174,-187.75"/>
<polygon fill="midnightblue" stroke="midnightblue" points="170.5,-214.08 174,-224.08 177.5,-214.08 170.5,-214.08"/>
</g>
<!-- Node5 -->
<g id="node5" class="node">
<title>Node5</title>
<g id="a_node5"><a xlink:href="../../d7/d12/classcocos2d_1_1_c_c_action.html" target="_top" xlink:title="Base class for CCAction objects.">
<polygon fill="none" stroke="black" points="143.5,-280.5 143.5,-299.5 204.5,-299.5 204.5,-280.5 143.5,-280.5"/>
<text text-anchor="middle" x="174" y="-287.5" font-family="Helvetica,sans-Serif" font-size="10.00">CCAction</text>
</a>
</g>
</g>
<!-- Node5&#45;&gt;Node4 -->
<g id="edge4" class="edge">
<title>Node5&#45;&gt;Node4</title>
<path fill="none" stroke="midnightblue" d="M174,-269.8C174,-260.91 174,-250.78 174,-243.75"/>
<polygon fill="midnightblue" stroke="midnightblue" points="170.5,-270.08 174,-280.08 177.5,-270.08 170.5,-270.08"/>
</g>
<!-- Node6 -->
<g id="node6" class="node">
<title>Node6</title>
<g id="a_node6"><a xlink:href="../../d3/dbf/classcocos2d_1_1_c_c_object.html" target="_top" xlink:title="NA.">
<polygon fill="none" stroke="black" points="143,-336.5 143,-355.5 205,-355.5 205,-336.5 143,-336.5"/>
<text text-anchor="middle" x="174" y="-343.5" font-family="Helvetica,sans-Serif" font-size="10.00">CCObject</text>
</a>
</g>
</g>
<!-- Node6&#45;&gt;Node5 -->
<g id="edge5" class="edge">
<title>Node6&#45;&gt;Node5</title>
<path fill="none" stroke="midnightblue" d="M174,-325.8C174,-316.91 174,-306.78 174,-299.75"/>
<polygon fill="midnightblue" stroke="midnightblue" points="170.5,-326.08 174,-336.08 177.5,-326.08 170.5,-326.08"/>
</g>
<!-- Node7 -->
<g id="node7" class="node">
<title>Node7</title>
<g id="a_node7"><a xlink:href="../../d5/d61/classcocos2d_1_1_c_c_copying.html" target="_top" xlink:title="NA NA.">
<polygon fill="none" stroke="black" points="139,-392.5 139,-411.5 209,-411.5 209,-392.5 139,-392.5"/>
<text text-anchor="middle" x="174" y="-399.5" font-family="Helvetica,sans-Serif" font-size="10.00">CCCopying</text>
</a>
</g>
</g>
<!-- Node7&#45;&gt;Node6 -->
<g id="edge6" class="edge">
<title>Node7&#45;&gt;Node6</title>
<path fill="none" stroke="midnightblue" d="M174,-381.8C174,-372.91 174,-362.78 174,-355.75"/>
<polygon fill="midnightblue" stroke="midnightblue" points="170.5,-382.08 174,-392.08 177.5,-382.08 170.5,-382.08"/>
</g>
</g>
</svg>
