<?xml version="1.0" encoding="UTF-8" standalone="no"?>
<!DOCTYPE svg PUBLIC "-//W3C//DTD SVG 1.1//EN"
 "http://www.w3.org/Graphics/SVG/1.1/DTD/svg11.dtd">
<!-- Generated by graphviz version 2.43.0 (0)
 -->
<!-- Title: /home/runner/work/cocos&#45;headers/cocos&#45;headers/cocos2dx/sprite_nodes Pages: 1 -->
<svg width="401pt" height="133pt"
 viewBox="0.00 0.00 401.00 133.00" xmlns="http://www.w3.org/2000/svg" xmlns:xlink="http://www.w3.org/1999/xlink">
<g id="graph0" class="graph" transform="scale(1 1) rotate(0) translate(4 129)">
<title>/home/runner/work/cocos&#45;headers/cocos&#45;headers/cocos2dx/sprite_nodes</title>
<g id="clust1" class="cluster">
<title>clusterdir_b2885435f78d14023ac06719456afc50</title>
<g id="a_clust1"><a xlink:href="dir_b2885435f78d14023ac06719456afc50.html" target="_top" xlink:title="cocos2dx">
<polygon fill="#edf0f7" stroke="#404040" stroke-dasharray="5,2" points="8,-8 8,-117 385,-117 385,-8 8,-8"/>
<text text-anchor="middle" x="196.5" y="-105" font-family="Helvetica,sans-Serif" font-size="10.00">cocos2dx</text>
</a>
</g>
</g>
<!-- dir_0ffc90e37b15a3085244dc84c419f433 -->
<g id="node1" class="node">
<title>dir_0ffc90e37b15a3085244dc84c419f433</title>
<g id="a_node1"><a xlink:href="dir_0ffc90e37b15a3085244dc84c419f433.html" target="_top" xlink:title="cocoa">
<polygon fill="#a2b4d6" stroke="#404040" points="61.5,-35 16.5,-35 16.5,-16 61.5,-16 61.5,-35"/>
<text text-anchor="middle" x="39" y="-23" font-family="Helvetica,sans-Serif" font-size="10.00">cocoa</text>
</a>
</g>
</g>
<!-- dir_1125c979ffdcec43cbdfb1b66a667739 -->
<g id="node2" class="node">
<title>dir_1125c979ffdcec43cbdfb1b66a667739</title>
<g id="a_node2"><a xlink:href="dir_1125c979ffdcec43cbdfb1b66a667739.html" target="_top" xlink:title="textures">
<polygon fill="#a2b4d6" stroke="#404040" points="136.5,-35 79.5,-35 79.5,-16 136.5,-16 136.5,-35"/>
<text text-anchor="middle" x="108" y="-23" font-family="Helvetica,sans-Serif" font-size="10.00">textures</text>
</a>
</g>
</g>
<!-- dir_27ef4e836ed14d41bc908bfe408a729b -->
<g id="node3" class="node">
<title>dir_27ef4e836ed14d41bc908bfe408a729b</title>
<g id="a_node3"><a xlink:href="dir_27ef4e836ed14d41bc908bfe408a729b.html" target="_top" xlink:title="include">
<polygon fill="#a2b4d6" stroke="#404040" points="207,-35 155,-35 155,-16 207,-16 207,-35"/>
<text text-anchor="middle" x="181" y="-23" font-family="Helvetica,sans-Serif" font-size="10.00">include</text>
</a>
</g>
</g>
<!-- dir_41482e72b43928a5c4058d2b13faa505 -->
<g id="node4" class="node">
<title>dir_41482e72b43928a5c4058d2b13faa505</title>
<g id="a_node4"><a xlink:href="dir_41482e72b43928a5c4058d2b13faa505.html" target="_top" xlink:title="base_nodes">
<polygon fill="#a2b4d6" stroke="#404040" points="299,-35 225,-35 225,-16 299,-16 299,-35"/>
<text text-anchor="middle" x="262" y="-23" font-family="Helvetica,sans-Serif" font-size="10.00">base_nodes</text>
</a>
</g>
</g>
<!-- dir_605373d5418a34e3085a1032d661490e -->
<g id="node5" class="node">
<title>dir_605373d5418a34e3085a1032d661490e</title>
<g id="a_node5"><a xlink:href="dir_605373d5418a34e3085a1032d661490e.html" target="_top" xlink:title="platform">
<polygon fill="#a2b4d6" stroke="red" points="376.5,-35 317.5,-35 317.5,-16 376.5,-16 376.5,-35"/>
<text text-anchor="middle" x="347" y="-23" font-family="Helvetica,sans-Serif" font-size="10.00">platform</text>
</a>
</g>
</g>
<!-- dir_24cd212f9c113e1d729adaa0e52f03ba -->
<g id="node6" class="node">
<title>dir_24cd212f9c113e1d729adaa0e52f03ba</title>
<g id="a_node6"><a xlink:href="dir_24cd212f9c113e1d729adaa0e52f03ba.html" target="_top" xlink:title="sprite_nodes">
<polygon fill="#edf0f7" stroke="#404040" stroke-width="2" points="220.5,-90 141.5,-90 141.5,-71 220.5,-71 220.5,-90"/>
<text text-anchor="middle" x="181" y="-78" font-family="Helvetica,sans-Serif" font-size="10.00">sprite_nodes</text>
</a>
</g>
</g>
<!-- dir_24cd212f9c113e1d729adaa0e52f03ba&#45;&gt;dir_0ffc90e37b15a3085244dc84c419f433 -->
<g id="edge1" class="edge">
<title>dir_24cd212f9c113e1d729adaa0e52f03ba&#45;&gt;dir_0ffc90e37b15a3085244dc84c419f433</title>
<path fill="none" stroke="#63b8ff" d="M158.19,-70.98C134.69,-62.21 97.86,-48.47 71.36,-38.58"/>
<polygon fill="#63b8ff" stroke="#63b8ff" points="72.35,-35.21 61.76,-34.99 69.9,-41.77 72.35,-35.21"/>
<g id="a_edge1&#45;headlabel"><a xlink:href="dir_000030_000006.html" target="_top" xlink:title="11">
<text text-anchor="middle" x="76.71" y="-31.31" font-family="Helvetica,sans-Serif" font-size="10.00" fill="#63b8ff">11</text>
</a>
</g>
</g>
<!-- dir_24cd212f9c113e1d729adaa0e52f03ba&#45;&gt;dir_1125c979ffdcec43cbdfb1b66a667739 -->
<g id="edge2" class="edge">
<title>dir_24cd212f9c113e1d729adaa0e52f03ba&#45;&gt;dir_1125c979ffdcec43cbdfb1b66a667739</title>
<path fill="none" stroke="#63b8ff" d="M169.27,-70.98C158.27,-63 141.58,-50.88 128.4,-41.31"/>
<polygon fill="#63b8ff" stroke="#63b8ff" points="130.09,-38.21 119.94,-35.17 125.98,-43.88 130.09,-38.21"/>
<g id="a_edge2&#45;headlabel"><a xlink:href="dir_000030_000033.html" target="_top" xlink:title="3">
<text text-anchor="middle" x="134.67" y="-35.53" font-family="Helvetica,sans-Serif" font-size="10.00" fill="#63b8ff">3</text>
</a>
</g>
</g>
<!-- dir_24cd212f9c113e1d729adaa0e52f03ba&#45;&gt;dir_27ef4e836ed14d41bc908bfe408a729b -->
<g id="edge3" class="edge">
<title>dir_24cd212f9c113e1d729adaa0e52f03ba&#45;&gt;dir_27ef4e836ed14d41bc908bfe408a729b</title>
<path fill="none" stroke="#63b8ff" d="M181,-70.75C181,-63.8 181,-53.85 181,-45.13"/>
<polygon fill="#63b8ff" stroke="#63b8ff" points="184.5,-45.09 181,-35.09 177.5,-45.09 184.5,-45.09"/>
<g id="a_edge3&#45;headlabel"><a xlink:href="dir_000030_000015.html" target="_top" xlink:title="5">
<text text-anchor="middle" x="187.34" y="-46.18" font-family="Helvetica,sans-Serif" font-size="10.00" fill="#63b8ff">5</text>
</a>
</g>
</g>
<!-- dir_24cd212f9c113e1d729adaa0e52f03ba&#45;&gt;dir_41482e72b43928a5c4058d2b13faa505 -->
<g id="edge4" class="edge">
<title>dir_24cd212f9c113e1d729adaa0e52f03ba&#45;&gt;dir_41482e72b43928a5c4058d2b13faa505</title>
<path fill="none" stroke="#63b8ff" d="M194.01,-70.98C206.46,-62.84 225.46,-50.41 240.21,-40.76"/>
<polygon fill="#63b8ff" stroke="#63b8ff" points="242.3,-43.57 248.75,-35.17 238.46,-37.72 242.3,-43.57"/>
<g id="a_edge4&#45;headlabel"><a xlink:href="dir_000030_000002.html" target="_top" xlink:title="3">
<text text-anchor="middle" x="240.84" y="-45.42" font-family="Helvetica,sans-Serif" font-size="10.00" fill="#63b8ff">3</text>
</a>
</g>
</g>
<!-- dir_24cd212f9c113e1d729adaa0e52f03ba&#45;&gt;dir_605373d5418a34e3085a1032d661490e -->
<g id="edge5" class="edge">
<title>dir_24cd212f9c113e1d729adaa0e52f03ba&#45;&gt;dir_605373d5418a34e3085a1032d661490e</title>
<path fill="none" stroke="#63b8ff" d="M207.67,-70.98C235.54,-62.09 279.45,-48.07 310.52,-38.15"/>
<polygon fill="#63b8ff" stroke="#63b8ff" points="311.66,-41.46 320.12,-35.08 309.53,-34.79 311.66,-41.46"/>
<g id="a_edge5&#45;headlabel"><a xlink:href="dir_000030_000025.html" target="_top" xlink:title="1">
<text text-anchor="middle" x="309.1" y="-42.76" font-family="Helvetica,sans-Serif" font-size="10.00" fill="#63b8ff">1</text>
</a>
</g>
</g>
</g>
</svg>
