<?xml version="1.0" encoding="UTF-8" standalone="no"?>
<!DOCTYPE svg PUBLIC "-//W3C//DTD SVG 1.1//EN"
 "http://www.w3.org/Graphics/SVG/1.1/DTD/svg11.dtd">
<!-- Generated by graphviz version 2.43.0 (0)
 -->
<!-- Title: /home/runner/work/cocos&#45;headers/cocos&#45;headers/cocos2dx/support Pages: 1 -->
<svg width="374pt" height="175pt"
 viewBox="0.00 0.00 374.00 175.00" xmlns="http://www.w3.org/2000/svg" xmlns:xlink="http://www.w3.org/1999/xlink">
<g id="graph0" class="graph" transform="scale(1 1) rotate(0) translate(4 171)">
<title>/home/runner/work/cocos&#45;headers/cocos&#45;headers/cocos2dx/support</title>
<g id="clust1" class="cluster">
<title>clusterdir_b2885435f78d14023ac06719456afc50</title>
<g id="a_clust1"><a xlink:href="dir_b2885435f78d14023ac06719456afc50.html" target="_top" xlink:title="cocos2dx">
<polygon fill="#edf0f7" stroke="#404040" stroke-dasharray="5,2" points="8,-8 8,-159 358,-159 358,-8 8,-8"/>
<text text-anchor="middle" x="183" y="-147" font-family="Helvetica,sans-Serif" font-size="10.00">cocos2dx</text>
</a>
</g>
</g>
<g id="clust2" class="cluster">
<title>clusterdir_b541ff8c9aa3fa5812a9c807680842bb</title>
<g id="a_clust2"><a xlink:href="dir_b541ff8c9aa3fa5812a9c807680842bb.html" target="_top">
<polygon fill="#edf0f7" stroke="#404040" stroke-width="2" points="16,-80 16,-132 350,-132 350,-80 16,-80"/>
</a>
</g>
</g>
<!-- dir_0ffc90e37b15a3085244dc84c419f433 -->
<g id="node1" class="node">
<title>dir_0ffc90e37b15a3085244dc84c419f433</title>
<g id="a_node1"><a xlink:href="dir_0ffc90e37b15a3085244dc84c419f433.html" target="_top" xlink:title="cocoa">
<polygon fill="#a2b4d6" stroke="#404040" points="91,-52 37,-52 37,-16 91,-16 91,-52"/>
<text text-anchor="middle" x="64" y="-31.5" font-family="Helvetica,sans-Serif" font-size="10.00">cocoa</text>
</a>
</g>
</g>
<!-- dir_27ef4e836ed14d41bc908bfe408a729b -->
<g id="node2" class="node">
<title>dir_27ef4e836ed14d41bc908bfe408a729b</title>
<g id="a_node2"><a xlink:href="dir_27ef4e836ed14d41bc908bfe408a729b.html" target="_top" xlink:title="include">
<polygon fill="#a2b4d6" stroke="#404040" points="168,-52 114,-52 114,-16 168,-16 168,-52"/>
<text text-anchor="middle" x="141" y="-31.5" font-family="Helvetica,sans-Serif" font-size="10.00">include</text>
</a>
</g>
</g>
<!-- dir_605373d5418a34e3085a1032d661490e -->
<g id="node3" class="node">
<title>dir_605373d5418a34e3085a1032d661490e</title>
<g id="a_node3"><a xlink:href="dir_605373d5418a34e3085a1032d661490e.html" target="_top" xlink:title="platform">
<polygon fill="#a2b4d6" stroke="red" points="254.5,-52 195.5,-52 195.5,-16 254.5,-16 254.5,-52"/>
<text text-anchor="middle" x="225" y="-31.5" font-family="Helvetica,sans-Serif" font-size="10.00">platform</text>
</a>
</g>
</g>
<!-- dir_b541ff8c9aa3fa5812a9c807680842bb -->
<g id="node4" class="node">
<title>dir_b541ff8c9aa3fa5812a9c807680842bb</title>
<text text-anchor="middle" x="141" y="-103.5" font-family="Helvetica,sans-Serif" font-size="10.00">support</text>
</g>
<!-- dir_b541ff8c9aa3fa5812a9c807680842bb&#45;&gt;dir_0ffc90e37b15a3085244dc84c419f433 -->
<g id="edge1" class="edge">
<title>dir_b541ff8c9aa3fa5812a9c807680842bb&#45;&gt;dir_0ffc90e37b15a3085244dc84c419f433</title>
<path fill="none" stroke="black" d="M121.97,-87.7C112.46,-79.05 100.79,-68.45 90.43,-59.03"/>
<polygon fill="black" stroke="black" points="92.57,-56.24 82.81,-52.1 87.86,-61.42 92.57,-56.24"/>
<g id="a_edge1&#45;headlabel"><a xlink:href="dir_000031_000006.html" target="_top" xlink:title="7">
<text text-anchor="middle" x="97.14" y="-54.06" font-family="Helvetica,sans-Serif" font-size="10.00">7</text>
</a>
</g>
</g>
<!-- dir_b541ff8c9aa3fa5812a9c807680842bb&#45;&gt;dir_27ef4e836ed14d41bc908bfe408a729b -->
<g id="edge2" class="edge">
<title>dir_b541ff8c9aa3fa5812a9c807680842bb&#45;&gt;dir_27ef4e836ed14d41bc908bfe408a729b</title>
<path fill="none" stroke="black" d="M141,-87.7C141,-79.98 141,-70.71 141,-62.11"/>
<polygon fill="black" stroke="black" points="144.5,-62.1 141,-52.1 137.5,-62.1 144.5,-62.1"/>
<g id="a_edge2&#45;headlabel"><a xlink:href="dir_000031_000015.html" target="_top" xlink:title="2">
<text text-anchor="middle" x="147.34" y="-63.2" font-family="Helvetica,sans-Serif" font-size="10.00">2</text>
</a>
</g>
</g>
<!-- dir_b541ff8c9aa3fa5812a9c807680842bb&#45;&gt;dir_605373d5418a34e3085a1032d661490e -->
<g id="edge3" class="edge">
<title>dir_b541ff8c9aa3fa5812a9c807680842bb&#45;&gt;dir_605373d5418a34e3085a1032d661490e</title>
<path fill="none" stroke="black" d="M161.76,-87.7C172.24,-78.97 185.11,-68.24 196.5,-58.75"/>
<polygon fill="black" stroke="black" points="199.03,-61.19 204.47,-52.1 194.55,-55.82 199.03,-61.19"/>
<g id="a_edge3&#45;headlabel"><a xlink:href="dir_000031_000025.html" target="_top" xlink:title="5">
<text text-anchor="middle" x="198.09" y="-63.18" font-family="Helvetica,sans-Serif" font-size="10.00">5</text>
</a>
</g>
</g>
<!-- dir_b28527f7296a967f8a7c4eafddc2d422 -->
<g id="node5" class="node">
<title>dir_b28527f7296a967f8a7c4eafddc2d422</title>
<g id="a_node5"><a xlink:href="dir_b28527f7296a967f8a7c4eafddc2d422.html" target="_top" xlink:title="component">
<polygon fill="#a2b4d6" stroke="#404040" points="95.5,-124 24.5,-124 24.5,-88 95.5,-88 95.5,-124"/>
<text text-anchor="middle" x="60" y="-103.5" font-family="Helvetica,sans-Serif" font-size="10.00">component</text>
</a>
</g>
</g>
<!-- dir_b28527f7296a967f8a7c4eafddc2d422&#45;&gt;dir_0ffc90e37b15a3085244dc84c419f433 -->
<g id="edge4" class="edge">
<title>dir_b28527f7296a967f8a7c4eafddc2d422&#45;&gt;dir_0ffc90e37b15a3085244dc84c419f433</title>
<path fill="none" stroke="black" d="M60.99,-87.7C61.43,-79.98 61.96,-70.71 62.45,-62.11"/>
<polygon fill="black" stroke="black" points="65.95,-62.29 63.02,-52.1 58.96,-61.89 65.95,-62.29"/>
<g id="a_edge4&#45;headlabel"><a xlink:href="dir_000010_000006.html" target="_top" xlink:title="2">
<text text-anchor="middle" x="68.58" y="-63.54" font-family="Helvetica,sans-Serif" font-size="10.00">2</text>
</a>
</g>
</g>
<!-- dir_baf1b5e133ff5235a8fdc89b86d57912 -->
<g id="node6" class="node">
<title>dir_baf1b5e133ff5235a8fdc89b86d57912</title>
<g id="a_node6"><a xlink:href="dir_baf1b5e133ff5235a8fdc89b86d57912.html" target="_top" xlink:title="tinyxml2">
<polygon fill="#a2b4d6" stroke="#404040" points="342,-124 282,-124 282,-88 342,-88 342,-124"/>
<text text-anchor="middle" x="312" y="-103.5" font-family="Helvetica,sans-Serif" font-size="10.00">tinyxml2</text>
</a>
</g>
</g>
<!-- dir_baf1b5e133ff5235a8fdc89b86d57912&#45;&gt;dir_605373d5418a34e3085a1032d661490e -->
<g id="edge5" class="edge">
<title>dir_baf1b5e133ff5235a8fdc89b86d57912&#45;&gt;dir_605373d5418a34e3085a1032d661490e</title>
<path fill="none" stroke="black" d="M290.49,-87.7C279.54,-78.88 266.05,-68.03 254.18,-58.47"/>
<polygon fill="black" stroke="black" points="256.24,-55.65 246.26,-52.1 251.86,-61.1 256.24,-55.65"/>
<g id="a_edge5&#45;headlabel"><a xlink:href="dir_000035_000025.html" target="_top" xlink:title="2">
<text text-anchor="middle" x="260.82" y="-53.19" font-family="Helvetica,sans-Serif" font-size="10.00">2</text>
</a>
</g>
</g>
<!-- dir_ae362e177cfbaa0adc3369120e953f8f -->
<g id="node7" class="node">
<title>dir_ae362e177cfbaa0adc3369120e953f8f</title>
<g id="a_node7"><a xlink:href="dir_ae362e177cfbaa0adc3369120e953f8f.html" target="_top" xlink:title="user_default">
<polygon fill="#a2b4d6" stroke="#404040" points="263.5,-124 186.5,-124 186.5,-88 263.5,-88 263.5,-124"/>
<text text-anchor="middle" x="225" y="-103.5" font-family="Helvetica,sans-Serif" font-size="10.00">user_default</text>
</a>
</g>
</g>
<!-- dir_ae362e177cfbaa0adc3369120e953f8f&#45;&gt;dir_605373d5418a34e3085a1032d661490e -->
<g id="edge6" class="edge">
<title>dir_ae362e177cfbaa0adc3369120e953f8f&#45;&gt;dir_605373d5418a34e3085a1032d661490e</title>
<path fill="none" stroke="black" d="M225,-87.7C225,-79.98 225,-70.71 225,-62.11"/>
<polygon fill="black" stroke="black" points="228.5,-62.1 225,-52.1 221.5,-62.1 228.5,-62.1"/>
<g id="a_edge6&#45;headlabel"><a xlink:href="dir_000037_000025.html" target="_top" xlink:title="1">
<text text-anchor="middle" x="231.34" y="-63.2" font-family="Helvetica,sans-Serif" font-size="10.00">1</text>
</a>
</g>
</g>
</g>
</svg>
