<?xml version="1.0" encoding="UTF-8" standalone="no"?>
<!DOCTYPE svg PUBLIC "-//W3C//DTD SVG 1.1//EN"
 "http://www.w3.org/Graphics/SVG/1.1/DTD/svg11.dtd">
<!-- Generated by graphviz version 2.43.0 (0)
 -->
<!-- Title: /home/runner/work/cocos&#45;headers/cocos&#45;headers/cocos2dx/include Pages: 1 -->
<svg width="2033pt" height="144pt"
 viewBox="0.00 0.00 2033.00 144.00" xmlns="http://www.w3.org/2000/svg" xmlns:xlink="http://www.w3.org/1999/xlink">
<g id="graph0" class="graph" transform="scale(1 1) rotate(0) translate(4 140)">
<title>/home/runner/work/cocos&#45;headers/cocos&#45;headers/cocos2dx/include</title>
<g id="clust1" class="cluster">
<title>clusterdir_b2885435f78d14023ac06719456afc50</title>
<g id="a_clust1"><a xlink:href="dir_b2885435f78d14023ac06719456afc50.html" target="_top" xlink:title="cocos2dx">
<polygon fill="#edf0f7" stroke="#404040" stroke-dasharray="5,2" points="8,-8 8,-128 2017,-128 2017,-8 8,-8"/>
<text text-anchor="middle" x="1012.5" y="-116" font-family="Helvetica,sans-Serif" font-size="10.00">cocos2dx</text>
</a>
</g>
</g>
<!-- dir_04802184af57bab0f54d5cba10ee3c7f -->
<g id="node1" class="node">
<title>dir_04802184af57bab0f54d5cba10ee3c7f</title>
<g id="a_node1"><a xlink:href="dir_04802184af57bab0f54d5cba10ee3c7f.html" target="_top" xlink:title="draw_nodes">
<polygon fill="#a2b4d6" stroke="#404040" points="90.5,-40.5 15.5,-40.5 15.5,-21.5 90.5,-21.5 90.5,-40.5"/>
<text text-anchor="middle" x="53" y="-28.5" font-family="Helvetica,sans-Serif" font-size="10.00">draw_nodes</text>
</a>
</g>
</g>
<!-- dir_05651758302a784846fe6cfac652dfd1 -->
<g id="node2" class="node">
<title>dir_05651758302a784846fe6cfac652dfd1</title>
<g id="a_node2"><a xlink:href="dir_05651758302a784846fe6cfac652dfd1.html" target="_top" xlink:title="script_support">
<polygon fill="#a2b4d6" stroke="#404040" points="195,-40.5 109,-40.5 109,-21.5 195,-21.5 195,-40.5"/>
<text text-anchor="middle" x="152" y="-28.5" font-family="Helvetica,sans-Serif" font-size="10.00">script_support</text>
</a>
</g>
</g>
<!-- dir_0ffc90e37b15a3085244dc84c419f433 -->
<g id="node3" class="node">
<title>dir_0ffc90e37b15a3085244dc84c419f433</title>
<g id="a_node3"><a xlink:href="dir_0ffc90e37b15a3085244dc84c419f433.html" target="_top" xlink:title="cocoa">
<polygon fill="#a2b4d6" stroke="#404040" points="258.5,-40.5 213.5,-40.5 213.5,-21.5 258.5,-21.5 258.5,-40.5"/>
<text text-anchor="middle" x="236" y="-28.5" font-family="Helvetica,sans-Serif" font-size="10.00">cocoa</text>
</a>
</g>
</g>
<!-- dir_1125c979ffdcec43cbdfb1b66a667739 -->
<g id="node4" class="node">
<title>dir_1125c979ffdcec43cbdfb1b66a667739</title>
<g id="a_node4"><a xlink:href="dir_1125c979ffdcec43cbdfb1b66a667739.html" target="_top" xlink:title="textures">
<polygon fill="#a2b4d6" stroke="#404040" points="333.5,-40.5 276.5,-40.5 276.5,-21.5 333.5,-21.5 333.5,-40.5"/>
<text text-anchor="middle" x="305" y="-28.5" font-family="Helvetica,sans-Serif" font-size="10.00">textures</text>
</a>
</g>
</g>
<!-- dir_1cdac5b0f02c3413d9e6fc8f67280066 -->
<g id="node5" class="node">
<title>dir_1cdac5b0f02c3413d9e6fc8f67280066</title>
<g id="a_node5"><a xlink:href="dir_1cdac5b0f02c3413d9e6fc8f67280066.html" target="_top" xlink:title="menu_nodes">
<polygon fill="#a2b4d6" stroke="#404040" points="430.5,-40.5 351.5,-40.5 351.5,-21.5 430.5,-21.5 430.5,-40.5"/>
<text text-anchor="middle" x="391" y="-28.5" font-family="Helvetica,sans-Serif" font-size="10.00">menu_nodes</text>
</a>
</g>
</g>
<!-- dir_24251483036455668e88f5fa771ba1c6 -->
<g id="node6" class="node">
<title>dir_24251483036455668e88f5fa771ba1c6</title>
<g id="a_node6"><a xlink:href="dir_24251483036455668e88f5fa771ba1c6.html" target="_top" xlink:title="tilemap_parallax_nodes">
<polygon fill="#a2b4d6" stroke="#404040" points="583,-40.5 449,-40.5 449,-21.5 583,-21.5 583,-40.5"/>
<text text-anchor="middle" x="516" y="-28.5" font-family="Helvetica,sans-Serif" font-size="10.00">tilemap_parallax_nodes</text>
</a>
</g>
</g>
<!-- dir_24cd212f9c113e1d729adaa0e52f03ba -->
<g id="node7" class="node">
<title>dir_24cd212f9c113e1d729adaa0e52f03ba</title>
<g id="a_node7"><a xlink:href="dir_24cd212f9c113e1d729adaa0e52f03ba.html" target="_top" xlink:title="sprite_nodes">
<polygon fill="#a2b4d6" stroke="#404040" points="680.5,-40.5 601.5,-40.5 601.5,-21.5 680.5,-21.5 680.5,-40.5"/>
<text text-anchor="middle" x="641" y="-28.5" font-family="Helvetica,sans-Serif" font-size="10.00">sprite_nodes</text>
</a>
</g>
</g>
<!-- dir_26176f44dbeeee298df2dcbfdfd8a32e -->
<g id="node8" class="node">
<title>dir_26176f44dbeeee298df2dcbfdfd8a32e</title>
<g id="a_node8"><a xlink:href="dir_26176f44dbeeee298df2dcbfdfd8a32e.html" target="_top" xlink:title="text_input_node">
<polygon fill="#a2b4d6" stroke="#404040" points="793.5,-40.5 698.5,-40.5 698.5,-21.5 793.5,-21.5 793.5,-40.5"/>
<text text-anchor="middle" x="746" y="-28.5" font-family="Helvetica,sans-Serif" font-size="10.00">text_input_node</text>
</a>
</g>
</g>
<!-- dir_36e16d2ac8afd2f86f21c92147d16671 -->
<g id="node9" class="node">
<title>dir_36e16d2ac8afd2f86f21c92147d16671</title>
<g id="a_node9"><a xlink:href="dir_36e16d2ac8afd2f86f21c92147d16671.html" target="_top" xlink:title="shaders">
<polygon fill="#a2b4d6" stroke="#404040" points="866.5,-40.5 811.5,-40.5 811.5,-21.5 866.5,-21.5 866.5,-40.5"/>
<text text-anchor="middle" x="839" y="-28.5" font-family="Helvetica,sans-Serif" font-size="10.00">shaders</text>
</a>
</g>
</g>
<!-- dir_41482e72b43928a5c4058d2b13faa505 -->
<g id="node10" class="node">
<title>dir_41482e72b43928a5c4058d2b13faa505</title>
<g id="a_node10"><a xlink:href="dir_41482e72b43928a5c4058d2b13faa505.html" target="_top" xlink:title="base_nodes">
<polygon fill="#a2b4d6" stroke="#404040" points="959,-40.5 885,-40.5 885,-21.5 959,-21.5 959,-40.5"/>
<text text-anchor="middle" x="922" y="-28.5" font-family="Helvetica,sans-Serif" font-size="10.00">base_nodes</text>
</a>
</g>
</g>
<!-- dir_4d1c68354e1d41a466c8f7594b7dec81 -->
<g id="node11" class="node">
<title>dir_4d1c68354e1d41a466c8f7594b7dec81</title>
<g id="a_node11"><a xlink:href="dir_4d1c68354e1d41a466c8f7594b7dec81.html" target="_top" xlink:title="label_nodes">
<polygon fill="#a2b4d6" stroke="#404040" points="1052.5,-40.5 977.5,-40.5 977.5,-21.5 1052.5,-21.5 1052.5,-40.5"/>
<text text-anchor="middle" x="1015" y="-28.5" font-family="Helvetica,sans-Serif" font-size="10.00">label_nodes</text>
</a>
</g>
</g>
<!-- dir_605373d5418a34e3085a1032d661490e -->
<g id="node12" class="node">
<title>dir_605373d5418a34e3085a1032d661490e</title>
<g id="a_node12"><a xlink:href="dir_605373d5418a34e3085a1032d661490e.html" target="_top" xlink:title="platform">
<polygon fill="#a2b4d6" stroke="red" points="1129.5,-40.5 1070.5,-40.5 1070.5,-21.5 1129.5,-21.5 1129.5,-40.5"/>
<text text-anchor="middle" x="1100" y="-28.5" font-family="Helvetica,sans-Serif" font-size="10.00">platform</text>
</a>
</g>
</g>
<!-- dir_7342af9c6873e6dd68c1db8c30e4e652 -->
<g id="node13" class="node">
<title>dir_7342af9c6873e6dd68c1db8c30e4e652</title>
<g id="a_node13"><a xlink:href="dir_7342af9c6873e6dd68c1db8c30e4e652.html" target="_top" xlink:title="layers_scenes_transitions\l_nodes">
<polygon fill="#a2b4d6" stroke="#404040" points="1290.5,-46 1147.5,-46 1147.5,-16 1290.5,-16 1290.5,-46"/>
<text text-anchor="start" x="1155.5" y="-34" font-family="Helvetica,sans-Serif" font-size="10.00">layers_scenes_transitions</text>
<text text-anchor="middle" x="1219" y="-23" font-family="Helvetica,sans-Serif" font-size="10.00">_nodes</text>
</a>
</g>
</g>
<!-- dir_77e717f304705e4cb7b688d967a502c2 -->
<g id="node14" class="node">
<title>dir_77e717f304705e4cb7b688d967a502c2</title>
<g id="a_node14"><a xlink:href="dir_77e717f304705e4cb7b688d967a502c2.html" target="_top" xlink:title="effects">
<polygon fill="#a2b4d6" stroke="#404040" points="1359,-40.5 1309,-40.5 1309,-21.5 1359,-21.5 1359,-40.5"/>
<text text-anchor="middle" x="1334" y="-28.5" font-family="Helvetica,sans-Serif" font-size="10.00">effects</text>
</a>
</g>
</g>
<!-- dir_85628959a12e4252661c7b7cde67937f -->
<g id="node15" class="node">
<title>dir_85628959a12e4252661c7b7cde67937f</title>
<g id="a_node15"><a xlink:href="dir_85628959a12e4252661c7b7cde67937f.html" target="_top" xlink:title="misc_nodes">
<polygon fill="#a2b4d6" stroke="#404040" points="1451,-40.5 1377,-40.5 1377,-21.5 1451,-21.5 1451,-40.5"/>
<text text-anchor="middle" x="1414" y="-28.5" font-family="Helvetica,sans-Serif" font-size="10.00">misc_nodes</text>
</a>
</g>
</g>
<!-- dir_9de5fa0b12f6aef424ec6696834764b6 -->
<g id="node16" class="node">
<title>dir_9de5fa0b12f6aef424ec6696834764b6</title>
<g id="a_node16"><a xlink:href="dir_9de5fa0b12f6aef424ec6696834764b6.html" target="_top" xlink:title="touch_dispatcher">
<polygon fill="#a2b4d6" stroke="#404040" points="1569,-40.5 1469,-40.5 1469,-21.5 1569,-21.5 1569,-40.5"/>
<text text-anchor="middle" x="1519" y="-28.5" font-family="Helvetica,sans-Serif" font-size="10.00">touch_dispatcher</text>
</a>
</g>
</g>
<!-- dir_aee9c38f555fdc45acf0be81ae682c4a -->
<g id="node17" class="node">
<title>dir_aee9c38f555fdc45acf0be81ae682c4a</title>
<g id="a_node17"><a xlink:href="dir_aee9c38f555fdc45acf0be81ae682c4a.html" target="_top" xlink:title="keypad_dispatcher">
<polygon fill="#a2b4d6" stroke="#404040" points="1695,-40.5 1587,-40.5 1587,-21.5 1695,-21.5 1695,-40.5"/>
<text text-anchor="middle" x="1641" y="-28.5" font-family="Helvetica,sans-Serif" font-size="10.00">keypad_dispatcher</text>
</a>
</g>
</g>
<!-- dir_b541ff8c9aa3fa5812a9c807680842bb -->
<g id="node18" class="node">
<title>dir_b541ff8c9aa3fa5812a9c807680842bb</title>
<g id="a_node18"><a xlink:href="dir_b541ff8c9aa3fa5812a9c807680842bb.html" target="_top" xlink:title="support">
<polygon fill="#a2b4d6" stroke="red" points="1766.5,-40.5 1713.5,-40.5 1713.5,-21.5 1766.5,-21.5 1766.5,-40.5"/>
<text text-anchor="middle" x="1740" y="-28.5" font-family="Helvetica,sans-Serif" font-size="10.00">support</text>
</a>
</g>
</g>
<!-- dir_e3fb863a9db021b613f9b24dbf9252a6 -->
<g id="node19" class="node">
<title>dir_e3fb863a9db021b613f9b24dbf9252a6</title>
<g id="a_node19"><a xlink:href="dir_e3fb863a9db021b613f9b24dbf9252a6.html" target="_top" xlink:title="actions">
<polygon fill="#a2b4d6" stroke="#404040" points="1837,-40.5 1785,-40.5 1785,-21.5 1837,-21.5 1837,-40.5"/>
<text text-anchor="middle" x="1811" y="-28.5" font-family="Helvetica,sans-Serif" font-size="10.00">actions</text>
</a>
</g>
</g>
<!-- dir_eda0984698aa21b24d05c821f8aa7c78 -->
<g id="node20" class="node">
<title>dir_eda0984698aa21b24d05c821f8aa7c78</title>
<g id="a_node20"><a xlink:href="dir_eda0984698aa21b24d05c821f8aa7c78.html" target="_top" xlink:title="particle_nodes">
<polygon fill="#a2b4d6" stroke="#404040" points="1943,-40.5 1855,-40.5 1855,-21.5 1943,-21.5 1943,-40.5"/>
<text text-anchor="middle" x="1899" y="-28.5" font-family="Helvetica,sans-Serif" font-size="10.00">particle_nodes</text>
</a>
</g>
</g>
<!-- dir_fd41d75bed24ec93d7c073d7d5db02a3 -->
<g id="node21" class="node">
<title>dir_fd41d75bed24ec93d7c073d7d5db02a3</title>
<g id="a_node21"><a xlink:href="dir_fd41d75bed24ec93d7c073d7d5db02a3.html" target="_top" xlink:title="robtop">
<polygon fill="#a2b4d6" stroke="red" points="2009,-40.5 1961,-40.5 1961,-21.5 2009,-21.5 2009,-40.5"/>
<text text-anchor="middle" x="1985" y="-28.5" font-family="Helvetica,sans-Serif" font-size="10.00">robtop</text>
</a>
</g>
</g>
<!-- dir_27ef4e836ed14d41bc908bfe408a729b -->
<g id="node22" class="node">
<title>dir_27ef4e836ed14d41bc908bfe408a729b</title>
<g id="a_node22"><a xlink:href="dir_27ef4e836ed14d41bc908bfe408a729b.html" target="_top" xlink:title="include">
<polygon fill="#edf0f7" stroke="#404040" stroke-width="2" points="1041,-101 989,-101 989,-82 1041,-82 1041,-101"/>
<text text-anchor="middle" x="1015" y="-89" font-family="Helvetica,sans-Serif" font-size="10.00">include</text>
</a>
</g>
</g>
<!-- dir_27ef4e836ed14d41bc908bfe408a729b&#45;&gt;dir_04802184af57bab0f54d5cba10ee3c7f -->
<g id="edge1" class="edge">
<title>dir_27ef4e836ed14d41bc908bfe408a729b&#45;&gt;dir_04802184af57bab0f54d5cba10ee3c7f</title>
<path fill="none" stroke="#63b8ff" d="M988.86,-90.08C858.47,-87.84 277.74,-76.34 100,-46 95.85,-45.29 91.54,-44.33 87.3,-43.25"/>
<polygon fill="#63b8ff" stroke="#63b8ff" points="88.19,-39.86 77.61,-40.55 86.31,-46.6 88.19,-39.86"/>
<g id="a_edge1&#45;headlabel"><a xlink:href="dir_000015_000011.html" target="_top" xlink:title="2">
<text text-anchor="middle" x="92.41" y="-35.59" font-family="Helvetica,sans-Serif" font-size="10.00" fill="#63b8ff">2</text>
</a>
</g>
</g>
<!-- dir_27ef4e836ed14d41bc908bfe408a729b&#45;&gt;dir_05651758302a784846fe6cfac652dfd1 -->
<g id="edge2" class="edge">
<title>dir_27ef4e836ed14d41bc908bfe408a729b&#45;&gt;dir_05651758302a784846fe6cfac652dfd1</title>
<path fill="none" stroke="#63b8ff" d="M988.73,-89.78C867.48,-86.32 361.33,-70.68 205,-46 200.14,-45.23 195.09,-44.21 190.12,-43.05"/>
<polygon fill="#63b8ff" stroke="#63b8ff" points="190.65,-39.58 180.1,-40.56 188.96,-46.37 190.65,-39.58"/>
<g id="a_edge2&#45;headlabel"><a xlink:href="dir_000015_000028.html" target="_top" xlink:title="1">
<text text-anchor="middle" x="194.83" y="-35.2" font-family="Helvetica,sans-Serif" font-size="10.00" fill="#63b8ff">1</text>
</a>
</g>
</g>
<!-- dir_27ef4e836ed14d41bc908bfe408a729b&#45;&gt;dir_0ffc90e37b15a3085244dc84c419f433 -->
<g id="edge3" class="edge">
<title>dir_27ef4e836ed14d41bc908bfe408a729b&#45;&gt;dir_0ffc90e37b15a3085244dc84c419f433</title>
<path fill="none" stroke="#63b8ff" d="M988.76,-90.17C873.21,-88.54 409.16,-79.94 268,-46 266.05,-45.53 264.08,-44.95 262.11,-44.3"/>
<polygon fill="#63b8ff" stroke="#63b8ff" points="263.14,-40.94 252.55,-40.56 260.59,-47.46 263.14,-40.94"/>
<g id="a_edge3&#45;headlabel"><a xlink:href="dir_000015_000006.html" target="_top" xlink:title="15">
<text text-anchor="middle" x="267.52" y="-37.1" font-family="Helvetica,sans-Serif" font-size="10.00" fill="#63b8ff">15</text>
</a>
</g>
</g>
<!-- dir_27ef4e836ed14d41bc908bfe408a729b&#45;&gt;dir_1125c979ffdcec43cbdfb1b66a667739 -->
<g id="edge4" class="edge">
<title>dir_27ef4e836ed14d41bc908bfe408a729b&#45;&gt;dir_1125c979ffdcec43cbdfb1b66a667739</title>
<path fill="none" stroke="#63b8ff" d="M988.94,-89.77C881.15,-86.61 469.8,-72.97 343,-46 340.16,-45.4 337.25,-44.62 334.37,-43.75"/>
<polygon fill="#63b8ff" stroke="#63b8ff" points="335.39,-40.4 324.8,-40.51 333.15,-47.03 335.39,-40.4"/>
<g id="a_edge4&#45;headlabel"><a xlink:href="dir_000015_000033.html" target="_top" xlink:title="5">
<text text-anchor="middle" x="339.71" y="-36.37" font-family="Helvetica,sans-Serif" font-size="10.00" fill="#63b8ff">5</text>
</a>
</g>
</g>
<!-- dir_27ef4e836ed14d41bc908bfe408a729b&#45;&gt;dir_1cdac5b0f02c3413d9e6fc8f67280066 -->
<g id="edge5" class="edge">
<title>dir_27ef4e836ed14d41bc908bfe408a729b&#45;&gt;dir_1cdac5b0f02c3413d9e6fc8f67280066</title>
<path fill="none" stroke="#63b8ff" d="M988.97,-90.34C907.36,-89.45 649.41,-83.62 440,-46 435.79,-45.24 431.42,-44.27 427.1,-43.2"/>
<polygon fill="#63b8ff" stroke="#63b8ff" points="427.78,-39.76 417.22,-40.54 425.97,-46.52 427.78,-39.76"/>
<g id="a_edge5&#45;headlabel"><a xlink:href="dir_000015_000020.html" target="_top" xlink:title="2">
<text text-anchor="middle" x="431.99" y="-35.45" font-family="Helvetica,sans-Serif" font-size="10.00" fill="#63b8ff">2</text>
</a>
</g>
</g>
<!-- dir_27ef4e836ed14d41bc908bfe408a729b&#45;&gt;dir_24251483036455668e88f5fa771ba1c6 -->
<g id="edge6" class="edge">
<title>dir_27ef4e836ed14d41bc908bfe408a729b&#45;&gt;dir_24251483036455668e88f5fa771ba1c6</title>
<path fill="none" stroke="#63b8ff" d="M988.74,-88.42C922.29,-83 742.13,-67.39 593,-46 585.52,-44.93 577.65,-43.66 569.92,-42.33"/>
<polygon fill="#63b8ff" stroke="#63b8ff" points="570.34,-38.85 559.88,-40.56 569.13,-45.75 570.34,-38.85"/>
<g id="a_edge6&#45;headlabel"><a xlink:href="dir_000015_000034.html" target="_top" xlink:title="6">
<text text-anchor="middle" x="574.37" y="-34.18" font-family="Helvetica,sans-Serif" font-size="10.00" fill="#63b8ff">6</text>
</a>
</g>
</g>
<!-- dir_27ef4e836ed14d41bc908bfe408a729b&#45;&gt;dir_24cd212f9c113e1d729adaa0e52f03ba -->
<g id="edge7" class="edge">
<title>dir_27ef4e836ed14d41bc908bfe408a729b&#45;&gt;dir_24cd212f9c113e1d729adaa0e52f03ba</title>
<path fill="none" stroke="#63b8ff" d="M988.66,-88.18C933.07,-82.99 799.79,-69.08 690,-46 686.12,-45.18 682.09,-44.22 678.09,-43.2"/>
<polygon fill="#63b8ff" stroke="#63b8ff" points="678.87,-39.78 668.3,-40.54 677.04,-46.54 678.87,-39.78"/>
<g id="a_edge7&#45;headlabel"><a xlink:href="dir_000015_000030.html" target="_top" xlink:title="6">
<text text-anchor="middle" x="683.08" y="-35.48" font-family="Helvetica,sans-Serif" font-size="10.00" fill="#63b8ff">6</text>
</a>
</g>
</g>
<!-- dir_27ef4e836ed14d41bc908bfe408a729b&#45;&gt;dir_26176f44dbeeee298df2dcbfdfd8a32e -->
<g id="edge8" class="edge">
<title>dir_27ef4e836ed14d41bc908bfe408a729b&#45;&gt;dir_26176f44dbeeee298df2dcbfdfd8a32e</title>
<path fill="none" stroke="#63b8ff" d="M988.83,-85.3C948.73,-77.28 869.74,-61.2 803,-46 798.81,-45.05 794.45,-44.03 790.09,-42.99"/>
<polygon fill="#63b8ff" stroke="#63b8ff" points="790.56,-39.5 780.01,-40.55 788.91,-46.3 790.56,-39.5"/>
<g id="a_edge8&#45;headlabel"><a xlink:href="dir_000015_000032.html" target="_top" xlink:title="3">
<text text-anchor="middle" x="794.72" y="-35.08" font-family="Helvetica,sans-Serif" font-size="10.00" fill="#63b8ff">3</text>
</a>
</g>
</g>
<!-- dir_27ef4e836ed14d41bc908bfe408a729b&#45;&gt;dir_36e16d2ac8afd2f86f21c92147d16671 -->
<g id="edge9" class="edge">
<title>dir_27ef4e836ed14d41bc908bfe408a729b&#45;&gt;dir_36e16d2ac8afd2f86f21c92147d16671</title>
<path fill="none" stroke="#63b8ff" d="M988.99,-82.62C960.96,-74.02 915.11,-59.65 876,-46 874.35,-45.42 872.66,-44.82 870.96,-44.21"/>
<polygon fill="#63b8ff" stroke="#63b8ff" points="871.83,-40.8 861.24,-40.63 869.41,-47.37 871.83,-40.8"/>
<g id="a_edge9&#45;headlabel"><a xlink:href="dir_000015_000029.html" target="_top" xlink:title="4">
<text text-anchor="middle" x="876.18" y="-36.88" font-family="Helvetica,sans-Serif" font-size="10.00" fill="#63b8ff">4</text>
</a>
</g>
</g>
<!-- dir_27ef4e836ed14d41bc908bfe408a729b&#45;&gt;dir_41482e72b43928a5c4058d2b13faa505 -->
<g id="edge10" class="edge">
<title>dir_27ef4e836ed14d41bc908bfe408a729b&#45;&gt;dir_41482e72b43928a5c4058d2b13faa505</title>
<path fill="none" stroke="#63b8ff" d="M1001.28,-81.87C986.3,-72.45 962.11,-57.23 944.38,-46.08"/>
<polygon fill="#63b8ff" stroke="#63b8ff" points="946.11,-43.03 935.78,-40.67 942.38,-48.95 946.11,-43.03"/>
<g id="a_edge10&#45;headlabel"><a xlink:href="dir_000015_000002.html" target="_top" xlink:title="2">
<text text-anchor="middle" x="950.66" y="-40.04" font-family="Helvetica,sans-Serif" font-size="10.00" fill="#63b8ff">2</text>
</a>
</g>
</g>
<!-- dir_27ef4e836ed14d41bc908bfe408a729b&#45;&gt;dir_4d1c68354e1d41a466c8f7594b7dec81 -->
<g id="edge11" class="edge">
<title>dir_27ef4e836ed14d41bc908bfe408a729b&#45;&gt;dir_4d1c68354e1d41a466c8f7594b7dec81</title>
<path fill="none" stroke="#63b8ff" d="M1015,-81.87C1015,-73.75 1015,-61.31 1015,-50.89"/>
<polygon fill="#63b8ff" stroke="#63b8ff" points="1018.5,-50.67 1015,-40.67 1011.5,-50.67 1018.5,-50.67"/>
<g id="a_edge11&#45;headlabel"><a xlink:href="dir_000015_000018.html" target="_top" xlink:title="3">
<text text-anchor="middle" x="1021.34" y="-51.76" font-family="Helvetica,sans-Serif" font-size="10.00" fill="#63b8ff">3</text>
</a>
</g>
</g>
<!-- dir_27ef4e836ed14d41bc908bfe408a729b&#45;&gt;dir_605373d5418a34e3085a1032d661490e -->
<g id="edge12" class="edge">
<title>dir_27ef4e836ed14d41bc908bfe408a729b&#45;&gt;dir_605373d5418a34e3085a1032d661490e</title>
<path fill="none" stroke="#63b8ff" d="M1027.54,-81.87C1041.1,-72.54 1062.94,-57.51 1079.1,-46.38"/>
<polygon fill="#63b8ff" stroke="#63b8ff" points="1081.15,-49.22 1087.41,-40.67 1077.18,-43.45 1081.15,-49.22"/>
<g id="a_edge12&#45;headlabel"><a xlink:href="dir_000015_000025.html" target="_top" xlink:title="23">
<text text-anchor="middle" x="1079.8" y="-51.1" font-family="Helvetica,sans-Serif" font-size="10.00" fill="#63b8ff">23</text>
</a>
</g>
</g>
<!-- dir_27ef4e836ed14d41bc908bfe408a729b&#45;&gt;dir_7342af9c6873e6dd68c1db8c30e4e652 -->
<g id="edge13" class="edge">
<title>dir_27ef4e836ed14d41bc908bfe408a729b&#45;&gt;dir_7342af9c6873e6dd68c1db8c30e4e652</title>
<path fill="none" stroke="#63b8ff" d="M1041.25,-82.97C1071.11,-74.41 1120.81,-60.16 1160.08,-48.9"/>
<polygon fill="#63b8ff" stroke="#63b8ff" points="1161.17,-52.22 1169.82,-46.1 1159.24,-45.49 1161.17,-52.22"/>
<g id="a_edge13&#45;headlabel"><a xlink:href="dir_000015_000019.html" target="_top" xlink:title="5">
<text text-anchor="middle" x="1158.5" y="-53.44" font-family="Helvetica,sans-Serif" font-size="10.00" fill="#63b8ff">5</text>
</a>
</g>
</g>
<!-- dir_27ef4e836ed14d41bc908bfe408a729b&#45;&gt;dir_77e717f304705e4cb7b688d967a502c2 -->
<g id="edge14" class="edge">
<title>dir_27ef4e836ed14d41bc908bfe408a729b&#45;&gt;dir_77e717f304705e4cb7b688d967a502c2</title>
<path fill="none" stroke="#63b8ff" d="M1041.37,-88.47C1092.2,-84.11 1206.92,-72.04 1300,-46 1301.94,-45.46 1303.91,-44.84 1305.89,-44.17"/>
<polygon fill="#63b8ff" stroke="#63b8ff" points="1307.45,-47.32 1315.57,-40.51 1304.98,-40.77 1307.45,-47.32"/>
<g id="a_edge14&#45;headlabel"><a xlink:href="dir_000015_000012.html" target="_top" xlink:title="2">
<text text-anchor="middle" x="1305.09" y="-48.74" font-family="Helvetica,sans-Serif" font-size="10.00" fill="#63b8ff">2</text>
</a>
</g>
</g>
<!-- dir_27ef4e836ed14d41bc908bfe408a729b&#45;&gt;dir_85628959a12e4252661c7b7cde67937f -->
<g id="edge15" class="edge">
<title>dir_27ef4e836ed14d41bc908bfe408a729b&#45;&gt;dir_85628959a12e4252661c7b7cde67937f</title>
<path fill="none" stroke="#63b8ff" d="M1041.38,-88.72C1100.43,-84.39 1247.49,-71.74 1368,-46 1371.45,-45.26 1375.02,-44.39 1378.57,-43.44"/>
<polygon fill="#63b8ff" stroke="#63b8ff" points="1379.76,-46.74 1388.41,-40.63 1377.84,-40.01 1379.76,-46.74"/>
<g id="a_edge15&#45;headlabel"><a xlink:href="dir_000015_000021.html" target="_top" xlink:title="4">
<text text-anchor="middle" x="1377.08" y="-47.96" font-family="Helvetica,sans-Serif" font-size="10.00" fill="#63b8ff">4</text>
</a>
</g>
</g>
<!-- dir_27ef4e836ed14d41bc908bfe408a729b&#45;&gt;dir_9de5fa0b12f6aef424ec6696834764b6 -->
<g id="edge16" class="edge">
<title>dir_27ef4e836ed14d41bc908bfe408a729b&#45;&gt;dir_9de5fa0b12f6aef424ec6696834764b6</title>
<path fill="none" stroke="#63b8ff" d="M1041.24,-89.1C1110.24,-85.16 1302.26,-72.48 1460,-46 1465.39,-45.1 1471.01,-43.98 1476.56,-42.78"/>
<polygon fill="#63b8ff" stroke="#63b8ff" points="1477.41,-46.18 1486.39,-40.56 1475.86,-39.35 1477.41,-46.18"/>
<g id="a_edge16&#45;headlabel"><a xlink:href="dir_000015_000036.html" target="_top" xlink:title="4">
<text text-anchor="middle" x="1474.53" y="-47.24" font-family="Helvetica,sans-Serif" font-size="10.00" fill="#63b8ff">4</text>
</a>
</g>
</g>
<!-- dir_27ef4e836ed14d41bc908bfe408a729b&#45;&gt;dir_aee9c38f555fdc45acf0be81ae682c4a -->
<g id="edge17" class="edge">
<title>dir_27ef4e836ed14d41bc908bfe408a729b&#45;&gt;dir_aee9c38f555fdc45acf0be81ae682c4a</title>
<path fill="none" stroke="#63b8ff" d="M1041.24,-89.73C1121.83,-87.08 1372.68,-76.77 1578,-46 1584.18,-45.07 1590.66,-43.89 1597.01,-42.6"/>
<polygon fill="#63b8ff" stroke="#63b8ff" points="1597.78,-46.01 1606.83,-40.51 1596.32,-39.16 1597.78,-46.01"/>
<g id="a_edge17&#45;headlabel"><a xlink:href="dir_000015_000017.html" target="_top" xlink:title="2">
<text text-anchor="middle" x="1594.85" y="-47.04" font-family="Helvetica,sans-Serif" font-size="10.00" fill="#63b8ff">2</text>
</a>
</g>
</g>
<!-- dir_27ef4e836ed14d41bc908bfe408a729b&#45;&gt;dir_b541ff8c9aa3fa5812a9c807680842bb -->
<g id="edge18" class="edge">
<title>dir_27ef4e836ed14d41bc908bfe408a729b&#45;&gt;dir_b541ff8c9aa3fa5812a9c807680842bb</title>
<path fill="none" stroke="#63b8ff" d="M1041.36,-89.87C1151.35,-87.1 1574.09,-74.74 1704,-46 1706.52,-45.44 1709.1,-44.74 1711.66,-43.94"/>
<polygon fill="#63b8ff" stroke="#63b8ff" points="1713.02,-47.17 1721.28,-40.53 1710.69,-40.57 1713.02,-47.17"/>
<g id="a_edge18&#45;headlabel"><a xlink:href="dir_000015_000031.html" target="_top" xlink:title="9">
<text text-anchor="middle" x="1710.58" y="-48.54" font-family="Helvetica,sans-Serif" font-size="10.00" fill="#63b8ff">9</text>
</a>
</g>
</g>
<!-- dir_27ef4e836ed14d41bc908bfe408a729b&#45;&gt;dir_e3fb863a9db021b613f9b24dbf9252a6 -->
<g id="edge19" class="edge">
<title>dir_27ef4e836ed14d41bc908bfe408a729b&#45;&gt;dir_e3fb863a9db021b613f9b24dbf9252a6</title>
<path fill="none" stroke="#63b8ff" d="M1041.31,-90.09C1158.25,-88.12 1631.49,-78.23 1776,-46 1778.37,-45.47 1780.79,-44.8 1783.2,-44.04"/>
<polygon fill="#63b8ff" stroke="#63b8ff" points="1784.62,-47.25 1792.83,-40.55 1782.23,-40.67 1784.62,-47.25"/>
<g id="a_edge19&#45;headlabel"><a xlink:href="dir_000015_000000.html" target="_top" xlink:title="13">
<text text-anchor="middle" x="1782.2" y="-48.64" font-family="Helvetica,sans-Serif" font-size="10.00" fill="#63b8ff">13</text>
</a>
</g>
</g>
<!-- dir_27ef4e836ed14d41bc908bfe408a729b&#45;&gt;dir_eda0984698aa21b24d05c821f8aa7c78 -->
<g id="edge20" class="edge">
<title>dir_27ef4e836ed14d41bc908bfe408a729b&#45;&gt;dir_eda0984698aa21b24d05c821f8aa7c78</title>
<path fill="none" stroke="#63b8ff" d="M1041.13,-89.82C1164.03,-86.52 1685.25,-71.26 1846,-46 1850.86,-45.24 1855.91,-44.21 1860.89,-43.06"/>
<polygon fill="#63b8ff" stroke="#63b8ff" points="1862.04,-46.38 1870.9,-40.57 1860.35,-39.59 1862.04,-46.38"/>
<g id="a_edge20&#45;headlabel"><a xlink:href="dir_000015_000024.html" target="_top" xlink:title="4">
<text text-anchor="middle" x="1859.24" y="-47.5" font-family="Helvetica,sans-Serif" font-size="10.00" fill="#63b8ff">4</text>
</a>
</g>
</g>
<!-- dir_27ef4e836ed14d41bc908bfe408a729b&#45;&gt;dir_fd41d75bed24ec93d7c073d7d5db02a3 -->
<g id="edge21" class="edge">
<title>dir_27ef4e836ed14d41bc908bfe408a729b&#45;&gt;dir_fd41d75bed24ec93d7c073d7d5db02a3</title>
<path fill="none" stroke="#63b8ff" d="M1041.41,-90.5C1174.44,-90.31 1771.79,-87.12 1952,-46 1954.17,-45.51 1956.38,-44.88 1958.57,-44.16"/>
<polygon fill="#63b8ff" stroke="#63b8ff" points="1959.81,-47.43 1967.92,-40.6 1957.32,-40.89 1959.81,-47.43"/>
<g id="a_edge21&#45;headlabel"><a xlink:href="dir_000015_000026.html" target="_top" xlink:title="6">
<text text-anchor="middle" x="1957.47" y="-48.86" font-family="Helvetica,sans-Serif" font-size="10.00" fill="#63b8ff">6</text>
</a>
</g>
</g>
</g>
</svg>
