<?xml version="1.0" encoding="UTF-8" standalone="no"?>
<!DOCTYPE svg PUBLIC "-//W3C//DTD SVG 1.1//EN"
 "http://www.w3.org/Graphics/SVG/1.1/DTD/svg11.dtd">
<!-- Generated by graphviz version 2.43.0 (0)
 -->
<!-- Title: /home/runner/work/cocos&#45;headers/cocos&#45;headers/cocos2dx/misc_nodes Pages: 1 -->
<svg width="359pt" height="167pt"
 viewBox="0.00 0.00 359.00 167.00" xmlns="http://www.w3.org/2000/svg" xmlns:xlink="http://www.w3.org/1999/xlink">
<g id="graph0" class="graph" transform="scale(1 1) rotate(0) translate(4 163)">
<title>/home/runner/work/cocos&#45;headers/cocos&#45;headers/cocos2dx/misc_nodes</title>
<g id="clust1" class="cluster">
<title>clusterdir_b2885435f78d14023ac06719456afc50</title>
<g id="a_clust1"><a xlink:href="dir_b2885435f78d14023ac06719456afc50.html" target="_top" xlink:title="cocos2dx">
<polygon fill="#edf0f7" stroke="#404040" stroke-dasharray="5,2" points="8,-8 8,-151 343,-151 343,-8 8,-8"/>
<text text-anchor="middle" x="175.5" y="-139" font-family="Helvetica,sans-Serif" font-size="10.00">cocos2dx</text>
</a>
</g>
</g>
<!-- dir_1125c979ffdcec43cbdfb1b66a667739 -->
<g id="node1" class="node">
<title>dir_1125c979ffdcec43cbdfb1b66a667739</title>
<g id="a_node1"><a xlink:href="dir_1125c979ffdcec43cbdfb1b66a667739.html" target="_top" xlink:title="textures">
<polygon fill="#a2b4d6" stroke="#404040" points="73.5,-52 16.5,-52 16.5,-16 73.5,-16 73.5,-52"/>
<text text-anchor="middle" x="45" y="-31.5" font-family="Helvetica,sans-Serif" font-size="10.00">textures</text>
</a>
</g>
</g>
<!-- dir_24cd212f9c113e1d729adaa0e52f03ba -->
<g id="node2" class="node">
<title>dir_24cd212f9c113e1d729adaa0e52f03ba</title>
<g id="a_node2"><a xlink:href="dir_24cd212f9c113e1d729adaa0e52f03ba.html" target="_top" xlink:title="sprite_nodes">
<polygon fill="#a2b4d6" stroke="#404040" points="170.5,-52 91.5,-52 91.5,-16 170.5,-16 170.5,-52"/>
<text text-anchor="middle" x="131" y="-31.5" font-family="Helvetica,sans-Serif" font-size="10.00">sprite_nodes</text>
</a>
</g>
</g>
<!-- dir_27ef4e836ed14d41bc908bfe408a729b -->
<g id="node3" class="node">
<title>dir_27ef4e836ed14d41bc908bfe408a729b</title>
<g id="a_node3"><a xlink:href="dir_27ef4e836ed14d41bc908bfe408a729b.html" target="_top" xlink:title="include">
<polygon fill="#a2b4d6" stroke="#404040" points="243,-52 189,-52 189,-16 243,-16 243,-52"/>
<text text-anchor="middle" x="216" y="-31.5" font-family="Helvetica,sans-Serif" font-size="10.00">include</text>
</a>
</g>
</g>
<!-- dir_41482e72b43928a5c4058d2b13faa505 -->
<g id="node4" class="node">
<title>dir_41482e72b43928a5c4058d2b13faa505</title>
<g id="a_node4"><a xlink:href="dir_41482e72b43928a5c4058d2b13faa505.html" target="_top" xlink:title="base_nodes">
<polygon fill="#a2b4d6" stroke="#404040" points="335,-52 261,-52 261,-16 335,-16 335,-52"/>
<text text-anchor="middle" x="298" y="-31.5" font-family="Helvetica,sans-Serif" font-size="10.00">base_nodes</text>
</a>
</g>
</g>
<!-- dir_85628959a12e4252661c7b7cde67937f -->
<g id="node5" class="node">
<title>dir_85628959a12e4252661c7b7cde67937f</title>
<g id="a_node5"><a xlink:href="dir_85628959a12e4252661c7b7cde67937f.html" target="_top" xlink:title="misc_nodes">
<polygon fill="#edf0f7" stroke="#404040" stroke-width="2" points="210,-124 136,-124 136,-88 210,-88 210,-124"/>
<text text-anchor="middle" x="173" y="-103.5" font-family="Helvetica,sans-Serif" font-size="10.00">misc_nodes</text>
</a>
</g>
</g>
<!-- dir_85628959a12e4252661c7b7cde67937f&#45;&gt;dir_1125c979ffdcec43cbdfb1b66a667739 -->
<g id="edge1" class="edge">
<title>dir_85628959a12e4252661c7b7cde67937f&#45;&gt;dir_1125c979ffdcec43cbdfb1b66a667739</title>
<path fill="none" stroke="black" d="M141.69,-87.88C123.88,-78.14 101.45,-65.87 82.68,-55.61"/>
<polygon fill="black" stroke="black" points="84.25,-52.48 73.8,-50.75 80.89,-58.62 84.25,-52.48"/>
<g id="a_edge1&#45;headlabel"><a xlink:href="dir_000021_000033.html" target="_top" xlink:title="1">
<text text-anchor="middle" x="88.77" y="-49.21" font-family="Helvetica,sans-Serif" font-size="10.00">1</text>
</a>
</g>
</g>
<!-- dir_85628959a12e4252661c7b7cde67937f&#45;&gt;dir_24cd212f9c113e1d729adaa0e52f03ba -->
<g id="edge2" class="edge">
<title>dir_85628959a12e4252661c7b7cde67937f&#45;&gt;dir_24cd212f9c113e1d729adaa0e52f03ba</title>
<path fill="none" stroke="black" d="M162.62,-87.7C157.74,-79.56 151.81,-69.69 146.42,-60.7"/>
<polygon fill="black" stroke="black" points="149.41,-58.88 141.26,-52.1 143.41,-62.48 149.41,-58.88"/>
<g id="a_edge2&#45;headlabel"><a xlink:href="dir_000021_000030.html" target="_top" xlink:title="2">
<text text-anchor="middle" x="153.69" y="-58" font-family="Helvetica,sans-Serif" font-size="10.00">2</text>
</a>
</g>
</g>
<!-- dir_85628959a12e4252661c7b7cde67937f&#45;&gt;dir_27ef4e836ed14d41bc908bfe408a729b -->
<g id="edge3" class="edge">
<title>dir_85628959a12e4252661c7b7cde67937f&#45;&gt;dir_27ef4e836ed14d41bc908bfe408a729b</title>
<path fill="none" stroke="black" d="M183.63,-87.7C188.63,-79.56 194.69,-69.69 200.21,-60.7"/>
<polygon fill="black" stroke="black" points="203.24,-62.46 205.49,-52.1 197.28,-58.79 203.24,-62.46"/>
<g id="a_edge3&#45;headlabel"><a xlink:href="dir_000021_000015.html" target="_top" xlink:title="2">
<text text-anchor="middle" x="203.78" y="-64.51" font-family="Helvetica,sans-Serif" font-size="10.00">2</text>
</a>
</g>
</g>
<!-- dir_85628959a12e4252661c7b7cde67937f&#45;&gt;dir_41482e72b43928a5c4058d2b13faa505 -->
<g id="edge4" class="edge">
<title>dir_85628959a12e4252661c7b7cde67937f&#45;&gt;dir_41482e72b43928a5c4058d2b13faa505</title>
<path fill="none" stroke="black" d="M203.58,-87.88C220.07,-78.64 240.62,-67.13 258.34,-57.21"/>
<polygon fill="black" stroke="black" points="260.29,-60.13 267.3,-52.19 256.87,-54.02 260.29,-60.13"/>
<g id="a_edge4&#45;headlabel"><a xlink:href="dir_000021_000002.html" target="_top" xlink:title="3">
<text text-anchor="middle" x="258.54" y="-61.86" font-family="Helvetica,sans-Serif" font-size="10.00">3</text>
</a>
</g>
</g>
</g>
</svg>
