<?xml version="1.0" encoding="UTF-8" standalone="no"?>
<!DOCTYPE svg PUBLIC "-//W3C//DTD SVG 1.1//EN"
 "http://www.w3.org/Graphics/SVG/1.1/DTD/svg11.dtd">
<!-- Generated by graphviz version 2.43.0 (0)
 -->
<!-- Title: /home/runner/work/cocos&#45;headers/cocos&#45;headers/cocos2dx/effects Pages: 1 -->
<svg width="334pt" height="167pt"
 viewBox="0.00 0.00 334.00 167.00" xmlns="http://www.w3.org/2000/svg" xmlns:xlink="http://www.w3.org/1999/xlink">
<g id="graph0" class="graph" transform="scale(1 1) rotate(0) translate(4 163)">
<title>/home/runner/work/cocos&#45;headers/cocos&#45;headers/cocos2dx/effects</title>
<g id="clust1" class="cluster">
<title>clusterdir_b2885435f78d14023ac06719456afc50</title>
<g id="a_clust1"><a xlink:href="dir_b2885435f78d14023ac06719456afc50.html" target="_top" xlink:title="cocos2dx">
<polygon fill="#edf0f7" stroke="#404040" stroke-dasharray="5,2" points="8,-8 8,-151 318,-151 318,-8 8,-8"/>
<text text-anchor="middle" x="163" y="-139" font-family="Helvetica,sans-Serif" font-size="10.00">cocos2dx</text>
</a>
</g>
</g>
<!-- dir_0ffc90e37b15a3085244dc84c419f433 -->
<g id="node1" class="node">
<title>dir_0ffc90e37b15a3085244dc84c419f433</title>
<g id="a_node1"><a xlink:href="dir_0ffc90e37b15a3085244dc84c419f433.html" target="_top" xlink:title="cocoa">
<polygon fill="#a2b4d6" stroke="#404040" points="70,-52 16,-52 16,-16 70,-16 70,-52"/>
<text text-anchor="middle" x="43" y="-31.5" font-family="Helvetica,sans-Serif" font-size="10.00">cocoa</text>
</a>
</g>
</g>
<!-- dir_1125c979ffdcec43cbdfb1b66a667739 -->
<g id="node2" class="node">
<title>dir_1125c979ffdcec43cbdfb1b66a667739</title>
<g id="a_node2"><a xlink:href="dir_1125c979ffdcec43cbdfb1b66a667739.html" target="_top" xlink:title="textures">
<polygon fill="#a2b4d6" stroke="#404040" points="145.5,-52 88.5,-52 88.5,-16 145.5,-16 145.5,-52"/>
<text text-anchor="middle" x="117" y="-31.5" font-family="Helvetica,sans-Serif" font-size="10.00">textures</text>
</a>
</g>
</g>
<!-- dir_27ef4e836ed14d41bc908bfe408a729b -->
<g id="node3" class="node">
<title>dir_27ef4e836ed14d41bc908bfe408a729b</title>
<g id="a_node3"><a xlink:href="dir_27ef4e836ed14d41bc908bfe408a729b.html" target="_top" xlink:title="include">
<polygon fill="#a2b4d6" stroke="#404040" points="218,-52 164,-52 164,-16 218,-16 218,-52"/>
<text text-anchor="middle" x="191" y="-31.5" font-family="Helvetica,sans-Serif" font-size="10.00">include</text>
</a>
</g>
</g>
<!-- dir_41482e72b43928a5c4058d2b13faa505 -->
<g id="node4" class="node">
<title>dir_41482e72b43928a5c4058d2b13faa505</title>
<g id="a_node4"><a xlink:href="dir_41482e72b43928a5c4058d2b13faa505.html" target="_top" xlink:title="base_nodes">
<polygon fill="#a2b4d6" stroke="#404040" points="310,-52 236,-52 236,-16 310,-16 310,-52"/>
<text text-anchor="middle" x="273" y="-31.5" font-family="Helvetica,sans-Serif" font-size="10.00">base_nodes</text>
</a>
</g>
</g>
<!-- dir_77e717f304705e4cb7b688d967a502c2 -->
<g id="node5" class="node">
<title>dir_77e717f304705e4cb7b688d967a502c2</title>
<g id="a_node5"><a xlink:href="dir_77e717f304705e4cb7b688d967a502c2.html" target="_top" xlink:title="effects">
<polygon fill="#edf0f7" stroke="#404040" stroke-width="2" points="181,-124 127,-124 127,-88 181,-88 181,-124"/>
<text text-anchor="middle" x="154" y="-103.5" font-family="Helvetica,sans-Serif" font-size="10.00">effects</text>
</a>
</g>
</g>
<!-- dir_77e717f304705e4cb7b688d967a502c2&#45;&gt;dir_0ffc90e37b15a3085244dc84c419f433 -->
<g id="edge1" class="edge">
<title>dir_77e717f304705e4cb7b688d967a502c2&#45;&gt;dir_0ffc90e37b15a3085244dc84c419f433</title>
<path fill="none" stroke="black" d="M126.85,-87.88C112.47,-78.81 94.62,-67.55 79.09,-57.76"/>
<polygon fill="black" stroke="black" points="80.58,-54.56 70.26,-52.19 76.85,-60.48 80.58,-54.56"/>
<g id="a_edge1&#45;headlabel"><a xlink:href="dir_000012_000006.html" target="_top" xlink:title="2">
<text text-anchor="middle" x="85.14" y="-51.58" font-family="Helvetica,sans-Serif" font-size="10.00">2</text>
</a>
</g>
</g>
<!-- dir_77e717f304705e4cb7b688d967a502c2&#45;&gt;dir_1125c979ffdcec43cbdfb1b66a667739 -->
<g id="edge2" class="edge">
<title>dir_77e717f304705e4cb7b688d967a502c2&#45;&gt;dir_1125c979ffdcec43cbdfb1b66a667739</title>
<path fill="none" stroke="black" d="M144.85,-87.7C140.6,-79.64 135.44,-69.89 130.73,-60.98"/>
<polygon fill="black" stroke="black" points="133.81,-59.31 126.04,-52.1 127.62,-62.58 133.81,-59.31"/>
<g id="a_edge2&#45;headlabel"><a xlink:href="dir_000012_000033.html" target="_top" xlink:title="1">
<text text-anchor="middle" x="138" y="-58.66" font-family="Helvetica,sans-Serif" font-size="10.00">1</text>
</a>
</g>
</g>
<!-- dir_77e717f304705e4cb7b688d967a502c2&#45;&gt;dir_27ef4e836ed14d41bc908bfe408a729b -->
<g id="edge3" class="edge">
<title>dir_77e717f304705e4cb7b688d967a502c2&#45;&gt;dir_27ef4e836ed14d41bc908bfe408a729b</title>
<path fill="none" stroke="black" d="M163.15,-87.7C167.4,-79.64 172.56,-69.89 177.27,-60.98"/>
<polygon fill="black" stroke="black" points="180.38,-62.58 181.96,-52.1 174.19,-59.31 180.38,-62.58"/>
<g id="a_edge3&#45;headlabel"><a xlink:href="dir_000012_000015.html" target="_top" xlink:title="1">
<text text-anchor="middle" x="181.21" y="-64.59" font-family="Helvetica,sans-Serif" font-size="10.00">1</text>
</a>
</g>
</g>
<!-- dir_77e717f304705e4cb7b688d967a502c2&#45;&gt;dir_41482e72b43928a5c4058d2b13faa505 -->
<g id="edge4" class="edge">
<title>dir_77e717f304705e4cb7b688d967a502c2&#45;&gt;dir_41482e72b43928a5c4058d2b13faa505</title>
<path fill="none" stroke="black" d="M181,-89.12C197,-79.7 217.53,-67.63 235.13,-57.28"/>
<polygon fill="black" stroke="black" points="237.18,-60.13 244.02,-52.04 233.63,-54.1 237.18,-60.13"/>
<g id="a_edge4&#45;headlabel"><a xlink:href="dir_000012_000002.html" target="_top" xlink:title="1">
<text text-anchor="middle" x="235.52" y="-61.9" font-family="Helvetica,sans-Serif" font-size="10.00">1</text>
</a>
</g>
</g>
</g>
</svg>
