<?xml version="1.0" encoding="UTF-8" standalone="no"?>
<!DOCTYPE svg PUBLIC "-//W3C//DTD SVG 1.1//EN"
 "http://www.w3.org/Graphics/SVG/1.1/DTD/svg11.dtd">
<!-- Generated by graphviz version 2.43.0 (0)
 -->
<!-- Title: /home/runner/work/cocos&#45;headers/cocos&#45;headers/cocos2dx/layers_scenes_transitions_nodes Pages: 1 -->
<svg width="580pt" height="167pt"
 viewBox="0.00 0.00 580.00 167.00" xmlns="http://www.w3.org/2000/svg" xmlns:xlink="http://www.w3.org/1999/xlink">
<g id="graph0" class="graph" transform="scale(1 1) rotate(0) translate(4 163)">
<title>/home/runner/work/cocos&#45;headers/cocos&#45;headers/cocos2dx/layers_scenes_transitions_nodes</title>
<g id="clust1" class="cluster">
<title>clusterdir_b2885435f78d14023ac06719456afc50</title>
<g id="a_clust1"><a xlink:href="dir_b2885435f78d14023ac06719456afc50.html" target="_top" xlink:title="cocos2dx">
<polygon fill="#edf0f7" stroke="#404040" stroke-dasharray="5,2" points="8,-8 8,-151 564,-151 564,-8 8,-8"/>
<text text-anchor="middle" x="286" y="-139" font-family="Helvetica,sans-Serif" font-size="10.00">cocos2dx</text>
</a>
</g>
</g>
<!-- dir_0ffc90e37b15a3085244dc84c419f433 -->
<g id="node1" class="node">
<title>dir_0ffc90e37b15a3085244dc84c419f433</title>
<g id="a_node1"><a xlink:href="dir_0ffc90e37b15a3085244dc84c419f433.html" target="_top" xlink:title="cocoa">
<polygon fill="#a2b4d6" stroke="#404040" points="70,-52 16,-52 16,-16 70,-16 70,-52"/>
<text text-anchor="middle" x="43" y="-31.5" font-family="Helvetica,sans-Serif" font-size="10.00">cocoa</text>
</a>
</g>
</g>
<!-- dir_27ef4e836ed14d41bc908bfe408a729b -->
<g id="node2" class="node">
<title>dir_27ef4e836ed14d41bc908bfe408a729b</title>
<g id="a_node2"><a xlink:href="dir_27ef4e836ed14d41bc908bfe408a729b.html" target="_top" xlink:title="include">
<polygon fill="#a2b4d6" stroke="#404040" points="142,-52 88,-52 88,-16 142,-16 142,-52"/>
<text text-anchor="middle" x="115" y="-31.5" font-family="Helvetica,sans-Serif" font-size="10.00">include</text>
</a>
</g>
</g>
<!-- dir_41482e72b43928a5c4058d2b13faa505 -->
<g id="node3" class="node">
<title>dir_41482e72b43928a5c4058d2b13faa505</title>
<g id="a_node3"><a xlink:href="dir_41482e72b43928a5c4058d2b13faa505.html" target="_top" xlink:title="base_nodes">
<polygon fill="#a2b4d6" stroke="#404040" points="234,-52 160,-52 160,-16 234,-16 234,-52"/>
<text text-anchor="middle" x="197" y="-31.5" font-family="Helvetica,sans-Serif" font-size="10.00">base_nodes</text>
</a>
</g>
</g>
<!-- dir_605373d5418a34e3085a1032d661490e -->
<g id="node4" class="node">
<title>dir_605373d5418a34e3085a1032d661490e</title>
<g id="a_node4"><a xlink:href="dir_605373d5418a34e3085a1032d661490e.html" target="_top" xlink:title="platform">
<polygon fill="#a2b4d6" stroke="red" points="311.5,-52 252.5,-52 252.5,-16 311.5,-16 311.5,-52"/>
<text text-anchor="middle" x="282" y="-31.5" font-family="Helvetica,sans-Serif" font-size="10.00">platform</text>
</a>
</g>
</g>
<!-- dir_9de5fa0b12f6aef424ec6696834764b6 -->
<g id="node5" class="node">
<title>dir_9de5fa0b12f6aef424ec6696834764b6</title>
<g id="a_node5"><a xlink:href="dir_9de5fa0b12f6aef424ec6696834764b6.html" target="_top" xlink:title="touch_dispatcher">
<polygon fill="#a2b4d6" stroke="#404040" points="430,-52 330,-52 330,-16 430,-16 430,-52"/>
<text text-anchor="middle" x="380" y="-31.5" font-family="Helvetica,sans-Serif" font-size="10.00">touch_dispatcher</text>
</a>
</g>
</g>
<!-- dir_aee9c38f555fdc45acf0be81ae682c4a -->
<g id="node6" class="node">
<title>dir_aee9c38f555fdc45acf0be81ae682c4a</title>
<g id="a_node6"><a xlink:href="dir_aee9c38f555fdc45acf0be81ae682c4a.html" target="_top" xlink:title="keypad_dispatcher">
<polygon fill="#a2b4d6" stroke="#404040" points="556,-52 448,-52 448,-16 556,-16 556,-52"/>
<text text-anchor="middle" x="502" y="-31.5" font-family="Helvetica,sans-Serif" font-size="10.00">keypad_dispatcher</text>
</a>
</g>
</g>
<!-- dir_7342af9c6873e6dd68c1db8c30e4e652 -->
<g id="node7" class="node">
<title>dir_7342af9c6873e6dd68c1db8c30e4e652</title>
<g id="a_node7"><a xlink:href="dir_7342af9c6873e6dd68c1db8c30e4e652.html" target="_top" xlink:title="layers_scenes_transitions_nodes">
<polygon fill="#edf0f7" stroke="#404040" stroke-width="2" points="327.5,-124 150.5,-124 150.5,-88 327.5,-88 327.5,-124"/>
<text text-anchor="middle" x="239" y="-103.5" font-family="Helvetica,sans-Serif" font-size="10.00">layers_scenes_transitions_nodes</text>
</a>
</g>
</g>
<!-- dir_7342af9c6873e6dd68c1db8c30e4e652&#45;&gt;dir_0ffc90e37b15a3085244dc84c419f433 -->
<g id="edge1" class="edge">
<title>dir_7342af9c6873e6dd68c1db8c30e4e652&#45;&gt;dir_0ffc90e37b15a3085244dc84c419f433</title>
<path fill="none" stroke="black" d="M181.75,-87.89C153.25,-78.95 118.21,-67.31 79.7,-52.08"/>
<polygon fill="black" stroke="black" points="80.95,-48.81 70.37,-48.34 78.35,-55.31 80.95,-48.81"/>
<g id="a_edge1&#45;headlabel"><a xlink:href="dir_000019_000006.html" target="_top" xlink:title="1">
<text text-anchor="middle" x="85.34" y="-45.01" font-family="Helvetica,sans-Serif" font-size="10.00">1</text>
</a>
</g>
</g>
<!-- dir_7342af9c6873e6dd68c1db8c30e4e652&#45;&gt;dir_27ef4e836ed14d41bc908bfe408a729b -->
<g id="edge2" class="edge">
<title>dir_7342af9c6873e6dd68c1db8c30e4e652&#45;&gt;dir_27ef4e836ed14d41bc908bfe408a729b</title>
<path fill="none" stroke="black" d="M208.67,-87.88C191.25,-78.04 169.27,-65.64 150.98,-55.31"/>
<polygon fill="black" stroke="black" points="152.5,-52.15 142.07,-50.28 149.05,-58.24 152.5,-52.15"/>
<g id="a_edge2&#45;headlabel"><a xlink:href="dir_000019_000015.html" target="_top" xlink:title="2">
<text text-anchor="middle" x="157.02" y="-48.94" font-family="Helvetica,sans-Serif" font-size="10.00">2</text>
</a>
</g>
</g>
<!-- dir_7342af9c6873e6dd68c1db8c30e4e652&#45;&gt;dir_41482e72b43928a5c4058d2b13faa505 -->
<g id="edge3" class="edge">
<title>dir_7342af9c6873e6dd68c1db8c30e4e652&#45;&gt;dir_41482e72b43928a5c4058d2b13faa505</title>
<path fill="none" stroke="black" d="M228.62,-87.7C223.74,-79.56 217.81,-69.69 212.42,-60.7"/>
<polygon fill="black" stroke="black" points="215.41,-58.88 207.26,-52.1 209.41,-62.48 215.41,-58.88"/>
<g id="a_edge3&#45;headlabel"><a xlink:href="dir_000019_000002.html" target="_top" xlink:title="2">
<text text-anchor="middle" x="219.69" y="-58" font-family="Helvetica,sans-Serif" font-size="10.00">2</text>
</a>
</g>
</g>
<!-- dir_7342af9c6873e6dd68c1db8c30e4e652&#45;&gt;dir_605373d5418a34e3085a1032d661490e -->
<g id="edge4" class="edge">
<title>dir_7342af9c6873e6dd68c1db8c30e4e652&#45;&gt;dir_605373d5418a34e3085a1032d661490e</title>
<path fill="none" stroke="black" d="M249.63,-87.7C254.63,-79.56 260.69,-69.69 266.21,-60.7"/>
<polygon fill="black" stroke="black" points="269.24,-62.46 271.49,-52.1 263.28,-58.79 269.24,-62.46"/>
<g id="a_edge4&#45;headlabel"><a xlink:href="dir_000019_000025.html" target="_top" xlink:title="1">
<text text-anchor="middle" x="269.78" y="-64.51" font-family="Helvetica,sans-Serif" font-size="10.00">1</text>
</a>
</g>
</g>
<!-- dir_7342af9c6873e6dd68c1db8c30e4e652&#45;&gt;dir_9de5fa0b12f6aef424ec6696834764b6 -->
<g id="edge5" class="edge">
<title>dir_7342af9c6873e6dd68c1db8c30e4e652&#45;&gt;dir_9de5fa0b12f6aef424ec6696834764b6</title>
<path fill="none" stroke="black" d="M273.49,-87.88C292.44,-78.47 316.13,-66.71 336.36,-56.67"/>
<polygon fill="black" stroke="black" points="337.97,-59.77 345.37,-52.19 334.86,-53.5 337.97,-59.77"/>
<g id="a_edge5&#45;headlabel"><a xlink:href="dir_000019_000036.html" target="_top" xlink:title="1">
<text text-anchor="middle" x="336.02" y="-61.41" font-family="Helvetica,sans-Serif" font-size="10.00">1</text>
</a>
</g>
</g>
<!-- dir_7342af9c6873e6dd68c1db8c30e4e652&#45;&gt;dir_aee9c38f555fdc45acf0be81ae682c4a -->
<g id="edge6" class="edge">
<title>dir_7342af9c6873e6dd68c1db8c30e4e652&#45;&gt;dir_aee9c38f555fdc45acf0be81ae682c4a</title>
<path fill="none" stroke="black" d="M303.87,-87.89C340.65,-78.17 387.77,-65.68 437.97,-52.27"/>
<polygon fill="black" stroke="black" points="438.95,-55.63 447.71,-49.67 437.14,-48.87 438.95,-55.63"/>
<g id="a_edge6&#45;headlabel"><a xlink:href="dir_000019_000017.html" target="_top" xlink:title="1">
<text text-anchor="middle" x="436.21" y="-56.8" font-family="Helvetica,sans-Serif" font-size="10.00">1</text>
</a>
</g>
</g>
</g>
</svg>
