<?xml version="1.0" encoding="UTF-8" standalone="no"?>
<!DOCTYPE svg PUBLIC "-//W3C//DTD SVG 1.1//EN"
 "http://www.w3.org/Graphics/SVG/1.1/DTD/svg11.dtd">
<!-- Generated by graphviz version 2.43.0 (0)
 -->
<!-- Title: /home/runner/work/cocos&#45;headers/cocos&#45;headers/extensions/GUI Pages: 1 -->
<svg width="277pt" height="180pt"
 viewBox="0.00 0.00 277.00 180.00" xmlns="http://www.w3.org/2000/svg" xmlns:xlink="http://www.w3.org/1999/xlink">
<g id="graph0" class="graph" transform="scale(1 1) rotate(0) translate(4 176)">
<title>/home/runner/work/cocos&#45;headers/cocos&#45;headers/extensions/GUI</title>
<g id="clust1" class="cluster">
<title>clusterdir_445263fafd9544f9ee19804b2b65121e</title>
<g id="a_clust1"><a xlink:href="dir_445263fafd9544f9ee19804b2b65121e.html" target="_top" xlink:title="extensions">
<polygon fill="#edf0f7" stroke="#404040" stroke-dasharray="5,2" points="8,-39 8,-164 261,-164 261,-39 8,-39"/>
<text text-anchor="middle" x="134.5" y="-152" font-family="Helvetica,sans-Serif" font-size="10.00">extensions</text>
</a>
</g>
</g>
<g id="clust2" class="cluster">
<title>clusterdir_80a68488629c369adfcba21e8b8b4baa</title>
<g id="a_clust2"><a xlink:href="dir_80a68488629c369adfcba21e8b8b4baa.html" target="_top">
<polygon fill="#edf0f7" stroke="#404040" stroke-width="2" points="16,-47 16,-137 253,-137 253,-47 16,-47"/>
</a>
</g>
</g>
<!-- dir_80a68488629c369adfcba21e8b8b4baa -->
<g id="node1" class="node">
<title>dir_80a68488629c369adfcba21e8b8b4baa</title>
<text text-anchor="middle" x="227" y="-117" font-family="Helvetica,sans-Serif" font-size="10.00">GUI</text>
</g>
<!-- dir_bc5f8dfdc578fe11a07564e45c002103 -->
<g id="node2" class="node">
<title>dir_bc5f8dfdc578fe11a07564e45c002103</title>
<g id="a_node2"><a xlink:href="dir_bc5f8dfdc578fe11a07564e45c002103.html" target="_top" xlink:title="CCControlExtension">
<polygon fill="#a2b4d6" stroke="#404040" points="137.5,-74 24.5,-74 24.5,-55 137.5,-55 137.5,-74"/>
<text text-anchor="middle" x="81" y="-62" font-family="Helvetica,sans-Serif" font-size="10.00">CCControlExtension</text>
</a>
</g>
</g>
<!-- dir_b2885435f78d14023ac06719456afc50 -->
<g id="node5" class="node">
<title>dir_b2885435f78d14023ac06719456afc50</title>
<g id="a_node5"><a xlink:href="dir_b2885435f78d14023ac06719456afc50.html" target="_top" xlink:title="cocos2dx">
<polygon fill="#edf0f7" stroke="red" points="197,-19 135,-19 135,0 197,0 197,-19"/>
<text text-anchor="middle" x="166" y="-7" font-family="Helvetica,sans-Serif" font-size="10.00">cocos2dx</text>
</a>
</g>
</g>
<!-- dir_bc5f8dfdc578fe11a07564e45c002103&#45;&gt;dir_b2885435f78d14023ac06719456afc50 -->
<g id="edge1" class="edge">
<title>dir_bc5f8dfdc578fe11a07564e45c002103&#45;&gt;dir_b2885435f78d14023ac06719456afc50</title>
<path fill="none" stroke="#63b8ff" d="M94.66,-54.98C107.84,-46.77 128.03,-34.18 143.57,-24.49"/>
<polygon fill="#63b8ff" stroke="#63b8ff" points="145.46,-27.43 152.09,-19.17 141.76,-21.49 145.46,-27.43"/>
<g id="a_edge1&#45;headlabel"><a xlink:href="dir_000003_000007.html" target="_top" xlink:title="4">
<text text-anchor="middle" x="143.91" y="-29.24" font-family="Helvetica,sans-Serif" font-size="10.00" fill="#63b8ff">4</text>
</a>
</g>
</g>
<!-- dir_638906ca18031269321b09c235575d53 -->
<g id="node3" class="node">
<title>dir_638906ca18031269321b09c235575d53</title>
<g id="a_node3"><a xlink:href="dir_638906ca18031269321b09c235575d53.html" target="_top" xlink:title="CCEditBox">
<polygon fill="#a2b4d6" stroke="#404040" points="92,-129 24,-129 24,-110 92,-110 92,-129"/>
<text text-anchor="middle" x="58" y="-117" font-family="Helvetica,sans-Serif" font-size="10.00">CCEditBox</text>
</a>
</g>
</g>
<!-- dir_638906ca18031269321b09c235575d53&#45;&gt;dir_bc5f8dfdc578fe11a07564e45c002103 -->
<g id="edge3" class="edge">
<title>dir_638906ca18031269321b09c235575d53&#45;&gt;dir_bc5f8dfdc578fe11a07564e45c002103</title>
<path fill="none" stroke="#63b8ff" d="M61.8,-109.75C64.91,-102.57 69.42,-92.18 73.29,-83.27"/>
<polygon fill="#63b8ff" stroke="#63b8ff" points="76.5,-84.66 77.27,-74.09 70.08,-81.87 76.5,-84.66"/>
<g id="a_edge3&#45;headlabel"><a xlink:href="dir_000004_000003.html" target="_top" xlink:title="1">
<text text-anchor="middle" x="77.68" y="-86.58" font-family="Helvetica,sans-Serif" font-size="10.00" fill="#63b8ff">1</text>
</a>
</g>
</g>
<!-- dir_638906ca18031269321b09c235575d53&#45;&gt;dir_b2885435f78d14023ac06719456afc50 -->
<g id="edge2" class="edge">
<title>dir_638906ca18031269321b09c235575d53&#45;&gt;dir_b2885435f78d14023ac06719456afc50</title>
<path fill="none" stroke="#63b8ff" d="M89.23,-109.89C108.42,-103.08 132.11,-91.72 147,-74 157.53,-61.47 162.22,-43.27 164.32,-29.57"/>
<polygon fill="#63b8ff" stroke="#63b8ff" points="167.83,-29.67 165.53,-19.33 160.88,-28.85 167.83,-29.67"/>
<g id="a_edge2&#45;headlabel"><a xlink:href="dir_000004_000007.html" target="_top" xlink:title="7">
<text text-anchor="middle" x="170.22" y="-31.08" font-family="Helvetica,sans-Serif" font-size="10.00" fill="#63b8ff">7</text>
</a>
</g>
</g>
<!-- dir_57a4c5cfbcb3e4362bece2166106992e -->
<g id="node4" class="node">
<title>dir_57a4c5cfbcb3e4362bece2166106992e</title>
<g id="a_node4"><a xlink:href="dir_57a4c5cfbcb3e4362bece2166106992e.html" target="_top" xlink:title="CCScrollView">
<polygon fill="#a2b4d6" stroke="#404040" points="191.5,-129 110.5,-129 110.5,-110 191.5,-110 191.5,-129"/>
<text text-anchor="middle" x="151" y="-117" font-family="Helvetica,sans-Serif" font-size="10.00">CCScrollView</text>
</a>
</g>
</g>
<!-- dir_57a4c5cfbcb3e4362bece2166106992e&#45;&gt;dir_b2885435f78d14023ac06719456afc50 -->
<g id="edge4" class="edge">
<title>dir_57a4c5cfbcb3e4362bece2166106992e&#45;&gt;dir_b2885435f78d14023ac06719456afc50</title>
<path fill="none" stroke="#63b8ff" d="M158.94,-109.75C166.03,-101.3 175.9,-87.79 180,-74 184.43,-59.09 183.52,-54.15 180,-39 179.15,-35.35 177.76,-31.62 176.18,-28.12"/>
<polygon fill="#63b8ff" stroke="#63b8ff" points="179.22,-26.37 171.51,-19.09 173,-29.58 179.22,-26.37"/>
<g id="a_edge4&#45;headlabel"><a xlink:href="dir_000005_000007.html" target="_top" xlink:title="3">
<text text-anchor="middle" x="183.39" y="-25.75" font-family="Helvetica,sans-Serif" font-size="10.00" fill="#63b8ff">3</text>
</a>
</g>
</g>
</g>
</svg>
