<?xml version="1.0" encoding="UTF-8" standalone="no"?>
<!DOCTYPE svg PUBLIC "-//W3C//DTD SVG 1.1//EN"
 "http://www.w3.org/Graphics/SVG/1.1/DTD/svg11.dtd">
<!-- Generated by graphviz version 2.43.0 (0)
 -->
<!-- Title: /home/runner/work/cocos&#45;headers/cocos&#45;headers/cocos2dx/robtop Pages: 1 -->
<svg width="540pt" height="175pt"
 viewBox="0.00 0.00 540.00 175.00" xmlns="http://www.w3.org/2000/svg" xmlns:xlink="http://www.w3.org/1999/xlink">
<g id="graph0" class="graph" transform="scale(1 1) rotate(0) translate(4 171)">
<title>/home/runner/work/cocos&#45;headers/cocos&#45;headers/cocos2dx/robtop</title>
<g id="clust1" class="cluster">
<title>clusterdir_b2885435f78d14023ac06719456afc50</title>
<g id="a_clust1"><a xlink:href="dir_b2885435f78d14023ac06719456afc50.html" target="_top" xlink:title="cocos2dx">
<polygon fill="#edf0f7" stroke="#404040" stroke-dasharray="5,2" points="8,-8 8,-159 524,-159 524,-8 8,-8"/>
<text text-anchor="middle" x="266" y="-147" font-family="Helvetica,sans-Serif" font-size="10.00">cocos2dx</text>
</a>
</g>
</g>
<g id="clust2" class="cluster">
<title>clusterdir_fd41d75bed24ec93d7c073d7d5db02a3</title>
<g id="a_clust2"><a xlink:href="dir_fd41d75bed24ec93d7c073d7d5db02a3.html" target="_top">
<polygon fill="#edf0f7" stroke="#404040" stroke-width="2" points="16,-80 16,-132 516,-132 516,-80 16,-80"/>
</a>
</g>
</g>
<!-- dir_0ffc90e37b15a3085244dc84c419f433 -->
<g id="node1" class="node">
<title>dir_0ffc90e37b15a3085244dc84c419f433</title>
<g id="a_node1"><a xlink:href="dir_0ffc90e37b15a3085244dc84c419f433.html" target="_top" xlink:title="cocoa">
<polygon fill="#a2b4d6" stroke="#404040" points="139,-52 85,-52 85,-16 139,-16 139,-52"/>
<text text-anchor="middle" x="112" y="-31.5" font-family="Helvetica,sans-Serif" font-size="10.00">cocoa</text>
</a>
</g>
</g>
<!-- dir_27ef4e836ed14d41bc908bfe408a729b -->
<g id="node2" class="node">
<title>dir_27ef4e836ed14d41bc908bfe408a729b</title>
<g id="a_node2"><a xlink:href="dir_27ef4e836ed14d41bc908bfe408a729b.html" target="_top" xlink:title="include">
<polygon fill="#a2b4d6" stroke="#404040" points="295,-52 241,-52 241,-16 295,-16 295,-52"/>
<text text-anchor="middle" x="268" y="-31.5" font-family="Helvetica,sans-Serif" font-size="10.00">include</text>
</a>
</g>
</g>
<!-- dir_fd41d75bed24ec93d7c073d7d5db02a3 -->
<g id="node3" class="node">
<title>dir_fd41d75bed24ec93d7c073d7d5db02a3</title>
<text text-anchor="middle" x="481" y="-103.5" font-family="Helvetica,sans-Serif" font-size="10.00">robtop</text>
</g>
<!-- dir_4929c9c0b6ed1c40f24cb19713bc105f -->
<g id="node4" class="node">
<title>dir_4929c9c0b6ed1c40f24cb19713bc105f</title>
<g id="a_node4"><a xlink:href="dir_4929c9c0b6ed1c40f24cb19713bc105f.html" target="_top" xlink:title="keyboard_dispatcher">
<polygon fill="#a2b4d6" stroke="#404040" points="142,-124 24,-124 24,-88 142,-88 142,-124"/>
<text text-anchor="middle" x="83" y="-103.5" font-family="Helvetica,sans-Serif" font-size="10.00">keyboard_dispatcher</text>
</a>
</g>
</g>
<!-- dir_4929c9c0b6ed1c40f24cb19713bc105f&#45;&gt;dir_0ffc90e37b15a3085244dc84c419f433 -->
<g id="edge1" class="edge">
<title>dir_4929c9c0b6ed1c40f24cb19713bc105f&#45;&gt;dir_0ffc90e37b15a3085244dc84c419f433</title>
<path fill="none" stroke="black" d="M90.17,-87.7C93.43,-79.81 97.37,-70.3 101,-61.55"/>
<polygon fill="black" stroke="black" points="104.32,-62.68 104.91,-52.1 97.85,-60 104.32,-62.68"/>
<g id="a_edge1&#45;headlabel"><a xlink:href="dir_000016_000006.html" target="_top" xlink:title="2">
<text text-anchor="middle" x="105.57" y="-64.59" font-family="Helvetica,sans-Serif" font-size="10.00">2</text>
</a>
</g>
</g>
<!-- dir_4929c9c0b6ed1c40f24cb19713bc105f&#45;&gt;dir_27ef4e836ed14d41bc908bfe408a729b -->
<g id="edge2" class="edge">
<title>dir_4929c9c0b6ed1c40f24cb19713bc105f&#45;&gt;dir_27ef4e836ed14d41bc908bfe408a729b</title>
<path fill="none" stroke="black" d="M128.26,-87.88C159.97,-75.88 201.82,-60.04 231.42,-48.84"/>
<polygon fill="black" stroke="black" points="232.85,-52.04 240.96,-45.23 230.37,-45.5 232.85,-52.04"/>
<g id="a_edge2&#45;headlabel"><a xlink:href="dir_000016_000015.html" target="_top" xlink:title="1">
<text text-anchor="middle" x="230.49" y="-53.47" font-family="Helvetica,sans-Serif" font-size="10.00">1</text>
</a>
</g>
</g>
<!-- dir_fda4ddd168c7a39b0314bc429dc75f23 -->
<g id="node5" class="node">
<title>dir_fda4ddd168c7a39b0314bc429dc75f23</title>
<g id="a_node5"><a xlink:href="dir_fda4ddd168c7a39b0314bc429dc75f23.html" target="_top" xlink:title="mouse_dispatcher">
<polygon fill="#a2b4d6" stroke="#404040" points="266,-124 160,-124 160,-88 266,-88 266,-124"/>
<text text-anchor="middle" x="213" y="-103.5" font-family="Helvetica,sans-Serif" font-size="10.00">mouse_dispatcher</text>
</a>
</g>
</g>
<!-- dir_fda4ddd168c7a39b0314bc429dc75f23&#45;&gt;dir_0ffc90e37b15a3085244dc84c419f433 -->
<g id="edge3" class="edge">
<title>dir_fda4ddd168c7a39b0314bc429dc75f23&#45;&gt;dir_0ffc90e37b15a3085244dc84c419f433</title>
<path fill="none" stroke="black" d="M188.29,-87.88C175.33,-78.89 159.27,-67.76 145.23,-58.03"/>
<polygon fill="black" stroke="black" points="147.02,-55.01 136.8,-52.19 143.03,-60.76 147.02,-55.01"/>
<g id="a_edge3&#45;headlabel"><a xlink:href="dir_000022_000006.html" target="_top" xlink:title="2">
<text text-anchor="middle" x="151.59" y="-52.22" font-family="Helvetica,sans-Serif" font-size="10.00">2</text>
</a>
</g>
</g>
<!-- dir_fda4ddd168c7a39b0314bc429dc75f23&#45;&gt;dir_27ef4e836ed14d41bc908bfe408a729b -->
<g id="edge4" class="edge">
<title>dir_fda4ddd168c7a39b0314bc429dc75f23&#45;&gt;dir_27ef4e836ed14d41bc908bfe408a729b</title>
<path fill="none" stroke="black" d="M226.6,-87.7C233.12,-79.39 241.07,-69.28 248.25,-60.14"/>
<polygon fill="black" stroke="black" points="251.13,-62.13 254.56,-52.1 245.63,-57.81 251.13,-62.13"/>
<g id="a_edge4&#45;headlabel"><a xlink:href="dir_000022_000015.html" target="_top" xlink:title="1">
<text text-anchor="middle" x="251.15" y="-64.21" font-family="Helvetica,sans-Serif" font-size="10.00">1</text>
</a>
</g>
</g>
<!-- dir_79b35837b8d4f6bc3a8c5e73109716f5 -->
<g id="node6" class="node">
<title>dir_79b35837b8d4f6bc3a8c5e73109716f5</title>
<g id="a_node6"><a xlink:href="dir_79b35837b8d4f6bc3a8c5e73109716f5.html" target="_top" xlink:title="scene_nodes">
<polygon fill="#a2b4d6" stroke="#404040" points="364,-124 284,-124 284,-88 364,-88 364,-124"/>
<text text-anchor="middle" x="324" y="-103.5" font-family="Helvetica,sans-Serif" font-size="10.00">scene_nodes</text>
</a>
</g>
</g>
<!-- dir_79b35837b8d4f6bc3a8c5e73109716f5&#45;&gt;dir_27ef4e836ed14d41bc908bfe408a729b -->
<g id="edge5" class="edge">
<title>dir_79b35837b8d4f6bc3a8c5e73109716f5&#45;&gt;dir_27ef4e836ed14d41bc908bfe408a729b</title>
<path fill="none" stroke="black" d="M310.16,-87.7C303.51,-79.39 295.42,-69.28 288.11,-60.14"/>
<polygon fill="black" stroke="black" points="290.66,-57.73 281.68,-52.1 285.2,-62.1 290.66,-57.73"/>
<g id="a_edge5&#45;headlabel"><a xlink:href="dir_000027_000015.html" target="_top" xlink:title="1">
<text text-anchor="middle" x="295.13" y="-56.26" font-family="Helvetica,sans-Serif" font-size="10.00">1</text>
</a>
</g>
</g>
<!-- dir_7a657190b64702492a6ff4a9f7f2fa0d -->
<g id="node7" class="node">
<title>dir_7a657190b64702492a6ff4a9f7f2fa0d</title>
<g id="a_node7"><a xlink:href="dir_7a657190b64702492a6ff4a9f7f2fa0d.html" target="_top" xlink:title="xml">
<polygon fill="#a2b4d6" stroke="#404040" points="436,-124 382,-124 382,-88 436,-88 436,-124"/>
<text text-anchor="middle" x="409" y="-103.5" font-family="Helvetica,sans-Serif" font-size="10.00">xml</text>
</a>
</g>
</g>
<!-- dir_7a657190b64702492a6ff4a9f7f2fa0d&#45;&gt;dir_27ef4e836ed14d41bc908bfe408a729b -->
<g id="edge6" class="edge">
<title>dir_7a657190b64702492a6ff4a9f7f2fa0d&#45;&gt;dir_27ef4e836ed14d41bc908bfe408a729b</title>
<path fill="none" stroke="black" d="M385.81,-87.89C381.64,-85.1 377.26,-82.36 373,-80 350.98,-67.8 324.99,-56.64 304.38,-48.48"/>
<polygon fill="black" stroke="black" points="305.62,-45.21 295.03,-44.84 303.08,-51.73 305.62,-45.21"/>
<g id="a_edge6&#45;headlabel"><a xlink:href="dir_000040_000015.html" target="_top" xlink:title="1">
<text text-anchor="middle" x="310" y="-41.37" font-family="Helvetica,sans-Serif" font-size="10.00">1</text>
</a>
</g>
</g>
</g>
</svg>
