<?xml version="1.0" encoding="UTF-8" standalone="no"?>
<!DOCTYPE svg PUBLIC "-//W3C//DTD SVG 1.1//EN"
 "http://www.w3.org/Graphics/SVG/1.1/DTD/svg11.dtd">
<!-- Generated by graphviz version 2.43.0 (0)
 -->
<!-- Title: /home/runner/work/cocos&#45;headers/cocos&#45;headers/cocos2dx/shaders Pages: 1 -->
<svg width="244pt" height="167pt"
 viewBox="0.00 0.00 244.00 167.00" xmlns="http://www.w3.org/2000/svg" xmlns:xlink="http://www.w3.org/1999/xlink">
<g id="graph0" class="graph" transform="scale(1 1) rotate(0) translate(4 163)">
<title>/home/runner/work/cocos&#45;headers/cocos&#45;headers/cocos2dx/shaders</title>
<g id="clust1" class="cluster">
<title>clusterdir_b2885435f78d14023ac06719456afc50</title>
<g id="a_clust1"><a xlink:href="dir_b2885435f78d14023ac06719456afc50.html" target="_top" xlink:title="cocos2dx">
<polygon fill="#edf0f7" stroke="#404040" stroke-dasharray="5,2" points="8,-8 8,-151 228,-151 228,-8 8,-8"/>
<text text-anchor="middle" x="118" y="-139" font-family="Helvetica,sans-Serif" font-size="10.00">cocos2dx</text>
</a>
</g>
</g>
<!-- dir_0ffc90e37b15a3085244dc84c419f433 -->
<g id="node1" class="node">
<title>dir_0ffc90e37b15a3085244dc84c419f433</title>
<g id="a_node1"><a xlink:href="dir_0ffc90e37b15a3085244dc84c419f433.html" target="_top" xlink:title="cocoa">
<polygon fill="#a2b4d6" stroke="#404040" points="70,-52 16,-52 16,-16 70,-16 70,-52"/>
<text text-anchor="middle" x="43" y="-31.5" font-family="Helvetica,sans-Serif" font-size="10.00">cocoa</text>
</a>
</g>
</g>
<!-- dir_27ef4e836ed14d41bc908bfe408a729b -->
<g id="node2" class="node">
<title>dir_27ef4e836ed14d41bc908bfe408a729b</title>
<g id="a_node2"><a xlink:href="dir_27ef4e836ed14d41bc908bfe408a729b.html" target="_top" xlink:title="include">
<polygon fill="#a2b4d6" stroke="#404040" points="142,-52 88,-52 88,-16 142,-16 142,-52"/>
<text text-anchor="middle" x="115" y="-31.5" font-family="Helvetica,sans-Serif" font-size="10.00">include</text>
</a>
</g>
</g>
<!-- dir_605373d5418a34e3085a1032d661490e -->
<g id="node3" class="node">
<title>dir_605373d5418a34e3085a1032d661490e</title>
<g id="a_node3"><a xlink:href="dir_605373d5418a34e3085a1032d661490e.html" target="_top" xlink:title="platform">
<polygon fill="#a2b4d6" stroke="red" points="219.5,-52 160.5,-52 160.5,-16 219.5,-16 219.5,-52"/>
<text text-anchor="middle" x="190" y="-31.5" font-family="Helvetica,sans-Serif" font-size="10.00">platform</text>
</a>
</g>
</g>
<!-- dir_36e16d2ac8afd2f86f21c92147d16671 -->
<g id="node4" class="node">
<title>dir_36e16d2ac8afd2f86f21c92147d16671</title>
<g id="a_node4"><a xlink:href="dir_36e16d2ac8afd2f86f21c92147d16671.html" target="_top" xlink:title="shaders">
<polygon fill="#edf0f7" stroke="#404040" stroke-width="2" points="142.5,-124 87.5,-124 87.5,-88 142.5,-88 142.5,-124"/>
<text text-anchor="middle" x="115" y="-103.5" font-family="Helvetica,sans-Serif" font-size="10.00">shaders</text>
</a>
</g>
</g>
<!-- dir_36e16d2ac8afd2f86f21c92147d16671&#45;&gt;dir_0ffc90e37b15a3085244dc84c419f433 -->
<g id="edge1" class="edge">
<title>dir_36e16d2ac8afd2f86f21c92147d16671&#45;&gt;dir_0ffc90e37b15a3085244dc84c419f433</title>
<path fill="none" stroke="black" d="M97.2,-87.7C88.4,-79.14 77.62,-68.66 68,-59.3"/>
<polygon fill="black" stroke="black" points="70.2,-56.57 60.59,-52.1 65.32,-61.58 70.2,-56.57"/>
<g id="a_edge1&#45;headlabel"><a xlink:href="dir_000029_000006.html" target="_top" xlink:title="2">
<text text-anchor="middle" x="74.76" y="-54.54" font-family="Helvetica,sans-Serif" font-size="10.00">2</text>
</a>
</g>
</g>
<!-- dir_36e16d2ac8afd2f86f21c92147d16671&#45;&gt;dir_27ef4e836ed14d41bc908bfe408a729b -->
<g id="edge2" class="edge">
<title>dir_36e16d2ac8afd2f86f21c92147d16671&#45;&gt;dir_27ef4e836ed14d41bc908bfe408a729b</title>
<path fill="none" stroke="black" d="M115,-87.7C115,-79.98 115,-70.71 115,-62.11"/>
<polygon fill="black" stroke="black" points="118.5,-62.1 115,-52.1 111.5,-62.1 118.5,-62.1"/>
<g id="a_edge2&#45;headlabel"><a xlink:href="dir_000029_000015.html" target="_top" xlink:title="1">
<text text-anchor="middle" x="121.34" y="-63.2" font-family="Helvetica,sans-Serif" font-size="10.00">1</text>
</a>
</g>
</g>
<!-- dir_36e16d2ac8afd2f86f21c92147d16671&#45;&gt;dir_605373d5418a34e3085a1032d661490e -->
<g id="edge3" class="edge">
<title>dir_36e16d2ac8afd2f86f21c92147d16671&#45;&gt;dir_605373d5418a34e3085a1032d661490e</title>
<path fill="none" stroke="black" d="M133.54,-87.7C142.8,-79.05 154.16,-68.45 164.26,-59.03"/>
<polygon fill="black" stroke="black" points="166.75,-61.49 171.67,-52.1 161.98,-56.37 166.75,-61.49"/>
<g id="a_edge3&#45;headlabel"><a xlink:href="dir_000029_000025.html" target="_top" xlink:title="2">
<text text-anchor="middle" x="166.06" y="-63.51" font-family="Helvetica,sans-Serif" font-size="10.00">2</text>
</a>
</g>
</g>
</g>
</svg>
