<?xml version="1.0" encoding="UTF-8" standalone="no"?>
<!DOCTYPE svg PUBLIC "-//W3C//DTD SVG 1.1//EN"
 "http://www.w3.org/Graphics/SVG/1.1/DTD/svg11.dtd">
<!-- Generated by graphviz version 2.43.0 (0)
 -->
<!-- Title: /home/runner/work/cocos&#45;headers/cocos&#45;headers/cocos2dx/base_nodes Pages: 1 -->
<svg width="334pt" height="133pt"
 viewBox="0.00 0.00 334.00 133.00" xmlns="http://www.w3.org/2000/svg" xmlns:xlink="http://www.w3.org/1999/xlink">
<g id="graph0" class="graph" transform="scale(1 1) rotate(0) translate(4 129)">
<title>/home/runner/work/cocos&#45;headers/cocos&#45;headers/cocos2dx/base_nodes</title>
<g id="clust1" class="cluster">
<title>clusterdir_b2885435f78d14023ac06719456afc50</title>
<g id="a_clust1"><a xlink:href="dir_b2885435f78d14023ac06719456afc50.html" target="_top" xlink:title="cocos2dx">
<polygon fill="#edf0f7" stroke="#404040" stroke-dasharray="5,2" points="8,-8 8,-117 318,-117 318,-8 8,-8"/>
<text text-anchor="middle" x="163" y="-105" font-family="Helvetica,sans-Serif" font-size="10.00">cocos2dx</text>
</a>
</g>
</g>
<!-- dir_05651758302a784846fe6cfac652dfd1 -->
<g id="node1" class="node">
<title>dir_05651758302a784846fe6cfac652dfd1</title>
<g id="a_node1"><a xlink:href="dir_05651758302a784846fe6cfac652dfd1.html" target="_top" xlink:title="script_support">
<polygon fill="#a2b4d6" stroke="#404040" points="102,-35 16,-35 16,-16 102,-16 102,-35"/>
<text text-anchor="middle" x="59" y="-23" font-family="Helvetica,sans-Serif" font-size="10.00">script_support</text>
</a>
</g>
</g>
<!-- dir_0ffc90e37b15a3085244dc84c419f433 -->
<g id="node2" class="node">
<title>dir_0ffc90e37b15a3085244dc84c419f433</title>
<g id="a_node2"><a xlink:href="dir_0ffc90e37b15a3085244dc84c419f433.html" target="_top" xlink:title="cocoa">
<polygon fill="#a2b4d6" stroke="#404040" points="165.5,-35 120.5,-35 120.5,-16 165.5,-16 165.5,-35"/>
<text text-anchor="middle" x="143" y="-23" font-family="Helvetica,sans-Serif" font-size="10.00">cocoa</text>
</a>
</g>
</g>
<!-- dir_27ef4e836ed14d41bc908bfe408a729b -->
<g id="node3" class="node">
<title>dir_27ef4e836ed14d41bc908bfe408a729b</title>
<g id="a_node3"><a xlink:href="dir_27ef4e836ed14d41bc908bfe408a729b.html" target="_top" xlink:title="include">
<polygon fill="#a2b4d6" stroke="#404040" points="236,-35 184,-35 184,-16 236,-16 236,-35"/>
<text text-anchor="middle" x="210" y="-23" font-family="Helvetica,sans-Serif" font-size="10.00">include</text>
</a>
</g>
</g>
<!-- dir_36e16d2ac8afd2f86f21c92147d16671 -->
<g id="node4" class="node">
<title>dir_36e16d2ac8afd2f86f21c92147d16671</title>
<g id="a_node4"><a xlink:href="dir_36e16d2ac8afd2f86f21c92147d16671.html" target="_top" xlink:title="shaders">
<polygon fill="#a2b4d6" stroke="#404040" points="309.5,-35 254.5,-35 254.5,-16 309.5,-16 309.5,-35"/>
<text text-anchor="middle" x="282" y="-23" font-family="Helvetica,sans-Serif" font-size="10.00">shaders</text>
</a>
</g>
</g>
<!-- dir_41482e72b43928a5c4058d2b13faa505 -->
<g id="node5" class="node">
<title>dir_41482e72b43928a5c4058d2b13faa505</title>
<g id="a_node5"><a xlink:href="dir_41482e72b43928a5c4058d2b13faa505.html" target="_top" xlink:title="base_nodes">
<polygon fill="#edf0f7" stroke="#404040" stroke-width="2" points="213,-90 139,-90 139,-71 213,-71 213,-90"/>
<text text-anchor="middle" x="176" y="-78" font-family="Helvetica,sans-Serif" font-size="10.00">base_nodes</text>
</a>
</g>
</g>
<!-- dir_41482e72b43928a5c4058d2b13faa505&#45;&gt;dir_05651758302a784846fe6cfac652dfd1 -->
<g id="edge1" class="edge">
<title>dir_41482e72b43928a5c4058d2b13faa505&#45;&gt;dir_05651758302a784846fe6cfac652dfd1</title>
<path fill="none" stroke="#63b8ff" d="M157.2,-70.98C138.38,-62.46 109.18,-49.23 87.5,-39.41"/>
<polygon fill="#63b8ff" stroke="#63b8ff" points="88.69,-36.11 78.14,-35.17 85.8,-42.48 88.69,-36.11"/>
<g id="a_edge1&#45;headlabel"><a xlink:href="dir_000002_000028.html" target="_top" xlink:title="1">
<text text-anchor="middle" x="93.14" y="-32.51" font-family="Helvetica,sans-Serif" font-size="10.00" fill="#63b8ff">1</text>
</a>
</g>
</g>
<!-- dir_41482e72b43928a5c4058d2b13faa505&#45;&gt;dir_0ffc90e37b15a3085244dc84c419f433 -->
<g id="edge2" class="edge">
<title>dir_41482e72b43928a5c4058d2b13faa505&#45;&gt;dir_0ffc90e37b15a3085244dc84c419f433</title>
<path fill="none" stroke="#63b8ff" d="M170.55,-70.75C165.99,-63.42 159.33,-52.73 153.71,-43.7"/>
<polygon fill="#63b8ff" stroke="#63b8ff" points="156.6,-41.73 148.35,-35.09 150.66,-45.43 156.6,-41.73"/>
<g id="a_edge2&#45;headlabel"><a xlink:href="dir_000002_000006.html" target="_top" xlink:title="2">
<text text-anchor="middle" x="160.91" y="-40.78" font-family="Helvetica,sans-Serif" font-size="10.00" fill="#63b8ff">2</text>
</a>
</g>
</g>
<!-- dir_41482e72b43928a5c4058d2b13faa505&#45;&gt;dir_27ef4e836ed14d41bc908bfe408a729b -->
<g id="edge3" class="edge">
<title>dir_41482e72b43928a5c4058d2b13faa505&#45;&gt;dir_27ef4e836ed14d41bc908bfe408a729b</title>
<path fill="none" stroke="#63b8ff" d="M181.61,-70.75C186.32,-63.42 193.17,-52.73 198.97,-43.7"/>
<polygon fill="#63b8ff" stroke="#63b8ff" points="202.04,-45.4 204.49,-35.09 196.14,-41.62 202.04,-45.4"/>
<g id="a_edge3&#45;headlabel"><a xlink:href="dir_000002_000015.html" target="_top" xlink:title="4">
<text text-anchor="middle" x="202.49" y="-47.45" font-family="Helvetica,sans-Serif" font-size="10.00" fill="#63b8ff">4</text>
</a>
</g>
</g>
<!-- dir_41482e72b43928a5c4058d2b13faa505&#45;&gt;dir_36e16d2ac8afd2f86f21c92147d16671 -->
<g id="edge4" class="edge">
<title>dir_41482e72b43928a5c4058d2b13faa505&#45;&gt;dir_36e16d2ac8afd2f86f21c92147d16671</title>
<path fill="none" stroke="#63b8ff" d="M193.03,-70.98C209.93,-62.54 236.06,-49.47 255.64,-39.68"/>
<polygon fill="#63b8ff" stroke="#63b8ff" points="257.28,-42.77 264.66,-35.17 254.15,-36.51 257.28,-42.77"/>
<g id="a_edge4&#45;headlabel"><a xlink:href="dir_000002_000029.html" target="_top" xlink:title="2">
<text text-anchor="middle" x="255.34" y="-44.42" font-family="Helvetica,sans-Serif" font-size="10.00" fill="#63b8ff">2</text>
</a>
</g>
</g>
</g>
</svg>
