<?xml version="1.0" encoding="UTF-8" standalone="no"?>
<!DOCTYPE svg PUBLIC "-//W3C//DTD SVG 1.1//EN"
 "http://www.w3.org/Graphics/SVG/1.1/DTD/svg11.dtd">
<!-- Generated by graphviz version 2.43.0 (0)
 -->
<!-- Title: /home/runner/work/cocos&#45;headers/cocos&#45;headers/extensions/GUI Pages: 1 -->
<svg width="296pt" height="231pt"
 viewBox="0.00 0.00 296.00 231.00" xmlns="http://www.w3.org/2000/svg" xmlns:xlink="http://www.w3.org/1999/xlink">
<g id="graph0" class="graph" transform="scale(1 1) rotate(0) translate(4 227)">
<title>/home/runner/work/cocos&#45;headers/cocos&#45;headers/extensions/GUI</title>
<g id="clust1" class="cluster">
<title>clusterdir_445263fafd9544f9ee19804b2b65121e</title>
<g id="a_clust1"><a xlink:href="dir_445263fafd9544f9ee19804b2b65121e.html" target="_top" xlink:title="extensions">
<polygon fill="#edf0f7" stroke="#404040" stroke-dasharray="5,2" points="8,-56 8,-215 280,-215 280,-56 8,-56"/>
<text text-anchor="middle" x="144" y="-203" font-family="Helvetica,sans-Serif" font-size="10.00">extensions</text>
</a>
</g>
</g>
<g id="clust2" class="cluster">
<title>clusterdir_80a68488629c369adfcba21e8b8b4baa</title>
<g id="a_clust2"><a xlink:href="dir_80a68488629c369adfcba21e8b8b4baa.html" target="_top">
<polygon fill="#edf0f7" stroke="#404040" stroke-width="2" points="16,-64 16,-188 272,-188 272,-64 16,-64"/>
</a>
</g>
</g>
<!-- dir_80a68488629c369adfcba21e8b8b4baa -->
<g id="node1" class="node">
<title>dir_80a68488629c369adfcba21e8b8b4baa</title>
<text text-anchor="middle" x="237" y="-159.5" font-family="Helvetica,sans-Serif" font-size="10.00">GUI</text>
</g>
<!-- dir_bc5f8dfdc578fe11a07564e45c002103 -->
<g id="node2" class="node">
<title>dir_bc5f8dfdc578fe11a07564e45c002103</title>
<g id="a_node2"><a xlink:href="dir_bc5f8dfdc578fe11a07564e45c002103.html" target="_top" xlink:title="CCControlExtension">
<polygon fill="#a2b4d6" stroke="#404040" points="137.5,-108 24.5,-108 24.5,-72 137.5,-72 137.5,-108"/>
<text text-anchor="middle" x="81" y="-87.5" font-family="Helvetica,sans-Serif" font-size="10.00">CCControlExtension</text>
</a>
</g>
</g>
<!-- dir_b2885435f78d14023ac06719456afc50 -->
<g id="node5" class="node">
<title>dir_b2885435f78d14023ac06719456afc50</title>
<g id="a_node5"><a xlink:href="dir_b2885435f78d14023ac06719456afc50.html" target="_top" xlink:title="cocos2dx">
<polygon fill="none" stroke="red" points="197,-36 135,-36 135,0 197,0 197,-36"/>
<text text-anchor="middle" x="166" y="-15.5" font-family="Helvetica,sans-Serif" font-size="10.00">cocos2dx</text>
</a>
</g>
</g>
<!-- dir_bc5f8dfdc578fe11a07564e45c002103&#45;&gt;dir_b2885435f78d14023ac06719456afc50 -->
<g id="edge1" class="edge">
<title>dir_bc5f8dfdc578fe11a07564e45c002103&#45;&gt;dir_b2885435f78d14023ac06719456afc50</title>
<path fill="none" stroke="black" d="M102.01,-71.7C112.72,-62.88 125.89,-52.03 137.5,-42.47"/>
<polygon fill="black" stroke="black" points="139.74,-45.16 145.23,-36.1 135.29,-39.76 139.74,-45.16"/>
<g id="a_edge1&#45;headlabel"><a xlink:href="dir_000003_000007.html" target="_top" xlink:title="4">
<text text-anchor="middle" x="138.77" y="-47.14" font-family="Helvetica,sans-Serif" font-size="10.00">4</text>
</a>
</g>
</g>
<!-- dir_638906ca18031269321b09c235575d53 -->
<g id="node3" class="node">
<title>dir_638906ca18031269321b09c235575d53</title>
<g id="a_node3"><a xlink:href="dir_638906ca18031269321b09c235575d53.html" target="_top" xlink:title="CCEditBox">
<polygon fill="#a2b4d6" stroke="#404040" points="92,-180 24,-180 24,-144 92,-144 92,-180"/>
<text text-anchor="middle" x="58" y="-159.5" font-family="Helvetica,sans-Serif" font-size="10.00">CCEditBox</text>
</a>
</g>
</g>
<!-- dir_638906ca18031269321b09c235575d53&#45;&gt;dir_bc5f8dfdc578fe11a07564e45c002103 -->
<g id="edge3" class="edge">
<title>dir_638906ca18031269321b09c235575d53&#45;&gt;dir_bc5f8dfdc578fe11a07564e45c002103</title>
<path fill="none" stroke="black" d="M63.69,-143.7C66.25,-135.9 69.33,-126.51 72.18,-117.83"/>
<polygon fill="black" stroke="black" points="75.58,-118.7 75.38,-108.1 68.93,-116.51 75.58,-118.7"/>
<g id="a_edge3&#45;headlabel"><a xlink:href="dir_000004_000003.html" target="_top" xlink:title="1">
<text text-anchor="middle" x="77.16" y="-120.5" font-family="Helvetica,sans-Serif" font-size="10.00">1</text>
</a>
</g>
</g>
<!-- dir_638906ca18031269321b09c235575d53&#45;&gt;dir_b2885435f78d14023ac06719456afc50 -->
<g id="edge2" class="edge">
<title>dir_638906ca18031269321b09c235575d53&#45;&gt;dir_b2885435f78d14023ac06719456afc50</title>
<path fill="none" stroke="black" d="M92.44,-148.53C111.34,-139.96 133.59,-126.71 147,-108 159.91,-89.99 164.38,-65 165.78,-46.08"/>
<polygon fill="black" stroke="black" points="169.28,-46.18 166.28,-36.02 162.29,-45.83 169.28,-46.18"/>
<g id="a_edge2&#45;headlabel"><a xlink:href="dir_000004_000007.html" target="_top" xlink:title="7">
<text text-anchor="middle" x="171.93" y="-47.41" font-family="Helvetica,sans-Serif" font-size="10.00">7</text>
</a>
</g>
</g>
<!-- dir_57a4c5cfbcb3e4362bece2166106992e -->
<g id="node4" class="node">
<title>dir_57a4c5cfbcb3e4362bece2166106992e</title>
<g id="a_node4"><a xlink:href="dir_57a4c5cfbcb3e4362bece2166106992e.html" target="_top" xlink:title="CCScrollView">
<polygon fill="#a2b4d6" stroke="#404040" points="191.5,-180 110.5,-180 110.5,-144 191.5,-144 191.5,-180"/>
<text text-anchor="middle" x="151" y="-159.5" font-family="Helvetica,sans-Serif" font-size="10.00">CCScrollView</text>
</a>
</g>
</g>
<!-- dir_57a4c5cfbcb3e4362bece2166106992e&#45;&gt;dir_b2885435f78d14023ac06719456afc50 -->
<g id="edge4" class="edge">
<title>dir_57a4c5cfbcb3e4362bece2166106992e&#45;&gt;dir_b2885435f78d14023ac06719456afc50</title>
<path fill="none" stroke="black" d="M163.31,-143.78C169.65,-133.84 176.73,-120.8 180,-108 185.73,-85.61 184.16,-78.73 180,-56 179.39,-52.69 178.51,-49.29 177.47,-45.96"/>
<polygon fill="black" stroke="black" points="180.69,-44.56 174.03,-36.32 174.09,-46.91 180.69,-44.56"/>
<g id="a_edge4&#45;headlabel"><a xlink:href="dir_000005_000007.html" target="_top" xlink:title="3">
<text text-anchor="middle" x="184.57" y="-44.49" font-family="Helvetica,sans-Serif" font-size="10.00">3</text>
</a>
</g>
</g>
</g>
</svg>
