<?xml version="1.0" encoding="UTF-8" standalone="no"?>
<!DOCTYPE svg PUBLIC "-//W3C//DTD SVG 1.1//EN"
 "http://www.w3.org/Graphics/SVG/1.1/DTD/svg11.dtd">
<!-- Generated by graphviz version 2.43.0 (0)
 -->
<!-- Title: Graphical Class Hierarchy Pages: 1 -->
<svg width="274pt" height="101pt"
 viewBox="0.00 0.00 274.00 101.00" xmlns="http://www.w3.org/2000/svg" xmlns:xlink="http://www.w3.org/1999/xlink">
<g id="graph0" class="graph" transform="scale(1 1) rotate(0) translate(4 97)">
<title>Graphical Class Hierarchy</title>
<!-- Node0 -->
<g id="node1" class="node">
<title>Node0</title>
<g id="a_node1"><a xlink:title=" ">
<polygon fill="#e0e0e0" stroke="#999999" points="98,-56 36,-56 36,-37 98,-37 98,-56"/>
<text text-anchor="middle" x="67" y="-44" font-family="Helvetica,sans-Serif" font-size="10.00">NSObject</text>
</a>
</g>
</g>
<!-- Node1 -->
<g id="node2" class="node">
<title>Node1</title>
<g id="a_node2"><a xlink:href="df/d4a/interface_edit_box_impl_i_o_s.html" target="_top" xlink:title=" ">
<polygon fill="white" stroke="#666666" points="264,-74 172,-74 172,-55 264,-55 264,-74"/>
<text text-anchor="middle" x="218" y="-62" font-family="Helvetica,sans-Serif" font-size="10.00">EditBoxImplIOS</text>
</a>
</g>
</g>
<!-- Node0&#45;&gt;Node1 -->
<g id="edge1" class="edge">
<title>Node0&#45;&gt;Node1</title>
<path fill="none" stroke="#63b8ff" d="M108.31,-51.37C127.96,-53.74 151.65,-56.61 171.9,-59.05"/>
<polygon fill="#63b8ff" stroke="#63b8ff" points="108.5,-47.87 98.15,-50.14 107.66,-54.82 108.5,-47.87"/>
</g>
<!-- Node3 -->
<g id="node3" class="node">
<title>Node3</title>
<g id="a_node3"><a xlink:href="d0/d88/interface_edit_box_impl_mac.html" target="_top" xlink:title=" ">
<polygon fill="white" stroke="#666666" points="266,-28 170,-28 170,-9 266,-9 266,-28"/>
<text text-anchor="middle" x="218" y="-16" font-family="Helvetica,sans-Serif" font-size="10.00">EditBoxImplMac</text>
</a>
</g>
</g>
<!-- Node0&#45;&gt;Node3 -->
<g id="edge2" class="edge">
<title>Node0&#45;&gt;Node3</title>
<path fill="none" stroke="#63b8ff" d="M108.01,-38.98C127.07,-35.4 149.98,-31.09 169.87,-27.36"/>
<polygon fill="#63b8ff" stroke="#63b8ff" points="107.33,-35.55 98.15,-40.83 108.63,-42.43 107.33,-35.55"/>
</g>
<!-- Node4 -->
<g id="node4" class="node">
<title>Node4</title>
<g id="a_node4"><a xlink:title=" ">
<polygon fill="#e0e0e0" stroke="#999999" points="134,-19 0,-19 0,0 134,0 134,-19"/>
<text text-anchor="middle" x="67" y="-7" font-family="Helvetica,sans-Serif" font-size="10.00">&lt;NSTextFieldDelegate&gt;</text>
</a>
</g>
</g>
<!-- Node4&#45;&gt;Node3 -->
<g id="edge3" class="edge">
<title>Node4&#45;&gt;Node3</title>
<path fill="none" stroke="#63b8ff" d="M144.36,-14.11C153.01,-14.63 161.62,-15.16 169.74,-15.65"/>
<polygon fill="#63b8ff" stroke="#63b8ff" points="144.41,-10.61 134.22,-13.5 143.99,-17.6 144.41,-10.61"/>
</g>
<!-- Node2 -->
<g id="node5" class="node">
<title>Node2</title>
<g id="a_node5"><a xlink:title=" ">
<polygon fill="#e0e0e0" stroke="#999999" points="132.5,-93 1.5,-93 1.5,-74 132.5,-74 132.5,-93"/>
<text text-anchor="middle" x="67" y="-81" font-family="Helvetica,sans-Serif" font-size="10.00">&lt;UITextFieldDelegate&gt;</text>
</a>
</g>
</g>
<!-- Node2&#45;&gt;Node1 -->
<g id="edge4" class="edge">
<title>Node2&#45;&gt;Node1</title>
<path fill="none" stroke="#63b8ff" d="M142.85,-73.96C152.81,-72.69 162.75,-71.42 171.98,-70.24"/>
<polygon fill="#63b8ff" stroke="#63b8ff" points="142.4,-70.48 132.92,-75.22 143.28,-77.43 142.4,-70.48"/>
</g>
</g>
</svg>
