<?xml version="1.0" encoding="UTF-8" standalone="no"?>
<!DOCTYPE svg PUBLIC "-//W3C//DTD SVG 1.1//EN"
 "http://www.w3.org/Graphics/SVG/1.1/DTD/svg11.dtd">
<!-- Generated by graphviz version 2.43.0 (0)
 -->
<!-- Title: Graphical Class Hierarchy Pages: 1 -->
<svg width="260pt" height="212pt"
 viewBox="0.00 0.00 260.00 212.00" xmlns="http://www.w3.org/2000/svg" xmlns:xlink="http://www.w3.org/1999/xlink">
<g id="graph0" class="graph" transform="scale(1 1) rotate(0) translate(4 208)">
<title>Graphical Class Hierarchy</title>
<!-- Node0 -->
<g id="node1" class="node">
<title>Node0</title>
<g id="a_node1"><a xlink:href="d0/d34/classcocos2d_1_1extension_1_1_c_c_edit_box_impl.html" target="_top" xlink:title=" ">
<polygon fill="white" stroke="#666666" points="89,-111 0,-111 0,-92 89,-92 89,-111"/>
<text text-anchor="middle" x="44.5" y="-99" font-family="Helvetica,sans-Serif" font-size="10.00">CCEditBoxImpl</text>
</a>
</g>
</g>
<!-- Node1 -->
<g id="node2" class="node">
<title>Node1</title>
<g id="a_node2"><a xlink:href="df/d04/classcocos2d_1_1extension_1_1_c_c_edit_box_impl_android.html" target="_top" xlink:title=" ">
<polygon fill="white" stroke="#666666" points="252,-204 125,-204 125,-185 252,-185 252,-204"/>
<text text-anchor="middle" x="188.5" y="-192" font-family="Helvetica,sans-Serif" font-size="10.00">CCEditBoxImplAndroid</text>
</a>
</g>
</g>
<!-- Node0&#45;&gt;Node1 -->
<g id="edge1" class="edge">
<title>Node0&#45;&gt;Node1</title>
<path fill="none" stroke="#63b8ff" d="M59.74,-119.13C74.4,-136.16 98.75,-161.53 125,-176.5 130.89,-179.86 137.44,-182.63 144.04,-184.91"/>
<polygon fill="#63b8ff" stroke="#63b8ff" points="62.1,-116.5 53,-111.08 56.73,-120.99 62.1,-116.5"/>
</g>
<!-- Node2 -->
<g id="node3" class="node">
<title>Node2</title>
<g id="a_node3"><a xlink:href="d9/dfe/classcocos2d_1_1extension_1_1_c_c_edit_box_impl_i_o_s.html" target="_top" xlink:title="NA NA.">
<polygon fill="white" stroke="#666666" points="241.5,-167 135.5,-167 135.5,-148 241.5,-148 241.5,-167"/>
<text text-anchor="middle" x="188.5" y="-155" font-family="Helvetica,sans-Serif" font-size="10.00">CCEditBoxImplIOS</text>
</a>
</g>
</g>
<!-- Node0&#45;&gt;Node2 -->
<g id="edge2" class="edge">
<title>Node0&#45;&gt;Node2</title>
<path fill="none" stroke="#63b8ff" d="M72.72,-115.89C87.85,-123.53 107.17,-132.72 125,-139.5 133.13,-142.59 142.02,-145.45 150.48,-147.94"/>
<polygon fill="#63b8ff" stroke="#63b8ff" points="73.93,-112.58 63.44,-111.13 70.74,-118.81 73.93,-112.58"/>
</g>
<!-- Node3 -->
<g id="node4" class="node">
<title>Node3</title>
<g id="a_node4"><a xlink:href="d5/de7/classcocos2d_1_1extension_1_1_c_c_edit_box_impl_mac.html" target="_top" xlink:title="NA NA.">
<polygon fill="white" stroke="#666666" points="243.5,-130 133.5,-130 133.5,-111 243.5,-111 243.5,-130"/>
<text text-anchor="middle" x="188.5" y="-118" font-family="Helvetica,sans-Serif" font-size="10.00">CCEditBoxImplMac</text>
</a>
</g>
</g>
<!-- Node0&#45;&gt;Node3 -->
<g id="edge3" class="edge">
<title>Node0&#45;&gt;Node3</title>
<path fill="none" stroke="#63b8ff" d="M99.3,-108.7C110.45,-110.19 122.2,-111.76 133.36,-113.26"/>
<polygon fill="#63b8ff" stroke="#63b8ff" points="99.64,-105.21 89.26,-107.36 98.71,-112.15 99.64,-105.21"/>
</g>
<!-- Node4 -->
<g id="node5" class="node">
<title>Node4</title>
<g id="a_node5"><a xlink:href="d5/d75/classcocos2d_1_1extension_1_1_c_c_edit_box_impl_tizen.html" target="_top" xlink:title="NA NA.">
<polygon fill="white" stroke="#666666" points="246.5,-93 130.5,-93 130.5,-74 246.5,-74 246.5,-93"/>
<text text-anchor="middle" x="188.5" y="-81" font-family="Helvetica,sans-Serif" font-size="10.00">CCEditBoxImplTizen</text>
</a>
</g>
</g>
<!-- Node0&#45;&gt;Node4 -->
<g id="edge4" class="edge">
<title>Node0&#45;&gt;Node4</title>
<path fill="none" stroke="#63b8ff" d="M99.22,-94.69C109.37,-93.4 120.02,-92.05 130.28,-90.75"/>
<polygon fill="#63b8ff" stroke="#63b8ff" points="98.74,-91.22 89.26,-95.95 99.62,-98.17 98.74,-91.22"/>
</g>
<!-- Node5 -->
<g id="node6" class="node">
<title>Node5</title>
<g id="a_node6"><a xlink:href="de/d84/classcocos2d_1_1extension_1_1_c_c_edit_box_impl_win.html" target="_top" xlink:title="NA NA.">
<polygon fill="white" stroke="#666666" points="242.5,-56 134.5,-56 134.5,-37 242.5,-37 242.5,-56"/>
<text text-anchor="middle" x="188.5" y="-44" font-family="Helvetica,sans-Serif" font-size="10.00">CCEditBoxImplWin</text>
</a>
</g>
</g>
<!-- Node0&#45;&gt;Node5 -->
<g id="edge5" class="edge">
<title>Node0&#45;&gt;Node5</title>
<path fill="none" stroke="#63b8ff" d="M74.04,-87.49C89.02,-80.41 107.79,-71.98 125,-65.5 134.02,-62.1 143.94,-58.87 153.17,-56.06"/>
<polygon fill="#63b8ff" stroke="#63b8ff" points="72.32,-84.43 64.8,-91.9 75.34,-90.75 72.32,-84.43"/>
</g>
<!-- Node6 -->
<g id="node7" class="node">
<title>Node6</title>
<g id="a_node7"><a xlink:href="d4/d64/classcocos2d_1_1extension_1_1_c_c_edit_box_impl_wp8.html" target="_top" xlink:title=" ">
<polygon fill="white" stroke="#666666" points="244,-19 133,-19 133,0 244,0 244,-19"/>
<text text-anchor="middle" x="188.5" y="-7" font-family="Helvetica,sans-Serif" font-size="10.00">CCEditBoxImplWp8</text>
</a>
</g>
</g>
<!-- Node0&#45;&gt;Node6 -->
<g id="edge6" class="edge">
<title>Node0&#45;&gt;Node6</title>
<path fill="none" stroke="#63b8ff" d="M60.12,-84.17C74.91,-67.67 99.23,-43.22 125,-28.5 131.7,-24.68 139.25,-21.54 146.72,-19"/>
<polygon fill="#63b8ff" stroke="#63b8ff" points="57.24,-82.15 53.29,-91.99 62.51,-86.76 57.24,-82.15"/>
</g>
</g>
</svg>
