<?xml version="1.0" encoding="UTF-8" standalone="no"?>
<!DOCTYPE svg PUBLIC "-//W3C//DTD SVG 1.1//EN"
 "http://www.w3.org/Graphics/SVG/1.1/DTD/svg11.dtd">
<!-- Generated by graphviz version 2.43.0 (0)
 -->
<!-- Title: CCSpriteFrameCache Pages: 1 -->
<svg width="190pt" height="230pt"
 viewBox="0.00 0.00 190.00 230.00" xmlns="http://www.w3.org/2000/svg" xmlns:xlink="http://www.w3.org/1999/xlink">
<g id="graph0" class="graph" transform="scale(1 1) rotate(0) translate(4 226)">
<title>CCSpriteFrameCache</title>
<!-- Node1 -->
<g id="node1" class="node">
<title>Node1</title>
<g id="a_node1"><a xlink:title="Singleton that handles the loading of the sprite frames.">
<polygon fill="#bfbfbf" stroke="black" points="44.5,-0.5 44.5,-19.5 163.5,-19.5 163.5,-0.5 44.5,-0.5"/>
<text text-anchor="middle" x="104" y="-7.5" font-family="Helvetica,sans-Serif" font-size="10.00">CCSpriteFrameCache</text>
</a>
</g>
</g>
<!-- Node2 -->
<g id="node2" class="node">
<title>Node2</title>
<g id="a_node2"><a xlink:href="../../d3/dbf/classcocos2d_1_1_c_c_object.html" target="_top" xlink:title="NA.">
<polygon fill="none" stroke="black" points="116,-145.5 116,-164.5 178,-164.5 178,-145.5 116,-145.5"/>
<text text-anchor="middle" x="147" y="-152.5" font-family="Helvetica,sans-Serif" font-size="10.00">CCObject</text>
</a>
</g>
</g>
<!-- Node2&#45;&gt;Node1 -->
<g id="edge1" class="edge">
<title>Node2&#45;&gt;Node1</title>
<path fill="none" stroke="midnightblue" d="M155.04,-135.95C164.5,-111.74 176.71,-68.28 158,-38 152.77,-29.53 143.98,-23.63 135,-19.55"/>
<polygon fill="midnightblue" stroke="midnightblue" points="151.75,-134.76 151.13,-145.33 158.21,-137.45 151.75,-134.76"/>
</g>
<!-- Node4 -->
<g id="node4" class="node">
<title>Node4</title>
<g id="a_node4"><a xlink:href="../../d7/d5f/classcocos2d_1_1_c_c_dictionary.html" target="_top" xlink:title="CCDictionary is a class like NSDictionary in Obj&#45;C .">
<polygon fill="none" stroke="black" points="5,-78.5 5,-97.5 85,-97.5 85,-78.5 5,-78.5"/>
<text text-anchor="middle" x="45" y="-85.5" font-family="Helvetica,sans-Serif" font-size="10.00">CCDictionary</text>
</a>
</g>
</g>
<!-- Node2&#45;&gt;Node4 -->
<g id="edge4" class="edge">
<title>Node2&#45;&gt;Node4</title>
<path fill="none" stroke="midnightblue" d="M137.11,-136.29C132.4,-129.18 126.22,-121.4 119,-116 107.94,-107.72 94.09,-101.77 81.37,-97.6"/>
<polygon fill="midnightblue" stroke="midnightblue" points="134.39,-138.56 142.57,-145.29 140.37,-134.93 134.39,-138.56"/>
</g>
<!-- Node3 -->
<g id="node3" class="node">
<title>Node3</title>
<g id="a_node3"><a xlink:href="../../d5/d61/classcocos2d_1_1_c_c_copying.html" target="_top" xlink:title="NA NA.">
<polygon fill="none" stroke="black" points="112,-202.5 112,-221.5 182,-221.5 182,-202.5 112,-202.5"/>
<text text-anchor="middle" x="147" y="-209.5" font-family="Helvetica,sans-Serif" font-size="10.00">CCCopying</text>
</a>
</g>
</g>
<!-- Node3&#45;&gt;Node2 -->
<g id="edge2" class="edge">
<title>Node3&#45;&gt;Node2</title>
<path fill="none" stroke="midnightblue" d="M147,-192.12C147,-182.82 147,-172.06 147,-164.71"/>
<polygon fill="midnightblue" stroke="midnightblue" points="143.5,-192.41 147,-202.41 150.5,-192.41 143.5,-192.41"/>
</g>
<!-- Node4&#45;&gt;Node1 -->
<g id="edge3" class="edge">
<title>Node4&#45;&gt;Node1</title>
<path fill="none" stroke="#9a32cd" stroke-dasharray="5,2" d="M36.22,-68.93C32.77,-59.04 30.91,-47.01 37,-38 42.82,-29.37 51.92,-23.5 61.54,-19.51"/>
<polygon fill="#9a32cd" stroke="#9a32cd" points="33.03,-70.37 40.12,-78.24 39.48,-67.66 33.03,-70.37"/>
<text text-anchor="middle" x="97.5" y="-52" font-family="Helvetica,sans-Serif" font-size="10.00"> m_pSpriteFrames</text>
<text text-anchor="middle" x="97.5" y="-41" font-family="Helvetica,sans-Serif" font-size="10.00">m_pSpriteFramesAliases</text>
</g>
<!-- Node5 -->
<g id="node5" class="node">
<title>Node5</title>
<g id="a_node5"><a xlink:href="../../d0/da2/classcocos2d_1_1_c_c_dict_element.html" target="_top" xlink:title="CCDictElement is used for traversing CCDictionary.">
<polygon fill="none" stroke="black" points="0,-145.5 0,-164.5 90,-164.5 90,-145.5 0,-145.5"/>
<text text-anchor="middle" x="45" y="-152.5" font-family="Helvetica,sans-Serif" font-size="10.00">CCDictElement</text>
</a>
</g>
</g>
<!-- Node5&#45;&gt;Node4 -->
<g id="edge5" class="edge">
<title>Node5&#45;&gt;Node4</title>
<path fill="none" stroke="#9a32cd" stroke-dasharray="5,2" d="M45,-135.04C45,-122.67 45,-107.12 45,-97.63"/>
<polygon fill="#9a32cd" stroke="#9a32cd" points="41.5,-135.23 45,-145.23 48.5,-135.23 41.5,-135.23"/>
<text text-anchor="middle" x="80" y="-119" font-family="Helvetica,sans-Serif" font-size="10.00"> m_pElements</text>
</g>
</g>
</svg>
