<?xml version="1.0" encoding="UTF-8" standalone="no"?>
<!DOCTYPE svg PUBLIC "-//W3C//DTD SVG 1.1//EN"
 "http://www.w3.org/Graphics/SVG/1.1/DTD/svg11.dtd">
<!-- Generated by graphviz version 2.43.0 (0)
 -->
<!-- Title: /home/runner/work/cocos&#45;headers/cocos&#45;headers/cocos2dx/platform/winrt/CCFileUtilsWinRT.h Pages: 1 -->
<svg width="714pt" height="565pt"
 viewBox="0.00 0.00 714.00 565.00" xmlns="http://www.w3.org/2000/svg" xmlns:xlink="http://www.w3.org/1999/xlink">
<g id="graph0" class="graph" transform="scale(1 1) rotate(0) translate(4 561)">
<title>/home/runner/work/cocos&#45;headers/cocos&#45;headers/cocos2dx/platform/winrt/CCFileUtilsWinRT.h</title>
<!-- Node1 -->
<g id="node1" class="node">
<title>Node1</title>
<g id="a_node1"><a xlink:title=" ">
<polygon fill="#bfbfbf" stroke="black" points="147,-504.5 147,-556.5 287,-556.5 287,-504.5 147,-504.5"/>
<text text-anchor="start" x="155" y="-544.5" font-family="Helvetica,sans-Serif" font-size="10.00">/home/runner/work/cocos</text>
<text text-anchor="start" x="155" y="-533.5" font-family="Helvetica,sans-Serif" font-size="10.00">&#45;headers/cocos&#45;headers</text>
<text text-anchor="start" x="155" y="-522.5" font-family="Helvetica,sans-Serif" font-size="10.00">/cocos2dx/platform/winrt</text>
<text text-anchor="middle" x="217" y="-511.5" font-family="Helvetica,sans-Serif" font-size="10.00">/CCFileUtilsWinRT.h</text>
</a>
</g>
</g>
<!-- Node2 -->
<g id="node2" class="node">
<title>Node2</title>
<g id="a_node2"><a xlink:href="../../d5/d8e/_c_c_file_utils_8h.html" target="_top" xlink:title=" ">
<polygon fill="none" stroke="black" points="200,-448.5 200,-467.5 324,-467.5 324,-448.5 200,-448.5"/>
<text text-anchor="middle" x="262" y="-455.5" font-family="Helvetica,sans-Serif" font-size="10.00">platform/CCFileUtils.h</text>
</a>
</g>
</g>
<!-- Node1&#45;&gt;Node2 -->
<g id="edge1" class="edge">
<title>Node1&#45;&gt;Node2</title>
<path fill="none" stroke="midnightblue" d="M232.99,-504.45C238.94,-495.13 245.55,-484.77 250.96,-476.3"/>
<polygon fill="midnightblue" stroke="midnightblue" points="254.02,-478.01 256.45,-467.7 248.12,-474.24 254.02,-478.01"/>
</g>
<!-- Node3 -->
<g id="node3" class="node">
<title>Node3</title>
<g id="a_node3"><a xlink:title=" ">
<polygon fill="none" stroke="#bfbfbf" points="0,-168.5 0,-187.5 44,-187.5 44,-168.5 0,-168.5"/>
<text text-anchor="middle" x="22" y="-175.5" font-family="Helvetica,sans-Serif" font-size="10.00">string</text>
</a>
</g>
</g>
<!-- Node1&#45;&gt;Node3 -->
<g id="edge33" class="edge">
<title>Node1&#45;&gt;Node3</title>
<path fill="none" stroke="midnightblue" d="M146.88,-514.28C90.97,-497.54 22,-464.44 22,-403 22,-403 22,-403 22,-289 22,-256.95 22,-219.64 22,-197.75"/>
<polygon fill="midnightblue" stroke="midnightblue" points="25.5,-197.56 22,-187.56 18.5,-197.56 25.5,-197.56"/>
</g>
<!-- Node4 -->
<g id="node4" class="node">
<title>Node4</title>
<g id="a_node4"><a xlink:title=" ">
<polygon fill="none" stroke="#bfbfbf" points="148.5,-392.5 148.5,-411.5 195.5,-411.5 195.5,-392.5 148.5,-392.5"/>
<text text-anchor="middle" x="172" y="-399.5" font-family="Helvetica,sans-Serif" font-size="10.00">vector</text>
</a>
</g>
</g>
<!-- Node1&#45;&gt;Node4 -->
<g id="edge34" class="edge">
<title>Node1&#45;&gt;Node4</title>
<path fill="none" stroke="midnightblue" d="M205.58,-504.33C200.78,-493.29 195.32,-480.12 191,-468 185.45,-452.43 180.27,-434.35 176.72,-421.22"/>
<polygon fill="midnightblue" stroke="midnightblue" points="180.09,-420.29 174.15,-411.51 173.33,-422.08 180.09,-420.29"/>
</g>
<!-- Node6 -->
<g id="node6" class="node">
<title>Node6</title>
<g id="a_node6"><a xlink:href="../../d3/d41/_c_c_platform_macros_8h.html" target="_top" xlink:title=" ">
<polygon fill="none" stroke="black" points="316,-112.5 316,-131.5 432,-131.5 432,-112.5 316,-112.5"/>
<text text-anchor="middle" x="374" y="-119.5" font-family="Helvetica,sans-Serif" font-size="10.00">CCPlatformMacros.h</text>
</a>
</g>
</g>
<!-- Node1&#45;&gt;Node6 -->
<g id="edge30" class="edge">
<title>Node1&#45;&gt;Node6</title>
<path fill="none" stroke="midnightblue" d="M287.06,-525.94C422.27,-517.14 706,-488.5 706,-403 706,-403 706,-403 706,-233 706,-177.95 539.42,-145.69 442.25,-131.56"/>
<polygon fill="midnightblue" stroke="midnightblue" points="442.6,-128.08 432.21,-130.13 441.62,-135.01 442.6,-128.08"/>
</g>
<!-- Node10 -->
<g id="node10" class="node">
<title>Node10</title>
<g id="a_node10"><a xlink:href="../../df/de6/cc_types_8h.html" target="_top" xlink:title=" ">
<polygon fill="none" stroke="black" points="66,-392.5 66,-411.5 130,-411.5 130,-392.5 66,-392.5"/>
<text text-anchor="middle" x="98" y="-399.5" font-family="Helvetica,sans-Serif" font-size="10.00">ccTypes.h</text>
</a>
</g>
</g>
<!-- Node1&#45;&gt;Node10 -->
<g id="edge31" class="edge">
<title>Node1&#45;&gt;Node10</title>
<path fill="none" stroke="midnightblue" d="M193.2,-504.2C169.27,-478.76 133.1,-440.31 112.93,-418.87"/>
<polygon fill="midnightblue" stroke="midnightblue" points="115.44,-416.44 106.04,-411.55 110.35,-421.23 115.44,-416.44"/>
</g>
<!-- Node19 -->
<g id="node19" class="node">
<title>Node19</title>
<g id="a_node19"><a xlink:href="../../d7/d80/cc_type_info_8h.html" target="_top" xlink:title=" ">
<polygon fill="none" stroke="black" points="453.5,-392.5 453.5,-411.5 530.5,-411.5 530.5,-392.5 453.5,-392.5"/>
<text text-anchor="middle" x="492" y="-399.5" font-family="Helvetica,sans-Serif" font-size="10.00">ccTypeInfo.h</text>
</a>
</g>
</g>
<!-- Node1&#45;&gt;Node19 -->
<g id="edge32" class="edge">
<title>Node1&#45;&gt;Node19</title>
<path fill="none" stroke="midnightblue" d="M271.66,-504.36C329.74,-477.64 419.26,-436.46 464.22,-415.78"/>
<polygon fill="midnightblue" stroke="midnightblue" points="465.74,-418.93 473.37,-411.57 462.82,-412.57 465.74,-418.93"/>
</g>
<!-- Node2&#45;&gt;Node3 -->
<g id="edge2" class="edge">
<title>Node2&#45;&gt;Node3</title>
<path fill="none" stroke="midnightblue" d="M264.45,-448.26C267.61,-435.04 271.56,-409.62 261,-392 244.02,-363.68 222.29,-375.98 196,-356 128.92,-305.02 62.8,-228.66 35.31,-195.43"/>
<polygon fill="midnightblue" stroke="midnightblue" points="37.94,-193.12 28.89,-187.6 32.53,-197.55 37.94,-193.12"/>
</g>
<!-- Node2&#45;&gt;Node4 -->
<g id="edge3" class="edge">
<title>Node2&#45;&gt;Node4</title>
<path fill="none" stroke="midnightblue" d="M247.54,-448.32C233.5,-439.9 211.95,-426.97 195.46,-417.07"/>
<polygon fill="midnightblue" stroke="midnightblue" points="196.8,-413.8 186.42,-411.65 193.2,-419.8 196.8,-413.8"/>
</g>
<!-- Node5 -->
<g id="node5" class="node">
<title>Node5</title>
<g id="a_node5"><a xlink:title=" ">
<polygon fill="none" stroke="#bfbfbf" points="214,-392.5 214,-411.5 252,-411.5 252,-392.5 214,-392.5"/>
<text text-anchor="middle" x="233" y="-399.5" font-family="Helvetica,sans-Serif" font-size="10.00">map</text>
</a>
</g>
</g>
<!-- Node2&#45;&gt;Node5 -->
<g id="edge4" class="edge">
<title>Node2&#45;&gt;Node5</title>
<path fill="none" stroke="midnightblue" d="M257.21,-448.08C253.24,-440.69 247.47,-429.95 242.57,-420.81"/>
<polygon fill="midnightblue" stroke="midnightblue" points="245.51,-418.91 237.7,-411.75 239.35,-422.22 245.51,-418.91"/>
</g>
<!-- Node2&#45;&gt;Node6 -->
<g id="edge5" class="edge">
<title>Node2&#45;&gt;Node6</title>
<path fill="none" stroke="midnightblue" d="M295.66,-448.48C339.89,-435.04 412,-404.32 412,-347 412,-347 412,-347 412,-233 412,-198.81 395.4,-161.76 384.14,-140.57"/>
<polygon fill="midnightblue" stroke="midnightblue" points="387.18,-138.83 379.28,-131.77 381.05,-142.22 387.18,-138.83"/>
</g>
<!-- Node2&#45;&gt;Node10 -->
<g id="edge10" class="edge">
<title>Node2&#45;&gt;Node10</title>
<path fill="none" stroke="midnightblue" d="M236.01,-448.44C208.3,-439.32 164.25,-424.81 133.38,-414.65"/>
<polygon fill="midnightblue" stroke="midnightblue" points="134.46,-411.32 123.86,-411.52 132.27,-417.97 134.46,-411.32"/>
</g>
<!-- Node2&#45;&gt;Node19 -->
<g id="edge25" class="edge">
<title>Node2&#45;&gt;Node19</title>
<path fill="none" stroke="midnightblue" d="M298.44,-448.44C338.4,-439.06 402.59,-423.99 445.98,-413.8"/>
<polygon fill="midnightblue" stroke="midnightblue" points="446.79,-417.21 455.73,-411.52 445.19,-410.39 446.79,-417.21"/>
</g>
<!-- Node7 -->
<g id="node7" class="node">
<title>Node7</title>
<g id="a_node7"><a xlink:href="../../db/d9f/cc_config_8h.html" target="_top" xlink:title="cocos2d (cc) configuration file">
<polygon fill="none" stroke="black" points="235.5,-56.5 235.5,-75.5 302.5,-75.5 302.5,-56.5 235.5,-56.5"/>
<text text-anchor="middle" x="269" y="-63.5" font-family="Helvetica,sans-Serif" font-size="10.00">ccConfig.h</text>
</a>
</g>
</g>
<!-- Node6&#45;&gt;Node7 -->
<g id="edge6" class="edge">
<title>Node6&#45;&gt;Node7</title>
<path fill="none" stroke="midnightblue" d="M357.13,-112.32C340.29,-103.66 314.19,-90.24 294.76,-80.25"/>
<polygon fill="midnightblue" stroke="midnightblue" points="296.32,-77.12 285.83,-75.65 293.12,-83.34 296.32,-77.12"/>
</g>
<!-- Node8 -->
<g id="node8" class="node">
<title>Node8</title>
<g id="a_node8"><a xlink:href="../../dd/d96/_c_c_platform_config_8h.html" target="_top" xlink:title=" ">
<polygon fill="none" stroke="black" points="221.5,-0.5 221.5,-19.5 378.5,-19.5 378.5,-0.5 221.5,-0.5"/>
<text text-anchor="middle" x="300" y="-7.5" font-family="Helvetica,sans-Serif" font-size="10.00">platform/CCPlatformConfig.h</text>
</a>
</g>
</g>
<!-- Node6&#45;&gt;Node8 -->
<g id="edge8" class="edge">
<title>Node6&#45;&gt;Node8</title>
<path fill="none" stroke="midnightblue" d="M368.19,-112.37C355.98,-94.22 327.45,-51.8 311.43,-27.99"/>
<polygon fill="midnightblue" stroke="midnightblue" points="314.27,-25.94 305.78,-19.59 308.46,-29.84 314.27,-25.94"/>
</g>
<!-- Node9 -->
<g id="node9" class="node">
<title>Node9</title>
<g id="a_node9"><a xlink:title=" ">
<polygon fill="none" stroke="#bfbfbf" points="359.5,-56.5 359.5,-75.5 472.5,-75.5 472.5,-56.5 359.5,-56.5"/>
<text text-anchor="middle" x="416" y="-63.5" font-family="Helvetica,sans-Serif" font-size="10.00">CCPlatformDefine.h</text>
</a>
</g>
</g>
<!-- Node6&#45;&gt;Node9 -->
<g id="edge9" class="edge">
<title>Node6&#45;&gt;Node9</title>
<path fill="none" stroke="midnightblue" d="M380.94,-112.08C386.93,-104.38 395.75,-93.03 403.05,-83.65"/>
<polygon fill="midnightblue" stroke="midnightblue" points="405.82,-85.79 409.19,-75.75 400.29,-81.5 405.82,-85.79"/>
</g>
<!-- Node7&#45;&gt;Node8 -->
<g id="edge7" class="edge">
<title>Node7&#45;&gt;Node8</title>
<path fill="none" stroke="midnightblue" d="M274.12,-56.08C278.41,-48.61 284.66,-37.72 289.94,-28.52"/>
<polygon fill="midnightblue" stroke="midnightblue" points="293.03,-30.17 294.98,-19.75 286.96,-26.68 293.03,-30.17"/>
</g>
<!-- Node10&#45;&gt;Node3 -->
<g id="edge11" class="edge">
<title>Node10&#45;&gt;Node3</title>
<path fill="none" stroke="midnightblue" d="M94.13,-392.46C90.12,-383.48 83.78,-368.88 79,-356 67.88,-326.05 39.88,-236.61 27.75,-197.57"/>
<polygon fill="midnightblue" stroke="midnightblue" points="31.02,-196.3 24.72,-187.79 24.34,-198.37 31.02,-196.3"/>
</g>
<!-- Node11 -->
<g id="node11" class="node">
<title>Node11</title>
<g id="a_node11"><a xlink:href="../../d6/d09/_c_c_geometry_8h.html" target="_top" xlink:title=" ">
<polygon fill="none" stroke="black" points="205,-336.5 205,-355.5 323,-355.5 323,-336.5 205,-336.5"/>
<text text-anchor="middle" x="264" y="-343.5" font-family="Helvetica,sans-Serif" font-size="10.00">cocoa/CCGeometry.h</text>
</a>
</g>
</g>
<!-- Node10&#45;&gt;Node11 -->
<g id="edge12" class="edge">
<title>Node10&#45;&gt;Node11</title>
<path fill="none" stroke="midnightblue" d="M124.3,-392.44C152.35,-383.32 196.94,-368.81 228.18,-358.65"/>
<polygon fill="midnightblue" stroke="midnightblue" points="229.39,-361.94 237.82,-355.52 227.23,-355.28 229.39,-361.94"/>
</g>
<!-- Node18 -->
<g id="node18" class="node">
<title>Node18</title>
<g id="a_node18"><a xlink:title=" ">
<polygon fill="none" stroke="#bfbfbf" points="88,-336.5 88,-355.5 140,-355.5 140,-336.5 88,-336.5"/>
<text text-anchor="middle" x="114" y="-343.5" font-family="Helvetica,sans-Serif" font-size="10.00">CCGL.h</text>
</a>
</g>
</g>
<!-- Node10&#45;&gt;Node18 -->
<g id="edge24" class="edge">
<title>Node10&#45;&gt;Node18</title>
<path fill="none" stroke="midnightblue" d="M100.64,-392.08C102.79,-384.85 105.88,-374.41 108.55,-365.4"/>
<polygon fill="midnightblue" stroke="midnightblue" points="111.92,-366.33 111.41,-355.75 105.21,-364.34 111.92,-366.33"/>
</g>
<!-- Node11&#45;&gt;Node6 -->
<g id="edge13" class="edge">
<title>Node11&#45;&gt;Node6</title>
<path fill="none" stroke="midnightblue" d="M275.42,-336.47C285.88,-328.14 301.18,-314.64 311,-300 345.6,-248.4 363.59,-175.6 370.53,-141.71"/>
<polygon fill="midnightblue" stroke="midnightblue" points="373.99,-142.29 372.47,-131.8 367.12,-140.94 373.99,-142.29"/>
</g>
<!-- Node12 -->
<g id="node12" class="node">
<title>Node12</title>
<g id="a_node12"><a xlink:href="../../dd/d69/_c_c_object_8h.html" target="_top" xlink:title=" ">
<polygon fill="none" stroke="black" points="230.5,-280.5 230.5,-299.5 301.5,-299.5 301.5,-280.5 230.5,-280.5"/>
<text text-anchor="middle" x="266" y="-287.5" font-family="Helvetica,sans-Serif" font-size="10.00">CCObject.h</text>
</a>
</g>
</g>
<!-- Node11&#45;&gt;Node12 -->
<g id="edge14" class="edge">
<title>Node11&#45;&gt;Node12</title>
<path fill="none" stroke="midnightblue" d="M264.33,-336.08C264.59,-329.01 264.97,-318.86 265.3,-309.99"/>
<polygon fill="midnightblue" stroke="midnightblue" points="268.8,-309.87 265.68,-299.75 261.81,-309.61 268.8,-309.87"/>
</g>
<!-- Node17 -->
<g id="node17" class="node">
<title>Node17</title>
<g id="a_node17"><a xlink:title=" ">
<polygon fill="none" stroke="#bfbfbf" points="161.5,-280.5 161.5,-299.5 212.5,-299.5 212.5,-280.5 161.5,-280.5"/>
<text text-anchor="middle" x="187" y="-287.5" font-family="Helvetica,sans-Serif" font-size="10.00">math.h</text>
</a>
</g>
</g>
<!-- Node11&#45;&gt;Node17 -->
<g id="edge23" class="edge">
<title>Node11&#45;&gt;Node17</title>
<path fill="none" stroke="midnightblue" d="M251.63,-336.32C239.84,-328.06 221.87,-315.45 207.86,-305.63"/>
<polygon fill="midnightblue" stroke="midnightblue" points="209.54,-302.53 199.34,-299.65 205.52,-308.26 209.54,-302.53"/>
</g>
<!-- Node13 -->
<g id="node13" class="node">
<title>Node13</title>
<g id="a_node13"><a xlink:href="../../d9/d2d/_c_c_data_visitor_8h.html" target="_top" xlink:title=" ">
<polygon fill="none" stroke="black" points="132.5,-224.5 132.5,-243.5 225.5,-243.5 225.5,-224.5 132.5,-224.5"/>
<text text-anchor="middle" x="179" y="-231.5" font-family="Helvetica,sans-Serif" font-size="10.00">CCDataVisitor.h</text>
</a>
</g>
</g>
<!-- Node12&#45;&gt;Node13 -->
<g id="edge15" class="edge">
<title>Node12&#45;&gt;Node13</title>
<path fill="none" stroke="midnightblue" d="M252.02,-280.32C238.45,-271.9 217.62,-258.97 201.68,-249.07"/>
<polygon fill="midnightblue" stroke="midnightblue" points="203.29,-245.95 192.94,-243.65 199.59,-251.9 203.29,-245.95"/>
</g>
<!-- Node14 -->
<g id="node14" class="node">
<title>Node14</title>
<g id="a_node14"><a xlink:href="../../d9/dc8/cc_macros_8h.html" target="_top" xlink:title=" ">
<polygon fill="none" stroke="black" points="243.5,-224.5 243.5,-243.5 314.5,-243.5 314.5,-224.5 243.5,-224.5"/>
<text text-anchor="middle" x="279" y="-231.5" font-family="Helvetica,sans-Serif" font-size="10.00">ccMacros.h</text>
</a>
</g>
</g>
<!-- Node12&#45;&gt;Node14 -->
<g id="edge18" class="edge">
<title>Node12&#45;&gt;Node14</title>
<path fill="none" stroke="midnightblue" d="M268.15,-280.08C269.87,-272.93 272.35,-262.64 274.5,-253.69"/>
<polygon fill="midnightblue" stroke="midnightblue" points="277.96,-254.29 276.89,-243.75 271.15,-252.65 277.96,-254.29"/>
</g>
<!-- Node13&#45;&gt;Node3 -->
<g id="edge17" class="edge">
<title>Node13&#45;&gt;Node3</title>
<path fill="none" stroke="midnightblue" d="M154.12,-224.44C126.93,-215.09 83.31,-200.09 53.69,-189.9"/>
<polygon fill="midnightblue" stroke="midnightblue" points="54.82,-186.59 44.22,-186.64 52.54,-193.21 54.82,-186.59"/>
</g>
<!-- Node13&#45;&gt;Node6 -->
<g id="edge16" class="edge">
<title>Node13&#45;&gt;Node6</title>
<path fill="none" stroke="midnightblue" d="M164.06,-224.42C143.98,-211.83 112.6,-187.69 129,-168 151.14,-141.43 241.25,-130.49 305.75,-126.03"/>
<polygon fill="midnightblue" stroke="midnightblue" points="306.12,-129.51 315.87,-125.37 305.67,-122.53 306.12,-129.51"/>
</g>
<!-- Node14&#45;&gt;Node7 -->
<g id="edge22" class="edge">
<title>Node14&#45;&gt;Node7</title>
<path fill="none" stroke="midnightblue" d="M243.4,-224.67C201.29,-214.47 135.98,-197.38 129,-188 93.78,-140.66 181.16,-98.97 233.35,-79.18"/>
<polygon fill="midnightblue" stroke="midnightblue" points="234.79,-82.38 242.96,-75.64 232.36,-75.82 234.79,-82.38"/>
</g>
<!-- Node15 -->
<g id="node15" class="node">
<title>Node15</title>
<g id="a_node15"><a xlink:href="../../d5/d22/_c_c_common_8h.html" target="_top" xlink:title=" ">
<polygon fill="none" stroke="black" points="218,-168.5 218,-187.5 346,-187.5 346,-168.5 218,-168.5"/>
<text text-anchor="middle" x="282" y="-175.5" font-family="Helvetica,sans-Serif" font-size="10.00">platform/CCCommon.h</text>
</a>
</g>
</g>
<!-- Node14&#45;&gt;Node15 -->
<g id="edge19" class="edge">
<title>Node14&#45;&gt;Node15</title>
<path fill="none" stroke="midnightblue" d="M279.5,-224.08C279.89,-217.01 280.45,-206.86 280.95,-197.99"/>
<polygon fill="midnightblue" stroke="midnightblue" points="284.45,-197.93 281.51,-187.75 277.46,-197.54 284.45,-197.93"/>
</g>
<!-- Node16 -->
<g id="node16" class="node">
<title>Node16</title>
<g id="a_node16"><a xlink:title=" ">
<polygon fill="none" stroke="#bfbfbf" points="138,-168.5 138,-187.5 200,-187.5 200,-168.5 138,-168.5"/>
<text text-anchor="middle" x="169" y="-175.5" font-family="Helvetica,sans-Serif" font-size="10.00">CCStdC.h</text>
</a>
</g>
</g>
<!-- Node14&#45;&gt;Node16 -->
<g id="edge21" class="edge">
<title>Node14&#45;&gt;Node16</title>
<path fill="none" stroke="midnightblue" d="M261.33,-224.32C243.61,-215.62 216.1,-202.12 195.71,-192.11"/>
<polygon fill="midnightblue" stroke="midnightblue" points="197.15,-188.92 186.63,-187.65 194.06,-195.2 197.15,-188.92"/>
</g>
<!-- Node15&#45;&gt;Node6 -->
<g id="edge20" class="edge">
<title>Node15&#45;&gt;Node6</title>
<path fill="none" stroke="midnightblue" d="M296.78,-168.32C311.27,-159.82 333.57,-146.73 350.49,-136.8"/>
<polygon fill="midnightblue" stroke="midnightblue" points="352.4,-139.74 359.26,-131.65 348.86,-133.7 352.4,-139.74"/>
</g>
<!-- Node19&#45;&gt;Node6 -->
<g id="edge26" class="edge">
<title>Node19&#45;&gt;Node6</title>
<path fill="none" stroke="midnightblue" d="M486.16,-392.31C474.62,-374.26 450,-331.07 450,-291 450,-291 450,-291 450,-233 450,-202.2 443.53,-193.32 426,-168 417.82,-156.19 405.85,-145.54 395.45,-137.57"/>
<polygon fill="midnightblue" stroke="midnightblue" points="397.34,-134.62 387.2,-131.54 393.21,-140.27 397.34,-134.62"/>
</g>
<!-- Node20 -->
<g id="node20" class="node">
<title>Node20</title>
<g id="a_node20"><a xlink:title=" ">
<polygon fill="none" stroke="#bfbfbf" points="549.5,-336.5 549.5,-355.5 606.5,-355.5 606.5,-336.5 549.5,-336.5"/>
<text text-anchor="middle" x="578" y="-343.5" font-family="Helvetica,sans-Serif" font-size="10.00">typeinfo</text>
</a>
</g>
</g>
<!-- Node19&#45;&gt;Node20 -->
<g id="edge27" class="edge">
<title>Node19&#45;&gt;Node20</title>
<path fill="none" stroke="midnightblue" d="M505.82,-392.32C519.23,-383.9 539.82,-370.97 555.59,-361.07"/>
<polygon fill="midnightblue" stroke="midnightblue" points="557.61,-363.94 564.22,-355.65 553.89,-358.01 557.61,-363.94"/>
</g>
<!-- Node21 -->
<g id="node21" class="node">
<title>Node21</title>
<g id="a_node21"><a xlink:title=" ">
<polygon fill="none" stroke="#bfbfbf" points="624.5,-336.5 624.5,-355.5 677.5,-355.5 677.5,-336.5 624.5,-336.5"/>
<text text-anchor="middle" x="651" y="-343.5" font-family="Helvetica,sans-Serif" font-size="10.00">ctype.h</text>
</a>
</g>
</g>
<!-- Node19&#45;&gt;Node21 -->
<g id="edge28" class="edge">
<title>Node19&#45;&gt;Node21</title>
<path fill="none" stroke="midnightblue" d="M517.19,-392.44C543.94,-383.36 586.4,-368.94 616.31,-358.78"/>
<polygon fill="midnightblue" stroke="midnightblue" points="617.58,-362.05 625.92,-355.52 615.33,-355.42 617.58,-362.05"/>
</g>
<!-- Node22 -->
<g id="node22" class="node">
<title>Node22</title>
<g id="a_node22"><a xlink:title=" ">
<polygon fill="none" stroke="#bfbfbf" points="478.5,-336.5 478.5,-355.5 531.5,-355.5 531.5,-336.5 478.5,-336.5"/>
<text text-anchor="middle" x="505" y="-343.5" font-family="Helvetica,sans-Serif" font-size="10.00">string.h</text>
</a>
</g>
</g>
<!-- Node19&#45;&gt;Node22 -->
<g id="edge29" class="edge">
<title>Node19&#45;&gt;Node22</title>
<path fill="none" stroke="midnightblue" d="M494.15,-392.08C495.87,-384.93 498.35,-374.64 500.5,-365.69"/>
<polygon fill="midnightblue" stroke="midnightblue" points="503.96,-366.29 502.89,-355.75 497.15,-364.65 503.96,-366.29"/>
</g>
</g>
</svg>
