<?xml version="1.0" encoding="UTF-8" standalone="no"?>
<!DOCTYPE svg PUBLIC "-//W3C//DTD SVG 1.1//EN"
 "http://www.w3.org/Graphics/SVG/1.1/DTD/svg11.dtd">
<!-- Generated by graphviz version 2.43.0 (0)
 -->
<!-- Title: CCGrid3D Pages: 1 -->
<svg width="548pt" height="342pt"
 viewBox="0.00 0.00 547.65 342.00" xmlns="http://www.w3.org/2000/svg" xmlns:xlink="http://www.w3.org/1999/xlink">
<g id="graph0" class="graph" transform="scale(1 1) rotate(0) translate(4 338)">
<title>CCGrid3D</title>
<!-- Node1 -->
<g id="node1" class="node">
<title>Node1</title>
<g id="a_node1"><a xlink:title="CCGrid3D is a 3D grid implementation.">
<polygon fill="#bfbfbf" stroke="black" points="196.15,-0.5 196.15,-19.5 260.15,-19.5 260.15,-0.5 196.15,-0.5"/>
<text text-anchor="middle" x="228.15" y="-7.5" font-family="Helvetica,sans-Serif" font-size="10.00">CCGrid3D</text>
</a>
</g>
</g>
<!-- Node2 -->
<g id="node2" class="node">
<title>Node2</title>
<g id="a_node2"><a xlink:href="../../d6/d70/classcocos2d_1_1_c_c_grid_base.html" target="_top" xlink:title="Base class for other.">
<polygon fill="none" stroke="black" points="191.15,-57.5 191.15,-76.5 265.15,-76.5 265.15,-57.5 191.15,-57.5"/>
<text text-anchor="middle" x="228.15" y="-64.5" font-family="Helvetica,sans-Serif" font-size="10.00">CCGridBase</text>
</a>
</g>
</g>
<!-- Node2&#45;&gt;Node1 -->
<g id="edge1" class="edge">
<title>Node2&#45;&gt;Node1</title>
<path fill="none" stroke="midnightblue" d="M228.15,-47.12C228.15,-37.82 228.15,-27.06 228.15,-19.71"/>
<polygon fill="midnightblue" stroke="midnightblue" points="224.65,-47.41 228.15,-57.41 231.65,-47.41 224.65,-47.41"/>
</g>
<!-- Node3 -->
<g id="node3" class="node">
<title>Node3</title>
<g id="a_node3"><a xlink:href="../../d3/dbf/classcocos2d_1_1_c_c_object.html" target="_top" xlink:title="NA.">
<polygon fill="none" stroke="black" points="150.15,-257.5 150.15,-276.5 212.15,-276.5 212.15,-257.5 150.15,-257.5"/>
<text text-anchor="middle" x="181.15" y="-264.5" font-family="Helvetica,sans-Serif" font-size="10.00">CCObject</text>
</a>
</g>
</g>
<!-- Node3&#45;&gt;Node2 -->
<g id="edge2" class="edge">
<title>Node3&#45;&gt;Node2</title>
<path fill="none" stroke="midnightblue" d="M140.03,-261.18C92.83,-254.7 19.76,-241.45 3.15,-220 -2.29,-212.97 1.44,-208.72 3.15,-200 13.8,-145.68 19.69,-117.76 70.15,-95 108.96,-77.5 157.82,-71.27 190.85,-69.09"/>
<polygon fill="midnightblue" stroke="midnightblue" points="139.59,-264.65 149.97,-262.5 140.51,-257.71 139.59,-264.65"/>
</g>
<!-- Node6 -->
<g id="node6" class="node">
<title>Node6</title>
<g id="a_node6"><a xlink:href="../../d7/dfd/classcocos2d_1_1_c_c_texture2_d.html" target="_top" xlink:title="CCTexture2D class.">
<polygon fill="none" stroke="black" points="122.15,-124.5 122.15,-143.5 202.15,-143.5 202.15,-124.5 122.15,-124.5"/>
<text text-anchor="middle" x="162.15" y="-131.5" font-family="Helvetica,sans-Serif" font-size="10.00">CCTexture2D</text>
</a>
</g>
</g>
<!-- Node3&#45;&gt;Node6 -->
<g id="edge6" class="edge">
<title>Node3&#45;&gt;Node6</title>
<path fill="none" stroke="midnightblue" d="M173.47,-247.97C170.28,-239.62 166.92,-229.47 165.15,-220 159.99,-192.42 160.84,-158.96 161.62,-143.54"/>
<polygon fill="midnightblue" stroke="midnightblue" points="170.29,-249.43 177.28,-257.39 176.78,-246.81 170.29,-249.43"/>
</g>
<!-- Node7 -->
<g id="node7" class="node">
<title>Node7</title>
<g id="a_node7"><a xlink:href="../../db/d28/classcocos2d_1_1_c_c_g_l_program.html" target="_top" xlink:title="CCGLProgram Class that implements a glProgram.">
<polygon fill="none" stroke="black" points="174.15,-200.5 174.15,-219.5 258.15,-219.5 258.15,-200.5 174.15,-200.5"/>
<text text-anchor="middle" x="216.15" y="-207.5" font-family="Helvetica,sans-Serif" font-size="10.00">CCGLProgram</text>
</a>
</g>
</g>
<!-- Node3&#45;&gt;Node7 -->
<g id="edge9" class="edge">
<title>Node3&#45;&gt;Node7</title>
<path fill="none" stroke="midnightblue" d="M192.01,-248.94C198.17,-239.25 205.62,-227.54 210.6,-219.71"/>
<polygon fill="midnightblue" stroke="midnightblue" points="189.03,-247.09 186.62,-257.41 194.94,-250.85 189.03,-247.09"/>
</g>
<!-- Node9 -->
<g id="node9" class="node">
<title>Node9</title>
<g id="a_node9"><a xlink:href="../../d3/d89/classcocos2d_1_1_c_c_grabber.html" target="_top" xlink:title="FBO class that grabs the the contents of the screen NA NA.">
<polygon fill="none" stroke="black" points="324.65,-162.5 324.65,-181.5 393.65,-181.5 393.65,-162.5 324.65,-162.5"/>
<text text-anchor="middle" x="359.15" y="-169.5" font-family="Helvetica,sans-Serif" font-size="10.00">CCGrabber</text>
</a>
</g>
</g>
<!-- Node3&#45;&gt;Node9 -->
<g id="edge12" class="edge">
<title>Node3&#45;&gt;Node9</title>
<path fill="none" stroke="midnightblue" d="M206.75,-252.62C243.89,-233.22 311.66,-197.81 342.76,-181.56"/>
<polygon fill="midnightblue" stroke="midnightblue" points="204.82,-249.68 197.58,-257.42 208.06,-255.89 204.82,-249.68"/>
</g>
<!-- Node4 -->
<g id="node4" class="node">
<title>Node4</title>
<g id="a_node4"><a xlink:href="../../d5/d61/classcocos2d_1_1_c_c_copying.html" target="_top" xlink:title="NA NA.">
<polygon fill="none" stroke="black" points="146.15,-314.5 146.15,-333.5 216.15,-333.5 216.15,-314.5 146.15,-314.5"/>
<text text-anchor="middle" x="181.15" y="-321.5" font-family="Helvetica,sans-Serif" font-size="10.00">CCCopying</text>
</a>
</g>
</g>
<!-- Node4&#45;&gt;Node3 -->
<g id="edge3" class="edge">
<title>Node4&#45;&gt;Node3</title>
<path fill="none" stroke="midnightblue" d="M181.15,-304.12C181.15,-294.82 181.15,-284.06 181.15,-276.71"/>
<polygon fill="midnightblue" stroke="midnightblue" points="177.65,-304.41 181.15,-314.41 184.65,-304.41 177.65,-304.41"/>
</g>
<!-- Node5 -->
<g id="node5" class="node">
<title>Node5</title>
<g id="a_node5"><a xlink:href="../../d9/d24/classcocos2d_1_1_c_c_size.html" target="_top" xlink:title="NA.">
<polygon fill="none" stroke="black" points="12.15,-200.5 12.15,-219.5 62.15,-219.5 62.15,-200.5 12.15,-200.5"/>
<text text-anchor="middle" x="37.15" y="-207.5" font-family="Helvetica,sans-Serif" font-size="10.00">CCSize</text>
</a>
</g>
</g>
<!-- Node5&#45;&gt;Node2 -->
<g id="edge4" class="edge">
<title>Node5&#45;&gt;Node2</title>
<path fill="none" stroke="#9a32cd" stroke-dasharray="5,2" d="M33.94,-190.29C31.79,-170.93 31.95,-141.16 49.15,-124 87.19,-86.06 150.55,-73.76 190.8,-69.82"/>
<polygon fill="#9a32cd" stroke="#9a32cd" points="30.49,-190.91 35.36,-200.32 37.42,-189.92 30.49,-190.91"/>
<text text-anchor="middle" x="81.15" y="-131.5" font-family="Helvetica,sans-Serif" font-size="10.00"> m_sGridSize</text>
</g>
<!-- Node5&#45;&gt;Node6 -->
<g id="edge7" class="edge">
<title>Node5&#45;&gt;Node6</title>
<path fill="none" stroke="#9a32cd" stroke-dasharray="5,2" d="M38.34,-190.43C39.92,-180.7 43.44,-169.33 51.15,-162 61.39,-152.27 94.62,-145 122.08,-140.48"/>
<polygon fill="#9a32cd" stroke="#9a32cd" points="34.85,-190.08 37.25,-200.4 41.81,-190.83 34.85,-190.08"/>
<text text-anchor="middle" x="91.65" y="-169.5" font-family="Helvetica,sans-Serif" font-size="10.00"> m_tContentSize</text>
</g>
<!-- Node6&#45;&gt;Node2 -->
<g id="edge5" class="edge">
<title>Node6&#45;&gt;Node2</title>
<path fill="none" stroke="#9a32cd" stroke-dasharray="5,2" d="M173.7,-115.73C178.67,-108.9 184.79,-101.23 191.15,-95 198.2,-88.1 207.1,-81.55 214.4,-76.63"/>
<polygon fill="#9a32cd" stroke="#9a32cd" points="170.58,-114.08 167.73,-124.28 176.32,-118.08 170.58,-114.08"/>
<text text-anchor="middle" x="221.65" y="-98" font-family="Helvetica,sans-Serif" font-size="10.00"> m_pTexture</text>
</g>
<!-- Node7&#45;&gt;Node2 -->
<g id="edge13" class="edge">
<title>Node7&#45;&gt;Node2</title>
<path fill="none" stroke="#9a32cd" stroke-dasharray="5,2" d="M265.12,-195.82C271.05,-192.26 276.34,-187.74 280.15,-182 285.06,-174.59 283.03,-170.41 280.15,-162 276.86,-152.41 270.74,-153.04 266.15,-144 255.9,-123.8 263.06,-114.85 252.15,-95 248.4,-88.18 242.66,-81.64 237.72,-76.7"/>
<polygon fill="#9a32cd" stroke="#9a32cd" points="263.43,-192.76 256.08,-200.39 266.59,-199 263.43,-192.76"/>
<text text-anchor="middle" x="316.15" y="-131.5" font-family="Helvetica,sans-Serif" font-size="10.00"> m_pShaderProgram</text>
</g>
<!-- Node7&#45;&gt;Node6 -->
<g id="edge8" class="edge">
<title>Node7&#45;&gt;Node6</title>
<path fill="none" stroke="#9a32cd" stroke-dasharray="5,2" d="M192.67,-194.42C188.08,-190.79 183.62,-186.6 180.15,-182 171.31,-170.28 166.32,-153.7 163.93,-143.69"/>
<polygon fill="#9a32cd" stroke="#9a32cd" points="190.72,-197.34 200.89,-200.34 194.81,-191.65 190.72,-197.34"/>
<text text-anchor="middle" x="230.15" y="-169.5" font-family="Helvetica,sans-Serif" font-size="10.00"> m_pShaderProgram</text>
</g>
<!-- Node8 -->
<g id="node8" class="node">
<title>Node8</title>
<g id="a_node8"><a xlink:href="../../d2/df3/classcocos2d_1_1_c_c_point.html" target="_top" xlink:title="NA.">
<polygon fill="none" stroke="black" points="484.65,-124.5 484.65,-143.5 539.65,-143.5 539.65,-124.5 484.65,-124.5"/>
<text text-anchor="middle" x="512.15" y="-131.5" font-family="Helvetica,sans-Serif" font-size="10.00">CCPoint</text>
</a>
</g>
</g>
<!-- Node8&#45;&gt;Node2 -->
<g id="edge10" class="edge">
<title>Node8&#45;&gt;Node2</title>
<path fill="none" stroke="#9a32cd" stroke-dasharray="5,2" d="M484.98,-120.26C466.07,-111.89 440.05,-101.35 416.15,-95 364.84,-81.36 303.71,-74.2 265.41,-70.76"/>
<polygon fill="#9a32cd" stroke="#9a32cd" points="483.62,-123.49 494.18,-124.41 486.5,-117.11 483.62,-123.49"/>
<text text-anchor="middle" x="474.15" y="-98" font-family="Helvetica,sans-Serif" font-size="10.00"> m_obStep</text>
</g>
<!-- Node9&#45;&gt;Node2 -->
<g id="edge11" class="edge">
<title>Node9&#45;&gt;Node2</title>
<path fill="none" stroke="#9a32cd" stroke-dasharray="5,2" d="M369.63,-153.11C373.62,-143.77 375.97,-132.55 370.15,-124 346.81,-89.71 298.94,-76.42 265.25,-71.26"/>
<polygon fill="#9a32cd" stroke="#9a32cd" points="366.38,-151.78 364.96,-162.28 372.62,-154.96 366.38,-151.78"/>
<text text-anchor="middle" x="405.15" y="-131.5" font-family="Helvetica,sans-Serif" font-size="10.00"> m_pGrabber</text>
</g>
</g>
</svg>
