<?xml version="1.0" encoding="UTF-8" standalone="no"?>
<!DOCTYPE svg PUBLIC "-//W3C//DTD SVG 1.1//EN"
 "http://www.w3.org/Graphics/SVG/1.1/DTD/svg11.dtd">
<!-- Generated by graphviz version 2.43.0 (0)
 -->
<!-- Title: CCLayerRGBA Pages: 1 -->
<svg width="1480pt" height="619pt"
 viewBox="0.00 0.00 1480.00 619.42" xmlns="http://www.w3.org/2000/svg" xmlns:xlink="http://www.w3.org/1999/xlink">
<g id="graph0" class="graph" transform="scale(1 1) rotate(0) translate(4 615.42)">
<title>CCLayerRGBA</title>
<!-- Node1 -->
<g id="node1" class="node">
<title>Node1</title>
<g id="a_node1"><a xlink:title="CCLayerRGBA is a subclass of CCLayer that implements the CCRGBAProtocol protocol using a solid color ...">
<polygon fill="#999999" stroke="#666666" points="1472,-260.79 1387,-260.79 1387,-241.79 1472,-241.79 1472,-260.79"/>
<text text-anchor="middle" x="1429.5" y="-248.79" font-family="Helvetica,sans-Serif" font-size="10.00">CCLayerRGBA</text>
</a>
</g>
</g>
<!-- Node2 -->
<g id="node2" class="node">
<title>Node2</title>
<g id="a_node2"><a xlink:href="../../d0/d45/class_c_c_layer.html" target="_top" xlink:title="CCLayer is a subclass of CCNode that implements the TouchEventsDelegate protocol.">
<polygon fill="white" stroke="#666666" points="1248.5,-297.79 1191.5,-297.79 1191.5,-278.79 1248.5,-278.79 1248.5,-297.79"/>
<text text-anchor="middle" x="1220" y="-285.79" font-family="Helvetica,sans-Serif" font-size="10.00">CCLayer</text>
</a>
</g>
</g>
<!-- Node2&#45;&gt;Node1 -->
<g id="edge1" class="edge">
<title>Node2&#45;&gt;Node1</title>
<path fill="none" stroke="#63b8ff" d="M1258.7,-283.24C1288.69,-279.04 1331.67,-272.57 1369,-265.29 1375.77,-263.97 1382.94,-262.41 1389.87,-260.83"/>
<polygon fill="#63b8ff" stroke="#63b8ff" points="1258.08,-279.8 1248.66,-284.64 1259.05,-286.73 1258.08,-279.8"/>
</g>
<!-- Node3 -->
<g id="node3" class="node">
<title>Node3</title>
<g id="a_node3"><a xlink:href="../../d0/ded/classcocos2d_1_1_c_c_node.html" target="_top" xlink:title="CCNode is the main element.">
<polygon fill="white" stroke="#666666" points="1089,-371.79 1033,-371.79 1033,-352.79 1089,-352.79 1089,-371.79"/>
<text text-anchor="middle" x="1061" y="-359.79" font-family="Helvetica,sans-Serif" font-size="10.00">CCNode</text>
</a>
</g>
</g>
<!-- Node3&#45;&gt;Node2 -->
<g id="edge2" class="edge">
<title>Node3&#45;&gt;Node2</title>
<path fill="none" stroke="#63b8ff" d="M1098.84,-355.6C1110.37,-352.84 1122.96,-349.13 1134,-344.29 1162.32,-331.85 1191.64,-310.25 1207.36,-297.82"/>
<polygon fill="#63b8ff" stroke="#63b8ff" points="1098.04,-352.19 1089.04,-357.78 1099.56,-359.02 1098.04,-352.19"/>
</g>
<!-- Node3&#45;&gt;Node3 -->
<g id="edge24" class="edge">
<title>Node3&#45;&gt;Node3</title>
<path fill="none" stroke="#9a32cd" stroke-dasharray="5,2" d="M1044.43,-381.7C1045.73,-386.35 1051.25,-389.79 1061,-389.79 1077,-389.79 1081.62,-380.52 1074.87,-371.87"/>
<polygon fill="#9a32cd" stroke="#9a32cd" points="1047.85,-382.44 1047.13,-371.87 1041.1,-380.58 1047.85,-382.44"/>
<text text-anchor="middle" x="1061" y="-392.79" font-family="Helvetica,sans-Serif" font-size="10.00"> m_pParent</text>
</g>
<!-- Node4 -->
<g id="node4" class="node">
<title>Node4</title>
<g id="a_node4"><a xlink:href="../../d3/dbf/classcocos2d_1_1_c_c_object.html" target="_top" xlink:title="NA.">
<polygon fill="white" stroke="#666666" points="169,-273.79 107,-273.79 107,-254.79 169,-254.79 169,-273.79"/>
<text text-anchor="middle" x="138" y="-261.79" font-family="Helvetica,sans-Serif" font-size="10.00">CCObject</text>
</a>
</g>
</g>
<!-- Node4&#45;&gt;Node3 -->
<g id="edge3" class="edge">
<title>Node4&#45;&gt;Node3</title>
<path fill="none" stroke="#63b8ff" d="M139.56,-284.09C141.67,-345.49 150.95,-531.23 187,-577.29 204.81,-600.04 218.11,-602.29 247,-602.29 247,-602.29 247,-602.29 758,-602.29 852.88,-602.29 894.23,-634.39 970,-577.29 1040.12,-524.44 1056.03,-406.7 1059.25,-372.06"/>
<polygon fill="#63b8ff" stroke="#63b8ff" points="143.05,-283.73 139.24,-273.84 136.05,-283.95 143.05,-283.73"/>
</g>
<!-- Node4&#45;&gt;Node3 -->
<g id="edge25" class="edge">
<title>Node4&#45;&gt;Node3</title>
<path fill="none" stroke="#9a32cd" stroke-dasharray="5,2" d="M141.72,-283.9C151.48,-350.42 187.39,-563.29 247,-563.29 247,-563.29 247,-563.29 758,-563.29 854.05,-563.29 892.14,-577.54 970,-521.29 1023.99,-482.28 1049.97,-400.27 1057.56,-372.06"/>
<polygon fill="#9a32cd" stroke="#9a32cd" points="145.17,-283.3 140.29,-273.9 138.24,-284.29 145.17,-283.3"/>
<text text-anchor="middle" x="500" y="-566.29" font-family="Helvetica,sans-Serif" font-size="10.00"> m_pUserObject</text>
</g>
<!-- Node9 -->
<g id="node9" class="node">
<title>Node9</title>
<g id="a_node9"><a xlink:href="../../d2/d51/classcocos2d_1_1_c_c_camera.html" target="_top" xlink:title="A CCCamera is used in every CCNode.">
<polygon fill="white" stroke="#666666" points="404,-520.79 336,-520.79 336,-501.79 404,-501.79 404,-520.79"/>
<text text-anchor="middle" x="370" y="-508.79" font-family="Helvetica,sans-Serif" font-size="10.00">CCCamera</text>
</a>
</g>
</g>
<!-- Node4&#45;&gt;Node9 -->
<g id="edge9" class="edge">
<title>Node4&#45;&gt;Node9</title>
<path fill="none" stroke="#63b8ff" d="M142.43,-283.82C149.23,-317.7 167.26,-388.06 206,-433.29 240.08,-473.08 299.06,-494.15 335.95,-503.99"/>
<polygon fill="#63b8ff" stroke="#63b8ff" points="145.83,-282.99 140.54,-273.82 138.95,-284.3 145.83,-282.99"/>
</g>
<!-- Node10 -->
<g id="node10" class="node">
<title>Node10</title>
<g id="a_node10"><a xlink:href="../../d6/d70/classcocos2d_1_1_c_c_grid_base.html" target="_top" xlink:title="Base class for other.">
<polygon fill="white" stroke="#666666" points="794,-343.79 720,-343.79 720,-324.79 794,-324.79 794,-343.79"/>
<text text-anchor="middle" x="757" y="-331.79" font-family="Helvetica,sans-Serif" font-size="10.00">CCGridBase</text>
</a>
</g>
</g>
<!-- Node4&#45;&gt;Node10 -->
<g id="edge11" class="edge">
<title>Node4&#45;&gt;Node10</title>
<path fill="none" stroke="#63b8ff" d="M179.46,-258.91C288,-245.14 583.34,-212.25 672,-249.29 709.33,-264.88 738.53,-306.04 750.32,-324.76"/>
<polygon fill="#63b8ff" stroke="#63b8ff" points="178.73,-255.47 169.26,-260.21 179.62,-262.42 178.73,-255.47"/>
</g>
<!-- Node11 -->
<g id="node11" class="node">
<title>Node11</title>
<g id="a_node11"><a xlink:href="../../d7/dfd/classcocos2d_1_1_c_c_texture2_d.html" target="_top" xlink:title="CCTexture2D class.">
<polygon fill="white" stroke="#666666" points="540,-365.79 460,-365.79 460,-346.79 540,-346.79 540,-365.79"/>
<text text-anchor="middle" x="500" y="-353.79" font-family="Helvetica,sans-Serif" font-size="10.00">CCTexture2D</text>
</a>
</g>
</g>
<!-- Node4&#45;&gt;Node11 -->
<g id="edge14" class="edge">
<title>Node4&#45;&gt;Node11</title>
<path fill="none" stroke="#63b8ff" d="M160.31,-279.91C173.09,-288.78 189.95,-299.61 206,-307.29 249.11,-327.91 261.17,-331.79 308,-341.29 359.83,-351.8 420.96,-355.04 459.84,-355.98"/>
<polygon fill="#63b8ff" stroke="#63b8ff" points="161.97,-276.79 151.78,-273.87 157.92,-282.5 161.97,-276.79"/>
</g>
<!-- Node12 -->
<g id="node12" class="node">
<title>Node12</title>
<g id="a_node12"><a xlink:href="../../db/d28/classcocos2d_1_1_c_c_g_l_program.html" target="_top" xlink:title="CCGLProgram Class that implements a glProgram.">
<polygon fill="white" stroke="#666666" points="290,-297.79 206,-297.79 206,-278.79 290,-278.79 290,-297.79"/>
<text text-anchor="middle" x="248" y="-285.79" font-family="Helvetica,sans-Serif" font-size="10.00">CCGLProgram</text>
</a>
</g>
</g>
<!-- Node4&#45;&gt;Node12 -->
<g id="edge17" class="edge">
<title>Node4&#45;&gt;Node12</title>
<path fill="none" stroke="#63b8ff" d="M179.03,-273.18C187.76,-275.12 197.01,-277.18 205.78,-279.13"/>
<polygon fill="#63b8ff" stroke="#63b8ff" points="179.61,-269.72 169.08,-270.97 178.09,-276.56 179.61,-269.72"/>
</g>
<!-- Node13 -->
<g id="node13" class="node">
<title>Node13</title>
<g id="a_node13"><a xlink:href="../../d3/d89/classcocos2d_1_1_c_c_grabber.html" target="_top" xlink:title="FBO class that grabs the the contents of the screen NA NA.">
<polygon fill="white" stroke="#666666" points="404.5,-204.79 335.5,-204.79 335.5,-185.79 404.5,-185.79 404.5,-204.79"/>
<text text-anchor="middle" x="370" y="-192.79" font-family="Helvetica,sans-Serif" font-size="10.00">CCGrabber</text>
</a>
</g>
</g>
<!-- Node4&#45;&gt;Node13 -->
<g id="edge20" class="edge">
<title>Node4&#45;&gt;Node13</title>
<path fill="none" stroke="#63b8ff" d="M152.75,-246.86C161.47,-237.09 173.61,-225.62 187,-219.29 234.96,-196.58 297.52,-193.26 335.41,-193.71"/>
<polygon fill="#63b8ff" stroke="#63b8ff" points="150.05,-244.62 146.27,-254.52 155.4,-249.14 150.05,-244.62"/>
</g>
<!-- Node14 -->
<g id="node14" class="node">
<title>Node14</title>
<g id="a_node14"><a xlink:href="../../d9/d2e/classcocos2d_1_1_c_c_array.html" target="_top" xlink:title="NA.">
<polygon fill="white" stroke="#666666" points="276,-162.79 220,-162.79 220,-143.79 276,-143.79 276,-162.79"/>
<text text-anchor="middle" x="248" y="-150.79" font-family="Helvetica,sans-Serif" font-size="10.00">CCArray</text>
</a>
</g>
</g>
<!-- Node4&#45;&gt;Node14 -->
<g id="edge23" class="edge">
<title>Node4&#45;&gt;Node14</title>
<path fill="none" stroke="#63b8ff" d="M146.08,-245.17C153.74,-226.76 167.52,-199.13 187,-181.29 196.32,-172.75 208.71,-166.38 219.81,-161.89"/>
<polygon fill="#63b8ff" stroke="#63b8ff" points="142.79,-243.99 142.38,-254.57 149.3,-246.56 142.79,-243.99"/>
</g>
<!-- Node15 -->
<g id="node15" class="node">
<title>Node15</title>
<g id="a_node15"><a xlink:href="../../de/dee/classcocos2d_1_1_c_c_scheduler.html" target="_top" xlink:title="Scheduler is responsible for triggering the scheduled callbacks.">
<polygon fill="white" stroke="#666666" points="539,-118.79 461,-118.79 461,-99.79 539,-99.79 539,-118.79"/>
<text text-anchor="middle" x="500" y="-106.79" font-family="Helvetica,sans-Serif" font-size="10.00">CCScheduler</text>
</a>
</g>
</g>
<!-- Node4&#45;&gt;Node15 -->
<g id="edge28" class="edge">
<title>Node4&#45;&gt;Node15</title>
<path fill="none" stroke="#63b8ff" d="M143.63,-244.71C151.44,-216.03 170.05,-162.9 206,-134.29 279.9,-75.47 400,-88.61 460.94,-100.42"/>
<polygon fill="#63b8ff" stroke="#63b8ff" points="140.15,-244.17 141.07,-254.72 146.93,-245.9 140.15,-244.17"/>
</g>
<!-- Node16 -->
<g id="node16" class="node">
<title>Node16</title>
<g id="a_node16"><a xlink:href="../../d5/dcb/classcocos2d_1_1_c_c_action_manager.html" target="_top" xlink:title="CCActionManager is a singleton that manages all the actions.">
<polygon fill="white" stroke="#666666" points="672,-70.79 568,-70.79 568,-51.79 672,-51.79 672,-70.79"/>
<text text-anchor="middle" x="620" y="-58.79" font-family="Helvetica,sans-Serif" font-size="10.00">CCActionManager</text>
</a>
</g>
</g>
<!-- Node4&#45;&gt;Node16 -->
<g id="edge31" class="edge">
<title>Node4&#45;&gt;Node16</title>
<path fill="none" stroke="#63b8ff" d="M140.33,-244.12C143.94,-207.47 157.24,-130.41 206,-94.29 318.56,-10.9 498.88,-35.29 578.72,-51.73"/>
<polygon fill="#63b8ff" stroke="#63b8ff" points="136.81,-244.24 139.47,-254.49 143.79,-244.82 136.81,-244.24"/>
</g>
<!-- Node5 -->
<g id="node5" class="node">
<title>Node5</title>
<g id="a_node5"><a xlink:href="../../d5/d61/classcocos2d_1_1_c_c_copying.html" target="_top" xlink:title="NA NA.">
<polygon fill="white" stroke="#666666" points="70,-273.79 0,-273.79 0,-254.79 70,-254.79 70,-273.79"/>
<text text-anchor="middle" x="35" y="-261.79" font-family="Helvetica,sans-Serif" font-size="10.00">CCCopying</text>
</a>
</g>
</g>
<!-- Node5&#45;&gt;Node4 -->
<g id="edge4" class="edge">
<title>Node5&#45;&gt;Node4</title>
<path fill="none" stroke="#63b8ff" d="M80.2,-264.29C89.22,-264.29 98.51,-264.29 106.9,-264.29"/>
<polygon fill="#63b8ff" stroke="#63b8ff" points="80.19,-260.79 70.19,-264.29 80.19,-267.79 80.19,-260.79"/>
</g>
<!-- Node6 -->
<g id="node6" class="node">
<title>Node6</title>
<g id="a_node6"><a xlink:href="../../d2/df3/classcocos2d_1_1_c_c_point.html" target="_top" xlink:title="NA.">
<polygon fill="white" stroke="#666666" points="527.5,-450.79 472.5,-450.79 472.5,-431.79 527.5,-431.79 527.5,-450.79"/>
<text text-anchor="middle" x="500" y="-438.79" font-family="Helvetica,sans-Serif" font-size="10.00">CCPoint</text>
</a>
</g>
</g>
<!-- Node6&#45;&gt;Node3 -->
<g id="edge5" class="edge">
<title>Node6&#45;&gt;Node3</title>
<path fill="none" stroke="#9a32cd" stroke-dasharray="5,2" d="M537.94,-447.09C575.03,-450.89 632.22,-451.01 672,-424.29 686.19,-414.75 675.7,-399.65 690,-390.29 704.32,-380.91 949.81,-367.81 1032.82,-363.63"/>
<polygon fill="#9a32cd" stroke="#9a32cd" points="537.92,-443.56 527.58,-445.88 537.11,-450.52 537.92,-443.56"/>
<text text-anchor="middle" x="757" y="-415.29" font-family="Helvetica,sans-Serif" font-size="10.00"> m_obAnchorPoint</text>
<text text-anchor="middle" x="757" y="-404.29" font-family="Helvetica,sans-Serif" font-size="10.00">m_obAnchorPointInPoints</text>
<text text-anchor="middle" x="757" y="-393.29" font-family="Helvetica,sans-Serif" font-size="10.00">m_obPosition</text>
</g>
<!-- Node6&#45;&gt;Node10 -->
<g id="edge18" class="edge">
<title>Node6&#45;&gt;Node10</title>
<path fill="none" stroke="#9a32cd" stroke-dasharray="5,2" d="M530.36,-427.68C541.92,-422.68 555.42,-417.27 568,-413.29 613.13,-398.99 633.97,-418.48 672,-390.29 685.11,-380.57 677.56,-368.84 690,-358.29 698.55,-351.03 709.48,-345.89 719.98,-342.28"/>
<polygon fill="#9a32cd" stroke="#9a32cd" points="528.9,-424.5 521.17,-431.75 531.73,-430.9 528.9,-424.5"/>
<text text-anchor="middle" x="620" y="-416.29" font-family="Helvetica,sans-Serif" font-size="10.00"> m_obStep</text>
</g>
<!-- Node7 -->
<g id="node7" class="node">
<title>Node7</title>
<g id="a_node7"><a xlink:href="../../d9/d24/classcocos2d_1_1_c_c_size.html" target="_top" xlink:title="NA.">
<polygon fill="white" stroke="#666666" points="273,-423.79 223,-423.79 223,-404.79 273,-404.79 273,-423.79"/>
<text text-anchor="middle" x="248" y="-411.79" font-family="Helvetica,sans-Serif" font-size="10.00">CCSize</text>
</a>
</g>
</g>
<!-- Node7&#45;&gt;Node3 -->
<g id="edge6" class="edge">
<title>Node7&#45;&gt;Node3</title>
<path fill="none" stroke="#9a32cd" stroke-dasharray="5,2" d="M282.82,-424.46C322.45,-435.81 390.29,-453.46 450,-460.29 564.81,-473.4 864.32,-508.03 970,-461.29 1012.27,-442.59 1043.21,-393.14 1054.89,-372.04"/>
<polygon fill="#9a32cd" stroke="#9a32cd" points="283.72,-421.07 273.14,-421.65 281.77,-427.8 283.72,-421.07"/>
<text text-anchor="middle" x="620" y="-483.29" font-family="Helvetica,sans-Serif" font-size="10.00"> m_obContentSize</text>
</g>
<!-- Node7&#45;&gt;Node10 -->
<g id="edge12" class="edge">
<title>Node7&#45;&gt;Node10</title>
<path fill="none" stroke="#9a32cd" stroke-dasharray="5,2" d="M283.68,-413.4C356.64,-410.85 530.94,-401.18 672,-365.29 693.54,-359.8 717.23,-350.77 733.94,-343.87"/>
<polygon fill="#9a32cd" stroke="#9a32cd" points="283.14,-409.91 273.26,-413.74 283.37,-416.91 283.14,-409.91"/>
<text text-anchor="middle" x="500" y="-404.29" font-family="Helvetica,sans-Serif" font-size="10.00"> m_sGridSize</text>
</g>
<!-- Node7&#45;&gt;Node11 -->
<g id="edge15" class="edge">
<title>Node7&#45;&gt;Node11</title>
<path fill="none" stroke="#9a32cd" stroke-dasharray="5,2" d="M277.85,-400.5C287.29,-396.41 297.94,-392.24 308,-389.29 322.29,-385.09 408.12,-370.92 459.74,-362.57"/>
<polygon fill="#9a32cd" stroke="#9a32cd" points="276.22,-397.39 268.52,-404.68 279.08,-403.78 276.22,-397.39"/>
<text text-anchor="middle" x="370" y="-392.29" font-family="Helvetica,sans-Serif" font-size="10.00"> m_tContentSize</text>
</g>
<!-- Node8 -->
<g id="node8" class="node">
<title>Node8</title>
<g id="a_node8"><a xlink:href="../../da/dbf/structcocos2d_1_1_c_c_affine_transform.html" target="_top" xlink:title=" ">
<polygon fill="white" stroke="#666666" points="810.5,-450.79 703.5,-450.79 703.5,-431.79 810.5,-431.79 810.5,-450.79"/>
<text text-anchor="middle" x="757" y="-438.79" font-family="Helvetica,sans-Serif" font-size="10.00">CCAffineTransform</text>
</a>
</g>
</g>
<!-- Node8&#45;&gt;Node3 -->
<g id="edge7" class="edge">
<title>Node8&#45;&gt;Node3</title>
<path fill="none" stroke="#9a32cd" stroke-dasharray="5,2" d="M819.36,-429.77C861.96,-421.27 919.85,-408.7 970,-394.29 992.63,-387.78 1017.85,-378.65 1035.82,-371.8"/>
<polygon fill="#9a32cd" stroke="#9a32cd" points="818.55,-426.36 809.42,-431.74 819.91,-433.23 818.55,-426.36"/>
<text text-anchor="middle" x="906" y="-449.29" font-family="Helvetica,sans-Serif" font-size="10.00"> m_sAdditionalTransform</text>
<text text-anchor="middle" x="906" y="-438.29" font-family="Helvetica,sans-Serif" font-size="10.00">m_sInverse</text>
<text text-anchor="middle" x="906" y="-427.29" font-family="Helvetica,sans-Serif" font-size="10.00">m_sTransform</text>
</g>
<!-- Node9&#45;&gt;Node3 -->
<g id="edge8" class="edge">
<title>Node9&#45;&gt;Node3</title>
<path fill="none" stroke="#9a32cd" stroke-dasharray="5,2" d="M414.24,-514.93C535.21,-524.37 874.49,-545.4 970,-493.29 1020.14,-465.93 1048.04,-397.16 1056.88,-371.84"/>
<polygon fill="#9a32cd" stroke="#9a32cd" points="414.47,-511.44 404.23,-514.14 413.92,-518.42 414.47,-511.44"/>
<text text-anchor="middle" x="620" y="-529.29" font-family="Helvetica,sans-Serif" font-size="10.00"> m_pCamera</text>
</g>
<!-- Node10&#45;&gt;Node3 -->
<g id="edge10" class="edge">
<title>Node10&#45;&gt;Node3</title>
<path fill="none" stroke="#9a32cd" stroke-dasharray="5,2" d="M804.31,-338.58C868.1,-344.49 981,-354.96 1032.73,-359.76"/>
<polygon fill="#9a32cd" stroke="#9a32cd" points="804.41,-335.07 794.13,-337.64 803.76,-342.04 804.41,-335.07"/>
<text text-anchor="middle" x="906" y="-355.29" font-family="Helvetica,sans-Serif" font-size="10.00"> m_pGrid</text>
</g>
<!-- Node11&#45;&gt;Node10 -->
<g id="edge13" class="edge">
<title>Node11&#45;&gt;Node10</title>
<path fill="none" stroke="#9a32cd" stroke-dasharray="5,2" d="M550.2,-352.04C599.89,-347.75 675.47,-341.23 719.89,-337.4"/>
<polygon fill="#9a32cd" stroke="#9a32cd" points="549.67,-348.57 540.01,-352.92 550.27,-355.55 549.67,-348.57"/>
<text text-anchor="middle" x="620" y="-353.29" font-family="Helvetica,sans-Serif" font-size="10.00"> m_pTexture</text>
</g>
<!-- Node12&#45;&gt;Node3 -->
<g id="edge26" class="edge">
<title>Node12&#45;&gt;Node3</title>
<path fill="none" stroke="#9a32cd" stroke-dasharray="5,2" d="M300.51,-287.9C337.19,-287.79 387.63,-287.96 432,-289.29 671.99,-296.44 736.54,-282.23 970,-338.29 978.2,-340.26 979.9,-341.93 988,-344.29 1002.72,-348.57 1019.31,-352.76 1032.86,-356.02"/>
<polygon fill="#9a32cd" stroke="#9a32cd" points="300.06,-284.4 290.07,-287.94 300.09,-291.4 300.06,-284.4"/>
<text text-anchor="middle" x="620" y="-296.29" font-family="Helvetica,sans-Serif" font-size="10.00"> m_pShaderProgram</text>
</g>
<!-- Node12&#45;&gt;Node10 -->
<g id="edge21" class="edge">
<title>Node12&#45;&gt;Node10</title>
<path fill="none" stroke="#9a32cd" stroke-dasharray="5,2" d="M300.17,-292.93C402.68,-302.23 630.99,-322.94 719.74,-331"/>
<polygon fill="#9a32cd" stroke="#9a32cd" points="300.34,-289.43 290.06,-292.01 299.7,-296.4 300.34,-289.43"/>
<text text-anchor="middle" x="500" y="-317.29" font-family="Helvetica,sans-Serif" font-size="10.00"> m_pShaderProgram</text>
</g>
<!-- Node12&#45;&gt;Node11 -->
<g id="edge16" class="edge">
<title>Node12&#45;&gt;Node11</title>
<path fill="none" stroke="#9a32cd" stroke-dasharray="5,2" d="M285.79,-300.93C293.1,-303.22 300.76,-305.46 308,-307.29 362.34,-321.02 378.08,-314.97 432,-330.29 447.48,-334.68 464.37,-341.25 477.32,-346.69"/>
<polygon fill="#9a32cd" stroke="#9a32cd" points="286.7,-297.55 276.11,-297.82 284.55,-304.21 286.7,-297.55"/>
<text text-anchor="middle" x="370" y="-333.29" font-family="Helvetica,sans-Serif" font-size="10.00"> m_pShaderProgram</text>
</g>
<!-- Node13&#45;&gt;Node10 -->
<g id="edge19" class="edge">
<title>Node13&#45;&gt;Node10</title>
<path fill="none" stroke="#9a32cd" stroke-dasharray="5,2" d="M414.98,-187.84C476.75,-179.69 590.7,-173.28 672,-219.29 715.68,-244 742.91,-301.83 752.31,-324.72"/>
<polygon fill="#9a32cd" stroke="#9a32cd" points="414.23,-184.41 404.81,-189.26 415.19,-191.35 414.23,-184.41"/>
<text text-anchor="middle" x="500" y="-188.29" font-family="Helvetica,sans-Serif" font-size="10.00"> m_pGrabber</text>
</g>
<!-- Node14&#45;&gt;Node3 -->
<g id="edge22" class="edge">
<title>Node14&#45;&gt;Node3</title>
<path fill="none" stroke="#9a32cd" stroke-dasharray="5,2" d="M286.51,-150.28C361.13,-145.31 533,-138.99 672,-172.29 813.4,-206.16 865.79,-205.89 970,-307.29 983.11,-320.04 973.8,-332.77 988,-344.29 1000.61,-354.51 1018.25,-359.03 1032.91,-360.99"/>
<polygon fill="#9a32cd" stroke="#9a32cd" points="285.95,-146.81 276.22,-151 286.44,-153.79 285.95,-146.81"/>
<text text-anchor="middle" x="620" y="-175.29" font-family="Helvetica,sans-Serif" font-size="10.00"> m_pChildren</text>
</g>
<!-- Node14&#45;&gt;Node15 -->
<g id="edge29" class="edge">
<title>Node14&#45;&gt;Node15</title>
<path fill="none" stroke="#9a32cd" stroke-dasharray="5,2" d="M276.76,-139.49C286.43,-135.24 297.49,-130.97 308,-128.29 359.82,-115.06 421.74,-110.95 460.73,-109.72"/>
<polygon fill="#9a32cd" stroke="#9a32cd" points="275.25,-136.33 267.63,-143.68 278.17,-142.69 275.25,-136.33"/>
<text text-anchor="middle" x="370" y="-131.29" font-family="Helvetica,sans-Serif" font-size="10.00"> m_pScriptHandlerEntries</text>
</g>
<!-- Node15&#45;&gt;Node3 -->
<g id="edge27" class="edge">
<title>Node15&#45;&gt;Node3</title>
<path fill="none" stroke="#9a32cd" stroke-dasharray="5,2" d="M549.27,-104.2C656.94,-94.03 911.88,-76.76 970,-134.29 1003.29,-167.23 957.62,-308.63 988,-344.29 998.86,-357.04 1017.26,-361.48 1032.74,-362.76"/>
<polygon fill="#9a32cd" stroke="#9a32cd" points="548.63,-100.75 539.01,-105.19 549.3,-107.72 548.63,-100.75"/>
<text text-anchor="middle" x="757" y="-99.29" font-family="Helvetica,sans-Serif" font-size="10.00"> m_pScheduler</text>
</g>
<!-- Node16&#45;&gt;Node3 -->
<g id="edge30" class="edge">
<title>Node16&#45;&gt;Node3</title>
<path fill="none" stroke="#9a32cd" stroke-dasharray="5,2" d="M682.11,-58.07C771.64,-54.82 931.97,-55.01 970,-95.29 1008.09,-135.62 952.3,-301.82 988,-344.29 998.78,-357.11 1017.18,-361.55 1032.68,-362.82"/>
<polygon fill="#9a32cd" stroke="#9a32cd" points="681.94,-54.57 672.09,-58.46 682.21,-61.57 681.94,-54.57"/>
<text text-anchor="middle" x="757" y="-62.29" font-family="Helvetica,sans-Serif" font-size="10.00"> m_pActionManager</text>
</g>
<!-- Node17 -->
<g id="node17" class="node">
<title>Node17</title>
<g id="a_node17"><a xlink:href="../../d1/d65/classcocos2d_1_1_c_c_component_container.html" target="_top" xlink:title="NA NA.">
<polygon fill="white" stroke="#666666" points="824,-25.79 690,-25.79 690,-6.79 824,-6.79 824,-25.79"/>
<text text-anchor="middle" x="757" y="-13.79" font-family="Helvetica,sans-Serif" font-size="10.00">CCComponentContainer</text>
</a>
</g>
</g>
<!-- Node17&#45;&gt;Node3 -->
<g id="edge32" class="edge">
<title>Node17&#45;&gt;Node3</title>
<path fill="none" stroke="#9a32cd" stroke-dasharray="5,2" d="M807.26,-5.01C855.92,2.91 928.86,5.54 970,-37.29 1017.34,-86.57 944.38,-291.68 988,-344.29 998.77,-357.28 1017.37,-361.69 1032.97,-362.9"/>
<polygon fill="#9a32cd" stroke="#9a32cd" points="806.51,-1.59 797.26,-6.77 807.72,-8.48 806.51,-1.59"/>
<text text-anchor="middle" x="906" y="-40.29" font-family="Helvetica,sans-Serif" font-size="10.00"> m_pComponentContainer</text>
</g>
<!-- Node18 -->
<g id="node18" class="node">
<title>Node18</title>
<g id="a_node18"><a xlink:href="../../d0/d38/classcocos2d_1_1_c_c_touch_delegate.html" target="_top" xlink:title=" ">
<polygon fill="white" stroke="#666666" points="1112,-334.79 1010,-334.79 1010,-315.79 1112,-315.79 1112,-334.79"/>
<text text-anchor="middle" x="1061" y="-322.79" font-family="Helvetica,sans-Serif" font-size="10.00">CCTouchDelegate</text>
</a>
</g>
</g>
<!-- Node18&#45;&gt;Node2 -->
<g id="edge33" class="edge">
<title>Node18&#45;&gt;Node2</title>
<path fill="none" stroke="#63b8ff" d="M1112.17,-313.46C1138.29,-307.31 1169.23,-300.02 1191.08,-294.87"/>
<polygon fill="#63b8ff" stroke="#63b8ff" points="1111.36,-310.06 1102.43,-315.76 1112.97,-316.87 1111.36,-310.06"/>
</g>
<!-- Node19 -->
<g id="node19" class="node">
<title>Node19</title>
<g id="a_node19"><a xlink:href="../../da/d55/classcocos2d_1_1_c_c_accelerometer_delegate.html" target="_top" xlink:title="The CCAccelerometerDelegate defines a single method for receiving acceleration&#45;related data from the ...">
<polygon fill="white" stroke="#666666" points="1134,-297.79 988,-297.79 988,-278.79 1134,-278.79 1134,-297.79"/>
<text text-anchor="middle" x="1061" y="-285.79" font-family="Helvetica,sans-Serif" font-size="10.00">CCAccelerometerDelegate</text>
</a>
</g>
</g>
<!-- Node19&#45;&gt;Node2 -->
<g id="edge34" class="edge">
<title>Node19&#45;&gt;Node2</title>
<path fill="none" stroke="#63b8ff" d="M1144.09,-288.29C1161.1,-288.29 1177.89,-288.29 1191.25,-288.29"/>
<polygon fill="#63b8ff" stroke="#63b8ff" points="1144.07,-284.79 1134.07,-288.29 1144.07,-291.79 1144.07,-284.79"/>
</g>
<!-- Node20 -->
<g id="node20" class="node">
<title>Node20</title>
<g id="a_node20"><a xlink:href="../../d2/d2d/classcocos2d_1_1_c_c_keypad_delegate.html" target="_top" xlink:title=" ">
<polygon fill="white" stroke="#666666" points="1116,-260.79 1006,-260.79 1006,-241.79 1116,-241.79 1116,-260.79"/>
<text text-anchor="middle" x="1061" y="-248.79" font-family="Helvetica,sans-Serif" font-size="10.00">CCKeypadDelegate</text>
</a>
</g>
</g>
<!-- Node20&#45;&gt;Node2 -->
<g id="edge35" class="edge">
<title>Node20&#45;&gt;Node2</title>
<path fill="none" stroke="#63b8ff" d="M1112.17,-263.11C1138.29,-269.27 1169.23,-276.56 1191.08,-281.71"/>
<polygon fill="#63b8ff" stroke="#63b8ff" points="1112.97,-259.7 1102.43,-260.81 1111.36,-266.52 1112.97,-259.7"/>
</g>
<!-- Node21 -->
<g id="node21" class="node">
<title>Node21</title>
<g id="a_node21"><a xlink:href="../../d2/d91/classcocos2d_1_1_c_c_keyboard_delegate.html" target="_top" xlink:title=" ">
<polygon fill="white" stroke="#666666" points="1121,-223.79 1001,-223.79 1001,-204.79 1121,-204.79 1121,-223.79"/>
<text text-anchor="middle" x="1061" y="-211.79" font-family="Helvetica,sans-Serif" font-size="10.00">CCKeyboardDelegate</text>
</a>
</g>
</g>
<!-- Node21&#45;&gt;Node2 -->
<g id="edge36" class="edge">
<title>Node21&#45;&gt;Node2</title>
<path fill="none" stroke="#63b8ff" d="M1124.41,-227.51C1127.73,-228.95 1130.95,-230.53 1134,-232.29 1154.43,-244.04 1151.27,-257.39 1171,-270.29 1177.18,-274.33 1184.4,-277.64 1191.34,-280.27"/>
<polygon fill="#63b8ff" stroke="#63b8ff" points="1125.44,-224.16 1114.85,-223.87 1122.95,-230.7 1125.44,-224.16"/>
</g>
<!-- Node22 -->
<g id="node22" class="node">
<title>Node22</title>
<g id="a_node22"><a xlink:href="../../d8/dda/classcocos2d_1_1_c_c_r_g_b_a_protocol.html" target="_top" xlink:title="RGBA protocol that affects CCNode&#39;s color and opacity NA.">
<polygon fill="white" stroke="#666666" points="1269,-260.79 1171,-260.79 1171,-241.79 1269,-241.79 1269,-260.79"/>
<text text-anchor="middle" x="1220" y="-248.79" font-family="Helvetica,sans-Serif" font-size="10.00">CCRGBAProtocol</text>
</a>
</g>
</g>
<!-- Node22&#45;&gt;Node1 -->
<g id="edge37" class="edge">
<title>Node22&#45;&gt;Node1</title>
<path fill="none" stroke="#63b8ff" d="M1279.47,-251.29C1313.7,-251.29 1356.13,-251.29 1386.95,-251.29"/>
<polygon fill="#63b8ff" stroke="#63b8ff" points="1279.13,-247.79 1269.13,-251.29 1279.13,-254.79 1279.13,-247.79"/>
</g>
<!-- Node23 -->
<g id="node23" class="node">
<title>Node23</title>
<g id="a_node23"><a xlink:href="../../d7/d39/structcc_color3_b.html" target="_top" xlink:title="RGB color composed of bytes 3 bytes.">
<polygon fill="white" stroke="#666666" points="1252.5,-223.79 1187.5,-223.79 1187.5,-204.79 1252.5,-204.79 1252.5,-223.79"/>
<text text-anchor="middle" x="1220" y="-211.79" font-family="Helvetica,sans-Serif" font-size="10.00">ccColor3B</text>
</a>
</g>
</g>
<!-- Node23&#45;&gt;Node1 -->
<g id="edge38" class="edge">
<title>Node23&#45;&gt;Node1</title>
<path fill="none" stroke="#9a32cd" stroke-dasharray="5,2" d="M1262.78,-213.66C1292.75,-214.11 1333.88,-216.58 1369,-225.29 1383.66,-228.92 1399.28,-235.88 1410.83,-241.68"/>
<polygon fill="#9a32cd" stroke="#9a32cd" points="1262.69,-210.16 1252.67,-213.58 1262.64,-217.16 1262.69,-210.16"/>
<text text-anchor="middle" x="1328" y="-239.29" font-family="Helvetica,sans-Serif" font-size="10.00"> _displayedColor</text>
<text text-anchor="middle" x="1328" y="-228.29" font-family="Helvetica,sans-Serif" font-size="10.00">_realColor</text>
</g>
</g>
</svg>
