<?xml version="1.0" encoding="UTF-8" standalone="no"?>
<!DOCTYPE svg PUBLIC "-//W3C//DTD SVG 1.1//EN"
 "http://www.w3.org/Graphics/SVG/1.1/DTD/svg11.dtd">
<!-- Generated by graphviz version 2.43.0 (0)
 -->
<!-- Title: CCNotificationObserver Pages: 1 -->
<svg width="139pt" height="174pt"
 viewBox="0.00 0.00 139.00 174.00" xmlns="http://www.w3.org/2000/svg" xmlns:xlink="http://www.w3.org/1999/xlink">
<g id="graph0" class="graph" transform="scale(1 1) rotate(0) translate(4 170)">
<title>CCNotificationObserver</title>
<!-- Node1 -->
<g id="node1" class="node">
<title>Node1</title>
<g id="a_node1"><a xlink:title="NA NA.">
<polygon fill="#bfbfbf" stroke="black" points="0,-0.5 0,-19.5 131,-19.5 131,-0.5 0,-0.5"/>
<text text-anchor="middle" x="65.5" y="-7.5" font-family="Helvetica,sans-Serif" font-size="10.00">CCNotificationObserver</text>
</a>
</g>
</g>
<!-- Node2 -->
<g id="node2" class="node">
<title>Node2</title>
<g id="a_node2"><a xlink:href="../../d3/dbf/classcocos2d_1_1_c_c_object.html" target="_top" xlink:title="NA.">
<polygon fill="none" stroke="black" points="34.5,-89.5 34.5,-108.5 96.5,-108.5 96.5,-89.5 34.5,-89.5"/>
<text text-anchor="middle" x="65.5" y="-96.5" font-family="Helvetica,sans-Serif" font-size="10.00">CCObject</text>
</a>
</g>
</g>
<!-- Node2&#45;&gt;Node1 -->
<g id="edge1" class="edge">
<title>Node2&#45;&gt;Node1</title>
<path fill="none" stroke="midnightblue" d="M63.94,-79.38C63.76,-76.58 63.6,-73.71 63.5,-71 62.96,-56.34 62.96,-52.66 63.5,-38 63.73,-31.8 64.25,-24.82 64.71,-19.5"/>
<polygon fill="midnightblue" stroke="midnightblue" points="60.46,-79.79 64.71,-89.5 67.44,-79.26 60.46,-79.79"/>
</g>
<!-- Node2&#45;&gt;Node1 -->
<g id="edge3" class="edge">
<title>Node2&#45;&gt;Node1</title>
<path fill="none" stroke="#9a32cd" stroke-dasharray="5,2" d="M65.5,-79.19C65.5,-60.74 65.5,-33.41 65.5,-19.62"/>
<polygon fill="#9a32cd" stroke="#9a32cd" points="62,-79.34 65.5,-89.34 69,-79.34 62,-79.34"/>
<text text-anchor="middle" x="93" y="-63" font-family="Helvetica,sans-Serif" font-size="10.00"> m_object</text>
<text text-anchor="middle" x="93" y="-52" font-family="Helvetica,sans-Serif" font-size="10.00">m_selector</text>
<text text-anchor="middle" x="93" y="-41" font-family="Helvetica,sans-Serif" font-size="10.00">m_target</text>
</g>
<!-- Node3 -->
<g id="node3" class="node">
<title>Node3</title>
<g id="a_node3"><a xlink:href="../../d5/d61/classcocos2d_1_1_c_c_copying.html" target="_top" xlink:title="NA NA.">
<polygon fill="none" stroke="black" points="30.5,-146.5 30.5,-165.5 100.5,-165.5 100.5,-146.5 30.5,-146.5"/>
<text text-anchor="middle" x="65.5" y="-153.5" font-family="Helvetica,sans-Serif" font-size="10.00">CCCopying</text>
</a>
</g>
</g>
<!-- Node3&#45;&gt;Node2 -->
<g id="edge2" class="edge">
<title>Node3&#45;&gt;Node2</title>
<path fill="none" stroke="midnightblue" d="M65.5,-136.12C65.5,-126.82 65.5,-116.06 65.5,-108.71"/>
<polygon fill="midnightblue" stroke="midnightblue" points="62,-136.41 65.5,-146.41 69,-136.41 62,-136.41"/>
</g>
</g>
</svg>
