<?xml version="1.0" encoding="UTF-8" standalone="no"?>
<!DOCTYPE svg PUBLIC "-//W3C//DTD SVG 1.1//EN"
 "http://www.w3.org/Graphics/SVG/1.1/DTD/svg11.dtd">
<!-- Generated by graphviz version 2.43.0 (0)
 -->
<!-- Title: /home/runner/work/cocos&#45;headers/cocos&#45;headers/cocos2dx/cocoa/CCString.h Pages: 1 -->
<svg width="506pt" height="386pt"
 viewBox="0.00 0.00 505.50 386.00" xmlns="http://www.w3.org/2000/svg" xmlns:xlink="http://www.w3.org/1999/xlink">
<g id="graph0" class="graph" transform="scale(1 1) rotate(0) translate(4 382)">
<title>/home/runner/work/cocos&#45;headers/cocos&#45;headers/cocos2dx/cocoa/CCString.h</title>
<!-- Node1 -->
<g id="node1" class="node">
<title>Node1</title>
<g id="a_node1"><a xlink:title=" ">
<polygon fill="#bfbfbf" stroke="black" points="80,-336.5 80,-377.5 231,-377.5 231,-336.5 80,-336.5"/>
<text text-anchor="start" x="88" y="-365.5" font-family="Helvetica,sans-Serif" font-size="10.00">/home/runner/work/cocos</text>
<text text-anchor="start" x="88" y="-354.5" font-family="Helvetica,sans-Serif" font-size="10.00">&#45;headers/cocos&#45;headers</text>
<text text-anchor="middle" x="155.5" y="-343.5" font-family="Helvetica,sans-Serif" font-size="10.00">/cocos2dx/cocoa/CCString.h</text>
</a>
</g>
</g>
<!-- Node2 -->
<g id="node2" class="node">
<title>Node2</title>
<g id="a_node2"><a xlink:title=" ">
<polygon fill="none" stroke="#bfbfbf" points="0,-280.5 0,-299.5 53,-299.5 53,-280.5 0,-280.5"/>
<text text-anchor="middle" x="26.5" y="-287.5" font-family="Helvetica,sans-Serif" font-size="10.00">string.h</text>
</a>
</g>
</g>
<!-- Node1&#45;&gt;Node2 -->
<g id="edge1" class="edge">
<title>Node1&#45;&gt;Node2</title>
<path fill="none" stroke="midnightblue" d="M116.8,-336.5C96.07,-326.05 71.08,-313.46 52.65,-304.18"/>
<polygon fill="midnightblue" stroke="midnightblue" points="54.18,-301.03 43.67,-299.65 51.03,-307.28 54.18,-301.03"/>
</g>
<!-- Node3 -->
<g id="node3" class="node">
<title>Node3</title>
<g id="a_node3"><a xlink:title=" ">
<polygon fill="none" stroke="#bfbfbf" points="71.5,-280.5 71.5,-299.5 127.5,-299.5 127.5,-280.5 71.5,-280.5"/>
<text text-anchor="middle" x="99.5" y="-287.5" font-family="Helvetica,sans-Serif" font-size="10.00">stdarg.h</text>
</a>
</g>
</g>
<!-- Node1&#45;&gt;Node3 -->
<g id="edge2" class="edge">
<title>Node1&#45;&gt;Node3</title>
<path fill="none" stroke="midnightblue" d="M138.7,-336.5C130.69,-327.2 121.22,-316.21 113.59,-307.36"/>
<polygon fill="midnightblue" stroke="midnightblue" points="116.13,-304.94 106.95,-299.65 110.83,-309.51 116.13,-304.94"/>
</g>
<!-- Node4 -->
<g id="node4" class="node">
<title>Node4</title>
<g id="a_node4"><a xlink:title=" ">
<polygon fill="none" stroke="#bfbfbf" points="145.5,-168.5 145.5,-187.5 189.5,-187.5 189.5,-168.5 145.5,-168.5"/>
<text text-anchor="middle" x="167.5" y="-175.5" font-family="Helvetica,sans-Serif" font-size="10.00">string</text>
</a>
</g>
</g>
<!-- Node1&#45;&gt;Node4 -->
<g id="edge3" class="edge">
<title>Node1&#45;&gt;Node4</title>
<path fill="none" stroke="midnightblue" d="M156.83,-336.38C159.16,-302.08 163.93,-231.66 166.22,-197.88"/>
<polygon fill="midnightblue" stroke="midnightblue" points="169.73,-197.8 166.92,-187.58 162.75,-197.32 169.73,-197.8"/>
</g>
<!-- Node5 -->
<g id="node5" class="node">
<title>Node5</title>
<g id="a_node5"><a xlink:title=" ">
<polygon fill="none" stroke="#bfbfbf" points="184,-280.5 184,-299.5 249,-299.5 249,-280.5 184,-280.5"/>
<text text-anchor="middle" x="216.5" y="-287.5" font-family="Helvetica,sans-Serif" font-size="10.00">functional</text>
</a>
</g>
</g>
<!-- Node1&#45;&gt;Node5 -->
<g id="edge4" class="edge">
<title>Node1&#45;&gt;Node5</title>
<path fill="none" stroke="midnightblue" d="M173.8,-336.5C182.61,-327.11 193.05,-315.98 201.41,-307.08"/>
<polygon fill="midnightblue" stroke="midnightblue" points="204.09,-309.34 208.38,-299.65 198.98,-304.55 204.09,-309.34"/>
</g>
<!-- Node6 -->
<g id="node6" class="node">
<title>Node6</title>
<g id="a_node6"><a xlink:href="../../dd/d69/_c_c_object_8h.html" target="_top" xlink:title=" ">
<polygon fill="none" stroke="black" points="267,-280.5 267,-299.5 338,-299.5 338,-280.5 267,-280.5"/>
<text text-anchor="middle" x="302.5" y="-287.5" font-family="Helvetica,sans-Serif" font-size="10.00">CCObject.h</text>
</a>
</g>
</g>
<!-- Node1&#45;&gt;Node6 -->
<g id="edge5" class="edge">
<title>Node1&#45;&gt;Node6</title>
<path fill="none" stroke="midnightblue" d="M199.6,-336.5C223.55,-325.91 252.48,-313.12 273.56,-303.8"/>
<polygon fill="midnightblue" stroke="midnightblue" points="275.2,-306.9 282.93,-299.65 272.37,-300.5 275.2,-306.9"/>
</g>
<!-- Node7 -->
<g id="node7" class="node">
<title>Node7</title>
<g id="a_node7"><a xlink:href="../../d9/d2d/_c_c_data_visitor_8h.html" target="_top" xlink:title=" ">
<polygon fill="none" stroke="black" points="184,-224.5 184,-243.5 277,-243.5 277,-224.5 184,-224.5"/>
<text text-anchor="middle" x="230.5" y="-231.5" font-family="Helvetica,sans-Serif" font-size="10.00">CCDataVisitor.h</text>
</a>
</g>
</g>
<!-- Node6&#45;&gt;Node7 -->
<g id="edge6" class="edge">
<title>Node6&#45;&gt;Node7</title>
<path fill="none" stroke="midnightblue" d="M290.93,-280.32C280.08,-272.18 263.62,-259.84 250.62,-250.09"/>
<polygon fill="midnightblue" stroke="midnightblue" points="252.38,-247.03 242.28,-243.83 248.18,-252.63 252.38,-247.03"/>
</g>
<!-- Node12 -->
<g id="node12" class="node">
<title>Node12</title>
<g id="a_node12"><a xlink:href="../../d9/dc8/cc_macros_8h.html" target="_top" xlink:title=" ">
<polygon fill="none" stroke="black" points="330,-224.5 330,-243.5 401,-243.5 401,-224.5 330,-224.5"/>
<text text-anchor="middle" x="365.5" y="-231.5" font-family="Helvetica,sans-Serif" font-size="10.00">ccMacros.h</text>
</a>
</g>
</g>
<!-- Node6&#45;&gt;Node12 -->
<g id="edge13" class="edge">
<title>Node6&#45;&gt;Node12</title>
<path fill="none" stroke="midnightblue" d="M312.62,-280.32C322.03,-272.26 336.24,-260.08 347.57,-250.37"/>
<polygon fill="midnightblue" stroke="midnightblue" points="349.88,-253 355.19,-243.83 345.32,-247.68 349.88,-253"/>
</g>
<!-- Node7&#45;&gt;Node4 -->
<g id="edge12" class="edge">
<title>Node7&#45;&gt;Node4</title>
<path fill="none" stroke="midnightblue" d="M220.38,-224.32C210.97,-216.26 196.76,-204.08 185.43,-194.37"/>
<polygon fill="midnightblue" stroke="midnightblue" points="187.68,-191.68 177.81,-187.83 183.12,-197 187.68,-191.68"/>
</g>
<!-- Node8 -->
<g id="node8" class="node">
<title>Node8</title>
<g id="a_node8"><a xlink:href="../../d3/d41/_c_c_platform_macros_8h.html" target="_top" xlink:title=" ">
<polygon fill="none" stroke="black" points="218,-112.5 218,-131.5 379,-131.5 379,-112.5 218,-112.5"/>
<text text-anchor="middle" x="298.5" y="-119.5" font-family="Helvetica,sans-Serif" font-size="10.00">platform/CCPlatformMacros.h</text>
</a>
</g>
</g>
<!-- Node7&#45;&gt;Node8 -->
<g id="edge7" class="edge">
<title>Node7&#45;&gt;Node8</title>
<path fill="none" stroke="midnightblue" d="M230.24,-224.34C230.25,-211.22 231.79,-185.93 242.5,-168 250.02,-155.41 262.44,-144.89 273.68,-137.2"/>
<polygon fill="midnightblue" stroke="midnightblue" points="275.8,-140 282.32,-131.65 272.02,-134.11 275.8,-140"/>
</g>
<!-- Node9 -->
<g id="node9" class="node">
<title>Node9</title>
<g id="a_node9"><a xlink:href="../../db/d9f/cc_config_8h.html" target="_top" xlink:title="cocos2d (cc) configuration file">
<polygon fill="none" stroke="black" points="374,-56.5 374,-75.5 441,-75.5 441,-56.5 374,-56.5"/>
<text text-anchor="middle" x="407.5" y="-63.5" font-family="Helvetica,sans-Serif" font-size="10.00">ccConfig.h</text>
</a>
</g>
</g>
<!-- Node8&#45;&gt;Node9 -->
<g id="edge8" class="edge">
<title>Node8&#45;&gt;Node9</title>
<path fill="none" stroke="midnightblue" d="M316.01,-112.32C333.57,-103.62 360.83,-90.12 381.03,-80.11"/>
<polygon fill="midnightblue" stroke="midnightblue" points="382.62,-83.23 390.03,-75.65 379.52,-76.96 382.62,-83.23"/>
</g>
<!-- Node10 -->
<g id="node10" class="node">
<title>Node10</title>
<g id="a_node10"><a xlink:href="../../dd/d96/_c_c_platform_config_8h.html" target="_top" xlink:title=" ">
<polygon fill="none" stroke="black" points="232,-0.5 232,-19.5 389,-19.5 389,-0.5 232,-0.5"/>
<text text-anchor="middle" x="310.5" y="-7.5" font-family="Helvetica,sans-Serif" font-size="10.00">platform/CCPlatformConfig.h</text>
</a>
</g>
</g>
<!-- Node8&#45;&gt;Node10 -->
<g id="edge10" class="edge">
<title>Node8&#45;&gt;Node10</title>
<path fill="none" stroke="midnightblue" d="M278.4,-112.44C254.93,-101.12 220.93,-79.8 234.5,-56 242.91,-41.25 258.27,-30.84 272.98,-23.77"/>
<polygon fill="midnightblue" stroke="midnightblue" points="274.74,-26.83 282.48,-19.6 271.92,-20.42 274.74,-26.83"/>
</g>
<!-- Node11 -->
<g id="node11" class="node">
<title>Node11</title>
<g id="a_node11"><a xlink:title=" ">
<polygon fill="none" stroke="#bfbfbf" points="243,-56.5 243,-75.5 356,-75.5 356,-56.5 243,-56.5"/>
<text text-anchor="middle" x="299.5" y="-63.5" font-family="Helvetica,sans-Serif" font-size="10.00">CCPlatformDefine.h</text>
</a>
</g>
</g>
<!-- Node8&#45;&gt;Node11 -->
<g id="edge11" class="edge">
<title>Node8&#45;&gt;Node11</title>
<path fill="none" stroke="midnightblue" d="M298.67,-112.08C298.8,-105.01 298.98,-94.86 299.15,-85.99"/>
<polygon fill="midnightblue" stroke="midnightblue" points="302.65,-85.81 299.34,-75.75 295.65,-85.68 302.65,-85.81"/>
</g>
<!-- Node9&#45;&gt;Node10 -->
<g id="edge9" class="edge">
<title>Node9&#45;&gt;Node10</title>
<path fill="none" stroke="midnightblue" d="M391.92,-56.32C376.5,-47.74 352.69,-34.49 334.79,-24.52"/>
<polygon fill="midnightblue" stroke="midnightblue" points="336.49,-21.46 326.05,-19.65 333.08,-27.58 336.49,-21.46"/>
</g>
<!-- Node12&#45;&gt;Node9 -->
<g id="edge17" class="edge">
<title>Node12&#45;&gt;Node9</title>
<path fill="none" stroke="midnightblue" d="M370.95,-224.39C376.26,-215.59 384.16,-201.35 388.5,-188 399.85,-153.07 404.53,-110.19 406.38,-85.99"/>
<polygon fill="midnightblue" stroke="midnightblue" points="409.89,-85.94 407.07,-75.73 402.91,-85.47 409.89,-85.94"/>
</g>
<!-- Node13 -->
<g id="node13" class="node">
<title>Node13</title>
<g id="a_node13"><a xlink:href="../../d5/d22/_c_c_common_8h.html" target="_top" xlink:title=" ">
<polygon fill="none" stroke="black" points="251.5,-168.5 251.5,-187.5 379.5,-187.5 379.5,-168.5 251.5,-168.5"/>
<text text-anchor="middle" x="315.5" y="-175.5" font-family="Helvetica,sans-Serif" font-size="10.00">platform/CCCommon.h</text>
</a>
</g>
</g>
<!-- Node12&#45;&gt;Node13 -->
<g id="edge14" class="edge">
<title>Node12&#45;&gt;Node13</title>
<path fill="none" stroke="midnightblue" d="M357.24,-224.08C350.04,-216.3 339.39,-204.8 330.65,-195.37"/>
<polygon fill="midnightblue" stroke="midnightblue" points="332.97,-192.71 323.6,-187.75 327.83,-197.47 332.97,-192.71"/>
</g>
<!-- Node14 -->
<g id="node14" class="node">
<title>Node14</title>
<g id="a_node14"><a xlink:title=" ">
<polygon fill="none" stroke="#bfbfbf" points="435.5,-168.5 435.5,-187.5 497.5,-187.5 497.5,-168.5 435.5,-168.5"/>
<text text-anchor="middle" x="466.5" y="-175.5" font-family="Helvetica,sans-Serif" font-size="10.00">CCStdC.h</text>
</a>
</g>
</g>
<!-- Node12&#45;&gt;Node14 -->
<g id="edge16" class="edge">
<title>Node12&#45;&gt;Node14</title>
<path fill="none" stroke="midnightblue" d="M381.73,-224.32C397.85,-215.7 422.8,-202.36 441.46,-192.39"/>
<polygon fill="midnightblue" stroke="midnightblue" points="443.14,-195.46 450.31,-187.65 439.84,-189.28 443.14,-195.46"/>
</g>
<!-- Node13&#45;&gt;Node8 -->
<g id="edge15" class="edge">
<title>Node13&#45;&gt;Node8</title>
<path fill="none" stroke="midnightblue" d="M312.69,-168.08C310.42,-160.85 307.13,-150.41 304.29,-141.4"/>
<polygon fill="midnightblue" stroke="midnightblue" points="307.6,-140.24 301.25,-131.75 300.92,-142.34 307.6,-140.24"/>
</g>
</g>
</svg>
