<?xml version="1.0" encoding="UTF-8" standalone="no"?>
<!DOCTYPE svg PUBLIC "-//W3C//DTD SVG 1.1//EN"
 "http://www.w3.org/Graphics/SVG/1.1/DTD/svg11.dtd">
<!-- Generated by graphviz version 2.43.0 (0)
 -->
<!-- Title: /home/runner/work/cocos&#45;headers/cocos&#45;headers/cocos2dx/cocoa/CCAffineTransform.h Pages: 1 -->
<svg width="452pt" height="434pt"
 viewBox="0.00 0.00 451.61 434.00" xmlns="http://www.w3.org/2000/svg" xmlns:xlink="http://www.w3.org/1999/xlink">
<g id="graph0" class="graph" transform="scale(1 1) rotate(0) translate(4 430)">
<title>/home/runner/work/cocos&#45;headers/cocos&#45;headers/cocos2dx/cocoa/CCAffineTransform.h</title>
<!-- Node1 -->
<g id="node1" class="node">
<title>Node1</title>
<g id="a_node1"><a xlink:title=" ">
<polygon fill="#999999" stroke="#666666" points="443.61,-426 243.61,-426 243.61,-385 443.61,-385 443.61,-426"/>
<text text-anchor="start" x="251.61" y="-414" font-family="Helvetica,sans-Serif" font-size="10.00">/home/runner/work/cocos</text>
<text text-anchor="start" x="251.61" y="-403" font-family="Helvetica,sans-Serif" font-size="10.00">&#45;headers/cocos&#45;headers</text>
<text text-anchor="middle" x="343.61" y="-392" font-family="Helvetica,sans-Serif" font-size="10.00">/cocos2dx/cocoa/CCAffineTransform.h</text>
</a>
</g>
</g>
<!-- Node2 -->
<g id="node2" class="node">
<title>Node2</title>
<g id="a_node2"><a xlink:href="../../d6/d09/_c_c_geometry_8h.html" target="_top" xlink:title=" ">
<polygon fill="white" stroke="#666666" points="351.61,-349 265.61,-349 265.61,-330 351.61,-330 351.61,-349"/>
<text text-anchor="middle" x="308.61" y="-337" font-family="Helvetica,sans-Serif" font-size="10.00">CCGeometry.h</text>
</a>
</g>
</g>
<!-- Node1&#45;&gt;Node2 -->
<g id="edge1" class="edge">
<title>Node1&#45;&gt;Node2</title>
<path fill="none" stroke="#63b8ff" d="M332.92,-384.95C328.24,-376.39 322.79,-366.42 318.24,-358.1"/>
<polygon fill="#63b8ff" stroke="#63b8ff" points="321.27,-356.35 313.4,-349.26 315.13,-359.71 321.27,-356.35"/>
</g>
<!-- Node3 -->
<g id="node3" class="node">
<title>Node3</title>
<g id="a_node3"><a xlink:href="../../d3/d41/_c_c_platform_macros_8h.html" target="_top" xlink:title=" ">
<polygon fill="white" stroke="#666666" points="332.11,-129 171.11,-129 171.11,-110 332.11,-110 332.11,-129"/>
<text text-anchor="middle" x="251.61" y="-117" font-family="Helvetica,sans-Serif" font-size="10.00">platform/CCPlatformMacros.h</text>
</a>
</g>
</g>
<!-- Node1&#45;&gt;Node3 -->
<g id="edge17" class="edge">
<title>Node1&#45;&gt;Node3</title>
<path fill="none" stroke="#63b8ff" d="M356.43,-384.76C370.04,-361.86 389.61,-322.49 389.61,-285.5 389.61,-285.5 389.61,-285.5 389.61,-228.5 389.61,-177.94 331.46,-147.51 290.66,-132.39"/>
<polygon fill="#63b8ff" stroke="#63b8ff" points="291.81,-129.08 281.22,-129.04 289.47,-135.68 291.81,-129.08"/>
</g>
<!-- Node2&#45;&gt;Node3 -->
<g id="edge2" class="edge">
<title>Node2&#45;&gt;Node3</title>
<path fill="none" stroke="#63b8ff" d="M314.69,-329.79C320.32,-321.16 328.31,-307.34 331.61,-294 345.41,-238.35 361.81,-214.35 332.61,-165 323.75,-150.02 307.85,-139.74 292.47,-132.88"/>
<polygon fill="#63b8ff" stroke="#63b8ff" points="293.62,-129.56 283.03,-129.03 290.97,-136.04 293.62,-129.56"/>
</g>
<!-- Node7 -->
<g id="node7" class="node">
<title>Node7</title>
<g id="a_node7"><a xlink:href="../../dd/d69/_c_c_object_8h.html" target="_top" xlink:title=" ">
<polygon fill="white" stroke="#666666" points="254.11,-294 183.11,-294 183.11,-275 254.11,-275 254.11,-294"/>
<text text-anchor="middle" x="218.61" y="-282" font-family="Helvetica,sans-Serif" font-size="10.00">CCObject.h</text>
</a>
</g>
</g>
<!-- Node2&#45;&gt;Node7 -->
<g id="edge7" class="edge">
<title>Node2&#45;&gt;Node7</title>
<path fill="none" stroke="#63b8ff" d="M294.15,-329.98C280.2,-321.77 258.82,-309.18 242.36,-299.49"/>
<polygon fill="#63b8ff" stroke="#63b8ff" points="243.73,-296.23 233.34,-294.17 240.18,-302.26 243.73,-296.23"/>
</g>
<!-- Node13 -->
<g id="node13" class="node">
<title>Node13</title>
<g id="a_node13"><a xlink:title=" ">
<polygon fill="#e0e0e0" stroke="#999999" points="323.11,-294 272.11,-294 272.11,-275 323.11,-275 323.11,-294"/>
<text text-anchor="middle" x="297.61" y="-282" font-family="Helvetica,sans-Serif" font-size="10.00">math.h</text>
</a>
</g>
</g>
<!-- Node2&#45;&gt;Node13 -->
<g id="edge16" class="edge">
<title>Node2&#45;&gt;Node13</title>
<path fill="none" stroke="#63b8ff" d="M306.8,-329.75C305.35,-322.8 303.29,-312.85 301.48,-304.13"/>
<polygon fill="#63b8ff" stroke="#63b8ff" points="304.85,-303.17 299.4,-294.09 298,-304.59 304.85,-303.17"/>
</g>
<!-- Node4 -->
<g id="node4" class="node">
<title>Node4</title>
<g id="a_node4"><a xlink:href="../../db/d9f/cc_config_8h.html" target="_top" xlink:title="cocos2d (cc) configuration file">
<polygon fill="white" stroke="#666666" points="134.11,-74 67.11,-74 67.11,-55 134.11,-55 134.11,-74"/>
<text text-anchor="middle" x="100.61" y="-62" font-family="Helvetica,sans-Serif" font-size="10.00">ccConfig.h</text>
</a>
</g>
</g>
<!-- Node3&#45;&gt;Node4 -->
<g id="edge3" class="edge">
<title>Node3&#45;&gt;Node4</title>
<path fill="none" stroke="#63b8ff" d="M227.35,-109.98C202.29,-101.19 162.98,-87.39 134.78,-77.49"/>
<polygon fill="#63b8ff" stroke="#63b8ff" points="135.91,-74.18 125.32,-74.17 133.59,-80.78 135.91,-74.18"/>
</g>
<!-- Node5 -->
<g id="node5" class="node">
<title>Node5</title>
<g id="a_node5"><a xlink:href="../../dd/d96/_c_c_platform_config_8h.html" target="_top" xlink:title=" ">
<polygon fill="white" stroke="#666666" points="275.11,-19 118.11,-19 118.11,0 275.11,0 275.11,-19"/>
<text text-anchor="middle" x="196.61" y="-7" font-family="Helvetica,sans-Serif" font-size="10.00">platform/CCPlatformConfig.h</text>
</a>
</g>
</g>
<!-- Node3&#45;&gt;Node5 -->
<g id="edge5" class="edge">
<title>Node3&#45;&gt;Node5</title>
<path fill="none" stroke="#63b8ff" d="M259.05,-109.84C268.97,-97.19 284.11,-73.19 273.61,-55 265.19,-40.41 249.96,-30.17 235.26,-23.23"/>
<polygon fill="#63b8ff" stroke="#63b8ff" points="236.32,-19.87 225.75,-19.13 233.55,-26.3 236.32,-19.87"/>
</g>
<!-- Node6 -->
<g id="node6" class="node">
<title>Node6</title>
<g id="a_node6"><a xlink:title=" ">
<polygon fill="#e0e0e0" stroke="#999999" points="265.11,-74 152.11,-74 152.11,-55 265.11,-55 265.11,-74"/>
<text text-anchor="middle" x="208.61" y="-62" font-family="Helvetica,sans-Serif" font-size="10.00">CCPlatformDefine.h</text>
</a>
</g>
</g>
<!-- Node3&#45;&gt;Node6 -->
<g id="edge6" class="edge">
<title>Node3&#45;&gt;Node6</title>
<path fill="none" stroke="#63b8ff" d="M244.51,-109.75C238.44,-102.26 229.53,-91.28 222.1,-82.13"/>
<polygon fill="#63b8ff" stroke="#63b8ff" points="224.6,-79.65 215.58,-74.09 219.16,-84.06 224.6,-79.65"/>
</g>
<!-- Node4&#45;&gt;Node5 -->
<g id="edge4" class="edge">
<title>Node4&#45;&gt;Node5</title>
<path fill="none" stroke="#63b8ff" d="M116.04,-54.98C131.06,-46.69 154.15,-33.94 171.77,-24.22"/>
<polygon fill="#63b8ff" stroke="#63b8ff" points="173.85,-27.07 180.91,-19.17 170.46,-20.94 173.85,-27.07"/>
</g>
<!-- Node8 -->
<g id="node8" class="node">
<title>Node8</title>
<g id="a_node8"><a xlink:href="../../d9/d2d/_c_c_data_visitor_8h.html" target="_top" xlink:title=" ">
<polygon fill="white" stroke="#666666" points="298.11,-239 205.11,-239 205.11,-220 298.11,-220 298.11,-239"/>
<text text-anchor="middle" x="251.61" y="-227" font-family="Helvetica,sans-Serif" font-size="10.00">CCDataVisitor.h</text>
</a>
</g>
</g>
<!-- Node7&#45;&gt;Node8 -->
<g id="edge8" class="edge">
<title>Node7&#45;&gt;Node8</title>
<path fill="none" stroke="#63b8ff" d="M224.06,-274.75C228.63,-267.42 235.28,-256.73 240.91,-247.7"/>
<polygon fill="#63b8ff" stroke="#63b8ff" points="243.95,-249.43 246.26,-239.09 238.01,-245.73 243.95,-249.43"/>
</g>
<!-- Node10 -->
<g id="node10" class="node">
<title>Node10</title>
<g id="a_node10"><a xlink:href="../../d9/dc8/cc_macros_8h.html" target="_top" xlink:title=" ">
<polygon fill="white" stroke="#666666" points="135.11,-239 64.11,-239 64.11,-220 135.11,-220 135.11,-239"/>
<text text-anchor="middle" x="99.61" y="-227" font-family="Helvetica,sans-Serif" font-size="10.00">ccMacros.h</text>
</a>
</g>
</g>
<!-- Node7&#45;&gt;Node10 -->
<g id="edge11" class="edge">
<title>Node7&#45;&gt;Node10</title>
<path fill="none" stroke="#63b8ff" d="M199.49,-274.98C180.26,-266.42 150.38,-253.11 128.31,-243.28"/>
<polygon fill="#63b8ff" stroke="#63b8ff" points="129.64,-240.04 119.08,-239.17 126.79,-246.44 129.64,-240.04"/>
</g>
<!-- Node8&#45;&gt;Node3 -->
<g id="edge9" class="edge">
<title>Node8&#45;&gt;Node3</title>
<path fill="none" stroke="#63b8ff" d="M251.61,-219.66C251.61,-202.17 251.61,-162.8 251.61,-139.27"/>
<polygon fill="#63b8ff" stroke="#63b8ff" points="255.11,-139.16 251.61,-129.16 248.11,-139.16 255.11,-139.16"/>
</g>
<!-- Node9 -->
<g id="node9" class="node">
<title>Node9</title>
<g id="a_node9"><a xlink:title=" ">
<polygon fill="#e0e0e0" stroke="#999999" points="323.61,-184 279.61,-184 279.61,-165 323.61,-165 323.61,-184"/>
<text text-anchor="middle" x="301.61" y="-172" font-family="Helvetica,sans-Serif" font-size="10.00">string</text>
</a>
</g>
</g>
<!-- Node8&#45;&gt;Node9 -->
<g id="edge10" class="edge">
<title>Node8&#45;&gt;Node9</title>
<path fill="none" stroke="#63b8ff" d="M259.87,-219.75C267.08,-212.11 277.72,-200.82 286.46,-191.56"/>
<polygon fill="#63b8ff" stroke="#63b8ff" points="289.19,-193.76 293.51,-184.09 284.1,-188.96 289.19,-193.76"/>
</g>
<!-- Node10&#45;&gt;Node4 -->
<g id="edge15" class="edge">
<title>Node10&#45;&gt;Node4</title>
<path fill="none" stroke="#63b8ff" d="M63.69,-221.22C43.17,-215.03 19.11,-203.84 6.61,-184 -18.9,-143.52 39.53,-100.63 75.33,-79.27"/>
<polygon fill="#63b8ff" stroke="#63b8ff" points="77.41,-82.11 84.31,-74.07 73.9,-76.05 77.41,-82.11"/>
</g>
<!-- Node11 -->
<g id="node11" class="node">
<title>Node11</title>
<g id="a_node11"><a xlink:href="../../d5/d22/_c_c_common_8h.html" target="_top" xlink:title=" ">
<polygon fill="white" stroke="#666666" points="223.61,-184 95.61,-184 95.61,-165 223.61,-165 223.61,-184"/>
<text text-anchor="middle" x="159.61" y="-172" font-family="Helvetica,sans-Serif" font-size="10.00">platform/CCCommon.h</text>
</a>
</g>
</g>
<!-- Node10&#45;&gt;Node11 -->
<g id="edge12" class="edge">
<title>Node10&#45;&gt;Node11</title>
<path fill="none" stroke="#63b8ff" d="M109.25,-219.98C118.12,-212.15 131.49,-200.34 142.22,-190.86"/>
<polygon fill="#63b8ff" stroke="#63b8ff" points="144.62,-193.41 149.8,-184.17 139.99,-188.17 144.62,-193.41"/>
</g>
<!-- Node12 -->
<g id="node12" class="node">
<title>Node12</title>
<g id="a_node12"><a xlink:title=" ">
<polygon fill="#e0e0e0" stroke="#999999" points="77.61,-184 15.61,-184 15.61,-165 77.61,-165 77.61,-184"/>
<text text-anchor="middle" x="46.61" y="-172" font-family="Helvetica,sans-Serif" font-size="10.00">CCStdC.h</text>
</a>
</g>
</g>
<!-- Node10&#45;&gt;Node12 -->
<g id="edge14" class="edge">
<title>Node10&#45;&gt;Node12</title>
<path fill="none" stroke="#63b8ff" d="M90.86,-219.75C83.14,-212.03 71.71,-200.6 62.4,-191.28"/>
<polygon fill="#63b8ff" stroke="#63b8ff" points="64.75,-188.69 55.2,-184.09 59.8,-193.64 64.75,-188.69"/>
</g>
<!-- Node11&#45;&gt;Node3 -->
<g id="edge13" class="edge">
<title>Node11&#45;&gt;Node3</title>
<path fill="none" stroke="#63b8ff" d="M174.39,-164.98C188.79,-156.69 210.92,-143.94 227.81,-134.22"/>
<polygon fill="#63b8ff" stroke="#63b8ff" points="229.64,-137.19 236.56,-129.17 226.15,-131.13 229.64,-137.19"/>
</g>
</g>
</svg>
