<?xml version="1.0" encoding="UTF-8" standalone="no"?>
<!DOCTYPE svg PUBLIC "-//W3C//DTD SVG 1.1//EN"
 "http://www.w3.org/Graphics/SVG/1.1/DTD/svg11.dtd">
<!-- Generated by graphviz version 2.43.0 (0)
 -->
<!-- Title: /home/runner/work/cocos&#45;headers/cocos&#45;headers/cocos2dx/platform/winrt/CCWinRTUtils.h Pages: 1 -->
<svg width="757pt" height="531pt"
 viewBox="0.00 0.00 757.00 531.00" xmlns="http://www.w3.org/2000/svg" xmlns:xlink="http://www.w3.org/1999/xlink">
<g id="graph0" class="graph" transform="scale(1 1) rotate(0) translate(4 527)">
<title>/home/runner/work/cocos&#45;headers/cocos&#45;headers/cocos2dx/platform/winrt/CCWinRTUtils.h</title>
<!-- Node1 -->
<g id="node1" class="node">
<title>Node1</title>
<g id="a_node1"><a xlink:title=" ">
<polygon fill="#bfbfbf" stroke="black" points="167,-470.5 167,-522.5 307,-522.5 307,-470.5 167,-470.5"/>
<text text-anchor="start" x="175" y="-510.5" font-family="Helvetica,sans-Serif" font-size="10.00">/home/runner/work/cocos</text>
<text text-anchor="start" x="175" y="-499.5" font-family="Helvetica,sans-Serif" font-size="10.00">&#45;headers/cocos&#45;headers</text>
<text text-anchor="start" x="175" y="-488.5" font-family="Helvetica,sans-Serif" font-size="10.00">/cocos2dx/platform/winrt</text>
<text text-anchor="middle" x="237" y="-477.5" font-family="Helvetica,sans-Serif" font-size="10.00">/CCWinRTUtils.h</text>
</a>
</g>
</g>
<!-- Node2 -->
<g id="node2" class="node">
<title>Node2</title>
<g id="a_node2"><a xlink:href="../../d3/d41/_c_c_platform_macros_8h.html" target="_top" xlink:title=" ">
<polygon fill="none" stroke="black" points="422.5,-112.5 422.5,-131.5 583.5,-131.5 583.5,-112.5 422.5,-112.5"/>
<text text-anchor="middle" x="503" y="-119.5" font-family="Helvetica,sans-Serif" font-size="10.00">platform/CCPlatformMacros.h</text>
</a>
</g>
</g>
<!-- Node1&#45;&gt;Node2 -->
<g id="edge1" class="edge">
<title>Node1&#45;&gt;Node2</title>
<path fill="none" stroke="midnightblue" d="M166.85,-486.47C96.97,-473.09 0,-440.62 0,-363.5 0,-363.5 0,-363.5 0,-233 0,-149.58 267.38,-129.33 412.25,-124.48"/>
<polygon fill="midnightblue" stroke="midnightblue" points="412.58,-127.97 422.46,-124.15 412.36,-120.97 412.58,-127.97"/>
</g>
<!-- Node6 -->
<g id="node6" class="node">
<title>Node6</title>
<g id="a_node6"><a xlink:href="../../d9/d8d/_c_c_dictionary_8h.html" target="_top" xlink:title=" ">
<polygon fill="none" stroke="black" points="121.5,-414.5 121.5,-433.5 240.5,-433.5 240.5,-414.5 121.5,-414.5"/>
<text text-anchor="middle" x="181" y="-421.5" font-family="Helvetica,sans-Serif" font-size="10.00">cocoa/CCDictionary.h</text>
</a>
</g>
</g>
<!-- Node1&#45;&gt;Node6 -->
<g id="edge6" class="edge">
<title>Node1&#45;&gt;Node6</title>
<path fill="none" stroke="midnightblue" d="M217.1,-470.45C209.54,-460.93 201.12,-450.33 194.31,-441.76"/>
<polygon fill="midnightblue" stroke="midnightblue" points="196.87,-439.35 187.91,-433.7 191.39,-443.7 196.87,-439.35"/>
</g>
<!-- Node10 -->
<g id="node10" class="node">
<title>Node10</title>
<g id="a_node10"><a xlink:title=" ">
<polygon fill="none" stroke="#bfbfbf" points="403,-168.5 403,-187.5 447,-187.5 447,-168.5 403,-168.5"/>
<text text-anchor="middle" x="425" y="-175.5" font-family="Helvetica,sans-Serif" font-size="10.00">string</text>
</a>
</g>
</g>
<!-- Node1&#45;&gt;Node10 -->
<g id="edge28" class="edge">
<title>Node1&#45;&gt;Node10</title>
<path fill="none" stroke="midnightblue" d="M166.84,-479.57C109.55,-461.92 38,-427.14 38,-363.5 38,-363.5 38,-363.5 38,-294.5 38,-220.73 299.46,-190.2 392.56,-181.67"/>
<polygon fill="midnightblue" stroke="midnightblue" points="393.15,-185.13 402.8,-180.75 392.53,-178.15 393.15,-185.13"/>
</g>
<!-- Node20 -->
<g id="node20" class="node">
<title>Node20</title>
<g id="a_node20"><a xlink:title=" ">
<polygon fill="none" stroke="#bfbfbf" points="258.5,-414.5 258.5,-433.5 329.5,-433.5 329.5,-414.5 258.5,-414.5"/>
<text text-anchor="middle" x="294" y="-421.5" font-family="Helvetica,sans-Serif" font-size="10.00">wrl/client.h</text>
</a>
</g>
</g>
<!-- Node1&#45;&gt;Node20 -->
<g id="edge25" class="edge">
<title>Node1&#45;&gt;Node20</title>
<path fill="none" stroke="midnightblue" d="M257.26,-470.45C265.03,-460.83 273.7,-450.1 280.67,-441.49"/>
<polygon fill="midnightblue" stroke="midnightblue" points="283.4,-443.67 286.97,-433.7 277.96,-439.27 283.4,-443.67"/>
</g>
<!-- Node21 -->
<g id="node21" class="node">
<title>Node21</title>
<g id="a_node21"><a xlink:title=" ">
<polygon fill="none" stroke="#bfbfbf" points="347.5,-414.5 347.5,-433.5 388.5,-433.5 388.5,-414.5 347.5,-414.5"/>
<text text-anchor="middle" x="368" y="-421.5" font-family="Helvetica,sans-Serif" font-size="10.00">ppl.h</text>
</a>
</g>
</g>
<!-- Node1&#45;&gt;Node21 -->
<g id="edge26" class="edge">
<title>Node1&#45;&gt;Node21</title>
<path fill="none" stroke="midnightblue" d="M283.55,-470.45C303.6,-459.66 326.23,-447.48 343.01,-438.45"/>
<polygon fill="midnightblue" stroke="midnightblue" points="345.01,-441.35 352.16,-433.53 341.69,-435.18 345.01,-441.35"/>
</g>
<!-- Node22 -->
<g id="node22" class="node">
<title>Node22</title>
<g id="a_node22"><a xlink:title=" ">
<polygon fill="none" stroke="#bfbfbf" points="406.5,-414.5 406.5,-433.5 473.5,-433.5 473.5,-414.5 406.5,-414.5"/>
<text text-anchor="middle" x="440" y="-421.5" font-family="Helvetica,sans-Serif" font-size="10.00">ppltasks.h</text>
</a>
</g>
</g>
<!-- Node1&#45;&gt;Node22 -->
<g id="edge27" class="edge">
<title>Node1&#45;&gt;Node22</title>
<path fill="none" stroke="midnightblue" d="M307.15,-471.14C340.48,-459.56 378.81,-446.25 405.71,-436.91"/>
<polygon fill="midnightblue" stroke="midnightblue" points="407.12,-440.12 415.42,-433.54 404.83,-433.51 407.12,-440.12"/>
</g>
<!-- Node3 -->
<g id="node3" class="node">
<title>Node3</title>
<g id="a_node3"><a xlink:href="../../db/d9f/cc_config_8h.html" target="_top" xlink:title="cocos2d (cc) configuration file">
<polygon fill="none" stroke="black" points="597.5,-56.5 597.5,-75.5 664.5,-75.5 664.5,-56.5 597.5,-56.5"/>
<text text-anchor="middle" x="631" y="-63.5" font-family="Helvetica,sans-Serif" font-size="10.00">ccConfig.h</text>
</a>
</g>
</g>
<!-- Node2&#45;&gt;Node3 -->
<g id="edge2" class="edge">
<title>Node2&#45;&gt;Node3</title>
<path fill="none" stroke="midnightblue" d="M523.28,-112.44C544.35,-103.56 577.52,-89.56 601.49,-79.45"/>
<polygon fill="midnightblue" stroke="midnightblue" points="602.96,-82.63 610.81,-75.52 600.24,-76.18 602.96,-82.63"/>
</g>
<!-- Node4 -->
<g id="node4" class="node">
<title>Node4</title>
<g id="a_node4"><a xlink:href="../../dd/d96/_c_c_platform_config_8h.html" target="_top" xlink:title=" ">
<polygon fill="none" stroke="black" points="521.5,-0.5 521.5,-19.5 678.5,-19.5 678.5,-0.5 521.5,-0.5"/>
<text text-anchor="middle" x="600" y="-7.5" font-family="Helvetica,sans-Serif" font-size="10.00">platform/CCPlatformConfig.h</text>
</a>
</g>
</g>
<!-- Node2&#45;&gt;Node4 -->
<g id="edge4" class="edge">
<title>Node2&#45;&gt;Node4</title>
<path fill="none" stroke="midnightblue" d="M512.78,-112.44C522.59,-103.67 537.93,-89.45 550,-76 563.91,-60.5 578.24,-41.5 587.98,-28.05"/>
<polygon fill="midnightblue" stroke="midnightblue" points="590.95,-29.91 593.92,-19.74 585.26,-25.84 590.95,-29.91"/>
</g>
<!-- Node5 -->
<g id="node5" class="node">
<title>Node5</title>
<g id="a_node5"><a xlink:title=" ">
<polygon fill="none" stroke="#bfbfbf" points="427.5,-56.5 427.5,-75.5 540.5,-75.5 540.5,-56.5 427.5,-56.5"/>
<text text-anchor="middle" x="484" y="-63.5" font-family="Helvetica,sans-Serif" font-size="10.00">CCPlatformDefine.h</text>
</a>
</g>
</g>
<!-- Node2&#45;&gt;Node5 -->
<g id="edge5" class="edge">
<title>Node2&#45;&gt;Node5</title>
<path fill="none" stroke="midnightblue" d="M499.86,-112.08C497.32,-104.85 493.64,-94.41 490.47,-85.4"/>
<polygon fill="midnightblue" stroke="midnightblue" points="493.7,-84.02 487.08,-75.75 487.1,-86.35 493.7,-84.02"/>
</g>
<!-- Node3&#45;&gt;Node4 -->
<g id="edge3" class="edge">
<title>Node3&#45;&gt;Node4</title>
<path fill="none" stroke="midnightblue" d="M625.88,-56.08C621.59,-48.61 615.34,-37.72 610.06,-28.52"/>
<polygon fill="midnightblue" stroke="midnightblue" points="613.04,-26.68 605.02,-19.75 606.97,-30.17 613.04,-26.68"/>
</g>
<!-- Node7 -->
<g id="node7" class="node">
<title>Node7</title>
<g id="a_node7"><a xlink:title=" ">
<polygon fill="none" stroke="#bfbfbf" points="176,-347.5 176,-377.5 296,-377.5 296,-347.5 176,-347.5"/>
<text text-anchor="start" x="184" y="-365.5" font-family="Helvetica,sans-Serif" font-size="10.00">support/data_support</text>
<text text-anchor="middle" x="236" y="-354.5" font-family="Helvetica,sans-Serif" font-size="10.00">/uthash.h</text>
</a>
</g>
</g>
<!-- Node6&#45;&gt;Node7 -->
<g id="edge7" class="edge">
<title>Node6&#45;&gt;Node7</title>
<path fill="none" stroke="midnightblue" d="M188.88,-414.48C195.98,-406.79 206.72,-395.17 216.16,-384.96"/>
<polygon fill="midnightblue" stroke="midnightblue" points="218.82,-387.24 223.04,-377.52 213.68,-382.49 218.82,-387.24"/>
</g>
<!-- Node8 -->
<g id="node8" class="node">
<title>Node8</title>
<g id="a_node8"><a xlink:href="../../dd/d69/_c_c_object_8h.html" target="_top" xlink:title=" ">
<polygon fill="none" stroke="black" points="476.5,-286 476.5,-305 547.5,-305 547.5,-286 476.5,-286"/>
<text text-anchor="middle" x="512" y="-293" font-family="Helvetica,sans-Serif" font-size="10.00">CCObject.h</text>
</a>
</g>
</g>
<!-- Node6&#45;&gt;Node8 -->
<g id="edge8" class="edge">
<title>Node6&#45;&gt;Node8</title>
<path fill="none" stroke="midnightblue" d="M240.51,-414.59C297.98,-405.89 380.5,-391.68 410,-378 445.09,-361.73 478.71,-330.95 497.24,-312.22"/>
<polygon fill="midnightblue" stroke="midnightblue" points="499.78,-314.63 504.22,-305.01 494.75,-309.76 499.78,-314.63"/>
</g>
<!-- Node14 -->
<g id="node14" class="node">
<title>Node14</title>
<g id="a_node14"><a xlink:href="../../da/d35/_c_c_array_8h.html" target="_top" xlink:title=" ">
<polygon fill="none" stroke="black" points="94,-353 94,-372 158,-372 158,-353 94,-353"/>
<text text-anchor="middle" x="126" y="-360" font-family="Helvetica,sans-Serif" font-size="10.00">CCArray.h</text>
</a>
</g>
</g>
<!-- Node6&#45;&gt;Node14 -->
<g id="edge17" class="edge">
<title>Node6&#45;&gt;Node14</title>
<path fill="none" stroke="midnightblue" d="M173.12,-414.48C164.71,-405.37 151.18,-390.74 140.77,-379.48"/>
<polygon fill="midnightblue" stroke="midnightblue" points="143.22,-376.98 133.87,-372.01 138.08,-381.73 143.22,-376.98"/>
</g>
<!-- Node16 -->
<g id="node16" class="node">
<title>Node16</title>
<g id="a_node16"><a xlink:href="../../d0/d8a/_c_c_string_8h.html" target="_top" xlink:title=" ">
<polygon fill="none" stroke="black" points="333,-353 333,-372 401,-372 401,-353 333,-353"/>
<text text-anchor="middle" x="367" y="-360" font-family="Helvetica,sans-Serif" font-size="10.00">CCString.h</text>
</a>
</g>
</g>
<!-- Node6&#45;&gt;Node16 -->
<g id="edge19" class="edge">
<title>Node6&#45;&gt;Node16</title>
<path fill="none" stroke="midnightblue" d="M207.65,-414.48C239.97,-404.14 294.6,-386.66 330.73,-375.1"/>
<polygon fill="midnightblue" stroke="midnightblue" points="331.94,-378.39 340.4,-372.01 329.81,-371.72 331.94,-378.39"/>
</g>
<!-- Node9 -->
<g id="node9" class="node">
<title>Node9</title>
<g id="a_node9"><a xlink:href="../../d9/d2d/_c_c_data_visitor_8h.html" target="_top" xlink:title=" ">
<polygon fill="none" stroke="black" points="468.5,-224.5 468.5,-243.5 561.5,-243.5 561.5,-224.5 468.5,-224.5"/>
<text text-anchor="middle" x="515" y="-231.5" font-family="Helvetica,sans-Serif" font-size="10.00">CCDataVisitor.h</text>
</a>
</g>
</g>
<!-- Node8&#45;&gt;Node9 -->
<g id="edge9" class="edge">
<title>Node8&#45;&gt;Node9</title>
<path fill="none" stroke="midnightblue" d="M512.43,-285.98C512.85,-277.58 513.51,-264.48 514.06,-253.66"/>
<polygon fill="midnightblue" stroke="midnightblue" points="517.56,-253.67 514.57,-243.51 510.57,-253.32 517.56,-253.67"/>
</g>
<!-- Node11 -->
<g id="node11" class="node">
<title>Node11</title>
<g id="a_node11"><a xlink:href="../../d9/dc8/cc_macros_8h.html" target="_top" xlink:title=" ">
<polygon fill="none" stroke="black" points="594.5,-224.5 594.5,-243.5 665.5,-243.5 665.5,-224.5 594.5,-224.5"/>
<text text-anchor="middle" x="630" y="-231.5" font-family="Helvetica,sans-Serif" font-size="10.00">ccMacros.h</text>
</a>
</g>
</g>
<!-- Node8&#45;&gt;Node11 -->
<g id="edge12" class="edge">
<title>Node8&#45;&gt;Node11</title>
<path fill="none" stroke="midnightblue" d="M528.91,-285.98C548.53,-276.08 581.13,-259.64 603.99,-248.12"/>
<polygon fill="midnightblue" stroke="midnightblue" points="605.77,-251.14 613.12,-243.51 602.62,-244.89 605.77,-251.14"/>
</g>
<!-- Node9&#45;&gt;Node2 -->
<g id="edge10" class="edge">
<title>Node9&#45;&gt;Node2</title>
<path fill="none" stroke="midnightblue" d="M509.62,-224.44C504.44,-215.68 496.99,-201.47 494,-188 490.57,-172.53 493.52,-154.69 496.93,-141.62"/>
<polygon fill="midnightblue" stroke="midnightblue" points="500.32,-142.49 499.78,-131.91 493.61,-140.52 500.32,-142.49"/>
</g>
<!-- Node9&#45;&gt;Node10 -->
<g id="edge11" class="edge">
<title>Node9&#45;&gt;Node10</title>
<path fill="none" stroke="midnightblue" d="M500.54,-224.32C486.5,-215.9 464.95,-202.97 448.46,-193.07"/>
<polygon fill="midnightblue" stroke="midnightblue" points="449.8,-189.8 439.42,-187.65 446.2,-195.8 449.8,-189.8"/>
</g>
<!-- Node11&#45;&gt;Node3 -->
<g id="edge16" class="edge">
<title>Node11&#45;&gt;Node3</title>
<path fill="none" stroke="midnightblue" d="M632.48,-224.47C634.96,-215.48 638.59,-200.89 640,-188 643.97,-151.83 638.49,-109.38 634.5,-85.6"/>
<polygon fill="midnightblue" stroke="midnightblue" points="637.9,-84.76 632.71,-75.53 631.01,-85.99 637.9,-84.76"/>
</g>
<!-- Node12 -->
<g id="node12" class="node">
<title>Node12</title>
<g id="a_node12"><a xlink:href="../../d5/d22/_c_c_common_8h.html" target="_top" xlink:title=" ">
<polygon fill="none" stroke="black" points="503,-168.5 503,-187.5 631,-187.5 631,-168.5 503,-168.5"/>
<text text-anchor="middle" x="567" y="-175.5" font-family="Helvetica,sans-Serif" font-size="10.00">platform/CCCommon.h</text>
</a>
</g>
</g>
<!-- Node11&#45;&gt;Node12 -->
<g id="edge13" class="edge">
<title>Node11&#45;&gt;Node12</title>
<path fill="none" stroke="midnightblue" d="M619.88,-224.32C610.47,-216.26 596.26,-204.08 584.93,-194.37"/>
<polygon fill="midnightblue" stroke="midnightblue" points="587.18,-191.68 577.31,-187.83 582.62,-197 587.18,-191.68"/>
</g>
<!-- Node13 -->
<g id="node13" class="node">
<title>Node13</title>
<g id="a_node13"><a xlink:title=" ">
<polygon fill="none" stroke="#bfbfbf" points="687,-168.5 687,-187.5 749,-187.5 749,-168.5 687,-168.5"/>
<text text-anchor="middle" x="718" y="-175.5" font-family="Helvetica,sans-Serif" font-size="10.00">CCStdC.h</text>
</a>
</g>
</g>
<!-- Node11&#45;&gt;Node13 -->
<g id="edge15" class="edge">
<title>Node11&#45;&gt;Node13</title>
<path fill="none" stroke="midnightblue" d="M644.14,-224.32C657.87,-215.9 678.94,-202.97 695.06,-193.07"/>
<polygon fill="midnightblue" stroke="midnightblue" points="697.2,-195.87 703.9,-187.65 693.54,-189.9 697.2,-195.87"/>
</g>
<!-- Node12&#45;&gt;Node2 -->
<g id="edge14" class="edge">
<title>Node12&#45;&gt;Node2</title>
<path fill="none" stroke="midnightblue" d="M556.72,-168.32C547.16,-160.26 532.72,-148.08 521.22,-138.37"/>
<polygon fill="midnightblue" stroke="midnightblue" points="523.37,-135.61 513.47,-131.83 518.86,-140.96 523.37,-135.61"/>
</g>
<!-- Node15 -->
<g id="node15" class="node">
<title>Node15</title>
<g id="a_node15"><a xlink:title=" ">
<polygon fill="none" stroke="#bfbfbf" points="66,-280.5 66,-310.5 186,-310.5 186,-280.5 66,-280.5"/>
<text text-anchor="start" x="74" y="-298.5" font-family="Helvetica,sans-Serif" font-size="10.00">support/data_support</text>
<text text-anchor="middle" x="126" y="-287.5" font-family="Helvetica,sans-Serif" font-size="10.00">/ccCArray.h</text>
</a>
</g>
</g>
<!-- Node14&#45;&gt;Node15 -->
<g id="edge18" class="edge">
<title>Node14&#45;&gt;Node15</title>
<path fill="none" stroke="midnightblue" d="M126,-352.73C126,-344.54 126,-331.92 126,-320.71"/>
<polygon fill="midnightblue" stroke="midnightblue" points="129.5,-320.59 126,-310.59 122.5,-320.59 129.5,-320.59"/>
</g>
<!-- Node16&#45;&gt;Node8 -->
<g id="edge24" class="edge">
<title>Node16&#45;&gt;Node8</title>
<path fill="none" stroke="midnightblue" d="M386.25,-352.87C411.17,-341.7 454.79,-322.15 483.53,-309.26"/>
<polygon fill="midnightblue" stroke="midnightblue" points="484.97,-312.45 492.67,-305.17 482.11,-306.06 484.97,-312.45"/>
</g>
<!-- Node16&#45;&gt;Node10 -->
<g id="edge22" class="edge">
<title>Node16&#45;&gt;Node10</title>
<path fill="none" stroke="midnightblue" d="M382.39,-353C396.17,-344.42 415.46,-329.78 424,-311 441.01,-273.58 434.68,-223.79 429.36,-197.34"/>
<polygon fill="midnightblue" stroke="midnightblue" points="432.77,-196.56 427.21,-187.54 425.93,-198.05 432.77,-196.56"/>
</g>
<!-- Node17 -->
<g id="node17" class="node">
<title>Node17</title>
<g id="a_node17"><a xlink:title=" ">
<polygon fill="none" stroke="#bfbfbf" points="287.5,-286 287.5,-305 340.5,-305 340.5,-286 287.5,-286"/>
<text text-anchor="middle" x="314" y="-293" font-family="Helvetica,sans-Serif" font-size="10.00">string.h</text>
</a>
</g>
</g>
<!-- Node16&#45;&gt;Node17 -->
<g id="edge20" class="edge">
<title>Node16&#45;&gt;Node17</title>
<path fill="none" stroke="midnightblue" d="M359.85,-352.73C351.59,-342.6 337.8,-325.69 327.5,-313.06"/>
<polygon fill="midnightblue" stroke="midnightblue" points="330.07,-310.67 321.03,-305.13 324.64,-315.09 330.07,-310.67"/>
</g>
<!-- Node18 -->
<g id="node18" class="node">
<title>Node18</title>
<g id="a_node18"><a xlink:title=" ">
<polygon fill="none" stroke="#bfbfbf" points="359,-286 359,-305 415,-305 415,-286 359,-286"/>
<text text-anchor="middle" x="387" y="-293" font-family="Helvetica,sans-Serif" font-size="10.00">stdarg.h</text>
</a>
</g>
</g>
<!-- Node16&#45;&gt;Node18 -->
<g id="edge21" class="edge">
<title>Node16&#45;&gt;Node18</title>
<path fill="none" stroke="midnightblue" d="M369.7,-352.73C372.67,-343.09 377.52,-327.3 381.34,-314.91"/>
<polygon fill="midnightblue" stroke="midnightblue" points="384.75,-315.71 384.35,-305.13 378.06,-313.66 384.75,-315.71"/>
</g>
<!-- Node19 -->
<g id="node19" class="node">
<title>Node19</title>
<g id="a_node19"><a xlink:title=" ">
<polygon fill="none" stroke="#bfbfbf" points="204.5,-286 204.5,-305 269.5,-305 269.5,-286 204.5,-286"/>
<text text-anchor="middle" x="237" y="-293" font-family="Helvetica,sans-Serif" font-size="10.00">functional</text>
</a>
</g>
</g>
<!-- Node16&#45;&gt;Node19 -->
<g id="edge23" class="edge">
<title>Node16&#45;&gt;Node19</title>
<path fill="none" stroke="midnightblue" d="M349.74,-352.87C327.69,-341.84 289.31,-322.66 263.54,-309.77"/>
<polygon fill="midnightblue" stroke="midnightblue" points="264.84,-306.51 254.33,-305.17 261.71,-312.77 264.84,-306.51"/>
</g>
</g>
</svg>
