<?xml version="1.0" encoding="UTF-8" standalone="no"?>
<!DOCTYPE svg PUBLIC "-//W3C//DTD SVG 1.1//EN"
 "http://www.w3.org/Graphics/SVG/1.1/DTD/svg11.dtd">
<!-- Generated by graphviz version 2.43.0 (0)
 -->
<!-- Title: CCTransitionMoveInL Pages: 1 -->
<svg width="404pt" height="357pt"
 viewBox="0.00 0.00 403.50 357.00" xmlns="http://www.w3.org/2000/svg" xmlns:xlink="http://www.w3.org/1999/xlink">
<g id="graph0" class="graph" transform="scale(1 1) rotate(0) translate(4 353)">
<title>CCTransitionMoveInL</title>
<!-- Node1 -->
<g id="node1" class="node">
<title>Node1</title>
<g id="a_node1"><a xlink:title="CCTransitionMoveInL: Move in from to the left the incoming scene.">
<polygon fill="#999999" stroke="#666666" points="257.5,-74 138.5,-74 138.5,-55 257.5,-55 257.5,-74"/>
<text text-anchor="middle" x="198" y="-62" font-family="Helvetica,sans-Serif" font-size="10.00">CCTransitionMoveInL</text>
</a>
</g>
</g>
<!-- Node8 -->
<g id="node8" class="node">
<title>Node8</title>
<g id="a_node8"><a xlink:href="../../d2/d89/classcocos2d_1_1_c_c_transition_move_in_b.html" target="_top" xlink:title="CCTransitionMoveInB: Move in from to the bottom the incoming scene.">
<polygon fill="white" stroke="#666666" points="120,-19 0,-19 0,0 120,0 120,-19"/>
<text text-anchor="middle" x="60" y="-7" font-family="Helvetica,sans-Serif" font-size="10.00">CCTransitionMoveInB</text>
</a>
</g>
</g>
<!-- Node1&#45;&gt;Node8 -->
<g id="edge7" class="edge">
<title>Node1&#45;&gt;Node8</title>
<path fill="none" stroke="#63b8ff" d="M166.21,-51.29C140.63,-41.47 105.33,-27.91 82.58,-19.17"/>
<polygon fill="#63b8ff" stroke="#63b8ff" points="165.24,-54.67 175.83,-54.98 167.75,-48.13 165.24,-54.67"/>
</g>
<!-- Node9 -->
<g id="node9" class="node">
<title>Node9</title>
<g id="a_node9"><a xlink:href="../../dc/d98/classcocos2d_1_1_c_c_transition_move_in_r.html" target="_top" xlink:title="CCTransitionMoveInR: Move in from to the right the incoming scene.">
<polygon fill="white" stroke="#666666" points="258,-19 138,-19 138,0 258,0 258,-19"/>
<text text-anchor="middle" x="198" y="-7" font-family="Helvetica,sans-Serif" font-size="10.00">CCTransitionMoveInR</text>
</a>
</g>
</g>
<!-- Node1&#45;&gt;Node9 -->
<g id="edge8" class="edge">
<title>Node1&#45;&gt;Node9</title>
<path fill="none" stroke="#63b8ff" d="M198,-44.66C198,-35.93 198,-25.99 198,-19.09"/>
<polygon fill="#63b8ff" stroke="#63b8ff" points="194.5,-44.75 198,-54.75 201.5,-44.75 194.5,-44.75"/>
</g>
<!-- Node10 -->
<g id="node10" class="node">
<title>Node10</title>
<g id="a_node10"><a xlink:href="../../d9/d5f/classcocos2d_1_1_c_c_transition_move_in_t.html" target="_top" xlink:title="CCTransitionMoveInT: Move in from to the top the incoming scene.">
<polygon fill="white" stroke="#666666" points="395.5,-19 276.5,-19 276.5,0 395.5,0 395.5,-19"/>
<text text-anchor="middle" x="336" y="-7" font-family="Helvetica,sans-Serif" font-size="10.00">CCTransitionMoveInT</text>
</a>
</g>
</g>
<!-- Node1&#45;&gt;Node10 -->
<g id="edge9" class="edge">
<title>Node1&#45;&gt;Node10</title>
<path fill="none" stroke="#63b8ff" d="M229.79,-51.29C255.37,-41.47 290.67,-27.91 313.42,-19.17"/>
<polygon fill="#63b8ff" stroke="#63b8ff" points="228.25,-48.13 220.17,-54.98 230.76,-54.67 228.25,-48.13"/>
</g>
<!-- Node2 -->
<g id="node2" class="node">
<title>Node2</title>
<g id="a_node2"><a xlink:href="../../d1/dc8/classcocos2d_1_1_c_c_transition_scene.html" target="_top" xlink:title="Base class for CCTransition scenes.">
<polygon fill="white" stroke="#666666" points="183.5,-129 76.5,-129 76.5,-110 183.5,-110 183.5,-129"/>
<text text-anchor="middle" x="130" y="-117" font-family="Helvetica,sans-Serif" font-size="10.00">CCTransitionScene</text>
</a>
</g>
</g>
<!-- Node2&#45;&gt;Node1 -->
<g id="edge1" class="edge">
<title>Node2&#45;&gt;Node1</title>
<path fill="none" stroke="#63b8ff" d="M149.12,-103.6C161.3,-94.11 176.66,-82.13 186.88,-74.17"/>
<polygon fill="#63b8ff" stroke="#63b8ff" points="146.66,-101.08 140.93,-109.98 150.96,-106.6 146.66,-101.08"/>
</g>
<!-- Node3 -->
<g id="node3" class="node">
<title>Node3</title>
<g id="a_node3"><a xlink:href="../../d1/da4/classcocos2d_1_1_c_c_scene.html" target="_top" xlink:title="CCScene is a subclass of CCNode that is used only as an abstract concept.">
<polygon fill="white" stroke="#666666" points="159.5,-184 100.5,-184 100.5,-165 159.5,-165 159.5,-184"/>
<text text-anchor="middle" x="130" y="-172" font-family="Helvetica,sans-Serif" font-size="10.00">CCScene</text>
</a>
</g>
</g>
<!-- Node3&#45;&gt;Node2 -->
<g id="edge2" class="edge">
<title>Node3&#45;&gt;Node2</title>
<path fill="none" stroke="#63b8ff" d="M130,-154.66C130,-145.93 130,-135.99 130,-129.09"/>
<polygon fill="#63b8ff" stroke="#63b8ff" points="126.5,-154.75 130,-164.75 133.5,-154.75 126.5,-154.75"/>
</g>
<!-- Node4 -->
<g id="node4" class="node">
<title>Node4</title>
<g id="a_node4"><a xlink:href="../../d0/ded/classcocos2d_1_1_c_c_node.html" target="_top" xlink:title="CCNode is the main element.">
<polygon fill="white" stroke="#666666" points="158,-239 102,-239 102,-220 158,-220 158,-239"/>
<text text-anchor="middle" x="130" y="-227" font-family="Helvetica,sans-Serif" font-size="10.00">CCNode</text>
</a>
</g>
</g>
<!-- Node4&#45;&gt;Node3 -->
<g id="edge3" class="edge">
<title>Node4&#45;&gt;Node3</title>
<path fill="none" stroke="#63b8ff" d="M130,-209.66C130,-200.93 130,-190.99 130,-184.09"/>
<polygon fill="#63b8ff" stroke="#63b8ff" points="126.5,-209.75 130,-219.75 133.5,-209.75 126.5,-209.75"/>
</g>
<!-- Node5 -->
<g id="node5" class="node">
<title>Node5</title>
<g id="a_node5"><a xlink:href="../../d3/dbf/classcocos2d_1_1_c_c_object.html" target="_top" xlink:title="NA.">
<polygon fill="white" stroke="#666666" points="161,-294 99,-294 99,-275 161,-275 161,-294"/>
<text text-anchor="middle" x="130" y="-282" font-family="Helvetica,sans-Serif" font-size="10.00">CCObject</text>
</a>
</g>
</g>
<!-- Node5&#45;&gt;Node4 -->
<g id="edge4" class="edge">
<title>Node5&#45;&gt;Node4</title>
<path fill="none" stroke="#63b8ff" d="M130,-264.66C130,-255.93 130,-245.99 130,-239.09"/>
<polygon fill="#63b8ff" stroke="#63b8ff" points="126.5,-264.75 130,-274.75 133.5,-264.75 126.5,-264.75"/>
</g>
<!-- Node6 -->
<g id="node6" class="node">
<title>Node6</title>
<g id="a_node6"><a xlink:href="../../d5/d61/classcocos2d_1_1_c_c_copying.html" target="_top" xlink:title="NA NA.">
<polygon fill="white" stroke="#666666" points="165,-349 95,-349 95,-330 165,-330 165,-349"/>
<text text-anchor="middle" x="130" y="-337" font-family="Helvetica,sans-Serif" font-size="10.00">CCCopying</text>
</a>
</g>
</g>
<!-- Node6&#45;&gt;Node5 -->
<g id="edge5" class="edge">
<title>Node6&#45;&gt;Node5</title>
<path fill="none" stroke="#63b8ff" d="M130,-319.66C130,-310.93 130,-300.99 130,-294.09"/>
<polygon fill="#63b8ff" stroke="#63b8ff" points="126.5,-319.75 130,-329.75 133.5,-319.75 126.5,-319.75"/>
</g>
<!-- Node7 -->
<g id="node7" class="node">
<title>Node7</title>
<g id="a_node7"><a xlink:href="../../d7/d1a/classcocos2d_1_1_c_c_transition_ease_scene.html" target="_top" xlink:title="CCTransitionEaseScene can ease the actions of the scene protocol.">
<polygon fill="white" stroke="#666666" points="332,-129 202,-129 202,-110 332,-110 332,-129"/>
<text text-anchor="middle" x="267" y="-117" font-family="Helvetica,sans-Serif" font-size="10.00">CCTransitionEaseScene</text>
</a>
</g>
</g>
<!-- Node7&#45;&gt;Node1 -->
<g id="edge6" class="edge">
<title>Node7&#45;&gt;Node1</title>
<path fill="none" stroke="#63b8ff" d="M247.96,-103.88C235.54,-94.34 219.76,-82.21 209.29,-74.17"/>
<polygon fill="#63b8ff" stroke="#63b8ff" points="245.85,-106.67 255.91,-109.98 250.12,-101.12 245.85,-106.67"/>
</g>
</g>
</svg>
