<?xml version="1.0" encoding="UTF-8" standalone="no"?>
<!DOCTYPE svg PUBLIC "-//W3C//DTD SVG 1.1//EN"
 "http://www.w3.org/Graphics/SVG/1.1/DTD/svg11.dtd">
<!-- Generated by graphviz version 2.43.0 (0)
 -->
<!-- Title: CCTransitionMoveInL Pages: 1 -->
<svg width="404pt" height="364pt"
 viewBox="0.00 0.00 403.50 364.00" xmlns="http://www.w3.org/2000/svg" xmlns:xlink="http://www.w3.org/1999/xlink">
<g id="graph0" class="graph" transform="scale(1 1) rotate(0) translate(4 360)">
<title>CCTransitionMoveInL</title>
<!-- Node1 -->
<g id="node1" class="node">
<title>Node1</title>
<g id="a_node1"><a xlink:title="CCTransitionMoveInL: Move in from to the left the incoming scene.">
<polygon fill="#bfbfbf" stroke="black" points="138.5,-56.5 138.5,-75.5 257.5,-75.5 257.5,-56.5 138.5,-56.5"/>
<text text-anchor="middle" x="198" y="-63.5" font-family="Helvetica,sans-Serif" font-size="10.00">CCTransitionMoveInL</text>
</a>
</g>
</g>
<!-- Node8 -->
<g id="node8" class="node">
<title>Node8</title>
<g id="a_node8"><a xlink:href="../../d2/d89/classcocos2d_1_1_c_c_transition_move_in_b.html" target="_top" xlink:title="CCTransitionMoveInB: Move in from to the bottom the incoming scene.">
<polygon fill="none" stroke="black" points="0,-0.5 0,-19.5 120,-19.5 120,-0.5 0,-0.5"/>
<text text-anchor="middle" x="60" y="-7.5" font-family="Helvetica,sans-Serif" font-size="10.00">CCTransitionMoveInB</text>
</a>
</g>
</g>
<!-- Node1&#45;&gt;Node8 -->
<g id="edge7" class="edge">
<title>Node1&#45;&gt;Node8</title>
<path fill="none" stroke="midnightblue" d="M166.75,-52.77C140.83,-42.63 104.64,-28.47 81.76,-19.52"/>
<polygon fill="midnightblue" stroke="midnightblue" points="165.55,-56.06 176.13,-56.44 168.1,-49.54 165.55,-56.06"/>
</g>
<!-- Node9 -->
<g id="node9" class="node">
<title>Node9</title>
<g id="a_node9"><a xlink:href="../../dc/d98/classcocos2d_1_1_c_c_transition_move_in_r.html" target="_top" xlink:title="CCTransitionMoveInR: Move in from to the right the incoming scene.">
<polygon fill="none" stroke="black" points="138,-0.5 138,-19.5 258,-19.5 258,-0.5 138,-0.5"/>
<text text-anchor="middle" x="198" y="-7.5" font-family="Helvetica,sans-Serif" font-size="10.00">CCTransitionMoveInR</text>
</a>
</g>
</g>
<!-- Node1&#45;&gt;Node9 -->
<g id="edge8" class="edge">
<title>Node1&#45;&gt;Node9</title>
<path fill="none" stroke="midnightblue" d="M198,-45.8C198,-36.91 198,-26.78 198,-19.75"/>
<polygon fill="midnightblue" stroke="midnightblue" points="194.5,-46.08 198,-56.08 201.5,-46.08 194.5,-46.08"/>
</g>
<!-- Node10 -->
<g id="node10" class="node">
<title>Node10</title>
<g id="a_node10"><a xlink:href="../../d9/d5f/classcocos2d_1_1_c_c_transition_move_in_t.html" target="_top" xlink:title="CCTransitionMoveInT: Move in from to the top the incoming scene.">
<polygon fill="none" stroke="black" points="276.5,-0.5 276.5,-19.5 395.5,-19.5 395.5,-0.5 276.5,-0.5"/>
<text text-anchor="middle" x="336" y="-7.5" font-family="Helvetica,sans-Serif" font-size="10.00">CCTransitionMoveInT</text>
</a>
</g>
</g>
<!-- Node1&#45;&gt;Node10 -->
<g id="edge9" class="edge">
<title>Node1&#45;&gt;Node10</title>
<path fill="none" stroke="midnightblue" d="M229.25,-52.77C255.17,-42.63 291.36,-28.47 314.24,-19.52"/>
<polygon fill="midnightblue" stroke="midnightblue" points="227.9,-49.54 219.87,-56.44 230.45,-56.06 227.9,-49.54"/>
</g>
<!-- Node2 -->
<g id="node2" class="node">
<title>Node2</title>
<g id="a_node2"><a xlink:href="../../d1/dc8/classcocos2d_1_1_c_c_transition_scene.html" target="_top" xlink:title="Base class for CCTransition scenes.">
<polygon fill="none" stroke="black" points="76.5,-112.5 76.5,-131.5 183.5,-131.5 183.5,-112.5 76.5,-112.5"/>
<text text-anchor="middle" x="130" y="-119.5" font-family="Helvetica,sans-Serif" font-size="10.00">CCTransitionScene</text>
</a>
</g>
</g>
<!-- Node2&#45;&gt;Node1 -->
<g id="edge1" class="edge">
<title>Node2&#45;&gt;Node1</title>
<path fill="none" stroke="midnightblue" d="M148.76,-106.1C161,-96.38 176.56,-84.03 186.88,-75.83"/>
<polygon fill="midnightblue" stroke="midnightblue" points="146.58,-103.36 140.93,-112.32 150.93,-108.85 146.58,-103.36"/>
</g>
<!-- Node3 -->
<g id="node3" class="node">
<title>Node3</title>
<g id="a_node3"><a xlink:href="../../d1/da4/classcocos2d_1_1_c_c_scene.html" target="_top" xlink:title="CCScene is a subclass of CCNode that is used only as an abstract concept.">
<polygon fill="none" stroke="black" points="100.5,-168.5 100.5,-187.5 159.5,-187.5 159.5,-168.5 100.5,-168.5"/>
<text text-anchor="middle" x="130" y="-175.5" font-family="Helvetica,sans-Serif" font-size="10.00">CCScene</text>
</a>
</g>
</g>
<!-- Node3&#45;&gt;Node2 -->
<g id="edge2" class="edge">
<title>Node3&#45;&gt;Node2</title>
<path fill="none" stroke="midnightblue" d="M130,-157.8C130,-148.91 130,-138.78 130,-131.75"/>
<polygon fill="midnightblue" stroke="midnightblue" points="126.5,-158.08 130,-168.08 133.5,-158.08 126.5,-158.08"/>
</g>
<!-- Node4 -->
<g id="node4" class="node">
<title>Node4</title>
<g id="a_node4"><a xlink:href="../../d0/ded/classcocos2d_1_1_c_c_node.html" target="_top" xlink:title="CCNode is the main element.">
<polygon fill="none" stroke="black" points="102,-224.5 102,-243.5 158,-243.5 158,-224.5 102,-224.5"/>
<text text-anchor="middle" x="130" y="-231.5" font-family="Helvetica,sans-Serif" font-size="10.00">CCNode</text>
</a>
</g>
</g>
<!-- Node4&#45;&gt;Node3 -->
<g id="edge3" class="edge">
<title>Node4&#45;&gt;Node3</title>
<path fill="none" stroke="midnightblue" d="M130,-213.8C130,-204.91 130,-194.78 130,-187.75"/>
<polygon fill="midnightblue" stroke="midnightblue" points="126.5,-214.08 130,-224.08 133.5,-214.08 126.5,-214.08"/>
</g>
<!-- Node5 -->
<g id="node5" class="node">
<title>Node5</title>
<g id="a_node5"><a xlink:href="../../d3/dbf/classcocos2d_1_1_c_c_object.html" target="_top" xlink:title="NA.">
<polygon fill="none" stroke="black" points="99,-280.5 99,-299.5 161,-299.5 161,-280.5 99,-280.5"/>
<text text-anchor="middle" x="130" y="-287.5" font-family="Helvetica,sans-Serif" font-size="10.00">CCObject</text>
</a>
</g>
</g>
<!-- Node5&#45;&gt;Node4 -->
<g id="edge4" class="edge">
<title>Node5&#45;&gt;Node4</title>
<path fill="none" stroke="midnightblue" d="M130,-269.8C130,-260.91 130,-250.78 130,-243.75"/>
<polygon fill="midnightblue" stroke="midnightblue" points="126.5,-270.08 130,-280.08 133.5,-270.08 126.5,-270.08"/>
</g>
<!-- Node6 -->
<g id="node6" class="node">
<title>Node6</title>
<g id="a_node6"><a xlink:href="../../d5/d61/classcocos2d_1_1_c_c_copying.html" target="_top" xlink:title="NA NA.">
<polygon fill="none" stroke="black" points="95,-336.5 95,-355.5 165,-355.5 165,-336.5 95,-336.5"/>
<text text-anchor="middle" x="130" y="-343.5" font-family="Helvetica,sans-Serif" font-size="10.00">CCCopying</text>
</a>
</g>
</g>
<!-- Node6&#45;&gt;Node5 -->
<g id="edge5" class="edge">
<title>Node6&#45;&gt;Node5</title>
<path fill="none" stroke="midnightblue" d="M130,-325.8C130,-316.91 130,-306.78 130,-299.75"/>
<polygon fill="midnightblue" stroke="midnightblue" points="126.5,-326.08 130,-336.08 133.5,-326.08 126.5,-326.08"/>
</g>
<!-- Node7 -->
<g id="node7" class="node">
<title>Node7</title>
<g id="a_node7"><a xlink:href="../../d7/d1a/classcocos2d_1_1_c_c_transition_ease_scene.html" target="_top" xlink:title="CCTransitionEaseScene can ease the actions of the scene protocol.">
<polygon fill="none" stroke="black" points="202,-112.5 202,-131.5 332,-131.5 332,-112.5 202,-112.5"/>
<text text-anchor="middle" x="267" y="-119.5" font-family="Helvetica,sans-Serif" font-size="10.00">CCTransitionEaseScene</text>
</a>
</g>
</g>
<!-- Node7&#45;&gt;Node1 -->
<g id="edge6" class="edge">
<title>Node7&#45;&gt;Node1</title>
<path fill="none" stroke="midnightblue" d="M247.96,-106.1C235.54,-96.38 219.76,-84.03 209.29,-75.83"/>
<polygon fill="midnightblue" stroke="midnightblue" points="245.88,-108.92 255.91,-112.32 250.2,-103.4 245.88,-108.92"/>
</g>
</g>
</svg>
