<?xml version="1.0" encoding="UTF-8" standalone="no"?>
<!DOCTYPE svg PUBLIC "-//W3C//DTD SVG 1.1//EN"
 "http://www.w3.org/Graphics/SVG/1.1/DTD/svg11.dtd">
<!-- Generated by graphviz version 2.43.0 (0)
 -->
<!-- Title: CCTMXLayer Pages: 1 -->
<svg width="1867pt" height="1015pt"
 viewBox="0.00 0.00 1867.00 1014.50" xmlns="http://www.w3.org/2000/svg" xmlns:xlink="http://www.w3.org/1999/xlink">
<g id="graph0" class="graph" transform="scale(1 1) rotate(0) translate(4 1010.5)">
<title>CCTMXLayer</title>
<!-- Node1 -->
<g id="node1" class="node">
<title>Node1</title>
<g id="a_node1"><a xlink:title="CCTMXLayer represents the TMX layer.">
<polygon fill="#999999" stroke="#666666" points="1859,-909 1780,-909 1780,-890 1859,-890 1859,-909"/>
<text text-anchor="middle" x="1819.5" y="-897" font-family="Helvetica,sans-Serif" font-size="10.00">CCTMXLayer</text>
</a>
</g>
</g>
<!-- Node2 -->
<g id="node2" class="node">
<title>Node2</title>
<g id="a_node2"><a xlink:href="../../dd/d95/classcocos2d_1_1_c_c_sprite_batch_node.html" target="_top" xlink:title="CCSpriteBatchNode is like a batch node: if it contains children, it will draw them in 1 single OpenGL...">
<polygon fill="white" stroke="#666666" points="1480,-293 1368,-293 1368,-274 1480,-274 1480,-293"/>
<text text-anchor="middle" x="1424" y="-281" font-family="Helvetica,sans-Serif" font-size="10.00">CCSpriteBatchNode</text>
</a>
</g>
</g>
<!-- Node2&#45;&gt;Node1 -->
<g id="edge1" class="edge">
<title>Node2&#45;&gt;Node1</title>
<path fill="none" stroke="#63b8ff" d="M1490.49,-279C1521.36,-279.36 1557.92,-283.5 1588,-297.5 1702.93,-350.98 1716.97,-405 1762,-523.5 1814.52,-661.72 1818.39,-845.93 1818.53,-889.82"/>
<polygon fill="#63b8ff" stroke="#63b8ff" points="1490.26,-275.5 1480.26,-279.01 1490.27,-282.5 1490.26,-275.5"/>
</g>
<!-- Node30 -->
<g id="node30" class="node">
<title>Node30</title>
<g id="a_node30"><a xlink:href="../../d4/de7/classcocos2d_1_1_c_c_sprite.html" target="_top" xlink:title="CCSprite is a 2d image ( http://en.wikipedia.org/wiki/Sprite_(computer_graphics) )">
<polygon fill="white" stroke="#666666" points="1665,-402 1606,-402 1606,-383 1665,-383 1665,-402"/>
<text text-anchor="middle" x="1635.5" y="-390" font-family="Helvetica,sans-Serif" font-size="10.00">CCSprite</text>
</a>
</g>
</g>
<!-- Node2&#45;&gt;Node30 -->
<g id="edge59" class="edge">
<title>Node2&#45;&gt;Node30</title>
<path fill="none" stroke="#9a32cd" stroke-dasharray="5,2" d="M1490.15,-294.58C1531.88,-302.1 1579.72,-311.71 1588,-317.5 1611.6,-334.02 1625.61,-366.72 1631.39,-382.93"/>
<polygon fill="#9a32cd" stroke="#9a32cd" points="1490.72,-291.12 1480.26,-292.81 1489.49,-298.01 1490.72,-291.12"/>
<text text-anchor="middle" x="1543" y="-320.5" font-family="Helvetica,sans-Serif" font-size="10.00"> m_pobBatchNode</text>
</g>
<!-- Node3 -->
<g id="node3" class="node">
<title>Node3</title>
<g id="a_node3"><a xlink:href="../../d0/ded/classcocos2d_1_1_c_c_node.html" target="_top" xlink:title="CCNode is the main element.">
<polygon fill="white" stroke="#666666" points="1184,-517 1128,-517 1128,-498 1184,-498 1184,-517"/>
<text text-anchor="middle" x="1156" y="-505" font-family="Helvetica,sans-Serif" font-size="10.00">CCNode</text>
</a>
</g>
</g>
<!-- Node3&#45;&gt;Node2 -->
<g id="edge2" class="edge">
<title>Node3&#45;&gt;Node2</title>
<path fill="none" stroke="#63b8ff" d="M1174.69,-490.35C1210.1,-456.37 1292.75,-378.75 1368,-320.5 1380.92,-310.5 1396.43,-300.21 1407.68,-293.03"/>
<polygon fill="#63b8ff" stroke="#63b8ff" points="1171.89,-488.19 1167.12,-497.65 1176.75,-493.23 1171.89,-488.19"/>
</g>
<!-- Node3&#45;&gt;Node3 -->
<g id="edge24" class="edge">
<title>Node3&#45;&gt;Node3</title>
<path fill="none" stroke="#9a32cd" stroke-dasharray="5,2" d="M1129.96,-526.19C1131.38,-531.2 1140.06,-535 1156,-535 1180.88,-535 1188.08,-525.73 1177.58,-517.08"/>
<polygon fill="#9a32cd" stroke="#9a32cd" points="1133.16,-527.6 1134.42,-517.08 1126.88,-524.52 1133.16,-527.6"/>
<text text-anchor="middle" x="1156" y="-538" font-family="Helvetica,sans-Serif" font-size="10.00"> m_pParent</text>
</g>
<!-- Node31 -->
<g id="node31" class="node">
<title>Node31</title>
<g id="a_node31"><a xlink:href="../../de/d2e/classcocos2d_1_1_c_c_node_r_g_b_a.html" target="_top" xlink:title="CCNodeRGBA is a subclass of CCNode that implements the CCRGBAProtocol protocol.">
<polygon fill="white" stroke="#666666" points="1465.5,-566 1382.5,-566 1382.5,-547 1465.5,-547 1465.5,-566"/>
<text text-anchor="middle" x="1424" y="-554" font-family="Helvetica,sans-Serif" font-size="10.00">CCNodeRGBA</text>
</a>
</g>
</g>
<!-- Node3&#45;&gt;Node31 -->
<g id="edge54" class="edge">
<title>Node3&#45;&gt;Node31</title>
<path fill="none" stroke="#63b8ff" d="M1194.45,-514.4C1244.03,-523.53 1331.14,-539.58 1382.3,-549"/>
<polygon fill="#63b8ff" stroke="#63b8ff" points="1194.93,-510.93 1184.46,-512.56 1193.67,-517.81 1194.93,-510.93"/>
</g>
<!-- Node4 -->
<g id="node4" class="node">
<title>Node4</title>
<g id="a_node4"><a xlink:href="../../d3/dbf/classcocos2d_1_1_c_c_object.html" target="_top" xlink:title="NA.">
<polygon fill="white" stroke="#666666" points="183,-496 121,-496 121,-477 183,-477 183,-496"/>
<text text-anchor="middle" x="152" y="-484" font-family="Helvetica,sans-Serif" font-size="10.00">CCObject</text>
</a>
</g>
</g>
<!-- Node4&#45;&gt;Node3 -->
<g id="edge3" class="edge">
<title>Node4&#45;&gt;Node3</title>
<path fill="none" stroke="#63b8ff" d="M156.69,-506.14C163.85,-541.03 181.94,-615.21 215,-669.5 278.27,-773.39 293.04,-818.94 405,-866.5 543.61,-925.39 984.35,-847.39 1067,-721.5 1107.73,-659.46 1046.92,-619.19 1085,-555.5 1095.66,-537.67 1115.81,-524.92 1131.77,-517.06"/>
<polygon fill="#63b8ff" stroke="#63b8ff" points="160.11,-505.41 154.74,-496.27 153.24,-506.76 160.11,-505.41"/>
</g>
<!-- Node4&#45;&gt;Node3 -->
<g id="edge25" class="edge">
<title>Node4&#45;&gt;Node3</title>
<path fill="none" stroke="#9a32cd" stroke-dasharray="5,2" d="M163.09,-504.71C173.68,-521.98 191.97,-547.21 215,-560.5 429.85,-684.51 522.67,-657.84 769,-628.5 904.3,-612.39 940.09,-606.1 1067,-556.5 1094.36,-545.81 1123.71,-528.05 1140.65,-517.1"/>
<polygon fill="#9a32cd" stroke="#9a32cd" points="166.1,-502.91 158.02,-496.06 160.06,-506.45 166.1,-502.91"/>
<text text-anchor="middle" x="575" y="-655.5" font-family="Helvetica,sans-Serif" font-size="10.00"> m_pUserObject</text>
</g>
<!-- Node9 -->
<g id="node9" class="node">
<title>Node9</title>
<g id="a_node9"><a xlink:href="../../d2/d51/classcocos2d_1_1_c_c_camera.html" target="_top" xlink:title="A CCCamera is used in every CCNode.">
<polygon fill="white" stroke="#666666" points="489,-559 421,-559 421,-540 489,-540 489,-559"/>
<text text-anchor="middle" x="455" y="-547" font-family="Helvetica,sans-Serif" font-size="10.00">CCCamera</text>
</a>
</g>
</g>
<!-- Node4&#45;&gt;Node9 -->
<g id="edge9" class="edge">
<title>Node4&#45;&gt;Node9</title>
<path fill="none" stroke="#63b8ff" d="M168.03,-504.1C179.52,-516.18 196.5,-531.28 215,-538.5 284.27,-565.52 373.52,-560.13 420.94,-554.45"/>
<polygon fill="#63b8ff" stroke="#63b8ff" points="170.31,-501.4 161,-496.35 165.13,-506.11 170.31,-501.4"/>
</g>
<!-- Node10 -->
<g id="node10" class="node">
<title>Node10</title>
<g id="a_node10"><a xlink:href="../../d6/d70/classcocos2d_1_1_c_c_grid_base.html" target="_top" xlink:title="Base class for other.">
<polygon fill="white" stroke="#666666" points="891,-537 817,-537 817,-518 891,-518 891,-537"/>
<text text-anchor="middle" x="854" y="-525" font-family="Helvetica,sans-Serif" font-size="10.00">CCGridBase</text>
</a>
</g>
</g>
<!-- Node4&#45;&gt;Node10 -->
<g id="edge11" class="edge">
<title>Node4&#45;&gt;Node10</title>
<path fill="none" stroke="#63b8ff" d="M192.02,-498.66C199.58,-500.6 207.48,-502.34 215,-503.5 441.78,-538.38 718.95,-532.54 816.75,-529.03"/>
<polygon fill="#63b8ff" stroke="#63b8ff" points="192.91,-495.28 182.34,-496.03 191.08,-502.03 192.91,-495.28"/>
</g>
<!-- Node11 -->
<g id="node11" class="node">
<title>Node11</title>
<g id="a_node11"><a xlink:href="../../d7/dfd/classcocos2d_1_1_c_c_texture2_d.html" target="_top" xlink:title="CCTexture2D class.">
<polygon fill="white" stroke="#666666" points="615,-364 535,-364 535,-345 615,-345 615,-364"/>
<text text-anchor="middle" x="575" y="-352" font-family="Helvetica,sans-Serif" font-size="10.00">CCTexture2D</text>
</a>
</g>
</g>
<!-- Node4&#45;&gt;Node11 -->
<g id="edge14" class="edge">
<title>Node4&#45;&gt;Node11</title>
<path fill="none" stroke="#63b8ff" d="M169.83,-469.81C181.75,-458.59 198.49,-443.99 215,-433.5 293.23,-383.78 314.39,-367.05 405,-347.5 448.77,-338.05 500.37,-342.35 534.93,-347.36"/>
<polygon fill="#63b8ff" stroke="#63b8ff" points="167.19,-467.49 162.41,-476.95 172.04,-472.54 167.19,-467.49"/>
</g>
<!-- Node12 -->
<g id="node12" class="node">
<title>Node12</title>
<g id="a_node12"><a xlink:href="../../db/d28/classcocos2d_1_1_c_c_g_l_program.html" target="_top" xlink:title="CCGLProgram Class that implements a glProgram.">
<polygon fill="white" stroke="#666666" points="387,-425 303,-425 303,-406 387,-406 387,-425"/>
<text text-anchor="middle" x="345" y="-413" font-family="Helvetica,sans-Serif" font-size="10.00">CCGLProgram</text>
</a>
</g>
</g>
<!-- Node4&#45;&gt;Node12 -->
<g id="edge17" class="edge">
<title>Node4&#45;&gt;Node12</title>
<path fill="none" stroke="#63b8ff" d="M188.33,-473.37C226.03,-459.35 284.84,-437.49 318.34,-425.04"/>
<polygon fill="#63b8ff" stroke="#63b8ff" points="186.91,-470.16 178.76,-476.92 189.35,-476.72 186.91,-470.16"/>
</g>
<!-- Node13 -->
<g id="node13" class="node">
<title>Node13</title>
<g id="a_node13"><a xlink:href="../../d3/d89/classcocos2d_1_1_c_c_grabber.html" target="_top" xlink:title="FBO class that grabs the the contents of the screen NA NA.">
<polygon fill="white" stroke="#666666" points="489.5,-507 420.5,-507 420.5,-488 489.5,-488 489.5,-507"/>
<text text-anchor="middle" x="455" y="-495" font-family="Helvetica,sans-Serif" font-size="10.00">CCGrabber</text>
</a>
</g>
</g>
<!-- Node4&#45;&gt;Node13 -->
<g id="edge20" class="edge">
<title>Node4&#45;&gt;Node13</title>
<path fill="none" stroke="#63b8ff" d="M193.44,-487.98C253.27,-490.16 364.31,-494.22 420.12,-496.26"/>
<polygon fill="#63b8ff" stroke="#63b8ff" points="193.36,-484.47 183.24,-487.61 193.1,-491.47 193.36,-484.47"/>
</g>
<!-- Node14 -->
<g id="node14" class="node">
<title>Node14</title>
<g id="a_node14"><a xlink:href="../../d9/d2e/classcocos2d_1_1_c_c_array.html" target="_top" xlink:title="NA.">
<polygon fill="white" stroke="#666666" points="603,-305 547,-305 547,-286 603,-286 603,-305"/>
<text text-anchor="middle" x="575" y="-293" font-family="Helvetica,sans-Serif" font-size="10.00">CCArray</text>
</a>
</g>
</g>
<!-- Node4&#45;&gt;Node14 -->
<g id="edge23" class="edge">
<title>Node4&#45;&gt;Node14</title>
<path fill="none" stroke="#63b8ff" d="M160.47,-467.4C170.07,-445.08 188.69,-408.3 215,-385.5 313.58,-300.09 481.56,-293.54 546.89,-294.49"/>
<polygon fill="#63b8ff" stroke="#63b8ff" points="157.17,-466.23 156.6,-476.81 163.64,-468.9 157.17,-466.23"/>
</g>
<!-- Node15 -->
<g id="node15" class="node">
<title>Node15</title>
<g id="a_node15"><a xlink:href="../../de/dee/classcocos2d_1_1_c_c_scheduler.html" target="_top" xlink:title="Scheduler is responsible for triggering the scheduled callbacks.">
<polygon fill="white" stroke="#666666" points="893,-254 815,-254 815,-235 893,-235 893,-254"/>
<text text-anchor="middle" x="854" y="-242" font-family="Helvetica,sans-Serif" font-size="10.00">CCScheduler</text>
</a>
</g>
</g>
<!-- Node4&#45;&gt;Node15 -->
<g id="edge28" class="edge">
<title>Node4&#45;&gt;Node15</title>
<path fill="none" stroke="#63b8ff" d="M155.91,-466.69C161.6,-434.9 177.12,-372.42 215,-336.5 302,-254.02 690.25,-245.16 814.57,-244.46"/>
<polygon fill="#63b8ff" stroke="#63b8ff" points="152.4,-466.48 154.24,-476.91 159.31,-467.61 152.4,-466.48"/>
</g>
<!-- Node16 -->
<g id="node16" class="node">
<title>Node16</title>
<g id="a_node16"><a xlink:href="../../d5/dcb/classcocos2d_1_1_c_c_action_manager.html" target="_top" xlink:title="CCActionManager is a singleton that manages all the actions.">
<polygon fill="white" stroke="#666666" points="759,-211 655,-211 655,-192 759,-192 759,-211"/>
<text text-anchor="middle" x="707" y="-199" font-family="Helvetica,sans-Serif" font-size="10.00">CCActionManager</text>
</a>
</g>
</g>
<!-- Node4&#45;&gt;Node16 -->
<g id="edge31" class="edge">
<title>Node4&#45;&gt;Node16</title>
<path fill="none" stroke="#63b8ff" d="M154.63,-466.7C159.67,-410.82 177,-253.96 215,-222.5 352.53,-108.66 593.28,-166.89 676.62,-191.96"/>
<polygon fill="#63b8ff" stroke="#63b8ff" points="151.14,-466.47 153.76,-476.73 158.11,-467.07 151.14,-466.47"/>
</g>
<!-- Node20 -->
<g id="node20" class="node">
<title>Node20</title>
<g id="a_node20"><a xlink:href="../../df/d3a/classcocos2d_1_1_c_c_texture_atlas.html" target="_top" xlink:title="A class that implements a Texture Atlas.">
<polygon fill="white" stroke="#666666" points="1201.5,-183 1110.5,-183 1110.5,-164 1201.5,-164 1201.5,-183"/>
<text text-anchor="middle" x="1156" y="-171" font-family="Helvetica,sans-Serif" font-size="10.00">CCTextureAtlas</text>
</a>
</g>
</g>
<!-- Node4&#45;&gt;Node20 -->
<g id="edge36" class="edge">
<title>Node4&#45;&gt;Node20</title>
<path fill="none" stroke="#63b8ff" d="M154.65,-466.67C160.06,-406.06 178.98,-224.61 215,-179.5 254.22,-130.38 281.14,-121.5 344,-121.5 344,-121.5 344,-121.5 855,-121.5 953.32,-121.5 1067.14,-148.95 1122.03,-163.96"/>
<polygon fill="#63b8ff" stroke="#63b8ff" points="151.15,-466.55 153.78,-476.82 158.13,-467.16 151.15,-466.55"/>
</g>
<!-- Node27 -->
<g id="node27" class="node">
<title>Node27</title>
<g id="a_node27"><a xlink:href="../../dc/dff/classcocos2d_1_1_c_c_t_m_x_tileset_info.html" target="_top" xlink:title="CCTMXTilesetInfo contains the information about the tilesets like:">
<polygon fill="white" stroke="#666666" points="627,-947 523,-947 523,-928 627,-928 627,-947"/>
<text text-anchor="middle" x="575" y="-935" font-family="Helvetica,sans-Serif" font-size="10.00">CCTMXTilesetInfo</text>
</a>
</g>
</g>
<!-- Node4&#45;&gt;Node27 -->
<g id="edge47" class="edge">
<title>Node4&#45;&gt;Node27</title>
<path fill="none" stroke="#63b8ff" d="M152.98,-506.39C153.35,-580.62 158.71,-839.96 215,-894.5 257.77,-935.94 434.37,-939.57 522.91,-938.68"/>
<polygon fill="#63b8ff" stroke="#63b8ff" points="156.48,-506.12 152.96,-496.13 149.48,-506.14 156.48,-506.12"/>
</g>
<!-- Node28 -->
<g id="node28" class="node">
<title>Node28</title>
<g id="a_node28"><a xlink:href="../../d7/d5f/classcocos2d_1_1_c_c_dictionary.html" target="_top" xlink:title="CCDictionary is a class like NSDictionary in Obj&#45;C .">
<polygon fill="white" stroke="#666666" points="385,-1002 305,-1002 305,-983 385,-983 385,-1002"/>
<text text-anchor="middle" x="345" y="-990" font-family="Helvetica,sans-Serif" font-size="10.00">CCDictionary</text>
</a>
</g>
</g>
<!-- Node4&#45;&gt;Node28 -->
<g id="edge50" class="edge">
<title>Node4&#45;&gt;Node28</title>
<path fill="none" stroke="#63b8ff" d="M153.26,-506.28C154.63,-583.7 163.17,-865.31 215,-934.5 236.49,-963.19 275.43,-978.02 304.92,-985.47"/>
<polygon fill="#63b8ff" stroke="#63b8ff" points="156.75,-505.97 153.1,-496.03 149.75,-506.08 156.75,-505.97"/>
</g>
<!-- Node5 -->
<g id="node5" class="node">
<title>Node5</title>
<g id="a_node5"><a xlink:href="../../d5/d61/classcocos2d_1_1_c_c_copying.html" target="_top" xlink:title="NA NA.">
<polygon fill="white" stroke="#666666" points="70,-496 0,-496 0,-477 70,-477 70,-496"/>
<text text-anchor="middle" x="35" y="-484" font-family="Helvetica,sans-Serif" font-size="10.00">CCCopying</text>
</a>
</g>
</g>
<!-- Node5&#45;&gt;Node4 -->
<g id="edge4" class="edge">
<title>Node5&#45;&gt;Node4</title>
<path fill="none" stroke="#63b8ff" d="M80.26,-486.5C93.76,-486.5 108.29,-486.5 120.65,-486.5"/>
<polygon fill="#63b8ff" stroke="#63b8ff" points="80.19,-483 70.19,-486.5 80.19,-490 80.19,-483"/>
</g>
<!-- Node6 -->
<g id="node6" class="node">
<title>Node6</title>
<g id="a_node6"><a xlink:href="../../d2/df3/classcocos2d_1_1_c_c_point.html" target="_top" xlink:title="NA.">
<polygon fill="white" stroke="#666666" points="602.5,-743 547.5,-743 547.5,-724 602.5,-724 602.5,-743"/>
<text text-anchor="middle" x="575" y="-731" font-family="Helvetica,sans-Serif" font-size="10.00">CCPoint</text>
</a>
</g>
</g>
<!-- Node6&#45;&gt;Node3 -->
<g id="edge5" class="edge">
<title>Node6&#45;&gt;Node3</title>
<path fill="none" stroke="#9a32cd" stroke-dasharray="5,2" d="M612.43,-723.42C622.9,-720.68 634.37,-717.83 645,-715.5 656.63,-712.95 1058.44,-648.78 1067,-640.5 1094.75,-613.65 1063.54,-587.6 1085,-555.5 1096.71,-537.98 1117.18,-525.06 1132.97,-517.06"/>
<polygon fill="#9a32cd" stroke="#9a32cd" points="611.52,-720.04 602.75,-725.99 613.31,-726.81 611.52,-720.04"/>
<text text-anchor="middle" x="854" y="-715.5" font-family="Helvetica,sans-Serif" font-size="10.00"> m_obAnchorPoint</text>
<text text-anchor="middle" x="854" y="-704.5" font-family="Helvetica,sans-Serif" font-size="10.00">m_obAnchorPointInPoints</text>
<text text-anchor="middle" x="854" y="-693.5" font-family="Helvetica,sans-Serif" font-size="10.00">m_obPosition</text>
</g>
<!-- Node6&#45;&gt;Node10 -->
<g id="edge18" class="edge">
<title>Node6&#45;&gt;Node10</title>
<path fill="none" stroke="#9a32cd" stroke-dasharray="5,2" d="M590.87,-716.18C601.34,-703.75 615.48,-686.44 627,-670.5 635.67,-658.51 633.54,-651.85 645,-642.5 690.79,-605.14 717.75,-623.93 769,-594.5 798.12,-577.78 827.82,-551.45 842.88,-537.29"/>
<polygon fill="#9a32cd" stroke="#9a32cd" points="588.09,-714.05 584.29,-723.94 593.43,-718.58 588.09,-714.05"/>
<text text-anchor="middle" x="707" y="-645.5" font-family="Helvetica,sans-Serif" font-size="10.00"> m_obStep</text>
</g>
<!-- Node6&#45;&gt;Node30 -->
<g id="edge66" class="edge">
<title>Node6&#45;&gt;Node30</title>
<path fill="none" stroke="#9a32cd" stroke-dasharray="5,2" d="M612.06,-745.97C669.96,-765.95 778.1,-803.04 787,-804.5 1035.38,-845.17 1109.96,-819.17 1350,-743.5 1468.8,-706.05 1521.05,-700.54 1588,-595.5 1629.39,-530.56 1634.1,-433.15 1634.51,-402.26"/>
<polygon fill="#9a32cd" stroke="#9a32cd" points="613.14,-742.64 602.54,-742.69 610.85,-749.26 613.14,-742.64"/>
<text text-anchor="middle" x="1156" y="-840.5" font-family="Helvetica,sans-Serif" font-size="10.00"> m_obOffsetPosition</text>
<text text-anchor="start" x="1085" y="-829.5" font-family="Helvetica,sans-Serif" font-size="10.00">m_obUnflippedOffsetPosition</text>
<text text-anchor="middle" x="1156" y="-818.5" font-family="Helvetica,sans-Serif" font-size="10.00">FromCenter</text>
</g>
<!-- Node34 -->
<g id="node34" class="node">
<title>Node34</title>
<g id="a_node34"><a xlink:href="../../da/d4d/classcocos2d_1_1_c_c_rect.html" target="_top" xlink:title="NA.">
<polygon fill="white" stroke="#666666" points="880,-795 828,-795 828,-776 880,-776 880,-795"/>
<text text-anchor="middle" x="854" y="-783" font-family="Helvetica,sans-Serif" font-size="10.00">CCRect</text>
</a>
</g>
</g>
<!-- Node6&#45;&gt;Node34 -->
<g id="edge64" class="edge">
<title>Node6&#45;&gt;Node34</title>
<path fill="none" stroke="#9a32cd" stroke-dasharray="5,2" d="M612.4,-723.7C653.5,-714.82 720.88,-707.02 769,-735.5 783.04,-743.81 774.13,-757.47 787,-767.5 798.61,-776.56 814.46,-781.06 827.72,-783.3"/>
<polygon fill="#9a32cd" stroke="#9a32cd" points="611.51,-720.31 602.55,-725.96 613.08,-727.14 611.51,-720.31"/>
<text text-anchor="middle" x="707" y="-738.5" font-family="Helvetica,sans-Serif" font-size="10.00"> origin</text>
</g>
<!-- Node7 -->
<g id="node7" class="node">
<title>Node7</title>
<g id="a_node7"><a xlink:href="../../d9/d24/classcocos2d_1_1_c_c_size.html" target="_top" xlink:title="NA.">
<polygon fill="white" stroke="#666666" points="370,-749 320,-749 320,-730 370,-730 370,-749"/>
<text text-anchor="middle" x="345" y="-737" font-family="Helvetica,sans-Serif" font-size="10.00">CCSize</text>
</a>
</g>
</g>
<!-- Node7&#45;&gt;Node1 -->
<g id="edge45" class="edge">
<title>Node7&#45;&gt;Node1</title>
<path fill="none" stroke="#9a32cd" stroke-dasharray="5,2" d="M374.27,-753.67C452.81,-792.8 670.25,-899.5 706,-899.5 706,-899.5 706,-899.5 1636.5,-899.5 1685.95,-899.5 1742.96,-899.5 1779.8,-899.5"/>
<polygon fill="#9a32cd" stroke="#9a32cd" points="375.49,-750.36 364.98,-749.03 372.36,-756.63 375.49,-750.36"/>
<text text-anchor="middle" x="1156" y="-913.5" font-family="Helvetica,sans-Serif" font-size="10.00"> m_tLayerSize</text>
<text text-anchor="middle" x="1156" y="-902.5" font-family="Helvetica,sans-Serif" font-size="10.00">m_tMapTileSize</text>
</g>
<!-- Node7&#45;&gt;Node3 -->
<g id="edge6" class="edge">
<title>Node7&#45;&gt;Node3</title>
<path fill="none" stroke="#9a32cd" stroke-dasharray="5,2" d="M380.35,-732.23C435.86,-720.6 548.8,-697.39 645,-680.5 668.36,-676.4 1049.11,-631.07 1067,-615.5 1088,-597.22 1068.58,-577.99 1085,-555.5 1097.6,-538.24 1118.38,-525.14 1134.04,-517.01"/>
<polygon fill="#9a32cd" stroke="#9a32cd" points="379.42,-728.85 370.35,-734.33 380.86,-735.7 379.42,-728.85"/>
<text text-anchor="middle" x="707" y="-683.5" font-family="Helvetica,sans-Serif" font-size="10.00"> m_obContentSize</text>
</g>
<!-- Node7&#45;&gt;Node10 -->
<g id="edge12" class="edge">
<title>Node7&#45;&gt;Node10</title>
<path fill="none" stroke="#9a32cd" stroke-dasharray="5,2" d="M360.55,-722.14C371.78,-709.49 388.19,-692.53 405,-680.5 501.5,-611.44 532.02,-599.8 645,-563.5 703.62,-544.66 774.88,-535.05 816.94,-530.66"/>
<polygon fill="#9a32cd" stroke="#9a32cd" points="357.88,-719.88 353.97,-729.73 363.17,-724.47 357.88,-719.88"/>
<text text-anchor="middle" x="575" y="-610.5" font-family="Helvetica,sans-Serif" font-size="10.00"> m_sGridSize</text>
</g>
<!-- Node7&#45;&gt;Node11 -->
<g id="edge15" class="edge">
<title>Node7&#45;&gt;Node11</title>
<path fill="none" stroke="#9a32cd" stroke-dasharray="5,2" d="M345.57,-719.88C345.47,-672.72 350.85,-550.92 405,-470.5 441.47,-416.33 512.49,-380.22 549.79,-364.11"/>
<polygon fill="#9a32cd" stroke="#9a32cd" points="342.07,-720 345.68,-729.96 349.07,-719.92 342.07,-720"/>
<text text-anchor="middle" x="455" y="-473.5" font-family="Helvetica,sans-Serif" font-size="10.00"> m_tContentSize</text>
</g>
<!-- Node7&#45;&gt;Node27 -->
<g id="edge48" class="edge">
<title>Node7&#45;&gt;Node27</title>
<path fill="none" stroke="#9a32cd" stroke-dasharray="5,2" d="M356.32,-757.79C366.93,-775.52 384.73,-802.44 405,-821.5 443.27,-857.48 467.98,-847.23 505,-884.5 515.69,-895.26 511.67,-903.41 523,-913.5 529.72,-919.49 538.2,-924.27 546.3,-927.94"/>
<polygon fill="#9a32cd" stroke="#9a32cd" points="359.25,-755.88 351.19,-749 353.21,-759.4 359.25,-755.88"/>
<text text-anchor="middle" x="455" y="-898.5" font-family="Helvetica,sans-Serif" font-size="10.00"> m_tImageSize</text>
<text text-anchor="middle" x="455" y="-887.5" font-family="Helvetica,sans-Serif" font-size="10.00">m_tTileSize</text>
</g>
<!-- Node7&#45;&gt;Node34 -->
<g id="edge65" class="edge">
<title>Node7&#45;&gt;Node34</title>
<path fill="none" stroke="#9a32cd" stroke-dasharray="5,2" d="M380.11,-742.59C475.62,-751.26 744.25,-775.63 827.84,-783.22"/>
<polygon fill="#9a32cd" stroke="#9a32cd" points="380.39,-739.11 370.11,-741.69 379.76,-746.08 380.39,-739.11"/>
<text text-anchor="middle" x="575" y="-767.5" font-family="Helvetica,sans-Serif" font-size="10.00"> size</text>
</g>
<!-- Node8 -->
<g id="node8" class="node">
<title>Node8</title>
<g id="a_node8"><a xlink:href="../../da/dbf/structcocos2d_1_1_c_c_affine_transform.html" target="_top" xlink:title=" ">
<polygon fill="white" stroke="#666666" points="907.5,-758 800.5,-758 800.5,-739 907.5,-739 907.5,-758"/>
<text text-anchor="middle" x="854" y="-746" font-family="Helvetica,sans-Serif" font-size="10.00">CCAffineTransform</text>
</a>
</g>
</g>
<!-- Node8&#45;&gt;Node3 -->
<g id="edge7" class="edge">
<title>Node8&#45;&gt;Node3</title>
<path fill="none" stroke="#9a32cd" stroke-dasharray="5,2" d="M905.81,-734.65C911.3,-731.85 916.51,-728.5 921,-724.5 934.35,-712.6 924.68,-699.22 939,-688.5 985.28,-653.87 1026.45,-706.69 1067,-665.5 1101.76,-630.2 1058.44,-597.31 1085,-555.5 1096.22,-537.84 1116.53,-525 1132.39,-517.07"/>
<polygon fill="#9a32cd" stroke="#9a32cd" points="904.1,-731.59 896.4,-738.87 906.96,-737.98 904.1,-731.59"/>
<text text-anchor="middle" x="1003" y="-713.5" font-family="Helvetica,sans-Serif" font-size="10.00"> m_sAdditionalTransform</text>
<text text-anchor="middle" x="1003" y="-702.5" font-family="Helvetica,sans-Serif" font-size="10.00">m_sInverse</text>
<text text-anchor="middle" x="1003" y="-691.5" font-family="Helvetica,sans-Serif" font-size="10.00">m_sTransform</text>
</g>
<!-- Node8&#45;&gt;Node30 -->
<g id="edge60" class="edge">
<title>Node8&#45;&gt;Node30</title>
<path fill="none" stroke="#9a32cd" stroke-dasharray="5,2" d="M918.07,-745.63C960.58,-742.73 1017.69,-736.95 1067,-725.5 1257.22,-681.32 1312.51,-675.92 1480,-575.5 1535.33,-542.32 1548.07,-529.18 1588,-478.5 1607.75,-453.44 1623.57,-418.8 1630.58,-402.17"/>
<polygon fill="#9a32cd" stroke="#9a32cd" points="917.61,-742.15 907.86,-746.29 918.07,-749.14 917.61,-742.15"/>
<text text-anchor="middle" x="1297.5" y="-685.5" font-family="Helvetica,sans-Serif" font-size="10.00"> m_transformToBatch</text>
</g>
<!-- Node9&#45;&gt;Node3 -->
<g id="edge8" class="edge">
<title>Node9&#45;&gt;Node3</title>
<path fill="none" stroke="#9a32cd" stroke-dasharray="5,2" d="M473.69,-566.1C486.35,-576.79 504.39,-589.73 523,-595.5 567.15,-609.2 583.28,-610.5 627,-595.5 636.59,-592.21 635.6,-585.29 645,-581.5 819.91,-510.9 882.62,-576.24 1067,-536.5 1089.01,-531.76 1113.27,-523.53 1130.73,-517.04"/>
<polygon fill="#9a32cd" stroke="#9a32cd" points="475.66,-563.17 465.85,-559.18 471.03,-568.42 475.66,-563.17"/>
<text text-anchor="middle" x="707" y="-584.5" font-family="Helvetica,sans-Serif" font-size="10.00"> m_pCamera</text>
</g>
<!-- Node10&#45;&gt;Node3 -->
<g id="edge10" class="edge">
<title>Node10&#45;&gt;Node3</title>
<path fill="none" stroke="#9a32cd" stroke-dasharray="5,2" d="M901.32,-524.41C964.77,-520.18 1076.7,-512.72 1127.97,-509.3"/>
<polygon fill="#9a32cd" stroke="#9a32cd" points="900.93,-520.93 891.19,-525.09 901.4,-527.91 900.93,-520.93"/>
<text text-anchor="middle" x="1003" y="-524.5" font-family="Helvetica,sans-Serif" font-size="10.00"> m_pGrid</text>
</g>
<!-- Node11&#45;&gt;Node10 -->
<g id="edge13" class="edge">
<title>Node11&#45;&gt;Node10</title>
<path fill="none" stroke="#9a32cd" stroke-dasharray="5,2" d="M601.82,-368.84C614.51,-375.37 630.21,-382.68 645,-387.5 698.3,-404.85 729.44,-370.8 769,-410.5 800.57,-442.18 756.77,-476.54 787,-509.5 794.71,-517.9 805.91,-522.53 816.91,-525.04"/>
<polygon fill="#9a32cd" stroke="#9a32cd" points="603.26,-365.64 592.78,-364.07 599.99,-371.83 603.26,-365.64"/>
<text text-anchor="middle" x="707" y="-413.5" font-family="Helvetica,sans-Serif" font-size="10.00"> m_pTexture</text>
</g>
<!-- Node11&#45;&gt;Node20 -->
<g id="edge37" class="edge">
<title>Node11&#45;&gt;Node20</title>
<path fill="none" stroke="#9a32cd" stroke-dasharray="5,2" d="M625.24,-365.56C708.72,-383.15 873.56,-412.48 921,-381.5 937.66,-370.62 924.45,-354.08 939,-340.5 983.19,-299.25 1027.04,-339.86 1067,-294.5 1091.38,-266.83 1063.12,-243.19 1085,-213.5 1095.38,-199.42 1112.31,-189.55 1126.92,-183.14"/>
<polygon fill="#9a32cd" stroke="#9a32cd" points="625.75,-362.09 615.24,-363.43 624.29,-368.94 625.75,-362.09"/>
<text text-anchor="middle" x="854" y="-397.5" font-family="Helvetica,sans-Serif" font-size="10.00"> m_pTexture</text>
</g>
<!-- Node11&#45;&gt;Node30 -->
<g id="edge62" class="edge">
<title>Node11&#45;&gt;Node30</title>
<path fill="none" stroke="#9a32cd" stroke-dasharray="5,2" d="M625.32,-348.5C668.02,-343.62 731.48,-337.13 787,-334.5 846.49,-331.69 871.55,-301.3 921,-334.5 938.54,-346.28 921.58,-366.55 939,-378.5 994.58,-416.63 1482.15,-398.9 1605.99,-393.74"/>
<polygon fill="#9a32cd" stroke="#9a32cd" points="624.73,-345.04 615.2,-349.67 625.53,-351.99 624.73,-345.04"/>
<text text-anchor="middle" x="1156" y="-404.5" font-family="Helvetica,sans-Serif" font-size="10.00"> m_pobTexture</text>
</g>
<!-- Node12&#45;&gt;Node3 -->
<g id="edge26" class="edge">
<title>Node12&#45;&gt;Node3</title>
<path fill="none" stroke="#9a32cd" stroke-dasharray="5,2" d="M397.41,-415.34C428.57,-415.52 469.1,-416.26 505,-418.5 755.96,-434.15 820.32,-434.81 1067,-483.5 1087.66,-487.58 1110.61,-493.9 1127.89,-499.03"/>
<polygon fill="#9a32cd" stroke="#9a32cd" points="397.23,-411.84 387.22,-415.3 397.21,-418.84 397.23,-411.84"/>
<text text-anchor="middle" x="707" y="-438.5" font-family="Helvetica,sans-Serif" font-size="10.00"> m_pShaderProgram</text>
</g>
<!-- Node12&#45;&gt;Node10 -->
<g id="edge21" class="edge">
<title>Node12&#45;&gt;Node10</title>
<path fill="none" stroke="#9a32cd" stroke-dasharray="5,2" d="M397.25,-422.12C494.74,-435.21 703.03,-465.72 769,-495.5 778.24,-499.67 777.94,-504.97 787,-509.5 796.24,-514.12 806.82,-517.68 816.77,-520.37"/>
<polygon fill="#9a32cd" stroke="#9a32cd" points="397.42,-418.61 387.05,-420.76 396.5,-425.55 397.42,-418.61"/>
<text text-anchor="middle" x="575" y="-460.5" font-family="Helvetica,sans-Serif" font-size="10.00"> m_pShaderProgram</text>
</g>
<!-- Node12&#45;&gt;Node11 -->
<g id="edge16" class="edge">
<title>Node12&#45;&gt;Node11</title>
<path fill="none" stroke="#9a32cd" stroke-dasharray="5,2" d="M361.55,-398.33C372.53,-387.44 388.22,-374.2 405,-367.5 447.09,-350.7 499.7,-349.41 534.94,-351.04"/>
<polygon fill="#9a32cd" stroke="#9a32cd" points="358.86,-396.08 354.44,-405.71 363.9,-400.93 358.86,-396.08"/>
<text text-anchor="middle" x="455" y="-370.5" font-family="Helvetica,sans-Serif" font-size="10.00"> m_pShaderProgram</text>
</g>
<!-- Node13&#45;&gt;Node10 -->
<g id="edge19" class="edge">
<title>Node13&#45;&gt;Node10</title>
<path fill="none" stroke="#9a32cd" stroke-dasharray="5,2" d="M499.91,-496.65C560.68,-496.08 673.72,-497.22 769,-510.5 784.77,-512.7 802.03,-516.03 816.78,-519.16"/>
<polygon fill="#9a32cd" stroke="#9a32cd" points="499.5,-493.16 489.54,-496.77 499.58,-500.16 499.5,-493.16"/>
<text text-anchor="middle" x="575" y="-500.5" font-family="Helvetica,sans-Serif" font-size="10.00"> m_pGrabber</text>
</g>
<!-- Node14&#45;&gt;Node2 -->
<g id="edge44" class="edge">
<title>Node14&#45;&gt;Node2</title>
<path fill="none" stroke="#9a32cd" stroke-dasharray="5,2" d="M613.43,-294.97C748.07,-293.06 1208.17,-286.54 1367.87,-284.28"/>
<polygon fill="#9a32cd" stroke="#9a32cd" points="613.17,-291.47 603.22,-295.11 613.27,-298.47 613.17,-291.47"/>
<text text-anchor="middle" x="1003" y="-293.5" font-family="Helvetica,sans-Serif" font-size="10.00"> m_pobDescendants</text>
</g>
<!-- Node14&#45;&gt;Node3 -->
<g id="edge22" class="edge">
<title>Node14&#45;&gt;Node3</title>
<path fill="none" stroke="#9a32cd" stroke-dasharray="5,2" d="M613.14,-303.03C701.97,-321.07 919.46,-365.31 921,-366.5 935.44,-377.72 924.92,-391.82 939,-403.5 984.39,-441.15 1014.31,-412 1067,-438.5 1098.74,-454.46 1130.07,-482.86 1145.36,-497.76"/>
<polygon fill="#9a32cd" stroke="#9a32cd" points="613.71,-299.58 603.22,-301.02 612.32,-306.44 613.71,-299.58"/>
<text text-anchor="middle" x="854" y="-369.5" font-family="Helvetica,sans-Serif" font-size="10.00"> m_pChildren</text>
</g>
<!-- Node14&#45;&gt;Node15 -->
<g id="edge29" class="edge">
<title>Node14&#45;&gt;Node15</title>
<path fill="none" stroke="#9a32cd" stroke-dasharray="5,2" d="M607.92,-282.25C619.43,-277.92 632.64,-273.47 645,-270.5 703.38,-256.46 772.91,-249.72 814.97,-246.7"/>
<polygon fill="#9a32cd" stroke="#9a32cd" points="606.35,-279.1 598.3,-285.98 608.89,-285.63 606.35,-279.1"/>
<text text-anchor="middle" x="707" y="-273.5" font-family="Helvetica,sans-Serif" font-size="10.00"> m_pScriptHandlerEntries</text>
</g>
<!-- Node15&#45;&gt;Node3 -->
<g id="edge27" class="edge">
<title>Node15&#45;&gt;Node3</title>
<path fill="none" stroke="#9a32cd" stroke-dasharray="5,2" d="M866.04,-262.66C880.34,-284.8 907.25,-322.05 939,-344.5 988.61,-379.58 1018.2,-356.3 1067,-392.5 1107.38,-422.45 1138.38,-475.8 1150.01,-497.7"/>
<polygon fill="#9a32cd" stroke="#9a32cd" points="868.99,-260.78 860.7,-254.18 863.06,-264.5 868.99,-260.78"/>
<text text-anchor="middle" x="1003" y="-395.5" font-family="Helvetica,sans-Serif" font-size="10.00"> m_pScheduler</text>
</g>
<!-- Node16&#45;&gt;Node3 -->
<g id="edge30" class="edge">
<title>Node16&#45;&gt;Node3</title>
<path fill="none" stroke="#9a32cd" stroke-dasharray="5,2" d="M753.32,-189.92C800.89,-180.69 875.03,-175.06 921,-214.5 949.65,-239.08 914.51,-268.78 939,-297.5 978.62,-343.98 1025.6,-302.6 1067,-347.5 1085.87,-367.97 1072.86,-382.44 1085,-407.5 1102.46,-443.55 1132.29,-480.87 1146.71,-497.94"/>
<polygon fill="#9a32cd" stroke="#9a32cd" points="752.39,-186.54 743.3,-191.99 753.8,-193.39 752.39,-186.54"/>
<text text-anchor="middle" x="854" y="-217.5" font-family="Helvetica,sans-Serif" font-size="10.00"> m_pActionManager</text>
</g>
<!-- Node17 -->
<g id="node17" class="node">
<title>Node17</title>
<g id="a_node17"><a xlink:href="../../d1/d65/classcocos2d_1_1_c_c_component_container.html" target="_top" xlink:title="NA NA.">
<polygon fill="white" stroke="#666666" points="921,-500 787,-500 787,-481 921,-481 921,-500"/>
<text text-anchor="middle" x="854" y="-488" font-family="Helvetica,sans-Serif" font-size="10.00">CCComponentContainer</text>
</a>
</g>
</g>
<!-- Node17&#45;&gt;Node3 -->
<g id="edge32" class="edge">
<title>Node17&#45;&gt;Node3</title>
<path fill="none" stroke="#9a32cd" stroke-dasharray="5,2" d="M931.08,-488.29C971.53,-487.85 1022.05,-488.48 1067,-492.5 1087.53,-494.33 1110.48,-498.31 1127.8,-501.71"/>
<polygon fill="#9a32cd" stroke="#9a32cd" points="930.98,-484.79 921.02,-488.42 931.07,-491.79 930.98,-484.79"/>
<text text-anchor="middle" x="1003" y="-495.5" font-family="Helvetica,sans-Serif" font-size="10.00"> m_pComponentContainer</text>
</g>
<!-- Node18 -->
<g id="node18" class="node">
<title>Node18</title>
<g id="a_node18"><a xlink:href="../../db/d1b/classcocos2d_1_1_c_c_texture_protocol.html" target="_top" xlink:title="CCNode objects that uses a CCTexture2D to render the images.">
<polygon fill="white" stroke="#666666" points="1209,-242 1103,-242 1103,-223 1209,-223 1209,-242"/>
<text text-anchor="middle" x="1156" y="-230" font-family="Helvetica,sans-Serif" font-size="10.00">CCTextureProtocol</text>
</a>
</g>
</g>
<!-- Node18&#45;&gt;Node2 -->
<g id="edge33" class="edge">
<title>Node18&#45;&gt;Node2</title>
<path fill="none" stroke="#63b8ff" d="M1216.78,-243.96C1263.87,-252.99 1328.74,-265.43 1373.07,-273.93"/>
<polygon fill="#63b8ff" stroke="#63b8ff" points="1217.2,-240.48 1206.72,-242.03 1215.88,-247.35 1217.2,-240.48"/>
</g>
<!-- Node18&#45;&gt;Node30 -->
<g id="edge57" class="edge">
<title>Node18&#45;&gt;Node30</title>
<path fill="none" stroke="#63b8ff" d="M1219.34,-233.44C1325.04,-236.29 1533.32,-247.73 1588,-293.5 1616.68,-317.51 1628.76,-363.19 1632.8,-382.97"/>
<polygon fill="#63b8ff" stroke="#63b8ff" points="1219.21,-229.94 1209.13,-233.18 1219.04,-236.93 1219.21,-229.94"/>
</g>
<!-- Node19 -->
<g id="node19" class="node">
<title>Node19</title>
<g id="a_node19"><a xlink:href="../../d6/d82/classcocos2d_1_1_c_c_blend_protocol.html" target="_top" xlink:title="Specify the blending function according glBlendFunc Please refer to glBlendFunc in OpenGL ES Manual h...">
<polygon fill="white" stroke="#666666" points="903,-169 805,-169 805,-150 903,-150 903,-169"/>
<text text-anchor="middle" x="854" y="-157" font-family="Helvetica,sans-Serif" font-size="10.00">CCBlendProtocol</text>
</a>
</g>
</g>
<!-- Node19&#45;&gt;Node18 -->
<g id="edge34" class="edge">
<title>Node19&#45;&gt;Node18</title>
<path fill="none" stroke="#63b8ff" d="M904.08,-171.44C963.22,-185.83 1061.41,-209.73 1115.77,-222.95"/>
<polygon fill="#63b8ff" stroke="#63b8ff" points="904.76,-168.01 894.22,-169.04 903.11,-174.81 904.76,-168.01"/>
</g>
<!-- Node20&#45;&gt;Node2 -->
<g id="edge35" class="edge">
<title>Node20&#45;&gt;Node2</title>
<path fill="none" stroke="#9a32cd" stroke-dasharray="5,2" d="M1207.13,-185.6C1246.95,-196.14 1303.47,-213.24 1350,-235.5 1372.71,-246.37 1396.66,-263.32 1410.7,-273.9"/>
<polygon fill="#9a32cd" stroke="#9a32cd" points="1207.95,-182.19 1197.39,-183.06 1206.18,-188.97 1207.95,-182.19"/>
<text text-anchor="middle" x="1297.5" y="-238.5" font-family="Helvetica,sans-Serif" font-size="10.00"> m_pobTextureAtlas</text>
</g>
<!-- Node20&#45;&gt;Node30 -->
<g id="edge58" class="edge">
<title>Node20&#45;&gt;Node30</title>
<path fill="none" stroke="#9a32cd" stroke-dasharray="5,2" d="M1211.66,-167.1C1302.3,-159.75 1484.03,-159.28 1588,-256.5 1625.55,-291.61 1632.78,-358.28 1634.17,-382.98"/>
<polygon fill="#9a32cd" stroke="#9a32cd" points="1211.25,-163.63 1201.59,-167.98 1211.86,-170.6 1211.25,-163.63"/>
<text text-anchor="middle" x="1424" y="-195.5" font-family="Helvetica,sans-Serif" font-size="10.00"> m_pobTextureAtlas</text>
</g>
<!-- Node21 -->
<g id="node21" class="node">
<title>Node21</title>
<g id="a_node21"><a xlink:href="../../dd/d60/structcc_v3_f___c4_b___t2_f___quad.html" target="_top" xlink:title="4 ccVertex3FTex2FColor4B">
<polygon fill="white" stroke="#666666" points="916.5,-72 791.5,-72 791.5,-53 916.5,-53 916.5,-72"/>
<text text-anchor="middle" x="854" y="-60" font-family="Helvetica,sans-Serif" font-size="10.00">ccV3F_C4B_T2F_Quad</text>
</a>
</g>
</g>
<!-- Node21&#45;&gt;Node20 -->
<g id="edge38" class="edge">
<title>Node21&#45;&gt;Node20</title>
<path fill="none" stroke="#9a32cd" stroke-dasharray="5,2" d="M926.64,-72C983.08,-79.81 1054.29,-90.53 1067,-96.5 1101.73,-112.81 1133.14,-147 1147.21,-163.79"/>
<polygon fill="#9a32cd" stroke="#9a32cd" points="927.04,-68.52 916.65,-70.62 926.08,-75.45 927.04,-68.52"/>
<text text-anchor="middle" x="1003" y="-99.5" font-family="Helvetica,sans-Serif" font-size="10.00"> m_pQuads</text>
</g>
<!-- Node21&#45;&gt;Node30 -->
<g id="edge67" class="edge">
<title>Node21&#45;&gt;Node30</title>
<path fill="none" stroke="#9a32cd" stroke-dasharray="5,2" d="M922.99,-51.64C1068.7,-32.63 1412.11,-11.48 1588,-198.5 1613.86,-226 1629.4,-347.34 1633.44,-382.76"/>
<polygon fill="#9a32cd" stroke="#9a32cd" points="922.29,-48.2 912.84,-53 923.22,-55.14 922.29,-48.2"/>
<text text-anchor="middle" x="1297.5" y="-69.5" font-family="Helvetica,sans-Serif" font-size="10.00"> m_sQuad</text>
</g>
<!-- Node22 -->
<g id="node22" class="node">
<title>Node22</title>
<g id="a_node22"><a xlink:href="../../d7/de4/structcc_v3_f___c4_b___t2_f.html" target="_top" xlink:title="a Point with a vertex point, a tex coord point and a color 4B">
<polygon fill="white" stroke="#666666" points="622,-60 528,-60 528,-41 622,-41 622,-60"/>
<text text-anchor="middle" x="575" y="-48" font-family="Helvetica,sans-Serif" font-size="10.00">ccV3F_C4B_T2F</text>
</a>
</g>
</g>
<!-- Node22&#45;&gt;Node21 -->
<g id="edge39" class="edge">
<title>Node22&#45;&gt;Node21</title>
<path fill="none" stroke="#9a32cd" stroke-dasharray="5,2" d="M632.18,-52.93C678.34,-54.93 743.64,-57.76 791.25,-59.83"/>
<polygon fill="#9a32cd" stroke="#9a32cd" points="632.19,-49.43 622.05,-52.5 631.89,-56.42 632.19,-49.43"/>
<text text-anchor="middle" x="707" y="-95.5" font-family="Helvetica,sans-Serif" font-size="10.00"> bl</text>
<text text-anchor="middle" x="707" y="-84.5" font-family="Helvetica,sans-Serif" font-size="10.00">br</text>
<text text-anchor="middle" x="707" y="-73.5" font-family="Helvetica,sans-Serif" font-size="10.00">tl</text>
<text text-anchor="middle" x="707" y="-62.5" font-family="Helvetica,sans-Serif" font-size="10.00">tr</text>
</g>
<!-- Node23 -->
<g id="node23" class="node">
<title>Node23</title>
<g id="a_node23"><a xlink:href="../../d3/d87/structcc_vertex3_f.html" target="_top" xlink:title="A vertex composed of 2 floats: x, y.">
<polygon fill="white" stroke="#666666" points="380.5,-93 309.5,-93 309.5,-74 380.5,-74 380.5,-93"/>
<text text-anchor="middle" x="345" y="-81" font-family="Helvetica,sans-Serif" font-size="10.00">ccVertex3F</text>
</a>
</g>
</g>
<!-- Node23&#45;&gt;Node22 -->
<g id="edge40" class="edge">
<title>Node23&#45;&gt;Node22</title>
<path fill="none" stroke="#9a32cd" stroke-dasharray="5,2" d="M391.09,-77.51C422.94,-73.22 466.62,-67.21 505,-61.5 512.44,-60.39 520.32,-59.18 528,-57.97"/>
<polygon fill="#9a32cd" stroke="#9a32cd" points="390.21,-74.1 380.77,-78.9 391.15,-81.04 390.21,-74.1"/>
<text text-anchor="middle" x="455" y="-78.5" font-family="Helvetica,sans-Serif" font-size="10.00"> vertices</text>
</g>
<!-- Node24 -->
<g id="node24" class="node">
<title>Node24</title>
<g id="a_node24"><a xlink:href="../../d2/dd4/structcc_color4_b.html" target="_top" xlink:title="RGBA color composed of 4 bytes.">
<polygon fill="white" stroke="#666666" points="377.5,-56 312.5,-56 312.5,-37 377.5,-37 377.5,-56"/>
<text text-anchor="middle" x="345" y="-44" font-family="Helvetica,sans-Serif" font-size="10.00">ccColor4B</text>
</a>
</g>
</g>
<!-- Node24&#45;&gt;Node22 -->
<g id="edge41" class="edge">
<title>Node24&#45;&gt;Node22</title>
<path fill="none" stroke="#9a32cd" stroke-dasharray="5,2" d="M387.84,-47.23C427.51,-47.93 486.99,-48.97 527.99,-49.69"/>
<polygon fill="#9a32cd" stroke="#9a32cd" points="387.76,-43.73 377.7,-47.06 387.64,-50.73 387.76,-43.73"/>
<text text-anchor="middle" x="455" y="-52.5" font-family="Helvetica,sans-Serif" font-size="10.00"> colors</text>
</g>
<!-- Node25 -->
<g id="node25" class="node">
<title>Node25</title>
<g id="a_node25"><a xlink:href="../../d0/d46/structcc_tex2_f.html" target="_top" xlink:title="A texcoord composed of 2 floats: u, y.">
<polygon fill="white" stroke="#666666" points="373,-19 317,-19 317,0 373,0 373,-19"/>
<text text-anchor="middle" x="345" y="-7" font-family="Helvetica,sans-Serif" font-size="10.00">ccTex2F</text>
</a>
</g>
</g>
<!-- Node25&#45;&gt;Node22 -->
<g id="edge42" class="edge">
<title>Node25&#45;&gt;Node22</title>
<path fill="none" stroke="#9a32cd" stroke-dasharray="5,2" d="M383.47,-14.17C415.8,-18.43 463.67,-25.31 505,-33.5 515.77,-35.64 527.39,-38.34 537.97,-40.96"/>
<polygon fill="#9a32cd" stroke="#9a32cd" points="383.51,-10.64 373.14,-12.83 382.6,-17.59 383.51,-10.64"/>
<text text-anchor="middle" x="455" y="-36.5" font-family="Helvetica,sans-Serif" font-size="10.00"> texCoords</text>
</g>
<!-- Node26 -->
<g id="node26" class="node">
<title>Node26</title>
<g id="a_node26"><a xlink:href="../../d6/d45/structcc_blend_func.html" target="_top" xlink:title="Blend Function used for textures.">
<polygon fill="white" stroke="#666666" points="1194.5,-341 1117.5,-341 1117.5,-322 1194.5,-322 1194.5,-341"/>
<text text-anchor="middle" x="1156" y="-329" font-family="Helvetica,sans-Serif" font-size="10.00">ccBlendFunc</text>
</a>
</g>
</g>
<!-- Node26&#45;&gt;Node2 -->
<g id="edge43" class="edge">
<title>Node26&#45;&gt;Node2</title>
<path fill="none" stroke="#9a32cd" stroke-dasharray="5,2" d="M1204.67,-322.9C1251.18,-314.5 1321.81,-301.76 1370.05,-293.06"/>
<polygon fill="#9a32cd" stroke="#9a32cd" points="1203.77,-319.5 1194.55,-324.72 1205.01,-326.39 1203.77,-319.5"/>
<text text-anchor="middle" x="1297.5" y="-317.5" font-family="Helvetica,sans-Serif" font-size="10.00"> m_blendFunc</text>
</g>
<!-- Node26&#45;&gt;Node30 -->
<g id="edge61" class="edge">
<title>Node26&#45;&gt;Node30</title>
<path fill="none" stroke="#9a32cd" stroke-dasharray="5,2" d="M1204.79,-333.84C1284.77,-338.39 1450.52,-350.56 1588,-378.5 1593.78,-379.68 1599.88,-381.25 1605.69,-382.93"/>
<polygon fill="#9a32cd" stroke="#9a32cd" points="1204.72,-330.33 1194.54,-333.27 1204.33,-337.32 1204.72,-330.33"/>
<text text-anchor="middle" x="1424" y="-362.5" font-family="Helvetica,sans-Serif" font-size="10.00"> m_sBlendFunc</text>
</g>
<!-- Node27&#45;&gt;Node1 -->
<g id="edge46" class="edge">
<title>Node27&#45;&gt;Node1</title>
<path fill="none" stroke="#9a32cd" stroke-dasharray="5,2" d="M637.15,-941.67C693.26,-945.14 778.68,-949.5 853,-949.5 853,-949.5 853,-949.5 1636.5,-949.5 1696.96,-949.5 1764.8,-923.53 1797.99,-909.02"/>
<polygon fill="#9a32cd" stroke="#9a32cd" points="637.22,-938.17 627.02,-941.04 636.79,-945.15 637.22,-938.17"/>
<text text-anchor="middle" x="1297.5" y="-952.5" font-family="Helvetica,sans-Serif" font-size="10.00"> m_pTileSet</text>
</g>
<!-- Node28&#45;&gt;Node1 -->
<g id="edge49" class="edge">
<title>Node28&#45;&gt;Node1</title>
<path fill="none" stroke="#9a32cd" stroke-dasharray="5,2" d="M395.17,-993.52C441.34,-994.39 512.35,-995.5 574,-995.5 574,-995.5 574,-995.5 1636.5,-995.5 1696.22,-995.5 1710.62,-977.94 1762,-947.5 1780.38,-936.61 1798.68,-919.66 1809.28,-909.09"/>
<polygon fill="#9a32cd" stroke="#9a32cd" points="395.2,-990.02 385.13,-993.33 395.06,-997.02 395.2,-990.02"/>
<text text-anchor="middle" x="1156" y="-998.5" font-family="Helvetica,sans-Serif" font-size="10.00"> m_pProperties</text>
</g>
<!-- Node29 -->
<g id="node29" class="node">
<title>Node29</title>
<g id="a_node29"><a xlink:href="../../d0/da2/classcocos2d_1_1_c_c_dict_element.html" target="_top" xlink:title="CCDictElement is used for traversing CCDictionary.">
<polygon fill="white" stroke="#666666" points="197,-1002 107,-1002 107,-983 197,-983 197,-1002"/>
<text text-anchor="middle" x="152" y="-990" font-family="Helvetica,sans-Serif" font-size="10.00">CCDictElement</text>
</a>
</g>
</g>
<!-- Node29&#45;&gt;Node28 -->
<g id="edge51" class="edge">
<title>Node29&#45;&gt;Node28</title>
<path fill="none" stroke="#9a32cd" stroke-dasharray="5,2" d="M207.53,-992.5C238.57,-992.5 276.73,-992.5 304.8,-992.5"/>
<polygon fill="#9a32cd" stroke="#9a32cd" points="207.3,-989 197.3,-992.5 207.3,-996 207.3,-989"/>
<text text-anchor="middle" x="250" y="-995.5" font-family="Helvetica,sans-Serif" font-size="10.00"> m_pElements</text>
</g>
<!-- Node30&#45;&gt;Node1 -->
<g id="edge52" class="edge">
<title>Node30&#45;&gt;Node1</title>
<path fill="none" stroke="#9a32cd" stroke-dasharray="5,2" d="M1643.4,-411.73C1673.53,-495.65 1792.94,-828.31 1814.99,-889.72"/>
<polygon fill="#9a32cd" stroke="#9a32cd" points="1646.65,-410.4 1639.97,-402.18 1640.06,-412.77 1646.65,-410.4"/>
<text text-anchor="middle" x="1722.5" y="-738.5" font-family="Helvetica,sans-Serif" font-size="10.00"> m_pReusedTile</text>
</g>
<!-- Node31&#45;&gt;Node30 -->
<g id="edge53" class="edge">
<title>Node31&#45;&gt;Node30</title>
<path fill="none" stroke="#63b8ff" d="M1445.21,-540.68C1488.2,-507.02 1587.61,-429.2 1622.3,-402.05"/>
<polygon fill="#63b8ff" stroke="#63b8ff" points="1442.89,-538.05 1437.17,-546.97 1447.2,-543.57 1442.89,-538.05"/>
</g>
<!-- Node32 -->
<g id="node32" class="node">
<title>Node32</title>
<g id="a_node32"><a xlink:href="../../d8/dda/classcocos2d_1_1_c_c_r_g_b_a_protocol.html" target="_top" xlink:title="RGBA protocol that affects CCNode&#39;s color and opacity NA.">
<polygon fill="white" stroke="#666666" points="1205,-620 1107,-620 1107,-601 1205,-601 1205,-620"/>
<text text-anchor="middle" x="1156" y="-608" font-family="Helvetica,sans-Serif" font-size="10.00">CCRGBAProtocol</text>
</a>
</g>
</g>
<!-- Node32&#45;&gt;Node31 -->
<g id="edge55" class="edge">
<title>Node32&#45;&gt;Node31</title>
<path fill="none" stroke="#63b8ff" d="M1215.2,-611.09C1254.05,-610.11 1305.91,-606.1 1350,-593.5 1371.45,-587.37 1394.05,-574.84 1408.31,-566.07"/>
<polygon fill="#63b8ff" stroke="#63b8ff" points="1215.04,-607.59 1205.11,-611.29 1215.18,-614.59 1215.04,-607.59"/>
</g>
<!-- Node33 -->
<g id="node33" class="node">
<title>Node33</title>
<g id="a_node33"><a xlink:href="../../d7/d39/structcc_color3_b.html" target="_top" xlink:title="RGB color composed of bytes 3 bytes.">
<polygon fill="white" stroke="#666666" points="1188.5,-583 1123.5,-583 1123.5,-564 1188.5,-564 1188.5,-583"/>
<text text-anchor="middle" x="1156" y="-571" font-family="Helvetica,sans-Serif" font-size="10.00">ccColor3B</text>
</a>
</g>
</g>
<!-- Node33&#45;&gt;Node31 -->
<g id="edge56" class="edge">
<title>Node33&#45;&gt;Node31</title>
<path fill="none" stroke="#9a32cd" stroke-dasharray="5,2" d="M1198.74,-570.83C1248.94,-567.62 1332.65,-562.27 1382.36,-559.1"/>
<polygon fill="#9a32cd" stroke="#9a32cd" points="1198.31,-567.35 1188.56,-571.48 1198.76,-574.34 1198.31,-567.35"/>
<text text-anchor="middle" x="1297.5" y="-581.5" font-family="Helvetica,sans-Serif" font-size="10.00"> _displayedColor</text>
<text text-anchor="middle" x="1297.5" y="-570.5" font-family="Helvetica,sans-Serif" font-size="10.00">_realColor</text>
</g>
<!-- Node34&#45;&gt;Node30 -->
<g id="edge63" class="edge">
<title>Node34&#45;&gt;Node30</title>
<path fill="none" stroke="#9a32cd" stroke-dasharray="5,2" d="M890.17,-783.66C972.89,-778.39 1185.22,-759.4 1350,-697.5 1470.02,-652.41 1514.53,-639.57 1588,-534.5 1618.33,-491.13 1629.85,-426.71 1633.28,-402.33"/>
<polygon fill="#9a32cd" stroke="#9a32cd" points="889.82,-780.17 880.05,-784.27 890.25,-787.16 889.82,-780.17"/>
<text text-anchor="middle" x="1297.5" y="-731.5" font-family="Helvetica,sans-Serif" font-size="10.00"> m_obRect</text>
</g>
</g>
</svg>
