<?xml version="1.0" encoding="UTF-8" standalone="no"?>
<!DOCTYPE svg PUBLIC "-//W3C//DTD SVG 1.1//EN"
 "http://www.w3.org/Graphics/SVG/1.1/DTD/svg11.dtd">
<!-- Generated by graphviz version 2.43.0 (0)
 -->
<!-- Title: CCTMXLayer Pages: 1 -->
<svg width="1867pt" height="1019pt"
 viewBox="0.00 0.00 1867.00 1019.00" xmlns="http://www.w3.org/2000/svg" xmlns:xlink="http://www.w3.org/1999/xlink">
<g id="graph0" class="graph" transform="scale(1 1) rotate(0) translate(4 1015)">
<title>CCTMXLayer</title>
<!-- Node1 -->
<g id="node1" class="node">
<title>Node1</title>
<g id="a_node1"><a xlink:title="CCTMXLayer represents the TMX layer.">
<polygon fill="#bfbfbf" stroke="black" points="1780,-894.5 1780,-913.5 1859,-913.5 1859,-894.5 1780,-894.5"/>
<text text-anchor="middle" x="1819.5" y="-901.5" font-family="Helvetica,sans-Serif" font-size="10.00">CCTMXLayer</text>
</a>
</g>
</g>
<!-- Node2 -->
<g id="node2" class="node">
<title>Node2</title>
<g id="a_node2"><a xlink:href="../../dd/d95/classcocos2d_1_1_c_c_sprite_batch_node.html" target="_top" xlink:title="CCSpriteBatchNode is like a batch node: if it contains children, it will draw them in 1 single OpenGL...">
<polygon fill="none" stroke="black" points="1368,-276.5 1368,-295.5 1480,-295.5 1480,-276.5 1368,-276.5"/>
<text text-anchor="middle" x="1424" y="-283.5" font-family="Helvetica,sans-Serif" font-size="10.00">CCSpriteBatchNode</text>
</a>
</g>
</g>
<!-- Node2&#45;&gt;Node1 -->
<g id="edge1" class="edge">
<title>Node2&#45;&gt;Node1</title>
<path fill="none" stroke="midnightblue" d="M1490.45,-281.59C1521.31,-281.97 1557.88,-286.1 1588,-300 1703.43,-353.25 1717.23,-408.03 1762,-527 1814.21,-665.75 1818.31,-850.33 1818.52,-894.3"/>
<polygon fill="midnightblue" stroke="midnightblue" points="1490.22,-278.09 1480.22,-281.59 1490.23,-285.09 1490.22,-278.09"/>
</g>
<!-- Node30 -->
<g id="node30" class="node">
<title>Node30</title>
<g id="a_node30"><a xlink:href="../../d4/de7/classcocos2d_1_1_c_c_sprite.html" target="_top" xlink:title="CCSprite is a 2d image ( http://en.wikipedia.org/wiki/Sprite_(computer_graphics) )">
<polygon fill="none" stroke="black" points="1606,-385.5 1606,-404.5 1665,-404.5 1665,-385.5 1606,-385.5"/>
<text text-anchor="middle" x="1635.5" y="-392.5" font-family="Helvetica,sans-Serif" font-size="10.00">CCSprite</text>
</a>
</g>
</g>
<!-- Node2&#45;&gt;Node30 -->
<g id="edge59" class="edge">
<title>Node2&#45;&gt;Node30</title>
<path fill="none" stroke="#9a32cd" stroke-dasharray="5,2" d="M1490.15,-297.08C1531.88,-304.6 1579.72,-314.21 1588,-320 1611.6,-336.52 1625.61,-369.22 1631.39,-385.43"/>
<polygon fill="#9a32cd" stroke="#9a32cd" points="1490.72,-293.62 1480.26,-295.31 1489.49,-300.51 1490.72,-293.62"/>
<text text-anchor="middle" x="1543" y="-323" font-family="Helvetica,sans-Serif" font-size="10.00"> m_pobBatchNode</text>
</g>
<!-- Node3 -->
<g id="node3" class="node">
<title>Node3</title>
<g id="a_node3"><a xlink:href="../../d0/ded/classcocos2d_1_1_c_c_node.html" target="_top" xlink:title="CCNode is the main element.">
<polygon fill="none" stroke="black" points="1128,-501.5 1128,-520.5 1184,-520.5 1184,-501.5 1128,-501.5"/>
<text text-anchor="middle" x="1156" y="-508.5" font-family="Helvetica,sans-Serif" font-size="10.00">CCNode</text>
</a>
</g>
</g>
<!-- Node3&#45;&gt;Node2 -->
<g id="edge2" class="edge">
<title>Node3&#45;&gt;Node2</title>
<path fill="none" stroke="midnightblue" d="M1174.17,-494.23C1209.27,-460.31 1292.29,-381.76 1368,-323 1380.91,-312.98 1396.42,-302.69 1407.67,-295.52"/>
<polygon fill="midnightblue" stroke="midnightblue" points="1171.43,-492.02 1166.69,-501.5 1176.3,-497.05 1171.43,-492.02"/>
</g>
<!-- Node3&#45;&gt;Node3 -->
<g id="edge24" class="edge">
<title>Node3&#45;&gt;Node3</title>
<path fill="none" stroke="#9a32cd" stroke-dasharray="5,2" d="M1129.96,-530.03C1131.38,-535.13 1140.06,-539 1156,-539 1180.88,-539 1188.08,-529.57 1177.58,-520.76"/>
<polygon fill="#9a32cd" stroke="#9a32cd" points="1133.24,-531.29 1134.42,-520.76 1126.93,-528.25 1133.24,-531.29"/>
<text text-anchor="middle" x="1156" y="-542" font-family="Helvetica,sans-Serif" font-size="10.00"> m_pParent</text>
</g>
<!-- Node31 -->
<g id="node31" class="node">
<title>Node31</title>
<g id="a_node31"><a xlink:href="../../de/d2e/classcocos2d_1_1_c_c_node_r_g_b_a.html" target="_top" xlink:title="CCNodeRGBA is a subclass of CCNode that implements the CCRGBAProtocol protocol.">
<polygon fill="none" stroke="black" points="1382.5,-543.5 1382.5,-562.5 1465.5,-562.5 1465.5,-543.5 1382.5,-543.5"/>
<text text-anchor="middle" x="1424" y="-550.5" font-family="Helvetica,sans-Serif" font-size="10.00">CCNodeRGBA</text>
</a>
</g>
</g>
<!-- Node3&#45;&gt;Node31 -->
<g id="edge54" class="edge">
<title>Node3&#45;&gt;Node31</title>
<path fill="none" stroke="midnightblue" d="M1194.45,-516.91C1244.03,-524.74 1331.14,-538.5 1382.3,-546.57"/>
<polygon fill="midnightblue" stroke="midnightblue" points="1194.89,-513.44 1184.46,-515.34 1193.8,-520.35 1194.89,-513.44"/>
</g>
<!-- Node4 -->
<g id="node4" class="node">
<title>Node4</title>
<g id="a_node4"><a xlink:href="../../d3/dbf/classcocos2d_1_1_c_c_object.html" target="_top" xlink:title="NA.">
<polygon fill="none" stroke="black" points="121,-481.5 121,-500.5 183,-500.5 183,-481.5 121,-481.5"/>
<text text-anchor="middle" x="152" y="-488.5" font-family="Helvetica,sans-Serif" font-size="10.00">CCObject</text>
</a>
</g>
</g>
<!-- Node4&#45;&gt;Node3 -->
<g id="edge3" class="edge">
<title>Node4&#45;&gt;Node3</title>
<path fill="none" stroke="midnightblue" d="M156.69,-510.64C163.85,-545.53 181.94,-619.71 215,-674 278.27,-777.89 293.04,-823.44 405,-871 543.61,-929.89 984.39,-851.92 1067,-726 1107.95,-663.58 1046.71,-623.09 1085,-559 1095.66,-541.16 1115.81,-528.41 1131.76,-520.56"/>
<polygon fill="midnightblue" stroke="midnightblue" points="160.11,-509.91 154.74,-500.77 153.24,-511.26 160.11,-509.91"/>
</g>
<!-- Node4&#45;&gt;Node3 -->
<g id="edge25" class="edge">
<title>Node4&#45;&gt;Node3</title>
<path fill="none" stroke="#9a32cd" stroke-dasharray="5,2" d="M163.09,-509.21C173.68,-526.48 191.97,-551.71 215,-565 429.85,-689.01 522.67,-662.34 769,-633 904.3,-616.89 940.31,-611.15 1067,-561 1094.61,-550.07 1124.12,-531.78 1140.98,-520.61"/>
<polygon fill="#9a32cd" stroke="#9a32cd" points="166.1,-507.41 158.02,-500.56 160.06,-510.95 166.1,-507.41"/>
<text text-anchor="middle" x="575" y="-660" font-family="Helvetica,sans-Serif" font-size="10.00"> m_pUserObject</text>
</g>
<!-- Node9 -->
<g id="node9" class="node">
<title>Node9</title>
<g id="a_node9"><a xlink:href="../../d2/d51/classcocos2d_1_1_c_c_camera.html" target="_top" xlink:title="A CCCamera is used in every CCNode.">
<polygon fill="none" stroke="black" points="421,-544.5 421,-563.5 489,-563.5 489,-544.5 421,-544.5"/>
<text text-anchor="middle" x="455" y="-551.5" font-family="Helvetica,sans-Serif" font-size="10.00">CCCamera</text>
</a>
</g>
</g>
<!-- Node4&#45;&gt;Node9 -->
<g id="edge9" class="edge">
<title>Node4&#45;&gt;Node9</title>
<path fill="none" stroke="midnightblue" d="M168.03,-508.6C179.52,-520.68 196.5,-535.78 215,-543 284.27,-570.02 373.52,-564.63 420.94,-558.95"/>
<polygon fill="midnightblue" stroke="midnightblue" points="170.31,-505.9 161,-500.85 165.13,-510.61 170.31,-505.9"/>
</g>
<!-- Node10 -->
<g id="node10" class="node">
<title>Node10</title>
<g id="a_node10"><a xlink:href="../../d6/d70/classcocos2d_1_1_c_c_grid_base.html" target="_top" xlink:title="Base class for other.">
<polygon fill="none" stroke="black" points="817,-521.5 817,-540.5 891,-540.5 891,-521.5 817,-521.5"/>
<text text-anchor="middle" x="854" y="-528.5" font-family="Helvetica,sans-Serif" font-size="10.00">CCGridBase</text>
</a>
</g>
</g>
<!-- Node4&#45;&gt;Node10 -->
<g id="edge11" class="edge">
<title>Node4&#45;&gt;Node10</title>
<path fill="none" stroke="midnightblue" d="M192.02,-503.16C199.57,-505.1 207.48,-506.85 215,-508 441.78,-542.79 718.95,-536.36 816.75,-532.62"/>
<polygon fill="midnightblue" stroke="midnightblue" points="192.91,-499.78 182.34,-500.54 191.08,-506.54 192.91,-499.78"/>
</g>
<!-- Node11 -->
<g id="node11" class="node">
<title>Node11</title>
<g id="a_node11"><a xlink:href="../../d7/dfd/classcocos2d_1_1_c_c_texture2_d.html" target="_top" xlink:title="CCTexture2D class.">
<polygon fill="none" stroke="black" points="535,-349.5 535,-368.5 615,-368.5 615,-349.5 535,-349.5"/>
<text text-anchor="middle" x="575" y="-356.5" font-family="Helvetica,sans-Serif" font-size="10.00">CCTexture2D</text>
</a>
</g>
</g>
<!-- Node4&#45;&gt;Node11 -->
<g id="edge14" class="edge">
<title>Node4&#45;&gt;Node11</title>
<path fill="none" stroke="midnightblue" d="M169.83,-474.31C181.75,-463.09 198.49,-448.49 215,-438 293.23,-388.28 314.39,-371.55 405,-352 448.77,-342.55 500.37,-346.85 534.93,-351.86"/>
<polygon fill="midnightblue" stroke="midnightblue" points="167.19,-471.99 162.41,-481.45 172.04,-477.04 167.19,-471.99"/>
</g>
<!-- Node12 -->
<g id="node12" class="node">
<title>Node12</title>
<g id="a_node12"><a xlink:href="../../db/d28/classcocos2d_1_1_c_c_g_l_program.html" target="_top" xlink:title="CCGLProgram Class that implements a glProgram.">
<polygon fill="none" stroke="black" points="303,-410.5 303,-429.5 387,-429.5 387,-410.5 303,-410.5"/>
<text text-anchor="middle" x="345" y="-417.5" font-family="Helvetica,sans-Serif" font-size="10.00">CCGLProgram</text>
</a>
</g>
</g>
<!-- Node4&#45;&gt;Node12 -->
<g id="edge17" class="edge">
<title>Node4&#45;&gt;Node12</title>
<path fill="none" stroke="midnightblue" d="M188.33,-477.87C226.03,-463.85 284.84,-441.99 318.34,-429.54"/>
<polygon fill="midnightblue" stroke="midnightblue" points="186.91,-474.66 178.76,-481.42 189.35,-481.22 186.91,-474.66"/>
</g>
<!-- Node13 -->
<g id="node13" class="node">
<title>Node13</title>
<g id="a_node13"><a xlink:href="../../d3/d89/classcocos2d_1_1_c_c_grabber.html" target="_top" xlink:title="FBO class that grabs the the contents of the screen NA NA.">
<polygon fill="none" stroke="black" points="420.5,-492.5 420.5,-511.5 489.5,-511.5 489.5,-492.5 420.5,-492.5"/>
<text text-anchor="middle" x="455" y="-499.5" font-family="Helvetica,sans-Serif" font-size="10.00">CCGrabber</text>
</a>
</g>
</g>
<!-- Node4&#45;&gt;Node13 -->
<g id="edge20" class="edge">
<title>Node4&#45;&gt;Node13</title>
<path fill="none" stroke="midnightblue" d="M193.44,-492.48C253.27,-494.66 364.31,-498.72 420.12,-500.76"/>
<polygon fill="midnightblue" stroke="midnightblue" points="193.36,-488.97 183.24,-492.11 193.1,-495.97 193.36,-488.97"/>
</g>
<!-- Node14 -->
<g id="node14" class="node">
<title>Node14</title>
<g id="a_node14"><a xlink:href="../../d9/d2e/classcocos2d_1_1_c_c_array.html" target="_top" xlink:title="NA.">
<polygon fill="none" stroke="black" points="547,-289.5 547,-308.5 603,-308.5 603,-289.5 547,-289.5"/>
<text text-anchor="middle" x="575" y="-296.5" font-family="Helvetica,sans-Serif" font-size="10.00">CCArray</text>
</a>
</g>
</g>
<!-- Node4&#45;&gt;Node14 -->
<g id="edge23" class="edge">
<title>Node4&#45;&gt;Node14</title>
<path fill="none" stroke="midnightblue" d="M160.47,-471.9C170.07,-449.58 188.69,-412.8 215,-390 313.65,-304.53 481.59,-297.39 546.89,-298.1"/>
<polygon fill="midnightblue" stroke="midnightblue" points="157.17,-470.73 156.6,-481.31 163.64,-473.4 157.17,-470.73"/>
</g>
<!-- Node15 -->
<g id="node15" class="node">
<title>Node15</title>
<g id="a_node15"><a xlink:href="../../de/dee/classcocos2d_1_1_c_c_scheduler.html" target="_top" xlink:title="Scheduler is responsible for triggering the scheduled callbacks.">
<polygon fill="none" stroke="black" points="815,-237.5 815,-256.5 893,-256.5 893,-237.5 815,-237.5"/>
<text text-anchor="middle" x="854" y="-244.5" font-family="Helvetica,sans-Serif" font-size="10.00">CCScheduler</text>
</a>
</g>
</g>
<!-- Node4&#45;&gt;Node15 -->
<g id="edge28" class="edge">
<title>Node4&#45;&gt;Node15</title>
<path fill="none" stroke="midnightblue" d="M155.95,-471.24C161.7,-439.5 177.3,-377.11 215,-341 245.06,-312.21 262.73,-319.52 303,-309 452.02,-270.07 491.68,-267.7 645,-253 704.16,-247.33 773.17,-246.47 814.95,-246.58"/>
<polygon fill="midnightblue" stroke="midnightblue" points="152.44,-470.99 154.26,-481.43 159.35,-472.14 152.44,-470.99"/>
</g>
<!-- Node16 -->
<g id="node16" class="node">
<title>Node16</title>
<g id="a_node16"><a xlink:href="../../d5/dcb/classcocos2d_1_1_c_c_action_manager.html" target="_top" xlink:title="CCActionManager is a singleton that manages all the actions.">
<polygon fill="none" stroke="black" points="655,-194.5 655,-213.5 759,-213.5 759,-194.5 655,-194.5"/>
<text text-anchor="middle" x="707" y="-201.5" font-family="Helvetica,sans-Serif" font-size="10.00">CCActionManager</text>
</a>
</g>
</g>
<!-- Node4&#45;&gt;Node16 -->
<g id="edge31" class="edge">
<title>Node4&#45;&gt;Node16</title>
<path fill="none" stroke="midnightblue" d="M154.57,-471.42C159.5,-415.46 176.67,-256.78 215,-225 352.44,-111.04 593.24,-169.35 676.61,-194.44"/>
<polygon fill="midnightblue" stroke="midnightblue" points="151.08,-471.19 153.72,-481.45 158.05,-471.78 151.08,-471.19"/>
</g>
<!-- Node20 -->
<g id="node20" class="node">
<title>Node20</title>
<g id="a_node20"><a xlink:href="../../df/d3a/classcocos2d_1_1_c_c_texture_atlas.html" target="_top" xlink:title="A class that implements a Texture Atlas.">
<polygon fill="none" stroke="black" points="1110.5,-166.5 1110.5,-185.5 1201.5,-185.5 1201.5,-166.5 1110.5,-166.5"/>
<text text-anchor="middle" x="1156" y="-173.5" font-family="Helvetica,sans-Serif" font-size="10.00">CCTextureAtlas</text>
</a>
</g>
</g>
<!-- Node4&#45;&gt;Node20 -->
<g id="edge36" class="edge">
<title>Node4&#45;&gt;Node20</title>
<path fill="none" stroke="midnightblue" d="M154.62,-470.97C159.91,-409.74 178.54,-226.45 215,-181 254.22,-132.11 281.32,-124 344,-124 344,-124 344,-124 855,-124 953.32,-124 1067.14,-151.45 1122.03,-166.46"/>
<polygon fill="midnightblue" stroke="midnightblue" points="151.1,-470.96 153.76,-481.22 158.08,-471.55 151.1,-470.96"/>
</g>
<!-- Node27 -->
<g id="node27" class="node">
<title>Node27</title>
<g id="a_node27"><a xlink:href="../../dc/dff/classcocos2d_1_1_c_c_t_m_x_tileset_info.html" target="_top" xlink:title="CCTMXTilesetInfo contains the information about the tilesets like:">
<polygon fill="none" stroke="black" points="523,-932.5 523,-951.5 627,-951.5 627,-932.5 523,-932.5"/>
<text text-anchor="middle" x="575" y="-939.5" font-family="Helvetica,sans-Serif" font-size="10.00">CCTMXTilesetInfo</text>
</a>
</g>
</g>
<!-- Node4&#45;&gt;Node27 -->
<g id="edge47" class="edge">
<title>Node4&#45;&gt;Node27</title>
<path fill="none" stroke="midnightblue" d="M152.98,-510.89C153.35,-585.12 158.71,-844.46 215,-899 300.54,-981.88 456.51,-965.52 531.5,-951.5"/>
<polygon fill="midnightblue" stroke="midnightblue" points="156.48,-510.62 152.96,-500.63 149.48,-510.64 156.48,-510.62"/>
</g>
<!-- Node28 -->
<g id="node28" class="node">
<title>Node28</title>
<g id="a_node28"><a xlink:href="../../d7/d5f/classcocos2d_1_1_c_c_dictionary.html" target="_top" xlink:title="CCDictionary is a class like NSDictionary in Obj&#45;C .">
<polygon fill="none" stroke="black" points="305,-987.5 305,-1006.5 385,-1006.5 385,-987.5 305,-987.5"/>
<text text-anchor="middle" x="345" y="-994.5" font-family="Helvetica,sans-Serif" font-size="10.00">CCDictionary</text>
</a>
</g>
</g>
<!-- Node4&#45;&gt;Node28 -->
<g id="edge50" class="edge">
<title>Node4&#45;&gt;Node28</title>
<path fill="none" stroke="midnightblue" d="M153.12,-511.16C153.98,-590.05 160.85,-876.92 215,-946 236.62,-973.58 275.33,-986.28 304.73,-992.11"/>
<polygon fill="midnightblue" stroke="midnightblue" points="156.62,-510.68 153.03,-500.71 149.62,-510.74 156.62,-510.68"/>
</g>
<!-- Node5 -->
<g id="node5" class="node">
<title>Node5</title>
<g id="a_node5"><a xlink:href="../../d5/d61/classcocos2d_1_1_c_c_copying.html" target="_top" xlink:title="NA NA.">
<polygon fill="none" stroke="black" points="0,-481.5 0,-500.5 70,-500.5 70,-481.5 0,-481.5"/>
<text text-anchor="middle" x="35" y="-488.5" font-family="Helvetica,sans-Serif" font-size="10.00">CCCopying</text>
</a>
</g>
</g>
<!-- Node5&#45;&gt;Node4 -->
<g id="edge4" class="edge">
<title>Node5&#45;&gt;Node4</title>
<path fill="none" stroke="midnightblue" d="M80.26,-491C93.76,-491 108.29,-491 120.65,-491"/>
<polygon fill="midnightblue" stroke="midnightblue" points="80.19,-487.5 70.19,-491 80.19,-494.5 80.19,-487.5"/>
</g>
<!-- Node6 -->
<g id="node6" class="node">
<title>Node6</title>
<g id="a_node6"><a xlink:href="../../d2/df3/classcocos2d_1_1_c_c_point.html" target="_top" xlink:title="NA.">
<polygon fill="none" stroke="black" points="547.5,-728.5 547.5,-747.5 602.5,-747.5 602.5,-728.5 547.5,-728.5"/>
<text text-anchor="middle" x="575" y="-735.5" font-family="Helvetica,sans-Serif" font-size="10.00">CCPoint</text>
</a>
</g>
</g>
<!-- Node6&#45;&gt;Node3 -->
<g id="edge5" class="edge">
<title>Node6&#45;&gt;Node3</title>
<path fill="none" stroke="#9a32cd" stroke-dasharray="5,2" d="M612.43,-727.92C622.9,-725.18 634.37,-722.33 645,-720 656.63,-717.45 1058.45,-653.29 1067,-645 1095.03,-617.81 1063.34,-591.49 1085,-559 1096.69,-541.47 1117.16,-528.54 1132.96,-520.55"/>
<polygon fill="#9a32cd" stroke="#9a32cd" points="611.52,-724.54 602.75,-730.49 613.31,-731.31 611.52,-724.54"/>
<text text-anchor="middle" x="854" y="-720" font-family="Helvetica,sans-Serif" font-size="10.00"> m_obAnchorPoint</text>
<text text-anchor="middle" x="854" y="-709" font-family="Helvetica,sans-Serif" font-size="10.00">m_obAnchorPointInPoints</text>
<text text-anchor="middle" x="854" y="-698" font-family="Helvetica,sans-Serif" font-size="10.00">m_obPosition</text>
</g>
<!-- Node6&#45;&gt;Node10 -->
<g id="edge18" class="edge">
<title>Node6&#45;&gt;Node10</title>
<path fill="none" stroke="#9a32cd" stroke-dasharray="5,2" d="M590.87,-720.68C601.34,-708.25 615.48,-690.94 627,-675 635.67,-663.01 633.54,-656.35 645,-647 690.79,-609.64 717.86,-628.62 769,-599 798.23,-582.07 827.88,-555.33 842.91,-540.95"/>
<polygon fill="#9a32cd" stroke="#9a32cd" points="588.09,-718.55 584.29,-728.44 593.43,-723.08 588.09,-718.55"/>
<text text-anchor="middle" x="707" y="-650" font-family="Helvetica,sans-Serif" font-size="10.00"> m_obStep</text>
</g>
<!-- Node6&#45;&gt;Node30 -->
<g id="edge66" class="edge">
<title>Node6&#45;&gt;Node30</title>
<path fill="none" stroke="#9a32cd" stroke-dasharray="5,2" d="M612.06,-750.47C669.96,-770.45 778.1,-807.54 787,-809 1035.48,-849.68 1110.61,-824.02 1350,-746 1469.33,-707.11 1520.61,-699.88 1588,-594 1628.58,-530.25 1633.82,-434.82 1634.44,-404.56"/>
<polygon fill="#9a32cd" stroke="#9a32cd" points="613.14,-747.14 602.54,-747.19 610.85,-753.76 613.14,-747.14"/>
<text text-anchor="middle" x="1156" y="-844" font-family="Helvetica,sans-Serif" font-size="10.00"> m_obOffsetPosition</text>
<text text-anchor="start" x="1085" y="-833" font-family="Helvetica,sans-Serif" font-size="10.00">m_obUnflippedOffsetPosition</text>
<text text-anchor="middle" x="1156" y="-822" font-family="Helvetica,sans-Serif" font-size="10.00">FromCenter</text>
</g>
<!-- Node34 -->
<g id="node34" class="node">
<title>Node34</title>
<g id="a_node34"><a xlink:href="../../da/d4d/classcocos2d_1_1_c_c_rect.html" target="_top" xlink:title="NA.">
<polygon fill="none" stroke="black" points="828,-780.5 828,-799.5 880,-799.5 880,-780.5 828,-780.5"/>
<text text-anchor="middle" x="854" y="-787.5" font-family="Helvetica,sans-Serif" font-size="10.00">CCRect</text>
</a>
</g>
</g>
<!-- Node6&#45;&gt;Node34 -->
<g id="edge64" class="edge">
<title>Node6&#45;&gt;Node34</title>
<path fill="none" stroke="#9a32cd" stroke-dasharray="5,2" d="M612.67,-728.25C653.73,-719.51 720.82,-711.93 769,-740 782.77,-748.02 774.44,-761.2 787,-771 798.66,-780.09 814.51,-784.84 827.75,-787.31"/>
<polygon fill="#9a32cd" stroke="#9a32cd" points="611.8,-724.86 602.82,-730.47 613.35,-731.68 611.8,-724.86"/>
<text text-anchor="middle" x="707" y="-743" font-family="Helvetica,sans-Serif" font-size="10.00"> origin</text>
</g>
<!-- Node7 -->
<g id="node7" class="node">
<title>Node7</title>
<g id="a_node7"><a xlink:href="../../d9/d24/classcocos2d_1_1_c_c_size.html" target="_top" xlink:title="NA.">
<polygon fill="none" stroke="black" points="320,-734.5 320,-753.5 370,-753.5 370,-734.5 320,-734.5"/>
<text text-anchor="middle" x="345" y="-741.5" font-family="Helvetica,sans-Serif" font-size="10.00">CCSize</text>
</a>
</g>
</g>
<!-- Node7&#45;&gt;Node1 -->
<g id="edge45" class="edge">
<title>Node7&#45;&gt;Node1</title>
<path fill="none" stroke="#9a32cd" stroke-dasharray="5,2" d="M374.27,-758.17C452.81,-797.3 670.25,-904 706,-904 706,-904 706,-904 1636.5,-904 1685.95,-904 1742.96,-904 1779.8,-904"/>
<polygon fill="#9a32cd" stroke="#9a32cd" points="375.49,-754.86 364.98,-753.53 372.36,-761.13 375.49,-754.86"/>
<text text-anchor="middle" x="1156" y="-918" font-family="Helvetica,sans-Serif" font-size="10.00"> m_tLayerSize</text>
<text text-anchor="middle" x="1156" y="-907" font-family="Helvetica,sans-Serif" font-size="10.00">m_tMapTileSize</text>
</g>
<!-- Node7&#45;&gt;Node3 -->
<g id="edge6" class="edge">
<title>Node7&#45;&gt;Node3</title>
<path fill="none" stroke="#9a32cd" stroke-dasharray="5,2" d="M380.35,-736.73C435.86,-725.1 548.8,-701.89 645,-685 668.36,-680.9 1049.14,-635.61 1067,-620 1088.28,-601.4 1068.38,-581.87 1085,-559 1097.47,-541.83 1118.06,-528.79 1133.69,-520.67"/>
<polygon fill="#9a32cd" stroke="#9a32cd" points="379.42,-733.35 370.35,-738.83 380.86,-740.2 379.42,-733.35"/>
<text text-anchor="middle" x="707" y="-688" font-family="Helvetica,sans-Serif" font-size="10.00"> m_obContentSize</text>
</g>
<!-- Node7&#45;&gt;Node10 -->
<g id="edge12" class="edge">
<title>Node7&#45;&gt;Node10</title>
<path fill="none" stroke="#9a32cd" stroke-dasharray="5,2" d="M360.55,-726.64C371.78,-713.99 388.19,-697.03 405,-685 501.5,-615.94 532.11,-604.57 645,-568 703.62,-549.01 774.88,-539.01 816.94,-534.38"/>
<polygon fill="#9a32cd" stroke="#9a32cd" points="357.88,-724.38 353.97,-734.23 363.17,-728.97 357.88,-724.38"/>
<text text-anchor="middle" x="575" y="-615" font-family="Helvetica,sans-Serif" font-size="10.00"> m_sGridSize</text>
</g>
<!-- Node7&#45;&gt;Node11 -->
<g id="edge15" class="edge">
<title>Node7&#45;&gt;Node11</title>
<path fill="none" stroke="#9a32cd" stroke-dasharray="5,2" d="M345.57,-724.38C345.47,-677.22 350.85,-555.42 405,-475 441.47,-420.83 512.49,-384.72 549.79,-368.61"/>
<polygon fill="#9a32cd" stroke="#9a32cd" points="342.07,-724.5 345.68,-734.46 349.07,-724.42 342.07,-724.5"/>
<text text-anchor="middle" x="455" y="-478" font-family="Helvetica,sans-Serif" font-size="10.00"> m_tContentSize</text>
</g>
<!-- Node7&#45;&gt;Node27 -->
<g id="edge48" class="edge">
<title>Node7&#45;&gt;Node27</title>
<path fill="none" stroke="#9a32cd" stroke-dasharray="5,2" d="M356.69,-762.36C367.48,-779.93 385.31,-806.56 405,-826 443.61,-864.11 465.23,-859.1 505,-896 514.26,-904.59 513.04,-910.23 523,-918 530.48,-923.84 539.62,-928.7 548.08,-932.48"/>
<polygon fill="#9a32cd" stroke="#9a32cd" points="359.61,-760.42 351.46,-753.64 353.6,-764.01 359.61,-760.42"/>
<text text-anchor="middle" x="455" y="-910" font-family="Helvetica,sans-Serif" font-size="10.00"> m_tImageSize</text>
<text text-anchor="middle" x="455" y="-899" font-family="Helvetica,sans-Serif" font-size="10.00">m_tTileSize</text>
</g>
<!-- Node7&#45;&gt;Node34 -->
<g id="edge65" class="edge">
<title>Node7&#45;&gt;Node34</title>
<path fill="none" stroke="#9a32cd" stroke-dasharray="5,2" d="M380.11,-747.09C475.62,-755.76 744.25,-780.13 827.84,-787.72"/>
<polygon fill="#9a32cd" stroke="#9a32cd" points="380.39,-743.61 370.11,-746.19 379.76,-750.58 380.39,-743.61"/>
<text text-anchor="middle" x="575" y="-772" font-family="Helvetica,sans-Serif" font-size="10.00"> size</text>
</g>
<!-- Node8 -->
<g id="node8" class="node">
<title>Node8</title>
<g id="a_node8"><a xlink:href="../../da/dbf/structcocos2d_1_1_c_c_affine_transform.html" target="_top" xlink:title=" ">
<polygon fill="none" stroke="black" points="800.5,-742.5 800.5,-761.5 907.5,-761.5 907.5,-742.5 800.5,-742.5"/>
<text text-anchor="middle" x="854" y="-749.5" font-family="Helvetica,sans-Serif" font-size="10.00">CCAffineTransform</text>
</a>
</g>
</g>
<!-- Node8&#45;&gt;Node3 -->
<g id="edge7" class="edge">
<title>Node8&#45;&gt;Node3</title>
<path fill="none" stroke="#9a32cd" stroke-dasharray="5,2" d="M905.56,-738.21C911.13,-735.4 916.43,-732.03 921,-728 934.12,-716.44 924.94,-703.4 939,-693 985.47,-658.63 1026.48,-711.22 1067,-670 1102.04,-634.36 1058.23,-601.2 1085,-559 1096.21,-541.33 1116.52,-528.49 1132.39,-520.57"/>
<polygon fill="#9a32cd" stroke="#9a32cd" points="903.73,-735.19 896,-742.45 906.56,-741.59 903.73,-735.19"/>
<text text-anchor="middle" x="1003" y="-718" font-family="Helvetica,sans-Serif" font-size="10.00"> m_sAdditionalTransform</text>
<text text-anchor="middle" x="1003" y="-707" font-family="Helvetica,sans-Serif" font-size="10.00">m_sInverse</text>
<text text-anchor="middle" x="1003" y="-696" font-family="Helvetica,sans-Serif" font-size="10.00">m_sTransform</text>
</g>
<!-- Node8&#45;&gt;Node30 -->
<g id="edge60" class="edge">
<title>Node8&#45;&gt;Node30</title>
<path fill="none" stroke="#9a32cd" stroke-dasharray="5,2" d="M918.13,-749.78C960.67,-747.22 1017.79,-741.75 1067,-730 1258.16,-684.36 1311.25,-672.73 1480,-572 1534.39,-539.53 1548.04,-528.15 1588,-479 1607.67,-454.82 1623.41,-421.14 1630.47,-404.75"/>
<polygon fill="#9a32cd" stroke="#9a32cd" points="917.71,-746.29 907.92,-750.35 918.1,-753.28 917.71,-746.29"/>
<text text-anchor="middle" x="1297.5" y="-686" font-family="Helvetica,sans-Serif" font-size="10.00"> m_transformToBatch</text>
</g>
<!-- Node9&#45;&gt;Node3 -->
<g id="edge8" class="edge">
<title>Node9&#45;&gt;Node3</title>
<path fill="none" stroke="#9a32cd" stroke-dasharray="5,2" d="M473.69,-570.6C486.35,-581.29 504.39,-594.23 523,-600 567.15,-613.7 583.28,-615 627,-600 636.59,-596.71 635.61,-589.8 645,-586 819.87,-515.18 882.62,-579.97 1067,-540 1089.01,-535.23 1113.26,-527 1130.73,-520.53"/>
<polygon fill="#9a32cd" stroke="#9a32cd" points="475.66,-567.67 465.85,-563.68 471.03,-572.92 475.66,-567.67"/>
<text text-anchor="middle" x="707" y="-589" font-family="Helvetica,sans-Serif" font-size="10.00"> m_pCamera</text>
</g>
<!-- Node10&#45;&gt;Node3 -->
<g id="edge10" class="edge">
<title>Node10&#45;&gt;Node3</title>
<path fill="none" stroke="#9a32cd" stroke-dasharray="5,2" d="M901.32,-527.91C964.77,-523.68 1076.7,-516.22 1127.97,-512.8"/>
<polygon fill="#9a32cd" stroke="#9a32cd" points="900.93,-524.43 891.19,-528.59 901.4,-531.41 900.93,-524.43"/>
<text text-anchor="middle" x="1003" y="-528" font-family="Helvetica,sans-Serif" font-size="10.00"> m_pGrid</text>
</g>
<!-- Node11&#45;&gt;Node10 -->
<g id="edge13" class="edge">
<title>Node11&#45;&gt;Node10</title>
<path fill="none" stroke="#9a32cd" stroke-dasharray="5,2" d="M602.39,-373.14C614.99,-379.39 630.46,-386.36 645,-391 698.4,-408.04 729.4,-374.33 769,-414 800.29,-445.34 757.27,-479.18 787,-512 794.69,-520.48 805.89,-525.28 816.89,-527.95"/>
<polygon fill="#9a32cd" stroke="#9a32cd" points="603.88,-369.97 593.38,-368.55 600.7,-376.21 603.88,-369.97"/>
<text text-anchor="middle" x="707" y="-417" font-family="Helvetica,sans-Serif" font-size="10.00"> m_pTexture</text>
</g>
<!-- Node11&#45;&gt;Node20 -->
<g id="edge37" class="edge">
<title>Node11&#45;&gt;Node20</title>
<path fill="none" stroke="#9a32cd" stroke-dasharray="5,2" d="M625.25,-369.72C708.73,-386.73 873.58,-414.97 921,-384 937.66,-373.12 924.45,-356.58 939,-343 983.19,-301.75 1027.04,-342.36 1067,-297 1091.38,-269.33 1063.12,-245.69 1085,-216 1095.38,-201.92 1112.31,-192.05 1126.92,-185.64"/>
<polygon fill="#9a32cd" stroke="#9a32cd" points="625.74,-366.25 615.24,-367.65 624.33,-373.1 625.74,-366.25"/>
<text text-anchor="middle" x="854" y="-400" font-family="Helvetica,sans-Serif" font-size="10.00"> m_pTexture</text>
</g>
<!-- Node11&#45;&gt;Node30 -->
<g id="edge62" class="edge">
<title>Node11&#45;&gt;Node30</title>
<path fill="none" stroke="#9a32cd" stroke-dasharray="5,2" d="M625.3,-352.4C667.99,-347.03 731.44,-339.89 787,-337 846.48,-333.91 871.55,-303.8 921,-337 938.54,-348.78 921.58,-369.05 939,-381 994.58,-419.13 1482.15,-401.4 1605.99,-396.24"/>
<polygon fill="#9a32cd" stroke="#9a32cd" points="624.66,-348.95 615.18,-353.68 625.54,-355.89 624.66,-348.95"/>
<text text-anchor="middle" x="1156" y="-407" font-family="Helvetica,sans-Serif" font-size="10.00"> m_pobTexture</text>
</g>
<!-- Node12&#45;&gt;Node3 -->
<g id="edge26" class="edge">
<title>Node12&#45;&gt;Node3</title>
<path fill="none" stroke="#9a32cd" stroke-dasharray="5,2" d="M397.4,-418.14C428.55,-417.39 469.09,-417.1 505,-419 756.25,-432.29 820.41,-437.05 1067,-487 1087.64,-491.18 1110.59,-497.5 1127.87,-502.6"/>
<polygon fill="#9a32cd" stroke="#9a32cd" points="397.12,-414.65 387.21,-418.41 397.3,-421.64 397.12,-414.65"/>
<text text-anchor="middle" x="707" y="-439" font-family="Helvetica,sans-Serif" font-size="10.00"> m_pShaderProgram</text>
</g>
<!-- Node12&#45;&gt;Node10 -->
<g id="edge21" class="edge">
<title>Node12&#45;&gt;Node10</title>
<path fill="none" stroke="#9a32cd" stroke-dasharray="5,2" d="M397.18,-423.08C478.64,-429.42 641.59,-448 769,-500 777.9,-503.63 778.28,-507.96 787,-512 796.41,-516.36 807.05,-519.96 816.99,-522.8"/>
<polygon fill="#9a32cd" stroke="#9a32cd" points="397.42,-419.59 387.18,-422.33 396.89,-426.57 397.42,-419.59"/>
<text text-anchor="middle" x="575" y="-459" font-family="Helvetica,sans-Serif" font-size="10.00"> m_pShaderProgram</text>
</g>
<!-- Node12&#45;&gt;Node11 -->
<g id="edge16" class="edge">
<title>Node12&#45;&gt;Node11</title>
<path fill="none" stroke="#9a32cd" stroke-dasharray="5,2" d="M361.55,-402.83C372.53,-391.94 388.22,-378.7 405,-372 447.09,-355.2 499.7,-353.91 534.94,-355.54"/>
<polygon fill="#9a32cd" stroke="#9a32cd" points="358.86,-400.58 354.44,-410.21 363.9,-405.43 358.86,-400.58"/>
<text text-anchor="middle" x="455" y="-375" font-family="Helvetica,sans-Serif" font-size="10.00"> m_pShaderProgram</text>
</g>
<!-- Node13&#45;&gt;Node10 -->
<g id="edge19" class="edge">
<title>Node13&#45;&gt;Node10</title>
<path fill="none" stroke="#9a32cd" stroke-dasharray="5,2" d="M499.89,-501.31C560.64,-500.92 673.65,-502.27 769,-515 784.74,-517.1 802,-520.24 816.76,-523.19"/>
<polygon fill="#9a32cd" stroke="#9a32cd" points="499.5,-497.81 489.53,-501.39 499.56,-504.81 499.5,-497.81"/>
<text text-anchor="middle" x="575" y="-506" font-family="Helvetica,sans-Serif" font-size="10.00"> m_pGrabber</text>
</g>
<!-- Node14&#45;&gt;Node2 -->
<g id="edge44" class="edge">
<title>Node14&#45;&gt;Node2</title>
<path fill="none" stroke="#9a32cd" stroke-dasharray="5,2" d="M613.43,-298.43C748.07,-296.36 1208.17,-289.3 1367.87,-286.85"/>
<polygon fill="#9a32cd" stroke="#9a32cd" points="613.17,-294.93 603.22,-298.58 613.27,-301.93 613.17,-294.93"/>
<text text-anchor="middle" x="1003" y="-296" font-family="Helvetica,sans-Serif" font-size="10.00"> m_pobDescendants</text>
</g>
<!-- Node14&#45;&gt;Node3 -->
<g id="edge22" class="edge">
<title>Node14&#45;&gt;Node3</title>
<path fill="none" stroke="#9a32cd" stroke-dasharray="5,2" d="M613.14,-306.09C701.02,-322.92 914.86,-364.25 921,-369 935.46,-380.2 924.92,-394.32 939,-406 984.39,-443.65 1014.4,-414.32 1067,-441 1099.03,-457.25 1130.48,-486.3 1145.63,-501.36"/>
<polygon fill="#9a32cd" stroke="#9a32cd" points="613.55,-302.6 603.07,-304.16 612.23,-309.48 613.55,-302.6"/>
<text text-anchor="middle" x="854" y="-372" font-family="Helvetica,sans-Serif" font-size="10.00"> m_pChildren</text>
</g>
<!-- Node14&#45;&gt;Node15 -->
<g id="edge29" class="edge">
<title>Node14&#45;&gt;Node15</title>
<path fill="none" stroke="#9a32cd" stroke-dasharray="5,2" d="M606.72,-285.65C618.5,-281 632.18,-276.17 645,-273 703.29,-258.59 772.85,-251.95 814.93,-249.06"/>
<polygon fill="#9a32cd" stroke="#9a32cd" points="605.28,-282.45 597.34,-289.46 607.92,-288.94 605.28,-282.45"/>
<text text-anchor="middle" x="707" y="-276" font-family="Helvetica,sans-Serif" font-size="10.00"> m_pScriptHandlerEntries</text>
</g>
<!-- Node15&#45;&gt;Node3 -->
<g id="edge27" class="edge">
<title>Node15&#45;&gt;Node3</title>
<path fill="none" stroke="#9a32cd" stroke-dasharray="5,2" d="M866.04,-265.16C880.34,-287.3 907.25,-324.55 939,-347 988.61,-382.08 1018.28,-358.7 1067,-395 1107.75,-425.35 1138.76,-479.55 1150.2,-501.44"/>
<polygon fill="#9a32cd" stroke="#9a32cd" points="868.99,-263.28 860.7,-256.68 863.06,-267 868.99,-263.28"/>
<text text-anchor="middle" x="1003" y="-398" font-family="Helvetica,sans-Serif" font-size="10.00"> m_pScheduler</text>
</g>
<!-- Node16&#45;&gt;Node3 -->
<g id="edge30" class="edge">
<title>Node16&#45;&gt;Node3</title>
<path fill="none" stroke="#9a32cd" stroke-dasharray="5,2" d="M753.32,-192.42C800.89,-183.19 875.03,-177.56 921,-217 949.65,-241.58 914.51,-271.28 939,-300 978.62,-346.48 1025.6,-305.1 1067,-350 1085.87,-370.47 1072.92,-384.92 1085,-410 1102.49,-446.33 1132.31,-484.07 1146.72,-501.33"/>
<polygon fill="#9a32cd" stroke="#9a32cd" points="752.39,-189.04 743.3,-194.49 753.8,-195.89 752.39,-189.04"/>
<text text-anchor="middle" x="854" y="-220" font-family="Helvetica,sans-Serif" font-size="10.00"> m_pActionManager</text>
</g>
<!-- Node17 -->
<g id="node17" class="node">
<title>Node17</title>
<g id="a_node17"><a xlink:href="../../d1/d65/classcocos2d_1_1_c_c_component_container.html" target="_top" xlink:title="NA NA.">
<polygon fill="none" stroke="black" points="787,-483.5 787,-502.5 921,-502.5 921,-483.5 787,-483.5"/>
<text text-anchor="middle" x="854" y="-490.5" font-family="Helvetica,sans-Serif" font-size="10.00">CCComponentContainer</text>
</a>
</g>
</g>
<!-- Node17&#45;&gt;Node3 -->
<g id="edge32" class="edge">
<title>Node17&#45;&gt;Node3</title>
<path fill="none" stroke="#9a32cd" stroke-dasharray="5,2" d="M931.09,-491.24C971.53,-491.01 1022.06,-491.88 1067,-496 1087.53,-497.88 1110.48,-501.86 1127.79,-505.24"/>
<polygon fill="#9a32cd" stroke="#9a32cd" points="931,-487.74 921.03,-491.31 931.06,-494.74 931,-487.74"/>
<text text-anchor="middle" x="1003" y="-499" font-family="Helvetica,sans-Serif" font-size="10.00"> m_pComponentContainer</text>
</g>
<!-- Node18 -->
<g id="node18" class="node">
<title>Node18</title>
<g id="a_node18"><a xlink:href="../../db/d1b/classcocos2d_1_1_c_c_texture_protocol.html" target="_top" xlink:title="CCNode objects that uses a CCTexture2D to render the images.">
<polygon fill="none" stroke="black" points="1103,-225.5 1103,-244.5 1209,-244.5 1209,-225.5 1103,-225.5"/>
<text text-anchor="middle" x="1156" y="-232.5" font-family="Helvetica,sans-Serif" font-size="10.00">CCTextureProtocol</text>
</a>
</g>
</g>
<!-- Node18&#45;&gt;Node2 -->
<g id="edge33" class="edge">
<title>Node18&#45;&gt;Node2</title>
<path fill="none" stroke="midnightblue" d="M1216.78,-246.46C1263.87,-255.49 1328.74,-267.93 1373.07,-276.43"/>
<polygon fill="midnightblue" stroke="midnightblue" points="1217.2,-242.98 1206.72,-244.53 1215.88,-249.85 1217.2,-242.98"/>
</g>
<!-- Node18&#45;&gt;Node30 -->
<g id="edge57" class="edge">
<title>Node18&#45;&gt;Node30</title>
<path fill="none" stroke="midnightblue" d="M1219.32,-235.8C1325,-238.41 1533.23,-249.37 1588,-295 1616.98,-319.14 1628.89,-365.35 1632.85,-385.36"/>
<polygon fill="midnightblue" stroke="midnightblue" points="1219.19,-232.3 1209.11,-235.57 1219.03,-239.29 1219.19,-232.3"/>
</g>
<!-- Node19 -->
<g id="node19" class="node">
<title>Node19</title>
<g id="a_node19"><a xlink:href="../../d6/d82/classcocos2d_1_1_c_c_blend_protocol.html" target="_top" xlink:title="Specify the blending function according glBlendFunc Please refer to glBlendFunc in OpenGL ES Manual h...">
<polygon fill="none" stroke="black" points="805,-152.5 805,-171.5 903,-171.5 903,-152.5 805,-152.5"/>
<text text-anchor="middle" x="854" y="-159.5" font-family="Helvetica,sans-Serif" font-size="10.00">CCBlendProtocol</text>
</a>
</g>
</g>
<!-- Node19&#45;&gt;Node18 -->
<g id="edge34" class="edge">
<title>Node19&#45;&gt;Node18</title>
<path fill="none" stroke="midnightblue" d="M904.08,-173.94C963.22,-188.33 1061.41,-212.23 1115.77,-225.45"/>
<polygon fill="midnightblue" stroke="midnightblue" points="904.76,-170.51 894.22,-171.54 903.11,-177.31 904.76,-170.51"/>
</g>
<!-- Node20&#45;&gt;Node2 -->
<g id="edge35" class="edge">
<title>Node20&#45;&gt;Node2</title>
<path fill="none" stroke="#9a32cd" stroke-dasharray="5,2" d="M1208.71,-188.05C1248.47,-198.33 1304.17,-214.94 1350,-237 1372.97,-248.06 1397.04,-265.54 1410.99,-276.36"/>
<polygon fill="#9a32cd" stroke="#9a32cd" points="1209.52,-184.64 1198.96,-185.58 1207.79,-191.43 1209.52,-184.64"/>
<text text-anchor="middle" x="1297.5" y="-240" font-family="Helvetica,sans-Serif" font-size="10.00"> m_pobTextureAtlas</text>
</g>
<!-- Node20&#45;&gt;Node30 -->
<g id="edge58" class="edge">
<title>Node20&#45;&gt;Node30</title>
<path fill="none" stroke="#9a32cd" stroke-dasharray="5,2" d="M1211.79,-169.31C1302.61,-161.5 1484.6,-160.26 1588,-258 1625.6,-293.54 1632.8,-360.59 1634.17,-385.43"/>
<polygon fill="#9a32cd" stroke="#9a32cd" points="1211.34,-165.84 1201.7,-170.24 1211.98,-172.81 1211.34,-165.84"/>
<text text-anchor="middle" x="1424" y="-196" font-family="Helvetica,sans-Serif" font-size="10.00"> m_pobTextureAtlas</text>
</g>
<!-- Node21 -->
<g id="node21" class="node">
<title>Node21</title>
<g id="a_node21"><a xlink:href="../../dd/d60/structcc_v3_f___c4_b___t2_f___quad.html" target="_top" xlink:title="4 ccVertex3FTex2FColor4B">
<polygon fill="none" stroke="black" points="791.5,-55.5 791.5,-74.5 916.5,-74.5 916.5,-55.5 791.5,-55.5"/>
<text text-anchor="middle" x="854" y="-62.5" font-family="Helvetica,sans-Serif" font-size="10.00">ccV3F_C4B_T2F_Quad</text>
</a>
</g>
</g>
<!-- Node21&#45;&gt;Node20 -->
<g id="edge38" class="edge">
<title>Node21&#45;&gt;Node20</title>
<path fill="none" stroke="#9a32cd" stroke-dasharray="5,2" d="M926.64,-74.5C983.08,-82.31 1054.29,-93.03 1067,-99 1101.73,-115.31 1133.14,-149.5 1147.21,-166.29"/>
<polygon fill="#9a32cd" stroke="#9a32cd" points="927.04,-71.02 916.65,-73.12 926.08,-77.95 927.04,-71.02"/>
<text text-anchor="middle" x="1003" y="-102" font-family="Helvetica,sans-Serif" font-size="10.00"> m_pQuads</text>
</g>
<!-- Node21&#45;&gt;Node30 -->
<g id="edge67" class="edge">
<title>Node21&#45;&gt;Node30</title>
<path fill="none" stroke="#9a32cd" stroke-dasharray="5,2" d="M921.74,-54.1C1066.5,-34.64 1410.53,-11.86 1588,-198 1614.43,-225.72 1629.57,-349.09 1633.48,-385.1"/>
<polygon fill="#9a32cd" stroke="#9a32cd" points="921.1,-50.65 911.67,-55.49 922.05,-57.59 921.1,-50.65"/>
<text text-anchor="middle" x="1297.5" y="-71" font-family="Helvetica,sans-Serif" font-size="10.00"> m_sQuad</text>
</g>
<!-- Node22 -->
<g id="node22" class="node">
<title>Node22</title>
<g id="a_node22"><a xlink:href="../../d7/de4/structcc_v3_f___c4_b___t2_f.html" target="_top" xlink:title="a Point with a vertex point, a tex coord point and a color 4B">
<polygon fill="none" stroke="black" points="528,-42.5 528,-61.5 622,-61.5 622,-42.5 528,-42.5"/>
<text text-anchor="middle" x="575" y="-49.5" font-family="Helvetica,sans-Serif" font-size="10.00">ccV3F_C4B_T2F</text>
</a>
</g>
</g>
<!-- Node22&#45;&gt;Node21 -->
<g id="edge39" class="edge">
<title>Node22&#45;&gt;Node21</title>
<path fill="none" stroke="#9a32cd" stroke-dasharray="5,2" d="M632.18,-54.64C678.34,-56.8 743.64,-59.87 791.25,-62.1"/>
<polygon fill="#9a32cd" stroke="#9a32cd" points="632.2,-51.13 622.05,-54.16 631.88,-58.13 632.2,-51.13"/>
<text text-anchor="middle" x="707" y="-97" font-family="Helvetica,sans-Serif" font-size="10.00"> bl</text>
<text text-anchor="middle" x="707" y="-86" font-family="Helvetica,sans-Serif" font-size="10.00">br</text>
<text text-anchor="middle" x="707" y="-75" font-family="Helvetica,sans-Serif" font-size="10.00">tl</text>
<text text-anchor="middle" x="707" y="-64" font-family="Helvetica,sans-Serif" font-size="10.00">tr</text>
</g>
<!-- Node23 -->
<g id="node23" class="node">
<title>Node23</title>
<g id="a_node23"><a xlink:href="../../d3/d87/structcc_vertex3_f.html" target="_top" xlink:title="A vertex composed of 2 floats: x, y.">
<polygon fill="none" stroke="black" points="309.5,-76.5 309.5,-95.5 380.5,-95.5 380.5,-76.5 309.5,-76.5"/>
<text text-anchor="middle" x="345" y="-83.5" font-family="Helvetica,sans-Serif" font-size="10.00">ccVertex3F</text>
</a>
</g>
</g>
<!-- Node23&#45;&gt;Node22 -->
<g id="edge40" class="edge">
<title>Node23&#45;&gt;Node22</title>
<path fill="none" stroke="#9a32cd" stroke-dasharray="5,2" d="M391.12,-80.18C422.98,-75.97 466.66,-69.98 505,-64 512.33,-62.86 520.08,-61.58 527.64,-60.29"/>
<polygon fill="#9a32cd" stroke="#9a32cd" points="390.25,-76.77 380.79,-81.54 391.16,-83.71 390.25,-76.77"/>
<text text-anchor="middle" x="455" y="-82" font-family="Helvetica,sans-Serif" font-size="10.00"> vertices</text>
</g>
<!-- Node24 -->
<g id="node24" class="node">
<title>Node24</title>
<g id="a_node24"><a xlink:href="../../d2/dd4/structcc_color4_b.html" target="_top" xlink:title="RGBA color composed of 4 bytes.">
<polygon fill="none" stroke="black" points="312.5,-38.5 312.5,-57.5 377.5,-57.5 377.5,-38.5 312.5,-38.5"/>
<text text-anchor="middle" x="345" y="-45.5" font-family="Helvetica,sans-Serif" font-size="10.00">ccColor4B</text>
</a>
</g>
</g>
<!-- Node24&#45;&gt;Node22 -->
<g id="edge41" class="edge">
<title>Node24&#45;&gt;Node22</title>
<path fill="none" stroke="#9a32cd" stroke-dasharray="5,2" d="M387.84,-48.73C427.51,-49.43 486.99,-50.47 527.99,-51.19"/>
<polygon fill="#9a32cd" stroke="#9a32cd" points="387.76,-45.23 377.7,-48.56 387.64,-52.23 387.76,-45.23"/>
<text text-anchor="middle" x="455" y="-54" font-family="Helvetica,sans-Serif" font-size="10.00"> colors</text>
</g>
<!-- Node25 -->
<g id="node25" class="node">
<title>Node25</title>
<g id="a_node25"><a xlink:href="../../d0/d46/structcc_tex2_f.html" target="_top" xlink:title="A texcoord composed of 2 floats: u, y.">
<polygon fill="none" stroke="black" points="317,-0.5 317,-19.5 373,-19.5 373,-0.5 317,-0.5"/>
<text text-anchor="middle" x="345" y="-7.5" font-family="Helvetica,sans-Serif" font-size="10.00">ccTex2F</text>
</a>
</g>
</g>
<!-- Node25&#45;&gt;Node22 -->
<g id="edge42" class="edge">
<title>Node25&#45;&gt;Node22</title>
<path fill="none" stroke="#9a32cd" stroke-dasharray="5,2" d="M383.05,-14.91C415.37,-19.41 463.47,-26.64 505,-35 515.64,-37.14 527.12,-39.82 537.61,-42.42"/>
<polygon fill="#9a32cd" stroke="#9a32cd" points="383.52,-11.44 373.13,-13.55 382.56,-18.38 383.52,-11.44"/>
<text text-anchor="middle" x="455" y="-38" font-family="Helvetica,sans-Serif" font-size="10.00"> texCoords</text>
</g>
<!-- Node26 -->
<g id="node26" class="node">
<title>Node26</title>
<g id="a_node26"><a xlink:href="../../d6/d45/structcc_blend_func.html" target="_top" xlink:title="Blend Function used for textures.">
<polygon fill="none" stroke="black" points="1117.5,-324.5 1117.5,-343.5 1194.5,-343.5 1194.5,-324.5 1117.5,-324.5"/>
<text text-anchor="middle" x="1156" y="-331.5" font-family="Helvetica,sans-Serif" font-size="10.00">ccBlendFunc</text>
</a>
</g>
</g>
<!-- Node26&#45;&gt;Node2 -->
<g id="edge43" class="edge">
<title>Node26&#45;&gt;Node2</title>
<path fill="none" stroke="#9a32cd" stroke-dasharray="5,2" d="M1204.67,-325.4C1251.18,-317 1321.81,-304.26 1370.05,-295.56"/>
<polygon fill="#9a32cd" stroke="#9a32cd" points="1203.77,-322 1194.55,-327.22 1205.01,-328.89 1203.77,-322"/>
<text text-anchor="middle" x="1297.5" y="-320" font-family="Helvetica,sans-Serif" font-size="10.00"> m_blendFunc</text>
</g>
<!-- Node26&#45;&gt;Node30 -->
<g id="edge61" class="edge">
<title>Node26&#45;&gt;Node30</title>
<path fill="none" stroke="#9a32cd" stroke-dasharray="5,2" d="M1204.79,-336.34C1284.77,-340.89 1450.52,-353.06 1588,-381 1593.78,-382.18 1599.88,-383.75 1605.69,-385.43"/>
<polygon fill="#9a32cd" stroke="#9a32cd" points="1204.72,-332.83 1194.54,-335.77 1204.33,-339.82 1204.72,-332.83"/>
<text text-anchor="middle" x="1424" y="-365" font-family="Helvetica,sans-Serif" font-size="10.00"> m_sBlendFunc</text>
</g>
<!-- Node27&#45;&gt;Node1 -->
<g id="edge46" class="edge">
<title>Node27&#45;&gt;Node1</title>
<path fill="none" stroke="#9a32cd" stroke-dasharray="5,2" d="M637.15,-946.17C693.26,-949.64 778.68,-954 853,-954 853,-954 853,-954 1636.5,-954 1696.96,-954 1764.8,-928.03 1797.99,-913.52"/>
<polygon fill="#9a32cd" stroke="#9a32cd" points="637.22,-942.67 627.02,-945.54 636.79,-949.65 637.22,-942.67"/>
<text text-anchor="middle" x="1297.5" y="-957" font-family="Helvetica,sans-Serif" font-size="10.00"> m_pTileSet</text>
</g>
<!-- Node28&#45;&gt;Node1 -->
<g id="edge49" class="edge">
<title>Node28&#45;&gt;Node1</title>
<path fill="none" stroke="#9a32cd" stroke-dasharray="5,2" d="M395.17,-998.02C441.34,-998.89 512.35,-1000 574,-1000 574,-1000 574,-1000 1636.5,-1000 1696.22,-1000 1710.62,-982.44 1762,-952 1780.38,-941.11 1798.68,-924.16 1809.28,-913.59"/>
<polygon fill="#9a32cd" stroke="#9a32cd" points="395.2,-994.52 385.13,-997.83 395.06,-1001.52 395.2,-994.52"/>
<text text-anchor="middle" x="1156" y="-1003" font-family="Helvetica,sans-Serif" font-size="10.00"> m_pProperties</text>
</g>
<!-- Node29 -->
<g id="node29" class="node">
<title>Node29</title>
<g id="a_node29"><a xlink:href="../../d0/da2/classcocos2d_1_1_c_c_dict_element.html" target="_top" xlink:title="CCDictElement is used for traversing CCDictionary.">
<polygon fill="none" stroke="black" points="107,-987.5 107,-1006.5 197,-1006.5 197,-987.5 107,-987.5"/>
<text text-anchor="middle" x="152" y="-994.5" font-family="Helvetica,sans-Serif" font-size="10.00">CCDictElement</text>
</a>
</g>
</g>
<!-- Node29&#45;&gt;Node28 -->
<g id="edge51" class="edge">
<title>Node29&#45;&gt;Node28</title>
<path fill="none" stroke="#9a32cd" stroke-dasharray="5,2" d="M207.53,-997C238.57,-997 276.73,-997 304.8,-997"/>
<polygon fill="#9a32cd" stroke="#9a32cd" points="207.3,-993.5 197.3,-997 207.3,-1000.5 207.3,-993.5"/>
<text text-anchor="middle" x="250" y="-1000" font-family="Helvetica,sans-Serif" font-size="10.00"> m_pElements</text>
</g>
<!-- Node30&#45;&gt;Node1 -->
<g id="edge52" class="edge">
<title>Node30&#45;&gt;Node1</title>
<path fill="none" stroke="#9a32cd" stroke-dasharray="5,2" d="M1643.4,-414.31C1673.53,-498.56 1792.94,-832.53 1814.99,-894.18"/>
<polygon fill="#9a32cd" stroke="#9a32cd" points="1646.64,-412.95 1639.97,-404.71 1640.04,-415.31 1646.64,-412.95"/>
<text text-anchor="middle" x="1722.5" y="-742" font-family="Helvetica,sans-Serif" font-size="10.00"> m_pReusedTile</text>
</g>
<!-- Node31&#45;&gt;Node30 -->
<g id="edge53" class="edge">
<title>Node31&#45;&gt;Node30</title>
<path fill="none" stroke="midnightblue" d="M1445.9,-537.24C1489.07,-504.68 1587,-430.82 1621.88,-404.52"/>
<polygon fill="midnightblue" stroke="midnightblue" points="1443.67,-534.54 1437.79,-543.35 1447.88,-540.13 1443.67,-534.54"/>
</g>
<!-- Node32 -->
<g id="node32" class="node">
<title>Node32</title>
<g id="a_node32"><a xlink:href="../../d8/dda/classcocos2d_1_1_c_c_r_g_b_a_protocol.html" target="_top" xlink:title="RGBA protocol that affects CCNode&#39;s color and opacity NA.">
<polygon fill="none" stroke="black" points="1107,-606.5 1107,-625.5 1205,-625.5 1205,-606.5 1107,-606.5"/>
<text text-anchor="middle" x="1156" y="-613.5" font-family="Helvetica,sans-Serif" font-size="10.00">CCRGBAProtocol</text>
</a>
</g>
</g>
<!-- Node32&#45;&gt;Node31 -->
<g id="edge55" class="edge">
<title>Node32&#45;&gt;Node31</title>
<path fill="none" stroke="midnightblue" d="M1215.46,-615.86C1254.43,-614.27 1306.32,-609.25 1350,-595 1372.66,-587.61 1396.06,-572.6 1410.07,-562.68"/>
<polygon fill="midnightblue" stroke="midnightblue" points="1215.22,-612.37 1205.34,-616.21 1215.46,-619.36 1215.22,-612.37"/>
</g>
<!-- Node33 -->
<g id="node33" class="node">
<title>Node33</title>
<g id="a_node33"><a xlink:href="../../d7/d39/structcc_color3_b.html" target="_top" xlink:title="RGB color composed of bytes 3 bytes.">
<polygon fill="none" stroke="black" points="1123.5,-568.5 1123.5,-587.5 1188.5,-587.5 1188.5,-568.5 1123.5,-568.5"/>
<text text-anchor="middle" x="1156" y="-575.5" font-family="Helvetica,sans-Serif" font-size="10.00">ccColor3B</text>
</a>
</g>
</g>
<!-- Node33&#45;&gt;Node31 -->
<g id="edge56" class="edge">
<title>Node33&#45;&gt;Node31</title>
<path fill="none" stroke="#9a32cd" stroke-dasharray="5,2" d="M1198.74,-574.08C1248.94,-569.36 1332.65,-561.49 1382.36,-556.82"/>
<polygon fill="#9a32cd" stroke="#9a32cd" points="1198.19,-570.61 1188.56,-575.03 1198.84,-577.58 1198.19,-570.61"/>
<text text-anchor="middle" x="1297.5" y="-583" font-family="Helvetica,sans-Serif" font-size="10.00"> _displayedColor</text>
<text text-anchor="middle" x="1297.5" y="-572" font-family="Helvetica,sans-Serif" font-size="10.00">_realColor</text>
</g>
<!-- Node34&#45;&gt;Node30 -->
<g id="edge63" class="edge">
<title>Node34&#45;&gt;Node30</title>
<path fill="none" stroke="#9a32cd" stroke-dasharray="5,2" d="M890.29,-788.1C973.27,-782.66 1186.13,-762.95 1350,-698 1469.66,-650.58 1513.18,-637.73 1588,-533 1617.98,-491.03 1629.71,-428.32 1633.23,-404.57"/>
<polygon fill="#9a32cd" stroke="#9a32cd" points="889.9,-784.62 880.14,-788.74 890.34,-791.61 889.9,-784.62"/>
<text text-anchor="middle" x="1297.5" y="-734" font-family="Helvetica,sans-Serif" font-size="10.00"> m_obRect</text>
</g>
</g>
</svg>
