<?xml version="1.0" encoding="UTF-8" standalone="no"?>
<!DOCTYPE svg PUBLIC "-//W3C//DTD SVG 1.1//EN"
 "http://www.w3.org/Graphics/SVG/1.1/DTD/svg11.dtd">
<!-- Generated by graphviz version 2.43.0 (0)
 -->
<!-- Title: /home/runner/work/cocos&#45;headers/cocos&#45;headers/cocos2dx/menu_nodes/CCMenu.h Pages: 1 -->
<svg width="1492pt" height="764pt"
 viewBox="0.00 0.00 1492.00 764.00" xmlns="http://www.w3.org/2000/svg" xmlns:xlink="http://www.w3.org/1999/xlink">
<g id="graph0" class="graph" transform="scale(1 1) rotate(0) translate(4 760)">
<title>/home/runner/work/cocos&#45;headers/cocos&#45;headers/cocos2dx/menu_nodes/CCMenu.h</title>
<!-- Node1 -->
<g id="node1" class="node">
<title>Node1</title>
<g id="a_node1"><a xlink:title=" ">
<polygon fill="#999999" stroke="#666666" points="1070.5,-756 887.5,-756 887.5,-715 1070.5,-715 1070.5,-756"/>
<text text-anchor="start" x="895.5" y="-744" font-family="Helvetica,sans-Serif" font-size="10.00">/home/runner/work/cocos</text>
<text text-anchor="start" x="895.5" y="-733" font-family="Helvetica,sans-Serif" font-size="10.00">&#45;headers/cocos&#45;headers</text>
<text text-anchor="middle" x="979" y="-722" font-family="Helvetica,sans-Serif" font-size="10.00">/cocos2dx/menu_nodes/CCMenu.h</text>
</a>
</g>
</g>
<!-- Node2 -->
<g id="node2" class="node">
<title>Node2</title>
<g id="a_node2"><a xlink:href="../../d7/d15/_c_c_menu_item_8h.html" target="_top" xlink:title=" ">
<polygon fill="white" stroke="#666666" points="1106.5,-673.5 1017.5,-673.5 1017.5,-654.5 1106.5,-654.5 1106.5,-673.5"/>
<text text-anchor="middle" x="1062" y="-661.5" font-family="Helvetica,sans-Serif" font-size="10.00">CCMenuItem.h</text>
</a>
</g>
</g>
<!-- Node1&#45;&gt;Node2 -->
<g id="edge1" class="edge">
<title>Node1&#45;&gt;Node2</title>
<path fill="none" stroke="#63b8ff" d="M1002.56,-714.77C1015.65,-703.81 1031.68,-690.39 1043.79,-680.25"/>
<polygon fill="#63b8ff" stroke="#63b8ff" points="1046.05,-682.92 1051.47,-673.82 1041.55,-677.56 1046.05,-682.92"/>
</g>
<!-- Node33 -->
<g id="node33" class="node">
<title>Node33</title>
<g id="a_node33"><a xlink:href="../../d4/d45/_c_c_layer_8h.html" target="_top" xlink:title=" ">
<polygon fill="white" stroke="#666666" points="983.5,-679 840.5,-679 840.5,-649 983.5,-649 983.5,-679"/>
<text text-anchor="start" x="848.5" y="-667" font-family="Helvetica,sans-Serif" font-size="10.00">layers_scenes_transitions</text>
<text text-anchor="middle" x="912" y="-656" font-family="Helvetica,sans-Serif" font-size="10.00">_nodes/CCLayer.h</text>
</a>
</g>
</g>
<!-- Node1&#45;&gt;Node33 -->
<g id="edge58" class="edge">
<title>Node1&#45;&gt;Node33</title>
<path fill="none" stroke="#63b8ff" d="M959.98,-714.77C951.4,-705.87 941.24,-695.33 932.49,-686.25"/>
<polygon fill="#63b8ff" stroke="#63b8ff" points="934.99,-683.81 925.53,-679.04 929.95,-688.67 934.99,-683.81"/>
</g>
<!-- Node3 -->
<g id="node3" class="node">
<title>Node3</title>
<g id="a_node3"><a xlink:href="../../db/d7f/_c_c_node_8h.html" target="_top" xlink:title=" ">
<polygon fill="white" stroke="#666666" points="974.5,-607.5 849.5,-607.5 849.5,-588.5 974.5,-588.5 974.5,-607.5"/>
<text text-anchor="middle" x="912" y="-595.5" font-family="Helvetica,sans-Serif" font-size="10.00">base_nodes/CCNode.h</text>
</a>
</g>
</g>
<!-- Node2&#45;&gt;Node3 -->
<g id="edge2" class="edge">
<title>Node2&#45;&gt;Node3</title>
<path fill="none" stroke="#63b8ff" d="M1041.77,-654.37C1016.05,-643.39 971.43,-624.36 941.81,-611.72"/>
<polygon fill="#63b8ff" stroke="#63b8ff" points="942.96,-608.4 932.39,-607.7 940.21,-614.84 942.96,-608.4"/>
</g>
<!-- Node17 -->
<g id="node17" class="node">
<title>Node17</title>
<g id="a_node17"><a xlink:href="../../da/d35/_c_c_array_8h.html" target="_top" xlink:title=" ">
<polygon fill="white" stroke="#666666" points="1200.5,-547 1105.5,-547 1105.5,-528 1200.5,-528 1200.5,-547"/>
<text text-anchor="middle" x="1153" y="-535" font-family="Helvetica,sans-Serif" font-size="10.00">cocoa/CCArray.h</text>
</a>
</g>
</g>
<!-- Node2&#45;&gt;Node17 -->
<g id="edge57" class="edge">
<title>Node2&#45;&gt;Node17</title>
<path fill="none" stroke="#63b8ff" d="M1068.25,-654.44C1083.19,-634.01 1121.15,-582.07 1140.8,-555.19"/>
<polygon fill="#63b8ff" stroke="#63b8ff" points="1143.63,-557.26 1146.7,-547.12 1137.97,-553.13 1143.63,-557.26"/>
</g>
<!-- Node30 -->
<g id="node30" class="node">
<title>Node30</title>
<g id="a_node30"><a xlink:href="../../d8/d76/_c_c_protocols_8h.html" target="_top" xlink:title=" ">
<polygon fill="white" stroke="#666666" points="1346,-547 1262,-547 1262,-528 1346,-528 1346,-547"/>
<text text-anchor="middle" x="1304" y="-535" font-family="Helvetica,sans-Serif" font-size="10.00">CCProtocols.h</text>
</a>
</g>
</g>
<!-- Node2&#45;&gt;Node30 -->
<g id="edge56" class="edge">
<title>Node2&#45;&gt;Node30</title>
<path fill="none" stroke="#63b8ff" d="M1078.63,-654.44C1120.08,-633.12 1228.2,-577.5 1278.09,-551.83"/>
<polygon fill="#63b8ff" stroke="#63b8ff" points="1279.96,-554.8 1287.25,-547.12 1276.76,-548.58 1279.96,-554.8"/>
</g>
<!-- Node4 -->
<g id="node4" class="node">
<title>Node4</title>
<g id="a_node4"><a xlink:href="../../d9/dc8/cc_macros_8h.html" target="_top" xlink:title=" ">
<polygon fill="white" stroke="#666666" points="557.5,-239 486.5,-239 486.5,-220 557.5,-220 557.5,-239"/>
<text text-anchor="middle" x="522" y="-227" font-family="Helvetica,sans-Serif" font-size="10.00">ccMacros.h</text>
</a>
</g>
</g>
<!-- Node3&#45;&gt;Node4 -->
<g id="edge3" class="edge">
<title>Node3&#45;&gt;Node4</title>
<path fill="none" stroke="#63b8ff" d="M849.45,-593.19C682.25,-581.53 231.99,-539.9 149,-426 144.03,-419.17 143.79,-413.65 149,-407 190.21,-354.39 236.02,-402.44 295,-371 312.49,-361.68 311.96,-352.64 328,-341 384.1,-300.28 456.5,-262.53 495.04,-243.47"/>
<polygon fill="#63b8ff" stroke="#63b8ff" points="496.65,-246.58 504.08,-239.03 493.56,-240.29 496.65,-246.58"/>
</g>
<!-- Node11 -->
<g id="node11" class="node">
<title>Node11</title>
<g id="a_node11"><a xlink:href="../../d3/d15/_c_c_affine_transform_8h.html" target="_top" xlink:title=" ">
<polygon fill="white" stroke="#666666" points="1298,-426 1150,-426 1150,-407 1298,-407 1298,-426"/>
<text text-anchor="middle" x="1224" y="-414" font-family="Helvetica,sans-Serif" font-size="10.00">cocoa/CCAffineTransform.h</text>
</a>
</g>
</g>
<!-- Node3&#45;&gt;Node11 -->
<g id="edge12" class="edge">
<title>Node3&#45;&gt;Node11</title>
<path fill="none" stroke="#63b8ff" d="M911.4,-588.21C910.91,-573.85 912.06,-545.23 927,-528 980.65,-466.13 1072.33,-438.85 1139.67,-426.85"/>
<polygon fill="#63b8ff" stroke="#63b8ff" points="1140.57,-430.25 1149.84,-425.12 1139.39,-423.35 1140.57,-430.25"/>
</g>
<!-- Node3&#45;&gt;Node17 -->
<g id="edge22" class="edge">
<title>Node3&#45;&gt;Node17</title>
<path fill="none" stroke="#63b8ff" d="M947.04,-588.49C989.61,-578.16 1061.49,-560.71 1108.09,-549.4"/>
<polygon fill="#63b8ff" stroke="#63b8ff" points="1109.02,-552.78 1117.91,-547.02 1107.37,-545.97 1109.02,-552.78"/>
</g>
<!-- Node19 -->
<g id="node19" class="node">
<title>Node19</title>
<g id="a_node19"><a xlink:title=" ">
<polygon fill="#e0e0e0" stroke="#999999" points="1052,-365.5 1000,-365.5 1000,-346.5 1052,-346.5 1052,-365.5"/>
<text text-anchor="middle" x="1026" y="-353.5" font-family="Helvetica,sans-Serif" font-size="10.00">CCGL.h</text>
</a>
</g>
</g>
<!-- Node3&#45;&gt;Node19 -->
<g id="edge24" class="edge">
<title>Node3&#45;&gt;Node19</title>
<path fill="none" stroke="#63b8ff" d="M974.63,-591.49C1004.71,-585.4 1038.4,-572.82 1058,-547 1095.67,-497.38 1085.26,-465.91 1065,-407 1060.61,-394.25 1051.5,-382.25 1043.18,-373.21"/>
<polygon fill="#63b8ff" stroke="#63b8ff" points="1045.42,-370.49 1035.92,-365.79 1040.42,-375.39 1045.42,-370.49"/>
</g>
<!-- Node20 -->
<g id="node20" class="node">
<title>Node20</title>
<g id="a_node20"><a xlink:href="../../da/d2f/cc_g_l_state_cache_8h.html" target="_top" xlink:title=" ">
<polygon fill="white" stroke="#666666" points="1056,-426 910,-426 910,-407 1056,-407 1056,-426"/>
<text text-anchor="middle" x="983" y="-414" font-family="Helvetica,sans-Serif" font-size="10.00">shaders/ccGLStateCache.h</text>
</a>
</g>
</g>
<!-- Node3&#45;&gt;Node20 -->
<g id="edge25" class="edge">
<title>Node3&#45;&gt;Node20</title>
<path fill="none" stroke="#63b8ff" d="M906.26,-588.38C898.22,-575.19 885.42,-549.31 893,-528 907.19,-488.11 942.63,-452.17 964.56,-432.73"/>
<polygon fill="#63b8ff" stroke="#63b8ff" points="966.95,-435.29 972.24,-426.11 962.38,-429.99 966.95,-435.29"/>
</g>
<!-- Node21 -->
<g id="node21" class="node">
<title>Node21</title>
<g id="a_node21"><a xlink:href="../../de/d32/_c_c_g_l_program_8h.html" target="_top" xlink:title=" ">
<polygon fill="white" stroke="#666666" points="892,-426 758,-426 758,-407 892,-407 892,-426"/>
<text text-anchor="middle" x="825" y="-414" font-family="Helvetica,sans-Serif" font-size="10.00">shaders/CCGLProgram.h</text>
</a>
</g>
</g>
<!-- Node3&#45;&gt;Node21 -->
<g id="edge28" class="edge">
<title>Node3&#45;&gt;Node21</title>
<path fill="none" stroke="#63b8ff" d="M907.29,-588.2C902,-578.26 893.21,-561.55 886,-547 866.41,-507.44 844.64,-460.43 833.14,-435.36"/>
<polygon fill="#63b8ff" stroke="#63b8ff" points="836.22,-433.68 828.88,-426.04 829.86,-436.59 836.22,-433.68"/>
</g>
<!-- Node22 -->
<g id="node22" class="node">
<title>Node22</title>
<g id="a_node22"><a xlink:title=" ">
<polygon fill="#e0e0e0" stroke="#999999" points="1048.5,-547 935.5,-547 935.5,-528 1048.5,-528 1048.5,-547"/>
<text text-anchor="middle" x="992" y="-535" font-family="Helvetica,sans-Serif" font-size="10.00">kazmath/kazmath.h</text>
</a>
</g>
</g>
<!-- Node3&#45;&gt;Node22 -->
<g id="edge32" class="edge">
<title>Node3&#45;&gt;Node22</title>
<path fill="none" stroke="#63b8ff" d="M923.8,-588.37C936.45,-579.12 956.74,-564.28 971.91,-553.19"/>
<polygon fill="#63b8ff" stroke="#63b8ff" points="974.14,-555.9 980.15,-547.17 970.01,-550.24 974.14,-555.9"/>
</g>
<!-- Node23 -->
<g id="node23" class="node">
<title>Node23</title>
<g id="a_node23"><a xlink:href="../../dc/dbc/_c_c_script_support_8h.html" target="_top" xlink:title=" ">
<polygon fill="white" stroke="#666666" points="539,-486.5 363,-486.5 363,-467.5 539,-467.5 539,-486.5"/>
<text text-anchor="middle" x="451" y="-474.5" font-family="Helvetica,sans-Serif" font-size="10.00">script_support/CCScriptSupport.h</text>
</a>
</g>
</g>
<!-- Node3&#45;&gt;Node23 -->
<g id="edge33" class="edge">
<title>Node3&#45;&gt;Node23</title>
<path fill="none" stroke="#63b8ff" d="M878.85,-588.44C796.96,-567.3 585.19,-512.64 493.91,-489.08"/>
<polygon fill="#63b8ff" stroke="#63b8ff" points="494.72,-485.67 484.16,-486.56 492.97,-492.45 494.72,-485.67"/>
</g>
<!-- Node3&#45;&gt;Node30 -->
<g id="edge45" class="edge">
<title>Node3&#45;&gt;Node30</title>
<path fill="none" stroke="#63b8ff" d="M969,-588.49C1045.05,-577.14 1178.63,-557.21 1252.04,-546.25"/>
<polygon fill="#63b8ff" stroke="#63b8ff" points="1252.61,-549.71 1261.98,-544.77 1251.58,-542.78 1252.61,-549.71"/>
</g>
<!-- Node5 -->
<g id="node5" class="node">
<title>Node5</title>
<g id="a_node5"><a xlink:href="../../d5/d22/_c_c_common_8h.html" target="_top" xlink:title=" ">
<polygon fill="white" stroke="#666666" points="434,-184 306,-184 306,-165 434,-165 434,-184"/>
<text text-anchor="middle" x="370" y="-172" font-family="Helvetica,sans-Serif" font-size="10.00">platform/CCCommon.h</text>
</a>
</g>
</g>
<!-- Node4&#45;&gt;Node5 -->
<g id="edge4" class="edge">
<title>Node4&#45;&gt;Node5</title>
<path fill="none" stroke="#63b8ff" d="M497.58,-219.98C472.28,-211.16 432.55,-197.31 404.14,-187.41"/>
<polygon fill="#63b8ff" stroke="#63b8ff" points="405.21,-184.07 394.61,-184.08 402.9,-190.68 405.21,-184.07"/>
</g>
<!-- Node7 -->
<g id="node7" class="node">
<title>Node7</title>
<g id="a_node7"><a xlink:href="../../db/d9f/cc_config_8h.html" target="_top" xlink:title="cocos2d (cc) configuration file">
<polygon fill="white" stroke="#666666" points="585.5,-74 518.5,-74 518.5,-55 585.5,-55 585.5,-74"/>
<text text-anchor="middle" x="552" y="-62" font-family="Helvetica,sans-Serif" font-size="10.00">ccConfig.h</text>
</a>
</g>
</g>
<!-- Node4&#45;&gt;Node7 -->
<g id="edge11" class="edge">
<title>Node4&#45;&gt;Node7</title>
<path fill="none" stroke="#63b8ff" d="M524.41,-219.68C526.8,-210.74 530.46,-196.48 533,-184 540.14,-148.91 546.26,-107.52 549.51,-84.11"/>
<polygon fill="#63b8ff" stroke="#63b8ff" points="552.98,-84.55 550.86,-74.17 546.04,-83.6 552.98,-84.55"/>
</g>
<!-- Node10 -->
<g id="node10" class="node">
<title>Node10</title>
<g id="a_node10"><a xlink:title=" ">
<polygon fill="#e0e0e0" stroke="#999999" points="524,-184 462,-184 462,-165 524,-165 524,-184"/>
<text text-anchor="middle" x="493" y="-172" font-family="Helvetica,sans-Serif" font-size="10.00">CCStdC.h</text>
</a>
</g>
</g>
<!-- Node4&#45;&gt;Node10 -->
<g id="edge10" class="edge">
<title>Node4&#45;&gt;Node10</title>
<path fill="none" stroke="#63b8ff" d="M517.21,-219.75C513.24,-212.49 507.47,-201.95 502.57,-192.98"/>
<polygon fill="#63b8ff" stroke="#63b8ff" points="505.57,-191.18 497.7,-184.09 499.43,-194.54 505.57,-191.18"/>
</g>
<!-- Node6 -->
<g id="node6" class="node">
<title>Node6</title>
<g id="a_node6"><a xlink:href="../../d3/d41/_c_c_platform_macros_8h.html" target="_top" xlink:title=" ">
<polygon fill="white" stroke="#666666" points="760,-129 644,-129 644,-110 760,-110 760,-129"/>
<text text-anchor="middle" x="702" y="-117" font-family="Helvetica,sans-Serif" font-size="10.00">CCPlatformMacros.h</text>
</a>
</g>
</g>
<!-- Node5&#45;&gt;Node6 -->
<g id="edge5" class="edge">
<title>Node5&#45;&gt;Node6</title>
<path fill="none" stroke="#63b8ff" d="M423.34,-164.98C481.94,-155.63 576.01,-140.61 638.4,-130.65"/>
<polygon fill="#63b8ff" stroke="#63b8ff" points="639.19,-134.07 648.52,-129.04 638.09,-127.16 639.19,-134.07"/>
</g>
<!-- Node6&#45;&gt;Node7 -->
<g id="edge6" class="edge">
<title>Node6&#45;&gt;Node7</title>
<path fill="none" stroke="#63b8ff" d="M677.9,-109.98C653.12,-101.23 614.3,-87.51 586.31,-77.62"/>
<polygon fill="#63b8ff" stroke="#63b8ff" points="587.13,-74.2 576.54,-74.17 584.8,-80.8 587.13,-74.2"/>
</g>
<!-- Node8 -->
<g id="node8" class="node">
<title>Node8</title>
<g id="a_node8"><a xlink:href="../../dd/d96/_c_c_platform_config_8h.html" target="_top" xlink:title=" ">
<polygon fill="white" stroke="#666666" points="726.5,-19 569.5,-19 569.5,0 726.5,0 726.5,-19"/>
<text text-anchor="middle" x="648" y="-7" font-family="Helvetica,sans-Serif" font-size="10.00">platform/CCPlatformConfig.h</text>
</a>
</g>
</g>
<!-- Node6&#45;&gt;Node8 -->
<g id="edge8" class="edge">
<title>Node6&#45;&gt;Node8</title>
<path fill="none" stroke="#63b8ff" d="M709.91,-109.88C720.46,-97.29 736.65,-73.34 726,-55 717.46,-40.29 702.03,-30.04 687.14,-23.11"/>
<polygon fill="#63b8ff" stroke="#63b8ff" points="688.08,-19.71 677.5,-19.03 685.34,-26.15 688.08,-19.71"/>
</g>
<!-- Node9 -->
<g id="node9" class="node">
<title>Node9</title>
<g id="a_node9"><a xlink:title=" ">
<polygon fill="#e0e0e0" stroke="#999999" points="716.5,-74 603.5,-74 603.5,-55 716.5,-55 716.5,-74"/>
<text text-anchor="middle" x="660" y="-62" font-family="Helvetica,sans-Serif" font-size="10.00">CCPlatformDefine.h</text>
</a>
</g>
</g>
<!-- Node6&#45;&gt;Node9 -->
<g id="edge9" class="edge">
<title>Node6&#45;&gt;Node9</title>
<path fill="none" stroke="#63b8ff" d="M695.06,-109.75C689.13,-102.26 680.43,-91.28 673.18,-82.13"/>
<polygon fill="#63b8ff" stroke="#63b8ff" points="675.76,-79.75 666.81,-74.09 670.27,-84.1 675.76,-79.75"/>
</g>
<!-- Node7&#45;&gt;Node8 -->
<g id="edge7" class="edge">
<title>Node7&#45;&gt;Node8</title>
<path fill="none" stroke="#63b8ff" d="M567.42,-54.98C582.45,-46.69 605.54,-33.94 623.16,-24.22"/>
<polygon fill="#63b8ff" stroke="#63b8ff" points="625.23,-27.07 632.3,-19.17 621.85,-20.94 625.23,-27.07"/>
</g>
<!-- Node11&#45;&gt;Node6 -->
<g id="edge21" class="edge">
<title>Node11&#45;&gt;Node6</title>
<path fill="none" stroke="#63b8ff" d="M1212.21,-406.96C1201.89,-398.86 1187.29,-385.75 1179,-371 1161.09,-339.14 1160,-327.54 1160,-291 1160,-291 1160,-291 1160,-228.5 1160,-149.36 897.65,-128.15 770.07,-122.51"/>
<polygon fill="#63b8ff" stroke="#63b8ff" points="770.14,-119.01 760.01,-122.09 769.85,-126.01 770.14,-119.01"/>
</g>
<!-- Node12 -->
<g id="node12" class="node">
<title>Node12</title>
<g id="a_node12"><a xlink:href="../../d6/d09/_c_c_geometry_8h.html" target="_top" xlink:title=" ">
<polygon fill="white" stroke="#666666" points="1274,-365.5 1188,-365.5 1188,-346.5 1274,-346.5 1274,-365.5"/>
<text text-anchor="middle" x="1231" y="-353.5" font-family="Helvetica,sans-Serif" font-size="10.00">CCGeometry.h</text>
</a>
</g>
</g>
<!-- Node11&#45;&gt;Node12 -->
<g id="edge13" class="edge">
<title>Node11&#45;&gt;Node12</title>
<path fill="none" stroke="#63b8ff" d="M1225.03,-406.87C1226,-398.75 1227.49,-386.31 1228.74,-375.89"/>
<polygon fill="#63b8ff" stroke="#63b8ff" points="1232.25,-376.01 1229.96,-365.67 1225.3,-375.18 1232.25,-376.01"/>
</g>
<!-- Node12&#45;&gt;Node6 -->
<g id="edge14" class="edge">
<title>Node12&#45;&gt;Node6</title>
<path fill="none" stroke="#63b8ff" d="M1235.81,-346.48C1243.48,-331.73 1256.89,-300.57 1249,-275 1231.56,-218.46 1224.96,-195.08 1174,-165 1107.43,-125.71 884.45,-120.12 770.42,-119.93"/>
<polygon fill="#63b8ff" stroke="#63b8ff" points="770.4,-116.43 760.4,-119.92 770.4,-123.43 770.4,-116.43"/>
</g>
<!-- Node13 -->
<g id="node13" class="node">
<title>Node13</title>
<g id="a_node13"><a xlink:href="../../dd/d69/_c_c_object_8h.html" target="_top" xlink:title=" ">
<polygon fill="white" stroke="#666666" points="651.5,-299.5 580.5,-299.5 580.5,-280.5 651.5,-280.5 651.5,-299.5"/>
<text text-anchor="middle" x="616" y="-287.5" font-family="Helvetica,sans-Serif" font-size="10.00">CCObject.h</text>
</a>
</g>
</g>
<!-- Node12&#45;&gt;Node13 -->
<g id="edge15" class="edge">
<title>Node12&#45;&gt;Node13</title>
<path fill="none" stroke="#63b8ff" d="M1187.55,-348.13C1171.39,-345.69 1152.88,-343.05 1136,-341 961.28,-319.74 752.63,-301.98 661.9,-294.63"/>
<polygon fill="#63b8ff" stroke="#63b8ff" points="661.94,-291.12 651.69,-293.81 661.37,-298.1 661.94,-291.12"/>
</g>
<!-- Node16 -->
<g id="node16" class="node">
<title>Node16</title>
<g id="a_node16"><a xlink:title=" ">
<polygon fill="#e0e0e0" stroke="#999999" points="1239.5,-299.5 1188.5,-299.5 1188.5,-280.5 1239.5,-280.5 1239.5,-299.5"/>
<text text-anchor="middle" x="1214" y="-287.5" font-family="Helvetica,sans-Serif" font-size="10.00">math.h</text>
</a>
</g>
</g>
<!-- Node12&#45;&gt;Node16 -->
<g id="edge20" class="edge">
<title>Node12&#45;&gt;Node16</title>
<path fill="none" stroke="#63b8ff" d="M1228.71,-346.37C1226.24,-337.07 1222.23,-321.98 1219.02,-309.9"/>
<polygon fill="#63b8ff" stroke="#63b8ff" points="1222.32,-308.67 1216.37,-299.91 1215.55,-310.47 1222.32,-308.67"/>
</g>
<!-- Node13&#45;&gt;Node4 -->
<g id="edge19" class="edge">
<title>Node13&#45;&gt;Node4</title>
<path fill="none" stroke="#63b8ff" d="M602.13,-280.37C587,-270.95 562.54,-255.73 544.62,-244.58"/>
<polygon fill="#63b8ff" stroke="#63b8ff" points="546.27,-241.48 535.93,-239.17 542.57,-247.42 546.27,-241.48"/>
</g>
<!-- Node14 -->
<g id="node14" class="node">
<title>Node14</title>
<g id="a_node14"><a xlink:href="../../d9/d2d/_c_c_data_visitor_8h.html" target="_top" xlink:title=" ">
<polygon fill="white" stroke="#666666" points="701.5,-239 608.5,-239 608.5,-220 701.5,-220 701.5,-239"/>
<text text-anchor="middle" x="655" y="-227" font-family="Helvetica,sans-Serif" font-size="10.00">CCDataVisitor.h</text>
</a>
</g>
</g>
<!-- Node13&#45;&gt;Node14 -->
<g id="edge16" class="edge">
<title>Node13&#45;&gt;Node14</title>
<path fill="none" stroke="#63b8ff" d="M621.75,-280.37C627.46,-271.81 636.35,-258.47 643.51,-247.74"/>
<polygon fill="#63b8ff" stroke="#63b8ff" points="646.59,-249.43 649.22,-239.17 640.76,-245.55 646.59,-249.43"/>
</g>
<!-- Node14&#45;&gt;Node6 -->
<g id="edge17" class="edge">
<title>Node14&#45;&gt;Node6</title>
<path fill="none" stroke="#63b8ff" d="M658.85,-219.66C666.53,-202.01 683.9,-162.09 694.11,-138.64"/>
<polygon fill="#63b8ff" stroke="#63b8ff" points="697.45,-139.72 698.23,-129.16 691.03,-136.93 697.45,-139.72"/>
</g>
<!-- Node15 -->
<g id="node15" class="node">
<title>Node15</title>
<g id="a_node15"><a xlink:title=" ">
<polygon fill="#e0e0e0" stroke="#999999" points="1408,-184 1364,-184 1364,-165 1408,-165 1408,-184"/>
<text text-anchor="middle" x="1386" y="-172" font-family="Helvetica,sans-Serif" font-size="10.00">string</text>
</a>
</g>
</g>
<!-- Node14&#45;&gt;Node15 -->
<g id="edge18" class="edge">
<title>Node14&#45;&gt;Node15</title>
<path fill="none" stroke="#63b8ff" d="M701.58,-221.66C706.45,-221.05 711.32,-220.48 716,-220 960.79,-194.85 1257.42,-180.92 1353.97,-176.81"/>
<polygon fill="#63b8ff" stroke="#63b8ff" points="1354.13,-180.3 1363.97,-176.38 1353.84,-173.31 1354.13,-180.3"/>
</g>
<!-- Node18 -->
<g id="node18" class="node">
<title>Node18</title>
<g id="a_node18"><a xlink:title=" ">
<polygon fill="#e0e0e0" stroke="#999999" points="1263,-492 1143,-492 1143,-462 1263,-462 1263,-492"/>
<text text-anchor="start" x="1151" y="-480" font-family="Helvetica,sans-Serif" font-size="10.00">support/data_support</text>
<text text-anchor="middle" x="1203" y="-469" font-family="Helvetica,sans-Serif" font-size="10.00">/ccCArray.h</text>
</a>
</g>
</g>
<!-- Node17&#45;&gt;Node18 -->
<g id="edge23" class="edge">
<title>Node17&#45;&gt;Node18</title>
<path fill="none" stroke="#63b8ff" d="M1160.38,-527.87C1166.66,-520.52 1175.96,-509.63 1184.27,-499.91"/>
<polygon fill="#63b8ff" stroke="#63b8ff" points="1187.1,-501.99 1190.94,-492.11 1181.78,-497.44 1187.1,-501.99"/>
</g>
<!-- Node20&#45;&gt;Node6 -->
<g id="edge27" class="edge">
<title>Node20&#45;&gt;Node6</title>
<path fill="none" stroke="#63b8ff" d="M965.84,-406.83C934.23,-389.49 870,-347.34 870,-291 870,-291 870,-291 870,-228.5 870,-173.52 805.54,-145.21 756.47,-131.63"/>
<polygon fill="#63b8ff" stroke="#63b8ff" points="757.14,-128.19 746.58,-129.03 755.36,-134.96 757.14,-128.19"/>
</g>
<!-- Node20&#45;&gt;Node19 -->
<g id="edge26" class="edge">
<title>Node20&#45;&gt;Node19</title>
<path fill="none" stroke="#63b8ff" d="M989.34,-406.87C995.7,-398.23 1005.64,-384.7 1013.57,-373.92"/>
<polygon fill="#63b8ff" stroke="#63b8ff" points="1016.53,-375.8 1019.63,-365.67 1010.89,-371.65 1016.53,-375.8"/>
</g>
<!-- Node21&#45;&gt;Node4 -->
<g id="edge29" class="edge">
<title>Node21&#45;&gt;Node4</title>
<path fill="none" stroke="#63b8ff" d="M817.36,-406.89C795.43,-382.67 729.42,-313.19 661,-275 631.74,-258.67 595.61,-247.33 567.52,-240.19"/>
<polygon fill="#63b8ff" stroke="#63b8ff" points="568.11,-236.73 557.57,-237.75 566.44,-243.53 568.11,-236.73"/>
</g>
<!-- Node21&#45;&gt;Node13 -->
<g id="edge30" class="edge">
<title>Node21&#45;&gt;Node13</title>
<path fill="none" stroke="#63b8ff" d="M768.72,-406.92C739.72,-400.5 704.91,-389.52 678,-371 654.55,-354.86 635.95,-327.11 625.45,-308.91"/>
<polygon fill="#63b8ff" stroke="#63b8ff" points="628.38,-306.97 620.48,-299.91 622.26,-310.36 628.38,-306.97"/>
</g>
<!-- Node21&#45;&gt;Node19 -->
<g id="edge31" class="edge">
<title>Node21&#45;&gt;Node19</title>
<path fill="none" stroke="#63b8ff" d="M854.23,-406.99C890.21,-396.52 951.3,-378.74 990.1,-367.45"/>
<polygon fill="#63b8ff" stroke="#63b8ff" points="991.31,-370.74 999.94,-364.59 989.36,-364.02 991.31,-370.74"/>
</g>
<!-- Node23&#45;&gt;Node5 -->
<g id="edge34" class="edge">
<title>Node23&#45;&gt;Node5</title>
<path fill="none" stroke="#63b8ff" d="M448.02,-467.19C444.69,-457.24 439.21,-440.53 435,-426 410.05,-339.82 384.47,-235.67 374.43,-194.02"/>
<polygon fill="#63b8ff" stroke="#63b8ff" points="377.81,-193.11 372.07,-184.2 371,-194.74 377.81,-193.11"/>
</g>
<!-- Node23&#45;&gt;Node15 -->
<g id="edge43" class="edge">
<title>Node23&#45;&gt;Node15</title>
<path fill="none" stroke="#63b8ff" d="M539.11,-468.96C604.42,-461.97 686.23,-448.89 711,-426 734.36,-404.41 730,-388.81 730,-357 730,-357 730,-357 730,-289 730,-224.99 1221.2,-186.77 1353.51,-177.64"/>
<polygon fill="#63b8ff" stroke="#63b8ff" points="1354.06,-181.11 1363.8,-176.94 1353.58,-174.13 1354.06,-181.11"/>
</g>
<!-- Node24 -->
<g id="node24" class="node">
<title>Node24</title>
<g id="a_node24"><a xlink:title=" ">
<polygon fill="#e0e0e0" stroke="#999999" points="282,-426 172,-426 172,-407 282,-407 282,-426"/>
<text text-anchor="middle" x="227" y="-414" font-family="Helvetica,sans-Serif" font-size="10.00">CCAccelerometer.h</text>
</a>
</g>
</g>
<!-- Node23&#45;&gt;Node24 -->
<g id="edge35" class="edge">
<title>Node23&#45;&gt;Node24</title>
<path fill="none" stroke="#63b8ff" d="M418.43,-467.49C379.03,-457.2 312.61,-439.86 269.29,-428.54"/>
<polygon fill="#63b8ff" stroke="#63b8ff" points="270.17,-425.16 259.61,-426.02 268.4,-431.93 270.17,-425.16"/>
</g>
<!-- Node25 -->
<g id="node25" class="node">
<title>Node25</title>
<g id="a_node25"><a xlink:href="../../d3/dff/_c_c_touch_8h.html" target="_top" xlink:title=" ">
<polygon fill="white" stroke="#666666" points="701.5,-426 548.5,-426 548.5,-407 701.5,-407 701.5,-426"/>
<text text-anchor="middle" x="625" y="-414" font-family="Helvetica,sans-Serif" font-size="10.00">touch_dispatcher/CCTouch.h</text>
</a>
</g>
</g>
<!-- Node23&#45;&gt;Node25 -->
<g id="edge36" class="edge">
<title>Node23&#45;&gt;Node25</title>
<path fill="none" stroke="#63b8ff" d="M476.3,-467.49C506.2,-457.44 556.12,-440.66 589.78,-429.34"/>
<polygon fill="#63b8ff" stroke="#63b8ff" points="591.31,-432.52 599.67,-426.02 589.07,-425.89 591.31,-432.52"/>
</g>
<!-- Node26 -->
<g id="node26" class="node">
<title>Node26</title>
<g id="a_node26"><a xlink:href="../../da/ddc/_c_c_set_8h.html" target="_top" xlink:title=" ">
<polygon fill="white" stroke="#666666" points="530,-426 444,-426 444,-407 530,-407 530,-426"/>
<text text-anchor="middle" x="487" y="-414" font-family="Helvetica,sans-Serif" font-size="10.00">cocoa/CCSet.h</text>
</a>
</g>
</g>
<!-- Node23&#45;&gt;Node26 -->
<g id="edge39" class="edge">
<title>Node23&#45;&gt;Node26</title>
<path fill="none" stroke="#63b8ff" d="M456.31,-467.37C461.58,-458.81 469.79,-445.47 476.39,-434.74"/>
<polygon fill="#63b8ff" stroke="#63b8ff" points="479.41,-436.52 481.67,-426.17 473.44,-432.85 479.41,-436.52"/>
</g>
<!-- Node28 -->
<g id="node28" class="node">
<title>Node28</title>
<g id="a_node28"><a xlink:title=" ">
<polygon fill="#e0e0e0" stroke="#999999" points="338,-426 300,-426 300,-407 338,-407 338,-426"/>
<text text-anchor="middle" x="319" y="-414" font-family="Helvetica,sans-Serif" font-size="10.00">map</text>
</a>
</g>
</g>
<!-- Node23&#45;&gt;Node28 -->
<g id="edge42" class="edge">
<title>Node23&#45;&gt;Node28</title>
<path fill="none" stroke="#63b8ff" d="M431.81,-467.49C409.61,-457.66 372.88,-441.38 347.38,-430.08"/>
<polygon fill="#63b8ff" stroke="#63b8ff" points="348.78,-426.87 338.22,-426.02 345.94,-433.27 348.78,-426.87"/>
</g>
<!-- Node29 -->
<g id="node29" class="node">
<title>Node29</title>
<g id="a_node29"><a xlink:title=" ">
<polygon fill="#e0e0e0" stroke="#999999" points="388,-426 356,-426 356,-407 388,-407 388,-426"/>
<text text-anchor="middle" x="372" y="-414" font-family="Helvetica,sans-Serif" font-size="10.00">list</text>
</a>
</g>
</g>
<!-- Node23&#45;&gt;Node29 -->
<g id="edge44" class="edge">
<title>Node23&#45;&gt;Node29</title>
<path fill="none" stroke="#63b8ff" d="M439.34,-467.37C426.86,-458.12 406.82,-443.28 391.84,-432.19"/>
<polygon fill="#63b8ff" stroke="#63b8ff" points="393.82,-429.31 383.7,-426.17 389.66,-434.93 393.82,-429.31"/>
</g>
<!-- Node25&#45;&gt;Node12 -->
<g id="edge38" class="edge">
<title>Node25&#45;&gt;Node12</title>
<path fill="none" stroke="#63b8ff" d="M701.75,-408.09C826.55,-396.04 1070.33,-372.51 1177.87,-362.13"/>
<polygon fill="#63b8ff" stroke="#63b8ff" points="1178.22,-365.61 1187.84,-361.17 1177.55,-358.64 1178.22,-365.61"/>
</g>
<!-- Node25&#45;&gt;Node13 -->
<g id="edge37" class="edge">
<title>Node25&#45;&gt;Node13</title>
<path fill="none" stroke="#63b8ff" d="M624.38,-406.94C622.94,-387.04 619.34,-337.26 617.36,-309.85"/>
<polygon fill="#63b8ff" stroke="#63b8ff" points="620.83,-309.34 616.62,-299.62 613.85,-309.84 620.83,-309.34"/>
</g>
<!-- Node26&#45;&gt;Node13 -->
<g id="edge41" class="edge">
<title>Node26&#45;&gt;Node13</title>
<path fill="none" stroke="#63b8ff" d="M495.87,-406.94C517.32,-386.24 572.26,-333.21 599.78,-306.65"/>
<polygon fill="#63b8ff" stroke="#63b8ff" points="602.31,-309.08 607.07,-299.62 597.45,-304.04 602.31,-309.08"/>
</g>
<!-- Node27 -->
<g id="node27" class="node">
<title>Node27</title>
<g id="a_node27"><a xlink:title=" ">
<polygon fill="#e0e0e0" stroke="#999999" points="503,-365.5 471,-365.5 471,-346.5 503,-346.5 503,-365.5"/>
<text text-anchor="middle" x="487" y="-353.5" font-family="Helvetica,sans-Serif" font-size="10.00">set</text>
</a>
</g>
</g>
<!-- Node26&#45;&gt;Node27 -->
<g id="edge40" class="edge">
<title>Node26&#45;&gt;Node27</title>
<path fill="none" stroke="#63b8ff" d="M487,-406.87C487,-398.75 487,-386.31 487,-375.89"/>
<polygon fill="#63b8ff" stroke="#63b8ff" points="490.5,-375.67 487,-365.67 483.5,-375.67 490.5,-375.67"/>
</g>
<!-- Node30&#45;&gt;Node15 -->
<g id="edge55" class="edge">
<title>Node30&#45;&gt;Node15</title>
<path fill="none" stroke="#63b8ff" d="M1346.25,-530.23C1374.6,-524.28 1411.47,-512.98 1438,-492 1468.52,-467.86 1484,-456.41 1484,-417.5 1484,-417.5 1484,-417.5 1484,-289 1484,-244.13 1439.58,-208.23 1410.55,-189.56"/>
<polygon fill="#63b8ff" stroke="#63b8ff" points="1412.09,-186.4 1401.75,-184.12 1408.41,-192.35 1412.09,-186.4"/>
</g>
<!-- Node31 -->
<g id="node31" class="node">
<title>Node31</title>
<g id="a_node31"><a xlink:href="../../df/de6/cc_types_8h.html" target="_top" xlink:title=" ">
<polygon fill="white" stroke="#666666" points="1418,-426 1354,-426 1354,-407 1418,-407 1418,-426"/>
<text text-anchor="middle" x="1386" y="-414" font-family="Helvetica,sans-Serif" font-size="10.00">ccTypes.h</text>
</a>
</g>
</g>
<!-- Node30&#45;&gt;Node31 -->
<g id="edge46" class="edge">
<title>Node30&#45;&gt;Node31</title>
<path fill="none" stroke="#63b8ff" d="M1346.02,-532.53C1372.58,-527.6 1405,-516.58 1422,-492 1434.94,-473.29 1418.09,-449.21 1403.35,-433.57"/>
<polygon fill="#63b8ff" stroke="#63b8ff" points="1405.56,-430.83 1396.01,-426.24 1400.61,-435.78 1405.56,-430.83"/>
</g>
<!-- Node32 -->
<g id="node32" class="node">
<title>Node32</title>
<g id="a_node32"><a xlink:href="../../d5/d70/_c_c_texture2_d_8h.html" target="_top" xlink:title=" ">
<polygon fill="white" stroke="#666666" points="1413,-486.5 1281,-486.5 1281,-467.5 1413,-467.5 1413,-486.5"/>
<text text-anchor="middle" x="1347" y="-474.5" font-family="Helvetica,sans-Serif" font-size="10.00">textures/CCTexture2D.h</text>
</a>
</g>
</g>
<!-- Node30&#45;&gt;Node32 -->
<g id="edge50" class="edge">
<title>Node30&#45;&gt;Node32</title>
<path fill="none" stroke="#63b8ff" d="M1310.34,-527.87C1316.7,-519.23 1326.64,-505.7 1334.57,-494.92"/>
<polygon fill="#63b8ff" stroke="#63b8ff" points="1337.53,-496.8 1340.63,-486.67 1331.89,-492.65 1337.53,-496.8"/>
</g>
<!-- Node31&#45;&gt;Node12 -->
<g id="edge48" class="edge">
<title>Node31&#45;&gt;Node12</title>
<path fill="none" stroke="#63b8ff" d="M1363.46,-406.99C1337.06,-397.03 1293.12,-380.45 1263.15,-369.13"/>
<polygon fill="#63b8ff" stroke="#63b8ff" points="1264.16,-365.77 1253.57,-365.52 1261.69,-372.32 1264.16,-365.77"/>
</g>
<!-- Node31&#45;&gt;Node15 -->
<g id="edge47" class="edge">
<title>Node31&#45;&gt;Node15</title>
<path fill="none" stroke="#63b8ff" d="M1386,-406.96C1386,-372.48 1386,-243.08 1386,-194.28"/>
<polygon fill="#63b8ff" stroke="#63b8ff" points="1389.5,-194.19 1386,-184.19 1382.5,-194.19 1389.5,-194.19"/>
</g>
<!-- Node31&#45;&gt;Node19 -->
<g id="edge49" class="edge">
<title>Node31&#45;&gt;Node19</title>
<path fill="none" stroke="#63b8ff" d="M1353.74,-410.26C1286.76,-399.37 1133.03,-374.39 1062.53,-362.94"/>
<polygon fill="#63b8ff" stroke="#63b8ff" points="1062.79,-359.43 1052.36,-361.28 1061.67,-366.34 1062.79,-359.43"/>
</g>
<!-- Node32&#45;&gt;Node12 -->
<g id="edge53" class="edge">
<title>Node32&#45;&gt;Node12</title>
<path fill="none" stroke="#63b8ff" d="M1343.44,-467.09C1337.51,-453.06 1324.5,-425.52 1307,-407 1292.9,-392.08 1273.52,-379.41 1257.86,-370.57"/>
<polygon fill="#63b8ff" stroke="#63b8ff" points="1259.12,-367.27 1248.67,-365.56 1255.78,-373.42 1259.12,-367.27"/>
</g>
<!-- Node32&#45;&gt;Node13 -->
<g id="edge52" class="edge">
<title>Node32&#45;&gt;Node13</title>
<path fill="none" stroke="#63b8ff" d="M1306.63,-467.5C1250.81,-455.55 1155.28,-434.3 1141,-426 1096.16,-399.91 1107.4,-364.21 1061,-341 991.75,-306.36 760.83,-295.36 661.77,-292.18"/>
<polygon fill="#63b8ff" stroke="#63b8ff" points="661.87,-288.68 651.76,-291.87 661.65,-295.67 661.87,-288.68"/>
</g>
<!-- Node32&#45;&gt;Node15 -->
<g id="edge51" class="edge">
<title>Node32&#45;&gt;Node15</title>
<path fill="none" stroke="#63b8ff" d="M1369.6,-467.35C1387.71,-459.3 1412.42,-445.57 1427,-426 1446.01,-400.5 1446,-388.81 1446,-357 1446,-357 1446,-357 1446,-289 1446,-250.6 1418.83,-212.49 1401.06,-191.66"/>
<polygon fill="#63b8ff" stroke="#63b8ff" points="1403.59,-189.25 1394.34,-184.08 1398.35,-193.89 1403.59,-189.25"/>
</g>
<!-- Node32&#45;&gt;Node31 -->
<g id="edge54" class="edge">
<title>Node32&#45;&gt;Node31</title>
<path fill="none" stroke="#63b8ff" d="M1352.75,-467.37C1358.46,-458.81 1367.35,-445.47 1374.51,-434.74"/>
<polygon fill="#63b8ff" stroke="#63b8ff" points="1377.59,-436.43 1380.22,-426.17 1371.76,-432.55 1377.59,-436.43"/>
</g>
<!-- Node33&#45;&gt;Node3 -->
<g id="edge59" class="edge">
<title>Node33&#45;&gt;Node3</title>
<path fill="none" stroke="#63b8ff" d="M912,-648.8C912,-639.7 912,-627.79 912,-617.9"/>
<polygon fill="#63b8ff" stroke="#63b8ff" points="915.5,-617.84 912,-607.84 908.5,-617.84 915.5,-617.84"/>
</g>
<!-- Node33&#45;&gt;Node17 -->
<g id="edge68" class="edge">
<title>Node33&#45;&gt;Node17</title>
<path fill="none" stroke="#63b8ff" d="M939.18,-648.96C986.07,-624.74 1081.53,-575.42 1127.35,-551.75"/>
<polygon fill="#63b8ff" stroke="#63b8ff" points="1129.06,-554.81 1136.33,-547.11 1125.84,-548.59 1129.06,-554.81"/>
</g>
<!-- Node33&#45;&gt;Node30 -->
<g id="edge60" class="edge">
<title>Node33&#45;&gt;Node30</title>
<path fill="none" stroke="#63b8ff" d="M953.96,-648.99C1002.68,-632.8 1085.51,-605.49 1157,-583 1193.63,-571.48 1235.57,-558.83 1265.25,-549.98"/>
<polygon fill="#63b8ff" stroke="#63b8ff" points="1266.63,-553.22 1275.21,-547.01 1264.63,-546.51 1266.63,-553.22"/>
</g>
<!-- Node34 -->
<g id="node34" class="node">
<title>Node34</title>
<g id="a_node34"><a xlink:href="../../d8/d70/_c_c_touch_delegate_protocol_8h.html" target="_top" xlink:title=" ">
<polygon fill="white" stroke="#666666" points="286,-371 142,-371 142,-341 286,-341 286,-371"/>
<text text-anchor="start" x="150" y="-359" font-family="Helvetica,sans-Serif" font-size="10.00">touch_dispatcher/CCTouch</text>
<text text-anchor="middle" x="214" y="-348" font-family="Helvetica,sans-Serif" font-size="10.00">DelegateProtocol.h</text>
</a>
</g>
</g>
<!-- Node33&#45;&gt;Node34 -->
<g id="edge61" class="edge">
<title>Node33&#45;&gt;Node34</title>
<path fill="none" stroke="#63b8ff" d="M840.41,-659.93C636.61,-650.26 68,-616.31 68,-538.5 68,-538.5 68,-538.5 68,-476 68,-443.53 69.67,-430.57 92,-407 105.67,-392.57 124.11,-382.17 142.51,-374.73"/>
<polygon fill="#63b8ff" stroke="#63b8ff" points="143.98,-377.92 152.1,-371.11 141.51,-371.37 143.98,-377.92"/>
</g>
<!-- Node35 -->
<g id="node35" class="node">
<title>Node35</title>
<g id="a_node35"><a xlink:href="../../d8/dba/_c_c_accelerometer_delegate_8h.html" target="_top" xlink:title=" ">
<polygon fill="white" stroke="#666666" points="146,-305 0,-305 0,-275 146,-275 146,-305"/>
<text text-anchor="start" x="8" y="-293" font-family="Helvetica,sans-Serif" font-size="10.00">platform/CCAccelerometer</text>
<text text-anchor="middle" x="73" y="-282" font-family="Helvetica,sans-Serif" font-size="10.00">Delegate.h</text>
</a>
</g>
</g>
<!-- Node33&#45;&gt;Node35 -->
<g id="edge64" class="edge">
<title>Node33&#45;&gt;Node35</title>
<path fill="none" stroke="#63b8ff" d="M840.26,-663.26C673.76,-663.09 265.55,-657.94 137,-613 82.3,-593.88 30,-596.45 30,-538.5 30,-538.5 30,-538.5 30,-415.5 30,-378.35 47.31,-338.22 59.97,-313.85"/>
<polygon fill="#63b8ff" stroke="#63b8ff" points="63.06,-315.49 64.71,-305.02 56.89,-312.17 63.06,-315.49"/>
</g>
<!-- Node36 -->
<g id="node36" class="node">
<title>Node36</title>
<g id="a_node36"><a xlink:href="../../dd/d50/_c_c_keypad_delegate_8h.html" target="_top" xlink:title=" ">
<polygon fill="white" stroke="#666666" points="544.5,-613 383.5,-613 383.5,-583 544.5,-583 544.5,-613"/>
<text text-anchor="start" x="391.5" y="-601" font-family="Helvetica,sans-Serif" font-size="10.00">keypad_dispatcher/CCKeypad</text>
<text text-anchor="middle" x="464" y="-590" font-family="Helvetica,sans-Serif" font-size="10.00">Delegate.h</text>
</a>
</g>
</g>
<!-- Node33&#45;&gt;Node36 -->
<g id="edge66" class="edge">
<title>Node33&#45;&gt;Node36</title>
<path fill="none" stroke="#63b8ff" d="M840.02,-652.72C762.42,-641.63 638.73,-623.96 554.57,-611.94"/>
<polygon fill="#63b8ff" stroke="#63b8ff" points="554.9,-608.45 544.51,-610.5 553.91,-615.38 554.9,-608.45"/>
</g>
<!-- Node34&#45;&gt;Node7 -->
<g id="edge63" class="edge">
<title>Node34&#45;&gt;Node7</title>
<path fill="none" stroke="#63b8ff" d="M222.29,-340.98C234.79,-318.48 257,-272.58 257,-230.5 257,-230.5 257,-230.5 257,-173.5 257,-120.61 426.33,-85.87 508.41,-72.14"/>
<polygon fill="#63b8ff" stroke="#63b8ff" points="509.15,-75.56 518.45,-70.49 508.01,-68.66 509.15,-75.56"/>
</g>
<!-- Node34&#45;&gt;Node13 -->
<g id="edge62" class="edge">
<title>Node34&#45;&gt;Node13</title>
<path fill="none" stroke="#63b8ff" d="M286.33,-343.48C368.68,-330.37 500.74,-309.35 570.08,-298.31"/>
<polygon fill="#63b8ff" stroke="#63b8ff" points="570.93,-301.72 580.25,-296.69 569.83,-294.81 570.93,-301.72"/>
</g>
<!-- Node35&#45;&gt;Node5 -->
<g id="edge65" class="edge">
<title>Node35&#45;&gt;Node5</title>
<path fill="none" stroke="#63b8ff" d="M109.72,-274.97C168.43,-252.53 282.47,-208.95 338.03,-187.72"/>
<polygon fill="#63b8ff" stroke="#63b8ff" points="339.29,-190.98 347.38,-184.14 336.79,-184.45 339.29,-190.98"/>
</g>
<!-- Node36&#45;&gt;Node13 -->
<g id="edge67" class="edge">
<title>Node36&#45;&gt;Node13</title>
<path fill="none" stroke="#63b8ff" d="M395.71,-582.96C286.1,-557.38 90.23,-497.36 163,-407 210.08,-348.54 255.14,-389.05 328,-371 417.86,-348.74 522.34,-318.65 577.42,-302.46"/>
<polygon fill="#63b8ff" stroke="#63b8ff" points="578.51,-305.79 587.12,-299.6 576.54,-299.07 578.51,-305.79"/>
</g>
</g>
</svg>
