<?xml version="1.0" encoding="UTF-8" standalone="no"?>
<!DOCTYPE svg PUBLIC "-//W3C//DTD SVG 1.1//EN"
 "http://www.w3.org/Graphics/SVG/1.1/DTD/svg11.dtd">
<!-- Generated by graphviz version 2.43.0 (0)
 -->
<!-- Title: CCControlButton Pages: 1 -->
<svg width="621pt" height="420pt"
 viewBox="0.00 0.00 621.00 420.00" xmlns="http://www.w3.org/2000/svg" xmlns:xlink="http://www.w3.org/1999/xlink">
<g id="graph0" class="graph" transform="scale(1 1) rotate(0) translate(4 416)">
<title>CCControlButton</title>
<!-- Node1 -->
<g id="node1" class="node">
<title>Node1</title>
<g id="a_node1"><a xlink:title="for Cocos2D.">
<polygon fill="#bfbfbf" stroke="black" points="273,-56.5 273,-75.5 371,-75.5 371,-56.5 273,-56.5"/>
<text text-anchor="middle" x="322" y="-63.5" font-family="Helvetica,sans-Serif" font-size="10.00">CCControlButton</text>
</a>
</g>
</g>
<!-- Node13 -->
<g id="node13" class="node">
<title>Node13</title>
<g id="a_node13"><a xlink:href="../../d7/dc3/classcocos2d_1_1extension_1_1_c_c_edit_box.html" target="_top" xlink:title="Class for edit box.">
<polygon fill="none" stroke="black" points="288,-0.5 288,-19.5 356,-19.5 356,-0.5 288,-0.5"/>
<text text-anchor="middle" x="322" y="-7.5" font-family="Helvetica,sans-Serif" font-size="10.00">CCEditBox</text>
</a>
</g>
</g>
<!-- Node1&#45;&gt;Node13 -->
<g id="edge12" class="edge">
<title>Node1&#45;&gt;Node13</title>
<path fill="none" stroke="midnightblue" d="M322,-45.8C322,-36.91 322,-26.78 322,-19.75"/>
<polygon fill="midnightblue" stroke="midnightblue" points="318.5,-46.08 322,-56.08 325.5,-46.08 318.5,-46.08"/>
</g>
<!-- Node2 -->
<g id="node2" class="node">
<title>Node2</title>
<g id="a_node2"><a xlink:href="../../d4/d38/classcocos2d_1_1extension_1_1_c_c_control.html" target="_top" xlink:title=" ">
<polygon fill="none" stroke="black" points="289.5,-112.5 289.5,-131.5 354.5,-131.5 354.5,-112.5 289.5,-112.5"/>
<text text-anchor="middle" x="322" y="-119.5" font-family="Helvetica,sans-Serif" font-size="10.00">CCControl</text>
</a>
</g>
</g>
<!-- Node2&#45;&gt;Node1 -->
<g id="edge1" class="edge">
<title>Node2&#45;&gt;Node1</title>
<path fill="none" stroke="midnightblue" d="M322,-101.8C322,-92.91 322,-82.78 322,-75.75"/>
<polygon fill="midnightblue" stroke="midnightblue" points="318.5,-102.08 322,-112.08 325.5,-102.08 318.5,-102.08"/>
</g>
<!-- Node3 -->
<g id="node3" class="node">
<title>Node3</title>
<g id="a_node3"><a xlink:href="../../dd/d1e/classcocos2d_1_1_c_c_layer_r_g_b_a.html" target="_top" xlink:title="CCLayerRGBA is a subclass of CCLayer that implements the CCRGBAProtocol protocol using a solid color ...">
<polygon fill="none" stroke="black" points="279.5,-168.5 279.5,-187.5 364.5,-187.5 364.5,-168.5 279.5,-168.5"/>
<text text-anchor="middle" x="322" y="-175.5" font-family="Helvetica,sans-Serif" font-size="10.00">CCLayerRGBA</text>
</a>
</g>
</g>
<!-- Node3&#45;&gt;Node2 -->
<g id="edge2" class="edge">
<title>Node3&#45;&gt;Node2</title>
<path fill="none" stroke="midnightblue" d="M322,-157.8C322,-148.91 322,-138.78 322,-131.75"/>
<polygon fill="midnightblue" stroke="midnightblue" points="318.5,-158.08 322,-168.08 325.5,-158.08 318.5,-158.08"/>
</g>
<!-- Node4 -->
<g id="node4" class="node">
<title>Node4</title>
<g id="a_node4"><a xlink:href="../../d0/d45/class_c_c_layer.html" target="_top" xlink:title="CCLayer is a subclass of CCNode that implements the TouchEventsDelegate protocol.">
<polygon fill="none" stroke="black" points="245.5,-224.5 245.5,-243.5 302.5,-243.5 302.5,-224.5 245.5,-224.5"/>
<text text-anchor="middle" x="274" y="-231.5" font-family="Helvetica,sans-Serif" font-size="10.00">CCLayer</text>
</a>
</g>
</g>
<!-- Node4&#45;&gt;Node3 -->
<g id="edge3" class="edge">
<title>Node4&#45;&gt;Node3</title>
<path fill="none" stroke="midnightblue" d="M288.73,-216.43C297.14,-206.97 307.35,-195.48 314.22,-187.75"/>
<polygon fill="midnightblue" stroke="midnightblue" points="285.95,-214.28 281.93,-224.08 291.19,-218.93 285.95,-214.28"/>
</g>
<!-- Node5 -->
<g id="node5" class="node">
<title>Node5</title>
<g id="a_node5"><a xlink:href="../../d0/ded/classcocos2d_1_1_c_c_node.html" target="_top" xlink:title="CCNode is the main element.">
<polygon fill="none" stroke="black" points="7,-280.5 7,-299.5 63,-299.5 63,-280.5 7,-280.5"/>
<text text-anchor="middle" x="35" y="-287.5" font-family="Helvetica,sans-Serif" font-size="10.00">CCNode</text>
</a>
</g>
</g>
<!-- Node5&#45;&gt;Node4 -->
<g id="edge4" class="edge">
<title>Node5&#45;&gt;Node4</title>
<path fill="none" stroke="midnightblue" d="M73.17,-279.76C140.3,-264.18 207.81,-249.36 245.19,-241.23"/>
<polygon fill="midnightblue" stroke="midnightblue" points="72.21,-276.39 63.27,-282.06 73.8,-283.21 72.21,-276.39"/>
</g>
<!-- Node6 -->
<g id="node6" class="node">
<title>Node6</title>
<g id="a_node6"><a xlink:href="../../d3/dbf/classcocos2d_1_1_c_c_object.html" target="_top" xlink:title="NA.">
<polygon fill="none" stroke="black" points="4,-336.5 4,-355.5 66,-355.5 66,-336.5 4,-336.5"/>
<text text-anchor="middle" x="35" y="-343.5" font-family="Helvetica,sans-Serif" font-size="10.00">CCObject</text>
</a>
</g>
</g>
<!-- Node6&#45;&gt;Node5 -->
<g id="edge5" class="edge">
<title>Node6&#45;&gt;Node5</title>
<path fill="none" stroke="midnightblue" d="M35,-325.8C35,-316.91 35,-306.78 35,-299.75"/>
<polygon fill="midnightblue" stroke="midnightblue" points="31.5,-326.08 35,-336.08 38.5,-326.08 31.5,-326.08"/>
</g>
<!-- Node7 -->
<g id="node7" class="node">
<title>Node7</title>
<g id="a_node7"><a xlink:href="../../d5/d61/classcocos2d_1_1_c_c_copying.html" target="_top" xlink:title="NA NA.">
<polygon fill="none" stroke="black" points="0,-392.5 0,-411.5 70,-411.5 70,-392.5 0,-392.5"/>
<text text-anchor="middle" x="35" y="-399.5" font-family="Helvetica,sans-Serif" font-size="10.00">CCCopying</text>
</a>
</g>
</g>
<!-- Node7&#45;&gt;Node6 -->
<g id="edge6" class="edge">
<title>Node7&#45;&gt;Node6</title>
<path fill="none" stroke="midnightblue" d="M35,-381.8C35,-372.91 35,-362.78 35,-355.75"/>
<polygon fill="midnightblue" stroke="midnightblue" points="31.5,-382.08 35,-392.08 38.5,-382.08 31.5,-382.08"/>
</g>
<!-- Node8 -->
<g id="node8" class="node">
<title>Node8</title>
<g id="a_node8"><a xlink:href="../../d0/d38/classcocos2d_1_1_c_c_touch_delegate.html" target="_top" xlink:title=" ">
<polygon fill="none" stroke="black" points="81,-280.5 81,-299.5 183,-299.5 183,-280.5 81,-280.5"/>
<text text-anchor="middle" x="132" y="-287.5" font-family="Helvetica,sans-Serif" font-size="10.00">CCTouchDelegate</text>
</a>
</g>
</g>
<!-- Node8&#45;&gt;Node4 -->
<g id="edge7" class="edge">
<title>Node8&#45;&gt;Node4</title>
<path fill="none" stroke="midnightblue" d="M164.16,-276.77C190.83,-266.63 228.07,-252.47 251.6,-243.52"/>
<polygon fill="midnightblue" stroke="midnightblue" points="162.6,-273.62 154.5,-280.44 165.09,-280.16 162.6,-273.62"/>
</g>
<!-- Node9 -->
<g id="node9" class="node">
<title>Node9</title>
<g id="a_node9"><a xlink:href="../../da/d55/classcocos2d_1_1_c_c_accelerometer_delegate.html" target="_top" xlink:title="The CCAccelerometerDelegate defines a single method for receiving acceleration&#45;related data from the ...">
<polygon fill="none" stroke="black" points="201,-280.5 201,-299.5 347,-299.5 347,-280.5 201,-280.5"/>
<text text-anchor="middle" x="274" y="-287.5" font-family="Helvetica,sans-Serif" font-size="10.00">CCAccelerometerDelegate</text>
</a>
</g>
</g>
<!-- Node9&#45;&gt;Node4 -->
<g id="edge8" class="edge">
<title>Node9&#45;&gt;Node4</title>
<path fill="none" stroke="midnightblue" d="M274,-269.8C274,-260.91 274,-250.78 274,-243.75"/>
<polygon fill="midnightblue" stroke="midnightblue" points="270.5,-270.08 274,-280.08 277.5,-270.08 270.5,-270.08"/>
</g>
<!-- Node10 -->
<g id="node10" class="node">
<title>Node10</title>
<g id="a_node10"><a xlink:href="../../d2/d2d/classcocos2d_1_1_c_c_keypad_delegate.html" target="_top" xlink:title=" ">
<polygon fill="none" stroke="black" points="365,-280.5 365,-299.5 475,-299.5 475,-280.5 365,-280.5"/>
<text text-anchor="middle" x="420" y="-287.5" font-family="Helvetica,sans-Serif" font-size="10.00">CCKeypadDelegate</text>
</a>
</g>
</g>
<!-- Node10&#45;&gt;Node4 -->
<g id="edge9" class="edge">
<title>Node10&#45;&gt;Node4</title>
<path fill="none" stroke="midnightblue" d="M387.3,-276.91C359.85,-266.75 321.33,-252.51 297.03,-243.52"/>
<polygon fill="midnightblue" stroke="midnightblue" points="386.27,-280.26 396.87,-280.44 388.7,-273.69 386.27,-280.26"/>
</g>
<!-- Node11 -->
<g id="node11" class="node">
<title>Node11</title>
<g id="a_node11"><a xlink:href="../../d2/d91/classcocos2d_1_1_c_c_keyboard_delegate.html" target="_top" xlink:title=" ">
<polygon fill="none" stroke="black" points="493,-280.5 493,-299.5 613,-299.5 613,-280.5 493,-280.5"/>
<text text-anchor="middle" x="553" y="-287.5" font-family="Helvetica,sans-Serif" font-size="10.00">CCKeyboardDelegate</text>
</a>
</g>
</g>
<!-- Node11&#45;&gt;Node4 -->
<g id="edge10" class="edge">
<title>Node11&#45;&gt;Node4</title>
<path fill="none" stroke="midnightblue" d="M493.39,-278.69C444.52,-270.04 373.62,-257.04 312,-244 308.95,-243.35 305.77,-242.65 302.6,-241.93"/>
<polygon fill="midnightblue" stroke="midnightblue" points="493.02,-282.18 503.48,-280.47 494.24,-275.29 493.02,-282.18"/>
</g>
<!-- Node12 -->
<g id="node12" class="node">
<title>Node12</title>
<g id="a_node12"><a xlink:href="../../d8/dda/classcocos2d_1_1_c_c_r_g_b_a_protocol.html" target="_top" xlink:title="RGBA protocol that affects CCNode&#39;s color and opacity NA.">
<polygon fill="none" stroke="black" points="321,-224.5 321,-243.5 419,-243.5 419,-224.5 321,-224.5"/>
<text text-anchor="middle" x="370" y="-231.5" font-family="Helvetica,sans-Serif" font-size="10.00">CCRGBAProtocol</text>
</a>
</g>
</g>
<!-- Node12&#45;&gt;Node3 -->
<g id="edge11" class="edge">
<title>Node12&#45;&gt;Node3</title>
<path fill="none" stroke="midnightblue" d="M355.27,-216.43C346.86,-206.97 336.65,-195.48 329.78,-187.75"/>
<polygon fill="midnightblue" stroke="midnightblue" points="352.81,-218.93 362.07,-224.08 358.05,-214.28 352.81,-218.93"/>
</g>
</g>
</svg>
