<?xml version="1.0" encoding="UTF-8" standalone="no"?>
<!DOCTYPE svg PUBLIC "-//W3C//DTD SVG 1.1//EN"
 "http://www.w3.org/Graphics/SVG/1.1/DTD/svg11.dtd">
<!-- Generated by graphviz version 2.43.0 (0)
 -->
<!-- Title: /home/runner/work/cocos&#45;headers/cocos&#45;headers/cocos2dx/touch_dispatcher/CCTouchHandler.h Pages: 1 -->
<svg width="453pt" height="511pt"
 viewBox="0.00 0.00 452.50 511.00" xmlns="http://www.w3.org/2000/svg" xmlns:xlink="http://www.w3.org/1999/xlink">
<g id="graph0" class="graph" transform="scale(1 1) rotate(0) translate(4 507)">
<title>/home/runner/work/cocos&#45;headers/cocos&#45;headers/cocos2dx/touch_dispatcher/CCTouchHandler.h</title>
<!-- Node1 -->
<g id="node1" class="node">
<title>Node1</title>
<g id="a_node1"><a xlink:title=" ">
<polygon fill="#999999" stroke="#666666" points="362.5,-503 210.5,-503 210.5,-451 362.5,-451 362.5,-503"/>
<text text-anchor="start" x="218.5" y="-491" font-family="Helvetica,sans-Serif" font-size="10.00">/home/runner/work/cocos</text>
<text text-anchor="start" x="218.5" y="-480" font-family="Helvetica,sans-Serif" font-size="10.00">&#45;headers/cocos&#45;headers</text>
<text text-anchor="start" x="218.5" y="-469" font-family="Helvetica,sans-Serif" font-size="10.00">/cocos2dx/touch_dispatcher</text>
<text text-anchor="middle" x="286.5" y="-458" font-family="Helvetica,sans-Serif" font-size="10.00">/CCTouchHandler.h</text>
</a>
</g>
</g>
<!-- Node2 -->
<g id="node2" class="node">
<title>Node2</title>
<g id="a_node2"><a xlink:href="../../d8/d70/_c_c_touch_delegate_protocol_8h.html" target="_top" xlink:title=" ">
<polygon fill="white" stroke="#666666" points="151,-360 0,-360 0,-341 151,-341 151,-360"/>
<text text-anchor="middle" x="75.5" y="-348" font-family="Helvetica,sans-Serif" font-size="10.00">CCTouchDelegateProtocol.h</text>
</a>
</g>
</g>
<!-- Node1&#45;&gt;Node2 -->
<g id="edge1" class="edge">
<title>Node1&#45;&gt;Node2</title>
<path fill="none" stroke="#63b8ff" d="M228.83,-450.91C206.94,-440.66 182.1,-428.13 160.5,-415 136.24,-400.25 110.38,-380.24 93.64,-366.66"/>
<polygon fill="#63b8ff" stroke="#63b8ff" points="95.73,-363.84 85.78,-360.2 91.28,-369.25 95.73,-363.84"/>
</g>
<!-- Node3 -->
<g id="node3" class="node">
<title>Node3</title>
<g id="a_node3"><a xlink:href="../../dd/d69/_c_c_object_8h.html" target="_top" xlink:title=" ">
<polygon fill="white" stroke="#666666" points="381.5,-299.5 279.5,-299.5 279.5,-280.5 381.5,-280.5 381.5,-299.5"/>
<text text-anchor="middle" x="330.5" y="-287.5" font-family="Helvetica,sans-Serif" font-size="10.00">cocoa/CCObject.h</text>
</a>
</g>
</g>
<!-- Node1&#45;&gt;Node3 -->
<g id="edge21" class="edge">
<title>Node1&#45;&gt;Node3</title>
<path fill="none" stroke="#63b8ff" d="M292.53,-450.66C301.49,-412.97 318.14,-342.98 326.07,-309.62"/>
<polygon fill="#63b8ff" stroke="#63b8ff" points="329.5,-310.35 328.4,-299.81 322.69,-308.73 329.5,-310.35"/>
</g>
<!-- Node13 -->
<g id="node13" class="node">
<title>Node13</title>
<g id="a_node13"><a xlink:href="../../da/d97/_c_c_touch_dispatcher_8h.html" target="_top" xlink:title=" ">
<polygon fill="white" stroke="#666666" points="289,-415 170,-415 170,-396 289,-396 289,-415"/>
<text text-anchor="middle" x="229.5" y="-403" font-family="Helvetica,sans-Serif" font-size="10.00">CCTouchDispatcher.h</text>
</a>
</g>
</g>
<!-- Node1&#45;&gt;Node13 -->
<g id="edge16" class="edge">
<title>Node1&#45;&gt;Node13</title>
<path fill="none" stroke="#63b8ff" d="M265.92,-450.91C258.35,-441.67 249.96,-431.45 243.15,-423.14"/>
<polygon fill="#63b8ff" stroke="#63b8ff" points="245.77,-420.81 236.72,-415.3 240.35,-425.25 245.77,-420.81"/>
</g>
<!-- Node16 -->
<g id="node16" class="node">
<title>Node16</title>
<g id="a_node16"><a xlink:href="../../da/ddc/_c_c_set_8h.html" target="_top" xlink:title=" ">
<polygon fill="white" stroke="#666666" points="444.5,-415 358.5,-415 358.5,-396 444.5,-396 444.5,-415"/>
<text text-anchor="middle" x="401.5" y="-403" font-family="Helvetica,sans-Serif" font-size="10.00">cocoa/CCSet.h</text>
</a>
</g>
</g>
<!-- Node1&#45;&gt;Node16 -->
<g id="edge22" class="edge">
<title>Node1&#45;&gt;Node16</title>
<path fill="none" stroke="#63b8ff" d="M328.02,-450.91C345.01,-440.64 364.03,-429.15 378.46,-420.43"/>
<polygon fill="#63b8ff" stroke="#63b8ff" points="380.46,-423.3 387.21,-415.14 376.84,-417.31 380.46,-423.3"/>
</g>
<!-- Node2&#45;&gt;Node3 -->
<g id="edge2" class="edge">
<title>Node2&#45;&gt;Node3</title>
<path fill="none" stroke="#63b8ff" d="M113.26,-340.94C152.55,-332.02 215.86,-317.61 270.5,-305 274.9,-303.98 279.48,-302.92 284.06,-301.86"/>
<polygon fill="#63b8ff" stroke="#63b8ff" points="285.07,-305.22 294.02,-299.54 283.48,-298.4 285.07,-305.22"/>
</g>
<!-- Node6 -->
<g id="node6" class="node">
<title>Node6</title>
<g id="a_node6"><a xlink:href="../../db/d9f/cc_config_8h.html" target="_top" xlink:title="cocos2d (cc) configuration file">
<polygon fill="white" stroke="#666666" points="227,-74 160,-74 160,-55 227,-55 227,-74"/>
<text text-anchor="middle" x="193.5" y="-62" font-family="Helvetica,sans-Serif" font-size="10.00">ccConfig.h</text>
</a>
</g>
</g>
<!-- Node2&#45;&gt;Node6 -->
<g id="edge15" class="edge">
<title>Node2&#45;&gt;Node6</title>
<path fill="none" stroke="#63b8ff" d="M75.5,-340.84C75.5,-321.21 75.5,-271.82 75.5,-230.5 75.5,-230.5 75.5,-230.5 75.5,-173.5 75.5,-126.67 126.71,-94.67 161.66,-78.28"/>
<polygon fill="#63b8ff" stroke="#63b8ff" points="163.34,-81.37 171.03,-74.08 160.47,-74.98 163.34,-81.37"/>
</g>
<!-- Node4 -->
<g id="node4" class="node">
<title>Node4</title>
<g id="a_node4"><a xlink:href="../../d9/d2d/_c_c_data_visitor_8h.html" target="_top" xlink:title=" ">
<polygon fill="white" stroke="#666666" points="436,-239 343,-239 343,-220 436,-220 436,-239"/>
<text text-anchor="middle" x="389.5" y="-227" font-family="Helvetica,sans-Serif" font-size="10.00">CCDataVisitor.h</text>
</a>
</g>
</g>
<!-- Node3&#45;&gt;Node4 -->
<g id="edge3" class="edge">
<title>Node3&#45;&gt;Node4</title>
<path fill="none" stroke="#63b8ff" d="M339.21,-280.37C348.18,-271.47 362.38,-257.39 373.41,-246.45"/>
<polygon fill="#63b8ff" stroke="#63b8ff" points="376.12,-248.69 380.76,-239.17 371.19,-243.72 376.12,-248.69"/>
</g>
<!-- Node10 -->
<g id="node10" class="node">
<title>Node10</title>
<g id="a_node10"><a xlink:href="../../d9/dc8/cc_macros_8h.html" target="_top" xlink:title=" ">
<polygon fill="white" stroke="#666666" points="275,-239 204,-239 204,-220 275,-220 275,-239"/>
<text text-anchor="middle" x="239.5" y="-227" font-family="Helvetica,sans-Serif" font-size="10.00">ccMacros.h</text>
</a>
</g>
</g>
<!-- Node3&#45;&gt;Node10 -->
<g id="edge10" class="edge">
<title>Node3&#45;&gt;Node10</title>
<path fill="none" stroke="#63b8ff" d="M317.07,-280.37C302.42,-270.95 278.74,-255.73 261.4,-244.58"/>
<polygon fill="#63b8ff" stroke="#63b8ff" points="263.29,-241.63 252.98,-239.17 259.5,-247.52 263.29,-241.63"/>
</g>
<!-- Node5 -->
<g id="node5" class="node">
<title>Node5</title>
<g id="a_node5"><a xlink:href="../../d3/d41/_c_c_platform_macros_8h.html" target="_top" xlink:title=" ">
<polygon fill="white" stroke="#666666" points="383,-129 222,-129 222,-110 383,-110 383,-129"/>
<text text-anchor="middle" x="302.5" y="-117" font-family="Helvetica,sans-Serif" font-size="10.00">platform/CCPlatformMacros.h</text>
</a>
</g>
</g>
<!-- Node4&#45;&gt;Node5 -->
<g id="edge4" class="edge">
<title>Node4&#45;&gt;Node5</title>
<path fill="none" stroke="#63b8ff" d="M399.4,-219.84C412.63,-207.18 433.06,-183.16 420.5,-165 409.42,-148.98 391.78,-138.71 373.49,-132.15"/>
<polygon fill="#63b8ff" stroke="#63b8ff" points="374.48,-128.79 363.89,-129.04 372.33,-135.45 374.48,-128.79"/>
</g>
<!-- Node9 -->
<g id="node9" class="node">
<title>Node9</title>
<g id="a_node9"><a xlink:title=" ">
<polygon fill="#e0e0e0" stroke="#999999" points="411.5,-184 367.5,-184 367.5,-165 411.5,-165 411.5,-184"/>
<text text-anchor="middle" x="389.5" y="-172" font-family="Helvetica,sans-Serif" font-size="10.00">string</text>
</a>
</g>
</g>
<!-- Node4&#45;&gt;Node9 -->
<g id="edge9" class="edge">
<title>Node4&#45;&gt;Node9</title>
<path fill="none" stroke="#63b8ff" d="M389.5,-219.75C389.5,-212.8 389.5,-202.85 389.5,-194.13"/>
<polygon fill="#63b8ff" stroke="#63b8ff" points="393,-194.09 389.5,-184.09 386,-194.09 393,-194.09"/>
</g>
<!-- Node5&#45;&gt;Node6 -->
<g id="edge5" class="edge">
<title>Node5&#45;&gt;Node6</title>
<path fill="none" stroke="#63b8ff" d="M284.99,-109.98C267.53,-101.5 240.49,-88.35 220.33,-78.54"/>
<polygon fill="#63b8ff" stroke="#63b8ff" points="221.86,-75.4 211.33,-74.17 218.79,-81.69 221.86,-75.4"/>
</g>
<!-- Node7 -->
<g id="node7" class="node">
<title>Node7</title>
<g id="a_node7"><a xlink:href="../../dd/d96/_c_c_platform_config_8h.html" target="_top" xlink:title=" ">
<polygon fill="white" stroke="#666666" points="368,-19 211,-19 211,0 368,0 368,-19"/>
<text text-anchor="middle" x="289.5" y="-7" font-family="Helvetica,sans-Serif" font-size="10.00">platform/CCPlatformConfig.h</text>
</a>
</g>
</g>
<!-- Node5&#45;&gt;Node7 -->
<g id="edge7" class="edge">
<title>Node5&#45;&gt;Node7</title>
<path fill="none" stroke="#63b8ff" d="M323.41,-109.81C346.83,-98.73 379.88,-78.18 366.5,-55 358.08,-40.41 342.85,-30.17 328.15,-23.23"/>
<polygon fill="#63b8ff" stroke="#63b8ff" points="329.21,-19.87 318.64,-19.13 326.43,-26.3 329.21,-19.87"/>
</g>
<!-- Node8 -->
<g id="node8" class="node">
<title>Node8</title>
<g id="a_node8"><a xlink:title=" ">
<polygon fill="#e0e0e0" stroke="#999999" points="358,-74 245,-74 245,-55 358,-55 358,-74"/>
<text text-anchor="middle" x="301.5" y="-62" font-family="Helvetica,sans-Serif" font-size="10.00">CCPlatformDefine.h</text>
</a>
</g>
</g>
<!-- Node5&#45;&gt;Node8 -->
<g id="edge8" class="edge">
<title>Node5&#45;&gt;Node8</title>
<path fill="none" stroke="#63b8ff" d="M302.33,-109.75C302.2,-102.8 302.02,-92.85 301.85,-84.13"/>
<polygon fill="#63b8ff" stroke="#63b8ff" points="305.35,-84.02 301.66,-74.09 298.35,-84.15 305.35,-84.02"/>
</g>
<!-- Node6&#45;&gt;Node7 -->
<g id="edge6" class="edge">
<title>Node6&#45;&gt;Node7</title>
<path fill="none" stroke="#63b8ff" d="M208.92,-54.98C223.95,-46.69 247.04,-33.94 264.66,-24.22"/>
<polygon fill="#63b8ff" stroke="#63b8ff" points="266.73,-27.07 273.8,-19.17 263.35,-20.94 266.73,-27.07"/>
</g>
<!-- Node10&#45;&gt;Node6 -->
<g id="edge14" class="edge">
<title>Node10&#45;&gt;Node6</title>
<path fill="none" stroke="#63b8ff" d="M232.82,-219.82C226.56,-211.21 217.42,-197.4 212.5,-184 200.09,-150.22 195.77,-108.07 194.28,-84.23"/>
<polygon fill="#63b8ff" stroke="#63b8ff" points="197.77,-83.92 193.75,-74.12 190.78,-84.28 197.77,-83.92"/>
</g>
<!-- Node11 -->
<g id="node11" class="node">
<title>Node11</title>
<g id="a_node11"><a xlink:href="../../d5/d22/_c_c_common_8h.html" target="_top" xlink:title=" ">
<polygon fill="white" stroke="#666666" points="349.5,-184 221.5,-184 221.5,-165 349.5,-165 349.5,-184"/>
<text text-anchor="middle" x="285.5" y="-172" font-family="Helvetica,sans-Serif" font-size="10.00">platform/CCCommon.h</text>
</a>
</g>
</g>
<!-- Node10&#45;&gt;Node11 -->
<g id="edge11" class="edge">
<title>Node10&#45;&gt;Node11</title>
<path fill="none" stroke="#63b8ff" d="M247.1,-219.75C253.66,-212.18 263.32,-201.05 271.31,-191.84"/>
<polygon fill="#63b8ff" stroke="#63b8ff" points="274.13,-193.94 278.05,-184.09 268.85,-189.35 274.13,-193.94"/>
</g>
<!-- Node12 -->
<g id="node12" class="node">
<title>Node12</title>
<g id="a_node12"><a xlink:title=" ">
<polygon fill="#e0e0e0" stroke="#999999" points="165.5,-184 103.5,-184 103.5,-165 165.5,-165 165.5,-184"/>
<text text-anchor="middle" x="134.5" y="-172" font-family="Helvetica,sans-Serif" font-size="10.00">CCStdC.h</text>
</a>
</g>
</g>
<!-- Node10&#45;&gt;Node12 -->
<g id="edge13" class="edge">
<title>Node10&#45;&gt;Node12</title>
<path fill="none" stroke="#63b8ff" d="M222.63,-219.98C205.89,-211.54 180,-198.47 160.61,-188.68"/>
<polygon fill="#63b8ff" stroke="#63b8ff" points="162.18,-185.55 151.68,-184.17 159.03,-191.8 162.18,-185.55"/>
</g>
<!-- Node11&#45;&gt;Node5 -->
<g id="edge12" class="edge">
<title>Node11&#45;&gt;Node5</title>
<path fill="none" stroke="#63b8ff" d="M288.31,-164.75C290.56,-157.72 293.8,-147.62 296.62,-138.84"/>
<polygon fill="#63b8ff" stroke="#63b8ff" points="300.02,-139.68 299.75,-129.09 293.36,-137.54 300.02,-139.68"/>
</g>
<!-- Node13&#45;&gt;Node2 -->
<g id="edge17" class="edge">
<title>Node13&#45;&gt;Node2</title>
<path fill="none" stroke="#63b8ff" d="M204.76,-395.98C179.13,-387.16 138.87,-373.31 110.09,-363.41"/>
<polygon fill="#63b8ff" stroke="#63b8ff" points="111.03,-360.03 100.44,-360.08 108.75,-366.65 111.03,-360.03"/>
</g>
<!-- Node13&#45;&gt;Node3 -->
<g id="edge18" class="edge">
<title>Node13&#45;&gt;Node3</title>
<path fill="none" stroke="#63b8ff" d="M238.25,-395.81C247.07,-386.96 260.99,-372.77 272.5,-360 288.29,-342.48 305.59,-321.67 317.15,-307.52"/>
<polygon fill="#63b8ff" stroke="#63b8ff" points="319.95,-309.63 323.54,-299.66 314.52,-305.21 319.95,-309.63"/>
</g>
<!-- Node14 -->
<g id="node14" class="node">
<title>Node14</title>
<g id="a_node14"><a xlink:href="../../da/d35/_c_c_array_8h.html" target="_top" xlink:title=" ">
<polygon fill="white" stroke="#666666" points="264,-360 169,-360 169,-341 264,-341 264,-360"/>
<text text-anchor="middle" x="216.5" y="-348" font-family="Helvetica,sans-Serif" font-size="10.00">cocoa/CCArray.h</text>
</a>
</g>
</g>
<!-- Node13&#45;&gt;Node14 -->
<g id="edge19" class="edge">
<title>Node13&#45;&gt;Node14</title>
<path fill="none" stroke="#63b8ff" d="M227.35,-395.75C225.63,-388.72 223.15,-378.62 221,-369.84"/>
<polygon fill="#63b8ff" stroke="#63b8ff" points="224.39,-368.97 218.61,-360.09 217.59,-370.63 224.39,-368.97"/>
</g>
<!-- Node15 -->
<g id="node15" class="node">
<title>Node15</title>
<g id="a_node15"><a xlink:title=" ">
<polygon fill="#e0e0e0" stroke="#999999" points="261.5,-305 141.5,-305 141.5,-275 261.5,-275 261.5,-305"/>
<text text-anchor="start" x="149.5" y="-293" font-family="Helvetica,sans-Serif" font-size="10.00">support/data_support</text>
<text text-anchor="middle" x="201.5" y="-282" font-family="Helvetica,sans-Serif" font-size="10.00">/ccCArray.h</text>
</a>
</g>
</g>
<!-- Node14&#45;&gt;Node15 -->
<g id="edge20" class="edge">
<title>Node14&#45;&gt;Node15</title>
<path fill="none" stroke="#63b8ff" d="M214.29,-340.87C212.53,-334.03 210,-324.14 207.65,-314.97"/>
<polygon fill="#63b8ff" stroke="#63b8ff" points="210.99,-313.93 205.12,-305.11 204.21,-315.67 210.99,-313.93"/>
</g>
<!-- Node16&#45;&gt;Node3 -->
<g id="edge24" class="edge">
<title>Node16&#45;&gt;Node3</title>
<path fill="none" stroke="#63b8ff" d="M396.16,-395.97C384.55,-377.4 356.78,-333.01 341.33,-308.32"/>
<polygon fill="#63b8ff" stroke="#63b8ff" points="344.17,-306.25 335.9,-299.63 338.23,-309.96 344.17,-306.25"/>
</g>
<!-- Node17 -->
<g id="node17" class="node">
<title>Node17</title>
<g id="a_node17"><a xlink:title=" ">
<polygon fill="#e0e0e0" stroke="#999999" points="428.5,-360 396.5,-360 396.5,-341 428.5,-341 428.5,-360"/>
<text text-anchor="middle" x="412.5" y="-348" font-family="Helvetica,sans-Serif" font-size="10.00">set</text>
</a>
</g>
</g>
<!-- Node16&#45;&gt;Node17 -->
<g id="edge23" class="edge">
<title>Node16&#45;&gt;Node17</title>
<path fill="none" stroke="#63b8ff" d="M403.32,-395.75C404.76,-388.8 406.82,-378.85 408.63,-370.13"/>
<polygon fill="#63b8ff" stroke="#63b8ff" points="412.11,-370.59 410.72,-360.09 405.26,-369.17 412.11,-370.59"/>
</g>
</g>
</svg>
