<?xml version="1.0" encoding="UTF-8" standalone="no"?>
<!DOCTYPE svg PUBLIC "-//W3C//DTD SVG 1.1//EN"
 "http://www.w3.org/Graphics/SVG/1.1/DTD/svg11.dtd">
<!-- Generated by graphviz version 2.43.0 (0)
 -->
<!-- Title: /home/runner/work/cocos&#45;headers/cocos&#45;headers/cocos2dx/touch_dispatcher/CCTouchHandler.h Pages: 1 -->
<svg width="453pt" height="520pt"
 viewBox="0.00 0.00 452.50 520.00" xmlns="http://www.w3.org/2000/svg" xmlns:xlink="http://www.w3.org/1999/xlink">
<g id="graph0" class="graph" transform="scale(1 1) rotate(0) translate(4 516)">
<title>/home/runner/work/cocos&#45;headers/cocos&#45;headers/cocos2dx/touch_dispatcher/CCTouchHandler.h</title>
<!-- Node1 -->
<g id="node1" class="node">
<title>Node1</title>
<g id="a_node1"><a xlink:title=" ">
<polygon fill="#bfbfbf" stroke="black" points="210.5,-459.5 210.5,-511.5 362.5,-511.5 362.5,-459.5 210.5,-459.5"/>
<text text-anchor="start" x="218.5" y="-499.5" font-family="Helvetica,sans-Serif" font-size="10.00">/home/runner/work/cocos</text>
<text text-anchor="start" x="218.5" y="-488.5" font-family="Helvetica,sans-Serif" font-size="10.00">&#45;headers/cocos&#45;headers</text>
<text text-anchor="start" x="218.5" y="-477.5" font-family="Helvetica,sans-Serif" font-size="10.00">/cocos2dx/touch_dispatcher</text>
<text text-anchor="middle" x="286.5" y="-466.5" font-family="Helvetica,sans-Serif" font-size="10.00">/CCTouchHandler.h</text>
</a>
</g>
</g>
<!-- Node2 -->
<g id="node2" class="node">
<title>Node2</title>
<g id="a_node2"><a xlink:href="../../d8/d70/_c_c_touch_delegate_protocol_8h.html" target="_top" xlink:title=" ">
<polygon fill="none" stroke="black" points="0,-347.5 0,-366.5 151,-366.5 151,-347.5 0,-347.5"/>
<text text-anchor="middle" x="75.5" y="-354.5" font-family="Helvetica,sans-Serif" font-size="10.00">CCTouchDelegateProtocol.h</text>
</a>
</g>
</g>
<!-- Node1&#45;&gt;Node2 -->
<g id="edge1" class="edge">
<title>Node1&#45;&gt;Node2</title>
<path fill="none" stroke="midnightblue" d="M229.08,-459.42C207.11,-449.07 182.14,-436.37 160.5,-423 136.01,-407.87 110.02,-387.23 93.32,-373.31"/>
<polygon fill="midnightblue" stroke="midnightblue" points="95.39,-370.47 85.49,-366.7 90.88,-375.82 95.39,-370.47"/>
</g>
<!-- Node3 -->
<g id="node3" class="node">
<title>Node3</title>
<g id="a_node3"><a xlink:href="../../dd/d69/_c_c_object_8h.html" target="_top" xlink:title=" ">
<polygon fill="none" stroke="black" points="279.5,-286 279.5,-305 381.5,-305 381.5,-286 279.5,-286"/>
<text text-anchor="middle" x="330.5" y="-293" font-family="Helvetica,sans-Serif" font-size="10.00">cocoa/CCObject.h</text>
</a>
</g>
</g>
<!-- Node1&#45;&gt;Node3 -->
<g id="edge21" class="edge">
<title>Node1&#45;&gt;Node3</title>
<path fill="none" stroke="midnightblue" d="M292.43,-459.15C301.41,-420.79 318.24,-348.89 326.16,-315.03"/>
<polygon fill="midnightblue" stroke="midnightblue" points="329.61,-315.65 328.48,-305.11 322.8,-314.05 329.61,-315.65"/>
</g>
<!-- Node13 -->
<g id="node13" class="node">
<title>Node13</title>
<g id="a_node13"><a xlink:href="../../da/d97/_c_c_touch_dispatcher_8h.html" target="_top" xlink:title=" ">
<polygon fill="none" stroke="black" points="170,-403.5 170,-422.5 289,-422.5 289,-403.5 170,-403.5"/>
<text text-anchor="middle" x="229.5" y="-410.5" font-family="Helvetica,sans-Serif" font-size="10.00">CCTouchDispatcher.h</text>
</a>
</g>
</g>
<!-- Node1&#45;&gt;Node13 -->
<g id="edge16" class="edge">
<title>Node1&#45;&gt;Node13</title>
<path fill="none" stroke="midnightblue" d="M266.24,-459.45C258.47,-449.83 249.8,-439.1 242.83,-430.49"/>
<polygon fill="midnightblue" stroke="midnightblue" points="245.54,-428.27 236.53,-422.7 240.1,-432.67 245.54,-428.27"/>
</g>
<!-- Node16 -->
<g id="node16" class="node">
<title>Node16</title>
<g id="a_node16"><a xlink:href="../../da/ddc/_c_c_set_8h.html" target="_top" xlink:title=" ">
<polygon fill="none" stroke="black" points="358.5,-403.5 358.5,-422.5 444.5,-422.5 444.5,-403.5 358.5,-403.5"/>
<text text-anchor="middle" x="401.5" y="-410.5" font-family="Helvetica,sans-Serif" font-size="10.00">cocoa/CCSet.h</text>
</a>
</g>
</g>
<!-- Node1&#45;&gt;Node16 -->
<g id="edge22" class="edge">
<title>Node1&#45;&gt;Node16</title>
<path fill="none" stroke="midnightblue" d="M327.37,-459.45C344.63,-448.86 364.09,-436.94 378.73,-427.96"/>
<polygon fill="midnightblue" stroke="midnightblue" points="380.89,-430.74 387.59,-422.53 377.24,-424.77 380.89,-430.74"/>
</g>
<!-- Node2&#45;&gt;Node3 -->
<g id="edge2" class="edge">
<title>Node2&#45;&gt;Node3</title>
<path fill="none" stroke="midnightblue" d="M112.91,-347.49C152.18,-338.52 215.72,-323.94 270.5,-311 275.27,-309.87 280.25,-308.69 285.21,-307.5"/>
<polygon fill="midnightblue" stroke="midnightblue" points="286.39,-310.81 295.3,-305.07 284.76,-304.01 286.39,-310.81"/>
</g>
<!-- Node6 -->
<g id="node6" class="node">
<title>Node6</title>
<g id="a_node6"><a xlink:href="../../db/d9f/cc_config_8h.html" target="_top" xlink:title="cocos2d (cc) configuration file">
<polygon fill="none" stroke="black" points="160,-56.5 160,-75.5 227,-75.5 227,-56.5 160,-56.5"/>
<text text-anchor="middle" x="193.5" y="-63.5" font-family="Helvetica,sans-Serif" font-size="10.00">ccConfig.h</text>
</a>
</g>
</g>
<!-- Node2&#45;&gt;Node6 -->
<g id="edge15" class="edge">
<title>Node2&#45;&gt;Node6</title>
<path fill="none" stroke="midnightblue" d="M75.5,-347.49C75.5,-327.74 75.5,-277.22 75.5,-235 75.5,-235 75.5,-235 75.5,-177 75.5,-129.51 127.27,-96.67 162.22,-79.91"/>
<polygon fill="midnightblue" stroke="midnightblue" points="163.96,-82.97 171.58,-75.61 161.03,-76.61 163.96,-82.97"/>
</g>
<!-- Node4 -->
<g id="node4" class="node">
<title>Node4</title>
<g id="a_node4"><a xlink:href="../../d9/d2d/_c_c_data_visitor_8h.html" target="_top" xlink:title=" ">
<polygon fill="none" stroke="black" points="343,-224.5 343,-243.5 436,-243.5 436,-224.5 343,-224.5"/>
<text text-anchor="middle" x="389.5" y="-231.5" font-family="Helvetica,sans-Serif" font-size="10.00">CCDataVisitor.h</text>
</a>
</g>
</g>
<!-- Node3&#45;&gt;Node4 -->
<g id="edge3" class="edge">
<title>Node3&#45;&gt;Node4</title>
<path fill="none" stroke="midnightblue" d="M338.95,-285.98C348.07,-276.78 362.77,-261.96 373.98,-250.66"/>
<polygon fill="midnightblue" stroke="midnightblue" points="376.51,-253.07 381.06,-243.51 371.54,-248.15 376.51,-253.07"/>
</g>
<!-- Node10 -->
<g id="node10" class="node">
<title>Node10</title>
<g id="a_node10"><a xlink:href="../../d9/dc8/cc_macros_8h.html" target="_top" xlink:title=" ">
<polygon fill="none" stroke="black" points="204,-224.5 204,-243.5 275,-243.5 275,-224.5 204,-224.5"/>
<text text-anchor="middle" x="239.5" y="-231.5" font-family="Helvetica,sans-Serif" font-size="10.00">ccMacros.h</text>
</a>
</g>
</g>
<!-- Node3&#45;&gt;Node10 -->
<g id="edge10" class="edge">
<title>Node3&#45;&gt;Node10</title>
<path fill="none" stroke="midnightblue" d="M317.46,-285.98C302.73,-276.34 278.53,-260.52 260.99,-249.05"/>
<polygon fill="midnightblue" stroke="midnightblue" points="262.8,-246.05 252.51,-243.51 258.97,-251.91 262.8,-246.05"/>
</g>
<!-- Node5 -->
<g id="node5" class="node">
<title>Node5</title>
<g id="a_node5"><a xlink:href="../../d3/d41/_c_c_platform_macros_8h.html" target="_top" xlink:title=" ">
<polygon fill="none" stroke="black" points="222,-112.5 222,-131.5 383,-131.5 383,-112.5 222,-112.5"/>
<text text-anchor="middle" x="302.5" y="-119.5" font-family="Helvetica,sans-Serif" font-size="10.00">platform/CCPlatformMacros.h</text>
</a>
</g>
</g>
<!-- Node4&#45;&gt;Node5 -->
<g id="edge4" class="edge">
<title>Node4&#45;&gt;Node5</title>
<path fill="none" stroke="midnightblue" d="M399.45,-224.12C412.75,-211.14 433.27,-186.53 420.5,-168 409.27,-151.7 391.29,-141.3 372.72,-134.67"/>
<polygon fill="midnightblue" stroke="midnightblue" points="373.57,-131.27 362.98,-131.53 371.43,-137.93 373.57,-131.27"/>
</g>
<!-- Node9 -->
<g id="node9" class="node">
<title>Node9</title>
<g id="a_node9"><a xlink:title=" ">
<polygon fill="none" stroke="#bfbfbf" points="367.5,-168.5 367.5,-187.5 411.5,-187.5 411.5,-168.5 367.5,-168.5"/>
<text text-anchor="middle" x="389.5" y="-175.5" font-family="Helvetica,sans-Serif" font-size="10.00">string</text>
</a>
</g>
</g>
<!-- Node4&#45;&gt;Node9 -->
<g id="edge9" class="edge">
<title>Node4&#45;&gt;Node9</title>
<path fill="none" stroke="midnightblue" d="M389.5,-224.08C389.5,-217.01 389.5,-206.86 389.5,-197.99"/>
<polygon fill="midnightblue" stroke="midnightblue" points="393,-197.75 389.5,-187.75 386,-197.75 393,-197.75"/>
</g>
<!-- Node5&#45;&gt;Node6 -->
<g id="edge5" class="edge">
<title>Node5&#45;&gt;Node6</title>
<path fill="none" stroke="midnightblue" d="M284.99,-112.32C267.43,-103.62 240.17,-90.12 219.97,-80.11"/>
<polygon fill="midnightblue" stroke="midnightblue" points="221.48,-76.96 210.97,-75.65 218.38,-83.23 221.48,-76.96"/>
</g>
<!-- Node7 -->
<g id="node7" class="node">
<title>Node7</title>
<g id="a_node7"><a xlink:href="../../dd/d96/_c_c_platform_config_8h.html" target="_top" xlink:title=" ">
<polygon fill="none" stroke="black" points="211,-0.5 211,-19.5 368,-19.5 368,-0.5 211,-0.5"/>
<text text-anchor="middle" x="289.5" y="-7.5" font-family="Helvetica,sans-Serif" font-size="10.00">platform/CCPlatformConfig.h</text>
</a>
</g>
</g>
<!-- Node5&#45;&gt;Node7 -->
<g id="edge7" class="edge">
<title>Node5&#45;&gt;Node7</title>
<path fill="none" stroke="midnightblue" d="M322.62,-112.43C346.11,-101.09 380.14,-79.76 366.5,-56 357.88,-40.99 342.11,-30.5 327.07,-23.46"/>
<polygon fill="midnightblue" stroke="midnightblue" points="328.44,-20.24 317.87,-19.51 325.68,-26.67 328.44,-20.24"/>
</g>
<!-- Node8 -->
<g id="node8" class="node">
<title>Node8</title>
<g id="a_node8"><a xlink:title=" ">
<polygon fill="none" stroke="#bfbfbf" points="245,-56.5 245,-75.5 358,-75.5 358,-56.5 245,-56.5"/>
<text text-anchor="middle" x="301.5" y="-63.5" font-family="Helvetica,sans-Serif" font-size="10.00">CCPlatformDefine.h</text>
</a>
</g>
</g>
<!-- Node5&#45;&gt;Node8 -->
<g id="edge8" class="edge">
<title>Node5&#45;&gt;Node8</title>
<path fill="none" stroke="midnightblue" d="M302.33,-112.08C302.2,-105.01 302.02,-94.86 301.85,-85.99"/>
<polygon fill="midnightblue" stroke="midnightblue" points="305.35,-85.68 301.66,-75.75 298.35,-85.81 305.35,-85.68"/>
</g>
<!-- Node6&#45;&gt;Node7 -->
<g id="edge6" class="edge">
<title>Node6&#45;&gt;Node7</title>
<path fill="none" stroke="midnightblue" d="M208.92,-56.32C224.04,-47.82 247.32,-34.73 264.97,-24.8"/>
<polygon fill="midnightblue" stroke="midnightblue" points="267.11,-27.61 274.11,-19.65 263.68,-21.51 267.11,-27.61"/>
</g>
<!-- Node10&#45;&gt;Node6 -->
<g id="edge14" class="edge">
<title>Node10&#45;&gt;Node6</title>
<path fill="none" stroke="midnightblue" d="M232.82,-224.21C226.54,-215.5 217.41,-201.53 212.5,-188 199.91,-153.32 195.66,-110.06 194.23,-85.79"/>
<polygon fill="midnightblue" stroke="midnightblue" points="197.72,-85.61 193.74,-75.79 190.73,-85.95 197.72,-85.61"/>
</g>
<!-- Node11 -->
<g id="node11" class="node">
<title>Node11</title>
<g id="a_node11"><a xlink:href="../../d5/d22/_c_c_common_8h.html" target="_top" xlink:title=" ">
<polygon fill="none" stroke="black" points="221.5,-168.5 221.5,-187.5 349.5,-187.5 349.5,-168.5 221.5,-168.5"/>
<text text-anchor="middle" x="285.5" y="-175.5" font-family="Helvetica,sans-Serif" font-size="10.00">platform/CCCommon.h</text>
</a>
</g>
</g>
<!-- Node10&#45;&gt;Node11 -->
<g id="edge11" class="edge">
<title>Node10&#45;&gt;Node11</title>
<path fill="none" stroke="midnightblue" d="M247.1,-224.08C253.73,-216.3 263.52,-204.8 271.56,-195.37"/>
<polygon fill="midnightblue" stroke="midnightblue" points="274.23,-197.63 278.05,-187.75 268.9,-193.09 274.23,-197.63"/>
</g>
<!-- Node12 -->
<g id="node12" class="node">
<title>Node12</title>
<g id="a_node12"><a xlink:title=" ">
<polygon fill="none" stroke="#bfbfbf" points="103.5,-168.5 103.5,-187.5 165.5,-187.5 165.5,-168.5 103.5,-168.5"/>
<text text-anchor="middle" x="134.5" y="-175.5" font-family="Helvetica,sans-Serif" font-size="10.00">CCStdC.h</text>
</a>
</g>
</g>
<!-- Node10&#45;&gt;Node12 -->
<g id="edge13" class="edge">
<title>Node10&#45;&gt;Node12</title>
<path fill="none" stroke="midnightblue" d="M222.63,-224.32C205.79,-215.66 179.69,-202.24 160.26,-192.25"/>
<polygon fill="midnightblue" stroke="midnightblue" points="161.82,-189.12 151.33,-187.65 158.62,-195.34 161.82,-189.12"/>
</g>
<!-- Node11&#45;&gt;Node5 -->
<g id="edge12" class="edge">
<title>Node11&#45;&gt;Node5</title>
<path fill="none" stroke="midnightblue" d="M288.31,-168.08C290.58,-160.85 293.87,-150.41 296.71,-141.4"/>
<polygon fill="midnightblue" stroke="midnightblue" points="300.08,-142.34 299.75,-131.75 293.4,-140.24 300.08,-142.34"/>
</g>
<!-- Node13&#45;&gt;Node2 -->
<g id="edge17" class="edge">
<title>Node13&#45;&gt;Node2</title>
<path fill="none" stroke="midnightblue" d="M205.1,-403.44C179.3,-394.4 138.42,-380.06 109.48,-369.92"/>
<polygon fill="midnightblue" stroke="midnightblue" points="110.38,-366.52 99.79,-366.52 108.07,-373.13 110.38,-366.52"/>
</g>
<!-- Node13&#45;&gt;Node3 -->
<g id="edge18" class="edge">
<title>Node13&#45;&gt;Node3</title>
<path fill="none" stroke="midnightblue" d="M238.27,-403.22C247.1,-394.28 261.03,-379.93 272.5,-367 288.35,-349.13 305.64,-327.86 317.18,-313.4"/>
<polygon fill="midnightblue" stroke="midnightblue" points="320.09,-315.37 323.56,-305.36 314.6,-311.02 320.09,-315.37"/>
</g>
<!-- Node14 -->
<g id="node14" class="node">
<title>Node14</title>
<g id="a_node14"><a xlink:href="../../da/d35/_c_c_array_8h.html" target="_top" xlink:title=" ">
<polygon fill="none" stroke="black" points="169,-347.5 169,-366.5 264,-366.5 264,-347.5 169,-347.5"/>
<text text-anchor="middle" x="216.5" y="-354.5" font-family="Helvetica,sans-Serif" font-size="10.00">cocoa/CCArray.h</text>
</a>
</g>
</g>
<!-- Node13&#45;&gt;Node14 -->
<g id="edge19" class="edge">
<title>Node13&#45;&gt;Node14</title>
<path fill="none" stroke="midnightblue" d="M227.35,-403.08C225.63,-395.93 223.15,-385.64 221,-376.69"/>
<polygon fill="midnightblue" stroke="midnightblue" points="224.35,-375.65 218.61,-366.75 217.54,-377.29 224.35,-375.65"/>
</g>
<!-- Node15 -->
<g id="node15" class="node">
<title>Node15</title>
<g id="a_node15"><a xlink:title=" ">
<polygon fill="none" stroke="#bfbfbf" points="141.5,-280.5 141.5,-310.5 261.5,-310.5 261.5,-280.5 141.5,-280.5"/>
<text text-anchor="start" x="149.5" y="-298.5" font-family="Helvetica,sans-Serif" font-size="10.00">support/data_support</text>
<text text-anchor="middle" x="201.5" y="-287.5" font-family="Helvetica,sans-Serif" font-size="10.00">/ccCArray.h</text>
</a>
</g>
</g>
<!-- Node14&#45;&gt;Node15 -->
<g id="edge20" class="edge">
<title>Node14&#45;&gt;Node15</title>
<path fill="none" stroke="midnightblue" d="M214.35,-347.48C212.57,-340.4 209.94,-329.97 207.52,-320.39"/>
<polygon fill="midnightblue" stroke="midnightblue" points="210.87,-319.36 205.04,-310.52 204.09,-321.08 210.87,-319.36"/>
</g>
<!-- Node16&#45;&gt;Node3 -->
<g id="edge24" class="edge">
<title>Node16&#45;&gt;Node3</title>
<path fill="none" stroke="midnightblue" d="M396.16,-403.32C384.55,-384.42 356.78,-339.25 341.33,-314.12"/>
<polygon fill="midnightblue" stroke="midnightblue" points="344.12,-311.97 335.9,-305.28 338.15,-315.63 344.12,-311.97"/>
</g>
<!-- Node17 -->
<g id="node17" class="node">
<title>Node17</title>
<g id="a_node17"><a xlink:title=" ">
<polygon fill="none" stroke="#bfbfbf" points="396.5,-347.5 396.5,-366.5 428.5,-366.5 428.5,-347.5 396.5,-347.5"/>
<text text-anchor="middle" x="412.5" y="-354.5" font-family="Helvetica,sans-Serif" font-size="10.00">set</text>
</a>
</g>
</g>
<!-- Node16&#45;&gt;Node17 -->
<g id="edge23" class="edge">
<title>Node16&#45;&gt;Node17</title>
<path fill="none" stroke="midnightblue" d="M403.32,-403.08C404.77,-395.93 406.87,-385.64 408.69,-376.69"/>
<polygon fill="midnightblue" stroke="midnightblue" points="412.15,-377.25 410.72,-366.75 405.29,-375.85 412.15,-377.25"/>
</g>
</g>
</svg>
