<?xml version="1.0" encoding="UTF-8" standalone="no"?>
<!DOCTYPE svg PUBLIC "-//W3C//DTD SVG 1.1//EN"
 "http://www.w3.org/Graphics/SVG/1.1/DTD/svg11.dtd">
<!-- Generated by graphviz version 2.43.0 (0)
 -->
<!-- Title: CCLabelTTF Pages: 1 -->
<svg width="1720pt" height="948pt"
 viewBox="0.00 0.00 1720.00 948.35" xmlns="http://www.w3.org/2000/svg" xmlns:xlink="http://www.w3.org/1999/xlink">
<g id="graph0" class="graph" transform="scale(1 1) rotate(0) translate(4 944.35)">
<title>CCLabelTTF</title>
<!-- Node1 -->
<g id="node1" class="node">
<title>Node1</title>
<g id="a_node1"><a xlink:title="CCLabelTTF is a subclass of CCTextureNode that knows how to render text labels.">
<polygon fill="#999999" stroke="#666666" points="1712,-797.85 1638,-797.85 1638,-778.85 1712,-778.85 1712,-797.85"/>
<text text-anchor="middle" x="1675" y="-785.85" font-family="Helvetica,sans-Serif" font-size="10.00">CCLabelTTF</text>
</a>
</g>
</g>
<!-- Node2 -->
<g id="node2" class="node">
<title>Node2</title>
<g id="a_node2"><a xlink:href="../../d4/de7/classcocos2d_1_1_c_c_sprite.html" target="_top" xlink:title="CCSprite is a 2d image ( http://en.wikipedia.org/wiki/Sprite_(computer_graphics) )">
<polygon fill="white" stroke="#666666" points="1582.5,-698.85 1523.5,-698.85 1523.5,-679.85 1582.5,-679.85 1582.5,-698.85"/>
<text text-anchor="middle" x="1553" y="-686.85" font-family="Helvetica,sans-Serif" font-size="10.00">CCSprite</text>
</a>
</g>
</g>
<!-- Node2&#45;&gt;Node1 -->
<g id="edge1" class="edge">
<title>Node2&#45;&gt;Node1</title>
<path fill="none" stroke="#63b8ff" d="M1573.78,-705.67C1599.05,-726.52 1641.97,-761.92 1662.46,-778.82"/>
<polygon fill="#63b8ff" stroke="#63b8ff" points="1575.89,-702.86 1565.94,-699.2 1571.43,-708.26 1575.89,-702.86"/>
</g>
<!-- Node3 -->
<g id="node3" class="node">
<title>Node3</title>
<g id="a_node3"><a xlink:href="../../de/d2e/classcocos2d_1_1_c_c_node_r_g_b_a.html" target="_top" xlink:title="CCNodeRGBA is a subclass of CCNode that implements the CCRGBAProtocol protocol.">
<polygon fill="white" stroke="#666666" points="1364.5,-802.85 1281.5,-802.85 1281.5,-783.85 1364.5,-783.85 1364.5,-802.85"/>
<text text-anchor="middle" x="1323" y="-790.85" font-family="Helvetica,sans-Serif" font-size="10.00">CCNodeRGBA</text>
</a>
</g>
</g>
<!-- Node3&#45;&gt;Node2 -->
<g id="edge2" class="edge">
<title>Node3&#45;&gt;Node2</title>
<path fill="none" stroke="#63b8ff" d="M1374.93,-794.73C1408.72,-793.52 1452.95,-787.72 1487,-768.35 1516.33,-751.66 1537.93,-716.22 1547.12,-699.06"/>
<polygon fill="#63b8ff" stroke="#63b8ff" points="1374.72,-791.23 1364.81,-794.97 1374.89,-798.23 1374.72,-791.23"/>
</g>
<!-- Node4 -->
<g id="node4" class="node">
<title>Node4</title>
<g id="a_node4"><a xlink:href="../../d0/ded/classcocos2d_1_1_c_c_node.html" target="_top" xlink:title="CCNode is the main element.">
<polygon fill="white" stroke="#666666" points="1083,-346.85 1027,-346.85 1027,-327.85 1083,-327.85 1083,-346.85"/>
<text text-anchor="middle" x="1055" y="-334.85" font-family="Helvetica,sans-Serif" font-size="10.00">CCNode</text>
</a>
</g>
</g>
<!-- Node4&#45;&gt;Node3 -->
<g id="edge3" class="edge">
<title>Node4&#45;&gt;Node3</title>
<path fill="none" stroke="#63b8ff" d="M1069.79,-355.03C1085.49,-375.97 1110.93,-412.43 1126,-447.35 1138.9,-477.23 1124.39,-492.36 1144,-518.35 1176.51,-561.43 1219.9,-533.89 1249,-579.35 1294.74,-650.78 1217.24,-700.65 1267,-769.35 1271.58,-775.67 1278.2,-780.35 1285.27,-783.81"/>
<polygon fill="#63b8ff" stroke="#63b8ff" points="1072.55,-352.88 1063.71,-347.05 1066.98,-357.13 1072.55,-352.88"/>
</g>
<!-- Node4&#45;&gt;Node4 -->
<g id="edge25" class="edge">
<title>Node4&#45;&gt;Node4</title>
<path fill="none" stroke="#9a32cd" stroke-dasharray="5,2" d="M1028.96,-356.03C1030.38,-361.04 1039.06,-364.85 1055,-364.85 1079.88,-364.85 1087.08,-355.58 1076.58,-346.93"/>
<polygon fill="#9a32cd" stroke="#9a32cd" points="1032.16,-357.45 1033.42,-346.93 1025.88,-354.37 1032.16,-357.45"/>
<text text-anchor="middle" x="1055" y="-367.85" font-family="Helvetica,sans-Serif" font-size="10.00"> m_pParent</text>
</g>
<!-- Node29 -->
<g id="node29" class="node">
<title>Node29</title>
<g id="a_node29"><a xlink:href="../../dd/d95/classcocos2d_1_1_c_c_sprite_batch_node.html" target="_top" xlink:title="CCSpriteBatchNode is like a batch node: if it contains children, it will draw them in 1 single OpenGL...">
<polygon fill="white" stroke="#666666" points="1379,-527.85 1267,-527.85 1267,-508.85 1379,-508.85 1379,-527.85"/>
<text text-anchor="middle" x="1323" y="-515.85" font-family="Helvetica,sans-Serif" font-size="10.00">CCSpriteBatchNode</text>
</a>
</g>
</g>
<!-- Node4&#45;&gt;Node29 -->
<g id="edge47" class="edge">
<title>Node4&#45;&gt;Node29</title>
<path fill="none" stroke="#63b8ff" d="M1078.75,-352.83C1132.2,-389.2 1264.53,-479.24 1307.95,-508.79"/>
<polygon fill="#63b8ff" stroke="#63b8ff" points="1080.54,-349.81 1070.3,-347.08 1076.6,-355.6 1080.54,-349.81"/>
</g>
<!-- Node5 -->
<g id="node5" class="node">
<title>Node5</title>
<g id="a_node5"><a xlink:href="../../d3/dbf/classcocos2d_1_1_c_c_object.html" target="_top" xlink:title="NA.">
<polygon fill="white" stroke="#666666" points="169,-330.85 107,-330.85 107,-311.85 169,-311.85 169,-330.85"/>
<text text-anchor="middle" x="138" y="-318.85" font-family="Helvetica,sans-Serif" font-size="10.00">CCObject</text>
</a>
</g>
</g>
<!-- Node5&#45;&gt;Node4 -->
<g id="edge4" class="edge">
<title>Node5&#45;&gt;Node4</title>
<path fill="none" stroke="#63b8ff" d="M179.27,-322.05C335.02,-324.77 895.81,-334.58 1026.59,-336.87"/>
<polygon fill="#63b8ff" stroke="#63b8ff" points="179.24,-318.55 169.18,-321.87 179.12,-325.55 179.24,-318.55"/>
</g>
<!-- Node5&#45;&gt;Node4 -->
<g id="edge26" class="edge">
<title>Node5&#45;&gt;Node4</title>
<path fill="none" stroke="#9a32cd" stroke-dasharray="5,2" d="M179.28,-318.72C181.89,-318.58 184.48,-318.46 187,-318.35 293.15,-313.7 319.75,-313.68 426,-312.35 666.11,-309.33 726.3,-315.91 966,-330.35 986.35,-331.57 1009.3,-333.41 1026.67,-334.9"/>
<polygon fill="#9a32cd" stroke="#9a32cd" points="178.99,-315.23 169.21,-319.29 179.39,-322.22 178.99,-315.23"/>
<text text-anchor="middle" x="476" y="-315.35" font-family="Helvetica,sans-Serif" font-size="10.00"> m_pUserObject</text>
</g>
<!-- Node10 -->
<g id="node10" class="node">
<title>Node10</title>
<g id="a_node10"><a xlink:href="../../d2/d51/classcocos2d_1_1_c_c_camera.html" target="_top" xlink:title="A CCCamera is used in every CCNode.">
<polygon fill="white" stroke="#666666" points="392,-247.85 324,-247.85 324,-228.85 392,-228.85 392,-247.85"/>
<text text-anchor="middle" x="358" y="-235.85" font-family="Helvetica,sans-Serif" font-size="10.00">CCCamera</text>
</a>
</g>
</g>
<!-- Node5&#45;&gt;Node10 -->
<g id="edge10" class="edge">
<title>Node5&#45;&gt;Node10</title>
<path fill="none" stroke="#63b8ff" d="M150.51,-303.39C159.11,-291.52 171.93,-276.67 187,-268.35 230.15,-244.5 288.04,-238.92 323.91,-237.97"/>
<polygon fill="#63b8ff" stroke="#63b8ff" points="147.57,-301.5 144.8,-311.73 153.34,-305.46 147.57,-301.5"/>
</g>
<!-- Node11 -->
<g id="node11" class="node">
<title>Node11</title>
<g id="a_node11"><a xlink:href="../../d6/d70/classcocos2d_1_1_c_c_grid_base.html" target="_top" xlink:title="Base class for other.">
<polygon fill="white" stroke="#666666" points="790,-529.85 716,-529.85 716,-510.85 790,-510.85 790,-529.85"/>
<text text-anchor="middle" x="753" y="-517.85" font-family="Helvetica,sans-Serif" font-size="10.00">CCGridBase</text>
</a>
</g>
</g>
<!-- Node5&#45;&gt;Node11 -->
<g id="edge12" class="edge">
<title>Node5&#45;&gt;Node11</title>
<path fill="none" stroke="#63b8ff" d="M147.37,-340.2C158.12,-362.59 178.71,-399.85 206,-423.35 243.83,-455.91 259.92,-456.94 308,-470.35 455.38,-511.45 639.24,-518.89 715.87,-520.15"/>
<polygon fill="#63b8ff" stroke="#63b8ff" points="150.51,-338.66 143.13,-331.06 144.16,-341.61 150.51,-338.66"/>
</g>
<!-- Node12 -->
<g id="node12" class="node">
<title>Node12</title>
<g id="a_node12"><a xlink:href="../../d7/dfd/classcocos2d_1_1_c_c_texture2_d.html" target="_top" xlink:title="CCTexture2D class.">
<polygon fill="white" stroke="#666666" points="516,-722.85 436,-722.85 436,-703.85 516,-703.85 516,-722.85"/>
<text text-anchor="middle" x="476" y="-710.85" font-family="Helvetica,sans-Serif" font-size="10.00">CCTexture2D</text>
</a>
</g>
</g>
<!-- Node5&#45;&gt;Node12 -->
<g id="edge15" class="edge">
<title>Node5&#45;&gt;Node12</title>
<path fill="none" stroke="#63b8ff" d="M140.08,-341.18C144.14,-408.93 160.68,-629.77 206,-681.35 262.81,-746 375.86,-734.57 435.71,-722.79"/>
<polygon fill="#63b8ff" stroke="#63b8ff" points="143.56,-340.81 139.49,-331.03 136.57,-341.21 143.56,-340.81"/>
</g>
<!-- Node13 -->
<g id="node13" class="node">
<title>Node13</title>
<g id="a_node13"><a xlink:href="../../db/d28/classcocos2d_1_1_c_c_g_l_program.html" target="_top" xlink:title="CCGLProgram Class that implements a glProgram.">
<polygon fill="white" stroke="#666666" points="290,-414.85 206,-414.85 206,-395.85 290,-395.85 290,-414.85"/>
<text text-anchor="middle" x="248" y="-402.85" font-family="Helvetica,sans-Serif" font-size="10.00">CCGLProgram</text>
</a>
</g>
</g>
<!-- Node5&#45;&gt;Node13 -->
<g id="edge18" class="edge">
<title>Node5&#45;&gt;Node13</title>
<path fill="none" stroke="#63b8ff" d="M159.51,-337.3C181.73,-354.58 216.45,-381.58 234.76,-395.82"/>
<polygon fill="#63b8ff" stroke="#63b8ff" points="161.43,-334.36 151.39,-330.98 157.13,-339.88 161.43,-334.36"/>
</g>
<!-- Node14 -->
<g id="node14" class="node">
<title>Node14</title>
<g id="a_node14"><a xlink:href="../../d3/d89/classcocos2d_1_1_c_c_grabber.html" target="_top" xlink:title="FBO class that grabs the the contents of the screen NA NA.">
<polygon fill="white" stroke="#666666" points="392.5,-543.85 323.5,-543.85 323.5,-524.85 392.5,-524.85 392.5,-543.85"/>
<text text-anchor="middle" x="358" y="-531.85" font-family="Helvetica,sans-Serif" font-size="10.00">CCGrabber</text>
</a>
</g>
</g>
<!-- Node5&#45;&gt;Node14 -->
<g id="edge21" class="edge">
<title>Node5&#45;&gt;Node14</title>
<path fill="none" stroke="#63b8ff" d="M138.17,-341.53C137.82,-378.36 142.74,-456.5 187,-498.35 223.72,-533.06 285.17,-537.76 323.26,-536.86"/>
<polygon fill="#63b8ff" stroke="#63b8ff" points="141.68,-341.21 138.42,-331.12 134.68,-341.04 141.68,-341.21"/>
</g>
<!-- Node15 -->
<g id="node15" class="node">
<title>Node15</title>
<g id="a_node15"><a xlink:href="../../d9/d2e/classcocos2d_1_1_c_c_array.html" target="_top" xlink:title="NA.">
<polygon fill="white" stroke="#666666" points="504,-128.85 448,-128.85 448,-109.85 504,-109.85 504,-128.85"/>
<text text-anchor="middle" x="476" y="-116.85" font-family="Helvetica,sans-Serif" font-size="10.00">CCArray</text>
</a>
</g>
</g>
<!-- Node5&#45;&gt;Node15 -->
<g id="edge24" class="edge">
<title>Node5&#45;&gt;Node15</title>
<path fill="none" stroke="#63b8ff" d="M141.59,-301.35C147.42,-259.62 162.98,-165.47 187,-145.35 262.62,-82 391.84,-100.58 447.81,-112.64"/>
<polygon fill="#63b8ff" stroke="#63b8ff" points="138.1,-301.03 140.23,-311.41 145.03,-301.96 138.1,-301.03"/>
</g>
<!-- Node16 -->
<g id="node16" class="node">
<title>Node16</title>
<g id="a_node16"><a xlink:href="../../de/dee/classcocos2d_1_1_c_c_scheduler.html" target="_top" xlink:title="Scheduler is responsible for triggering the scheduled callbacks.">
<polygon fill="white" stroke="#666666" points="792,-213.85 714,-213.85 714,-194.85 792,-194.85 792,-213.85"/>
<text text-anchor="middle" x="753" y="-201.85" font-family="Helvetica,sans-Serif" font-size="10.00">CCScheduler</text>
</a>
</g>
</g>
<!-- Node5&#45;&gt;Node16 -->
<g id="edge29" class="edge">
<title>Node5&#45;&gt;Node16</title>
<path fill="none" stroke="#63b8ff" d="M148.24,-302.78C159.17,-282.92 179.3,-252.14 206,-236.35 291.81,-185.58 604.25,-196.57 713.76,-202.16"/>
<polygon fill="#63b8ff" stroke="#63b8ff" points="145.06,-301.31 143.51,-311.79 151.26,-304.57 145.06,-301.31"/>
</g>
<!-- Node17 -->
<g id="node17" class="node">
<title>Node17</title>
<g id="a_node17"><a xlink:href="../../d5/dcb/classcocos2d_1_1_c_c_action_manager.html" target="_top" xlink:title="CCActionManager is a singleton that manages all the actions.">
<polygon fill="white" stroke="#666666" points="658,-152.85 554,-152.85 554,-133.85 658,-133.85 658,-152.85"/>
<text text-anchor="middle" x="606" y="-140.85" font-family="Helvetica,sans-Serif" font-size="10.00">CCActionManager</text>
</a>
</g>
</g>
<!-- Node5&#45;&gt;Node17 -->
<g id="edge32" class="edge">
<title>Node5&#45;&gt;Node17</title>
<path fill="none" stroke="#63b8ff" d="M139.62,-301.5C141.73,-270.95 150.62,-212.92 187,-184.35 242.77,-140.54 455.08,-139.63 553.87,-141.72"/>
<polygon fill="#63b8ff" stroke="#63b8ff" points="136.11,-301.59 139.09,-311.75 143.1,-301.94 136.11,-301.59"/>
</g>
<!-- Node23 -->
<g id="node23" class="node">
<title>Node23</title>
<g id="a_node23"><a xlink:href="../../df/d3a/classcocos2d_1_1_c_c_texture_atlas.html" target="_top" xlink:title="A class that implements a Texture Atlas.">
<polygon fill="white" stroke="#666666" points="1100.5,-764.85 1009.5,-764.85 1009.5,-745.85 1100.5,-745.85 1100.5,-764.85"/>
<text text-anchor="middle" x="1055" y="-752.85" font-family="Helvetica,sans-Serif" font-size="10.00">CCTextureAtlas</text>
</a>
</g>
</g>
<!-- Node5&#45;&gt;Node23 -->
<g id="edge39" class="edge">
<title>Node5&#45;&gt;Node23</title>
<path fill="none" stroke="#63b8ff" d="M139.15,-341.17C140.33,-431.7 151.05,-801.35 247,-801.35 247,-801.35 247,-801.35 754,-801.35 849.37,-801.35 959.85,-778.35 1016.4,-764.88"/>
<polygon fill="#63b8ff" stroke="#63b8ff" points="142.64,-340.9 139.04,-330.93 135.64,-340.97 142.64,-340.9"/>
</g>
<!-- Node6 -->
<g id="node6" class="node">
<title>Node6</title>
<g id="a_node6"><a xlink:href="../../d5/d61/classcocos2d_1_1_c_c_copying.html" target="_top" xlink:title="NA NA.">
<polygon fill="white" stroke="#666666" points="70,-330.85 0,-330.85 0,-311.85 70,-311.85 70,-330.85"/>
<text text-anchor="middle" x="35" y="-318.85" font-family="Helvetica,sans-Serif" font-size="10.00">CCCopying</text>
</a>
</g>
</g>
<!-- Node6&#45;&gt;Node5 -->
<g id="edge5" class="edge">
<title>Node6&#45;&gt;Node5</title>
<path fill="none" stroke="#63b8ff" d="M80.2,-321.35C89.22,-321.35 98.51,-321.35 106.9,-321.35"/>
<polygon fill="#63b8ff" stroke="#63b8ff" points="80.19,-317.85 70.19,-321.35 80.19,-324.85 80.19,-317.85"/>
</g>
<!-- Node7 -->
<g id="node7" class="node">
<title>Node7</title>
<g id="a_node7"><a xlink:href="../../d2/df3/classcocos2d_1_1_c_c_point.html" target="_top" xlink:title="NA.">
<polygon fill="white" stroke="#666666" points="503.5,-625.85 448.5,-625.85 448.5,-606.85 503.5,-606.85 503.5,-625.85"/>
<text text-anchor="middle" x="476" y="-613.85" font-family="Helvetica,sans-Serif" font-size="10.00">CCPoint</text>
</a>
</g>
</g>
<!-- Node7&#45;&gt;Node2 -->
<g id="edge58" class="edge">
<title>Node7&#45;&gt;Node2</title>
<path fill="none" stroke="#9a32cd" stroke-dasharray="5,2" d="M513.41,-609.44C518.03,-607.4 522.39,-604.76 526,-601.35 542.85,-585.4 527.54,-568.69 544,-552.35 639.18,-457.85 704.09,-491.81 838,-484.35 1126.28,-468.27 1284.35,-307.68 1487,-513.35 1536.3,-563.37 1462.47,-614.45 1505,-670.35 1509.58,-676.37 1516.39,-680.49 1523.41,-683.31"/>
<polygon fill="#9a32cd" stroke="#9a32cd" points="512.01,-606.22 503.74,-612.83 514.33,-612.82 512.01,-606.22"/>
<text text-anchor="middle" x="1055" y="-488.35" font-family="Helvetica,sans-Serif" font-size="10.00"> m_obOffsetPosition</text>
<text text-anchor="start" x="984" y="-477.35" font-family="Helvetica,sans-Serif" font-size="10.00">m_obUnflippedOffsetPosition</text>
<text text-anchor="middle" x="1055" y="-466.35" font-family="Helvetica,sans-Serif" font-size="10.00">FromCenter</text>
</g>
<!-- Node7&#45;&gt;Node4 -->
<g id="edge6" class="edge">
<title>Node7&#45;&gt;Node4</title>
<path fill="none" stroke="#9a32cd" stroke-dasharray="5,2" d="M513.88,-614.9C552.93,-612.56 615.97,-606.41 668,-590.35 676.55,-587.71 677.58,-584.36 686,-581.35 806.17,-538.27 874.53,-606.38 966,-517.35 989.02,-494.94 971.22,-476.82 984,-447.35 1001.29,-407.47 1032.02,-365.53 1046.3,-347.06"/>
<polygon fill="#9a32cd" stroke="#9a32cd" points="513.33,-611.43 503.54,-615.47 513.71,-618.42 513.33,-611.43"/>
<text text-anchor="middle" x="753" y="-606.35" font-family="Helvetica,sans-Serif" font-size="10.00"> m_obAnchorPoint</text>
<text text-anchor="middle" x="753" y="-595.35" font-family="Helvetica,sans-Serif" font-size="10.00">m_obAnchorPointInPoints</text>
<text text-anchor="middle" x="753" y="-584.35" font-family="Helvetica,sans-Serif" font-size="10.00">m_obPosition</text>
</g>
<!-- Node7&#45;&gt;Node11 -->
<g id="edge19" class="edge">
<title>Node7&#45;&gt;Node11</title>
<path fill="none" stroke="#9a32cd" stroke-dasharray="5,2" d="M507.78,-602.26C513.92,-599.18 520.24,-595.8 526,-592.35 534.46,-587.27 534.93,-583.23 544,-579.35 595.53,-557.29 614.36,-572.6 668,-556.35 691.08,-549.35 716.37,-537.97 733.1,-529.88"/>
<polygon fill="#9a32cd" stroke="#9a32cd" points="505.86,-599.31 498.4,-606.83 508.92,-605.6 505.86,-599.31"/>
<text text-anchor="middle" x="606" y="-582.35" font-family="Helvetica,sans-Serif" font-size="10.00"> m_obStep</text>
</g>
<!-- Node31 -->
<g id="node31" class="node">
<title>Node31</title>
<g id="a_node31"><a xlink:href="../../da/d4d/classcocos2d_1_1_c_c_rect.html" target="_top" xlink:title="NA.">
<polygon fill="white" stroke="#666666" points="779,-679.85 727,-679.85 727,-660.85 779,-660.85 779,-679.85"/>
<text text-anchor="middle" x="753" y="-667.85" font-family="Helvetica,sans-Serif" font-size="10.00">CCRect</text>
</a>
</g>
</g>
<!-- Node7&#45;&gt;Node31 -->
<g id="edge56" class="edge">
<title>Node7&#45;&gt;Node31</title>
<path fill="none" stroke="#9a32cd" stroke-dasharray="5,2" d="M513.85,-615.16C553.32,-615.11 617.12,-618.61 668,-638.35 677.2,-641.91 677.13,-647.03 686,-651.35 698.87,-657.61 714.17,-662.17 726.8,-665.26"/>
<polygon fill="#9a32cd" stroke="#9a32cd" points="513.61,-611.66 503.64,-615.25 513.67,-618.66 513.61,-611.66"/>
<text text-anchor="middle" x="606" y="-641.35" font-family="Helvetica,sans-Serif" font-size="10.00"> origin</text>
</g>
<!-- Node8 -->
<g id="node8" class="node">
<title>Node8</title>
<g id="a_node8"><a xlink:href="../../d9/d24/classcocos2d_1_1_c_c_size.html" target="_top" xlink:title="NA.">
<polygon fill="white" stroke="#666666" points="273,-672.85 223,-672.85 223,-653.85 273,-653.85 273,-672.85"/>
<text text-anchor="middle" x="248" y="-660.85" font-family="Helvetica,sans-Serif" font-size="10.00">CCSize</text>
</a>
</g>
</g>
<!-- Node8&#45;&gt;Node1 -->
<g id="edge61" class="edge">
<title>Node8&#45;&gt;Node1</title>
<path fill="none" stroke="#9a32cd" stroke-dasharray="5,2" d="M267.11,-680.05C278.54,-690.32 293.77,-703.53 308,-714.35 400.64,-784.76 452.63,-769.02 526,-859.35 539.58,-876.07 526.58,-891.68 544,-904.35 618.93,-958.84 659.35,-918.35 752,-918.35 752,-918.35 752,-918.35 1554,-918.35 1619.42,-918.35 1659.05,-828.35 1670.52,-798.12"/>
<polygon fill="#9a32cd" stroke="#9a32cd" points="269.29,-677.3 259.53,-673.17 264.58,-682.48 269.29,-677.3"/>
<text text-anchor="middle" x="1055" y="-932.35" font-family="Helvetica,sans-Serif" font-size="10.00"> m_shadowOffset</text>
<text text-anchor="middle" x="1055" y="-921.35" font-family="Helvetica,sans-Serif" font-size="10.00">m_tDimensions</text>
</g>
<!-- Node8&#45;&gt;Node4 -->
<g id="edge7" class="edge">
<title>Node8&#45;&gt;Node4</title>
<path fill="none" stroke="#9a32cd" stroke-dasharray="5,2" d="M251.85,-643.3C257.25,-612.88 271.86,-555.2 308,-523.35 342.62,-492.83 376.13,-528.73 408,-495.35 432.57,-469.61 398.92,-440.42 426,-417.35 466.01,-383.25 491.47,-411.12 544,-409.35 599.08,-407.48 613.08,-404.8 668,-409.35 676.08,-410.01 677.92,-411.68 686,-412.35 810.06,-422.61 849.19,-448.37 966,-405.35 999.7,-392.93 1030.88,-362.66 1045.42,-347.03"/>
<polygon fill="#9a32cd" stroke="#9a32cd" points="248.34,-643.09 250.21,-653.52 255.25,-644.21 248.34,-643.09"/>
<text text-anchor="middle" x="606" y="-412.35" font-family="Helvetica,sans-Serif" font-size="10.00"> m_obContentSize</text>
</g>
<!-- Node8&#45;&gt;Node11 -->
<g id="edge13" class="edge">
<title>Node8&#45;&gt;Node11</title>
<path fill="none" stroke="#9a32cd" stroke-dasharray="5,2" d="M277.06,-649.2C311.44,-632.32 371.82,-604.16 426,-586.35 528.31,-552.71 654.57,-533.05 715.59,-524.86"/>
<polygon fill="#9a32cd" stroke="#9a32cd" points="275.08,-646.27 267.67,-653.84 278.18,-652.55 275.08,-646.27"/>
<text text-anchor="middle" x="476" y="-589.35" font-family="Helvetica,sans-Serif" font-size="10.00"> m_sGridSize</text>
</g>
<!-- Node8&#45;&gt;Node12 -->
<g id="edge16" class="edge">
<title>Node8&#45;&gt;Node12</title>
<path fill="none" stroke="#9a32cd" stroke-dasharray="5,2" d="M283.06,-671.55C291.22,-673.49 299.91,-675.51 308,-677.35 351.68,-687.23 401.93,-697.98 435.81,-705.14"/>
<polygon fill="#9a32cd" stroke="#9a32cd" points="283.63,-668.09 273.09,-669.18 282,-674.9 283.63,-668.09"/>
<text text-anchor="middle" x="358" y="-702.35" font-family="Helvetica,sans-Serif" font-size="10.00"> m_tContentSize</text>
</g>
<!-- Node8&#45;&gt;Node31 -->
<g id="edge57" class="edge">
<title>Node8&#45;&gt;Node31</title>
<path fill="none" stroke="#9a32cd" stroke-dasharray="5,2" d="M283.5,-663.83C378.74,-665.15 643.77,-668.84 726.8,-669.99"/>
<polygon fill="#9a32cd" stroke="#9a32cd" points="283.31,-660.32 273.26,-663.68 283.21,-667.32 283.31,-660.32"/>
<text text-anchor="middle" x="476" y="-670.35" font-family="Helvetica,sans-Serif" font-size="10.00"> size</text>
</g>
<!-- Node9 -->
<g id="node9" class="node">
<title>Node9</title>
<g id="a_node9"><a xlink:href="../../da/dbf/structcocos2d_1_1_c_c_affine_transform.html" target="_top" xlink:title=" ">
<polygon fill="white" stroke="#666666" points="806.5,-81.85 699.5,-81.85 699.5,-62.85 806.5,-62.85 806.5,-81.85"/>
<text text-anchor="middle" x="753" y="-69.85" font-family="Helvetica,sans-Serif" font-size="10.00">CCAffineTransform</text>
</a>
</g>
</g>
<!-- Node9&#45;&gt;Node2 -->
<g id="edge52" class="edge">
<title>Node9&#45;&gt;Node2</title>
<path fill="none" stroke="#9a32cd" stroke-dasharray="5,2" d="M770.56,-55.65C786.34,-41.03 811.55,-20.82 838,-12.35 892.18,5.02 911.18,2.85 966,-12.35 1107.39,-51.55 1136.53,-88.12 1249,-182.35 1372.39,-285.72 1424.28,-307.1 1487,-455.35 1505.68,-499.5 1476.56,-631.75 1505,-670.35 1509.49,-676.44 1516.27,-680.58 1523.29,-683.4"/>
<polygon fill="#9a32cd" stroke="#9a32cd" points="768.01,-53.25 763.21,-62.7 772.85,-58.3 768.01,-53.25"/>
<text text-anchor="middle" x="1196.5" y="-185.35" font-family="Helvetica,sans-Serif" font-size="10.00"> m_transformToBatch</text>
</g>
<!-- Node9&#45;&gt;Node4 -->
<g id="edge8" class="edge">
<title>Node9&#45;&gt;Node4</title>
<path fill="none" stroke="#9a32cd" stroke-dasharray="5,2" d="M817.13,-64.1C870.91,-58.49 943.02,-54.74 966,-71.35 1053.33,-134.44 1055.42,-287.49 1054.39,-327.59"/>
<polygon fill="#9a32cd" stroke="#9a32cd" points="816.54,-60.64 806.98,-65.2 817.3,-67.6 816.54,-60.64"/>
<text text-anchor="middle" x="902" y="-96.35" font-family="Helvetica,sans-Serif" font-size="10.00"> m_sAdditionalTransform</text>
<text text-anchor="middle" x="902" y="-85.35" font-family="Helvetica,sans-Serif" font-size="10.00">m_sInverse</text>
<text text-anchor="middle" x="902" y="-74.35" font-family="Helvetica,sans-Serif" font-size="10.00">m_sTransform</text>
</g>
<!-- Node10&#45;&gt;Node4 -->
<g id="edge9" class="edge">
<title>Node10&#45;&gt;Node4</title>
<path fill="none" stroke="#9a32cd" stroke-dasharray="5,2" d="M402.18,-236.89C523.07,-233.34 862.85,-227.22 966,-266.35 1000.51,-279.43 1031.79,-311.59 1045.98,-327.75"/>
<polygon fill="#9a32cd" stroke="#9a32cd" points="402.06,-233.39 392.17,-237.19 402.28,-240.38 402.06,-233.39"/>
<text text-anchor="middle" x="606" y="-238.35" font-family="Helvetica,sans-Serif" font-size="10.00"> m_pCamera</text>
</g>
<!-- Node11&#45;&gt;Node4 -->
<g id="edge11" class="edge">
<title>Node11&#45;&gt;Node4</title>
<path fill="none" stroke="#9a32cd" stroke-dasharray="5,2" d="M800.04,-511.98C845.43,-502.05 915.19,-482.14 966,-446.35 1005.57,-418.47 1036.79,-368.07 1048.74,-347"/>
<polygon fill="#9a32cd" stroke="#9a32cd" points="799.24,-508.57 790.18,-514.07 800.69,-515.42 799.24,-508.57"/>
<text text-anchor="middle" x="902" y="-505.35" font-family="Helvetica,sans-Serif" font-size="10.00"> m_pGrid</text>
</g>
<!-- Node12&#45;&gt;Node2 -->
<g id="edge54" class="edge">
<title>Node12&#45;&gt;Node2</title>
<path fill="none" stroke="#9a32cd" stroke-dasharray="5,2" d="M526.03,-713.43C672.22,-713.46 1117.91,-712 1487,-694.35 1498.87,-693.78 1511.94,-692.83 1523.22,-691.92"/>
<polygon fill="#9a32cd" stroke="#9a32cd" points="526.02,-709.93 516.02,-713.42 526.02,-716.93 526.02,-709.93"/>
<text text-anchor="middle" x="1055" y="-712.35" font-family="Helvetica,sans-Serif" font-size="10.00"> m_pobTexture</text>
</g>
<!-- Node12&#45;&gt;Node11 -->
<g id="edge14" class="edge">
<title>Node12&#45;&gt;Node11</title>
<path fill="none" stroke="#9a32cd" stroke-dasharray="5,2" d="M524.29,-701.24C577.64,-687.15 658.29,-664.43 668,-653.35 698.63,-618.4 657.56,-587.1 686,-550.35 693.47,-540.69 704.76,-534.04 715.89,-529.51"/>
<polygon fill="#9a32cd" stroke="#9a32cd" points="523.13,-697.92 514.34,-703.85 524.9,-704.69 523.13,-697.92"/>
<text text-anchor="middle" x="606" y="-699.35" font-family="Helvetica,sans-Serif" font-size="10.00"> m_pTexture</text>
</g>
<!-- Node12&#45;&gt;Node23 -->
<g id="edge40" class="edge">
<title>Node12&#45;&gt;Node23</title>
<path fill="none" stroke="#9a32cd" stroke-dasharray="5,2" d="M509.04,-726.48C519.95,-730.37 532.34,-734.18 544,-736.35 713.43,-767.87 919.8,-762.46 1009.18,-758.04"/>
<polygon fill="#9a32cd" stroke="#9a32cd" points="510.09,-723.14 499.5,-722.92 507.65,-729.7 510.09,-723.14"/>
<text text-anchor="middle" x="753" y="-763.35" font-family="Helvetica,sans-Serif" font-size="10.00"> m_pTexture</text>
</g>
<!-- Node13&#45;&gt;Node4 -->
<g id="edge27" class="edge">
<title>Node13&#45;&gt;Node4</title>
<path fill="none" stroke="#9a32cd" stroke-dasharray="5,2" d="M300.61,-398.63C359.44,-391.16 458.51,-379.12 544,-371.35 728.26,-354.59 950.68,-342.58 1026.87,-338.69"/>
<polygon fill="#9a32cd" stroke="#9a32cd" points="299.94,-395.19 290.46,-399.93 300.82,-402.14 299.94,-395.19"/>
<text text-anchor="middle" x="606" y="-374.35" font-family="Helvetica,sans-Serif" font-size="10.00"> m_pShaderProgram</text>
</g>
<!-- Node13&#45;&gt;Node11 -->
<g id="edge22" class="edge">
<title>Node13&#45;&gt;Node11</title>
<path fill="none" stroke="#9a32cd" stroke-dasharray="5,2" d="M300.36,-407.92C380.79,-413.23 540.47,-428.88 668,-473.35 694.51,-482.59 722.4,-499.94 738.44,-510.78"/>
<polygon fill="#9a32cd" stroke="#9a32cd" points="300.21,-404.41 290.01,-407.27 299.77,-411.39 300.21,-404.41"/>
<text text-anchor="middle" x="476" y="-439.35" font-family="Helvetica,sans-Serif" font-size="10.00"> m_pShaderProgram</text>
</g>
<!-- Node13&#45;&gt;Node12 -->
<g id="edge17" class="edge">
<title>Node13&#45;&gt;Node12</title>
<path fill="none" stroke="#9a32cd" stroke-dasharray="5,2" d="M275.17,-419.95C318.19,-444.21 399.91,-491.4 408,-504.35 449.2,-570.28 386.91,-611.14 426,-678.35 432.47,-689.46 444.03,-697.97 454.3,-703.82"/>
<polygon fill="#9a32cd" stroke="#9a32cd" points="276.8,-416.86 266.37,-415.01 273.37,-422.96 276.8,-416.86"/>
<text text-anchor="middle" x="358" y="-507.35" font-family="Helvetica,sans-Serif" font-size="10.00"> m_pShaderProgram</text>
</g>
<!-- Node14&#45;&gt;Node11 -->
<g id="edge20" class="edge">
<title>Node14&#45;&gt;Node11</title>
<path fill="none" stroke="#9a32cd" stroke-dasharray="5,2" d="M402.5,-532.8C480.61,-530.01 643.24,-524.22 715.75,-521.64"/>
<polygon fill="#9a32cd" stroke="#9a32cd" points="402.38,-529.3 392.51,-533.15 402.63,-536.29 402.38,-529.3"/>
<text text-anchor="middle" x="476" y="-535.35" font-family="Helvetica,sans-Serif" font-size="10.00"> m_pGrabber</text>
</g>
<!-- Node15&#45;&gt;Node4 -->
<g id="edge23" class="edge">
<title>Node15&#45;&gt;Node4</title>
<path fill="none" stroke="#9a32cd" stroke-dasharray="5,2" d="M514.43,-116.94C616.15,-111.17 894.81,-100.66 966,-153.35 1026.91,-198.42 1047.48,-296.71 1052.59,-327.75"/>
<polygon fill="#9a32cd" stroke="#9a32cd" points="514.09,-113.46 504.31,-117.53 514.5,-120.44 514.09,-113.46"/>
<text text-anchor="middle" x="753" y="-120.35" font-family="Helvetica,sans-Serif" font-size="10.00"> m_pChildren</text>
</g>
<!-- Node15&#45;&gt;Node16 -->
<g id="edge30" class="edge">
<title>Node15&#45;&gt;Node16</title>
<path fill="none" stroke="#9a32cd" stroke-dasharray="5,2" d="M500.93,-134.08C513.38,-141.15 529.07,-149.19 544,-154.35 596.98,-172.64 613.65,-163.63 668,-177.35 687.46,-182.26 709,-189.21 725.39,-194.83"/>
<polygon fill="#9a32cd" stroke="#9a32cd" points="502.51,-130.95 492.11,-128.92 498.98,-136.99 502.51,-130.95"/>
<text text-anchor="middle" x="606" y="-180.35" font-family="Helvetica,sans-Serif" font-size="10.00"> m_pScriptHandlerEntries</text>
</g>
<!-- Node15&#45;&gt;Node29 -->
<g id="edge51" class="edge">
<title>Node15&#45;&gt;Node29</title>
<path fill="none" stroke="#9a32cd" stroke-dasharray="5,2" d="M503.44,-105.14C579.5,-66.32 803.75,33.53 966,-44.35 1180.33,-147.22 1297.72,-450.38 1318.61,-508.61"/>
<polygon fill="#9a32cd" stroke="#9a32cd" points="501.78,-102.05 494.51,-109.76 505,-108.27 501.78,-102.05"/>
<text text-anchor="middle" x="902" y="-47.35" font-family="Helvetica,sans-Serif" font-size="10.00"> m_pobDescendants</text>
</g>
<!-- Node16&#45;&gt;Node4 -->
<g id="edge28" class="edge">
<title>Node16&#45;&gt;Node4</title>
<path fill="none" stroke="#9a32cd" stroke-dasharray="5,2" d="M802.38,-196.16C847.55,-190.99 915.4,-189.73 966,-217.35 1012.26,-242.6 1040.67,-303.8 1050.31,-327.63"/>
<polygon fill="#9a32cd" stroke="#9a32cd" points="801.74,-192.71 792.26,-197.43 802.61,-199.66 801.74,-192.71"/>
<text text-anchor="middle" x="902" y="-220.35" font-family="Helvetica,sans-Serif" font-size="10.00"> m_pScheduler</text>
</g>
<!-- Node17&#45;&gt;Node4 -->
<g id="edge31" class="edge">
<title>Node17&#45;&gt;Node4</title>
<path fill="none" stroke="#9a32cd" stroke-dasharray="5,2" d="M668.04,-144.8C757.37,-147.98 918.27,-158.01 966,-189.35 1018.23,-223.63 1043.83,-300.58 1051.47,-327.68"/>
<polygon fill="#9a32cd" stroke="#9a32cd" points="668.16,-141.3 658.04,-144.46 667.92,-148.3 668.16,-141.3"/>
<text text-anchor="middle" x="753" y="-158.35" font-family="Helvetica,sans-Serif" font-size="10.00"> m_pActionManager</text>
</g>
<!-- Node18 -->
<g id="node18" class="node">
<title>Node18</title>
<g id="a_node18"><a xlink:href="../../d1/d65/classcocos2d_1_1_c_c_component_container.html" target="_top" xlink:title="NA NA.">
<polygon fill="white" stroke="#666666" points="820,-403.85 686,-403.85 686,-384.85 820,-384.85 820,-403.85"/>
<text text-anchor="middle" x="753" y="-391.85" font-family="Helvetica,sans-Serif" font-size="10.00">CCComponentContainer</text>
</a>
</g>
</g>
<!-- Node18&#45;&gt;Node4 -->
<g id="edge33" class="edge">
<title>Node18&#45;&gt;Node4</title>
<path fill="none" stroke="#9a32cd" stroke-dasharray="5,2" d="M830.27,-390.27C870.97,-386.95 921.67,-380.99 966,-370.35 989.48,-364.71 1015.22,-354.56 1032.77,-347"/>
<polygon fill="#9a32cd" stroke="#9a32cd" points="829.84,-386.79 820.14,-391.05 830.38,-393.77 829.84,-386.79"/>
<text text-anchor="middle" x="902" y="-393.35" font-family="Helvetica,sans-Serif" font-size="10.00"> m_pComponentContainer</text>
</g>
<!-- Node19 -->
<g id="node19" class="node">
<title>Node19</title>
<g id="a_node19"><a xlink:href="../../d8/dda/classcocos2d_1_1_c_c_r_g_b_a_protocol.html" target="_top" xlink:title="RGBA protocol that affects CCNode&#39;s color and opacity NA.">
<polygon fill="white" stroke="#666666" points="1104,-801.85 1006,-801.85 1006,-782.85 1104,-782.85 1104,-801.85"/>
<text text-anchor="middle" x="1055" y="-789.85" font-family="Helvetica,sans-Serif" font-size="10.00">CCRGBAProtocol</text>
</a>
</g>
</g>
<!-- Node19&#45;&gt;Node3 -->
<g id="edge34" class="edge">
<title>Node19&#45;&gt;Node3</title>
<path fill="none" stroke="#63b8ff" d="M1114.82,-791.47C1153.05,-791.04 1203.98,-790.73 1249,-791.35 1259.52,-791.49 1270.89,-791.75 1281.46,-792.04"/>
<polygon fill="#63b8ff" stroke="#63b8ff" points="1114.34,-787.97 1104.39,-791.59 1114.43,-794.97 1114.34,-787.97"/>
</g>
<!-- Node20 -->
<g id="node20" class="node">
<title>Node20</title>
<g id="a_node20"><a xlink:href="../../d7/d39/structcc_color3_b.html" target="_top" xlink:title="RGB color composed of bytes 3 bytes.">
<polygon fill="white" stroke="#666666" points="1087.5,-843.85 1022.5,-843.85 1022.5,-824.85 1087.5,-824.85 1087.5,-843.85"/>
<text text-anchor="middle" x="1055" y="-831.85" font-family="Helvetica,sans-Serif" font-size="10.00">ccColor3B</text>
</a>
</g>
</g>
<!-- Node20&#45;&gt;Node1 -->
<g id="edge62" class="edge">
<title>Node20&#45;&gt;Node1</title>
<path fill="none" stroke="#9a32cd" stroke-dasharray="5,2" d="M1098,-835.34C1137.13,-835.98 1197.05,-836.22 1249,-833.35 1393.65,-825.33 1564.88,-803.37 1638,-793.39"/>
<polygon fill="#9a32cd" stroke="#9a32cd" points="1097.85,-831.84 1087.79,-835.16 1097.73,-838.84 1097.85,-831.84"/>
<text text-anchor="middle" x="1442" y="-835.35" font-family="Helvetica,sans-Serif" font-size="10.00"> m_strokeColor</text>
<text text-anchor="middle" x="1442" y="-824.35" font-family="Helvetica,sans-Serif" font-size="10.00">m_textFillColor</text>
</g>
<!-- Node20&#45;&gt;Node3 -->
<g id="edge35" class="edge">
<title>Node20&#45;&gt;Node3</title>
<path fill="none" stroke="#9a32cd" stroke-dasharray="5,2" d="M1097.28,-822.15C1111.93,-818.19 1128.6,-814.12 1144,-811.35 1190.77,-802.92 1245.22,-798.14 1281.46,-795.65"/>
<polygon fill="#9a32cd" stroke="#9a32cd" points="1096.22,-818.81 1087.51,-824.84 1098.08,-825.56 1096.22,-818.81"/>
<text text-anchor="middle" x="1196.5" y="-825.35" font-family="Helvetica,sans-Serif" font-size="10.00"> _displayedColor</text>
<text text-anchor="middle" x="1196.5" y="-814.35" font-family="Helvetica,sans-Serif" font-size="10.00">_realColor</text>
</g>
<!-- Node21 -->
<g id="node21" class="node">
<title>Node21</title>
<g id="a_node21"><a xlink:href="../../db/d1b/classcocos2d_1_1_c_c_texture_protocol.html" target="_top" xlink:title="CCNode objects that uses a CCTexture2D to render the images.">
<polygon fill="white" stroke="#666666" points="1108,-641.85 1002,-641.85 1002,-622.85 1108,-622.85 1108,-641.85"/>
<text text-anchor="middle" x="1055" y="-629.85" font-family="Helvetica,sans-Serif" font-size="10.00">CCTextureProtocol</text>
</a>
</g>
</g>
<!-- Node21&#45;&gt;Node2 -->
<g id="edge36" class="edge">
<title>Node21&#45;&gt;Node2</title>
<path fill="none" stroke="#63b8ff" d="M1118.63,-631.28C1221.49,-630.29 1421.35,-631.76 1487,-656.35 1496.49,-659.9 1496.22,-665.29 1505,-670.35 1511.1,-673.86 1517.98,-677.03 1524.55,-679.74"/>
<polygon fill="#63b8ff" stroke="#63b8ff" points="1118.35,-627.78 1108.38,-631.39 1118.42,-634.78 1118.35,-627.78"/>
</g>
<!-- Node21&#45;&gt;Node29 -->
<g id="edge48" class="edge">
<title>Node21&#45;&gt;Node29</title>
<path fill="none" stroke="#63b8ff" d="M1083.64,-618.18C1100.85,-609.52 1123.54,-598.41 1144,-589.35 1197.54,-565.63 1261.59,-540.96 1296.4,-527.86"/>
<polygon fill="#63b8ff" stroke="#63b8ff" points="1082.03,-615.07 1074.69,-622.71 1085.19,-621.31 1082.03,-615.07"/>
</g>
<!-- Node22 -->
<g id="node22" class="node">
<title>Node22</title>
<g id="a_node22"><a xlink:href="../../d6/d82/classcocos2d_1_1_c_c_blend_protocol.html" target="_top" xlink:title="Specify the blending function according glBlendFunc Please refer to glBlendFunc in OpenGL ES Manual h...">
<polygon fill="white" stroke="#666666" points="802,-642.85 704,-642.85 704,-623.85 802,-623.85 802,-642.85"/>
<text text-anchor="middle" x="753" y="-630.85" font-family="Helvetica,sans-Serif" font-size="10.00">CCBlendProtocol</text>
</a>
</g>
</g>
<!-- Node22&#45;&gt;Node21 -->
<g id="edge37" class="edge">
<title>Node22&#45;&gt;Node21</title>
<path fill="none" stroke="#63b8ff" d="M812.49,-633.15C867.49,-632.97 949.07,-632.7 1001.89,-632.52"/>
<polygon fill="#63b8ff" stroke="#63b8ff" points="812.19,-629.65 802.2,-633.18 812.21,-636.65 812.19,-629.65"/>
</g>
<!-- Node23&#45;&gt;Node2 -->
<g id="edge38" class="edge">
<title>Node23&#45;&gt;Node2</title>
<path fill="none" stroke="#9a32cd" stroke-dasharray="5,2" d="M1110.95,-757.92C1194.04,-760.32 1355.85,-759.08 1487,-722.35 1505.28,-717.23 1524.45,-706.78 1537.2,-699"/>
<polygon fill="#9a32cd" stroke="#9a32cd" points="1110.84,-754.42 1100.73,-757.6 1110.62,-761.41 1110.84,-754.42"/>
<text text-anchor="middle" x="1323" y="-758.35" font-family="Helvetica,sans-Serif" font-size="10.00"> m_pobTextureAtlas</text>
</g>
<!-- Node23&#45;&gt;Node29 -->
<g id="edge49" class="edge">
<title>Node23&#45;&gt;Node29</title>
<path fill="none" stroke="#9a32cd" stroke-dasharray="5,2" d="M1109.79,-743.72C1115.9,-740.54 1121.53,-736.5 1126,-731.35 1153.88,-699.22 1118.51,-671.4 1144,-637.35 1175.44,-595.33 1209.86,-618.3 1249,-583.35 1259.76,-573.74 1256.89,-566.63 1267,-556.35 1278.07,-545.09 1292.9,-535.07 1304.37,-528.15"/>
<polygon fill="#9a32cd" stroke="#9a32cd" points="1108.31,-740.55 1100.57,-747.78 1111.14,-746.95 1108.31,-740.55"/>
<text text-anchor="middle" x="1196.5" y="-640.35" font-family="Helvetica,sans-Serif" font-size="10.00"> m_pobTextureAtlas</text>
</g>
<!-- Node24 -->
<g id="node24" class="node">
<title>Node24</title>
<g id="a_node24"><a xlink:href="../../dd/d60/structcc_v3_f___c4_b___t2_f___quad.html" target="_top" xlink:title="4 ccVertex3FTex2FColor4B">
<polygon fill="white" stroke="#666666" points="815.5,-868.85 690.5,-868.85 690.5,-849.85 815.5,-849.85 815.5,-868.85"/>
<text text-anchor="middle" x="753" y="-856.85" font-family="Helvetica,sans-Serif" font-size="10.00">ccV3F_C4B_T2F_Quad</text>
</a>
</g>
</g>
<!-- Node24&#45;&gt;Node2 -->
<g id="edge59" class="edge">
<title>Node24&#45;&gt;Node2</title>
<path fill="none" stroke="#9a32cd" stroke-dasharray="5,2" d="M825.88,-859.48C866.92,-859.44 919.35,-859.18 966,-858.35 1037.13,-857.07 1055.08,-859.05 1126,-853.35 1166.51,-850.09 1453.4,-817.21 1487,-794.35 1522.27,-770.34 1541.98,-720.21 1549.01,-699.07"/>
<polygon fill="#9a32cd" stroke="#9a32cd" points="825.69,-855.98 815.7,-859.49 825.7,-862.98 825.69,-855.98"/>
<text text-anchor="middle" x="1196.5" y="-854.35" font-family="Helvetica,sans-Serif" font-size="10.00"> m_sQuad</text>
</g>
<!-- Node24&#45;&gt;Node23 -->
<g id="edge41" class="edge">
<title>Node24&#45;&gt;Node23</title>
<path fill="none" stroke="#9a32cd" stroke-dasharray="5,2" d="M823.85,-848.12C881.23,-838.36 954.82,-824.4 966,-815.35 981.46,-802.82 968.92,-787.33 984,-774.35 991.16,-768.18 1000.13,-764 1009.24,-761.16"/>
<polygon fill="#9a32cd" stroke="#9a32cd" points="822.98,-844.71 813.7,-849.83 824.15,-851.61 822.98,-844.71"/>
<text text-anchor="middle" x="902" y="-847.35" font-family="Helvetica,sans-Serif" font-size="10.00"> m_pQuads</text>
</g>
<!-- Node25 -->
<g id="node25" class="node">
<title>Node25</title>
<g id="a_node25"><a xlink:href="../../d7/de4/structcc_v3_f___c4_b___t2_f.html" target="_top" xlink:title="a Point with a vertex point, a tex coord point and a color 4B">
<polygon fill="white" stroke="#666666" points="523,-886.85 429,-886.85 429,-867.85 523,-867.85 523,-886.85"/>
<text text-anchor="middle" x="476" y="-874.85" font-family="Helvetica,sans-Serif" font-size="10.00">ccV3F_C4B_T2F</text>
</a>
</g>
</g>
<!-- Node25&#45;&gt;Node24 -->
<g id="edge42" class="edge">
<title>Node25&#45;&gt;Node24</title>
<path fill="none" stroke="#9a32cd" stroke-dasharray="5,2" d="M533.06,-873.68C578.75,-870.69 643.19,-866.47 690.33,-863.38"/>
<polygon fill="#9a32cd" stroke="#9a32cd" points="532.78,-870.19 523.03,-874.33 533.24,-877.17 532.78,-870.19"/>
<text text-anchor="middle" x="606" y="-908.35" font-family="Helvetica,sans-Serif" font-size="10.00"> bl</text>
<text text-anchor="middle" x="606" y="-897.35" font-family="Helvetica,sans-Serif" font-size="10.00">br</text>
<text text-anchor="middle" x="606" y="-886.35" font-family="Helvetica,sans-Serif" font-size="10.00">tl</text>
<text text-anchor="middle" x="606" y="-875.35" font-family="Helvetica,sans-Serif" font-size="10.00">tr</text>
</g>
<!-- Node26 -->
<g id="node26" class="node">
<title>Node26</title>
<g id="a_node26"><a xlink:href="../../d3/d87/structcc_vertex3_f.html" target="_top" xlink:title="A vertex composed of 2 floats: x, y.">
<polygon fill="white" stroke="#666666" points="283.5,-849.85 212.5,-849.85 212.5,-830.85 283.5,-830.85 283.5,-849.85"/>
<text text-anchor="middle" x="248" y="-837.85" font-family="Helvetica,sans-Serif" font-size="10.00">ccVertex3F</text>
</a>
</g>
</g>
<!-- Node26&#45;&gt;Node25 -->
<g id="edge43" class="edge">
<title>Node26&#45;&gt;Node25</title>
<path fill="none" stroke="#9a32cd" stroke-dasharray="5,2" d="M293.49,-845.5C325.46,-849.45 369.52,-855.39 408,-862.35 416.8,-863.94 426.19,-865.88 435.08,-867.84"/>
<polygon fill="#9a32cd" stroke="#9a32cd" points="293.91,-842.03 283.56,-844.29 293.06,-848.97 293.91,-842.03"/>
<text text-anchor="middle" x="358" y="-865.35" font-family="Helvetica,sans-Serif" font-size="10.00"> vertices</text>
</g>
<!-- Node27 -->
<g id="node27" class="node">
<title>Node27</title>
<g id="a_node27"><a xlink:href="../../d2/dd4/structcc_color4_b.html" target="_top" xlink:title="RGBA color composed of 4 bytes.">
<polygon fill="white" stroke="#666666" points="280.5,-923.85 215.5,-923.85 215.5,-904.85 280.5,-904.85 280.5,-923.85"/>
<text text-anchor="middle" x="248" y="-911.85" font-family="Helvetica,sans-Serif" font-size="10.00">ccColor4B</text>
</a>
</g>
</g>
<!-- Node27&#45;&gt;Node25 -->
<g id="edge44" class="edge">
<title>Node27&#45;&gt;Node25</title>
<path fill="none" stroke="#9a32cd" stroke-dasharray="5,2" d="M290.75,-909.53C322.9,-905.59 368.41,-899.5 408,-892.35 416.8,-890.75 426.19,-888.81 435.08,-886.85"/>
<polygon fill="#9a32cd" stroke="#9a32cd" points="290.31,-906.06 280.8,-910.73 291.15,-913 290.31,-906.06"/>
<text text-anchor="middle" x="358" y="-909.35" font-family="Helvetica,sans-Serif" font-size="10.00"> colors</text>
</g>
<!-- Node28 -->
<g id="node28" class="node">
<title>Node28</title>
<g id="a_node28"><a xlink:href="../../d0/d46/structcc_tex2_f.html" target="_top" xlink:title="A texcoord composed of 2 floats: u, y.">
<polygon fill="white" stroke="#666666" points="276,-886.85 220,-886.85 220,-867.85 276,-867.85 276,-886.85"/>
<text text-anchor="middle" x="248" y="-874.85" font-family="Helvetica,sans-Serif" font-size="10.00">ccTex2F</text>
</a>
</g>
</g>
<!-- Node28&#45;&gt;Node25 -->
<g id="edge45" class="edge">
<title>Node28&#45;&gt;Node25</title>
<path fill="none" stroke="#9a32cd" stroke-dasharray="5,2" d="M286.66,-877.35C325.73,-877.35 386.87,-877.35 428.82,-877.35"/>
<polygon fill="#9a32cd" stroke="#9a32cd" points="286.26,-873.85 276.26,-877.35 286.26,-880.85 286.26,-873.85"/>
<text text-anchor="middle" x="358" y="-880.35" font-family="Helvetica,sans-Serif" font-size="10.00"> texCoords</text>
</g>
<!-- Node29&#45;&gt;Node2 -->
<g id="edge46" class="edge">
<title>Node29&#45;&gt;Node2</title>
<path fill="none" stroke="#9a32cd" stroke-dasharray="5,2" d="M1389.55,-515.83C1423.27,-518.18 1462.35,-527.2 1487,-553.35 1523.09,-591.63 1472.34,-629.1 1505,-670.35 1509.59,-676.14 1516.23,-680.18 1523.07,-682.99"/>
<polygon fill="#9a32cd" stroke="#9a32cd" points="1389.45,-512.32 1379.29,-515.3 1389.09,-519.31 1389.45,-512.32"/>
<text text-anchor="middle" x="1442" y="-556.35" font-family="Helvetica,sans-Serif" font-size="10.00"> m_pobBatchNode</text>
</g>
<!-- Node30 -->
<g id="node30" class="node">
<title>Node30</title>
<g id="a_node30"><a xlink:href="../../d6/d45/structcc_blend_func.html" target="_top" xlink:title="Blend Function used for textures.">
<polygon fill="white" stroke="#666666" points="1093.5,-563.85 1016.5,-563.85 1016.5,-544.85 1093.5,-544.85 1093.5,-563.85"/>
<text text-anchor="middle" x="1055" y="-551.85" font-family="Helvetica,sans-Serif" font-size="10.00">ccBlendFunc</text>
</a>
</g>
</g>
<!-- Node30&#45;&gt;Node2 -->
<g id="edge53" class="edge">
<title>Node30&#45;&gt;Node2</title>
<path fill="none" stroke="#9a32cd" stroke-dasharray="5,2" d="M1103.86,-550.75C1189.42,-546.85 1370.53,-550.36 1487,-636.35 1500.76,-646.5 1492.31,-658.89 1505,-670.35 1510.23,-675.06 1516.78,-678.69 1523.31,-681.44"/>
<polygon fill="#9a32cd" stroke="#9a32cd" points="1103.47,-547.27 1093.66,-551.27 1103.83,-554.26 1103.47,-547.27"/>
<text text-anchor="middle" x="1323" y="-584.35" font-family="Helvetica,sans-Serif" font-size="10.00"> m_sBlendFunc</text>
</g>
<!-- Node30&#45;&gt;Node29 -->
<g id="edge50" class="edge">
<title>Node30&#45;&gt;Node29</title>
<path fill="none" stroke="#9a32cd" stroke-dasharray="5,2" d="M1075.94,-538.65C1092.94,-526.34 1118.59,-510.18 1144,-503.35 1193.12,-490.14 1252.35,-500.01 1288.59,-508.81"/>
<polygon fill="#9a32cd" stroke="#9a32cd" points="1073.81,-535.88 1067.89,-544.67 1078,-541.49 1073.81,-535.88"/>
<text text-anchor="middle" x="1196.5" y="-506.35" font-family="Helvetica,sans-Serif" font-size="10.00"> m_blendFunc</text>
</g>
<!-- Node31&#45;&gt;Node2 -->
<g id="edge55" class="edge">
<title>Node31&#45;&gt;Node2</title>
<path fill="none" stroke="#9a32cd" stroke-dasharray="5,2" d="M789.34,-671.19C923.58,-674.38 1400.51,-685.74 1523.1,-688.66"/>
<polygon fill="#9a32cd" stroke="#9a32cd" points="789.28,-667.68 779.2,-670.95 789.11,-674.68 789.28,-667.68"/>
<text text-anchor="middle" x="1196.5" y="-685.35" font-family="Helvetica,sans-Serif" font-size="10.00"> m_obRect</text>
</g>
<!-- Node32 -->
<g id="node32" class="node">
<title>Node32</title>
<g id="a_node32"><a xlink:href="../../df/da3/classcocos2d_1_1_c_c_label_protocol.html" target="_top" xlink:title="Common interface for Labels NA NA.">
<polygon fill="white" stroke="#666666" points="1601,-661.85 1505,-661.85 1505,-642.85 1601,-642.85 1601,-661.85"/>
<text text-anchor="middle" x="1553" y="-649.85" font-family="Helvetica,sans-Serif" font-size="10.00">CCLabelProtocol</text>
</a>
</g>
</g>
<!-- Node32&#45;&gt;Node1 -->
<g id="edge60" class="edge">
<title>Node32&#45;&gt;Node1</title>
<path fill="none" stroke="#63b8ff" d="M1596.19,-666.82C1597.87,-667.92 1599.49,-669.09 1601,-670.35 1638.3,-701.21 1662.03,-756.35 1670.5,-778.62"/>
<polygon fill="#63b8ff" stroke="#63b8ff" points="1597.81,-663.72 1587.36,-661.97 1594.44,-669.85 1597.81,-663.72"/>
</g>
</g>
</svg>
