<?xml version="1.0" encoding="UTF-8" standalone="no"?>
<!DOCTYPE svg PUBLIC "-//W3C//DTD SVG 1.1//EN"
 "http://www.w3.org/Graphics/SVG/1.1/DTD/svg11.dtd">
<!-- Generated by graphviz version 2.43.0 (0)
 -->
<!-- Title: CCImage Pages: 1 -->
<svg width="188pt" height="152pt"
 viewBox="0.00 0.00 187.50 152.00" xmlns="http://www.w3.org/2000/svg" xmlns:xlink="http://www.w3.org/1999/xlink">
<g id="graph0" class="graph" transform="scale(1 1) rotate(0) translate(4 148)">
<title>CCImage</title>
<!-- Node1 -->
<g id="node1" class="node">
<title>Node1</title>
<g id="a_node1"><a xlink:title=" ">
<polygon fill="#bfbfbf" stroke="black" points="52.5,-0.5 52.5,-19.5 113.5,-19.5 113.5,-0.5 52.5,-0.5"/>
<text text-anchor="middle" x="83" y="-7.5" font-family="Helvetica,sans-Serif" font-size="10.00">CCImage</text>
</a>
</g>
</g>
<!-- Node2 -->
<g id="node2" class="node">
<title>Node2</title>
<g id="a_node2"><a xlink:href="../../d3/dbf/classcocos2d_1_1_c_c_object.html" target="_top" xlink:title="NA.">
<polygon fill="none" stroke="black" points="4,-67.5 4,-86.5 66,-86.5 66,-67.5 4,-67.5"/>
<text text-anchor="middle" x="35" y="-74.5" font-family="Helvetica,sans-Serif" font-size="10.00">CCObject</text>
</a>
</g>
</g>
<!-- Node2&#45;&gt;Node1 -->
<g id="edge1" class="edge">
<title>Node2&#45;&gt;Node1</title>
<path fill="none" stroke="midnightblue" d="M47.62,-58.9C56.95,-46.27 69.26,-29.6 76.63,-19.63"/>
<polygon fill="midnightblue" stroke="midnightblue" points="44.6,-57.11 41.47,-67.23 50.23,-61.27 44.6,-57.11"/>
</g>
<!-- Node3 -->
<g id="node3" class="node">
<title>Node3</title>
<g id="a_node3"><a xlink:href="../../d5/d61/classcocos2d_1_1_c_c_copying.html" target="_top" xlink:title="NA NA.">
<polygon fill="none" stroke="black" points="0,-124.5 0,-143.5 70,-143.5 70,-124.5 0,-124.5"/>
<text text-anchor="middle" x="35" y="-131.5" font-family="Helvetica,sans-Serif" font-size="10.00">CCCopying</text>
</a>
</g>
</g>
<!-- Node3&#45;&gt;Node2 -->
<g id="edge2" class="edge">
<title>Node3&#45;&gt;Node2</title>
<path fill="none" stroke="midnightblue" d="M35,-114.12C35,-104.82 35,-94.06 35,-86.71"/>
<polygon fill="midnightblue" stroke="midnightblue" points="31.5,-114.41 35,-124.41 38.5,-114.41 31.5,-114.41"/>
</g>
<!-- Node4 -->
<g id="node4" class="node">
<title>Node4</title>
<g id="a_node4"><a xlink:href="../../d2/d73/classcocos2d_1_1_c_c_free_type_font.html" target="_top" xlink:title=" ">
<polygon fill="none" stroke="black" points="84.5,-67.5 84.5,-86.5 179.5,-86.5 179.5,-67.5 84.5,-67.5"/>
<text text-anchor="middle" x="132" y="-74.5" font-family="Helvetica,sans-Serif" font-size="10.00">CCFreeTypeFont</text>
</a>
</g>
</g>
<!-- Node4&#45;&gt;Node1 -->
<g id="edge3" class="edge">
<title>Node4&#45;&gt;Node1</title>
<path fill="none" stroke="#9a32cd" stroke-dasharray="5,2" d="M119.11,-58.9C109.59,-46.27 97.02,-29.6 89.5,-19.63"/>
<polygon fill="#9a32cd" stroke="#9a32cd" points="116.58,-61.36 125.39,-67.23 122.17,-57.14 116.58,-61.36"/>
<text text-anchor="middle" x="122.5" y="-41" font-family="Helvetica,sans-Serif" font-size="10.00"> m_ft</text>
</g>
</g>
</svg>
