<?xml version="1.0" encoding="UTF-8" standalone="no"?>
<!DOCTYPE svg PUBLIC "-//W3C//DTD SVG 1.1//EN"
 "http://www.w3.org/Graphics/SVG/1.1/DTD/svg11.dtd">
<!-- Generated by graphviz version 2.43.0 (0)
 -->
<!-- Title: /home/runner/work/cocos&#45;headers/cocos&#45;headers/cocos2dx/particle_nodes/CCParticleBatchNode.h Pages: 1 -->
<svg width="1360pt" height="676pt"
 viewBox="0.00 0.00 1360.00 676.00" xmlns="http://www.w3.org/2000/svg" xmlns:xlink="http://www.w3.org/1999/xlink">
<g id="graph0" class="graph" transform="scale(1 1) rotate(0) translate(4 672)">
<title>/home/runner/work/cocos&#45;headers/cocos&#45;headers/cocos2dx/particle_nodes/CCParticleBatchNode.h</title>
<!-- Node1 -->
<g id="node1" class="node">
<title>Node1</title>
<g id="a_node1"><a xlink:title=" ">
<polygon fill="#999999" stroke="#666666" points="460,-668 320,-668 320,-616 460,-616 460,-668"/>
<text text-anchor="start" x="328" y="-656" font-family="Helvetica,sans-Serif" font-size="10.00">/home/runner/work/cocos</text>
<text text-anchor="start" x="328" y="-645" font-family="Helvetica,sans-Serif" font-size="10.00">&#45;headers/cocos&#45;headers</text>
<text text-anchor="start" x="328" y="-634" font-family="Helvetica,sans-Serif" font-size="10.00">/cocos2dx/particle_nodes</text>
<text text-anchor="middle" x="390" y="-623" font-family="Helvetica,sans-Serif" font-size="10.00">/CCParticleBatchNode.h</text>
</a>
</g>
</g>
<!-- Node2 -->
<g id="node2" class="node">
<title>Node2</title>
<g id="a_node2"><a xlink:href="../../db/d7f/_c_c_node_8h.html" target="_top" xlink:title=" ">
<polygon fill="white" stroke="#666666" points="407.5,-580 282.5,-580 282.5,-561 407.5,-561 407.5,-580"/>
<text text-anchor="middle" x="345" y="-568" font-family="Helvetica,sans-Serif" font-size="10.00">base_nodes/CCNode.h</text>
</a>
</g>
</g>
<!-- Node1&#45;&gt;Node2 -->
<g id="edge1" class="edge">
<title>Node1&#45;&gt;Node2</title>
<path fill="none" stroke="#63b8ff" d="M373.75,-615.91C367.96,-606.97 361.57,-597.1 356.29,-588.94"/>
<polygon fill="#63b8ff" stroke="#63b8ff" points="359.07,-586.79 350.7,-580.3 353.2,-590.6 359.07,-586.79"/>
</g>
<!-- Node29 -->
<g id="node29" class="node">
<title>Node29</title>
<g id="a_node29"><a xlink:href="../../d8/d76/_c_c_protocols_8h.html" target="_top" xlink:title=" ">
<polygon fill="white" stroke="#666666" points="1219,-525 1135,-525 1135,-506 1219,-506 1219,-525"/>
<text text-anchor="middle" x="1177" y="-513" font-family="Helvetica,sans-Serif" font-size="10.00">CCProtocols.h</text>
</a>
</g>
</g>
<!-- Node1&#45;&gt;Node29 -->
<g id="edge55" class="edge">
<title>Node1&#45;&gt;Node29</title>
<path fill="none" stroke="#63b8ff" d="M460.19,-629.9C615.87,-605.27 987.19,-546.53 1124.65,-524.78"/>
<polygon fill="#63b8ff" stroke="#63b8ff" points="1125.58,-528.18 1134.91,-523.16 1124.49,-521.26 1125.58,-528.18"/>
</g>
<!-- Node3 -->
<g id="node3" class="node">
<title>Node3</title>
<g id="a_node3"><a xlink:href="../../d9/dc8/cc_macros_8h.html" target="_top" xlink:title=" ">
<polygon fill="white" stroke="#666666" points="241.5,-239 170.5,-239 170.5,-220 241.5,-220 241.5,-239"/>
<text text-anchor="middle" x="206" y="-227" font-family="Helvetica,sans-Serif" font-size="10.00">ccMacros.h</text>
</a>
</g>
</g>
<!-- Node2&#45;&gt;Node3 -->
<g id="edge2" class="edge">
<title>Node2&#45;&gt;Node3</title>
<path fill="none" stroke="#63b8ff" d="M282.29,-567.03C203.95,-562.83 75.5,-551.97 37,-525 8.5,-505.04 0,-490.8 0,-456 0,-456 0,-456 0,-338.5 0,-266.74 99.28,-242.56 159.99,-234.49"/>
<polygon fill="#63b8ff" stroke="#63b8ff" points="160.62,-237.94 170.12,-233.24 159.76,-230.99 160.62,-237.94"/>
</g>
<!-- Node10 -->
<g id="node10" class="node">
<title>Node10</title>
<g id="a_node10"><a xlink:href="../../d3/d15/_c_c_affine_transform_8h.html" target="_top" xlink:title=" ">
<polygon fill="white" stroke="#666666" points="1128,-404 980,-404 980,-385 1128,-385 1128,-404"/>
<text text-anchor="middle" x="1054" y="-392" font-family="Helvetica,sans-Serif" font-size="10.00">cocoa/CCAffineTransform.h</text>
</a>
</g>
</g>
<!-- Node2&#45;&gt;Node10 -->
<g id="edge11" class="edge">
<title>Node2&#45;&gt;Node10</title>
<path fill="none" stroke="#63b8ff" d="M379.68,-560.99C496.87,-532.23 878.14,-438.66 1009.24,-406.48"/>
<polygon fill="#63b8ff" stroke="#63b8ff" points="1010.09,-409.88 1018.97,-404.1 1008.43,-403.08 1010.09,-409.88"/>
</g>
<!-- Node16 -->
<g id="node16" class="node">
<title>Node16</title>
<g id="a_node16"><a xlink:href="../../da/d35/_c_c_array_8h.html" target="_top" xlink:title=" ">
<polygon fill="white" stroke="#666666" points="141.5,-525 46.5,-525 46.5,-506 141.5,-506 141.5,-525"/>
<text text-anchor="middle" x="94" y="-513" font-family="Helvetica,sans-Serif" font-size="10.00">cocoa/CCArray.h</text>
</a>
</g>
</g>
<!-- Node2&#45;&gt;Node16 -->
<g id="edge21" class="edge">
<title>Node2&#45;&gt;Node16</title>
<path fill="none" stroke="#63b8ff" d="M304.67,-560.98C261.16,-551.8 191.8,-537.15 144.65,-527.19"/>
<polygon fill="#63b8ff" stroke="#63b8ff" points="145.15,-523.72 134.64,-525.08 143.7,-530.57 145.15,-523.72"/>
</g>
<!-- Node18 -->
<g id="node18" class="node">
<title>Node18</title>
<g id="a_node18"><a xlink:title=" ">
<polygon fill="#e0e0e0" stroke="#999999" points="322,-349 270,-349 270,-330 322,-330 322,-349"/>
<text text-anchor="middle" x="296" y="-337" font-family="Helvetica,sans-Serif" font-size="10.00">CCGL.h</text>
</a>
</g>
</g>
<!-- Node2&#45;&gt;Node18 -->
<g id="edge23" class="edge">
<title>Node2&#45;&gt;Node18</title>
<path fill="none" stroke="#63b8ff" d="M334.97,-560.73C309.78,-537.95 244.26,-473.83 221,-404 218.33,-395.99 216.82,-392.34 221,-385 229.54,-370 245.35,-359.53 260.26,-352.54"/>
<polygon fill="#63b8ff" stroke="#63b8ff" points="262.04,-355.59 269.85,-348.43 259.28,-349.15 262.04,-355.59"/>
</g>
<!-- Node19 -->
<g id="node19" class="node">
<title>Node19</title>
<g id="a_node19"><a xlink:href="../../da/d2f/cc_g_l_state_cache_8h.html" target="_top" xlink:title=" ">
<polygon fill="white" stroke="#666666" points="376,-404 230,-404 230,-385 376,-385 376,-404"/>
<text text-anchor="middle" x="303" y="-392" font-family="Helvetica,sans-Serif" font-size="10.00">shaders/ccGLStateCache.h</text>
</a>
</g>
</g>
<!-- Node2&#45;&gt;Node19 -->
<g id="edge24" class="edge">
<title>Node2&#45;&gt;Node19</title>
<path fill="none" stroke="#63b8ff" d="M339.32,-560.68C333.98,-551.97 326.21,-538.08 322,-525 309.75,-486.92 305.36,-439.98 303.82,-414.36"/>
<polygon fill="#63b8ff" stroke="#63b8ff" points="307.3,-414.01 303.29,-404.21 300.31,-414.38 307.3,-414.01"/>
</g>
<!-- Node20 -->
<g id="node20" class="node">
<title>Node20</title>
<g id="a_node20"><a xlink:href="../../de/d32/_c_c_g_l_program_8h.html" target="_top" xlink:title=" ">
<polygon fill="white" stroke="#666666" points="174,-404 40,-404 40,-385 174,-385 174,-404"/>
<text text-anchor="middle" x="107" y="-392" font-family="Helvetica,sans-Serif" font-size="10.00">shaders/CCGLProgram.h</text>
</a>
</g>
</g>
<!-- Node2&#45;&gt;Node20 -->
<g id="edge27" class="edge">
<title>Node2&#45;&gt;Node20</title>
<path fill="none" stroke="#63b8ff" d="M282.21,-561.55C254.5,-555.38 223.06,-544.43 200,-525 167.62,-497.72 182.82,-473.55 157,-440 148.56,-429.03 137.15,-418.64 127.36,-410.66"/>
<polygon fill="#63b8ff" stroke="#63b8ff" points="129.31,-407.74 119.29,-404.31 124.99,-413.24 129.31,-407.74"/>
</g>
<!-- Node21 -->
<g id="node21" class="node">
<title>Node21</title>
<g id="a_node21"><a xlink:title=" ">
<polygon fill="#e0e0e0" stroke="#999999" points="444.5,-525 331.5,-525 331.5,-506 444.5,-506 444.5,-525"/>
<text text-anchor="middle" x="388" y="-513" font-family="Helvetica,sans-Serif" font-size="10.00">kazmath/kazmath.h</text>
</a>
</g>
</g>
<!-- Node2&#45;&gt;Node21 -->
<g id="edge31" class="edge">
<title>Node2&#45;&gt;Node21</title>
<path fill="none" stroke="#63b8ff" d="M352.1,-560.75C358.17,-553.26 367.09,-542.28 374.51,-533.13"/>
<polygon fill="#63b8ff" stroke="#63b8ff" points="377.45,-535.06 381.03,-525.09 372.01,-530.65 377.45,-535.06"/>
</g>
<!-- Node22 -->
<g id="node22" class="node">
<title>Node22</title>
<g id="a_node22"><a xlink:href="../../dc/dbc/_c_c_script_support_8h.html" target="_top" xlink:title=" ">
<polygon fill="white" stroke="#666666" points="694,-464.5 518,-464.5 518,-445.5 694,-445.5 694,-464.5"/>
<text text-anchor="middle" x="606" y="-452.5" font-family="Helvetica,sans-Serif" font-size="10.00">script_support/CCScriptSupport.h</text>
</a>
</g>
</g>
<!-- Node2&#45;&gt;Node22 -->
<g id="edge32" class="edge">
<title>Node2&#45;&gt;Node22</title>
<path fill="none" stroke="#63b8ff" d="M366.82,-560.88C388.9,-552.09 423.97,-537.94 454,-525 497.95,-506.06 548.44,-482.85 578.75,-468.75"/>
<polygon fill="#63b8ff" stroke="#63b8ff" points="580.26,-471.91 587.85,-464.51 577.31,-465.56 580.26,-471.91"/>
</g>
<!-- Node2&#45;&gt;Node29 -->
<g id="edge44" class="edge">
<title>Node2&#45;&gt;Node29</title>
<path fill="none" stroke="#63b8ff" d="M407.54,-565.52C565.49,-555.45 978.34,-529.16 1124.66,-519.83"/>
<polygon fill="#63b8ff" stroke="#63b8ff" points="1124.97,-523.32 1134.72,-519.19 1124.52,-516.34 1124.97,-523.32"/>
</g>
<!-- Node4 -->
<g id="node4" class="node">
<title>Node4</title>
<g id="a_node4"><a xlink:href="../../d5/d22/_c_c_common_8h.html" target="_top" xlink:title=" ">
<polygon fill="white" stroke="#666666" points="414,-184 286,-184 286,-165 414,-165 414,-184"/>
<text text-anchor="middle" x="350" y="-172" font-family="Helvetica,sans-Serif" font-size="10.00">platform/CCCommon.h</text>
</a>
</g>
</g>
<!-- Node3&#45;&gt;Node4 -->
<g id="edge3" class="edge">
<title>Node3&#45;&gt;Node4</title>
<path fill="none" stroke="#63b8ff" d="M229.14,-219.98C252.82,-211.27 289.87,-197.63 316.71,-187.75"/>
<polygon fill="#63b8ff" stroke="#63b8ff" points="318.27,-190.91 326.44,-184.17 315.85,-184.34 318.27,-190.91"/>
</g>
<!-- Node6 -->
<g id="node6" class="node">
<title>Node6</title>
<g id="a_node6"><a xlink:href="../../db/d9f/cc_config_8h.html" target="_top" xlink:title="cocos2d (cc) configuration file">
<polygon fill="white" stroke="#666666" points="473.5,-74 406.5,-74 406.5,-55 473.5,-55 473.5,-74"/>
<text text-anchor="middle" x="440" y="-62" font-family="Helvetica,sans-Serif" font-size="10.00">ccConfig.h</text>
</a>
</g>
</g>
<!-- Node3&#45;&gt;Node6 -->
<g id="edge10" class="edge">
<title>Node3&#45;&gt;Node6</title>
<path fill="none" stroke="#63b8ff" d="M214.74,-219.73C227.71,-206.93 253.1,-182.75 277,-165 323.27,-130.63 381.86,-97.06 414.71,-79.05"/>
<polygon fill="#63b8ff" stroke="#63b8ff" points="416.53,-82.04 423.64,-74.18 413.19,-75.89 416.53,-82.04"/>
</g>
<!-- Node9 -->
<g id="node9" class="node">
<title>Node9</title>
<g id="a_node9"><a xlink:title=" ">
<polygon fill="#e0e0e0" stroke="#999999" points="230,-184 168,-184 168,-165 230,-165 230,-184"/>
<text text-anchor="middle" x="199" y="-172" font-family="Helvetica,sans-Serif" font-size="10.00">CCStdC.h</text>
</a>
</g>
</g>
<!-- Node3&#45;&gt;Node9 -->
<g id="edge9" class="edge">
<title>Node3&#45;&gt;Node9</title>
<path fill="none" stroke="#63b8ff" d="M204.84,-219.75C203.93,-212.8 202.61,-202.85 201.46,-194.13"/>
<polygon fill="#63b8ff" stroke="#63b8ff" points="204.91,-193.54 200.13,-184.09 197.97,-194.46 204.91,-193.54"/>
</g>
<!-- Node5 -->
<g id="node5" class="node">
<title>Node5</title>
<g id="a_node5"><a xlink:href="../../d3/d41/_c_c_platform_macros_8h.html" target="_top" xlink:title=" ">
<polygon fill="white" stroke="#666666" points="603,-129 487,-129 487,-110 603,-110 603,-129"/>
<text text-anchor="middle" x="545" y="-117" font-family="Helvetica,sans-Serif" font-size="10.00">CCPlatformMacros.h</text>
</a>
</g>
</g>
<!-- Node4&#45;&gt;Node5 -->
<g id="edge4" class="edge">
<title>Node4&#45;&gt;Node5</title>
<path fill="none" stroke="#63b8ff" d="M381.33,-164.98C414.49,-155.97 467,-141.7 503.56,-131.76"/>
<polygon fill="#63b8ff" stroke="#63b8ff" points="504.69,-135.08 513.42,-129.08 502.86,-128.33 504.69,-135.08"/>
</g>
<!-- Node5&#45;&gt;Node6 -->
<g id="edge5" class="edge">
<title>Node5&#45;&gt;Node6</title>
<path fill="none" stroke="#63b8ff" d="M528.13,-109.98C511.39,-101.54 485.5,-88.47 466.11,-78.68"/>
<polygon fill="#63b8ff" stroke="#63b8ff" points="467.68,-75.55 457.18,-74.17 464.53,-81.8 467.68,-75.55"/>
</g>
<!-- Node7 -->
<g id="node7" class="node">
<title>Node7</title>
<g id="a_node7"><a xlink:href="../../dd/d96/_c_c_platform_config_8h.html" target="_top" xlink:title=" ">
<polygon fill="white" stroke="#666666" points="549.5,-19 392.5,-19 392.5,0 549.5,0 549.5,-19"/>
<text text-anchor="middle" x="471" y="-7" font-family="Helvetica,sans-Serif" font-size="10.00">platform/CCPlatformConfig.h</text>
</a>
</g>
</g>
<!-- Node5&#45;&gt;Node7 -->
<g id="edge7" class="edge">
<title>Node5&#45;&gt;Node7</title>
<path fill="none" stroke="#63b8ff" d="M538.94,-109.66C526.69,-91.77 498.75,-51 482.78,-27.69"/>
<polygon fill="#63b8ff" stroke="#63b8ff" points="485.47,-25.43 476.93,-19.16 479.7,-29.39 485.47,-25.43"/>
</g>
<!-- Node8 -->
<g id="node8" class="node">
<title>Node8</title>
<g id="a_node8"><a xlink:title=" ">
<polygon fill="#e0e0e0" stroke="#999999" points="643.5,-74 530.5,-74 530.5,-55 643.5,-55 643.5,-74"/>
<text text-anchor="middle" x="587" y="-62" font-family="Helvetica,sans-Serif" font-size="10.00">CCPlatformDefine.h</text>
</a>
</g>
</g>
<!-- Node5&#45;&gt;Node8 -->
<g id="edge8" class="edge">
<title>Node5&#45;&gt;Node8</title>
<path fill="none" stroke="#63b8ff" d="M551.94,-109.75C557.87,-102.26 566.57,-91.28 573.82,-82.13"/>
<polygon fill="#63b8ff" stroke="#63b8ff" points="576.73,-84.1 580.19,-74.09 571.24,-79.75 576.73,-84.1"/>
</g>
<!-- Node6&#45;&gt;Node7 -->
<g id="edge6" class="edge">
<title>Node6&#45;&gt;Node7</title>
<path fill="none" stroke="#63b8ff" d="M445.12,-54.75C449.36,-47.49 455.53,-36.95 460.78,-27.98"/>
<polygon fill="#63b8ff" stroke="#63b8ff" points="463.95,-29.49 465.98,-19.09 457.91,-25.95 463.95,-29.49"/>
</g>
<!-- Node10&#45;&gt;Node5 -->
<g id="edge20" class="edge">
<title>Node10&#45;&gt;Node5</title>
<path fill="none" stroke="#63b8ff" d="M1042.41,-384.84C1032.23,-376.66 1017.71,-363.51 1009,-349 993.83,-323.75 990,-314.96 990,-285.5 990,-285.5 990,-285.5 990,-228.5 990,-151.95 738.16,-129.45 613.39,-123.01"/>
<polygon fill="#63b8ff" stroke="#63b8ff" points="613.34,-119.5 603.18,-122.5 612.99,-126.49 613.34,-119.5"/>
</g>
<!-- Node11 -->
<g id="node11" class="node">
<title>Node11</title>
<g id="a_node11"><a xlink:href="../../d6/d09/_c_c_geometry_8h.html" target="_top" xlink:title=" ">
<polygon fill="white" stroke="#666666" points="1104,-349 1018,-349 1018,-330 1104,-330 1104,-349"/>
<text text-anchor="middle" x="1061" y="-337" font-family="Helvetica,sans-Serif" font-size="10.00">CCGeometry.h</text>
</a>
</g>
</g>
<!-- Node10&#45;&gt;Node11 -->
<g id="edge12" class="edge">
<title>Node10&#45;&gt;Node11</title>
<path fill="none" stroke="#63b8ff" d="M1055.16,-384.75C1056.07,-377.8 1057.39,-367.85 1058.54,-359.13"/>
<polygon fill="#63b8ff" stroke="#63b8ff" points="1062.03,-359.46 1059.87,-349.09 1055.09,-358.54 1062.03,-359.46"/>
</g>
<!-- Node11&#45;&gt;Node5 -->
<g id="edge13" class="edge">
<title>Node11&#45;&gt;Node5</title>
<path fill="none" stroke="#63b8ff" d="M1058.48,-329.96C1048.35,-295.8 1010.84,-170.47 1004,-165 974.2,-141.15 734.11,-128.14 613.56,-123.05"/>
<polygon fill="#63b8ff" stroke="#63b8ff" points="613.47,-119.55 603.33,-122.63 613.17,-126.54 613.47,-119.55"/>
</g>
<!-- Node12 -->
<g id="node12" class="node">
<title>Node12</title>
<g id="a_node12"><a xlink:href="../../dd/d69/_c_c_object_8h.html" target="_top" xlink:title=" ">
<polygon fill="white" stroke="#666666" points="828.5,-294 757.5,-294 757.5,-275 828.5,-275 828.5,-294"/>
<text text-anchor="middle" x="793" y="-282" font-family="Helvetica,sans-Serif" font-size="10.00">CCObject.h</text>
</a>
</g>
</g>
<!-- Node11&#45;&gt;Node12 -->
<g id="edge14" class="edge">
<title>Node11&#45;&gt;Node12</title>
<path fill="none" stroke="#63b8ff" d="M1017.94,-329.98C968.8,-320.27 888.76,-304.44 838.59,-294.52"/>
<polygon fill="#63b8ff" stroke="#63b8ff" points="839.15,-291.06 828.66,-292.55 837.8,-297.93 839.15,-291.06"/>
</g>
<!-- Node15 -->
<g id="node15" class="node">
<title>Node15</title>
<g id="a_node15"><a xlink:title=" ">
<polygon fill="#e0e0e0" stroke="#999999" points="1107.5,-294 1056.5,-294 1056.5,-275 1107.5,-275 1107.5,-294"/>
<text text-anchor="middle" x="1082" y="-282" font-family="Helvetica,sans-Serif" font-size="10.00">math.h</text>
</a>
</g>
</g>
<!-- Node11&#45;&gt;Node15 -->
<g id="edge19" class="edge">
<title>Node11&#45;&gt;Node15</title>
<path fill="none" stroke="#63b8ff" d="M1064.47,-329.75C1067.28,-322.65 1071.34,-312.4 1074.85,-303.56"/>
<polygon fill="#63b8ff" stroke="#63b8ff" points="1078.17,-304.68 1078.6,-294.09 1071.66,-302.1 1078.17,-304.68"/>
</g>
<!-- Node12&#45;&gt;Node3 -->
<g id="edge18" class="edge">
<title>Node12&#45;&gt;Node3</title>
<path fill="none" stroke="#63b8ff" d="M757.16,-280.26C655.42,-271.08 364.86,-244.84 251.8,-234.64"/>
<polygon fill="#63b8ff" stroke="#63b8ff" points="252.01,-231.14 241.74,-233.73 251.38,-238.11 252.01,-231.14"/>
</g>
<!-- Node13 -->
<g id="node13" class="node">
<title>Node13</title>
<g id="a_node13"><a xlink:href="../../d9/d2d/_c_c_data_visitor_8h.html" target="_top" xlink:title=" ">
<polygon fill="white" stroke="#666666" points="839.5,-239 746.5,-239 746.5,-220 839.5,-220 839.5,-239"/>
<text text-anchor="middle" x="793" y="-227" font-family="Helvetica,sans-Serif" font-size="10.00">CCDataVisitor.h</text>
</a>
</g>
</g>
<!-- Node12&#45;&gt;Node13 -->
<g id="edge15" class="edge">
<title>Node12&#45;&gt;Node13</title>
<path fill="none" stroke="#63b8ff" d="M793,-274.75C793,-267.8 793,-257.85 793,-249.13"/>
<polygon fill="#63b8ff" stroke="#63b8ff" points="796.5,-249.09 793,-239.09 789.5,-249.09 796.5,-249.09"/>
</g>
<!-- Node13&#45;&gt;Node5 -->
<g id="edge16" class="edge">
<title>Node13&#45;&gt;Node5</title>
<path fill="none" stroke="#63b8ff" d="M773.12,-219.84C729.48,-200.84 625.11,-155.39 574.09,-133.17"/>
<polygon fill="#63b8ff" stroke="#63b8ff" points="575.19,-129.83 564.63,-129.05 572.4,-136.25 575.19,-129.83"/>
</g>
<!-- Node14 -->
<g id="node14" class="node">
<title>Node14</title>
<g id="a_node14"><a xlink:title=" ">
<polygon fill="#e0e0e0" stroke="#999999" points="1276,-184 1232,-184 1232,-165 1276,-165 1276,-184"/>
<text text-anchor="middle" x="1254" y="-172" font-family="Helvetica,sans-Serif" font-size="10.00">string</text>
</a>
</g>
</g>
<!-- Node13&#45;&gt;Node14 -->
<g id="edge17" class="edge">
<title>Node13&#45;&gt;Node14</title>
<path fill="none" stroke="#63b8ff" d="M839.74,-223.13C933.39,-212.36 1141.89,-188.39 1221.89,-179.19"/>
<polygon fill="#63b8ff" stroke="#63b8ff" points="1222.34,-182.66 1231.87,-178.04 1221.54,-175.71 1222.34,-182.66"/>
</g>
<!-- Node17 -->
<g id="node17" class="node">
<title>Node17</title>
<g id="a_node17"><a xlink:title=" ">
<polygon fill="#e0e0e0" stroke="#999999" points="148,-470 28,-470 28,-440 148,-440 148,-470"/>
<text text-anchor="start" x="36" y="-458" font-family="Helvetica,sans-Serif" font-size="10.00">support/data_support</text>
<text text-anchor="middle" x="88" y="-447" font-family="Helvetica,sans-Serif" font-size="10.00">/ccCArray.h</text>
</a>
</g>
</g>
<!-- Node16&#45;&gt;Node17 -->
<g id="edge22" class="edge">
<title>Node16&#45;&gt;Node17</title>
<path fill="none" stroke="#63b8ff" d="M93.11,-505.87C92.42,-499.11 91.42,-489.35 90.49,-480.26"/>
<polygon fill="#63b8ff" stroke="#63b8ff" points="93.95,-479.71 89.45,-470.11 86.99,-480.42 93.95,-479.71"/>
</g>
<!-- Node19&#45;&gt;Node5 -->
<g id="edge26" class="edge">
<title>Node19&#45;&gt;Node5</title>
<path fill="none" stroke="#63b8ff" d="M310.78,-384.73C345.34,-345.74 485.3,-187.85 530.7,-136.63"/>
<polygon fill="#63b8ff" stroke="#63b8ff" points="533.36,-138.91 537.37,-129.11 528.12,-134.27 533.36,-138.91"/>
</g>
<!-- Node19&#45;&gt;Node18 -->
<g id="edge25" class="edge">
<title>Node19&#45;&gt;Node18</title>
<path fill="none" stroke="#63b8ff" d="M301.84,-384.75C300.93,-377.8 299.61,-367.85 298.46,-359.13"/>
<polygon fill="#63b8ff" stroke="#63b8ff" points="301.91,-358.54 297.13,-349.09 294.97,-359.46 301.91,-358.54"/>
</g>
<!-- Node20&#45;&gt;Node3 -->
<g id="edge28" class="edge">
<title>Node20&#45;&gt;Node3</title>
<path fill="none" stroke="#63b8ff" d="M112.32,-384.74C128.04,-358.87 174.43,-282.48 195.44,-247.88"/>
<polygon fill="#63b8ff" stroke="#63b8ff" points="198.45,-249.67 200.65,-239.31 192.47,-246.04 198.45,-249.67"/>
</g>
<!-- Node20&#45;&gt;Node12 -->
<g id="edge29" class="edge">
<title>Node20&#45;&gt;Node12</title>
<path fill="none" stroke="#63b8ff" d="M123.08,-384.92C150.49,-370.74 208.44,-342.71 261,-330 436.87,-287.47 653.89,-283.93 747.02,-284.64"/>
<polygon fill="#63b8ff" stroke="#63b8ff" points="747.2,-288.14 757.23,-284.74 747.26,-281.14 747.2,-288.14"/>
</g>
<!-- Node20&#45;&gt;Node18 -->
<g id="edge30" class="edge">
<title>Node20&#45;&gt;Node18</title>
<path fill="none" stroke="#63b8ff" d="M137.37,-384.98C170.8,-375.61 224.5,-360.55 260.02,-350.59"/>
<polygon fill="#63b8ff" stroke="#63b8ff" points="261.28,-353.87 269.97,-347.8 259.39,-347.13 261.28,-353.87"/>
</g>
<!-- Node22&#45;&gt;Node4 -->
<g id="edge33" class="edge">
<title>Node22&#45;&gt;Node4</title>
<path fill="none" stroke="#63b8ff" d="M517.81,-447.92C484.32,-441.39 448.22,-428.62 423,-404 401.92,-383.42 404,-369.96 404,-340.5 404,-340.5 404,-340.5 404,-283.5 404,-247.89 380.23,-211.99 364.23,-191.86"/>
<polygon fill="#63b8ff" stroke="#63b8ff" points="366.81,-189.49 357.74,-184.01 361.41,-193.95 366.81,-189.49"/>
</g>
<!-- Node22&#45;&gt;Node14 -->
<g id="edge42" class="edge">
<title>Node22&#45;&gt;Node14</title>
<path fill="none" stroke="#63b8ff" d="M694.21,-451.02C836.34,-445.44 1103.58,-431.42 1137,-404 1159.78,-385.32 1156,-369.96 1156,-340.5 1156,-340.5 1156,-340.5 1156,-283.5 1156,-240.55 1199.03,-207.1 1228.07,-189.42"/>
<polygon fill="#63b8ff" stroke="#63b8ff" points="1230.06,-192.3 1236.93,-184.24 1226.53,-186.26 1230.06,-192.3"/>
</g>
<!-- Node23 -->
<g id="node23" class="node">
<title>Node23</title>
<g id="a_node23"><a xlink:title=" ">
<polygon fill="#e0e0e0" stroke="#999999" points="542,-404 432,-404 432,-385 542,-385 542,-404"/>
<text text-anchor="middle" x="487" y="-392" font-family="Helvetica,sans-Serif" font-size="10.00">CCAccelerometer.h</text>
</a>
</g>
</g>
<!-- Node22&#45;&gt;Node23 -->
<g id="edge34" class="edge">
<title>Node22&#45;&gt;Node23</title>
<path fill="none" stroke="#63b8ff" d="M588.7,-445.49C568.95,-435.79 536.45,-419.81 513.51,-408.53"/>
<polygon fill="#63b8ff" stroke="#63b8ff" points="514.84,-405.29 504.32,-404.02 511.75,-411.57 514.84,-405.29"/>
</g>
<!-- Node24 -->
<g id="node24" class="node">
<title>Node24</title>
<g id="a_node24"><a xlink:href="../../d3/dff/_c_c_touch_8h.html" target="_top" xlink:title=" ">
<polygon fill="white" stroke="#666666" points="923.5,-404 770.5,-404 770.5,-385 923.5,-385 923.5,-404"/>
<text text-anchor="middle" x="847" y="-392" font-family="Helvetica,sans-Serif" font-size="10.00">touch_dispatcher/CCTouch.h</text>
</a>
</g>
</g>
<!-- Node22&#45;&gt;Node24 -->
<g id="edge35" class="edge">
<title>Node22&#45;&gt;Node24</title>
<path fill="none" stroke="#63b8ff" d="M641.04,-445.49C683.61,-435.16 755.49,-417.71 802.09,-406.4"/>
<polygon fill="#63b8ff" stroke="#63b8ff" points="803.02,-409.78 811.91,-404.02 801.37,-402.97 803.02,-409.78"/>
</g>
<!-- Node25 -->
<g id="node25" class="node">
<title>Node25</title>
<g id="a_node25"><a xlink:href="../../da/ddc/_c_c_set_8h.html" target="_top" xlink:title=" ">
<polygon fill="white" stroke="#666666" points="752,-404 666,-404 666,-385 752,-385 752,-404"/>
<text text-anchor="middle" x="709" y="-392" font-family="Helvetica,sans-Serif" font-size="10.00">cocoa/CCSet.h</text>
</a>
</g>
</g>
<!-- Node22&#45;&gt;Node25 -->
<g id="edge38" class="edge">
<title>Node22&#45;&gt;Node25</title>
<path fill="none" stroke="#63b8ff" d="M621.2,-445.37C638.01,-435.82 665.32,-420.31 685.02,-409.12"/>
<polygon fill="#63b8ff" stroke="#63b8ff" points="686.77,-412.15 693.74,-404.17 683.32,-406.06 686.77,-412.15"/>
</g>
<!-- Node27 -->
<g id="node27" class="node">
<title>Node27</title>
<g id="a_node27"><a xlink:title=" ">
<polygon fill="#e0e0e0" stroke="#999999" points="598,-404 560,-404 560,-385 598,-385 598,-404"/>
<text text-anchor="middle" x="579" y="-392" font-family="Helvetica,sans-Serif" font-size="10.00">map</text>
</a>
</g>
</g>
<!-- Node22&#45;&gt;Node27 -->
<g id="edge41" class="edge">
<title>Node22&#45;&gt;Node27</title>
<path fill="none" stroke="#63b8ff" d="M602.02,-445.37C598.15,-436.99 592.16,-424.01 587.26,-413.39"/>
<polygon fill="#63b8ff" stroke="#63b8ff" points="590.37,-411.78 583,-404.17 584.01,-414.71 590.37,-411.78"/>
</g>
<!-- Node28 -->
<g id="node28" class="node">
<title>Node28</title>
<g id="a_node28"><a xlink:title=" ">
<polygon fill="#e0e0e0" stroke="#999999" points="648,-404 616,-404 616,-385 648,-385 648,-404"/>
<text text-anchor="middle" x="632" y="-392" font-family="Helvetica,sans-Serif" font-size="10.00">list</text>
</a>
</g>
</g>
<!-- Node22&#45;&gt;Node28 -->
<g id="edge43" class="edge">
<title>Node22&#45;&gt;Node28</title>
<path fill="none" stroke="#63b8ff" d="M609.84,-445.37C613.56,-436.99 619.33,-424.01 624.05,-413.39"/>
<polygon fill="#63b8ff" stroke="#63b8ff" points="627.28,-414.73 628.15,-404.17 620.89,-411.88 627.28,-414.73"/>
</g>
<!-- Node24&#45;&gt;Node11 -->
<g id="edge37" class="edge">
<title>Node24&#45;&gt;Node11</title>
<path fill="none" stroke="#63b8ff" d="M881.38,-384.98C918.09,-375.89 976.38,-361.46 1016.55,-351.51"/>
<polygon fill="#63b8ff" stroke="#63b8ff" points="1017.48,-354.88 1026.35,-349.08 1015.8,-348.09 1017.48,-354.88"/>
</g>
<!-- Node24&#45;&gt;Node12 -->
<g id="edge36" class="edge">
<title>Node24&#45;&gt;Node12</title>
<path fill="none" stroke="#63b8ff" d="M842.58,-384.66C833.72,-366.93 813.61,-326.73 801.91,-303.32"/>
<polygon fill="#63b8ff" stroke="#63b8ff" points="804.93,-301.54 797.33,-294.16 798.67,-304.67 804.93,-301.54"/>
</g>
<!-- Node25&#45;&gt;Node12 -->
<g id="edge40" class="edge">
<title>Node25&#45;&gt;Node12</title>
<path fill="none" stroke="#63b8ff" d="M715.87,-384.66C729.91,-366.61 762.06,-325.28 780.11,-302.08"/>
<polygon fill="#63b8ff" stroke="#63b8ff" points="782.89,-304.2 786.27,-294.16 777.36,-299.9 782.89,-304.2"/>
</g>
<!-- Node26 -->
<g id="node26" class="node">
<title>Node26</title>
<g id="a_node26"><a xlink:title=" ">
<polygon fill="#e0e0e0" stroke="#999999" points="725,-349 693,-349 693,-330 725,-330 725,-349"/>
<text text-anchor="middle" x="709" y="-337" font-family="Helvetica,sans-Serif" font-size="10.00">set</text>
</a>
</g>
</g>
<!-- Node25&#45;&gt;Node26 -->
<g id="edge39" class="edge">
<title>Node25&#45;&gt;Node26</title>
<path fill="none" stroke="#63b8ff" d="M709,-384.75C709,-377.8 709,-367.85 709,-359.13"/>
<polygon fill="#63b8ff" stroke="#63b8ff" points="712.5,-359.09 709,-349.09 705.5,-359.09 712.5,-359.09"/>
</g>
<!-- Node29&#45;&gt;Node14 -->
<g id="edge54" class="edge">
<title>Node29&#45;&gt;Node14</title>
<path fill="none" stroke="#63b8ff" d="M1217.15,-505.96C1268.81,-492.34 1352,-460.35 1352,-395.5 1352,-395.5 1352,-395.5 1352,-283.5 1352,-240.55 1308.97,-207.1 1279.93,-189.42"/>
<polygon fill="#63b8ff" stroke="#63b8ff" points="1281.47,-186.26 1271.07,-184.24 1277.94,-192.3 1281.47,-186.26"/>
</g>
<!-- Node30 -->
<g id="node30" class="node">
<title>Node30</title>
<g id="a_node30"><a xlink:href="../../df/de6/cc_types_8h.html" target="_top" xlink:title=" ">
<polygon fill="white" stroke="#666666" points="1286,-404 1222,-404 1222,-385 1286,-385 1286,-404"/>
<text text-anchor="middle" x="1254" y="-392" font-family="Helvetica,sans-Serif" font-size="10.00">ccTypes.h</text>
</a>
</g>
</g>
<!-- Node29&#45;&gt;Node30 -->
<g id="edge45" class="edge">
<title>Node29&#45;&gt;Node30</title>
<path fill="none" stroke="#63b8ff" d="M1204.49,-505.89C1221.36,-499.04 1241.65,-487.62 1252,-470 1261.91,-453.12 1260.81,-430.18 1258.25,-414.23"/>
<polygon fill="#63b8ff" stroke="#63b8ff" points="1261.61,-413.18 1256.26,-404.04 1254.74,-414.52 1261.61,-413.18"/>
</g>
<!-- Node31 -->
<g id="node31" class="node">
<title>Node31</title>
<g id="a_node31"><a xlink:href="../../d5/d70/_c_c_texture2_d_8h.html" target="_top" xlink:title=" ">
<polygon fill="white" stroke="#666666" points="1243,-464.5 1111,-464.5 1111,-445.5 1243,-445.5 1243,-464.5"/>
<text text-anchor="middle" x="1177" y="-452.5" font-family="Helvetica,sans-Serif" font-size="10.00">textures/CCTexture2D.h</text>
</a>
</g>
</g>
<!-- Node29&#45;&gt;Node31 -->
<g id="edge49" class="edge">
<title>Node29&#45;&gt;Node31</title>
<path fill="none" stroke="#63b8ff" d="M1177,-505.87C1177,-497.75 1177,-485.31 1177,-474.89"/>
<polygon fill="#63b8ff" stroke="#63b8ff" points="1180.5,-474.67 1177,-464.67 1173.5,-474.67 1180.5,-474.67"/>
</g>
<!-- Node30&#45;&gt;Node11 -->
<g id="edge47" class="edge">
<title>Node30&#45;&gt;Node11</title>
<path fill="none" stroke="#63b8ff" d="M1222.99,-384.98C1190.17,-375.97 1138.2,-361.7 1102.01,-351.76"/>
<polygon fill="#63b8ff" stroke="#63b8ff" points="1102.82,-348.36 1092.25,-349.08 1100.97,-355.11 1102.82,-348.36"/>
</g>
<!-- Node30&#45;&gt;Node14 -->
<g id="edge46" class="edge">
<title>Node30&#45;&gt;Node14</title>
<path fill="none" stroke="#63b8ff" d="M1254,-384.95C1254,-352.95 1254,-239.68 1254,-194.4"/>
<polygon fill="#63b8ff" stroke="#63b8ff" points="1257.5,-194.22 1254,-184.22 1250.5,-194.22 1257.5,-194.22"/>
</g>
<!-- Node30&#45;&gt;Node18 -->
<g id="edge48" class="edge">
<title>Node30&#45;&gt;Node18</title>
<path fill="none" stroke="#63b8ff" d="M1221.73,-390.98C1198.24,-389.19 1165.66,-386.8 1137,-385 825.69,-365.46 449.18,-347.58 332.34,-342.17"/>
<polygon fill="#63b8ff" stroke="#63b8ff" points="332.32,-338.66 322.17,-341.7 332,-345.66 332.32,-338.66"/>
</g>
<!-- Node31&#45;&gt;Node11 -->
<g id="edge52" class="edge">
<title>Node31&#45;&gt;Node11</title>
<path fill="none" stroke="#63b8ff" d="M1173.74,-445.44C1168.05,-431.41 1155.17,-403.25 1137,-385 1123.9,-371.85 1106.14,-361.16 1091.07,-353.56"/>
<polygon fill="#63b8ff" stroke="#63b8ff" points="1092.17,-350.2 1081.64,-349.02 1089.13,-356.51 1092.17,-350.2"/>
</g>
<!-- Node31&#45;&gt;Node12 -->
<g id="edge51" class="edge">
<title>Node31&#45;&gt;Node12</title>
<path fill="none" stroke="#63b8ff" d="M1118.86,-445.48C1076.61,-437.96 1018.7,-424.89 971,-404 937.94,-389.52 852.44,-328.69 813.21,-300.26"/>
<polygon fill="#63b8ff" stroke="#63b8ff" points="814.86,-297.14 804.72,-294.09 810.75,-302.8 814.86,-297.14"/>
</g>
<!-- Node31&#45;&gt;Node14 -->
<g id="edge50" class="edge">
<title>Node31&#45;&gt;Node14</title>
<path fill="none" stroke="#63b8ff" d="M1219.73,-445.49C1244.88,-438.39 1275.48,-425.8 1295,-404 1314.65,-382.06 1314,-369.96 1314,-340.5 1314,-340.5 1314,-340.5 1314,-283.5 1314,-247.09 1287.62,-211.48 1269.84,-191.62"/>
<polygon fill="#63b8ff" stroke="#63b8ff" points="1272.23,-189.05 1262.85,-184.11 1267.11,-193.82 1272.23,-189.05"/>
</g>
<!-- Node31&#45;&gt;Node30 -->
<g id="edge53" class="edge">
<title>Node31&#45;&gt;Node30</title>
<path fill="none" stroke="#63b8ff" d="M1188.36,-445.37C1200.42,-436.21 1219.7,-421.56 1234.25,-410.51"/>
<polygon fill="#63b8ff" stroke="#63b8ff" points="1236.75,-413 1242.59,-404.17 1232.51,-407.43 1236.75,-413"/>
</g>
</g>
</svg>
