<?xml version="1.0" encoding="UTF-8" standalone="no"?>
<!DOCTYPE svg PUBLIC "-//W3C//DTD SVG 1.1//EN"
 "http://www.w3.org/Graphics/SVG/1.1/DTD/svg11.dtd">
<!-- Generated by graphviz version 2.43.0 (0)
 -->
<!-- Title: CCProfilingTimer Pages: 1 -->
<svg width="189pt" height="149pt"
 viewBox="0.00 0.00 189.00 149.00" xmlns="http://www.w3.org/2000/svg" xmlns:xlink="http://www.w3.org/1999/xlink">
<g id="graph0" class="graph" transform="scale(1 1) rotate(0) translate(4 145)">
<title>CCProfilingTimer</title>
<!-- Node1 -->
<g id="node1" class="node">
<title>Node1</title>
<g id="a_node1"><a xlink:title="NA NA.">
<polygon fill="#999999" stroke="#666666" points="147,-19 49,-19 49,0 147,0 147,-19"/>
<text text-anchor="middle" x="98" y="-7" font-family="Helvetica,sans-Serif" font-size="10.00">CCProfilingTimer</text>
</a>
</g>
</g>
<!-- Node2 -->
<g id="node2" class="node">
<title>Node2</title>
<g id="a_node2"><a xlink:href="../../d3/dbf/classcocos2d_1_1_c_c_object.html" target="_top" xlink:title="NA.">
<polygon fill="white" stroke="#666666" points="66,-85 4,-85 4,-66 66,-66 66,-85"/>
<text text-anchor="middle" x="35" y="-73" font-family="Helvetica,sans-Serif" font-size="10.00">CCObject</text>
</a>
</g>
</g>
<!-- Node2&#45;&gt;Node1 -->
<g id="edge1" class="edge">
<title>Node2&#45;&gt;Node1</title>
<path fill="none" stroke="#63b8ff" d="M50.77,-58.48C62.94,-46.12 79.31,-29.49 89.23,-19.41"/>
<polygon fill="#63b8ff" stroke="#63b8ff" points="48.02,-56.29 43.5,-65.87 53.01,-61.2 48.02,-56.29"/>
</g>
<!-- Node3 -->
<g id="node3" class="node">
<title>Node3</title>
<g id="a_node3"><a xlink:href="../../d5/d61/classcocos2d_1_1_c_c_copying.html" target="_top" xlink:title="NA NA.">
<polygon fill="white" stroke="#666666" points="70,-141 0,-141 0,-122 70,-122 70,-141"/>
<text text-anchor="middle" x="35" y="-129" font-family="Helvetica,sans-Serif" font-size="10.00">CCCopying</text>
</a>
</g>
</g>
<!-- Node3&#45;&gt;Node2 -->
<g id="edge2" class="edge">
<title>Node3&#45;&gt;Node2</title>
<path fill="none" stroke="#63b8ff" d="M35,-111.3C35,-102.41 35,-92.28 35,-85.25"/>
<polygon fill="#63b8ff" stroke="#63b8ff" points="31.5,-111.58 35,-121.58 38.5,-111.58 31.5,-111.58"/>
</g>
<!-- Node4 -->
<g id="node4" class="node">
<title>Node4</title>
<g id="a_node4"><a xlink:href="../../df/d5f/structcocos2d_1_1cc__timeval.html" target="_top" xlink:title=" ">
<polygon fill="white" stroke="#666666" points="154,-85 84,-85 84,-66 154,-66 154,-85"/>
<text text-anchor="middle" x="119" y="-73" font-family="Helvetica,sans-Serif" font-size="10.00">cc_timeval</text>
</a>
</g>
</g>
<!-- Node4&#45;&gt;Node1 -->
<g id="edge3" class="edge">
<title>Node4&#45;&gt;Node1</title>
<path fill="none" stroke="#9a32cd" stroke-dasharray="5,2" d="M113.03,-56.32C109.07,-44.24 104.04,-28.91 100.92,-19.41"/>
<polygon fill="#9a32cd" stroke="#9a32cd" points="109.72,-57.46 116.17,-65.87 116.38,-55.28 109.72,-57.46"/>
<text text-anchor="middle" x="145" y="-40" font-family="Helvetica,sans-Serif" font-size="10.00"> m_sStartTime</text>
</g>
</g>
</svg>
