<?xml version="1.0" encoding="UTF-8" standalone="no"?>
<!DOCTYPE svg PUBLIC "-//W3C//DTD SVG 1.1//EN"
 "http://www.w3.org/Graphics/SVG/1.1/DTD/svg11.dtd">
<!-- Generated by graphviz version 2.43.0 (0)
 -->
<!-- Title: CCControlSaturationBrightnessPicker Pages: 1 -->
<svg width="621pt" height="368pt"
 viewBox="0.00 0.00 621.00 368.00" xmlns="http://www.w3.org/2000/svg" xmlns:xlink="http://www.w3.org/1999/xlink">
<g id="graph0" class="graph" transform="scale(1 1) rotate(0) translate(4 364)">
<title>CCControlSaturationBrightnessPicker</title>
<!-- Node1 -->
<g id="node1" class="node">
<title>Node1</title>
<g id="a_node1"><a xlink:title=" ">
<polygon fill="#999999" stroke="#666666" points="405.5,-30 238.5,-30 238.5,0 405.5,0 405.5,-30"/>
<text text-anchor="start" x="246.5" y="-18" font-family="Helvetica,sans-Serif" font-size="10.00">CCControlSaturationBrightness</text>
<text text-anchor="middle" x="322" y="-7" font-family="Helvetica,sans-Serif" font-size="10.00">Picker</text>
</a>
</g>
</g>
<!-- Node2 -->
<g id="node2" class="node">
<title>Node2</title>
<g id="a_node2"><a xlink:href="../../d4/d38/classcocos2d_1_1extension_1_1_c_c_control.html" target="_top" xlink:title=" ">
<polygon fill="white" stroke="#666666" points="354.5,-85 289.5,-85 289.5,-66 354.5,-66 354.5,-85"/>
<text text-anchor="middle" x="322" y="-73" font-family="Helvetica,sans-Serif" font-size="10.00">CCControl</text>
</a>
</g>
</g>
<!-- Node2&#45;&gt;Node1 -->
<g id="edge1" class="edge">
<title>Node2&#45;&gt;Node1</title>
<path fill="none" stroke="#63b8ff" d="M322,-55.65C322,-47.36 322,-37.78 322,-30.11"/>
<polygon fill="#63b8ff" stroke="#63b8ff" points="318.5,-55.87 322,-65.87 325.5,-55.87 318.5,-55.87"/>
</g>
<!-- Node3 -->
<g id="node3" class="node">
<title>Node3</title>
<g id="a_node3"><a xlink:href="../../dd/d1e/classcocos2d_1_1_c_c_layer_r_g_b_a.html" target="_top" xlink:title="CCLayerRGBA is a subclass of CCLayer that implements the CCRGBAProtocol protocol using a solid color ...">
<polygon fill="white" stroke="#666666" points="364.5,-140 279.5,-140 279.5,-121 364.5,-121 364.5,-140"/>
<text text-anchor="middle" x="322" y="-128" font-family="Helvetica,sans-Serif" font-size="10.00">CCLayerRGBA</text>
</a>
</g>
</g>
<!-- Node3&#45;&gt;Node2 -->
<g id="edge2" class="edge">
<title>Node3&#45;&gt;Node2</title>
<path fill="none" stroke="#63b8ff" d="M322,-110.66C322,-101.93 322,-91.99 322,-85.09"/>
<polygon fill="#63b8ff" stroke="#63b8ff" points="318.5,-110.75 322,-120.75 325.5,-110.75 318.5,-110.75"/>
</g>
<!-- Node4 -->
<g id="node4" class="node">
<title>Node4</title>
<g id="a_node4"><a xlink:href="../../d0/d45/class_c_c_layer.html" target="_top" xlink:title="CCLayer is a subclass of CCNode that implements the TouchEventsDelegate protocol.">
<polygon fill="white" stroke="#666666" points="302.5,-195 245.5,-195 245.5,-176 302.5,-176 302.5,-195"/>
<text text-anchor="middle" x="274" y="-183" font-family="Helvetica,sans-Serif" font-size="10.00">CCLayer</text>
</a>
</g>
</g>
<!-- Node4&#45;&gt;Node3 -->
<g id="edge3" class="edge">
<title>Node4&#45;&gt;Node3</title>
<path fill="none" stroke="#63b8ff" d="M288.73,-168.24C297.14,-158.95 307.35,-147.68 314.22,-140.09"/>
<polygon fill="#63b8ff" stroke="#63b8ff" points="286.04,-165.99 281.93,-175.75 291.23,-170.69 286.04,-165.99"/>
</g>
<!-- Node5 -->
<g id="node5" class="node">
<title>Node5</title>
<g id="a_node5"><a xlink:href="../../d0/ded/classcocos2d_1_1_c_c_node.html" target="_top" xlink:title="CCNode is the main element.">
<polygon fill="white" stroke="#666666" points="63,-250 7,-250 7,-231 63,-231 63,-250"/>
<text text-anchor="middle" x="35" y="-238" font-family="Helvetica,sans-Serif" font-size="10.00">CCNode</text>
</a>
</g>
</g>
<!-- Node5&#45;&gt;Node4 -->
<g id="edge4" class="edge">
<title>Node5&#45;&gt;Node4</title>
<path fill="none" stroke="#63b8ff" d="M73.18,-230.75C140.37,-215.66 207.85,-200.9 245.21,-192.76"/>
<polygon fill="#63b8ff" stroke="#63b8ff" points="72.26,-227.37 63.28,-232.98 73.8,-234.2 72.26,-227.37"/>
</g>
<!-- Node6 -->
<g id="node6" class="node">
<title>Node6</title>
<g id="a_node6"><a xlink:href="../../d3/dbf/classcocos2d_1_1_c_c_object.html" target="_top" xlink:title="NA.">
<polygon fill="white" stroke="#666666" points="66,-305 4,-305 4,-286 66,-286 66,-305"/>
<text text-anchor="middle" x="35" y="-293" font-family="Helvetica,sans-Serif" font-size="10.00">CCObject</text>
</a>
</g>
</g>
<!-- Node6&#45;&gt;Node5 -->
<g id="edge5" class="edge">
<title>Node6&#45;&gt;Node5</title>
<path fill="none" stroke="#63b8ff" d="M35,-275.66C35,-266.93 35,-256.99 35,-250.09"/>
<polygon fill="#63b8ff" stroke="#63b8ff" points="31.5,-275.75 35,-285.75 38.5,-275.75 31.5,-275.75"/>
</g>
<!-- Node7 -->
<g id="node7" class="node">
<title>Node7</title>
<g id="a_node7"><a xlink:href="../../d5/d61/classcocos2d_1_1_c_c_copying.html" target="_top" xlink:title="NA NA.">
<polygon fill="white" stroke="#666666" points="70,-360 0,-360 0,-341 70,-341 70,-360"/>
<text text-anchor="middle" x="35" y="-348" font-family="Helvetica,sans-Serif" font-size="10.00">CCCopying</text>
</a>
</g>
</g>
<!-- Node7&#45;&gt;Node6 -->
<g id="edge6" class="edge">
<title>Node7&#45;&gt;Node6</title>
<path fill="none" stroke="#63b8ff" d="M35,-330.66C35,-321.93 35,-311.99 35,-305.09"/>
<polygon fill="#63b8ff" stroke="#63b8ff" points="31.5,-330.75 35,-340.75 38.5,-330.75 31.5,-330.75"/>
</g>
<!-- Node8 -->
<g id="node8" class="node">
<title>Node8</title>
<g id="a_node8"><a xlink:href="../../d0/d38/classcocos2d_1_1_c_c_touch_delegate.html" target="_top" xlink:title=" ">
<polygon fill="white" stroke="#666666" points="183,-250 81,-250 81,-231 183,-231 183,-250"/>
<text text-anchor="middle" x="132" y="-238" font-family="Helvetica,sans-Serif" font-size="10.00">CCTouchDelegate</text>
</a>
</g>
</g>
<!-- Node8&#45;&gt;Node4 -->
<g id="edge7" class="edge">
<title>Node8&#45;&gt;Node4</title>
<path fill="none" stroke="#63b8ff" d="M164.36,-227.42C190.71,-217.59 227.26,-203.95 250.77,-195.17"/>
<polygon fill="#63b8ff" stroke="#63b8ff" points="162.96,-224.21 154.81,-230.98 165.41,-230.77 162.96,-224.21"/>
</g>
<!-- Node9 -->
<g id="node9" class="node">
<title>Node9</title>
<g id="a_node9"><a xlink:href="../../da/d55/classcocos2d_1_1_c_c_accelerometer_delegate.html" target="_top" xlink:title="The CCAccelerometerDelegate defines a single method for receiving acceleration&#45;related data from the ...">
<polygon fill="white" stroke="#666666" points="347,-250 201,-250 201,-231 347,-231 347,-250"/>
<text text-anchor="middle" x="274" y="-238" font-family="Helvetica,sans-Serif" font-size="10.00">CCAccelerometerDelegate</text>
</a>
</g>
</g>
<!-- Node9&#45;&gt;Node4 -->
<g id="edge8" class="edge">
<title>Node9&#45;&gt;Node4</title>
<path fill="none" stroke="#63b8ff" d="M274,-220.66C274,-211.93 274,-201.99 274,-195.09"/>
<polygon fill="#63b8ff" stroke="#63b8ff" points="270.5,-220.75 274,-230.75 277.5,-220.75 270.5,-220.75"/>
</g>
<!-- Node10 -->
<g id="node10" class="node">
<title>Node10</title>
<g id="a_node10"><a xlink:href="../../d2/d2d/classcocos2d_1_1_c_c_keypad_delegate.html" target="_top" xlink:title=" ">
<polygon fill="white" stroke="#666666" points="475,-250 365,-250 365,-231 475,-231 475,-250"/>
<text text-anchor="middle" x="420" y="-238" font-family="Helvetica,sans-Serif" font-size="10.00">CCKeypadDelegate</text>
</a>
</g>
</g>
<!-- Node10&#45;&gt;Node4 -->
<g id="edge9" class="edge">
<title>Node10&#45;&gt;Node4</title>
<path fill="none" stroke="#63b8ff" d="M387.08,-227.55C359.97,-217.71 322.17,-203.98 297.88,-195.17"/>
<polygon fill="#63b8ff" stroke="#63b8ff" points="385.95,-230.86 396.54,-230.98 388.34,-224.28 385.95,-230.86"/>
</g>
<!-- Node11 -->
<g id="node11" class="node">
<title>Node11</title>
<g id="a_node11"><a xlink:href="../../d2/d91/classcocos2d_1_1_c_c_keyboard_delegate.html" target="_top" xlink:title=" ">
<polygon fill="white" stroke="#666666" points="613,-250 493,-250 493,-231 613,-231 613,-250"/>
<text text-anchor="middle" x="553" y="-238" font-family="Helvetica,sans-Serif" font-size="10.00">CCKeyboardDelegate</text>
</a>
</g>
</g>
<!-- Node11&#45;&gt;Node4 -->
<g id="edge10" class="edge">
<title>Node11&#45;&gt;Node4</title>
<path fill="none" stroke="#63b8ff" d="M493.43,-229.14C444.58,-220.49 373.69,-207.59 312,-195 308.95,-194.38 305.77,-193.71 302.61,-193.02"/>
<polygon fill="#63b8ff" stroke="#63b8ff" points="493.05,-232.63 503.51,-230.92 494.27,-225.74 493.05,-232.63"/>
</g>
<!-- Node12 -->
<g id="node12" class="node">
<title>Node12</title>
<g id="a_node12"><a xlink:href="../../d8/dda/classcocos2d_1_1_c_c_r_g_b_a_protocol.html" target="_top" xlink:title="RGBA protocol that affects CCNode&#39;s color and opacity NA.">
<polygon fill="white" stroke="#666666" points="419,-195 321,-195 321,-176 419,-176 419,-195"/>
<text text-anchor="middle" x="370" y="-183" font-family="Helvetica,sans-Serif" font-size="10.00">CCRGBAProtocol</text>
</a>
</g>
</g>
<!-- Node12&#45;&gt;Node3 -->
<g id="edge11" class="edge">
<title>Node12&#45;&gt;Node3</title>
<path fill="none" stroke="#63b8ff" d="M355.27,-168.24C346.86,-158.95 336.65,-147.68 329.78,-140.09"/>
<polygon fill="#63b8ff" stroke="#63b8ff" points="352.77,-170.69 362.07,-175.75 357.96,-165.99 352.77,-170.69"/>
</g>
</g>
</svg>
