<?xml version="1.0" encoding="UTF-8" standalone="no"?>
<!DOCTYPE svg PUBLIC "-//W3C//DTD SVG 1.1//EN"
 "http://www.w3.org/Graphics/SVG/1.1/DTD/svg11.dtd">
<!-- Generated by graphviz version 2.43.0 (0)
 -->
<!-- Title: CCControlSaturationBrightnessPicker Pages: 1 -->
<svg width="621pt" height="375pt"
 viewBox="0.00 0.00 621.00 375.00" xmlns="http://www.w3.org/2000/svg" xmlns:xlink="http://www.w3.org/1999/xlink">
<g id="graph0" class="graph" transform="scale(1 1) rotate(0) translate(4 371)">
<title>CCControlSaturationBrightnessPicker</title>
<!-- Node1 -->
<g id="node1" class="node">
<title>Node1</title>
<g id="a_node1"><a xlink:title=" ">
<polygon fill="#bfbfbf" stroke="black" points="238.5,-0.5 238.5,-30.5 405.5,-30.5 405.5,-0.5 238.5,-0.5"/>
<text text-anchor="start" x="246.5" y="-18.5" font-family="Helvetica,sans-Serif" font-size="10.00">CCControlSaturationBrightness</text>
<text text-anchor="middle" x="322" y="-7.5" font-family="Helvetica,sans-Serif" font-size="10.00">Picker</text>
</a>
</g>
</g>
<!-- Node2 -->
<g id="node2" class="node">
<title>Node2</title>
<g id="a_node2"><a xlink:href="../../d4/d38/classcocos2d_1_1extension_1_1_c_c_control.html" target="_top" xlink:title=" ">
<polygon fill="none" stroke="black" points="289.5,-67.5 289.5,-86.5 354.5,-86.5 354.5,-67.5 289.5,-67.5"/>
<text text-anchor="middle" x="322" y="-74.5" font-family="Helvetica,sans-Serif" font-size="10.00">CCControl</text>
</a>
</g>
</g>
<!-- Node2&#45;&gt;Node1 -->
<g id="edge1" class="edge">
<title>Node2&#45;&gt;Node1</title>
<path fill="none" stroke="midnightblue" d="M322,-57.23C322,-48.59 322,-38.5 322,-30.52"/>
<polygon fill="midnightblue" stroke="midnightblue" points="318.5,-57.48 322,-67.48 325.5,-57.48 318.5,-57.48"/>
</g>
<!-- Node3 -->
<g id="node3" class="node">
<title>Node3</title>
<g id="a_node3"><a xlink:href="../../dd/d1e/classcocos2d_1_1_c_c_layer_r_g_b_a.html" target="_top" xlink:title="CCLayerRGBA is a subclass of CCLayer that implements the CCRGBAProtocol protocol using a solid color ...">
<polygon fill="none" stroke="black" points="279.5,-123.5 279.5,-142.5 364.5,-142.5 364.5,-123.5 279.5,-123.5"/>
<text text-anchor="middle" x="322" y="-130.5" font-family="Helvetica,sans-Serif" font-size="10.00">CCLayerRGBA</text>
</a>
</g>
</g>
<!-- Node3&#45;&gt;Node2 -->
<g id="edge2" class="edge">
<title>Node3&#45;&gt;Node2</title>
<path fill="none" stroke="midnightblue" d="M322,-112.8C322,-103.91 322,-93.78 322,-86.75"/>
<polygon fill="midnightblue" stroke="midnightblue" points="318.5,-113.08 322,-123.08 325.5,-113.08 318.5,-113.08"/>
</g>
<!-- Node4 -->
<g id="node4" class="node">
<title>Node4</title>
<g id="a_node4"><a xlink:href="../../d0/d45/class_c_c_layer.html" target="_top" xlink:title="CCLayer is a subclass of CCNode that implements the TouchEventsDelegate protocol.">
<polygon fill="none" stroke="black" points="245.5,-179.5 245.5,-198.5 302.5,-198.5 302.5,-179.5 245.5,-179.5"/>
<text text-anchor="middle" x="274" y="-186.5" font-family="Helvetica,sans-Serif" font-size="10.00">CCLayer</text>
</a>
</g>
</g>
<!-- Node4&#45;&gt;Node3 -->
<g id="edge3" class="edge">
<title>Node4&#45;&gt;Node3</title>
<path fill="none" stroke="midnightblue" d="M288.73,-171.43C297.14,-161.97 307.35,-150.48 314.22,-142.75"/>
<polygon fill="midnightblue" stroke="midnightblue" points="285.95,-169.28 281.93,-179.08 291.19,-173.93 285.95,-169.28"/>
</g>
<!-- Node5 -->
<g id="node5" class="node">
<title>Node5</title>
<g id="a_node5"><a xlink:href="../../d0/ded/classcocos2d_1_1_c_c_node.html" target="_top" xlink:title="CCNode is the main element.">
<polygon fill="none" stroke="black" points="7,-235.5 7,-254.5 63,-254.5 63,-235.5 7,-235.5"/>
<text text-anchor="middle" x="35" y="-242.5" font-family="Helvetica,sans-Serif" font-size="10.00">CCNode</text>
</a>
</g>
</g>
<!-- Node5&#45;&gt;Node4 -->
<g id="edge4" class="edge">
<title>Node5&#45;&gt;Node4</title>
<path fill="none" stroke="midnightblue" d="M73.17,-234.76C140.3,-219.18 207.81,-204.36 245.19,-196.23"/>
<polygon fill="midnightblue" stroke="midnightblue" points="72.21,-231.39 63.27,-237.06 73.8,-238.21 72.21,-231.39"/>
</g>
<!-- Node6 -->
<g id="node6" class="node">
<title>Node6</title>
<g id="a_node6"><a xlink:href="../../d3/dbf/classcocos2d_1_1_c_c_object.html" target="_top" xlink:title="NA.">
<polygon fill="none" stroke="black" points="4,-291.5 4,-310.5 66,-310.5 66,-291.5 4,-291.5"/>
<text text-anchor="middle" x="35" y="-298.5" font-family="Helvetica,sans-Serif" font-size="10.00">CCObject</text>
</a>
</g>
</g>
<!-- Node6&#45;&gt;Node5 -->
<g id="edge5" class="edge">
<title>Node6&#45;&gt;Node5</title>
<path fill="none" stroke="midnightblue" d="M35,-280.8C35,-271.91 35,-261.78 35,-254.75"/>
<polygon fill="midnightblue" stroke="midnightblue" points="31.5,-281.08 35,-291.08 38.5,-281.08 31.5,-281.08"/>
</g>
<!-- Node7 -->
<g id="node7" class="node">
<title>Node7</title>
<g id="a_node7"><a xlink:href="../../d5/d61/classcocos2d_1_1_c_c_copying.html" target="_top" xlink:title="NA NA.">
<polygon fill="none" stroke="black" points="0,-347.5 0,-366.5 70,-366.5 70,-347.5 0,-347.5"/>
<text text-anchor="middle" x="35" y="-354.5" font-family="Helvetica,sans-Serif" font-size="10.00">CCCopying</text>
</a>
</g>
</g>
<!-- Node7&#45;&gt;Node6 -->
<g id="edge6" class="edge">
<title>Node7&#45;&gt;Node6</title>
<path fill="none" stroke="midnightblue" d="M35,-336.8C35,-327.91 35,-317.78 35,-310.75"/>
<polygon fill="midnightblue" stroke="midnightblue" points="31.5,-337.08 35,-347.08 38.5,-337.08 31.5,-337.08"/>
</g>
<!-- Node8 -->
<g id="node8" class="node">
<title>Node8</title>
<g id="a_node8"><a xlink:href="../../d0/d38/classcocos2d_1_1_c_c_touch_delegate.html" target="_top" xlink:title=" ">
<polygon fill="none" stroke="black" points="81,-235.5 81,-254.5 183,-254.5 183,-235.5 81,-235.5"/>
<text text-anchor="middle" x="132" y="-242.5" font-family="Helvetica,sans-Serif" font-size="10.00">CCTouchDelegate</text>
</a>
</g>
</g>
<!-- Node8&#45;&gt;Node4 -->
<g id="edge7" class="edge">
<title>Node8&#45;&gt;Node4</title>
<path fill="none" stroke="midnightblue" d="M164.16,-231.77C190.83,-221.63 228.07,-207.47 251.6,-198.52"/>
<polygon fill="midnightblue" stroke="midnightblue" points="162.6,-228.62 154.5,-235.44 165.09,-235.16 162.6,-228.62"/>
</g>
<!-- Node9 -->
<g id="node9" class="node">
<title>Node9</title>
<g id="a_node9"><a xlink:href="../../da/d55/classcocos2d_1_1_c_c_accelerometer_delegate.html" target="_top" xlink:title="The CCAccelerometerDelegate defines a single method for receiving acceleration&#45;related data from the ...">
<polygon fill="none" stroke="black" points="201,-235.5 201,-254.5 347,-254.5 347,-235.5 201,-235.5"/>
<text text-anchor="middle" x="274" y="-242.5" font-family="Helvetica,sans-Serif" font-size="10.00">CCAccelerometerDelegate</text>
</a>
</g>
</g>
<!-- Node9&#45;&gt;Node4 -->
<g id="edge8" class="edge">
<title>Node9&#45;&gt;Node4</title>
<path fill="none" stroke="midnightblue" d="M274,-224.8C274,-215.91 274,-205.78 274,-198.75"/>
<polygon fill="midnightblue" stroke="midnightblue" points="270.5,-225.08 274,-235.08 277.5,-225.08 270.5,-225.08"/>
</g>
<!-- Node10 -->
<g id="node10" class="node">
<title>Node10</title>
<g id="a_node10"><a xlink:href="../../d2/d2d/classcocos2d_1_1_c_c_keypad_delegate.html" target="_top" xlink:title=" ">
<polygon fill="none" stroke="black" points="365,-235.5 365,-254.5 475,-254.5 475,-235.5 365,-235.5"/>
<text text-anchor="middle" x="420" y="-242.5" font-family="Helvetica,sans-Serif" font-size="10.00">CCKeypadDelegate</text>
</a>
</g>
</g>
<!-- Node10&#45;&gt;Node4 -->
<g id="edge9" class="edge">
<title>Node10&#45;&gt;Node4</title>
<path fill="none" stroke="midnightblue" d="M387.3,-231.91C359.85,-221.75 321.33,-207.51 297.03,-198.52"/>
<polygon fill="midnightblue" stroke="midnightblue" points="386.27,-235.26 396.87,-235.44 388.7,-228.69 386.27,-235.26"/>
</g>
<!-- Node11 -->
<g id="node11" class="node">
<title>Node11</title>
<g id="a_node11"><a xlink:href="../../d2/d91/classcocos2d_1_1_c_c_keyboard_delegate.html" target="_top" xlink:title=" ">
<polygon fill="none" stroke="black" points="493,-235.5 493,-254.5 613,-254.5 613,-235.5 493,-235.5"/>
<text text-anchor="middle" x="553" y="-242.5" font-family="Helvetica,sans-Serif" font-size="10.00">CCKeyboardDelegate</text>
</a>
</g>
</g>
<!-- Node11&#45;&gt;Node4 -->
<g id="edge10" class="edge">
<title>Node11&#45;&gt;Node4</title>
<path fill="none" stroke="midnightblue" d="M493.39,-233.69C444.52,-225.04 373.62,-212.04 312,-199 308.95,-198.35 305.77,-197.65 302.6,-196.93"/>
<polygon fill="midnightblue" stroke="midnightblue" points="493.02,-237.18 503.48,-235.47 494.24,-230.29 493.02,-237.18"/>
</g>
<!-- Node12 -->
<g id="node12" class="node">
<title>Node12</title>
<g id="a_node12"><a xlink:href="../../d8/dda/classcocos2d_1_1_c_c_r_g_b_a_protocol.html" target="_top" xlink:title="RGBA protocol that affects CCNode&#39;s color and opacity NA.">
<polygon fill="none" stroke="black" points="321,-179.5 321,-198.5 419,-198.5 419,-179.5 321,-179.5"/>
<text text-anchor="middle" x="370" y="-186.5" font-family="Helvetica,sans-Serif" font-size="10.00">CCRGBAProtocol</text>
</a>
</g>
</g>
<!-- Node12&#45;&gt;Node3 -->
<g id="edge11" class="edge">
<title>Node12&#45;&gt;Node3</title>
<path fill="none" stroke="midnightblue" d="M355.27,-171.43C346.86,-161.97 336.65,-150.48 329.78,-142.75"/>
<polygon fill="midnightblue" stroke="midnightblue" points="352.81,-173.93 362.07,-179.08 358.05,-169.28 352.81,-173.93"/>
</g>
</g>
</svg>
