<?xml version="1.0" encoding="UTF-8" standalone="no"?>
<!DOCTYPE svg PUBLIC "-//W3C//DTD SVG 1.1//EN"
 "http://www.w3.org/Graphics/SVG/1.1/DTD/svg11.dtd">
<!-- Generated by graphviz version 2.43.0 (0)
 -->
<!-- Title: /home/runner/work/cocos&#45;headers/cocos&#45;headers/cocos2dx/platform/CCEGLViewProtocol.h Pages: 1 -->
<svg width="376pt" height="498pt"
 viewBox="0.00 0.00 375.50 498.00" xmlns="http://www.w3.org/2000/svg" xmlns:xlink="http://www.w3.org/1999/xlink">
<g id="graph0" class="graph" transform="scale(1 1) rotate(0) translate(4 494)">
<title>/home/runner/work/cocos&#45;headers/cocos&#45;headers/cocos2dx/platform/CCEGLViewProtocol.h</title>
<!-- Node1 -->
<g id="node1" class="node">
<title>Node1</title>
<g id="a_node1"><a xlink:title=" ">
<polygon fill="#bfbfbf" stroke="black" points="13,-448.5 13,-489.5 231,-489.5 231,-448.5 13,-448.5"/>
<text text-anchor="start" x="21" y="-477.5" font-family="Helvetica,sans-Serif" font-size="10.00">/home/runner/work/cocos</text>
<text text-anchor="start" x="21" y="-466.5" font-family="Helvetica,sans-Serif" font-size="10.00">&#45;headers/cocos&#45;headers</text>
<text text-anchor="middle" x="122" y="-455.5" font-family="Helvetica,sans-Serif" font-size="10.00">/cocos2dx/platform/CCEGLViewProtocol.h</text>
</a>
</g>
</g>
<!-- Node2 -->
<g id="node2" class="node">
<title>Node2</title>
<g id="a_node2"><a xlink:href="../../df/de6/cc_types_8h.html" target="_top" xlink:title=" ">
<polygon fill="none" stroke="black" points="90,-392.5 90,-411.5 154,-411.5 154,-392.5 90,-392.5"/>
<text text-anchor="middle" x="122" y="-399.5" font-family="Helvetica,sans-Serif" font-size="10.00">ccTypes.h</text>
</a>
</g>
</g>
<!-- Node1&#45;&gt;Node2 -->
<g id="edge1" class="edge">
<title>Node1&#45;&gt;Node2</title>
<path fill="none" stroke="midnightblue" d="M122,-448.5C122,-440.07 122,-430.24 122,-421.87"/>
<polygon fill="midnightblue" stroke="midnightblue" points="125.5,-421.65 122,-411.65 118.5,-421.65 125.5,-421.65"/>
</g>
<!-- Node3 -->
<g id="node3" class="node">
<title>Node3</title>
<g id="a_node3"><a xlink:title=" ">
<polygon fill="none" stroke="#bfbfbf" points="0,-168.5 0,-187.5 44,-187.5 44,-168.5 0,-168.5"/>
<text text-anchor="middle" x="22" y="-175.5" font-family="Helvetica,sans-Serif" font-size="10.00">string</text>
</a>
</g>
</g>
<!-- Node2&#45;&gt;Node3 -->
<g id="edge2" class="edge">
<title>Node2&#45;&gt;Node3</title>
<path fill="none" stroke="midnightblue" d="M100.78,-392.47C85.33,-385.13 65.21,-373.02 54,-356 21.12,-306.1 19.52,-231.89 20.8,-197.61"/>
<polygon fill="midnightblue" stroke="midnightblue" points="24.3,-197.77 21.31,-187.6 17.31,-197.41 24.3,-197.77"/>
</g>
<!-- Node4 -->
<g id="node4" class="node">
<title>Node4</title>
<g id="a_node4"><a xlink:href="../../d6/d09/_c_c_geometry_8h.html" target="_top" xlink:title=" ">
<polygon fill="none" stroke="black" points="63,-336.5 63,-355.5 181,-355.5 181,-336.5 63,-336.5"/>
<text text-anchor="middle" x="122" y="-343.5" font-family="Helvetica,sans-Serif" font-size="10.00">cocoa/CCGeometry.h</text>
</a>
</g>
</g>
<!-- Node2&#45;&gt;Node4 -->
<g id="edge3" class="edge">
<title>Node2&#45;&gt;Node4</title>
<path fill="none" stroke="midnightblue" d="M122,-392.08C122,-385.01 122,-374.86 122,-365.99"/>
<polygon fill="midnightblue" stroke="midnightblue" points="125.5,-365.75 122,-355.75 118.5,-365.75 125.5,-365.75"/>
</g>
<!-- Node15 -->
<g id="node15" class="node">
<title>Node15</title>
<g id="a_node15"><a xlink:title=" ">
<polygon fill="none" stroke="#bfbfbf" points="199,-336.5 199,-355.5 251,-355.5 251,-336.5 199,-336.5"/>
<text text-anchor="middle" x="225" y="-343.5" font-family="Helvetica,sans-Serif" font-size="10.00">CCGL.h</text>
</a>
</g>
</g>
<!-- Node2&#45;&gt;Node15 -->
<g id="edge19" class="edge">
<title>Node2&#45;&gt;Node15</title>
<path fill="none" stroke="midnightblue" d="M138.55,-392.32C154.99,-383.7 180.43,-370.36 199.47,-360.39"/>
<polygon fill="midnightblue" stroke="midnightblue" points="201.26,-363.4 208.49,-355.65 198.01,-357.2 201.26,-363.4"/>
</g>
<!-- Node5 -->
<g id="node5" class="node">
<title>Node5</title>
<g id="a_node5"><a xlink:href="../../d3/d41/_c_c_platform_macros_8h.html" target="_top" xlink:title=" ">
<polygon fill="none" stroke="black" points="70.5,-112.5 70.5,-131.5 231.5,-131.5 231.5,-112.5 70.5,-112.5"/>
<text text-anchor="middle" x="151" y="-119.5" font-family="Helvetica,sans-Serif" font-size="10.00">platform/CCPlatformMacros.h</text>
</a>
</g>
</g>
<!-- Node4&#45;&gt;Node5 -->
<g id="edge4" class="edge">
<title>Node4&#45;&gt;Node5</title>
<path fill="none" stroke="midnightblue" d="M115.64,-336.2C109.7,-327.48 101.15,-313.5 97,-300 87.06,-267.64 83.53,-256.77 92,-224 100.42,-191.41 122.67,-158.68 137.31,-139.66"/>
<polygon fill="midnightblue" stroke="midnightblue" points="140.14,-141.72 143.61,-131.7 134.66,-137.37 140.14,-141.72"/>
</g>
<!-- Node9 -->
<g id="node9" class="node">
<title>Node9</title>
<g id="a_node9"><a xlink:href="../../dd/d69/_c_c_object_8h.html" target="_top" xlink:title=" ">
<polygon fill="none" stroke="black" points="105.5,-280.5 105.5,-299.5 176.5,-299.5 176.5,-280.5 105.5,-280.5"/>
<text text-anchor="middle" x="141" y="-287.5" font-family="Helvetica,sans-Serif" font-size="10.00">CCObject.h</text>
</a>
</g>
</g>
<!-- Node4&#45;&gt;Node9 -->
<g id="edge9" class="edge">
<title>Node4&#45;&gt;Node9</title>
<path fill="none" stroke="midnightblue" d="M125.14,-336.08C127.68,-328.85 131.36,-318.41 134.53,-309.4"/>
<polygon fill="midnightblue" stroke="midnightblue" points="137.9,-310.35 137.92,-299.75 131.3,-308.02 137.9,-310.35"/>
</g>
<!-- Node14 -->
<g id="node14" class="node">
<title>Node14</title>
<g id="a_node14"><a xlink:title=" ">
<polygon fill="none" stroke="#bfbfbf" points="194.5,-280.5 194.5,-299.5 245.5,-299.5 245.5,-280.5 194.5,-280.5"/>
<text text-anchor="middle" x="220" y="-287.5" font-family="Helvetica,sans-Serif" font-size="10.00">math.h</text>
</a>
</g>
</g>
<!-- Node4&#45;&gt;Node14 -->
<g id="edge18" class="edge">
<title>Node4&#45;&gt;Node14</title>
<path fill="none" stroke="midnightblue" d="M137.75,-336.32C153.32,-327.74 177.38,-314.49 195.46,-304.52"/>
<polygon fill="midnightblue" stroke="midnightblue" points="197.22,-307.55 204.29,-299.65 193.85,-301.42 197.22,-307.55"/>
</g>
<!-- Node6 -->
<g id="node6" class="node">
<title>Node6</title>
<g id="a_node6"><a xlink:href="../../db/d9f/cc_config_8h.html" target="_top" xlink:title="cocos2d (cc) configuration file">
<polygon fill="none" stroke="black" points="300.5,-56.5 300.5,-75.5 367.5,-75.5 367.5,-56.5 300.5,-56.5"/>
<text text-anchor="middle" x="334" y="-63.5" font-family="Helvetica,sans-Serif" font-size="10.00">ccConfig.h</text>
</a>
</g>
</g>
<!-- Node5&#45;&gt;Node6 -->
<g id="edge5" class="edge">
<title>Node5&#45;&gt;Node6</title>
<path fill="none" stroke="midnightblue" d="M180,-112.44C211.18,-103.24 260.93,-88.56 295.41,-78.39"/>
<polygon fill="midnightblue" stroke="midnightblue" points="296.54,-81.7 305.14,-75.52 294.56,-74.99 296.54,-81.7"/>
</g>
<!-- Node7 -->
<g id="node7" class="node">
<title>Node7</title>
<g id="a_node7"><a xlink:href="../../dd/d96/_c_c_platform_config_8h.html" target="_top" xlink:title=" ">
<polygon fill="none" stroke="black" points="158.5,-0.5 158.5,-19.5 315.5,-19.5 315.5,-0.5 158.5,-0.5"/>
<text text-anchor="middle" x="237" y="-7.5" font-family="Helvetica,sans-Serif" font-size="10.00">platform/CCPlatformConfig.h</text>
</a>
</g>
</g>
<!-- Node5&#45;&gt;Node7 -->
<g id="edge7" class="edge">
<title>Node5&#45;&gt;Node7</title>
<path fill="none" stroke="midnightblue" d="M150.11,-112.16C149.22,-98.81 149.36,-73.22 161,-56 170.79,-41.51 186.94,-31.01 201.84,-23.8"/>
<polygon fill="midnightblue" stroke="midnightblue" points="203.67,-26.82 211.37,-19.54 200.81,-20.43 203.67,-26.82"/>
</g>
<!-- Node8 -->
<g id="node8" class="node">
<title>Node8</title>
<g id="a_node8"><a xlink:title=" ">
<polygon fill="none" stroke="#bfbfbf" points="169.5,-56.5 169.5,-75.5 282.5,-75.5 282.5,-56.5 169.5,-56.5"/>
<text text-anchor="middle" x="226" y="-63.5" font-family="Helvetica,sans-Serif" font-size="10.00">CCPlatformDefine.h</text>
</a>
</g>
</g>
<!-- Node5&#45;&gt;Node8 -->
<g id="edge8" class="edge">
<title>Node5&#45;&gt;Node8</title>
<path fill="none" stroke="midnightblue" d="M163.05,-112.32C174.46,-104.11 191.83,-91.6 205.43,-81.81"/>
<polygon fill="midnightblue" stroke="midnightblue" points="207.66,-84.52 213.73,-75.83 203.57,-78.84 207.66,-84.52"/>
</g>
<!-- Node6&#45;&gt;Node7 -->
<g id="edge6" class="edge">
<title>Node6&#45;&gt;Node7</title>
<path fill="none" stroke="midnightblue" d="M318.42,-56.32C303,-47.74 279.19,-34.49 261.29,-24.52"/>
<polygon fill="midnightblue" stroke="midnightblue" points="262.99,-21.46 252.55,-19.65 259.58,-27.58 262.99,-21.46"/>
</g>
<!-- Node10 -->
<g id="node10" class="node">
<title>Node10</title>
<g id="a_node10"><a xlink:href="../../d9/d2d/_c_c_data_visitor_8h.html" target="_top" xlink:title=" ">
<polygon fill="none" stroke="black" points="100.5,-224.5 100.5,-243.5 193.5,-243.5 193.5,-224.5 100.5,-224.5"/>
<text text-anchor="middle" x="147" y="-231.5" font-family="Helvetica,sans-Serif" font-size="10.00">CCDataVisitor.h</text>
</a>
</g>
</g>
<!-- Node9&#45;&gt;Node10 -->
<g id="edge10" class="edge">
<title>Node9&#45;&gt;Node10</title>
<path fill="none" stroke="midnightblue" d="M141.99,-280.08C142.79,-272.93 143.93,-262.64 144.92,-253.69"/>
<polygon fill="midnightblue" stroke="midnightblue" points="148.4,-254.08 146.03,-243.75 141.44,-253.3 148.4,-254.08"/>
</g>
<!-- Node11 -->
<g id="node11" class="node">
<title>Node11</title>
<g id="a_node11"><a xlink:href="../../d9/dc8/cc_macros_8h.html" target="_top" xlink:title=" ">
<polygon fill="none" stroke="black" points="245.5,-224.5 245.5,-243.5 316.5,-243.5 316.5,-224.5 245.5,-224.5"/>
<text text-anchor="middle" x="281" y="-231.5" font-family="Helvetica,sans-Serif" font-size="10.00">ccMacros.h</text>
</a>
</g>
</g>
<!-- Node9&#45;&gt;Node11 -->
<g id="edge13" class="edge">
<title>Node9&#45;&gt;Node11</title>
<path fill="none" stroke="midnightblue" d="M163.18,-280.44C186.43,-271.48 223.15,-257.31 249.42,-247.18"/>
<polygon fill="midnightblue" stroke="midnightblue" points="250.85,-250.38 258.92,-243.52 248.33,-243.85 250.85,-250.38"/>
</g>
<!-- Node10&#45;&gt;Node3 -->
<g id="edge12" class="edge">
<title>Node10&#45;&gt;Node3</title>
<path fill="none" stroke="midnightblue" d="M127.19,-224.44C106.71,-215.6 74.52,-201.69 51.14,-191.59"/>
<polygon fill="midnightblue" stroke="midnightblue" points="52.28,-188.27 41.71,-187.52 49.51,-194.7 52.28,-188.27"/>
</g>
<!-- Node10&#45;&gt;Node5 -->
<g id="edge11" class="edge">
<title>Node10&#45;&gt;Node5</title>
<path fill="none" stroke="midnightblue" d="M141.7,-224.23C134.84,-211.8 124.3,-188.31 129,-168 131.23,-158.36 135.82,-148.41 140.24,-140.31"/>
<polygon fill="midnightblue" stroke="midnightblue" points="143.35,-141.92 145.36,-131.52 137.3,-138.4 143.35,-141.92"/>
</g>
<!-- Node11&#45;&gt;Node6 -->
<g id="edge17" class="edge">
<title>Node11&#45;&gt;Node6</title>
<path fill="none" stroke="midnightblue" d="M307.93,-224.36C324.72,-217.41 344.98,-205.82 355,-188 373.64,-154.84 356.1,-109.13 343.75,-84.47"/>
<polygon fill="midnightblue" stroke="midnightblue" points="346.82,-82.77 339.06,-75.56 340.63,-86.04 346.82,-82.77"/>
</g>
<!-- Node12 -->
<g id="node12" class="node">
<title>Node12</title>
<g id="a_node12"><a xlink:href="../../d5/d22/_c_c_common_8h.html" target="_top" xlink:title=" ">
<polygon fill="none" stroke="black" points="138,-168.5 138,-187.5 266,-187.5 266,-168.5 138,-168.5"/>
<text text-anchor="middle" x="202" y="-175.5" font-family="Helvetica,sans-Serif" font-size="10.00">platform/CCCommon.h</text>
</a>
</g>
</g>
<!-- Node11&#45;&gt;Node12 -->
<g id="edge14" class="edge">
<title>Node11&#45;&gt;Node12</title>
<path fill="none" stroke="midnightblue" d="M268.31,-224.32C256.1,-215.98 237.42,-203.21 223,-193.35"/>
<polygon fill="midnightblue" stroke="midnightblue" points="224.89,-190.41 214.66,-187.65 220.94,-196.19 224.89,-190.41"/>
</g>
<!-- Node13 -->
<g id="node13" class="node">
<title>Node13</title>
<g id="a_node13"><a xlink:title=" ">
<polygon fill="none" stroke="#bfbfbf" points="284,-168.5 284,-187.5 346,-187.5 346,-168.5 284,-168.5"/>
<text text-anchor="middle" x="315" y="-175.5" font-family="Helvetica,sans-Serif" font-size="10.00">CCStdC.h</text>
</a>
</g>
</g>
<!-- Node11&#45;&gt;Node13 -->
<g id="edge16" class="edge">
<title>Node11&#45;&gt;Node13</title>
<path fill="none" stroke="midnightblue" d="M286.61,-224.08C291.37,-216.53 298.32,-205.49 304.15,-196.23"/>
<polygon fill="midnightblue" stroke="midnightblue" points="307.12,-198.08 309.49,-187.75 301.2,-194.35 307.12,-198.08"/>
</g>
<!-- Node12&#45;&gt;Node5 -->
<g id="edge15" class="edge">
<title>Node12&#45;&gt;Node5</title>
<path fill="none" stroke="midnightblue" d="M193.58,-168.08C186.15,-160.22 175.15,-148.57 166.19,-139.08"/>
<polygon fill="midnightblue" stroke="midnightblue" points="168.68,-136.62 159.26,-131.75 163.59,-141.42 168.68,-136.62"/>
</g>
</g>
</svg>
