<?xml version="1.0" encoding="UTF-8" standalone="no"?>
<!DOCTYPE svg PUBLIC "-//W3C//DTD SVG 1.1//EN"
 "http://www.w3.org/Graphics/SVG/1.1/DTD/svg11.dtd">
<!-- Generated by graphviz version 2.43.0 (0)
 -->
<!-- Title: CCTransitionFadeTR Pages: 1 -->
<svg width="398pt" height="357pt"
 viewBox="0.00 0.00 397.50 357.00" xmlns="http://www.w3.org/2000/svg" xmlns:xlink="http://www.w3.org/1999/xlink">
<g id="graph0" class="graph" transform="scale(1 1) rotate(0) translate(4 353)">
<title>CCTransitionFadeTR</title>
<!-- Node1 -->
<g id="node1" class="node">
<title>Node1</title>
<g id="a_node1"><a xlink:title="CCTransitionFadeTR: Fade the tiles of the outgoing scene from the left&#45;bottom corner the to top&#45;right...">
<polygon fill="#999999" stroke="#666666" points="250.5,-74 137.5,-74 137.5,-55 250.5,-55 250.5,-74"/>
<text text-anchor="middle" x="194" y="-62" font-family="Helvetica,sans-Serif" font-size="10.00">CCTransitionFadeTR</text>
</a>
</g>
</g>
<!-- Node8 -->
<g id="node8" class="node">
<title>Node8</title>
<g id="a_node8"><a xlink:href="../../d8/dc3/classcocos2d_1_1_c_c_transition_fade_b_l.html" target="_top" xlink:title="CCTransitionFadeBL: Fade the tiles of the outgoing scene from the top&#45;right corner to the bottom&#45;left...">
<polygon fill="white" stroke="#666666" points="112,-19 0,-19 0,0 112,0 112,-19"/>
<text text-anchor="middle" x="56" y="-7" font-family="Helvetica,sans-Serif" font-size="10.00">CCTransitionFadeBL</text>
</a>
</g>
</g>
<!-- Node1&#45;&gt;Node8 -->
<g id="edge7" class="edge">
<title>Node1&#45;&gt;Node8</title>
<path fill="none" stroke="#63b8ff" d="M162.21,-51.29C136.63,-41.47 101.33,-27.91 78.58,-19.17"/>
<polygon fill="#63b8ff" stroke="#63b8ff" points="161.24,-54.67 171.83,-54.98 163.75,-48.13 161.24,-54.67"/>
</g>
<!-- Node9 -->
<g id="node9" class="node">
<title>Node9</title>
<g id="a_node9"><a xlink:href="../../de/d35/classcocos2d_1_1_c_c_transition_fade_down.html" target="_top" xlink:title="CCTransitionFadeDown: Fade the tiles of the outgoing scene from the top to the bottom.">
<polygon fill="white" stroke="#666666" points="258,-19 130,-19 130,0 258,0 258,-19"/>
<text text-anchor="middle" x="194" y="-7" font-family="Helvetica,sans-Serif" font-size="10.00">CCTransitionFadeDown</text>
</a>
</g>
</g>
<!-- Node1&#45;&gt;Node9 -->
<g id="edge8" class="edge">
<title>Node1&#45;&gt;Node9</title>
<path fill="none" stroke="#63b8ff" d="M194,-44.66C194,-35.93 194,-25.99 194,-19.09"/>
<polygon fill="#63b8ff" stroke="#63b8ff" points="190.5,-44.75 194,-54.75 197.5,-44.75 190.5,-44.75"/>
</g>
<!-- Node10 -->
<g id="node10" class="node">
<title>Node10</title>
<g id="a_node10"><a xlink:href="../../d5/dc2/classcocos2d_1_1_c_c_transition_fade_up.html" target="_top" xlink:title="CCTransitionFadeUp: Fade the tiles of the outgoing scene from the bottom to the top.">
<polygon fill="white" stroke="#666666" points="389.5,-19 276.5,-19 276.5,0 389.5,0 389.5,-19"/>
<text text-anchor="middle" x="333" y="-7" font-family="Helvetica,sans-Serif" font-size="10.00">CCTransitionFadeUp</text>
</a>
</g>
</g>
<!-- Node1&#45;&gt;Node10 -->
<g id="edge9" class="edge">
<title>Node1&#45;&gt;Node10</title>
<path fill="none" stroke="#63b8ff" d="M225.68,-51.42C251.47,-41.59 287.24,-27.95 310.26,-19.17"/>
<polygon fill="#63b8ff" stroke="#63b8ff" points="224.43,-48.15 216.33,-54.98 226.92,-54.69 224.43,-48.15"/>
</g>
<!-- Node2 -->
<g id="node2" class="node">
<title>Node2</title>
<g id="a_node2"><a xlink:href="../../d1/dc8/classcocos2d_1_1_c_c_transition_scene.html" target="_top" xlink:title="Base class for CCTransition scenes.">
<polygon fill="white" stroke="#666666" points="179.5,-129 72.5,-129 72.5,-110 179.5,-110 179.5,-129"/>
<text text-anchor="middle" x="126" y="-117" font-family="Helvetica,sans-Serif" font-size="10.00">CCTransitionScene</text>
</a>
</g>
</g>
<!-- Node2&#45;&gt;Node1 -->
<g id="edge1" class="edge">
<title>Node2&#45;&gt;Node1</title>
<path fill="none" stroke="#63b8ff" d="M145.12,-103.6C157.3,-94.11 172.66,-82.13 182.88,-74.17"/>
<polygon fill="#63b8ff" stroke="#63b8ff" points="142.66,-101.08 136.93,-109.98 146.96,-106.6 142.66,-101.08"/>
</g>
<!-- Node3 -->
<g id="node3" class="node">
<title>Node3</title>
<g id="a_node3"><a xlink:href="../../d1/da4/classcocos2d_1_1_c_c_scene.html" target="_top" xlink:title="CCScene is a subclass of CCNode that is used only as an abstract concept.">
<polygon fill="white" stroke="#666666" points="155.5,-184 96.5,-184 96.5,-165 155.5,-165 155.5,-184"/>
<text text-anchor="middle" x="126" y="-172" font-family="Helvetica,sans-Serif" font-size="10.00">CCScene</text>
</a>
</g>
</g>
<!-- Node3&#45;&gt;Node2 -->
<g id="edge2" class="edge">
<title>Node3&#45;&gt;Node2</title>
<path fill="none" stroke="#63b8ff" d="M126,-154.66C126,-145.93 126,-135.99 126,-129.09"/>
<polygon fill="#63b8ff" stroke="#63b8ff" points="122.5,-154.75 126,-164.75 129.5,-154.75 122.5,-154.75"/>
</g>
<!-- Node4 -->
<g id="node4" class="node">
<title>Node4</title>
<g id="a_node4"><a xlink:href="../../d0/ded/classcocos2d_1_1_c_c_node.html" target="_top" xlink:title="CCNode is the main element.">
<polygon fill="white" stroke="#666666" points="154,-239 98,-239 98,-220 154,-220 154,-239"/>
<text text-anchor="middle" x="126" y="-227" font-family="Helvetica,sans-Serif" font-size="10.00">CCNode</text>
</a>
</g>
</g>
<!-- Node4&#45;&gt;Node3 -->
<g id="edge3" class="edge">
<title>Node4&#45;&gt;Node3</title>
<path fill="none" stroke="#63b8ff" d="M126,-209.66C126,-200.93 126,-190.99 126,-184.09"/>
<polygon fill="#63b8ff" stroke="#63b8ff" points="122.5,-209.75 126,-219.75 129.5,-209.75 122.5,-209.75"/>
</g>
<!-- Node5 -->
<g id="node5" class="node">
<title>Node5</title>
<g id="a_node5"><a xlink:href="../../d3/dbf/classcocos2d_1_1_c_c_object.html" target="_top" xlink:title="NA.">
<polygon fill="white" stroke="#666666" points="157,-294 95,-294 95,-275 157,-275 157,-294"/>
<text text-anchor="middle" x="126" y="-282" font-family="Helvetica,sans-Serif" font-size="10.00">CCObject</text>
</a>
</g>
</g>
<!-- Node5&#45;&gt;Node4 -->
<g id="edge4" class="edge">
<title>Node5&#45;&gt;Node4</title>
<path fill="none" stroke="#63b8ff" d="M126,-264.66C126,-255.93 126,-245.99 126,-239.09"/>
<polygon fill="#63b8ff" stroke="#63b8ff" points="122.5,-264.75 126,-274.75 129.5,-264.75 122.5,-264.75"/>
</g>
<!-- Node6 -->
<g id="node6" class="node">
<title>Node6</title>
<g id="a_node6"><a xlink:href="../../d5/d61/classcocos2d_1_1_c_c_copying.html" target="_top" xlink:title="NA NA.">
<polygon fill="white" stroke="#666666" points="161,-349 91,-349 91,-330 161,-330 161,-349"/>
<text text-anchor="middle" x="126" y="-337" font-family="Helvetica,sans-Serif" font-size="10.00">CCCopying</text>
</a>
</g>
</g>
<!-- Node6&#45;&gt;Node5 -->
<g id="edge5" class="edge">
<title>Node6&#45;&gt;Node5</title>
<path fill="none" stroke="#63b8ff" d="M126,-319.66C126,-310.93 126,-300.99 126,-294.09"/>
<polygon fill="#63b8ff" stroke="#63b8ff" points="122.5,-319.75 126,-329.75 129.5,-319.75 122.5,-319.75"/>
</g>
<!-- Node7 -->
<g id="node7" class="node">
<title>Node7</title>
<g id="a_node7"><a xlink:href="../../d7/d1a/classcocos2d_1_1_c_c_transition_ease_scene.html" target="_top" xlink:title="CCTransitionEaseScene can ease the actions of the scene protocol.">
<polygon fill="white" stroke="#666666" points="328,-129 198,-129 198,-110 328,-110 328,-129"/>
<text text-anchor="middle" x="263" y="-117" font-family="Helvetica,sans-Serif" font-size="10.00">CCTransitionEaseScene</text>
</a>
</g>
</g>
<!-- Node7&#45;&gt;Node1 -->
<g id="edge6" class="edge">
<title>Node7&#45;&gt;Node1</title>
<path fill="none" stroke="#63b8ff" d="M243.96,-103.88C231.54,-94.34 215.76,-82.21 205.29,-74.17"/>
<polygon fill="#63b8ff" stroke="#63b8ff" points="241.85,-106.67 251.91,-109.98 246.12,-101.12 241.85,-106.67"/>
</g>
</g>
</svg>
