<?xml version="1.0" encoding="UTF-8" standalone="no"?>
<!DOCTYPE svg PUBLIC "-//W3C//DTD SVG 1.1//EN"
 "http://www.w3.org/Graphics/SVG/1.1/DTD/svg11.dtd">
<!-- Generated by graphviz version 2.43.0 (0)
 -->
<!-- Title: /home/runner/work/cocos&#45;headers/cocos&#45;headers/cocos2dx/tilemap_parallax_nodes/CCTMXTiledMap.h Pages: 1 -->
<svg width="1820pt" height="699pt"
 viewBox="0.00 0.00 1820.27 699.00" xmlns="http://www.w3.org/2000/svg" xmlns:xlink="http://www.w3.org/1999/xlink">
<g id="graph0" class="graph" transform="scale(1 1) rotate(0) translate(4 695)">
<title>/home/runner/work/cocos&#45;headers/cocos&#45;headers/cocos2dx/tilemap_parallax_nodes/CCTMXTiledMap.h</title>
<!-- Node1 -->
<g id="node1" class="node">
<title>Node1</title>
<g id="a_node1"><a xlink:title=" ">
<polygon fill="#bfbfbf" stroke="black" points="912.27,-638.5 912.27,-690.5 1063.27,-690.5 1063.27,-638.5 912.27,-638.5"/>
<text text-anchor="start" x="920.27" y="-678.5" font-family="Helvetica,sans-Serif" font-size="10.00">/home/runner/work/cocos</text>
<text text-anchor="start" x="920.27" y="-667.5" font-family="Helvetica,sans-Serif" font-size="10.00">&#45;headers/cocos&#45;headers</text>
<text text-anchor="start" x="920.27" y="-656.5" font-family="Helvetica,sans-Serif" font-size="10.00">/cocos2dx/tilemap_parallax</text>
<text text-anchor="middle" x="987.77" y="-645.5" font-family="Helvetica,sans-Serif" font-size="10.00">_nodes/CCTMXTiledMap.h</text>
</a>
</g>
</g>
<!-- Node2 -->
<g id="node2" class="node">
<title>Node2</title>
<g id="a_node2"><a xlink:href="../../db/d7f/_c_c_node_8h.html" target="_top" xlink:title=" ">
<polygon fill="none" stroke="black" points="508.27,-582.5 508.27,-601.5 633.27,-601.5 633.27,-582.5 508.27,-582.5"/>
<text text-anchor="middle" x="570.77" y="-589.5" font-family="Helvetica,sans-Serif" font-size="10.00">base_nodes/CCNode.h</text>
</a>
</g>
</g>
<!-- Node1&#45;&gt;Node2 -->
<g id="edge1" class="edge">
<title>Node1&#45;&gt;Node2</title>
<path fill="none" stroke="midnightblue" d="M912.25,-650.73C831.66,-637.11 705.59,-615.79 631.28,-603.23"/>
<polygon fill="midnightblue" stroke="midnightblue" points="631.59,-599.73 621.15,-601.52 630.42,-606.64 631.59,-599.73"/>
</g>
<!-- Node32 -->
<g id="node32" class="node">
<title>Node32</title>
<g id="a_node32"><a xlink:href="../../db/d27/_c_c_t_m_x_object_group_8h.html" target="_top" xlink:title=" ">
<polygon fill="none" stroke="black" points="1437.27,-470.5 1437.27,-489.5 1558.27,-489.5 1558.27,-470.5 1437.27,-470.5"/>
<text text-anchor="middle" x="1497.77" y="-477.5" font-family="Helvetica,sans-Serif" font-size="10.00">CCTMXObjectGroup.h</text>
</a>
</g>
</g>
<!-- Node1&#45;&gt;Node32 -->
<g id="edge55" class="edge">
<title>Node1&#45;&gt;Node32</title>
<path fill="none" stroke="midnightblue" d="M1063.5,-653.59C1153.41,-639.51 1305.88,-608.19 1422.77,-546 1446.64,-533.3 1469.43,-511.74 1483.49,-496.96"/>
<polygon fill="midnightblue" stroke="midnightblue" points="1486.13,-499.26 1490.36,-489.55 1480.99,-494.51 1486.13,-499.26"/>
</g>
<!-- Node3 -->
<g id="node3" class="node">
<title>Node3</title>
<g id="a_node3"><a xlink:href="../../d9/dc8/cc_macros_8h.html" target="_top" xlink:title=" ">
<polygon fill="none" stroke="black" points="216.27,-224.5 216.27,-243.5 287.27,-243.5 287.27,-224.5 216.27,-224.5"/>
<text text-anchor="middle" x="251.77" y="-231.5" font-family="Helvetica,sans-Serif" font-size="10.00">ccMacros.h</text>
</a>
</g>
</g>
<!-- Node2&#45;&gt;Node3 -->
<g id="edge2" class="edge">
<title>Node2&#45;&gt;Node3</title>
<path fill="none" stroke="midnightblue" d="M508.1,-587.18C444.3,-582.08 343.07,-570.65 258.77,-546 143.07,-512.17 77.07,-535.31 11.77,-434 -46.65,-343.38 131.14,-273.3 212.93,-246.66"/>
<polygon fill="midnightblue" stroke="midnightblue" points="214.18,-249.94 222.64,-243.56 212.04,-243.27 214.18,-249.94"/>
</g>
<!-- Node10 -->
<g id="node10" class="node">
<title>Node10</title>
<g id="a_node10"><a xlink:href="../../d3/d15/_c_c_affine_transform_8h.html" target="_top" xlink:title=" ">
<polygon fill="none" stroke="black" points="960.77,-414.5 960.77,-433.5 1108.77,-433.5 1108.77,-414.5 960.77,-414.5"/>
<text text-anchor="middle" x="1034.77" y="-421.5" font-family="Helvetica,sans-Serif" font-size="10.00">cocoa/CCAffineTransform.h</text>
</a>
</g>
</g>
<!-- Node2&#45;&gt;Node10 -->
<g id="edge11" class="edge">
<title>Node2&#45;&gt;Node10</title>
<path fill="none" stroke="midnightblue" d="M594.74,-582.42C671.66,-554.9 912.46,-468.76 1001.36,-436.95"/>
<polygon fill="midnightblue" stroke="midnightblue" points="1002.7,-440.19 1010.94,-433.52 1000.34,-433.6 1002.7,-440.19"/>
</g>
<!-- Node16 -->
<g id="node16" class="node">
<title>Node16</title>
<g id="a_node16"><a xlink:href="../../da/d35/_c_c_array_8h.html" target="_top" xlink:title=" ">
<polygon fill="none" stroke="black" points="1361.27,-353 1361.27,-372 1456.27,-372 1456.27,-353 1361.27,-353"/>
<text text-anchor="middle" x="1408.77" y="-360" font-family="Helvetica,sans-Serif" font-size="10.00">cocoa/CCArray.h</text>
</a>
</g>
</g>
<!-- Node2&#45;&gt;Node16 -->
<g id="edge21" class="edge">
<title>Node2&#45;&gt;Node16</title>
<path fill="none" stroke="midnightblue" d="M633.46,-590.16C782.26,-587.67 1153.17,-578.31 1272.77,-546 1326.49,-531.49 1351.2,-534.39 1384.77,-490 1408.84,-458.16 1411,-409.19 1410.11,-382.48"/>
<polygon fill="midnightblue" stroke="midnightblue" points="1413.59,-382.01 1409.58,-372.21 1406.6,-382.38 1413.59,-382.01"/>
</g>
<!-- Node18 -->
<g id="node18" class="node">
<title>Node18</title>
<g id="a_node18"><a xlink:title=" ">
<polygon fill="none" stroke="#bfbfbf" points="450.77,-353 450.77,-372 502.77,-372 502.77,-353 450.77,-353"/>
<text text-anchor="middle" x="476.77" y="-360" font-family="Helvetica,sans-Serif" font-size="10.00">CCGL.h</text>
</a>
</g>
</g>
<!-- Node2&#45;&gt;Node18 -->
<g id="edge23" class="edge">
<title>Node2&#45;&gt;Node18</title>
<path fill="none" stroke="midnightblue" d="M533.1,-582.49C510.25,-575.75 481.76,-564.34 461.77,-546 420.45,-508.11 417.03,-488.46 403.77,-434 401.66,-425.36 399.64,-421.87 403.77,-414 412.53,-397.27 429.64,-384.99 445.09,-376.72"/>
<polygon fill="midnightblue" stroke="midnightblue" points="447.01,-379.68 454.4,-372.09 443.89,-373.41 447.01,-379.68"/>
</g>
<!-- Node19 -->
<g id="node19" class="node">
<title>Node19</title>
<g id="a_node19"><a xlink:href="../../da/d2f/cc_g_l_state_cache_8h.html" target="_top" xlink:title=" ">
<polygon fill="none" stroke="black" points="20.77,-414.5 20.77,-433.5 166.77,-433.5 166.77,-414.5 20.77,-414.5"/>
<text text-anchor="middle" x="93.77" y="-421.5" font-family="Helvetica,sans-Serif" font-size="10.00">shaders/ccGLStateCache.h</text>
</a>
</g>
</g>
<!-- Node2&#45;&gt;Node19 -->
<g id="edge24" class="edge">
<title>Node2&#45;&gt;Node19</title>
<path fill="none" stroke="midnightblue" d="M508.16,-586.58C453.46,-581.27 372.56,-569.88 305.77,-546 229.99,-518.9 149.97,-465.42 113.71,-439.61"/>
<polygon fill="midnightblue" stroke="midnightblue" points="115.62,-436.68 105.46,-433.68 111.54,-442.36 115.62,-436.68"/>
</g>
<!-- Node20 -->
<g id="node20" class="node">
<title>Node20</title>
<g id="a_node20"><a xlink:href="../../de/d32/_c_c_g_l_program_8h.html" target="_top" xlink:title=" ">
<polygon fill="none" stroke="black" points="184.77,-414.5 184.77,-433.5 318.77,-433.5 318.77,-414.5 184.77,-414.5"/>
<text text-anchor="middle" x="251.77" y="-421.5" font-family="Helvetica,sans-Serif" font-size="10.00">shaders/CCGLProgram.h</text>
</a>
</g>
</g>
<!-- Node2&#45;&gt;Node20 -->
<g id="edge27" class="edge">
<title>Node2&#45;&gt;Node20</title>
<path fill="none" stroke="midnightblue" d="M508.15,-584.68C447.59,-577.61 360.97,-564.63 332.77,-546 294.41,-520.66 269.67,-470.26 258.56,-443.19"/>
<polygon fill="midnightblue" stroke="midnightblue" points="261.77,-441.79 254.86,-433.76 255.25,-444.35 261.77,-441.79"/>
</g>
<!-- Node21 -->
<g id="node21" class="node">
<title>Node21</title>
<g id="a_node21"><a xlink:title=" ">
<polygon fill="none" stroke="#bfbfbf" points="471.27,-526.5 471.27,-545.5 584.27,-545.5 584.27,-526.5 471.27,-526.5"/>
<text text-anchor="middle" x="527.77" y="-533.5" font-family="Helvetica,sans-Serif" font-size="10.00">kazmath/kazmath.h</text>
</a>
</g>
</g>
<!-- Node2&#45;&gt;Node21 -->
<g id="edge31" class="edge">
<title>Node2&#45;&gt;Node21</title>
<path fill="none" stroke="midnightblue" d="M563.67,-582.08C557.53,-574.38 548.5,-563.03 541.03,-553.65"/>
<polygon fill="midnightblue" stroke="midnightblue" points="543.7,-551.39 534.73,-545.75 538.23,-555.75 543.7,-551.39"/>
</g>
<!-- Node22 -->
<g id="node22" class="node">
<title>Node22</title>
<g id="a_node22"><a xlink:href="../../dc/dbc/_c_c_script_support_8h.html" target="_top" xlink:title=" ">
<polygon fill="none" stroke="black" points="524.77,-470.5 524.77,-489.5 700.77,-489.5 700.77,-470.5 524.77,-470.5"/>
<text text-anchor="middle" x="612.77" y="-477.5" font-family="Helvetica,sans-Serif" font-size="10.00">script_support/CCScriptSupport.h</text>
</a>
</g>
</g>
<!-- Node2&#45;&gt;Node22 -->
<g id="edge32" class="edge">
<title>Node2&#45;&gt;Node22</title>
<path fill="none" stroke="midnightblue" d="M575.57,-582.22C580.33,-573.28 587.65,-558.94 592.77,-546 598.87,-530.56 604.3,-512.47 607.96,-499.3"/>
<polygon fill="midnightblue" stroke="midnightblue" points="611.36,-500.13 610.59,-489.56 604.61,-498.3 611.36,-500.13"/>
</g>
<!-- Node29 -->
<g id="node29" class="node">
<title>Node29</title>
<g id="a_node29"><a xlink:href="../../d8/d76/_c_c_protocols_8h.html" target="_top" xlink:title=" ">
<polygon fill="none" stroke="black" points="1179.77,-526.5 1179.77,-545.5 1263.77,-545.5 1263.77,-526.5 1179.77,-526.5"/>
<text text-anchor="middle" x="1221.77" y="-533.5" font-family="Helvetica,sans-Serif" font-size="10.00">CCProtocols.h</text>
</a>
</g>
</g>
<!-- Node2&#45;&gt;Node29 -->
<g id="edge44" class="edge">
<title>Node2&#45;&gt;Node29</title>
<path fill="none" stroke="midnightblue" d="M633.48,-585.8C761.39,-575.19 1050.3,-551.22 1169.17,-541.36"/>
<polygon fill="midnightblue" stroke="midnightblue" points="1169.78,-544.82 1179.45,-540.51 1169.2,-537.85 1169.78,-544.82"/>
</g>
<!-- Node4 -->
<g id="node4" class="node">
<title>Node4</title>
<g id="a_node4"><a xlink:href="../../d5/d22/_c_c_common_8h.html" target="_top" xlink:title=" ">
<polygon fill="none" stroke="black" points="320.77,-168.5 320.77,-187.5 448.77,-187.5 448.77,-168.5 320.77,-168.5"/>
<text text-anchor="middle" x="384.77" y="-175.5" font-family="Helvetica,sans-Serif" font-size="10.00">platform/CCCommon.h</text>
</a>
</g>
</g>
<!-- Node3&#45;&gt;Node4 -->
<g id="edge3" class="edge">
<title>Node3&#45;&gt;Node4</title>
<path fill="none" stroke="midnightblue" d="M272.84,-224.44C294.83,-215.52 329.5,-201.44 354.43,-191.32"/>
<polygon fill="midnightblue" stroke="midnightblue" points="355.84,-194.52 363.79,-187.52 353.21,-188.04 355.84,-194.52"/>
</g>
<!-- Node6 -->
<g id="node6" class="node">
<title>Node6</title>
<g id="a_node6"><a xlink:href="../../db/d9f/cc_config_8h.html" target="_top" xlink:title="cocos2d (cc) configuration file">
<polygon fill="none" stroke="black" points="493.27,-56.5 493.27,-75.5 560.27,-75.5 560.27,-56.5 493.27,-56.5"/>
<text text-anchor="middle" x="526.77" y="-63.5" font-family="Helvetica,sans-Serif" font-size="10.00">ccConfig.h</text>
</a>
</g>
</g>
<!-- Node3&#45;&gt;Node6 -->
<g id="edge10" class="edge">
<title>Node3&#45;&gt;Node6</title>
<path fill="none" stroke="midnightblue" d="M239.57,-224.31C223.2,-211.58 197.71,-187.27 211.77,-168 274.62,-81.83 412.06,-67.53 482.79,-66.17"/>
<polygon fill="midnightblue" stroke="midnightblue" points="483.17,-69.67 493.13,-66.06 483.09,-62.67 483.17,-69.67"/>
</g>
<!-- Node9 -->
<g id="node9" class="node">
<title>Node9</title>
<g id="a_node9"><a xlink:title=" ">
<polygon fill="none" stroke="#bfbfbf" points="220.77,-168.5 220.77,-187.5 282.77,-187.5 282.77,-168.5 220.77,-168.5"/>
<text text-anchor="middle" x="251.77" y="-175.5" font-family="Helvetica,sans-Serif" font-size="10.00">CCStdC.h</text>
</a>
</g>
</g>
<!-- Node3&#45;&gt;Node9 -->
<g id="edge9" class="edge">
<title>Node3&#45;&gt;Node9</title>
<path fill="none" stroke="midnightblue" d="M251.77,-224.08C251.77,-217.01 251.77,-206.86 251.77,-197.99"/>
<polygon fill="midnightblue" stroke="midnightblue" points="255.27,-197.75 251.77,-187.75 248.27,-197.75 255.27,-197.75"/>
</g>
<!-- Node5 -->
<g id="node5" class="node">
<title>Node5</title>
<g id="a_node5"><a xlink:href="../../d3/d41/_c_c_platform_macros_8h.html" target="_top" xlink:title=" ">
<polygon fill="none" stroke="black" points="573.77,-112.5 573.77,-131.5 689.77,-131.5 689.77,-112.5 573.77,-112.5"/>
<text text-anchor="middle" x="631.77" y="-119.5" font-family="Helvetica,sans-Serif" font-size="10.00">CCPlatformMacros.h</text>
</a>
</g>
</g>
<!-- Node4&#45;&gt;Node5 -->
<g id="edge4" class="edge">
<title>Node4&#45;&gt;Node5</title>
<path fill="none" stroke="midnightblue" d="M423.9,-168.44C466.99,-159.02 536.32,-143.87 582.94,-133.68"/>
<polygon fill="midnightblue" stroke="midnightblue" points="583.79,-137.07 592.81,-131.52 582.29,-130.23 583.79,-137.07"/>
</g>
<!-- Node5&#45;&gt;Node6 -->
<g id="edge5" class="edge">
<title>Node5&#45;&gt;Node6</title>
<path fill="none" stroke="midnightblue" d="M614.9,-112.32C598.06,-103.66 571.96,-90.24 552.53,-80.25"/>
<polygon fill="midnightblue" stroke="midnightblue" points="554.09,-77.12 543.59,-75.65 550.89,-83.34 554.09,-77.12"/>
</g>
<!-- Node7 -->
<g id="node7" class="node">
<title>Node7</title>
<g id="a_node7"><a xlink:href="../../dd/d96/_c_c_platform_config_8h.html" target="_top" xlink:title=" ">
<polygon fill="none" stroke="black" points="479.27,-0.5 479.27,-19.5 636.27,-19.5 636.27,-0.5 479.27,-0.5"/>
<text text-anchor="middle" x="557.77" y="-7.5" font-family="Helvetica,sans-Serif" font-size="10.00">platform/CCPlatformConfig.h</text>
</a>
</g>
</g>
<!-- Node5&#45;&gt;Node7 -->
<g id="edge7" class="edge">
<title>Node5&#45;&gt;Node7</title>
<path fill="none" stroke="midnightblue" d="M625.96,-112.37C613.75,-94.22 585.21,-51.8 569.2,-27.99"/>
<polygon fill="midnightblue" stroke="midnightblue" points="572.03,-25.94 563.55,-19.59 566.22,-29.84 572.03,-25.94"/>
</g>
<!-- Node8 -->
<g id="node8" class="node">
<title>Node8</title>
<g id="a_node8"><a xlink:title=" ">
<polygon fill="none" stroke="#bfbfbf" points="617.27,-56.5 617.27,-75.5 730.27,-75.5 730.27,-56.5 617.27,-56.5"/>
<text text-anchor="middle" x="673.77" y="-63.5" font-family="Helvetica,sans-Serif" font-size="10.00">CCPlatformDefine.h</text>
</a>
</g>
</g>
<!-- Node5&#45;&gt;Node8 -->
<g id="edge8" class="edge">
<title>Node5&#45;&gt;Node8</title>
<path fill="none" stroke="midnightblue" d="M638.7,-112.08C644.69,-104.38 653.52,-93.03 660.81,-83.65"/>
<polygon fill="midnightblue" stroke="midnightblue" points="663.58,-85.79 666.96,-75.75 658.06,-81.5 663.58,-85.79"/>
</g>
<!-- Node6&#45;&gt;Node7 -->
<g id="edge6" class="edge">
<title>Node6&#45;&gt;Node7</title>
<path fill="none" stroke="midnightblue" d="M531.88,-56.08C536.17,-48.61 542.42,-37.72 547.71,-28.52"/>
<polygon fill="midnightblue" stroke="midnightblue" points="550.8,-30.17 552.74,-19.75 544.73,-26.68 550.8,-30.17"/>
</g>
<!-- Node10&#45;&gt;Node5 -->
<g id="edge20" class="edge">
<title>Node10&#45;&gt;Node5</title>
<path fill="none" stroke="midnightblue" d="M1027.76,-414.33C1020.76,-405.48 1009.9,-391.2 1001.77,-378 976.11,-336.37 986.61,-314.3 951.77,-280 928.98,-257.56 734.34,-168.99 660.24,-135.72"/>
<polygon fill="midnightblue" stroke="midnightblue" points="661.57,-132.48 651.02,-131.58 658.71,-138.87 661.57,-132.48"/>
</g>
<!-- Node11 -->
<g id="node11" class="node">
<title>Node11</title>
<g id="a_node11"><a xlink:href="../../d6/d09/_c_c_geometry_8h.html" target="_top" xlink:title=" ">
<polygon fill="none" stroke="black" points="1010.77,-353 1010.77,-372 1096.77,-372 1096.77,-353 1010.77,-353"/>
<text text-anchor="middle" x="1053.77" y="-360" font-family="Helvetica,sans-Serif" font-size="10.00">CCGeometry.h</text>
</a>
</g>
</g>
<!-- Node10&#45;&gt;Node11 -->
<g id="edge12" class="edge">
<title>Node10&#45;&gt;Node11</title>
<path fill="none" stroke="midnightblue" d="M1037.49,-414.48C1040.2,-405.99 1044.44,-392.7 1047.91,-381.82"/>
<polygon fill="midnightblue" stroke="midnightblue" points="1051.34,-382.6 1051.05,-372.01 1044.67,-380.47 1051.34,-382.6"/>
</g>
<!-- Node11&#45;&gt;Node5 -->
<g id="edge13" class="edge">
<title>Node11&#45;&gt;Node5</title>
<path fill="none" stroke="midnightblue" d="M1053.06,-352.81C1050.78,-329.54 1041.76,-264.85 1009.77,-224 980.48,-186.61 963.32,-184.44 918.77,-168 846.87,-141.46 759.2,-130.57 699.82,-126.11"/>
<polygon fill="midnightblue" stroke="midnightblue" points="700.03,-122.61 689.81,-125.39 699.53,-129.6 700.03,-122.61"/>
</g>
<!-- Node12 -->
<g id="node12" class="node">
<title>Node12</title>
<g id="a_node12"><a xlink:href="../../dd/d69/_c_c_object_8h.html" target="_top" xlink:title=" ">
<polygon fill="none" stroke="black" points="871.27,-286 871.27,-305 942.27,-305 942.27,-286 871.27,-286"/>
<text text-anchor="middle" x="906.77" y="-293" font-family="Helvetica,sans-Serif" font-size="10.00">CCObject.h</text>
</a>
</g>
</g>
<!-- Node11&#45;&gt;Node12 -->
<g id="edge14" class="edge">
<title>Node11&#45;&gt;Node12</title>
<path fill="none" stroke="midnightblue" d="M1034.25,-352.87C1008.99,-341.7 964.77,-322.15 935.62,-309.26"/>
<polygon fill="midnightblue" stroke="midnightblue" points="936.93,-306.01 926.37,-305.17 934.1,-312.41 936.93,-306.01"/>
</g>
<!-- Node15 -->
<g id="node15" class="node">
<title>Node15</title>
<g id="a_node15"><a xlink:title=" ">
<polygon fill="none" stroke="#bfbfbf" points="1057.27,-286 1057.27,-305 1108.27,-305 1108.27,-286 1057.27,-286"/>
<text text-anchor="middle" x="1082.77" y="-293" font-family="Helvetica,sans-Serif" font-size="10.00">math.h</text>
</a>
</g>
</g>
<!-- Node11&#45;&gt;Node15 -->
<g id="edge19" class="edge">
<title>Node11&#45;&gt;Node15</title>
<path fill="none" stroke="midnightblue" d="M1057.68,-352.73C1062.03,-342.99 1069.17,-326.98 1074.72,-314.53"/>
<polygon fill="midnightblue" stroke="midnightblue" points="1078.04,-315.69 1078.92,-305.13 1071.65,-312.83 1078.04,-315.69"/>
</g>
<!-- Node12&#45;&gt;Node3 -->
<g id="edge18" class="edge">
<title>Node12&#45;&gt;Node3</title>
<path fill="none" stroke="midnightblue" d="M871.08,-291.26C760.19,-281.19 421.58,-250.43 297.75,-239.18"/>
<polygon fill="midnightblue" stroke="midnightblue" points="297.75,-235.66 287.48,-238.24 297.12,-242.63 297.75,-235.66"/>
</g>
<!-- Node13 -->
<g id="node13" class="node">
<title>Node13</title>
<g id="a_node13"><a xlink:href="../../d9/d2d/_c_c_data_visitor_8h.html" target="_top" xlink:title=" ">
<polygon fill="none" stroke="black" points="907.27,-224.5 907.27,-243.5 1000.27,-243.5 1000.27,-224.5 907.27,-224.5"/>
<text text-anchor="middle" x="953.77" y="-231.5" font-family="Helvetica,sans-Serif" font-size="10.00">CCDataVisitor.h</text>
</a>
</g>
</g>
<!-- Node12&#45;&gt;Node13 -->
<g id="edge15" class="edge">
<title>Node12&#45;&gt;Node13</title>
<path fill="none" stroke="midnightblue" d="M913.5,-285.98C920.55,-277.05 931.8,-262.81 940.62,-251.64"/>
<polygon fill="midnightblue" stroke="midnightblue" points="943.59,-253.53 947.04,-243.51 938.1,-249.19 943.59,-253.53"/>
</g>
<!-- Node13&#45;&gt;Node5 -->
<g id="edge16" class="edge">
<title>Node13&#45;&gt;Node5</title>
<path fill="none" stroke="midnightblue" d="M948.26,-224.14C938.83,-209.78 918.11,-181.65 892.77,-168 832.83,-135.73 754.94,-125.73 699.9,-123.04"/>
<polygon fill="midnightblue" stroke="midnightblue" points="700.03,-119.54 689.89,-122.62 699.74,-126.54 700.03,-119.54"/>
</g>
<!-- Node14 -->
<g id="node14" class="node">
<title>Node14</title>
<g id="a_node14"><a xlink:title=" ">
<polygon fill="none" stroke="#bfbfbf" points="1247.77,-168.5 1247.77,-187.5 1291.77,-187.5 1291.77,-168.5 1247.77,-168.5"/>
<text text-anchor="middle" x="1269.77" y="-175.5" font-family="Helvetica,sans-Serif" font-size="10.00">string</text>
</a>
</g>
</g>
<!-- Node13&#45;&gt;Node14 -->
<g id="edge17" class="edge">
<title>Node13&#45;&gt;Node14</title>
<path fill="none" stroke="midnightblue" d="M1000.39,-225.03C1065.39,-213.92 1181.55,-194.07 1237.67,-184.48"/>
<polygon fill="midnightblue" stroke="midnightblue" points="1238.48,-187.9 1247.75,-182.76 1237.3,-181 1238.48,-187.9"/>
</g>
<!-- Node17 -->
<g id="node17" class="node">
<title>Node17</title>
<g id="a_node17"><a xlink:title=" ">
<polygon fill="none" stroke="#bfbfbf" points="1360.77,-280.5 1360.77,-310.5 1480.77,-310.5 1480.77,-280.5 1360.77,-280.5"/>
<text text-anchor="start" x="1368.77" y="-298.5" font-family="Helvetica,sans-Serif" font-size="10.00">support/data_support</text>
<text text-anchor="middle" x="1420.77" y="-287.5" font-family="Helvetica,sans-Serif" font-size="10.00">/ccCArray.h</text>
</a>
</g>
</g>
<!-- Node16&#45;&gt;Node17 -->
<g id="edge22" class="edge">
<title>Node16&#45;&gt;Node17</title>
<path fill="none" stroke="midnightblue" d="M1410.38,-352.73C1411.9,-344.54 1414.23,-331.92 1416.3,-320.71"/>
<polygon fill="midnightblue" stroke="midnightblue" points="1419.79,-321.06 1418.16,-310.59 1412.91,-319.79 1419.79,-321.06"/>
</g>
<!-- Node19&#45;&gt;Node5 -->
<g id="edge26" class="edge">
<title>Node19&#45;&gt;Node5</title>
<path fill="none" stroke="midnightblue" d="M93.77,-414.41C93.77,-393.98 93.77,-340.86 93.77,-296.5 93.77,-296.5 93.77,-296.5 93.77,-233 93.77,-138.15 418.78,-124.29 563.57,-122.82"/>
<polygon fill="midnightblue" stroke="midnightblue" points="563.71,-126.32 573.68,-122.74 563.65,-119.32 563.71,-126.32"/>
</g>
<!-- Node19&#45;&gt;Node18 -->
<g id="edge25" class="edge">
<title>Node19&#45;&gt;Node18</title>
<path fill="none" stroke="midnightblue" d="M148.64,-414.48C228.16,-402.12 373.25,-379.58 440.62,-369.12"/>
<polygon fill="midnightblue" stroke="midnightblue" points="441.4,-372.54 450.74,-367.54 440.32,-365.62 441.4,-372.54"/>
</g>
<!-- Node20&#45;&gt;Node3 -->
<g id="edge28" class="edge">
<title>Node20&#45;&gt;Node3</title>
<path fill="none" stroke="midnightblue" d="M251.77,-414.43C251.77,-385.93 251.77,-293.82 251.77,-253.83"/>
<polygon fill="midnightblue" stroke="midnightblue" points="255.27,-253.62 251.77,-243.62 248.27,-253.62 255.27,-253.62"/>
</g>
<!-- Node20&#45;&gt;Node12 -->
<g id="edge29" class="edge">
<title>Node20&#45;&gt;Node12</title>
<path fill="none" stroke="midnightblue" d="M268.53,-414.47C301.03,-398.36 375.24,-363.59 441.77,-347 592.13,-309.51 776.72,-299.85 860.95,-297.36"/>
<polygon fill="midnightblue" stroke="midnightblue" points="861.29,-300.86 871.19,-297.08 861.1,-293.86 861.29,-300.86"/>
</g>
<!-- Node20&#45;&gt;Node18 -->
<g id="edge30" class="edge">
<title>Node20&#45;&gt;Node18</title>
<path fill="none" stroke="midnightblue" d="M292.53,-414.43C330.24,-406.18 387.72,-392.81 436.77,-378 439.39,-377.21 442.1,-376.34 444.81,-375.43"/>
<polygon fill="midnightblue" stroke="midnightblue" points="446.19,-378.66 454.49,-372.06 443.89,-372.05 446.19,-378.66"/>
</g>
<!-- Node22&#45;&gt;Node4 -->
<g id="edge33" class="edge">
<title>Node22&#45;&gt;Node4</title>
<path fill="none" stroke="midnightblue" d="M533.15,-470.49C482.26,-463.47 422.43,-451.74 403.77,-434 380.24,-411.65 384.77,-395.95 384.77,-363.5 384.77,-363.5 384.77,-363.5 384.77,-294.5 384.77,-260.36 384.77,-220.55 384.77,-197.71"/>
<polygon fill="midnightblue" stroke="midnightblue" points="388.27,-197.69 384.77,-187.69 381.27,-197.69 388.27,-197.69"/>
</g>
<!-- Node22&#45;&gt;Node14 -->
<g id="edge42" class="edge">
<title>Node22&#45;&gt;Node14</title>
<path fill="none" stroke="midnightblue" d="M700.83,-476.57C837.08,-472 1086.6,-460.15 1117.77,-434 1142.62,-413.14 1136.77,-395.95 1136.77,-363.5 1136.77,-363.5 1136.77,-363.5 1136.77,-294.5 1136.77,-241.08 1198.7,-206.78 1238.04,-190.38"/>
<polygon fill="midnightblue" stroke="midnightblue" points="1239.52,-193.56 1247.5,-186.6 1236.92,-187.06 1239.52,-193.56"/>
</g>
<!-- Node23 -->
<g id="node23" class="node">
<title>Node23</title>
<g id="a_node23"><a xlink:title=" ">
<polygon fill="none" stroke="#bfbfbf" points="412.77,-414.5 412.77,-433.5 522.77,-433.5 522.77,-414.5 412.77,-414.5"/>
<text text-anchor="middle" x="467.77" y="-421.5" font-family="Helvetica,sans-Serif" font-size="10.00">CCAccelerometer.h</text>
</a>
</g>
</g>
<!-- Node22&#45;&gt;Node23 -->
<g id="edge34" class="edge">
<title>Node22&#45;&gt;Node23</title>
<path fill="none" stroke="midnightblue" d="M589.79,-470.44C565.61,-461.44 527.35,-447.19 500.12,-437.05"/>
<polygon fill="midnightblue" stroke="midnightblue" points="501.23,-433.73 490.63,-433.52 498.78,-440.29 501.23,-433.73"/>
</g>
<!-- Node24 -->
<g id="node24" class="node">
<title>Node24</title>
<g id="a_node24"><a xlink:href="../../d3/dff/_c_c_touch_8h.html" target="_top" xlink:title=" ">
<polygon fill="none" stroke="black" points="751.27,-414.5 751.27,-433.5 904.27,-433.5 904.27,-414.5 751.27,-414.5"/>
<text text-anchor="middle" x="827.77" y="-421.5" font-family="Helvetica,sans-Serif" font-size="10.00">touch_dispatcher/CCTouch.h</text>
</a>
</g>
</g>
<!-- Node22&#45;&gt;Node24 -->
<g id="edge35" class="edge">
<title>Node22&#45;&gt;Node24</title>
<path fill="none" stroke="midnightblue" d="M646.83,-470.44C683.95,-461.12 743.43,-446.18 783.98,-436"/>
<polygon fill="midnightblue" stroke="midnightblue" points="785.01,-439.35 793.86,-433.52 783.31,-432.56 785.01,-439.35"/>
</g>
<!-- Node25 -->
<g id="node25" class="node">
<title>Node25</title>
<g id="a_node25"><a xlink:href="../../da/ddc/_c_c_set_8h.html" target="_top" xlink:title=" ">
<polygon fill="none" stroke="black" points="646.77,-414.5 646.77,-433.5 732.77,-433.5 732.77,-414.5 646.77,-414.5"/>
<text text-anchor="middle" x="689.77" y="-421.5" font-family="Helvetica,sans-Serif" font-size="10.00">cocoa/CCSet.h</text>
</a>
</g>
</g>
<!-- Node22&#45;&gt;Node25 -->
<g id="edge38" class="edge">
<title>Node22&#45;&gt;Node25</title>
<path fill="none" stroke="midnightblue" d="M625.14,-470.32C636.92,-462.06 654.9,-449.45 668.9,-439.63"/>
<polygon fill="midnightblue" stroke="midnightblue" points="671.25,-442.26 677.43,-433.65 667.23,-436.53 671.25,-442.26"/>
</g>
<!-- Node27 -->
<g id="node27" class="node">
<title>Node27</title>
<g id="a_node27"><a xlink:title=" ">
<polygon fill="none" stroke="#bfbfbf" points="540.77,-414.5 540.77,-433.5 578.77,-433.5 578.77,-414.5 540.77,-414.5"/>
<text text-anchor="middle" x="559.77" y="-421.5" font-family="Helvetica,sans-Serif" font-size="10.00">map</text>
</a>
</g>
</g>
<!-- Node22&#45;&gt;Node27 -->
<g id="edge41" class="edge">
<title>Node22&#45;&gt;Node27</title>
<path fill="none" stroke="midnightblue" d="M604.01,-470.08C596.3,-462.22 584.86,-450.57 575.55,-441.08"/>
<polygon fill="midnightblue" stroke="midnightblue" points="577.86,-438.44 568.35,-433.75 572.86,-443.34 577.86,-438.44"/>
</g>
<!-- Node28 -->
<g id="node28" class="node">
<title>Node28</title>
<g id="a_node28"><a xlink:title=" ">
<polygon fill="none" stroke="#bfbfbf" points="596.77,-414.5 596.77,-433.5 628.77,-433.5 628.77,-414.5 596.77,-414.5"/>
<text text-anchor="middle" x="612.77" y="-421.5" font-family="Helvetica,sans-Serif" font-size="10.00">list</text>
</a>
</g>
</g>
<!-- Node22&#45;&gt;Node28 -->
<g id="edge43" class="edge">
<title>Node22&#45;&gt;Node28</title>
<path fill="none" stroke="midnightblue" d="M612.77,-470.08C612.77,-463.01 612.77,-452.86 612.77,-443.99"/>
<polygon fill="midnightblue" stroke="midnightblue" points="616.27,-443.75 612.77,-433.75 609.27,-443.75 616.27,-443.75"/>
</g>
<!-- Node24&#45;&gt;Node11 -->
<g id="edge37" class="edge">
<title>Node24&#45;&gt;Node11</title>
<path fill="none" stroke="midnightblue" d="M860.15,-414.48C900,-403.98 967.78,-386.14 1011.65,-374.59"/>
<polygon fill="midnightblue" stroke="midnightblue" points="1012.67,-377.94 1021.45,-372.01 1010.88,-371.17 1012.67,-377.94"/>
</g>
<!-- Node24&#45;&gt;Node12 -->
<g id="edge36" class="edge">
<title>Node24&#45;&gt;Node12</title>
<path fill="none" stroke="midnightblue" d="M833.2,-414.31C846.11,-393.63 878.83,-341.23 895.95,-313.82"/>
<polygon fill="midnightblue" stroke="midnightblue" points="898.97,-315.59 901.3,-305.26 893.03,-311.88 898.97,-315.59"/>
</g>
<!-- Node25&#45;&gt;Node12 -->
<g id="edge40" class="edge">
<title>Node25&#45;&gt;Node12</title>
<path fill="none" stroke="midnightblue" d="M704.68,-414.31C741.78,-392.68 838.45,-336.32 883.29,-310.18"/>
<polygon fill="midnightblue" stroke="midnightblue" points="885.16,-313.15 892.03,-305.09 881.63,-307.1 885.16,-313.15"/>
</g>
<!-- Node26 -->
<g id="node26" class="node">
<title>Node26</title>
<g id="a_node26"><a xlink:title=" ">
<polygon fill="none" stroke="#bfbfbf" points="673.77,-353 673.77,-372 705.77,-372 705.77,-353 673.77,-353"/>
<text text-anchor="middle" x="689.77" y="-360" font-family="Helvetica,sans-Serif" font-size="10.00">set</text>
</a>
</g>
</g>
<!-- Node25&#45;&gt;Node26 -->
<g id="edge39" class="edge">
<title>Node25&#45;&gt;Node26</title>
<path fill="none" stroke="midnightblue" d="M689.77,-414.48C689.77,-406.08 689.77,-392.98 689.77,-382.16"/>
<polygon fill="midnightblue" stroke="midnightblue" points="693.27,-382.01 689.77,-372.01 686.27,-382.01 693.27,-382.01"/>
</g>
<!-- Node29&#45;&gt;Node14 -->
<g id="edge54" class="edge">
<title>Node29&#45;&gt;Node14</title>
<path fill="none" stroke="midnightblue" d="M1231.11,-526.24C1240.1,-517.55 1253.75,-503.59 1263.77,-490 1295.59,-446.81 1302.66,-431.3 1308.77,-378 1316.57,-309.88 1324.79,-287.83 1299.77,-224 1295.83,-213.97 1289.39,-203.88 1283.49,-195.81"/>
<polygon fill="midnightblue" stroke="midnightblue" points="1286.08,-193.45 1277.21,-187.66 1280.54,-197.72 1286.08,-193.45"/>
</g>
<!-- Node30 -->
<g id="node30" class="node">
<title>Node30</title>
<g id="a_node30"><a xlink:href="../../df/de6/cc_types_8h.html" target="_top" xlink:title=" ">
<polygon fill="none" stroke="black" points="1202.77,-414.5 1202.77,-433.5 1266.77,-433.5 1266.77,-414.5 1202.77,-414.5"/>
<text text-anchor="middle" x="1234.77" y="-421.5" font-family="Helvetica,sans-Serif" font-size="10.00">ccTypes.h</text>
</a>
</g>
</g>
<!-- Node29&#45;&gt;Node30 -->
<g id="edge45" class="edge">
<title>Node29&#45;&gt;Node30</title>
<path fill="none" stroke="midnightblue" d="M1229.18,-526.41C1236.04,-517.84 1245.77,-503.98 1249.77,-490 1254.23,-474.36 1249.28,-456.32 1243.91,-443.21"/>
<polygon fill="midnightblue" stroke="midnightblue" points="1247,-441.56 1239.67,-433.91 1240.63,-444.46 1247,-441.56"/>
</g>
<!-- Node31 -->
<g id="node31" class="node">
<title>Node31</title>
<g id="a_node31"><a xlink:href="../../d5/d70/_c_c_texture2_d_8h.html" target="_top" xlink:title=" ">
<polygon fill="none" stroke="black" points="1108.77,-470.5 1108.77,-489.5 1240.77,-489.5 1240.77,-470.5 1108.77,-470.5"/>
<text text-anchor="middle" x="1174.77" y="-477.5" font-family="Helvetica,sans-Serif" font-size="10.00">textures/CCTexture2D.h</text>
</a>
</g>
</g>
<!-- Node29&#45;&gt;Node31 -->
<g id="edge49" class="edge">
<title>Node29&#45;&gt;Node31</title>
<path fill="none" stroke="midnightblue" d="M1214,-526.08C1207.23,-518.3 1197.22,-506.8 1189.01,-497.37"/>
<polygon fill="midnightblue" stroke="midnightblue" points="1191.59,-495 1182.38,-489.75 1186.31,-499.59 1191.59,-495"/>
</g>
<!-- Node30&#45;&gt;Node11 -->
<g id="edge47" class="edge">
<title>Node30&#45;&gt;Node11</title>
<path fill="none" stroke="midnightblue" d="M1208.83,-414.48C1177.52,-404.18 1124.68,-386.81 1089.51,-375.25"/>
<polygon fill="midnightblue" stroke="midnightblue" points="1090.24,-371.81 1079.65,-372.01 1088.06,-378.46 1090.24,-371.81"/>
</g>
<!-- Node30&#45;&gt;Node14 -->
<g id="edge46" class="edge">
<title>Node30&#45;&gt;Node14</title>
<path fill="none" stroke="midnightblue" d="M1236.01,-414.32C1241.05,-379.18 1259.99,-247.12 1267.07,-197.76"/>
<polygon fill="midnightblue" stroke="midnightblue" points="1270.58,-197.98 1268.53,-187.58 1263.65,-196.98 1270.58,-197.98"/>
</g>
<!-- Node30&#45;&gt;Node18 -->
<g id="edge48" class="edge">
<title>Node30&#45;&gt;Node18</title>
<path fill="none" stroke="midnightblue" d="M1202.68,-420.48C1080.17,-410.86 642.27,-376.49 512.96,-366.34"/>
<polygon fill="midnightblue" stroke="midnightblue" points="513.05,-362.84 502.8,-365.54 512.5,-369.82 513.05,-362.84"/>
</g>
<!-- Node31&#45;&gt;Node11 -->
<g id="edge52" class="edge">
<title>Node31&#45;&gt;Node11</title>
<path fill="none" stroke="midnightblue" d="M1167.86,-470.13C1157.58,-457.18 1137.36,-432.6 1117.77,-414 1104.09,-401.01 1087.31,-387.87 1074.36,-378.24"/>
<polygon fill="midnightblue" stroke="midnightblue" points="1076.23,-375.27 1066.1,-372.19 1072.1,-380.92 1076.23,-375.27"/>
</g>
<!-- Node31&#45;&gt;Node12 -->
<g id="edge51" class="edge">
<title>Node31&#45;&gt;Node12</title>
<path fill="none" stroke="midnightblue" d="M1108.7,-473.01C1051.56,-466.55 974.64,-454.34 951.77,-434 917.13,-403.21 909.05,-345.37 907.23,-315.48"/>
<polygon fill="midnightblue" stroke="midnightblue" points="910.71,-315.02 906.79,-305.17 903.72,-315.31 910.71,-315.02"/>
</g>
<!-- Node31&#45;&gt;Node14 -->
<g id="edge50" class="edge">
<title>Node31&#45;&gt;Node14</title>
<path fill="none" stroke="midnightblue" d="M1213.54,-470.43C1234.74,-463.84 1259.86,-452.6 1275.77,-434 1296.86,-409.34 1294.77,-395.95 1294.77,-363.5 1294.77,-363.5 1294.77,-363.5 1294.77,-294.5 1294.77,-259.41 1283.61,-219.66 1276.2,-197.13"/>
<polygon fill="midnightblue" stroke="midnightblue" points="1279.47,-195.89 1272.93,-187.56 1272.85,-198.15 1279.47,-195.89"/>
</g>
<!-- Node31&#45;&gt;Node30 -->
<g id="edge53" class="edge">
<title>Node31&#45;&gt;Node30</title>
<path fill="none" stroke="midnightblue" d="M1184.41,-470.32C1193.28,-462.34 1206.64,-450.31 1217.37,-440.65"/>
<polygon fill="midnightblue" stroke="midnightblue" points="1219.86,-443.13 1224.95,-433.83 1215.18,-437.92 1219.86,-443.13"/>
</g>
<!-- Node32&#45;&gt;Node11 -->
<g id="edge56" class="edge">
<title>Node32&#45;&gt;Node11</title>
<path fill="none" stroke="midnightblue" d="M1470.57,-470.45C1428.87,-457.48 1346.51,-432.38 1275.77,-414 1217.44,-398.84 1149.84,-383.83 1104.71,-374.16"/>
<polygon fill="midnightblue" stroke="midnightblue" points="1105.37,-370.72 1094.86,-372.06 1103.91,-377.57 1105.37,-370.72"/>
</g>
<!-- Node32&#45;&gt;Node16 -->
<g id="edge63" class="edge">
<title>Node32&#45;&gt;Node16</title>
<path fill="none" stroke="midnightblue" d="M1491.08,-470.32C1476.39,-451.26 1441.09,-405.45 1421.83,-380.46"/>
<polygon fill="midnightblue" stroke="midnightblue" points="1424.41,-378.07 1415.53,-372.28 1418.86,-382.34 1424.41,-378.07"/>
</g>
<!-- Node33 -->
<g id="node33" class="node">
<title>Node33</title>
<g id="a_node33"><a xlink:href="../../d0/d8a/_c_c_string_8h.html" target="_top" xlink:title=" ">
<polygon fill="none" stroke="black" points="1651.27,-353 1651.27,-372 1750.27,-372 1750.27,-353 1651.27,-353"/>
<text text-anchor="middle" x="1700.77" y="-360" font-family="Helvetica,sans-Serif" font-size="10.00">cocoa/CCString.h</text>
</a>
</g>
</g>
<!-- Node32&#45;&gt;Node33 -->
<g id="edge57" class="edge">
<title>Node32&#45;&gt;Node33</title>
<path fill="none" stroke="midnightblue" d="M1522.08,-470.48C1544.05,-462.37 1576.97,-449.16 1603.77,-434 1632.99,-417.46 1663.9,-393.78 1682.76,-378.52"/>
<polygon fill="midnightblue" stroke="midnightblue" points="1685.01,-381.2 1690.53,-372.15 1680.58,-375.78 1685.01,-381.2"/>
</g>
<!-- Node37 -->
<g id="node37" class="node">
<title>Node37</title>
<g id="a_node37"><a xlink:href="../../d9/d8d/_c_c_dictionary_8h.html" target="_top" xlink:title=" ">
<polygon fill="none" stroke="black" points="1475.27,-414.5 1475.27,-433.5 1594.27,-433.5 1594.27,-414.5 1475.27,-414.5"/>
<text text-anchor="middle" x="1534.77" y="-421.5" font-family="Helvetica,sans-Serif" font-size="10.00">cocoa/CCDictionary.h</text>
</a>
</g>
</g>
<!-- Node32&#45;&gt;Node37 -->
<g id="edge64" class="edge">
<title>Node32&#45;&gt;Node37</title>
<path fill="none" stroke="midnightblue" d="M1503.88,-470.08C1509.05,-462.53 1516.61,-451.49 1522.96,-442.23"/>
<polygon fill="midnightblue" stroke="midnightblue" points="1526,-443.98 1528.77,-433.75 1520.23,-440.02 1526,-443.98"/>
</g>
<!-- Node33&#45;&gt;Node12 -->
<g id="edge62" class="edge">
<title>Node33&#45;&gt;Node12</title>
<path fill="none" stroke="midnightblue" d="M1670.66,-352.99C1661.45,-350.69 1651.26,-348.44 1641.77,-347 1380.72,-307.33 1311.94,-332.42 1048.77,-311 1016.57,-308.38 980.35,-304.67 952.54,-301.66"/>
<polygon fill="midnightblue" stroke="midnightblue" points="952.65,-298.15 942.33,-300.54 951.89,-305.11 952.65,-298.15"/>
</g>
<!-- Node33&#45;&gt;Node14 -->
<g id="edge60" class="edge">
<title>Node33&#45;&gt;Node14</title>
<path fill="none" stroke="midnightblue" d="M1680.56,-352.94C1610.99,-323.49 1381.2,-226.19 1299.18,-191.46"/>
<polygon fill="midnightblue" stroke="midnightblue" points="1300.51,-188.22 1289.93,-187.54 1297.78,-194.66 1300.51,-188.22"/>
</g>
<!-- Node34 -->
<g id="node34" class="node">
<title>Node34</title>
<g id="a_node34"><a xlink:title=" ">
<polygon fill="none" stroke="#bfbfbf" points="1601.27,-286 1601.27,-305 1654.27,-305 1654.27,-286 1601.27,-286"/>
<text text-anchor="middle" x="1627.77" y="-293" font-family="Helvetica,sans-Serif" font-size="10.00">string.h</text>
</a>
</g>
</g>
<!-- Node33&#45;&gt;Node34 -->
<g id="edge58" class="edge">
<title>Node33&#45;&gt;Node34</title>
<path fill="none" stroke="midnightblue" d="M1690.92,-352.73C1679.21,-342.31 1659.45,-324.71 1645.14,-311.97"/>
<polygon fill="midnightblue" stroke="midnightblue" points="1647.25,-309.16 1637.45,-305.13 1642.6,-314.39 1647.25,-309.16"/>
</g>
<!-- Node35 -->
<g id="node35" class="node">
<title>Node35</title>
<g id="a_node35"><a xlink:title=" ">
<polygon fill="none" stroke="#bfbfbf" points="1672.77,-286 1672.77,-305 1728.77,-305 1728.77,-286 1672.77,-286"/>
<text text-anchor="middle" x="1700.77" y="-293" font-family="Helvetica,sans-Serif" font-size="10.00">stdarg.h</text>
</a>
</g>
</g>
<!-- Node33&#45;&gt;Node35 -->
<g id="edge59" class="edge">
<title>Node33&#45;&gt;Node35</title>
<path fill="none" stroke="midnightblue" d="M1700.77,-352.73C1700.77,-343.18 1700.77,-327.62 1700.77,-315.28"/>
<polygon fill="midnightblue" stroke="midnightblue" points="1704.27,-315.13 1700.77,-305.13 1697.27,-315.13 1704.27,-315.13"/>
</g>
<!-- Node36 -->
<g id="node36" class="node">
<title>Node36</title>
<g id="a_node36"><a xlink:title=" ">
<polygon fill="none" stroke="#bfbfbf" points="1747.27,-286 1747.27,-305 1812.27,-305 1812.27,-286 1747.27,-286"/>
<text text-anchor="middle" x="1779.77" y="-293" font-family="Helvetica,sans-Serif" font-size="10.00">functional</text>
</a>
</g>
</g>
<!-- Node33&#45;&gt;Node36 -->
<g id="edge61" class="edge">
<title>Node33&#45;&gt;Node36</title>
<path fill="none" stroke="midnightblue" d="M1711.42,-352.73C1724.21,-342.21 1745.88,-324.38 1761.39,-311.62"/>
<polygon fill="midnightblue" stroke="midnightblue" points="1763.78,-314.18 1769.28,-305.13 1759.33,-308.78 1763.78,-314.18"/>
</g>
<!-- Node37&#45;&gt;Node12 -->
<g id="edge66" class="edge">
<title>Node37&#45;&gt;Node12</title>
<path fill="none" stroke="midnightblue" d="M1528.18,-414.27C1514.21,-396.01 1481.58,-354.83 1465.77,-347 1382.42,-305.72 1141.37,-319.72 1048.77,-311 1016.61,-307.97 980.38,-304.27 952.57,-301.36"/>
<polygon fill="midnightblue" stroke="midnightblue" points="952.66,-297.85 942.35,-300.29 951.93,-304.81 952.66,-297.85"/>
</g>
<!-- Node37&#45;&gt;Node16 -->
<g id="edge67" class="edge">
<title>Node37&#45;&gt;Node16</title>
<path fill="none" stroke="midnightblue" d="M1516.71,-414.48C1495.57,-404.49 1460.33,-387.85 1435.89,-376.31"/>
<polygon fill="midnightblue" stroke="midnightblue" points="1437.32,-373.11 1426.78,-372.01 1434.33,-379.44 1437.32,-373.11"/>
</g>
<!-- Node37&#45;&gt;Node33 -->
<g id="edge68" class="edge">
<title>Node37&#45;&gt;Node33</title>
<path fill="none" stroke="midnightblue" d="M1558.55,-414.48C1587.15,-404.22 1635.32,-386.96 1667.57,-375.4"/>
<polygon fill="midnightblue" stroke="midnightblue" points="1668.79,-378.68 1677.03,-372.01 1666.43,-372.09 1668.79,-378.68"/>
</g>
<!-- Node38 -->
<g id="node38" class="node">
<title>Node38</title>
<g id="a_node38"><a xlink:title=" ">
<polygon fill="none" stroke="#bfbfbf" points="1512.77,-347.5 1512.77,-377.5 1632.77,-377.5 1632.77,-347.5 1512.77,-347.5"/>
<text text-anchor="start" x="1520.77" y="-365.5" font-family="Helvetica,sans-Serif" font-size="10.00">support/data_support</text>
<text text-anchor="middle" x="1572.77" y="-354.5" font-family="Helvetica,sans-Serif" font-size="10.00">/uthash.h</text>
</a>
</g>
</g>
<!-- Node37&#45;&gt;Node38 -->
<g id="edge65" class="edge">
<title>Node37&#45;&gt;Node38</title>
<path fill="none" stroke="midnightblue" d="M1540.21,-414.48C1544.92,-407.09 1551.96,-396.08 1558.29,-386.17"/>
<polygon fill="midnightblue" stroke="midnightblue" points="1561.38,-387.83 1563.81,-377.52 1555.48,-384.07 1561.38,-387.83"/>
</g>
</g>
</svg>
