<?xml version="1.0" encoding="UTF-8" standalone="no"?>
<!DOCTYPE svg PUBLIC "-//W3C//DTD SVG 1.1//EN"
 "http://www.w3.org/Graphics/SVG/1.1/DTD/svg11.dtd">
<!-- Generated by graphviz version 2.43.0 (0)
 -->
<!-- Title: CCIMEKeyboardNotificationInfo Pages: 1 -->
<svg width="177pt" height="170pt"
 viewBox="0.00 0.00 177.00 170.00" xmlns="http://www.w3.org/2000/svg" xmlns:xlink="http://www.w3.org/1999/xlink">
<g id="graph0" class="graph" transform="scale(1 1) rotate(0) translate(4 166)">
<title>CCIMEKeyboardNotificationInfo</title>
<!-- Node1 -->
<g id="node1" class="node">
<title>Node1</title>
<g id="a_node1"><a xlink:title=" ">
<polygon fill="#999999" stroke="#666666" points="169,-19 0,-19 0,0 169,0 169,-19"/>
<text text-anchor="middle" x="84.5" y="-7" font-family="Helvetica,sans-Serif" font-size="10.00">CCIMEKeyboardNotificationInfo</text>
</a>
</g>
</g>
<!-- Node2 -->
<g id="node2" class="node">
<title>Node2</title>
<g id="a_node2"><a xlink:href="../../da/d4d/classcocos2d_1_1_c_c_rect.html" target="_top" xlink:title="NA.">
<polygon fill="white" stroke="#666666" points="110.5,-96 58.5,-96 58.5,-77 110.5,-77 110.5,-96"/>
<text text-anchor="middle" x="84.5" y="-84" font-family="Helvetica,sans-Serif" font-size="10.00">CCRect</text>
</a>
</g>
</g>
<!-- Node2&#45;&gt;Node1 -->
<g id="edge1" class="edge">
<title>Node2&#45;&gt;Node1</title>
<path fill="none" stroke="#9a32cd" stroke-dasharray="5,2" d="M84.5,-66.52C84.5,-51.24 84.5,-30.48 84.5,-19"/>
<polygon fill="#9a32cd" stroke="#9a32cd" points="81,-66.9 84.5,-76.9 88,-66.9 81,-66.9"/>
<text text-anchor="middle" x="100" y="-51" font-family="Helvetica,sans-Serif" font-size="10.00"> begin</text>
<text text-anchor="middle" x="100" y="-40" font-family="Helvetica,sans-Serif" font-size="10.00">end</text>
</g>
<!-- Node3 -->
<g id="node3" class="node">
<title>Node3</title>
<g id="a_node3"><a xlink:href="../../d2/df3/classcocos2d_1_1_c_c_point.html" target="_top" xlink:title="NA.">
<polygon fill="white" stroke="#666666" points="77,-162 22,-162 22,-143 77,-143 77,-162"/>
<text text-anchor="middle" x="49.5" y="-150" font-family="Helvetica,sans-Serif" font-size="10.00">CCPoint</text>
</a>
</g>
</g>
<!-- Node3&#45;&gt;Node2 -->
<g id="edge2" class="edge">
<title>Node3&#45;&gt;Node2</title>
<path fill="none" stroke="#9a32cd" stroke-dasharray="5,2" d="M57.72,-133.22C60.65,-127.04 64.07,-120.14 67.5,-114 70.91,-107.89 75.16,-101.27 78.56,-96.17"/>
<polygon fill="#9a32cd" stroke="#9a32cd" points="54.36,-132.16 53.35,-142.71 60.71,-135.09 54.36,-132.16"/>
<text text-anchor="middle" x="83" y="-117" font-family="Helvetica,sans-Serif" font-size="10.00"> origin</text>
</g>
<!-- Node4 -->
<g id="node4" class="node">
<title>Node4</title>
<g id="a_node4"><a xlink:href="../../d9/d24/classcocos2d_1_1_c_c_size.html" target="_top" xlink:title="NA.">
<polygon fill="white" stroke="#666666" points="145.5,-162 95.5,-162 95.5,-143 145.5,-143 145.5,-162"/>
<text text-anchor="middle" x="120.5" y="-150" font-family="Helvetica,sans-Serif" font-size="10.00">CCSize</text>
</a>
</g>
</g>
<!-- Node4&#45;&gt;Node2 -->
<g id="edge3" class="edge">
<title>Node4&#45;&gt;Node2</title>
<path fill="none" stroke="#9a32cd" stroke-dasharray="5,2" d="M110.68,-134.05C103.83,-121.86 94.97,-106.11 89.51,-96.41"/>
<polygon fill="#9a32cd" stroke="#9a32cd" points="107.69,-135.87 115.64,-142.87 113.79,-132.44 107.69,-135.87"/>
<text text-anchor="middle" x="116" y="-117" font-family="Helvetica,sans-Serif" font-size="10.00"> size</text>
</g>
</g>
</svg>
