<?xml version="1.0" encoding="UTF-8" standalone="no"?>
<!DOCTYPE svg PUBLIC "-//W3C//DTD SVG 1.1//EN"
 "http://www.w3.org/Graphics/SVG/1.1/DTD/svg11.dtd">
<!-- Generated by graphviz version 2.43.0 (0)
 -->
<!-- Title: /home/runner/work/cocos&#45;headers/cocos&#45;headers/cocos2dx/robtop/keyboard_dispatcher/CCKeyboardDispatcher.h Pages: 1 -->
<svg width="437pt" height="456pt"
 viewBox="0.00 0.00 436.50 456.00" xmlns="http://www.w3.org/2000/svg" xmlns:xlink="http://www.w3.org/1999/xlink">
<g id="graph0" class="graph" transform="scale(1 1) rotate(0) translate(4 452)">
<title>/home/runner/work/cocos&#45;headers/cocos&#45;headers/cocos2dx/robtop/keyboard_dispatcher/CCKeyboardDispatcher.h</title>
<!-- Node1 -->
<g id="node1" class="node">
<title>Node1</title>
<g id="a_node1"><a xlink:title=" ">
<polygon fill="#999999" stroke="#666666" points="401.5,-448 205.5,-448 205.5,-396 401.5,-396 401.5,-448"/>
<text text-anchor="start" x="213.5" y="-436" font-family="Helvetica,sans-Serif" font-size="10.00">/home/runner/work/cocos</text>
<text text-anchor="start" x="213.5" y="-425" font-family="Helvetica,sans-Serif" font-size="10.00">&#45;headers/cocos&#45;headers</text>
<text text-anchor="start" x="213.5" y="-414" font-family="Helvetica,sans-Serif" font-size="10.00">/cocos2dx/robtop/keyboard</text>
<text text-anchor="middle" x="303.5" y="-403" font-family="Helvetica,sans-Serif" font-size="10.00">_dispatcher/CCKeyboardDispatcher.h</text>
</a>
</g>
</g>
<!-- Node2 -->
<g id="node2" class="node">
<title>Node2</title>
<g id="a_node2"><a xlink:href="../../d5/d83/_c_c_keyboard_delegate_8h.html" target="_top" xlink:title=" ">
<polygon fill="white" stroke="#666666" points="303,-360 174,-360 174,-341 303,-341 303,-360"/>
<text text-anchor="middle" x="238.5" y="-348" font-family="Helvetica,sans-Serif" font-size="10.00">CCKeyboardDelegate.h</text>
</a>
</g>
</g>
<!-- Node1&#45;&gt;Node2 -->
<g id="edge1" class="edge">
<title>Node1&#45;&gt;Node2</title>
<path fill="none" stroke="#63b8ff" d="M280.03,-395.91C271.22,-386.48 261.43,-376.02 253.58,-367.62"/>
<polygon fill="#63b8ff" stroke="#63b8ff" points="256.12,-365.22 246.73,-360.3 251.01,-370 256.12,-365.22"/>
</g>
<!-- Node13 -->
<g id="node13" class="node">
<title>Node13</title>
<g id="a_node13"><a xlink:href="../../da/d35/_c_c_array_8h.html" target="_top" xlink:title=" ">
<polygon fill="white" stroke="#666666" points="416,-360 321,-360 321,-341 416,-341 416,-360"/>
<text text-anchor="middle" x="368.5" y="-348" font-family="Helvetica,sans-Serif" font-size="10.00">cocoa/CCArray.h</text>
</a>
</g>
</g>
<!-- Node1&#45;&gt;Node13 -->
<g id="edge16" class="edge">
<title>Node1&#45;&gt;Node13</title>
<path fill="none" stroke="#63b8ff" d="M326.97,-395.91C335.78,-386.48 345.57,-376.02 353.42,-367.62"/>
<polygon fill="#63b8ff" stroke="#63b8ff" points="355.99,-370 360.27,-360.3 350.88,-365.22 355.99,-370"/>
</g>
<!-- Node3 -->
<g id="node3" class="node">
<title>Node3</title>
<g id="a_node3"><a xlink:href="../../d9/dc8/cc_macros_8h.html" target="_top" xlink:title=" ">
<polygon fill="white" stroke="#666666" points="196,-239 125,-239 125,-220 196,-220 196,-239"/>
<text text-anchor="middle" x="160.5" y="-227" font-family="Helvetica,sans-Serif" font-size="10.00">ccMacros.h</text>
</a>
</g>
</g>
<!-- Node2&#45;&gt;Node3 -->
<g id="edge2" class="edge">
<title>Node2&#45;&gt;Node3</title>
<path fill="none" stroke="#63b8ff" d="M221.47,-340.86C208.1,-333.21 190.02,-320.81 179.5,-305 168.31,-288.19 163.71,-265.23 161.82,-249.26"/>
<polygon fill="#63b8ff" stroke="#63b8ff" points="165.28,-248.69 160.87,-239.05 158.31,-249.34 165.28,-248.69"/>
</g>
<!-- Node10 -->
<g id="node10" class="node">
<title>Node10</title>
<g id="a_node10"><a xlink:href="../../dd/d69/_c_c_object_8h.html" target="_top" xlink:title=" ">
<polygon fill="white" stroke="#666666" points="290.5,-299.5 188.5,-299.5 188.5,-280.5 290.5,-280.5 290.5,-299.5"/>
<text text-anchor="middle" x="239.5" y="-287.5" font-family="Helvetica,sans-Serif" font-size="10.00">cocoa/CCObject.h</text>
</a>
</g>
</g>
<!-- Node2&#45;&gt;Node10 -->
<g id="edge11" class="edge">
<title>Node2&#45;&gt;Node10</title>
<path fill="none" stroke="#63b8ff" d="M238.65,-340.87C238.79,-332.75 239,-320.31 239.18,-309.89"/>
<polygon fill="#63b8ff" stroke="#63b8ff" points="242.68,-309.73 239.35,-299.67 235.68,-309.61 242.68,-309.73"/>
</g>
<!-- Node4 -->
<g id="node4" class="node">
<title>Node4</title>
<g id="a_node4"><a xlink:href="../../d5/d22/_c_c_common_8h.html" target="_top" xlink:title=" ">
<polygon fill="white" stroke="#666666" points="188.5,-184 60.5,-184 60.5,-165 188.5,-165 188.5,-184"/>
<text text-anchor="middle" x="124.5" y="-172" font-family="Helvetica,sans-Serif" font-size="10.00">platform/CCCommon.h</text>
</a>
</g>
</g>
<!-- Node3&#45;&gt;Node4 -->
<g id="edge3" class="edge">
<title>Node3&#45;&gt;Node4</title>
<path fill="none" stroke="#63b8ff" d="M154.56,-219.75C149.52,-212.34 142.16,-201.5 135.99,-192.41"/>
<polygon fill="#63b8ff" stroke="#63b8ff" points="138.85,-190.39 130.33,-184.09 133.06,-194.33 138.85,-190.39"/>
</g>
<!-- Node6 -->
<g id="node6" class="node">
<title>Node6</title>
<g id="a_node6"><a xlink:href="../../db/d9f/cc_config_8h.html" target="_top" xlink:title="cocos2d (cc) configuration file">
<polygon fill="white" stroke="#666666" points="81,-74 14,-74 14,-55 81,-55 81,-74"/>
<text text-anchor="middle" x="47.5" y="-62" font-family="Helvetica,sans-Serif" font-size="10.00">ccConfig.h</text>
</a>
</g>
</g>
<!-- Node3&#45;&gt;Node6 -->
<g id="edge10" class="edge">
<title>Node3&#45;&gt;Node6</title>
<path fill="none" stroke="#63b8ff" d="M124.78,-224.05C99.81,-218.9 68.09,-207.82 51.5,-184 30.79,-154.27 36.67,-109.39 42.36,-84.26"/>
<polygon fill="#63b8ff" stroke="#63b8ff" points="45.84,-84.78 44.87,-74.23 39.05,-83.08 45.84,-84.78"/>
</g>
<!-- Node9 -->
<g id="node9" class="node">
<title>Node9</title>
<g id="a_node9"><a xlink:title=" ">
<polygon fill="#e0e0e0" stroke="#999999" points="268.5,-184 206.5,-184 206.5,-165 268.5,-165 268.5,-184"/>
<text text-anchor="middle" x="237.5" y="-172" font-family="Helvetica,sans-Serif" font-size="10.00">CCStdC.h</text>
</a>
</g>
</g>
<!-- Node3&#45;&gt;Node9 -->
<g id="edge9" class="edge">
<title>Node3&#45;&gt;Node9</title>
<path fill="none" stroke="#63b8ff" d="M172.87,-219.98C184.59,-211.92 202.42,-199.65 216.39,-190.03"/>
<polygon fill="#63b8ff" stroke="#63b8ff" points="218.65,-192.72 224.9,-184.17 214.68,-186.96 218.65,-192.72"/>
</g>
<!-- Node5 -->
<g id="node5" class="node">
<title>Node5</title>
<g id="a_node5"><a xlink:href="../../d3/d41/_c_c_platform_macros_8h.html" target="_top" xlink:title=" ">
<polygon fill="white" stroke="#666666" points="182.5,-129 66.5,-129 66.5,-110 182.5,-110 182.5,-129"/>
<text text-anchor="middle" x="124.5" y="-117" font-family="Helvetica,sans-Serif" font-size="10.00">CCPlatformMacros.h</text>
</a>
</g>
</g>
<!-- Node4&#45;&gt;Node5 -->
<g id="edge4" class="edge">
<title>Node4&#45;&gt;Node5</title>
<path fill="none" stroke="#63b8ff" d="M124.5,-164.75C124.5,-157.8 124.5,-147.85 124.5,-139.13"/>
<polygon fill="#63b8ff" stroke="#63b8ff" points="128,-139.09 124.5,-129.09 121,-139.09 128,-139.09"/>
</g>
<!-- Node5&#45;&gt;Node6 -->
<g id="edge5" class="edge">
<title>Node5&#45;&gt;Node6</title>
<path fill="none" stroke="#63b8ff" d="M112.13,-109.98C100.41,-101.92 82.58,-89.65 68.61,-80.03"/>
<polygon fill="#63b8ff" stroke="#63b8ff" points="70.32,-76.96 60.1,-74.17 66.35,-82.72 70.32,-76.96"/>
</g>
<!-- Node7 -->
<g id="node7" class="node">
<title>Node7</title>
<g id="a_node7"><a xlink:href="../../dd/d96/_c_c_platform_config_8h.html" target="_top" xlink:title=" ">
<polygon fill="white" stroke="#666666" points="157,-19 0,-19 0,0 157,0 157,-19"/>
<text text-anchor="middle" x="78.5" y="-7" font-family="Helvetica,sans-Serif" font-size="10.00">platform/CCPlatformConfig.h</text>
</a>
</g>
</g>
<!-- Node5&#45;&gt;Node7 -->
<g id="edge7" class="edge">
<title>Node5&#45;&gt;Node7</title>
<path fill="none" stroke="#63b8ff" d="M120.74,-109.66C113.22,-92.01 96.21,-52.09 86.22,-28.64"/>
<polygon fill="#63b8ff" stroke="#63b8ff" points="89.33,-26.99 82.19,-19.16 82.89,-29.73 89.33,-26.99"/>
</g>
<!-- Node8 -->
<g id="node8" class="node">
<title>Node8</title>
<g id="a_node8"><a xlink:title=" ">
<polygon fill="#e0e0e0" stroke="#999999" points="251,-74 138,-74 138,-55 251,-55 251,-74"/>
<text text-anchor="middle" x="194.5" y="-62" font-family="Helvetica,sans-Serif" font-size="10.00">CCPlatformDefine.h</text>
</a>
</g>
</g>
<!-- Node5&#45;&gt;Node8 -->
<g id="edge8" class="edge">
<title>Node5&#45;&gt;Node8</title>
<path fill="none" stroke="#63b8ff" d="M135.75,-109.98C146.3,-102 162.3,-89.88 174.94,-80.31"/>
<polygon fill="#63b8ff" stroke="#63b8ff" points="177.19,-83 183.05,-74.17 172.96,-77.42 177.19,-83"/>
</g>
<!-- Node6&#45;&gt;Node7 -->
<g id="edge6" class="edge">
<title>Node6&#45;&gt;Node7</title>
<path fill="none" stroke="#63b8ff" d="M52.62,-54.75C56.86,-47.49 63.03,-36.95 68.28,-27.98"/>
<polygon fill="#63b8ff" stroke="#63b8ff" points="71.45,-29.49 73.48,-19.09 65.41,-25.95 71.45,-29.49"/>
</g>
<!-- Node10&#45;&gt;Node3 -->
<g id="edge15" class="edge">
<title>Node10&#45;&gt;Node3</title>
<path fill="none" stroke="#63b8ff" d="M227.84,-280.37C215.36,-271.12 195.32,-256.28 180.34,-245.19"/>
<polygon fill="#63b8ff" stroke="#63b8ff" points="182.32,-242.31 172.2,-239.17 178.16,-247.93 182.32,-242.31"/>
</g>
<!-- Node11 -->
<g id="node11" class="node">
<title>Node11</title>
<g id="a_node11"><a xlink:href="../../d9/d2d/_c_c_data_visitor_8h.html" target="_top" xlink:title=" ">
<polygon fill="white" stroke="#666666" points="343,-239 250,-239 250,-220 343,-220 343,-239"/>
<text text-anchor="middle" x="296.5" y="-227" font-family="Helvetica,sans-Serif" font-size="10.00">CCDataVisitor.h</text>
</a>
</g>
</g>
<!-- Node10&#45;&gt;Node11 -->
<g id="edge12" class="edge">
<title>Node10&#45;&gt;Node11</title>
<path fill="none" stroke="#63b8ff" d="M247.91,-280.37C256.58,-271.47 270.3,-257.39 280.96,-246.45"/>
<polygon fill="#63b8ff" stroke="#63b8ff" points="283.58,-248.77 288.05,-239.17 278.57,-243.89 283.58,-248.77"/>
</g>
<!-- Node11&#45;&gt;Node5 -->
<g id="edge13" class="edge">
<title>Node11&#45;&gt;Node5</title>
<path fill="none" stroke="#63b8ff" d="M296.4,-219.8C295.77,-206.19 292.53,-179.91 277.5,-165 255.01,-142.68 222.01,-131.42 192.41,-125.8"/>
<polygon fill="#63b8ff" stroke="#63b8ff" points="192.97,-122.35 182.52,-124.1 191.79,-129.24 192.97,-122.35"/>
</g>
<!-- Node12 -->
<g id="node12" class="node">
<title>Node12</title>
<g id="a_node12"><a xlink:title=" ">
<polygon fill="#e0e0e0" stroke="#999999" points="368.5,-184 324.5,-184 324.5,-165 368.5,-165 368.5,-184"/>
<text text-anchor="middle" x="346.5" y="-172" font-family="Helvetica,sans-Serif" font-size="10.00">string</text>
</a>
</g>
</g>
<!-- Node11&#45;&gt;Node12 -->
<g id="edge14" class="edge">
<title>Node11&#45;&gt;Node12</title>
<path fill="none" stroke="#63b8ff" d="M304.76,-219.75C311.96,-212.11 322.61,-200.82 331.35,-191.56"/>
<polygon fill="#63b8ff" stroke="#63b8ff" points="334.08,-193.76 338.4,-184.09 328.99,-188.96 334.08,-193.76"/>
</g>
<!-- Node14 -->
<g id="node14" class="node">
<title>Node14</title>
<g id="a_node14"><a xlink:title=" ">
<polygon fill="#e0e0e0" stroke="#999999" points="428.5,-305 308.5,-305 308.5,-275 428.5,-275 428.5,-305"/>
<text text-anchor="start" x="316.5" y="-293" font-family="Helvetica,sans-Serif" font-size="10.00">support/data_support</text>
<text text-anchor="middle" x="368.5" y="-282" font-family="Helvetica,sans-Serif" font-size="10.00">/ccCArray.h</text>
</a>
</g>
</g>
<!-- Node13&#45;&gt;Node14 -->
<g id="edge17" class="edge">
<title>Node13&#45;&gt;Node14</title>
<path fill="none" stroke="#63b8ff" d="M368.5,-340.87C368.5,-334.11 368.5,-324.35 368.5,-315.26"/>
<polygon fill="#63b8ff" stroke="#63b8ff" points="372,-315.11 368.5,-305.11 365,-315.11 372,-315.11"/>
</g>
</g>
</svg>
