<?xml version="1.0" encoding="UTF-8" standalone="no"?>
<!DOCTYPE svg PUBLIC "-//W3C//DTD SVG 1.1//EN"
 "http://www.w3.org/Graphics/SVG/1.1/DTD/svg11.dtd">
<!-- Generated by graphviz version 2.43.0 (0)
 -->
<!-- Title: CCFiniteTimeAction Pages: 1 -->
<svg width="847pt" height="1525pt"
 viewBox="0.00 0.00 847.00 1525.00" xmlns="http://www.w3.org/2000/svg" xmlns:xlink="http://www.w3.org/1999/xlink">
<g id="graph0" class="graph" transform="scale(1 1) rotate(0) translate(4 1521)">
<title>CCFiniteTimeAction</title>
<!-- Node1 -->
<g id="node1" class="node">
<title>Node1</title>
<g id="a_node1"><a xlink:title="Base class actions that do have a finite time duration.">
<polygon fill="#999999" stroke="#666666" points="414,-944 301,-944 301,-925 414,-925 414,-944"/>
<text text-anchor="middle" x="357.5" y="-932" font-family="Helvetica,sans-Serif" font-size="10.00">CCFiniteTimeAction</text>
</a>
</g>
</g>
<!-- Node5 -->
<g id="node5" class="node">
<title>Node5</title>
<g id="a_node5"><a xlink:href="../../df/d52/classcocos2d_1_1_c_c_action_instant.html" target="_top" xlink:title="Instant actions are immediate actions.">
<polygon fill="white" stroke="#666666" points="546.5,-1314 451.5,-1314 451.5,-1295 546.5,-1295 546.5,-1314"/>
<text text-anchor="middle" x="499" y="-1302" font-family="Helvetica,sans-Serif" font-size="10.00">CCActionInstant</text>
</a>
</g>
</g>
<!-- Node1&#45;&gt;Node5 -->
<g id="edge4" class="edge">
<title>Node1&#45;&gt;Node5</title>
<path fill="none" stroke="#63b8ff" d="M365.76,-953.76C391.18,-1021.18 475.6,-1245.08 494.31,-1294.7"/>
<polygon fill="#63b8ff" stroke="#63b8ff" points="368.89,-952.14 362.09,-944.02 362.34,-954.61 368.89,-952.14"/>
</g>
<!-- Node19 -->
<g id="node18" class="node">
<title>Node19</title>
<g id="a_node18"><a xlink:href="../../dd/d8d/classcocos2d_1_1_c_c_action_interval.html" target="_top" xlink:title="An interval action is an action that takes place within a certain period of time.">
<polygon fill="white" stroke="#666666" points="548,-593 450,-593 450,-574 548,-574 548,-593"/>
<text text-anchor="middle" x="499" y="-581" font-family="Helvetica,sans-Serif" font-size="10.00">CCActionInterval</text>
</a>
</g>
</g>
<!-- Node1&#45;&gt;Node19 -->
<g id="edge17" class="edge">
<title>Node1&#45;&gt;Node19</title>
<path fill="none" stroke="#63b8ff" d="M366.13,-915.3C391.94,-850.37 475.39,-640.39 494.21,-593.04"/>
<polygon fill="#63b8ff" stroke="#63b8ff" points="362.82,-914.16 362.38,-924.75 369.32,-916.75 362.82,-914.16"/>
</g>
<!-- Node2 -->
<g id="node2" class="node">
<title>Node2</title>
<g id="a_node2"><a xlink:href="../../d7/d12/classcocos2d_1_1_c_c_action.html" target="_top" xlink:title="Base class for CCAction objects.">
<polygon fill="white" stroke="#666666" points="265,-944 204,-944 204,-925 265,-925 265,-944"/>
<text text-anchor="middle" x="234.5" y="-932" font-family="Helvetica,sans-Serif" font-size="10.00">CCAction</text>
</a>
</g>
</g>
<!-- Node2&#45;&gt;Node1 -->
<g id="edge1" class="edge">
<title>Node2&#45;&gt;Node1</title>
<path fill="none" stroke="#63b8ff" d="M275.11,-934.5C283.31,-934.5 292.09,-934.5 300.74,-934.5"/>
<polygon fill="#63b8ff" stroke="#63b8ff" points="275.1,-931 265.1,-934.5 275.1,-938 275.1,-931"/>
</g>
<!-- Node3 -->
<g id="node3" class="node">
<title>Node3</title>
<g id="a_node3"><a xlink:href="../../d3/dbf/classcocos2d_1_1_c_c_object.html" target="_top" xlink:title="NA.">
<polygon fill="white" stroke="#666666" points="168,-944 106,-944 106,-925 168,-925 168,-944"/>
<text text-anchor="middle" x="137" y="-932" font-family="Helvetica,sans-Serif" font-size="10.00">CCObject</text>
</a>
</g>
</g>
<!-- Node3&#45;&gt;Node2 -->
<g id="edge2" class="edge">
<title>Node3&#45;&gt;Node2</title>
<path fill="none" stroke="#63b8ff" d="M178.38,-934.5C186.91,-934.5 195.76,-934.5 203.81,-934.5"/>
<polygon fill="#63b8ff" stroke="#63b8ff" points="178.22,-931 168.22,-934.5 178.22,-938 178.22,-931"/>
</g>
<!-- Node4 -->
<g id="node4" class="node">
<title>Node4</title>
<g id="a_node4"><a xlink:href="../../d5/d61/classcocos2d_1_1_c_c_copying.html" target="_top" xlink:title="NA NA.">
<polygon fill="white" stroke="#666666" points="70,-944 0,-944 0,-925 70,-925 70,-944"/>
<text text-anchor="middle" x="35" y="-932" font-family="Helvetica,sans-Serif" font-size="10.00">CCCopying</text>
</a>
</g>
</g>
<!-- Node4&#45;&gt;Node3 -->
<g id="edge3" class="edge">
<title>Node4&#45;&gt;Node3</title>
<path fill="none" stroke="#63b8ff" d="M80.39,-934.5C88.95,-934.5 97.72,-934.5 105.7,-934.5"/>
<polygon fill="#63b8ff" stroke="#63b8ff" points="80.13,-931 70.13,-934.5 80.13,-938 80.13,-931"/>
</g>
<!-- Node6 -->
<g id="node6" class="node">
<title>Node6</title>
<g id="a_node6"><a xlink:href="../../dd/d6e/classcocos2d_1_1_c_c_call_func.html" target="_top" xlink:title="Calls a &#39;callback&#39;.">
<polygon fill="white" stroke="#666666" points="689.5,-1499 618.5,-1499 618.5,-1480 689.5,-1480 689.5,-1499"/>
<text text-anchor="middle" x="654" y="-1487" font-family="Helvetica,sans-Serif" font-size="10.00">CCCallFunc</text>
</a>
</g>
</g>
<!-- Node5&#45;&gt;Node6 -->
<g id="edge5" class="edge">
<title>Node5&#45;&gt;Node6</title>
<path fill="none" stroke="#63b8ff" d="M504.34,-1323.95C513.14,-1358.73 536.4,-1431.57 584,-1470.5 593.71,-1478.44 606.5,-1483.08 618.43,-1485.78"/>
<polygon fill="#63b8ff" stroke="#63b8ff" points="507.71,-1323 501.98,-1314.09 500.91,-1324.63 507.71,-1323"/>
</g>
<!-- Node10 -->
<g id="node9" class="node">
<title>Node10</title>
<g id="a_node9"><a xlink:href="../../d8/d76/classcocos2d_1_1_c_c_flip_x.html" target="_top" xlink:title="Flips the sprite horizontally.">
<polygon fill="white" stroke="#666666" points="681.5,-1462 626.5,-1462 626.5,-1443 681.5,-1443 681.5,-1462"/>
<text text-anchor="middle" x="654" y="-1450" font-family="Helvetica,sans-Serif" font-size="10.00">CCFlipX</text>
</a>
</g>
</g>
<!-- Node5&#45;&gt;Node10 -->
<g id="edge8" class="edge">
<title>Node5&#45;&gt;Node10</title>
<path fill="none" stroke="#63b8ff" d="M507.37,-1323.93C519.16,-1352.35 544.97,-1404.97 584,-1433.5 596.34,-1442.52 612.75,-1447.26 626.47,-1449.75"/>
<polygon fill="#63b8ff" stroke="#63b8ff" points="510.49,-1322.32 503.54,-1314.32 503.99,-1324.91 510.49,-1322.32"/>
</g>
<!-- Node11 -->
<g id="node10" class="node">
<title>Node11</title>
<g id="a_node10"><a xlink:href="../../d8/d0c/classcocos2d_1_1_c_c_flip_y.html" target="_top" xlink:title="Flips the sprite vertically.">
<polygon fill="white" stroke="#666666" points="681,-1425 627,-1425 627,-1406 681,-1406 681,-1425"/>
<text text-anchor="middle" x="654" y="-1413" font-family="Helvetica,sans-Serif" font-size="10.00">CCFlipY</text>
</a>
</g>
</g>
<!-- Node5&#45;&gt;Node11 -->
<g id="edge9" class="edge">
<title>Node5&#45;&gt;Node11</title>
<path fill="none" stroke="#63b8ff" d="M511.71,-1322.54C526.21,-1343.43 552.84,-1377.4 584,-1396.5 596.92,-1404.42 613.2,-1409.11 626.7,-1411.84"/>
<polygon fill="#63b8ff" stroke="#63b8ff" points="514.59,-1320.55 506.1,-1314.22 508.79,-1324.46 514.59,-1320.55"/>
</g>
<!-- Node12 -->
<g id="node11" class="node">
<title>Node12</title>
<g id="a_node11"><a xlink:href="../../d1/d72/classcocos2d_1_1_c_c_hide.html" target="_top" xlink:title="Hide the node.">
<polygon fill="white" stroke="#666666" points="680.5,-1388 627.5,-1388 627.5,-1369 680.5,-1369 680.5,-1388"/>
<text text-anchor="middle" x="654" y="-1376" font-family="Helvetica,sans-Serif" font-size="10.00">CCHide</text>
</a>
</g>
</g>
<!-- Node5&#45;&gt;Node12 -->
<g id="edge10" class="edge">
<title>Node5&#45;&gt;Node12</title>
<path fill="none" stroke="#63b8ff" d="M520.36,-1320.44C536.76,-1332.62 560.81,-1349.03 584,-1359.5 597.81,-1365.74 614.13,-1370.35 627.43,-1373.46"/>
<polygon fill="#63b8ff" stroke="#63b8ff" points="522.18,-1317.43 512.1,-1314.18 517.95,-1323.01 522.18,-1317.43"/>
</g>
<!-- Node13 -->
<g id="node12" class="node">
<title>Node13</title>
<g id="a_node12"><a xlink:href="../../de/dbf/classcocos2d_1_1_c_c_place.html" target="_top" xlink:title="Places the node in a certain position.">
<polygon fill="white" stroke="#666666" points="682,-1351 626,-1351 626,-1332 682,-1332 682,-1351"/>
<text text-anchor="middle" x="654" y="-1339" font-family="Helvetica,sans-Serif" font-size="10.00">CCPlace</text>
</a>
</g>
</g>
<!-- Node5&#45;&gt;Node13 -->
<g id="edge11" class="edge">
<title>Node5&#45;&gt;Node13</title>
<path fill="none" stroke="#63b8ff" d="M549.23,-1316.41C574.61,-1322.54 604.59,-1329.79 625.79,-1334.92"/>
<polygon fill="#63b8ff" stroke="#63b8ff" points="549.94,-1312.98 539.4,-1314.03 548.3,-1319.78 549.94,-1312.98"/>
</g>
<!-- Node14 -->
<g id="node13" class="node">
<title>Node14</title>
<g id="a_node13"><a xlink:href="../../da/d67/classcocos2d_1_1_c_c_remove_self.html" target="_top" xlink:title="Remove the node NA NA.">
<polygon fill="white" stroke="#666666" points="698.5,-1314 609.5,-1314 609.5,-1295 698.5,-1295 698.5,-1314"/>
<text text-anchor="middle" x="654" y="-1302" font-family="Helvetica,sans-Serif" font-size="10.00">CCRemoveSelf</text>
</a>
</g>
</g>
<!-- Node5&#45;&gt;Node14 -->
<g id="edge12" class="edge">
<title>Node5&#45;&gt;Node14</title>
<path fill="none" stroke="#63b8ff" d="M556.78,-1304.5C574.18,-1304.5 593.05,-1304.5 609.42,-1304.5"/>
<polygon fill="#63b8ff" stroke="#63b8ff" points="556.74,-1301 546.74,-1304.5 556.74,-1308 556.74,-1301"/>
</g>
<!-- Node15 -->
<g id="node14" class="node">
<title>Node15</title>
<g id="a_node14"><a xlink:href="../../d8/d6f/classcocos2d_1_1_c_c_reuse_grid.html" target="_top" xlink:title="CCReuseGrid action.">
<polygon fill="white" stroke="#666666" points="694,-1277 614,-1277 614,-1258 694,-1258 694,-1277"/>
<text text-anchor="middle" x="654" y="-1265" font-family="Helvetica,sans-Serif" font-size="10.00">CCReuseGrid</text>
</a>
</g>
</g>
<!-- Node5&#45;&gt;Node15 -->
<g id="edge13" class="edge">
<title>Node5&#45;&gt;Node15</title>
<path fill="none" stroke="#63b8ff" d="M549.39,-1292.56C570.32,-1287.5 594.35,-1281.68 614,-1276.93"/>
<polygon fill="#63b8ff" stroke="#63b8ff" points="548.3,-1289.22 539.4,-1294.97 549.94,-1296.02 548.3,-1289.22"/>
</g>
<!-- Node16 -->
<g id="node15" class="node">
<title>Node16</title>
<g id="a_node15"><a xlink:href="../../d3/de8/classcocos2d_1_1_c_c_show.html" target="_top" xlink:title="Show the node.">
<polygon fill="white" stroke="#666666" points="682,-1240 626,-1240 626,-1221 682,-1221 682,-1240"/>
<text text-anchor="middle" x="654" y="-1228" font-family="Helvetica,sans-Serif" font-size="10.00">CCShow</text>
</a>
</g>
</g>
<!-- Node5&#45;&gt;Node16 -->
<g id="edge14" class="edge">
<title>Node5&#45;&gt;Node16</title>
<path fill="none" stroke="#63b8ff" d="M519.71,-1288.59C536.07,-1276.09 560.39,-1259.09 584,-1248.5 597.22,-1242.57 612.76,-1238.3 625.75,-1235.41"/>
<polygon fill="#63b8ff" stroke="#63b8ff" points="517.23,-1286.09 511.5,-1295 521.54,-1291.6 517.23,-1286.09"/>
</g>
<!-- Node17 -->
<g id="node16" class="node">
<title>Node17</title>
<g id="a_node16"><a xlink:href="../../d1/d13/classcocos2d_1_1_c_c_stop_grid.html" target="_top" xlink:title="CCStopGrid action.">
<polygon fill="white" stroke="#666666" points="690,-1203 618,-1203 618,-1184 690,-1184 690,-1203"/>
<text text-anchor="middle" x="654" y="-1191" font-family="Helvetica,sans-Serif" font-size="10.00">CCStopGrid</text>
</a>
</g>
</g>
<!-- Node5&#45;&gt;Node17 -->
<g id="edge15" class="edge">
<title>Node5&#45;&gt;Node17</title>
<path fill="none" stroke="#63b8ff" d="M511.4,-1286.51C525.76,-1265.35 552.41,-1230.68 584,-1211.5 594.16,-1205.33 606.4,-1201.26 617.74,-1198.58"/>
<polygon fill="#63b8ff" stroke="#63b8ff" points="508.44,-1284.65 505.86,-1294.93 514.28,-1288.5 508.44,-1284.65"/>
</g>
<!-- Node18 -->
<g id="node17" class="node">
<title>Node18</title>
<g id="a_node17"><a xlink:href="../../dc/d90/classcocos2d_1_1_c_c_toggle_visibility.html" target="_top" xlink:title="Toggles the visibility of a node.">
<polygon fill="white" stroke="#666666" points="706,-1166 602,-1166 602,-1147 706,-1147 706,-1166"/>
<text text-anchor="middle" x="654" y="-1154" font-family="Helvetica,sans-Serif" font-size="10.00">CCToggleVisibility</text>
</a>
</g>
</g>
<!-- Node5&#45;&gt;Node18 -->
<g id="edge16" class="edge">
<title>Node5&#45;&gt;Node18</title>
<path fill="none" stroke="#63b8ff" d="M507.11,-1285.27C518.7,-1256.64 544.42,-1203.13 584,-1174.5 589.32,-1170.65 595.39,-1167.63 601.68,-1165.25"/>
<polygon fill="#63b8ff" stroke="#63b8ff" points="503.72,-1284.33 503.36,-1294.92 510.24,-1286.87 503.72,-1284.33"/>
</g>
<!-- Node7 -->
<g id="node7" class="node">
<title>Node7</title>
<g id="a_node7"><a xlink:href="../../dd/d1f/classcocos2d_1_1_c_c_call_func_n.html" target="_top" xlink:title="Calls a &#39;callback&#39; with the node as the first argument N means Node NA.">
<polygon fill="#fff0f0" stroke="red" points="839,-1517 760,-1517 760,-1498 839,-1498 839,-1517"/>
<text text-anchor="middle" x="799.5" y="-1505" font-family="Helvetica,sans-Serif" font-size="10.00">CCCallFuncN</text>
</a>
</g>
</g>
<!-- Node6&#45;&gt;Node7 -->
<g id="edge6" class="edge">
<title>Node6&#45;&gt;Node7</title>
<path fill="none" stroke="#63b8ff" d="M699.78,-1495.12C719.01,-1497.53 741.28,-1500.32 759.79,-1502.64"/>
<polygon fill="#63b8ff" stroke="#63b8ff" points="700.1,-1491.63 689.74,-1493.86 699.22,-1498.57 700.1,-1491.63"/>
</g>
<!-- Node9 -->
<g id="node8" class="node">
<title>Node9</title>
<g id="a_node8"><a xlink:href="../../d9/d91/classcocos2d_1_1_c_c_call_func_o.html" target="_top" xlink:title="Calls a &#39;callback&#39; with an object as the first argument.">
<polygon fill="white" stroke="#666666" points="839,-1480 760,-1480 760,-1461 839,-1461 839,-1480"/>
<text text-anchor="middle" x="799.5" y="-1468" font-family="Helvetica,sans-Serif" font-size="10.00">CCCallFuncO</text>
</a>
</g>
</g>
<!-- Node6&#45;&gt;Node9 -->
<g id="edge7" class="edge">
<title>Node6&#45;&gt;Node9</title>
<path fill="none" stroke="#63b8ff" d="M699.78,-1483.57C719.01,-1481.02 741.28,-1478.08 759.79,-1475.63"/>
<polygon fill="#63b8ff" stroke="#63b8ff" points="699.19,-1480.12 689.74,-1484.9 700.11,-1487.06 699.19,-1480.12"/>
</g>
<!-- Node20 -->
<g id="node19" class="node">
<title>Node20</title>
<g id="a_node19"><a xlink:href="../../df/d9b/classcocos2d_1_1_c_c_accel_amplitude.html" target="_top" xlink:title="CCAccelAmplitude action.">
<polygon fill="white" stroke="#666666" points="707.5,-1129 600.5,-1129 600.5,-1110 707.5,-1110 707.5,-1129"/>
<text text-anchor="middle" x="654" y="-1117" font-family="Helvetica,sans-Serif" font-size="10.00">CCAccelAmplitude</text>
</a>
</g>
</g>
<!-- Node19&#45;&gt;Node20 -->
<g id="edge18" class="edge">
<title>Node19&#45;&gt;Node20</title>
<path fill="none" stroke="#63b8ff" d="M500.46,-603.57C502.83,-689.47 516.34,-1025.13 584,-1100.5 588.48,-1105.49 594.14,-1109.22 600.29,-1112.01"/>
<polygon fill="#63b8ff" stroke="#63b8ff" points="503.95,-603.27 500.2,-593.36 496.95,-603.45 503.95,-603.27"/>
</g>
<!-- Node21 -->
<g id="node20" class="node">
<title>Node21</title>
<g id="a_node20"><a xlink:href="../../dc/d97/classcocos2d_1_1_c_c_accel_deccel_amplitude.html" target="_top" xlink:title="CCAccelDeccelAmplitude action.">
<polygon fill="white" stroke="#666666" points="724,-1092 584,-1092 584,-1073 724,-1073 724,-1092"/>
<text text-anchor="middle" x="654" y="-1080" font-family="Helvetica,sans-Serif" font-size="10.00">CCAccelDeccelAmplitude</text>
</a>
</g>
</g>
<!-- Node19&#45;&gt;Node21 -->
<g id="edge19" class="edge">
<title>Node19&#45;&gt;Node21</title>
<path fill="none" stroke="#63b8ff" d="M500.73,-603.41C504.11,-685.19 520.96,-994.13 584,-1063.5 587.51,-1067.36 591.73,-1070.47 596.32,-1072.96"/>
<polygon fill="#63b8ff" stroke="#63b8ff" points="504.21,-602.91 500.32,-593.05 497.22,-603.18 504.21,-602.91"/>
</g>
<!-- Node22 -->
<g id="node21" class="node">
<title>Node22</title>
<g id="a_node21"><a xlink:href="../../d5/df5/classcocos2d_1_1_c_c_action_camera.html" target="_top" xlink:title="Base class for CCCamera actions.">
<polygon fill="#fff0f0" stroke="red" points="703.5,-1055 604.5,-1055 604.5,-1036 703.5,-1036 703.5,-1055"/>
<text text-anchor="middle" x="654" y="-1043" font-family="Helvetica,sans-Serif" font-size="10.00">CCActionCamera</text>
</a>
</g>
</g>
<!-- Node19&#45;&gt;Node22 -->
<g id="edge20" class="edge">
<title>Node19&#45;&gt;Node22</title>
<path fill="none" stroke="#63b8ff" d="M501.04,-603.35C505.51,-681.02 525.59,-963.13 584,-1026.5 589.47,-1032.44 596.62,-1036.59 604.23,-1039.47"/>
<polygon fill="#63b8ff" stroke="#63b8ff" points="504.52,-602.86 500.47,-593.07 497.53,-603.24 504.52,-602.86"/>
</g>
<!-- Node24 -->
<g id="node22" class="node">
<title>Node24</title>
<g id="a_node22"><a xlink:href="../../d0/d79/classcocos2d_1_1_c_c_action_ease.html" target="_top" xlink:title="Base class for Easing actions.">
<polygon fill="#fff0f0" stroke="red" points="696,-1018 612,-1018 612,-999 696,-999 696,-1018"/>
<text text-anchor="middle" x="654" y="-1006" font-family="Helvetica,sans-Serif" font-size="10.00">CCActionEase</text>
</a>
</g>
</g>
<!-- Node19&#45;&gt;Node24 -->
<g id="edge21" class="edge">
<title>Node19&#45;&gt;Node24</title>
<path fill="none" stroke="#63b8ff" d="M501.43,-603.57C507.09,-677.34 530.27,-932.17 584,-989.5 591.31,-997.3 601.49,-1002 611.8,-1004.81"/>
<polygon fill="#63b8ff" stroke="#63b8ff" points="504.9,-603.06 500.67,-593.34 497.92,-603.58 504.9,-603.06"/>
</g>
<!-- Node46 -->
<g id="node23" class="node">
<title>Node46</title>
<g id="a_node23"><a xlink:href="../../d5/dd1/classcocos2d_1_1_c_c_action_tween.html" target="_top" xlink:title="CCActionTween.">
<polygon fill="white" stroke="#666666" points="700,-981 608,-981 608,-962 700,-962 700,-981"/>
<text text-anchor="middle" x="654" y="-969" font-family="Helvetica,sans-Serif" font-size="10.00">CCActionTween</text>
</a>
</g>
</g>
<!-- Node19&#45;&gt;Node46 -->
<g id="edge22" class="edge">
<title>Node19&#45;&gt;Node46</title>
<path fill="none" stroke="#63b8ff" d="M501.87,-603.49C508.76,-672.77 534.86,-901.1 584,-952.5 590.44,-959.24 599.03,-963.66 607.95,-966.54"/>
<polygon fill="#63b8ff" stroke="#63b8ff" points="505.32,-602.75 500.87,-593.13 498.35,-603.42 505.32,-602.75"/>
</g>
<!-- Node47 -->
<g id="node24" class="node">
<title>Node47</title>
<g id="a_node24"><a xlink:href="../../db/dc5/classcocos2d_1_1_c_c_animate.html" target="_top" xlink:title="Animates a sprite given the name of an Animation.">
<polygon fill="white" stroke="#666666" points="689.5,-944 618.5,-944 618.5,-925 689.5,-925 689.5,-944"/>
<text text-anchor="middle" x="654" y="-932" font-family="Helvetica,sans-Serif" font-size="10.00">CCAnimate</text>
</a>
</g>
</g>
<!-- Node19&#45;&gt;Node47 -->
<g id="edge23" class="edge">
<title>Node19&#45;&gt;Node47</title>
<path fill="none" stroke="#63b8ff" d="M502.38,-603.15C510.53,-667.43 539.36,-869.92 584,-915.5 593.04,-924.73 606.12,-929.6 618.47,-932.12"/>
<polygon fill="#63b8ff" stroke="#63b8ff" points="505.84,-602.62 501.13,-593.13 498.89,-603.49 505.84,-602.62"/>
</g>
<!-- Node48 -->
<g id="node25" class="node">
<title>Node48</title>
<g id="a_node25"><a xlink:href="../../df/d33/classcocos2d_1_1_c_c_bezier_by.html" target="_top" xlink:title="An action that moves the target with a cubic Bezier curve by a certain distance.">
<polygon fill="#fff0f0" stroke="red" points="691,-907 617,-907 617,-888 691,-888 691,-907"/>
<text text-anchor="middle" x="654" y="-895" font-family="Helvetica,sans-Serif" font-size="10.00">CCBezierBy</text>
</a>
</g>
</g>
<!-- Node19&#45;&gt;Node48 -->
<g id="edge24" class="edge">
<title>Node19&#45;&gt;Node48</title>
<path fill="none" stroke="#63b8ff" d="M499.45,-603.37C499.12,-656.12 505.77,-800.95 584,-878.5 592.74,-887.16 605.03,-891.96 616.83,-894.6"/>
<polygon fill="#63b8ff" stroke="#63b8ff" points="502.95,-603.1 499.62,-593.05 495.96,-602.99 502.95,-603.1"/>
</g>
<!-- Node50 -->
<g id="node26" class="node">
<title>Node50</title>
<g id="a_node26"><a xlink:href="../../d8/de2/classcocos2d_1_1_c_c_blink.html" target="_top" xlink:title="Blinks a CCNode object by modifying it&#39;s visible attribute.">
<polygon fill="white" stroke="#666666" points="681.5,-870 626.5,-870 626.5,-851 681.5,-851 681.5,-870"/>
<text text-anchor="middle" x="654" y="-858" font-family="Helvetica,sans-Serif" font-size="10.00">CCBlink</text>
</a>
</g>
</g>
<!-- Node19&#45;&gt;Node50 -->
<g id="edge25" class="edge">
<title>Node19&#45;&gt;Node50</title>
<path fill="none" stroke="#63b8ff" d="M500.4,-603.13C502.47,-651.11 514.62,-775.24 584,-841.5 595.32,-852.31 612.21,-857.08 626.45,-859.14"/>
<polygon fill="#63b8ff" stroke="#63b8ff" points="503.9,-603.01 500.07,-593.13 496.9,-603.23 503.9,-603.01"/>
</g>
<!-- Node51 -->
<g id="node27" class="node">
<title>Node51</title>
<g id="a_node27"><a xlink:href="../../d3/d19/classcocos2d_1_1_c_c_cardinal_spline_to.html" target="_top" xlink:title="Cardinal Spline path.">
<polygon fill="#fff0f0" stroke="red" points="709.5,-833 598.5,-833 598.5,-814 709.5,-814 709.5,-833"/>
<text text-anchor="middle" x="654" y="-821" font-family="Helvetica,sans-Serif" font-size="10.00">CCCardinalSplineTo</text>
</a>
</g>
</g>
<!-- Node19&#45;&gt;Node51 -->
<g id="edge26" class="edge">
<title>Node19&#45;&gt;Node51</title>
<path fill="none" stroke="#63b8ff" d="M501.64,-603.19C506.3,-646.28 523.52,-749.48 584,-804.5 588.23,-808.35 593.16,-811.42 598.42,-813.88"/>
<polygon fill="#63b8ff" stroke="#63b8ff" points="505.11,-602.77 500.67,-593.15 498.15,-603.44 505.11,-602.77"/>
</g>
<!-- Node55 -->
<g id="node28" class="node">
<title>Node55</title>
<g id="a_node28"><a xlink:href="../../db/d7f/classcocos2d_1_1_c_c_deccel_amplitude.html" target="_top" xlink:title="CCDeccelAmplitude action.">
<polygon fill="white" stroke="#666666" points="710.5,-796 597.5,-796 597.5,-777 710.5,-777 710.5,-796"/>
<text text-anchor="middle" x="654" y="-784" font-family="Helvetica,sans-Serif" font-size="10.00">CCDeccelAmplitude</text>
</a>
</g>
</g>
<!-- Node19&#45;&gt;Node55 -->
<g id="edge27" class="edge">
<title>Node19&#45;&gt;Node55</title>
<path fill="none" stroke="#63b8ff" d="M503.38,-603.44C510.86,-641.26 532.4,-723.54 584,-767.5 588.54,-771.37 593.8,-774.45 599.36,-776.91"/>
<polygon fill="#63b8ff" stroke="#63b8ff" points="506.75,-602.42 501.49,-593.22 499.87,-603.69 506.75,-602.42"/>
</g>
<!-- Node56 -->
<g id="node29" class="node">
<title>Node56</title>
<g id="a_node29"><a xlink:href="../../d6/dde/classcocos2d_1_1_c_c_delay_time.html" target="_top" xlink:title="Delays the action a certain amount of seconds.">
<polygon fill="white" stroke="#666666" points="695.5,-759 612.5,-759 612.5,-740 695.5,-740 695.5,-759"/>
<text text-anchor="middle" x="654" y="-747" font-family="Helvetica,sans-Serif" font-size="10.00">CCDelayTime</text>
</a>
</g>
</g>
<!-- Node19&#45;&gt;Node56 -->
<g id="edge28" class="edge">
<title>Node19&#45;&gt;Node56</title>
<path fill="none" stroke="#63b8ff" d="M505.71,-602.91C516.02,-634.52 540.8,-696.96 584,-730.5 592.15,-736.82 602.26,-741.05 612.22,-743.86"/>
<polygon fill="#63b8ff" stroke="#63b8ff" points="508.97,-601.62 502.66,-593.11 502.29,-603.7 508.97,-601.62"/>
</g>
<!-- Node57 -->
<g id="node30" class="node">
<title>Node57</title>
<g id="a_node30"><a xlink:href="../../d7/d89/classcocos2d_1_1_c_c_fade_in.html" target="_top" xlink:title="Fades In an object that implements the CCRGBAProtocol protocol.">
<polygon fill="white" stroke="#666666" points="685,-722 623,-722 623,-703 685,-703 685,-722"/>
<text text-anchor="middle" x="654" y="-710" font-family="Helvetica,sans-Serif" font-size="10.00">CCFadeIn</text>
</a>
</g>
</g>
<!-- Node19&#45;&gt;Node57 -->
<g id="edge29" class="edge">
<title>Node19&#45;&gt;Node57</title>
<path fill="none" stroke="#63b8ff" d="M509.26,-602.17C522.45,-626.83 548.99,-669.87 584,-693.5 595.43,-701.22 609.92,-705.81 622.67,-708.54"/>
<polygon fill="#63b8ff" stroke="#63b8ff" points="512.29,-600.4 504.58,-593.13 506.07,-603.62 512.29,-600.4"/>
</g>
<!-- Node58 -->
<g id="node31" class="node">
<title>Node58</title>
<g id="a_node31"><a xlink:href="../../d6/d6d/classcocos2d_1_1_c_c_fade_out.html" target="_top" xlink:title="Fades Out an object that implements the CCRGBAProtocol protocol.">
<polygon fill="white" stroke="#666666" points="689,-685 619,-685 619,-666 689,-666 689,-685"/>
<text text-anchor="middle" x="654" y="-673" font-family="Helvetica,sans-Serif" font-size="10.00">CCFadeOut</text>
</a>
</g>
</g>
<!-- Node19&#45;&gt;Node58 -->
<g id="edge30" class="edge">
<title>Node19&#45;&gt;Node58</title>
<path fill="none" stroke="#63b8ff" d="M515.13,-600.48C530.8,-617.08 556.78,-641.91 584,-656.5 594.73,-662.25 607.36,-666.39 618.86,-669.3"/>
<polygon fill="#63b8ff" stroke="#63b8ff" points="517.65,-598.06 508.3,-593.08 512.51,-602.81 517.65,-598.06"/>
</g>
<!-- Node59 -->
<g id="node32" class="node">
<title>Node59</title>
<g id="a_node32"><a xlink:href="../../da/d44/classcocos2d_1_1_c_c_fade_to.html" target="_top" xlink:title="Fades an object that implements the CCRGBAProtocol protocol.">
<polygon fill="white" stroke="#666666" points="685.5,-648 622.5,-648 622.5,-629 685.5,-629 685.5,-648"/>
<text text-anchor="middle" x="654" y="-636" font-family="Helvetica,sans-Serif" font-size="10.00">CCFadeTo</text>
</a>
</g>
</g>
<!-- Node19&#45;&gt;Node59 -->
<g id="edge31" class="edge">
<title>Node19&#45;&gt;Node59</title>
<path fill="none" stroke="#63b8ff" d="M529.39,-597.26C545.34,-604.43 565.52,-613.03 584,-619.5 596.43,-623.85 610.4,-627.86 622.5,-631.06"/>
<polygon fill="#63b8ff" stroke="#63b8ff" points="530.61,-593.97 520.06,-593.02 527.71,-600.34 530.61,-593.97"/>
</g>
<!-- Node60 -->
<g id="node33" class="node">
<title>Node60</title>
<g id="a_node33"><a xlink:href="../../d5/d1e/classcocos2d_1_1_c_c_grid_action.html" target="_top" xlink:title="Base class for Grid actions.">
<polygon fill="#fff0f0" stroke="red" points="694.5,-611 613.5,-611 613.5,-592 694.5,-592 694.5,-611"/>
<text text-anchor="middle" x="654" y="-599" font-family="Helvetica,sans-Serif" font-size="10.00">CCGridAction</text>
</a>
</g>
</g>
<!-- Node19&#45;&gt;Node60 -->
<g id="edge32" class="edge">
<title>Node19&#45;&gt;Node60</title>
<path fill="none" stroke="#63b8ff" d="M558.38,-590.37C576.66,-592.52 596.4,-594.84 613.1,-596.81"/>
<polygon fill="#63b8ff" stroke="#63b8ff" points="558.75,-586.89 548.41,-589.2 557.93,-593.84 558.75,-586.89"/>
</g>
<!-- Node85 -->
<g id="node34" class="node">
<title>Node85</title>
<g id="a_node34"><a xlink:href="../../db/d25/classcocos2d_1_1_c_c_jump_by.html" target="_top" xlink:title="Moves a CCNode object simulating a parabolic jump movement by modifying it&#39;s position attribute.">
<polygon fill="#fff0f0" stroke="red" points="688,-574 620,-574 620,-555 688,-555 688,-574"/>
<text text-anchor="middle" x="654" y="-562" font-family="Helvetica,sans-Serif" font-size="10.00">CCJumpBy</text>
</a>
</g>
</g>
<!-- Node19&#45;&gt;Node85 -->
<g id="edge33" class="edge">
<title>Node19&#45;&gt;Node85</title>
<path fill="none" stroke="#63b8ff" d="M558.44,-576.24C579.25,-573.66 601.95,-570.84 619.9,-568.61"/>
<polygon fill="#63b8ff" stroke="#63b8ff" points="557.9,-572.78 548.41,-577.49 558.77,-579.73 557.9,-572.78"/>
</g>
<!-- Node87 -->
<g id="node35" class="node">
<title>Node87</title>
<g id="a_node35"><a xlink:href="../../dc/df6/classcocos2d_1_1_c_c_move_by.html" target="_top" xlink:title="Moves a CCNode object x,y pixels by modifying it&#39;s position attribute.">
<polygon fill="#fff0f0" stroke="red" points="689,-537 619,-537 619,-518 689,-518 689,-537"/>
<text text-anchor="middle" x="654" y="-525" font-family="Helvetica,sans-Serif" font-size="10.00">CCMoveBy</text>
</a>
</g>
</g>
<!-- Node19&#45;&gt;Node87 -->
<g id="edge34" class="edge">
<title>Node19&#45;&gt;Node87</title>
<path fill="none" stroke="#63b8ff" d="M528.01,-569.39C544.11,-561.64 564.88,-552.26 584,-545.5 595.2,-541.54 607.71,-538.01 618.96,-535.16"/>
<polygon fill="#63b8ff" stroke="#63b8ff" points="526.09,-566.43 518.64,-573.96 529.16,-572.72 526.09,-566.43"/>
</g>
<!-- Node89 -->
<g id="node36" class="node">
<title>Node89</title>
<g id="a_node36"><a xlink:href="../../d5/db1/classcocos2d_1_1_c_c_progress_from_to.html" target="_top" xlink:title="Progress from a percentage to another percentage.">
<polygon fill="white" stroke="#666666" points="707.5,-500 600.5,-500 600.5,-481 707.5,-481 707.5,-500"/>
<text text-anchor="middle" x="654" y="-488" font-family="Helvetica,sans-Serif" font-size="10.00">CCProgressFromTo</text>
</a>
</g>
</g>
<!-- Node19&#45;&gt;Node89 -->
<g id="edge35" class="edge">
<title>Node19&#45;&gt;Node89</title>
<path fill="none" stroke="#63b8ff" d="M514.74,-566.23C530.28,-549.1 556.31,-523.34 584,-508.5 590.33,-505.11 597.33,-502.33 604.38,-500.06"/>
<polygon fill="#63b8ff" stroke="#63b8ff" points="512,-564.05 507.99,-573.86 517.24,-568.69 512,-564.05"/>
</g>
<!-- Node90 -->
<g id="node37" class="node">
<title>Node90</title>
<g id="a_node37"><a xlink:href="../../d1/d5d/classcocos2d_1_1_c_c_progress_to.html" target="_top" xlink:title="Progress to percentage.">
<polygon fill="white" stroke="#666666" points="695.5,-463 612.5,-463 612.5,-444 695.5,-444 695.5,-463"/>
<text text-anchor="middle" x="654" y="-451" font-family="Helvetica,sans-Serif" font-size="10.00">CCProgressTo</text>
</a>
</g>
</g>
<!-- Node19&#45;&gt;Node90 -->
<g id="edge36" class="edge">
<title>Node19&#45;&gt;Node90</title>
<path fill="none" stroke="#63b8ff" d="M508.93,-564.79C521.9,-539.67 548.35,-495.43 584,-471.5 592.43,-465.84 602.54,-461.96 612.38,-459.3"/>
<polygon fill="#63b8ff" stroke="#63b8ff" points="505.68,-563.47 504.35,-573.98 511.94,-566.6 505.68,-563.47"/>
</g>
<!-- Node91 -->
<g id="node38" class="node">
<title>Node91</title>
<g id="a_node38"><a xlink:href="../../d9/d0b/classcocos2d_1_1_c_c_repeat.html" target="_top" xlink:title="Repeats an action a number of times.">
<polygon fill="white" stroke="#666666" points="686.5,-426 621.5,-426 621.5,-407 686.5,-407 686.5,-426"/>
<text text-anchor="middle" x="654" y="-414" font-family="Helvetica,sans-Serif" font-size="10.00">CCRepeat</text>
</a>
</g>
</g>
<!-- Node19&#45;&gt;Node91 -->
<g id="edge37" class="edge">
<title>Node19&#45;&gt;Node91</title>
<path fill="none" stroke="#63b8ff" d="M505.58,-563.76C515.71,-531.63 540.23,-468.22 584,-434.5 594.69,-426.27 608.79,-421.78 621.45,-419.34"/>
<polygon fill="#63b8ff" stroke="#63b8ff" points="502.11,-563.14 502.59,-573.72 508.82,-565.15 502.11,-563.14"/>
</g>
<!-- Node92 -->
<g id="node39" class="node">
<title>Node92</title>
<g id="a_node39"><a xlink:href="../../d4/deb/classcocos2d_1_1_c_c_repeat_forever.html" target="_top" xlink:title="Repeats an action for ever.">
<polygon fill="white" stroke="#666666" points="704.5,-389 603.5,-389 603.5,-370 704.5,-370 704.5,-389"/>
<text text-anchor="middle" x="654" y="-377" font-family="Helvetica,sans-Serif" font-size="10.00">CCRepeatForever</text>
</a>
</g>
</g>
<!-- Node19&#45;&gt;Node92 -->
<g id="edge38" class="edge">
<title>Node19&#45;&gt;Node92</title>
<path fill="none" stroke="#63b8ff" d="M503.17,-563.77C510.34,-525.67 531.5,-441.8 584,-397.5 589.58,-392.79 596.26,-389.29 603.22,-386.7"/>
<polygon fill="#63b8ff" stroke="#63b8ff" points="499.72,-563.18 501.43,-573.64 506.61,-564.4 499.72,-563.18"/>
</g>
<!-- Node93 -->
<g id="node40" class="node">
<title>Node93</title>
<g id="a_node40"><a xlink:href="../../de/d5f/classcocos2d_1_1_c_c_reverse_time.html" target="_top" xlink:title="Executes an action in reverse order, from time=duration to time=0.">
<polygon fill="white" stroke="#666666" points="701.5,-352 606.5,-352 606.5,-333 701.5,-333 701.5,-352"/>
<text text-anchor="middle" x="654" y="-340" font-family="Helvetica,sans-Serif" font-size="10.00">CCReverseTime</text>
</a>
</g>
</g>
<!-- Node19&#45;&gt;Node93 -->
<g id="edge39" class="edge">
<title>Node19&#45;&gt;Node93</title>
<path fill="none" stroke="#63b8ff" d="M501.52,-563.58C505.96,-519.99 522.75,-415.63 584,-360.5 590.35,-354.79 598.29,-350.84 606.5,-348.13"/>
<polygon fill="#63b8ff" stroke="#63b8ff" points="498.02,-563.46 500.61,-573.73 504.99,-564.09 498.02,-563.46"/>
</g>
<!-- Node94 -->
<g id="node41" class="node">
<title>Node94</title>
<g id="a_node41"><a xlink:href="../../d6/d57/classcocos2d_1_1_c_c_rotate_by.html" target="_top" xlink:title="Rotates a CCNode object clockwise a number of degrees by modifying it&#39;s rotation attribute.">
<polygon fill="white" stroke="#666666" points="691.5,-315 616.5,-315 616.5,-296 691.5,-296 691.5,-315"/>
<text text-anchor="middle" x="654" y="-303" font-family="Helvetica,sans-Serif" font-size="10.00">CCRotateBy</text>
</a>
</g>
</g>
<!-- Node19&#45;&gt;Node94 -->
<g id="edge40" class="edge">
<title>Node19&#45;&gt;Node94</title>
<path fill="none" stroke="#63b8ff" d="M500.29,-563.67C502.11,-515.19 513.75,-389.83 584,-323.5 592.73,-315.26 604.75,-310.67 616.32,-308.16"/>
<polygon fill="#63b8ff" stroke="#63b8ff" points="496.79,-563.68 500.01,-573.77 503.79,-563.87 496.79,-563.68"/>
</g>
<!-- Node95 -->
<g id="node42" class="node">
<title>Node95</title>
<g id="a_node42"><a xlink:href="../../d9/df5/classcocos2d_1_1_c_c_rotate_to.html" target="_top" xlink:title="Rotates a CCNode object to a certain angle by modifying it&#39;s rotation attribute.">
<polygon fill="white" stroke="#666666" points="690.5,-278 617.5,-278 617.5,-259 690.5,-259 690.5,-278"/>
<text text-anchor="middle" x="654" y="-266" font-family="Helvetica,sans-Serif" font-size="10.00">CCRotateTo</text>
</a>
</g>
</g>
<!-- Node19&#45;&gt;Node95 -->
<g id="edge41" class="edge">
<title>Node19&#45;&gt;Node95</title>
<path fill="none" stroke="#63b8ff" d="M499.35,-563.78C498.73,-510.81 504.66,-364.24 584,-286.5 592.84,-277.84 605.31,-273.19 617.21,-270.75"/>
<polygon fill="#63b8ff" stroke="#63b8ff" points="495.85,-563.94 499.56,-573.86 502.85,-563.79 495.85,-563.94"/>
</g>
<!-- Node96 -->
<g id="node43" class="node">
<title>Node96</title>
<g id="a_node43"><a xlink:href="../../da/d23/classcocos2d_1_1_c_c_scale_to.html" target="_top" xlink:title="Scales a CCNode object to a zoom factor by modifying it&#39;s scale attribute.">
<polygon fill="#fff0f0" stroke="red" points="687.5,-241 620.5,-241 620.5,-222 687.5,-222 687.5,-241"/>
<text text-anchor="middle" x="654" y="-229" font-family="Helvetica,sans-Serif" font-size="10.00">CCScaleTo</text>
</a>
</g>
</g>
<!-- Node19&#45;&gt;Node96 -->
<g id="edge42" class="edge">
<title>Node19&#45;&gt;Node96</title>
<path fill="none" stroke="#63b8ff" d="M502.33,-563.71C510.36,-498.97 538.83,-295.07 584,-249.5 593.5,-239.92 607.42,-235.23 620.27,-233.01"/>
<polygon fill="#63b8ff" stroke="#63b8ff" points="498.84,-563.45 501.11,-573.8 505.79,-564.29 498.84,-563.45"/>
</g>
<!-- Node98 -->
<g id="node44" class="node">
<title>Node98</title>
<g id="a_node44"><a xlink:href="../../dc/d7d/classcocos2d_1_1_c_c_sequence.html" target="_top" xlink:title="Runs actions sequentially, one after another.">
<polygon fill="white" stroke="#666666" points="692.5,-204 615.5,-204 615.5,-185 692.5,-185 692.5,-204"/>
<text text-anchor="middle" x="654" y="-192" font-family="Helvetica,sans-Serif" font-size="10.00">CCSequence</text>
</a>
</g>
</g>
<!-- Node19&#45;&gt;Node98 -->
<g id="edge43" class="edge">
<title>Node19&#45;&gt;Node98</title>
<path fill="none" stroke="#63b8ff" d="M501.79,-563.8C508.48,-494.6 534.18,-263.97 584,-212.5 592.18,-204.05 603.79,-199.39 615.16,-196.88"/>
<polygon fill="#63b8ff" stroke="#63b8ff" points="498.3,-563.52 500.85,-573.8 505.27,-564.17 498.3,-563.52"/>
</g>
<!-- Node99 -->
<g id="node45" class="node">
<title>Node99</title>
<g id="a_node45"><a xlink:href="../../de/d88/classcocos2d_1_1_c_c_skew_to.html" target="_top" xlink:title="Skews a CCNode object to given angles by modifying it&#39;s skewX and skewY attributes.">
<polygon fill="#fff0f0" stroke="red" points="687,-167 621,-167 621,-148 687,-148 687,-167"/>
<text text-anchor="middle" x="654" y="-155" font-family="Helvetica,sans-Serif" font-size="10.00">CCSkewTo</text>
</a>
</g>
</g>
<!-- Node19&#45;&gt;Node99 -->
<g id="edge44" class="edge">
<title>Node19&#45;&gt;Node99</title>
<path fill="none" stroke="#63b8ff" d="M501.36,-563.79C506.81,-490.21 529.53,-232.88 584,-175.5 593.46,-165.53 607.69,-160.83 620.77,-158.69"/>
<polygon fill="#63b8ff" stroke="#63b8ff" points="497.85,-563.74 500.63,-573.96 504.83,-564.24 497.85,-563.74"/>
</g>
<!-- Node101 -->
<g id="node46" class="node">
<title>Node101</title>
<g id="a_node46"><a xlink:href="../../db/d53/classcocos2d_1_1_c_c_spawn.html" target="_top" xlink:title="Spawn a new action immediately.">
<polygon fill="white" stroke="#666666" points="685,-130 623,-130 623,-111 685,-111 685,-130"/>
<text text-anchor="middle" x="654" y="-118" font-family="Helvetica,sans-Serif" font-size="10.00">CCSpawn</text>
</a>
</g>
</g>
<!-- Node19&#45;&gt;Node101 -->
<g id="edge45" class="edge">
<title>Node19&#45;&gt;Node101</title>
<path fill="none" stroke="#63b8ff" d="M501,-563.53C505.33,-485.43 524.93,-201.77 584,-138.5 593.88,-127.91 609.15,-123.24 622.81,-121.29"/>
<polygon fill="#63b8ff" stroke="#63b8ff" points="497.49,-563.71 500.45,-573.88 504.48,-564.08 497.49,-563.71"/>
</g>
<!-- Node102 -->
<g id="node47" class="node">
<title>Node102</title>
<g id="a_node47"><a xlink:href="../../d8/ddb/classcocos2d_1_1_c_c_targeted_action.html" target="_top" xlink:title="Overrides the target of an action so that it always runs on the target specified at action creation r...">
<polygon fill="white" stroke="#666666" points="705.5,-93 602.5,-93 602.5,-74 705.5,-74 705.5,-93"/>
<text text-anchor="middle" x="654" y="-81" font-family="Helvetica,sans-Serif" font-size="10.00">CCTargetedAction</text>
</a>
</g>
</g>
<!-- Node19&#45;&gt;Node102 -->
<g id="edge46" class="edge">
<title>Node19&#45;&gt;Node102</title>
<path fill="none" stroke="#63b8ff" d="M500.69,-563.48C503.93,-481.28 520.26,-170.74 584,-101.5 589.03,-96.04 595.49,-92.14 602.44,-89.39"/>
<polygon fill="#63b8ff" stroke="#63b8ff" points="497.18,-563.77 500.3,-573.9 504.17,-564.03 497.18,-563.77"/>
</g>
<!-- Node103 -->
<g id="node48" class="node">
<title>Node103</title>
<g id="a_node48"><a xlink:href="../../de/de1/classcocos2d_1_1_c_c_tint_by.html" target="_top" xlink:title="Tints a CCNode that implements the CCNodeRGB protocol from current tint to a custom one.">
<polygon fill="white" stroke="#666666" points="685,-56 623,-56 623,-37 685,-37 685,-56"/>
<text text-anchor="middle" x="654" y="-44" font-family="Helvetica,sans-Serif" font-size="10.00">CCTintBy</text>
</a>
</g>
</g>
<!-- Node19&#45;&gt;Node103 -->
<g id="edge47" class="edge">
<title>Node19&#45;&gt;Node103</title>
<path fill="none" stroke="#63b8ff" d="M500.41,-563.59C502.61,-477.69 515.53,-139.79 584,-64.5 593.75,-53.78 609,-49.1 622.68,-47.18"/>
<polygon fill="#63b8ff" stroke="#63b8ff" points="496.92,-563.51 500.18,-573.59 503.91,-563.67 496.92,-563.51"/>
</g>
<!-- Node104 -->
<g id="node49" class="node">
<title>Node104</title>
<g id="a_node49"><a xlink:href="../../dd/dfa/classcocos2d_1_1_c_c_tint_to.html" target="_top" xlink:title="Tints a CCNode that implements the CCNodeRGB protocol from current tint to a custom one.">
<polygon fill="white" stroke="#666666" points="683.5,-19 624.5,-19 624.5,0 683.5,0 683.5,-19"/>
<text text-anchor="middle" x="654" y="-7" font-family="Helvetica,sans-Serif" font-size="10.00">CCTintTo</text>
</a>
</g>
</g>
<!-- Node19&#45;&gt;Node104 -->
<g id="edge48" class="edge">
<title>Node19&#45;&gt;Node104</title>
<path fill="none" stroke="#63b8ff" d="M500.18,-563.63C501.39,-474.07 510.8,-108.84 584,-27.5 594.1,-16.27 610.25,-11.66 624.38,-9.9"/>
<polygon fill="#63b8ff" stroke="#63b8ff" points="496.68,-563.73 500.06,-573.77 503.68,-563.81 496.68,-563.73"/>
</g>
</g>
</svg>
