<?xml version="1.0" encoding="UTF-8" standalone="no"?>
<!DOCTYPE svg PUBLIC "-//W3C//DTD SVG 1.1//EN"
 "http://www.w3.org/Graphics/SVG/1.1/DTD/svg11.dtd">
<!-- Generated by graphviz version 2.43.0 (0)
 -->
<!-- Title: /home/runner/work/cocos&#45;headers/cocos&#45;headers/cocos2dx/actions/CCActionCatmullRom.h Pages: 1 -->
<svg width="2053pt" height="856pt"
 viewBox="0.00 0.00 2053.00 856.00" xmlns="http://www.w3.org/2000/svg" xmlns:xlink="http://www.w3.org/1999/xlink">
<g id="graph0" class="graph" transform="scale(1 1) rotate(0) translate(4 852)">
<title>/home/runner/work/cocos&#45;headers/cocos&#45;headers/cocos2dx/actions/CCActionCatmullRom.h</title>
<!-- Node1 -->
<g id="node1" class="node">
<title>Node1</title>
<g id="a_node1"><a xlink:title=" ">
<polygon fill="#bfbfbf" stroke="black" points="833.5,-806.5 833.5,-847.5 1054.5,-847.5 1054.5,-806.5 833.5,-806.5"/>
<text text-anchor="start" x="841.5" y="-835.5" font-family="Helvetica,sans-Serif" font-size="10.00">/home/runner/work/cocos</text>
<text text-anchor="start" x="841.5" y="-824.5" font-family="Helvetica,sans-Serif" font-size="10.00">&#45;headers/cocos&#45;headers</text>
<text text-anchor="middle" x="944" y="-813.5" font-family="Helvetica,sans-Serif" font-size="10.00">/cocos2dx/actions/CCActionCatmullRom.h</text>
</a>
</g>
</g>
<!-- Node2 -->
<g id="node2" class="node">
<title>Node2</title>
<g id="a_node2"><a xlink:title=" ">
<polygon fill="none" stroke="#bfbfbf" points="871.5,-694.5 871.5,-713.5 918.5,-713.5 918.5,-694.5 871.5,-694.5"/>
<text text-anchor="middle" x="895" y="-701.5" font-family="Helvetica,sans-Serif" font-size="10.00">vector</text>
</a>
</g>
</g>
<!-- Node1&#45;&gt;Node2 -->
<g id="edge1" class="edge">
<title>Node1&#45;&gt;Node2</title>
<path fill="none" stroke="midnightblue" d="M936.02,-806.29C926.65,-783.17 911.26,-745.16 902.23,-722.86"/>
<polygon fill="midnightblue" stroke="midnightblue" points="905.47,-721.53 898.47,-713.57 898.98,-724.16 905.47,-721.53"/>
</g>
<!-- Node3 -->
<g id="node3" class="node">
<title>Node3</title>
<g id="a_node3"><a xlink:href="../../da/d2c/_c_c_action_interval_8h.html" target="_top" xlink:title=" ">
<polygon fill="none" stroke="black" points="931.5,-750.5 931.5,-769.5 1038.5,-769.5 1038.5,-750.5 931.5,-750.5"/>
<text text-anchor="middle" x="985" y="-757.5" font-family="Helvetica,sans-Serif" font-size="10.00">CCActionInterval.h</text>
</a>
</g>
</g>
<!-- Node1&#45;&gt;Node3 -->
<g id="edge2" class="edge">
<title>Node1&#45;&gt;Node3</title>
<path fill="none" stroke="midnightblue" d="M956.3,-806.5C961.98,-797.49 968.67,-786.89 974.16,-778.19"/>
<polygon fill="midnightblue" stroke="midnightblue" points="977.17,-779.98 979.54,-769.65 971.25,-776.24 977.17,-779.98"/>
</g>
<!-- Node4 -->
<g id="node4" class="node">
<title>Node4</title>
<g id="a_node4"><a xlink:href="../../db/d7f/_c_c_node_8h.html" target="_top" xlink:title=" ">
<polygon fill="none" stroke="black" points="713.5,-582.5 713.5,-601.5 838.5,-601.5 838.5,-582.5 713.5,-582.5"/>
<text text-anchor="middle" x="776" y="-589.5" font-family="Helvetica,sans-Serif" font-size="10.00">base_nodes/CCNode.h</text>
</a>
</g>
</g>
<!-- Node1&#45;&gt;Node4 -->
<g id="edge85" class="edge">
<title>Node1&#45;&gt;Node4</title>
<path fill="none" stroke="midnightblue" d="M929.4,-806.23C912.93,-783.9 885.4,-746.44 862,-714 835.36,-677.08 804.54,-633.49 787.99,-610.02"/>
<polygon fill="midnightblue" stroke="midnightblue" points="790.63,-607.7 782.01,-601.54 784.91,-611.73 790.63,-607.7"/>
</g>
<!-- Node13 -->
<g id="node13" class="node">
<title>Node13</title>
<g id="a_node13"><a xlink:href="../../d6/d09/_c_c_geometry_8h.html" target="_top" xlink:title=" ">
<polygon fill="none" stroke="black" points="1163,-336.5 1163,-355.5 1249,-355.5 1249,-336.5 1163,-336.5"/>
<text text-anchor="middle" x="1206" y="-343.5" font-family="Helvetica,sans-Serif" font-size="10.00">CCGeometry.h</text>
</a>
</g>
</g>
<!-- Node1&#45;&gt;Node13 -->
<g id="edge86" class="edge">
<title>Node1&#45;&gt;Node13</title>
<path fill="none" stroke="midnightblue" d="M1054.55,-809.89C1158.42,-791.56 1298,-757.2 1298,-705 1298,-705 1298,-705 1298,-591 1298,-527 1329.7,-510.29 1315,-448 1308.61,-420.92 1306.24,-412.1 1287,-392 1273.64,-378.05 1254.99,-367.28 1238.96,-359.79"/>
<polygon fill="midnightblue" stroke="midnightblue" points="1239.94,-356.39 1229.38,-355.54 1237.1,-362.79 1239.94,-356.39"/>
</g>
<!-- Node3&#45;&gt;Node2 -->
<g id="edge84" class="edge">
<title>Node3&#45;&gt;Node2</title>
<path fill="none" stroke="midnightblue" d="M970.54,-750.32C956.5,-741.9 934.95,-728.97 918.46,-719.07"/>
<polygon fill="midnightblue" stroke="midnightblue" points="919.8,-715.8 909.42,-713.65 916.2,-721.8 919.8,-715.8"/>
</g>
<!-- Node3&#45;&gt;Node4 -->
<g id="edge3" class="edge">
<title>Node3&#45;&gt;Node4</title>
<path fill="none" stroke="midnightblue" d="M978.62,-750.35C968.7,-737.25 948.56,-711.98 928,-694 886.72,-657.89 831.77,-624.44 800.51,-606.56"/>
<polygon fill="midnightblue" stroke="midnightblue" points="802.04,-603.4 791.61,-601.52 798.59,-609.49 802.04,-603.4"/>
</g>
<!-- Node31 -->
<g id="node31" class="node">
<title>Node31</title>
<g id="a_node31"><a xlink:href="../../d8/d76/_c_c_protocols_8h.html" target="_top" xlink:title=" ">
<polygon fill="none" stroke="black" points="907,-521 907,-540 991,-540 991,-521 907,-521"/>
<text text-anchor="middle" x="949" y="-528" font-family="Helvetica,sans-Serif" font-size="10.00">CCProtocols.h</text>
</a>
</g>
</g>
<!-- Node3&#45;&gt;Node31 -->
<g id="edge61" class="edge">
<title>Node3&#45;&gt;Node31</title>
<path fill="none" stroke="midnightblue" d="M983.63,-750.36C978.36,-717.07 959.31,-596.65 951.94,-550.07"/>
<polygon fill="midnightblue" stroke="midnightblue" points="955.39,-549.48 950.37,-540.15 948.47,-550.57 955.39,-549.48"/>
</g>
<!-- Node34 -->
<g id="node34" class="node">
<title>Node34</title>
<g id="a_node34"><a xlink:href="../../d6/d35/_c_c_action_8h.html" target="_top" xlink:title=" ">
<polygon fill="none" stroke="black" points="988,-392.5 988,-411.5 1058,-411.5 1058,-392.5 988,-392.5"/>
<text text-anchor="middle" x="1023" y="-399.5" font-family="Helvetica,sans-Serif" font-size="10.00">CCAction.h</text>
</a>
</g>
</g>
<!-- Node3&#45;&gt;Node34 -->
<g id="edge57" class="edge">
<title>Node3&#45;&gt;Node34</title>
<path fill="none" stroke="midnightblue" d="M990.28,-750.23C1000.73,-732.04 1023,-688.6 1023,-649 1023,-649 1023,-649 1023,-529.5 1023,-491.2 1023,-446.38 1023,-421.7"/>
<polygon fill="midnightblue" stroke="midnightblue" points="1026.5,-421.59 1023,-411.59 1019.5,-421.59 1026.5,-421.59"/>
</g>
<!-- Node35 -->
<g id="node35" class="node">
<title>Node35</title>
<g id="a_node35"><a xlink:href="../../dd/d89/_c_c_sprite_frame_8h.html" target="_top" xlink:title=" ">
<polygon fill="none" stroke="black" points="1058,-638.5 1058,-657.5 1222,-657.5 1222,-638.5 1058,-638.5"/>
<text text-anchor="middle" x="1140" y="-645.5" font-family="Helvetica,sans-Serif" font-size="10.00">sprite_nodes/CCSpriteFrame.h</text>
</a>
</g>
</g>
<!-- Node3&#45;&gt;Node35 -->
<g id="edge62" class="edge">
<title>Node3&#45;&gt;Node35</title>
<path fill="none" stroke="midnightblue" d="M997.16,-750.37C1023.65,-731.57 1086.78,-686.77 1119.52,-663.53"/>
<polygon fill="midnightblue" stroke="midnightblue" points="1121.76,-666.23 1127.89,-657.59 1117.71,-660.52 1121.76,-666.23"/>
</g>
<!-- Node36 -->
<g id="node36" class="node">
<title>Node36</title>
<g id="a_node36"><a xlink:href="../../d2/dd6/_c_c_animation_8h.html" target="_top" xlink:title=" ">
<polygon fill="none" stroke="black" points="1454.5,-694.5 1454.5,-713.5 1609.5,-713.5 1609.5,-694.5 1454.5,-694.5"/>
<text text-anchor="middle" x="1532" y="-701.5" font-family="Helvetica,sans-Serif" font-size="10.00">sprite_nodes/CCAnimation.h</text>
</a>
</g>
</g>
<!-- Node3&#45;&gt;Node36 -->
<g id="edge67" class="edge">
<title>Node3&#45;&gt;Node36</title>
<path fill="none" stroke="midnightblue" d="M1038.69,-753.7C1133.15,-744.37 1329.85,-724.96 1444.28,-713.66"/>
<polygon fill="midnightblue" stroke="midnightblue" points="1444.8,-717.13 1454.41,-712.66 1444.12,-710.16 1444.8,-717.13"/>
</g>
<!-- Node5 -->
<g id="node5" class="node">
<title>Node5</title>
<g id="a_node5"><a xlink:href="../../d9/dc8/cc_macros_8h.html" target="_top" xlink:title=" ">
<polygon fill="none" stroke="black" points="502.5,-224.5 502.5,-243.5 573.5,-243.5 573.5,-224.5 502.5,-224.5"/>
<text text-anchor="middle" x="538" y="-231.5" font-family="Helvetica,sans-Serif" font-size="10.00">ccMacros.h</text>
</a>
</g>
</g>
<!-- Node4&#45;&gt;Node5 -->
<g id="edge4" class="edge">
<title>Node4&#45;&gt;Node5</title>
<path fill="none" stroke="midnightblue" d="M713.28,-590.97C559.09,-589.2 174,-573.83 174,-464.5 174,-464.5 174,-464.5 174,-345 174,-279.23 394.48,-249.21 492.25,-239.13"/>
<polygon fill="midnightblue" stroke="midnightblue" points="492.84,-242.58 502.44,-238.1 492.14,-235.62 492.84,-242.58"/>
</g>
<!-- Node12 -->
<g id="node12" class="node">
<title>Node12</title>
<g id="a_node12"><a xlink:href="../../d3/d15/_c_c_affine_transform_8h.html" target="_top" xlink:title=" ">
<polygon fill="none" stroke="black" points="430,-392.5 430,-411.5 578,-411.5 578,-392.5 430,-392.5"/>
<text text-anchor="middle" x="504" y="-399.5" font-family="Helvetica,sans-Serif" font-size="10.00">cocoa/CCAffineTransform.h</text>
</a>
</g>
</g>
<!-- Node4&#45;&gt;Node12 -->
<g id="edge13" class="edge">
<title>Node4&#45;&gt;Node12</title>
<path fill="none" stroke="midnightblue" d="M748.64,-582.36C726.08,-574.6 693.71,-561.97 668,-546 607.26,-508.26 546.67,-448.14 519.22,-419.37"/>
<polygon fill="midnightblue" stroke="midnightblue" points="521.51,-416.69 512.1,-411.82 516.42,-421.5 521.51,-416.69"/>
</g>
<!-- Node18 -->
<g id="node18" class="node">
<title>Node18</title>
<g id="a_node18"><a xlink:href="../../da/d35/_c_c_array_8h.html" target="_top" xlink:title=" ">
<polygon fill="none" stroke="black" points="1402.5,-521 1402.5,-540 1497.5,-540 1497.5,-521 1402.5,-521"/>
<text text-anchor="middle" x="1450" y="-528" font-family="Helvetica,sans-Serif" font-size="10.00">cocoa/CCArray.h</text>
</a>
</g>
</g>
<!-- Node4&#45;&gt;Node18 -->
<g id="edge23" class="edge">
<title>Node4&#45;&gt;Node18</title>
<path fill="none" stroke="midnightblue" d="M838.5,-585.48C968.48,-574.01 1266.3,-547.72 1392.16,-536.61"/>
<polygon fill="midnightblue" stroke="midnightblue" points="1392.7,-540.07 1402.36,-535.71 1392.09,-533.1 1392.7,-540.07"/>
</g>
<!-- Node20 -->
<g id="node20" class="node">
<title>Node20</title>
<g id="a_node20"><a xlink:title=" ">
<polygon fill="none" stroke="#bfbfbf" points="236,-336.5 236,-355.5 288,-355.5 288,-336.5 236,-336.5"/>
<text text-anchor="middle" x="262" y="-343.5" font-family="Helvetica,sans-Serif" font-size="10.00">CCGL.h</text>
</a>
</g>
</g>
<!-- Node4&#45;&gt;Node20 -->
<g id="edge25" class="edge">
<title>Node4&#45;&gt;Node20</title>
<path fill="none" stroke="midnightblue" d="M713.08,-582.51C665.9,-575.25 600.08,-563.23 544,-546 399.35,-501.56 314.33,-538.31 231,-412 220.74,-396.44 232.94,-376.97 244.92,-363.41"/>
<polygon fill="midnightblue" stroke="midnightblue" points="247.79,-365.47 252.15,-355.82 242.72,-360.64 247.79,-365.47"/>
</g>
<!-- Node21 -->
<g id="node21" class="node">
<title>Node21</title>
<g id="a_node21"><a xlink:href="../../da/d2f/cc_g_l_state_cache_8h.html" target="_top" xlink:title=" ">
<polygon fill="none" stroke="black" points="0,-392.5 0,-411.5 146,-411.5 146,-392.5 0,-392.5"/>
<text text-anchor="middle" x="73" y="-399.5" font-family="Helvetica,sans-Serif" font-size="10.00">shaders/ccGLStateCache.h</text>
</a>
</g>
</g>
<!-- Node4&#45;&gt;Node21 -->
<g id="edge26" class="edge">
<title>Node4&#45;&gt;Node21</title>
<path fill="none" stroke="midnightblue" d="M713.42,-589.65C566.12,-586.03 206.41,-574.36 160,-546 113.2,-517.4 88.12,-453.24 78.17,-421.5"/>
<polygon fill="midnightblue" stroke="midnightblue" points="81.47,-420.33 75.27,-411.74 74.76,-422.32 81.47,-420.33"/>
</g>
<!-- Node22 -->
<g id="node22" class="node">
<title>Node22</title>
<g id="a_node22"><a xlink:href="../../de/d32/_c_c_g_l_program_8h.html" target="_top" xlink:title=" ">
<polygon fill="none" stroke="black" points="240,-392.5 240,-411.5 374,-411.5 374,-392.5 240,-392.5"/>
<text text-anchor="middle" x="307" y="-399.5" font-family="Helvetica,sans-Serif" font-size="10.00">shaders/CCGLProgram.h</text>
</a>
</g>
</g>
<!-- Node4&#45;&gt;Node22 -->
<g id="edge29" class="edge">
<title>Node4&#45;&gt;Node22</title>
<path fill="none" stroke="midnightblue" d="M742.13,-582.49C710.83,-574.28 663.23,-560.94 623,-546 512.46,-504.96 386.14,-443.04 332.86,-416.19"/>
<polygon fill="midnightblue" stroke="midnightblue" points="334.28,-412.99 323.78,-411.6 331.12,-419.24 334.28,-412.99"/>
</g>
<!-- Node23 -->
<g id="node23" class="node">
<title>Node23</title>
<g id="a_node23"><a xlink:title=" ">
<polygon fill="none" stroke="#bfbfbf" points="677.5,-521 677.5,-540 790.5,-540 790.5,-521 677.5,-521"/>
<text text-anchor="middle" x="734" y="-528" font-family="Helvetica,sans-Serif" font-size="10.00">kazmath/kazmath.h</text>
</a>
</g>
</g>
<!-- Node4&#45;&gt;Node23 -->
<g id="edge33" class="edge">
<title>Node4&#45;&gt;Node23</title>
<path fill="none" stroke="midnightblue" d="M769.98,-582.48C763.74,-573.64 753.83,-559.59 745.98,-548.48"/>
<polygon fill="midnightblue" stroke="midnightblue" points="748.63,-546.16 740.01,-540.01 742.91,-550.2 748.63,-546.16"/>
</g>
<!-- Node24 -->
<g id="node24" class="node">
<title>Node24</title>
<g id="a_node24"><a xlink:href="../../dc/dbc/_c_c_script_support_8h.html" target="_top" xlink:title=" ">
<polygon fill="none" stroke="black" points="731,-454 731,-473 907,-473 907,-454 731,-454"/>
<text text-anchor="middle" x="819" y="-461" font-family="Helvetica,sans-Serif" font-size="10.00">script_support/CCScriptSupport.h</text>
</a>
</g>
</g>
<!-- Node4&#45;&gt;Node24 -->
<g id="edge34" class="edge">
<title>Node4&#45;&gt;Node24</title>
<path fill="none" stroke="midnightblue" d="M781.21,-582.31C786.34,-573.44 794.1,-559.16 799,-546 806.77,-525.15 812.39,-500.16 815.66,-483.4"/>
<polygon fill="midnightblue" stroke="midnightblue" points="819.15,-483.73 817.54,-473.26 812.27,-482.45 819.15,-483.73"/>
</g>
<!-- Node4&#45;&gt;Node31 -->
<g id="edge46" class="edge">
<title>Node4&#45;&gt;Node31</title>
<path fill="none" stroke="midnightblue" d="M800.79,-582.48C830.59,-572.22 880.79,-554.96 914.4,-543.4"/>
<polygon fill="midnightblue" stroke="midnightblue" points="915.94,-546.57 924.26,-540.01 913.66,-539.95 915.94,-546.57"/>
</g>
<!-- Node6 -->
<g id="node6" class="node">
<title>Node6</title>
<g id="a_node6"><a xlink:href="../../d5/d22/_c_c_common_8h.html" target="_top" xlink:title=" ">
<polygon fill="none" stroke="black" points="415,-168.5 415,-187.5 543,-187.5 543,-168.5 415,-168.5"/>
<text text-anchor="middle" x="479" y="-175.5" font-family="Helvetica,sans-Serif" font-size="10.00">platform/CCCommon.h</text>
</a>
</g>
</g>
<!-- Node5&#45;&gt;Node6 -->
<g id="edge5" class="edge">
<title>Node5&#45;&gt;Node6</title>
<path fill="none" stroke="midnightblue" d="M528.52,-224.32C519.8,-216.34 506.66,-204.31 496.1,-194.65"/>
<polygon fill="midnightblue" stroke="midnightblue" points="498.39,-192 488.65,-187.83 493.67,-197.17 498.39,-192"/>
</g>
<!-- Node8 -->
<g id="node8" class="node">
<title>Node8</title>
<g id="a_node8"><a xlink:href="../../db/d9f/cc_config_8h.html" target="_top" xlink:title="cocos2d (cc) configuration file">
<polygon fill="none" stroke="black" points="769.5,-56.5 769.5,-75.5 836.5,-75.5 836.5,-56.5 769.5,-56.5"/>
<text text-anchor="middle" x="803" y="-63.5" font-family="Helvetica,sans-Serif" font-size="10.00">ccConfig.h</text>
</a>
</g>
</g>
<!-- Node5&#45;&gt;Node8 -->
<g id="edge12" class="edge">
<title>Node5&#45;&gt;Node8</title>
<path fill="none" stroke="midnightblue" d="M557.82,-224.42C577.11,-215.86 607.08,-202 632,-188 690.58,-155.09 753.68,-106.66 784.25,-82.25"/>
<polygon fill="midnightblue" stroke="midnightblue" points="786.72,-84.76 792.32,-75.76 782.34,-79.3 786.72,-84.76"/>
</g>
<!-- Node11 -->
<g id="node11" class="node">
<title>Node11</title>
<g id="a_node11"><a xlink:title=" ">
<polygon fill="none" stroke="#bfbfbf" points="561,-168.5 561,-187.5 623,-187.5 623,-168.5 561,-168.5"/>
<text text-anchor="middle" x="592" y="-175.5" font-family="Helvetica,sans-Serif" font-size="10.00">CCStdC.h</text>
</a>
</g>
</g>
<!-- Node5&#45;&gt;Node11 -->
<g id="edge11" class="edge">
<title>Node5&#45;&gt;Node11</title>
<path fill="none" stroke="midnightblue" d="M546.92,-224.08C554.78,-216.22 566.43,-204.57 575.92,-195.08"/>
<polygon fill="midnightblue" stroke="midnightblue" points="578.65,-197.3 583.25,-187.75 573.7,-192.35 578.65,-197.3"/>
</g>
<!-- Node7 -->
<g id="node7" class="node">
<title>Node7</title>
<g id="a_node7"><a xlink:href="../../d3/d41/_c_c_platform_macros_8h.html" target="_top" xlink:title=" ">
<polygon fill="none" stroke="black" points="593,-112.5 593,-131.5 709,-131.5 709,-112.5 593,-112.5"/>
<text text-anchor="middle" x="651" y="-119.5" font-family="Helvetica,sans-Serif" font-size="10.00">CCPlatformMacros.h</text>
</a>
</g>
</g>
<!-- Node6&#45;&gt;Node7 -->
<g id="edge6" class="edge">
<title>Node6&#45;&gt;Node7</title>
<path fill="none" stroke="midnightblue" d="M506.25,-168.44C535.44,-159.28 581.92,-144.69 614.31,-134.52"/>
<polygon fill="midnightblue" stroke="midnightblue" points="615.38,-137.85 623.87,-131.52 613.28,-131.17 615.38,-137.85"/>
</g>
<!-- Node7&#45;&gt;Node8 -->
<g id="edge7" class="edge">
<title>Node7&#45;&gt;Node8</title>
<path fill="none" stroke="midnightblue" d="M675.08,-112.44C700.54,-103.4 740.89,-89.06 769.46,-78.92"/>
<polygon fill="midnightblue" stroke="midnightblue" points="770.78,-82.16 779.03,-75.52 768.43,-75.57 770.78,-82.16"/>
</g>
<!-- Node9 -->
<g id="node9" class="node">
<title>Node9</title>
<g id="a_node9"><a xlink:href="../../dd/d96/_c_c_platform_config_8h.html" target="_top" xlink:title=" ">
<polygon fill="none" stroke="black" points="724.5,-0.5 724.5,-19.5 881.5,-19.5 881.5,-0.5 724.5,-0.5"/>
<text text-anchor="middle" x="803" y="-7.5" font-family="Helvetica,sans-Serif" font-size="10.00">platform/CCPlatformConfig.h</text>
</a>
</g>
</g>
<!-- Node7&#45;&gt;Node9 -->
<g id="edge9" class="edge">
<title>Node7&#45;&gt;Node9</title>
<path fill="none" stroke="midnightblue" d="M643.22,-112.14C632.45,-98.76 615.73,-73.14 629,-56 641.44,-39.93 686.27,-28.56 727.31,-21.27"/>
<polygon fill="midnightblue" stroke="midnightblue" points="728.1,-24.69 737.36,-19.55 726.91,-17.79 728.1,-24.69"/>
</g>
<!-- Node10 -->
<g id="node10" class="node">
<title>Node10</title>
<g id="a_node10"><a xlink:title=" ">
<polygon fill="none" stroke="#bfbfbf" points="638.5,-56.5 638.5,-75.5 751.5,-75.5 751.5,-56.5 638.5,-56.5"/>
<text text-anchor="middle" x="695" y="-63.5" font-family="Helvetica,sans-Serif" font-size="10.00">CCPlatformDefine.h</text>
</a>
</g>
</g>
<!-- Node7&#45;&gt;Node10 -->
<g id="edge10" class="edge">
<title>Node7&#45;&gt;Node10</title>
<path fill="none" stroke="midnightblue" d="M658.27,-112.08C664.54,-104.38 673.79,-93.03 681.43,-83.65"/>
<polygon fill="midnightblue" stroke="midnightblue" points="684.27,-85.71 687.87,-75.75 678.84,-81.29 684.27,-85.71"/>
</g>
<!-- Node8&#45;&gt;Node9 -->
<g id="edge8" class="edge">
<title>Node8&#45;&gt;Node9</title>
<path fill="none" stroke="midnightblue" d="M803,-56.08C803,-49.01 803,-38.86 803,-29.99"/>
<polygon fill="midnightblue" stroke="midnightblue" points="806.5,-29.75 803,-19.75 799.5,-29.75 806.5,-29.75"/>
</g>
<!-- Node12&#45;&gt;Node7 -->
<g id="edge22" class="edge">
<title>Node12&#45;&gt;Node7</title>
<path fill="none" stroke="midnightblue" d="M494.6,-392.43C459.94,-359.86 344.49,-241.84 406,-168 428.14,-141.43 518.25,-130.49 582.75,-126.03"/>
<polygon fill="midnightblue" stroke="midnightblue" points="583.12,-129.51 592.87,-125.37 582.67,-122.53 583.12,-129.51"/>
</g>
<!-- Node12&#45;&gt;Node13 -->
<g id="edge14" class="edge">
<title>Node12&#45;&gt;Node13</title>
<path fill="none" stroke="midnightblue" d="M578.13,-395.3C720.4,-384.35 1028.59,-360.65 1152.66,-351.1"/>
<polygon fill="midnightblue" stroke="midnightblue" points="1152.98,-354.59 1162.68,-350.33 1152.44,-347.61 1152.98,-354.59"/>
</g>
<!-- Node13&#45;&gt;Node7 -->
<g id="edge15" class="edge">
<title>Node13&#45;&gt;Node7</title>
<path fill="none" stroke="midnightblue" d="M1162.76,-344.96C1076.75,-342.97 880.86,-328.67 746,-244 704.68,-218.06 673.96,-167.53 659.75,-140.71"/>
<polygon fill="midnightblue" stroke="midnightblue" points="662.8,-139 655.12,-131.7 656.57,-142.19 662.8,-139"/>
</g>
<!-- Node14 -->
<g id="node14" class="node">
<title>Node14</title>
<g id="a_node14"><a xlink:href="../../dd/d69/_c_c_object_8h.html" target="_top" xlink:title=" ">
<polygon fill="none" stroke="black" points="1258.5,-280.5 1258.5,-299.5 1329.5,-299.5 1329.5,-280.5 1258.5,-280.5"/>
<text text-anchor="middle" x="1294" y="-287.5" font-family="Helvetica,sans-Serif" font-size="10.00">CCObject.h</text>
</a>
</g>
</g>
<!-- Node13&#45;&gt;Node14 -->
<g id="edge16" class="edge">
<title>Node13&#45;&gt;Node14</title>
<path fill="none" stroke="midnightblue" d="M1220.14,-336.32C1233.87,-327.9 1254.94,-314.97 1271.06,-305.07"/>
<polygon fill="midnightblue" stroke="midnightblue" points="1273.2,-307.87 1279.9,-299.65 1269.54,-301.9 1273.2,-307.87"/>
</g>
<!-- Node17 -->
<g id="node17" class="node">
<title>Node17</title>
<g id="a_node17"><a xlink:title=" ">
<polygon fill="none" stroke="#bfbfbf" points="1180.5,-280.5 1180.5,-299.5 1231.5,-299.5 1231.5,-280.5 1180.5,-280.5"/>
<text text-anchor="middle" x="1206" y="-287.5" font-family="Helvetica,sans-Serif" font-size="10.00">math.h</text>
</a>
</g>
</g>
<!-- Node13&#45;&gt;Node17 -->
<g id="edge21" class="edge">
<title>Node13&#45;&gt;Node17</title>
<path fill="none" stroke="midnightblue" d="M1206,-336.08C1206,-329.01 1206,-318.86 1206,-309.99"/>
<polygon fill="midnightblue" stroke="midnightblue" points="1209.5,-309.75 1206,-299.75 1202.5,-309.75 1209.5,-309.75"/>
</g>
<!-- Node14&#45;&gt;Node5 -->
<g id="edge20" class="edge">
<title>Node14&#45;&gt;Node5</title>
<path fill="none" stroke="midnightblue" d="M1258.44,-282.44C1252.62,-281.52 1246.65,-280.66 1241,-280 1112.84,-265.06 718.36,-244.18 583.64,-237.3"/>
<polygon fill="midnightblue" stroke="midnightblue" points="583.82,-233.8 573.65,-236.79 583.46,-240.79 583.82,-233.8"/>
</g>
<!-- Node15 -->
<g id="node15" class="node">
<title>Node15</title>
<g id="a_node15"><a xlink:href="../../d9/d2d/_c_c_data_visitor_8h.html" target="_top" xlink:title=" ">
<polygon fill="none" stroke="black" points="755.5,-224.5 755.5,-243.5 848.5,-243.5 848.5,-224.5 755.5,-224.5"/>
<text text-anchor="middle" x="802" y="-231.5" font-family="Helvetica,sans-Serif" font-size="10.00">CCDataVisitor.h</text>
</a>
</g>
</g>
<!-- Node14&#45;&gt;Node15 -->
<g id="edge17" class="edge">
<title>Node14&#45;&gt;Node15</title>
<path fill="none" stroke="midnightblue" d="M1258.41,-282.62C1252.6,-281.68 1246.64,-280.77 1241,-280 1104.18,-261.39 942.41,-246.68 858.65,-239.6"/>
<polygon fill="midnightblue" stroke="midnightblue" points="858.84,-236.11 848.58,-238.76 858.25,-243.08 858.84,-236.11"/>
</g>
<!-- Node15&#45;&gt;Node7 -->
<g id="edge18" class="edge">
<title>Node15&#45;&gt;Node7</title>
<path fill="none" stroke="midnightblue" d="M795.32,-224.06C784.89,-210.58 763.59,-184.83 741,-168 723.15,-154.7 700.78,-143.49 682.8,-135.59"/>
<polygon fill="midnightblue" stroke="midnightblue" points="683.9,-132.25 673.33,-131.55 681.15,-138.69 683.9,-132.25"/>
</g>
<!-- Node16 -->
<g id="node16" class="node">
<title>Node16</title>
<g id="a_node16"><a xlink:title=" ">
<polygon fill="none" stroke="#bfbfbf" points="916,-168.5 916,-187.5 960,-187.5 960,-168.5 916,-168.5"/>
<text text-anchor="middle" x="938" y="-175.5" font-family="Helvetica,sans-Serif" font-size="10.00">string</text>
</a>
</g>
</g>
<!-- Node15&#45;&gt;Node16 -->
<g id="edge19" class="edge">
<title>Node15&#45;&gt;Node16</title>
<path fill="none" stroke="midnightblue" d="M823.55,-224.44C846.03,-215.52 881.49,-201.44 906.98,-191.32"/>
<polygon fill="midnightblue" stroke="midnightblue" points="908.55,-194.46 916.55,-187.52 905.97,-187.95 908.55,-194.46"/>
</g>
<!-- Node19 -->
<g id="node19" class="node">
<title>Node19</title>
<g id="a_node19"><a xlink:title=" ">
<polygon fill="none" stroke="#bfbfbf" points="1438,-448.5 1438,-478.5 1558,-478.5 1558,-448.5 1438,-448.5"/>
<text text-anchor="start" x="1446" y="-466.5" font-family="Helvetica,sans-Serif" font-size="10.00">support/data_support</text>
<text text-anchor="middle" x="1498" y="-455.5" font-family="Helvetica,sans-Serif" font-size="10.00">/ccCArray.h</text>
</a>
</g>
</g>
<!-- Node18&#45;&gt;Node19 -->
<g id="edge24" class="edge">
<title>Node18&#45;&gt;Node19</title>
<path fill="none" stroke="midnightblue" d="M1456.47,-520.73C1462.9,-512.03 1473.01,-498.34 1481.64,-486.65"/>
<polygon fill="midnightblue" stroke="midnightblue" points="1484.47,-488.71 1487.6,-478.59 1478.84,-484.55 1484.47,-488.71"/>
</g>
<!-- Node21&#45;&gt;Node7 -->
<g id="edge28" class="edge">
<title>Node21&#45;&gt;Node7</title>
<path fill="none" stroke="midnightblue" d="M77.32,-392.41C86.05,-374.2 105,-330.18 105,-291 105,-291 105,-291 105,-233 105,-136.62 436.06,-123.64 582.6,-122.62"/>
<polygon fill="midnightblue" stroke="midnightblue" points="582.85,-126.12 592.83,-122.56 582.81,-119.12 582.85,-126.12"/>
</g>
<!-- Node21&#45;&gt;Node20 -->
<g id="edge27" class="edge">
<title>Node21&#45;&gt;Node20</title>
<path fill="none" stroke="midnightblue" d="M102.95,-392.44C136.29,-382.92 190.18,-367.52 225.85,-357.33"/>
<polygon fill="midnightblue" stroke="midnightblue" points="227.19,-360.59 235.84,-354.47 225.27,-353.85 227.19,-360.59"/>
</g>
<!-- Node22&#45;&gt;Node5 -->
<g id="edge30" class="edge">
<title>Node22&#45;&gt;Node5</title>
<path fill="none" stroke="midnightblue" d="M319.09,-392.31C356.6,-365.36 471.19,-283.01 517.88,-249.46"/>
<polygon fill="midnightblue" stroke="midnightblue" points="519.95,-252.28 526.03,-243.61 515.86,-246.6 519.95,-252.28"/>
</g>
<!-- Node22&#45;&gt;Node14 -->
<g id="edge31" class="edge">
<title>Node22&#45;&gt;Node14</title>
<path fill="none" stroke="midnightblue" d="M374.28,-395.13C528.12,-381.41 917.3,-344.94 1241,-300 1243.38,-299.67 1245.82,-299.31 1248.27,-298.94"/>
<polygon fill="midnightblue" stroke="midnightblue" points="1249.08,-302.36 1258.41,-297.35 1247.99,-295.45 1249.08,-302.36"/>
</g>
<!-- Node22&#45;&gt;Node20 -->
<g id="edge32" class="edge">
<title>Node22&#45;&gt;Node20</title>
<path fill="none" stroke="midnightblue" d="M299.57,-392.08C293.15,-384.38 283.69,-373.03 275.88,-363.65"/>
<polygon fill="midnightblue" stroke="midnightblue" points="278.38,-361.19 269.29,-355.75 273.01,-365.67 278.38,-361.19"/>
</g>
<!-- Node24&#45;&gt;Node6 -->
<g id="edge35" class="edge">
<title>Node24&#45;&gt;Node6</title>
<path fill="none" stroke="midnightblue" d="M730.73,-457.4C619.73,-450.07 441.15,-434.86 421,-412 364.77,-348.19 435.01,-238.09 465.85,-196.02"/>
<polygon fill="midnightblue" stroke="midnightblue" points="468.73,-198 471.93,-187.9 463.13,-193.8 468.73,-198"/>
</g>
<!-- Node24&#45;&gt;Node16 -->
<g id="edge44" class="edge">
<title>Node24&#45;&gt;Node16</title>
<path fill="none" stroke="midnightblue" d="M734.19,-454C688.74,-445.27 645.37,-427.63 663,-392 711.1,-294.8 771.59,-310.83 857,-244 878.45,-227.22 902.78,-207.61 919.13,-194.36"/>
<polygon fill="midnightblue" stroke="midnightblue" points="921.77,-196.73 927.32,-187.71 917.35,-191.29 921.77,-196.73"/>
</g>
<!-- Node25 -->
<g id="node25" class="node">
<title>Node25</title>
<g id="a_node25"><a xlink:title=" ">
<polygon fill="none" stroke="#bfbfbf" points="672,-392.5 672,-411.5 782,-411.5 782,-392.5 672,-392.5"/>
<text text-anchor="middle" x="727" y="-399.5" font-family="Helvetica,sans-Serif" font-size="10.00">CCAccelerometer.h</text>
</a>
</g>
</g>
<!-- Node24&#45;&gt;Node25 -->
<g id="edge36" class="edge">
<title>Node24&#45;&gt;Node25</title>
<path fill="none" stroke="midnightblue" d="M805.82,-453.98C790.93,-444.34 766.46,-428.52 748.73,-417.05"/>
<polygon fill="midnightblue" stroke="midnightblue" points="750.45,-414 740.16,-411.51 746.65,-419.88 750.45,-414"/>
</g>
<!-- Node26 -->
<g id="node26" class="node">
<title>Node26</title>
<g id="a_node26"><a xlink:href="../../d3/dff/_c_c_touch_8h.html" target="_top" xlink:title=" ">
<polygon fill="none" stroke="black" points="1076.5,-392.5 1076.5,-411.5 1229.5,-411.5 1229.5,-392.5 1076.5,-392.5"/>
<text text-anchor="middle" x="1153" y="-399.5" font-family="Helvetica,sans-Serif" font-size="10.00">touch_dispatcher/CCTouch.h</text>
</a>
</g>
</g>
<!-- Node24&#45;&gt;Node26 -->
<g id="edge37" class="edge">
<title>Node24&#45;&gt;Node26</title>
<path fill="none" stroke="midnightblue" d="M866.85,-453.98C927.12,-443.24 1030.59,-424.81 1095.21,-413.29"/>
<polygon fill="midnightblue" stroke="midnightblue" points="1096,-416.71 1105.23,-411.51 1094.78,-409.82 1096,-416.71"/>
</g>
<!-- Node27 -->
<g id="node27" class="node">
<title>Node27</title>
<g id="a_node27"><a xlink:href="../../da/ddc/_c_c_set_8h.html" target="_top" xlink:title=" ">
<polygon fill="none" stroke="black" points="1400,-392.5 1400,-411.5 1486,-411.5 1486,-392.5 1400,-392.5"/>
<text text-anchor="middle" x="1443" y="-399.5" font-family="Helvetica,sans-Serif" font-size="10.00">cocoa/CCSet.h</text>
</a>
</g>
</g>
<!-- Node24&#45;&gt;Node27 -->
<g id="edge40" class="edge">
<title>Node24&#45;&gt;Node27</title>
<path fill="none" stroke="midnightblue" d="M907.08,-454.1C1038.56,-441.56 1282.18,-418.33 1389.67,-408.09"/>
<polygon fill="midnightblue" stroke="midnightblue" points="1390.02,-411.57 1399.64,-407.13 1389.35,-404.6 1390.02,-411.57"/>
</g>
<!-- Node29 -->
<g id="node29" class="node">
<title>Node29</title>
<g id="a_node29"><a xlink:title=" ">
<polygon fill="none" stroke="#bfbfbf" points="800,-392.5 800,-411.5 838,-411.5 838,-392.5 800,-392.5"/>
<text text-anchor="middle" x="819" y="-399.5" font-family="Helvetica,sans-Serif" font-size="10.00">map</text>
</a>
</g>
</g>
<!-- Node24&#45;&gt;Node29 -->
<g id="edge43" class="edge">
<title>Node24&#45;&gt;Node29</title>
<path fill="none" stroke="midnightblue" d="M819,-453.98C819,-445.58 819,-432.48 819,-421.66"/>
<polygon fill="midnightblue" stroke="midnightblue" points="822.5,-421.51 819,-411.51 815.5,-421.51 822.5,-421.51"/>
</g>
<!-- Node30 -->
<g id="node30" class="node">
<title>Node30</title>
<g id="a_node30"><a xlink:title=" ">
<polygon fill="none" stroke="#bfbfbf" points="856,-392.5 856,-411.5 888,-411.5 888,-392.5 856,-392.5"/>
<text text-anchor="middle" x="872" y="-399.5" font-family="Helvetica,sans-Serif" font-size="10.00">list</text>
</a>
</g>
</g>
<!-- Node24&#45;&gt;Node30 -->
<g id="edge45" class="edge">
<title>Node24&#45;&gt;Node30</title>
<path fill="none" stroke="midnightblue" d="M826.59,-453.98C834.7,-444.87 847.73,-430.24 857.76,-418.98"/>
<polygon fill="midnightblue" stroke="midnightblue" points="860.38,-421.3 864.42,-411.51 855.16,-416.65 860.38,-421.3"/>
</g>
<!-- Node26&#45;&gt;Node13 -->
<g id="edge39" class="edge">
<title>Node26&#45;&gt;Node13</title>
<path fill="none" stroke="midnightblue" d="M1161.75,-392.08C1169.47,-384.22 1180.9,-372.57 1190.22,-363.08"/>
<polygon fill="midnightblue" stroke="midnightblue" points="1192.9,-365.34 1197.41,-355.75 1187.91,-360.44 1192.9,-365.34"/>
</g>
<!-- Node26&#45;&gt;Node14 -->
<g id="edge38" class="edge">
<title>Node26&#45;&gt;Node14</title>
<path fill="none" stroke="midnightblue" d="M1187.89,-392.38C1210.02,-385.49 1238.14,-373.95 1258,-356 1272.03,-343.32 1281.8,-323.84 1287.59,-309.51"/>
<polygon fill="midnightblue" stroke="midnightblue" points="1291.01,-310.35 1291.24,-299.76 1284.45,-307.89 1291.01,-310.35"/>
</g>
<!-- Node27&#45;&gt;Node14 -->
<g id="edge42" class="edge">
<title>Node27&#45;&gt;Node14</title>
<path fill="none" stroke="midnightblue" d="M1442.88,-392.18C1442.21,-378.39 1438.92,-351.67 1424,-336 1402,-312.89 1367.56,-301.65 1339.65,-296.18"/>
<polygon fill="midnightblue" stroke="midnightblue" points="1340.16,-292.71 1329.7,-294.41 1338.93,-299.61 1340.16,-292.71"/>
</g>
<!-- Node28 -->
<g id="node28" class="node">
<title>Node28</title>
<g id="a_node28"><a xlink:title=" ">
<polygon fill="none" stroke="#bfbfbf" points="1383,-336.5 1383,-355.5 1415,-355.5 1415,-336.5 1383,-336.5"/>
<text text-anchor="middle" x="1399" y="-343.5" font-family="Helvetica,sans-Serif" font-size="10.00">set</text>
</a>
</g>
</g>
<!-- Node27&#45;&gt;Node28 -->
<g id="edge41" class="edge">
<title>Node27&#45;&gt;Node28</title>
<path fill="none" stroke="midnightblue" d="M1435.73,-392.08C1429.46,-384.38 1420.21,-373.03 1412.57,-363.65"/>
<polygon fill="midnightblue" stroke="midnightblue" points="1415.16,-361.29 1406.13,-355.75 1409.73,-365.71 1415.16,-361.29"/>
</g>
<!-- Node31&#45;&gt;Node16 -->
<g id="edge56" class="edge">
<title>Node31&#45;&gt;Node16</title>
<path fill="none" stroke="midnightblue" d="M906.73,-529.27C835.31,-526.19 694.65,-507.73 655,-412 636.8,-368.07 739.98,-228.52 746,-224 793.36,-188.42 864.42,-180.38 905.5,-178.9"/>
<polygon fill="midnightblue" stroke="midnightblue" points="905.84,-182.4 915.76,-178.65 905.67,-175.4 905.84,-182.4"/>
</g>
<!-- Node32 -->
<g id="node32" class="node">
<title>Node32</title>
<g id="a_node32"><a xlink:href="../../df/de6/cc_types_8h.html" target="_top" xlink:title=" ">
<polygon fill="none" stroke="black" points="906,-392.5 906,-411.5 970,-411.5 970,-392.5 906,-392.5"/>
<text text-anchor="middle" x="938" y="-399.5" font-family="Helvetica,sans-Serif" font-size="10.00">ccTypes.h</text>
</a>
</g>
</g>
<!-- Node31&#45;&gt;Node32 -->
<g id="edge47" class="edge">
<title>Node31&#45;&gt;Node32</title>
<path fill="none" stroke="midnightblue" d="M948.24,-520.81C946.48,-500.49 942.05,-449.55 939.63,-421.78"/>
<polygon fill="midnightblue" stroke="midnightblue" points="943.11,-421.41 938.76,-411.76 936.14,-422.02 943.11,-421.41"/>
</g>
<!-- Node33 -->
<g id="node33" class="node">
<title>Node33</title>
<g id="a_node33"><a xlink:href="../../d5/d70/_c_c_texture2_d_8h.html" target="_top" xlink:title=" ">
<polygon fill="none" stroke="black" points="1174,-454 1174,-473 1306,-473 1306,-454 1174,-454"/>
<text text-anchor="middle" x="1240" y="-461" font-family="Helvetica,sans-Serif" font-size="10.00">textures/CCTexture2D.h</text>
</a>
</g>
</g>
<!-- Node31&#45;&gt;Node33 -->
<g id="edge51" class="edge">
<title>Node31&#45;&gt;Node33</title>
<path fill="none" stroke="midnightblue" d="M987.34,-520.94C1039.9,-509.2 1134.32,-488.11 1191.66,-475.3"/>
<polygon fill="midnightblue" stroke="midnightblue" points="1192.58,-478.68 1201.57,-473.08 1191.05,-471.85 1192.58,-478.68"/>
</g>
<!-- Node32&#45;&gt;Node13 -->
<g id="edge49" class="edge">
<title>Node32&#45;&gt;Node13</title>
<path fill="none" stroke="midnightblue" d="M970.22,-393.86C973.18,-393.23 976.15,-392.6 979,-392 1038.41,-379.59 1106.76,-366.16 1152.8,-357.23"/>
<polygon fill="midnightblue" stroke="midnightblue" points="1153.7,-360.62 1162.85,-355.28 1152.37,-353.75 1153.7,-360.62"/>
</g>
<!-- Node32&#45;&gt;Node16 -->
<g id="edge48" class="edge">
<title>Node32&#45;&gt;Node16</title>
<path fill="none" stroke="midnightblue" d="M938,-392.3C938,-359.63 938,-243.87 938,-197.96"/>
<polygon fill="midnightblue" stroke="midnightblue" points="941.5,-197.88 938,-187.88 934.5,-197.88 941.5,-197.88"/>
</g>
<!-- Node32&#45;&gt;Node20 -->
<g id="edge50" class="edge">
<title>Node32&#45;&gt;Node20</title>
<path fill="none" stroke="midnightblue" d="M905.85,-393.48C902.87,-392.92 899.89,-392.42 897,-392 670.85,-359.34 395.81,-350.08 298.35,-347.73"/>
<polygon fill="midnightblue" stroke="midnightblue" points="298.23,-344.23 288.15,-347.49 298.07,-351.22 298.23,-344.23"/>
</g>
<!-- Node33&#45;&gt;Node13 -->
<g id="edge54" class="edge">
<title>Node33&#45;&gt;Node13</title>
<path fill="none" stroke="midnightblue" d="M1249.34,-453.65C1262.43,-440.14 1283.43,-413.63 1272,-392 1264.58,-377.95 1250.58,-367.47 1237.38,-360.17"/>
<polygon fill="midnightblue" stroke="midnightblue" points="1238.96,-357.04 1228.46,-355.62 1235.78,-363.28 1238.96,-357.04"/>
</g>
<!-- Node33&#45;&gt;Node14 -->
<g id="edge53" class="edge">
<title>Node33&#45;&gt;Node14</title>
<path fill="none" stroke="midnightblue" d="M1306.03,-458.7C1373.47,-453.28 1471.51,-440.6 1495,-412 1543.52,-352.93 1412.88,-315.44 1339.68,-299.63"/>
<polygon fill="midnightblue" stroke="midnightblue" points="1340.27,-296.18 1329.76,-297.55 1338.83,-303.03 1340.27,-296.18"/>
</g>
<!-- Node33&#45;&gt;Node16 -->
<g id="edge52" class="edge">
<title>Node33&#45;&gt;Node16</title>
<path fill="none" stroke="midnightblue" d="M1298.51,-453.99C1422.83,-435.11 1702,-388.13 1702,-347 1702,-347 1702,-347 1702,-289 1702,-213.83 1115.05,-185.92 970.08,-180.18"/>
<polygon fill="midnightblue" stroke="midnightblue" points="970.17,-176.68 960.04,-179.79 969.9,-183.67 970.17,-176.68"/>
</g>
<!-- Node33&#45;&gt;Node32 -->
<g id="edge55" class="edge">
<title>Node33&#45;&gt;Node32</title>
<path fill="none" stroke="midnightblue" d="M1194.2,-454C1144.06,-444.61 1061.06,-428.83 980.08,-412.18"/>
<polygon fill="midnightblue" stroke="midnightblue" points="980.71,-408.74 970.21,-410.15 979.3,-415.6 980.71,-408.74"/>
</g>
<!-- Node34&#45;&gt;Node7 -->
<g id="edge60" class="edge">
<title>Node34&#45;&gt;Node7</title>
<path fill="none" stroke="midnightblue" d="M997.34,-392.35C941.7,-372.7 807.65,-320.36 717,-244 692.58,-223.43 687.16,-216.1 672,-188 664.08,-173.32 658.53,-155.16 655.13,-141.76"/>
<polygon fill="midnightblue" stroke="midnightblue" points="658.48,-140.74 652.77,-131.82 651.67,-142.35 658.48,-140.74"/>
</g>
<!-- Node34&#45;&gt;Node13 -->
<g id="edge59" class="edge">
<title>Node34&#45;&gt;Node13</title>
<path fill="none" stroke="midnightblue" d="M1052,-392.44C1083.18,-383.24 1132.93,-368.56 1167.41,-358.39"/>
<polygon fill="midnightblue" stroke="midnightblue" points="1168.54,-361.7 1177.14,-355.52 1166.56,-354.99 1168.54,-361.7"/>
</g>
<!-- Node34&#45;&gt;Node14 -->
<g id="edge58" class="edge">
<title>Node34&#45;&gt;Node14</title>
<path fill="none" stroke="midnightblue" d="M1038.38,-392.42C1062.51,-379.19 1110.95,-353.48 1154,-336 1186.65,-322.74 1224.8,-310.69 1253.02,-302.41"/>
<polygon fill="midnightblue" stroke="midnightblue" points="1254.31,-305.68 1262.94,-299.53 1252.36,-298.96 1254.31,-305.68"/>
</g>
<!-- Node35&#45;&gt;Node4 -->
<g id="edge63" class="edge">
<title>Node35&#45;&gt;Node4</title>
<path fill="none" stroke="midnightblue" d="M1082.32,-638.44C1017.49,-628.83 912.35,-613.23 843.68,-603.04"/>
<polygon fill="midnightblue" stroke="midnightblue" points="843.81,-599.52 833.41,-601.52 842.79,-606.45 843.81,-599.52"/>
</g>
<!-- Node35&#45;&gt;Node13 -->
<g id="edge66" class="edge">
<title>Node35&#45;&gt;Node13</title>
<path fill="none" stroke="midnightblue" d="M1138.43,-638.42C1133.52,-608.78 1121.21,-509.15 1165,-448 1186.3,-418.26 1219.6,-443.01 1239,-412 1249.1,-395.86 1235.93,-376.23 1223.35,-362.8"/>
<polygon fill="midnightblue" stroke="midnightblue" points="1225.75,-360.25 1216.19,-355.68 1220.81,-365.21 1225.75,-360.25"/>
</g>
<!-- Node35&#45;&gt;Node14 -->
<g id="edge65" class="edge">
<title>Node35&#45;&gt;Node14</title>
<path fill="none" stroke="midnightblue" d="M1150.77,-638.38C1187.79,-609 1313.91,-511.15 1429,-448 1464.97,-428.27 1491.34,-446.2 1514,-412 1530.75,-386.71 1497.14,-344.8 1486,-336 1444.06,-302.86 1381.86,-293.41 1339.72,-291.07"/>
<polygon fill="midnightblue" stroke="midnightblue" points="1339.87,-287.58 1329.72,-290.63 1339.56,-294.57 1339.87,-287.58"/>
</g>
<!-- Node35&#45;&gt;Node31 -->
<g id="edge64" class="edge">
<title>Node35&#45;&gt;Node31</title>
<path fill="none" stroke="midnightblue" d="M1125.64,-638.32C1092.79,-618.45 1011.92,-569.55 972.02,-545.42"/>
<polygon fill="midnightblue" stroke="midnightblue" points="973.63,-542.3 963.26,-540.12 970.01,-548.29 973.63,-542.3"/>
</g>
<!-- Node36&#45;&gt;Node9 -->
<g id="edge68" class="edge">
<title>Node36&#45;&gt;Node9</title>
<path fill="none" stroke="midnightblue" d="M1609.64,-702.27C1753.05,-698.81 2045,-680.96 2045,-593 2045,-593 2045,-593 2045,-121 2045,-63.07 1176.26,-25.1 891.91,-14.22"/>
<polygon fill="midnightblue" stroke="midnightblue" points="891.76,-10.71 881.63,-13.83 891.49,-17.71 891.76,-10.71"/>
</g>
<!-- Node36&#45;&gt;Node13 -->
<g id="edge81" class="edge">
<title>Node36&#45;&gt;Node13</title>
<path fill="none" stroke="midnightblue" d="M1521.67,-694.21C1496.2,-672.01 1429.86,-610.77 1394,-546 1359.4,-483.51 1398.09,-442.93 1348,-392 1324.72,-368.33 1289.09,-357.09 1259.34,-351.75"/>
<polygon fill="midnightblue" stroke="midnightblue" points="1259.52,-348.24 1249.09,-350.1 1258.41,-355.15 1259.52,-348.24"/>
</g>
<!-- Node36&#45;&gt;Node14 -->
<g id="edge69" class="edge">
<title>Node36&#45;&gt;Node14</title>
<path fill="none" stroke="midnightblue" d="M1546.12,-694.28C1570.1,-678.74 1618.73,-643.91 1645,-602 1694.66,-522.76 1678.8,-472.96 1632,-392 1616.43,-365.07 1616.7,-351.97 1590,-336 1548.65,-311.27 1411.97,-298.76 1339.71,-293.74"/>
<polygon fill="midnightblue" stroke="midnightblue" points="1339.74,-290.23 1329.53,-293.05 1339.27,-297.22 1339.74,-290.23"/>
</g>
<!-- Node36&#45;&gt;Node16 -->
<g id="edge83" class="edge">
<title>Node36&#45;&gt;Node16</title>
<path fill="none" stroke="midnightblue" d="M1604.75,-694.49C1664.73,-682.94 1740,-655.91 1740,-593 1740,-593 1740,-593 1740,-289 1740,-210.59 1652.45,-241.41 1576,-224 1458.66,-197.28 1082.63,-183.55 970.11,-179.96"/>
<polygon fill="midnightblue" stroke="midnightblue" points="970.16,-176.46 960.06,-179.65 969.94,-183.46 970.16,-176.46"/>
</g>
<!-- Node36&#45;&gt;Node18 -->
<g id="edge70" class="edge">
<title>Node36&#45;&gt;Node18</title>
<path fill="none" stroke="midnightblue" d="M1527.82,-694.26C1514.99,-667.42 1475.97,-585.82 1458.55,-549.39"/>
<polygon fill="midnightblue" stroke="midnightblue" points="1461.54,-547.53 1454.07,-540.02 1455.23,-550.55 1461.54,-547.53"/>
</g>
<!-- Node36&#45;&gt;Node35 -->
<g id="edge82" class="edge">
<title>Node36&#45;&gt;Node35</title>
<path fill="none" stroke="midnightblue" d="M1469.89,-694.44C1399.78,-684.79 1285.91,-669.1 1211.98,-658.92"/>
<polygon fill="midnightblue" stroke="midnightblue" points="1212.21,-655.41 1201.82,-657.52 1211.25,-662.35 1212.21,-655.41"/>
</g>
<!-- Node37 -->
<g id="node37" class="node">
<title>Node37</title>
<g id="a_node37"><a xlink:href="../../d9/d8d/_c_c_dictionary_8h.html" target="_top" xlink:title=" ">
<polygon fill="none" stroke="black" points="1516.5,-582.5 1516.5,-601.5 1635.5,-601.5 1635.5,-582.5 1516.5,-582.5"/>
<text text-anchor="middle" x="1576" y="-589.5" font-family="Helvetica,sans-Serif" font-size="10.00">cocoa/CCDictionary.h</text>
</a>
</g>
</g>
<!-- Node36&#45;&gt;Node37 -->
<g id="edge71" class="edge">
<title>Node36&#45;&gt;Node37</title>
<path fill="none" stroke="midnightblue" d="M1535.45,-694.37C1542.62,-676.46 1559.23,-634.92 1568.82,-610.95"/>
<polygon fill="midnightblue" stroke="midnightblue" points="1572.1,-612.18 1572.56,-601.59 1565.6,-609.58 1572.1,-612.18"/>
</g>
<!-- Node37&#45;&gt;Node14 -->
<g id="edge73" class="edge">
<title>Node37&#45;&gt;Node14</title>
<path fill="none" stroke="midnightblue" d="M1599.79,-582.5C1615.72,-575.41 1635.46,-563.61 1645,-546 1664.47,-510.05 1633.47,-388.32 1566,-336 1531.46,-309.22 1407.78,-297.75 1339.71,-293.37"/>
<polygon fill="midnightblue" stroke="midnightblue" points="1339.89,-289.87 1329.69,-292.75 1339.46,-296.86 1339.89,-289.87"/>
</g>
<!-- Node37&#45;&gt;Node18 -->
<g id="edge74" class="edge">
<title>Node37&#45;&gt;Node18</title>
<path fill="none" stroke="midnightblue" d="M1557.95,-582.48C1536.8,-572.49 1501.56,-555.85 1477.12,-544.31"/>
<polygon fill="midnightblue" stroke="midnightblue" points="1478.56,-541.11 1468.02,-540.01 1475.57,-547.44 1478.56,-541.11"/>
</g>
<!-- Node38 -->
<g id="node38" class="node">
<title>Node38</title>
<g id="a_node38"><a xlink:title=" ">
<polygon fill="none" stroke="#bfbfbf" points="1516,-515.5 1516,-545.5 1636,-545.5 1636,-515.5 1516,-515.5"/>
<text text-anchor="start" x="1524" y="-533.5" font-family="Helvetica,sans-Serif" font-size="10.00">support/data_support</text>
<text text-anchor="middle" x="1576" y="-522.5" font-family="Helvetica,sans-Serif" font-size="10.00">/uthash.h</text>
</a>
</g>
</g>
<!-- Node37&#45;&gt;Node38 -->
<g id="edge72" class="edge">
<title>Node37&#45;&gt;Node38</title>
<path fill="none" stroke="midnightblue" d="M1576,-582.48C1576,-575.47 1576,-565.19 1576,-555.7"/>
<polygon fill="midnightblue" stroke="midnightblue" points="1579.5,-555.52 1576,-545.52 1572.5,-555.52 1579.5,-555.52"/>
</g>
<!-- Node39 -->
<g id="node39" class="node">
<title>Node39</title>
<g id="a_node39"><a xlink:href="../../d0/d8a/_c_c_string_8h.html" target="_top" xlink:title=" ">
<polygon fill="none" stroke="black" points="1819,-336.5 1819,-355.5 1887,-355.5 1887,-336.5 1819,-336.5"/>
<text text-anchor="middle" x="1853" y="-343.5" font-family="Helvetica,sans-Serif" font-size="10.00">CCString.h</text>
</a>
</g>
</g>
<!-- Node37&#45;&gt;Node39 -->
<g id="edge75" class="edge">
<title>Node37&#45;&gt;Node39</title>
<path fill="none" stroke="midnightblue" d="M1603.69,-582.47C1625.24,-574.99 1655.21,-562.71 1678,-546 1751.58,-492.07 1816.16,-402.3 1841.54,-364.56"/>
<polygon fill="midnightblue" stroke="midnightblue" points="1844.78,-366.02 1847.39,-355.75 1838.94,-362.15 1844.78,-366.02"/>
</g>
<!-- Node39&#45;&gt;Node14 -->
<g id="edge80" class="edge">
<title>Node39&#45;&gt;Node14</title>
<path fill="none" stroke="midnightblue" d="M1818.87,-341.7C1722.66,-332.41 1449.11,-305.98 1339.88,-295.43"/>
<polygon fill="midnightblue" stroke="midnightblue" points="1340.12,-291.94 1329.83,-294.46 1339.45,-298.91 1340.12,-291.94"/>
</g>
<!-- Node39&#45;&gt;Node16 -->
<g id="edge78" class="edge">
<title>Node39&#45;&gt;Node16</title>
<path fill="none" stroke="midnightblue" d="M1887.27,-341.22C1936.28,-334.44 2017.4,-317.27 1988,-280 1923.32,-198.01 1140.24,-181.94 970.37,-179.42"/>
<polygon fill="midnightblue" stroke="midnightblue" points="970.35,-175.92 960.3,-179.27 970.25,-182.91 970.35,-175.92"/>
</g>
<!-- Node40 -->
<g id="node40" class="node">
<title>Node40</title>
<g id="a_node40"><a xlink:title=" ">
<polygon fill="none" stroke="#bfbfbf" points="1851.5,-280.5 1851.5,-299.5 1904.5,-299.5 1904.5,-280.5 1851.5,-280.5"/>
<text text-anchor="middle" x="1878" y="-287.5" font-family="Helvetica,sans-Serif" font-size="10.00">string.h</text>
</a>
</g>
</g>
<!-- Node39&#45;&gt;Node40 -->
<g id="edge76" class="edge">
<title>Node39&#45;&gt;Node40</title>
<path fill="none" stroke="midnightblue" d="M1857.13,-336.08C1860.51,-328.77 1865.42,-318.18 1869.62,-309.1"/>
<polygon fill="midnightblue" stroke="midnightblue" points="1872.92,-310.3 1873.95,-299.75 1866.57,-307.36 1872.92,-310.3"/>
</g>
<!-- Node41 -->
<g id="node41" class="node">
<title>Node41</title>
<g id="a_node41"><a xlink:title=" ">
<polygon fill="none" stroke="#bfbfbf" points="1923,-280.5 1923,-299.5 1979,-299.5 1979,-280.5 1923,-280.5"/>
<text text-anchor="middle" x="1951" y="-287.5" font-family="Helvetica,sans-Serif" font-size="10.00">stdarg.h</text>
</a>
</g>
</g>
<!-- Node39&#45;&gt;Node41 -->
<g id="edge77" class="edge">
<title>Node39&#45;&gt;Node41</title>
<path fill="none" stroke="midnightblue" d="M1868.75,-336.32C1884.32,-327.74 1908.38,-314.49 1926.46,-304.52"/>
<polygon fill="midnightblue" stroke="midnightblue" points="1928.22,-307.55 1935.29,-299.65 1924.85,-301.42 1928.22,-307.55"/>
</g>
<!-- Node42 -->
<g id="node42" class="node">
<title>Node42</title>
<g id="a_node42"><a xlink:title=" ">
<polygon fill="none" stroke="#bfbfbf" points="1768.5,-280.5 1768.5,-299.5 1833.5,-299.5 1833.5,-280.5 1768.5,-280.5"/>
<text text-anchor="middle" x="1801" y="-287.5" font-family="Helvetica,sans-Serif" font-size="10.00">functional</text>
</a>
</g>
</g>
<!-- Node39&#45;&gt;Node42 -->
<g id="edge79" class="edge">
<title>Node39&#45;&gt;Node42</title>
<path fill="none" stroke="midnightblue" d="M1844.41,-336.08C1836.84,-328.22 1825.62,-316.57 1816.49,-307.08"/>
<polygon fill="midnightblue" stroke="midnightblue" points="1818.88,-304.53 1809.43,-299.75 1813.84,-309.38 1818.88,-304.53"/>
</g>
</g>
</svg>
