<?xml version="1.0" encoding="UTF-8" standalone="no"?>
<!DOCTYPE svg PUBLIC "-//W3C//DTD SVG 1.1//EN"
 "http://www.w3.org/Graphics/SVG/1.1/DTD/svg11.dtd">
<!-- Generated by graphviz version 2.43.0 (0)
 -->
<!-- Title: CCTargetedTouchHandler Pages: 1 -->
<svg width="217pt" height="215pt"
 viewBox="0.00 0.00 217.00 215.00" xmlns="http://www.w3.org/2000/svg" xmlns:xlink="http://www.w3.org/1999/xlink">
<g id="graph0" class="graph" transform="scale(1 1) rotate(0) translate(4 211)">
<title>CCTargetedTouchHandler</title>
<!-- Node1 -->
<g id="node1" class="node">
<title>Node1</title>
<g id="a_node1"><a xlink:title="CCTargetedTouchHandler Object than contains the claimed touches and if it swallows touches.">
<polygon fill="#999999" stroke="#666666" points="151,-19 13,-19 13,0 151,0 151,-19"/>
<text text-anchor="middle" x="82" y="-7" font-family="Helvetica,sans-Serif" font-size="10.00">CCTargetedTouchHandler</text>
</a>
</g>
</g>
<!-- Node2 -->
<g id="node2" class="node">
<title>Node2</title>
<g id="a_node2"><a xlink:href="../../dc/dee/classcocos2d_1_1_c_c_touch_handler.html" target="_top" xlink:title="CCTouchHandler Object than contains the delegate and priority of the event handler.">
<polygon fill="white" stroke="#666666" points="188,-85 92,-85 92,-66 188,-66 188,-85"/>
<text text-anchor="middle" x="140" y="-73" font-family="Helvetica,sans-Serif" font-size="10.00">CCTouchHandler</text>
</a>
</g>
</g>
<!-- Node2&#45;&gt;Node1 -->
<g id="edge1" class="edge">
<title>Node2&#45;&gt;Node1</title>
<path fill="none" stroke="#63b8ff" d="M136.91,-55.86C135.13,-49.37 132.34,-42.38 128,-37 121.75,-29.25 112.59,-23.33 104.08,-19.06"/>
<polygon fill="#63b8ff" stroke="#63b8ff" points="133.55,-56.87 139.05,-65.92 140.39,-55.41 133.55,-56.87"/>
</g>
<!-- Node3 -->
<g id="node3" class="node">
<title>Node3</title>
<g id="a_node3"><a xlink:href="../../d3/dbf/classcocos2d_1_1_c_c_object.html" target="_top" xlink:title="NA.">
<polygon fill="white" stroke="#666666" points="66,-151 4,-151 4,-132 66,-132 66,-151"/>
<text text-anchor="middle" x="35" y="-139" font-family="Helvetica,sans-Serif" font-size="10.00">CCObject</text>
</a>
</g>
</g>
<!-- Node3&#45;&gt;Node2 -->
<g id="edge2" class="edge">
<title>Node3&#45;&gt;Node2</title>
<path fill="none" stroke="#63b8ff" d="M57.94,-126.52C78.59,-113.93 108.3,-95.82 125.73,-85.2"/>
<polygon fill="#63b8ff" stroke="#63b8ff" points="55.88,-123.68 49.16,-131.87 59.52,-129.65 55.88,-123.68"/>
</g>
<!-- Node6 -->
<g id="node6" class="node">
<title>Node6</title>
<g id="a_node6"><a xlink:href="../../d6/dbe/classcocos2d_1_1_c_c_set.html" target="_top" xlink:title=" ">
<polygon fill="white" stroke="#666666" points="47,-85 1,-85 1,-66 47,-66 47,-85"/>
<text text-anchor="middle" x="24" y="-73" font-family="Helvetica,sans-Serif" font-size="10.00">CCSet</text>
</a>
</g>
</g>
<!-- Node3&#45;&gt;Node6 -->
<g id="edge6" class="edge">
<title>Node3&#45;&gt;Node6</title>
<path fill="none" stroke="#63b8ff" d="M31.81,-121.95C29.75,-109.93 27.15,-94.82 25.53,-85.41"/>
<polygon fill="#63b8ff" stroke="#63b8ff" points="28.37,-122.61 33.52,-131.87 35.27,-121.42 28.37,-122.61"/>
</g>
<!-- Node4 -->
<g id="node4" class="node">
<title>Node4</title>
<g id="a_node4"><a xlink:href="../../d5/d61/classcocos2d_1_1_c_c_copying.html" target="_top" xlink:title="NA NA.">
<polygon fill="white" stroke="#666666" points="70,-207 0,-207 0,-188 70,-188 70,-207"/>
<text text-anchor="middle" x="35" y="-195" font-family="Helvetica,sans-Serif" font-size="10.00">CCCopying</text>
</a>
</g>
</g>
<!-- Node4&#45;&gt;Node3 -->
<g id="edge3" class="edge">
<title>Node4&#45;&gt;Node3</title>
<path fill="none" stroke="#63b8ff" d="M35,-177.3C35,-168.41 35,-158.28 35,-151.25"/>
<polygon fill="#63b8ff" stroke="#63b8ff" points="31.5,-177.58 35,-187.58 38.5,-177.58 31.5,-177.58"/>
</g>
<!-- Node5 -->
<g id="node5" class="node">
<title>Node5</title>
<g id="a_node5"><a xlink:href="../../d0/d38/classcocos2d_1_1_c_c_touch_delegate.html" target="_top" xlink:title=" ">
<polygon fill="white" stroke="#666666" points="191,-151 89,-151 89,-132 191,-132 191,-151"/>
<text text-anchor="middle" x="140" y="-139" font-family="Helvetica,sans-Serif" font-size="10.00">CCTouchDelegate</text>
</a>
</g>
</g>
<!-- Node5&#45;&gt;Node2 -->
<g id="edge4" class="edge">
<title>Node5&#45;&gt;Node2</title>
<path fill="none" stroke="#9a32cd" stroke-dasharray="5,2" d="M140,-121.58C140,-109.63 140,-94.72 140,-85.41"/>
<polygon fill="#9a32cd" stroke="#9a32cd" points="136.5,-121.87 140,-131.87 143.5,-121.87 136.5,-121.87"/>
<text text-anchor="middle" x="174.5" y="-106" font-family="Helvetica,sans-Serif" font-size="10.00"> m_pDelegate</text>
</g>
<!-- Node6&#45;&gt;Node1 -->
<g id="edge5" class="edge">
<title>Node6&#45;&gt;Node1</title>
<path fill="none" stroke="#9a32cd" stroke-dasharray="5,2" d="M17.33,-55.77C16.21,-49.37 16.4,-42.46 20,-37 25.48,-28.7 34.16,-22.98 43.3,-19.06"/>
<polygon fill="#9a32cd" stroke="#9a32cd" points="14.04,-56.99 20.07,-65.71 20.79,-55.14 14.04,-56.99"/>
<text text-anchor="middle" x="72" y="-40" font-family="Helvetica,sans-Serif" font-size="10.00"> m_pClaimedTouches</text>
</g>
</g>
</svg>
