<?xml version="1.0" encoding="UTF-8" standalone="no"?>
<!DOCTYPE svg PUBLIC "-//W3C//DTD SVG 1.1//EN"
 "http://www.w3.org/Graphics/SVG/1.1/DTD/svg11.dtd">
<!-- Generated by graphviz version 2.43.0 (0)
 -->
<!-- Title: CCProfiler Pages: 1 -->
<svg width="190pt" height="219pt"
 viewBox="0.00 0.00 190.00 219.00" xmlns="http://www.w3.org/2000/svg" xmlns:xlink="http://www.w3.org/1999/xlink">
<g id="graph0" class="graph" transform="scale(1 1) rotate(0) translate(4 215)">
<title>CCProfiler</title>
<!-- Node1 -->
<g id="node1" class="node">
<title>Node1</title>
<g id="a_node1"><a xlink:title="CCProfiler cocos2d builtin profiler.">
<polygon fill="#bfbfbf" stroke="black" points="70.5,-0.5 70.5,-19.5 135.5,-19.5 135.5,-0.5 70.5,-0.5"/>
<text text-anchor="middle" x="103" y="-7.5" font-family="Helvetica,sans-Serif" font-size="10.00">CCProfiler</text>
</a>
</g>
</g>
<!-- Node2 -->
<g id="node2" class="node">
<title>Node2</title>
<g id="a_node2"><a xlink:href="../../d3/dbf/classcocos2d_1_1_c_c_object.html" target="_top" xlink:title="NA.">
<polygon fill="none" stroke="black" points="116,-134.5 116,-153.5 178,-153.5 178,-134.5 116,-134.5"/>
<text text-anchor="middle" x="147" y="-141.5" font-family="Helvetica,sans-Serif" font-size="10.00">CCObject</text>
</a>
</g>
</g>
<!-- Node2&#45;&gt;Node1 -->
<g id="edge1" class="edge">
<title>Node2&#45;&gt;Node1</title>
<path fill="none" stroke="midnightblue" d="M150.54,-124.4C153.75,-102.32 155.97,-65.08 141,-38 136.69,-30.21 129.07,-24.13 121.78,-19.73"/>
<polygon fill="midnightblue" stroke="midnightblue" points="147.06,-123.99 148.85,-134.43 153.96,-125.15 147.06,-123.99"/>
</g>
<!-- Node4 -->
<g id="node4" class="node">
<title>Node4</title>
<g id="a_node4"><a xlink:href="../../d7/d5f/classcocos2d_1_1_c_c_dictionary.html" target="_top" xlink:title="CCDictionary is a class like NSDictionary in Obj&#45;C .">
<polygon fill="none" stroke="black" points="11,-67.5 11,-86.5 91,-86.5 91,-67.5 11,-67.5"/>
<text text-anchor="middle" x="51" y="-74.5" font-family="Helvetica,sans-Serif" font-size="10.00">CCDictionary</text>
</a>
</g>
</g>
<!-- Node2&#45;&gt;Node4 -->
<g id="edge4" class="edge">
<title>Node2&#45;&gt;Node4</title>
<path fill="none" stroke="midnightblue" d="M135.94,-125.96C130.6,-118.75 123.68,-110.72 116,-105 105.32,-97.04 91.95,-90.97 80.12,-86.61"/>
<polygon fill="midnightblue" stroke="midnightblue" points="133.23,-128.19 141.8,-134.41 138.98,-124.2 133.23,-128.19"/>
</g>
<!-- Node3 -->
<g id="node3" class="node">
<title>Node3</title>
<g id="a_node3"><a xlink:href="../../d5/d61/classcocos2d_1_1_c_c_copying.html" target="_top" xlink:title="NA NA.">
<polygon fill="none" stroke="black" points="112,-191.5 112,-210.5 182,-210.5 182,-191.5 112,-191.5"/>
<text text-anchor="middle" x="147" y="-198.5" font-family="Helvetica,sans-Serif" font-size="10.00">CCCopying</text>
</a>
</g>
</g>
<!-- Node3&#45;&gt;Node2 -->
<g id="edge2" class="edge">
<title>Node3&#45;&gt;Node2</title>
<path fill="none" stroke="midnightblue" d="M147,-181.12C147,-171.82 147,-161.06 147,-153.71"/>
<polygon fill="midnightblue" stroke="midnightblue" points="143.5,-181.41 147,-191.41 150.5,-181.41 143.5,-181.41"/>
</g>
<!-- Node4&#45;&gt;Node1 -->
<g id="edge3" class="edge">
<title>Node4&#45;&gt;Node1</title>
<path fill="none" stroke="#9a32cd" stroke-dasharray="5,2" d="M47.79,-57.35C47.59,-50.81 48.48,-43.68 52,-38 57.17,-29.66 65.86,-23.74 74.61,-19.62"/>
<polygon fill="#9a32cd" stroke="#9a32cd" points="44.33,-57.9 48.91,-67.45 51.29,-57.13 44.33,-57.9"/>
<text text-anchor="middle" x="96.5" y="-41" font-family="Helvetica,sans-Serif" font-size="10.00"> m_pActiveTimers</text>
</g>
<!-- Node5 -->
<g id="node5" class="node">
<title>Node5</title>
<g id="a_node5"><a xlink:href="../../d0/da2/classcocos2d_1_1_c_c_dict_element.html" target="_top" xlink:title="CCDictElement is used for traversing CCDictionary.">
<polygon fill="none" stroke="black" points="0,-134.5 0,-153.5 90,-153.5 90,-134.5 0,-134.5"/>
<text text-anchor="middle" x="45" y="-141.5" font-family="Helvetica,sans-Serif" font-size="10.00">CCDictElement</text>
</a>
</g>
</g>
<!-- Node5&#45;&gt;Node4 -->
<g id="edge5" class="edge">
<title>Node5&#45;&gt;Node4</title>
<path fill="none" stroke="#9a32cd" stroke-dasharray="5,2" d="M44.91,-124.21C45.04,-118.08 45.34,-111.24 46,-105 46.64,-98.93 47.89,-92.18 48.98,-86.95"/>
<polygon fill="#9a32cd" stroke="#9a32cd" points="41.41,-124.2 44.84,-134.22 48.41,-124.25 41.41,-124.2"/>
<text text-anchor="middle" x="81" y="-108" font-family="Helvetica,sans-Serif" font-size="10.00"> m_pElements</text>
</g>
</g>
</svg>
