<?xml version="1.0" encoding="UTF-8" standalone="no"?>
<!DOCTYPE svg PUBLIC "-//W3C//DTD SVG 1.1//EN"
 "http://www.w3.org/Graphics/SVG/1.1/DTD/svg11.dtd">
<!-- Generated by graphviz version 2.43.0 (0)
 -->
<!-- Title: /home/runner/work/cocos&#45;headers/cocos&#45;headers/cocos2dx/actions/CCActionManager.h Pages: 1 -->
<svg width="616pt" height="500pt"
 viewBox="0.00 0.00 616.31 500.00" xmlns="http://www.w3.org/2000/svg" xmlns:xlink="http://www.w3.org/1999/xlink">
<g id="graph0" class="graph" transform="scale(1 1) rotate(0) translate(4 496)">
<title>/home/runner/work/cocos&#45;headers/cocos&#45;headers/cocos2dx/actions/CCActionManager.h</title>
<!-- Node1 -->
<g id="node1" class="node">
<title>Node1</title>
<g id="a_node1"><a xlink:title=" ">
<polygon fill="#999999" stroke="#666666" points="474.31,-492 272.31,-492 272.31,-451 474.31,-451 474.31,-492"/>
<text text-anchor="start" x="280.31" y="-480" font-family="Helvetica,sans-Serif" font-size="10.00">/home/runner/work/cocos</text>
<text text-anchor="start" x="280.31" y="-469" font-family="Helvetica,sans-Serif" font-size="10.00">&#45;headers/cocos&#45;headers</text>
<text text-anchor="middle" x="373.31" y="-458" font-family="Helvetica,sans-Serif" font-size="10.00">/cocos2dx/actions/CCActionManager.h</text>
</a>
</g>
</g>
<!-- Node2 -->
<g id="node2" class="node">
<title>Node2</title>
<g id="a_node2"><a xlink:href="../../d6/d35/_c_c_action_8h.html" target="_top" xlink:title=" ">
<polygon fill="white" stroke="#666666" points="408.31,-415 338.31,-415 338.31,-396 408.31,-396 408.31,-415"/>
<text text-anchor="middle" x="373.31" y="-403" font-family="Helvetica,sans-Serif" font-size="10.00">CCAction.h</text>
</a>
</g>
</g>
<!-- Node1&#45;&gt;Node2 -->
<g id="edge1" class="edge">
<title>Node1&#45;&gt;Node2</title>
<path fill="none" stroke="#63b8ff" d="M373.31,-450.95C373.31,-442.85 373.31,-433.5 373.31,-425.47"/>
<polygon fill="#63b8ff" stroke="#63b8ff" points="376.81,-425.26 373.31,-415.26 369.81,-425.26 376.81,-425.26"/>
</g>
<!-- Node3 -->
<g id="node3" class="node">
<title>Node3</title>
<g id="a_node3"><a xlink:href="../../dd/d69/_c_c_object_8h.html" target="_top" xlink:title=" ">
<polygon fill="white" stroke="#666666" points="313.31,-294 211.31,-294 211.31,-275 313.31,-275 313.31,-294"/>
<text text-anchor="middle" x="262.31" y="-282" font-family="Helvetica,sans-Serif" font-size="10.00">cocoa/CCObject.h</text>
</a>
</g>
</g>
<!-- Node1&#45;&gt;Node3 -->
<g id="edge22" class="edge">
<title>Node1&#45;&gt;Node3</title>
<path fill="none" stroke="#63b8ff" d="M352.26,-450.93C331.26,-430.27 299.59,-395.8 281.31,-360 272.23,-342.21 267.27,-319.75 264.72,-304.17"/>
<polygon fill="#63b8ff" stroke="#63b8ff" points="268.18,-303.59 263.27,-294.2 261.25,-304.61 268.18,-303.59"/>
</g>
<!-- Node15 -->
<g id="node15" class="node">
<title>Node15</title>
<g id="a_node15"><a xlink:href="../../da/d35/_c_c_array_8h.html" target="_top" xlink:title=" ">
<polygon fill="white" stroke="#666666" points="558.81,-415 463.81,-415 463.81,-396 558.81,-396 558.81,-415"/>
<text text-anchor="middle" x="511.31" y="-403" font-family="Helvetica,sans-Serif" font-size="10.00">cocoa/CCArray.h</text>
</a>
</g>
</g>
<!-- Node1&#45;&gt;Node15 -->
<g id="edge20" class="edge">
<title>Node1&#45;&gt;Node15</title>
<path fill="none" stroke="#63b8ff" d="M415.47,-450.95C437.57,-440.7 464.03,-428.43 483.55,-419.38"/>
<polygon fill="#63b8ff" stroke="#63b8ff" points="485.19,-422.47 492.79,-415.09 482.24,-416.12 485.19,-422.47"/>
</g>
<!-- Node2&#45;&gt;Node3 -->
<g id="edge2" class="edge">
<title>Node2&#45;&gt;Node3</title>
<path fill="none" stroke="#63b8ff" d="M355.77,-396C340.98,-388.18 319.95,-375.48 305.31,-360 289.49,-343.27 277.13,-319.66 269.8,-303.53"/>
<polygon fill="#63b8ff" stroke="#63b8ff" points="272.92,-301.93 265.72,-294.16 266.5,-304.72 272.92,-301.93"/>
</g>
<!-- Node5 -->
<g id="node5" class="node">
<title>Node5</title>
<g id="a_node5"><a xlink:href="../../d3/d41/_c_c_platform_macros_8h.html" target="_top" xlink:title=" ">
<polygon fill="white" stroke="#666666" points="332.81,-129 171.81,-129 171.81,-110 332.81,-110 332.81,-129"/>
<text text-anchor="middle" x="252.31" y="-117" font-family="Helvetica,sans-Serif" font-size="10.00">platform/CCPlatformMacros.h</text>
</a>
</g>
</g>
<!-- Node2&#45;&gt;Node5 -->
<g id="edge19" class="edge">
<title>Node2&#45;&gt;Node5</title>
<path fill="none" stroke="#63b8ff" d="M394.19,-395.89C409.46,-388.54 429.5,-376.53 441.31,-360 461.18,-332.2 460.31,-319.67 460.31,-285.5 460.31,-285.5 460.31,-285.5 460.31,-228.5 460.31,-170.32 395.43,-143.44 338.14,-131.05"/>
<polygon fill="#63b8ff" stroke="#63b8ff" points="338.79,-127.61 328.29,-129.04 337.39,-134.47 338.79,-127.61"/>
</g>
<!-- Node13 -->
<g id="node13" class="node">
<title>Node13</title>
<g id="a_node13"><a xlink:href="../../d6/d09/_c_c_geometry_8h.html" target="_top" xlink:title=" ">
<polygon fill="white" stroke="#666666" points="432.31,-354.5 314.31,-354.5 314.31,-335.5 432.31,-335.5 432.31,-354.5"/>
<text text-anchor="middle" x="373.31" y="-342.5" font-family="Helvetica,sans-Serif" font-size="10.00">cocoa/CCGeometry.h</text>
</a>
</g>
</g>
<!-- Node2&#45;&gt;Node13 -->
<g id="edge15" class="edge">
<title>Node2&#45;&gt;Node13</title>
<path fill="none" stroke="#63b8ff" d="M373.31,-395.87C373.31,-387.75 373.31,-375.31 373.31,-364.89"/>
<polygon fill="#63b8ff" stroke="#63b8ff" points="376.81,-364.67 373.31,-354.67 369.81,-364.67 376.81,-364.67"/>
</g>
<!-- Node4 -->
<g id="node4" class="node">
<title>Node4</title>
<g id="a_node4"><a xlink:href="../../d9/d2d/_c_c_data_visitor_8h.html" target="_top" xlink:title=" ">
<polygon fill="white" stroke="#666666" points="308.81,-239 215.81,-239 215.81,-220 308.81,-220 308.81,-239"/>
<text text-anchor="middle" x="262.31" y="-227" font-family="Helvetica,sans-Serif" font-size="10.00">CCDataVisitor.h</text>
</a>
</g>
</g>
<!-- Node3&#45;&gt;Node4 -->
<g id="edge3" class="edge">
<title>Node3&#45;&gt;Node4</title>
<path fill="none" stroke="#63b8ff" d="M262.31,-274.75C262.31,-267.8 262.31,-257.85 262.31,-249.13"/>
<polygon fill="#63b8ff" stroke="#63b8ff" points="265.81,-249.09 262.31,-239.09 258.81,-249.09 265.81,-249.09"/>
</g>
<!-- Node10 -->
<g id="node10" class="node">
<title>Node10</title>
<g id="a_node10"><a xlink:href="../../d9/dc8/cc_macros_8h.html" target="_top" xlink:title=" ">
<polygon fill="white" stroke="#666666" points="161.81,-239 90.81,-239 90.81,-220 161.81,-220 161.81,-239"/>
<text text-anchor="middle" x="126.31" y="-227" font-family="Helvetica,sans-Serif" font-size="10.00">ccMacros.h</text>
</a>
</g>
</g>
<!-- Node3&#45;&gt;Node10 -->
<g id="edge10" class="edge">
<title>Node3&#45;&gt;Node10</title>
<path fill="none" stroke="#63b8ff" d="M240.46,-274.98C218.19,-266.3 183.41,-252.75 158.09,-242.88"/>
<polygon fill="#63b8ff" stroke="#63b8ff" points="159.15,-239.54 148.56,-239.17 156.61,-246.06 159.15,-239.54"/>
</g>
<!-- Node4&#45;&gt;Node5 -->
<g id="edge4" class="edge">
<title>Node4&#45;&gt;Node5</title>
<path fill="none" stroke="#63b8ff" d="M261.49,-219.66C259.88,-202.17 256.23,-162.8 254.05,-139.27"/>
<polygon fill="#63b8ff" stroke="#63b8ff" points="257.52,-138.79 253.11,-129.16 250.55,-139.44 257.52,-138.79"/>
</g>
<!-- Node9 -->
<g id="node9" class="node">
<title>Node9</title>
<g id="a_node9"><a xlink:title=" ">
<polygon fill="#e0e0e0" stroke="#999999" points="324.31,-184 280.31,-184 280.31,-165 324.31,-165 324.31,-184"/>
<text text-anchor="middle" x="302.31" y="-172" font-family="Helvetica,sans-Serif" font-size="10.00">string</text>
</a>
</g>
</g>
<!-- Node4&#45;&gt;Node9 -->
<g id="edge9" class="edge">
<title>Node4&#45;&gt;Node9</title>
<path fill="none" stroke="#63b8ff" d="M268.92,-219.75C274.57,-212.26 282.86,-201.28 289.76,-192.13"/>
<polygon fill="#63b8ff" stroke="#63b8ff" points="292.6,-194.18 295.83,-184.09 287.01,-189.96 292.6,-194.18"/>
</g>
<!-- Node6 -->
<g id="node6" class="node">
<title>Node6</title>
<g id="a_node6"><a xlink:href="../../db/d9f/cc_config_8h.html" target="_top" xlink:title="cocos2d (cc) configuration file">
<polygon fill="white" stroke="#666666" points="134.81,-74 67.81,-74 67.81,-55 134.81,-55 134.81,-74"/>
<text text-anchor="middle" x="101.31" y="-62" font-family="Helvetica,sans-Serif" font-size="10.00">ccConfig.h</text>
</a>
</g>
</g>
<!-- Node5&#45;&gt;Node6 -->
<g id="edge5" class="edge">
<title>Node5&#45;&gt;Node6</title>
<path fill="none" stroke="#63b8ff" d="M228.05,-109.98C202.99,-101.19 163.68,-87.39 135.48,-77.49"/>
<polygon fill="#63b8ff" stroke="#63b8ff" points="136.61,-74.18 126.02,-74.17 134.29,-80.78 136.61,-74.18"/>
</g>
<!-- Node7 -->
<g id="node7" class="node">
<title>Node7</title>
<g id="a_node7"><a xlink:href="../../dd/d96/_c_c_platform_config_8h.html" target="_top" xlink:title=" ">
<polygon fill="white" stroke="#666666" points="275.81,-19 118.81,-19 118.81,0 275.81,0 275.81,-19"/>
<text text-anchor="middle" x="197.31" y="-7" font-family="Helvetica,sans-Serif" font-size="10.00">platform/CCPlatformConfig.h</text>
</a>
</g>
</g>
<!-- Node5&#45;&gt;Node7 -->
<g id="edge7" class="edge">
<title>Node5&#45;&gt;Node7</title>
<path fill="none" stroke="#63b8ff" d="M259.75,-109.84C269.67,-97.19 284.81,-73.19 274.31,-55 265.89,-40.41 250.67,-30.17 235.96,-23.23"/>
<polygon fill="#63b8ff" stroke="#63b8ff" points="237.02,-19.87 226.45,-19.13 234.25,-26.3 237.02,-19.87"/>
</g>
<!-- Node8 -->
<g id="node8" class="node">
<title>Node8</title>
<g id="a_node8"><a xlink:title=" ">
<polygon fill="#e0e0e0" stroke="#999999" points="265.81,-74 152.81,-74 152.81,-55 265.81,-55 265.81,-74"/>
<text text-anchor="middle" x="209.31" y="-62" font-family="Helvetica,sans-Serif" font-size="10.00">CCPlatformDefine.h</text>
</a>
</g>
</g>
<!-- Node5&#45;&gt;Node8 -->
<g id="edge8" class="edge">
<title>Node5&#45;&gt;Node8</title>
<path fill="none" stroke="#63b8ff" d="M245.21,-109.75C239.14,-102.26 230.23,-91.28 222.8,-82.13"/>
<polygon fill="#63b8ff" stroke="#63b8ff" points="225.3,-79.65 216.28,-74.09 219.86,-84.06 225.3,-79.65"/>
</g>
<!-- Node6&#45;&gt;Node7 -->
<g id="edge6" class="edge">
<title>Node6&#45;&gt;Node7</title>
<path fill="none" stroke="#63b8ff" d="M116.74,-54.98C131.76,-46.69 154.85,-33.94 172.47,-24.22"/>
<polygon fill="#63b8ff" stroke="#63b8ff" points="174.55,-27.07 181.61,-19.17 171.16,-20.94 174.55,-27.07"/>
</g>
<!-- Node10&#45;&gt;Node6 -->
<g id="edge14" class="edge">
<title>Node10&#45;&gt;Node6</title>
<path fill="none" stroke="#63b8ff" d="M90.58,-225.74C62.79,-221.5 25.92,-210.82 7.31,-184 -20.03,-144.58 39.51,-101.08 75.87,-79.39"/>
<polygon fill="#63b8ff" stroke="#63b8ff" points="78.08,-82.16 84.98,-74.12 74.57,-76.1 78.08,-82.16"/>
</g>
<!-- Node11 -->
<g id="node11" class="node">
<title>Node11</title>
<g id="a_node11"><a xlink:href="../../d5/d22/_c_c_common_8h.html" target="_top" xlink:title=" ">
<polygon fill="white" stroke="#666666" points="144.31,-184 16.31,-184 16.31,-165 144.31,-165 144.31,-184"/>
<text text-anchor="middle" x="80.31" y="-172" font-family="Helvetica,sans-Serif" font-size="10.00">platform/CCCommon.h</text>
</a>
</g>
</g>
<!-- Node10&#45;&gt;Node11 -->
<g id="edge11" class="edge">
<title>Node10&#45;&gt;Node11</title>
<path fill="none" stroke="#63b8ff" d="M118.72,-219.75C112.15,-212.18 102.49,-201.05 94.5,-191.84"/>
<polygon fill="#63b8ff" stroke="#63b8ff" points="96.97,-189.35 87.77,-184.09 91.68,-193.94 96.97,-189.35"/>
</g>
<!-- Node12 -->
<g id="node12" class="node">
<title>Node12</title>
<g id="a_node12"><a xlink:title=" ">
<polygon fill="#e0e0e0" stroke="#999999" points="224.31,-184 162.31,-184 162.31,-165 224.31,-165 224.31,-184"/>
<text text-anchor="middle" x="193.31" y="-172" font-family="Helvetica,sans-Serif" font-size="10.00">CCStdC.h</text>
</a>
</g>
</g>
<!-- Node10&#45;&gt;Node12 -->
<g id="edge13" class="edge">
<title>Node10&#45;&gt;Node12</title>
<path fill="none" stroke="#63b8ff" d="M137.08,-219.98C147.08,-212.07 162.2,-200.11 174.24,-190.58"/>
<polygon fill="#63b8ff" stroke="#63b8ff" points="176.68,-193.12 182.35,-184.17 172.34,-187.63 176.68,-193.12"/>
</g>
<!-- Node11&#45;&gt;Node5 -->
<g id="edge12" class="edge">
<title>Node11&#45;&gt;Node5</title>
<path fill="none" stroke="#63b8ff" d="M107.95,-164.98C136.82,-156.09 182.32,-142.07 214.52,-132.15"/>
<polygon fill="#63b8ff" stroke="#63b8ff" points="215.94,-135.37 224.46,-129.08 213.87,-128.68 215.94,-135.37"/>
</g>
<!-- Node13&#45;&gt;Node3 -->
<g id="edge17" class="edge">
<title>Node13&#45;&gt;Node3</title>
<path fill="none" stroke="#63b8ff" d="M356.93,-335.37C338.74,-325.78 309.12,-310.17 287.86,-298.97"/>
<polygon fill="#63b8ff" stroke="#63b8ff" points="289.24,-295.73 278.76,-294.17 285.97,-301.93 289.24,-295.73"/>
</g>
<!-- Node13&#45;&gt;Node5 -->
<g id="edge16" class="edge">
<title>Node13&#45;&gt;Node5</title>
<path fill="none" stroke="#63b8ff" d="M372.31,-335.17C368.51,-303.04 354.16,-192.75 333.31,-165 322.38,-150.44 305.23,-140.05 289.52,-132.99"/>
<polygon fill="#63b8ff" stroke="#63b8ff" points="290.57,-129.63 279.99,-129.01 287.87,-136.09 290.57,-129.63"/>
</g>
<!-- Node14 -->
<g id="node14" class="node">
<title>Node14</title>
<g id="a_node14"><a xlink:title=" ">
<polygon fill="#e0e0e0" stroke="#999999" points="431.81,-294 380.81,-294 380.81,-275 431.81,-275 431.81,-294"/>
<text text-anchor="middle" x="406.31" y="-282" font-family="Helvetica,sans-Serif" font-size="10.00">math.h</text>
</a>
</g>
</g>
<!-- Node13&#45;&gt;Node14 -->
<g id="edge18" class="edge">
<title>Node13&#45;&gt;Node14</title>
<path fill="none" stroke="#63b8ff" d="M378.18,-335.37C382.96,-326.9 390.38,-313.74 396.4,-303.07"/>
<polygon fill="#63b8ff" stroke="#63b8ff" points="399.56,-304.6 401.42,-294.17 393.46,-301.16 399.56,-304.6"/>
</g>
<!-- Node16 -->
<g id="node16" class="node">
<title>Node16</title>
<g id="a_node16"><a xlink:title=" ">
<polygon fill="#e0e0e0" stroke="#999999" points="608.31,-360 488.31,-360 488.31,-330 608.31,-330 608.31,-360"/>
<text text-anchor="start" x="496.31" y="-348" font-family="Helvetica,sans-Serif" font-size="10.00">support/data_support</text>
<text text-anchor="middle" x="548.31" y="-337" font-family="Helvetica,sans-Serif" font-size="10.00">/ccCArray.h</text>
</a>
</g>
</g>
<!-- Node15&#45;&gt;Node16 -->
<g id="edge21" class="edge">
<title>Node15&#45;&gt;Node16</title>
<path fill="none" stroke="#63b8ff" d="M516.77,-395.87C521.28,-388.74 527.89,-378.28 533.9,-368.79"/>
<polygon fill="#63b8ff" stroke="#63b8ff" points="537,-370.44 539.39,-360.11 531.08,-366.7 537,-370.44"/>
</g>
</g>
</svg>
