<?xml version="1.0" encoding="UTF-8" standalone="no"?>
<!DOCTYPE svg PUBLIC "-//W3C//DTD SVG 1.1//EN"
 "http://www.w3.org/Graphics/SVG/1.1/DTD/svg11.dtd">
<!-- Generated by graphviz version 2.43.0 (0)
 -->
<!-- Title: /home/runner/work/cocos&#45;headers/cocos&#45;headers/cocos2dx/actions/CCActionManager.h Pages: 1 -->
<svg width="616pt" height="509pt"
 viewBox="0.00 0.00 616.44 509.00" xmlns="http://www.w3.org/2000/svg" xmlns:xlink="http://www.w3.org/1999/xlink">
<g id="graph0" class="graph" transform="scale(1 1) rotate(0) translate(4 505)">
<title>/home/runner/work/cocos&#45;headers/cocos&#45;headers/cocos2dx/actions/CCActionManager.h</title>
<!-- Node1 -->
<g id="node1" class="node">
<title>Node1</title>
<g id="a_node1"><a xlink:title=" ">
<polygon fill="#bfbfbf" stroke="black" points="272.44,-459.5 272.44,-500.5 474.44,-500.5 474.44,-459.5 272.44,-459.5"/>
<text text-anchor="start" x="280.44" y="-488.5" font-family="Helvetica,sans-Serif" font-size="10.00">/home/runner/work/cocos</text>
<text text-anchor="start" x="280.44" y="-477.5" font-family="Helvetica,sans-Serif" font-size="10.00">&#45;headers/cocos&#45;headers</text>
<text text-anchor="middle" x="373.44" y="-466.5" font-family="Helvetica,sans-Serif" font-size="10.00">/cocos2dx/actions/CCActionManager.h</text>
</a>
</g>
</g>
<!-- Node2 -->
<g id="node2" class="node">
<title>Node2</title>
<g id="a_node2"><a xlink:href="../../d6/d35/_c_c_action_8h.html" target="_top" xlink:title=" ">
<polygon fill="none" stroke="black" points="338.44,-403.5 338.44,-422.5 408.44,-422.5 408.44,-403.5 338.44,-403.5"/>
<text text-anchor="middle" x="373.44" y="-410.5" font-family="Helvetica,sans-Serif" font-size="10.00">CCAction.h</text>
</a>
</g>
</g>
<!-- Node1&#45;&gt;Node2 -->
<g id="edge1" class="edge">
<title>Node1&#45;&gt;Node2</title>
<path fill="none" stroke="midnightblue" d="M373.44,-459.5C373.44,-451.07 373.44,-441.24 373.44,-432.87"/>
<polygon fill="midnightblue" stroke="midnightblue" points="376.94,-432.65 373.44,-422.65 369.94,-432.65 376.94,-432.65"/>
</g>
<!-- Node3 -->
<g id="node3" class="node">
<title>Node3</title>
<g id="a_node3"><a xlink:href="../../dd/d69/_c_c_object_8h.html" target="_top" xlink:title=" ">
<polygon fill="none" stroke="black" points="211.44,-280.5 211.44,-299.5 313.44,-299.5 313.44,-280.5 211.44,-280.5"/>
<text text-anchor="middle" x="262.44" y="-287.5" font-family="Helvetica,sans-Serif" font-size="10.00">cocoa/CCObject.h</text>
</a>
</g>
</g>
<!-- Node1&#45;&gt;Node3 -->
<g id="edge22" class="edge">
<title>Node1&#45;&gt;Node3</title>
<path fill="none" stroke="midnightblue" d="M351.69,-459.31C330.06,-438.49 297.55,-403.64 279.44,-367 270.47,-348.86 266.18,-325.95 264.16,-310.05"/>
<polygon fill="midnightblue" stroke="midnightblue" points="267.61,-309.45 263.06,-299.88 260.65,-310.2 267.61,-309.45"/>
</g>
<!-- Node15 -->
<g id="node15" class="node">
<title>Node15</title>
<g id="a_node15"><a xlink:href="../../da/d35/_c_c_array_8h.html" target="_top" xlink:title=" ">
<polygon fill="none" stroke="black" points="463.94,-403.5 463.94,-422.5 558.94,-422.5 558.94,-403.5 463.94,-403.5"/>
<text text-anchor="middle" x="511.44" y="-410.5" font-family="Helvetica,sans-Serif" font-size="10.00">cocoa/CCArray.h</text>
</a>
</g>
</g>
<!-- Node1&#45;&gt;Node15 -->
<g id="edge20" class="edge">
<title>Node1&#45;&gt;Node15</title>
<path fill="none" stroke="midnightblue" d="M414.84,-459.5C437.22,-448.96 464.24,-436.23 484,-426.92"/>
<polygon fill="midnightblue" stroke="midnightblue" points="485.51,-430.08 493.07,-422.65 482.53,-423.75 485.51,-430.08"/>
</g>
<!-- Node2&#45;&gt;Node3 -->
<g id="edge2" class="edge">
<title>Node2&#45;&gt;Node3</title>
<path fill="none" stroke="midnightblue" d="M355.86,-403.39C341.06,-395.48 320.02,-382.63 305.44,-367 289.49,-349.9 277.15,-325.82 269.86,-309.38"/>
<polygon fill="midnightblue" stroke="midnightblue" points="272.94,-307.67 265.81,-299.83 266.49,-310.4 272.94,-307.67"/>
</g>
<!-- Node5 -->
<g id="node5" class="node">
<title>Node5</title>
<g id="a_node5"><a xlink:href="../../d3/d41/_c_c_platform_macros_8h.html" target="_top" xlink:title=" ">
<polygon fill="none" stroke="black" points="171.94,-112.5 171.94,-131.5 332.94,-131.5 332.94,-112.5 171.94,-112.5"/>
<text text-anchor="middle" x="252.44" y="-119.5" font-family="Helvetica,sans-Serif" font-size="10.00">platform/CCPlatformMacros.h</text>
</a>
</g>
</g>
<!-- Node2&#45;&gt;Node5 -->
<g id="edge19" class="edge">
<title>Node2&#45;&gt;Node5</title>
<path fill="none" stroke="midnightblue" d="M394.02,-403.41C409.34,-395.97 429.58,-383.76 441.44,-367 461.54,-338.57 460.44,-325.82 460.44,-291 460.44,-291 460.44,-291 460.44,-233 460.44,-173.53 393.17,-146.13 335.15,-133.55"/>
<polygon fill="midnightblue" stroke="midnightblue" points="335.68,-130.09 325.19,-131.51 334.28,-136.94 335.68,-130.09"/>
</g>
<!-- Node13 -->
<g id="node13" class="node">
<title>Node13</title>
<g id="a_node13"><a xlink:href="../../d6/d09/_c_c_geometry_8h.html" target="_top" xlink:title=" ">
<polygon fill="none" stroke="black" points="314.44,-342 314.44,-361 432.44,-361 432.44,-342 314.44,-342"/>
<text text-anchor="middle" x="373.44" y="-349" font-family="Helvetica,sans-Serif" font-size="10.00">cocoa/CCGeometry.h</text>
</a>
</g>
</g>
<!-- Node2&#45;&gt;Node13 -->
<g id="edge15" class="edge">
<title>Node2&#45;&gt;Node13</title>
<path fill="none" stroke="midnightblue" d="M373.44,-403.48C373.44,-395.08 373.44,-381.98 373.44,-371.16"/>
<polygon fill="midnightblue" stroke="midnightblue" points="376.94,-371.01 373.44,-361.01 369.94,-371.01 376.94,-371.01"/>
</g>
<!-- Node4 -->
<g id="node4" class="node">
<title>Node4</title>
<g id="a_node4"><a xlink:href="../../d9/d2d/_c_c_data_visitor_8h.html" target="_top" xlink:title=" ">
<polygon fill="none" stroke="black" points="215.94,-224.5 215.94,-243.5 308.94,-243.5 308.94,-224.5 215.94,-224.5"/>
<text text-anchor="middle" x="262.44" y="-231.5" font-family="Helvetica,sans-Serif" font-size="10.00">CCDataVisitor.h</text>
</a>
</g>
</g>
<!-- Node3&#45;&gt;Node4 -->
<g id="edge3" class="edge">
<title>Node3&#45;&gt;Node4</title>
<path fill="none" stroke="midnightblue" d="M262.44,-280.08C262.44,-273.01 262.44,-262.86 262.44,-253.99"/>
<polygon fill="midnightblue" stroke="midnightblue" points="265.94,-253.75 262.44,-243.75 258.94,-253.75 265.94,-253.75"/>
</g>
<!-- Node10 -->
<g id="node10" class="node">
<title>Node10</title>
<g id="a_node10"><a xlink:href="../../d9/dc8/cc_macros_8h.html" target="_top" xlink:title=" ">
<polygon fill="none" stroke="black" points="90.94,-224.5 90.94,-243.5 161.94,-243.5 161.94,-224.5 90.94,-224.5"/>
<text text-anchor="middle" x="126.44" y="-231.5" font-family="Helvetica,sans-Serif" font-size="10.00">ccMacros.h</text>
</a>
</g>
</g>
<!-- Node3&#45;&gt;Node10 -->
<g id="edge10" class="edge">
<title>Node3&#45;&gt;Node10</title>
<path fill="none" stroke="midnightblue" d="M240.89,-280.44C218.41,-271.52 182.95,-257.44 157.46,-247.32"/>
<polygon fill="midnightblue" stroke="midnightblue" points="158.47,-243.95 147.89,-243.52 155.89,-250.46 158.47,-243.95"/>
</g>
<!-- Node4&#45;&gt;Node5 -->
<g id="edge4" class="edge">
<title>Node4&#45;&gt;Node5</title>
<path fill="none" stroke="midnightblue" d="M261.65,-224.37C260.04,-206.62 256.32,-165.67 254.13,-141.6"/>
<polygon fill="midnightblue" stroke="midnightblue" points="257.61,-141.23 253.22,-131.59 250.64,-141.87 257.61,-141.23"/>
</g>
<!-- Node9 -->
<g id="node9" class="node">
<title>Node9</title>
<g id="a_node9"><a xlink:title=" ">
<polygon fill="none" stroke="#bfbfbf" points="280.44,-168.5 280.44,-187.5 324.44,-187.5 324.44,-168.5 280.44,-168.5"/>
<text text-anchor="middle" x="302.44" y="-175.5" font-family="Helvetica,sans-Serif" font-size="10.00">string</text>
</a>
</g>
</g>
<!-- Node4&#45;&gt;Node9 -->
<g id="edge9" class="edge">
<title>Node4&#45;&gt;Node9</title>
<path fill="none" stroke="midnightblue" d="M269.04,-224.08C274.69,-216.46 282.98,-205.26 289.89,-195.94"/>
<polygon fill="midnightblue" stroke="midnightblue" points="292.82,-197.87 295.96,-187.75 287.19,-193.7 292.82,-197.87"/>
</g>
<!-- Node6 -->
<g id="node6" class="node">
<title>Node6</title>
<g id="a_node6"><a xlink:href="../../db/d9f/cc_config_8h.html" target="_top" xlink:title="cocos2d (cc) configuration file">
<polygon fill="none" stroke="black" points="67.94,-56.5 67.94,-75.5 134.94,-75.5 134.94,-56.5 67.94,-56.5"/>
<text text-anchor="middle" x="101.44" y="-63.5" font-family="Helvetica,sans-Serif" font-size="10.00">ccConfig.h</text>
</a>
</g>
</g>
<!-- Node5&#45;&gt;Node6 -->
<g id="edge5" class="edge">
<title>Node5&#45;&gt;Node6</title>
<path fill="none" stroke="midnightblue" d="M228.51,-112.44C203.22,-103.4 163.13,-89.06 134.76,-78.92"/>
<polygon fill="midnightblue" stroke="midnightblue" points="135.85,-75.59 125.25,-75.52 133.49,-82.18 135.85,-75.59"/>
</g>
<!-- Node7 -->
<g id="node7" class="node">
<title>Node7</title>
<g id="a_node7"><a xlink:href="../../dd/d96/_c_c_platform_config_8h.html" target="_top" xlink:title=" ">
<polygon fill="none" stroke="black" points="118.94,-0.5 118.94,-19.5 275.94,-19.5 275.94,-0.5 118.94,-0.5"/>
<text text-anchor="middle" x="197.44" y="-7.5" font-family="Helvetica,sans-Serif" font-size="10.00">platform/CCPlatformConfig.h</text>
</a>
</g>
</g>
<!-- Node5&#45;&gt;Node7 -->
<g id="edge7" class="edge">
<title>Node5&#45;&gt;Node7</title>
<path fill="none" stroke="midnightblue" d="M259.92,-112.13C269.9,-99.18 285.11,-74.6 274.44,-56 265.82,-40.99 250.05,-30.5 235.01,-23.46"/>
<polygon fill="midnightblue" stroke="midnightblue" points="236.38,-20.24 225.81,-19.51 233.62,-26.67 236.38,-20.24"/>
</g>
<!-- Node8 -->
<g id="node8" class="node">
<title>Node8</title>
<g id="a_node8"><a xlink:title=" ">
<polygon fill="none" stroke="#bfbfbf" points="152.94,-56.5 152.94,-75.5 265.94,-75.5 265.94,-56.5 152.94,-56.5"/>
<text text-anchor="middle" x="209.44" y="-63.5" font-family="Helvetica,sans-Serif" font-size="10.00">CCPlatformDefine.h</text>
</a>
</g>
</g>
<!-- Node5&#45;&gt;Node8 -->
<g id="edge8" class="edge">
<title>Node5&#45;&gt;Node8</title>
<path fill="none" stroke="midnightblue" d="M245.34,-112.08C239.2,-104.38 230.17,-93.03 222.7,-83.65"/>
<polygon fill="midnightblue" stroke="midnightblue" points="225.37,-81.39 216.41,-75.75 219.9,-85.75 225.37,-81.39"/>
</g>
<!-- Node6&#45;&gt;Node7 -->
<g id="edge6" class="edge">
<title>Node6&#45;&gt;Node7</title>
<path fill="none" stroke="midnightblue" d="M116.86,-56.32C131.98,-47.82 155.25,-34.73 172.91,-24.8"/>
<polygon fill="midnightblue" stroke="midnightblue" points="175.05,-27.61 182.05,-19.65 171.62,-21.51 175.05,-27.61"/>
</g>
<!-- Node10&#45;&gt;Node6 -->
<g id="edge14" class="edge">
<title>Node10&#45;&gt;Node6</title>
<path fill="none" stroke="midnightblue" d="M90.69,-230.09C62.89,-225.73 26.02,-214.89 7.44,-188 -20.44,-147.65 40.59,-102.66 76.93,-80.64"/>
<polygon fill="midnightblue" stroke="midnightblue" points="78.73,-83.64 85.57,-75.55 75.18,-77.61 78.73,-83.64"/>
</g>
<!-- Node11 -->
<g id="node11" class="node">
<title>Node11</title>
<g id="a_node11"><a xlink:href="../../d5/d22/_c_c_common_8h.html" target="_top" xlink:title=" ">
<polygon fill="none" stroke="black" points="16.44,-168.5 16.44,-187.5 144.44,-187.5 144.44,-168.5 16.44,-168.5"/>
<text text-anchor="middle" x="80.44" y="-175.5" font-family="Helvetica,sans-Serif" font-size="10.00">platform/CCCommon.h</text>
</a>
</g>
</g>
<!-- Node10&#45;&gt;Node11 -->
<g id="edge11" class="edge">
<title>Node10&#45;&gt;Node11</title>
<path fill="none" stroke="midnightblue" d="M118.84,-224.08C112.21,-216.3 102.42,-204.8 94.38,-195.37"/>
<polygon fill="midnightblue" stroke="midnightblue" points="97.04,-193.09 87.89,-187.75 91.71,-197.63 97.04,-193.09"/>
</g>
<!-- Node12 -->
<g id="node12" class="node">
<title>Node12</title>
<g id="a_node12"><a xlink:title=" ">
<polygon fill="none" stroke="#bfbfbf" points="162.44,-168.5 162.44,-187.5 224.44,-187.5 224.44,-168.5 162.44,-168.5"/>
<text text-anchor="middle" x="193.44" y="-175.5" font-family="Helvetica,sans-Serif" font-size="10.00">CCStdC.h</text>
</a>
</g>
</g>
<!-- Node10&#45;&gt;Node12 -->
<g id="edge13" class="edge">
<title>Node10&#45;&gt;Node12</title>
<path fill="none" stroke="midnightblue" d="M137.2,-224.32C147.2,-216.26 162.32,-204.08 174.37,-194.37"/>
<polygon fill="midnightblue" stroke="midnightblue" points="176.89,-196.83 182.48,-187.83 172.49,-191.38 176.89,-196.83"/>
</g>
<!-- Node11&#45;&gt;Node5 -->
<g id="edge12" class="edge">
<title>Node11&#45;&gt;Node5</title>
<path fill="none" stroke="midnightblue" d="M107.69,-168.44C136.88,-159.28 183.36,-144.69 215.75,-134.52"/>
<polygon fill="midnightblue" stroke="midnightblue" points="216.82,-137.85 225.31,-131.52 214.72,-131.17 216.82,-137.85"/>
</g>
<!-- Node13&#45;&gt;Node3 -->
<g id="edge17" class="edge">
<title>Node13&#45;&gt;Node3</title>
<path fill="none" stroke="midnightblue" d="M357.53,-341.98C339.15,-332.12 308.68,-315.79 287.19,-304.27"/>
<polygon fill="midnightblue" stroke="midnightblue" points="288.78,-301.15 278.31,-299.51 285.47,-307.32 288.78,-301.15"/>
</g>
<!-- Node13&#45;&gt;Node5 -->
<g id="edge16" class="edge">
<title>Node13&#45;&gt;Node5</title>
<path fill="none" stroke="midnightblue" d="M372.5,-341.95C368.84,-309.79 354.64,-196.49 333.44,-168 322.46,-153.25 305.14,-142.7 289.33,-135.54"/>
<polygon fill="midnightblue" stroke="midnightblue" points="290.33,-132.17 279.75,-131.52 287.62,-138.62 290.33,-132.17"/>
</g>
<!-- Node14 -->
<g id="node14" class="node">
<title>Node14</title>
<g id="a_node14"><a xlink:title=" ">
<polygon fill="none" stroke="#bfbfbf" points="380.94,-280.5 380.94,-299.5 431.94,-299.5 431.94,-280.5 380.94,-280.5"/>
<text text-anchor="middle" x="406.44" y="-287.5" font-family="Helvetica,sans-Serif" font-size="10.00">math.h</text>
</a>
</g>
</g>
<!-- Node13&#45;&gt;Node14 -->
<g id="edge18" class="edge">
<title>Node13&#45;&gt;Node14</title>
<path fill="none" stroke="midnightblue" d="M378.17,-341.98C383.02,-333.23 390.7,-319.37 396.84,-308.31"/>
<polygon fill="midnightblue" stroke="midnightblue" points="399.93,-309.95 401.72,-299.51 393.81,-306.56 399.93,-309.95"/>
</g>
<!-- Node16 -->
<g id="node16" class="node">
<title>Node16</title>
<g id="a_node16"><a xlink:title=" ">
<polygon fill="none" stroke="#bfbfbf" points="488.44,-336.5 488.44,-366.5 608.44,-366.5 608.44,-336.5 488.44,-336.5"/>
<text text-anchor="start" x="496.44" y="-354.5" font-family="Helvetica,sans-Serif" font-size="10.00">support/data_support</text>
<text text-anchor="middle" x="548.44" y="-343.5" font-family="Helvetica,sans-Serif" font-size="10.00">/ccCArray.h</text>
</a>
</g>
</g>
<!-- Node15&#45;&gt;Node16 -->
<g id="edge21" class="edge">
<title>Node15&#45;&gt;Node16</title>
<path fill="none" stroke="midnightblue" d="M516.74,-403.48C521.33,-396.09 528.18,-385.08 534.34,-375.17"/>
<polygon fill="midnightblue" stroke="midnightblue" points="537.41,-376.86 539.72,-366.52 531.46,-373.17 537.41,-376.86"/>
</g>
</g>
</svg>
