<?xml version="1.0" encoding="UTF-8" standalone="no"?>
<!DOCTYPE svg PUBLIC "-//W3C//DTD SVG 1.1//EN"
 "http://www.w3.org/Graphics/SVG/1.1/DTD/svg11.dtd">
<!-- Generated by graphviz version 2.43.0 (0)
 -->
<!-- Title: /home/runner/work/cocos&#45;headers/cocos&#45;headers/cocos2dx/textures/CCTexture2D.h Pages: 1 -->
<svg width="399pt" height="498pt"
 viewBox="0.00 0.00 399.26 498.00" xmlns="http://www.w3.org/2000/svg" xmlns:xlink="http://www.w3.org/1999/xlink">
<g id="graph0" class="graph" transform="scale(1 1) rotate(0) translate(4 494)">
<title>/home/runner/work/cocos&#45;headers/cocos&#45;headers/cocos2dx/textures/CCTexture2D.h</title>
<!-- Node1 -->
<g id="node1" class="node">
<title>Node1</title>
<g id="a_node1"><a xlink:title=" ">
<polygon fill="#bfbfbf" stroke="black" points="62,-448.5 62,-489.5 246,-489.5 246,-448.5 62,-448.5"/>
<text text-anchor="start" x="70" y="-477.5" font-family="Helvetica,sans-Serif" font-size="10.00">/home/runner/work/cocos</text>
<text text-anchor="start" x="70" y="-466.5" font-family="Helvetica,sans-Serif" font-size="10.00">&#45;headers/cocos&#45;headers</text>
<text text-anchor="middle" x="154" y="-455.5" font-family="Helvetica,sans-Serif" font-size="10.00">/cocos2dx/textures/CCTexture2D.h</text>
</a>
</g>
</g>
<!-- Node2 -->
<g id="node2" class="node">
<title>Node2</title>
<g id="a_node2"><a xlink:title=" ">
<polygon fill="none" stroke="#bfbfbf" points="16,-168.5 16,-187.5 60,-187.5 60,-168.5 16,-168.5"/>
<text text-anchor="middle" x="38" y="-175.5" font-family="Helvetica,sans-Serif" font-size="10.00">string</text>
</a>
</g>
</g>
<!-- Node1&#45;&gt;Node2 -->
<g id="edge1" class="edge">
<title>Node1&#45;&gt;Node2</title>
<path fill="none" stroke="midnightblue" d="M94.9,-448.43C51.47,-429.9 0,-397.32 0,-347 0,-347 0,-347 0,-289 0,-254.81 16.6,-217.76 27.86,-196.57"/>
<polygon fill="midnightblue" stroke="midnightblue" points="30.95,-198.22 32.72,-187.77 24.82,-194.83 30.95,-198.22"/>
</g>
<!-- Node3 -->
<g id="node3" class="node">
<title>Node3</title>
<g id="a_node3"><a xlink:href="../../dd/d69/_c_c_object_8h.html" target="_top" xlink:title=" ">
<polygon fill="none" stroke="black" points="231,-280.5 231,-299.5 333,-299.5 333,-280.5 231,-280.5"/>
<text text-anchor="middle" x="282" y="-287.5" font-family="Helvetica,sans-Serif" font-size="10.00">cocoa/CCObject.h</text>
</a>
</g>
</g>
<!-- Node1&#45;&gt;Node3 -->
<g id="edge2" class="edge">
<title>Node1&#45;&gt;Node3</title>
<path fill="none" stroke="midnightblue" d="M179.26,-448.38C204.02,-427.87 241.12,-393.5 263,-356 271.42,-341.56 276.35,-323.11 279.07,-309.56"/>
<polygon fill="midnightblue" stroke="midnightblue" points="282.55,-309.98 280.86,-299.52 275.66,-308.75 282.55,-309.98"/>
</g>
<!-- Node12 -->
<g id="node12" class="node">
<title>Node12</title>
<g id="a_node12"><a xlink:href="../../d6/d09/_c_c_geometry_8h.html" target="_top" xlink:title=" ">
<polygon fill="none" stroke="black" points="136,-336.5 136,-355.5 254,-355.5 254,-336.5 136,-336.5"/>
<text text-anchor="middle" x="195" y="-343.5" font-family="Helvetica,sans-Serif" font-size="10.00">cocoa/CCGeometry.h</text>
</a>
</g>
</g>
<!-- Node1&#45;&gt;Node12 -->
<g id="edge15" class="edge">
<title>Node1&#45;&gt;Node12</title>
<path fill="none" stroke="midnightblue" d="M160.68,-448.29C168.48,-425.27 181.28,-387.5 188.84,-365.17"/>
<polygon fill="midnightblue" stroke="midnightblue" points="192.2,-366.17 192.09,-355.57 185.57,-363.92 192.2,-366.17"/>
</g>
<!-- Node14 -->
<g id="node14" class="node">
<title>Node14</title>
<g id="a_node14"><a xlink:href="../../df/de6/cc_types_8h.html" target="_top" xlink:title=" ">
<polygon fill="none" stroke="black" points="71,-392.5 71,-411.5 135,-411.5 135,-392.5 71,-392.5"/>
<text text-anchor="middle" x="103" y="-399.5" font-family="Helvetica,sans-Serif" font-size="10.00">ccTypes.h</text>
</a>
</g>
</g>
<!-- Node1&#45;&gt;Node14 -->
<g id="edge19" class="edge">
<title>Node1&#45;&gt;Node14</title>
<path fill="none" stroke="midnightblue" d="M138.7,-448.5C131.48,-439.3 122.96,-428.44 116.05,-419.63"/>
<polygon fill="midnightblue" stroke="midnightblue" points="118.72,-417.36 109.79,-411.65 113.21,-421.68 118.72,-417.36"/>
</g>
<!-- Node4 -->
<g id="node4" class="node">
<title>Node4</title>
<g id="a_node4"><a xlink:href="../../d9/d2d/_c_c_data_visitor_8h.html" target="_top" xlink:title=" ">
<polygon fill="none" stroke="black" points="129.5,-224.5 129.5,-243.5 222.5,-243.5 222.5,-224.5 129.5,-224.5"/>
<text text-anchor="middle" x="176" y="-231.5" font-family="Helvetica,sans-Serif" font-size="10.00">CCDataVisitor.h</text>
</a>
</g>
</g>
<!-- Node3&#45;&gt;Node4 -->
<g id="edge3" class="edge">
<title>Node3&#45;&gt;Node4</title>
<path fill="none" stroke="midnightblue" d="M264.97,-280.32C247.97,-271.66 221.62,-258.24 202.01,-248.25"/>
<polygon fill="midnightblue" stroke="midnightblue" points="203.49,-245.08 192.99,-243.65 200.31,-251.31 203.49,-245.08"/>
</g>
<!-- Node9 -->
<g id="node9" class="node">
<title>Node9</title>
<g id="a_node9"><a xlink:href="../../d9/dc8/cc_macros_8h.html" target="_top" xlink:title=" ">
<polygon fill="none" stroke="black" points="254.5,-224.5 254.5,-243.5 325.5,-243.5 325.5,-224.5 254.5,-224.5"/>
<text text-anchor="middle" x="290" y="-231.5" font-family="Helvetica,sans-Serif" font-size="10.00">ccMacros.h</text>
</a>
</g>
</g>
<!-- Node3&#45;&gt;Node9 -->
<g id="edge10" class="edge">
<title>Node3&#45;&gt;Node9</title>
<path fill="none" stroke="midnightblue" d="M283.32,-280.08C284.38,-272.93 285.91,-262.64 287.23,-253.69"/>
<polygon fill="midnightblue" stroke="midnightblue" points="290.7,-254.16 288.7,-243.75 283.78,-253.13 290.7,-254.16"/>
</g>
<!-- Node4&#45;&gt;Node2 -->
<g id="edge9" class="edge">
<title>Node4&#45;&gt;Node2</title>
<path fill="none" stroke="midnightblue" d="M154.13,-224.44C131.22,-215.48 95.02,-201.31 69.13,-191.18"/>
<polygon fill="midnightblue" stroke="midnightblue" points="70.35,-187.9 59.76,-187.52 67.8,-194.42 70.35,-187.9"/>
</g>
<!-- Node5 -->
<g id="node5" class="node">
<title>Node5</title>
<g id="a_node5"><a xlink:href="../../d3/d41/_c_c_platform_macros_8h.html" target="_top" xlink:title=" ">
<polygon fill="none" stroke="black" points="126.5,-112.5 126.5,-131.5 287.5,-131.5 287.5,-112.5 126.5,-112.5"/>
<text text-anchor="middle" x="207" y="-119.5" font-family="Helvetica,sans-Serif" font-size="10.00">platform/CCPlatformMacros.h</text>
</a>
</g>
</g>
<!-- Node4&#45;&gt;Node5 -->
<g id="edge4" class="edge">
<title>Node4&#45;&gt;Node5</title>
<path fill="none" stroke="midnightblue" d="M169.94,-224.32C161.87,-211.59 149.52,-187.3 158,-168 163.39,-155.73 173.96,-145.34 183.9,-137.65"/>
<polygon fill="midnightblue" stroke="midnightblue" points="186.25,-140.27 192.34,-131.6 182.17,-134.58 186.25,-140.27"/>
</g>
<!-- Node6 -->
<g id="node6" class="node">
<title>Node6</title>
<g id="a_node6"><a xlink:href="../../db/d9f/cc_config_8h.html" target="_top" xlink:title="cocos2d (cc) configuration file">
<polygon fill="none" stroke="black" points="301.5,-56.5 301.5,-75.5 368.5,-75.5 368.5,-56.5 301.5,-56.5"/>
<text text-anchor="middle" x="335" y="-63.5" font-family="Helvetica,sans-Serif" font-size="10.00">ccConfig.h</text>
</a>
</g>
</g>
<!-- Node5&#45;&gt;Node6 -->
<g id="edge5" class="edge">
<title>Node5&#45;&gt;Node6</title>
<path fill="none" stroke="midnightblue" d="M227.28,-112.44C248.35,-103.56 281.52,-89.56 305.49,-79.45"/>
<polygon fill="midnightblue" stroke="midnightblue" points="306.96,-82.63 314.81,-75.52 304.24,-76.18 306.96,-82.63"/>
</g>
<!-- Node7 -->
<g id="node7" class="node">
<title>Node7</title>
<g id="a_node7"><a xlink:href="../../dd/d96/_c_c_platform_config_8h.html" target="_top" xlink:title=" ">
<polygon fill="none" stroke="black" points="225.5,-0.5 225.5,-19.5 382.5,-19.5 382.5,-0.5 225.5,-0.5"/>
<text text-anchor="middle" x="304" y="-7.5" font-family="Helvetica,sans-Serif" font-size="10.00">platform/CCPlatformConfig.h</text>
</a>
</g>
</g>
<!-- Node5&#45;&gt;Node7 -->
<g id="edge7" class="edge">
<title>Node5&#45;&gt;Node7</title>
<path fill="none" stroke="midnightblue" d="M216.78,-112.44C226.59,-103.67 241.93,-89.45 254,-76 267.91,-60.5 282.24,-41.5 291.98,-28.05"/>
<polygon fill="midnightblue" stroke="midnightblue" points="294.95,-29.91 297.92,-19.74 289.26,-25.84 294.95,-29.91"/>
</g>
<!-- Node8 -->
<g id="node8" class="node">
<title>Node8</title>
<g id="a_node8"><a xlink:title=" ">
<polygon fill="none" stroke="#bfbfbf" points="131.5,-56.5 131.5,-75.5 244.5,-75.5 244.5,-56.5 131.5,-56.5"/>
<text text-anchor="middle" x="188" y="-63.5" font-family="Helvetica,sans-Serif" font-size="10.00">CCPlatformDefine.h</text>
</a>
</g>
</g>
<!-- Node5&#45;&gt;Node8 -->
<g id="edge8" class="edge">
<title>Node5&#45;&gt;Node8</title>
<path fill="none" stroke="midnightblue" d="M203.86,-112.08C201.32,-104.85 197.64,-94.41 194.47,-85.4"/>
<polygon fill="midnightblue" stroke="midnightblue" points="197.7,-84.02 191.08,-75.75 191.1,-86.35 197.7,-84.02"/>
</g>
<!-- Node6&#45;&gt;Node7 -->
<g id="edge6" class="edge">
<title>Node6&#45;&gt;Node7</title>
<path fill="none" stroke="midnightblue" d="M329.88,-56.08C325.59,-48.61 319.34,-37.72 314.06,-28.52"/>
<polygon fill="midnightblue" stroke="midnightblue" points="317.04,-26.68 309.02,-19.75 310.97,-30.17 317.04,-26.68"/>
</g>
<!-- Node9&#45;&gt;Node6 -->
<g id="edge14" class="edge">
<title>Node9&#45;&gt;Node6</title>
<path fill="none" stroke="midnightblue" d="M325.84,-225.78C346.68,-219.54 371.27,-208.21 384,-188 405.83,-153.35 372.43,-107.33 350.89,-83.26"/>
<polygon fill="midnightblue" stroke="midnightblue" points="353.25,-80.65 343.88,-75.71 348.12,-85.42 353.25,-80.65"/>
</g>
<!-- Node10 -->
<g id="node10" class="node">
<title>Node10</title>
<g id="a_node10"><a xlink:href="../../d5/d22/_c_c_common_8h.html" target="_top" xlink:title=" ">
<polygon fill="none" stroke="black" points="247,-168.5 247,-187.5 375,-187.5 375,-168.5 247,-168.5"/>
<text text-anchor="middle" x="311" y="-175.5" font-family="Helvetica,sans-Serif" font-size="10.00">platform/CCCommon.h</text>
</a>
</g>
</g>
<!-- Node9&#45;&gt;Node10 -->
<g id="edge11" class="edge">
<title>Node9&#45;&gt;Node10</title>
<path fill="none" stroke="midnightblue" d="M293.47,-224.08C296.31,-216.77 300.43,-206.18 303.96,-197.1"/>
<polygon fill="midnightblue" stroke="midnightblue" points="307.23,-198.34 307.6,-187.75 300.71,-195.8 307.23,-198.34"/>
</g>
<!-- Node11 -->
<g id="node11" class="node">
<title>Node11</title>
<g id="a_node11"><a xlink:title=" ">
<polygon fill="none" stroke="#bfbfbf" points="167,-168.5 167,-187.5 229,-187.5 229,-168.5 167,-168.5"/>
<text text-anchor="middle" x="198" y="-175.5" font-family="Helvetica,sans-Serif" font-size="10.00">CCStdC.h</text>
</a>
</g>
</g>
<!-- Node9&#45;&gt;Node11 -->
<g id="edge13" class="edge">
<title>Node9&#45;&gt;Node11</title>
<path fill="none" stroke="midnightblue" d="M275.22,-224.32C260.73,-215.82 238.43,-202.73 221.51,-192.8"/>
<polygon fill="midnightblue" stroke="midnightblue" points="223.14,-189.7 212.74,-187.65 219.6,-195.74 223.14,-189.7"/>
</g>
<!-- Node10&#45;&gt;Node5 -->
<g id="edge12" class="edge">
<title>Node10&#45;&gt;Node5</title>
<path fill="none" stroke="midnightblue" d="M294.29,-168.32C277.69,-159.7 252,-146.36 232.78,-136.39"/>
<polygon fill="midnightblue" stroke="midnightblue" points="234.16,-133.16 223.67,-131.65 230.93,-139.37 234.16,-133.16"/>
</g>
<!-- Node12&#45;&gt;Node3 -->
<g id="edge17" class="edge">
<title>Node12&#45;&gt;Node3</title>
<path fill="none" stroke="midnightblue" d="M208.98,-336.32C222.55,-327.9 243.38,-314.97 259.32,-305.07"/>
<polygon fill="midnightblue" stroke="midnightblue" points="261.41,-307.9 268.06,-299.65 257.71,-301.95 261.41,-307.9"/>
</g>
<!-- Node12&#45;&gt;Node5 -->
<g id="edge16" class="edge">
<title>Node12&#45;&gt;Node5</title>
<path fill="none" stroke="midnightblue" d="M183.5,-336.46C159.89,-317.81 109.13,-271.29 121,-224 127.87,-196.61 132.97,-189.73 151,-168 160.68,-156.34 173.79,-145.61 184.89,-137.55"/>
<polygon fill="midnightblue" stroke="midnightblue" points="187.07,-140.3 193.26,-131.7 183.06,-134.56 187.07,-140.3"/>
</g>
<!-- Node13 -->
<g id="node13" class="node">
<title>Node13</title>
<g id="a_node13"><a xlink:title=" ">
<polygon fill="none" stroke="#bfbfbf" points="161.5,-280.5 161.5,-299.5 212.5,-299.5 212.5,-280.5 161.5,-280.5"/>
<text text-anchor="middle" x="187" y="-287.5" font-family="Helvetica,sans-Serif" font-size="10.00">math.h</text>
</a>
</g>
</g>
<!-- Node12&#45;&gt;Node13 -->
<g id="edge18" class="edge">
<title>Node12&#45;&gt;Node13</title>
<path fill="none" stroke="midnightblue" d="M193.68,-336.08C192.62,-328.93 191.09,-318.64 189.77,-309.69"/>
<polygon fill="midnightblue" stroke="midnightblue" points="193.22,-309.13 188.3,-299.75 186.3,-310.16 193.22,-309.13"/>
</g>
<!-- Node14&#45;&gt;Node2 -->
<g id="edge20" class="edge">
<title>Node14&#45;&gt;Node2</title>
<path fill="none" stroke="midnightblue" d="M90.06,-392.32C79.24,-384.28 64.41,-371.28 57,-356 31.42,-303.27 33.31,-231.53 36.01,-197.88"/>
<polygon fill="midnightblue" stroke="midnightblue" points="39.52,-197.94 36.96,-187.66 32.55,-197.3 39.52,-197.94"/>
</g>
<!-- Node14&#45;&gt;Node12 -->
<g id="edge21" class="edge">
<title>Node14&#45;&gt;Node12</title>
<path fill="none" stroke="midnightblue" d="M117.78,-392.32C132.27,-383.82 154.57,-370.73 171.49,-360.8"/>
<polygon fill="midnightblue" stroke="midnightblue" points="173.4,-363.74 180.26,-355.65 169.86,-357.7 173.4,-363.74"/>
</g>
<!-- Node15 -->
<g id="node15" class="node">
<title>Node15</title>
<g id="a_node15"><a xlink:title=" ">
<polygon fill="none" stroke="#bfbfbf" points="66,-336.5 66,-355.5 118,-355.5 118,-336.5 66,-336.5"/>
<text text-anchor="middle" x="92" y="-343.5" font-family="Helvetica,sans-Serif" font-size="10.00">CCGL.h</text>
</a>
</g>
</g>
<!-- Node14&#45;&gt;Node15 -->
<g id="edge22" class="edge">
<title>Node14&#45;&gt;Node15</title>
<path fill="none" stroke="midnightblue" d="M101.18,-392.08C99.73,-384.93 97.63,-374.64 95.81,-365.69"/>
<polygon fill="midnightblue" stroke="midnightblue" points="99.21,-364.85 93.78,-355.75 92.35,-366.25 99.21,-364.85"/>
</g>
</g>
</svg>
