<?xml version="1.0" encoding="UTF-8" standalone="no"?>
<!DOCTYPE svg PUBLIC "-//W3C//DTD SVG 1.1//EN"
 "http://www.w3.org/Graphics/SVG/1.1/DTD/svg11.dtd">
<!-- Generated by graphviz version 2.43.0 (0)
 -->
<!-- Title: CCTextureProtocol Pages: 1 -->
<svg width="716pt" height="446pt"
 viewBox="0.00 0.00 716.00 446.00" xmlns="http://www.w3.org/2000/svg" xmlns:xlink="http://www.w3.org/1999/xlink">
<g id="graph0" class="graph" transform="scale(1 1) rotate(0) translate(4 442)">
<title>CCTextureProtocol</title>
<!-- Node1 -->
<g id="node1" class="node">
<title>Node1</title>
<g id="a_node1"><a xlink:title="CCNode objects that uses a CCTexture2D to render the images.">
<polygon fill="#bfbfbf" stroke="black" points="134,-190.5 134,-209.5 240,-209.5 240,-190.5 134,-190.5"/>
<text text-anchor="middle" x="187" y="-197.5" font-family="Helvetica,sans-Serif" font-size="10.00">CCTextureProtocol</text>
</a>
</g>
</g>
<!-- Node3 -->
<g id="node3" class="node">
<title>Node3</title>
<g id="a_node3"><a xlink:href="../../d7/d70/classcocos2d_1_1_c_c_atlas_node.html" target="_top" xlink:title="CCAtlasNode is a subclass of CCNode that implements the CCRGBAProtocol and CCTextureProtocol protocol...">
<polygon fill="none" stroke="black" points="295.5,-285.5 295.5,-304.5 375.5,-304.5 375.5,-285.5 295.5,-285.5"/>
<text text-anchor="middle" x="335.5" y="-292.5" font-family="Helvetica,sans-Serif" font-size="10.00">CCAtlasNode</text>
</a>
</g>
</g>
<!-- Node1&#45;&gt;Node3 -->
<g id="edge2" class="edge">
<title>Node1&#45;&gt;Node3</title>
<path fill="none" stroke="midnightblue" d="M203.76,-217.13C220.28,-234.19 247.74,-260.07 276,-276 282.61,-279.72 290.05,-282.84 297.35,-285.41"/>
<polygon fill="midnightblue" stroke="midnightblue" points="205.99,-214.4 196.57,-209.55 200.91,-219.21 205.99,-214.4"/>
</g>
<!-- Node6 -->
<g id="node6" class="node">
<title>Node6</title>
<g id="a_node6"><a xlink:href="../../d9/d38/classcocos2d_1_1_c_c_motion_streak.html" target="_top" xlink:title="MotionStreak.">
<polygon fill="none" stroke="black" points="288,-247.5 288,-266.5 383,-266.5 383,-247.5 288,-247.5"/>
<text text-anchor="middle" x="335.5" y="-254.5" font-family="Helvetica,sans-Serif" font-size="10.00">CCMotionStreak</text>
</a>
</g>
</g>
<!-- Node1&#45;&gt;Node6 -->
<g id="edge5" class="edge">
<title>Node1&#45;&gt;Node6</title>
<path fill="none" stroke="midnightblue" d="M218.1,-213.83C234.97,-221.37 256.48,-230.63 276,-238 284.79,-241.32 294.45,-244.6 303.34,-247.48"/>
<polygon fill="midnightblue" stroke="midnightblue" points="219.31,-210.53 208.76,-209.62 216.43,-216.92 219.31,-210.53"/>
</g>
<!-- Node7 -->
<g id="node7" class="node">
<title>Node7</title>
<g id="a_node7"><a xlink:href="../../d0/d0a/classcocos2d_1_1_c_c_particle_batch_node.html" target="_top" xlink:title="CCParticleBatchNode is like a batch node: if it contains children, it will draw them in 1 single Open...">
<polygon fill="none" stroke="black" points="276,-209.5 276,-228.5 395,-228.5 395,-209.5 276,-209.5"/>
<text text-anchor="middle" x="335.5" y="-216.5" font-family="Helvetica,sans-Serif" font-size="10.00">CCParticleBatchNode</text>
</a>
</g>
</g>
<!-- Node1&#45;&gt;Node7 -->
<g id="edge6" class="edge">
<title>Node1&#45;&gt;Node7</title>
<path fill="none" stroke="midnightblue" d="M250,-208.04C258.58,-209.15 267.36,-210.29 275.87,-211.4"/>
<polygon fill="midnightblue" stroke="midnightblue" points="250.43,-204.57 240.06,-206.75 249.53,-211.51 250.43,-204.57"/>
</g>
<!-- Node8 -->
<g id="node8" class="node">
<title>Node8</title>
<g id="a_node8"><a xlink:href="../../dd/dd8/classcocos2d_1_1_c_c_particle_system.html" target="_top" xlink:title="Particle System base class.">
<polygon fill="none" stroke="black" points="284,-171.5 284,-190.5 387,-190.5 387,-171.5 284,-171.5"/>
<text text-anchor="middle" x="335.5" y="-178.5" font-family="Helvetica,sans-Serif" font-size="10.00">CCParticleSystem</text>
</a>
</g>
</g>
<!-- Node1&#45;&gt;Node8 -->
<g id="edge7" class="edge">
<title>Node1&#45;&gt;Node8</title>
<path fill="none" stroke="midnightblue" d="M250.17,-191.94C261.31,-190.49 272.81,-189 283.59,-187.6"/>
<polygon fill="midnightblue" stroke="midnightblue" points="249.53,-188.49 240.06,-193.25 250.43,-195.43 249.53,-188.49"/>
</g>
<!-- Node21 -->
<g id="node21" class="node">
<title>Node21</title>
<g id="a_node21"><a xlink:href="../../d4/de7/classcocos2d_1_1_c_c_sprite.html" target="_top" xlink:title="CCSprite is a 2d image ( http://en.wikipedia.org/wiki/Sprite_(computer_graphics) )">
<polygon fill="none" stroke="black" points="306,-133.5 306,-152.5 365,-152.5 365,-133.5 306,-133.5"/>
<text text-anchor="middle" x="335.5" y="-140.5" font-family="Helvetica,sans-Serif" font-size="10.00">CCSprite</text>
</a>
</g>
</g>
<!-- Node1&#45;&gt;Node21 -->
<g id="edge20" class="edge">
<title>Node1&#45;&gt;Node21</title>
<path fill="none" stroke="midnightblue" d="M218.1,-186.17C234.97,-178.63 256.48,-169.37 276,-162 285.59,-158.38 296.22,-154.8 305.75,-151.75"/>
<polygon fill="midnightblue" stroke="midnightblue" points="216.43,-183.08 208.76,-190.38 219.31,-189.47 216.43,-183.08"/>
</g>
<!-- Node24 -->
<g id="node24" class="node">
<title>Node24</title>
<g id="a_node24"><a xlink:href="../../dd/d95/classcocos2d_1_1_c_c_sprite_batch_node.html" target="_top" xlink:title="CCSpriteBatchNode is like a batch node: if it contains children, it will draw them in 1 single OpenGL...">
<polygon fill="none" stroke="black" points="279.5,-95.5 279.5,-114.5 391.5,-114.5 391.5,-95.5 279.5,-95.5"/>
<text text-anchor="middle" x="335.5" y="-102.5" font-family="Helvetica,sans-Serif" font-size="10.00">CCSpriteBatchNode</text>
</a>
</g>
</g>
<!-- Node1&#45;&gt;Node24 -->
<g id="edge23" class="edge">
<title>Node1&#45;&gt;Node24</title>
<path fill="none" stroke="midnightblue" d="M203.76,-182.87C220.28,-165.81 247.74,-139.93 276,-124 282.61,-120.28 290.05,-117.16 297.35,-114.59"/>
<polygon fill="midnightblue" stroke="midnightblue" points="200.91,-180.79 196.57,-190.45 205.99,-185.6 200.91,-180.79"/>
</g>
<!-- Node2 -->
<g id="node2" class="node">
<title>Node2</title>
<g id="a_node2"><a xlink:href="../../d6/d82/classcocos2d_1_1_c_c_blend_protocol.html" target="_top" xlink:title="Specify the blending function according glBlendFunc Please refer to glBlendFunc in OpenGL ES Manual h...">
<polygon fill="none" stroke="black" points="0,-190.5 0,-209.5 98,-209.5 98,-190.5 0,-190.5"/>
<text text-anchor="middle" x="49" y="-197.5" font-family="Helvetica,sans-Serif" font-size="10.00">CCBlendProtocol</text>
</a>
</g>
</g>
<!-- Node2&#45;&gt;Node1 -->
<g id="edge1" class="edge">
<title>Node2&#45;&gt;Node1</title>
<path fill="none" stroke="midnightblue" d="M108.43,-200C116.82,-200 125.41,-200 133.67,-200"/>
<polygon fill="midnightblue" stroke="midnightblue" points="108.33,-196.5 98.33,-200 108.33,-203.5 108.33,-196.5"/>
</g>
<!-- Node4 -->
<g id="node4" class="node">
<title>Node4</title>
<g id="a_node4"><a xlink:href="../../d7/d84/classcocos2d_1_1_c_c_label_atlas.html" target="_top" xlink:title="CCLabelAtlas is a subclass of CCAtlasNode.">
<polygon fill="none" stroke="black" points="454.5,-304.5 454.5,-323.5 535.5,-323.5 535.5,-304.5 454.5,-304.5"/>
<text text-anchor="middle" x="495" y="-311.5" font-family="Helvetica,sans-Serif" font-size="10.00">CCLabelAtlas</text>
</a>
</g>
</g>
<!-- Node3&#45;&gt;Node4 -->
<g id="edge3" class="edge">
<title>Node3&#45;&gt;Node4</title>
<path fill="none" stroke="midnightblue" d="M386,-300.97C408.03,-303.63 433.61,-306.71 454.34,-309.22"/>
<polygon fill="midnightblue" stroke="midnightblue" points="386.18,-297.47 375.84,-299.75 385.35,-304.42 386.18,-297.47"/>
</g>
<!-- Node5 -->
<g id="node5" class="node">
<title>Node5</title>
<g id="a_node5"><a xlink:href="../../d2/d8b/classcocos2d_1_1_c_c_tile_map_atlas.html" target="_top" xlink:title="CCTileMapAtlas is a subclass of CCAtlasNode.">
<polygon fill="none" stroke="black" points="448,-266.5 448,-285.5 542,-285.5 542,-266.5 448,-266.5"/>
<text text-anchor="middle" x="495" y="-273.5" font-family="Helvetica,sans-Serif" font-size="10.00">CCTileMapAtlas</text>
</a>
</g>
</g>
<!-- Node3&#45;&gt;Node5 -->
<g id="edge4" class="edge">
<title>Node3&#45;&gt;Node5</title>
<path fill="none" stroke="midnightblue" d="M385.9,-289.04C405.72,-286.65 428.43,-283.91 447.9,-281.56"/>
<polygon fill="midnightblue" stroke="midnightblue" points="385.35,-285.58 375.84,-290.25 386.18,-292.53 385.35,-285.58"/>
</g>
<!-- Node9 -->
<g id="node9" class="node">
<title>Node9</title>
<g id="a_node9"><a xlink:href="../../d9/df5/classcocos2d_1_1_c_c_particle_system_quad.html" target="_top" xlink:title="CCParticleSystemQuad is a subclass of CCParticleSystem.">
<polygon fill="none" stroke="black" points="431,-209.5 431,-228.5 559,-228.5 559,-209.5 431,-209.5"/>
<text text-anchor="middle" x="495" y="-216.5" font-family="Helvetica,sans-Serif" font-size="10.00">CCParticleSystemQuad</text>
</a>
</g>
</g>
<!-- Node8&#45;&gt;Node9 -->
<g id="edge8" class="edge">
<title>Node8&#45;&gt;Node9</title>
<path fill="none" stroke="midnightblue" d="M386.1,-192.97C408.18,-198.29 433.8,-204.48 454.54,-209.48"/>
<polygon fill="midnightblue" stroke="midnightblue" points="386.79,-189.53 376.24,-190.59 385.14,-196.34 386.79,-189.53"/>
</g>
<!-- Node10 -->
<g id="node10" class="node">
<title>Node10</title>
<g id="a_node10"><a xlink:href="../../dc/d49/classcocos2d_1_1_c_c_particle_explosion.html" target="_top" xlink:title="An explosion particle system.">
<polygon fill="none" stroke="black" points="595,-418.5 595,-437.5 708,-437.5 708,-418.5 595,-418.5"/>
<text text-anchor="middle" x="651.5" y="-425.5" font-family="Helvetica,sans-Serif" font-size="10.00">CCParticleExplosion</text>
</a>
</g>
</g>
<!-- Node9&#45;&gt;Node10 -->
<g id="edge9" class="edge">
<title>Node9&#45;&gt;Node10</title>
<path fill="none" stroke="midnightblue" d="M530.37,-233.24C540.96,-239.16 551.72,-247.02 559,-257 599.92,-313.08 548.35,-357.58 595,-409 598.49,-412.85 602.79,-415.92 607.44,-418.36"/>
<polygon fill="midnightblue" stroke="midnightblue" points="531.71,-229.99 521.21,-228.54 528.51,-236.22 531.71,-229.99"/>
</g>
<!-- Node11 -->
<g id="node11" class="node">
<title>Node11</title>
<g id="a_node11"><a xlink:href="../../d6/d20/classcocos2d_1_1_c_c_particle_fire.html" target="_top" xlink:title="A fire particle system.">
<polygon fill="none" stroke="black" points="609.5,-380.5 609.5,-399.5 693.5,-399.5 693.5,-380.5 609.5,-380.5"/>
<text text-anchor="middle" x="651.5" y="-387.5" font-family="Helvetica,sans-Serif" font-size="10.00">CCParticleFire</text>
</a>
</g>
</g>
<!-- Node9&#45;&gt;Node11 -->
<g id="edge10" class="edge">
<title>Node9&#45;&gt;Node11</title>
<path fill="none" stroke="midnightblue" d="M529.12,-233.1C539.93,-239.1 551.16,-247.04 559,-257 591.87,-298.75 557.88,-332.98 595,-371 599.06,-375.15 604.06,-378.4 609.38,-380.94"/>
<polygon fill="midnightblue" stroke="midnightblue" points="530.72,-229.98 520.22,-228.51 527.51,-236.2 530.72,-229.98"/>
</g>
<!-- Node12 -->
<g id="node12" class="node">
<title>Node12</title>
<g id="a_node12"><a xlink:href="../../d7/d6c/classcocos2d_1_1_c_c_particle_fireworks.html" target="_top" xlink:title="A fireworks particle system.">
<polygon fill="none" stroke="black" points="595,-342.5 595,-361.5 708,-361.5 708,-342.5 595,-342.5"/>
<text text-anchor="middle" x="651.5" y="-349.5" font-family="Helvetica,sans-Serif" font-size="10.00">CCParticleFireworks</text>
</a>
</g>
</g>
<!-- Node9&#45;&gt;Node12 -->
<g id="edge11" class="edge">
<title>Node9&#45;&gt;Node12</title>
<path fill="none" stroke="midnightblue" d="M527.62,-233.3C538.59,-239.41 550.3,-247.38 559,-257 584.07,-284.72 567.13,-308.1 595,-333 599.33,-336.87 604.48,-339.95 609.88,-342.42"/>
<polygon fill="midnightblue" stroke="midnightblue" points="529.15,-230.15 518.67,-228.6 525.9,-236.35 529.15,-230.15"/>
</g>
<!-- Node13 -->
<g id="node13" class="node">
<title>Node13</title>
<g id="a_node13"><a xlink:href="../../df/da7/classcocos2d_1_1_c_c_particle_flower.html" target="_top" xlink:title="A flower particle system.">
<polygon fill="none" stroke="black" points="602,-304.5 602,-323.5 701,-323.5 701,-304.5 602,-304.5"/>
<text text-anchor="middle" x="651.5" y="-311.5" font-family="Helvetica,sans-Serif" font-size="10.00">CCParticleFlower</text>
</a>
</g>
</g>
<!-- Node9&#45;&gt;Node13 -->
<g id="edge12" class="edge">
<title>Node9&#45;&gt;Node13</title>
<path fill="none" stroke="midnightblue" d="M523.86,-233.64C535.22,-240.15 548.19,-248.3 559,-257 577.13,-271.58 575.43,-282.42 595,-295 600.91,-298.8 607.67,-301.93 614.39,-304.48"/>
<polygon fill="midnightblue" stroke="midnightblue" points="525.22,-230.39 514.78,-228.58 521.81,-236.51 525.22,-230.39"/>
</g>
<!-- Node14 -->
<g id="node14" class="node">
<title>Node14</title>
<g id="a_node14"><a xlink:href="../../d9/d53/classcocos2d_1_1_c_c_particle_galaxy.html" target="_top" xlink:title="A galaxy particle system.">
<polygon fill="none" stroke="black" points="601,-266.5 601,-285.5 702,-285.5 702,-266.5 601,-266.5"/>
<text text-anchor="middle" x="651.5" y="-273.5" font-family="Helvetica,sans-Serif" font-size="10.00">CCParticleGalaxy</text>
</a>
</g>
</g>
<!-- Node9&#45;&gt;Node14 -->
<g id="edge13" class="edge">
<title>Node9&#45;&gt;Node14</title>
<path fill="none" stroke="midnightblue" d="M529.78,-232.32C548.86,-239.75 573.19,-249.08 595,-257 603.71,-260.16 613.24,-263.48 621.91,-266.44"/>
<polygon fill="midnightblue" stroke="midnightblue" points="530.91,-229 520.32,-228.62 528.36,-235.52 530.91,-229"/>
</g>
<!-- Node15 -->
<g id="node15" class="node">
<title>Node15</title>
<g id="a_node15"><a xlink:href="../../d1/d3f/classcocos2d_1_1_c_c_particle_meteor.html" target="_top" xlink:title="A meteor particle system.">
<polygon fill="none" stroke="black" points="601,-228.5 601,-247.5 702,-247.5 702,-228.5 601,-228.5"/>
<text text-anchor="middle" x="651.5" y="-235.5" font-family="Helvetica,sans-Serif" font-size="10.00">CCParticleMeteor</text>
</a>
</g>
</g>
<!-- Node9&#45;&gt;Node15 -->
<g id="edge14" class="edge">
<title>Node9&#45;&gt;Node15</title>
<path fill="none" stroke="midnightblue" d="M569.42,-228.03C580.05,-229.34 590.77,-230.65 600.79,-231.89"/>
<polygon fill="midnightblue" stroke="midnightblue" points="569.64,-224.53 559.29,-226.78 568.78,-231.48 569.64,-224.53"/>
</g>
<!-- Node16 -->
<g id="node16" class="node">
<title>Node16</title>
<g id="a_node16"><a xlink:href="../../dd/dcd/classcocos2d_1_1_c_c_particle_rain.html" target="_top" xlink:title="A rain particle system.">
<polygon fill="none" stroke="black" points="607.5,-190.5 607.5,-209.5 695.5,-209.5 695.5,-190.5 607.5,-190.5"/>
<text text-anchor="middle" x="651.5" y="-197.5" font-family="Helvetica,sans-Serif" font-size="10.00">CCParticleRain</text>
</a>
</g>
</g>
<!-- Node9&#45;&gt;Node16 -->
<g id="edge15" class="edge">
<title>Node9&#45;&gt;Node16</title>
<path fill="none" stroke="midnightblue" d="M569.22,-210C582.28,-208.39 595.49,-206.76 607.36,-205.31"/>
<polygon fill="midnightblue" stroke="midnightblue" points="568.78,-206.52 559.29,-211.22 569.64,-213.47 568.78,-206.52"/>
</g>
<!-- Node17 -->
<g id="node17" class="node">
<title>Node17</title>
<g id="a_node17"><a xlink:href="../../d5/d45/classcocos2d_1_1_c_c_particle_smoke.html" target="_top" xlink:title="An smoke particle system.">
<polygon fill="none" stroke="black" points="602,-152.5 602,-171.5 701,-171.5 701,-152.5 602,-152.5"/>
<text text-anchor="middle" x="651.5" y="-159.5" font-family="Helvetica,sans-Serif" font-size="10.00">CCParticleSmoke</text>
</a>
</g>
</g>
<!-- Node9&#45;&gt;Node17 -->
<g id="edge16" class="edge">
<title>Node9&#45;&gt;Node17</title>
<path fill="none" stroke="midnightblue" d="M529.78,-205.68C548.86,-198.25 573.19,-188.92 595,-181 603.71,-177.84 613.24,-174.52 621.91,-171.56"/>
<polygon fill="midnightblue" stroke="midnightblue" points="528.36,-202.48 520.32,-209.38 530.91,-209 528.36,-202.48"/>
</g>
<!-- Node18 -->
<g id="node18" class="node">
<title>Node18</title>
<g id="a_node18"><a xlink:href="../../d8/dfe/classcocos2d_1_1_c_c_particle_snow.html" target="_top" xlink:title="An snow particle system.">
<polygon fill="none" stroke="black" points="605.5,-114.5 605.5,-133.5 697.5,-133.5 697.5,-114.5 605.5,-114.5"/>
<text text-anchor="middle" x="651.5" y="-121.5" font-family="Helvetica,sans-Serif" font-size="10.00">CCParticleSnow</text>
</a>
</g>
</g>
<!-- Node9&#45;&gt;Node18 -->
<g id="edge17" class="edge">
<title>Node9&#45;&gt;Node18</title>
<path fill="none" stroke="midnightblue" d="M513.72,-202.5C532.63,-185.63 564.06,-159.59 595,-143 601.82,-139.34 609.48,-136.18 616.89,-133.54"/>
<polygon fill="midnightblue" stroke="midnightblue" points="511.25,-200.02 506.19,-209.33 515.95,-205.21 511.25,-200.02"/>
</g>
<!-- Node19 -->
<g id="node19" class="node">
<title>Node19</title>
<g id="a_node19"><a xlink:href="../../da/d14/classcocos2d_1_1_c_c_particle_spiral.html" target="_top" xlink:title="An spiral particle system.">
<polygon fill="none" stroke="black" points="604.5,-76.5 604.5,-95.5 698.5,-95.5 698.5,-76.5 604.5,-76.5"/>
<text text-anchor="middle" x="651.5" y="-83.5" font-family="Helvetica,sans-Serif" font-size="10.00">CCParticleSpiral</text>
</a>
</g>
</g>
<!-- Node9&#45;&gt;Node19 -->
<g id="edge18" class="edge">
<title>Node9&#45;&gt;Node19</title>
<path fill="none" stroke="midnightblue" d="M516.46,-202.94C529.48,-192.15 546.23,-177.19 559,-162 578.29,-139.07 571.49,-123.58 595,-105 599.87,-101.15 605.58,-98.05 611.44,-95.57"/>
<polygon fill="midnightblue" stroke="midnightblue" points="514.09,-200.36 508.53,-209.38 518.5,-205.79 514.09,-200.36"/>
</g>
<!-- Node20 -->
<g id="node20" class="node">
<title>Node20</title>
<g id="a_node20"><a xlink:href="../../d6/da3/classcocos2d_1_1_c_c_particle_sun.html" target="_top" xlink:title="A sun particle system.">
<polygon fill="none" stroke="black" points="609.5,-38.5 609.5,-57.5 693.5,-57.5 693.5,-38.5 609.5,-38.5"/>
<text text-anchor="middle" x="651.5" y="-45.5" font-family="Helvetica,sans-Serif" font-size="10.00">CCParticleSun</text>
</a>
</g>
</g>
<!-- Node9&#45;&gt;Node20 -->
<g id="edge19" class="edge">
<title>Node9&#45;&gt;Node20</title>
<path fill="none" stroke="midnightblue" d="M518.28,-203.17C531.6,-192.75 548.02,-178.09 559,-162 584.45,-124.7 562.56,-98.41 595,-67 599.1,-63.03 604.06,-59.89 609.31,-57.41"/>
<polygon fill="midnightblue" stroke="midnightblue" points="515.93,-200.56 510.06,-209.38 520.15,-206.15 515.93,-200.56"/>
</g>
<!-- Node22 -->
<g id="node22" class="node">
<title>Node22</title>
<g id="a_node22"><a xlink:href="../../df/d72/classcocos2d_1_1_c_c_label_t_t_f.html" target="_top" xlink:title="CCLabelTTF is a subclass of CCTextureNode that knows how to render text labels.">
<polygon fill="none" stroke="black" points="458,-133.5 458,-152.5 532,-152.5 532,-133.5 458,-133.5"/>
<text text-anchor="middle" x="495" y="-140.5" font-family="Helvetica,sans-Serif" font-size="10.00">CCLabelTTF</text>
</a>
</g>
</g>
<!-- Node21&#45;&gt;Node22 -->
<g id="edge21" class="edge">
<title>Node21&#45;&gt;Node22</title>
<path fill="none" stroke="midnightblue" d="M375.34,-143C400.59,-143 433.27,-143 457.94,-143"/>
<polygon fill="midnightblue" stroke="midnightblue" points="375.02,-139.5 365.02,-143 375.02,-146.5 375.02,-139.5"/>
</g>
<!-- Node23 -->
<g id="node23" class="node">
<title>Node23</title>
<g id="a_node23"><a xlink:href="../../d4/d5b/classcocos2d_1_1_c_c_text_field_t_t_f.html" target="_top" xlink:title="A simple text input field with TTF font.">
<polygon fill="none" stroke="black" points="605.5,-0.5 605.5,-19.5 697.5,-19.5 697.5,-0.5 605.5,-0.5"/>
<text text-anchor="middle" x="651.5" y="-7.5" font-family="Helvetica,sans-Serif" font-size="10.00">CCTextFieldTTF</text>
</a>
</g>
</g>
<!-- Node22&#45;&gt;Node23 -->
<g id="edge22" class="edge">
<title>Node22&#45;&gt;Node23</title>
<path fill="none" stroke="midnightblue" d="M542.15,-134.56C548.32,-131.94 554.18,-128.5 559,-124 592.01,-93.2 562.56,-60.41 595,-29 599.02,-25.1 603.88,-22 609.03,-19.54"/>
<polygon fill="midnightblue" stroke="midnightblue" points="540.55,-131.42 532.29,-138.05 542.88,-138.01 540.55,-131.42"/>
</g>
<!-- Node25 -->
<g id="node25" class="node">
<title>Node25</title>
<g id="a_node25"><a xlink:href="../../dc/dfb/classcocos2d_1_1_c_c_label_b_m_font.html" target="_top" xlink:title="CCLabelBMFont is a subclass of CCSpriteBatchNode.">
<polygon fill="none" stroke="black" points="448.5,-95.5 448.5,-114.5 541.5,-114.5 541.5,-95.5 448.5,-95.5"/>
<text text-anchor="middle" x="495" y="-102.5" font-family="Helvetica,sans-Serif" font-size="10.00">CCLabelBMFont</text>
</a>
</g>
</g>
<!-- Node24&#45;&gt;Node25 -->
<g id="edge24" class="edge">
<title>Node24&#45;&gt;Node25</title>
<path fill="none" stroke="midnightblue" d="M401.74,-105C417.39,-105 433.78,-105 448.33,-105"/>
<polygon fill="midnightblue" stroke="midnightblue" points="401.59,-101.5 391.59,-105 401.59,-108.5 401.59,-101.5"/>
</g>
<!-- Node26 -->
<g id="node26" class="node">
<title>Node26</title>
<g id="a_node26"><a xlink:href="../../da/d5a/classcocos2d_1_1_c_c_t_m_x_layer.html" target="_top" xlink:title="CCTMXLayer represents the TMX layer.">
<polygon fill="none" stroke="black" points="455.5,-57.5 455.5,-76.5 534.5,-76.5 534.5,-57.5 455.5,-57.5"/>
<text text-anchor="middle" x="495" y="-64.5" font-family="Helvetica,sans-Serif" font-size="10.00">CCTMXLayer</text>
</a>
</g>
</g>
<!-- Node24&#45;&gt;Node26 -->
<g id="edge25" class="edge">
<title>Node24&#45;&gt;Node26</title>
<path fill="none" stroke="midnightblue" d="M386.22,-93C408.56,-87.62 434.51,-81.35 455.36,-76.32"/>
<polygon fill="midnightblue" stroke="midnightblue" points="385.14,-89.66 376.24,-95.41 386.79,-96.47 385.14,-89.66"/>
</g>
</g>
</svg>
