<?xml version="1.0" encoding="UTF-8" standalone="no"?>
<!DOCTYPE svg PUBLIC "-//W3C//DTD SVG 1.1//EN"
 "http://www.w3.org/Graphics/SVG/1.1/DTD/svg11.dtd">
<!-- Generated by graphviz version 2.43.0 (0)
 -->
<!-- Title: CCTextureProtocol Pages: 1 -->
<svg width="716pt" height="434pt"
 viewBox="0.00 0.00 716.00 434.00" xmlns="http://www.w3.org/2000/svg" xmlns:xlink="http://www.w3.org/1999/xlink">
<g id="graph0" class="graph" transform="scale(1 1) rotate(0) translate(4 430)">
<title>CCTextureProtocol</title>
<!-- Node1 -->
<g id="node1" class="node">
<title>Node1</title>
<g id="a_node1"><a xlink:title="CCNode objects that uses a CCTexture2D to render the images.">
<polygon fill="#999999" stroke="#666666" points="240,-203 134,-203 134,-184 240,-184 240,-203"/>
<text text-anchor="middle" x="187" y="-191" font-family="Helvetica,sans-Serif" font-size="10.00">CCTextureProtocol</text>
</a>
</g>
</g>
<!-- Node3 -->
<g id="node3" class="node">
<title>Node3</title>
<g id="a_node3"><a xlink:href="../../d7/d70/classcocos2d_1_1_c_c_atlas_node.html" target="_top" xlink:title="CCAtlasNode is a subclass of CCNode that implements the CCRGBAProtocol and CCTextureProtocol protocol...">
<polygon fill="white" stroke="#666666" points="375.5,-296 295.5,-296 295.5,-277 375.5,-277 375.5,-296"/>
<text text-anchor="middle" x="335.5" y="-284" font-family="Helvetica,sans-Serif" font-size="10.00">CCAtlasNode</text>
</a>
</g>
</g>
<!-- Node1&#45;&gt;Node3 -->
<g id="edge2" class="edge">
<title>Node1&#45;&gt;Node3</title>
<path fill="none" stroke="#63b8ff" d="M204.02,-210.76C220.56,-227.66 247.87,-253.06 276,-268.5 282.05,-271.82 288.81,-274.62 295.51,-276.94"/>
<polygon fill="#63b8ff" stroke="#63b8ff" points="206.24,-208.03 196.8,-203.23 201.19,-212.87 206.24,-208.03"/>
</g>
<!-- Node6 -->
<g id="node6" class="node">
<title>Node6</title>
<g id="a_node6"><a xlink:href="../../d9/d38/classcocos2d_1_1_c_c_motion_streak.html" target="_top" xlink:title="MotionStreak.">
<polygon fill="white" stroke="#666666" points="383,-259 288,-259 288,-240 383,-240 383,-259"/>
<text text-anchor="middle" x="335.5" y="-247" font-family="Helvetica,sans-Serif" font-size="10.00">CCMotionStreak</text>
</a>
</g>
</g>
<!-- Node1&#45;&gt;Node6 -->
<g id="edge5" class="edge">
<title>Node1&#45;&gt;Node6</title>
<path fill="none" stroke="#63b8ff" d="M217.72,-207.3C234.62,-214.9 256.29,-224.24 276,-231.5 284.08,-234.48 292.9,-237.37 301.19,-239.94"/>
<polygon fill="#63b8ff" stroke="#63b8ff" points="218.92,-204 208.37,-203.05 216.03,-210.37 218.92,-204"/>
</g>
<!-- Node7 -->
<g id="node7" class="node">
<title>Node7</title>
<g id="a_node7"><a xlink:href="../../d0/d0a/classcocos2d_1_1_c_c_particle_batch_node.html" target="_top" xlink:title="CCParticleBatchNode is like a batch node: if it contains children, it will draw them in 1 single Open...">
<polygon fill="white" stroke="#666666" points="395,-222 276,-222 276,-203 395,-203 395,-222"/>
<text text-anchor="middle" x="335.5" y="-210" font-family="Helvetica,sans-Serif" font-size="10.00">CCParticleBatchNode</text>
</a>
</g>
</g>
<!-- Node1&#45;&gt;Node7 -->
<g id="edge6" class="edge">
<title>Node1&#45;&gt;Node7</title>
<path fill="none" stroke="#63b8ff" d="M250,-201.54C258.58,-202.65 267.36,-203.79 275.87,-204.9"/>
<polygon fill="#63b8ff" stroke="#63b8ff" points="250.43,-198.07 240.06,-200.25 249.53,-205.01 250.43,-198.07"/>
</g>
<!-- Node8 -->
<g id="node8" class="node">
<title>Node8</title>
<g id="a_node8"><a xlink:href="../../dd/dd8/classcocos2d_1_1_c_c_particle_system.html" target="_top" xlink:title="Particle System base class.">
<polygon fill="white" stroke="#666666" points="387,-185 284,-185 284,-166 387,-166 387,-185"/>
<text text-anchor="middle" x="335.5" y="-173" font-family="Helvetica,sans-Serif" font-size="10.00">CCParticleSystem</text>
</a>
</g>
</g>
<!-- Node1&#45;&gt;Node8 -->
<g id="edge7" class="edge">
<title>Node1&#45;&gt;Node8</title>
<path fill="none" stroke="#63b8ff" d="M250.17,-185.86C261.31,-184.49 272.81,-183.08 283.59,-181.76"/>
<polygon fill="#63b8ff" stroke="#63b8ff" points="249.56,-182.41 240.06,-187.1 250.42,-189.36 249.56,-182.41"/>
</g>
<!-- Node21 -->
<g id="node21" class="node">
<title>Node21</title>
<g id="a_node21"><a xlink:href="../../d4/de7/classcocos2d_1_1_c_c_sprite.html" target="_top" xlink:title="CCSprite is a 2d image ( http://en.wikipedia.org/wiki/Sprite_(computer_graphics) )">
<polygon fill="white" stroke="#666666" points="365,-148 306,-148 306,-129 365,-129 365,-148"/>
<text text-anchor="middle" x="335.5" y="-136" font-family="Helvetica,sans-Serif" font-size="10.00">CCSprite</text>
</a>
</g>
</g>
<!-- Node1&#45;&gt;Node21 -->
<g id="edge20" class="edge">
<title>Node1&#45;&gt;Node21</title>
<path fill="none" stroke="#63b8ff" d="M218.43,-179.82C235.24,-172.49 256.6,-163.54 276,-156.5 285.59,-153.02 296.21,-149.62 305.75,-146.73"/>
<polygon fill="#63b8ff" stroke="#63b8ff" points="216.85,-176.7 209.1,-183.93 219.67,-183.1 216.85,-176.7"/>
</g>
<!-- Node24 -->
<g id="node24" class="node">
<title>Node24</title>
<g id="a_node24"><a xlink:href="../../dd/d95/classcocos2d_1_1_c_c_sprite_batch_node.html" target="_top" xlink:title="CCSpriteBatchNode is like a batch node: if it contains children, it will draw them in 1 single OpenGL...">
<polygon fill="white" stroke="#666666" points="391.5,-111 279.5,-111 279.5,-92 391.5,-92 391.5,-111"/>
<text text-anchor="middle" x="335.5" y="-99" font-family="Helvetica,sans-Serif" font-size="10.00">CCSpriteBatchNode</text>
</a>
</g>
</g>
<!-- Node1&#45;&gt;Node24 -->
<g id="edge23" class="edge">
<title>Node1&#45;&gt;Node24</title>
<path fill="none" stroke="#63b8ff" d="M204.06,-176.48C220.64,-159.82 247.98,-134.76 276,-119.5 282.07,-116.2 288.82,-113.41 295.53,-111.09"/>
<polygon fill="#63b8ff" stroke="#63b8ff" points="201.3,-174.31 196.83,-183.91 206.31,-179.19 201.3,-174.31"/>
</g>
<!-- Node2 -->
<g id="node2" class="node">
<title>Node2</title>
<g id="a_node2"><a xlink:href="../../d6/d82/classcocos2d_1_1_c_c_blend_protocol.html" target="_top" xlink:title="Specify the blending function according glBlendFunc Please refer to glBlendFunc in OpenGL ES Manual h...">
<polygon fill="white" stroke="#666666" points="98,-203 0,-203 0,-184 98,-184 98,-203"/>
<text text-anchor="middle" x="49" y="-191" font-family="Helvetica,sans-Serif" font-size="10.00">CCBlendProtocol</text>
</a>
</g>
</g>
<!-- Node2&#45;&gt;Node1 -->
<g id="edge1" class="edge">
<title>Node2&#45;&gt;Node1</title>
<path fill="none" stroke="#63b8ff" d="M108.43,-193.5C116.82,-193.5 125.41,-193.5 133.67,-193.5"/>
<polygon fill="#63b8ff" stroke="#63b8ff" points="108.33,-190 98.33,-193.5 108.33,-197 108.33,-190"/>
</g>
<!-- Node4 -->
<g id="node4" class="node">
<title>Node4</title>
<g id="a_node4"><a xlink:href="../../d7/d84/classcocos2d_1_1_c_c_label_atlas.html" target="_top" xlink:title="CCLabelAtlas is a subclass of CCAtlasNode.">
<polygon fill="white" stroke="#666666" points="535.5,-314 454.5,-314 454.5,-295 535.5,-295 535.5,-314"/>
<text text-anchor="middle" x="495" y="-302" font-family="Helvetica,sans-Serif" font-size="10.00">CCLabelAtlas</text>
</a>
</g>
</g>
<!-- Node3&#45;&gt;Node4 -->
<g id="edge3" class="edge">
<title>Node3&#45;&gt;Node4</title>
<path fill="none" stroke="#63b8ff" d="M386,-292.16C408.03,-294.67 433.61,-297.6 454.34,-299.97"/>
<polygon fill="#63b8ff" stroke="#63b8ff" points="386.17,-288.65 375.84,-291 385.38,-295.61 386.17,-288.65"/>
</g>
<!-- Node5 -->
<g id="node5" class="node">
<title>Node5</title>
<g id="a_node5"><a xlink:href="../../d2/d8b/classcocos2d_1_1_c_c_tile_map_atlas.html" target="_top" xlink:title="CCTileMapAtlas is a subclass of CCAtlasNode.">
<polygon fill="white" stroke="#666666" points="542,-277 448,-277 448,-258 542,-258 542,-277"/>
<text text-anchor="middle" x="495" y="-265" font-family="Helvetica,sans-Serif" font-size="10.00">CCTileMapAtlas</text>
</a>
</g>
</g>
<!-- Node3&#45;&gt;Node5 -->
<g id="edge4" class="edge">
<title>Node3&#45;&gt;Node5</title>
<path fill="none" stroke="#63b8ff" d="M385.9,-280.54C405.72,-278.15 428.43,-275.41 447.9,-273.06"/>
<polygon fill="#63b8ff" stroke="#63b8ff" points="385.35,-277.08 375.84,-281.75 386.18,-284.03 385.35,-277.08"/>
</g>
<!-- Node9 -->
<g id="node9" class="node">
<title>Node9</title>
<g id="a_node9"><a xlink:href="../../d9/df5/classcocos2d_1_1_c_c_particle_system_quad.html" target="_top" xlink:title="CCParticleSystemQuad is a subclass of CCParticleSystem.">
<polygon fill="white" stroke="#666666" points="559,-222 431,-222 431,-203 559,-203 559,-222"/>
<text text-anchor="middle" x="495" y="-210" font-family="Helvetica,sans-Serif" font-size="10.00">CCParticleSystemQuad</text>
</a>
</g>
</g>
<!-- Node8&#45;&gt;Node9 -->
<g id="edge8" class="edge">
<title>Node8&#45;&gt;Node9</title>
<path fill="none" stroke="#63b8ff" d="M386.97,-187.36C408.41,-192.39 433.06,-198.18 453.3,-202.94"/>
<polygon fill="#63b8ff" stroke="#63b8ff" points="387.6,-183.91 377.06,-185.03 385.99,-190.72 387.6,-183.91"/>
</g>
<!-- Node10 -->
<g id="node10" class="node">
<title>Node10</title>
<g id="a_node10"><a xlink:href="../../dc/d49/classcocos2d_1_1_c_c_particle_explosion.html" target="_top" xlink:title="An explosion particle system.">
<polygon fill="white" stroke="#666666" points="708,-426 595,-426 595,-407 708,-407 708,-426"/>
<text text-anchor="middle" x="651.5" y="-414" font-family="Helvetica,sans-Serif" font-size="10.00">CCParticleExplosion</text>
</a>
</g>
</g>
<!-- Node9&#45;&gt;Node10 -->
<g id="edge9" class="edge">
<title>Node9&#45;&gt;Node10</title>
<path fill="none" stroke="#63b8ff" d="M531.1,-226.63C541.43,-232.34 551.87,-239.89 559,-249.5 599.6,-304.21 548.71,-348.52 595,-398.5 598.17,-401.92 601.99,-404.69 606.12,-406.94"/>
<polygon fill="#63b8ff" stroke="#63b8ff" points="532.64,-223.48 522.13,-222.09 529.47,-229.73 532.64,-223.48"/>
</g>
<!-- Node11 -->
<g id="node11" class="node">
<title>Node11</title>
<g id="a_node11"><a xlink:href="../../d6/d20/classcocos2d_1_1_c_c_particle_fire.html" target="_top" xlink:title="A fire particle system.">
<polygon fill="white" stroke="#666666" points="693.5,-389 609.5,-389 609.5,-370 693.5,-370 693.5,-389"/>
<text text-anchor="middle" x="651.5" y="-377" font-family="Helvetica,sans-Serif" font-size="10.00">CCParticleFire</text>
</a>
</g>
</g>
<!-- Node9&#45;&gt;Node11 -->
<g id="edge10" class="edge">
<title>Node9&#45;&gt;Node11</title>
<path fill="none" stroke="#63b8ff" d="M530.18,-226.67C540.65,-232.43 551.39,-240.01 559,-249.5 591.69,-290.31 558.08,-324.48 595,-361.5 599.08,-365.59 604.09,-368.75 609.42,-371.19"/>
<polygon fill="#63b8ff" stroke="#63b8ff" points="531.63,-223.49 521.13,-222.08 528.46,-229.73 531.63,-223.49"/>
</g>
<!-- Node12 -->
<g id="node12" class="node">
<title>Node12</title>
<g id="a_node12"><a xlink:href="../../d7/d6c/classcocos2d_1_1_c_c_particle_fireworks.html" target="_top" xlink:title="A fireworks particle system.">
<polygon fill="white" stroke="#666666" points="708,-352 595,-352 595,-333 708,-333 708,-352"/>
<text text-anchor="middle" x="651.5" y="-340" font-family="Helvetica,sans-Serif" font-size="10.00">CCParticleFireworks</text>
</a>
</g>
</g>
<!-- Node9&#45;&gt;Node12 -->
<g id="edge11" class="edge">
<title>Node9&#45;&gt;Node12</title>
<path fill="none" stroke="#63b8ff" d="M528.43,-226.75C539.15,-232.63 550.5,-240.26 559,-249.5 584.03,-276.71 567.16,-300.16 595,-324.5 598.89,-327.9 603.43,-330.66 608.21,-332.9"/>
<polygon fill="#63b8ff" stroke="#63b8ff" points="529.75,-223.49 519.26,-222.04 526.55,-229.72 529.75,-223.49"/>
</g>
<!-- Node13 -->
<g id="node13" class="node">
<title>Node13</title>
<g id="a_node13"><a xlink:href="../../df/da7/classcocos2d_1_1_c_c_particle_flower.html" target="_top" xlink:title="A flower particle system.">
<polygon fill="white" stroke="#666666" points="701,-315 602,-315 602,-296 701,-296 701,-315"/>
<text text-anchor="middle" x="651.5" y="-303" font-family="Helvetica,sans-Serif" font-size="10.00">CCParticleFlower</text>
</a>
</g>
</g>
<!-- Node9&#45;&gt;Node13 -->
<g id="edge12" class="edge">
<title>Node9&#45;&gt;Node13</title>
<path fill="none" stroke="#63b8ff" d="M524.38,-226.92C535.62,-233.2 548.37,-241.05 559,-249.5 577.21,-263.98 575.33,-275.08 595,-287.5 600.31,-290.85 606.3,-293.64 612.34,-295.93"/>
<polygon fill="#63b8ff" stroke="#63b8ff" points="525.83,-223.73 515.37,-222.04 522.49,-229.88 525.83,-223.73"/>
</g>
<!-- Node14 -->
<g id="node14" class="node">
<title>Node14</title>
<g id="a_node14"><a xlink:href="../../d9/d53/classcocos2d_1_1_c_c_particle_galaxy.html" target="_top" xlink:title="A galaxy particle system.">
<polygon fill="white" stroke="#666666" points="702,-278 601,-278 601,-259 702,-259 702,-278"/>
<text text-anchor="middle" x="651.5" y="-266" font-family="Helvetica,sans-Serif" font-size="10.00">CCParticleGalaxy</text>
</a>
</g>
</g>
<!-- Node9&#45;&gt;Node14 -->
<g id="edge13" class="edge">
<title>Node9&#45;&gt;Node14</title>
<path fill="none" stroke="#63b8ff" d="M529.34,-225.8C548.47,-233.31 572.98,-242.71 595,-250.5 603.12,-253.37 611.96,-256.32 620.16,-258.98"/>
<polygon fill="#63b8ff" stroke="#63b8ff" points="530.46,-222.48 519.87,-222.07 527.89,-228.99 530.46,-222.48"/>
</g>
<!-- Node15 -->
<g id="node15" class="node">
<title>Node15</title>
<g id="a_node15"><a xlink:href="../../d1/d3f/classcocos2d_1_1_c_c_particle_meteor.html" target="_top" xlink:title="A meteor particle system.">
<polygon fill="white" stroke="#666666" points="702,-241 601,-241 601,-222 702,-222 702,-241"/>
<text text-anchor="middle" x="651.5" y="-229" font-family="Helvetica,sans-Serif" font-size="10.00">CCParticleMeteor</text>
</a>
</g>
</g>
<!-- Node9&#45;&gt;Node15 -->
<g id="edge14" class="edge">
<title>Node9&#45;&gt;Node15</title>
<path fill="none" stroke="#63b8ff" d="M569.42,-221.53C580.05,-222.84 590.77,-224.15 600.79,-225.39"/>
<polygon fill="#63b8ff" stroke="#63b8ff" points="569.64,-218.03 559.29,-220.28 568.78,-224.98 569.64,-218.03"/>
</g>
<!-- Node16 -->
<g id="node16" class="node">
<title>Node16</title>
<g id="a_node16"><a xlink:href="../../dd/dcd/classcocos2d_1_1_c_c_particle_rain.html" target="_top" xlink:title="A rain particle system.">
<polygon fill="white" stroke="#666666" points="695.5,-204 607.5,-204 607.5,-185 695.5,-185 695.5,-204"/>
<text text-anchor="middle" x="651.5" y="-192" font-family="Helvetica,sans-Serif" font-size="10.00">CCParticleRain</text>
</a>
</g>
</g>
<!-- Node9&#45;&gt;Node16 -->
<g id="edge15" class="edge">
<title>Node9&#45;&gt;Node16</title>
<path fill="none" stroke="#63b8ff" d="M569.6,-203.92C582.54,-202.42 595.61,-200.9 607.36,-199.53"/>
<polygon fill="#63b8ff" stroke="#63b8ff" points="568.81,-200.49 559.29,-205.13 569.62,-207.45 568.81,-200.49"/>
</g>
<!-- Node17 -->
<g id="node17" class="node">
<title>Node17</title>
<g id="a_node17"><a xlink:href="../../d5/d45/classcocos2d_1_1_c_c_particle_smoke.html" target="_top" xlink:title="An smoke particle system.">
<polygon fill="white" stroke="#666666" points="701,-167 602,-167 602,-148 701,-148 701,-167"/>
<text text-anchor="middle" x="651.5" y="-155" font-family="Helvetica,sans-Serif" font-size="10.00">CCParticleSmoke</text>
</a>
</g>
</g>
<!-- Node9&#45;&gt;Node17 -->
<g id="edge16" class="edge">
<title>Node9&#45;&gt;Node17</title>
<path fill="none" stroke="#63b8ff" d="M530.15,-199.32C549.16,-192.08 573.31,-183.07 595,-175.5 603.13,-172.66 611.98,-169.73 620.17,-167.07"/>
<polygon fill="#63b8ff" stroke="#63b8ff" points="528.8,-196.08 520.71,-202.92 531.3,-202.62 528.8,-196.08"/>
</g>
<!-- Node18 -->
<g id="node18" class="node">
<title>Node18</title>
<g id="a_node18"><a xlink:href="../../d8/dfe/classcocos2d_1_1_c_c_particle_snow.html" target="_top" xlink:title="An snow particle system.">
<polygon fill="white" stroke="#666666" points="697.5,-130 605.5,-130 605.5,-111 697.5,-111 697.5,-130"/>
<text text-anchor="middle" x="651.5" y="-118" font-family="Helvetica,sans-Serif" font-size="10.00">CCParticleSnow</text>
</a>
</g>
</g>
<!-- Node9&#45;&gt;Node18 -->
<g id="edge17" class="edge">
<title>Node9&#45;&gt;Node18</title>
<path fill="none" stroke="#63b8ff" d="M514.05,-196.1C533.01,-179.61 564.29,-154.4 595,-138.5 601.3,-135.24 608.3,-132.42 615.15,-130.04"/>
<polygon fill="#63b8ff" stroke="#63b8ff" points="511.66,-193.55 506.49,-202.79 516.3,-198.79 511.66,-193.55"/>
</g>
<!-- Node19 -->
<g id="node19" class="node">
<title>Node19</title>
<g id="a_node19"><a xlink:href="../../da/d14/classcocos2d_1_1_c_c_particle_spiral.html" target="_top" xlink:title="An spiral particle system.">
<polygon fill="white" stroke="#666666" points="698.5,-93 604.5,-93 604.5,-74 698.5,-74 698.5,-93"/>
<text text-anchor="middle" x="651.5" y="-81" font-family="Helvetica,sans-Serif" font-size="10.00">CCParticleSpiral</text>
</a>
</g>
</g>
<!-- Node9&#45;&gt;Node19 -->
<g id="edge18" class="edge">
<title>Node9&#45;&gt;Node19</title>
<path fill="none" stroke="#63b8ff" d="M516.88,-196.32C529.81,-185.75 546.3,-171.22 559,-156.5 578.08,-134.38 571.79,-119.24 595,-101.5 599.43,-98.12 604.51,-95.36 609.77,-93.11"/>
<polygon fill="#63b8ff" stroke="#63b8ff" points="514.59,-193.67 508.98,-202.65 518.97,-199.13 514.59,-193.67"/>
</g>
<!-- Node20 -->
<g id="node20" class="node">
<title>Node20</title>
<g id="a_node20"><a xlink:href="../../d6/da3/classcocos2d_1_1_c_c_particle_sun.html" target="_top" xlink:title="A sun particle system.">
<polygon fill="white" stroke="#666666" points="693.5,-56 609.5,-56 609.5,-37 693.5,-37 693.5,-56"/>
<text text-anchor="middle" x="651.5" y="-44" font-family="Helvetica,sans-Serif" font-size="10.00">CCParticleSun</text>
</a>
</g>
</g>
<!-- Node9&#45;&gt;Node20 -->
<g id="edge19" class="edge">
<title>Node9&#45;&gt;Node20</title>
<path fill="none" stroke="#63b8ff" d="M518.48,-196.79C531.74,-186.58 548.02,-172.26 559,-156.5 584.1,-120.48 563.04,-94.61 595,-64.5 599.13,-60.61 604.11,-57.56 609.36,-55.17"/>
<polygon fill="#63b8ff" stroke="#63b8ff" points="516.22,-194.11 510.29,-202.89 520.4,-199.73 516.22,-194.11"/>
</g>
<!-- Node22 -->
<g id="node22" class="node">
<title>Node22</title>
<g id="a_node22"><a xlink:href="../../df/d72/classcocos2d_1_1_c_c_label_t_t_f.html" target="_top" xlink:title="CCLabelTTF is a subclass of CCTextureNode that knows how to render text labels.">
<polygon fill="white" stroke="#666666" points="532,-148 458,-148 458,-129 532,-129 532,-148"/>
<text text-anchor="middle" x="495" y="-136" font-family="Helvetica,sans-Serif" font-size="10.00">CCLabelTTF</text>
</a>
</g>
</g>
<!-- Node21&#45;&gt;Node22 -->
<g id="edge21" class="edge">
<title>Node21&#45;&gt;Node22</title>
<path fill="none" stroke="#63b8ff" d="M375.34,-138.5C400.59,-138.5 433.27,-138.5 457.94,-138.5"/>
<polygon fill="#63b8ff" stroke="#63b8ff" points="375.02,-135 365.02,-138.5 375.02,-142 375.02,-135"/>
</g>
<!-- Node23 -->
<g id="node23" class="node">
<title>Node23</title>
<g id="a_node23"><a xlink:href="../../d4/d5b/classcocos2d_1_1_c_c_text_field_t_t_f.html" target="_top" xlink:title="A simple text input field with TTF font.">
<polygon fill="white" stroke="#666666" points="697.5,-19 605.5,-19 605.5,0 697.5,0 697.5,-19"/>
<text text-anchor="middle" x="651.5" y="-7" font-family="Helvetica,sans-Serif" font-size="10.00">CCTextFieldTTF</text>
</a>
</g>
</g>
<!-- Node22&#45;&gt;Node23 -->
<g id="edge22" class="edge">
<title>Node22&#45;&gt;Node23</title>
<path fill="none" stroke="#63b8ff" d="M542.11,-130.01C548.29,-127.4 554.15,-123.97 559,-119.5 591.27,-89.72 563.04,-57.61 595,-27.5 598.61,-24.1 602.88,-21.34 607.41,-19.1"/>
<polygon fill="#63b8ff" stroke="#63b8ff" points="540.5,-126.87 532.24,-133.5 542.84,-133.47 540.5,-126.87"/>
</g>
<!-- Node25 -->
<g id="node25" class="node">
<title>Node25</title>
<g id="a_node25"><a xlink:href="../../dc/dfb/classcocos2d_1_1_c_c_label_b_m_font.html" target="_top" xlink:title="CCLabelBMFont is a subclass of CCSpriteBatchNode.">
<polygon fill="white" stroke="#666666" points="541.5,-111 448.5,-111 448.5,-92 541.5,-92 541.5,-111"/>
<text text-anchor="middle" x="495" y="-99" font-family="Helvetica,sans-Serif" font-size="10.00">CCLabelBMFont</text>
</a>
</g>
</g>
<!-- Node24&#45;&gt;Node25 -->
<g id="edge24" class="edge">
<title>Node24&#45;&gt;Node25</title>
<path fill="none" stroke="#63b8ff" d="M401.74,-101.5C417.39,-101.5 433.78,-101.5 448.33,-101.5"/>
<polygon fill="#63b8ff" stroke="#63b8ff" points="401.59,-98 391.59,-101.5 401.59,-105 401.59,-98"/>
</g>
<!-- Node26 -->
<g id="node26" class="node">
<title>Node26</title>
<g id="a_node26"><a xlink:href="../../da/d5a/classcocos2d_1_1_c_c_t_m_x_layer.html" target="_top" xlink:title="CCTMXLayer represents the TMX layer.">
<polygon fill="white" stroke="#666666" points="534.5,-74 455.5,-74 455.5,-55 534.5,-55 534.5,-74"/>
<text text-anchor="middle" x="495" y="-62" font-family="Helvetica,sans-Serif" font-size="10.00">CCTMXLayer</text>
</a>
</g>
</g>
<!-- Node24&#45;&gt;Node26 -->
<g id="edge25" class="edge">
<title>Node24&#45;&gt;Node26</title>
<path fill="none" stroke="#63b8ff" d="M386.99,-89.64C409.19,-84.42 434.85,-78.4 455.48,-73.55"/>
<polygon fill="#63b8ff" stroke="#63b8ff" points="385.99,-86.28 377.06,-91.97 387.6,-93.09 385.99,-86.28"/>
</g>
</g>
</svg>
