<?xml version="1.0" encoding="UTF-8" standalone="no"?>
<!DOCTYPE svg PUBLIC "-//W3C//DTD SVG 1.1//EN"
 "http://www.w3.org/Graphics/SVG/1.1/DTD/svg11.dtd">
<!-- Generated by graphviz version 2.43.0 (0)
 -->
<!-- Title: /home/runner/work/cocos&#45;headers/cocos&#45;headers/cocos2dx/robtop/scene_nodes/CCSceneTransitionDelegate.h Pages: 1 -->
<svg width="280pt" height="341pt"
 viewBox="0.00 0.00 279.50 341.00" xmlns="http://www.w3.org/2000/svg" xmlns:xlink="http://www.w3.org/1999/xlink">
<g id="graph0" class="graph" transform="scale(1 1) rotate(0) translate(4 337)">
<title>/home/runner/work/cocos&#45;headers/cocos&#45;headers/cocos2dx/robtop/scene_nodes/CCSceneTransitionDelegate.h</title>
<!-- Node1 -->
<g id="node1" class="node">
<title>Node1</title>
<g id="a_node1"><a xlink:title=" ">
<polygon fill="#bfbfbf" stroke="black" points="29,-280.5 29,-332.5 226,-332.5 226,-280.5 29,-280.5"/>
<text text-anchor="start" x="37" y="-320.5" font-family="Helvetica,sans-Serif" font-size="10.00">/home/runner/work/cocos</text>
<text text-anchor="start" x="37" y="-309.5" font-family="Helvetica,sans-Serif" font-size="10.00">&#45;headers/cocos&#45;headers</text>
<text text-anchor="start" x="37" y="-298.5" font-family="Helvetica,sans-Serif" font-size="10.00">/cocos2dx/robtop/scene</text>
<text text-anchor="middle" x="127.5" y="-287.5" font-family="Helvetica,sans-Serif" font-size="10.00">_nodes/CCSceneTransitionDelegate.h</text>
</a>
</g>
</g>
<!-- Node2 -->
<g id="node2" class="node">
<title>Node2</title>
<g id="a_node2"><a xlink:href="../../d9/dc8/cc_macros_8h.html" target="_top" xlink:title=" ">
<polygon fill="none" stroke="black" points="92,-224.5 92,-243.5 163,-243.5 163,-224.5 92,-224.5"/>
<text text-anchor="middle" x="127.5" y="-231.5" font-family="Helvetica,sans-Serif" font-size="10.00">ccMacros.h</text>
</a>
</g>
</g>
<!-- Node1&#45;&gt;Node2 -->
<g id="edge1" class="edge">
<title>Node1&#45;&gt;Node2</title>
<path fill="none" stroke="midnightblue" d="M127.5,-280.45C127.5,-271.73 127.5,-262.1 127.5,-253.96"/>
<polygon fill="midnightblue" stroke="midnightblue" points="131,-253.7 127.5,-243.7 124,-253.7 131,-253.7"/>
</g>
<!-- Node3 -->
<g id="node3" class="node">
<title>Node3</title>
<g id="a_node3"><a xlink:href="../../d5/d22/_c_c_common_8h.html" target="_top" xlink:title=" ">
<polygon fill="none" stroke="black" points="63.5,-168.5 63.5,-187.5 191.5,-187.5 191.5,-168.5 63.5,-168.5"/>
<text text-anchor="middle" x="127.5" y="-175.5" font-family="Helvetica,sans-Serif" font-size="10.00">platform/CCCommon.h</text>
</a>
</g>
</g>
<!-- Node2&#45;&gt;Node3 -->
<g id="edge2" class="edge">
<title>Node2&#45;&gt;Node3</title>
<path fill="none" stroke="midnightblue" d="M127.5,-224.08C127.5,-217.01 127.5,-206.86 127.5,-197.99"/>
<polygon fill="midnightblue" stroke="midnightblue" points="131,-197.75 127.5,-187.75 124,-197.75 131,-197.75"/>
</g>
<!-- Node5 -->
<g id="node5" class="node">
<title>Node5</title>
<g id="a_node5"><a xlink:href="../../db/d9f/cc_config_8h.html" target="_top" xlink:title="cocos2d (cc) configuration file">
<polygon fill="none" stroke="black" points="14,-56.5 14,-75.5 81,-75.5 81,-56.5 14,-56.5"/>
<text text-anchor="middle" x="47.5" y="-63.5" font-family="Helvetica,sans-Serif" font-size="10.00">ccConfig.h</text>
</a>
</g>
</g>
<!-- Node2&#45;&gt;Node5 -->
<g id="edge9" class="edge">
<title>Node2&#45;&gt;Node5</title>
<path fill="none" stroke="midnightblue" d="M101.98,-224.38C85.42,-217.34 65.03,-205.64 54.5,-188 35.52,-156.19 39.33,-110.91 43.57,-85.73"/>
<polygon fill="midnightblue" stroke="midnightblue" points="47.04,-86.17 45.46,-75.69 40.17,-84.87 47.04,-86.17"/>
</g>
<!-- Node8 -->
<g id="node8" class="node">
<title>Node8</title>
<g id="a_node8"><a xlink:title=" ">
<polygon fill="none" stroke="#bfbfbf" points="209.5,-168.5 209.5,-187.5 271.5,-187.5 271.5,-168.5 209.5,-168.5"/>
<text text-anchor="middle" x="240.5" y="-175.5" font-family="Helvetica,sans-Serif" font-size="10.00">CCStdC.h</text>
</a>
</g>
</g>
<!-- Node2&#45;&gt;Node8 -->
<g id="edge8" class="edge">
<title>Node2&#45;&gt;Node8</title>
<path fill="none" stroke="midnightblue" d="M145.41,-224.44C163.75,-215.68 192.51,-201.94 213.59,-191.86"/>
<polygon fill="midnightblue" stroke="midnightblue" points="215.17,-194.99 222.68,-187.52 212.15,-188.67 215.17,-194.99"/>
</g>
<!-- Node4 -->
<g id="node4" class="node">
<title>Node4</title>
<g id="a_node4"><a xlink:href="../../d3/d41/_c_c_platform_macros_8h.html" target="_top" xlink:title=" ">
<polygon fill="none" stroke="black" points="66.5,-112.5 66.5,-131.5 182.5,-131.5 182.5,-112.5 66.5,-112.5"/>
<text text-anchor="middle" x="124.5" y="-119.5" font-family="Helvetica,sans-Serif" font-size="10.00">CCPlatformMacros.h</text>
</a>
</g>
</g>
<!-- Node3&#45;&gt;Node4 -->
<g id="edge3" class="edge">
<title>Node3&#45;&gt;Node4</title>
<path fill="none" stroke="midnightblue" d="M127,-168.08C126.61,-161.01 126.05,-150.86 125.55,-141.99"/>
<polygon fill="midnightblue" stroke="midnightblue" points="129.04,-141.54 124.99,-131.75 122.05,-141.93 129.04,-141.54"/>
</g>
<!-- Node4&#45;&gt;Node5 -->
<g id="edge4" class="edge">
<title>Node4&#45;&gt;Node5</title>
<path fill="none" stroke="midnightblue" d="M112.13,-112.32C100.34,-104.06 82.37,-91.45 68.36,-81.63"/>
<polygon fill="midnightblue" stroke="midnightblue" points="70.04,-78.53 59.84,-75.65 66.02,-84.26 70.04,-78.53"/>
</g>
<!-- Node6 -->
<g id="node6" class="node">
<title>Node6</title>
<g id="a_node6"><a xlink:href="../../dd/d96/_c_c_platform_config_8h.html" target="_top" xlink:title=" ">
<polygon fill="none" stroke="black" points="0,-0.5 0,-19.5 157,-19.5 157,-0.5 0,-0.5"/>
<text text-anchor="middle" x="78.5" y="-7.5" font-family="Helvetica,sans-Serif" font-size="10.00">platform/CCPlatformConfig.h</text>
</a>
</g>
</g>
<!-- Node4&#45;&gt;Node6 -->
<g id="edge6" class="edge">
<title>Node4&#45;&gt;Node6</title>
<path fill="none" stroke="midnightblue" d="M120.89,-112.37C113.4,-94.46 96.03,-52.92 86.01,-28.95"/>
<polygon fill="midnightblue" stroke="midnightblue" points="89.18,-27.47 82.09,-19.59 82.72,-30.17 89.18,-27.47"/>
</g>
<!-- Node7 -->
<g id="node7" class="node">
<title>Node7</title>
<g id="a_node7"><a xlink:title=" ">
<polygon fill="none" stroke="#bfbfbf" points="138,-56.5 138,-75.5 251,-75.5 251,-56.5 138,-56.5"/>
<text text-anchor="middle" x="194.5" y="-63.5" font-family="Helvetica,sans-Serif" font-size="10.00">CCPlatformDefine.h</text>
</a>
</g>
</g>
<!-- Node4&#45;&gt;Node7 -->
<g id="edge7" class="edge">
<title>Node4&#45;&gt;Node7</title>
<path fill="none" stroke="midnightblue" d="M135.75,-112.32C146.3,-104.18 162.3,-91.84 174.94,-82.09"/>
<polygon fill="midnightblue" stroke="midnightblue" points="177.27,-84.71 183.05,-75.83 172.99,-79.17 177.27,-84.71"/>
</g>
<!-- Node5&#45;&gt;Node6 -->
<g id="edge5" class="edge">
<title>Node5&#45;&gt;Node6</title>
<path fill="none" stroke="midnightblue" d="M52.62,-56.08C56.91,-48.61 63.16,-37.72 68.44,-28.52"/>
<polygon fill="midnightblue" stroke="midnightblue" points="71.53,-30.17 73.48,-19.75 65.46,-26.68 71.53,-30.17"/>
</g>
</g>
</svg>
