<?xml version="1.0" encoding="UTF-8" standalone="no"?>
<!DOCTYPE svg PUBLIC "-//W3C//DTD SVG 1.1//EN"
 "http://www.w3.org/Graphics/SVG/1.1/DTD/svg11.dtd">
<!-- Generated by graphviz version 2.43.0 (0)
 -->
<!-- Title: CCLayer Pages: 1 -->
<svg width="1016pt" height="335pt"
 viewBox="0.00 0.00 1016.00 335.00" xmlns="http://www.w3.org/2000/svg" xmlns:xlink="http://www.w3.org/1999/xlink">
<g id="graph0" class="graph" transform="scale(1 1) rotate(0) translate(4 331)">
<title>CCLayer</title>
<!-- Node1 -->
<g id="node1" class="node">
<title>Node1</title>
<g id="a_node1"><a xlink:title="CCLayer is a subclass of CCNode that implements the TouchEventsDelegate protocol.">
<polygon fill="#999999" stroke="#666666" points="443,-206 386,-206 386,-187 443,-187 443,-206"/>
<text text-anchor="middle" x="414.5" y="-194" font-family="Helvetica,sans-Serif" font-size="10.00">CCLayer</text>
</a>
</g>
</g>
<!-- Node9 -->
<g id="node9" class="node">
<title>Node9</title>
<g id="a_node9"><a xlink:href="../../d3/d7e/classcocos2d_1_1_c_c_layer_multiplex.html" target="_top" xlink:title="CCMultipleLayer is a CCLayer with the ability to multiplex it&#39;s children.">
<polygon fill="white" stroke="#666666" points="582,-243 479,-243 479,-224 582,-224 582,-243"/>
<text text-anchor="middle" x="530.5" y="-231" font-family="Helvetica,sans-Serif" font-size="10.00">CCLayerMultiplex</text>
</a>
</g>
</g>
<!-- Node1&#45;&gt;Node9 -->
<g id="edge8" class="edge">
<title>Node1&#45;&gt;Node9</title>
<path fill="none" stroke="#63b8ff" d="M452.83,-208.62C468.2,-213.6 485.74,-219.3 500.17,-223.98"/>
<polygon fill="#63b8ff" stroke="#63b8ff" points="453.69,-205.21 443.1,-205.46 451.53,-211.87 453.69,-205.21"/>
</g>
<!-- Node10 -->
<g id="node10" class="node">
<title>Node10</title>
<g id="a_node10"><a xlink:href="../../dd/d1e/classcocos2d_1_1_c_c_layer_r_g_b_a.html" target="_top" xlink:title="CCLayerRGBA is a subclass of CCLayer that implements the CCRGBAProtocol protocol using a solid color ...">
<polygon fill="white" stroke="#666666" points="573,-206 488,-206 488,-187 573,-187 573,-206"/>
<text text-anchor="middle" x="530.5" y="-194" font-family="Helvetica,sans-Serif" font-size="10.00">CCLayerRGBA</text>
</a>
</g>
</g>
<!-- Node1&#45;&gt;Node10 -->
<g id="edge9" class="edge">
<title>Node1&#45;&gt;Node10</title>
<path fill="none" stroke="#63b8ff" d="M453.33,-196.5C464.42,-196.5 476.6,-196.5 487.91,-196.5"/>
<polygon fill="#63b8ff" stroke="#63b8ff" points="453.1,-193 443.1,-196.5 453.1,-200 453.1,-193"/>
</g>
<!-- Node24 -->
<g id="node24" class="node">
<title>Node24</title>
<g id="a_node24"><a xlink:href="../../d3/dbc/classcocos2d_1_1extension_1_1_c_c_scroll_view.html" target="_top" xlink:title="ScrollView support for cocos2d for iphone.">
<polygon fill="white" stroke="#666666" points="571,-160 490,-160 490,-141 571,-141 571,-160"/>
<text text-anchor="middle" x="530.5" y="-148" font-family="Helvetica,sans-Serif" font-size="10.00">CCScrollView</text>
</a>
</g>
</g>
<!-- Node1&#45;&gt;Node24 -->
<g id="edge23" class="edge">
<title>Node1&#45;&gt;Node24</title>
<path fill="none" stroke="#63b8ff" d="M448.57,-183.16C466.93,-175.75 489.33,-166.71 505.91,-160.02"/>
<polygon fill="#63b8ff" stroke="#63b8ff" points="447.08,-179.98 439.12,-186.97 449.7,-186.47 447.08,-179.98"/>
</g>
<!-- Node2 -->
<g id="node2" class="node">
<title>Node2</title>
<g id="a_node2"><a xlink:href="../../d0/ded/classcocos2d_1_1_c_c_node.html" target="_top" xlink:title="CCNode is the main element.">
<polygon fill="white" stroke="#666666" points="305,-280 249,-280 249,-261 305,-261 305,-280"/>
<text text-anchor="middle" x="277" y="-268" font-family="Helvetica,sans-Serif" font-size="10.00">CCNode</text>
</a>
</g>
</g>
<!-- Node2&#45;&gt;Node1 -->
<g id="edge1" class="edge">
<title>Node2&#45;&gt;Node1</title>
<path fill="none" stroke="#63b8ff" d="M314.99,-264.8C326.63,-262.09 339.24,-258.16 350,-252.5 372.64,-240.6 393.84,-219.01 405.1,-206.39"/>
<polygon fill="#63b8ff" stroke="#63b8ff" points="314.16,-261.4 305.09,-266.88 315.6,-268.25 314.16,-261.4"/>
</g>
<!-- Node3 -->
<g id="node3" class="node">
<title>Node3</title>
<g id="a_node3"><a xlink:href="../../d3/dbf/classcocos2d_1_1_c_c_object.html" target="_top" xlink:title="NA.">
<polygon fill="white" stroke="#666666" points="168,-280 106,-280 106,-261 168,-261 168,-280"/>
<text text-anchor="middle" x="137" y="-268" font-family="Helvetica,sans-Serif" font-size="10.00">CCObject</text>
</a>
</g>
</g>
<!-- Node3&#45;&gt;Node2 -->
<g id="edge2" class="edge">
<title>Node3&#45;&gt;Node2</title>
<path fill="none" stroke="#63b8ff" d="M178.58,-270.5C201.13,-270.5 228.59,-270.5 248.6,-270.5"/>
<polygon fill="#63b8ff" stroke="#63b8ff" points="178.28,-267 168.28,-270.5 178.28,-274 178.28,-267"/>
</g>
<!-- Node4 -->
<g id="node4" class="node">
<title>Node4</title>
<g id="a_node4"><a xlink:href="../../d5/d61/classcocos2d_1_1_c_c_copying.html" target="_top" xlink:title="NA NA.">
<polygon fill="white" stroke="#666666" points="70,-280 0,-280 0,-261 70,-261 70,-280"/>
<text text-anchor="middle" x="35" y="-268" font-family="Helvetica,sans-Serif" font-size="10.00">CCCopying</text>
</a>
</g>
</g>
<!-- Node4&#45;&gt;Node3 -->
<g id="edge3" class="edge">
<title>Node4&#45;&gt;Node3</title>
<path fill="none" stroke="#63b8ff" d="M80.39,-270.5C88.95,-270.5 97.72,-270.5 105.7,-270.5"/>
<polygon fill="#63b8ff" stroke="#63b8ff" points="80.13,-267 70.13,-270.5 80.13,-274 80.13,-267"/>
</g>
<!-- Node5 -->
<g id="node5" class="node">
<title>Node5</title>
<g id="a_node5"><a xlink:href="../../d0/d38/classcocos2d_1_1_c_c_touch_delegate.html" target="_top" xlink:title=" ">
<polygon fill="white" stroke="#666666" points="328,-243 226,-243 226,-224 328,-224 328,-243"/>
<text text-anchor="middle" x="277" y="-231" font-family="Helvetica,sans-Serif" font-size="10.00">CCTouchDelegate</text>
</a>
</g>
</g>
<!-- Node5&#45;&gt;Node1 -->
<g id="edge4" class="edge">
<title>Node5&#45;&gt;Node1</title>
<path fill="none" stroke="#63b8ff" d="M327.5,-221.44C335.05,-219.51 342.74,-217.49 350,-215.5 361.76,-212.27 374.67,-208.46 385.76,-205.1"/>
<polygon fill="#63b8ff" stroke="#63b8ff" points="326.53,-218.08 317.7,-223.92 328.25,-224.86 326.53,-218.08"/>
</g>
<!-- Node6 -->
<g id="node6" class="node">
<title>Node6</title>
<g id="a_node6"><a xlink:href="../../da/d55/classcocos2d_1_1_c_c_accelerometer_delegate.html" target="_top" xlink:title="The CCAccelerometerDelegate defines a single method for receiving acceleration&#45;related data from the ...">
<polygon fill="white" stroke="#666666" points="350,-206 204,-206 204,-187 350,-187 350,-206"/>
<text text-anchor="middle" x="277" y="-194" font-family="Helvetica,sans-Serif" font-size="10.00">CCAccelerometerDelegate</text>
</a>
</g>
</g>
<!-- Node6&#45;&gt;Node1 -->
<g id="edge5" class="edge">
<title>Node6&#45;&gt;Node1</title>
<path fill="none" stroke="#63b8ff" d="M360.21,-196.5C369.41,-196.5 378.24,-196.5 385.97,-196.5"/>
<polygon fill="#63b8ff" stroke="#63b8ff" points="360.11,-193 350.11,-196.5 360.11,-200 360.11,-193"/>
</g>
<!-- Node7 -->
<g id="node7" class="node">
<title>Node7</title>
<g id="a_node7"><a xlink:href="../../d2/d2d/classcocos2d_1_1_c_c_keypad_delegate.html" target="_top" xlink:title=" ">
<polygon fill="white" stroke="#666666" points="332,-169 222,-169 222,-150 332,-150 332,-169"/>
<text text-anchor="middle" x="277" y="-157" font-family="Helvetica,sans-Serif" font-size="10.00">CCKeypadDelegate</text>
</a>
</g>
</g>
<!-- Node7&#45;&gt;Node1 -->
<g id="edge6" class="edge">
<title>Node7&#45;&gt;Node1</title>
<path fill="none" stroke="#63b8ff" d="M324.46,-171.63C332.96,-173.89 341.75,-176.24 350,-178.5 361.72,-181.71 374.62,-185.34 385.71,-188.5"/>
<polygon fill="#63b8ff" stroke="#63b8ff" points="325.23,-168.21 314.66,-169.04 323.44,-174.98 325.23,-168.21"/>
</g>
<!-- Node8 -->
<g id="node8" class="node">
<title>Node8</title>
<g id="a_node8"><a xlink:href="../../d2/d91/classcocos2d_1_1_c_c_keyboard_delegate.html" target="_top" xlink:title=" ">
<polygon fill="white" stroke="#666666" points="337,-132 217,-132 217,-113 337,-113 337,-132"/>
<text text-anchor="middle" x="277" y="-120" font-family="Helvetica,sans-Serif" font-size="10.00">CCKeyboardDelegate</text>
</a>
</g>
</g>
<!-- Node8&#45;&gt;Node1 -->
<g id="edge7" class="edge">
<title>Node8&#45;&gt;Node1</title>
<path fill="none" stroke="#63b8ff" d="M338.83,-135.44C342.69,-136.95 346.44,-138.63 350,-140.5 372.64,-152.4 393.84,-173.99 405.1,-186.61"/>
<polygon fill="#63b8ff" stroke="#63b8ff" points="339.69,-132.03 329.1,-132.03 337.37,-138.64 339.69,-132.03"/>
</g>
<!-- Node11 -->
<g id="node11" class="node">
<title>Node11</title>
<g id="a_node11"><a xlink:href="../../da/d2c/classcocos2d_1_1_c_c_layer_color.html" target="_top" xlink:title="CCLayerColor is a subclass of CCLayer that implements the CCRGBAProtocol protocol.">
<polygon fill="white" stroke="#666666" points="701,-290 618,-290 618,-271 701,-271 701,-290"/>
<text text-anchor="middle" x="659.5" y="-278" font-family="Helvetica,sans-Serif" font-size="10.00">CCLayerColor</text>
</a>
</g>
</g>
<!-- Node10&#45;&gt;Node11 -->
<g id="edge10" class="edge">
<title>Node10&#45;&gt;Node11</title>
<path fill="none" stroke="#63b8ff" d="M571.23,-209.94C574.95,-211.64 578.6,-213.5 582,-215.5 609.03,-231.42 635.87,-257.08 649.42,-270.92"/>
<polygon fill="#63b8ff" stroke="#63b8ff" points="572.5,-206.67 561.93,-206.01 569.78,-213.12 572.5,-206.67"/>
</g>
<!-- Node13 -->
<g id="node13" class="node">
<title>Node13</title>
<g id="a_node13"><a xlink:href="../../d1/da0/classcocos2d_1_1_c_c_menu.html" target="_top" xlink:title="A CCMenu.">
<polygon fill="white" stroke="#666666" points="688,-216 631,-216 631,-197 688,-197 688,-216"/>
<text text-anchor="middle" x="659.5" y="-204" font-family="Helvetica,sans-Serif" font-size="10.00">CCMenu</text>
</a>
</g>
</g>
<!-- Node10&#45;&gt;Node13 -->
<g id="edge12" class="edge">
<title>Node10&#45;&gt;Node13</title>
<path fill="none" stroke="#63b8ff" d="M583.08,-200.56C599.43,-201.85 616.86,-203.22 630.85,-204.32"/>
<polygon fill="#63b8ff" stroke="#63b8ff" points="583.33,-197.07 573.08,-199.77 582.78,-204.05 583.33,-197.07"/>
</g>
<!-- Node14 -->
<g id="node14" class="node">
<title>Node14</title>
<g id="a_node14"><a xlink:href="../../d4/d38/classcocos2d_1_1extension_1_1_c_c_control.html" target="_top" xlink:title=" ">
<polygon fill="white" stroke="#666666" points="692,-179 627,-179 627,-160 692,-160 692,-179"/>
<text text-anchor="middle" x="659.5" y="-167" font-family="Helvetica,sans-Serif" font-size="10.00">CCControl</text>
</a>
</g>
</g>
<!-- Node10&#45;&gt;Node14 -->
<g id="edge13" class="edge">
<title>Node10&#45;&gt;Node14</title>
<path fill="none" stroke="#63b8ff" d="M583.16,-185.52C597.97,-182.37 613.68,-179.03 626.9,-176.22"/>
<polygon fill="#63b8ff" stroke="#63b8ff" points="582.14,-182.16 573.08,-187.66 583.59,-189 582.14,-182.16"/>
</g>
<!-- Node12 -->
<g id="node12" class="node">
<title>Node12</title>
<g id="a_node12"><a xlink:href="../../d9/d19/classcocos2d_1_1_c_c_layer_gradient.html" target="_top" xlink:title="CCLayerGradient is a subclass of CCLayerColor that draws gradients across the background.">
<polygon fill="white" stroke="#666666" points="870,-327 771,-327 771,-308 870,-308 870,-327"/>
<text text-anchor="middle" x="820.5" y="-315" font-family="Helvetica,sans-Serif" font-size="10.00">CCLayerGradient</text>
</a>
</g>
</g>
<!-- Node11&#45;&gt;Node12 -->
<g id="edge11" class="edge">
<title>Node11&#45;&gt;Node12</title>
<path fill="none" stroke="#63b8ff" d="M707.99,-292.52C717.58,-294.88 727.6,-297.31 737,-299.5 749.14,-302.33 762.31,-305.27 774.49,-307.92"/>
<polygon fill="#63b8ff" stroke="#63b8ff" points="708.74,-289.1 698.19,-290.09 707.05,-295.89 708.74,-289.1"/>
</g>
<!-- Node15 -->
<g id="node15" class="node">
<title>Node15</title>
<g id="a_node15"><a xlink:href="../../d5/d52/classcocos2d_1_1extension_1_1_c_c_control_button.html" target="_top" xlink:title="for Cocos2D.">
<polygon fill="white" stroke="#666666" points="869.5,-290 771.5,-290 771.5,-271 869.5,-271 869.5,-290"/>
<text text-anchor="middle" x="820.5" y="-278" font-family="Helvetica,sans-Serif" font-size="10.00">CCControlButton</text>
</a>
</g>
</g>
<!-- Node14&#45;&gt;Node15 -->
<g id="edge14" class="edge">
<title>Node14&#45;&gt;Node15</title>
<path fill="none" stroke="#63b8ff" d="M696.44,-184.59C698.06,-185.81 699.59,-187.11 701,-188.5 727.04,-214.18 708.25,-239.89 737,-262.5 746.79,-270.2 759.18,-274.78 771.36,-277.45"/>
<polygon fill="#63b8ff" stroke="#63b8ff" points="698.19,-181.55 687.86,-179.19 694.46,-187.48 698.19,-181.55"/>
</g>
<!-- Node17 -->
<g id="node17" class="node">
<title>Node17</title>
<g id="a_node17"><a xlink:href="../../d3/def/classcocos2d_1_1extension_1_1_c_c_control_colour_picker.html" target="_top" xlink:title=" ">
<polygon fill="white" stroke="#666666" points="883.5,-253 757.5,-253 757.5,-234 883.5,-234 883.5,-253"/>
<text text-anchor="middle" x="820.5" y="-241" font-family="Helvetica,sans-Serif" font-size="10.00">CCControlColourPicker</text>
</a>
</g>
</g>
<!-- Node14&#45;&gt;Node17 -->
<g id="edge16" class="edge">
<title>Node14&#45;&gt;Node17</title>
<path fill="none" stroke="#63b8ff" d="M693.91,-183.96C696.37,-185.39 698.76,-186.91 701,-188.5 719.69,-201.81 716.94,-214.36 737,-225.5 743.28,-228.99 750.18,-231.8 757.23,-234.07"/>
<polygon fill="#63b8ff" stroke="#63b8ff" points="695.33,-180.76 684.86,-179.19 692.07,-186.95 695.33,-180.76"/>
</g>
<!-- Node18 -->
<g id="node18" class="node">
<title>Node18</title>
<g id="a_node18"><a xlink:href="../../da/de8/classcocos2d_1_1extension_1_1_c_c_control_hue_picker.html" target="_top" xlink:title=" ">
<polygon fill="white" stroke="#666666" points="877.5,-216 763.5,-216 763.5,-197 877.5,-197 877.5,-216"/>
<text text-anchor="middle" x="820.5" y="-204" font-family="Helvetica,sans-Serif" font-size="10.00">CCControlHuePicker</text>
</a>
</g>
</g>
<!-- Node14&#45;&gt;Node18 -->
<g id="edge17" class="edge">
<title>Node14&#45;&gt;Node18</title>
<path fill="none" stroke="#63b8ff" d="M701.8,-179.99C713.19,-182.82 725.56,-185.83 737,-188.5 749.14,-191.33 762.31,-194.27 774.49,-196.92"/>
<polygon fill="#63b8ff" stroke="#63b8ff" points="702.64,-176.59 692.09,-177.56 700.94,-183.38 702.64,-176.59"/>
</g>
<!-- Node19 -->
<g id="node19" class="node">
<title>Node19</title>
<g id="a_node19"><a xlink:href="../../d8/dfb/classcocos2d_1_1extension_1_1_c_c_control_potentiometer.html" target="_top" xlink:title="for Cocos2D.">
<polygon fill="white" stroke="#666666" points="888,-179 753,-179 753,-160 888,-160 888,-179"/>
<text text-anchor="middle" x="820.5" y="-167" font-family="Helvetica,sans-Serif" font-size="10.00">CCControlPotentiometer</text>
</a>
</g>
</g>
<!-- Node14&#45;&gt;Node19 -->
<g id="edge18" class="edge">
<title>Node14&#45;&gt;Node19</title>
<path fill="none" stroke="#63b8ff" d="M702.55,-169.5C717.99,-169.5 735.87,-169.5 752.93,-169.5"/>
<polygon fill="#63b8ff" stroke="#63b8ff" points="702.29,-166 692.29,-169.5 702.29,-173 702.29,-166"/>
</g>
<!-- Node20 -->
<g id="node20" class="node">
<title>Node20</title>
<g id="a_node20"><a xlink:href="../../d2/d34/classcocos2d_1_1extension_1_1_c_c_control_saturation_brightness_picker.html" target="_top" xlink:title=" ">
<polygon fill="white" stroke="#666666" points="904,-141.5 737,-141.5 737,-111.5 904,-111.5 904,-141.5"/>
<text text-anchor="start" x="745" y="-129.5" font-family="Helvetica,sans-Serif" font-size="10.00">CCControlSaturationBrightness</text>
<text text-anchor="middle" x="820.5" y="-118.5" font-family="Helvetica,sans-Serif" font-size="10.00">Picker</text>
</a>
</g>
</g>
<!-- Node14&#45;&gt;Node20 -->
<g id="edge19" class="edge">
<title>Node14&#45;&gt;Node20</title>
<path fill="none" stroke="#63b8ff" d="M702.09,-158.25C720.98,-153.14 743.61,-147.02 763.94,-141.53"/>
<polygon fill="#63b8ff" stroke="#63b8ff" points="701.03,-154.91 692.29,-160.9 702.86,-161.67 701.03,-154.91"/>
</g>
<!-- Node21 -->
<g id="node21" class="node">
<title>Node21</title>
<g id="a_node21"><a xlink:href="../../d1/d6f/classcocos2d_1_1extension_1_1_c_c_control_slider.html" target="_top" xlink:title=" ">
<polygon fill="white" stroke="#666666" points="867,-93 774,-93 774,-74 867,-74 867,-93"/>
<text text-anchor="middle" x="820.5" y="-81" font-family="Helvetica,sans-Serif" font-size="10.00">CCControlSlider</text>
</a>
</g>
</g>
<!-- Node14&#45;&gt;Node21 -->
<g id="edge20" class="edge">
<title>Node14&#45;&gt;Node21</title>
<path fill="none" stroke="#63b8ff" d="M695.22,-154.67C697.24,-153.36 699.19,-151.97 701,-150.5 721.69,-133.67 714.65,-117.04 737,-102.5 747.96,-95.37 761.28,-90.9 773.98,-88.1"/>
<polygon fill="#63b8ff" stroke="#63b8ff" points="693.04,-151.88 686.04,-159.84 696.47,-157.98 693.04,-151.88"/>
</g>
<!-- Node22 -->
<g id="node22" class="node">
<title>Node22</title>
<g id="a_node22"><a xlink:href="../../d7/d7a/classcocos2d_1_1extension_1_1_c_c_control_stepper.html" target="_top" xlink:title=" ">
<polygon fill="white" stroke="#666666" points="872,-56 769,-56 769,-37 872,-37 872,-56"/>
<text text-anchor="middle" x="820.5" y="-44" font-family="Helvetica,sans-Serif" font-size="10.00">CCControlStepper</text>
</a>
</g>
</g>
<!-- Node14&#45;&gt;Node22 -->
<g id="edge21" class="edge">
<title>Node14&#45;&gt;Node22</title>
<path fill="none" stroke="#63b8ff" d="M696.54,-154.51C698.13,-153.26 699.63,-151.93 701,-150.5 729.67,-120.59 705.16,-91.02 737,-64.5 746.01,-56.99 757.45,-52.42 768.91,-49.68"/>
<polygon fill="#63b8ff" stroke="#63b8ff" points="694.55,-151.62 688.03,-159.98 698.34,-157.51 694.55,-151.62"/>
</g>
<!-- Node23 -->
<g id="node23" class="node">
<title>Node23</title>
<g id="a_node23"><a xlink:href="../../d9/dd1/classcocos2d_1_1extension_1_1_c_c_control_switch.html" target="_top" xlink:title="for Cocos2D.">
<polygon fill="white" stroke="#666666" points="869.5,-19 771.5,-19 771.5,0 869.5,0 869.5,-19"/>
<text text-anchor="middle" x="820.5" y="-7" font-family="Helvetica,sans-Serif" font-size="10.00">CCControlSwitch</text>
</a>
</g>
</g>
<!-- Node14&#45;&gt;Node23 -->
<g id="edge22" class="edge">
<title>Node14&#45;&gt;Node23</title>
<path fill="none" stroke="#63b8ff" d="M697.72,-153.84C698.89,-152.79 699.99,-151.68 701,-150.5 738.06,-107.25 695.34,-66.34 737,-27.5 746.33,-18.8 758.84,-13.94 771.3,-11.3"/>
<polygon fill="#63b8ff" stroke="#63b8ff" points="695.37,-151.21 689.21,-159.84 699.4,-156.93 695.37,-151.21"/>
</g>
<!-- Node16 -->
<g id="node16" class="node">
<title>Node16</title>
<g id="a_node16"><a xlink:href="../../d7/dc3/classcocos2d_1_1extension_1_1_c_c_edit_box.html" target="_top" xlink:title="Class for edit box.">
<polygon fill="white" stroke="#666666" points="1008,-290 940,-290 940,-271 1008,-271 1008,-290"/>
<text text-anchor="middle" x="974" y="-278" font-family="Helvetica,sans-Serif" font-size="10.00">CCEditBox</text>
</a>
</g>
</g>
<!-- Node15&#45;&gt;Node16 -->
<g id="edge15" class="edge">
<title>Node15&#45;&gt;Node16</title>
<path fill="none" stroke="#63b8ff" d="M879.98,-280.5C900.3,-280.5 922.39,-280.5 939.93,-280.5"/>
<polygon fill="#63b8ff" stroke="#63b8ff" points="879.85,-277 869.85,-280.5 879.85,-284 879.85,-277"/>
</g>
<!-- Node25 -->
<g id="node25" class="node">
<title>Node25</title>
<g id="a_node25"><a xlink:href="../../d8/d28/classcocos2d_1_1extension_1_1_c_c_table_view.html" target="_top" xlink:title="UITableView counterpart for cocos2d for iphone.">
<polygon fill="white" stroke="#666666" points="699.5,-142 619.5,-142 619.5,-123 699.5,-123 699.5,-142"/>
<text text-anchor="middle" x="659.5" y="-130" font-family="Helvetica,sans-Serif" font-size="10.00">CCTableView</text>
</a>
</g>
</g>
<!-- Node24&#45;&gt;Node25 -->
<g id="edge24" class="edge">
<title>Node24&#45;&gt;Node25</title>
<path fill="none" stroke="#63b8ff" d="M581.25,-143.45C593.86,-141.66 607.23,-139.77 619.24,-138.06"/>
<polygon fill="#63b8ff" stroke="#63b8ff" points="580.75,-139.99 571.34,-144.85 581.73,-146.92 580.75,-139.99"/>
</g>
</g>
</svg>
