<?xml version="1.0" encoding="UTF-8" standalone="no"?>
<!DOCTYPE svg PUBLIC "-//W3C//DTD SVG 1.1//EN"
 "http://www.w3.org/Graphics/SVG/1.1/DTD/svg11.dtd">
<!-- Generated by graphviz version 2.43.0 (0)
 -->
<!-- Title: /home/runner/work/cocos&#45;headers/cocos&#45;headers/cocos2dx/platform/CCSAXParser.h Pages: 1 -->
<svg width="330pt" height="274pt"
 viewBox="0.00 0.00 330.00 274.00" xmlns="http://www.w3.org/2000/svg" xmlns:xlink="http://www.w3.org/1999/xlink">
<g id="graph0" class="graph" transform="scale(1 1) rotate(0) translate(4 270)">
<title>/home/runner/work/cocos&#45;headers/cocos&#45;headers/cocos2dx/platform/CCSAXParser.h</title>
<!-- Node1 -->
<g id="node1" class="node">
<title>Node1</title>
<g id="a_node1"><a xlink:title=" ">
<polygon fill="#bfbfbf" stroke="black" points="0,-224.5 0,-265.5 185,-265.5 185,-224.5 0,-224.5"/>
<text text-anchor="start" x="8" y="-253.5" font-family="Helvetica,sans-Serif" font-size="10.00">/home/runner/work/cocos</text>
<text text-anchor="start" x="8" y="-242.5" font-family="Helvetica,sans-Serif" font-size="10.00">&#45;headers/cocos&#45;headers</text>
<text text-anchor="middle" x="92.5" y="-231.5" font-family="Helvetica,sans-Serif" font-size="10.00">/cocos2dx/platform/CCSAXParser.h</text>
</a>
</g>
</g>
<!-- Node2 -->
<g id="node2" class="node">
<title>Node2</title>
<g id="a_node2"><a xlink:href="../../dd/d96/_c_c_platform_config_8h.html" target="_top" xlink:title=" ">
<polygon fill="none" stroke="black" points="39.5,-0.5 39.5,-19.5 151.5,-19.5 151.5,-0.5 39.5,-0.5"/>
<text text-anchor="middle" x="95.5" y="-7.5" font-family="Helvetica,sans-Serif" font-size="10.00">CCPlatformConfig.h</text>
</a>
</g>
</g>
<!-- Node1&#45;&gt;Node2 -->
<g id="edge1" class="edge">
<title>Node1&#45;&gt;Node2</title>
<path fill="none" stroke="midnightblue" d="M89.61,-224.35C88.14,-213.63 86.47,-200.11 85.5,-188 83.51,-163.17 83.94,-156.9 83.5,-132 83.34,-123.11 82.97,-120.87 83.5,-112 85.21,-83.13 89.64,-49.87 92.62,-29.64"/>
<polygon fill="midnightblue" stroke="midnightblue" points="96.1,-30.03 94.13,-19.62 89.17,-28.98 96.1,-30.03"/>
</g>
<!-- Node3 -->
<g id="node3" class="node">
<title>Node3</title>
<g id="a_node3"><a xlink:href="../../d5/d22/_c_c_common_8h.html" target="_top" xlink:title=" ">
<polygon fill="none" stroke="black" points="94,-168.5 94,-187.5 177,-187.5 177,-168.5 94,-168.5"/>
<text text-anchor="middle" x="135.5" y="-175.5" font-family="Helvetica,sans-Serif" font-size="10.00">CCCommon.h</text>
</a>
</g>
</g>
<!-- Node1&#45;&gt;Node3 -->
<g id="edge2" class="edge">
<title>Node1&#45;&gt;Node3</title>
<path fill="none" stroke="midnightblue" d="M105.4,-224.5C111.36,-215.49 118.37,-204.89 124.13,-196.19"/>
<polygon fill="midnightblue" stroke="midnightblue" points="127.18,-197.92 129.78,-187.65 121.34,-194.06 127.18,-197.92"/>
</g>
<!-- Node4 -->
<g id="node4" class="node">
<title>Node4</title>
<g id="a_node4"><a xlink:href="../../d3/d41/_c_c_platform_macros_8h.html" target="_top" xlink:title=" ">
<polygon fill="none" stroke="black" points="92.5,-112.5 92.5,-131.5 208.5,-131.5 208.5,-112.5 92.5,-112.5"/>
<text text-anchor="middle" x="150.5" y="-119.5" font-family="Helvetica,sans-Serif" font-size="10.00">CCPlatformMacros.h</text>
</a>
</g>
</g>
<!-- Node3&#45;&gt;Node4 -->
<g id="edge3" class="edge">
<title>Node3&#45;&gt;Node4</title>
<path fill="none" stroke="midnightblue" d="M137.98,-168.08C139.99,-160.85 142.89,-150.41 145.39,-141.4"/>
<polygon fill="midnightblue" stroke="midnightblue" points="148.76,-142.32 148.07,-131.75 142.02,-140.45 148.76,-142.32"/>
</g>
<!-- Node4&#45;&gt;Node2 -->
<g id="edge6" class="edge">
<title>Node4&#45;&gt;Node2</title>
<path fill="none" stroke="midnightblue" d="M142.21,-112.36C134.36,-103.76 122.72,-89.87 115.5,-76 107.84,-61.27 102.56,-43.11 99.36,-29.73"/>
<polygon fill="midnightblue" stroke="midnightblue" points="102.73,-28.8 97.15,-19.8 95.9,-30.32 102.73,-28.8"/>
</g>
<!-- Node5 -->
<g id="node5" class="node">
<title>Node5</title>
<g id="a_node5"><a xlink:href="../../db/d9f/cc_config_8h.html" target="_top" xlink:title="cocos2d (cc) configuration file">
<polygon fill="none" stroke="black" points="124,-56.5 124,-75.5 191,-75.5 191,-56.5 124,-56.5"/>
<text text-anchor="middle" x="157.5" y="-63.5" font-family="Helvetica,sans-Serif" font-size="10.00">ccConfig.h</text>
</a>
</g>
</g>
<!-- Node4&#45;&gt;Node5 -->
<g id="edge4" class="edge">
<title>Node4&#45;&gt;Node5</title>
<path fill="none" stroke="midnightblue" d="M151.66,-112.08C152.58,-104.93 153.92,-94.64 155.08,-85.69"/>
<polygon fill="midnightblue" stroke="midnightblue" points="158.55,-86.12 156.37,-75.75 151.61,-85.22 158.55,-86.12"/>
</g>
<!-- Node6 -->
<g id="node6" class="node">
<title>Node6</title>
<g id="a_node6"><a xlink:title=" ">
<polygon fill="none" stroke="#bfbfbf" points="209,-56.5 209,-75.5 322,-75.5 322,-56.5 209,-56.5"/>
<text text-anchor="middle" x="265.5" y="-63.5" font-family="Helvetica,sans-Serif" font-size="10.00">CCPlatformDefine.h</text>
</a>
</g>
</g>
<!-- Node4&#45;&gt;Node6 -->
<g id="edge7" class="edge">
<title>Node4&#45;&gt;Node6</title>
<path fill="none" stroke="midnightblue" d="M168.72,-112.44C187.4,-103.68 216.66,-89.94 238.12,-79.86"/>
<polygon fill="midnightblue" stroke="midnightblue" points="239.8,-82.93 247.36,-75.52 236.82,-76.6 239.8,-82.93"/>
</g>
<!-- Node5&#45;&gt;Node2 -->
<g id="edge5" class="edge">
<title>Node5&#45;&gt;Node2</title>
<path fill="none" stroke="midnightblue" d="M147.54,-56.32C138.37,-48.34 124.56,-36.31 113.47,-26.65"/>
<polygon fill="midnightblue" stroke="midnightblue" points="115.48,-23.76 105.64,-19.83 110.88,-29.04 115.48,-23.76"/>
</g>
</g>
</svg>
