<?xml version="1.0" encoding="UTF-8" standalone="no"?>
<!DOCTYPE svg PUBLIC "-//W3C//DTD SVG 1.1//EN"
 "http://www.w3.org/Graphics/SVG/1.1/DTD/svg11.dtd">
<!-- Generated by graphviz version 2.43.0 (0)
 -->
<!-- Title: CCAnimation Pages: 1 -->
<svg width="131pt" height="209pt"
 viewBox="0.00 0.00 131.00 209.00" xmlns="http://www.w3.org/2000/svg" xmlns:xlink="http://www.w3.org/1999/xlink">
<g id="graph0" class="graph" transform="scale(1 1) rotate(0) translate(4 205)">
<title>CCAnimation</title>
<!-- Node1 -->
<g id="node1" class="node">
<title>Node1</title>
<g id="a_node1"><a xlink:title="A CCAnimation object is used to perform animations on the CCSprite objects.">
<polygon fill="#bfbfbf" stroke="black" points="0,-0.5 0,-19.5 80,-19.5 80,-0.5 0,-0.5"/>
<text text-anchor="middle" x="40" y="-7.5" font-family="Helvetica,sans-Serif" font-size="10.00">CCAnimation</text>
</a>
</g>
</g>
<!-- Node2 -->
<g id="node2" class="node">
<title>Node2</title>
<g id="a_node2"><a xlink:href="../../d3/dbf/classcocos2d_1_1_c_c_object.html" target="_top" xlink:title="NA.">
<polygon fill="none" stroke="black" points="5,-124.5 5,-143.5 67,-143.5 67,-124.5 5,-124.5"/>
<text text-anchor="middle" x="36" y="-131.5" font-family="Helvetica,sans-Serif" font-size="10.00">CCObject</text>
</a>
</g>
</g>
<!-- Node2&#45;&gt;Node1 -->
<g id="edge1" class="edge">
<title>Node2&#45;&gt;Node1</title>
<path fill="none" stroke="midnightblue" d="M36.62,-114.19C37.5,-87.4 39.07,-39.31 39.71,-19.69"/>
<polygon fill="midnightblue" stroke="midnightblue" points="33.12,-114.12 36.29,-124.23 40.11,-114.35 33.12,-114.12"/>
</g>
<!-- Node4 -->
<g id="node4" class="node">
<title>Node4</title>
<g id="a_node4"><a xlink:href="../../d9/d2e/classcocos2d_1_1_c_c_array.html" target="_top" xlink:title="NA.">
<polygon fill="none" stroke="black" points="52,-67.5 52,-86.5 108,-86.5 108,-67.5 52,-67.5"/>
<text text-anchor="middle" x="80" y="-74.5" font-family="Helvetica,sans-Serif" font-size="10.00">CCArray</text>
</a>
</g>
</g>
<!-- Node2&#45;&gt;Node4 -->
<g id="edge4" class="edge">
<title>Node2&#45;&gt;Node4</title>
<path fill="none" stroke="midnightblue" d="M49.17,-116.53C57.01,-106.74 66.64,-94.7 73.03,-86.71"/>
<polygon fill="midnightblue" stroke="midnightblue" points="46.39,-114.41 42.88,-124.41 51.86,-118.78 46.39,-114.41"/>
</g>
<!-- Node3 -->
<g id="node3" class="node">
<title>Node3</title>
<g id="a_node3"><a xlink:href="../../d5/d61/classcocos2d_1_1_c_c_copying.html" target="_top" xlink:title="NA NA.">
<polygon fill="none" stroke="black" points="1,-181.5 1,-200.5 71,-200.5 71,-181.5 1,-181.5"/>
<text text-anchor="middle" x="36" y="-188.5" font-family="Helvetica,sans-Serif" font-size="10.00">CCCopying</text>
</a>
</g>
</g>
<!-- Node3&#45;&gt;Node2 -->
<g id="edge2" class="edge">
<title>Node3&#45;&gt;Node2</title>
<path fill="none" stroke="midnightblue" d="M36,-171.12C36,-161.82 36,-151.06 36,-143.71"/>
<polygon fill="midnightblue" stroke="midnightblue" points="32.5,-171.41 36,-181.41 39.5,-171.41 32.5,-171.41"/>
</g>
<!-- Node4&#45;&gt;Node1 -->
<g id="edge3" class="edge">
<title>Node4&#45;&gt;Node1</title>
<path fill="none" stroke="#9a32cd" stroke-dasharray="5,2" d="M69.25,-58.53C61.51,-45.95 51.39,-29.51 45.31,-19.63"/>
<polygon fill="#9a32cd" stroke="#9a32cd" points="66.38,-60.55 74.61,-67.23 72.35,-56.88 66.38,-60.55"/>
<text text-anchor="middle" x="92.5" y="-41" font-family="Helvetica,sans-Serif" font-size="10.00"> m_pFrames</text>
</g>
</g>
</svg>
