<?xml version="1.0" encoding="UTF-8" standalone="no"?>
<!DOCTYPE svg PUBLIC "-//W3C//DTD SVG 1.1//EN"
 "http://www.w3.org/Graphics/SVG/1.1/DTD/svg11.dtd">
<!-- Generated by graphviz version 2.43.0 (0)
 -->
<!-- Title: /home/runner/work/cocos&#45;headers/cocos&#45;headers/cocos2dx/sprite_nodes/CCSpriteFrameCache.h Pages: 1 -->
<svg width="1640pt" height="731pt"
 viewBox="0.00 0.00 1640.00 731.00" xmlns="http://www.w3.org/2000/svg" xmlns:xlink="http://www.w3.org/1999/xlink">
<g id="graph0" class="graph" transform="scale(1 1) rotate(0) translate(4 727)">
<title>/home/runner/work/cocos&#45;headers/cocos&#45;headers/cocos2dx/sprite_nodes/CCSpriteFrameCache.h</title>
<!-- Node1 -->
<g id="node1" class="node">
<title>Node1</title>
<g id="a_node1"><a xlink:title=" ">
<polygon fill="#999999" stroke="#666666" points="443,-723 303,-723 303,-671 443,-671 443,-723"/>
<text text-anchor="start" x="311" y="-711" font-family="Helvetica,sans-Serif" font-size="10.00">/home/runner/work/cocos</text>
<text text-anchor="start" x="311" y="-700" font-family="Helvetica,sans-Serif" font-size="10.00">&#45;headers/cocos&#45;headers</text>
<text text-anchor="start" x="311" y="-689" font-family="Helvetica,sans-Serif" font-size="10.00">/cocos2dx/sprite_nodes</text>
<text text-anchor="middle" x="373" y="-678" font-family="Helvetica,sans-Serif" font-size="10.00">/CCSpriteFrameCache.h</text>
</a>
</g>
</g>
<!-- Node2 -->
<g id="node2" class="node">
<title>Node2</title>
<g id="a_node2"><a xlink:href="../../dd/d89/_c_c_sprite_frame_8h.html" target="_top" xlink:title=" ">
<polygon fill="white" stroke="#666666" points="455,-635 291,-635 291,-616 455,-616 455,-635"/>
<text text-anchor="middle" x="373" y="-623" font-family="Helvetica,sans-Serif" font-size="10.00">sprite_nodes/CCSpriteFrame.h</text>
</a>
</g>
</g>
<!-- Node1&#45;&gt;Node2 -->
<g id="edge1" class="edge">
<title>Node1&#45;&gt;Node2</title>
<path fill="none" stroke="#63b8ff" d="M373,-670.91C373,-662.55 373,-653.38 373,-645.55"/>
<polygon fill="#63b8ff" stroke="#63b8ff" points="376.5,-645.3 373,-635.3 369.5,-645.3 376.5,-645.3"/>
</g>
<!-- Node13 -->
<g id="node13" class="node">
<title>Node13</title>
<g id="a_node13"><a xlink:href="../../dd/d69/_c_c_object_8h.html" target="_top" xlink:title=" ">
<polygon fill="white" stroke="#666666" points="719.5,-294 648.5,-294 648.5,-275 719.5,-275 719.5,-294"/>
<text text-anchor="middle" x="684" y="-282" font-family="Helvetica,sans-Serif" font-size="10.00">CCObject.h</text>
</a>
</g>
</g>
<!-- Node1&#45;&gt;Node13 -->
<g id="edge60" class="edge">
<title>Node1&#45;&gt;Node13</title>
<path fill="none" stroke="#63b8ff" d="M443.09,-695.31C682.64,-692.06 1454,-673.63 1454,-571.5 1454,-571.5 1454,-571.5 1454,-454 1454,-258.09 1225.22,-355.67 1031,-330 923.12,-315.74 796.28,-299.64 729.86,-291.27"/>
<polygon fill="#63b8ff" stroke="#63b8ff" points="730.09,-287.77 719.73,-289.99 729.21,-294.71 730.09,-287.77"/>
</g>
<!-- Node15 -->
<g id="node15" class="node">
<title>Node15</title>
<g id="a_node15"><a xlink:title=" ">
<polygon fill="#e0e0e0" stroke="#999999" points="117,-184 73,-184 73,-165 117,-165 117,-184"/>
<text text-anchor="middle" x="95" y="-172" font-family="Helvetica,sans-Serif" font-size="10.00">string</text>
</a>
</g>
</g>
<!-- Node1&#45;&gt;Node15 -->
<g id="edge62" class="edge">
<title>Node1&#45;&gt;Node15</title>
<path fill="none" stroke="#63b8ff" d="M302.84,-687.15C194.79,-671.55 0,-634.65 0,-571.5 0,-571.5 0,-571.5 0,-283.5 0,-240.91 42.16,-207.14 70.31,-189.33"/>
<polygon fill="#63b8ff" stroke="#63b8ff" points="72.16,-192.31 78.88,-184.12 68.52,-186.32 72.16,-192.31"/>
</g>
<!-- Node27 -->
<g id="node27" class="node">
<title>Node27</title>
<g id="a_node27"><a xlink:title=" ">
<polygon fill="#e0e0e0" stroke="#999999" points="709,-349 677,-349 677,-330 709,-330 709,-349"/>
<text text-anchor="middle" x="693" y="-337" font-family="Helvetica,sans-Serif" font-size="10.00">set</text>
</a>
</g>
</g>
<!-- Node1&#45;&gt;Node27 -->
<g id="edge61" class="edge">
<title>Node1&#45;&gt;Node27</title>
<path fill="none" stroke="#63b8ff" d="M443.24,-682.7C535.53,-663.18 686,-623.4 686,-571.5 686,-571.5 686,-571.5 686,-454 686,-420.54 689.07,-381.65 691.14,-359.17"/>
<polygon fill="#63b8ff" stroke="#63b8ff" points="694.64,-359.32 692.11,-349.03 687.67,-358.65 694.64,-359.32"/>
</g>
<!-- Node32 -->
<g id="node32" class="node">
<title>Node32</title>
<g id="a_node32"><a xlink:href="../../d5/d70/_c_c_texture2_d_8h.html" target="_top" xlink:title=" ">
<polygon fill="white" stroke="#666666" points="198,-464.5 66,-464.5 66,-445.5 198,-445.5 198,-464.5"/>
<text text-anchor="middle" x="132" y="-452.5" font-family="Helvetica,sans-Serif" font-size="10.00">textures/CCTexture2D.h</text>
</a>
</g>
</g>
<!-- Node1&#45;&gt;Node32 -->
<g id="edge59" class="edge">
<title>Node1&#45;&gt;Node32</title>
<path fill="none" stroke="#63b8ff" d="M321.62,-670.92C269.65,-642.77 191.15,-592.12 149,-525 139.48,-509.83 135.29,-489.67 133.44,-475.07"/>
<polygon fill="#63b8ff" stroke="#63b8ff" points="136.89,-474.34 132.41,-464.74 129.92,-475.04 136.89,-474.34"/>
</g>
<!-- Node3 -->
<g id="node3" class="node">
<title>Node3</title>
<g id="a_node3"><a xlink:href="../../db/d7f/_c_c_node_8h.html" target="_top" xlink:title=" ">
<polygon fill="white" stroke="#666666" points="1060.5,-580 935.5,-580 935.5,-561 1060.5,-561 1060.5,-580"/>
<text text-anchor="middle" x="998" y="-568" font-family="Helvetica,sans-Serif" font-size="10.00">base_nodes/CCNode.h</text>
</a>
</g>
</g>
<!-- Node2&#45;&gt;Node3 -->
<g id="edge2" class="edge">
<title>Node2&#45;&gt;Node3</title>
<path fill="none" stroke="#63b8ff" d="M455.03,-617.54C577.83,-607.13 807.56,-587.65 924.92,-577.7"/>
<polygon fill="#63b8ff" stroke="#63b8ff" points="925.56,-581.16 935.23,-576.82 924.97,-574.18 925.56,-581.16"/>
</g>
<!-- Node12 -->
<g id="node12" class="node">
<title>Node12</title>
<g id="a_node12"><a xlink:href="../../d6/d09/_c_c_geometry_8h.html" target="_top" xlink:title=" ">
<polygon fill="white" stroke="#666666" points="361,-349 275,-349 275,-330 361,-330 361,-349"/>
<text text-anchor="middle" x="318" y="-337" font-family="Helvetica,sans-Serif" font-size="10.00">CCGeometry.h</text>
</a>
</g>
</g>
<!-- Node2&#45;&gt;Node12 -->
<g id="edge58" class="edge">
<title>Node2&#45;&gt;Node12</title>
<path fill="none" stroke="#63b8ff" d="M366.23,-615.94C344.4,-587.74 276,-494.39 253,-404 250.92,-395.82 249.06,-392.47 253,-385 260.24,-371.27 273.83,-360.97 286.72,-353.76"/>
<polygon fill="#63b8ff" stroke="#63b8ff" points="288.59,-356.73 295.88,-349.05 285.39,-350.51 288.59,-356.73"/>
</g>
<!-- Node2&#45;&gt;Node13 -->
<g id="edge57" class="edge">
<title>Node2&#45;&gt;Node13</title>
<path fill="none" stroke="#63b8ff" d="M390.94,-616C420.45,-600.62 476,-565.21 476,-516.5 476,-516.5 476,-516.5 476,-393.5 476,-321 576.78,-297.1 638.04,-289.27"/>
<polygon fill="#63b8ff" stroke="#63b8ff" points="638.72,-292.72 648.24,-288.07 637.9,-285.76 638.72,-292.72"/>
</g>
<!-- Node30 -->
<g id="node30" class="node">
<title>Node30</title>
<g id="a_node30"><a xlink:href="../../d8/d76/_c_c_protocols_8h.html" target="_top" xlink:title=" ">
<polygon fill="white" stroke="#666666" points="242,-525 158,-525 158,-506 242,-506 242,-525"/>
<text text-anchor="middle" x="200" y="-513" font-family="Helvetica,sans-Serif" font-size="10.00">CCProtocols.h</text>
</a>
</g>
</g>
<!-- Node2&#45;&gt;Node30 -->
<g id="edge56" class="edge">
<title>Node2&#45;&gt;Node30</title>
<path fill="none" stroke="#63b8ff" d="M337.85,-615.96C313.42,-608.92 280.92,-597.26 256,-580 237.76,-567.37 221.56,-547.56 211.34,-533.42"/>
<polygon fill="#63b8ff" stroke="#63b8ff" points="214.11,-531.29 205.52,-525.09 208.37,-535.29 214.11,-531.29"/>
</g>
<!-- Node4 -->
<g id="node4" class="node">
<title>Node4</title>
<g id="a_node4"><a xlink:href="../../d9/dc8/cc_macros_8h.html" target="_top" xlink:title=" ">
<polygon fill="white" stroke="#666666" points="1577.5,-239 1506.5,-239 1506.5,-220 1577.5,-220 1577.5,-239"/>
<text text-anchor="middle" x="1542" y="-227" font-family="Helvetica,sans-Serif" font-size="10.00">ccMacros.h</text>
</a>
</g>
</g>
<!-- Node3&#45;&gt;Node4 -->
<g id="edge3" class="edge">
<title>Node3&#45;&gt;Node4</title>
<path fill="none" stroke="#63b8ff" d="M1060.59,-569.19C1201.22,-566.79 1530,-551.03 1530,-456 1530,-456 1530,-456 1530,-338.5 1530,-307 1535.11,-270.64 1538.66,-249.16"/>
<polygon fill="#63b8ff" stroke="#63b8ff" points="1542.13,-249.59 1540.38,-239.14 1535.24,-248.4 1542.13,-249.59"/>
</g>
<!-- Node11 -->
<g id="node11" class="node">
<title>Node11</title>
<g id="a_node11"><a xlink:href="../../d3/d15/_c_c_affine_transform_8h.html" target="_top" xlink:title=" ">
<polygon fill="white" stroke="#666666" points="410,-404 262,-404 262,-385 410,-385 410,-404"/>
<text text-anchor="middle" x="336" y="-392" font-family="Helvetica,sans-Serif" font-size="10.00">cocoa/CCAffineTransform.h</text>
</a>
</g>
</g>
<!-- Node3&#45;&gt;Node11 -->
<g id="edge12" class="edge">
<title>Node3&#45;&gt;Node11</title>
<path fill="none" stroke="#63b8ff" d="M965.62,-560.99C856.42,-532.29 501.62,-439.03 378.53,-406.68"/>
<polygon fill="#63b8ff" stroke="#63b8ff" points="379.27,-403.25 368.71,-404.1 377.49,-410.02 379.27,-403.25"/>
</g>
<!-- Node17 -->
<g id="node17" class="node">
<title>Node17</title>
<g id="a_node17"><a xlink:href="../../da/d35/_c_c_array_8h.html" target="_top" xlink:title=" ">
<polygon fill="white" stroke="#666666" points="1254.5,-525 1159.5,-525 1159.5,-506 1254.5,-506 1254.5,-525"/>
<text text-anchor="middle" x="1207" y="-513" font-family="Helvetica,sans-Serif" font-size="10.00">cocoa/CCArray.h</text>
</a>
</g>
</g>
<!-- Node3&#45;&gt;Node17 -->
<g id="edge22" class="edge">
<title>Node3&#45;&gt;Node17</title>
<path fill="none" stroke="#63b8ff" d="M1031.58,-560.98C1067.35,-551.91 1124.12,-537.52 1163.34,-527.57"/>
<polygon fill="#63b8ff" stroke="#63b8ff" points="1164.32,-530.93 1173.16,-525.08 1162.6,-524.15 1164.32,-530.93"/>
</g>
<!-- Node19 -->
<g id="node19" class="node">
<title>Node19</title>
<g id="a_node19"><a xlink:title=" ">
<polygon fill="#e0e0e0" stroke="#999999" points="973,-349 921,-349 921,-330 973,-330 973,-349"/>
<text text-anchor="middle" x="947" y="-337" font-family="Helvetica,sans-Serif" font-size="10.00">CCGL.h</text>
</a>
</g>
</g>
<!-- Node3&#45;&gt;Node19 -->
<g id="edge24" class="edge">
<title>Node3&#45;&gt;Node19</title>
<path fill="none" stroke="#63b8ff" d="M981.34,-560.95C955.06,-546.41 904.91,-514.07 885,-470 869.44,-435.57 867.75,-418.61 885,-385 891.96,-371.44 905.19,-361.07 917.65,-353.78"/>
<polygon fill="#63b8ff" stroke="#63b8ff" points="919.35,-356.84 926.48,-349 916.02,-350.68 919.35,-356.84"/>
</g>
<!-- Node20 -->
<g id="node20" class="node">
<title>Node20</title>
<g id="a_node20"><a xlink:href="../../da/d2f/cc_g_l_state_cache_8h.html" target="_top" xlink:title=" ">
<polygon fill="white" stroke="#666666" points="1426,-404 1280,-404 1280,-385 1426,-385 1426,-404"/>
<text text-anchor="middle" x="1353" y="-392" font-family="Helvetica,sans-Serif" font-size="10.00">shaders/ccGLStateCache.h</text>
</a>
</g>
</g>
<!-- Node3&#45;&gt;Node20 -->
<g id="edge25" class="edge">
<title>Node3&#45;&gt;Node20</title>
<path fill="none" stroke="#63b8ff" d="M1060.75,-564.67C1128.49,-558.47 1231.12,-545.94 1264,-525 1306.44,-497.97 1333.92,-442.67 1345.97,-413.86"/>
<polygon fill="#63b8ff" stroke="#63b8ff" points="1349.36,-414.82 1349.83,-404.24 1342.86,-412.21 1349.36,-414.82"/>
</g>
<!-- Node21 -->
<g id="node21" class="node">
<title>Node21</title>
<g id="a_node21"><a xlink:href="../../de/d32/_c_c_g_l_program_8h.html" target="_top" xlink:title=" ">
<polygon fill="white" stroke="#666666" points="1262,-404 1128,-404 1128,-385 1262,-385 1262,-404"/>
<text text-anchor="middle" x="1195" y="-392" font-family="Helvetica,sans-Serif" font-size="10.00">shaders/CCGLProgram.h</text>
</a>
</g>
</g>
<!-- Node3&#45;&gt;Node21 -->
<g id="edge28" class="edge">
<title>Node3&#45;&gt;Node21</title>
<path fill="none" stroke="#63b8ff" d="M1037.51,-560.96C1059.95,-554.38 1087.23,-543.22 1106,-525 1135.69,-496.17 1119.39,-473.27 1144,-440 1152.41,-428.63 1164.18,-418.12 1174.29,-410.17"/>
<polygon fill="#63b8ff" stroke="#63b8ff" points="1176.42,-412.95 1182.29,-404.14 1172.2,-407.37 1176.42,-412.95"/>
</g>
<!-- Node22 -->
<g id="node22" class="node">
<title>Node22</title>
<g id="a_node22"><a xlink:title=" ">
<polygon fill="#e0e0e0" stroke="#999999" points="1096.5,-525 983.5,-525 983.5,-506 1096.5,-506 1096.5,-525"/>
<text text-anchor="middle" x="1040" y="-513" font-family="Helvetica,sans-Serif" font-size="10.00">kazmath/kazmath.h</text>
</a>
</g>
</g>
<!-- Node3&#45;&gt;Node22 -->
<g id="edge32" class="edge">
<title>Node3&#45;&gt;Node22</title>
<path fill="none" stroke="#63b8ff" d="M1004.94,-560.75C1010.87,-553.26 1019.57,-542.28 1026.82,-533.13"/>
<polygon fill="#63b8ff" stroke="#63b8ff" points="1029.73,-535.1 1033.19,-525.09 1024.24,-530.75 1029.73,-535.1"/>
</g>
<!-- Node23 -->
<g id="node23" class="node">
<title>Node23</title>
<g id="a_node23"><a xlink:href="../../dc/dbc/_c_c_script_support_8h.html" target="_top" xlink:title=" ">
<polygon fill="white" stroke="#666666" points="1070,-464.5 894,-464.5 894,-445.5 1070,-445.5 1070,-464.5"/>
<text text-anchor="middle" x="982" y="-452.5" font-family="Helvetica,sans-Serif" font-size="10.00">script_support/CCScriptSupport.h</text>
</a>
</g>
</g>
<!-- Node3&#45;&gt;Node23 -->
<g id="edge33" class="edge">
<title>Node3&#45;&gt;Node23</title>
<path fill="none" stroke="#63b8ff" d="M991.9,-560.8C986.25,-552.17 978.25,-538.35 975,-525 970.91,-508.2 973.62,-488.53 976.77,-474.51"/>
<polygon fill="#63b8ff" stroke="#63b8ff" points="980.21,-475.18 979.29,-464.63 973.43,-473.46 980.21,-475.18"/>
</g>
<!-- Node3&#45;&gt;Node30 -->
<g id="edge45" class="edge">
<title>Node3&#45;&gt;Node30</title>
<path fill="none" stroke="#63b8ff" d="M935.38,-565.34C782.68,-555.2 393.35,-529.34 252.15,-519.96"/>
<polygon fill="#63b8ff" stroke="#63b8ff" points="252.24,-516.46 242.03,-519.29 251.77,-523.45 252.24,-516.46"/>
</g>
<!-- Node5 -->
<g id="node5" class="node">
<title>Node5</title>
<g id="a_node5"><a xlink:href="../../d5/d22/_c_c_common_8h.html" target="_top" xlink:title=" ">
<polygon fill="white" stroke="#666666" points="1514,-184 1386,-184 1386,-165 1514,-165 1514,-184"/>
<text text-anchor="middle" x="1450" y="-172" font-family="Helvetica,sans-Serif" font-size="10.00">platform/CCCommon.h</text>
</a>
</g>
</g>
<!-- Node4&#45;&gt;Node5 -->
<g id="edge4" class="edge">
<title>Node4&#45;&gt;Node5</title>
<path fill="none" stroke="#63b8ff" d="M1527.22,-219.98C1512.82,-211.69 1490.69,-198.94 1473.81,-189.22"/>
<polygon fill="#63b8ff" stroke="#63b8ff" points="1475.46,-186.13 1465.05,-184.17 1471.97,-192.19 1475.46,-186.13"/>
</g>
<!-- Node7 -->
<g id="node7" class="node">
<title>Node7</title>
<g id="a_node7"><a xlink:href="../../db/d9f/cc_config_8h.html" target="_top" xlink:title="cocos2d (cc) configuration file">
<polygon fill="white" stroke="#666666" points="1427.5,-74 1360.5,-74 1360.5,-55 1427.5,-55 1427.5,-74"/>
<text text-anchor="middle" x="1394" y="-62" font-family="Helvetica,sans-Serif" font-size="10.00">ccConfig.h</text>
</a>
</g>
</g>
<!-- Node4&#45;&gt;Node7 -->
<g id="edge11" class="edge">
<title>Node4&#45;&gt;Node7</title>
<path fill="none" stroke="#63b8ff" d="M1541.13,-219.98C1539.46,-207.07 1534.86,-182.26 1523,-165 1496.11,-125.88 1449.03,-95.29 1419.79,-78.86"/>
<polygon fill="#63b8ff" stroke="#63b8ff" points="1421.43,-75.76 1410.98,-74.03 1418.06,-81.9 1421.43,-75.76"/>
</g>
<!-- Node10 -->
<g id="node10" class="node">
<title>Node10</title>
<g id="a_node10"><a xlink:title=" ">
<polygon fill="#e0e0e0" stroke="#999999" points="1632,-184 1570,-184 1570,-165 1632,-165 1632,-184"/>
<text text-anchor="middle" x="1601" y="-172" font-family="Helvetica,sans-Serif" font-size="10.00">CCStdC.h</text>
</a>
</g>
</g>
<!-- Node4&#45;&gt;Node10 -->
<g id="edge10" class="edge">
<title>Node4&#45;&gt;Node10</title>
<path fill="none" stroke="#63b8ff" d="M1551.48,-219.98C1560.2,-212.15 1573.34,-200.34 1583.9,-190.86"/>
<polygon fill="#63b8ff" stroke="#63b8ff" points="1586.25,-193.46 1591.35,-184.17 1581.57,-188.25 1586.25,-193.46"/>
</g>
<!-- Node6 -->
<g id="node6" class="node">
<title>Node6</title>
<g id="a_node6"><a xlink:href="../../d3/d41/_c_c_platform_macros_8h.html" target="_top" xlink:title=" ">
<polygon fill="white" stroke="#666666" points="1301,-129 1185,-129 1185,-110 1301,-110 1301,-129"/>
<text text-anchor="middle" x="1243" y="-117" font-family="Helvetica,sans-Serif" font-size="10.00">CCPlatformMacros.h</text>
</a>
</g>
</g>
<!-- Node5&#45;&gt;Node6 -->
<g id="edge5" class="edge">
<title>Node5&#45;&gt;Node6</title>
<path fill="none" stroke="#63b8ff" d="M1416.74,-164.98C1381.39,-155.93 1325.33,-141.58 1286.49,-131.64"/>
<polygon fill="#63b8ff" stroke="#63b8ff" points="1287.07,-128.17 1276.52,-129.08 1285.34,-134.95 1287.07,-128.17"/>
</g>
<!-- Node6&#45;&gt;Node7 -->
<g id="edge6" class="edge">
<title>Node6&#45;&gt;Node7</title>
<path fill="none" stroke="#63b8ff" d="M1267.26,-109.98C1292.32,-101.19 1331.63,-87.39 1359.83,-77.49"/>
<polygon fill="#63b8ff" stroke="#63b8ff" points="1361.02,-80.78 1369.3,-74.17 1358.7,-74.18 1361.02,-80.78"/>
</g>
<!-- Node8 -->
<g id="node8" class="node">
<title>Node8</title>
<g id="a_node8"><a xlink:href="../../dd/d96/_c_c_platform_config_8h.html" target="_top" xlink:title=" ">
<polygon fill="white" stroke="#666666" points="1375.5,-19 1218.5,-19 1218.5,0 1375.5,0 1375.5,-19"/>
<text text-anchor="middle" x="1297" y="-7" font-family="Helvetica,sans-Serif" font-size="10.00">platform/CCPlatformConfig.h</text>
</a>
</g>
</g>
<!-- Node6&#45;&gt;Node8 -->
<g id="edge8" class="edge">
<title>Node6&#45;&gt;Node8</title>
<path fill="none" stroke="#63b8ff" d="M1235.57,-109.85C1225.67,-97.21 1210.56,-73.22 1221,-55 1229.36,-40.42 1244.55,-30.16 1259.17,-23.19"/>
<polygon fill="#63b8ff" stroke="#63b8ff" points="1260.84,-26.28 1268.61,-19.08 1258.05,-19.86 1260.84,-26.28"/>
</g>
<!-- Node9 -->
<g id="node9" class="node">
<title>Node9</title>
<g id="a_node9"><a xlink:title=" ">
<polygon fill="#e0e0e0" stroke="#999999" points="1342.5,-74 1229.5,-74 1229.5,-55 1342.5,-55 1342.5,-74"/>
<text text-anchor="middle" x="1286" y="-62" font-family="Helvetica,sans-Serif" font-size="10.00">CCPlatformDefine.h</text>
</a>
</g>
</g>
<!-- Node6&#45;&gt;Node9 -->
<g id="edge9" class="edge">
<title>Node6&#45;&gt;Node9</title>
<path fill="none" stroke="#63b8ff" d="M1250.1,-109.75C1256.17,-102.26 1265.09,-91.28 1272.51,-82.13"/>
<polygon fill="#63b8ff" stroke="#63b8ff" points="1275.45,-84.06 1279.03,-74.09 1270.01,-79.65 1275.45,-84.06"/>
</g>
<!-- Node7&#45;&gt;Node8 -->
<g id="edge7" class="edge">
<title>Node7&#45;&gt;Node8</title>
<path fill="none" stroke="#63b8ff" d="M1378.42,-54.98C1363.23,-46.69 1339.9,-33.94 1322.1,-24.22"/>
<polygon fill="#63b8ff" stroke="#63b8ff" points="1323.32,-20.89 1312.87,-19.17 1319.97,-27.04 1323.32,-20.89"/>
</g>
<!-- Node11&#45;&gt;Node6 -->
<g id="edge21" class="edge">
<title>Node11&#45;&gt;Node6</title>
<path fill="none" stroke="#63b8ff" d="M345.72,-384.74C363.62,-367.59 400,-327.56 400,-285.5 400,-285.5 400,-285.5 400,-228.5 400,-150.59 973.78,-127.72 1174.59,-122.11"/>
<polygon fill="#63b8ff" stroke="#63b8ff" points="1174.82,-125.6 1184.72,-121.83 1174.63,-118.6 1174.82,-125.6"/>
</g>
<!-- Node11&#45;&gt;Node12 -->
<g id="edge13" class="edge">
<title>Node11&#45;&gt;Node12</title>
<path fill="none" stroke="#63b8ff" d="M333.03,-384.75C330.64,-377.72 327.21,-367.62 324.23,-358.84"/>
<polygon fill="#63b8ff" stroke="#63b8ff" points="327.45,-357.43 320.92,-349.09 320.82,-359.68 327.45,-357.43"/>
</g>
<!-- Node12&#45;&gt;Node6 -->
<g id="edge14" class="edge">
<title>Node12&#45;&gt;Node6</title>
<path fill="none" stroke="#63b8ff" d="M323.22,-329.85C328.41,-321.04 336.38,-306.87 342,-294 366.24,-238.48 337.67,-201.51 386,-165 417.3,-141.36 977.12,-126.5 1174.67,-121.97"/>
<polygon fill="#63b8ff" stroke="#63b8ff" points="1175,-125.46 1184.92,-121.74 1174.85,-118.47 1175,-125.46"/>
</g>
<!-- Node12&#45;&gt;Node13 -->
<g id="edge15" class="edge">
<title>Node12&#45;&gt;Node13</title>
<path fill="none" stroke="#63b8ff" d="M361.06,-332.26C430.67,-322.18 567.29,-302.4 638.46,-292.09"/>
<polygon fill="#63b8ff" stroke="#63b8ff" points="639.07,-295.54 648.47,-290.65 638.07,-288.61 639.07,-295.54"/>
</g>
<!-- Node16 -->
<g id="node16" class="node">
<title>Node16</title>
<g id="a_node16"><a xlink:title=" ">
<polygon fill="#e0e0e0" stroke="#999999" points="333.5,-294 282.5,-294 282.5,-275 333.5,-275 333.5,-294"/>
<text text-anchor="middle" x="308" y="-282" font-family="Helvetica,sans-Serif" font-size="10.00">math.h</text>
</a>
</g>
</g>
<!-- Node12&#45;&gt;Node16 -->
<g id="edge20" class="edge">
<title>Node12&#45;&gt;Node16</title>
<path fill="none" stroke="#63b8ff" d="M316.35,-329.75C315.04,-322.8 313.16,-312.85 311.52,-304.13"/>
<polygon fill="#63b8ff" stroke="#63b8ff" points="314.91,-303.27 309.62,-294.09 308.04,-304.56 314.91,-303.27"/>
</g>
<!-- Node13&#45;&gt;Node4 -->
<g id="edge19" class="edge">
<title>Node13&#45;&gt;Node4</title>
<path fill="none" stroke="#63b8ff" d="M719.5,-281.31C855.39,-272.91 1342.49,-242.82 1495.6,-233.37"/>
<polygon fill="#63b8ff" stroke="#63b8ff" points="1496.27,-236.83 1506.03,-232.72 1495.84,-229.84 1496.27,-236.83"/>
</g>
<!-- Node14 -->
<g id="node14" class="node">
<title>Node14</title>
<g id="a_node14"><a xlink:href="../../d9/d2d/_c_c_data_visitor_8h.html" target="_top" xlink:title=" ">
<polygon fill="white" stroke="#666666" points="730.5,-239 637.5,-239 637.5,-220 730.5,-220 730.5,-239"/>
<text text-anchor="middle" x="684" y="-227" font-family="Helvetica,sans-Serif" font-size="10.00">CCDataVisitor.h</text>
</a>
</g>
</g>
<!-- Node13&#45;&gt;Node14 -->
<g id="edge16" class="edge">
<title>Node13&#45;&gt;Node14</title>
<path fill="none" stroke="#63b8ff" d="M684,-274.75C684,-267.8 684,-257.85 684,-249.13"/>
<polygon fill="#63b8ff" stroke="#63b8ff" points="687.5,-249.09 684,-239.09 680.5,-249.09 687.5,-249.09"/>
</g>
<!-- Node14&#45;&gt;Node6 -->
<g id="edge17" class="edge">
<title>Node14&#45;&gt;Node6</title>
<path fill="none" stroke="#63b8ff" d="M728.33,-219.94C829.75,-200.34 1078.41,-152.3 1188.74,-130.98"/>
<polygon fill="#63b8ff" stroke="#63b8ff" points="1189.51,-134.4 1198.66,-129.07 1188.18,-127.53 1189.51,-134.4"/>
</g>
<!-- Node14&#45;&gt;Node15 -->
<g id="edge18" class="edge">
<title>Node14&#45;&gt;Node15</title>
<path fill="none" stroke="#63b8ff" d="M637.29,-224.3C521.9,-213.91 225.59,-187.25 127.26,-178.4"/>
<polygon fill="#63b8ff" stroke="#63b8ff" points="127.33,-174.89 117.05,-177.48 126.7,-181.87 127.33,-174.89"/>
</g>
<!-- Node18 -->
<g id="node18" class="node">
<title>Node18</title>
<g id="a_node18"><a xlink:title=" ">
<polygon fill="#e0e0e0" stroke="#999999" points="1273,-470 1153,-470 1153,-440 1273,-440 1273,-470"/>
<text text-anchor="start" x="1161" y="-458" font-family="Helvetica,sans-Serif" font-size="10.00">support/data_support</text>
<text text-anchor="middle" x="1213" y="-447" font-family="Helvetica,sans-Serif" font-size="10.00">/ccCArray.h</text>
</a>
</g>
</g>
<!-- Node17&#45;&gt;Node18 -->
<g id="edge23" class="edge">
<title>Node17&#45;&gt;Node18</title>
<path fill="none" stroke="#63b8ff" d="M1207.89,-505.87C1208.58,-499.11 1209.58,-489.35 1210.51,-480.26"/>
<polygon fill="#63b8ff" stroke="#63b8ff" points="1214.01,-480.42 1211.55,-470.11 1207.05,-479.71 1214.01,-480.42"/>
</g>
<!-- Node20&#45;&gt;Node6 -->
<g id="edge27" class="edge">
<title>Node20&#45;&gt;Node6</title>
<path fill="none" stroke="#63b8ff" d="M1353.67,-384.83C1355.04,-366.5 1358,-322.48 1358,-285.5 1358,-285.5 1358,-285.5 1358,-228.5 1358,-182.06 1307.55,-149.76 1273.48,-133.24"/>
<polygon fill="#63b8ff" stroke="#63b8ff" points="1274.9,-130.04 1264.36,-129 1271.95,-136.39 1274.9,-130.04"/>
</g>
<!-- Node20&#45;&gt;Node19 -->
<g id="edge26" class="edge">
<title>Node20&#45;&gt;Node19</title>
<path fill="none" stroke="#63b8ff" d="M1287.77,-384.98C1201.38,-373.71 1051.98,-354.2 983.36,-345.25"/>
<polygon fill="#63b8ff" stroke="#63b8ff" points="983.44,-341.73 973.07,-343.9 982.53,-348.67 983.44,-341.73"/>
</g>
<!-- Node21&#45;&gt;Node4 -->
<g id="edge29" class="edge">
<title>Node21&#45;&gt;Node4</title>
<path fill="none" stroke="#63b8ff" d="M1213.17,-384.97C1270.19,-358.18 1445.86,-275.66 1514.3,-243.51"/>
<polygon fill="#63b8ff" stroke="#63b8ff" points="1516.03,-246.57 1523.59,-239.15 1513.05,-240.23 1516.03,-246.57"/>
</g>
<!-- Node21&#45;&gt;Node13 -->
<g id="edge30" class="edge">
<title>Node21&#45;&gt;Node13</title>
<path fill="none" stroke="#63b8ff" d="M1170.38,-384.92C1131.02,-371.48 1051.31,-345.42 982,-330 893.61,-310.33 788.5,-296.91 729.7,-290.29"/>
<polygon fill="#63b8ff" stroke="#63b8ff" points="729.95,-286.79 719.62,-289.17 729.17,-293.75 729.95,-286.79"/>
</g>
<!-- Node21&#45;&gt;Node19 -->
<g id="edge31" class="edge">
<title>Node21&#45;&gt;Node19</title>
<path fill="none" stroke="#63b8ff" d="M1155.15,-384.98C1107.55,-374.81 1028.6,-357.94 982.84,-348.16"/>
<polygon fill="#63b8ff" stroke="#63b8ff" points="983.56,-344.74 973.05,-346.07 982.1,-351.58 983.56,-344.74"/>
</g>
<!-- Node23&#45;&gt;Node5 -->
<g id="edge34" class="edge">
<title>Node23&#45;&gt;Node5</title>
<path fill="none" stroke="#63b8ff" d="M1070.24,-445.69C1200.26,-433.25 1428.75,-410.54 1435,-404 1490.62,-345.86 1467.67,-236.84 1455.62,-193.72"/>
<polygon fill="#63b8ff" stroke="#63b8ff" points="1458.95,-192.65 1452.78,-184.04 1452.24,-194.62 1458.95,-192.65"/>
</g>
<!-- Node23&#45;&gt;Node15 -->
<g id="edge43" class="edge">
<title>Node23&#45;&gt;Node15</title>
<path fill="none" stroke="#63b8ff" d="M948.2,-445.39C902.87,-431.58 828,-399.79 828,-340.5 828,-340.5 828,-340.5 828,-283.5 828,-234.91 784.74,-236.4 739,-220 624.54,-178.95 241.4,-175.52 127.32,-175.43"/>
<polygon fill="#63b8ff" stroke="#63b8ff" points="127.13,-171.93 117.13,-175.43 127.13,-178.93 127.13,-171.93"/>
</g>
<!-- Node24 -->
<g id="node24" class="node">
<title>Node24</title>
<g id="a_node24"><a xlink:title=" ">
<polygon fill="#e0e0e0" stroke="#999999" points="1054,-404 944,-404 944,-385 1054,-385 1054,-404"/>
<text text-anchor="middle" x="999" y="-392" font-family="Helvetica,sans-Serif" font-size="10.00">CCAccelerometer.h</text>
</a>
</g>
</g>
<!-- Node23&#45;&gt;Node24 -->
<g id="edge35" class="edge">
<title>Node23&#45;&gt;Node24</title>
<path fill="none" stroke="#63b8ff" d="M984.51,-445.37C986.89,-437.16 990.56,-424.54 993.61,-414.05"/>
<polygon fill="#63b8ff" stroke="#63b8ff" points="997.05,-414.75 996.48,-404.17 990.33,-412.79 997.05,-414.75"/>
</g>
<!-- Node25 -->
<g id="node25" class="node">
<title>Node25</title>
<g id="a_node25"><a xlink:href="../../d3/dff/_c_c_touch_8h.html" target="_top" xlink:title=" ">
<polygon fill="white" stroke="#666666" points="657.5,-404 504.5,-404 504.5,-385 657.5,-385 657.5,-404"/>
<text text-anchor="middle" x="581" y="-392" font-family="Helvetica,sans-Serif" font-size="10.00">touch_dispatcher/CCTouch.h</text>
</a>
</g>
</g>
<!-- Node23&#45;&gt;Node25 -->
<g id="edge36" class="edge">
<title>Node23&#45;&gt;Node25</title>
<path fill="none" stroke="#63b8ff" d="M923.69,-445.49C850.93,-434.88 726.7,-416.76 649.49,-405.49"/>
<polygon fill="#63b8ff" stroke="#63b8ff" points="649.78,-402 639.38,-404.02 648.77,-408.92 649.78,-402"/>
</g>
<!-- Node26 -->
<g id="node26" class="node">
<title>Node26</title>
<g id="a_node26"><a xlink:href="../../da/ddc/_c_c_set_8h.html" target="_top" xlink:title=" ">
<polygon fill="white" stroke="#666666" points="800,-404 714,-404 714,-385 800,-385 800,-404"/>
<text text-anchor="middle" x="757" y="-392" font-family="Helvetica,sans-Serif" font-size="10.00">cocoa/CCSet.h</text>
</a>
</g>
</g>
<!-- Node23&#45;&gt;Node26 -->
<g id="edge39" class="edge">
<title>Node23&#45;&gt;Node26</title>
<path fill="none" stroke="#63b8ff" d="M949.28,-445.49C909.71,-435.2 842.99,-417.86 799.48,-406.54"/>
<polygon fill="#63b8ff" stroke="#63b8ff" points="800.32,-403.15 789.76,-404.02 798.55,-409.92 800.32,-403.15"/>
</g>
<!-- Node28 -->
<g id="node28" class="node">
<title>Node28</title>
<g id="a_node28"><a xlink:title=" ">
<polygon fill="#e0e0e0" stroke="#999999" points="1110,-404 1072,-404 1072,-385 1110,-385 1110,-404"/>
<text text-anchor="middle" x="1091" y="-392" font-family="Helvetica,sans-Serif" font-size="10.00">map</text>
</a>
</g>
</g>
<!-- Node23&#45;&gt;Node28 -->
<g id="edge42" class="edge">
<title>Node23&#45;&gt;Node28</title>
<path fill="none" stroke="#63b8ff" d="M998.08,-445.37C1015.95,-435.78 1045.04,-420.17 1065.91,-408.97"/>
<polygon fill="#63b8ff" stroke="#63b8ff" points="1067.69,-411.98 1074.85,-404.17 1064.38,-405.81 1067.69,-411.98"/>
</g>
<!-- Node29 -->
<g id="node29" class="node">
<title>Node29</title>
<g id="a_node29"><a xlink:title=" ">
<polygon fill="#e0e0e0" stroke="#999999" points="926,-404 894,-404 894,-385 926,-385 926,-404"/>
<text text-anchor="middle" x="910" y="-392" font-family="Helvetica,sans-Serif" font-size="10.00">list</text>
</a>
</g>
</g>
<!-- Node23&#45;&gt;Node29 -->
<g id="edge44" class="edge">
<title>Node23&#45;&gt;Node29</title>
<path fill="none" stroke="#63b8ff" d="M971.38,-445.37C960.1,-436.21 942.08,-421.56 928.47,-410.51"/>
<polygon fill="#63b8ff" stroke="#63b8ff" points="930.64,-407.76 920.67,-404.17 926.22,-413.19 930.64,-407.76"/>
</g>
<!-- Node25&#45;&gt;Node12 -->
<g id="edge38" class="edge">
<title>Node25&#45;&gt;Node12</title>
<path fill="none" stroke="#63b8ff" d="M538.74,-384.98C492.96,-375.76 419.86,-361.03 370.45,-351.07"/>
<polygon fill="#63b8ff" stroke="#63b8ff" points="371.08,-347.63 360.59,-349.08 369.7,-354.49 371.08,-347.63"/>
</g>
<!-- Node25&#45;&gt;Node13 -->
<g id="edge37" class="edge">
<title>Node25&#45;&gt;Node13</title>
<path fill="none" stroke="#63b8ff" d="M589.43,-384.66C606.79,-366.46 646.76,-324.55 668.77,-301.47"/>
<polygon fill="#63b8ff" stroke="#63b8ff" points="671.37,-303.81 675.74,-294.16 666.31,-298.98 671.37,-303.81"/>
</g>
<!-- Node26&#45;&gt;Node13 -->
<g id="edge41" class="edge">
<title>Node26&#45;&gt;Node13</title>
<path fill="none" stroke="#63b8ff" d="M751.97,-384.69C744.8,-372.27 731.03,-348.99 718,-330 711.53,-320.58 703.84,-310.43 697.41,-302.21"/>
<polygon fill="#63b8ff" stroke="#63b8ff" points="699.99,-299.84 691.04,-294.17 694.51,-304.18 699.99,-299.84"/>
</g>
<!-- Node26&#45;&gt;Node27 -->
<g id="edge40" class="edge">
<title>Node26&#45;&gt;Node27</title>
<path fill="none" stroke="#63b8ff" d="M746.72,-384.98C737.16,-377.07 722.72,-365.11 711.22,-355.58"/>
<polygon fill="#63b8ff" stroke="#63b8ff" points="713.4,-352.85 703.47,-349.17 708.94,-358.24 713.4,-352.85"/>
</g>
<!-- Node30&#45;&gt;Node15 -->
<g id="edge55" class="edge">
<title>Node30&#45;&gt;Node15</title>
<path fill="none" stroke="#63b8ff" d="M157.96,-512.16C125.97,-508.13 83.14,-497.53 57,-470 33.47,-445.22 38,-429.67 38,-395.5 38,-395.5 38,-395.5 38,-283.5 38,-247.51 63.06,-211.76 79.95,-191.76"/>
<polygon fill="#63b8ff" stroke="#63b8ff" points="82.62,-194.02 86.59,-184.2 77.36,-189.4 82.62,-194.02"/>
</g>
<!-- Node31 -->
<g id="node31" class="node">
<title>Node31</title>
<g id="a_node31"><a xlink:href="../../df/de6/cc_types_8h.html" target="_top" xlink:title=" ">
<polygon fill="white" stroke="#666666" points="206,-404 142,-404 142,-385 206,-385 206,-404"/>
<text text-anchor="middle" x="174" y="-392" font-family="Helvetica,sans-Serif" font-size="10.00">ccTypes.h</text>
</a>
</g>
</g>
<!-- Node30&#45;&gt;Node31 -->
<g id="edge46" class="edge">
<title>Node30&#45;&gt;Node31</title>
<path fill="none" stroke="#63b8ff" d="M202.98,-505.98C207.45,-491.88 214.58,-462.94 207,-440 203.54,-429.54 196.57,-419.53 189.92,-411.66"/>
<polygon fill="#63b8ff" stroke="#63b8ff" points="192.33,-409.1 183.02,-404.04 187.14,-413.8 192.33,-409.1"/>
</g>
<!-- Node30&#45;&gt;Node32 -->
<g id="edge50" class="edge">
<title>Node30&#45;&gt;Node32</title>
<path fill="none" stroke="#63b8ff" d="M189.97,-505.87C179.42,-496.8 162.61,-482.34 149.81,-471.32"/>
<polygon fill="#63b8ff" stroke="#63b8ff" points="151.94,-468.54 142.07,-464.67 147.37,-473.84 151.94,-468.54"/>
</g>
<!-- Node31&#45;&gt;Node12 -->
<g id="edge48" class="edge">
<title>Node31&#45;&gt;Node12</title>
<path fill="none" stroke="#63b8ff" d="M197.14,-384.98C220.82,-376.27 257.87,-362.63 284.71,-352.75"/>
<polygon fill="#63b8ff" stroke="#63b8ff" points="286.27,-355.91 294.44,-349.17 283.85,-349.34 286.27,-355.91"/>
</g>
<!-- Node31&#45;&gt;Node15 -->
<g id="edge47" class="edge">
<title>Node31&#45;&gt;Node15</title>
<path fill="none" stroke="#63b8ff" d="M170.9,-384.95C159.25,-352.81 117.91,-238.72 101.64,-193.83"/>
<polygon fill="#63b8ff" stroke="#63b8ff" points="104.86,-192.43 98.16,-184.22 98.28,-194.82 104.86,-192.43"/>
</g>
<!-- Node31&#45;&gt;Node19 -->
<g id="edge49" class="edge">
<title>Node31&#45;&gt;Node19</title>
<path fill="none" stroke="#63b8ff" d="M206.26,-389.71C220.56,-388.11 237.61,-386.32 253,-385 504.24,-363.44 807.47,-347.44 910.63,-342.28"/>
<polygon fill="#63b8ff" stroke="#63b8ff" points="911,-345.76 920.81,-341.77 910.65,-338.77 911,-345.76"/>
</g>
<!-- Node32&#45;&gt;Node12 -->
<g id="edge53" class="edge">
<title>Node32&#45;&gt;Node12</title>
<path fill="none" stroke="#63b8ff" d="M129.06,-445.25C124.86,-430.94 119.08,-402.4 133,-385 149.33,-364.59 216.16,-352.41 264.82,-346.08"/>
<polygon fill="#63b8ff" stroke="#63b8ff" points="265.41,-349.53 274.9,-344.82 264.54,-342.59 265.41,-349.53"/>
</g>
<!-- Node32&#45;&gt;Node13 -->
<g id="edge52" class="edge">
<title>Node32&#45;&gt;Node13</title>
<path fill="none" stroke="#63b8ff" d="M198.07,-448.95C271.43,-442.23 384.14,-428.28 419,-404 450.21,-382.26 431.07,-352.14 462,-330 489.69,-310.19 581.55,-296.81 638.06,-290.24"/>
<polygon fill="#63b8ff" stroke="#63b8ff" points="638.63,-293.69 648.18,-289.09 637.84,-286.74 638.63,-293.69"/>
</g>
<!-- Node32&#45;&gt;Node15 -->
<g id="edge51" class="edge">
<title>Node32&#45;&gt;Node15</title>
<path fill="none" stroke="#63b8ff" d="M124.21,-445.32C108.83,-427.22 76,-383.57 76,-340.5 76,-340.5 76,-340.5 76,-283.5 76,-251.56 84.16,-215.1 89.78,-193.77"/>
<polygon fill="#63b8ff" stroke="#63b8ff" points="93.17,-194.66 92.44,-184.09 86.42,-192.81 93.17,-194.66"/>
</g>
<!-- Node32&#45;&gt;Node31 -->
<g id="edge54" class="edge">
<title>Node32&#45;&gt;Node31</title>
<path fill="none" stroke="#63b8ff" d="M138.2,-445.37C144.4,-436.73 154.11,-423.2 161.86,-412.42"/>
<polygon fill="#63b8ff" stroke="#63b8ff" points="164.79,-414.33 167.78,-404.17 159.1,-410.25 164.79,-414.33"/>
</g>
</g>
</svg>
