<?xml version="1.0" encoding="UTF-8" standalone="no"?>
<!DOCTYPE svg PUBLIC "-//W3C//DTD SVG 1.1//EN"
 "http://www.w3.org/Graphics/SVG/1.1/DTD/svg11.dtd">
<!-- Generated by graphviz version 2.43.0 (0)
 -->
<!-- Title: /home/runner/work/cocos&#45;headers/cocos&#45;headers/cocos2dx/sprite_nodes/CCSpriteFrameCache.h Pages: 1 -->
<svg width="1640pt" height="744pt"
 viewBox="0.00 0.00 1640.00 744.00" xmlns="http://www.w3.org/2000/svg" xmlns:xlink="http://www.w3.org/1999/xlink">
<g id="graph0" class="graph" transform="scale(1 1) rotate(0) translate(4 740)">
<title>/home/runner/work/cocos&#45;headers/cocos&#45;headers/cocos2dx/sprite_nodes/CCSpriteFrameCache.h</title>
<!-- Node1 -->
<g id="node1" class="node">
<title>Node1</title>
<g id="a_node1"><a xlink:title=" ">
<polygon fill="#bfbfbf" stroke="black" points="303,-683.5 303,-735.5 443,-735.5 443,-683.5 303,-683.5"/>
<text text-anchor="start" x="311" y="-723.5" font-family="Helvetica,sans-Serif" font-size="10.00">/home/runner/work/cocos</text>
<text text-anchor="start" x="311" y="-712.5" font-family="Helvetica,sans-Serif" font-size="10.00">&#45;headers/cocos&#45;headers</text>
<text text-anchor="start" x="311" y="-701.5" font-family="Helvetica,sans-Serif" font-size="10.00">/cocos2dx/sprite_nodes</text>
<text text-anchor="middle" x="373" y="-690.5" font-family="Helvetica,sans-Serif" font-size="10.00">/CCSpriteFrameCache.h</text>
</a>
</g>
</g>
<!-- Node2 -->
<g id="node2" class="node">
<title>Node2</title>
<g id="a_node2"><a xlink:href="../../dd/d89/_c_c_sprite_frame_8h.html" target="_top" xlink:title=" ">
<polygon fill="none" stroke="black" points="291,-627.5 291,-646.5 455,-646.5 455,-627.5 291,-627.5"/>
<text text-anchor="middle" x="373" y="-634.5" font-family="Helvetica,sans-Serif" font-size="10.00">sprite_nodes/CCSpriteFrame.h</text>
</a>
</g>
</g>
<!-- Node1&#45;&gt;Node2 -->
<g id="edge1" class="edge">
<title>Node1&#45;&gt;Node2</title>
<path fill="none" stroke="midnightblue" d="M373,-683.45C373,-674.73 373,-665.1 373,-656.96"/>
<polygon fill="midnightblue" stroke="midnightblue" points="376.5,-656.7 373,-646.7 369.5,-656.7 376.5,-656.7"/>
</g>
<!-- Node13 -->
<g id="node13" class="node">
<title>Node13</title>
<g id="a_node13"><a xlink:href="../../dd/d69/_c_c_object_8h.html" target="_top" xlink:title=" ">
<polygon fill="none" stroke="black" points="648.5,-280.5 648.5,-299.5 719.5,-299.5 719.5,-280.5 648.5,-280.5"/>
<text text-anchor="middle" x="684" y="-287.5" font-family="Helvetica,sans-Serif" font-size="10.00">CCObject.h</text>
</a>
</g>
</g>
<!-- Node1&#45;&gt;Node13 -->
<g id="edge60" class="edge">
<title>Node1&#45;&gt;Node13</title>
<path fill="none" stroke="midnightblue" d="M443.09,-707.69C682.64,-703.99 1454,-684.15 1454,-582 1454,-582 1454,-582 1454,-462.5 1454,-266.27 1225.48,-362.09 1031,-336 923.13,-321.53 796.28,-305.27 729.86,-296.82"/>
<polygon fill="midnightblue" stroke="midnightblue" points="730.09,-293.32 719.73,-295.53 729.21,-300.26 730.09,-293.32"/>
</g>
<!-- Node15 -->
<g id="node15" class="node">
<title>Node15</title>
<g id="a_node15"><a xlink:title=" ">
<polygon fill="none" stroke="#bfbfbf" points="73,-168.5 73,-187.5 117,-187.5 117,-168.5 73,-168.5"/>
<text text-anchor="middle" x="95" y="-175.5" font-family="Helvetica,sans-Serif" font-size="10.00">string</text>
</a>
</g>
</g>
<!-- Node1&#45;&gt;Node15 -->
<g id="edge62" class="edge">
<title>Node1&#45;&gt;Node15</title>
<path fill="none" stroke="midnightblue" d="M302.84,-699.3C194.79,-683.15 0,-645.25 0,-582 0,-582 0,-582 0,-289 0,-245.74 42.61,-211.09 70.75,-192.91"/>
<polygon fill="midnightblue" stroke="midnightblue" points="72.66,-195.85 79.31,-187.6 68.97,-189.9 72.66,-195.85"/>
</g>
<!-- Node27 -->
<g id="node27" class="node">
<title>Node27</title>
<g id="a_node27"><a xlink:title=" ">
<polygon fill="none" stroke="#bfbfbf" points="677,-336.5 677,-355.5 709,-355.5 709,-336.5 677,-336.5"/>
<text text-anchor="middle" x="693" y="-343.5" font-family="Helvetica,sans-Serif" font-size="10.00">set</text>
</a>
</g>
</g>
<!-- Node1&#45;&gt;Node27 -->
<g id="edge61" class="edge">
<title>Node1&#45;&gt;Node27</title>
<path fill="none" stroke="midnightblue" d="M443.24,-694.78C535.53,-674.72 686,-634.02 686,-582 686,-582 686,-582 686,-462.5 686,-428.3 689.1,-388.51 691.17,-365.69"/>
<polygon fill="midnightblue" stroke="midnightblue" points="694.66,-365.97 692.11,-355.68 687.69,-365.31 694.66,-365.97"/>
</g>
<!-- Node32 -->
<g id="node32" class="node">
<title>Node32</title>
<g id="a_node32"><a xlink:href="../../d5/d70/_c_c_texture2_d_8h.html" target="_top" xlink:title=" ">
<polygon fill="none" stroke="black" points="66,-454 66,-473 198,-473 198,-454 66,-454"/>
<text text-anchor="middle" x="132" y="-461" font-family="Helvetica,sans-Serif" font-size="10.00">textures/CCTexture2D.h</text>
</a>
</g>
</g>
<!-- Node1&#45;&gt;Node32 -->
<g id="edge59" class="edge">
<title>Node1&#45;&gt;Node32</title>
<path fill="none" stroke="midnightblue" d="M322.49,-683.44C270.45,-654.89 191.17,-603.2 149,-535 139.29,-519.3 135.13,-498.46 133.34,-483.51"/>
<polygon fill="midnightblue" stroke="midnightblue" points="136.81,-483.04 132.39,-473.42 129.84,-483.7 136.81,-483.04"/>
</g>
<!-- Node3 -->
<g id="node3" class="node">
<title>Node3</title>
<g id="a_node3"><a xlink:href="../../db/d7f/_c_c_node_8h.html" target="_top" xlink:title=" ">
<polygon fill="none" stroke="black" points="935.5,-571.5 935.5,-590.5 1060.5,-590.5 1060.5,-571.5 935.5,-571.5"/>
<text text-anchor="middle" x="998" y="-578.5" font-family="Helvetica,sans-Serif" font-size="10.00">base_nodes/CCNode.h</text>
</a>
</g>
</g>
<!-- Node2&#45;&gt;Node3 -->
<g id="edge2" class="edge">
<title>Node2&#45;&gt;Node3</title>
<path fill="none" stroke="midnightblue" d="M455.03,-628.91C577.83,-618.3 807.56,-598.45 924.92,-588.31"/>
<polygon fill="midnightblue" stroke="midnightblue" points="925.57,-591.77 935.23,-587.42 924.97,-584.8 925.57,-591.77"/>
</g>
<!-- Node12 -->
<g id="node12" class="node">
<title>Node12</title>
<g id="a_node12"><a xlink:href="../../d6/d09/_c_c_geometry_8h.html" target="_top" xlink:title=" ">
<polygon fill="none" stroke="black" points="275,-336.5 275,-355.5 361,-355.5 361,-336.5 275,-336.5"/>
<text text-anchor="middle" x="318" y="-343.5" font-family="Helvetica,sans-Serif" font-size="10.00">CCGeometry.h</text>
</a>
</g>
</g>
<!-- Node2&#45;&gt;Node12 -->
<g id="edge58" class="edge">
<title>Node2&#45;&gt;Node12</title>
<path fill="none" stroke="midnightblue" d="M366.23,-627.28C344.4,-598.58 275.98,-503.57 253,-412 250.84,-403.38 248.87,-399.87 253,-392 260.28,-378.11 274.01,-367.65 286.98,-360.33"/>
<polygon fill="midnightblue" stroke="midnightblue" points="288.93,-363.27 296.19,-355.55 285.7,-357.05 288.93,-363.27"/>
</g>
<!-- Node2&#45;&gt;Node13 -->
<g id="edge57" class="edge">
<title>Node2&#45;&gt;Node13</title>
<path fill="none" stroke="midnightblue" d="M390.94,-627.25C420.45,-611.45 476,-575.19 476,-526 476,-526 476,-526 476,-401 476,-328.21 576.78,-303.46 638.04,-295.13"/>
<polygon fill="midnightblue" stroke="midnightblue" points="638.76,-298.57 648.24,-293.85 637.88,-291.63 638.76,-298.57"/>
</g>
<!-- Node30 -->
<g id="node30" class="node">
<title>Node30</title>
<g id="a_node30"><a xlink:href="../../d8/d76/_c_c_protocols_8h.html" target="_top" xlink:title=" ">
<polygon fill="none" stroke="black" points="158,-515.5 158,-534.5 242,-534.5 242,-515.5 158,-515.5"/>
<text text-anchor="middle" x="200" y="-522.5" font-family="Helvetica,sans-Serif" font-size="10.00">CCProtocols.h</text>
</a>
</g>
</g>
<!-- Node2&#45;&gt;Node30 -->
<g id="edge56" class="edge">
<title>Node2&#45;&gt;Node30</title>
<path fill="none" stroke="midnightblue" d="M338.05,-627.46C313.57,-620.35 280.91,-608.54 256,-591 237.62,-578.06 221.44,-557.78 211.27,-543.32"/>
<polygon fill="midnightblue" stroke="midnightblue" points="213.99,-541.1 205.48,-534.79 208.2,-545.03 213.99,-541.1"/>
</g>
<!-- Node4 -->
<g id="node4" class="node">
<title>Node4</title>
<g id="a_node4"><a xlink:href="../../d9/dc8/cc_macros_8h.html" target="_top" xlink:title=" ">
<polygon fill="none" stroke="black" points="1506.5,-224.5 1506.5,-243.5 1577.5,-243.5 1577.5,-224.5 1506.5,-224.5"/>
<text text-anchor="middle" x="1542" y="-231.5" font-family="Helvetica,sans-Serif" font-size="10.00">ccMacros.h</text>
</a>
</g>
</g>
<!-- Node3&#45;&gt;Node4 -->
<g id="edge3" class="edge">
<title>Node3&#45;&gt;Node4</title>
<path fill="none" stroke="midnightblue" d="M1060.59,-579.46C1201.22,-576.56 1530,-559.6 1530,-464.5 1530,-464.5 1530,-464.5 1530,-345 1530,-312.76 1535.16,-275.51 1538.71,-253.68"/>
<polygon fill="midnightblue" stroke="midnightblue" points="1542.21,-253.97 1540.43,-243.52 1535.31,-252.8 1542.21,-253.97"/>
</g>
<!-- Node11 -->
<g id="node11" class="node">
<title>Node11</title>
<g id="a_node11"><a xlink:href="../../d3/d15/_c_c_affine_transform_8h.html" target="_top" xlink:title=" ">
<polygon fill="none" stroke="black" points="262,-392.5 262,-411.5 410,-411.5 410,-392.5 262,-392.5"/>
<text text-anchor="middle" x="336" y="-399.5" font-family="Helvetica,sans-Serif" font-size="10.00">cocoa/CCAffineTransform.h</text>
</a>
</g>
</g>
<!-- Node3&#45;&gt;Node11 -->
<g id="edge12" class="edge">
<title>Node3&#45;&gt;Node11</title>
<path fill="none" stroke="midnightblue" d="M966.07,-571.46C857.17,-542.35 500.32,-446.93 377.77,-414.17"/>
<polygon fill="midnightblue" stroke="midnightblue" points="378.56,-410.76 368,-411.55 376.75,-417.52 378.56,-410.76"/>
</g>
<!-- Node17 -->
<g id="node17" class="node">
<title>Node17</title>
<g id="a_node17"><a xlink:href="../../da/d35/_c_c_array_8h.html" target="_top" xlink:title=" ">
<polygon fill="none" stroke="black" points="1159.5,-515.5 1159.5,-534.5 1254.5,-534.5 1254.5,-515.5 1159.5,-515.5"/>
<text text-anchor="middle" x="1207" y="-522.5" font-family="Helvetica,sans-Serif" font-size="10.00">cocoa/CCArray.h</text>
</a>
</g>
</g>
<!-- Node3&#45;&gt;Node17 -->
<g id="edge22" class="edge">
<title>Node3&#45;&gt;Node17</title>
<path fill="none" stroke="midnightblue" d="M1031.12,-571.44C1067.12,-562.14 1124.77,-547.25 1164.19,-537.06"/>
<polygon fill="midnightblue" stroke="midnightblue" points="1165.23,-540.41 1174.04,-534.52 1163.48,-533.63 1165.23,-540.41"/>
</g>
<!-- Node19 -->
<g id="node19" class="node">
<title>Node19</title>
<g id="a_node19"><a xlink:title=" ">
<polygon fill="none" stroke="#bfbfbf" points="921,-336.5 921,-355.5 973,-355.5 973,-336.5 921,-336.5"/>
<text text-anchor="middle" x="947" y="-343.5" font-family="Helvetica,sans-Serif" font-size="10.00">CCGL.h</text>
</a>
</g>
</g>
<!-- Node3&#45;&gt;Node19 -->
<g id="edge24" class="edge">
<title>Node3&#45;&gt;Node19</title>
<path fill="none" stroke="midnightblue" d="M981.76,-571.5C955.58,-556.75 904.99,-523.67 885,-479 869.21,-443.71 867.44,-426.45 885,-392 892,-378.27 905.37,-367.75 917.9,-360.35"/>
<polygon fill="midnightblue" stroke="midnightblue" points="919.67,-363.37 926.78,-355.51 916.32,-357.22 919.67,-363.37"/>
</g>
<!-- Node20 -->
<g id="node20" class="node">
<title>Node20</title>
<g id="a_node20"><a xlink:href="../../da/d2f/cc_g_l_state_cache_8h.html" target="_top" xlink:title=" ">
<polygon fill="none" stroke="black" points="1280,-392.5 1280,-411.5 1426,-411.5 1426,-392.5 1280,-392.5"/>
<text text-anchor="middle" x="1353" y="-399.5" font-family="Helvetica,sans-Serif" font-size="10.00">shaders/ccGLStateCache.h</text>
</a>
</g>
</g>
<!-- Node3&#45;&gt;Node20 -->
<g id="edge25" class="edge">
<title>Node3&#45;&gt;Node20</title>
<path fill="none" stroke="midnightblue" d="M1060.79,-575.09C1128.56,-568.81 1231.23,-556.13 1264,-535 1307.24,-507.13 1334.65,-450 1346.39,-420.9"/>
<polygon fill="midnightblue" stroke="midnightblue" points="1349.67,-422.14 1350.01,-411.55 1343.14,-419.61 1349.67,-422.14"/>
</g>
<!-- Node21 -->
<g id="node21" class="node">
<title>Node21</title>
<g id="a_node21"><a xlink:href="../../de/d32/_c_c_g_l_program_8h.html" target="_top" xlink:title=" ">
<polygon fill="none" stroke="black" points="1128,-392.5 1128,-411.5 1262,-411.5 1262,-392.5 1128,-392.5"/>
<text text-anchor="middle" x="1195" y="-399.5" font-family="Helvetica,sans-Serif" font-size="10.00">shaders/CCGLProgram.h</text>
</a>
</g>
</g>
<!-- Node3&#45;&gt;Node21 -->
<g id="edge28" class="edge">
<title>Node3&#45;&gt;Node21</title>
<path fill="none" stroke="midnightblue" d="M1037.05,-571.48C1059.61,-564.83 1087.17,-553.51 1106,-535 1136.09,-505.42 1119.15,-482.1 1144,-448 1152.37,-436.52 1164.13,-425.89 1174.26,-417.85"/>
<polygon fill="midnightblue" stroke="midnightblue" points="1176.44,-420.59 1182.26,-411.74 1172.19,-415.02 1176.44,-420.59"/>
</g>
<!-- Node22 -->
<g id="node22" class="node">
<title>Node22</title>
<g id="a_node22"><a xlink:title=" ">
<polygon fill="none" stroke="#bfbfbf" points="983.5,-515.5 983.5,-534.5 1096.5,-534.5 1096.5,-515.5 983.5,-515.5"/>
<text text-anchor="middle" x="1040" y="-522.5" font-family="Helvetica,sans-Serif" font-size="10.00">kazmath/kazmath.h</text>
</a>
</g>
</g>
<!-- Node3&#45;&gt;Node22 -->
<g id="edge32" class="edge">
<title>Node3&#45;&gt;Node22</title>
<path fill="none" stroke="midnightblue" d="M1004.94,-571.08C1010.93,-563.38 1019.75,-552.03 1027.05,-542.65"/>
<polygon fill="midnightblue" stroke="midnightblue" points="1029.82,-544.79 1033.19,-534.75 1024.29,-540.5 1029.82,-544.79"/>
</g>
<!-- Node23 -->
<g id="node23" class="node">
<title>Node23</title>
<g id="a_node23"><a xlink:href="../../dc/dbc/_c_c_script_support_8h.html" target="_top" xlink:title=" ">
<polygon fill="none" stroke="black" points="894,-454 894,-473 1070,-473 1070,-454 894,-454"/>
<text text-anchor="middle" x="982" y="-461" font-family="Helvetica,sans-Serif" font-size="10.00">script_support/CCScriptSupport.h</text>
</a>
</g>
</g>
<!-- Node3&#45;&gt;Node23 -->
<g id="edge33" class="edge">
<title>Node3&#45;&gt;Node23</title>
<path fill="none" stroke="midnightblue" d="M991.9,-571.19C986.25,-562.46 978.24,-548.48 975,-535 970.87,-517.83 973.57,-497.74 976.75,-483.4"/>
<polygon fill="midnightblue" stroke="midnightblue" points="980.24,-483.86 979.27,-473.31 973.45,-482.16 980.24,-483.86"/>
</g>
<!-- Node3&#45;&gt;Node30 -->
<g id="edge45" class="edge">
<title>Node3&#45;&gt;Node30</title>
<path fill="none" stroke="midnightblue" d="M935.38,-575.76C782.68,-565.43 393.35,-539.08 252.15,-529.53"/>
<polygon fill="midnightblue" stroke="midnightblue" points="252.24,-526.03 242.03,-528.84 251.77,-533.01 252.24,-526.03"/>
</g>
<!-- Node5 -->
<g id="node5" class="node">
<title>Node5</title>
<g id="a_node5"><a xlink:href="../../d5/d22/_c_c_common_8h.html" target="_top" xlink:title=" ">
<polygon fill="none" stroke="black" points="1386,-168.5 1386,-187.5 1514,-187.5 1514,-168.5 1386,-168.5"/>
<text text-anchor="middle" x="1450" y="-175.5" font-family="Helvetica,sans-Serif" font-size="10.00">platform/CCCommon.h</text>
</a>
</g>
</g>
<!-- Node4&#45;&gt;Node5 -->
<g id="edge4" class="edge">
<title>Node4&#45;&gt;Node5</title>
<path fill="none" stroke="midnightblue" d="M1527.22,-224.32C1512.73,-215.82 1490.43,-202.73 1473.51,-192.8"/>
<polygon fill="midnightblue" stroke="midnightblue" points="1475.14,-189.7 1464.74,-187.65 1471.6,-195.74 1475.14,-189.7"/>
</g>
<!-- Node7 -->
<g id="node7" class="node">
<title>Node7</title>
<g id="a_node7"><a xlink:href="../../db/d9f/cc_config_8h.html" target="_top" xlink:title="cocos2d (cc) configuration file">
<polygon fill="none" stroke="black" points="1360.5,-56.5 1360.5,-75.5 1427.5,-75.5 1427.5,-56.5 1360.5,-56.5"/>
<text text-anchor="middle" x="1394" y="-63.5" font-family="Helvetica,sans-Serif" font-size="10.00">ccConfig.h</text>
</a>
</g>
</g>
<!-- Node4&#45;&gt;Node7 -->
<g id="edge11" class="edge">
<title>Node4&#45;&gt;Node7</title>
<path fill="none" stroke="midnightblue" d="M1541.16,-224.29C1539.54,-211.09 1535,-185.71 1523,-168 1496.22,-128.48 1449.11,-97.37 1419.83,-80.62"/>
<polygon fill="midnightblue" stroke="midnightblue" points="1421.44,-77.51 1411,-75.7 1418.03,-83.63 1421.44,-77.51"/>
</g>
<!-- Node10 -->
<g id="node10" class="node">
<title>Node10</title>
<g id="a_node10"><a xlink:title=" ">
<polygon fill="none" stroke="#bfbfbf" points="1570,-168.5 1570,-187.5 1632,-187.5 1632,-168.5 1570,-168.5"/>
<text text-anchor="middle" x="1601" y="-175.5" font-family="Helvetica,sans-Serif" font-size="10.00">CCStdC.h</text>
</a>
</g>
</g>
<!-- Node4&#45;&gt;Node10 -->
<g id="edge10" class="edge">
<title>Node4&#45;&gt;Node10</title>
<path fill="none" stroke="midnightblue" d="M1551.48,-224.32C1560.2,-216.34 1573.34,-204.31 1583.9,-194.65"/>
<polygon fill="midnightblue" stroke="midnightblue" points="1586.33,-197.17 1591.35,-187.83 1581.61,-192 1586.33,-197.17"/>
</g>
<!-- Node6 -->
<g id="node6" class="node">
<title>Node6</title>
<g id="a_node6"><a xlink:href="../../d3/d41/_c_c_platform_macros_8h.html" target="_top" xlink:title=" ">
<polygon fill="none" stroke="black" points="1185,-112.5 1185,-131.5 1301,-131.5 1301,-112.5 1185,-112.5"/>
<text text-anchor="middle" x="1243" y="-119.5" font-family="Helvetica,sans-Serif" font-size="10.00">CCPlatformMacros.h</text>
</a>
</g>
</g>
<!-- Node5&#45;&gt;Node6 -->
<g id="edge5" class="edge">
<title>Node5&#45;&gt;Node6</title>
<path fill="none" stroke="midnightblue" d="M1417.2,-168.44C1381.62,-159.16 1324.69,-144.31 1285.65,-134.13"/>
<polygon fill="midnightblue" stroke="midnightblue" points="1286.21,-130.65 1275.65,-131.52 1284.44,-137.43 1286.21,-130.65"/>
</g>
<!-- Node6&#45;&gt;Node7 -->
<g id="edge6" class="edge">
<title>Node6&#45;&gt;Node7</title>
<path fill="none" stroke="midnightblue" d="M1266.93,-112.44C1292.22,-103.4 1332.3,-89.06 1360.68,-78.92"/>
<polygon fill="midnightblue" stroke="midnightblue" points="1361.95,-82.18 1370.19,-75.52 1359.59,-75.59 1361.95,-82.18"/>
</g>
<!-- Node8 -->
<g id="node8" class="node">
<title>Node8</title>
<g id="a_node8"><a xlink:href="../../dd/d96/_c_c_platform_config_8h.html" target="_top" xlink:title=" ">
<polygon fill="none" stroke="black" points="1218.5,-0.5 1218.5,-19.5 1375.5,-19.5 1375.5,-0.5 1218.5,-0.5"/>
<text text-anchor="middle" x="1297" y="-7.5" font-family="Helvetica,sans-Serif" font-size="10.00">platform/CCPlatformConfig.h</text>
</a>
</g>
</g>
<!-- Node6&#45;&gt;Node8 -->
<g id="edge8" class="edge">
<title>Node6&#45;&gt;Node8</title>
<path fill="none" stroke="midnightblue" d="M1235.53,-112.14C1225.57,-99.2 1210.38,-74.63 1221,-56 1229.41,-41.25 1244.77,-30.84 1259.48,-23.77"/>
<polygon fill="midnightblue" stroke="midnightblue" points="1261.24,-26.83 1268.98,-19.6 1258.42,-20.42 1261.24,-26.83"/>
</g>
<!-- Node9 -->
<g id="node9" class="node">
<title>Node9</title>
<g id="a_node9"><a xlink:title=" ">
<polygon fill="none" stroke="#bfbfbf" points="1229.5,-56.5 1229.5,-75.5 1342.5,-75.5 1342.5,-56.5 1229.5,-56.5"/>
<text text-anchor="middle" x="1286" y="-63.5" font-family="Helvetica,sans-Serif" font-size="10.00">CCPlatformDefine.h</text>
</a>
</g>
</g>
<!-- Node6&#45;&gt;Node9 -->
<g id="edge9" class="edge">
<title>Node6&#45;&gt;Node9</title>
<path fill="none" stroke="midnightblue" d="M1250.1,-112.08C1256.24,-104.38 1265.27,-93.03 1272.74,-83.65"/>
<polygon fill="midnightblue" stroke="midnightblue" points="1275.54,-85.75 1279.03,-75.75 1270.06,-81.39 1275.54,-85.75"/>
</g>
<!-- Node7&#45;&gt;Node8 -->
<g id="edge7" class="edge">
<title>Node7&#45;&gt;Node8</title>
<path fill="none" stroke="midnightblue" d="M1378.42,-56.32C1363,-47.74 1339.19,-34.49 1321.29,-24.52"/>
<polygon fill="midnightblue" stroke="midnightblue" points="1322.99,-21.46 1312.55,-19.65 1319.58,-27.58 1322.99,-21.46"/>
</g>
<!-- Node11&#45;&gt;Node6 -->
<g id="edge21" class="edge">
<title>Node11&#45;&gt;Node6</title>
<path fill="none" stroke="midnightblue" d="M345.44,-392.31C363.25,-374.93 400,-333.86 400,-291 400,-291 400,-291 400,-233 400,-155.07 973.78,-130.86 1174.59,-124.77"/>
<polygon fill="midnightblue" stroke="midnightblue" points="1174.83,-128.26 1184.72,-124.47 1174.62,-121.26 1174.83,-128.26"/>
</g>
<!-- Node11&#45;&gt;Node12 -->
<g id="edge13" class="edge">
<title>Node11&#45;&gt;Node12</title>
<path fill="none" stroke="midnightblue" d="M333.03,-392.08C330.62,-384.85 327.14,-374.41 324.13,-365.4"/>
<polygon fill="midnightblue" stroke="midnightblue" points="327.4,-364.13 320.92,-355.75 320.76,-366.34 327.4,-364.13"/>
</g>
<!-- Node12&#45;&gt;Node6 -->
<g id="edge14" class="edge">
<title>Node12&#45;&gt;Node6</title>
<path fill="none" stroke="midnightblue" d="M323.23,-336.25C328.43,-327.34 336.41,-313.02 342,-300 366.41,-243.18 336.8,-205.46 386,-168 417.21,-144.24 977.09,-129.12 1174.66,-124.5"/>
<polygon fill="midnightblue" stroke="midnightblue" points="1175,-127.99 1184.92,-124.26 1174.84,-121 1175,-127.99"/>
</g>
<!-- Node12&#45;&gt;Node13 -->
<g id="edge15" class="edge">
<title>Node12&#45;&gt;Node13</title>
<path fill="none" stroke="midnightblue" d="M361.06,-338.65C430.67,-328.38 567.29,-308.22 638.46,-297.72"/>
<polygon fill="midnightblue" stroke="midnightblue" points="639.09,-301.16 648.47,-296.24 638.06,-294.24 639.09,-301.16"/>
</g>
<!-- Node16 -->
<g id="node16" class="node">
<title>Node16</title>
<g id="a_node16"><a xlink:title=" ">
<polygon fill="none" stroke="#bfbfbf" points="282.5,-280.5 282.5,-299.5 333.5,-299.5 333.5,-280.5 282.5,-280.5"/>
<text text-anchor="middle" x="308" y="-287.5" font-family="Helvetica,sans-Serif" font-size="10.00">math.h</text>
</a>
</g>
</g>
<!-- Node12&#45;&gt;Node16 -->
<g id="edge20" class="edge">
<title>Node12&#45;&gt;Node16</title>
<path fill="none" stroke="midnightblue" d="M316.35,-336.08C315.02,-328.93 313.12,-318.64 311.46,-309.69"/>
<polygon fill="midnightblue" stroke="midnightblue" points="314.88,-308.95 309.62,-299.75 308,-310.22 314.88,-308.95"/>
</g>
<!-- Node13&#45;&gt;Node4 -->
<g id="edge19" class="edge">
<title>Node13&#45;&gt;Node4</title>
<path fill="none" stroke="midnightblue" d="M719.5,-286.77C855.39,-278.21 1342.49,-247.56 1495.6,-237.92"/>
<polygon fill="midnightblue" stroke="midnightblue" points="1496.27,-241.38 1506.03,-237.26 1495.83,-234.4 1496.27,-241.38"/>
</g>
<!-- Node14 -->
<g id="node14" class="node">
<title>Node14</title>
<g id="a_node14"><a xlink:href="../../d9/d2d/_c_c_data_visitor_8h.html" target="_top" xlink:title=" ">
<polygon fill="none" stroke="black" points="637.5,-224.5 637.5,-243.5 730.5,-243.5 730.5,-224.5 637.5,-224.5"/>
<text text-anchor="middle" x="684" y="-231.5" font-family="Helvetica,sans-Serif" font-size="10.00">CCDataVisitor.h</text>
</a>
</g>
</g>
<!-- Node13&#45;&gt;Node14 -->
<g id="edge16" class="edge">
<title>Node13&#45;&gt;Node14</title>
<path fill="none" stroke="midnightblue" d="M684,-280.08C684,-273.01 684,-262.86 684,-253.99"/>
<polygon fill="midnightblue" stroke="midnightblue" points="687.5,-253.75 684,-243.75 680.5,-253.75 687.5,-253.75"/>
</g>
<!-- Node14&#45;&gt;Node6 -->
<g id="edge17" class="edge">
<title>Node14&#45;&gt;Node6</title>
<path fill="none" stroke="midnightblue" d="M727.4,-224.46C828.52,-204.56 1079.56,-155.16 1189.73,-133.48"/>
<polygon fill="midnightblue" stroke="midnightblue" points="1190.49,-136.9 1199.63,-131.53 1189.14,-130.03 1190.49,-136.9"/>
</g>
<!-- Node14&#45;&gt;Node15 -->
<g id="edge18" class="edge">
<title>Node14&#45;&gt;Node15</title>
<path fill="none" stroke="midnightblue" d="M637.29,-228.72C521.9,-218.14 225.59,-190.97 127.26,-181.96"/>
<polygon fill="midnightblue" stroke="midnightblue" points="127.33,-178.45 117.05,-181.02 126.69,-185.42 127.33,-178.45"/>
</g>
<!-- Node18 -->
<g id="node18" class="node">
<title>Node18</title>
<g id="a_node18"><a xlink:title=" ">
<polygon fill="none" stroke="#bfbfbf" points="1153,-448.5 1153,-478.5 1273,-478.5 1273,-448.5 1153,-448.5"/>
<text text-anchor="start" x="1161" y="-466.5" font-family="Helvetica,sans-Serif" font-size="10.00">support/data_support</text>
<text text-anchor="middle" x="1213" y="-455.5" font-family="Helvetica,sans-Serif" font-size="10.00">/ccCArray.h</text>
</a>
</g>
</g>
<!-- Node17&#45;&gt;Node18 -->
<g id="edge23" class="edge">
<title>Node17&#45;&gt;Node18</title>
<path fill="none" stroke="midnightblue" d="M1207.86,-515.48C1208.57,-508.47 1209.6,-498.19 1210.56,-488.7"/>
<polygon fill="midnightblue" stroke="midnightblue" points="1214.06,-488.82 1211.59,-478.52 1207.1,-488.12 1214.06,-488.82"/>
</g>
<!-- Node20&#45;&gt;Node6 -->
<g id="edge27" class="edge">
<title>Node20&#45;&gt;Node6</title>
<path fill="none" stroke="midnightblue" d="M1353.65,-392.45C1355.01,-373.95 1358,-328.85 1358,-291 1358,-291 1358,-291 1358,-233 1358,-185.9 1307.01,-152.75 1272.93,-135.86"/>
<polygon fill="midnightblue" stroke="midnightblue" points="1274.36,-132.66 1263.83,-131.53 1271.35,-138.98 1274.36,-132.66"/>
</g>
<!-- Node20&#45;&gt;Node19 -->
<g id="edge26" class="edge">
<title>Node20&#45;&gt;Node19</title>
<path fill="none" stroke="midnightblue" d="M1288.67,-392.44C1202.32,-380.96 1051.86,-360.95 983.12,-351.8"/>
<polygon fill="midnightblue" stroke="midnightblue" points="983.57,-348.33 973.2,-350.48 982.65,-355.27 983.57,-348.33"/>
</g>
<!-- Node21&#45;&gt;Node4 -->
<g id="edge29" class="edge">
<title>Node21&#45;&gt;Node4</title>
<path fill="none" stroke="midnightblue" d="M1213.17,-392.31C1270.32,-364.97 1446.68,-280.6 1514.78,-248.02"/>
<polygon fill="midnightblue" stroke="midnightblue" points="1516.5,-251.08 1524.01,-243.61 1513.48,-244.76 1516.5,-251.08"/>
</g>
<!-- Node21&#45;&gt;Node13 -->
<g id="edge30" class="edge">
<title>Node21&#45;&gt;Node13</title>
<path fill="none" stroke="midnightblue" d="M1171.03,-392.42C1131.93,-378.72 1051.75,-351.82 982,-336 893.67,-315.97 788.54,-302.45 729.72,-295.8"/>
<polygon fill="midnightblue" stroke="midnightblue" points="729.96,-292.3 719.64,-294.67 729.19,-299.26 729.96,-292.3"/>
</g>
<!-- Node21&#45;&gt;Node19 -->
<g id="edge31" class="edge">
<title>Node21&#45;&gt;Node19</title>
<path fill="none" stroke="midnightblue" d="M1155.7,-392.44C1108.21,-382.1 1028.97,-364.85 983.01,-354.84"/>
<polygon fill="midnightblue" stroke="midnightblue" points="983.7,-351.41 973.18,-352.7 982.21,-358.25 983.7,-351.41"/>
</g>
<!-- Node23&#45;&gt;Node5 -->
<g id="edge34" class="edge">
<title>Node23&#45;&gt;Node5</title>
<path fill="none" stroke="midnightblue" d="M1070.24,-454.09C1200.27,-441.51 1428.76,-418.54 1435,-412 1491.76,-352.53 1468,-241.05 1455.68,-197.29"/>
<polygon fill="midnightblue" stroke="midnightblue" points="1459.03,-196.3 1452.85,-187.7 1452.32,-198.28 1459.03,-196.3"/>
</g>
<!-- Node23&#45;&gt;Node15 -->
<g id="edge43" class="edge">
<title>Node23&#45;&gt;Node15</title>
<path fill="none" stroke="midnightblue" d="M949.34,-453.91C904.14,-439.82 828,-407.16 828,-347 828,-347 828,-347 828,-289 828,-240.02 785.01,-240.81 739,-224 624.78,-182.27 241.47,-178.95 127.33,-178.91"/>
<polygon fill="midnightblue" stroke="midnightblue" points="127.14,-175.41 117.15,-178.91 127.15,-182.41 127.14,-175.41"/>
</g>
<!-- Node24 -->
<g id="node24" class="node">
<title>Node24</title>
<g id="a_node24"><a xlink:title=" ">
<polygon fill="none" stroke="#bfbfbf" points="944,-392.5 944,-411.5 1054,-411.5 1054,-392.5 944,-392.5"/>
<text text-anchor="middle" x="999" y="-399.5" font-family="Helvetica,sans-Serif" font-size="10.00">CCAccelerometer.h</text>
</a>
</g>
</g>
<!-- Node23&#45;&gt;Node24 -->
<g id="edge35" class="edge">
<title>Node23&#45;&gt;Node24</title>
<path fill="none" stroke="midnightblue" d="M984.44,-453.98C986.86,-445.49 990.66,-432.2 993.77,-421.32"/>
<polygon fill="midnightblue" stroke="midnightblue" points="997.19,-422.09 996.57,-411.51 990.46,-420.16 997.19,-422.09"/>
</g>
<!-- Node25 -->
<g id="node25" class="node">
<title>Node25</title>
<g id="a_node25"><a xlink:href="../../d3/dff/_c_c_touch_8h.html" target="_top" xlink:title=" ">
<polygon fill="none" stroke="black" points="504.5,-392.5 504.5,-411.5 657.5,-411.5 657.5,-392.5 504.5,-392.5"/>
<text text-anchor="middle" x="581" y="-399.5" font-family="Helvetica,sans-Serif" font-size="10.00">touch_dispatcher/CCTouch.h</text>
</a>
</g>
</g>
<!-- Node23&#45;&gt;Node25 -->
<g id="edge36" class="edge">
<title>Node23&#45;&gt;Node25</title>
<path fill="none" stroke="midnightblue" d="M924.55,-453.98C851.59,-443.15 725.91,-424.5 648.48,-413.01"/>
<polygon fill="midnightblue" stroke="midnightblue" points="648.75,-409.51 638.35,-411.51 647.72,-416.44 648.75,-409.51"/>
</g>
<!-- Node26 -->
<g id="node26" class="node">
<title>Node26</title>
<g id="a_node26"><a xlink:href="../../da/ddc/_c_c_set_8h.html" target="_top" xlink:title=" ">
<polygon fill="none" stroke="black" points="714,-392.5 714,-411.5 800,-411.5 800,-392.5 714,-392.5"/>
<text text-anchor="middle" x="757" y="-399.5" font-family="Helvetica,sans-Serif" font-size="10.00">cocoa/CCSet.h</text>
</a>
</g>
</g>
<!-- Node23&#45;&gt;Node26 -->
<g id="edge39" class="edge">
<title>Node23&#45;&gt;Node26</title>
<path fill="none" stroke="midnightblue" d="M949.76,-453.98C910.08,-443.48 842.6,-425.64 798.93,-414.09"/>
<polygon fill="midnightblue" stroke="midnightblue" points="799.74,-410.68 789.18,-411.51 797.95,-417.45 799.74,-410.68"/>
</g>
<!-- Node28 -->
<g id="node28" class="node">
<title>Node28</title>
<g id="a_node28"><a xlink:title=" ">
<polygon fill="none" stroke="#bfbfbf" points="1072,-392.5 1072,-411.5 1110,-411.5 1110,-392.5 1072,-392.5"/>
<text text-anchor="middle" x="1091" y="-399.5" font-family="Helvetica,sans-Serif" font-size="10.00">map</text>
</a>
</g>
</g>
<!-- Node23&#45;&gt;Node28 -->
<g id="edge42" class="edge">
<title>Node23&#45;&gt;Node28</title>
<path fill="none" stroke="midnightblue" d="M997.62,-453.98C1015.59,-444.17 1045.32,-427.93 1066.41,-416.42"/>
<polygon fill="midnightblue" stroke="midnightblue" points="1068.31,-419.37 1075.41,-411.51 1064.96,-413.23 1068.31,-419.37"/>
</g>
<!-- Node29 -->
<g id="node29" class="node">
<title>Node29</title>
<g id="a_node29"><a xlink:title=" ">
<polygon fill="none" stroke="#bfbfbf" points="894,-392.5 894,-411.5 926,-411.5 926,-392.5 894,-392.5"/>
<text text-anchor="middle" x="910" y="-399.5" font-family="Helvetica,sans-Serif" font-size="10.00">list</text>
</a>
</g>
</g>
<!-- Node23&#45;&gt;Node29 -->
<g id="edge44" class="edge">
<title>Node23&#45;&gt;Node29</title>
<path fill="none" stroke="midnightblue" d="M971.68,-453.98C960.35,-444.61 941.93,-429.38 928.16,-418.01"/>
<polygon fill="midnightblue" stroke="midnightblue" points="930.23,-415.18 920.3,-411.51 925.78,-420.58 930.23,-415.18"/>
</g>
<!-- Node25&#45;&gt;Node12 -->
<g id="edge38" class="edge">
<title>Node25&#45;&gt;Node12</title>
<path fill="none" stroke="midnightblue" d="M539.33,-392.44C493.25,-382.98 419,-367.74 369.37,-357.55"/>
<polygon fill="midnightblue" stroke="midnightblue" points="369.98,-354.1 359.48,-355.52 368.57,-360.96 369.98,-354.1"/>
</g>
<!-- Node25&#45;&gt;Node13 -->
<g id="edge37" class="edge">
<title>Node25&#45;&gt;Node13</title>
<path fill="none" stroke="midnightblue" d="M589.08,-392.37C606.31,-373.97 646.85,-330.67 668.97,-307.05"/>
<polygon fill="midnightblue" stroke="midnightblue" points="671.68,-309.28 675.96,-299.59 666.57,-304.5 671.68,-309.28"/>
</g>
<!-- Node26&#45;&gt;Node13 -->
<g id="edge41" class="edge">
<title>Node26&#45;&gt;Node13</title>
<path fill="none" stroke="midnightblue" d="M752.23,-392.41C745.15,-379.79 731.25,-355.63 718,-336 711.56,-326.46 703.87,-316.2 697.44,-307.89"/>
<polygon fill="midnightblue" stroke="midnightblue" points="699.99,-305.47 691.06,-299.76 694.48,-309.79 699.99,-305.47"/>
</g>
<!-- Node26&#45;&gt;Node27 -->
<g id="edge40" class="edge">
<title>Node26&#45;&gt;Node27</title>
<path fill="none" stroke="midnightblue" d="M746.72,-392.32C737.16,-384.26 722.72,-372.08 711.22,-362.37"/>
<polygon fill="midnightblue" stroke="midnightblue" points="713.37,-359.61 703.47,-355.83 708.86,-364.96 713.37,-359.61"/>
</g>
<!-- Node30&#45;&gt;Node15 -->
<g id="edge55" class="edge">
<title>Node30&#45;&gt;Node15</title>
<path fill="none" stroke="midnightblue" d="M157.91,-521.54C125.9,-517.41 83.05,-506.66 57,-479 33.13,-453.65 38,-437.82 38,-403 38,-403 38,-403 38,-289 38,-252.3 63.32,-215.66 80.21,-195.3"/>
<polygon fill="midnightblue" stroke="midnightblue" points="82.95,-197.48 86.83,-187.62 77.65,-192.9 82.95,-197.48"/>
</g>
<!-- Node31 -->
<g id="node31" class="node">
<title>Node31</title>
<g id="a_node31"><a xlink:href="../../df/de6/cc_types_8h.html" target="_top" xlink:title=" ">
<polygon fill="none" stroke="black" points="142,-392.5 142,-411.5 206,-411.5 206,-392.5 142,-392.5"/>
<text text-anchor="middle" x="174" y="-399.5" font-family="Helvetica,sans-Serif" font-size="10.00">ccTypes.h</text>
</a>
</g>
</g>
<!-- Node30&#45;&gt;Node31 -->
<g id="edge46" class="edge">
<title>Node30&#45;&gt;Node31</title>
<path fill="none" stroke="midnightblue" d="M203,-515.31C207.5,-500.93 214.67,-471.42 207,-448 203.51,-437.34 196.43,-427.12 189.71,-419.12"/>
<polygon fill="midnightblue" stroke="midnightblue" points="192.3,-416.76 183.02,-411.66 187.1,-421.44 192.3,-416.76"/>
</g>
<!-- Node30&#45;&gt;Node32 -->
<g id="edge50" class="edge">
<title>Node30&#45;&gt;Node32</title>
<path fill="none" stroke="midnightblue" d="M190.26,-515.48C179.65,-506.2 162.48,-491.17 149.52,-479.83"/>
<polygon fill="midnightblue" stroke="midnightblue" points="151.56,-476.96 141.72,-473.01 146.95,-482.23 151.56,-476.96"/>
</g>
<!-- Node31&#45;&gt;Node12 -->
<g id="edge48" class="edge">
<title>Node31&#45;&gt;Node12</title>
<path fill="none" stroke="midnightblue" d="M196.82,-392.44C220.83,-383.44 258.83,-369.19 285.87,-359.05"/>
<polygon fill="midnightblue" stroke="midnightblue" points="287.16,-362.3 295.29,-355.52 284.7,-355.75 287.16,-362.3"/>
</g>
<!-- Node31&#45;&gt;Node15 -->
<g id="edge47" class="edge">
<title>Node31&#45;&gt;Node15</title>
<path fill="none" stroke="midnightblue" d="M170.9,-392.3C159.23,-359.49 117.73,-242.88 101.54,-197.38"/>
<polygon fill="midnightblue" stroke="midnightblue" points="104.81,-196.13 98.16,-187.88 98.22,-198.48 104.81,-196.13"/>
</g>
<!-- Node31&#45;&gt;Node19 -->
<g id="edge49" class="edge">
<title>Node31&#45;&gt;Node19</title>
<path fill="none" stroke="midnightblue" d="M206.25,-396.97C220.55,-395.27 237.6,-393.38 253,-392 504.17,-369.56 807.44,-353.78 910.62,-348.73"/>
<polygon fill="midnightblue" stroke="midnightblue" points="910.99,-352.22 920.81,-348.24 910.65,-345.23 910.99,-352.22"/>
</g>
<!-- Node32&#45;&gt;Node12 -->
<g id="edge53" class="edge">
<title>Node32&#45;&gt;Node12</title>
<path fill="none" stroke="midnightblue" d="M129,-453.56C124.71,-438.95 118.8,-409.8 133,-392 149.31,-371.55 216.14,-359.19 264.81,-352.73"/>
<polygon fill="midnightblue" stroke="midnightblue" points="265.42,-356.18 274.89,-351.44 264.53,-349.24 265.42,-356.18"/>
</g>
<!-- Node32&#45;&gt;Node13 -->
<g id="edge52" class="edge">
<title>Node32&#45;&gt;Node13</title>
<path fill="none" stroke="midnightblue" d="M198.12,-457.39C271.54,-450.61 384.29,-436.52 419,-412 450.7,-389.61 430.59,-358.8 462,-336 489.56,-315.99 581.46,-302.46 638.02,-295.8"/>
<polygon fill="midnightblue" stroke="midnightblue" points="638.61,-299.25 648.14,-294.63 637.81,-292.3 638.61,-299.25"/>
</g>
<!-- Node32&#45;&gt;Node15 -->
<g id="edge51" class="edge">
<title>Node32&#45;&gt;Node15</title>
<path fill="none" stroke="midnightblue" d="M124.45,-453.92C109.16,-435.63 76,-390.9 76,-347 76,-347 76,-347 76,-289 76,-256.49 84.16,-219.35 89.78,-197.61"/>
<polygon fill="midnightblue" stroke="midnightblue" points="93.22,-198.32 92.44,-187.75 86.46,-196.5 93.22,-198.32"/>
</g>
<!-- Node32&#45;&gt;Node31 -->
<g id="edge54" class="edge">
<title>Node32&#45;&gt;Node31</title>
<path fill="none" stroke="midnightblue" d="M138.02,-453.98C144.26,-445.14 154.17,-431.09 162.02,-419.98"/>
<polygon fill="midnightblue" stroke="midnightblue" points="165.09,-421.7 167.99,-411.51 159.37,-417.66 165.09,-421.7"/>
</g>
</g>
</svg>
