<?xml version="1.0" encoding="UTF-8" standalone="no"?>
<!DOCTYPE svg PUBLIC "-//W3C//DTD SVG 1.1//EN"
 "http://www.w3.org/Graphics/SVG/1.1/DTD/svg11.dtd">
<!-- Generated by graphviz version 2.43.0 (0)
 -->
<!-- Title: /home/runner/work/cocos&#45;headers/cocos&#45;headers/cocos2dx/textures/CCTextureAtlas.h Pages: 1 -->
<svg width="424pt" height="489pt"
 viewBox="0.00 0.00 424.00 489.00" xmlns="http://www.w3.org/2000/svg" xmlns:xlink="http://www.w3.org/1999/xlink">
<g id="graph0" class="graph" transform="scale(1 1) rotate(0) translate(4 485)">
<title>/home/runner/work/cocos&#45;headers/cocos&#45;headers/cocos2dx/textures/CCTextureAtlas.h</title>
<!-- Node1 -->
<g id="node1" class="node">
<title>Node1</title>
<g id="a_node1"><a xlink:title=" ">
<polygon fill="#999999" stroke="#666666" points="339.5,-481 144.5,-481 144.5,-440 339.5,-440 339.5,-481"/>
<text text-anchor="start" x="152.5" y="-469" font-family="Helvetica,sans-Serif" font-size="10.00">/home/runner/work/cocos</text>
<text text-anchor="start" x="152.5" y="-458" font-family="Helvetica,sans-Serif" font-size="10.00">&#45;headers/cocos&#45;headers</text>
<text text-anchor="middle" x="242" y="-447" font-family="Helvetica,sans-Serif" font-size="10.00">/cocos2dx/textures/CCTextureAtlas.h</text>
</a>
</g>
</g>
<!-- Node2 -->
<g id="node2" class="node">
<title>Node2</title>
<g id="a_node2"><a xlink:href="../../df/de6/cc_types_8h.html" target="_top" xlink:title=" ">
<polygon fill="white" stroke="#666666" points="196,-404 132,-404 132,-385 196,-385 196,-404"/>
<text text-anchor="middle" x="164" y="-392" font-family="Helvetica,sans-Serif" font-size="10.00">ccTypes.h</text>
</a>
</g>
</g>
<!-- Node1&#45;&gt;Node2 -->
<g id="edge1" class="edge">
<title>Node1&#45;&gt;Node2</title>
<path fill="none" stroke="#63b8ff" d="M218.17,-439.95C206.72,-430.55 193.2,-419.46 182.53,-410.7"/>
<polygon fill="#63b8ff" stroke="#63b8ff" points="184.63,-407.9 174.68,-404.26 180.19,-413.31 184.63,-407.9"/>
</g>
<!-- Node3 -->
<g id="node3" class="node">
<title>Node3</title>
<g id="a_node3"><a xlink:title=" ">
<polygon fill="#e0e0e0" stroke="#999999" points="48,-184 4,-184 4,-165 48,-165 48,-184"/>
<text text-anchor="middle" x="26" y="-172" font-family="Helvetica,sans-Serif" font-size="10.00">string</text>
</a>
</g>
</g>
<!-- Node1&#45;&gt;Node3 -->
<g id="edge22" class="edge">
<title>Node1&#45;&gt;Node3</title>
<path fill="none" stroke="#63b8ff" d="M144.27,-449.94C77.1,-437.35 0,-408.15 0,-340.5 0,-340.5 0,-340.5 0,-283.5 0,-251.15 11.17,-214.82 18.86,-193.62"/>
<polygon fill="#63b8ff" stroke="#63b8ff" points="22.23,-194.6 22.49,-184.01 15.68,-192.13 22.23,-194.6"/>
</g>
<!-- Node6 -->
<g id="node6" class="node">
<title>Node6</title>
<g id="a_node6"><a xlink:href="../../db/d9f/cc_config_8h.html" target="_top" xlink:title="cocos2d (cc) configuration file">
<polygon fill="white" stroke="#666666" points="331.5,-74 264.5,-74 264.5,-55 331.5,-55 331.5,-74"/>
<text text-anchor="middle" x="298" y="-62" font-family="Helvetica,sans-Serif" font-size="10.00">ccConfig.h</text>
</a>
</g>
</g>
<!-- Node1&#45;&gt;Node6 -->
<g id="edge21" class="edge">
<title>Node1&#45;&gt;Node6</title>
<path fill="none" stroke="#63b8ff" d="M316.55,-440C363.78,-422.63 416,-391.83 416,-340.5 416,-340.5 416,-340.5 416,-173.5 416,-126.67 364.79,-94.67 329.84,-78.28"/>
<polygon fill="#63b8ff" stroke="#63b8ff" points="331.03,-74.98 320.47,-74.08 328.16,-81.37 331.03,-74.98"/>
</g>
<!-- Node9 -->
<g id="node9" class="node">
<title>Node9</title>
<g id="a_node9"><a xlink:href="../../dd/d69/_c_c_object_8h.html" target="_top" xlink:title=" ">
<polygon fill="white" stroke="#666666" points="281.5,-294 210.5,-294 210.5,-275 281.5,-275 281.5,-294"/>
<text text-anchor="middle" x="246" y="-282" font-family="Helvetica,sans-Serif" font-size="10.00">CCObject.h</text>
</a>
</g>
</g>
<!-- Node1&#45;&gt;Node9 -->
<g id="edge20" class="edge">
<title>Node1&#45;&gt;Node9</title>
<path fill="none" stroke="#63b8ff" d="M249.45,-439.71C258.05,-414.27 270.15,-368.75 263,-330 261.33,-320.95 257.9,-311.36 254.56,-303.41"/>
<polygon fill="#63b8ff" stroke="#63b8ff" points="257.66,-301.78 250.37,-294.09 251.27,-304.65 257.66,-301.78"/>
</g>
<!-- Node2&#45;&gt;Node3 -->
<g id="edge2" class="edge">
<title>Node2&#45;&gt;Node3</title>
<path fill="none" stroke="#63b8ff" d="M131.9,-388.6C107.61,-383.15 75.4,-371.9 57,-349 20.33,-303.35 21.16,-229 23.92,-194.36"/>
<polygon fill="#63b8ff" stroke="#63b8ff" points="27.42,-194.53 24.88,-184.24 20.45,-193.87 27.42,-194.53"/>
</g>
<!-- Node4 -->
<g id="node4" class="node">
<title>Node4</title>
<g id="a_node4"><a xlink:href="../../d6/d09/_c_c_geometry_8h.html" target="_top" xlink:title=" ">
<polygon fill="white" stroke="#666666" points="184,-349 66,-349 66,-330 184,-330 184,-349"/>
<text text-anchor="middle" x="125" y="-337" font-family="Helvetica,sans-Serif" font-size="10.00">cocoa/CCGeometry.h</text>
</a>
</g>
</g>
<!-- Node2&#45;&gt;Node4 -->
<g id="edge3" class="edge">
<title>Node2&#45;&gt;Node4</title>
<path fill="none" stroke="#63b8ff" d="M157.56,-384.75C152.11,-377.34 144.14,-366.5 137.44,-357.41"/>
<polygon fill="#63b8ff" stroke="#63b8ff" points="140.07,-355.07 131.32,-349.09 134.43,-359.22 140.07,-355.07"/>
</g>
<!-- Node15 -->
<g id="node15" class="node">
<title>Node15</title>
<g id="a_node15"><a xlink:title=" ">
<polygon fill="#e0e0e0" stroke="#999999" points="254,-349 202,-349 202,-330 254,-330 254,-349"/>
<text text-anchor="middle" x="228" y="-337" font-family="Helvetica,sans-Serif" font-size="10.00">CCGL.h</text>
</a>
</g>
</g>
<!-- Node2&#45;&gt;Node15 -->
<g id="edge19" class="edge">
<title>Node2&#45;&gt;Node15</title>
<path fill="none" stroke="#63b8ff" d="M174.28,-384.98C183.84,-377.07 198.28,-365.11 209.78,-355.58"/>
<polygon fill="#63b8ff" stroke="#63b8ff" points="212.06,-358.24 217.53,-349.17 207.6,-352.85 212.06,-358.24"/>
</g>
<!-- Node5 -->
<g id="node5" class="node">
<title>Node5</title>
<g id="a_node5"><a xlink:href="../../d3/d41/_c_c_platform_macros_8h.html" target="_top" xlink:title=" ">
<polygon fill="white" stroke="#666666" points="250.5,-129 89.5,-129 89.5,-110 250.5,-110 250.5,-129"/>
<text text-anchor="middle" x="170" y="-117" font-family="Helvetica,sans-Serif" font-size="10.00">platform/CCPlatformMacros.h</text>
</a>
</g>
</g>
<!-- Node4&#45;&gt;Node5 -->
<g id="edge4" class="edge">
<title>Node4&#45;&gt;Node5</title>
<path fill="none" stroke="#63b8ff" d="M117.06,-329.75C109.97,-321.3 100.1,-307.79 96,-294 86.63,-262.47 87.87,-251.87 96,-220 104.84,-185.32 133.41,-153.72 152.35,-135.83"/>
<polygon fill="#63b8ff" stroke="#63b8ff" points="154.77,-138.36 159.8,-129.03 150.05,-133.19 154.77,-138.36"/>
</g>
<!-- Node4&#45;&gt;Node9 -->
<g id="edge9" class="edge">
<title>Node4&#45;&gt;Node9</title>
<path fill="none" stroke="#63b8ff" d="M144.44,-329.98C163.99,-321.42 194.38,-308.11 216.82,-298.28"/>
<polygon fill="#63b8ff" stroke="#63b8ff" points="218.45,-301.39 226.21,-294.17 215.64,-294.98 218.45,-301.39"/>
</g>
<!-- Node14 -->
<g id="node14" class="node">
<title>Node14</title>
<g id="a_node14"><a xlink:title=" ">
<polygon fill="#e0e0e0" stroke="#999999" points="155.5,-294 104.5,-294 104.5,-275 155.5,-275 155.5,-294"/>
<text text-anchor="middle" x="130" y="-282" font-family="Helvetica,sans-Serif" font-size="10.00">math.h</text>
</a>
</g>
</g>
<!-- Node4&#45;&gt;Node14 -->
<g id="edge18" class="edge">
<title>Node4&#45;&gt;Node14</title>
<path fill="none" stroke="#63b8ff" d="M125.83,-329.75C126.48,-322.8 127.42,-312.85 128.24,-304.13"/>
<polygon fill="#63b8ff" stroke="#63b8ff" points="131.73,-304.37 129.19,-294.09 124.77,-303.72 131.73,-304.37"/>
</g>
<!-- Node5&#45;&gt;Node6 -->
<g id="edge5" class="edge">
<title>Node5&#45;&gt;Node6</title>
<path fill="none" stroke="#63b8ff" d="M190.57,-109.98C211.43,-101.34 243.97,-87.87 267.77,-78.02"/>
<polygon fill="#63b8ff" stroke="#63b8ff" points="269.16,-81.23 277.06,-74.17 266.48,-74.76 269.16,-81.23"/>
</g>
<!-- Node7 -->
<g id="node7" class="node">
<title>Node7</title>
<g id="a_node7"><a xlink:href="../../dd/d96/_c_c_platform_config_8h.html" target="_top" xlink:title=" ">
<polygon fill="white" stroke="#666666" points="345.5,-19 188.5,-19 188.5,0 345.5,0 345.5,-19"/>
<text text-anchor="middle" x="267" y="-7" font-family="Helvetica,sans-Serif" font-size="10.00">platform/CCPlatformConfig.h</text>
</a>
</g>
</g>
<!-- Node5&#45;&gt;Node7 -->
<g id="edge7" class="edge">
<title>Node5&#45;&gt;Node7</title>
<path fill="none" stroke="#63b8ff" d="M180.13,-109.69C189.93,-100.99 205.03,-87.11 217,-74 230.84,-58.84 245.18,-40.28 254.94,-27.15"/>
<polygon fill="#63b8ff" stroke="#63b8ff" points="257.8,-29.17 260.9,-19.03 252.16,-25.02 257.8,-29.17"/>
</g>
<!-- Node8 -->
<g id="node8" class="node">
<title>Node8</title>
<g id="a_node8"><a xlink:title=" ">
<polygon fill="#e0e0e0" stroke="#999999" points="207.5,-74 94.5,-74 94.5,-55 207.5,-55 207.5,-74"/>
<text text-anchor="middle" x="151" y="-62" font-family="Helvetica,sans-Serif" font-size="10.00">CCPlatformDefine.h</text>
</a>
</g>
</g>
<!-- Node5&#45;&gt;Node8 -->
<g id="edge8" class="edge">
<title>Node5&#45;&gt;Node8</title>
<path fill="none" stroke="#63b8ff" d="M166.86,-109.75C164.32,-102.65 160.64,-92.4 157.47,-83.56"/>
<polygon fill="#63b8ff" stroke="#63b8ff" points="160.75,-82.32 154.08,-74.09 154.16,-84.68 160.75,-82.32"/>
</g>
<!-- Node6&#45;&gt;Node7 -->
<g id="edge6" class="edge">
<title>Node6&#45;&gt;Node7</title>
<path fill="none" stroke="#63b8ff" d="M292.88,-54.75C288.64,-47.49 282.47,-36.95 277.22,-27.98"/>
<polygon fill="#63b8ff" stroke="#63b8ff" points="280.09,-25.95 272.02,-19.09 274.05,-29.49 280.09,-25.95"/>
</g>
<!-- Node10 -->
<g id="node10" class="node">
<title>Node10</title>
<g id="a_node10"><a xlink:href="../../d9/d2d/_c_c_data_visitor_8h.html" target="_top" xlink:title=" ">
<polygon fill="white" stroke="#666666" points="197.5,-239 104.5,-239 104.5,-220 197.5,-220 197.5,-239"/>
<text text-anchor="middle" x="151" y="-227" font-family="Helvetica,sans-Serif" font-size="10.00">CCDataVisitor.h</text>
</a>
</g>
</g>
<!-- Node9&#45;&gt;Node10 -->
<g id="edge10" class="edge">
<title>Node9&#45;&gt;Node10</title>
<path fill="none" stroke="#63b8ff" d="M230.74,-274.98C215.87,-266.69 193.02,-253.94 175.58,-244.22"/>
<polygon fill="#63b8ff" stroke="#63b8ff" points="176.98,-240.99 166.54,-239.17 173.57,-247.1 176.98,-240.99"/>
</g>
<!-- Node11 -->
<g id="node11" class="node">
<title>Node11</title>
<g id="a_node11"><a xlink:href="../../d9/dc8/cc_macros_8h.html" target="_top" xlink:title=" ">
<polygon fill="white" stroke="#666666" points="310.5,-239 239.5,-239 239.5,-220 310.5,-220 310.5,-239"/>
<text text-anchor="middle" x="275" y="-227" font-family="Helvetica,sans-Serif" font-size="10.00">ccMacros.h</text>
</a>
</g>
</g>
<!-- Node9&#45;&gt;Node11 -->
<g id="edge13" class="edge">
<title>Node9&#45;&gt;Node11</title>
<path fill="none" stroke="#63b8ff" d="M250.79,-274.75C254.76,-267.49 260.53,-256.95 265.43,-247.98"/>
<polygon fill="#63b8ff" stroke="#63b8ff" points="268.57,-249.54 270.3,-239.09 262.43,-246.18 268.57,-249.54"/>
</g>
<!-- Node10&#45;&gt;Node3 -->
<g id="edge12" class="edge">
<title>Node10&#45;&gt;Node3</title>
<path fill="none" stroke="#63b8ff" d="M130.92,-219.98C110.63,-211.38 79.04,-197.99 55.83,-188.15"/>
<polygon fill="#63b8ff" stroke="#63b8ff" points="57.02,-184.85 46.45,-184.17 54.29,-191.3 57.02,-184.85"/>
</g>
<!-- Node10&#45;&gt;Node5 -->
<g id="edge11" class="edge">
<title>Node10&#45;&gt;Node5</title>
<path fill="none" stroke="#63b8ff" d="M145.07,-219.75C137.48,-207.39 126.07,-184.18 133,-165 136.94,-154.09 144.86,-143.96 152.36,-136.14"/>
<polygon fill="#63b8ff" stroke="#63b8ff" points="154.84,-138.61 159.56,-129.13 149.95,-133.6 154.84,-138.61"/>
</g>
<!-- Node11&#45;&gt;Node6 -->
<g id="edge17" class="edge">
<title>Node11&#45;&gt;Node6</title>
<path fill="none" stroke="#63b8ff" d="M276.24,-219.74C279.84,-194.2 290.39,-119.43 295.36,-84.23"/>
<polygon fill="#63b8ff" stroke="#63b8ff" points="298.83,-84.7 296.76,-74.31 291.89,-83.72 298.83,-84.7"/>
</g>
<!-- Node12 -->
<g id="node12" class="node">
<title>Node12</title>
<g id="a_node12"><a xlink:href="../../d5/d22/_c_c_common_8h.html" target="_top" xlink:title=" ">
<polygon fill="white" stroke="#666666" points="270,-184 142,-184 142,-165 270,-165 270,-184"/>
<text text-anchor="middle" x="206" y="-172" font-family="Helvetica,sans-Serif" font-size="10.00">platform/CCCommon.h</text>
</a>
</g>
</g>
<!-- Node11&#45;&gt;Node12 -->
<g id="edge14" class="edge">
<title>Node11&#45;&gt;Node12</title>
<path fill="none" stroke="#63b8ff" d="M263.91,-219.98C253.51,-212 237.74,-199.88 225.28,-190.31"/>
<polygon fill="#63b8ff" stroke="#63b8ff" points="227.35,-187.49 217.29,-184.17 223.09,-193.04 227.35,-187.49"/>
</g>
<!-- Node13 -->
<g id="node13" class="node">
<title>Node13</title>
<g id="a_node13"><a xlink:title=" ">
<polygon fill="#e0e0e0" stroke="#999999" points="388,-184 326,-184 326,-165 388,-165 388,-184"/>
<text text-anchor="middle" x="357" y="-172" font-family="Helvetica,sans-Serif" font-size="10.00">CCStdC.h</text>
</a>
</g>
</g>
<!-- Node11&#45;&gt;Node13 -->
<g id="edge16" class="edge">
<title>Node11&#45;&gt;Node13</title>
<path fill="none" stroke="#63b8ff" d="M288.17,-219.98C300.77,-211.84 320,-199.41 334.94,-189.76"/>
<polygon fill="#63b8ff" stroke="#63b8ff" points="337.09,-192.54 343.59,-184.17 333.29,-186.66 337.09,-192.54"/>
</g>
<!-- Node12&#45;&gt;Node5 -->
<g id="edge15" class="edge">
<title>Node12&#45;&gt;Node5</title>
<path fill="none" stroke="#63b8ff" d="M200.06,-164.75C195.02,-157.34 187.66,-146.5 181.49,-137.41"/>
<polygon fill="#63b8ff" stroke="#63b8ff" points="184.35,-135.39 175.83,-129.09 178.56,-139.33 184.35,-135.39"/>
</g>
</g>
</svg>
