<?xml version="1.0" encoding="UTF-8" standalone="no"?>
<!DOCTYPE svg PUBLIC "-//W3C//DTD SVG 1.1//EN"
 "http://www.w3.org/Graphics/SVG/1.1/DTD/svg11.dtd">
<!-- Generated by graphviz version 2.43.0 (0)
 -->
<!-- Title: CCNode Pages: 1 -->
<svg width="736pt" height="788pt"
 viewBox="0.00 0.00 736.00 788.00" xmlns="http://www.w3.org/2000/svg" xmlns:xlink="http://www.w3.org/1999/xlink">
<g id="graph0" class="graph" transform="scale(1 1) rotate(0) translate(4 784)">
<title>CCNode</title>
<!-- Node1 -->
<g id="node1" class="node">
<title>Node1</title>
<g id="a_node1"><a xlink:title="CCNode is the main element.">
<polygon fill="#bfbfbf" stroke="black" points="204,-304.5 204,-323.5 260,-323.5 260,-304.5 204,-304.5"/>
<text text-anchor="middle" x="232" y="-311.5" font-family="Helvetica,sans-Serif" font-size="10.00">CCNode</text>
</a>
</g>
</g>
<!-- Node4 -->
<g id="node4" class="node">
<title>Node4</title>
<g id="a_node4"><a xlink:href="../../d0/d45/class_c_c_layer.html" target="_top" xlink:title="CCLayer is a subclass of CCNode that implements the TouchEventsDelegate protocol.">
<polygon fill="none" stroke="black" points="327,-665.5 327,-684.5 384,-684.5 384,-665.5 327,-665.5"/>
<text text-anchor="middle" x="355.5" y="-672.5" font-family="Helvetica,sans-Serif" font-size="10.00">CCLayer</text>
</a>
</g>
</g>
<!-- Node1&#45;&gt;Node4 -->
<g id="edge3" class="edge">
<title>Node1&#45;&gt;Node4</title>
<path fill="none" stroke="midnightblue" d="M239.29,-333.17C250.56,-367.47 274.98,-441.59 296,-504 316.73,-565.55 342.19,-639.37 351.17,-665.37"/>
<polygon fill="midnightblue" stroke="midnightblue" points="242.56,-331.91 236.11,-323.5 235.91,-334.09 242.56,-331.91"/>
</g>
<!-- Node22 -->
<g id="node12" class="node">
<title>Node22</title>
<g id="a_node12"><a xlink:href="../../d5/def/classcocos2d_1_1_c_c_clipping_node.html" target="_top" xlink:title="CCClippingNode is a subclass of CCNode.">
<polygon fill="none" stroke="black" points="308,-475.5 308,-494.5 403,-494.5 403,-475.5 308,-475.5"/>
<text text-anchor="middle" x="355.5" y="-482.5" font-family="Helvetica,sans-Serif" font-size="10.00">CCClippingNode</text>
</a>
</g>
</g>
<!-- Node1&#45;&gt;Node22 -->
<g id="edge11" class="edge">
<title>Node1&#45;&gt;Node22</title>
<path fill="none" stroke="midnightblue" d="M235.8,-333.76C241.39,-366 256.96,-429.93 296,-466 300.24,-469.91 305.29,-473.02 310.62,-475.49"/>
<polygon fill="midnightblue" stroke="midnightblue" points="239.24,-333.1 234.21,-323.77 232.32,-334.2 239.24,-333.1"/>
</g>
<!-- Node23 -->
<g id="node13" class="node">
<title>Node23</title>
<g id="a_node13"><a xlink:href="../../db/df9/classcocos2d_1_1_c_c_draw_node.html" target="_top" xlink:title="CCDrawNode Node that draws dots, segments and polygons.">
<polygon fill="none" stroke="black" points="315,-437.5 315,-456.5 396,-456.5 396,-437.5 315,-437.5"/>
<text text-anchor="middle" x="355.5" y="-444.5" font-family="Helvetica,sans-Serif" font-size="10.00">CCDrawNode</text>
</a>
</g>
</g>
<!-- Node1&#45;&gt;Node23 -->
<g id="edge12" class="edge">
<title>Node1&#45;&gt;Node23</title>
<path fill="none" stroke="midnightblue" d="M238.64,-333.07C247.06,-358.35 265.33,-402.69 296,-428 301.52,-432.55 308.15,-436.03 314.95,-438.67"/>
<polygon fill="midnightblue" stroke="midnightblue" points="241.97,-332 235.62,-323.52 235.29,-334.11 241.97,-332"/>
</g>
<!-- Node24 -->
<g id="node14" class="node">
<title>Node24</title>
<g id="a_node14"><a xlink:href="../../de/d2e/classcocos2d_1_1_c_c_node_r_g_b_a.html" target="_top" xlink:title="CCNodeRGBA is a subclass of CCNode that implements the CCRGBAProtocol protocol.">
<polygon fill="none" stroke="black" points="314,-399.5 314,-418.5 397,-418.5 397,-399.5 314,-399.5"/>
<text text-anchor="middle" x="355.5" y="-406.5" font-family="Helvetica,sans-Serif" font-size="10.00">CCNodeRGBA</text>
</a>
</g>
</g>
<!-- Node1&#45;&gt;Node24 -->
<g id="edge13" class="edge">
<title>Node1&#45;&gt;Node24</title>
<path fill="none" stroke="midnightblue" d="M243.82,-332.27C254.9,-349.48 273.63,-374.81 296,-390 301.65,-393.84 308.14,-396.94 314.68,-399.45"/>
<polygon fill="midnightblue" stroke="midnightblue" points="246.73,-330.32 238.48,-323.66 240.78,-334.01 246.73,-330.32"/>
</g>
<!-- Node41 -->
<g id="node27" class="node">
<title>Node41</title>
<g id="a_node27"><a xlink:href="../../d3/d77/classcocos2d_1_1_c_c_parallax_node.html" target="_top" xlink:title="CCParallaxNode: A node that simulates a parallax scroller.">
<polygon fill="none" stroke="black" points="308,-361.5 308,-380.5 403,-380.5 403,-361.5 308,-361.5"/>
<text text-anchor="middle" x="355.5" y="-368.5" font-family="Helvetica,sans-Serif" font-size="10.00">CCParallaxNode</text>
</a>
</g>
</g>
<!-- Node1&#45;&gt;Node41 -->
<g id="edge26" class="edge">
<title>Node1&#45;&gt;Node41</title>
<path fill="none" stroke="midnightblue" d="M255.66,-329.4C267.36,-336.89 282.06,-345.64 296,-352 303.77,-355.55 312.4,-358.74 320.59,-361.44"/>
<polygon fill="midnightblue" stroke="midnightblue" points="257.28,-326.28 247,-323.73 253.45,-332.13 257.28,-326.28"/>
</g>
<!-- Node42 -->
<g id="node28" class="node">
<title>Node42</title>
<g id="a_node28"><a xlink:href="../../d0/d0a/classcocos2d_1_1_c_c_particle_batch_node.html" target="_top" xlink:title="CCParticleBatchNode is like a batch node: if it contains children, it will draw them in 1 single Open...">
<polygon fill="none" stroke="black" points="296,-323.5 296,-342.5 415,-342.5 415,-323.5 296,-323.5"/>
<text text-anchor="middle" x="355.5" y="-330.5" font-family="Helvetica,sans-Serif" font-size="10.00">CCParticleBatchNode</text>
</a>
</g>
</g>
<!-- Node1&#45;&gt;Node42 -->
<g id="edge27" class="edge">
<title>Node1&#45;&gt;Node42</title>
<path fill="none" stroke="midnightblue" d="M270.34,-319.84C278.33,-321.09 286.95,-322.44 295.53,-323.78"/>
<polygon fill="midnightblue" stroke="midnightblue" points="270.69,-316.35 260.27,-318.26 269.61,-323.27 270.69,-316.35"/>
</g>
<!-- Node43 -->
<g id="node29" class="node">
<title>Node43</title>
<g id="a_node29"><a xlink:href="../../dd/dd8/classcocos2d_1_1_c_c_particle_system.html" target="_top" xlink:title="Particle System base class.">
<polygon fill="none" stroke="black" points="304,-285.5 304,-304.5 407,-304.5 407,-285.5 304,-285.5"/>
<text text-anchor="middle" x="355.5" y="-292.5" font-family="Helvetica,sans-Serif" font-size="10.00">CCParticleSystem</text>
</a>
</g>
</g>
<!-- Node1&#45;&gt;Node43 -->
<g id="edge28" class="edge">
<title>Node1&#45;&gt;Node43</title>
<path fill="none" stroke="midnightblue" d="M270.41,-308.15C280.98,-306.5 292.67,-304.67 303.88,-302.92"/>
<polygon fill="midnightblue" stroke="midnightblue" points="269.61,-304.73 260.27,-309.74 270.69,-311.65 269.61,-304.73"/>
</g>
<!-- Node56 -->
<g id="node42" class="node">
<title>Node56</title>
<g id="a_node42"><a xlink:href="../../de/d50/classcocos2d_1_1_c_c_render_texture.html" target="_top" xlink:title="CCRenderTexture is a generic rendering target.">
<polygon fill="none" stroke="black" points="305,-247.5 305,-266.5 406,-266.5 406,-247.5 305,-247.5"/>
<text text-anchor="middle" x="355.5" y="-254.5" font-family="Helvetica,sans-Serif" font-size="10.00">CCRenderTexture</text>
</a>
</g>
</g>
<!-- Node1&#45;&gt;Node56 -->
<g id="edge41" class="edge">
<title>Node1&#45;&gt;Node56</title>
<path fill="none" stroke="midnightblue" d="M255.66,-298.6C267.36,-291.11 282.06,-282.36 296,-276 303.77,-272.45 312.4,-269.26 320.59,-266.56"/>
<polygon fill="midnightblue" stroke="midnightblue" points="253.45,-295.87 247,-304.27 257.28,-301.72 253.45,-295.87"/>
</g>
<!-- Node57 -->
<g id="node43" class="node">
<title>Node57</title>
<g id="a_node43"><a xlink:href="../../d1/da4/classcocos2d_1_1_c_c_scene.html" target="_top" xlink:title="CCScene is a subclass of CCNode that is used only as an abstract concept.">
<polygon fill="none" stroke="black" points="326,-209.5 326,-228.5 385,-228.5 385,-209.5 326,-209.5"/>
<text text-anchor="middle" x="355.5" y="-216.5" font-family="Helvetica,sans-Serif" font-size="10.00">CCScene</text>
</a>
</g>
</g>
<!-- Node1&#45;&gt;Node57 -->
<g id="edge42" class="edge">
<title>Node1&#45;&gt;Node57</title>
<path fill="none" stroke="midnightblue" d="M243.82,-295.73C254.9,-278.52 273.63,-253.19 296,-238 304.92,-231.94 315.91,-227.71 325.95,-224.8"/>
<polygon fill="midnightblue" stroke="midnightblue" points="240.78,-293.99 238.48,-304.34 246.73,-297.68 240.78,-293.99"/>
</g>
<!-- Node94 -->
<g id="node45" class="node">
<title>Node94</title>
<g id="a_node45"><a xlink:href="../../dd/d95/classcocos2d_1_1_c_c_sprite_batch_node.html" target="_top" xlink:title="CCSpriteBatchNode is like a batch node: if it contains children, it will draw them in 1 single OpenGL...">
<polygon fill="none" stroke="black" points="299.5,-171.5 299.5,-190.5 411.5,-190.5 411.5,-171.5 299.5,-171.5"/>
<text text-anchor="middle" x="355.5" y="-178.5" font-family="Helvetica,sans-Serif" font-size="10.00">CCSpriteBatchNode</text>
</a>
</g>
</g>
<!-- Node1&#45;&gt;Node94 -->
<g id="edge44" class="edge">
<title>Node1&#45;&gt;Node94</title>
<path fill="none" stroke="midnightblue" d="M238.64,-294.93C247.06,-269.65 265.33,-225.31 296,-200 300.69,-196.13 306.2,-193.03 311.92,-190.57"/>
<polygon fill="midnightblue" stroke="midnightblue" points="235.29,-293.89 235.62,-304.48 241.97,-296 235.29,-293.89"/>
</g>
<!-- Node97 -->
<g id="node48" class="node">
<title>Node97</title>
<g id="a_node48"><a xlink:href="../../da/d68/classcocos2d_1_1_c_c_t_m_x_tiled_map.html" target="_top" xlink:title="CCTMXTiledMap knows how to parse and render a TMX map.">
<polygon fill="none" stroke="black" points="307,-133.5 307,-152.5 404,-152.5 404,-133.5 307,-133.5"/>
<text text-anchor="middle" x="355.5" y="-140.5" font-family="Helvetica,sans-Serif" font-size="10.00">CCTMXTiledMap</text>
</a>
</g>
</g>
<!-- Node1&#45;&gt;Node97 -->
<g id="edge47" class="edge">
<title>Node1&#45;&gt;Node97</title>
<path fill="none" stroke="midnightblue" d="M235.8,-294.24C241.39,-262 256.96,-198.07 296,-162 300.24,-158.09 305.29,-154.98 310.62,-152.51"/>
<polygon fill="midnightblue" stroke="midnightblue" points="232.32,-293.8 234.21,-304.23 239.24,-294.9 232.32,-293.8"/>
</g>
<!-- Node98 -->
<g id="node49" class="node">
<title>Node98</title>
<g id="a_node49"><a xlink:href="../../d4/d2b/classcocos2d_1_1extension_1_1_c_c_table_view_cell.html" target="_top" xlink:title="Abstract class for SWTableView cell node NA.">
<polygon fill="none" stroke="black" points="306.5,-95.5 306.5,-114.5 404.5,-114.5 404.5,-95.5 306.5,-95.5"/>
<text text-anchor="middle" x="355.5" y="-102.5" font-family="Helvetica,sans-Serif" font-size="10.00">CCTableViewCell</text>
</a>
</g>
</g>
<!-- Node1&#45;&gt;Node98 -->
<g id="edge48" class="edge">
<title>Node1&#45;&gt;Node98</title>
<path fill="none" stroke="midnightblue" d="M233.92,-293.75C236.77,-255.29 248.42,-171.29 296,-124 299.94,-120.09 304.69,-116.98 309.76,-114.51"/>
<polygon fill="midnightblue" stroke="midnightblue" points="230.41,-293.94 233.29,-304.14 237.39,-294.37 230.41,-293.94"/>
</g>
<!-- Node2 -->
<g id="node2" class="node">
<title>Node2</title>
<g id="a_node2"><a xlink:href="../../d3/dbf/classcocos2d_1_1_c_c_object.html" target="_top" xlink:title="NA.">
<polygon fill="none" stroke="black" points="106,-304.5 106,-323.5 168,-323.5 168,-304.5 106,-304.5"/>
<text text-anchor="middle" x="137" y="-311.5" font-family="Helvetica,sans-Serif" font-size="10.00">CCObject</text>
</a>
</g>
</g>
<!-- Node2&#45;&gt;Node1 -->
<g id="edge1" class="edge">
<title>Node2&#45;&gt;Node1</title>
<path fill="none" stroke="midnightblue" d="M178.43,-314C187,-314 195.85,-314 203.78,-314"/>
<polygon fill="midnightblue" stroke="midnightblue" points="178.19,-310.5 168.19,-314 178.19,-317.5 178.19,-310.5"/>
</g>
<!-- Node3 -->
<g id="node3" class="node">
<title>Node3</title>
<g id="a_node3"><a xlink:href="../../d5/d61/classcocos2d_1_1_c_c_copying.html" target="_top" xlink:title="NA NA.">
<polygon fill="none" stroke="black" points="0,-304.5 0,-323.5 70,-323.5 70,-304.5 0,-304.5"/>
<text text-anchor="middle" x="35" y="-311.5" font-family="Helvetica,sans-Serif" font-size="10.00">CCCopying</text>
</a>
</g>
</g>
<!-- Node3&#45;&gt;Node2 -->
<g id="edge2" class="edge">
<title>Node3&#45;&gt;Node2</title>
<path fill="none" stroke="midnightblue" d="M80.39,-314C88.95,-314 97.72,-314 105.7,-314"/>
<polygon fill="midnightblue" stroke="midnightblue" points="80.13,-310.5 70.13,-314 80.13,-317.5 80.13,-310.5"/>
</g>
<!-- Node5 -->
<g id="node5" class="node">
<title>Node5</title>
<g id="a_node5"><a xlink:href="../../d3/d7e/classcocos2d_1_1_c_c_layer_multiplex.html" target="_top" xlink:title="CCMultipleLayer is a CCLayer with the ability to multiplex it&#39;s children.">
<polygon fill="none" stroke="black" points="463.5,-722.5 463.5,-741.5 566.5,-741.5 566.5,-722.5 463.5,-722.5"/>
<text text-anchor="middle" x="515" y="-729.5" font-family="Helvetica,sans-Serif" font-size="10.00">CCLayerMultiplex</text>
</a>
</g>
</g>
<!-- Node4&#45;&gt;Node5 -->
<g id="edge4" class="edge">
<title>Node4&#45;&gt;Node5</title>
<path fill="none" stroke="midnightblue" d="M388.1,-688.53C406.33,-696.13 429.79,-705.55 451,-713 460.49,-716.33 470.89,-719.62 480.47,-722.49"/>
<polygon fill="midnightblue" stroke="midnightblue" points="389.39,-685.28 378.82,-684.63 386.68,-691.73 389.39,-685.28"/>
</g>
<!-- Node6 -->
<g id="node6" class="node">
<title>Node6</title>
<g id="a_node6"><a xlink:href="../../dd/d1e/classcocos2d_1_1_c_c_layer_r_g_b_a.html" target="_top" xlink:title="CCLayerRGBA is a subclass of CCLayer that implements the CCRGBAProtocol protocol using a solid color ...">
<polygon fill="none" stroke="black" points="472.5,-684.5 472.5,-703.5 557.5,-703.5 557.5,-684.5 472.5,-684.5"/>
<text text-anchor="middle" x="515" y="-691.5" font-family="Helvetica,sans-Serif" font-size="10.00">CCLayerRGBA</text>
</a>
</g>
</g>
<!-- Node4&#45;&gt;Node6 -->
<g id="edge5" class="edge">
<title>Node4&#45;&gt;Node6</title>
<path fill="none" stroke="midnightblue" d="M394.25,-679.55C417.76,-682.39 448.04,-686.04 472.27,-688.97"/>
<polygon fill="midnightblue" stroke="midnightblue" points="394.64,-676.08 384.3,-678.35 393.8,-683.03 394.64,-676.08"/>
</g>
<!-- Node20 -->
<g id="node10" class="node">
<title>Node20</title>
<g id="a_node10"><a xlink:href="../../d3/dbc/classcocos2d_1_1extension_1_1_c_c_scroll_view.html" target="_top" xlink:title="ScrollView support for cocos2d for iphone.">
<polygon fill="none" stroke="black" points="474.5,-646.5 474.5,-665.5 555.5,-665.5 555.5,-646.5 474.5,-646.5"/>
<text text-anchor="middle" x="515" y="-653.5" font-family="Helvetica,sans-Serif" font-size="10.00">CCScrollView</text>
</a>
</g>
</g>
<!-- Node4&#45;&gt;Node20 -->
<g id="edge9" class="edge">
<title>Node4&#45;&gt;Node20</title>
<path fill="none" stroke="midnightblue" d="M394.51,-670.41C418.68,-667.5 449.9,-663.73 474.37,-660.78"/>
<polygon fill="midnightblue" stroke="midnightblue" points="393.8,-666.97 384.3,-671.65 394.64,-673.92 393.8,-666.97"/>
</g>
<!-- Node7 -->
<g id="node7" class="node">
<title>Node7</title>
<g id="a_node7"><a xlink:href="../../da/d2c/classcocos2d_1_1_c_c_layer_color.html" target="_top" xlink:title="CCLayerColor is a subclass of CCLayer that implements the CCRGBAProtocol protocol.">
<polygon fill="none" stroke="red" points="630,-760.5 630,-779.5 713,-779.5 713,-760.5 630,-760.5"/>
<text text-anchor="middle" x="671.5" y="-767.5" font-family="Helvetica,sans-Serif" font-size="10.00">CCLayerColor</text>
</a>
</g>
</g>
<!-- Node6&#45;&gt;Node7 -->
<g id="edge6" class="edge">
<title>Node6&#45;&gt;Node7</title>
<path fill="none" stroke="midnightblue" d="M567.31,-706.95C571.38,-708.73 575.34,-710.74 579,-713 598.8,-725.21 595.43,-738.42 615,-751 620.91,-754.8 627.67,-757.93 634.39,-760.48"/>
<polygon fill="midnightblue" stroke="midnightblue" points="568.25,-703.56 557.66,-703.21 565.71,-710.09 568.25,-703.56"/>
</g>
<!-- Node9 -->
<g id="node8" class="node">
<title>Node9</title>
<g id="a_node8"><a xlink:href="../../d1/da0/classcocos2d_1_1_c_c_menu.html" target="_top" xlink:title="A CCMenu.">
<polygon fill="none" stroke="black" points="643,-722.5 643,-741.5 700,-741.5 700,-722.5 643,-722.5"/>
<text text-anchor="middle" x="671.5" y="-729.5" font-family="Helvetica,sans-Serif" font-size="10.00">CCMenu</text>
</a>
</g>
</g>
<!-- Node6&#45;&gt;Node9 -->
<g id="edge7" class="edge">
<title>Node6&#45;&gt;Node9</title>
<path fill="none" stroke="midnightblue" d="M564.92,-706.03C590.6,-712.35 621.13,-719.86 642.73,-725.17"/>
<polygon fill="midnightblue" stroke="midnightblue" points="565.53,-702.58 554.99,-703.59 563.86,-709.38 565.53,-702.58"/>
</g>
<!-- Node10 -->
<g id="node9" class="node">
<title>Node10</title>
<g id="a_node9"><a xlink:href="../../d4/d38/classcocos2d_1_1extension_1_1_c_c_control.html" target="_top" xlink:title=" ">
<polygon fill="none" stroke="red" points="639,-684.5 639,-703.5 704,-703.5 704,-684.5 639,-684.5"/>
<text text-anchor="middle" x="671.5" y="-691.5" font-family="Helvetica,sans-Serif" font-size="10.00">CCControl</text>
</a>
</g>
</g>
<!-- Node6&#45;&gt;Node10 -->
<g id="edge8" class="edge">
<title>Node6&#45;&gt;Node10</title>
<path fill="none" stroke="midnightblue" d="M567.99,-694C591.52,-694 618.55,-694 638.95,-694"/>
<polygon fill="midnightblue" stroke="midnightblue" points="567.81,-690.5 557.81,-694 567.81,-697.5 567.81,-690.5"/>
</g>
<!-- Node21 -->
<g id="node11" class="node">
<title>Node21</title>
<g id="a_node11"><a xlink:href="../../d8/d28/classcocos2d_1_1extension_1_1_c_c_table_view.html" target="_top" xlink:title="UITableView counterpart for cocos2d for iphone.">
<polygon fill="none" stroke="black" points="631.5,-646.5 631.5,-665.5 711.5,-665.5 711.5,-646.5 631.5,-646.5"/>
<text text-anchor="middle" x="671.5" y="-653.5" font-family="Helvetica,sans-Serif" font-size="10.00">CCTableView</text>
</a>
</g>
</g>
<!-- Node20&#45;&gt;Node21 -->
<g id="edge10" class="edge">
<title>Node20&#45;&gt;Node21</title>
<path fill="none" stroke="midnightblue" d="M565.92,-656C587.13,-656 611.5,-656 631.38,-656"/>
<polygon fill="midnightblue" stroke="midnightblue" points="565.79,-652.5 555.79,-656 565.79,-659.5 565.79,-652.5"/>
</g>
<!-- Node25 -->
<g id="node15" class="node">
<title>Node25</title>
<g id="a_node15"><a xlink:href="../../d7/d70/classcocos2d_1_1_c_c_atlas_node.html" target="_top" xlink:title="CCAtlasNode is a subclass of CCNode that implements the CCRGBAProtocol and CCTextureProtocol protocol...">
<polygon fill="none" stroke="black" points="475,-570.5 475,-589.5 555,-589.5 555,-570.5 475,-570.5"/>
<text text-anchor="middle" x="515" y="-577.5" font-family="Helvetica,sans-Serif" font-size="10.00">CCAtlasNode</text>
</a>
</g>
</g>
<!-- Node24&#45;&gt;Node25 -->
<g id="edge14" class="edge">
<title>Node24&#45;&gt;Node25</title>
<path fill="none" stroke="midnightblue" d="M406.38,-421.51C409.49,-423.38 412.41,-425.53 415,-428 447.69,-459.15 425.55,-485.7 451,-523 464.38,-542.62 485.85,-560.1 499.94,-570.38"/>
<polygon fill="midnightblue" stroke="midnightblue" points="407.72,-418.27 397.21,-416.95 404.6,-424.54 407.72,-418.27"/>
</g>
<!-- Node28 -->
<g id="node18" class="node">
<title>Node28</title>
<g id="a_node18"><a xlink:href="../../d3/ddc/classcocos2d_1_1_c_c_menu_item.html" target="_top" xlink:title="CCMenuItem base class.">
<polygon fill="none" stroke="black" points="475,-494.5 475,-513.5 555,-513.5 555,-494.5 475,-494.5"/>
<text text-anchor="middle" x="515" y="-501.5" font-family="Helvetica,sans-Serif" font-size="10.00">CCMenuItem</text>
</a>
</g>
</g>
<!-- Node24&#45;&gt;Node28 -->
<g id="edge17" class="edge">
<title>Node24&#45;&gt;Node28</title>
<path fill="none" stroke="midnightblue" d="M406.15,-422.29C409.28,-423.98 412.26,-425.87 415,-428 438.66,-446.39 427.15,-466.86 451,-485 458,-490.32 466.49,-494.17 474.94,-496.93"/>
<polygon fill="midnightblue" stroke="midnightblue" points="407.6,-419.11 397.06,-418.07 404.66,-425.46 407.6,-419.11"/>
</g>
<!-- Node35 -->
<g id="node22" class="node">
<title>Node35</title>
<g id="a_node22"><a xlink:href="../../d9/d38/classcocos2d_1_1_c_c_motion_streak.html" target="_top" xlink:title="MotionStreak.">
<polygon fill="none" stroke="black" points="467.5,-456.5 467.5,-475.5 562.5,-475.5 562.5,-456.5 467.5,-456.5"/>
<text text-anchor="middle" x="515" y="-463.5" font-family="Helvetica,sans-Serif" font-size="10.00">CCMotionStreak</text>
</a>
</g>
</g>
<!-- Node24&#45;&gt;Node35 -->
<g id="edge21" class="edge">
<title>Node24&#45;&gt;Node35</title>
<path fill="none" stroke="midnightblue" d="M399.03,-421.86C404.46,-423.78 409.9,-425.84 415,-428 431.66,-435.04 434.26,-440.13 451,-447 459.56,-450.51 469.01,-453.7 477.93,-456.43"/>
<polygon fill="midnightblue" stroke="midnightblue" points="399.95,-418.48 389.35,-418.58 397.7,-425.11 399.95,-418.48"/>
</g>
<!-- Node36 -->
<g id="node23" class="node">
<title>Node36</title>
<g id="a_node23"><a xlink:href="../../dc/db9/classcocos2d_1_1_c_c_progress_timer.html" target="_top" xlink:title="CCProgressTimer is a subclass of CCNode.">
<polygon fill="none" stroke="black" points="464.5,-418.5 464.5,-437.5 565.5,-437.5 565.5,-418.5 464.5,-418.5"/>
<text text-anchor="middle" x="515" y="-425.5" font-family="Helvetica,sans-Serif" font-size="10.00">CCProgressTimer</text>
</a>
</g>
</g>
<!-- Node24&#45;&gt;Node36 -->
<g id="edge22" class="edge">
<title>Node24&#45;&gt;Node36</title>
<path fill="none" stroke="midnightblue" d="M407.23,-415.12C425.51,-417.32 446.1,-419.81 464.29,-422"/>
<polygon fill="midnightblue" stroke="midnightblue" points="407.41,-411.62 397.06,-413.89 406.57,-418.57 407.41,-411.62"/>
</g>
<!-- Node37 -->
<g id="node24" class="node">
<title>Node37</title>
<g id="a_node24"><a xlink:href="../../d4/de7/classcocos2d_1_1_c_c_sprite.html" target="_top" xlink:title="CCSprite is a 2d image ( http://en.wikipedia.org/wiki/Sprite_(computer_graphics) )">
<polygon fill="none" stroke="black" points="485.5,-380.5 485.5,-399.5 544.5,-399.5 544.5,-380.5 485.5,-380.5"/>
<text text-anchor="middle" x="515" y="-387.5" font-family="Helvetica,sans-Serif" font-size="10.00">CCSprite</text>
</a>
</g>
</g>
<!-- Node24&#45;&gt;Node37 -->
<g id="edge23" class="edge">
<title>Node24&#45;&gt;Node37</title>
<path fill="none" stroke="midnightblue" d="M407.04,-402.9C432.81,-399.79 463.22,-396.13 485.01,-393.5"/>
<polygon fill="midnightblue" stroke="midnightblue" points="406.57,-399.43 397.06,-404.11 407.41,-406.38 406.57,-399.43"/>
</g>
<!-- Node40 -->
<g id="node26" class="node">
<title>Node40</title>
<g id="a_node26"><a xlink:href="../../d7/d8b/classcocos2d_1_1extension_1_1_c_c_scale9_sprite.html" target="_top" xlink:title="A 9&#45;slice sprite for cocos2d.">
<polygon fill="none" stroke="black" points="469.5,-342.5 469.5,-361.5 560.5,-361.5 560.5,-342.5 469.5,-342.5"/>
<text text-anchor="middle" x="515" y="-349.5" font-family="Helvetica,sans-Serif" font-size="10.00">CCScale9Sprite</text>
</a>
</g>
</g>
<!-- Node24&#45;&gt;Node40 -->
<g id="edge25" class="edge">
<title>Node24&#45;&gt;Node40</title>
<path fill="none" stroke="midnightblue" d="M399.03,-396.14C404.46,-394.22 409.9,-392.16 415,-390 431.66,-382.96 434.26,-377.87 451,-371 459.56,-367.49 469.01,-364.3 477.93,-361.57"/>
<polygon fill="midnightblue" stroke="midnightblue" points="397.7,-392.89 389.35,-399.42 399.95,-399.52 397.7,-392.89"/>
</g>
<!-- Node26 -->
<g id="node16" class="node">
<title>Node26</title>
<g id="a_node16"><a xlink:href="../../d7/d84/classcocos2d_1_1_c_c_label_atlas.html" target="_top" xlink:title="CCLabelAtlas is a subclass of CCAtlasNode.">
<polygon fill="none" stroke="black" points="631,-608.5 631,-627.5 712,-627.5 712,-608.5 631,-608.5"/>
<text text-anchor="middle" x="671.5" y="-615.5" font-family="Helvetica,sans-Serif" font-size="10.00">CCLabelAtlas</text>
</a>
</g>
</g>
<!-- Node25&#45;&gt;Node26 -->
<g id="edge15" class="edge">
<title>Node25&#45;&gt;Node26</title>
<path fill="none" stroke="midnightblue" d="M564.95,-592.04C586.54,-597.35 611.54,-603.5 631.79,-608.48"/>
<polygon fill="midnightblue" stroke="midnightblue" points="565.53,-588.58 554.99,-589.59 563.86,-595.38 565.53,-588.58"/>
</g>
<!-- Node27 -->
<g id="node17" class="node">
<title>Node27</title>
<g id="a_node17"><a xlink:href="../../d2/d8b/classcocos2d_1_1_c_c_tile_map_atlas.html" target="_top" xlink:title="CCTileMapAtlas is a subclass of CCAtlasNode.">
<polygon fill="none" stroke="black" points="624.5,-570.5 624.5,-589.5 718.5,-589.5 718.5,-570.5 624.5,-570.5"/>
<text text-anchor="middle" x="671.5" y="-577.5" font-family="Helvetica,sans-Serif" font-size="10.00">CCTileMapAtlas</text>
</a>
</g>
</g>
<!-- Node25&#45;&gt;Node27 -->
<g id="edge16" class="edge">
<title>Node25&#45;&gt;Node27</title>
<path fill="none" stroke="midnightblue" d="M565.56,-580C584.42,-580 605.8,-580 624.33,-580"/>
<polygon fill="midnightblue" stroke="midnightblue" points="565.39,-576.5 555.39,-580 565.39,-583.5 565.39,-576.5"/>
</g>
<!-- Node29 -->
<g id="node19" class="node">
<title>Node29</title>
<g id="a_node19"><a xlink:href="../../d3/dc3/classcocos2d_1_1_c_c_menu_item_label.html" target="_top" xlink:title="An abstract class for &quot;label&quot; CCMenuItemLabel items Any CCNode that supports the CCLabelProtocol prot...">
<polygon fill="none" stroke="red" points="618.5,-532.5 618.5,-551.5 724.5,-551.5 724.5,-532.5 618.5,-532.5"/>
<text text-anchor="middle" x="671.5" y="-539.5" font-family="Helvetica,sans-Serif" font-size="10.00">CCMenuItemLabel</text>
</a>
</g>
</g>
<!-- Node28&#45;&gt;Node29 -->
<g id="edge18" class="edge">
<title>Node28&#45;&gt;Node29</title>
<path fill="none" stroke="midnightblue" d="M564.95,-516.04C586.54,-521.35 611.54,-527.5 631.79,-532.48"/>
<polygon fill="midnightblue" stroke="midnightblue" points="565.53,-512.58 554.99,-513.59 563.86,-519.38 565.53,-512.58"/>
</g>
<!-- Node32 -->
<g id="node20" class="node">
<title>Node32</title>
<g id="a_node20"><a xlink:href="../../db/dbd/classcocos2d_1_1_c_c_menu_item_sprite.html" target="_top" xlink:title="CCMenuItemSprite accepts CCNode&lt;CCRGBAProtocol&gt; objects as items.">
<polygon fill="none" stroke="red" points="617.5,-494.5 617.5,-513.5 725.5,-513.5 725.5,-494.5 617.5,-494.5"/>
<text text-anchor="middle" x="671.5" y="-501.5" font-family="Helvetica,sans-Serif" font-size="10.00">CCMenuItemSprite</text>
</a>
</g>
</g>
<!-- Node28&#45;&gt;Node32 -->
<g id="edge19" class="edge">
<title>Node28&#45;&gt;Node32</title>
<path fill="none" stroke="midnightblue" d="M565.44,-504C582.04,-504 600.62,-504 617.48,-504"/>
<polygon fill="midnightblue" stroke="midnightblue" points="565.39,-500.5 555.39,-504 565.39,-507.5 565.39,-500.5"/>
</g>
<!-- Node34 -->
<g id="node21" class="node">
<title>Node34</title>
<g id="a_node21"><a xlink:href="../../dd/dd3/classcocos2d_1_1_c_c_menu_item_toggle.html" target="_top" xlink:title="A CCMenuItemToggle A simple container class that &quot;toggles&quot; it&#39;s inner items The inner items can be an...">
<polygon fill="none" stroke="black" points="616,-456.5 616,-475.5 727,-475.5 727,-456.5 616,-456.5"/>
<text text-anchor="middle" x="671.5" y="-463.5" font-family="Helvetica,sans-Serif" font-size="10.00">CCMenuItemToggle</text>
</a>
</g>
</g>
<!-- Node28&#45;&gt;Node34 -->
<g id="edge20" class="edge">
<title>Node28&#45;&gt;Node34</title>
<path fill="none" stroke="midnightblue" d="M564.95,-491.96C586.54,-486.65 611.54,-480.5 631.79,-475.52"/>
<polygon fill="midnightblue" stroke="midnightblue" points="563.86,-488.62 554.99,-494.41 565.53,-495.42 563.86,-488.62"/>
</g>
<!-- Node38 -->
<g id="node25" class="node">
<title>Node38</title>
<g id="a_node25"><a xlink:href="../../df/d72/classcocos2d_1_1_c_c_label_t_t_f.html" target="_top" xlink:title="CCLabelTTF is a subclass of CCTextureNode that knows how to render text labels.">
<polygon fill="none" stroke="red" points="634.5,-418.5 634.5,-437.5 708.5,-437.5 708.5,-418.5 634.5,-418.5"/>
<text text-anchor="middle" x="671.5" y="-425.5" font-family="Helvetica,sans-Serif" font-size="10.00">CCLabelTTF</text>
</a>
</g>
</g>
<!-- Node37&#45;&gt;Node38 -->
<g id="edge24" class="edge">
<title>Node37&#45;&gt;Node38</title>
<path fill="none" stroke="midnightblue" d="M554.69,-399.52C579.1,-405.52 610.42,-413.22 634.33,-419.1"/>
<polygon fill="midnightblue" stroke="midnightblue" points="555.24,-396.05 544.7,-397.06 553.57,-402.85 555.24,-396.05"/>
</g>
<!-- Node44 -->
<g id="node30" class="node">
<title>Node44</title>
<g id="a_node30"><a xlink:href="../../d9/df5/classcocos2d_1_1_c_c_particle_system_quad.html" target="_top" xlink:title="CCParticleSystemQuad is a subclass of CCParticleSystem.">
<polygon fill="none" stroke="black" points="451,-247.5 451,-266.5 579,-266.5 579,-247.5 451,-247.5"/>
<text text-anchor="middle" x="515" y="-254.5" font-family="Helvetica,sans-Serif" font-size="10.00">CCParticleSystemQuad</text>
</a>
</g>
</g>
<!-- Node43&#45;&gt;Node44 -->
<g id="edge29" class="edge">
<title>Node43&#45;&gt;Node44</title>
<path fill="none" stroke="midnightblue" d="M406.1,-283.03C428.18,-277.71 453.8,-271.52 474.54,-266.52"/>
<polygon fill="midnightblue" stroke="midnightblue" points="405.14,-279.66 396.24,-285.41 406.79,-286.47 405.14,-279.66"/>
</g>
<!-- Node45 -->
<g id="node31" class="node">
<title>Node45</title>
<g id="a_node31"><a xlink:href="../../dc/d49/classcocos2d_1_1_c_c_particle_explosion.html" target="_top" xlink:title="An explosion particle system.">
<polygon fill="none" stroke="black" points="615,-380.5 615,-399.5 728,-399.5 728,-380.5 615,-380.5"/>
<text text-anchor="middle" x="671.5" y="-387.5" font-family="Helvetica,sans-Serif" font-size="10.00">CCParticleExplosion</text>
</a>
</g>
</g>
<!-- Node44&#45;&gt;Node45 -->
<g id="edge30" class="edge">
<title>Node44&#45;&gt;Node45</title>
<path fill="none" stroke="midnightblue" d="M530.56,-274.77C555.5,-305.05 604.71,-364.07 615,-371 620.66,-374.81 627.16,-377.93 633.67,-380.46"/>
<polygon fill="midnightblue" stroke="midnightblue" points="533,-272.22 523.94,-266.72 527.59,-276.67 533,-272.22"/>
</g>
<!-- Node46 -->
<g id="node32" class="node">
<title>Node46</title>
<g id="a_node32"><a xlink:href="../../d6/d20/classcocos2d_1_1_c_c_particle_fire.html" target="_top" xlink:title="A fire particle system.">
<polygon fill="none" stroke="black" points="629.5,-342.5 629.5,-361.5 713.5,-361.5 713.5,-342.5 629.5,-342.5"/>
<text text-anchor="middle" x="671.5" y="-349.5" font-family="Helvetica,sans-Serif" font-size="10.00">CCParticleFire</text>
</a>
</g>
</g>
<!-- Node44&#45;&gt;Node46 -->
<g id="edge31" class="edge">
<title>Node44&#45;&gt;Node46</title>
<path fill="none" stroke="midnightblue" d="M533.72,-273.5C552.63,-290.37 584.06,-316.41 615,-333 621.82,-336.66 629.48,-339.82 636.89,-342.46"/>
<polygon fill="midnightblue" stroke="midnightblue" points="535.95,-270.79 526.19,-266.67 531.25,-275.98 535.95,-270.79"/>
</g>
<!-- Node47 -->
<g id="node33" class="node">
<title>Node47</title>
<g id="a_node33"><a xlink:href="../../d7/d6c/classcocos2d_1_1_c_c_particle_fireworks.html" target="_top" xlink:title="A fireworks particle system.">
<polygon fill="none" stroke="black" points="615,-304.5 615,-323.5 728,-323.5 728,-304.5 615,-304.5"/>
<text text-anchor="middle" x="671.5" y="-311.5" font-family="Helvetica,sans-Serif" font-size="10.00">CCParticleFireworks</text>
</a>
</g>
</g>
<!-- Node44&#45;&gt;Node47 -->
<g id="edge32" class="edge">
<title>Node44&#45;&gt;Node47</title>
<path fill="none" stroke="midnightblue" d="M549.78,-270.32C568.86,-277.75 593.19,-287.08 615,-295 623.71,-298.16 633.24,-301.48 641.91,-304.44"/>
<polygon fill="midnightblue" stroke="midnightblue" points="550.91,-267 540.32,-266.62 548.36,-273.52 550.91,-267"/>
</g>
<!-- Node48 -->
<g id="node34" class="node">
<title>Node48</title>
<g id="a_node34"><a xlink:href="../../df/da7/classcocos2d_1_1_c_c_particle_flower.html" target="_top" xlink:title="A flower particle system.">
<polygon fill="none" stroke="black" points="622,-266.5 622,-285.5 721,-285.5 721,-266.5 622,-266.5"/>
<text text-anchor="middle" x="671.5" y="-273.5" font-family="Helvetica,sans-Serif" font-size="10.00">CCParticleFlower</text>
</a>
</g>
</g>
<!-- Node44&#45;&gt;Node48 -->
<g id="edge33" class="edge">
<title>Node44&#45;&gt;Node48</title>
<path fill="none" stroke="midnightblue" d="M589.33,-266.02C600.32,-267.37 611.43,-268.74 621.74,-270"/>
<polygon fill="midnightblue" stroke="midnightblue" points="589.64,-262.53 579.29,-264.78 588.78,-269.48 589.64,-262.53"/>
</g>
<!-- Node49 -->
<g id="node35" class="node">
<title>Node49</title>
<g id="a_node35"><a xlink:href="../../d9/d53/classcocos2d_1_1_c_c_particle_galaxy.html" target="_top" xlink:title="A galaxy particle system.">
<polygon fill="none" stroke="black" points="621,-228.5 621,-247.5 722,-247.5 722,-228.5 621,-228.5"/>
<text text-anchor="middle" x="671.5" y="-235.5" font-family="Helvetica,sans-Serif" font-size="10.00">CCParticleGalaxy</text>
</a>
</g>
</g>
<!-- Node44&#45;&gt;Node49 -->
<g id="edge34" class="edge">
<title>Node44&#45;&gt;Node49</title>
<path fill="none" stroke="midnightblue" d="M589.42,-247.97C600.05,-246.66 610.77,-245.35 620.79,-244.11"/>
<polygon fill="midnightblue" stroke="midnightblue" points="588.78,-244.52 579.29,-249.22 589.64,-251.47 588.78,-244.52"/>
</g>
<!-- Node50 -->
<g id="node36" class="node">
<title>Node50</title>
<g id="a_node36"><a xlink:href="../../d1/d3f/classcocos2d_1_1_c_c_particle_meteor.html" target="_top" xlink:title="A meteor particle system.">
<polygon fill="none" stroke="black" points="621,-190.5 621,-209.5 722,-209.5 722,-190.5 621,-190.5"/>
<text text-anchor="middle" x="671.5" y="-197.5" font-family="Helvetica,sans-Serif" font-size="10.00">CCParticleMeteor</text>
</a>
</g>
</g>
<!-- Node44&#45;&gt;Node50 -->
<g id="edge35" class="edge">
<title>Node44&#45;&gt;Node50</title>
<path fill="none" stroke="midnightblue" d="M561.82,-244.32C567.67,-242.37 573.52,-240.25 579,-238 595.74,-231.13 598.39,-226.17 615,-219 622.95,-215.57 631.74,-212.32 639.93,-209.51"/>
<polygon fill="midnightblue" stroke="midnightblue" points="560.53,-241.05 552.07,-247.43 562.66,-247.72 560.53,-241.05"/>
</g>
<!-- Node51 -->
<g id="node37" class="node">
<title>Node51</title>
<g id="a_node37"><a xlink:href="../../dd/dcd/classcocos2d_1_1_c_c_particle_rain.html" target="_top" xlink:title="A rain particle system.">
<polygon fill="none" stroke="black" points="627.5,-152.5 627.5,-171.5 715.5,-171.5 715.5,-152.5 627.5,-152.5"/>
<text text-anchor="middle" x="671.5" y="-159.5" font-family="Helvetica,sans-Serif" font-size="10.00">CCParticleRain</text>
</a>
</g>
</g>
<!-- Node44&#45;&gt;Node51 -->
<g id="edge36" class="edge">
<title>Node44&#45;&gt;Node51</title>
<path fill="none" stroke="midnightblue" d="M571.11,-243.09C573.88,-241.57 576.53,-239.88 579,-238 602.85,-219.86 591.49,-199.58 615,-181 619.87,-177.15 625.58,-174.05 631.44,-171.57"/>
<polygon fill="midnightblue" stroke="midnightblue" points="569.5,-239.99 561.95,-247.42 572.49,-246.31 569.5,-239.99"/>
</g>
<!-- Node52 -->
<g id="node38" class="node">
<title>Node52</title>
<g id="a_node38"><a xlink:href="../../d5/d45/classcocos2d_1_1_c_c_particle_smoke.html" target="_top" xlink:title="An smoke particle system.">
<polygon fill="none" stroke="black" points="622,-114.5 622,-133.5 721,-133.5 721,-114.5 622,-114.5"/>
<text text-anchor="middle" x="671.5" y="-121.5" font-family="Helvetica,sans-Serif" font-size="10.00">CCParticleSmoke</text>
</a>
</g>
</g>
<!-- Node44&#45;&gt;Node52 -->
<g id="edge37" class="edge">
<title>Node44&#45;&gt;Node52</title>
<path fill="none" stroke="midnightblue" d="M573.56,-242.37C575.48,-241.03 577.3,-239.58 579,-238 612.01,-207.2 582.56,-174.41 615,-143 619.02,-139.1 623.88,-136 629.03,-133.54"/>
<polygon fill="midnightblue" stroke="midnightblue" points="571.57,-239.47 564.62,-247.46 575.04,-245.55 571.57,-239.47"/>
</g>
<!-- Node53 -->
<g id="node39" class="node">
<title>Node53</title>
<g id="a_node39"><a xlink:href="../../d8/dfe/classcocos2d_1_1_c_c_particle_snow.html" target="_top" xlink:title="An snow particle system.">
<polygon fill="none" stroke="black" points="625.5,-76.5 625.5,-95.5 717.5,-95.5 717.5,-76.5 625.5,-76.5"/>
<text text-anchor="middle" x="671.5" y="-83.5" font-family="Helvetica,sans-Serif" font-size="10.00">CCParticleSnow</text>
</a>
</g>
</g>
<!-- Node44&#45;&gt;Node53 -->
<g id="edge38" class="edge">
<title>Node44&#45;&gt;Node53</title>
<path fill="none" stroke="midnightblue" d="M574.5,-242.01C576.09,-240.78 577.6,-239.44 579,-238 621.68,-194.08 573.14,-149.7 615,-105 618.62,-101.13 623.06,-98.06 627.84,-95.6"/>
<polygon fill="midnightblue" stroke="midnightblue" points="572.54,-239.11 565.93,-247.39 576.26,-245.04 572.54,-239.11"/>
</g>
<!-- Node54 -->
<g id="node40" class="node">
<title>Node54</title>
<g id="a_node40"><a xlink:href="../../da/d14/classcocos2d_1_1_c_c_particle_spiral.html" target="_top" xlink:title="An spiral particle system.">
<polygon fill="none" stroke="black" points="624.5,-38.5 624.5,-57.5 718.5,-57.5 718.5,-38.5 624.5,-38.5"/>
<text text-anchor="middle" x="671.5" y="-45.5" font-family="Helvetica,sans-Serif" font-size="10.00">CCParticleSpiral</text>
</a>
</g>
</g>
<!-- Node44&#45;&gt;Node54 -->
<g id="edge39" class="edge">
<title>Node44&#45;&gt;Node54</title>
<path fill="none" stroke="midnightblue" d="M575.08,-241.72C576.47,-240.57 577.78,-239.33 579,-238 631.52,-180.79 563.54,-125.17 615,-67 618.44,-63.11 622.71,-60.02 627.35,-57.55"/>
<polygon fill="midnightblue" stroke="midnightblue" points="572.86,-239 566.45,-247.43 576.72,-244.83 572.86,-239"/>
</g>
<!-- Node55 -->
<g id="node41" class="node">
<title>Node55</title>
<g id="a_node41"><a xlink:href="../../d6/da3/classcocos2d_1_1_c_c_particle_sun.html" target="_top" xlink:title="A sun particle system.">
<polygon fill="none" stroke="black" points="629.5,-0.5 629.5,-19.5 713.5,-19.5 713.5,-0.5 629.5,-0.5"/>
<text text-anchor="middle" x="671.5" y="-7.5" font-family="Helvetica,sans-Serif" font-size="10.00">CCParticleSun</text>
</a>
</g>
</g>
<!-- Node44&#45;&gt;Node55 -->
<g id="edge40" class="edge">
<title>Node44&#45;&gt;Node55</title>
<path fill="none" stroke="midnightblue" d="M575.24,-241.71C576.57,-240.56 577.83,-239.32 579,-238 641.45,-167.4 553.86,-100.74 615,-29 618.9,-24.43 623.95,-20.95 629.41,-18.31"/>
<polygon fill="midnightblue" stroke="midnightblue" points="573.18,-238.87 566.9,-247.4 577.13,-244.65 573.18,-238.87"/>
</g>
<!-- Node58 -->
<g id="node44" class="node">
<title>Node58</title>
<g id="a_node44"><a xlink:href="../../d1/dc8/classcocos2d_1_1_c_c_transition_scene.html" target="_top" xlink:title="Base class for CCTransition scenes.">
<polygon fill="none" stroke="red" points="461.5,-209.5 461.5,-228.5 568.5,-228.5 568.5,-209.5 461.5,-209.5"/>
<text text-anchor="middle" x="515" y="-216.5" font-family="Helvetica,sans-Serif" font-size="10.00">CCTransitionScene</text>
</a>
</g>
</g>
<!-- Node57&#45;&gt;Node58 -->
<g id="edge43" class="edge">
<title>Node57&#45;&gt;Node58</title>
<path fill="none" stroke="midnightblue" d="M395.29,-219C415.24,-219 439.85,-219 461.49,-219"/>
<polygon fill="midnightblue" stroke="midnightblue" points="395.02,-215.5 385.02,-219 395.02,-222.5 395.02,-215.5"/>
</g>
<!-- Node95 -->
<g id="node46" class="node">
<title>Node95</title>
<g id="a_node46"><a xlink:href="../../dc/dfb/classcocos2d_1_1_c_c_label_b_m_font.html" target="_top" xlink:title="CCLabelBMFont is a subclass of CCSpriteBatchNode.">
<polygon fill="none" stroke="black" points="468.5,-171.5 468.5,-190.5 561.5,-190.5 561.5,-171.5 468.5,-171.5"/>
<text text-anchor="middle" x="515" y="-178.5" font-family="Helvetica,sans-Serif" font-size="10.00">CCLabelBMFont</text>
</a>
</g>
</g>
<!-- Node94&#45;&gt;Node95 -->
<g id="edge45" class="edge">
<title>Node94&#45;&gt;Node95</title>
<path fill="none" stroke="midnightblue" d="M421.74,-181C437.39,-181 453.78,-181 468.33,-181"/>
<polygon fill="midnightblue" stroke="midnightblue" points="421.59,-177.5 411.59,-181 421.59,-184.5 421.59,-177.5"/>
</g>
<!-- Node96 -->
<g id="node47" class="node">
<title>Node96</title>
<g id="a_node47"><a xlink:href="../../da/d5a/classcocos2d_1_1_c_c_t_m_x_layer.html" target="_top" xlink:title="CCTMXLayer represents the TMX layer.">
<polygon fill="none" stroke="black" points="475.5,-133.5 475.5,-152.5 554.5,-152.5 554.5,-133.5 475.5,-133.5"/>
<text text-anchor="middle" x="515" y="-140.5" font-family="Helvetica,sans-Serif" font-size="10.00">CCTMXLayer</text>
</a>
</g>
</g>
<!-- Node94&#45;&gt;Node96 -->
<g id="edge46" class="edge">
<title>Node94&#45;&gt;Node96</title>
<path fill="none" stroke="midnightblue" d="M406.22,-169C428.56,-163.62 454.51,-157.35 475.36,-152.32"/>
<polygon fill="midnightblue" stroke="midnightblue" points="405.14,-165.66 396.24,-171.41 406.79,-172.47 405.14,-165.66"/>
</g>
</g>
</svg>
