<?xml version="1.0" encoding="UTF-8" standalone="no"?>
<!DOCTYPE svg PUBLIC "-//W3C//DTD SVG 1.1//EN"
 "http://www.w3.org/Graphics/SVG/1.1/DTD/svg11.dtd">
<!-- Generated by graphviz version 2.43.0 (0)
 -->
<!-- Title: CCRGBAProtocol Pages: 1 -->
<svg width="736pt" height="594pt"
 viewBox="0.00 0.00 736.00 594.00" xmlns="http://www.w3.org/2000/svg" xmlns:xlink="http://www.w3.org/1999/xlink">
<g id="graph0" class="graph" transform="scale(1 1) rotate(0) translate(4 590)">
<title>CCRGBAProtocol</title>
<!-- Node1 -->
<g id="node1" class="node">
<title>Node1</title>
<g id="a_node1"><a xlink:title="RGBA protocol that affects CCNode&#39;s color and opacity NA.">
<polygon fill="#999999" stroke="#666666" points="98,-434 0,-434 0,-415 98,-415 98,-434"/>
<text text-anchor="middle" x="49" y="-422" font-family="Helvetica,sans-Serif" font-size="10.00">CCRGBAProtocol</text>
</a>
</g>
</g>
<!-- Node2 -->
<g id="node2" class="node">
<title>Node2</title>
<g id="a_node2"><a xlink:href="../../dc/dfb/classcocos2d_1_1_c_c_label_b_m_font.html" target="_top" xlink:title="CCLabelBMFont is a subclass of CCSpriteBatchNode.">
<polygon fill="white" stroke="#666666" points="227,-471 134,-471 134,-452 227,-452 227,-471"/>
<text text-anchor="middle" x="180.5" y="-459" font-family="Helvetica,sans-Serif" font-size="10.00">CCLabelBMFont</text>
</a>
</g>
</g>
<!-- Node1&#45;&gt;Node2 -->
<g id="edge1" class="edge">
<title>Node1&#45;&gt;Node2</title>
<path fill="none" stroke="#63b8ff" d="M93.14,-436.83C110.29,-441.73 129.73,-447.28 145.81,-451.88"/>
<polygon fill="#63b8ff" stroke="#63b8ff" points="93.93,-433.41 83.35,-434.03 92,-440.14 93.93,-433.41"/>
</g>
<!-- Node3 -->
<g id="node3" class="node">
<title>Node3</title>
<g id="a_node3"><a xlink:href="../../dd/d1e/classcocos2d_1_1_c_c_layer_r_g_b_a.html" target="_top" xlink:title="CCLayerRGBA is a subclass of CCLayer that implements the CCRGBAProtocol protocol using a solid color ...">
<polygon fill="white" stroke="#666666" points="223,-434 138,-434 138,-415 223,-415 223,-434"/>
<text text-anchor="middle" x="180.5" y="-422" font-family="Helvetica,sans-Serif" font-size="10.00">CCLayerRGBA</text>
</a>
</g>
</g>
<!-- Node1&#45;&gt;Node3 -->
<g id="edge2" class="edge">
<title>Node1&#45;&gt;Node3</title>
<path fill="none" stroke="#63b8ff" d="M108.38,-424.5C118.24,-424.5 128.29,-424.5 137.62,-424.5"/>
<polygon fill="#63b8ff" stroke="#63b8ff" points="108.22,-421 98.22,-424.5 108.22,-428 108.22,-421"/>
</g>
<!-- Node17 -->
<g id="node17" class="node">
<title>Node17</title>
<g id="a_node17"><a xlink:href="../../de/d2e/classcocos2d_1_1_c_c_node_r_g_b_a.html" target="_top" xlink:title="CCNodeRGBA is a subclass of CCNode that implements the CCRGBAProtocol protocol.">
<polygon fill="white" stroke="#666666" points="222,-130 139,-130 139,-111 222,-111 222,-130"/>
<text text-anchor="middle" x="180.5" y="-118" font-family="Helvetica,sans-Serif" font-size="10.00">CCNodeRGBA</text>
</a>
</g>
</g>
<!-- Node1&#45;&gt;Node17 -->
<g id="edge16" class="edge">
<title>Node1&#45;&gt;Node17</title>
<path fill="none" stroke="#63b8ff" d="M58.22,-405.21C83.12,-346.74 157.2,-172.85 175.42,-130.08"/>
<polygon fill="#63b8ff" stroke="#63b8ff" points="54.86,-404.16 54.16,-414.73 61.3,-406.9 54.86,-404.16"/>
</g>
<!-- Node4 -->
<g id="node4" class="node">
<title>Node4</title>
<g id="a_node4"><a xlink:href="../../da/d2c/classcocos2d_1_1_c_c_layer_color.html" target="_top" xlink:title="CCLayerColor is a subclass of CCLayer that implements the CCRGBAProtocol protocol.">
<polygon fill="white" stroke="#666666" points="355,-548 272,-548 272,-529 355,-529 355,-548"/>
<text text-anchor="middle" x="313.5" y="-536" font-family="Helvetica,sans-Serif" font-size="10.00">CCLayerColor</text>
</a>
</g>
</g>
<!-- Node3&#45;&gt;Node4 -->
<g id="edge3" class="edge">
<title>Node3&#45;&gt;Node4</title>
<path fill="none" stroke="#63b8ff" d="M219.02,-438.55C221.8,-440.07 224.5,-441.73 227,-443.5 262.12,-468.4 293.11,-510.12 306.06,-528.86"/>
<polygon fill="#63b8ff" stroke="#63b8ff" points="220.48,-435.36 209.96,-434.1 217.39,-441.65 220.48,-435.36"/>
</g>
<!-- Node6 -->
<g id="node6" class="node">
<title>Node6</title>
<g id="a_node6"><a xlink:href="../../d1/da0/classcocos2d_1_1_c_c_menu.html" target="_top" xlink:title="A CCMenu.">
<polygon fill="white" stroke="#666666" points="342,-453 285,-453 285,-434 342,-434 342,-453"/>
<text text-anchor="middle" x="313.5" y="-441" font-family="Helvetica,sans-Serif" font-size="10.00">CCMenu</text>
</a>
</g>
</g>
<!-- Node3&#45;&gt;Node6 -->
<g id="edge5" class="edge">
<title>Node3&#45;&gt;Node6</title>
<path fill="none" stroke="#63b8ff" d="M233.42,-432.03C250.93,-434.57 269.8,-437.31 284.71,-439.47"/>
<polygon fill="#63b8ff" stroke="#63b8ff" points="233.71,-428.54 223.31,-430.56 232.7,-435.46 233.71,-428.54"/>
</g>
<!-- Node7 -->
<g id="node7" class="node">
<title>Node7</title>
<g id="a_node7"><a xlink:href="../../d4/d38/classcocos2d_1_1extension_1_1_c_c_control.html" target="_top" xlink:title=" ">
<polygon fill="white" stroke="#666666" points="346,-416 281,-416 281,-397 346,-397 346,-416"/>
<text text-anchor="middle" x="313.5" y="-404" font-family="Helvetica,sans-Serif" font-size="10.00">CCControl</text>
</a>
</g>
</g>
<!-- Node3&#45;&gt;Node7 -->
<g id="edge6" class="edge">
<title>Node3&#45;&gt;Node7</title>
<path fill="none" stroke="#63b8ff" d="M233.56,-417.35C249.47,-415.16 266.48,-412.82 280.63,-410.88"/>
<polygon fill="#63b8ff" stroke="#63b8ff" points="232.74,-413.93 223.31,-418.76 233.69,-420.86 232.74,-413.93"/>
</g>
<!-- Node5 -->
<g id="node5" class="node">
<title>Node5</title>
<g id="a_node5"><a xlink:href="../../d9/d19/classcocos2d_1_1_c_c_layer_gradient.html" target="_top" xlink:title="CCLayerGradient is a subclass of CCLayerColor that draws gradients across the background.">
<polygon fill="white" stroke="#666666" points="533,-586 434,-586 434,-567 533,-567 533,-586"/>
<text text-anchor="middle" x="483.5" y="-574" font-family="Helvetica,sans-Serif" font-size="10.00">CCLayerGradient</text>
</a>
</g>
</g>
<!-- Node4&#45;&gt;Node5 -->
<g id="edge4" class="edge">
<title>Node4&#45;&gt;Node5</title>
<path fill="none" stroke="#63b8ff" d="M364.85,-550.41C376.39,-553.1 388.61,-555.93 400,-558.5 412.3,-561.28 425.64,-564.22 437.94,-566.91"/>
<polygon fill="#63b8ff" stroke="#63b8ff" points="365.45,-546.96 354.92,-548.09 363.86,-553.77 365.45,-546.96"/>
</g>
<!-- Node8 -->
<g id="node8" class="node">
<title>Node8</title>
<g id="a_node8"><a xlink:href="../../d5/d52/classcocos2d_1_1extension_1_1_c_c_control_button.html" target="_top" xlink:title="for Cocos2D.">
<polygon fill="white" stroke="#666666" points="532.5,-549 434.5,-549 434.5,-530 532.5,-530 532.5,-549"/>
<text text-anchor="middle" x="483.5" y="-537" font-family="Helvetica,sans-Serif" font-size="10.00">CCControlButton</text>
</a>
</g>
</g>
<!-- Node7&#45;&gt;Node8 -->
<g id="edge7" class="edge">
<title>Node7&#45;&gt;Node8</title>
<path fill="none" stroke="#63b8ff" d="M355.12,-418.62C358.36,-420.58 361.38,-422.86 364,-425.5 396.1,-457.85 365.54,-491.68 400,-521.5 409.53,-529.75 421.97,-534.49 434.29,-537.14"/>
<polygon fill="#63b8ff" stroke="#63b8ff" points="356.7,-415.49 346.19,-414.11 353.54,-421.74 356.7,-415.49"/>
</g>
<!-- Node10 -->
<g id="node10" class="node">
<title>Node10</title>
<g id="a_node10"><a xlink:href="../../d3/def/classcocos2d_1_1extension_1_1_c_c_control_colour_picker.html" target="_top" xlink:title=" ">
<polygon fill="white" stroke="#666666" points="546.5,-512 420.5,-512 420.5,-493 546.5,-493 546.5,-512"/>
<text text-anchor="middle" x="483.5" y="-500" font-family="Helvetica,sans-Serif" font-size="10.00">CCControlColourPicker</text>
</a>
</g>
</g>
<!-- Node7&#45;&gt;Node10 -->
<g id="edge9" class="edge">
<title>Node7&#45;&gt;Node10</title>
<path fill="none" stroke="#63b8ff" d="M355.17,-419.48C358.31,-421.25 361.3,-423.25 364,-425.5 387.6,-445.16 374.98,-466.68 400,-484.5 406.09,-488.84 413.03,-492.16 420.23,-494.7"/>
<polygon fill="#63b8ff" stroke="#63b8ff" points="356.57,-416.27 346.05,-415.04 353.51,-422.56 356.57,-416.27"/>
</g>
<!-- Node11 -->
<g id="node11" class="node">
<title>Node11</title>
<g id="a_node11"><a xlink:href="../../da/de8/classcocos2d_1_1extension_1_1_c_c_control_hue_picker.html" target="_top" xlink:title=" ">
<polygon fill="white" stroke="#666666" points="540.5,-475 426.5,-475 426.5,-456 540.5,-456 540.5,-475"/>
<text text-anchor="middle" x="483.5" y="-463" font-family="Helvetica,sans-Serif" font-size="10.00">CCControlHuePicker</text>
</a>
</g>
</g>
<!-- Node7&#45;&gt;Node11 -->
<g id="edge10" class="edge">
<title>Node7&#45;&gt;Node11</title>
<path fill="none" stroke="#63b8ff" d="M351.43,-419.82C355.72,-421.62 359.99,-423.53 364,-425.5 380.82,-433.78 382.6,-440.52 400,-447.5 408.44,-450.89 417.62,-453.69 426.71,-455.99"/>
<polygon fill="#63b8ff" stroke="#63b8ff" points="352.7,-416.56 342.11,-416.08 350.09,-423.05 352.7,-416.56"/>
</g>
<!-- Node12 -->
<g id="node12" class="node">
<title>Node12</title>
<g id="a_node12"><a xlink:href="../../d8/dfb/classcocos2d_1_1extension_1_1_c_c_control_potentiometer.html" target="_top" xlink:title="for Cocos2D.">
<polygon fill="white" stroke="#666666" points="551,-438 416,-438 416,-419 551,-419 551,-438"/>
<text text-anchor="middle" x="483.5" y="-426" font-family="Helvetica,sans-Serif" font-size="10.00">CCControlPotentiometer</text>
</a>
</g>
</g>
<!-- Node7&#45;&gt;Node12 -->
<g id="edge11" class="edge">
<title>Node7&#45;&gt;Node12</title>
<path fill="none" stroke="#63b8ff" d="M356.26,-411.97C374.27,-414.33 395.78,-417.14 415.9,-419.78"/>
<polygon fill="#63b8ff" stroke="#63b8ff" points="356.47,-408.47 346.1,-410.64 355.56,-415.41 356.47,-408.47"/>
</g>
<!-- Node13 -->
<g id="node13" class="node">
<title>Node13</title>
<g id="a_node13"><a xlink:href="../../d2/d34/classcocos2d_1_1extension_1_1_c_c_control_saturation_brightness_picker.html" target="_top" xlink:title=" ">
<polygon fill="white" stroke="#666666" points="567,-400.5 400,-400.5 400,-370.5 567,-370.5 567,-400.5"/>
<text text-anchor="start" x="408" y="-388.5" font-family="Helvetica,sans-Serif" font-size="10.00">CCControlSaturationBrightness</text>
<text text-anchor="middle" x="483.5" y="-377.5" font-family="Helvetica,sans-Serif" font-size="10.00">Picker</text>
</a>
</g>
</g>
<!-- Node7&#45;&gt;Node13 -->
<g id="edge12" class="edge">
<title>Node7&#45;&gt;Node13</title>
<path fill="none" stroke="#63b8ff" d="M356.26,-401.28C369.48,-399.63 384.59,-397.74 399.66,-395.86"/>
<polygon fill="#63b8ff" stroke="#63b8ff" points="355.59,-397.84 346.1,-402.55 356.46,-404.78 355.59,-397.84"/>
</g>
<!-- Node14 -->
<g id="node14" class="node">
<title>Node14</title>
<g id="a_node14"><a xlink:href="../../d1/d6f/classcocos2d_1_1extension_1_1_c_c_control_slider.html" target="_top" xlink:title=" ">
<polygon fill="white" stroke="#666666" points="530,-352 437,-352 437,-333 530,-333 530,-352"/>
<text text-anchor="middle" x="483.5" y="-340" font-family="Helvetica,sans-Serif" font-size="10.00">CCControlSlider</text>
</a>
</g>
</g>
<!-- Node7&#45;&gt;Node14 -->
<g id="edge13" class="edge">
<title>Node7&#45;&gt;Node14</title>
<path fill="none" stroke="#63b8ff" d="M338.75,-391.57C355.45,-381.84 378.44,-369.5 400,-361.5 411.71,-357.15 424.74,-353.6 436.92,-350.79"/>
<polygon fill="#63b8ff" stroke="#63b8ff" points="336.51,-388.83 329.7,-396.95 340.08,-394.85 336.51,-388.83"/>
</g>
<!-- Node15 -->
<g id="node15" class="node">
<title>Node15</title>
<g id="a_node15"><a xlink:href="../../d7/d7a/classcocos2d_1_1extension_1_1_c_c_control_stepper.html" target="_top" xlink:title=" ">
<polygon fill="white" stroke="#666666" points="535,-315 432,-315 432,-296 535,-296 535,-315"/>
<text text-anchor="middle" x="483.5" y="-303" font-family="Helvetica,sans-Serif" font-size="10.00">CCControlStepper</text>
</a>
</g>
</g>
<!-- Node7&#45;&gt;Node15 -->
<g id="edge14" class="edge">
<title>Node7&#45;&gt;Node15</title>
<path fill="none" stroke="#63b8ff" d="M327.94,-388.86C343.29,-369.99 370.17,-340.62 400,-324.5 409.7,-319.26 420.79,-315.46 431.64,-312.7"/>
<polygon fill="#63b8ff" stroke="#63b8ff" points="325.01,-386.92 321.55,-396.94 330.5,-391.27 325.01,-386.92"/>
</g>
<!-- Node16 -->
<g id="node16" class="node">
<title>Node16</title>
<g id="a_node16"><a xlink:href="../../d9/dd1/classcocos2d_1_1extension_1_1_c_c_control_switch.html" target="_top" xlink:title="for Cocos2D.">
<polygon fill="white" stroke="#666666" points="532.5,-278 434.5,-278 434.5,-259 532.5,-259 532.5,-278"/>
<text text-anchor="middle" x="483.5" y="-266" font-family="Helvetica,sans-Serif" font-size="10.00">CCControlSwitch</text>
</a>
</g>
</g>
<!-- Node7&#45;&gt;Node16 -->
<g id="edge15" class="edge">
<title>Node7&#45;&gt;Node16</title>
<path fill="none" stroke="#63b8ff" d="M322.72,-387.62C335.33,-360.97 362.04,-312.75 400,-287.5 410.16,-280.74 422.4,-276.37 434.31,-273.55"/>
<polygon fill="#63b8ff" stroke="#63b8ff" points="319.41,-386.44 318.45,-396.99 325.78,-389.34 319.41,-386.44"/>
</g>
<!-- Node9 -->
<g id="node9" class="node">
<title>Node9</title>
<g id="a_node9"><a xlink:href="../../d7/dc3/classcocos2d_1_1extension_1_1_c_c_edit_box.html" target="_top" xlink:title="Class for edit box.">
<polygon fill="white" stroke="#666666" points="699.5,-549 631.5,-549 631.5,-530 699.5,-530 699.5,-549"/>
<text text-anchor="middle" x="665.5" y="-537" font-family="Helvetica,sans-Serif" font-size="10.00">CCEditBox</text>
</a>
</g>
</g>
<!-- Node8&#45;&gt;Node9 -->
<g id="edge8" class="edge">
<title>Node8&#45;&gt;Node9</title>
<path fill="none" stroke="#63b8ff" d="M542.85,-539.5C572.12,-539.5 606.5,-539.5 631.23,-539.5"/>
<polygon fill="#63b8ff" stroke="#63b8ff" points="542.74,-536 532.74,-539.5 542.74,-543 542.74,-536"/>
</g>
<!-- Node18 -->
<g id="node18" class="node">
<title>Node18</title>
<g id="a_node18"><a xlink:href="../../d7/d70/classcocos2d_1_1_c_c_atlas_node.html" target="_top" xlink:title="CCAtlasNode is a subclass of CCNode that implements the CCRGBAProtocol and CCTextureProtocol protocol...">
<polygon fill="white" stroke="#666666" points="353.5,-204 273.5,-204 273.5,-185 353.5,-185 353.5,-204"/>
<text text-anchor="middle" x="313.5" y="-192" font-family="Helvetica,sans-Serif" font-size="10.00">CCAtlasNode</text>
</a>
</g>
</g>
<!-- Node17&#45;&gt;Node18 -->
<g id="edge17" class="edge">
<title>Node17&#45;&gt;Node18</title>
<path fill="none" stroke="#63b8ff" d="M201.38,-136.29C217.35,-148.43 240.72,-165.03 263,-176.5 269.1,-179.64 275.87,-182.48 282.4,-184.94"/>
<polygon fill="#63b8ff" stroke="#63b8ff" points="203.37,-133.4 193.32,-130.06 199.09,-138.94 203.37,-133.4"/>
</g>
<!-- Node21 -->
<g id="node21" class="node">
<title>Node21</title>
<g id="a_node21"><a xlink:href="../../d3/ddc/classcocos2d_1_1_c_c_menu_item.html" target="_top" xlink:title="CCMenuItem base class.">
<polygon fill="white" stroke="#666666" points="353.5,-167 273.5,-167 273.5,-148 353.5,-148 353.5,-167"/>
<text text-anchor="middle" x="313.5" y="-155" font-family="Helvetica,sans-Serif" font-size="10.00">CCMenuItem</text>
</a>
</g>
</g>
<!-- Node17&#45;&gt;Node21 -->
<g id="edge20" class="edge">
<title>Node17&#45;&gt;Node21</title>
<path fill="none" stroke="#63b8ff" d="M225.14,-132.83C242.49,-137.73 262.15,-143.28 278.42,-147.88"/>
<polygon fill="#63b8ff" stroke="#63b8ff" points="225.81,-129.38 215.24,-130.03 223.91,-136.11 225.81,-129.38"/>
</g>
<!-- Node28 -->
<g id="node28" class="node">
<title>Node28</title>
<g id="a_node28"><a xlink:href="../../d9/d38/classcocos2d_1_1_c_c_motion_streak.html" target="_top" xlink:title="MotionStreak.">
<polygon fill="white" stroke="#666666" points="361,-130 266,-130 266,-111 361,-111 361,-130"/>
<text text-anchor="middle" x="313.5" y="-118" font-family="Helvetica,sans-Serif" font-size="10.00">CCMotionStreak</text>
</a>
</g>
</g>
<!-- Node17&#45;&gt;Node28 -->
<g id="edge27" class="edge">
<title>Node17&#45;&gt;Node28</title>
<path fill="none" stroke="#63b8ff" d="M232.53,-120.5C243.5,-120.5 255.05,-120.5 265.84,-120.5"/>
<polygon fill="#63b8ff" stroke="#63b8ff" points="232.23,-117 222.23,-120.5 232.23,-124 232.23,-117"/>
</g>
<!-- Node29 -->
<g id="node29" class="node">
<title>Node29</title>
<g id="a_node29"><a xlink:href="../../dc/db9/classcocos2d_1_1_c_c_progress_timer.html" target="_top" xlink:title="CCProgressTimer is a subclass of CCNode.">
<polygon fill="white" stroke="#666666" points="364,-93 263,-93 263,-74 364,-74 364,-93"/>
<text text-anchor="middle" x="313.5" y="-81" font-family="Helvetica,sans-Serif" font-size="10.00">CCProgressTimer</text>
</a>
</g>
</g>
<!-- Node17&#45;&gt;Node29 -->
<g id="edge28" class="edge">
<title>Node17&#45;&gt;Node29</title>
<path fill="none" stroke="#63b8ff" d="M225.14,-108.17C242.49,-103.27 262.15,-97.72 278.42,-93.12"/>
<polygon fill="#63b8ff" stroke="#63b8ff" points="223.91,-104.89 215.24,-110.97 225.81,-111.62 223.91,-104.89"/>
</g>
<!-- Node30 -->
<g id="node30" class="node">
<title>Node30</title>
<g id="a_node30"><a xlink:href="../../d4/de7/classcocos2d_1_1_c_c_sprite.html" target="_top" xlink:title="CCSprite is a 2d image ( http://en.wikipedia.org/wiki/Sprite_(computer_graphics) )">
<polygon fill="white" stroke="#666666" points="343,-56 284,-56 284,-37 343,-37 343,-56"/>
<text text-anchor="middle" x="313.5" y="-44" font-family="Helvetica,sans-Serif" font-size="10.00">CCSprite</text>
</a>
</g>
</g>
<!-- Node17&#45;&gt;Node30 -->
<g id="edge29" class="edge">
<title>Node17&#45;&gt;Node30</title>
<path fill="none" stroke="#63b8ff" d="M201.38,-104.71C217.35,-92.57 240.72,-75.97 263,-64.5 269.59,-61.11 276.96,-58.06 283.96,-55.48"/>
<polygon fill="#63b8ff" stroke="#63b8ff" points="199.09,-102.06 193.32,-110.94 203.37,-107.6 199.09,-102.06"/>
</g>
<!-- Node33 -->
<g id="node33" class="node">
<title>Node33</title>
<g id="a_node33"><a xlink:href="../../d7/d8b/classcocos2d_1_1extension_1_1_c_c_scale9_sprite.html" target="_top" xlink:title="A 9&#45;slice sprite for cocos2d.">
<polygon fill="white" stroke="#666666" points="359,-19 268,-19 268,0 359,0 359,-19"/>
<text text-anchor="middle" x="313.5" y="-7" font-family="Helvetica,sans-Serif" font-size="10.00">CCScale9Sprite</text>
</a>
</g>
</g>
<!-- Node17&#45;&gt;Node33 -->
<g id="edge32" class="edge">
<title>Node17&#45;&gt;Node33</title>
<path fill="none" stroke="#63b8ff" d="M193.16,-102.39C207.36,-81.65 233.19,-47.89 263,-27.5 267.91,-24.14 273.51,-21.33 279.15,-19"/>
<polygon fill="#63b8ff" stroke="#63b8ff" points="190.11,-100.65 187.48,-110.92 195.94,-104.54 190.11,-100.65"/>
</g>
<!-- Node19 -->
<g id="node19" class="node">
<title>Node19</title>
<g id="a_node19"><a xlink:href="../../d7/d84/classcocos2d_1_1_c_c_label_atlas.html" target="_top" xlink:title="CCLabelAtlas is a subclass of CCAtlasNode.">
<polygon fill="white" stroke="#666666" points="524,-241 443,-241 443,-222 524,-222 524,-241"/>
<text text-anchor="middle" x="483.5" y="-229" font-family="Helvetica,sans-Serif" font-size="10.00">CCLabelAtlas</text>
</a>
</g>
</g>
<!-- Node18&#45;&gt;Node19 -->
<g id="edge18" class="edge">
<title>Node18&#45;&gt;Node19</title>
<path fill="none" stroke="#63b8ff" d="M363.46,-205.42C375.42,-208.07 388.17,-210.89 400,-213.5 413.89,-216.56 429.1,-219.88 442.63,-222.83"/>
<polygon fill="#63b8ff" stroke="#63b8ff" points="364.17,-201.99 353.65,-203.23 362.65,-208.82 364.17,-201.99"/>
</g>
<!-- Node20 -->
<g id="node20" class="node">
<title>Node20</title>
<g id="a_node20"><a xlink:href="../../d2/d8b/classcocos2d_1_1_c_c_tile_map_atlas.html" target="_top" xlink:title="CCTileMapAtlas is a subclass of CCAtlasNode.">
<polygon fill="white" stroke="#666666" points="530.5,-204 436.5,-204 436.5,-185 530.5,-185 530.5,-204"/>
<text text-anchor="middle" x="483.5" y="-192" font-family="Helvetica,sans-Serif" font-size="10.00">CCTileMapAtlas</text>
</a>
</g>
</g>
<!-- Node18&#45;&gt;Node20 -->
<g id="edge19" class="edge">
<title>Node18&#45;&gt;Node20</title>
<path fill="none" stroke="#63b8ff" d="M364.05,-194.5C386.88,-194.5 413.8,-194.5 436.21,-194.5"/>
<polygon fill="#63b8ff" stroke="#63b8ff" points="363.89,-191 353.89,-194.5 363.89,-198 363.89,-191"/>
</g>
<!-- Node22 -->
<g id="node22" class="node">
<title>Node22</title>
<g id="a_node22"><a xlink:href="../../d3/dc3/classcocos2d_1_1_c_c_menu_item_label.html" target="_top" xlink:title="An abstract class for &quot;label&quot; CCMenuItemLabel items Any CCNode that supports the CCLabelProtocol prot...">
<polygon fill="white" stroke="#666666" points="536.5,-167 430.5,-167 430.5,-148 536.5,-148 536.5,-167"/>
<text text-anchor="middle" x="483.5" y="-155" font-family="Helvetica,sans-Serif" font-size="10.00">CCMenuItemLabel</text>
</a>
</g>
</g>
<!-- Node21&#45;&gt;Node22 -->
<g id="edge21" class="edge">
<title>Node21&#45;&gt;Node22</title>
<path fill="none" stroke="#63b8ff" d="M364.13,-157.5C384.96,-157.5 409.21,-157.5 430.31,-157.5"/>
<polygon fill="#63b8ff" stroke="#63b8ff" points="363.89,-154 353.89,-157.5 363.89,-161 363.89,-154"/>
</g>
<!-- Node25 -->
<g id="node25" class="node">
<title>Node25</title>
<g id="a_node25"><a xlink:href="../../db/dbd/classcocos2d_1_1_c_c_menu_item_sprite.html" target="_top" xlink:title="CCMenuItemSprite accepts CCNode&lt;CCRGBAProtocol&gt; objects as items.">
<polygon fill="white" stroke="#666666" points="537.5,-130 429.5,-130 429.5,-111 537.5,-111 537.5,-130"/>
<text text-anchor="middle" x="483.5" y="-118" font-family="Helvetica,sans-Serif" font-size="10.00">CCMenuItemSprite</text>
</a>
</g>
</g>
<!-- Node21&#45;&gt;Node25 -->
<g id="edge24" class="edge">
<title>Node21&#45;&gt;Node25</title>
<path fill="none" stroke="#63b8ff" d="M363.83,-146.64C387.73,-141.37 416.18,-135.11 439.23,-130.03"/>
<polygon fill="#63b8ff" stroke="#63b8ff" points="362.9,-143.26 353.89,-148.83 364.41,-150.09 362.9,-143.26"/>
</g>
<!-- Node27 -->
<g id="node27" class="node">
<title>Node27</title>
<g id="a_node27"><a xlink:href="../../dd/dd3/classcocos2d_1_1_c_c_menu_item_toggle.html" target="_top" xlink:title="A CCMenuItemToggle A simple container class that &quot;toggles&quot; it&#39;s inner items The inner items can be an...">
<polygon fill="white" stroke="#666666" points="539,-93 428,-93 428,-74 539,-74 539,-93"/>
<text text-anchor="middle" x="483.5" y="-81" font-family="Helvetica,sans-Serif" font-size="10.00">CCMenuItemToggle</text>
</a>
</g>
</g>
<!-- Node21&#45;&gt;Node27 -->
<g id="edge26" class="edge">
<title>Node21&#45;&gt;Node27</title>
<path fill="none" stroke="#63b8ff" d="M356.38,-143.85C359.02,-142.51 361.59,-141.06 364,-139.5 383.27,-127.04 380.01,-113.76 400,-102.5 408.45,-97.74 418.03,-94.17 427.59,-91.5"/>
<polygon fill="#63b8ff" stroke="#63b8ff" points="354.87,-140.69 347.19,-147.99 357.74,-147.07 354.87,-140.69"/>
</g>
<!-- Node23 -->
<g id="node23" class="node">
<title>Node23</title>
<g id="a_node23"><a xlink:href="../../d4/dc6/classcocos2d_1_1_c_c_menu_item_atlas_font.html" target="_top" xlink:title="A CCMenuItemAtlasFont Helper class that creates a MenuItemLabel class with a LabelAtlas.">
<polygon fill="white" stroke="#666666" points="728,-204 603,-204 603,-185 728,-185 728,-204"/>
<text text-anchor="middle" x="665.5" y="-192" font-family="Helvetica,sans-Serif" font-size="10.00">CCMenuItemAtlasFont</text>
</a>
</g>
</g>
<!-- Node22&#45;&gt;Node23 -->
<g id="edge22" class="edge">
<title>Node22&#45;&gt;Node23</title>
<path fill="none" stroke="#63b8ff" d="M540.85,-169.08C565.66,-174.18 594.44,-180.1 617.99,-184.94"/>
<polygon fill="#63b8ff" stroke="#63b8ff" points="541.35,-165.61 530.85,-167.03 539.94,-172.47 541.35,-165.61"/>
</g>
<!-- Node24 -->
<g id="node24" class="node">
<title>Node24</title>
<g id="a_node24"><a xlink:href="../../d0/d45/classcocos2d_1_1_c_c_menu_item_font.html" target="_top" xlink:title="A CCMenuItemFont Helper class that creates a CCMenuItemLabel class with a Label.">
<polygon fill="white" stroke="#666666" points="716,-167 615,-167 615,-148 716,-148 716,-167"/>
<text text-anchor="middle" x="665.5" y="-155" font-family="Helvetica,sans-Serif" font-size="10.00">CCMenuItemFont</text>
</a>
</g>
</g>
<!-- Node22&#45;&gt;Node24 -->
<g id="edge23" class="edge">
<title>Node22&#45;&gt;Node24</title>
<path fill="none" stroke="#63b8ff" d="M546.59,-157.5C568.85,-157.5 593.64,-157.5 614.72,-157.5"/>
<polygon fill="#63b8ff" stroke="#63b8ff" points="546.56,-154 536.56,-157.5 546.56,-161 546.56,-154"/>
</g>
<!-- Node26 -->
<g id="node26" class="node">
<title>Node26</title>
<g id="a_node26"><a xlink:href="../../d0/d4f/classcocos2d_1_1_c_c_menu_item_image.html" target="_top" xlink:title="CCMenuItemImage accepts images as items.">
<polygon fill="white" stroke="#666666" points="720.5,-130 610.5,-130 610.5,-111 720.5,-111 720.5,-130"/>
<text text-anchor="middle" x="665.5" y="-118" font-family="Helvetica,sans-Serif" font-size="10.00">CCMenuItemImage</text>
</a>
</g>
</g>
<!-- Node25&#45;&gt;Node26 -->
<g id="edge25" class="edge">
<title>Node25&#45;&gt;Node26</title>
<path fill="none" stroke="#63b8ff" d="M547.69,-120.5C568.12,-120.5 590.57,-120.5 610.29,-120.5"/>
<polygon fill="#63b8ff" stroke="#63b8ff" points="547.53,-117 537.53,-120.5 547.53,-124 547.53,-117"/>
</g>
<!-- Node31 -->
<g id="node31" class="node">
<title>Node31</title>
<g id="a_node31"><a xlink:href="../../df/d72/classcocos2d_1_1_c_c_label_t_t_f.html" target="_top" xlink:title="CCLabelTTF is a subclass of CCTextureNode that knows how to render text labels.">
<polygon fill="white" stroke="#666666" points="520.5,-56 446.5,-56 446.5,-37 520.5,-37 520.5,-56"/>
<text text-anchor="middle" x="483.5" y="-44" font-family="Helvetica,sans-Serif" font-size="10.00">CCLabelTTF</text>
</a>
</g>
</g>
<!-- Node30&#45;&gt;Node31 -->
<g id="edge30" class="edge">
<title>Node30&#45;&gt;Node31</title>
<path fill="none" stroke="#63b8ff" d="M353.62,-46.5C381.63,-46.5 419.09,-46.5 446.4,-46.5"/>
<polygon fill="#63b8ff" stroke="#63b8ff" points="353.38,-43 343.38,-46.5 353.38,-50 353.38,-43"/>
</g>
<!-- Node32 -->
<g id="node32" class="node">
<title>Node32</title>
<g id="a_node32"><a xlink:href="../../d4/d5b/classcocos2d_1_1_c_c_text_field_t_t_f.html" target="_top" xlink:title="A simple text input field with TTF font.">
<polygon fill="white" stroke="#666666" points="711.5,-56 619.5,-56 619.5,-37 711.5,-37 711.5,-56"/>
<text text-anchor="middle" x="665.5" y="-44" font-family="Helvetica,sans-Serif" font-size="10.00">CCTextFieldTTF</text>
</a>
</g>
</g>
<!-- Node31&#45;&gt;Node32 -->
<g id="edge31" class="edge">
<title>Node31&#45;&gt;Node32</title>
<path fill="none" stroke="#63b8ff" d="M530.96,-46.5C558.11,-46.5 592.23,-46.5 619.18,-46.5"/>
<polygon fill="#63b8ff" stroke="#63b8ff" points="530.93,-43 520.93,-46.5 530.93,-50 530.93,-43"/>
</g>
</g>
</svg>
