<?xml version="1.0" encoding="UTF-8" standalone="no"?>
<!DOCTYPE svg PUBLIC "-//W3C//DTD SVG 1.1//EN"
 "http://www.w3.org/Graphics/SVG/1.1/DTD/svg11.dtd">
<!-- Generated by graphviz version 2.43.0 (0)
 -->
<!-- Title: /home/runner/work/cocos&#45;headers/cocos&#45;headers/cocos2dx/tilemap_parallax_nodes/CCTMXXMLParser.h Pages: 1 -->
<svg width="2303pt" height="851pt"
 viewBox="0.00 0.00 2302.50 851.00" xmlns="http://www.w3.org/2000/svg" xmlns:xlink="http://www.w3.org/1999/xlink">
<g id="graph0" class="graph" transform="scale(1 1) rotate(0) translate(4 847)">
<title>/home/runner/work/cocos&#45;headers/cocos&#45;headers/cocos2dx/tilemap_parallax_nodes/CCTMXXMLParser.h</title>
<!-- Node1 -->
<g id="node1" class="node">
<title>Node1</title>
<g id="a_node1"><a xlink:title="Internal TMX parser.">
<polygon fill="#bfbfbf" stroke="black" points="564.5,-790.5 564.5,-842.5 715.5,-842.5 715.5,-790.5 564.5,-790.5"/>
<text text-anchor="start" x="572.5" y="-830.5" font-family="Helvetica,sans-Serif" font-size="10.00">/home/runner/work/cocos</text>
<text text-anchor="start" x="572.5" y="-819.5" font-family="Helvetica,sans-Serif" font-size="10.00">&#45;headers/cocos&#45;headers</text>
<text text-anchor="start" x="572.5" y="-808.5" font-family="Helvetica,sans-Serif" font-size="10.00">/cocos2dx/tilemap_parallax</text>
<text text-anchor="middle" x="640" y="-797.5" font-family="Helvetica,sans-Serif" font-size="10.00">_nodes/CCTMXXMLParser.h</text>
</a>
</g>
</g>
<!-- Node2 -->
<g id="node2" class="node">
<title>Node2</title>
<g id="a_node2"><a xlink:href="../../dc/dfd/cocos2d_8h.html" target="_top" xlink:title=" ">
<polygon fill="none" stroke="black" points="562.5,-623.5 562.5,-664.5 717.5,-664.5 717.5,-623.5 562.5,-623.5"/>
<text text-anchor="start" x="570.5" y="-652.5" font-family="Helvetica,sans-Serif" font-size="10.00">/home/runner/work/cocos</text>
<text text-anchor="start" x="570.5" y="-641.5" font-family="Helvetica,sans-Serif" font-size="10.00">&#45;headers/cocos&#45;headers</text>
<text text-anchor="middle" x="640" y="-630.5" font-family="Helvetica,sans-Serif" font-size="10.00">/cocos2dx/include/cocos2d.h</text>
</a>
</g>
</g>
<!-- Node1&#45;&gt;Node2 -->
<g id="edge1" class="edge">
<title>Node1&#45;&gt;Node2</title>
<path fill="none" stroke="midnightblue" d="M617.89,-781.37C613.4,-772.77 609.34,-763.32 607,-754 601.26,-731.15 600.8,-723.73 607,-701 610.56,-687.94 618.04,-674.81 624.97,-664.56"/>
<polygon fill="midnightblue" stroke="midnightblue" points="614.95,-783.29 622.86,-790.33 621.07,-779.89 614.95,-783.29"/>
</g>
<!-- Node32 -->
<g id="node32" class="node">
<title>Node32</title>
<g id="a_node32"><a xlink:href="../../db/d60/_c_c_t_m_x_layer_8h.html" target="_top" xlink:title=" ">
<polygon fill="none" stroke="black" points="616.5,-701.5 616.5,-753.5 767.5,-753.5 767.5,-701.5 616.5,-701.5"/>
<text text-anchor="start" x="624.5" y="-741.5" font-family="Helvetica,sans-Serif" font-size="10.00">/home/runner/work/cocos</text>
<text text-anchor="start" x="624.5" y="-730.5" font-family="Helvetica,sans-Serif" font-size="10.00">&#45;headers/cocos&#45;headers</text>
<text text-anchor="start" x="624.5" y="-719.5" font-family="Helvetica,sans-Serif" font-size="10.00">/cocos2dx/tilemap_parallax</text>
<text text-anchor="middle" x="692" y="-708.5" font-family="Helvetica,sans-Serif" font-size="10.00">_nodes/CCTMXLayer.h</text>
</a>
</g>
</g>
<!-- Node1&#45;&gt;Node32 -->
<g id="edge59" class="edge">
<title>Node1&#45;&gt;Node32</title>
<path fill="none" stroke="midnightblue" d="M660.24,-781.64C665.82,-772.31 671.77,-762.35 676.99,-753.61"/>
<polygon fill="midnightblue" stroke="midnightblue" points="657.17,-779.96 655.04,-790.34 663.18,-783.55 657.17,-779.96"/>
</g>
<!-- Node3 -->
<g id="node3" class="node">
<title>Node3</title>
<g id="a_node3"><a xlink:href="../../d4/d5d/_d_s___dictionary_8h.html" target="_top" xlink:title=" ">
<polygon fill="none" stroke="black" points="0,-534.5 0,-586.5 140,-586.5 140,-534.5 0,-534.5"/>
<text text-anchor="start" x="8" y="-574.5" font-family="Helvetica,sans-Serif" font-size="10.00">/home/runner/work/cocos</text>
<text text-anchor="start" x="8" y="-563.5" font-family="Helvetica,sans-Serif" font-size="10.00">&#45;headers/cocos&#45;headers</text>
<text text-anchor="start" x="8" y="-552.5" font-family="Helvetica,sans-Serif" font-size="10.00">/cocos2dx/robtop/xml/DS</text>
<text text-anchor="middle" x="70" y="-541.5" font-family="Helvetica,sans-Serif" font-size="10.00">_Dictionary.h</text>
</a>
</g>
</g>
<!-- Node2&#45;&gt;Node3 -->
<g id="edge2" class="edge">
<title>Node2&#45;&gt;Node3</title>
<path fill="none" stroke="midnightblue" d="M552.31,-638.68C451.65,-632.34 282.29,-617.76 140,-587 139.3,-586.85 138.59,-586.69 137.88,-586.53"/>
<polygon fill="midnightblue" stroke="midnightblue" points="552.24,-642.19 562.44,-639.31 552.67,-635.2 552.24,-642.19"/>
</g>
<!-- Node4 -->
<g id="node4" class="node">
<title>Node4</title>
<g id="a_node4"><a xlink:href="../../d3/db7/_assets_manager_8h.html" target="_top" xlink:title=" ">
<polygon fill="none" stroke="black" points="158.5,-534.5 158.5,-586.5 309.5,-586.5 309.5,-534.5 158.5,-534.5"/>
<text text-anchor="start" x="166.5" y="-574.5" font-family="Helvetica,sans-Serif" font-size="10.00">/home/runner/work/cocos</text>
<text text-anchor="start" x="166.5" y="-563.5" font-family="Helvetica,sans-Serif" font-size="10.00">&#45;headers/cocos&#45;headers</text>
<text text-anchor="start" x="166.5" y="-552.5" font-family="Helvetica,sans-Serif" font-size="10.00">/extensions/AssetsManager</text>
<text text-anchor="middle" x="234" y="-541.5" font-family="Helvetica,sans-Serif" font-size="10.00">/AssetsManager.h</text>
</a>
</g>
</g>
<!-- Node2&#45;&gt;Node4 -->
<g id="edge4" class="edge">
<title>Node2&#45;&gt;Node4</title>
<path fill="none" stroke="midnightblue" d="M552.28,-629.89C488.6,-619.78 400.54,-604.58 324,-587 319.41,-585.95 314.7,-584.8 309.97,-583.61"/>
<polygon fill="midnightblue" stroke="midnightblue" points="551.87,-633.36 562.29,-631.47 552.96,-626.45 551.87,-633.36"/>
</g>
<!-- Node5 -->
<g id="node5" class="node">
<title>Node5</title>
<g id="a_node5"><a xlink:href="../../de/d8b/_c_c_control_8h.html" target="_top" xlink:title=" ">
<polygon fill="none" stroke="black" points="1266,-534.5 1266,-586.5 1460,-586.5 1460,-534.5 1266,-534.5"/>
<text text-anchor="start" x="1274" y="-574.5" font-family="Helvetica,sans-Serif" font-size="10.00">/home/runner/work/cocos</text>
<text text-anchor="start" x="1274" y="-563.5" font-family="Helvetica,sans-Serif" font-size="10.00">&#45;headers/cocos&#45;headers</text>
<text text-anchor="start" x="1274" y="-552.5" font-family="Helvetica,sans-Serif" font-size="10.00">/extensions/GUI/CCControlExtension</text>
<text text-anchor="middle" x="1363" y="-541.5" font-family="Helvetica,sans-Serif" font-size="10.00">/CCControl.h</text>
</a>
</g>
</g>
<!-- Node2&#45;&gt;Node5 -->
<g id="edge5" class="edge">
<title>Node2&#45;&gt;Node5</title>
<path fill="none" stroke="midnightblue" d="M727.69,-633.12C863.69,-617.78 1124.52,-588.38 1265.99,-572.43"/>
<polygon fill="midnightblue" stroke="midnightblue" points="727.26,-629.64 717.72,-634.24 728.05,-636.6 727.26,-629.64"/>
</g>
<!-- Node8 -->
<g id="node8" class="node">
<title>Node8</title>
<g id="a_node8"><a xlink:href="../../dc/d4a/_c_c_edit_box_8h.html" target="_top" xlink:title=" ">
<polygon fill="none" stroke="black" points="946,-178.5 946,-230.5 1094,-230.5 1094,-178.5 946,-178.5"/>
<text text-anchor="start" x="954" y="-218.5" font-family="Helvetica,sans-Serif" font-size="10.00">/home/runner/work/cocos</text>
<text text-anchor="start" x="954" y="-207.5" font-family="Helvetica,sans-Serif" font-size="10.00">&#45;headers/cocos&#45;headers</text>
<text text-anchor="start" x="954" y="-196.5" font-family="Helvetica,sans-Serif" font-size="10.00">/extensions/GUI/CCEditBox</text>
<text text-anchor="middle" x="1020" y="-185.5" font-family="Helvetica,sans-Serif" font-size="10.00">/CCEditBox.h</text>
</a>
</g>
</g>
<!-- Node2&#45;&gt;Node8 -->
<g id="edge38" class="edge">
<title>Node2&#45;&gt;Node8</title>
<path fill="none" stroke="midnightblue" d="M637.66,-613.47C634.81,-557.16 636.45,-433.15 697,-356 758.68,-277.4 871.09,-238.08 945.67,-219.75"/>
<polygon fill="midnightblue" stroke="midnightblue" points="634.17,-613.71 638.26,-623.49 641.16,-613.3 634.17,-613.71"/>
</g>
<!-- Node9 -->
<g id="node9" class="node">
<title>Node9</title>
<g id="a_node9"><a xlink:href="../../db/da9/_c_c_edit_box_impl_8h.html" target="_top" xlink:title=" ">
<polygon fill="none" stroke="black" points="442,-89.5 442,-141.5 590,-141.5 590,-89.5 442,-89.5"/>
<text text-anchor="start" x="450" y="-129.5" font-family="Helvetica,sans-Serif" font-size="10.00">/home/runner/work/cocos</text>
<text text-anchor="start" x="450" y="-118.5" font-family="Helvetica,sans-Serif" font-size="10.00">&#45;headers/cocos&#45;headers</text>
<text text-anchor="start" x="450" y="-107.5" font-family="Helvetica,sans-Serif" font-size="10.00">/extensions/GUI/CCEditBox</text>
<text text-anchor="middle" x="516" y="-96.5" font-family="Helvetica,sans-Serif" font-size="10.00">/CCEditBoxImpl.h</text>
</a>
</g>
</g>
<!-- Node2&#45;&gt;Node9 -->
<g id="edge39" class="edge">
<title>Node2&#45;&gt;Node9</title>
<path fill="none" stroke="midnightblue" d="M609.44,-616.26C577.51,-585.2 532,-530.73 532,-472.5 532,-472.5 532,-472.5 532,-292.5 532,-238.5 524.44,-175.56 519.71,-141.5"/>
<polygon fill="midnightblue" stroke="midnightblue" points="607.17,-618.93 616.83,-623.27 611.98,-613.85 607.17,-618.93"/>
</g>
<!-- Node10 -->
<g id="node10" class="node">
<title>Node10</title>
<g id="a_node10"><a xlink:href="../../d4/dd3/_c_c_edit_box_impl_android_8h.html" target="_top" xlink:title=" ">
<polygon fill="none" stroke="black" points="8,-0.5 8,-52.5 156,-52.5 156,-0.5 8,-0.5"/>
<text text-anchor="start" x="16" y="-40.5" font-family="Helvetica,sans-Serif" font-size="10.00">/home/runner/work/cocos</text>
<text text-anchor="start" x="16" y="-29.5" font-family="Helvetica,sans-Serif" font-size="10.00">&#45;headers/cocos&#45;headers</text>
<text text-anchor="start" x="16" y="-18.5" font-family="Helvetica,sans-Serif" font-size="10.00">/extensions/GUI/CCEditBox</text>
<text text-anchor="middle" x="82" y="-7.5" font-family="Helvetica,sans-Serif" font-size="10.00">/CCEditBoxImplAndroid.h</text>
</a>
</g>
</g>
<!-- Node2&#45;&gt;Node10 -->
<g id="edge40" class="edge">
<title>Node2&#45;&gt;Node10</title>
<path fill="none" stroke="midnightblue" d="M552.17,-632.65C488.48,-623.54 409.26,-608.37 384,-587 342.13,-551.58 338,-527.34 338,-472.5 338,-472.5 338,-472.5 338,-203.5 338,-155.23 212.84,-88.41 137.55,-52.59"/>
<polygon fill="midnightblue" stroke="midnightblue" points="551.86,-636.14 562.25,-634.06 552.83,-629.21 551.86,-636.14"/>
</g>
<!-- Node11 -->
<g id="node11" class="node">
<title>Node11</title>
<g id="a_node11"><a xlink:href="../../dd/dfd/_c_c_edit_box_impl_i_o_s_8h.html" target="_top" xlink:title=" ">
<polygon fill="none" stroke="black" points="174,-0.5 174,-52.5 322,-52.5 322,-0.5 174,-0.5"/>
<text text-anchor="start" x="182" y="-40.5" font-family="Helvetica,sans-Serif" font-size="10.00">/home/runner/work/cocos</text>
<text text-anchor="start" x="182" y="-29.5" font-family="Helvetica,sans-Serif" font-size="10.00">&#45;headers/cocos&#45;headers</text>
<text text-anchor="start" x="182" y="-18.5" font-family="Helvetica,sans-Serif" font-size="10.00">/extensions/GUI/CCEditBox</text>
<text text-anchor="middle" x="248" y="-7.5" font-family="Helvetica,sans-Serif" font-size="10.00">/CCEditBoxImplIOS.h</text>
</a>
</g>
</g>
<!-- Node2&#45;&gt;Node11 -->
<g id="edge41" class="edge">
<title>Node2&#45;&gt;Node11</title>
<path fill="none" stroke="midnightblue" d="M552.39,-635.42C512.69,-628.18 467.31,-614.14 434,-587 389.78,-550.97 376,-529.55 376,-472.5 376,-472.5 376,-472.5 376,-203.5 376,-151.51 382.28,-131.27 352,-89 341.19,-73.91 325.42,-61.9 309.42,-52.65"/>
<polygon fill="midnightblue" stroke="midnightblue" points="551.9,-638.89 562.34,-637.12 553.07,-631.99 551.9,-638.89"/>
</g>
<!-- Node12 -->
<g id="node12" class="node">
<title>Node12</title>
<g id="a_node12"><a xlink:href="../../d7/d4d/_c_c_edit_box_impl_mac_8h.html" target="_top" xlink:title=" ">
<polygon fill="none" stroke="black" points="340,-0.5 340,-52.5 488,-52.5 488,-0.5 340,-0.5"/>
<text text-anchor="start" x="348" y="-40.5" font-family="Helvetica,sans-Serif" font-size="10.00">/home/runner/work/cocos</text>
<text text-anchor="start" x="348" y="-29.5" font-family="Helvetica,sans-Serif" font-size="10.00">&#45;headers/cocos&#45;headers</text>
<text text-anchor="start" x="348" y="-18.5" font-family="Helvetica,sans-Serif" font-size="10.00">/extensions/GUI/CCEditBox</text>
<text text-anchor="middle" x="414" y="-7.5" font-family="Helvetica,sans-Serif" font-size="10.00">/CCEditBoxImplMac.h</text>
</a>
</g>
</g>
<!-- Node2&#45;&gt;Node12 -->
<g id="edge42" class="edge">
<title>Node2&#45;&gt;Node12</title>
<path fill="none" stroke="midnightblue" d="M562.38,-619.96C496.98,-595.19 414,-548.74 414,-472.5 414,-472.5 414,-472.5 414,-203.5 414,-149.72 414,-86.7 414,-52.57"/>
<polygon fill="midnightblue" stroke="midnightblue" points="561.29,-623.29 571.89,-623.45 563.71,-616.72 561.29,-623.29"/>
</g>
<!-- Node13 -->
<g id="node13" class="node">
<title>Node13</title>
<g id="a_node13"><a xlink:href="../../de/dac/_c_c_edit_box_impl_tizen_8h.html" target="_top" xlink:title=" ">
<polygon fill="none" stroke="black" points="672,-0.5 672,-52.5 820,-52.5 820,-0.5 672,-0.5"/>
<text text-anchor="start" x="680" y="-40.5" font-family="Helvetica,sans-Serif" font-size="10.00">/home/runner/work/cocos</text>
<text text-anchor="start" x="680" y="-29.5" font-family="Helvetica,sans-Serif" font-size="10.00">&#45;headers/cocos&#45;headers</text>
<text text-anchor="start" x="680" y="-18.5" font-family="Helvetica,sans-Serif" font-size="10.00">/extensions/GUI/CCEditBox</text>
<text text-anchor="middle" x="746" y="-7.5" font-family="Helvetica,sans-Serif" font-size="10.00">/CCEditBoxImplTizen.h</text>
</a>
</g>
</g>
<!-- Node2&#45;&gt;Node13 -->
<g id="edge43" class="edge">
<title>Node2&#45;&gt;Node13</title>
<path fill="none" stroke="midnightblue" d="M629.36,-613.72C618.12,-580.1 602,-523.07 602,-472.5 602,-472.5 602,-472.5 602,-381.5 602,-250.29 569.4,-198.29 642,-89 652.1,-73.8 667.34,-61.83 683.07,-52.64"/>
<polygon fill="midnightblue" stroke="midnightblue" points="626.12,-615.04 632.67,-623.37 632.74,-612.77 626.12,-615.04"/>
</g>
<!-- Node14 -->
<g id="node14" class="node">
<title>Node14</title>
<g id="a_node14"><a xlink:href="../../dd/d41/_c_c_edit_box_impl_win_8h.html" target="_top" xlink:title=" ">
<polygon fill="none" stroke="black" points="838,-0.5 838,-52.5 986,-52.5 986,-0.5 838,-0.5"/>
<text text-anchor="start" x="846" y="-40.5" font-family="Helvetica,sans-Serif" font-size="10.00">/home/runner/work/cocos</text>
<text text-anchor="start" x="846" y="-29.5" font-family="Helvetica,sans-Serif" font-size="10.00">&#45;headers/cocos&#45;headers</text>
<text text-anchor="start" x="846" y="-18.5" font-family="Helvetica,sans-Serif" font-size="10.00">/extensions/GUI/CCEditBox</text>
<text text-anchor="middle" x="912" y="-7.5" font-family="Helvetica,sans-Serif" font-size="10.00">/CCEditBoxImplWin.h</text>
</a>
</g>
</g>
<!-- Node2&#45;&gt;Node14 -->
<g id="edge44" class="edge">
<title>Node2&#45;&gt;Node14</title>
<path fill="none" stroke="midnightblue" d="M642.14,-613.35C646.79,-560.06 660.52,-445.31 697,-356 747.52,-232.33 846.71,-105.47 890.43,-52.8"/>
<polygon fill="midnightblue" stroke="midnightblue" points="638.64,-613.21 641.3,-623.46 645.62,-613.79 638.64,-613.21"/>
</g>
<!-- Node25 -->
<g id="node25" class="node">
<title>Node25</title>
<g id="a_node25"><a xlink:href="../../db/d24/_c_c_scale9_sprite_8h.html" target="_top" xlink:title=" ">
<polygon fill="none" stroke="black" points="1581,-534.5 1581,-586.5 1775,-586.5 1775,-534.5 1581,-534.5"/>
<text text-anchor="start" x="1589" y="-574.5" font-family="Helvetica,sans-Serif" font-size="10.00">/home/runner/work/cocos</text>
<text text-anchor="start" x="1589" y="-563.5" font-family="Helvetica,sans-Serif" font-size="10.00">&#45;headers/cocos&#45;headers</text>
<text text-anchor="start" x="1589" y="-552.5" font-family="Helvetica,sans-Serif" font-size="10.00">/extensions/GUI/CCControlExtension</text>
<text text-anchor="middle" x="1678" y="-541.5" font-family="Helvetica,sans-Serif" font-size="10.00">/CCScale9Sprite.h</text>
</a>
</g>
</g>
<!-- Node2&#45;&gt;Node25 -->
<g id="edge35" class="edge">
<title>Node2&#45;&gt;Node25</title>
<path fill="none" stroke="midnightblue" d="M727.71,-638.63C879.13,-630.75 1199.29,-612.54 1469,-587 1505.57,-583.54 1545.64,-578.86 1580.82,-574.46"/>
<polygon fill="midnightblue" stroke="midnightblue" points="727.35,-635.15 717.55,-639.16 727.71,-642.14 727.35,-635.15"/>
</g>
<!-- Node26 -->
<g id="node26" class="node">
<title>Node26</title>
<g id="a_node26"><a xlink:href="../../de/d56/_c_c_scroll_view_8h.html" target="_top" xlink:title=" ">
<polygon fill="none" stroke="black" points="1738.5,-267.5 1738.5,-319.5 1899.5,-319.5 1899.5,-267.5 1738.5,-267.5"/>
<text text-anchor="start" x="1746.5" y="-307.5" font-family="Helvetica,sans-Serif" font-size="10.00">/home/runner/work/cocos</text>
<text text-anchor="start" x="1746.5" y="-296.5" font-family="Helvetica,sans-Serif" font-size="10.00">&#45;headers/cocos&#45;headers</text>
<text text-anchor="start" x="1746.5" y="-285.5" font-family="Helvetica,sans-Serif" font-size="10.00">/extensions/GUI/CCScrollView</text>
<text text-anchor="middle" x="1819" y="-274.5" font-family="Helvetica,sans-Serif" font-size="10.00">/CCScrollView.h</text>
</a>
</g>
</g>
<!-- Node2&#45;&gt;Node26 -->
<g id="edge45" class="edge">
<title>Node2&#45;&gt;Node26</title>
<path fill="none" stroke="midnightblue" d="M727.9,-643.06C979.81,-642.64 1692.23,-636.99 1784,-587 1809.45,-573.13 1804.86,-557.37 1822,-534 1833.83,-517.87 1842.68,-516.97 1849,-498 1869.67,-436 1845.46,-358.65 1829.97,-319.58"/>
<polygon fill="midnightblue" stroke="midnightblue" points="727.68,-639.56 717.69,-643.08 727.69,-646.56 727.68,-639.56"/>
</g>
<!-- Node28 -->
<g id="node28" class="node">
<title>Node28</title>
<g id="a_node28"><a xlink:href="../../d8/d12/_http_client_8h.html" target="_top" xlink:title=" ">
<polygon fill="none" stroke="black" points="1955.5,-362 1955.5,-403 2132.5,-403 2132.5,-362 1955.5,-362"/>
<text text-anchor="start" x="1963.5" y="-391" font-family="Helvetica,sans-Serif" font-size="10.00">/home/runner/work/cocos</text>
<text text-anchor="start" x="1963.5" y="-380" font-family="Helvetica,sans-Serif" font-size="10.00">&#45;headers/cocos&#45;headers</text>
<text text-anchor="middle" x="2044" y="-369" font-family="Helvetica,sans-Serif" font-size="10.00">/extensions/network/HttpClient.h</text>
</a>
</g>
</g>
<!-- Node2&#45;&gt;Node28 -->
<g id="edge49" class="edge">
<title>Node2&#45;&gt;Node28</title>
<path fill="none" stroke="midnightblue" d="M727.88,-642.63C1025.74,-640.97 1981.1,-632.14 2028,-587 2078.3,-538.58 2060.66,-444.17 2049.86,-403.23"/>
<polygon fill="midnightblue" stroke="midnightblue" points="727.55,-639.13 717.57,-642.69 727.59,-646.13 727.55,-639.13"/>
</g>
<!-- Node29 -->
<g id="node29" class="node">
<title>Node29</title>
<g id="a_node29"><a xlink:href="../../d3/d95/_http_request_8h.html" target="_top" xlink:title=" ">
<polygon fill="none" stroke="black" points="1831,-540 1831,-581 2019,-581 2019,-540 1831,-540"/>
<text text-anchor="start" x="1839" y="-569" font-family="Helvetica,sans-Serif" font-size="10.00">/home/runner/work/cocos</text>
<text text-anchor="start" x="1839" y="-558" font-family="Helvetica,sans-Serif" font-size="10.00">&#45;headers/cocos&#45;headers</text>
<text text-anchor="middle" x="1925" y="-547" font-family="Helvetica,sans-Serif" font-size="10.00">/extensions/network/HttpRequest.h</text>
</a>
</g>
</g>
<!-- Node2&#45;&gt;Node29 -->
<g id="edge51" class="edge">
<title>Node2&#45;&gt;Node29</title>
<path fill="none" stroke="midnightblue" d="M727.96,-640.92C963.84,-635 1606.78,-616.56 1817,-587 1827.78,-585.48 1839.06,-583.4 1850.1,-581.06"/>
<polygon fill="midnightblue" stroke="midnightblue" points="727.63,-637.42 717.72,-641.17 727.8,-644.42 727.63,-637.42"/>
</g>
<!-- Node30 -->
<g id="node30" class="node">
<title>Node30</title>
<g id="a_node30"><a xlink:href="../../d1/d33/_http_response_8h.html" target="_top" xlink:title=" ">
<polygon fill="none" stroke="black" points="2072,-451 2072,-492 2268,-492 2268,-451 2072,-451"/>
<text text-anchor="start" x="2080" y="-480" font-family="Helvetica,sans-Serif" font-size="10.00">/home/runner/work/cocos</text>
<text text-anchor="start" x="2080" y="-469" font-family="Helvetica,sans-Serif" font-size="10.00">&#45;headers/cocos&#45;headers</text>
<text text-anchor="middle" x="2170" y="-458" font-family="Helvetica,sans-Serif" font-size="10.00">/extensions/network/HttpResponse.h</text>
</a>
</g>
</g>
<!-- Node2&#45;&gt;Node30 -->
<g id="edge57" class="edge">
<title>Node2&#45;&gt;Node30</title>
<path fill="none" stroke="midnightblue" d="M728.08,-641.5C1029.01,-636.12 2001.18,-616.54 2061,-587 2088.45,-573.45 2084.07,-556.34 2105,-534 2118.7,-519.38 2135.1,-503.88 2148,-492.09"/>
<polygon fill="midnightblue" stroke="midnightblue" points="727.59,-638.01 717.66,-641.69 727.72,-645.01 727.59,-638.01"/>
</g>
<!-- Node31 -->
<g id="node31" class="node">
<title>Node31</title>
<g id="a_node31"><a xlink:href="../../da/d1e/_web_socket_8h.html" target="_top" xlink:title=" ">
<polygon fill="none" stroke="black" points="2113.5,-540 2113.5,-581 2294.5,-581 2294.5,-540 2113.5,-540"/>
<text text-anchor="start" x="2121.5" y="-569" font-family="Helvetica,sans-Serif" font-size="10.00">/home/runner/work/cocos</text>
<text text-anchor="start" x="2121.5" y="-558" font-family="Helvetica,sans-Serif" font-size="10.00">&#45;headers/cocos&#45;headers</text>
<text text-anchor="middle" x="2204" y="-547" font-family="Helvetica,sans-Serif" font-size="10.00">/extensions/network/WebSocket.h</text>
</a>
</g>
</g>
<!-- Node2&#45;&gt;Node31 -->
<g id="edge58" class="edge">
<title>Node2&#45;&gt;Node31</title>
<path fill="none" stroke="midnightblue" d="M727.94,-641.93C1000.99,-638.24 1831.91,-624.18 2099,-587 2109.68,-585.51 2120.86,-583.41 2131.78,-581.04"/>
<polygon fill="midnightblue" stroke="midnightblue" points="727.63,-638.43 717.68,-642.07 727.73,-645.43 727.63,-638.43"/>
</g>
<!-- Node3&#45;&gt;Node2 -->
<g id="edge3" class="edge">
<title>Node3&#45;&gt;Node2</title>
<path fill="none" stroke="midnightblue" d="M150.06,-585.16C152.73,-585.82 155.38,-586.43 158,-587 298.88,-617.45 466.31,-632.05 562.23,-638.49"/>
<polygon fill="midnightblue" stroke="midnightblue" points="150.87,-581.75 140.31,-582.61 149.1,-588.52 150.87,-581.75"/>
</g>
<!-- Node6 -->
<g id="node6" class="node">
<title>Node6</title>
<g id="a_node6"><a xlink:href="../../d0/d7e/_c_c_control_button_8h.html" target="_top" xlink:title=" ">
<polygon fill="none" stroke="black" points="1630,-445.5 1630,-497.5 1824,-497.5 1824,-445.5 1630,-445.5"/>
<text text-anchor="start" x="1638" y="-485.5" font-family="Helvetica,sans-Serif" font-size="10.00">/home/runner/work/cocos</text>
<text text-anchor="start" x="1638" y="-474.5" font-family="Helvetica,sans-Serif" font-size="10.00">&#45;headers/cocos&#45;headers</text>
<text text-anchor="start" x="1638" y="-463.5" font-family="Helvetica,sans-Serif" font-size="10.00">/extensions/GUI/CCControlExtension</text>
<text text-anchor="middle" x="1727" y="-452.5" font-family="Helvetica,sans-Serif" font-size="10.00">/CCControlButton.h</text>
</a>
</g>
</g>
<!-- Node5&#45;&gt;Node6 -->
<g id="edge6" class="edge">
<title>Node5&#45;&gt;Node6</title>
<path fill="none" stroke="midnightblue" d="M1470.06,-533.91C1520.66,-521.82 1580.62,-507.49 1629.89,-495.71"/>
<polygon fill="midnightblue" stroke="midnightblue" points="1468.98,-530.57 1460.07,-536.3 1470.61,-537.38 1468.98,-530.57"/>
</g>
<!-- Node7 -->
<g id="node7" class="node">
<title>Node7</title>
<g id="a_node7"><a xlink:href="../../d6/d86/_c_c_control_extensions_8h.html" target="_top" xlink:title=" ">
<polygon fill="none" stroke="black" points="1274,-267.5 1274,-319.5 1468,-319.5 1468,-267.5 1274,-267.5"/>
<text text-anchor="start" x="1282" y="-307.5" font-family="Helvetica,sans-Serif" font-size="10.00">/home/runner/work/cocos</text>
<text text-anchor="start" x="1282" y="-296.5" font-family="Helvetica,sans-Serif" font-size="10.00">&#45;headers/cocos&#45;headers</text>
<text text-anchor="start" x="1282" y="-285.5" font-family="Helvetica,sans-Serif" font-size="10.00">/extensions/GUI/CCControlExtension</text>
<text text-anchor="middle" x="1371" y="-274.5" font-family="Helvetica,sans-Serif" font-size="10.00">/CCControlExtensions.h</text>
</a>
</g>
</g>
<!-- Node5&#45;&gt;Node7 -->
<g id="edge20" class="edge">
<title>Node5&#45;&gt;Node7</title>
<path fill="none" stroke="midnightblue" d="M1255.75,-554.92C1105.53,-547.39 847.53,-529.94 819,-498 803.31,-480.43 805.79,-464.51 819,-445 843.15,-409.33 875.09,-435.57 909,-409 931.81,-391.12 922.24,-371.06 947,-356 1000.3,-323.58 1165.81,-307.24 1273.58,-299.83"/>
<polygon fill="midnightblue" stroke="midnightblue" points="1255.77,-558.43 1265.93,-555.42 1256.12,-551.43 1255.77,-558.43"/>
</g>
<!-- Node17 -->
<g id="node17" class="node">
<title>Node17</title>
<g id="a_node17"><a xlink:href="../../d3/db7/_c_c_control_colour_picker_8h.html" target="_top" xlink:title=" ">
<polygon fill="none" stroke="black" points="956,-356.5 956,-408.5 1150,-408.5 1150,-356.5 956,-356.5"/>
<text text-anchor="start" x="964" y="-396.5" font-family="Helvetica,sans-Serif" font-size="10.00">/home/runner/work/cocos</text>
<text text-anchor="start" x="964" y="-385.5" font-family="Helvetica,sans-Serif" font-size="10.00">&#45;headers/cocos&#45;headers</text>
<text text-anchor="start" x="964" y="-374.5" font-family="Helvetica,sans-Serif" font-size="10.00">/extensions/GUI/CCControlExtension</text>
<text text-anchor="middle" x="1053" y="-363.5" font-family="Helvetica,sans-Serif" font-size="10.00">/CCControlColourPicker.h</text>
</a>
</g>
</g>
<!-- Node5&#45;&gt;Node17 -->
<g id="edge18" class="edge">
<title>Node5&#45;&gt;Node17</title>
<path fill="none" stroke="midnightblue" d="M1438.72,-529.09C1450.84,-520.83 1461.75,-510.58 1469,-498 1480.76,-477.59 1484.67,-462.59 1469,-445 1422.88,-393.21 1227.28,-421.13 1159,-409 1156.11,-408.49 1153.18,-407.94 1150.23,-407.37"/>
<polygon fill="midnightblue" stroke="midnightblue" points="1436.75,-526.19 1430.17,-534.49 1440.5,-532.11 1436.75,-526.19"/>
</g>
<!-- Node18 -->
<g id="node18" class="node">
<title>Node18</title>
<g id="a_node18"><a xlink:href="../../dd/d5a/_c_c_control_hue_picker_8h.html" target="_top" xlink:title=" ">
<polygon fill="none" stroke="black" points="828,-445.5 828,-497.5 1022,-497.5 1022,-445.5 828,-445.5"/>
<text text-anchor="start" x="836" y="-485.5" font-family="Helvetica,sans-Serif" font-size="10.00">/home/runner/work/cocos</text>
<text text-anchor="start" x="836" y="-474.5" font-family="Helvetica,sans-Serif" font-size="10.00">&#45;headers/cocos&#45;headers</text>
<text text-anchor="start" x="836" y="-463.5" font-family="Helvetica,sans-Serif" font-size="10.00">/extensions/GUI/CCControlExtension</text>
<text text-anchor="middle" x="925" y="-452.5" font-family="Helvetica,sans-Serif" font-size="10.00">/CCControlHuePicker.h</text>
</a>
</g>
</g>
<!-- Node5&#45;&gt;Node18 -->
<g id="edge21" class="edge">
<title>Node5&#45;&gt;Node18</title>
<path fill="none" stroke="midnightblue" d="M1255.88,-541.14C1190.7,-529.6 1105.85,-513.92 1031,-498 1028.13,-497.39 1025.22,-496.76 1022.28,-496.11"/>
<polygon fill="midnightblue" stroke="midnightblue" points="1255.31,-544.59 1265.76,-542.88 1256.52,-537.7 1255.31,-544.59"/>
</g>
<!-- Node19 -->
<g id="node19" class="node">
<title>Node19</title>
<g id="a_node19"><a xlink:href="../../d2/d29/_c_c_control_potentiometer_8h.html" target="_top" xlink:title=" ">
<polygon fill="none" stroke="black" points="1168,-356.5 1168,-408.5 1362,-408.5 1362,-356.5 1168,-356.5"/>
<text text-anchor="start" x="1176" y="-396.5" font-family="Helvetica,sans-Serif" font-size="10.00">/home/runner/work/cocos</text>
<text text-anchor="start" x="1176" y="-385.5" font-family="Helvetica,sans-Serif" font-size="10.00">&#45;headers/cocos&#45;headers</text>
<text text-anchor="start" x="1176" y="-374.5" font-family="Helvetica,sans-Serif" font-size="10.00">/extensions/GUI/CCControlExtension</text>
<text text-anchor="middle" x="1265" y="-363.5" font-family="Helvetica,sans-Serif" font-size="10.00">/CCControlPotentiometer.h</text>
</a>
</g>
</g>
<!-- Node5&#45;&gt;Node19 -->
<g id="edge23" class="edge">
<title>Node5&#45;&gt;Node19</title>
<path fill="none" stroke="midnightblue" d="M1468.4,-529.33C1481.68,-521.23 1493.56,-510.97 1502,-498 1514.85,-478.26 1516.41,-463.63 1502,-445 1499.68,-442.01 1426.51,-423.29 1362.08,-407.28"/>
<polygon fill="midnightblue" stroke="midnightblue" points="1466.48,-526.39 1459.49,-534.35 1469.92,-532.49 1466.48,-526.39"/>
</g>
<!-- Node20 -->
<g id="node20" class="node">
<title>Node20</title>
<g id="a_node20"><a xlink:href="../../de/d08/_c_c_control_saturation_brightness_picker_8h.html" target="_top" xlink:title=" ">
<polygon fill="none" stroke="black" points="1040,-445.5 1040,-497.5 1248,-497.5 1248,-445.5 1040,-445.5"/>
<text text-anchor="start" x="1048" y="-485.5" font-family="Helvetica,sans-Serif" font-size="10.00">/home/runner/work/cocos</text>
<text text-anchor="start" x="1048" y="-474.5" font-family="Helvetica,sans-Serif" font-size="10.00">&#45;headers/cocos&#45;headers</text>
<text text-anchor="start" x="1048" y="-463.5" font-family="Helvetica,sans-Serif" font-size="10.00">/extensions/GUI/CCControlExtension</text>
<text text-anchor="middle" x="1144" y="-452.5" font-family="Helvetica,sans-Serif" font-size="10.00">/CCControlSaturationBrightnessPicker.h</text>
</a>
</g>
</g>
<!-- Node5&#45;&gt;Node20 -->
<g id="edge25" class="edge">
<title>Node5&#45;&gt;Node20</title>
<path fill="none" stroke="midnightblue" d="M1290.55,-530.72C1263.52,-519.98 1233.09,-507.89 1206.98,-497.52"/>
<polygon fill="midnightblue" stroke="midnightblue" points="1289.36,-534.01 1299.95,-534.45 1291.95,-527.51 1289.36,-534.01"/>
</g>
<!-- Node21 -->
<g id="node21" class="node">
<title>Node21</title>
<g id="a_node21"><a xlink:href="../../d6/d7e/_c_c_control_slider_8h.html" target="_top" xlink:title=" ">
<polygon fill="none" stroke="black" points="1380,-356.5 1380,-408.5 1574,-408.5 1574,-356.5 1380,-356.5"/>
<text text-anchor="start" x="1388" y="-396.5" font-family="Helvetica,sans-Serif" font-size="10.00">/home/runner/work/cocos</text>
<text text-anchor="start" x="1388" y="-385.5" font-family="Helvetica,sans-Serif" font-size="10.00">&#45;headers/cocos&#45;headers</text>
<text text-anchor="start" x="1388" y="-374.5" font-family="Helvetica,sans-Serif" font-size="10.00">/extensions/GUI/CCControlExtension</text>
<text text-anchor="middle" x="1477" y="-363.5" font-family="Helvetica,sans-Serif" font-size="10.00">/CCControlSlider.h</text>
</a>
</g>
</g>
<!-- Node5&#45;&gt;Node21 -->
<g id="edge27" class="edge">
<title>Node5&#45;&gt;Node21</title>
<path fill="none" stroke="midnightblue" d="M1469.56,-538.08C1489.81,-529.05 1508.54,-516.23 1521,-498 1539.99,-470.23 1518.78,-433.12 1499.76,-408.78"/>
<polygon fill="midnightblue" stroke="midnightblue" points="1468.07,-534.9 1460.17,-541.96 1470.75,-541.37 1468.07,-534.9"/>
</g>
<!-- Node22 -->
<g id="node22" class="node">
<title>Node22</title>
<g id="a_node22"><a xlink:href="../../de/dba/_c_c_control_stepper_8h.html" target="_top" xlink:title=" ">
<polygon fill="none" stroke="black" points="1592,-356.5 1592,-408.5 1786,-408.5 1786,-356.5 1592,-356.5"/>
<text text-anchor="start" x="1600" y="-396.5" font-family="Helvetica,sans-Serif" font-size="10.00">/home/runner/work/cocos</text>
<text text-anchor="start" x="1600" y="-385.5" font-family="Helvetica,sans-Serif" font-size="10.00">&#45;headers/cocos&#45;headers</text>
<text text-anchor="start" x="1600" y="-374.5" font-family="Helvetica,sans-Serif" font-size="10.00">/extensions/GUI/CCControlExtension</text>
<text text-anchor="middle" x="1689" y="-363.5" font-family="Helvetica,sans-Serif" font-size="10.00">/CCControlStepper.h</text>
</a>
</g>
</g>
<!-- Node5&#45;&gt;Node22 -->
<g id="edge29" class="edge">
<title>Node5&#45;&gt;Node22</title>
<path fill="none" stroke="midnightblue" d="M1460.95,-531.09C1486.7,-522.02 1513.98,-510.91 1538,-498 1584.8,-472.84 1632.64,-433.85 1661.59,-408.5"/>
<polygon fill="midnightblue" stroke="midnightblue" points="1459.48,-527.89 1451.17,-534.47 1461.76,-534.51 1459.48,-527.89"/>
</g>
<!-- Node23 -->
<g id="node23" class="node">
<title>Node23</title>
<g id="a_node23"><a xlink:href="../../de/dc7/_c_c_control_switch_8h.html" target="_top" xlink:title=" ">
<polygon fill="none" stroke="black" points="706,-356.5 706,-408.5 900,-408.5 900,-356.5 706,-356.5"/>
<text text-anchor="start" x="714" y="-396.5" font-family="Helvetica,sans-Serif" font-size="10.00">/home/runner/work/cocos</text>
<text text-anchor="start" x="714" y="-385.5" font-family="Helvetica,sans-Serif" font-size="10.00">&#45;headers/cocos&#45;headers</text>
<text text-anchor="start" x="714" y="-374.5" font-family="Helvetica,sans-Serif" font-size="10.00">/extensions/GUI/CCControlExtension</text>
<text text-anchor="middle" x="803" y="-363.5" font-family="Helvetica,sans-Serif" font-size="10.00">/CCControlSwitch.h</text>
</a>
</g>
</g>
<!-- Node5&#45;&gt;Node23 -->
<g id="edge31" class="edge">
<title>Node5&#45;&gt;Node23</title>
<path fill="none" stroke="midnightblue" d="M1255.52,-555.67C1097.24,-548.9 816.75,-532.2 786,-498 764.23,-473.79 776.82,-434.37 789,-408.68"/>
<polygon fill="midnightblue" stroke="midnightblue" points="1255.63,-559.18 1265.77,-556.1 1255.92,-552.18 1255.63,-559.18"/>
</g>
<!-- Node24 -->
<g id="node24" class="node">
<title>Node24</title>
<g id="a_node24"><a xlink:href="../../d8/dec/_color_picker_delegate_8h.html" target="_top" xlink:title=" ">
<polygon fill="none" stroke="black" points="1266,-445.5 1266,-497.5 1460,-497.5 1460,-445.5 1266,-445.5"/>
<text text-anchor="start" x="1274" y="-485.5" font-family="Helvetica,sans-Serif" font-size="10.00">/home/runner/work/cocos</text>
<text text-anchor="start" x="1274" y="-474.5" font-family="Helvetica,sans-Serif" font-size="10.00">&#45;headers/cocos&#45;headers</text>
<text text-anchor="start" x="1274" y="-463.5" font-family="Helvetica,sans-Serif" font-size="10.00">/extensions/GUI/CCControlExtension</text>
<text text-anchor="middle" x="1363" y="-452.5" font-family="Helvetica,sans-Serif" font-size="10.00">/ColorPickerDelegate.h</text>
</a>
</g>
</g>
<!-- Node5&#45;&gt;Node24 -->
<g id="edge33" class="edge">
<title>Node5&#45;&gt;Node24</title>
<path fill="none" stroke="midnightblue" d="M1363,-524.19C1363,-515.28 1363,-505.9 1363,-497.61"/>
<polygon fill="midnightblue" stroke="midnightblue" points="1359.5,-524.34 1363,-534.34 1366.5,-524.34 1359.5,-524.34"/>
</g>
<!-- Node6&#45;&gt;Node7 -->
<g id="edge7" class="edge">
<title>Node6&#45;&gt;Node7</title>
<path fill="none" stroke="midnightblue" d="M1773.1,-438.63C1781.99,-430.12 1790.06,-420.14 1795,-409 1804.56,-387.47 1810.41,-373.81 1795,-356 1753.63,-308.19 1580.23,-296.76 1468.39,-294.47"/>
<polygon fill="midnightblue" stroke="midnightblue" points="1770.62,-436.15 1765.5,-445.43 1775.29,-441.37 1770.62,-436.15"/>
</g>
<!-- Node7&#45;&gt;Node8 -->
<g id="edge8" class="edge">
<title>Node7&#45;&gt;Node8</title>
<path fill="none" stroke="midnightblue" d="M1263.91,-265.96C1208.95,-252.33 1143.38,-236.08 1094.07,-223.86"/>
<polygon fill="midnightblue" stroke="midnightblue" points="1263.14,-269.37 1273.69,-268.38 1264.83,-262.58 1263.14,-269.37"/>
</g>
<!-- Node16 -->
<g id="node16" class="node">
<title>Node16</title>
<g id="a_node16"><a xlink:href="../../d3/d58/cocos-ext_8h.html" target="_top" xlink:title=" ">
<polygon fill="none" stroke="black" points="1820,-95 1820,-136 1960,-136 1960,-95 1820,-95"/>
<text text-anchor="start" x="1828" y="-124" font-family="Helvetica,sans-Serif" font-size="10.00">/home/runner/work/cocos</text>
<text text-anchor="start" x="1828" y="-113" font-family="Helvetica,sans-Serif" font-size="10.00">&#45;headers/cocos&#45;headers</text>
<text text-anchor="middle" x="1890" y="-102" font-family="Helvetica,sans-Serif" font-size="10.00">/extensions/cocos&#45;ext.h</text>
</a>
</g>
</g>
<!-- Node7&#45;&gt;Node16 -->
<g id="edge17" class="edge">
<title>Node7&#45;&gt;Node16</title>
<path fill="none" stroke="midnightblue" d="M1448.4,-263.88C1513.22,-240.15 1608.31,-205.91 1692,-178 1736.05,-163.31 1785.98,-147.81 1824.68,-136.04"/>
<polygon fill="midnightblue" stroke="midnightblue" points="1446.85,-260.72 1438.66,-267.44 1449.25,-267.29 1446.85,-260.72"/>
</g>
<!-- Node8&#45;&gt;Node9 -->
<g id="edge9" class="edge">
<title>Node8&#45;&gt;Node9</title>
<path fill="none" stroke="midnightblue" d="M935.89,-188.98C839.37,-172.32 682.56,-145.25 590.35,-129.33"/>
<polygon fill="midnightblue" stroke="midnightblue" points="935.45,-192.46 945.9,-190.71 936.65,-185.56 935.45,-192.46"/>
</g>
<!-- Node8&#45;&gt;Node16 -->
<g id="edge16" class="edge">
<title>Node8&#45;&gt;Node16</title>
<path fill="none" stroke="midnightblue" d="M1104.15,-195.09C1275.35,-177.97 1661.38,-139.36 1819.97,-123.5"/>
<polygon fill="midnightblue" stroke="midnightblue" points="1103.78,-191.6 1094.18,-196.08 1104.47,-198.57 1103.78,-191.6"/>
</g>
<!-- Node9&#45;&gt;Node10 -->
<g id="edge10" class="edge">
<title>Node9&#45;&gt;Node10</title>
<path fill="none" stroke="midnightblue" d="M431.97,-101.02C344.78,-86.8 214.38,-64.86 165,-53 162.07,-52.3 159.09,-51.55 156.09,-50.76"/>
<polygon fill="midnightblue" stroke="midnightblue" points="431.42,-104.47 441.86,-102.62 432.55,-97.56 431.42,-104.47"/>
</g>
<!-- Node9&#45;&gt;Node11 -->
<g id="edge11" class="edge">
<title>Node9&#45;&gt;Node11</title>
<path fill="none" stroke="midnightblue" d="M431.96,-87.22C396.87,-75.83 356.44,-62.7 322.44,-51.67"/>
<polygon fill="midnightblue" stroke="midnightblue" points="431.11,-90.62 441.7,-90.38 433.27,-83.96 431.11,-90.62"/>
</g>
<!-- Node9&#45;&gt;Node12 -->
<g id="edge12" class="edge">
<title>Node9&#45;&gt;Node12</title>
<path fill="none" stroke="midnightblue" d="M478.66,-82.65C467.05,-72.75 454.42,-61.98 443.44,-52.61"/>
<polygon fill="midnightblue" stroke="midnightblue" points="476.62,-85.51 486.5,-89.34 481.16,-80.18 476.62,-85.51"/>
</g>
<!-- Node9&#45;&gt;Node13 -->
<g id="edge13" class="edge">
<title>Node9&#45;&gt;Node13</title>
<path fill="none" stroke="midnightblue" d="M591.72,-85.86C620.19,-75.09 652.32,-62.94 679.85,-52.52"/>
<polygon fill="midnightblue" stroke="midnightblue" points="590.33,-82.64 582.22,-89.45 592.81,-89.19 590.33,-82.64"/>
</g>
<!-- Node9&#45;&gt;Node14 -->
<g id="edge14" class="edge">
<title>Node9&#45;&gt;Node14</title>
<path fill="none" stroke="midnightblue" d="M600.32,-97.32C614.24,-94.52 628.52,-91.66 642,-89 725.03,-72.61 746.87,-73.46 829,-53 831.93,-52.27 834.9,-51.5 837.9,-50.7"/>
<polygon fill="midnightblue" stroke="midnightblue" points="599.37,-93.94 590.26,-99.35 600.76,-100.8 599.37,-93.94"/>
</g>
<!-- Node15 -->
<g id="node15" class="node">
<title>Node15</title>
<g id="a_node15"><a xlink:href="../../d4/d91/_c_c_edit_box_impl_wp8_8h.html" target="_top" xlink:title=" ">
<polygon fill="none" stroke="black" points="506,-0.5 506,-52.5 654,-52.5 654,-0.5 506,-0.5"/>
<text text-anchor="start" x="514" y="-40.5" font-family="Helvetica,sans-Serif" font-size="10.00">/home/runner/work/cocos</text>
<text text-anchor="start" x="514" y="-29.5" font-family="Helvetica,sans-Serif" font-size="10.00">&#45;headers/cocos&#45;headers</text>
<text text-anchor="start" x="514" y="-18.5" font-family="Helvetica,sans-Serif" font-size="10.00">/extensions/GUI/CCEditBox</text>
<text text-anchor="middle" x="580" y="-7.5" font-family="Helvetica,sans-Serif" font-size="10.00">/CCEditBoxImplWp8.h</text>
</a>
</g>
</g>
<!-- Node9&#45;&gt;Node15 -->
<g id="edge15" class="edge">
<title>Node9&#45;&gt;Node15</title>
<path fill="none" stroke="midnightblue" d="M540.49,-81.22C547.47,-71.72 554.97,-61.53 561.53,-52.61"/>
<polygon fill="midnightblue" stroke="midnightblue" points="537.62,-79.21 534.51,-89.34 543.26,-83.35 537.62,-79.21"/>
</g>
<!-- Node17&#45;&gt;Node7 -->
<g id="edge19" class="edge">
<title>Node17&#45;&gt;Node7</title>
<path fill="none" stroke="midnightblue" d="M1154.37,-353.77C1194.54,-342.78 1240.4,-330.23 1279.54,-319.52"/>
<polygon fill="midnightblue" stroke="midnightblue" points="1153.27,-350.44 1144.55,-356.45 1155.12,-357.19 1153.27,-350.44"/>
</g>
<!-- Node18&#45;&gt;Node17 -->
<g id="edge22" class="edge">
<title>Node18&#45;&gt;Node17</title>
<path fill="none" stroke="midnightblue" d="M970.6,-439.5C985.51,-429.37 1001.87,-418.25 1016.06,-408.61"/>
<polygon fill="midnightblue" stroke="midnightblue" points="968.33,-436.82 962.02,-445.34 972.26,-442.61 968.33,-436.82"/>
</g>
<!-- Node19&#45;&gt;Node7 -->
<g id="edge24" class="edge">
<title>Node19&#45;&gt;Node7</title>
<path fill="none" stroke="midnightblue" d="M1303.46,-349.93C1315.62,-339.96 1328.88,-329.07 1340.41,-319.61"/>
<polygon fill="midnightblue" stroke="midnightblue" points="1301.17,-347.29 1295.66,-356.34 1305.61,-352.7 1301.17,-347.29"/>
</g>
<!-- Node20&#45;&gt;Node17 -->
<g id="edge26" class="edge">
<title>Node20&#45;&gt;Node17</title>
<path fill="none" stroke="midnightblue" d="M1110.39,-438.36C1100.11,-428.54 1088.97,-417.89 1079.26,-408.61"/>
<polygon fill="midnightblue" stroke="midnightblue" points="1108.03,-440.96 1117.68,-445.34 1112.87,-435.9 1108.03,-440.96"/>
</g>
<!-- Node21&#45;&gt;Node7 -->
<g id="edge28" class="edge">
<title>Node21&#45;&gt;Node7</title>
<path fill="none" stroke="midnightblue" d="M1438.54,-349.93C1426.38,-339.96 1413.12,-329.07 1401.59,-319.61"/>
<polygon fill="midnightblue" stroke="midnightblue" points="1436.39,-352.7 1446.34,-356.34 1440.83,-347.29 1436.39,-352.7"/>
</g>
<!-- Node22&#45;&gt;Node7 -->
<g id="edge30" class="edge">
<title>Node22&#45;&gt;Node7</title>
<path fill="none" stroke="midnightblue" d="M1587.63,-353.77C1547.46,-342.78 1501.6,-330.23 1462.46,-319.52"/>
<polygon fill="midnightblue" stroke="midnightblue" points="1586.88,-357.19 1597.45,-356.45 1588.73,-350.44 1586.88,-357.19"/>
</g>
<!-- Node23&#45;&gt;Node7 -->
<g id="edge32" class="edge">
<title>Node23&#45;&gt;Node7</title>
<path fill="none" stroke="midnightblue" d="M910.12,-356.72C911.42,-356.47 912.71,-356.23 914,-356 1037.46,-333.56 1181.07,-315.54 1273.86,-304.95"/>
<polygon fill="midnightblue" stroke="midnightblue" points="909.21,-353.33 900.05,-358.66 910.54,-360.2 909.21,-353.33"/>
</g>
<!-- Node24&#45;&gt;Node17 -->
<g id="edge34" class="edge">
<title>Node24&#45;&gt;Node17</title>
<path fill="none" stroke="midnightblue" d="M1263.93,-442.7C1224.83,-431.72 1180.24,-419.21 1142.16,-408.52"/>
<polygon fill="midnightblue" stroke="midnightblue" points="1263.18,-446.12 1273.75,-445.45 1265.07,-439.38 1263.18,-446.12"/>
</g>
<!-- Node25&#45;&gt;Node6 -->
<g id="edge36" class="edge">
<title>Node25&#45;&gt;Node6</title>
<path fill="none" stroke="midnightblue" d="M1697.23,-525.35C1702.44,-516.1 1707.99,-506.26 1712.86,-497.61"/>
<polygon fill="midnightblue" stroke="midnightblue" points="1694.03,-523.91 1692.17,-534.34 1700.13,-527.34 1694.03,-523.91"/>
</g>
<!-- Node25&#45;&gt;Node7 -->
<g id="edge37" class="edge">
<title>Node25&#45;&gt;Node7</title>
<path fill="none" stroke="midnightblue" d="M1774.67,-530.98C1801.36,-521.06 1825.18,-509.52 1833,-498 1852.19,-469.74 1814.2,-357.11 1813,-356 1764.19,-311.07 1582.89,-298.73 1468.2,-295.49"/>
<polygon fill="midnightblue" stroke="midnightblue" points="1773.35,-527.74 1765.13,-534.42 1775.73,-534.32 1773.35,-527.74"/>
</g>
<!-- Node26&#45;&gt;Node16 -->
<g id="edge48" class="edge">
<title>Node26&#45;&gt;Node16</title>
<path fill="none" stroke="midnightblue" d="M1852.18,-259.79C1859.4,-251.06 1866.28,-241.2 1871,-231 1885.38,-199.91 1889.04,-159.62 1889.88,-136.06"/>
<polygon fill="midnightblue" stroke="midnightblue" points="1849.42,-257.62 1845.5,-267.46 1854.71,-262.21 1849.42,-257.62"/>
</g>
<!-- Node27 -->
<g id="node27" class="node">
<title>Node27</title>
<g id="a_node27"><a xlink:href="../../d8/dbb/_c_c_table_view_8h.html" target="_top" xlink:title=" ">
<polygon fill="none" stroke="black" points="1700.5,-178.5 1700.5,-230.5 1861.5,-230.5 1861.5,-178.5 1700.5,-178.5"/>
<text text-anchor="start" x="1708.5" y="-218.5" font-family="Helvetica,sans-Serif" font-size="10.00">/home/runner/work/cocos</text>
<text text-anchor="start" x="1708.5" y="-207.5" font-family="Helvetica,sans-Serif" font-size="10.00">&#45;headers/cocos&#45;headers</text>
<text text-anchor="start" x="1708.5" y="-196.5" font-family="Helvetica,sans-Serif" font-size="10.00">/extensions/GUI/CCScrollView</text>
<text text-anchor="middle" x="1781" y="-185.5" font-family="Helvetica,sans-Serif" font-size="10.00">/CCTableView.h</text>
</a>
</g>
</g>
<!-- Node26&#45;&gt;Node27 -->
<g id="edge46" class="edge">
<title>Node26&#45;&gt;Node27</title>
<path fill="none" stroke="midnightblue" d="M1803.96,-258.06C1799.95,-248.9 1795.71,-239.17 1791.97,-230.61"/>
<polygon fill="midnightblue" stroke="midnightblue" points="1800.8,-259.57 1808.01,-267.34 1807.21,-256.77 1800.8,-259.57"/>
</g>
<!-- Node27&#45;&gt;Node16 -->
<g id="edge47" class="edge">
<title>Node27&#45;&gt;Node16</title>
<path fill="none" stroke="midnightblue" d="M1820.66,-171.85C1835.65,-159.88 1852.26,-146.62 1865.47,-136.08"/>
<polygon fill="midnightblue" stroke="midnightblue" points="1818.16,-169.36 1812.53,-178.34 1822.53,-174.83 1818.16,-169.36"/>
</g>
<!-- Node28&#45;&gt;Node16 -->
<g id="edge50" class="edge">
<title>Node28&#45;&gt;Node16</title>
<path fill="none" stroke="midnightblue" d="M2032.11,-352.58C2014.86,-312.02 1980.71,-236.66 1942,-178 1932.14,-163.06 1919.14,-147.69 1908.61,-136.05"/>
<polygon fill="midnightblue" stroke="midnightblue" points="2028.91,-354.01 2036.02,-361.87 2035.36,-351.3 2028.91,-354.01"/>
</g>
<!-- Node29&#45;&gt;Node16 -->
<g id="edge52" class="edge">
<title>Node29&#45;&gt;Node16</title>
<path fill="none" stroke="midnightblue" d="M1925.81,-529.96C1926.7,-494.99 1928,-435.01 1928,-383.5 1928,-383.5 1928,-383.5 1928,-292.5 1928,-234.67 1908.16,-168.51 1897.15,-136.26"/>
<polygon fill="midnightblue" stroke="midnightblue" points="1922.31,-529.88 1925.55,-539.97 1929.31,-530.06 1922.31,-529.88"/>
</g>
<!-- Node29&#45;&gt;Node28 -->
<g id="edge53" class="edge">
<title>Node29&#45;&gt;Node28</title>
<path fill="none" stroke="midnightblue" d="M1943.97,-531.45C1968.23,-495.57 2009.63,-434.34 2030.75,-403.09"/>
<polygon fill="midnightblue" stroke="midnightblue" points="1940.89,-529.75 1938.19,-539.99 1946.69,-533.67 1940.89,-529.75"/>
</g>
<!-- Node29&#45;&gt;Node30 -->
<g id="edge54" class="edge">
<title>Node29&#45;&gt;Node30</title>
<path fill="none" stroke="midnightblue" d="M1989.65,-536.54C2028.59,-522.71 2077.66,-505.29 2114.78,-492.11"/>
<polygon fill="midnightblue" stroke="midnightblue" points="1988.24,-533.33 1979.98,-539.98 1990.58,-539.93 1988.24,-533.33"/>
</g>
<!-- Node30&#45;&gt;Node16 -->
<g id="edge55" class="edge">
<title>Node30&#45;&gt;Node16</title>
<path fill="none" stroke="midnightblue" d="M2167.07,-440.76C2163.71,-416.69 2156.64,-382.54 2142,-356 2086.61,-255.58 1974.63,-172.3 1920.57,-136.03"/>
<polygon fill="midnightblue" stroke="midnightblue" points="2163.6,-441.25 2168.33,-450.73 2170.55,-440.37 2163.6,-441.25"/>
</g>
<!-- Node30&#45;&gt;Node28 -->
<g id="edge56" class="edge">
<title>Node30&#45;&gt;Node28</title>
<path fill="none" stroke="midnightblue" d="M2133.43,-445.25C2114.06,-431.88 2090.64,-415.7 2072.62,-403.26"/>
<polygon fill="midnightblue" stroke="midnightblue" points="2131.51,-448.17 2141.72,-450.98 2135.48,-442.41 2131.51,-448.17"/>
</g>
<!-- Node32&#45;&gt;Node2 -->
<g id="edge60" class="edge">
<title>Node32&#45;&gt;Node2</title>
<path fill="none" stroke="midnightblue" d="M670.38,-692.61C664.29,-683.08 657.88,-673.03 652.52,-664.63"/>
<polygon fill="midnightblue" stroke="midnightblue" points="667.5,-694.61 675.83,-701.16 673.4,-690.85 667.5,-694.61"/>
</g>
</g>
</svg>
