<?xml version="1.0" encoding="UTF-8" standalone="no"?>
<!DOCTYPE svg PUBLIC "-//W3C//DTD SVG 1.1//EN"
 "http://www.w3.org/Graphics/SVG/1.1/DTD/svg11.dtd">
<!-- Generated by graphviz version 2.43.0 (0)
 -->
<!-- Title: CCIMEDelegate Pages: 1 -->
<svg width="186pt" height="84pt"
 viewBox="0.00 0.00 186.00 84.00" xmlns="http://www.w3.org/2000/svg" xmlns:xlink="http://www.w3.org/1999/xlink">
<g id="graph0" class="graph" transform="scale(1 1) rotate(0) translate(4 80)">
<title>CCIMEDelegate</title>
<!-- Node1 -->
<g id="node1" class="node">
<title>Node1</title>
<g id="a_node1"><a xlink:title="Input method editor delegate.">
<polygon fill="#bfbfbf" stroke="black" points="49,-56.5 49,-75.5 141,-75.5 141,-56.5 49,-56.5"/>
<text text-anchor="middle" x="95" y="-63.5" font-family="Helvetica,sans-Serif" font-size="10.00">CCIMEDelegate</text>
</a>
</g>
</g>
<!-- Node2 -->
<g id="node2" class="node">
<title>Node2</title>
<g id="a_node2"><a xlink:href="../../d4/d5b/classcocos2d_1_1_c_c_text_field_t_t_f.html" target="_top" xlink:title="A simple text input field with TTF font.">
<polygon fill="none" stroke="black" points="0,-0.5 0,-19.5 92,-19.5 92,-0.5 0,-0.5"/>
<text text-anchor="middle" x="46" y="-7.5" font-family="Helvetica,sans-Serif" font-size="10.00">CCTextFieldTTF</text>
</a>
</g>
</g>
<!-- Node1&#45;&gt;Node2 -->
<g id="edge1" class="edge">
<title>Node1&#45;&gt;Node2</title>
<path fill="none" stroke="midnightblue" d="M79.97,-48.43C71.38,-38.97 60.96,-27.48 53.94,-19.75"/>
<polygon fill="midnightblue" stroke="midnightblue" points="77.6,-51.03 86.91,-56.08 82.78,-46.33 77.6,-51.03"/>
</g>
<!-- Node3 -->
<g id="node3" class="node">
<title>Node3</title>
<g id="a_node3"><a xlink:href="../../d7/dc3/classcocos2d_1_1extension_1_1_c_c_edit_box.html" target="_top" xlink:title="Class for edit box.">
<polygon fill="none" stroke="black" points="110,-0.5 110,-19.5 178,-19.5 178,-0.5 110,-0.5"/>
<text text-anchor="middle" x="144" y="-7.5" font-family="Helvetica,sans-Serif" font-size="10.00">CCEditBox</text>
</a>
</g>
</g>
<!-- Node1&#45;&gt;Node3 -->
<g id="edge2" class="edge">
<title>Node1&#45;&gt;Node3</title>
<path fill="none" stroke="midnightblue" d="M110.03,-48.43C118.62,-38.97 129.04,-27.48 136.06,-19.75"/>
<polygon fill="midnightblue" stroke="midnightblue" points="107.22,-46.33 103.09,-56.08 112.4,-51.03 107.22,-46.33"/>
</g>
</g>
</svg>
