<?xml version="1.0" encoding="UTF-8" standalone="no"?>
<!DOCTYPE svg PUBLIC "-//W3C//DTD SVG 1.1//EN"
 "http://www.w3.org/Graphics/SVG/1.1/DTD/svg11.dtd">
<!-- Generated by graphviz version 2.43.0 (0)
 -->
<!-- Title: /home/runner/work/cocos&#45;headers/cocos&#45;headers/cocos2dx/touch_dispatcher/CCTouch.h Pages: 1 -->
<svg width="409pt" height="453pt"
 viewBox="0.00 0.00 408.50 453.00" xmlns="http://www.w3.org/2000/svg" xmlns:xlink="http://www.w3.org/1999/xlink">
<g id="graph0" class="graph" transform="scale(1 1) rotate(0) translate(4 449)">
<title>/home/runner/work/cocos&#45;headers/cocos&#45;headers/cocos2dx/touch_dispatcher/CCTouch.h</title>
<!-- Node1 -->
<g id="node1" class="node">
<title>Node1</title>
<g id="a_node1"><a xlink:title=" ">
<polygon fill="#bfbfbf" stroke="black" points="219.5,-392.5 219.5,-444.5 371.5,-444.5 371.5,-392.5 219.5,-392.5"/>
<text text-anchor="start" x="227.5" y="-432.5" font-family="Helvetica,sans-Serif" font-size="10.00">/home/runner/work/cocos</text>
<text text-anchor="start" x="227.5" y="-421.5" font-family="Helvetica,sans-Serif" font-size="10.00">&#45;headers/cocos&#45;headers</text>
<text text-anchor="start" x="227.5" y="-410.5" font-family="Helvetica,sans-Serif" font-size="10.00">/cocos2dx/touch_dispatcher</text>
<text text-anchor="middle" x="295.5" y="-399.5" font-family="Helvetica,sans-Serif" font-size="10.00">/CCTouch.h</text>
</a>
</g>
</g>
<!-- Node2 -->
<g id="node2" class="node">
<title>Node2</title>
<g id="a_node2"><a xlink:href="../../dd/d69/_c_c_object_8h.html" target="_top" xlink:title=" ">
<polygon fill="none" stroke="black" points="197.5,-280.5 197.5,-299.5 299.5,-299.5 299.5,-280.5 197.5,-280.5"/>
<text text-anchor="middle" x="248.5" y="-287.5" font-family="Helvetica,sans-Serif" font-size="10.00">cocoa/CCObject.h</text>
</a>
</g>
</g>
<!-- Node1&#45;&gt;Node2 -->
<g id="edge1" class="edge">
<title>Node1&#45;&gt;Node2</title>
<path fill="none" stroke="midnightblue" d="M286.1,-392.2C276.98,-367.66 263.36,-331 255.26,-309.2"/>
<polygon fill="midnightblue" stroke="midnightblue" points="258.44,-307.7 251.68,-299.55 251.88,-310.14 258.44,-307.7"/>
</g>
<!-- Node12 -->
<g id="node12" class="node">
<title>Node12</title>
<g id="a_node12"><a xlink:href="../../d6/d09/_c_c_geometry_8h.html" target="_top" xlink:title=" ">
<polygon fill="none" stroke="black" points="282.5,-336.5 282.5,-355.5 400.5,-355.5 400.5,-336.5 282.5,-336.5"/>
<text text-anchor="middle" x="341.5" y="-343.5" font-family="Helvetica,sans-Serif" font-size="10.00">cocoa/CCGeometry.h</text>
</a>
</g>
</g>
<!-- Node1&#45;&gt;Node12 -->
<g id="edge14" class="edge">
<title>Node1&#45;&gt;Node12</title>
<path fill="none" stroke="midnightblue" d="M311.85,-392.45C317.93,-383.13 324.68,-372.77 330.21,-364.3"/>
<polygon fill="midnightblue" stroke="midnightblue" points="333.29,-365.98 335.83,-355.7 327.43,-362.16 333.29,-365.98"/>
</g>
<!-- Node3 -->
<g id="node3" class="node">
<title>Node3</title>
<g id="a_node3"><a xlink:href="../../d9/d2d/_c_c_data_visitor_8h.html" target="_top" xlink:title=" ">
<polygon fill="none" stroke="black" points="251,-224.5 251,-243.5 344,-243.5 344,-224.5 251,-224.5"/>
<text text-anchor="middle" x="297.5" y="-231.5" font-family="Helvetica,sans-Serif" font-size="10.00">CCDataVisitor.h</text>
</a>
</g>
</g>
<!-- Node2&#45;&gt;Node3 -->
<g id="edge2" class="edge">
<title>Node2&#45;&gt;Node3</title>
<path fill="none" stroke="midnightblue" d="M256.59,-280.08C263.66,-272.3 274.09,-260.8 282.65,-251.37"/>
<polygon fill="midnightblue" stroke="midnightblue" points="285.43,-253.51 289.56,-243.75 280.25,-248.8 285.43,-253.51"/>
</g>
<!-- Node9 -->
<g id="node9" class="node">
<title>Node9</title>
<g id="a_node9"><a xlink:href="../../d9/dc8/cc_macros_8h.html" target="_top" xlink:title=" ">
<polygon fill="none" stroke="black" points="126,-224.5 126,-243.5 197,-243.5 197,-224.5 126,-224.5"/>
<text text-anchor="middle" x="161.5" y="-231.5" font-family="Helvetica,sans-Serif" font-size="10.00">ccMacros.h</text>
</a>
</g>
</g>
<!-- Node2&#45;&gt;Node9 -->
<g id="edge9" class="edge">
<title>Node2&#45;&gt;Node9</title>
<path fill="none" stroke="midnightblue" d="M234.52,-280.32C220.95,-271.9 200.12,-258.97 184.18,-249.07"/>
<polygon fill="midnightblue" stroke="midnightblue" points="185.79,-245.95 175.44,-243.65 182.09,-251.9 185.79,-245.95"/>
</g>
<!-- Node4 -->
<g id="node4" class="node">
<title>Node4</title>
<g id="a_node4"><a xlink:href="../../d3/d41/_c_c_platform_macros_8h.html" target="_top" xlink:title=" ">
<polygon fill="none" stroke="black" points="104,-112.5 104,-131.5 265,-131.5 265,-112.5 104,-112.5"/>
<text text-anchor="middle" x="184.5" y="-119.5" font-family="Helvetica,sans-Serif" font-size="10.00">platform/CCPlatformMacros.h</text>
</a>
</g>
</g>
<!-- Node3&#45;&gt;Node4 -->
<g id="edge3" class="edge">
<title>Node3&#45;&gt;Node4</title>
<path fill="none" stroke="midnightblue" d="M297.16,-224.38C296.19,-210.85 292.51,-184.48 278.5,-168 265.45,-152.64 245.96,-142.13 228.11,-135.16"/>
<polygon fill="midnightblue" stroke="midnightblue" points="229.01,-131.76 218.41,-131.64 226.62,-138.34 229.01,-131.76"/>
</g>
<!-- Node8 -->
<g id="node8" class="node">
<title>Node8</title>
<g id="a_node8"><a xlink:title=" ">
<polygon fill="none" stroke="#bfbfbf" points="325.5,-168.5 325.5,-187.5 369.5,-187.5 369.5,-168.5 325.5,-168.5"/>
<text text-anchor="middle" x="347.5" y="-175.5" font-family="Helvetica,sans-Serif" font-size="10.00">string</text>
</a>
</g>
</g>
<!-- Node3&#45;&gt;Node8 -->
<g id="edge8" class="edge">
<title>Node3&#45;&gt;Node8</title>
<path fill="none" stroke="midnightblue" d="M305.76,-224.08C312.96,-216.3 323.61,-204.8 332.35,-195.37"/>
<polygon fill="midnightblue" stroke="midnightblue" points="335.17,-197.47 339.4,-187.75 330.03,-192.71 335.17,-197.47"/>
</g>
<!-- Node5 -->
<g id="node5" class="node">
<title>Node5</title>
<g id="a_node5"><a xlink:href="../../db/d9f/cc_config_8h.html" target="_top" xlink:title="cocos2d (cc) configuration file">
<polygon fill="none" stroke="black" points="0,-56.5 0,-75.5 67,-75.5 67,-56.5 0,-56.5"/>
<text text-anchor="middle" x="33.5" y="-63.5" font-family="Helvetica,sans-Serif" font-size="10.00">ccConfig.h</text>
</a>
</g>
</g>
<!-- Node4&#45;&gt;Node5 -->
<g id="edge4" class="edge">
<title>Node4&#45;&gt;Node5</title>
<path fill="none" stroke="midnightblue" d="M160.57,-112.44C135.28,-103.4 95.2,-89.06 66.82,-78.92"/>
<polygon fill="midnightblue" stroke="midnightblue" points="67.91,-75.59 57.31,-75.52 65.55,-82.18 67.91,-75.59"/>
</g>
<!-- Node6 -->
<g id="node6" class="node">
<title>Node6</title>
<g id="a_node6"><a xlink:href="../../dd/d96/_c_c_platform_config_8h.html" target="_top" xlink:title=" ">
<polygon fill="none" stroke="black" points="51,-0.5 51,-19.5 208,-19.5 208,-0.5 51,-0.5"/>
<text text-anchor="middle" x="129.5" y="-7.5" font-family="Helvetica,sans-Serif" font-size="10.00">platform/CCPlatformConfig.h</text>
</a>
</g>
</g>
<!-- Node4&#45;&gt;Node6 -->
<g id="edge6" class="edge">
<title>Node4&#45;&gt;Node6</title>
<path fill="none" stroke="midnightblue" d="M191.99,-112.13C201.96,-99.18 217.17,-74.6 206.5,-56 197.88,-40.99 182.11,-30.5 167.07,-23.46"/>
<polygon fill="midnightblue" stroke="midnightblue" points="168.44,-20.24 157.87,-19.51 165.68,-26.67 168.44,-20.24"/>
</g>
<!-- Node7 -->
<g id="node7" class="node">
<title>Node7</title>
<g id="a_node7"><a xlink:title=" ">
<polygon fill="none" stroke="#bfbfbf" points="85,-56.5 85,-75.5 198,-75.5 198,-56.5 85,-56.5"/>
<text text-anchor="middle" x="141.5" y="-63.5" font-family="Helvetica,sans-Serif" font-size="10.00">CCPlatformDefine.h</text>
</a>
</g>
</g>
<!-- Node4&#45;&gt;Node7 -->
<g id="edge7" class="edge">
<title>Node4&#45;&gt;Node7</title>
<path fill="none" stroke="midnightblue" d="M177.4,-112.08C171.26,-104.38 162.23,-93.03 154.76,-83.65"/>
<polygon fill="midnightblue" stroke="midnightblue" points="157.44,-81.39 148.47,-75.75 151.96,-85.75 157.44,-81.39"/>
</g>
<!-- Node5&#45;&gt;Node6 -->
<g id="edge5" class="edge">
<title>Node5&#45;&gt;Node6</title>
<path fill="none" stroke="midnightblue" d="M48.92,-56.32C64.04,-47.82 87.32,-34.73 104.97,-24.8"/>
<polygon fill="midnightblue" stroke="midnightblue" points="107.11,-27.61 114.11,-19.65 103.68,-21.51 107.11,-27.61"/>
</g>
<!-- Node9&#45;&gt;Node5 -->
<g id="edge13" class="edge">
<title>Node9&#45;&gt;Node5</title>
<path fill="none" stroke="midnightblue" d="M125.83,-227.58C101.4,-221.94 70.31,-210.59 52.5,-188 29.11,-158.32 29.04,-111.54 31.18,-85.7"/>
<polygon fill="midnightblue" stroke="midnightblue" points="34.66,-86.04 32.21,-75.73 27.7,-85.32 34.66,-86.04"/>
</g>
<!-- Node10 -->
<g id="node10" class="node">
<title>Node10</title>
<g id="a_node10"><a xlink:href="../../d5/d22/_c_c_common_8h.html" target="_top" xlink:title=" ">
<polygon fill="none" stroke="black" points="61.5,-168.5 61.5,-187.5 189.5,-187.5 189.5,-168.5 61.5,-168.5"/>
<text text-anchor="middle" x="125.5" y="-175.5" font-family="Helvetica,sans-Serif" font-size="10.00">platform/CCCommon.h</text>
</a>
</g>
</g>
<!-- Node9&#45;&gt;Node10 -->
<g id="edge10" class="edge">
<title>Node9&#45;&gt;Node10</title>
<path fill="none" stroke="midnightblue" d="M155.56,-224.08C150.52,-216.53 143.16,-205.49 136.99,-196.23"/>
<polygon fill="midnightblue" stroke="midnightblue" points="139.79,-194.13 131.33,-187.75 133.97,-198.01 139.79,-194.13"/>
</g>
<!-- Node11 -->
<g id="node11" class="node">
<title>Node11</title>
<g id="a_node11"><a xlink:title=" ">
<polygon fill="none" stroke="#bfbfbf" points="207.5,-168.5 207.5,-187.5 269.5,-187.5 269.5,-168.5 207.5,-168.5"/>
<text text-anchor="middle" x="238.5" y="-175.5" font-family="Helvetica,sans-Serif" font-size="10.00">CCStdC.h</text>
</a>
</g>
</g>
<!-- Node9&#45;&gt;Node11 -->
<g id="edge12" class="edge">
<title>Node9&#45;&gt;Node11</title>
<path fill="none" stroke="midnightblue" d="M173.87,-224.32C185.66,-216.06 203.63,-203.45 217.64,-193.63"/>
<polygon fill="midnightblue" stroke="midnightblue" points="219.98,-196.26 226.16,-187.65 215.96,-190.53 219.98,-196.26"/>
</g>
<!-- Node10&#45;&gt;Node4 -->
<g id="edge11" class="edge">
<title>Node10&#45;&gt;Node4</title>
<path fill="none" stroke="midnightblue" d="M134.98,-168.32C143.7,-160.34 156.84,-148.31 167.4,-138.65"/>
<polygon fill="midnightblue" stroke="midnightblue" points="169.83,-141.17 174.85,-131.83 165.11,-136 169.83,-141.17"/>
</g>
<!-- Node12&#45;&gt;Node2 -->
<g id="edge16" class="edge">
<title>Node12&#45;&gt;Node2</title>
<path fill="none" stroke="midnightblue" d="M326.56,-336.32C311.91,-327.82 289.37,-314.73 272.26,-304.8"/>
<polygon fill="midnightblue" stroke="midnightblue" points="273.81,-301.65 263.4,-299.65 270.3,-307.7 273.81,-301.65"/>
</g>
<!-- Node12&#45;&gt;Node4 -->
<g id="edge15" class="edge">
<title>Node12&#45;&gt;Node4</title>
<path fill="none" stroke="midnightblue" d="M351.94,-336.24C360.92,-327.97 373.25,-314.66 378.5,-300 398.29,-244.77 415,-213.93 378.5,-168 365.08,-151.11 318.63,-139.99 274.55,-133.03"/>
<polygon fill="midnightblue" stroke="midnightblue" points="275.02,-129.56 264.6,-131.52 273.97,-136.48 275.02,-129.56"/>
</g>
<!-- Node13 -->
<g id="node13" class="node">
<title>Node13</title>
<g id="a_node13"><a xlink:title=" ">
<polygon fill="none" stroke="#bfbfbf" points="318,-280.5 318,-299.5 369,-299.5 369,-280.5 318,-280.5"/>
<text text-anchor="middle" x="343.5" y="-287.5" font-family="Helvetica,sans-Serif" font-size="10.00">math.h</text>
</a>
</g>
</g>
<!-- Node12&#45;&gt;Node13 -->
<g id="edge17" class="edge">
<title>Node12&#45;&gt;Node13</title>
<path fill="none" stroke="midnightblue" d="M341.83,-336.08C342.09,-329.01 342.47,-318.86 342.8,-309.99"/>
<polygon fill="midnightblue" stroke="midnightblue" points="346.3,-309.87 343.18,-299.75 339.31,-309.61 346.3,-309.87"/>
</g>
</g>
</svg>
