<?xml version="1.0" encoding="UTF-8" standalone="no"?>
<!DOCTYPE svg PUBLIC "-//W3C//DTD SVG 1.1//EN"
 "http://www.w3.org/Graphics/SVG/1.1/DTD/svg11.dtd">
<!-- Generated by graphviz version 2.43.0 (0)
 -->
<!-- Title: /home/runner/work/cocos&#45;headers/cocos&#45;headers/extensions/GUI/CCScrollView/CCSorting.h Pages: 1 -->
<svg width="243pt" height="181pt"
 viewBox="0.00 0.00 242.50 181.00" xmlns="http://www.w3.org/2000/svg" xmlns:xlink="http://www.w3.org/1999/xlink">
<g id="graph0" class="graph" transform="scale(1 1) rotate(0) translate(4 177)">
<title>/home/runner/work/cocos&#45;headers/cocos&#45;headers/extensions/GUI/CCScrollView/CCSorting.h</title>
<!-- Node1 -->
<g id="node1" class="node">
<title>Node1</title>
<g id="a_node1"><a xlink:title=" ">
<polygon fill="#999999" stroke="#666666" points="200.5,-173 39.5,-173 39.5,-121 200.5,-121 200.5,-173"/>
<text text-anchor="start" x="47.5" y="-161" font-family="Helvetica,sans-Serif" font-size="10.00">/home/runner/work/cocos</text>
<text text-anchor="start" x="47.5" y="-150" font-family="Helvetica,sans-Serif" font-size="10.00">&#45;headers/cocos&#45;headers</text>
<text text-anchor="start" x="47.5" y="-139" font-family="Helvetica,sans-Serif" font-size="10.00">/extensions/GUI/CCScrollView</text>
<text text-anchor="middle" x="120" y="-128" font-family="Helvetica,sans-Serif" font-size="10.00">/CCSorting.h</text>
</a>
</g>
</g>
<!-- Node2 -->
<g id="node2" class="node">
<title>Node2</title>
<g id="a_node2"><a xlink:href="../../da/d35/_c_c_array_8h.html" target="_top" xlink:title=" ">
<polygon fill="white" stroke="#666666" points="107.5,-85 12.5,-85 12.5,-66 107.5,-66 107.5,-85"/>
<text text-anchor="middle" x="60" y="-73" font-family="Helvetica,sans-Serif" font-size="10.00">cocoa/CCArray.h</text>
</a>
</g>
</g>
<!-- Node1&#45;&gt;Node2 -->
<g id="edge1" class="edge">
<title>Node1&#45;&gt;Node2</title>
<path fill="none" stroke="#63b8ff" d="M98.34,-120.91C90.28,-111.58 81.36,-101.24 74.14,-92.88"/>
<polygon fill="#63b8ff" stroke="#63b8ff" points="76.78,-90.58 67.6,-85.3 71.48,-95.16 76.78,-90.58"/>
</g>
<!-- Node4 -->
<g id="node4" class="node">
<title>Node4</title>
<g id="a_node4"><a xlink:href="../../d9/d9b/_extension_macros_8h.html" target="_top" xlink:title=" ">
<polygon fill="white" stroke="#666666" points="234.5,-85 125.5,-85 125.5,-66 234.5,-66 234.5,-85"/>
<text text-anchor="middle" x="180" y="-73" font-family="Helvetica,sans-Serif" font-size="10.00">ExtensionMacros.h</text>
</a>
</g>
</g>
<!-- Node1&#45;&gt;Node4 -->
<g id="edge3" class="edge">
<title>Node1&#45;&gt;Node4</title>
<path fill="none" stroke="#63b8ff" d="M141.66,-120.91C149.72,-111.58 158.64,-101.24 165.86,-92.88"/>
<polygon fill="#63b8ff" stroke="#63b8ff" points="168.52,-95.16 172.4,-85.3 163.22,-90.58 168.52,-95.16"/>
</g>
<!-- Node3 -->
<g id="node3" class="node">
<title>Node3</title>
<g id="a_node3"><a xlink:title=" ">
<polygon fill="#e0e0e0" stroke="#999999" points="120,-30 0,-30 0,0 120,0 120,-30"/>
<text text-anchor="start" x="8" y="-18" font-family="Helvetica,sans-Serif" font-size="10.00">support/data_support</text>
<text text-anchor="middle" x="60" y="-7" font-family="Helvetica,sans-Serif" font-size="10.00">/ccCArray.h</text>
</a>
</g>
</g>
<!-- Node2&#45;&gt;Node3 -->
<g id="edge2" class="edge">
<title>Node2&#45;&gt;Node3</title>
<path fill="none" stroke="#63b8ff" d="M60,-65.87C60,-59.11 60,-49.35 60,-40.26"/>
<polygon fill="#63b8ff" stroke="#63b8ff" points="63.5,-40.11 60,-30.11 56.5,-40.11 63.5,-40.11"/>
</g>
</g>
</svg>
