<?xml version="1.0" encoding="UTF-8" standalone="no"?>
<!DOCTYPE svg PUBLIC "-//W3C//DTD SVG 1.1//EN"
 "http://www.w3.org/Graphics/SVG/1.1/DTD/svg11.dtd">
<!-- Generated by graphviz version 2.43.0 (0)
 -->
<!-- Title: TypeInfo Pages: 1 -->
<svg width="520pt" height="137pt"
 viewBox="0.00 0.00 519.50 137.00" xmlns="http://www.w3.org/2000/svg" xmlns:xlink="http://www.w3.org/1999/xlink">
<g id="graph0" class="graph" transform="scale(1 1) rotate(0) translate(4 133)">
<title>TypeInfo</title>
<!-- Node1 -->
<g id="node1" class="node">
<title>Node1</title>
<g id="a_node1"><a xlink:title=" ">
<polygon fill="#999999" stroke="#666666" points="215,-129 157,-129 157,-110 215,-110 215,-129"/>
<text text-anchor="middle" x="186" y="-117" font-family="Helvetica,sans-Serif" font-size="10.00">TypeInfo</text>
</a>
</g>
</g>
<!-- Node2 -->
<g id="node2" class="node">
<title>Node2</title>
<g id="a_node2"><a xlink:href="../../dd/d1f/classcocos2d_1_1_c_c_call_func_n.html" target="_top" xlink:title="Calls a &#39;callback&#39; with the node as the first argument N means Node NA.">
<polygon fill="white" stroke="#666666" points="82.5,-74 3.5,-74 3.5,-55 82.5,-55 82.5,-74"/>
<text text-anchor="middle" x="43" y="-62" font-family="Helvetica,sans-Serif" font-size="10.00">CCCallFuncN</text>
</a>
</g>
</g>
<!-- Node1&#45;&gt;Node2 -->
<g id="edge1" class="edge">
<title>Node1&#45;&gt;Node2</title>
<path fill="none" stroke="#63b8ff" d="M153.41,-106.42C126.88,-96.59 90.07,-82.95 66.39,-74.17"/>
<polygon fill="#63b8ff" stroke="#63b8ff" points="152.43,-109.79 163.02,-109.98 154.86,-103.23 152.43,-109.79"/>
</g>
<!-- Node4 -->
<g id="node4" class="node">
<title>Node4</title>
<g id="a_node4"><a xlink:href="../../d9/d91/classcocos2d_1_1_c_c_call_func_o.html" target="_top" xlink:title="Calls a &#39;callback&#39; with an object as the first argument.">
<polygon fill="white" stroke="#666666" points="179.5,-74 100.5,-74 100.5,-55 179.5,-55 179.5,-74"/>
<text text-anchor="middle" x="140" y="-62" font-family="Helvetica,sans-Serif" font-size="10.00">CCCallFuncO</text>
</a>
</g>
</g>
<!-- Node1&#45;&gt;Node4 -->
<g id="edge3" class="edge">
<title>Node1&#45;&gt;Node4</title>
<path fill="none" stroke="#63b8ff" d="M171.64,-101.96C163.63,-92.72 153.97,-81.6 147.45,-74.09"/>
<polygon fill="#63b8ff" stroke="#63b8ff" points="169.21,-104.49 178.4,-109.75 174.49,-99.9 169.21,-104.49"/>
</g>
<!-- Node5 -->
<g id="node5" class="node">
<title>Node5</title>
<g id="a_node5"><a xlink:href="../../db/d7f/classcocos2d_1_1_c_c_director.html" target="_top" xlink:title="Class that creates and handle the main Window and manages how and when to execute the Scenes.">
<polygon fill="white" stroke="#666666" points="266.5,-74 197.5,-74 197.5,-55 266.5,-55 266.5,-74"/>
<text text-anchor="middle" x="232" y="-62" font-family="Helvetica,sans-Serif" font-size="10.00">CCDirector</text>
</a>
</g>
</g>
<!-- Node1&#45;&gt;Node5 -->
<g id="edge4" class="edge">
<title>Node1&#45;&gt;Node5</title>
<path fill="none" stroke="#63b8ff" d="M200.36,-101.96C208.37,-92.72 218.03,-81.6 224.55,-74.09"/>
<polygon fill="#63b8ff" stroke="#63b8ff" points="197.51,-99.9 193.6,-109.75 202.79,-104.49 197.51,-99.9"/>
</g>
<!-- Node7 -->
<g id="node7" class="node">
<title>Node7</title>
<g id="a_node7"><a xlink:href="../../d0/ddc/classcocos2d_1_1_c_c_file_utils.html" target="_top" xlink:title="Helper class to handle file operations.">
<polygon fill="white" stroke="#666666" points="377,-74 307,-74 307,-55 377,-55 377,-74"/>
<text text-anchor="middle" x="342" y="-62" font-family="Helvetica,sans-Serif" font-size="10.00">CCFileUtils</text>
</a>
</g>
</g>
<!-- Node1&#45;&gt;Node7 -->
<g id="edge6" class="edge">
<title>Node1&#45;&gt;Node7</title>
<path fill="none" stroke="#63b8ff" d="M220.82,-106.67C249.91,-96.79 290.7,-82.93 316.74,-74.08"/>
<polygon fill="#63b8ff" stroke="#63b8ff" points="219.41,-103.45 211.06,-109.98 221.66,-110.08 219.41,-103.45"/>
</g>
<!-- Node3 -->
<g id="node3" class="node">
<title>Node3</title>
<g id="a_node3"><a xlink:href="../../d9/d9f/classcocos2d_1_1_c_c_call_func_n_d.html" target="_top" xlink:title="Calls a &#39;callback&#39; with the node as the first argument and the 2nd argument is data ND means: Node an...">
<polygon fill="white" stroke="#666666" points="86,-19 0,-19 0,0 86,0 86,-19"/>
<text text-anchor="middle" x="43" y="-7" font-family="Helvetica,sans-Serif" font-size="10.00">CCCallFuncND</text>
</a>
</g>
</g>
<!-- Node2&#45;&gt;Node3 -->
<g id="edge2" class="edge">
<title>Node2&#45;&gt;Node3</title>
<path fill="none" stroke="#63b8ff" d="M43,-44.66C43,-35.93 43,-25.99 43,-19.09"/>
<polygon fill="#63b8ff" stroke="#63b8ff" points="39.5,-44.75 43,-54.75 46.5,-44.75 39.5,-44.75"/>
</g>
<!-- Node6 -->
<g id="node6" class="node">
<title>Node6</title>
<g id="a_node6"><a xlink:href="../../d7/d71/classcocos2d_1_1_c_c_display_link_director.html" target="_top" xlink:title="DisplayLinkDirector is a Director that synchronizes timers with the refresh rate of the display.">
<polygon fill="white" stroke="#666666" points="273,-19 147,-19 147,0 273,0 273,-19"/>
<text text-anchor="middle" x="210" y="-7" font-family="Helvetica,sans-Serif" font-size="10.00">CCDisplayLinkDirector</text>
</a>
</g>
</g>
<!-- Node5&#45;&gt;Node6 -->
<g id="edge5" class="edge">
<title>Node5&#45;&gt;Node6</title>
<path fill="none" stroke="#63b8ff" d="M224.42,-45.24C220.74,-36.37 216.49,-26.14 213.57,-19.09"/>
<polygon fill="#63b8ff" stroke="#63b8ff" points="221.3,-46.85 228.37,-54.75 227.77,-44.17 221.3,-46.85"/>
</g>
<!-- Node8 -->
<g id="node8" class="node">
<title>Node8</title>
<g id="a_node8"><a xlink:href="../../d7/d50/classcocos2d_1_1_c_c_file_utils_win32.html" target="_top" xlink:title="Helper class to handle file operations.">
<polygon fill="white" stroke="#666666" points="392.5,-19 291.5,-19 291.5,0 392.5,0 392.5,-19"/>
<text text-anchor="middle" x="342" y="-7" font-family="Helvetica,sans-Serif" font-size="10.00">CCFileUtilsWin32</text>
</a>
</g>
</g>
<!-- Node7&#45;&gt;Node8 -->
<g id="edge7" class="edge">
<title>Node7&#45;&gt;Node8</title>
<path fill="none" stroke="#63b8ff" d="M342,-44.66C342,-35.93 342,-25.99 342,-19.09"/>
<polygon fill="#63b8ff" stroke="#63b8ff" points="338.5,-44.75 342,-54.75 345.5,-44.75 338.5,-44.75"/>
</g>
<!-- Node9 -->
<g id="node9" class="node">
<title>Node9</title>
<g id="a_node9"><a xlink:href="../../d4/d1e/classcocos2d_1_1_c_c_file_utils_win_r_t.html" target="_top" xlink:title="Helper class to handle file operations.">
<polygon fill="white" stroke="#666666" points="511.5,-19 410.5,-19 410.5,0 511.5,0 511.5,-19"/>
<text text-anchor="middle" x="461" y="-7" font-family="Helvetica,sans-Serif" font-size="10.00">CCFileUtilsWinRT</text>
</a>
</g>
</g>
<!-- Node7&#45;&gt;Node9 -->
<g id="edge8" class="edge">
<title>Node7&#45;&gt;Node9</title>
<path fill="none" stroke="#63b8ff" d="M370.3,-50.9C392.28,-41.11 422.18,-27.79 441.53,-19.17"/>
<polygon fill="#63b8ff" stroke="#63b8ff" points="368.83,-47.72 361.12,-54.98 371.68,-54.11 368.83,-47.72"/>
</g>
</g>
</svg>
