<?xml version="1.0" encoding="UTF-8" standalone="no"?>
<!DOCTYPE svg PUBLIC "-//W3C//DTD SVG 1.1//EN"
 "http://www.w3.org/Graphics/SVG/1.1/DTD/svg11.dtd">
<!-- Generated by graphviz version 2.43.0 (0)
 -->
<!-- Title: TypeInfo Pages: 1 -->
<svg width="520pt" height="140pt"
 viewBox="0.00 0.00 519.50 140.00" xmlns="http://www.w3.org/2000/svg" xmlns:xlink="http://www.w3.org/1999/xlink">
<g id="graph0" class="graph" transform="scale(1 1) rotate(0) translate(4 136)">
<title>TypeInfo</title>
<!-- Node1 -->
<g id="node1" class="node">
<title>Node1</title>
<g id="a_node1"><a xlink:title=" ">
<polygon fill="#bfbfbf" stroke="black" points="157,-112.5 157,-131.5 215,-131.5 215,-112.5 157,-112.5"/>
<text text-anchor="middle" x="186" y="-119.5" font-family="Helvetica,sans-Serif" font-size="10.00">TypeInfo</text>
</a>
</g>
</g>
<!-- Node2 -->
<g id="node2" class="node">
<title>Node2</title>
<g id="a_node2"><a xlink:href="../../dd/d1f/classcocos2d_1_1_c_c_call_func_n.html" target="_top" xlink:title="Calls a &#39;callback&#39; with the node as the first argument N means Node NA.">
<polygon fill="none" stroke="black" points="3.5,-56.5 3.5,-75.5 82.5,-75.5 82.5,-56.5 3.5,-56.5"/>
<text text-anchor="middle" x="43" y="-63.5" font-family="Helvetica,sans-Serif" font-size="10.00">CCCallFuncN</text>
</a>
</g>
</g>
<!-- Node1&#45;&gt;Node2 -->
<g id="edge1" class="edge">
<title>Node1&#45;&gt;Node2</title>
<path fill="none" stroke="midnightblue" d="M153.97,-108.91C127.09,-98.75 89.36,-84.51 65.55,-75.52"/>
<polygon fill="midnightblue" stroke="midnightblue" points="152.75,-112.19 163.34,-112.44 155.22,-105.64 152.75,-112.19"/>
</g>
<!-- Node4 -->
<g id="node4" class="node">
<title>Node4</title>
<g id="a_node4"><a xlink:href="../../d9/d91/classcocos2d_1_1_c_c_call_func_o.html" target="_top" xlink:title="Calls a &#39;callback&#39; with an object as the first argument.">
<polygon fill="none" stroke="black" points="100.5,-56.5 100.5,-75.5 179.5,-75.5 179.5,-56.5 100.5,-56.5"/>
<text text-anchor="middle" x="140" y="-63.5" font-family="Helvetica,sans-Serif" font-size="10.00">CCCallFuncO</text>
</a>
</g>
</g>
<!-- Node1&#45;&gt;Node4 -->
<g id="edge3" class="edge">
<title>Node1&#45;&gt;Node4</title>
<path fill="none" stroke="midnightblue" d="M171.89,-104.43C163.82,-94.97 154.04,-83.48 147.45,-75.75"/>
<polygon fill="midnightblue" stroke="midnightblue" points="169.25,-106.74 178.4,-112.08 174.58,-102.2 169.25,-106.74"/>
</g>
<!-- Node5 -->
<g id="node5" class="node">
<title>Node5</title>
<g id="a_node5"><a xlink:href="../../db/d7f/classcocos2d_1_1_c_c_director.html" target="_top" xlink:title="Class that creates and handle the main Window and manages how and when to execute the Scenes.">
<polygon fill="none" stroke="black" points="197.5,-56.5 197.5,-75.5 266.5,-75.5 266.5,-56.5 197.5,-56.5"/>
<text text-anchor="middle" x="232" y="-63.5" font-family="Helvetica,sans-Serif" font-size="10.00">CCDirector</text>
</a>
</g>
</g>
<!-- Node1&#45;&gt;Node5 -->
<g id="edge4" class="edge">
<title>Node1&#45;&gt;Node5</title>
<path fill="none" stroke="midnightblue" d="M200.11,-104.43C208.18,-94.97 217.96,-83.48 224.55,-75.75"/>
<polygon fill="midnightblue" stroke="midnightblue" points="197.42,-102.2 193.6,-112.08 202.75,-106.74 197.42,-102.2"/>
</g>
<!-- Node7 -->
<g id="node7" class="node">
<title>Node7</title>
<g id="a_node7"><a xlink:href="../../d0/ddc/classcocos2d_1_1_c_c_file_utils.html" target="_top" xlink:title="Helper class to handle file operations.">
<polygon fill="none" stroke="black" points="307,-56.5 307,-75.5 377,-75.5 377,-56.5 307,-56.5"/>
<text text-anchor="middle" x="342" y="-63.5" font-family="Helvetica,sans-Serif" font-size="10.00">CCFileUtils</text>
</a>
</g>
</g>
<!-- Node1&#45;&gt;Node7 -->
<g id="edge6" class="edge">
<title>Node1&#45;&gt;Node7</title>
<path fill="none" stroke="midnightblue" d="M220.17,-109.17C249.54,-99 291.2,-84.59 317.4,-75.52"/>
<polygon fill="midnightblue" stroke="midnightblue" points="219.02,-105.86 210.72,-112.44 221.31,-112.48 219.02,-105.86"/>
</g>
<!-- Node3 -->
<g id="node3" class="node">
<title>Node3</title>
<g id="a_node3"><a xlink:href="../../d9/d9f/classcocos2d_1_1_c_c_call_func_n_d.html" target="_top" xlink:title="Calls a &#39;callback&#39; with the node as the first argument and the 2nd argument is data ND means: Node an...">
<polygon fill="none" stroke="black" points="0,-0.5 0,-19.5 86,-19.5 86,-0.5 0,-0.5"/>
<text text-anchor="middle" x="43" y="-7.5" font-family="Helvetica,sans-Serif" font-size="10.00">CCCallFuncND</text>
</a>
</g>
</g>
<!-- Node2&#45;&gt;Node3 -->
<g id="edge2" class="edge">
<title>Node2&#45;&gt;Node3</title>
<path fill="none" stroke="midnightblue" d="M43,-45.8C43,-36.91 43,-26.78 43,-19.75"/>
<polygon fill="midnightblue" stroke="midnightblue" points="39.5,-46.08 43,-56.08 46.5,-46.08 39.5,-46.08"/>
</g>
<!-- Node6 -->
<g id="node6" class="node">
<title>Node6</title>
<g id="a_node6"><a xlink:href="../../d7/d71/classcocos2d_1_1_c_c_display_link_director.html" target="_top" xlink:title="DisplayLinkDirector is a Director that synchronizes timers with the refresh rate of the display.">
<polygon fill="none" stroke="black" points="147,-0.5 147,-19.5 273,-19.5 273,-0.5 147,-0.5"/>
<text text-anchor="middle" x="210" y="-7.5" font-family="Helvetica,sans-Serif" font-size="10.00">CCDisplayLinkDirector</text>
</a>
</g>
</g>
<!-- Node5&#45;&gt;Node6 -->
<g id="edge5" class="edge">
<title>Node5&#45;&gt;Node6</title>
<path fill="none" stroke="midnightblue" d="M224.54,-46.69C220.83,-37.59 216.52,-27.01 213.57,-19.75"/>
<polygon fill="midnightblue" stroke="midnightblue" points="221.35,-48.14 228.37,-56.08 227.84,-45.5 221.35,-48.14"/>
</g>
<!-- Node8 -->
<g id="node8" class="node">
<title>Node8</title>
<g id="a_node8"><a xlink:href="../../d7/d50/classcocos2d_1_1_c_c_file_utils_win32.html" target="_top" xlink:title="Helper class to handle file operations.">
<polygon fill="none" stroke="black" points="291.5,-0.5 291.5,-19.5 392.5,-19.5 392.5,-0.5 291.5,-0.5"/>
<text text-anchor="middle" x="342" y="-7.5" font-family="Helvetica,sans-Serif" font-size="10.00">CCFileUtilsWin32</text>
</a>
</g>
</g>
<!-- Node7&#45;&gt;Node8 -->
<g id="edge7" class="edge">
<title>Node7&#45;&gt;Node8</title>
<path fill="none" stroke="midnightblue" d="M342,-45.8C342,-36.91 342,-26.78 342,-19.75"/>
<polygon fill="midnightblue" stroke="midnightblue" points="338.5,-46.08 342,-56.08 345.5,-46.08 338.5,-46.08"/>
</g>
<!-- Node9 -->
<g id="node9" class="node">
<title>Node9</title>
<g id="a_node9"><a xlink:href="../../d4/d1e/classcocos2d_1_1_c_c_file_utils_win_r_t.html" target="_top" xlink:title="Helper class to handle file operations.">
<polygon fill="none" stroke="black" points="410.5,-0.5 410.5,-19.5 511.5,-19.5 511.5,-0.5 410.5,-0.5"/>
<text text-anchor="middle" x="461" y="-7.5" font-family="Helvetica,sans-Serif" font-size="10.00">CCFileUtilsWinRT</text>
</a>
</g>
</g>
<!-- Node7&#45;&gt;Node9 -->
<g id="edge8" class="edge">
<title>Node7&#45;&gt;Node9</title>
<path fill="none" stroke="midnightblue" d="M370.14,-52.23C392.4,-42.13 422.86,-28.31 442.23,-19.52"/>
<polygon fill="midnightblue" stroke="midnightblue" points="368.52,-49.12 360.86,-56.44 371.41,-55.5 368.52,-49.12"/>
</g>
</g>
</svg>
