<?xml version="1.0" encoding="UTF-8" standalone="no"?>
<!DOCTYPE svg PUBLIC "-//W3C//DTD SVG 1.1//EN"
 "http://www.w3.org/Graphics/SVG/1.1/DTD/svg11.dtd">
<!-- Generated by graphviz version 2.43.0 (0)
 -->
<!-- Title: /home/runner/work/cocos&#45;headers/cocos&#45;headers/cocos2dx/platform/CCFileUtils.h Pages: 1 -->
<svg width="677pt" height="498pt"
 viewBox="0.00 0.00 676.64 498.00" xmlns="http://www.w3.org/2000/svg" xmlns:xlink="http://www.w3.org/1999/xlink">
<g id="graph0" class="graph" transform="scale(1 1) rotate(0) translate(4 494)">
<title>/home/runner/work/cocos&#45;headers/cocos&#45;headers/cocos2dx/platform/CCFileUtils.h</title>
<!-- Node1 -->
<g id="node1" class="node">
<title>Node1</title>
<g id="a_node1"><a xlink:title=" ">
<polygon fill="#bfbfbf" stroke="black" points="357,-448.5 357,-489.5 533,-489.5 533,-448.5 357,-448.5"/>
<text text-anchor="start" x="365" y="-477.5" font-family="Helvetica,sans-Serif" font-size="10.00">/home/runner/work/cocos</text>
<text text-anchor="start" x="365" y="-466.5" font-family="Helvetica,sans-Serif" font-size="10.00">&#45;headers/cocos&#45;headers</text>
<text text-anchor="middle" x="445" y="-455.5" font-family="Helvetica,sans-Serif" font-size="10.00">/cocos2dx/platform/CCFileUtils.h</text>
</a>
</g>
</g>
<!-- Node2 -->
<g id="node2" class="node">
<title>Node2</title>
<g id="a_node2"><a xlink:title=" ">
<polygon fill="none" stroke="#bfbfbf" points="0,-168.5 0,-187.5 44,-187.5 44,-168.5 0,-168.5"/>
<text text-anchor="middle" x="22" y="-175.5" font-family="Helvetica,sans-Serif" font-size="10.00">string</text>
</a>
</g>
</g>
<!-- Node1&#45;&gt;Node2 -->
<g id="edge1" class="edge">
<title>Node1&#45;&gt;Node2</title>
<path fill="none" stroke="midnightblue" d="M356.88,-461.78C227.94,-450.22 3,-419.65 3,-347 3,-347 3,-347 3,-289 3,-256.49 11.16,-219.35 16.78,-197.61"/>
<polygon fill="midnightblue" stroke="midnightblue" points="20.22,-198.32 19.44,-187.75 13.46,-196.5 20.22,-198.32"/>
</g>
<!-- Node3 -->
<g id="node3" class="node">
<title>Node3</title>
<g id="a_node3"><a xlink:title=" ">
<polygon fill="none" stroke="#bfbfbf" points="535.5,-392.5 535.5,-411.5 582.5,-411.5 582.5,-392.5 535.5,-392.5"/>
<text text-anchor="middle" x="559" y="-399.5" font-family="Helvetica,sans-Serif" font-size="10.00">vector</text>
</a>
</g>
</g>
<!-- Node1&#45;&gt;Node3 -->
<g id="edge2" class="edge">
<title>Node1&#45;&gt;Node3</title>
<path fill="none" stroke="midnightblue" d="M479.2,-448.5C497.19,-438.24 518.79,-425.93 534.99,-416.69"/>
<polygon fill="midnightblue" stroke="midnightblue" points="536.87,-419.65 543.82,-411.65 533.4,-413.57 536.87,-419.65"/>
</g>
<!-- Node4 -->
<g id="node4" class="node">
<title>Node4</title>
<g id="a_node4"><a xlink:title=" ">
<polygon fill="none" stroke="#bfbfbf" points="601,-392.5 601,-411.5 639,-411.5 639,-392.5 601,-392.5"/>
<text text-anchor="middle" x="620" y="-399.5" font-family="Helvetica,sans-Serif" font-size="10.00">map</text>
</a>
</g>
</g>
<!-- Node1&#45;&gt;Node4 -->
<g id="edge3" class="edge">
<title>Node1&#45;&gt;Node4</title>
<path fill="none" stroke="midnightblue" d="M497.51,-448.5C528.26,-437.08 565.92,-423.09 591.29,-413.66"/>
<polygon fill="midnightblue" stroke="midnightblue" points="592.55,-416.93 600.71,-410.17 590.11,-410.37 592.55,-416.93"/>
</g>
<!-- Node5 -->
<g id="node5" class="node">
<title>Node5</title>
<g id="a_node5"><a xlink:href="../../d3/d41/_c_c_platform_macros_8h.html" target="_top" xlink:title=" ">
<polygon fill="none" stroke="black" points="270,-112.5 270,-131.5 386,-131.5 386,-112.5 270,-112.5"/>
<text text-anchor="middle" x="328" y="-119.5" font-family="Helvetica,sans-Serif" font-size="10.00">CCPlatformMacros.h</text>
</a>
</g>
</g>
<!-- Node1&#45;&gt;Node5 -->
<g id="edge4" class="edge">
<title>Node1&#45;&gt;Node5</title>
<path fill="none" stroke="midnightblue" d="M436.16,-448.32C426.38,-424.74 412,-383.8 412,-347 412,-347 412,-347 412,-233 412,-191.73 374.19,-156.32 349.31,-137.49"/>
<polygon fill="midnightblue" stroke="midnightblue" points="351.27,-134.59 341.12,-131.54 347.15,-140.25 351.27,-134.59"/>
</g>
<!-- Node9 -->
<g id="node9" class="node">
<title>Node9</title>
<g id="a_node9"><a xlink:href="../../df/de6/cc_types_8h.html" target="_top" xlink:title=" ">
<polygon fill="none" stroke="black" points="132,-392.5 132,-411.5 196,-411.5 196,-392.5 132,-392.5"/>
<text text-anchor="middle" x="164" y="-399.5" font-family="Helvetica,sans-Serif" font-size="10.00">ccTypes.h</text>
</a>
</g>
</g>
<!-- Node1&#45;&gt;Node9 -->
<g id="edge9" class="edge">
<title>Node1&#45;&gt;Node9</title>
<path fill="none" stroke="midnightblue" d="M360.69,-448.5C309.57,-436.67 246.57,-422.1 205.87,-412.68"/>
<polygon fill="midnightblue" stroke="midnightblue" points="206.55,-409.25 196.02,-410.41 204.97,-416.07 206.55,-409.25"/>
</g>
<!-- Node18 -->
<g id="node18" class="node">
<title>Node18</title>
<g id="a_node18"><a xlink:href="../../d7/d80/cc_type_info_8h.html" target="_top" xlink:title=" ">
<polygon fill="none" stroke="black" points="440.5,-392.5 440.5,-411.5 517.5,-411.5 517.5,-392.5 440.5,-392.5"/>
<text text-anchor="middle" x="479" y="-399.5" font-family="Helvetica,sans-Serif" font-size="10.00">ccTypeInfo.h</text>
</a>
</g>
</g>
<!-- Node1&#45;&gt;Node18 -->
<g id="edge24" class="edge">
<title>Node1&#45;&gt;Node18</title>
<path fill="none" stroke="midnightblue" d="M455.2,-448.5C459.81,-439.68 465.22,-429.34 469.72,-420.74"/>
<polygon fill="midnightblue" stroke="midnightblue" points="472.94,-422.14 474.47,-411.65 466.74,-418.89 472.94,-422.14"/>
</g>
<!-- Node6 -->
<g id="node6" class="node">
<title>Node6</title>
<g id="a_node6"><a xlink:href="../../db/d9f/cc_config_8h.html" target="_top" xlink:title="cocos2d (cc) configuration file">
<polygon fill="none" stroke="black" points="189.5,-56.5 189.5,-75.5 256.5,-75.5 256.5,-56.5 189.5,-56.5"/>
<text text-anchor="middle" x="223" y="-63.5" font-family="Helvetica,sans-Serif" font-size="10.00">ccConfig.h</text>
</a>
</g>
</g>
<!-- Node5&#45;&gt;Node6 -->
<g id="edge5" class="edge">
<title>Node5&#45;&gt;Node6</title>
<path fill="none" stroke="midnightblue" d="M311.13,-112.32C294.29,-103.66 268.19,-90.24 248.76,-80.25"/>
<polygon fill="midnightblue" stroke="midnightblue" points="250.32,-77.12 239.83,-75.65 247.12,-83.34 250.32,-77.12"/>
</g>
<!-- Node7 -->
<g id="node7" class="node">
<title>Node7</title>
<g id="a_node7"><a xlink:href="../../dd/d96/_c_c_platform_config_8h.html" target="_top" xlink:title=" ">
<polygon fill="none" stroke="black" points="175.5,-0.5 175.5,-19.5 332.5,-19.5 332.5,-0.5 175.5,-0.5"/>
<text text-anchor="middle" x="254" y="-7.5" font-family="Helvetica,sans-Serif" font-size="10.00">platform/CCPlatformConfig.h</text>
</a>
</g>
</g>
<!-- Node5&#45;&gt;Node7 -->
<g id="edge7" class="edge">
<title>Node5&#45;&gt;Node7</title>
<path fill="none" stroke="midnightblue" d="M322.19,-112.37C309.98,-94.22 281.45,-51.8 265.43,-27.99"/>
<polygon fill="midnightblue" stroke="midnightblue" points="268.27,-25.94 259.78,-19.59 262.46,-29.84 268.27,-25.94"/>
</g>
<!-- Node8 -->
<g id="node8" class="node">
<title>Node8</title>
<g id="a_node8"><a xlink:title=" ">
<polygon fill="none" stroke="#bfbfbf" points="313.5,-56.5 313.5,-75.5 426.5,-75.5 426.5,-56.5 313.5,-56.5"/>
<text text-anchor="middle" x="370" y="-63.5" font-family="Helvetica,sans-Serif" font-size="10.00">CCPlatformDefine.h</text>
</a>
</g>
</g>
<!-- Node5&#45;&gt;Node8 -->
<g id="edge8" class="edge">
<title>Node5&#45;&gt;Node8</title>
<path fill="none" stroke="midnightblue" d="M334.94,-112.08C340.93,-104.38 349.75,-93.03 357.05,-83.65"/>
<polygon fill="midnightblue" stroke="midnightblue" points="359.82,-85.79 363.19,-75.75 354.29,-81.5 359.82,-85.79"/>
</g>
<!-- Node6&#45;&gt;Node7 -->
<g id="edge6" class="edge">
<title>Node6&#45;&gt;Node7</title>
<path fill="none" stroke="midnightblue" d="M228.12,-56.08C232.41,-48.61 238.66,-37.72 243.94,-28.52"/>
<polygon fill="midnightblue" stroke="midnightblue" points="247.03,-30.17 248.98,-19.75 240.96,-26.68 247.03,-30.17"/>
</g>
<!-- Node9&#45;&gt;Node2 -->
<g id="edge10" class="edge">
<title>Node9&#45;&gt;Node2</title>
<path fill="none" stroke="midnightblue" d="M135.55,-392.49C116.76,-385.51 92.94,-373.82 78,-356 38.38,-308.73 26.7,-233.22 23.33,-198.11"/>
<polygon fill="midnightblue" stroke="midnightblue" points="26.79,-197.53 22.48,-187.85 19.82,-198.11 26.79,-197.53"/>
</g>
<!-- Node10 -->
<g id="node10" class="node">
<title>Node10</title>
<g id="a_node10"><a xlink:href="../../d6/d09/_c_c_geometry_8h.html" target="_top" xlink:title=" ">
<polygon fill="none" stroke="black" points="157,-336.5 157,-355.5 275,-355.5 275,-336.5 157,-336.5"/>
<text text-anchor="middle" x="216" y="-343.5" font-family="Helvetica,sans-Serif" font-size="10.00">cocoa/CCGeometry.h</text>
</a>
</g>
</g>
<!-- Node9&#45;&gt;Node10 -->
<g id="edge11" class="edge">
<title>Node9&#45;&gt;Node10</title>
<path fill="none" stroke="midnightblue" d="M172.59,-392.08C180.16,-384.22 191.38,-372.57 200.51,-363.08"/>
<polygon fill="midnightblue" stroke="midnightblue" points="203.16,-365.38 207.57,-355.75 198.12,-360.53 203.16,-365.38"/>
</g>
<!-- Node17 -->
<g id="node17" class="node">
<title>Node17</title>
<g id="a_node17"><a xlink:title=" ">
<polygon fill="none" stroke="#bfbfbf" points="87,-336.5 87,-355.5 139,-355.5 139,-336.5 87,-336.5"/>
<text text-anchor="middle" x="113" y="-343.5" font-family="Helvetica,sans-Serif" font-size="10.00">CCGL.h</text>
</a>
</g>
</g>
<!-- Node9&#45;&gt;Node17 -->
<g id="edge23" class="edge">
<title>Node9&#45;&gt;Node17</title>
<path fill="none" stroke="midnightblue" d="M155.58,-392.08C148.15,-384.22 137.15,-372.57 128.19,-363.08"/>
<polygon fill="midnightblue" stroke="midnightblue" points="130.68,-360.62 121.26,-355.75 125.59,-365.42 130.68,-360.62"/>
</g>
<!-- Node10&#45;&gt;Node5 -->
<g id="edge12" class="edge">
<title>Node10&#45;&gt;Node5</title>
<path fill="none" stroke="midnightblue" d="M228.56,-336.21C257.77,-314.88 329.66,-257.04 355,-188 361.09,-171.41 351.68,-152.82 342.34,-139.78"/>
<polygon fill="midnightblue" stroke="midnightblue" points="344.98,-137.48 336.08,-131.74 339.46,-141.78 344.98,-137.48"/>
</g>
<!-- Node11 -->
<g id="node11" class="node">
<title>Node11</title>
<g id="a_node11"><a xlink:href="../../dd/d69/_c_c_object_8h.html" target="_top" xlink:title=" ">
<polygon fill="none" stroke="black" points="180.5,-280.5 180.5,-299.5 251.5,-299.5 251.5,-280.5 180.5,-280.5"/>
<text text-anchor="middle" x="216" y="-287.5" font-family="Helvetica,sans-Serif" font-size="10.00">CCObject.h</text>
</a>
</g>
</g>
<!-- Node10&#45;&gt;Node11 -->
<g id="edge13" class="edge">
<title>Node10&#45;&gt;Node11</title>
<path fill="none" stroke="midnightblue" d="M216,-336.08C216,-329.01 216,-318.86 216,-309.99"/>
<polygon fill="midnightblue" stroke="midnightblue" points="219.5,-309.75 216,-299.75 212.5,-309.75 219.5,-309.75"/>
</g>
<!-- Node16 -->
<g id="node16" class="node">
<title>Node16</title>
<g id="a_node16"><a xlink:title=" ">
<polygon fill="none" stroke="#bfbfbf" points="111.5,-280.5 111.5,-299.5 162.5,-299.5 162.5,-280.5 111.5,-280.5"/>
<text text-anchor="middle" x="137" y="-287.5" font-family="Helvetica,sans-Serif" font-size="10.00">math.h</text>
</a>
</g>
</g>
<!-- Node10&#45;&gt;Node16 -->
<g id="edge22" class="edge">
<title>Node10&#45;&gt;Node16</title>
<path fill="none" stroke="midnightblue" d="M203.31,-336.32C191.1,-327.98 172.42,-315.21 158,-305.35"/>
<polygon fill="midnightblue" stroke="midnightblue" points="159.89,-302.41 149.66,-299.65 155.94,-308.19 159.89,-302.41"/>
</g>
<!-- Node12 -->
<g id="node12" class="node">
<title>Node12</title>
<g id="a_node12"><a xlink:href="../../d9/d2d/_c_c_data_visitor_8h.html" target="_top" xlink:title=" ">
<polygon fill="none" stroke="black" points="69.5,-224.5 69.5,-243.5 162.5,-243.5 162.5,-224.5 69.5,-224.5"/>
<text text-anchor="middle" x="116" y="-231.5" font-family="Helvetica,sans-Serif" font-size="10.00">CCDataVisitor.h</text>
</a>
</g>
</g>
<!-- Node11&#45;&gt;Node12 -->
<g id="edge14" class="edge">
<title>Node11&#45;&gt;Node12</title>
<path fill="none" stroke="midnightblue" d="M199.93,-280.32C184.04,-271.74 159.49,-258.49 141.04,-248.52"/>
<polygon fill="midnightblue" stroke="midnightblue" points="142.49,-245.33 132.03,-243.65 139.16,-251.49 142.49,-245.33"/>
</g>
<!-- Node13 -->
<g id="node13" class="node">
<title>Node13</title>
<g id="a_node13"><a xlink:href="../../d9/dc8/cc_macros_8h.html" target="_top" xlink:title=" ">
<polygon fill="none" stroke="black" points="180.5,-224.5 180.5,-243.5 251.5,-243.5 251.5,-224.5 180.5,-224.5"/>
<text text-anchor="middle" x="216" y="-231.5" font-family="Helvetica,sans-Serif" font-size="10.00">ccMacros.h</text>
</a>
</g>
</g>
<!-- Node11&#45;&gt;Node13 -->
<g id="edge17" class="edge">
<title>Node11&#45;&gt;Node13</title>
<path fill="none" stroke="midnightblue" d="M216,-280.08C216,-273.01 216,-262.86 216,-253.99"/>
<polygon fill="midnightblue" stroke="midnightblue" points="219.5,-253.75 216,-243.75 212.5,-253.75 219.5,-253.75"/>
</g>
<!-- Node12&#45;&gt;Node2 -->
<g id="edge16" class="edge">
<title>Node12&#45;&gt;Node2</title>
<path fill="none" stroke="midnightblue" d="M100.9,-224.32C86.1,-215.82 63.31,-202.73 46.02,-192.8"/>
<polygon fill="midnightblue" stroke="midnightblue" points="47.48,-189.6 37.07,-187.65 43.99,-195.67 47.48,-189.6"/>
</g>
<!-- Node12&#45;&gt;Node5 -->
<g id="edge15" class="edge">
<title>Node12&#45;&gt;Node5</title>
<path fill="none" stroke="midnightblue" d="M115,-224.06C113.97,-210.11 114.22,-183.16 129,-168 147.11,-149.44 209.59,-137.39 259.77,-130.47"/>
<polygon fill="midnightblue" stroke="midnightblue" points="260.5,-133.91 269.95,-129.12 259.58,-126.97 260.5,-133.91"/>
</g>
<!-- Node13&#45;&gt;Node6 -->
<g id="edge21" class="edge">
<title>Node13&#45;&gt;Node6</title>
<path fill="none" stroke="midnightblue" d="M180.99,-224.45C162.07,-217.84 140.32,-206.59 129,-188 124.38,-180.41 125.75,-176.27 129,-168 143.62,-130.84 179.06,-99.25 202,-81.73"/>
<polygon fill="midnightblue" stroke="midnightblue" points="204.16,-84.49 210.12,-75.72 200,-78.86 204.16,-84.49"/>
</g>
<!-- Node14 -->
<g id="node14" class="node">
<title>Node14</title>
<g id="a_node14"><a xlink:href="../../d5/d22/_c_c_common_8h.html" target="_top" xlink:title=" ">
<polygon fill="none" stroke="black" points="218,-168.5 218,-187.5 346,-187.5 346,-168.5 218,-168.5"/>
<text text-anchor="middle" x="282" y="-175.5" font-family="Helvetica,sans-Serif" font-size="10.00">platform/CCCommon.h</text>
</a>
</g>
</g>
<!-- Node13&#45;&gt;Node14 -->
<g id="edge18" class="edge">
<title>Node13&#45;&gt;Node14</title>
<path fill="none" stroke="midnightblue" d="M226.6,-224.32C236.46,-216.26 251.35,-204.08 263.22,-194.37"/>
<polygon fill="midnightblue" stroke="midnightblue" points="265.68,-196.88 271.2,-187.83 261.25,-191.46 265.68,-196.88"/>
</g>
<!-- Node15 -->
<g id="node15" class="node">
<title>Node15</title>
<g id="a_node15"><a xlink:title=" ">
<polygon fill="none" stroke="#bfbfbf" points="138,-168.5 138,-187.5 200,-187.5 200,-168.5 138,-168.5"/>
<text text-anchor="middle" x="169" y="-175.5" font-family="Helvetica,sans-Serif" font-size="10.00">CCStdC.h</text>
</a>
</g>
</g>
<!-- Node13&#45;&gt;Node15 -->
<g id="edge20" class="edge">
<title>Node13&#45;&gt;Node15</title>
<path fill="none" stroke="midnightblue" d="M208.24,-224.08C201.46,-216.3 191.46,-204.8 183.24,-195.37"/>
<polygon fill="midnightblue" stroke="midnightblue" points="185.82,-193 176.62,-187.75 180.54,-197.59 185.82,-193"/>
</g>
<!-- Node14&#45;&gt;Node5 -->
<g id="edge19" class="edge">
<title>Node14&#45;&gt;Node5</title>
<path fill="none" stroke="midnightblue" d="M289.6,-168.08C296.23,-160.3 306.02,-148.8 314.06,-139.37"/>
<polygon fill="midnightblue" stroke="midnightblue" points="316.73,-141.63 320.55,-131.75 311.4,-137.09 316.73,-141.63"/>
</g>
<!-- Node18&#45;&gt;Node5 -->
<g id="edge25" class="edge">
<title>Node18&#45;&gt;Node5</title>
<path fill="none" stroke="midnightblue" d="M517.63,-392.87C564.8,-382.63 639.52,-365.24 649,-356 670.55,-334.99 668,-321.1 668,-291 668,-291 668,-291 668,-233 668,-176.39 495.24,-144.6 396.01,-131"/>
<polygon fill="midnightblue" stroke="midnightblue" points="396.44,-127.53 386.06,-129.66 395.51,-134.46 396.44,-127.53"/>
</g>
<!-- Node19 -->
<g id="node19" class="node">
<title>Node19</title>
<g id="a_node19"><a xlink:title=" ">
<polygon fill="none" stroke="#bfbfbf" points="511.5,-336.5 511.5,-355.5 568.5,-355.5 568.5,-336.5 511.5,-336.5"/>
<text text-anchor="middle" x="540" y="-343.5" font-family="Helvetica,sans-Serif" font-size="10.00">typeinfo</text>
</a>
</g>
</g>
<!-- Node18&#45;&gt;Node19 -->
<g id="edge26" class="edge">
<title>Node18&#45;&gt;Node19</title>
<path fill="none" stroke="midnightblue" d="M488.8,-392.32C497.82,-384.34 511.41,-372.31 522.32,-362.65"/>
<polygon fill="midnightblue" stroke="midnightblue" points="524.85,-365.08 530.02,-355.83 520.21,-359.84 524.85,-365.08"/>
</g>
<!-- Node20 -->
<g id="node20" class="node">
<title>Node20</title>
<g id="a_node20"><a xlink:title=" ">
<polygon fill="none" stroke="#bfbfbf" points="586.5,-336.5 586.5,-355.5 639.5,-355.5 639.5,-336.5 586.5,-336.5"/>
<text text-anchor="middle" x="613" y="-343.5" font-family="Helvetica,sans-Serif" font-size="10.00">ctype.h</text>
</a>
</g>
</g>
<!-- Node18&#45;&gt;Node20 -->
<g id="edge27" class="edge">
<title>Node18&#45;&gt;Node20</title>
<path fill="none" stroke="midnightblue" d="M500.23,-392.44C522.38,-383.52 557.32,-369.44 582.44,-359.32"/>
<polygon fill="midnightblue" stroke="midnightblue" points="583.9,-362.5 591.87,-355.52 581.28,-356.01 583.9,-362.5"/>
</g>
<!-- Node21 -->
<g id="node21" class="node">
<title>Node21</title>
<g id="a_node21"><a xlink:title=" ">
<polygon fill="none" stroke="#bfbfbf" points="440.5,-336.5 440.5,-355.5 493.5,-355.5 493.5,-336.5 440.5,-336.5"/>
<text text-anchor="middle" x="467" y="-343.5" font-family="Helvetica,sans-Serif" font-size="10.00">string.h</text>
</a>
</g>
</g>
<!-- Node18&#45;&gt;Node21 -->
<g id="edge28" class="edge">
<title>Node18&#45;&gt;Node21</title>
<path fill="none" stroke="midnightblue" d="M477.02,-392.08C475.43,-384.93 473.14,-374.64 471.15,-365.69"/>
<polygon fill="midnightblue" stroke="midnightblue" points="474.53,-364.75 468.94,-355.75 467.7,-366.27 474.53,-364.75"/>
</g>
</g>
</svg>
