<?xml version="1.0" encoding="UTF-8" standalone="no"?>
<!DOCTYPE svg PUBLIC "-//W3C//DTD SVG 1.1//EN"
 "http://www.w3.org/Graphics/SVG/1.1/DTD/svg11.dtd">
<!-- Generated by graphviz version 2.43.0 (0)
 -->
<!-- Title: CCControlSwitch Pages: 1 -->
<svg width="1814pt" height="674pt"
 viewBox="0.00 0.00 1814.00 674.48" xmlns="http://www.w3.org/2000/svg" xmlns:xlink="http://www.w3.org/1999/xlink">
<g id="graph0" class="graph" transform="scale(1 1) rotate(0) translate(4 670.48)">
<title>CCControlSwitch</title>
<!-- Node1 -->
<g id="node1" class="node">
<title>Node1</title>
<g id="a_node1"><a xlink:title="for Cocos2D.">
<polygon fill="#bfbfbf" stroke="black" points="1708,-6.5 1708,-25.5 1806,-25.5 1806,-6.5 1708,-6.5"/>
<text text-anchor="middle" x="1757" y="-13.5" font-family="Helvetica,sans-Serif" font-size="10.00">CCControlSwitch</text>
</a>
</g>
</g>
<!-- Node2 -->
<g id="node2" class="node">
<title>Node2</title>
<g id="a_node2"><a xlink:href="../../d4/d38/classcocos2d_1_1extension_1_1_c_c_control.html" target="_top" xlink:title=" ">
<polygon fill="none" stroke="black" points="1606,-6.5 1606,-25.5 1671,-25.5 1671,-6.5 1606,-6.5"/>
<text text-anchor="middle" x="1638.5" y="-13.5" font-family="Helvetica,sans-Serif" font-size="10.00">CCControl</text>
</a>
</g>
</g>
<!-- Node2&#45;&gt;Node1 -->
<g id="edge1" class="edge">
<title>Node2&#45;&gt;Node1</title>
<path fill="none" stroke="midnightblue" d="M1681.22,-16C1689.83,-16 1698.98,-16 1707.8,-16"/>
<polygon fill="midnightblue" stroke="midnightblue" points="1681.03,-12.5 1671.03,-16 1681.03,-19.5 1681.03,-12.5"/>
</g>
<!-- Node3 -->
<g id="node3" class="node">
<title>Node3</title>
<g id="a_node3"><a xlink:href="../../dd/d1e/classcocos2d_1_1_c_c_layer_r_g_b_a.html" target="_top" xlink:title="CCLayerRGBA is a subclass of CCLayer that implements the CCRGBAProtocol protocol using a solid color ...">
<polygon fill="none" stroke="black" points="1484,-266.5 1484,-285.5 1569,-285.5 1569,-266.5 1484,-266.5"/>
<text text-anchor="middle" x="1526.5" y="-273.5" font-family="Helvetica,sans-Serif" font-size="10.00">CCLayerRGBA</text>
</a>
</g>
</g>
<!-- Node3&#45;&gt;Node2 -->
<g id="edge2" class="edge">
<title>Node3&#45;&gt;Node2</title>
<path fill="none" stroke="midnightblue" d="M1535.48,-257.14C1557.26,-205.65 1617.21,-63.95 1633.42,-25.65"/>
<polygon fill="midnightblue" stroke="midnightblue" points="1532.22,-255.86 1531.55,-266.44 1538.67,-258.59 1532.22,-255.86"/>
</g>
<!-- Node4 -->
<g id="node4" class="node">
<title>Node4</title>
<g id="a_node4"><a xlink:href="../../d0/d45/class_c_c_layer.html" target="_top" xlink:title="CCLayer is a subclass of CCNode that implements the TouchEventsDelegate protocol.">
<polygon fill="none" stroke="black" points="1288.5,-289.5 1288.5,-308.5 1345.5,-308.5 1345.5,-289.5 1288.5,-289.5"/>
<text text-anchor="middle" x="1317" y="-296.5" font-family="Helvetica,sans-Serif" font-size="10.00">CCLayer</text>
</a>
</g>
</g>
<!-- Node4&#45;&gt;Node3 -->
<g id="edge3" class="edge">
<title>Node4&#45;&gt;Node3</title>
<path fill="none" stroke="midnightblue" d="M1355.7,-294.82C1391.87,-290.81 1446.38,-284.77 1483.83,-280.62"/>
<polygon fill="midnightblue" stroke="midnightblue" points="1355.11,-291.37 1345.55,-295.95 1355.88,-298.32 1355.11,-291.37"/>
</g>
<!-- Node5 -->
<g id="node5" class="node">
<title>Node5</title>
<g id="a_node5"><a xlink:href="../../d0/ded/classcocos2d_1_1_c_c_node.html" target="_top" xlink:title="CCNode is the main element.">
<polygon fill="none" stroke="black" points="1130,-346.5 1130,-365.5 1186,-365.5 1186,-346.5 1130,-346.5"/>
<text text-anchor="middle" x="1158" y="-353.5" font-family="Helvetica,sans-Serif" font-size="10.00">CCNode</text>
</a>
</g>
</g>
<!-- Node5&#45;&gt;Node4 -->
<g id="edge4" class="edge">
<title>Node5&#45;&gt;Node4</title>
<path fill="none" stroke="midnightblue" d="M1196.16,-347.83C1207.51,-344.9 1219.91,-341.25 1231,-337 1248.26,-330.38 1251.16,-325.63 1268,-318 1275.18,-314.74 1283.1,-311.48 1290.4,-308.6"/>
<polygon fill="midnightblue" stroke="midnightblue" points="1194.97,-344.52 1186.11,-350.31 1196.65,-351.31 1194.97,-344.52"/>
</g>
<!-- Node5&#45;&gt;Node5 -->
<g id="edge26" class="edge">
<title>Node5&#45;&gt;Node5</title>
<path fill="none" stroke="#9a32cd" stroke-dasharray="5,2" d="M1141.33,-375.4C1142.45,-380.31 1148,-384 1158,-384 1174,-384 1178.62,-374.57 1171.87,-365.76"/>
<polygon fill="#9a32cd" stroke="#9a32cd" points="1144.71,-376.34 1144.13,-365.76 1137.98,-374.39 1144.71,-376.34"/>
<text text-anchor="middle" x="1158" y="-387" font-family="Helvetica,sans-Serif" font-size="10.00"> m_pParent</text>
</g>
<!-- Node6 -->
<g id="node6" class="node">
<title>Node6</title>
<g id="a_node6"><a xlink:href="../../d3/dbf/classcocos2d_1_1_c_c_object.html" target="_top" xlink:title="NA.">
<polygon fill="none" stroke="black" points="121,-262.5 121,-281.5 183,-281.5 183,-262.5 121,-262.5"/>
<text text-anchor="middle" x="152" y="-269.5" font-family="Helvetica,sans-Serif" font-size="10.00">CCObject</text>
</a>
</g>
</g>
<!-- Node6&#45;&gt;Node5 -->
<g id="edge5" class="edge">
<title>Node6&#45;&gt;Node5</title>
<path fill="none" stroke="midnightblue" d="M154.58,-291.64C159.62,-349.27 177.27,-516.22 215,-553 256.82,-593.76 285.6,-578 344,-578 344,-578 344,-578 855,-578 949.88,-578 999.82,-619.99 1067,-553 1090.62,-529.45 1067.52,-432.41 1085,-404 1096.02,-386.09 1116.52,-373.41 1132.84,-365.6"/>
<polygon fill="midnightblue" stroke="midnightblue" points="158.06,-291.31 153.74,-281.64 151.09,-291.9 158.06,-291.31"/>
</g>
<!-- Node6&#45;&gt;Node5 -->
<g id="edge27" class="edge">
<title>Node6&#45;&gt;Node5</title>
<path fill="none" stroke="#9a32cd" stroke-dasharray="5,2" d="M156.95,-291.46C170.66,-352.95 222.21,-539 344,-539 344,-539 344,-539 855,-539 950.72,-539 999.11,-568.48 1067,-501 1098.1,-470.09 1060.86,-440.6 1085,-404 1096.66,-386.32 1117.32,-373.55 1133.53,-365.65"/>
<polygon fill="#9a32cd" stroke="#9a32cd" points="160.33,-290.55 154.82,-281.5 153.48,-292.01 160.33,-290.55"/>
<text text-anchor="middle" x="597" y="-542" font-family="Helvetica,sans-Serif" font-size="10.00"> m_pUserObject</text>
</g>
<!-- Node11 -->
<g id="node11" class="node">
<title>Node11</title>
<g id="a_node11"><a xlink:href="../../d2/d51/classcocos2d_1_1_c_c_camera.html" target="_top" xlink:title="A CCCamera is used in every CCNode.">
<polygon fill="none" stroke="black" points="433,-477.5 433,-496.5 501,-496.5 501,-477.5 433,-477.5"/>
<text text-anchor="middle" x="467" y="-484.5" font-family="Helvetica,sans-Serif" font-size="10.00">CCCamera</text>
</a>
</g>
</g>
<!-- Node6&#45;&gt;Node11 -->
<g id="edge11" class="edge">
<title>Node6&#45;&gt;Node11</title>
<path fill="none" stroke="midnightblue" d="M166.18,-289.8C178.05,-305.26 196.45,-327.8 215,-345 288.94,-413.57 312.49,-428.87 405,-469 413.81,-472.82 423.68,-476.13 432.87,-478.82"/>
<polygon fill="midnightblue" stroke="midnightblue" points="168.81,-287.48 159.98,-281.61 163.22,-291.7 168.81,-287.48"/>
</g>
<!-- Node12 -->
<g id="node12" class="node">
<title>Node12</title>
<g id="a_node12"><a xlink:href="../../d6/d70/classcocos2d_1_1_c_c_grid_base.html" target="_top" xlink:title="Base class for other.">
<polygon fill="none" stroke="black" points="817,-300.5 817,-319.5 891,-319.5 891,-300.5 817,-300.5"/>
<text text-anchor="middle" x="854" y="-307.5" font-family="Helvetica,sans-Serif" font-size="10.00">CCGridBase</text>
</a>
</g>
</g>
<!-- Node6&#45;&gt;Node12 -->
<g id="edge13" class="edge">
<title>Node6&#45;&gt;Node12</title>
<path fill="none" stroke="midnightblue" d="M193.15,-264.22C312.69,-241.79 664.42,-181.32 769,-225 806.33,-240.59 835.53,-281.75 847.32,-300.48"/>
<polygon fill="midnightblue" stroke="midnightblue" points="192.48,-260.78 183.3,-266.08 193.78,-267.66 192.48,-260.78"/>
</g>
<!-- Node13 -->
<g id="node13" class="node">
<title>Node13</title>
<g id="a_node13"><a xlink:href="../../d7/dfd/classcocos2d_1_1_c_c_texture2_d.html" target="_top" xlink:title="CCTexture2D class.">
<polygon fill="none" stroke="black" points="557,-322.5 557,-341.5 637,-341.5 637,-322.5 557,-322.5"/>
<text text-anchor="middle" x="597" y="-329.5" font-family="Helvetica,sans-Serif" font-size="10.00">CCTexture2D</text>
</a>
</g>
</g>
<!-- Node6&#45;&gt;Node13 -->
<g id="edge16" class="edge">
<title>Node6&#45;&gt;Node13</title>
<path fill="none" stroke="midnightblue" d="M193.2,-281.45C200.44,-283.04 207.93,-284.63 215,-286 298.99,-302.32 320.05,-306.75 405,-317 457.34,-323.31 518.09,-327.56 556.76,-329.88"/>
<polygon fill="midnightblue" stroke="midnightblue" points="193.72,-277.98 183.2,-279.2 192.19,-284.81 193.72,-277.98"/>
</g>
<!-- Node14 -->
<g id="node14" class="node">
<title>Node14</title>
<g id="a_node14"><a xlink:href="../../db/d28/classcocos2d_1_1_c_c_g_l_program.html" target="_top" xlink:title="CCGLProgram Class that implements a glProgram.">
<polygon fill="none" stroke="black" points="303,-262.5 303,-281.5 387,-281.5 387,-262.5 303,-262.5"/>
<text text-anchor="middle" x="345" y="-269.5" font-family="Helvetica,sans-Serif" font-size="10.00">CCGLProgram</text>
</a>
</g>
</g>
<!-- Node6&#45;&gt;Node14 -->
<g id="edge19" class="edge">
<title>Node6&#45;&gt;Node14</title>
<path fill="none" stroke="midnightblue" d="M193.66,-272C225.83,-272 270.56,-272 302.86,-272"/>
<polygon fill="midnightblue" stroke="midnightblue" points="193.26,-268.5 183.26,-272 193.26,-275.5 193.26,-268.5"/>
</g>
<!-- Node15 -->
<g id="node15" class="node">
<title>Node15</title>
<g id="a_node15"><a xlink:href="../../d3/d89/classcocos2d_1_1_c_c_grabber.html" target="_top" xlink:title="FBO class that grabs the the contents of the screen NA NA.">
<polygon fill="none" stroke="black" points="432.5,-160.5 432.5,-179.5 501.5,-179.5 501.5,-160.5 432.5,-160.5"/>
<text text-anchor="middle" x="467" y="-167.5" font-family="Helvetica,sans-Serif" font-size="10.00">CCGrabber</text>
</a>
</g>
</g>
<!-- Node6&#45;&gt;Node15 -->
<g id="edge22" class="edge">
<title>Node6&#45;&gt;Node15</title>
<path fill="none" stroke="midnightblue" d="M162.23,-253.51C172.43,-235.24 190.69,-208.16 215,-195 284.9,-157.17 381.85,-160.41 432.36,-165.51"/>
<polygon fill="midnightblue" stroke="midnightblue" points="159.12,-251.91 157.52,-262.38 165.3,-255.19 159.12,-251.91"/>
</g>
<!-- Node16 -->
<g id="node16" class="node">
<title>Node16</title>
<g id="a_node16"><a xlink:href="../../d9/d2e/classcocos2d_1_1_c_c_array.html" target="_top" xlink:title="NA.">
<polygon fill="none" stroke="black" points="317,-114.5 317,-133.5 373,-133.5 373,-114.5 317,-114.5"/>
<text text-anchor="middle" x="345" y="-121.5" font-family="Helvetica,sans-Serif" font-size="10.00">CCArray</text>
</a>
</g>
</g>
<!-- Node6&#45;&gt;Node16 -->
<g id="edge25" class="edge">
<title>Node6&#45;&gt;Node16</title>
<path fill="none" stroke="midnightblue" d="M157.99,-252.66C165.73,-226.65 183.15,-180.8 215,-156 244.59,-132.96 288.59,-126.28 316.79,-124.47"/>
<polygon fill="midnightblue" stroke="midnightblue" points="154.57,-251.9 155.25,-262.48 161.31,-253.78 154.57,-251.9"/>
</g>
<!-- Node17 -->
<g id="node17" class="node">
<title>Node17</title>
<g id="a_node17"><a xlink:href="../../de/dee/classcocos2d_1_1_c_c_scheduler.html" target="_top" xlink:title="Scheduler is responsible for triggering the scheduled callbacks.">
<polygon fill="none" stroke="black" points="558,-76.5 558,-95.5 636,-95.5 636,-76.5 558,-76.5"/>
<text text-anchor="middle" x="597" y="-83.5" font-family="Helvetica,sans-Serif" font-size="10.00">CCScheduler</text>
</a>
</g>
</g>
<!-- Node6&#45;&gt;Node17 -->
<g id="edge30" class="edge">
<title>Node6&#45;&gt;Node17</title>
<path fill="none" stroke="midnightblue" d="M155.58,-252.08C160.8,-220.19 175.68,-157.96 215,-125 314.12,-41.93 482.55,-62.57 557.76,-77.29"/>
<polygon fill="midnightblue" stroke="midnightblue" points="152.06,-251.93 154.06,-262.34 158.99,-252.95 152.06,-251.93"/>
</g>
<!-- Node18 -->
<g id="node18" class="node">
<title>Node18</title>
<g id="a_node18"><a xlink:href="../../d5/dcb/classcocos2d_1_1_c_c_action_manager.html" target="_top" xlink:title="CCActionManager is a singleton that manages all the actions.">
<polygon fill="none" stroke="black" points="665,-612.5 665,-631.5 769,-631.5 769,-612.5 665,-612.5"/>
<text text-anchor="middle" x="717" y="-619.5" font-family="Helvetica,sans-Serif" font-size="10.00">CCActionManager</text>
</a>
</g>
</g>
<!-- Node6&#45;&gt;Node18 -->
<g id="edge33" class="edge">
<title>Node6&#45;&gt;Node18</title>
<path fill="none" stroke="midnightblue" d="M153.79,-292.06C156.77,-355.84 169.53,-552.15 215,-592 351.8,-711.89 598.62,-656.2 685.08,-631.56"/>
<polygon fill="midnightblue" stroke="midnightblue" points="157.28,-291.6 153.35,-281.76 150.28,-291.9 157.28,-291.6"/>
</g>
<!-- Node26 -->
<g id="node26" class="node">
<title>Node26</title>
<g id="a_node26"><a xlink:href="../../d7/d5f/classcocos2d_1_1_c_c_dictionary.html" target="_top" xlink:title="CCDictionary is a class like NSDictionary in Obj&#45;C .">
<polygon fill="none" stroke="black" points="305,-0.5 305,-19.5 385,-19.5 385,-0.5 305,-0.5"/>
<text text-anchor="middle" x="345" y="-7.5" font-family="Helvetica,sans-Serif" font-size="10.00">CCDictionary</text>
</a>
</g>
</g>
<!-- Node6&#45;&gt;Node26 -->
<g id="edge42" class="edge">
<title>Node6&#45;&gt;Node26</title>
<path fill="none" stroke="midnightblue" d="M152.78,-251.99C153.43,-209.5 161,-109.54 215,-53 221.77,-45.92 274,-29.94 309.89,-19.58"/>
<polygon fill="midnightblue" stroke="midnightblue" points="149.28,-252.14 152.75,-262.15 156.28,-252.16 149.28,-252.14"/>
</g>
<!-- Node7 -->
<g id="node7" class="node">
<title>Node7</title>
<g id="a_node7"><a xlink:href="../../d5/d61/classcocos2d_1_1_c_c_copying.html" target="_top" xlink:title="NA NA.">
<polygon fill="none" stroke="black" points="0,-262.5 0,-281.5 70,-281.5 70,-262.5 0,-262.5"/>
<text text-anchor="middle" x="35" y="-269.5" font-family="Helvetica,sans-Serif" font-size="10.00">CCCopying</text>
</a>
</g>
</g>
<!-- Node7&#45;&gt;Node6 -->
<g id="edge6" class="edge">
<title>Node7&#45;&gt;Node6</title>
<path fill="none" stroke="midnightblue" d="M80.26,-272C93.76,-272 108.29,-272 120.65,-272"/>
<polygon fill="midnightblue" stroke="midnightblue" points="80.19,-268.5 70.19,-272 80.19,-275.5 80.19,-268.5"/>
</g>
<!-- Node8 -->
<g id="node8" class="node">
<title>Node8</title>
<g id="a_node8"><a xlink:href="../../d2/df3/classcocos2d_1_1_c_c_point.html" target="_top" xlink:title="NA.">
<polygon fill="none" stroke="black" points="569.5,-407.5 569.5,-426.5 624.5,-426.5 624.5,-407.5 569.5,-407.5"/>
<text text-anchor="middle" x="597" y="-414.5" font-family="Helvetica,sans-Serif" font-size="10.00">CCPoint</text>
</a>
</g>
</g>
<!-- Node8&#45;&gt;Node5 -->
<g id="edge7" class="edge">
<title>Node8&#45;&gt;Node5</title>
<path fill="none" stroke="#9a32cd" stroke-dasharray="5,2" d="M635.05,-423.26C672.22,-427.46 729.47,-428.05 769,-401 783.76,-390.9 771.9,-374.59 787,-365 843.68,-329.01 1054.43,-345.79 1129.9,-353.16"/>
<polygon fill="#9a32cd" stroke="#9a32cd" points="635.03,-419.72 624.67,-421.93 634.14,-426.67 635.03,-419.72"/>
<text text-anchor="middle" x="854" y="-390" font-family="Helvetica,sans-Serif" font-size="10.00"> m_obAnchorPoint</text>
<text text-anchor="middle" x="854" y="-379" font-family="Helvetica,sans-Serif" font-size="10.00">m_obAnchorPointInPoints</text>
<text text-anchor="middle" x="854" y="-368" font-family="Helvetica,sans-Serif" font-size="10.00">m_obPosition</text>
</g>
<!-- Node8&#45;&gt;Node12 -->
<g id="edge20" class="edge">
<title>Node8&#45;&gt;Node12</title>
<path fill="none" stroke="#9a32cd" stroke-dasharray="5,2" d="M628.53,-403.46C639.84,-398.77 652.86,-393.76 665,-390 710.22,-375.99 731.16,-395.44 769,-367 782.35,-356.96 774.33,-344.89 787,-334 795.51,-326.69 806.42,-321.53 816.92,-317.93"/>
<polygon fill="#9a32cd" stroke="#9a32cd" points="626.94,-400.33 619.1,-407.45 629.67,-406.77 626.94,-400.33"/>
<text text-anchor="middle" x="717" y="-393" font-family="Helvetica,sans-Serif" font-size="10.00"> m_obStep</text>
</g>
<!-- Node9 -->
<g id="node9" class="node">
<title>Node9</title>
<g id="a_node9"><a xlink:href="../../d9/d24/classcocos2d_1_1_c_c_size.html" target="_top" xlink:title="NA.">
<polygon fill="none" stroke="black" points="320,-380.5 320,-399.5 370,-399.5 370,-380.5 320,-380.5"/>
<text text-anchor="middle" x="345" y="-387.5" font-family="Helvetica,sans-Serif" font-size="10.00">CCSize</text>
</a>
</g>
</g>
<!-- Node9&#45;&gt;Node5 -->
<g id="edge8" class="edge">
<title>Node9&#45;&gt;Node5</title>
<path fill="none" stroke="#9a32cd" stroke-dasharray="5,2" d="M379.82,-400.2C419.44,-411.57 487.28,-429.25 547,-436 661.83,-448.97 967.05,-493 1067,-435 1080.78,-427 1074.09,-415.61 1085,-404 1100.33,-387.69 1122.21,-374.1 1137.81,-365.6"/>
<polygon fill="#9a32cd" stroke="#9a32cd" points="380.72,-396.82 370.14,-397.38 378.76,-403.54 380.72,-396.82"/>
<text text-anchor="middle" x="717" y="-462" font-family="Helvetica,sans-Serif" font-size="10.00"> m_obContentSize</text>
</g>
<!-- Node9&#45;&gt;Node12 -->
<g id="edge14" class="edge">
<title>Node9&#45;&gt;Node12</title>
<path fill="none" stroke="#9a32cd" stroke-dasharray="5,2" d="M380.68,-389.11C453.64,-386.56 627.94,-376.9 769,-341 790.54,-335.52 814.23,-326.49 830.94,-319.58"/>
<polygon fill="#9a32cd" stroke="#9a32cd" points="380.14,-385.63 370.26,-389.45 380.37,-392.62 380.14,-385.63"/>
<text text-anchor="middle" x="597" y="-380" font-family="Helvetica,sans-Serif" font-size="10.00"> m_sGridSize</text>
</g>
<!-- Node9&#45;&gt;Node13 -->
<g id="edge17" class="edge">
<title>Node9&#45;&gt;Node13</title>
<path fill="none" stroke="#9a32cd" stroke-dasharray="5,2" d="M374.85,-376.21C384.29,-372.13 394.94,-367.96 405,-365 419.29,-360.8 505.12,-346.63 556.74,-338.29"/>
<polygon fill="#9a32cd" stroke="#9a32cd" points="373.22,-373.11 365.52,-380.39 376.08,-379.5 373.22,-373.11"/>
<text text-anchor="middle" x="467" y="-368" font-family="Helvetica,sans-Serif" font-size="10.00"> m_tContentSize</text>
</g>
<!-- Node10 -->
<g id="node10" class="node">
<title>Node10</title>
<g id="a_node10"><a xlink:href="../../da/dbf/structcocos2d_1_1_c_c_affine_transform.html" target="_top" xlink:title=" ">
<polygon fill="none" stroke="black" points="800.5,-407.5 800.5,-426.5 907.5,-426.5 907.5,-407.5 800.5,-407.5"/>
<text text-anchor="middle" x="854" y="-414.5" font-family="Helvetica,sans-Serif" font-size="10.00">CCAffineTransform</text>
</a>
</g>
</g>
<!-- Node10&#45;&gt;Node5 -->
<g id="edge9" class="edge">
<title>Node10&#45;&gt;Node5</title>
<path fill="none" stroke="#9a32cd" stroke-dasharray="5,2" d="M912.3,-405.43C977.47,-392.26 1081.14,-371.32 1129.93,-361.47"/>
<polygon fill="#9a32cd" stroke="#9a32cd" points="911.3,-402.06 902.19,-407.47 912.68,-408.92 911.3,-402.06"/>
<text text-anchor="middle" x="1003" y="-423" font-family="Helvetica,sans-Serif" font-size="10.00"> m_sAdditionalTransform</text>
<text text-anchor="middle" x="1003" y="-412" font-family="Helvetica,sans-Serif" font-size="10.00">m_sInverse</text>
<text text-anchor="middle" x="1003" y="-401" font-family="Helvetica,sans-Serif" font-size="10.00">m_sTransform</text>
</g>
<!-- Node11&#45;&gt;Node5 -->
<g id="edge10" class="edge">
<title>Node11&#45;&gt;Node5</title>
<path fill="none" stroke="#9a32cd" stroke-dasharray="5,2" d="M511.38,-492.07C634.23,-505.45 981.21,-536.32 1067,-469 1090.58,-450.49 1067.43,-428.28 1085,-404 1097.6,-386.6 1118.59,-373.66 1134.66,-365.63"/>
<polygon fill="#9a32cd" stroke="#9a32cd" points="511.54,-488.56 501.22,-490.94 510.77,-495.52 511.54,-488.56"/>
<text text-anchor="middle" x="717" y="-513" font-family="Helvetica,sans-Serif" font-size="10.00"> m_pCamera</text>
</g>
<!-- Node12&#45;&gt;Node5 -->
<g id="edge12" class="edge">
<title>Node12&#45;&gt;Node5</title>
<path fill="none" stroke="#9a32cd" stroke-dasharray="5,2" d="M901.22,-311.61C944.48,-313.82 1010.69,-318.98 1067,-331 1075.25,-332.76 1076.92,-334.59 1085,-337 1099.74,-341.4 1116.34,-345.81 1129.88,-349.28"/>
<polygon fill="#9a32cd" stroke="#9a32cd" points="901.16,-308.11 891.01,-311.12 900.83,-315.1 901.16,-308.11"/>
<text text-anchor="middle" x="1003" y="-334" font-family="Helvetica,sans-Serif" font-size="10.00"> m_pGrid</text>
</g>
<!-- Node13&#45;&gt;Node12 -->
<g id="edge15" class="edge">
<title>Node13&#45;&gt;Node12</title>
<path fill="none" stroke="#9a32cd" stroke-dasharray="5,2" d="M647.2,-327.76C696.89,-323.47 772.47,-316.95 816.89,-313.12"/>
<polygon fill="#9a32cd" stroke="#9a32cd" points="646.67,-324.29 637.01,-328.63 647.27,-331.26 646.67,-324.29"/>
<text text-anchor="middle" x="717" y="-329" font-family="Helvetica,sans-Serif" font-size="10.00"> m_pTexture</text>
</g>
<!-- Node14&#45;&gt;Node5 -->
<g id="edge28" class="edge">
<title>Node14&#45;&gt;Node5</title>
<path fill="none" stroke="#9a32cd" stroke-dasharray="5,2" d="M397.51,-271.9C434.18,-271.92 484.62,-272.14 529,-273 768.63,-277.65 863.44,-183.48 1067,-310 1079.25,-317.61 1073.27,-328.62 1085,-337 1098.04,-346.32 1115.34,-351.07 1129.72,-353.49"/>
<polygon fill="#9a32cd" stroke="#9a32cd" points="397.07,-268.4 387.07,-271.9 397.07,-275.4 397.07,-268.4"/>
<text text-anchor="middle" x="717" y="-269" font-family="Helvetica,sans-Serif" font-size="10.00"> m_pShaderProgram</text>
</g>
<!-- Node14&#45;&gt;Node12 -->
<g id="edge23" class="edge">
<title>Node14&#45;&gt;Node12</title>
<path fill="none" stroke="#9a32cd" stroke-dasharray="5,2" d="M397.17,-275.83C499.68,-283.52 727.99,-300.63 816.74,-307.28"/>
<polygon fill="#9a32cd" stroke="#9a32cd" points="397.29,-272.33 387.06,-275.08 396.77,-279.32 397.29,-272.33"/>
<text text-anchor="middle" x="597" y="-297" font-family="Helvetica,sans-Serif" font-size="10.00"> m_pShaderProgram</text>
</g>
<!-- Node14&#45;&gt;Node13 -->
<g id="edge18" class="edge">
<title>Node14&#45;&gt;Node13</title>
<path fill="none" stroke="#9a32cd" stroke-dasharray="5,2" d="M397.33,-281.57C399.92,-282.06 402.49,-282.53 405,-283 460.11,-293.25 475.08,-290.68 529,-306 544.48,-310.4 561.37,-316.97 574.32,-322.4"/>
<polygon fill="#9a32cd" stroke="#9a32cd" points="397.73,-278.09 387.26,-279.7 396.45,-284.97 397.73,-278.09"/>
<text text-anchor="middle" x="467" y="-309" font-family="Helvetica,sans-Serif" font-size="10.00"> m_pShaderProgram</text>
</g>
<!-- Node15&#45;&gt;Node12 -->
<g id="edge21" class="edge">
<title>Node15&#45;&gt;Node12</title>
<path fill="none" stroke="#9a32cd" stroke-dasharray="5,2" d="M511.98,-162.77C573.73,-154.92 687.68,-148.98 769,-195 812.68,-219.72 839.91,-277.55 849.31,-300.43"/>
<polygon fill="#9a32cd" stroke="#9a32cd" points="511.24,-159.34 501.8,-164.15 512.18,-166.28 511.24,-159.34"/>
<text text-anchor="middle" x="597" y="-163" font-family="Helvetica,sans-Serif" font-size="10.00"> m_pGrabber</text>
</g>
<!-- Node16&#45;&gt;Node5 -->
<g id="edge24" class="edge">
<title>Node16&#45;&gt;Node5</title>
<path fill="none" stroke="#9a32cd" stroke-dasharray="5,2" d="M383.27,-122.73C457.48,-120.95 628.64,-120.54 769,-148 906.38,-174.88 974.43,-144.99 1067,-250 1093.11,-279.62 1057.84,-308.34 1085,-337 1096.47,-349.11 1114.66,-353.84 1129.89,-355.55"/>
<polygon fill="#9a32cd" stroke="#9a32cd" points="382.94,-119.24 373.04,-123 383.13,-126.24 382.94,-119.24"/>
<text text-anchor="middle" x="717" y="-151" font-family="Helvetica,sans-Serif" font-size="10.00"> m_pChildren</text>
</g>
<!-- Node16&#45;&gt;Node17 -->
<g id="edge31" class="edge">
<title>Node16&#45;&gt;Node17</title>
<path fill="none" stroke="#9a32cd" stroke-dasharray="5,2" d="M373.27,-110.21C383.04,-105.88 394.29,-101.56 405,-99 456.89,-86.61 518.79,-84.65 557.75,-84.91"/>
<polygon fill="#9a32cd" stroke="#9a32cd" points="371.66,-107.1 364.06,-114.49 374.61,-113.45 371.66,-107.1"/>
<text text-anchor="middle" x="467" y="-102" font-family="Helvetica,sans-Serif" font-size="10.00"> m_pScriptHandlerEntries</text>
</g>
<!-- Node17&#45;&gt;Node5 -->
<g id="edge29" class="edge">
<title>Node17&#45;&gt;Node5</title>
<path fill="none" stroke="#9a32cd" stroke-dasharray="5,2" d="M646.29,-81.14C754,-71.44 1009.02,-55.31 1067,-113 1102.4,-148.22 1052.96,-298.69 1085,-337 1095.78,-349.89 1114.18,-354.59 1129.68,-356.09"/>
<polygon fill="#9a32cd" stroke="#9a32cd" points="645.66,-77.68 636.03,-82.08 646.31,-84.65 645.66,-77.68"/>
<text text-anchor="middle" x="854" y="-77" font-family="Helvetica,sans-Serif" font-size="10.00"> m_pScheduler</text>
</g>
<!-- Node18&#45;&gt;Node5 -->
<g id="edge32" class="edge">
<title>Node18&#45;&gt;Node5</title>
<path fill="none" stroke="#9a32cd" stroke-dasharray="5,2" d="M761.98,-633.89C836.15,-650.99 985.91,-672.31 1067,-592 1096.82,-562.47 1063.45,-440.02 1085,-404 1095.8,-385.95 1116.32,-373.29 1132.7,-365.52"/>
<polygon fill="#9a32cd" stroke="#9a32cd" points="762.57,-630.44 752.04,-631.52 760.95,-637.24 762.57,-630.44"/>
<text text-anchor="middle" x="854" y="-652" font-family="Helvetica,sans-Serif" font-size="10.00"> m_pActionManager</text>
</g>
<!-- Node19 -->
<g id="node19" class="node">
<title>Node19</title>
<g id="a_node19"><a xlink:href="../../d1/d65/classcocos2d_1_1_c_c_component_container.html" target="_top" xlink:title="NA NA.">
<polygon fill="none" stroke="black" points="787,-32.5 787,-51.5 921,-51.5 921,-32.5 787,-32.5"/>
<text text-anchor="middle" x="854" y="-39.5" font-family="Helvetica,sans-Serif" font-size="10.00">CCComponentContainer</text>
</a>
</g>
</g>
<!-- Node19&#45;&gt;Node5 -->
<g id="edge34" class="edge">
<title>Node19&#45;&gt;Node5</title>
<path fill="none" stroke="#9a32cd" stroke-dasharray="5,2" d="M904.62,-30.72C953.23,-22.9 1025.83,-20.44 1067,-63 1109.43,-106.86 1046.2,-289.91 1085,-337 1095.77,-350.07 1114.37,-354.74 1129.97,-356.18"/>
<polygon fill="#9a32cd" stroke="#9a32cd" points="903.88,-27.29 894.63,-32.45 905.08,-34.19 903.88,-27.29"/>
<text text-anchor="middle" x="1003" y="-66" font-family="Helvetica,sans-Serif" font-size="10.00"> m_pComponentContainer</text>
</g>
<!-- Node20 -->
<g id="node20" class="node">
<title>Node20</title>
<g id="a_node20"><a xlink:href="../../d0/d38/classcocos2d_1_1_c_c_touch_delegate.html" target="_top" xlink:title=" ">
<polygon fill="none" stroke="black" points="1107,-308.5 1107,-327.5 1209,-327.5 1209,-308.5 1107,-308.5"/>
<text text-anchor="middle" x="1158" y="-315.5" font-family="Helvetica,sans-Serif" font-size="10.00">CCTouchDelegate</text>
</a>
</g>
</g>
<!-- Node20&#45;&gt;Node4 -->
<g id="edge35" class="edge">
<title>Node20&#45;&gt;Node4</title>
<path fill="none" stroke="midnightblue" d="M1219.14,-310.72C1242.94,-307.84 1269.13,-304.67 1288.27,-302.36"/>
<polygon fill="midnightblue" stroke="midnightblue" points="1218.61,-307.26 1209.11,-311.94 1219.46,-314.21 1218.61,-307.26"/>
</g>
<!-- Node21 -->
<g id="node21" class="node">
<title>Node21</title>
<g id="a_node21"><a xlink:href="../../da/d55/classcocos2d_1_1_c_c_accelerometer_delegate.html" target="_top" xlink:title="The CCAccelerometerDelegate defines a single method for receiving acceleration&#45;related data from the ...">
<polygon fill="none" stroke="black" points="1085,-270.5 1085,-289.5 1231,-289.5 1231,-270.5 1085,-270.5"/>
<text text-anchor="middle" x="1158" y="-277.5" font-family="Helvetica,sans-Serif" font-size="10.00">CCAccelerometerDelegate</text>
</a>
</g>
</g>
<!-- Node21&#45;&gt;Node4 -->
<g id="edge36" class="edge">
<title>Node21&#45;&gt;Node4</title>
<path fill="none" stroke="midnightblue" d="M1241.09,-289.93C1258.1,-291.99 1274.89,-294.03 1288.25,-295.64"/>
<polygon fill="midnightblue" stroke="midnightblue" points="1241.42,-286.45 1231.07,-288.72 1240.57,-293.4 1241.42,-286.45"/>
</g>
<!-- Node22 -->
<g id="node22" class="node">
<title>Node22</title>
<g id="a_node22"><a xlink:href="../../d2/d2d/classcocos2d_1_1_c_c_keypad_delegate.html" target="_top" xlink:title=" ">
<polygon fill="none" stroke="black" points="1103,-232.5 1103,-251.5 1213,-251.5 1213,-232.5 1103,-232.5"/>
<text text-anchor="middle" x="1158" y="-239.5" font-family="Helvetica,sans-Serif" font-size="10.00">CCKeypadDelegate</text>
</a>
</g>
</g>
<!-- Node22&#45;&gt;Node4 -->
<g id="edge37" class="edge">
<title>Node22&#45;&gt;Node4</title>
<path fill="none" stroke="midnightblue" d="M1211.18,-254.33C1217.92,-256.35 1224.67,-258.57 1231,-261 1248.26,-267.62 1251.16,-272.37 1268,-280 1275.18,-283.26 1283.1,-286.52 1290.4,-289.4"/>
<polygon fill="midnightblue" stroke="midnightblue" points="1211.94,-250.91 1201.37,-251.55 1210.03,-257.65 1211.94,-250.91"/>
</g>
<!-- Node23 -->
<g id="node23" class="node">
<title>Node23</title>
<g id="a_node23"><a xlink:href="../../d2/d91/classcocos2d_1_1_c_c_keyboard_delegate.html" target="_top" xlink:title=" ">
<polygon fill="none" stroke="black" points="1098,-413.5 1098,-432.5 1218,-432.5 1218,-413.5 1098,-413.5"/>
<text text-anchor="middle" x="1158" y="-420.5" font-family="Helvetica,sans-Serif" font-size="10.00">CCKeyboardDelegate</text>
</a>
</g>
</g>
<!-- Node23&#45;&gt;Node4 -->
<g id="edge38" class="edge">
<title>Node23&#45;&gt;Node4</title>
<path fill="none" stroke="midnightblue" d="M1224.72,-408.66C1226.92,-407.25 1229.03,-405.7 1231,-404 1262.52,-376.84 1238.15,-346.99 1268,-318 1273.66,-312.51 1281.1,-308.54 1288.43,-305.71"/>
<polygon fill="midnightblue" stroke="midnightblue" points="1222.93,-405.65 1215.77,-413.46 1226.23,-411.82 1222.93,-405.65"/>
</g>
<!-- Node24 -->
<g id="node24" class="node">
<title>Node24</title>
<g id="a_node24"><a xlink:href="../../d8/dda/classcocos2d_1_1_c_c_r_g_b_a_protocol.html" target="_top" xlink:title="RGBA protocol that affects CCNode&#39;s color and opacity NA.">
<polygon fill="none" stroke="black" points="1268,-251.5 1268,-270.5 1366,-270.5 1366,-251.5 1268,-251.5"/>
<text text-anchor="middle" x="1317" y="-258.5" font-family="Helvetica,sans-Serif" font-size="10.00">CCRGBAProtocol</text>
</a>
</g>
</g>
<!-- Node24&#45;&gt;Node3 -->
<g id="edge39" class="edge">
<title>Node24&#45;&gt;Node3</title>
<path fill="none" stroke="midnightblue" d="M1376.47,-265.23C1410.7,-267.7 1453.13,-270.77 1483.95,-273"/>
<polygon fill="midnightblue" stroke="midnightblue" points="1376.35,-261.71 1366.13,-264.48 1375.85,-268.69 1376.35,-261.71"/>
</g>
<!-- Node25 -->
<g id="node25" class="node">
<title>Node25</title>
<g id="a_node25"><a xlink:href="../../d7/d39/structcc_color3_b.html" target="_top" xlink:title="RGB color composed of bytes 3 bytes.">
<polygon fill="none" stroke="black" points="1284.5,-327.5 1284.5,-346.5 1349.5,-346.5 1349.5,-327.5 1284.5,-327.5"/>
<text text-anchor="middle" x="1317" y="-334.5" font-family="Helvetica,sans-Serif" font-size="10.00">ccColor3B</text>
</a>
</g>
</g>
<!-- Node25&#45;&gt;Node3 -->
<g id="edge40" class="edge">
<title>Node25&#45;&gt;Node3</title>
<path fill="none" stroke="#9a32cd" stroke-dasharray="5,2" d="M1359.74,-329.22C1389.7,-323.13 1430.83,-313.74 1466,-302 1479.69,-297.43 1494.56,-290.93 1506.02,-285.57"/>
<polygon fill="#9a32cd" stroke="#9a32cd" points="1358.76,-325.85 1349.64,-331.23 1360.13,-332.71 1358.76,-325.85"/>
<text text-anchor="middle" x="1425" y="-337" font-family="Helvetica,sans-Serif" font-size="10.00"> _displayedColor</text>
<text text-anchor="middle" x="1425" y="-326" font-family="Helvetica,sans-Serif" font-size="10.00">_realColor</text>
</g>
<!-- Node26&#45;&gt;Node2 -->
<g id="edge41" class="edge">
<title>Node26&#45;&gt;Node2</title>
<path fill="none" stroke="#9a32cd" stroke-dasharray="5,2" d="M395.69,-8.11C446.13,-6.35 526.49,-4 596,-4 596,-4 596,-4 1527.5,-4 1554.01,-4 1583.9,-7.49 1605.83,-10.7"/>
<polygon fill="#9a32cd" stroke="#9a32cd" points="395.27,-4.62 385.4,-8.47 395.51,-11.61 395.27,-4.62"/>
<text text-anchor="middle" x="1158" y="-7" font-family="Helvetica,sans-Serif" font-size="10.00"> m_pDispatchTable</text>
</g>
<!-- Node27 -->
<g id="node27" class="node">
<title>Node27</title>
<g id="a_node27"><a xlink:href="../../d0/da2/classcocos2d_1_1_c_c_dict_element.html" target="_top" xlink:title="CCDictElement is used for traversing CCDictionary.">
<polygon fill="none" stroke="black" points="107,-0.5 107,-19.5 197,-19.5 197,-0.5 107,-0.5"/>
<text text-anchor="middle" x="152" y="-7.5" font-family="Helvetica,sans-Serif" font-size="10.00">CCDictElement</text>
</a>
</g>
</g>
<!-- Node27&#45;&gt;Node26 -->
<g id="edge43" class="edge">
<title>Node27&#45;&gt;Node26</title>
<path fill="none" stroke="#9a32cd" stroke-dasharray="5,2" d="M207.53,-10C238.57,-10 276.73,-10 304.8,-10"/>
<polygon fill="#9a32cd" stroke="#9a32cd" points="207.3,-6.5 197.3,-10 207.3,-13.5 207.3,-6.5"/>
<text text-anchor="middle" x="250" y="-13" font-family="Helvetica,sans-Serif" font-size="10.00"> m_pElements</text>
</g>
</g>
</svg>
