<?xml version="1.0" encoding="UTF-8" standalone="no"?>
<!DOCTYPE svg PUBLIC "-//W3C//DTD SVG 1.1//EN"
 "http://www.w3.org/Graphics/SVG/1.1/DTD/svg11.dtd">
<!-- Generated by graphviz version 2.43.0 (0)
 -->
<!-- Title: CCConfiguration Pages: 1 -->
<svg width="190pt" height="215pt"
 viewBox="0.00 0.00 190.00 215.00" xmlns="http://www.w3.org/2000/svg" xmlns:xlink="http://www.w3.org/1999/xlink">
<g id="graph0" class="graph" transform="scale(1 1) rotate(0) translate(4 211)">
<title>CCConfiguration</title>
<!-- Node1 -->
<g id="node1" class="node">
<title>Node1</title>
<g id="a_node1"><a xlink:title="CCConfiguration contains some openGL variables.">
<polygon fill="#999999" stroke="#666666" points="159.5,-19 64.5,-19 64.5,0 159.5,0 159.5,-19"/>
<text text-anchor="middle" x="112" y="-7" font-family="Helvetica,sans-Serif" font-size="10.00">CCConfiguration</text>
</a>
</g>
</g>
<!-- Node2 -->
<g id="node2" class="node">
<title>Node2</title>
<g id="a_node2"><a xlink:href="../../d3/dbf/classcocos2d_1_1_c_c_object.html" target="_top" xlink:title="NA.">
<polygon fill="white" stroke="#666666" points="178,-151 116,-151 116,-132 178,-132 178,-151"/>
<text text-anchor="middle" x="147" y="-139" font-family="Helvetica,sans-Serif" font-size="10.00">CCObject</text>
</a>
</g>
</g>
<!-- Node2&#45;&gt;Node1 -->
<g id="edge1" class="edge">
<title>Node2&#45;&gt;Node1</title>
<path fill="none" stroke="#63b8ff" d="M149.97,-121.83C152.52,-100.28 153.98,-64.28 141,-37 137.6,-29.86 131.33,-23.75 125.48,-19.2"/>
<polygon fill="#63b8ff" stroke="#63b8ff" points="146.48,-121.54 148.57,-131.92 153.42,-122.5 146.48,-121.54"/>
</g>
<!-- Node4 -->
<g id="node4" class="node">
<title>Node4</title>
<g id="a_node4"><a xlink:href="../../d7/d5f/classcocos2d_1_1_c_c_dictionary.html" target="_top" xlink:title="CCDictionary is a class like NSDictionary in Obj&#45;C .">
<polygon fill="white" stroke="#666666" points="109,-85 29,-85 29,-66 109,-66 109,-85"/>
<text text-anchor="middle" x="69" y="-73" font-family="Helvetica,sans-Serif" font-size="10.00">CCDictionary</text>
</a>
</g>
</g>
<!-- Node2&#45;&gt;Node4 -->
<g id="edge4" class="edge">
<title>Node2&#45;&gt;Node4</title>
<path fill="none" stroke="#63b8ff" d="M135.36,-123.84C129.99,-116.88 123.2,-109.02 116,-103 107.52,-95.91 96.87,-89.72 87.86,-85.12"/>
<polygon fill="#63b8ff" stroke="#63b8ff" points="132.61,-126 141.35,-131.99 138.25,-121.86 132.61,-126"/>
</g>
<!-- Node3 -->
<g id="node3" class="node">
<title>Node3</title>
<g id="a_node3"><a xlink:href="../../d5/d61/classcocos2d_1_1_c_c_copying.html" target="_top" xlink:title="NA NA.">
<polygon fill="white" stroke="#666666" points="182,-207 112,-207 112,-188 182,-188 182,-207"/>
<text text-anchor="middle" x="147" y="-195" font-family="Helvetica,sans-Serif" font-size="10.00">CCCopying</text>
</a>
</g>
</g>
<!-- Node3&#45;&gt;Node2 -->
<g id="edge2" class="edge">
<title>Node3&#45;&gt;Node2</title>
<path fill="none" stroke="#63b8ff" d="M147,-177.3C147,-168.41 147,-158.28 147,-151.25"/>
<polygon fill="#63b8ff" stroke="#63b8ff" points="143.5,-177.58 147,-187.58 150.5,-177.58 143.5,-177.58"/>
</g>
<!-- Node4&#45;&gt;Node1 -->
<g id="edge3" class="edge">
<title>Node4&#45;&gt;Node1</title>
<path fill="none" stroke="#9a32cd" stroke-dasharray="5,2" d="M66.06,-55.52C65.97,-49.27 66.86,-42.52 70,-37 74.43,-29.21 82.2,-23.37 89.85,-19.19"/>
<polygon fill="#9a32cd" stroke="#9a32cd" points="62.61,-56.22 67.04,-65.85 69.58,-55.56 62.61,-56.22"/>
<text text-anchor="middle" x="105.5" y="-40" font-family="Helvetica,sans-Serif" font-size="10.00"> m_pValueDict</text>
</g>
<!-- Node5 -->
<g id="node5" class="node">
<title>Node5</title>
<g id="a_node5"><a xlink:href="../../d0/da2/classcocos2d_1_1_c_c_dict_element.html" target="_top" xlink:title="CCDictElement is used for traversing CCDictionary.">
<polygon fill="white" stroke="#666666" points="90,-151 0,-151 0,-132 90,-132 90,-151"/>
<text text-anchor="middle" x="45" y="-139" font-family="Helvetica,sans-Serif" font-size="10.00">CCDictElement</text>
</a>
</g>
</g>
<!-- Node5&#45;&gt;Node4 -->
<g id="edge5" class="edge">
<title>Node5&#45;&gt;Node4</title>
<path fill="none" stroke="#9a32cd" stroke-dasharray="5,2" d="M43.03,-121.74C43.02,-115.59 43.73,-108.84 46,-103 48.65,-96.19 53.87,-89.94 58.67,-85.22"/>
<polygon fill="#9a32cd" stroke="#9a32cd" points="39.54,-122.06 43.62,-131.84 46.53,-121.65 39.54,-122.06"/>
<text text-anchor="middle" x="81" y="-106" font-family="Helvetica,sans-Serif" font-size="10.00"> m_pElements</text>
</g>
</g>
</svg>
