<?xml version="1.0" encoding="UTF-8" standalone="no"?>
<!DOCTYPE svg PUBLIC "-//W3C//DTD SVG 1.1//EN"
 "http://www.w3.org/Graphics/SVG/1.1/DTD/svg11.dtd">
<!-- Generated by graphviz version 2.43.0 (0)
 -->
<!-- Title: /home/runner/work/cocos&#45;headers/cocos&#45;headers/cocos2dx/sprite_nodes/CCSpriteBatchNode.h Pages: 1 -->
<svg width="1694pt" height="688pt"
 viewBox="0.00 0.00 1693.50 688.00" xmlns="http://www.w3.org/2000/svg" xmlns:xlink="http://www.w3.org/1999/xlink">
<g id="graph0" class="graph" transform="scale(1 1) rotate(0) translate(4 684)">
<title>/home/runner/work/cocos&#45;headers/cocos&#45;headers/cocos2dx/sprite_nodes/CCSpriteBatchNode.h</title>
<!-- Node1 -->
<g id="node1" class="node">
<title>Node1</title>
<g id="a_node1"><a xlink:title=" ">
<polygon fill="#bfbfbf" stroke="black" points="1119.5,-627.5 1119.5,-679.5 1259.5,-679.5 1259.5,-627.5 1119.5,-627.5"/>
<text text-anchor="start" x="1127.5" y="-667.5" font-family="Helvetica,sans-Serif" font-size="10.00">/home/runner/work/cocos</text>
<text text-anchor="start" x="1127.5" y="-656.5" font-family="Helvetica,sans-Serif" font-size="10.00">&#45;headers/cocos&#45;headers</text>
<text text-anchor="start" x="1127.5" y="-645.5" font-family="Helvetica,sans-Serif" font-size="10.00">/cocos2dx/sprite_nodes</text>
<text text-anchor="middle" x="1189.5" y="-634.5" font-family="Helvetica,sans-Serif" font-size="10.00">/CCSpriteBatchNode.h</text>
</a>
</g>
</g>
<!-- Node2 -->
<g id="node2" class="node">
<title>Node2</title>
<g id="a_node2"><a xlink:href="../../db/d7f/_c_c_node_8h.html" target="_top" xlink:title=" ">
<polygon fill="none" stroke="black" points="1127,-571.5 1127,-590.5 1252,-590.5 1252,-571.5 1127,-571.5"/>
<text text-anchor="middle" x="1189.5" y="-578.5" font-family="Helvetica,sans-Serif" font-size="10.00">base_nodes/CCNode.h</text>
</a>
</g>
</g>
<!-- Node1&#45;&gt;Node2 -->
<g id="edge1" class="edge">
<title>Node1&#45;&gt;Node2</title>
<path fill="none" stroke="midnightblue" d="M1189.5,-627.45C1189.5,-618.73 1189.5,-609.1 1189.5,-600.96"/>
<polygon fill="midnightblue" stroke="midnightblue" points="1193,-600.7 1189.5,-590.7 1186,-600.7 1193,-600.7"/>
</g>
<!-- Node3 -->
<g id="node3" class="node">
<title>Node3</title>
<g id="a_node3"><a xlink:href="../../d9/dc8/cc_macros_8h.html" target="_top" xlink:title=" ">
<polygon fill="none" stroke="black" points="1243,-224.5 1243,-243.5 1314,-243.5 1314,-224.5 1243,-224.5"/>
<text text-anchor="middle" x="1278.5" y="-231.5" font-family="Helvetica,sans-Serif" font-size="10.00">ccMacros.h</text>
</a>
</g>
</g>
<!-- Node1&#45;&gt;Node3 -->
<g id="edge61" class="edge">
<title>Node1&#45;&gt;Node3</title>
<path fill="none" stroke="midnightblue" d="M1259.5,-641.64C1361.13,-623.86 1537.5,-584.58 1537.5,-526 1537.5,-526 1537.5,-526 1537.5,-462.5 1537.5,-430.05 1537.55,-418.27 1518.5,-392 1464.41,-317.4 1363.09,-268.61 1311.1,-247.3"/>
<polygon fill="midnightblue" stroke="midnightblue" points="1312.28,-244 1301.69,-243.52 1309.67,-250.49 1312.28,-244"/>
</g>
<!-- Node16 -->
<g id="node16" class="node">
<title>Node16</title>
<g id="a_node16"><a xlink:href="../../da/d35/_c_c_array_8h.html" target="_top" xlink:title=" ">
<polygon fill="none" stroke="black" points="1566,-515.5 1566,-534.5 1661,-534.5 1661,-515.5 1566,-515.5"/>
<text text-anchor="middle" x="1613.5" y="-522.5" font-family="Helvetica,sans-Serif" font-size="10.00">cocoa/CCArray.h</text>
</a>
</g>
</g>
<!-- Node1&#45;&gt;Node16 -->
<g id="edge62" class="edge">
<title>Node1&#45;&gt;Node16</title>
<path fill="none" stroke="midnightblue" d="M1259.72,-645.87C1350.31,-636.42 1502.11,-617.26 1551.5,-591 1572.71,-579.72 1590.84,-558.49 1601.92,-543.36"/>
<polygon fill="midnightblue" stroke="midnightblue" points="1605,-545.06 1607.87,-534.87 1599.27,-541.05 1605,-545.06"/>
</g>
<!-- Node29 -->
<g id="node29" class="node">
<title>Node29</title>
<g id="a_node29"><a xlink:href="../../d8/d76/_c_c_protocols_8h.html" target="_top" xlink:title=" ">
<polygon fill="none" stroke="black" points="292.5,-515.5 292.5,-534.5 376.5,-534.5 376.5,-515.5 292.5,-515.5"/>
<text text-anchor="middle" x="334.5" y="-522.5" font-family="Helvetica,sans-Serif" font-size="10.00">CCProtocols.h</text>
</a>
</g>
</g>
<!-- Node1&#45;&gt;Node29 -->
<g id="edge55" class="edge">
<title>Node1&#45;&gt;Node29</title>
<path fill="none" stroke="midnightblue" d="M1119.17,-642.09C952.01,-617.36 533.95,-555.51 386.77,-533.73"/>
<polygon fill="midnightblue" stroke="midnightblue" points="387.05,-530.24 376.64,-532.24 386.02,-537.16 387.05,-530.24"/>
</g>
<!-- Node32 -->
<g id="node32" class="node">
<title>Node32</title>
<g id="a_node32"><a xlink:href="../../d1/d48/_c_c_texture_atlas_8h.html" target="_top" xlink:title=" ">
<polygon fill="none" stroke="black" points="0,-454 0,-473 143,-473 143,-454 0,-454"/>
<text text-anchor="middle" x="71.5" y="-461" font-family="Helvetica,sans-Serif" font-size="10.00">textures/CCTextureAtlas.h</text>
</a>
</g>
</g>
<!-- Node1&#45;&gt;Node32 -->
<g id="edge56" class="edge">
<title>Node1&#45;&gt;Node32</title>
<path fill="none" stroke="midnightblue" d="M1119.25,-648.48C965.76,-638.58 589.68,-608.32 283.5,-535 217.81,-519.27 143.39,-492.32 102.52,-476.69"/>
<polygon fill="midnightblue" stroke="midnightblue" points="103.7,-473.4 93.11,-473.07 101.19,-479.93 103.7,-473.4"/>
</g>
<!-- Node2&#45;&gt;Node3 -->
<g id="edge2" class="edge">
<title>Node2&#45;&gt;Node3</title>
<path fill="none" stroke="midnightblue" d="M1252.35,-577.96C1283.84,-573.36 1319.46,-561.94 1339.5,-535 1373.4,-489.43 1308.18,-310.85 1285.71,-253.11"/>
<polygon fill="midnightblue" stroke="midnightblue" points="1288.86,-251.55 1281.94,-243.52 1282.35,-254.11 1288.86,-251.55"/>
</g>
<!-- Node10 -->
<g id="node10" class="node">
<title>Node10</title>
<g id="a_node10"><a xlink:href="../../d3/d15/_c_c_affine_transform_8h.html" target="_top" xlink:title=" ">
<polygon fill="none" stroke="black" points="345.5,-392.5 345.5,-411.5 493.5,-411.5 493.5,-392.5 345.5,-392.5"/>
<text text-anchor="middle" x="419.5" y="-399.5" font-family="Helvetica,sans-Serif" font-size="10.00">cocoa/CCAffineTransform.h</text>
</a>
</g>
</g>
<!-- Node2&#45;&gt;Node10 -->
<g id="edge11" class="edge">
<title>Node2&#45;&gt;Node10</title>
<path fill="none" stroke="midnightblue" d="M1152.36,-571.46C1025.31,-542.26 608.13,-446.36 466.8,-413.87"/>
<polygon fill="midnightblue" stroke="midnightblue" points="467.25,-410.38 456.72,-411.55 465.68,-417.21 467.25,-410.38"/>
</g>
<!-- Node2&#45;&gt;Node16 -->
<g id="edge21" class="edge">
<title>Node2&#45;&gt;Node16</title>
<path fill="none" stroke="midnightblue" d="M1252.06,-572.03C1333.85,-561.62 1476.02,-543.51 1555.49,-533.39"/>
<polygon fill="midnightblue" stroke="midnightblue" points="1556.33,-536.81 1565.81,-532.07 1555.45,-529.87 1556.33,-536.81"/>
</g>
<!-- Node18 -->
<g id="node18" class="node">
<title>Node18</title>
<g id="a_node18"><a xlink:title=" ">
<polygon fill="none" stroke="#bfbfbf" points="1249.5,-336.5 1249.5,-355.5 1301.5,-355.5 1301.5,-336.5 1249.5,-336.5"/>
<text text-anchor="middle" x="1275.5" y="-343.5" font-family="Helvetica,sans-Serif" font-size="10.00">CCGL.h</text>
</a>
</g>
</g>
<!-- Node2&#45;&gt;Node18 -->
<g id="edge23" class="edge">
<title>Node2&#45;&gt;Node18</title>
<path fill="none" stroke="midnightblue" d="M1191.14,-571.28C1193.75,-558.5 1199.47,-534.14 1208.5,-515 1232.11,-464.94 1262.22,-464.9 1278.5,-412 1283.12,-396.97 1281.83,-379.06 1279.69,-365.85"/>
<polygon fill="midnightblue" stroke="midnightblue" points="1283.05,-364.8 1277.72,-355.65 1276.18,-366.13 1283.05,-364.8"/>
</g>
<!-- Node19 -->
<g id="node19" class="node">
<title>Node19</title>
<g id="a_node19"><a xlink:href="../../da/d2f/cc_g_l_state_cache_8h.html" target="_top" xlink:title=" ">
<polygon fill="none" stroke="black" points="1363.5,-392.5 1363.5,-411.5 1509.5,-411.5 1509.5,-392.5 1363.5,-392.5"/>
<text text-anchor="middle" x="1436.5" y="-399.5" font-family="Helvetica,sans-Serif" font-size="10.00">shaders/ccGLStateCache.h</text>
</a>
</g>
</g>
<!-- Node2&#45;&gt;Node19 -->
<g id="edge24" class="edge">
<title>Node2&#45;&gt;Node19</title>
<path fill="none" stroke="midnightblue" d="M1252.17,-577.98C1290.86,-573.74 1339.44,-562.7 1373.5,-535 1409.68,-505.58 1426.37,-450.45 1432.92,-421.63"/>
<polygon fill="midnightblue" stroke="midnightblue" points="1436.38,-422.17 1435.01,-411.67 1429.53,-420.73 1436.38,-422.17"/>
</g>
<!-- Node20 -->
<g id="node20" class="node">
<title>Node20</title>
<g id="a_node20"><a xlink:href="../../de/d32/_c_c_g_l_program_8h.html" target="_top" xlink:title=" ">
<polygon fill="none" stroke="black" points="1135.5,-392.5 1135.5,-411.5 1269.5,-411.5 1269.5,-392.5 1135.5,-392.5"/>
<text text-anchor="middle" x="1202.5" y="-399.5" font-family="Helvetica,sans-Serif" font-size="10.00">shaders/CCGLProgram.h</text>
</a>
</g>
</g>
<!-- Node2&#45;&gt;Node20 -->
<g id="edge27" class="edge">
<title>Node2&#45;&gt;Node20</title>
<path fill="none" stroke="midnightblue" d="M1185.9,-571.22C1182.44,-562.28 1177.47,-547.94 1175.5,-535 1169.26,-493.92 1184.68,-446.3 1194.7,-420.99"/>
<polygon fill="midnightblue" stroke="midnightblue" points="1198,-422.17 1198.59,-411.59 1191.53,-419.5 1198,-422.17"/>
</g>
<!-- Node21 -->
<g id="node21" class="node">
<title>Node21</title>
<g id="a_node21"><a xlink:title=" ">
<polygon fill="none" stroke="#bfbfbf" points="1218,-515.5 1218,-534.5 1331,-534.5 1331,-515.5 1218,-515.5"/>
<text text-anchor="middle" x="1274.5" y="-522.5" font-family="Helvetica,sans-Serif" font-size="10.00">kazmath/kazmath.h</text>
</a>
</g>
</g>
<!-- Node2&#45;&gt;Node21 -->
<g id="edge31" class="edge">
<title>Node2&#45;&gt;Node21</title>
<path fill="none" stroke="midnightblue" d="M1203.16,-571.32C1216.42,-562.9 1236.77,-549.97 1252.35,-540.07"/>
<polygon fill="midnightblue" stroke="midnightblue" points="1254.31,-542.97 1260.88,-534.65 1250.56,-537.06 1254.31,-542.97"/>
</g>
<!-- Node22 -->
<g id="node22" class="node">
<title>Node22</title>
<g id="a_node22"><a xlink:href="../../dc/dbc/_c_c_script_support_8h.html" target="_top" xlink:title=" ">
<polygon fill="none" stroke="black" points="823.5,-454 823.5,-473 999.5,-473 999.5,-454 823.5,-454"/>
<text text-anchor="middle" x="911.5" y="-461" font-family="Helvetica,sans-Serif" font-size="10.00">script_support/CCScriptSupport.h</text>
</a>
</g>
</g>
<!-- Node2&#45;&gt;Node22 -->
<g id="edge32" class="edge">
<title>Node2&#45;&gt;Node22</title>
<path fill="none" stroke="midnightblue" d="M1168.6,-571.32C1119.88,-551.08 998.59,-500.68 941.77,-477.07"/>
<polygon fill="midnightblue" stroke="midnightblue" points="942.84,-473.73 932.26,-473.12 940.15,-480.19 942.84,-473.73"/>
</g>
<!-- Node2&#45;&gt;Node29 -->
<g id="edge44" class="edge">
<title>Node2&#45;&gt;Node29</title>
<path fill="none" stroke="midnightblue" d="M1126.98,-576.05C965.51,-565.85 536.76,-538.77 387.01,-529.32"/>
<polygon fill="midnightblue" stroke="midnightblue" points="386.92,-525.8 376.72,-528.67 386.48,-532.79 386.92,-525.8"/>
</g>
<!-- Node4 -->
<g id="node4" class="node">
<title>Node4</title>
<g id="a_node4"><a xlink:href="../../d5/d22/_c_c_common_8h.html" target="_top" xlink:title=" ">
<polygon fill="none" stroke="black" points="1043.5,-168.5 1043.5,-187.5 1171.5,-187.5 1171.5,-168.5 1043.5,-168.5"/>
<text text-anchor="middle" x="1107.5" y="-175.5" font-family="Helvetica,sans-Serif" font-size="10.00">platform/CCCommon.h</text>
</a>
</g>
</g>
<!-- Node3&#45;&gt;Node4 -->
<g id="edge3" class="edge">
<title>Node3&#45;&gt;Node4</title>
<path fill="none" stroke="midnightblue" d="M1251.4,-224.44C1222.51,-215.32 1176.58,-200.81 1144.39,-190.65"/>
<polygon fill="midnightblue" stroke="midnightblue" points="1145.06,-187.19 1134.47,-187.52 1142.95,-193.87 1145.06,-187.19"/>
</g>
<!-- Node6 -->
<g id="node6" class="node">
<title>Node6</title>
<g id="a_node6"><a xlink:href="../../db/d9f/cc_config_8h.html" target="_top" xlink:title="cocos2d (cc) configuration file">
<polygon fill="none" stroke="black" points="577,-56.5 577,-75.5 644,-75.5 644,-56.5 577,-56.5"/>
<text text-anchor="middle" x="610.5" y="-63.5" font-family="Helvetica,sans-Serif" font-size="10.00">ccConfig.h</text>
</a>
</g>
</g>
<!-- Node3&#45;&gt;Node6 -->
<g id="edge10" class="edge">
<title>Node3&#45;&gt;Node6</title>
<path fill="none" stroke="midnightblue" d="M1290.56,-224.41C1307.42,-211.38 1334.3,-186.22 1318.5,-168 1307.46,-155.28 806.36,-91.55 653.99,-72.43"/>
<polygon fill="midnightblue" stroke="midnightblue" points="654.41,-68.95 644.05,-71.18 653.54,-75.9 654.41,-68.95"/>
</g>
<!-- Node9 -->
<g id="node9" class="node">
<title>Node9</title>
<g id="a_node9"><a xlink:title=" ">
<polygon fill="none" stroke="#bfbfbf" points="1247.5,-168.5 1247.5,-187.5 1309.5,-187.5 1309.5,-168.5 1247.5,-168.5"/>
<text text-anchor="middle" x="1278.5" y="-175.5" font-family="Helvetica,sans-Serif" font-size="10.00">CCStdC.h</text>
</a>
</g>
</g>
<!-- Node3&#45;&gt;Node9 -->
<g id="edge9" class="edge">
<title>Node3&#45;&gt;Node9</title>
<path fill="none" stroke="midnightblue" d="M1278.5,-224.08C1278.5,-217.01 1278.5,-206.86 1278.5,-197.99"/>
<polygon fill="midnightblue" stroke="midnightblue" points="1282,-197.75 1278.5,-187.75 1275,-197.75 1282,-197.75"/>
</g>
<!-- Node5 -->
<g id="node5" class="node">
<title>Node5</title>
<g id="a_node5"><a xlink:href="../../d3/d41/_c_c_platform_macros_8h.html" target="_top" xlink:title=" ">
<polygon fill="none" stroke="black" points="614.5,-112.5 614.5,-131.5 730.5,-131.5 730.5,-112.5 614.5,-112.5"/>
<text text-anchor="middle" x="672.5" y="-119.5" font-family="Helvetica,sans-Serif" font-size="10.00">CCPlatformMacros.h</text>
</a>
</g>
</g>
<!-- Node4&#45;&gt;Node5 -->
<g id="edge4" class="edge">
<title>Node4&#45;&gt;Node5</title>
<path fill="none" stroke="midnightblue" d="M1043.31,-169.03C962.32,-158.98 823.62,-141.76 740.75,-131.47"/>
<polygon fill="midnightblue" stroke="midnightblue" points="741.03,-127.98 730.68,-130.22 740.17,-134.93 741.03,-127.98"/>
</g>
<!-- Node5&#45;&gt;Node6 -->
<g id="edge5" class="edge">
<title>Node5&#45;&gt;Node6</title>
<path fill="none" stroke="midnightblue" d="M662.54,-112.32C653.37,-104.34 639.56,-92.31 628.47,-82.65"/>
<polygon fill="midnightblue" stroke="midnightblue" points="630.48,-79.76 620.64,-75.83 625.88,-85.04 630.48,-79.76"/>
</g>
<!-- Node7 -->
<g id="node7" class="node">
<title>Node7</title>
<g id="a_node7"><a xlink:href="../../dd/d96/_c_c_platform_config_8h.html" target="_top" xlink:title=" ">
<polygon fill="none" stroke="black" points="563,-0.5 563,-19.5 720,-19.5 720,-0.5 563,-0.5"/>
<text text-anchor="middle" x="641.5" y="-7.5" font-family="Helvetica,sans-Serif" font-size="10.00">platform/CCPlatformConfig.h</text>
</a>
</g>
</g>
<!-- Node5&#45;&gt;Node7 -->
<g id="edge7" class="edge">
<title>Node5&#45;&gt;Node7</title>
<path fill="none" stroke="midnightblue" d="M670.07,-112.37C665.04,-94.54 653.42,-53.3 646.65,-29.27"/>
<polygon fill="midnightblue" stroke="midnightblue" points="650,-28.27 643.92,-19.59 643.27,-30.17 650,-28.27"/>
</g>
<!-- Node8 -->
<g id="node8" class="node">
<title>Node8</title>
<g id="a_node8"><a xlink:title=" ">
<polygon fill="none" stroke="#bfbfbf" points="701,-56.5 701,-75.5 814,-75.5 814,-56.5 701,-56.5"/>
<text text-anchor="middle" x="757.5" y="-63.5" font-family="Helvetica,sans-Serif" font-size="10.00">CCPlatformDefine.h</text>
</a>
</g>
</g>
<!-- Node5&#45;&gt;Node8 -->
<g id="edge8" class="edge">
<title>Node5&#45;&gt;Node8</title>
<path fill="none" stroke="midnightblue" d="M686.16,-112.32C699.42,-103.9 719.77,-90.97 735.35,-81.07"/>
<polygon fill="midnightblue" stroke="midnightblue" points="737.31,-83.97 743.88,-75.65 733.56,-78.06 737.31,-83.97"/>
</g>
<!-- Node6&#45;&gt;Node7 -->
<g id="edge6" class="edge">
<title>Node6&#45;&gt;Node7</title>
<path fill="none" stroke="midnightblue" d="M615.62,-56.08C619.91,-48.61 626.16,-37.72 631.44,-28.52"/>
<polygon fill="midnightblue" stroke="midnightblue" points="634.53,-30.17 636.48,-19.75 628.46,-26.68 634.53,-30.17"/>
</g>
<!-- Node10&#45;&gt;Node5 -->
<g id="edge20" class="edge">
<title>Node10&#45;&gt;Node5</title>
<path fill="none" stroke="midnightblue" d="M426.82,-392.22C433.76,-383.51 444.06,-369.54 450.5,-356 463.42,-328.82 469.5,-321.1 469.5,-291 469.5,-291 469.5,-291 469.5,-233 469.5,-170.29 545.32,-143.14 604.28,-131.52"/>
<polygon fill="midnightblue" stroke="midnightblue" points="605.14,-134.92 614.33,-129.65 603.86,-128.03 605.14,-134.92"/>
</g>
<!-- Node11 -->
<g id="node11" class="node">
<title>Node11</title>
<g id="a_node11"><a xlink:href="../../d6/d09/_c_c_geometry_8h.html" target="_top" xlink:title=" ">
<polygon fill="none" stroke="black" points="355.5,-336.5 355.5,-355.5 441.5,-355.5 441.5,-336.5 355.5,-336.5"/>
<text text-anchor="middle" x="398.5" y="-343.5" font-family="Helvetica,sans-Serif" font-size="10.00">CCGeometry.h</text>
</a>
</g>
</g>
<!-- Node10&#45;&gt;Node11 -->
<g id="edge12" class="edge">
<title>Node10&#45;&gt;Node11</title>
<path fill="none" stroke="midnightblue" d="M416.03,-392.08C413.19,-384.77 409.07,-374.18 405.54,-365.1"/>
<polygon fill="midnightblue" stroke="midnightblue" points="408.79,-363.8 401.9,-355.75 402.27,-366.34 408.79,-363.8"/>
</g>
<!-- Node11&#45;&gt;Node5 -->
<g id="edge13" class="edge">
<title>Node11&#45;&gt;Node5</title>
<path fill="none" stroke="midnightblue" d="M401.03,-336.31C411.21,-301.54 448.87,-173.96 455.5,-168 477.16,-148.55 549.04,-136.37 604.2,-129.66"/>
<polygon fill="midnightblue" stroke="midnightblue" points="604.77,-133.12 614.29,-128.47 603.95,-126.17 604.77,-133.12"/>
</g>
<!-- Node12 -->
<g id="node12" class="node">
<title>Node12</title>
<g id="a_node12"><a xlink:href="../../dd/d69/_c_c_object_8h.html" target="_top" xlink:title=" ">
<polygon fill="none" stroke="black" points="498,-280.5 498,-299.5 569,-299.5 569,-280.5 498,-280.5"/>
<text text-anchor="middle" x="533.5" y="-287.5" font-family="Helvetica,sans-Serif" font-size="10.00">CCObject.h</text>
</a>
</g>
</g>
<!-- Node11&#45;&gt;Node12 -->
<g id="edge14" class="edge">
<title>Node11&#45;&gt;Node12</title>
<path fill="none" stroke="midnightblue" d="M419.89,-336.44C442.21,-327.52 477.4,-313.44 502.71,-303.32"/>
<polygon fill="midnightblue" stroke="midnightblue" points="504.22,-306.48 512.21,-299.52 501.62,-299.98 504.22,-306.48"/>
</g>
<!-- Node15 -->
<g id="node15" class="node">
<title>Node15</title>
<g id="a_node15"><a xlink:title=" ">
<polygon fill="none" stroke="#bfbfbf" points="352,-280.5 352,-299.5 403,-299.5 403,-280.5 352,-280.5"/>
<text text-anchor="middle" x="377.5" y="-287.5" font-family="Helvetica,sans-Serif" font-size="10.00">math.h</text>
</a>
</g>
</g>
<!-- Node11&#45;&gt;Node15 -->
<g id="edge19" class="edge">
<title>Node11&#45;&gt;Node15</title>
<path fill="none" stroke="midnightblue" d="M395.03,-336.08C392.19,-328.77 388.07,-318.18 384.54,-309.1"/>
<polygon fill="midnightblue" stroke="midnightblue" points="387.79,-307.8 380.9,-299.75 381.27,-310.34 387.79,-307.8"/>
</g>
<!-- Node12&#45;&gt;Node3 -->
<g id="edge18" class="edge">
<title>Node12&#45;&gt;Node3</title>
<path fill="none" stroke="midnightblue" d="M569.43,-286.4C692.38,-277.48 1096.12,-248.22 1232.8,-238.31"/>
<polygon fill="midnightblue" stroke="midnightblue" points="1233.21,-241.79 1242.93,-237.58 1232.7,-234.81 1233.21,-241.79"/>
</g>
<!-- Node13 -->
<g id="node13" class="node">
<title>Node13</title>
<g id="a_node13"><a xlink:href="../../d9/d2d/_c_c_data_visitor_8h.html" target="_top" xlink:title=" ">
<polygon fill="none" stroke="black" points="626,-224.5 626,-243.5 719,-243.5 719,-224.5 626,-224.5"/>
<text text-anchor="middle" x="672.5" y="-231.5" font-family="Helvetica,sans-Serif" font-size="10.00">CCDataVisitor.h</text>
</a>
</g>
</g>
<!-- Node12&#45;&gt;Node13 -->
<g id="edge15" class="edge">
<title>Node12&#45;&gt;Node13</title>
<path fill="none" stroke="midnightblue" d="M555.52,-280.44C578.6,-271.48 615.06,-257.31 641.14,-247.18"/>
<polygon fill="midnightblue" stroke="midnightblue" points="642.52,-250.4 650.58,-243.52 639.99,-243.88 642.52,-250.4"/>
</g>
<!-- Node13&#45;&gt;Node5 -->
<g id="edge16" class="edge">
<title>Node13&#45;&gt;Node5</title>
<path fill="none" stroke="midnightblue" d="M672.5,-224.37C672.5,-206.62 672.5,-165.67 672.5,-141.6"/>
<polygon fill="midnightblue" stroke="midnightblue" points="676,-141.59 672.5,-131.59 669,-141.59 676,-141.59"/>
</g>
<!-- Node14 -->
<g id="node14" class="node">
<title>Node14</title>
<g id="a_node14"><a xlink:title=" ">
<polygon fill="none" stroke="#bfbfbf" points="194.5,-168.5 194.5,-187.5 238.5,-187.5 238.5,-168.5 194.5,-168.5"/>
<text text-anchor="middle" x="216.5" y="-175.5" font-family="Helvetica,sans-Serif" font-size="10.00">string</text>
</a>
</g>
</g>
<!-- Node13&#45;&gt;Node14 -->
<g id="edge17" class="edge">
<title>Node13&#45;&gt;Node14</title>
<path fill="none" stroke="midnightblue" d="M625.9,-225.96C621.04,-225.28 616.17,-224.61 611.5,-224 477.03,-206.42 316.28,-189.32 248.81,-182.32"/>
<polygon fill="midnightblue" stroke="midnightblue" points="249.11,-178.83 238.8,-181.28 248.39,-185.79 249.11,-178.83"/>
</g>
<!-- Node17 -->
<g id="node17" class="node">
<title>Node17</title>
<g id="a_node17"><a xlink:title=" ">
<polygon fill="none" stroke="#bfbfbf" points="1565.5,-448.5 1565.5,-478.5 1685.5,-478.5 1685.5,-448.5 1565.5,-448.5"/>
<text text-anchor="start" x="1573.5" y="-466.5" font-family="Helvetica,sans-Serif" font-size="10.00">support/data_support</text>
<text text-anchor="middle" x="1625.5" y="-455.5" font-family="Helvetica,sans-Serif" font-size="10.00">/ccCArray.h</text>
</a>
</g>
</g>
<!-- Node16&#45;&gt;Node17 -->
<g id="edge22" class="edge">
<title>Node16&#45;&gt;Node17</title>
<path fill="none" stroke="midnightblue" d="M1615.22,-515.48C1616.65,-508.4 1618.75,-497.97 1620.68,-488.39"/>
<polygon fill="midnightblue" stroke="midnightblue" points="1624.13,-489.02 1622.67,-478.52 1617.26,-487.63 1624.13,-489.02"/>
</g>
<!-- Node19&#45;&gt;Node5 -->
<g id="edge26" class="edge">
<title>Node19&#45;&gt;Node5</title>
<path fill="none" stroke="midnightblue" d="M1436.5,-392.44C1436.5,-373.94 1436.5,-328.81 1436.5,-291 1436.5,-291 1436.5,-291 1436.5,-233 1436.5,-173.13 1375.93,-184.92 1318.5,-168 1211.84,-136.58 884.34,-126.85 740.95,-124.05"/>
<polygon fill="midnightblue" stroke="midnightblue" points="740.6,-120.54 730.53,-123.85 740.47,-127.54 740.6,-120.54"/>
</g>
<!-- Node19&#45;&gt;Node18 -->
<g id="edge25" class="edge">
<title>Node19&#45;&gt;Node18</title>
<path fill="none" stroke="midnightblue" d="M1410.99,-392.44C1383.9,-383.36 1340.91,-368.94 1310.63,-358.78"/>
<polygon fill="midnightblue" stroke="midnightblue" points="1311.49,-355.38 1300.89,-355.52 1309.26,-362.01 1311.49,-355.38"/>
</g>
<!-- Node20&#45;&gt;Node3 -->
<g id="edge28" class="edge">
<title>Node20&#45;&gt;Node3</title>
<path fill="none" stroke="midnightblue" d="M1206.59,-392.08C1218.65,-365.72 1254.29,-287.88 1270.41,-252.66"/>
<polygon fill="midnightblue" stroke="midnightblue" points="1273.6,-254.12 1274.58,-243.57 1267.23,-251.2 1273.6,-254.12"/>
</g>
<!-- Node20&#45;&gt;Node12 -->
<g id="edge29" class="edge">
<title>Node20&#45;&gt;Node12</title>
<path fill="none" stroke="midnightblue" d="M1178.78,-392.39C1138.84,-378.26 1055.39,-350.29 982.5,-336 837.01,-307.48 661.24,-296.53 579.48,-292.77"/>
<polygon fill="midnightblue" stroke="midnightblue" points="579.19,-289.25 569.05,-292.3 578.88,-296.24 579.19,-289.25"/>
</g>
<!-- Node20&#45;&gt;Node18 -->
<g id="edge30" class="edge">
<title>Node20&#45;&gt;Node18</title>
<path fill="none" stroke="midnightblue" d="M1214.23,-392.32C1225.34,-384.11 1242.24,-371.6 1255.48,-361.81"/>
<polygon fill="midnightblue" stroke="midnightblue" points="1257.6,-364.59 1263.56,-355.83 1253.44,-358.97 1257.6,-364.59"/>
</g>
<!-- Node22&#45;&gt;Node4 -->
<g id="edge33" class="edge">
<title>Node22&#45;&gt;Node4</title>
<path fill="none" stroke="midnightblue" d="M999.67,-455C1031.29,-448.15 1064.92,-435.42 1088.5,-412 1109.85,-390.79 1107.5,-377.1 1107.5,-347 1107.5,-347 1107.5,-347 1107.5,-289 1107.5,-256.95 1107.5,-219.64 1107.5,-197.75"/>
<polygon fill="midnightblue" stroke="midnightblue" points="1111,-197.56 1107.5,-187.56 1104,-197.56 1111,-197.56"/>
</g>
<!-- Node22&#45;&gt;Node14 -->
<g id="edge42" class="edge">
<title>Node22&#45;&gt;Node14</title>
<path fill="none" stroke="midnightblue" d="M823.28,-455C730.1,-446.18 594.41,-430.37 578.5,-412 540.08,-367.66 613.14,-326.61 577.5,-280 536.93,-226.93 329.29,-194.03 248.61,-183.07"/>
<polygon fill="midnightblue" stroke="midnightblue" points="248.92,-179.58 238.54,-181.73 247.99,-186.52 248.92,-179.58"/>
</g>
<!-- Node23 -->
<g id="node23" class="node">
<title>Node23</title>
<g id="a_node23"><a xlink:title=" ">
<polygon fill="none" stroke="#bfbfbf" points="637.5,-392.5 637.5,-411.5 747.5,-411.5 747.5,-392.5 637.5,-392.5"/>
<text text-anchor="middle" x="692.5" y="-399.5" font-family="Helvetica,sans-Serif" font-size="10.00">CCAccelerometer.h</text>
</a>
</g>
</g>
<!-- Node22&#45;&gt;Node23 -->
<g id="edge34" class="edge">
<title>Node22&#45;&gt;Node23</title>
<path fill="none" stroke="midnightblue" d="M880.12,-453.98C841.58,-443.5 776.09,-425.71 733.58,-414.16"/>
<polygon fill="midnightblue" stroke="midnightblue" points="734.39,-410.75 723.82,-411.51 732.55,-417.51 734.39,-410.75"/>
</g>
<!-- Node24 -->
<g id="node24" class="node">
<title>Node24</title>
<g id="a_node24"><a xlink:href="../../d3/dff/_c_c_touch_8h.html" target="_top" xlink:title=" ">
<polygon fill="none" stroke="black" points="766,-392.5 766,-411.5 919,-411.5 919,-392.5 766,-392.5"/>
<text text-anchor="middle" x="842.5" y="-399.5" font-family="Helvetica,sans-Serif" font-size="10.00">touch_dispatcher/CCTouch.h</text>
</a>
</g>
</g>
<!-- Node22&#45;&gt;Node24 -->
<g id="edge35" class="edge">
<title>Node22&#45;&gt;Node24</title>
<path fill="none" stroke="midnightblue" d="M901.61,-453.98C890.85,-444.7 873.43,-429.67 860.28,-418.33"/>
<polygon fill="midnightblue" stroke="midnightblue" points="862.23,-415.39 852.37,-411.51 857.66,-420.69 862.23,-415.39"/>
</g>
<!-- Node25 -->
<g id="node25" class="node">
<title>Node25</title>
<g id="a_node25"><a xlink:href="../../da/ddc/_c_c_set_8h.html" target="_top" xlink:title=" ">
<polygon fill="none" stroke="black" points="937.5,-392.5 937.5,-411.5 1023.5,-411.5 1023.5,-392.5 937.5,-392.5"/>
<text text-anchor="middle" x="980.5" y="-399.5" font-family="Helvetica,sans-Serif" font-size="10.00">cocoa/CCSet.h</text>
</a>
</g>
</g>
<!-- Node22&#45;&gt;Node25 -->
<g id="edge38" class="edge">
<title>Node22&#45;&gt;Node25</title>
<path fill="none" stroke="midnightblue" d="M921.39,-453.98C932.15,-444.7 949.57,-429.67 962.72,-418.33"/>
<polygon fill="midnightblue" stroke="midnightblue" points="965.34,-420.69 970.63,-411.51 960.77,-415.39 965.34,-420.69"/>
</g>
<!-- Node27 -->
<g id="node27" class="node">
<title>Node27</title>
<g id="a_node27"><a xlink:title=" ">
<polygon fill="none" stroke="#bfbfbf" points="1041.5,-392.5 1041.5,-411.5 1079.5,-411.5 1079.5,-392.5 1041.5,-392.5"/>
<text text-anchor="middle" x="1060.5" y="-399.5" font-family="Helvetica,sans-Serif" font-size="10.00">map</text>
</a>
</g>
</g>
<!-- Node22&#45;&gt;Node27 -->
<g id="edge41" class="edge">
<title>Node22&#45;&gt;Node27</title>
<path fill="none" stroke="midnightblue" d="M932.85,-453.98C958.76,-443.63 1002.58,-426.13 1031.52,-414.57"/>
<polygon fill="midnightblue" stroke="midnightblue" points="1033.1,-417.71 1041.09,-410.75 1030.5,-411.21 1033.1,-417.71"/>
</g>
<!-- Node28 -->
<g id="node28" class="node">
<title>Node28</title>
<g id="a_node28"><a xlink:title=" ">
<polygon fill="none" stroke="#bfbfbf" points="587.5,-392.5 587.5,-411.5 619.5,-411.5 619.5,-392.5 587.5,-392.5"/>
<text text-anchor="middle" x="603.5" y="-399.5" font-family="Helvetica,sans-Serif" font-size="10.00">list</text>
</a>
</g>
</g>
<!-- Node22&#45;&gt;Node28 -->
<g id="edge43" class="edge">
<title>Node22&#45;&gt;Node28</title>
<path fill="none" stroke="midnightblue" d="M845.62,-453.96C790.19,-446.05 708.8,-432.73 629.65,-411.93"/>
<polygon fill="midnightblue" stroke="midnightblue" points="630.08,-408.42 619.51,-409.22 628.27,-415.18 630.08,-408.42"/>
</g>
<!-- Node24&#45;&gt;Node11 -->
<g id="edge37" class="edge">
<title>Node24&#45;&gt;Node11</title>
<path fill="none" stroke="midnightblue" d="M772.15,-392.44C683.22,-381.63 532.11,-363.25 452.02,-353.51"/>
<polygon fill="midnightblue" stroke="midnightblue" points="452.02,-349.98 441.67,-352.25 451.18,-356.93 452.02,-349.98"/>
</g>
<!-- Node24&#45;&gt;Node12 -->
<g id="edge36" class="edge">
<title>Node24&#45;&gt;Node12</title>
<path fill="none" stroke="midnightblue" d="M818.51,-392.46C763.86,-373.01 630.01,-325.36 567.14,-302.98"/>
<polygon fill="midnightblue" stroke="midnightblue" points="568.28,-299.67 557.69,-299.61 565.93,-306.26 568.28,-299.67"/>
</g>
<!-- Node25&#45;&gt;Node12 -->
<g id="edge40" class="edge">
<title>Node25&#45;&gt;Node12</title>
<path fill="none" stroke="midnightblue" d="M980.78,-392.22C980.71,-377.98 978.29,-350.01 961.5,-336 932.6,-311.87 683.84,-297.84 579.39,-292.97"/>
<polygon fill="midnightblue" stroke="midnightblue" points="579.3,-289.46 569.15,-292.5 578.98,-296.45 579.3,-289.46"/>
</g>
<!-- Node26 -->
<g id="node26" class="node">
<title>Node26</title>
<g id="a_node26"><a xlink:title=" ">
<polygon fill="none" stroke="#bfbfbf" points="920.5,-336.5 920.5,-355.5 952.5,-355.5 952.5,-336.5 920.5,-336.5"/>
<text text-anchor="middle" x="936.5" y="-343.5" font-family="Helvetica,sans-Serif" font-size="10.00">set</text>
</a>
</g>
</g>
<!-- Node25&#45;&gt;Node26 -->
<g id="edge39" class="edge">
<title>Node25&#45;&gt;Node26</title>
<path fill="none" stroke="midnightblue" d="M973.23,-392.08C966.96,-384.38 957.71,-373.03 950.07,-363.65"/>
<polygon fill="midnightblue" stroke="midnightblue" points="952.66,-361.29 943.63,-355.75 947.23,-365.71 952.66,-361.29"/>
</g>
<!-- Node29&#45;&gt;Node14 -->
<g id="edge54" class="edge">
<title>Node29&#45;&gt;Node14</title>
<path fill="none" stroke="midnightblue" d="M311.59,-515.42C293.19,-507.77 267.4,-495.27 248.5,-479 194.87,-432.84 159.5,-417.76 159.5,-347 159.5,-347 159.5,-347 159.5,-289 159.5,-252.3 184.82,-215.66 201.71,-195.3"/>
<polygon fill="midnightblue" stroke="midnightblue" points="204.45,-197.48 208.33,-187.62 199.15,-192.9 204.45,-197.48"/>
</g>
<!-- Node30 -->
<g id="node30" class="node">
<title>Node30</title>
<g id="a_node30"><a xlink:href="../../df/de6/cc_types_8h.html" target="_top" xlink:title=" ">
<polygon fill="none" stroke="black" points="225.5,-392.5 225.5,-411.5 289.5,-411.5 289.5,-392.5 225.5,-392.5"/>
<text text-anchor="middle" x="257.5" y="-399.5" font-family="Helvetica,sans-Serif" font-size="10.00">ccTypes.h</text>
</a>
</g>
</g>
<!-- Node29&#45;&gt;Node30 -->
<g id="edge45" class="edge">
<title>Node29&#45;&gt;Node30</title>
<path fill="none" stroke="midnightblue" d="M307.37,-515.36C290.43,-508.42 269.91,-496.84 259.5,-479 249.34,-461.59 250.59,-437.9 253.25,-421.62"/>
<polygon fill="midnightblue" stroke="midnightblue" points="256.71,-422.19 255.2,-411.7 249.84,-420.84 256.71,-422.19"/>
</g>
<!-- Node31 -->
<g id="node31" class="node">
<title>Node31</title>
<g id="a_node31"><a xlink:href="../../d5/d70/_c_c_texture2_d_8h.html" target="_top" xlink:title=" ">
<polygon fill="none" stroke="black" points="268.5,-454 268.5,-473 400.5,-473 400.5,-454 268.5,-454"/>
<text text-anchor="middle" x="334.5" y="-461" font-family="Helvetica,sans-Serif" font-size="10.00">textures/CCTexture2D.h</text>
</a>
</g>
</g>
<!-- Node29&#45;&gt;Node31 -->
<g id="edge49" class="edge">
<title>Node29&#45;&gt;Node31</title>
<path fill="none" stroke="midnightblue" d="M334.5,-515.48C334.5,-507.08 334.5,-493.98 334.5,-483.16"/>
<polygon fill="midnightblue" stroke="midnightblue" points="338,-483.01 334.5,-473.01 331,-483.01 338,-483.01"/>
</g>
<!-- Node30&#45;&gt;Node11 -->
<g id="edge47" class="edge">
<title>Node30&#45;&gt;Node11</title>
<path fill="none" stroke="midnightblue" d="M279.84,-392.44C303.25,-383.48 340.24,-369.31 366.69,-359.18"/>
<polygon fill="midnightblue" stroke="midnightblue" points="368.18,-362.36 376.26,-355.52 365.67,-355.82 368.18,-362.36"/>
</g>
<!-- Node30&#45;&gt;Node14 -->
<g id="edge46" class="edge">
<title>Node30&#45;&gt;Node14</title>
<path fill="none" stroke="midnightblue" d="M255.89,-392.3C249.86,-359.63 228.48,-243.87 220,-197.96"/>
<polygon fill="midnightblue" stroke="midnightblue" points="223.4,-197.08 218.14,-187.88 216.52,-198.35 223.4,-197.08"/>
</g>
<!-- Node30&#45;&gt;Node18 -->
<g id="edge48" class="edge">
<title>Node30&#45;&gt;Node18</title>
<path fill="none" stroke="midnightblue" d="M289.74,-396.84C304.04,-395.12 321.09,-393.25 336.5,-392 687.42,-363.63 1113.66,-351.12 1239.13,-347.89"/>
<polygon fill="midnightblue" stroke="midnightblue" points="1239.41,-351.38 1249.32,-347.63 1239.24,-344.38 1239.41,-351.38"/>
</g>
<!-- Node31&#45;&gt;Node11 -->
<g id="edge52" class="edge">
<title>Node31&#45;&gt;Node11</title>
<path fill="none" stroke="midnightblue" d="M332.39,-453.64C329.55,-439.63 325.98,-411.92 336.5,-392 343.69,-378.37 357.08,-367.86 369.57,-360.44"/>
<polygon fill="midnightblue" stroke="midnightblue" points="371.34,-363.46 378.42,-355.58 367.97,-357.33 371.34,-363.46"/>
</g>
<!-- Node31&#45;&gt;Node12 -->
<g id="edge51" class="edge">
<title>Node31&#45;&gt;Node12</title>
<path fill="none" stroke="midnightblue" d="M400.75,-457.94C435.47,-452.15 476.14,-439.47 502.5,-412 529.31,-384.06 533.8,-336.22 534.07,-309.84"/>
<polygon fill="midnightblue" stroke="midnightblue" points="537.56,-309.64 533.96,-299.67 530.56,-309.71 537.56,-309.64"/>
</g>
<!-- Node31&#45;&gt;Node14 -->
<g id="edge50" class="edge">
<title>Node31&#45;&gt;Node14</title>
<path fill="none" stroke="midnightblue" d="M292,-453.92C266.78,-446.75 236.01,-434.01 216.5,-412 196.53,-389.48 197.5,-377.1 197.5,-347 197.5,-347 197.5,-347 197.5,-289 197.5,-256.49 205.66,-219.35 211.28,-197.61"/>
<polygon fill="midnightblue" stroke="midnightblue" points="214.72,-198.32 213.94,-187.75 207.96,-196.5 214.72,-198.32"/>
</g>
<!-- Node31&#45;&gt;Node30 -->
<g id="edge53" class="edge">
<title>Node31&#45;&gt;Node30</title>
<path fill="none" stroke="midnightblue" d="M323.47,-453.98C311.23,-444.52 291.27,-429.1 276.51,-417.69"/>
<polygon fill="midnightblue" stroke="midnightblue" points="278.56,-414.85 268.51,-411.51 274.28,-420.39 278.56,-414.85"/>
</g>
<!-- Node32&#45;&gt;Node6 -->
<g id="edge59" class="edge">
<title>Node32&#45;&gt;Node6</title>
<path fill="none" stroke="midnightblue" d="M68.21,-453.96C61.21,-435.01 45.5,-387.9 45.5,-347 45.5,-347 45.5,-347 45.5,-177 45.5,-70.95 433.89,-65.14 566.64,-66.25"/>
<polygon fill="midnightblue" stroke="midnightblue" points="566.81,-69.75 576.85,-66.35 566.88,-62.75 566.81,-69.75"/>
</g>
<!-- Node32&#45;&gt;Node12 -->
<g id="edge58" class="edge">
<title>Node32&#45;&gt;Node12</title>
<path fill="none" stroke="midnightblue" d="M88.35,-454C115.25,-440.49 169.68,-413.45 216.5,-392 273.69,-365.79 286.81,-355.88 346.5,-336 393.9,-320.21 449.78,-307.51 488.03,-299.68"/>
<polygon fill="midnightblue" stroke="midnightblue" points="488.73,-303.1 497.84,-297.69 487.34,-296.24 488.73,-303.1"/>
</g>
<!-- Node32&#45;&gt;Node14 -->
<g id="edge60" class="edge">
<title>Node32&#45;&gt;Node14</title>
<path fill="none" stroke="midnightblue" d="M73.02,-453.84C76.25,-434.66 83.5,-387.12 83.5,-347 83.5,-347 83.5,-347 83.5,-289 83.5,-236.65 145.43,-204.53 184.78,-189.4"/>
<polygon fill="midnightblue" stroke="midnightblue" points="186.06,-192.65 194.24,-185.92 183.65,-186.08 186.06,-192.65"/>
</g>
<!-- Node32&#45;&gt;Node30 -->
<g id="edge57" class="edge">
<title>Node32&#45;&gt;Node30</title>
<path fill="none" stroke="midnightblue" d="M98.15,-453.98C130.47,-443.64 185.1,-426.16 221.23,-414.6"/>
<polygon fill="midnightblue" stroke="midnightblue" points="222.44,-417.89 230.9,-411.51 220.31,-411.22 222.44,-417.89"/>
</g>
</g>
</svg>
