<?xml version="1.0" encoding="UTF-8" standalone="no"?>
<!DOCTYPE svg PUBLIC "-//W3C//DTD SVG 1.1//EN"
 "http://www.w3.org/Graphics/SVG/1.1/DTD/svg11.dtd">
<!-- Generated by graphviz version 2.43.0 (0)
 -->
<!-- Title: CCAnimationFrame Pages: 1 -->
<svg width="688pt" height="361pt"
 viewBox="0.00 0.00 688.00 361.00" xmlns="http://www.w3.org/2000/svg" xmlns:xlink="http://www.w3.org/1999/xlink">
<g id="graph0" class="graph" transform="scale(1 1) rotate(0) translate(4 357)">
<title>CCAnimationFrame</title>
<!-- Node1 -->
<g id="node1" class="node">
<title>Node1</title>
<g id="a_node1"><a xlink:title="CCAnimationFrame A frame of the animation.">
<polygon fill="#999999" stroke="#666666" points="269.5,-19 158.5,-19 158.5,0 269.5,0 269.5,-19"/>
<text text-anchor="middle" x="214" y="-7" font-family="Helvetica,sans-Serif" font-size="10.00">CCAnimationFrame</text>
</a>
</g>
</g>
<!-- Node2 -->
<g id="node2" class="node">
<title>Node2</title>
<g id="a_node2"><a xlink:href="../../d3/dbf/classcocos2d_1_1_c_c_object.html" target="_top" xlink:title="NA.">
<polygon fill="white" stroke="#666666" points="471,-297 409,-297 409,-278 471,-278 471,-297"/>
<text text-anchor="middle" x="440" y="-285" font-family="Helvetica,sans-Serif" font-size="10.00">CCObject</text>
</a>
</g>
</g>
<!-- Node2&#45;&gt;Node1 -->
<g id="edge1" class="edge">
<title>Node2&#45;&gt;Node1</title>
<path fill="none" stroke="#63b8ff" d="M398.69,-284.79C289.23,-279.73 0,-262.55 0,-222.5 0,-222.5 0,-222.5 0,-74.5 0,-41.44 94.93,-24.03 158.33,-16.09"/>
<polygon fill="#63b8ff" stroke="#63b8ff" points="398.56,-288.29 408.71,-285.25 398.88,-281.3 398.56,-288.29"/>
</g>
<!-- Node4 -->
<g id="node4" class="node">
<title>Node4</title>
<g id="a_node4"><a xlink:href="../../d3/d45/classcocos2d_1_1_c_c_sprite_frame.html" target="_top" xlink:title="A CCSpriteFrame has:">
<polygon fill="white" stroke="#666666" points="258.5,-85 169.5,-85 169.5,-66 258.5,-66 258.5,-85"/>
<text text-anchor="middle" x="214" y="-73" font-family="Helvetica,sans-Serif" font-size="10.00">CCSpriteFrame</text>
</a>
</g>
</g>
<!-- Node2&#45;&gt;Node4 -->
<g id="edge4" class="edge">
<title>Node2&#45;&gt;Node4</title>
<path fill="none" stroke="#63b8ff" d="M398.91,-283.59C323.92,-277.58 168.55,-261.73 125,-231 78.16,-197.95 65.06,-139.83 109,-103 125.79,-88.93 149.04,-82.18 169.4,-79"/>
<polygon fill="#63b8ff" stroke="#63b8ff" points="398.7,-287.08 408.94,-284.37 399.25,-280.1 398.7,-287.08"/>
</g>
<!-- Node8 -->
<g id="node8" class="node">
<title>Node8</title>
<g id="a_node8"><a xlink:href="../../d7/dfd/classcocos2d_1_1_c_c_texture2_d.html" target="_top" xlink:title="CCTexture2D class.">
<polygon fill="white" stroke="#666666" points="506,-163.5 426,-163.5 426,-144.5 506,-144.5 506,-163.5"/>
<text text-anchor="middle" x="466" y="-151.5" font-family="Helvetica,sans-Serif" font-size="10.00">CCTexture2D</text>
</a>
</g>
</g>
<!-- Node2&#45;&gt;Node8 -->
<g id="edge11" class="edge">
<title>Node2&#45;&gt;Node8</title>
<path fill="none" stroke="#63b8ff" d="M443.68,-267.9C449.36,-239.15 460.06,-185.03 464.25,-163.83"/>
<polygon fill="#63b8ff" stroke="#63b8ff" points="440.21,-267.38 441.71,-277.87 447.08,-268.74 440.21,-267.38"/>
</g>
<!-- Node9 -->
<g id="node9" class="node">
<title>Node9</title>
<g id="a_node9"><a xlink:href="../../db/d28/classcocos2d_1_1_c_c_g_l_program.html" target="_top" xlink:title="CCGLProgram Class that implements a glProgram.">
<polygon fill="white" stroke="#666666" points="552,-231 468,-231 468,-212 552,-212 552,-231"/>
<text text-anchor="middle" x="510" y="-219" font-family="Helvetica,sans-Serif" font-size="10.00">CCGLProgram</text>
</a>
</g>
</g>
<!-- Node2&#45;&gt;Node9 -->
<g id="edge14" class="edge">
<title>Node2&#45;&gt;Node9</title>
<path fill="none" stroke="#63b8ff" d="M457.14,-270.83C470.69,-258.44 489.13,-241.59 500.26,-231.41"/>
<polygon fill="#63b8ff" stroke="#63b8ff" points="454.46,-268.54 449.44,-277.87 459.18,-273.7 454.46,-268.54"/>
</g>
<!-- Node10 -->
<g id="node10" class="node">
<title>Node10</title>
<g id="a_node10"><a xlink:href="../../d7/d5f/classcocos2d_1_1_c_c_dictionary.html" target="_top" xlink:title="CCDictionary is a class like NSDictionary in Obj&#45;C .">
<polygon fill="white" stroke="#666666" points="650,-231 570,-231 570,-212 650,-212 650,-231"/>
<text text-anchor="middle" x="610" y="-219" font-family="Helvetica,sans-Serif" font-size="10.00">CCDictionary</text>
</a>
</g>
</g>
<!-- Node2&#45;&gt;Node10 -->
<g id="edge16" class="edge">
<title>Node2&#45;&gt;Node10</title>
<path fill="none" stroke="#63b8ff" d="M472.3,-274.34C505.89,-261.7 557.6,-242.23 587.17,-231.1"/>
<polygon fill="#63b8ff" stroke="#63b8ff" points="471.05,-271.07 462.93,-277.87 473.52,-277.62 471.05,-271.07"/>
</g>
<!-- Node3 -->
<g id="node3" class="node">
<title>Node3</title>
<g id="a_node3"><a xlink:href="../../d5/d61/classcocos2d_1_1_c_c_copying.html" target="_top" xlink:title="NA NA.">
<polygon fill="white" stroke="#666666" points="475,-353 405,-353 405,-334 475,-334 475,-353"/>
<text text-anchor="middle" x="440" y="-341" font-family="Helvetica,sans-Serif" font-size="10.00">CCCopying</text>
</a>
</g>
</g>
<!-- Node3&#45;&gt;Node2 -->
<g id="edge2" class="edge">
<title>Node3&#45;&gt;Node2</title>
<path fill="none" stroke="#63b8ff" d="M440,-323.3C440,-314.41 440,-304.28 440,-297.25"/>
<polygon fill="#63b8ff" stroke="#63b8ff" points="436.5,-323.58 440,-333.58 443.5,-323.58 436.5,-323.58"/>
</g>
<!-- Node4&#45;&gt;Node1 -->
<g id="edge3" class="edge">
<title>Node4&#45;&gt;Node1</title>
<path fill="none" stroke="#9a32cd" stroke-dasharray="5,2" d="M214,-55.58C214,-43.63 214,-28.72 214,-19.41"/>
<polygon fill="#9a32cd" stroke="#9a32cd" points="210.5,-55.87 214,-65.87 217.5,-55.87 210.5,-55.87"/>
<text text-anchor="middle" x="256" y="-40" font-family="Helvetica,sans-Serif" font-size="10.00"> m_pSpriteFrame</text>
</g>
<!-- Node5 -->
<g id="node5" class="node">
<title>Node5</title>
<g id="a_node5"><a xlink:href="../../d2/df3/classcocos2d_1_1_c_c_point.html" target="_top" xlink:title="NA.">
<polygon fill="white" stroke="#666666" points="189.5,-231 134.5,-231 134.5,-212 189.5,-212 189.5,-231"/>
<text text-anchor="middle" x="162" y="-219" font-family="Helvetica,sans-Serif" font-size="10.00">CCPoint</text>
</a>
</g>
</g>
<!-- Node5&#45;&gt;Node4 -->
<g id="edge5" class="edge">
<title>Node5&#45;&gt;Node4</title>
<path fill="none" stroke="#9a32cd" stroke-dasharray="5,2" d="M136.84,-206.79C113.32,-192.08 83.8,-167.5 98,-143 115.92,-112.07 154.26,-94.29 181.96,-85.03"/>
<polygon fill="#9a32cd" stroke="#9a32cd" points="135.07,-209.81 145.45,-211.93 138.65,-203.8 135.07,-209.81"/>
<text text-anchor="middle" x="145" y="-157" font-family="Helvetica,sans-Serif" font-size="10.00"> m_obOffset</text>
<text text-anchor="middle" x="145" y="-146" font-family="Helvetica,sans-Serif" font-size="10.00">m_obOffsetInPixels</text>
</g>
<!-- Node7 -->
<g id="node7" class="node">
<title>Node7</title>
<g id="a_node7"><a xlink:href="../../da/d4d/classcocos2d_1_1_c_c_rect.html" target="_top" xlink:title="NA.">
<polygon fill="white" stroke="#666666" points="408,-163.5 356,-163.5 356,-144.5 408,-144.5 408,-163.5"/>
<text text-anchor="middle" x="382" y="-151.5" font-family="Helvetica,sans-Serif" font-size="10.00">CCRect</text>
</a>
</g>
</g>
<!-- Node5&#45;&gt;Node7 -->
<g id="edge8" class="edge">
<title>Node5&#45;&gt;Node7</title>
<path fill="none" stroke="#9a32cd" stroke-dasharray="5,2" d="M192.07,-208.15C211.97,-200.27 238.77,-190.22 263,-183 297.51,-172.71 306.97,-173.37 342,-165 346.46,-163.94 351.18,-162.78 355.77,-161.64"/>
<polygon fill="#9a32cd" stroke="#9a32cd" points="190.6,-204.97 182.62,-211.93 193.2,-211.47 190.6,-204.97"/>
<text text-anchor="middle" x="278.5" y="-186" font-family="Helvetica,sans-Serif" font-size="10.00"> origin</text>
</g>
<!-- Node6 -->
<g id="node6" class="node">
<title>Node6</title>
<g id="a_node6"><a xlink:href="../../d9/d24/classcocos2d_1_1_c_c_size.html" target="_top" xlink:title="NA.">
<polygon fill="white" stroke="#666666" points="326,-231 276,-231 276,-212 326,-212 326,-231"/>
<text text-anchor="middle" x="301" y="-219" font-family="Helvetica,sans-Serif" font-size="10.00">CCSize</text>
</a>
</g>
</g>
<!-- Node6&#45;&gt;Node4 -->
<g id="edge6" class="edge">
<title>Node6&#45;&gt;Node4</title>
<path fill="none" stroke="#9a32cd" stroke-dasharray="5,2" d="M265.89,-215.05C252.56,-211.27 238.35,-204.86 229,-194 201.62,-162.21 208.35,-106.47 212.22,-85.14"/>
<polygon fill="#9a32cd" stroke="#9a32cd" points="265.27,-218.51 275.82,-217.47 266.93,-211.7 265.27,-218.51"/>
<text text-anchor="middle" x="276" y="-157" font-family="Helvetica,sans-Serif" font-size="10.00"> m_obOriginalSize</text>
<text text-anchor="middle" x="276" y="-146" font-family="Helvetica,sans-Serif" font-size="10.00">m_obOriginalSizeInPixels</text>
</g>
<!-- Node6&#45;&gt;Node7 -->
<g id="edge9" class="edge">
<title>Node6&#45;&gt;Node7</title>
<path fill="none" stroke="#9a32cd" stroke-dasharray="5,2" d="M297.39,-201.79C297.14,-195.3 298.11,-188.33 302,-183 305.34,-178.42 333.61,-169.22 355.61,-162.61"/>
<polygon fill="#9a32cd" stroke="#9a32cd" points="293.94,-202.39 298.66,-211.88 300.89,-201.52 293.94,-202.39"/>
<text text-anchor="middle" x="313.5" y="-186" font-family="Helvetica,sans-Serif" font-size="10.00"> size</text>
</g>
<!-- Node6&#45;&gt;Node8 -->
<g id="edge12" class="edge">
<title>Node6&#45;&gt;Node8</title>
<path fill="none" stroke="#9a32cd" stroke-dasharray="5,2" d="M316.9,-204.87C325.48,-197.25 336.62,-188.54 348,-183 355.15,-179.52 394.92,-170.4 426.34,-163.51"/>
<polygon fill="#9a32cd" stroke="#9a32cd" points="314.48,-202.35 309.54,-211.72 319.24,-207.47 314.48,-202.35"/>
<text text-anchor="middle" x="388.5" y="-186" font-family="Helvetica,sans-Serif" font-size="10.00"> m_tContentSize</text>
</g>
<!-- Node7&#45;&gt;Node4 -->
<g id="edge7" class="edge">
<title>Node7&#45;&gt;Node4</title>
<path fill="none" stroke="#9a32cd" stroke-dasharray="5,2" d="M353.58,-140.06C319.2,-124.4 262.28,-98.48 232.88,-85.1"/>
<polygon fill="#9a32cd" stroke="#9a32cd" points="352.5,-143.41 363.05,-144.37 355.4,-137.04 352.5,-143.41"/>
<text text-anchor="middle" x="361.5" y="-117" font-family="Helvetica,sans-Serif" font-size="10.00"> m_obRect</text>
<text text-anchor="middle" x="361.5" y="-106" font-family="Helvetica,sans-Serif" font-size="10.00">m_obRectInPixels</text>
</g>
<!-- Node8&#45;&gt;Node4 -->
<g id="edge10" class="edge">
<title>Node8&#45;&gt;Node4</title>
<path fill="none" stroke="#9a32cd" stroke-dasharray="5,2" d="M452.19,-136.61C441.6,-125.21 425.96,-110.73 409,-103 383.04,-91.17 307.97,-83.5 258.91,-79.59"/>
<polygon fill="#9a32cd" stroke="#9a32cd" points="449.7,-139.07 458.96,-144.22 454.93,-134.42 449.7,-139.07"/>
<text text-anchor="middle" x="476.5" y="-111.5" font-family="Helvetica,sans-Serif" font-size="10.00"> m_pobTexture</text>
</g>
<!-- Node9&#45;&gt;Node8 -->
<g id="edge13" class="edge">
<title>Node9&#45;&gt;Node8</title>
<path fill="none" stroke="#9a32cd" stroke-dasharray="5,2" d="M498.63,-203.57C490.07,-190.84 478.71,-173.91 471.89,-163.77"/>
<polygon fill="#9a32cd" stroke="#9a32cd" points="495.77,-205.59 504.25,-211.94 501.58,-201.68 495.77,-205.59"/>
<text text-anchor="middle" x="542" y="-186" font-family="Helvetica,sans-Serif" font-size="10.00"> m_pShaderProgram</text>
</g>
<!-- Node10&#45;&gt;Node1 -->
<g id="edge15" class="edge">
<title>Node10&#45;&gt;Node1</title>
<path fill="none" stroke="#9a32cd" stroke-dasharray="5,2" d="M603.09,-202.04C600.37,-195.76 596.94,-188.85 593,-183 565.61,-142.32 558.7,-128.82 517,-103 438.67,-54.5 333.13,-29.87 269.52,-18.63"/>
<polygon fill="#9a32cd" stroke="#9a32cd" points="600.01,-203.76 606.98,-211.73 606.5,-201.15 600.01,-203.76"/>
<text text-anchor="middle" x="580" y="-111.5" font-family="Helvetica,sans-Serif" font-size="10.00"> m_pUserInfo</text>
</g>
<!-- Node11 -->
<g id="node11" class="node">
<title>Node11</title>
<g id="a_node11"><a xlink:href="../../d0/da2/classcocos2d_1_1_c_c_dict_element.html" target="_top" xlink:title="CCDictElement is used for traversing CCDictionary.">
<polygon fill="white" stroke="#666666" points="655,-297 565,-297 565,-278 655,-278 655,-297"/>
<text text-anchor="middle" x="610" y="-285" font-family="Helvetica,sans-Serif" font-size="10.00">CCDictElement</text>
</a>
</g>
</g>
<!-- Node11&#45;&gt;Node10 -->
<g id="edge17" class="edge">
<title>Node11&#45;&gt;Node10</title>
<path fill="none" stroke="#9a32cd" stroke-dasharray="5,2" d="M610,-267.58C610,-255.63 610,-240.72 610,-231.41"/>
<polygon fill="#9a32cd" stroke="#9a32cd" points="606.5,-267.87 610,-277.87 613.5,-267.87 606.5,-267.87"/>
<text text-anchor="middle" x="645" y="-252" font-family="Helvetica,sans-Serif" font-size="10.00"> m_pElements</text>
</g>
</g>
</svg>
