<?xml version="1.0" encoding="UTF-8" standalone="no"?>
<!DOCTYPE svg PUBLIC "-//W3C//DTD SVG 1.1//EN"
 "http://www.w3.org/Graphics/SVG/1.1/DTD/svg11.dtd">
<!-- Generated by graphviz version 2.43.0 (0)
 -->
<!-- Title: CCAnimationFrame Pages: 1 -->
<svg width="688pt" height="366pt"
 viewBox="0.00 0.00 688.00 366.00" xmlns="http://www.w3.org/2000/svg" xmlns:xlink="http://www.w3.org/1999/xlink">
<g id="graph0" class="graph" transform="scale(1 1) rotate(0) translate(4 362)">
<title>CCAnimationFrame</title>
<!-- Node1 -->
<g id="node1" class="node">
<title>Node1</title>
<g id="a_node1"><a xlink:title="CCAnimationFrame A frame of the animation.">
<polygon fill="#bfbfbf" stroke="black" points="158.5,-0.5 158.5,-19.5 269.5,-19.5 269.5,-0.5 158.5,-0.5"/>
<text text-anchor="middle" x="214" y="-7.5" font-family="Helvetica,sans-Serif" font-size="10.00">CCAnimationFrame</text>
</a>
</g>
</g>
<!-- Node2 -->
<g id="node2" class="node">
<title>Node2</title>
<g id="a_node2"><a xlink:href="../../d3/dbf/classcocos2d_1_1_c_c_object.html" target="_top" xlink:title="NA.">
<polygon fill="none" stroke="black" points="409,-281.5 409,-300.5 471,-300.5 471,-281.5 409,-281.5"/>
<text text-anchor="middle" x="440" y="-288.5" font-family="Helvetica,sans-Serif" font-size="10.00">CCObject</text>
</a>
</g>
</g>
<!-- Node2&#45;&gt;Node1 -->
<g id="edge1" class="edge">
<title>Node2&#45;&gt;Node1</title>
<path fill="none" stroke="midnightblue" d="M398.69,-288.2C289.23,-282.89 0,-265.07 0,-225 0,-225 0,-225 0,-76 0,-42.9 94.93,-25.06 158.33,-16.83"/>
<polygon fill="midnightblue" stroke="midnightblue" points="398.55,-291.7 408.71,-288.68 398.89,-284.71 398.55,-291.7"/>
</g>
<!-- Node4 -->
<g id="node4" class="node">
<title>Node4</title>
<g id="a_node4"><a xlink:href="../../d3/d45/classcocos2d_1_1_c_c_sprite_frame.html" target="_top" xlink:title="A CCSpriteFrame has:">
<polygon fill="none" stroke="black" points="169.5,-67.5 169.5,-86.5 258.5,-86.5 258.5,-67.5 169.5,-67.5"/>
<text text-anchor="middle" x="214" y="-74.5" font-family="Helvetica,sans-Serif" font-size="10.00">CCSpriteFrame</text>
</a>
</g>
</g>
<!-- Node2&#45;&gt;Node4 -->
<g id="edge4" class="edge">
<title>Node2&#45;&gt;Node4</title>
<path fill="none" stroke="midnightblue" d="M398.88,-287.06C323.82,-281.01 168.36,-265.02 125,-234 78.01,-200.39 64.81,-142.21 109,-105 125.77,-90.88 149.03,-84.02 169.39,-80.73"/>
<polygon fill="midnightblue" stroke="midnightblue" points="398.67,-290.56 408.92,-287.85 399.22,-283.58 398.67,-290.56"/>
</g>
<!-- Node8 -->
<g id="node8" class="node">
<title>Node8</title>
<g id="a_node8"><a xlink:href="../../d7/dfd/classcocos2d_1_1_c_c_texture2_d.html" target="_top" xlink:title="CCTexture2D class.">
<polygon fill="none" stroke="black" points="426,-146.5 426,-165.5 506,-165.5 506,-146.5 426,-146.5"/>
<text text-anchor="middle" x="466" y="-153.5" font-family="Helvetica,sans-Serif" font-size="10.00">CCTexture2D</text>
</a>
</g>
</g>
<!-- Node2&#45;&gt;Node8 -->
<g id="edge11" class="edge">
<title>Node2&#45;&gt;Node8</title>
<path fill="none" stroke="midnightblue" d="M443.69,-271.13C449.41,-241.88 460.18,-186.76 464.32,-165.59"/>
<polygon fill="midnightblue" stroke="midnightblue" points="440.19,-270.79 441.71,-281.27 447.06,-272.13 440.19,-270.79"/>
</g>
<!-- Node9 -->
<g id="node9" class="node">
<title>Node9</title>
<g id="a_node9"><a xlink:href="../../db/d28/classcocos2d_1_1_c_c_g_l_program.html" target="_top" xlink:title="CCGLProgram Class that implements a glProgram.">
<polygon fill="none" stroke="black" points="468,-214.5 468,-233.5 552,-233.5 552,-214.5 468,-214.5"/>
<text text-anchor="middle" x="510" y="-221.5" font-family="Helvetica,sans-Serif" font-size="10.00">CCGLProgram</text>
</a>
</g>
</g>
<!-- Node2&#45;&gt;Node9 -->
<g id="edge14" class="edge">
<title>Node2&#45;&gt;Node9</title>
<path fill="none" stroke="midnightblue" d="M456.85,-274.36C470.61,-261.58 489.55,-243.99 500.71,-233.63"/>
<polygon fill="midnightblue" stroke="midnightblue" points="454.39,-271.86 449.44,-281.23 459.15,-276.99 454.39,-271.86"/>
</g>
<!-- Node10 -->
<g id="node10" class="node">
<title>Node10</title>
<g id="a_node10"><a xlink:href="../../d7/d5f/classcocos2d_1_1_c_c_dictionary.html" target="_top" xlink:title="CCDictionary is a class like NSDictionary in Obj&#45;C .">
<polygon fill="none" stroke="black" points="570,-214.5 570,-233.5 650,-233.5 650,-214.5 570,-214.5"/>
<text text-anchor="middle" x="610" y="-221.5" font-family="Helvetica,sans-Serif" font-size="10.00">CCDictionary</text>
</a>
</g>
</g>
<!-- Node2&#45;&gt;Node10 -->
<g id="edge16" class="edge">
<title>Node2&#45;&gt;Node10</title>
<path fill="none" stroke="midnightblue" d="M471.98,-277.77C505.72,-264.87 558.02,-244.88 587.6,-233.56"/>
<polygon fill="midnightblue" stroke="midnightblue" points="470.67,-274.53 462.57,-281.37 473.17,-281.07 470.67,-274.53"/>
</g>
<!-- Node3 -->
<g id="node3" class="node">
<title>Node3</title>
<g id="a_node3"><a xlink:href="../../d5/d61/classcocos2d_1_1_c_c_copying.html" target="_top" xlink:title="NA NA.">
<polygon fill="none" stroke="black" points="405,-338.5 405,-357.5 475,-357.5 475,-338.5 405,-338.5"/>
<text text-anchor="middle" x="440" y="-345.5" font-family="Helvetica,sans-Serif" font-size="10.00">CCCopying</text>
</a>
</g>
</g>
<!-- Node3&#45;&gt;Node2 -->
<g id="edge2" class="edge">
<title>Node3&#45;&gt;Node2</title>
<path fill="none" stroke="midnightblue" d="M440,-328.12C440,-318.82 440,-308.06 440,-300.71"/>
<polygon fill="midnightblue" stroke="midnightblue" points="436.5,-328.41 440,-338.41 443.5,-328.41 436.5,-328.41"/>
</g>
<!-- Node4&#45;&gt;Node1 -->
<g id="edge3" class="edge">
<title>Node4&#45;&gt;Node1</title>
<path fill="none" stroke="#9a32cd" stroke-dasharray="5,2" d="M214,-57.04C214,-44.67 214,-29.12 214,-19.63"/>
<polygon fill="#9a32cd" stroke="#9a32cd" points="210.5,-57.23 214,-67.23 217.5,-57.23 210.5,-57.23"/>
<text text-anchor="middle" x="256" y="-41" font-family="Helvetica,sans-Serif" font-size="10.00"> m_pSpriteFrame</text>
</g>
<!-- Node5 -->
<g id="node5" class="node">
<title>Node5</title>
<g id="a_node5"><a xlink:href="../../d2/df3/classcocos2d_1_1_c_c_point.html" target="_top" xlink:title="NA.">
<polygon fill="none" stroke="black" points="134.5,-214.5 134.5,-233.5 189.5,-233.5 189.5,-214.5 134.5,-214.5"/>
<text text-anchor="middle" x="162" y="-221.5" font-family="Helvetica,sans-Serif" font-size="10.00">CCPoint</text>
</a>
</g>
</g>
<!-- Node5&#45;&gt;Node4 -->
<g id="edge5" class="edge">
<title>Node5&#45;&gt;Node4</title>
<path fill="none" stroke="#9a32cd" stroke-dasharray="5,2" d="M136.83,-209.19C113.31,-194.37 83.79,-169.62 98,-145 115.96,-113.88 154.49,-95.92 182.23,-86.57"/>
<polygon fill="#9a32cd" stroke="#9a32cd" points="135.07,-212.22 145.45,-214.36 138.67,-206.21 135.07,-212.22"/>
<text text-anchor="middle" x="145" y="-159" font-family="Helvetica,sans-Serif" font-size="10.00"> m_obOffset</text>
<text text-anchor="middle" x="145" y="-148" font-family="Helvetica,sans-Serif" font-size="10.00">m_obOffsetInPixels</text>
</g>
<!-- Node7 -->
<g id="node7" class="node">
<title>Node7</title>
<g id="a_node7"><a xlink:href="../../da/d4d/classcocos2d_1_1_c_c_rect.html" target="_top" xlink:title="NA.">
<polygon fill="none" stroke="black" points="356,-146.5 356,-165.5 408,-165.5 408,-146.5 356,-146.5"/>
<text text-anchor="middle" x="382" y="-153.5" font-family="Helvetica,sans-Serif" font-size="10.00">CCRect</text>
</a>
</g>
</g>
<!-- Node5&#45;&gt;Node7 -->
<g id="edge8" class="edge">
<title>Node5&#45;&gt;Node7</title>
<path fill="none" stroke="#9a32cd" stroke-dasharray="5,2" d="M191.68,-210.62C211.61,-202.6 238.6,-192.33 263,-185 297.49,-174.64 306.97,-175.37 342,-167 346.46,-165.94 351.18,-164.78 355.77,-163.64"/>
<polygon fill="#9a32cd" stroke="#9a32cd" points="190.17,-207.45 182.23,-214.46 192.81,-213.94 190.17,-207.45"/>
<text text-anchor="middle" x="278.5" y="-188" font-family="Helvetica,sans-Serif" font-size="10.00"> origin</text>
</g>
<!-- Node6 -->
<g id="node6" class="node">
<title>Node6</title>
<g id="a_node6"><a xlink:href="../../d9/d24/classcocos2d_1_1_c_c_size.html" target="_top" xlink:title="NA.">
<polygon fill="none" stroke="black" points="276,-214.5 276,-233.5 326,-233.5 326,-214.5 276,-214.5"/>
<text text-anchor="middle" x="301" y="-221.5" font-family="Helvetica,sans-Serif" font-size="10.00">CCSize</text>
</a>
</g>
</g>
<!-- Node6&#45;&gt;Node4 -->
<g id="edge6" class="edge">
<title>Node6&#45;&gt;Node4</title>
<path fill="none" stroke="#9a32cd" stroke-dasharray="5,2" d="M265.88,-217.3C252.54,-213.42 238.34,-206.91 229,-196 201.6,-164 208.34,-108.07 212.21,-86.67"/>
<polygon fill="#9a32cd" stroke="#9a32cd" points="265.26,-220.75 275.81,-219.78 266.95,-213.96 265.26,-220.75"/>
<text text-anchor="middle" x="276" y="-159" font-family="Helvetica,sans-Serif" font-size="10.00"> m_obOriginalSize</text>
<text text-anchor="middle" x="276" y="-148" font-family="Helvetica,sans-Serif" font-size="10.00">m_obOriginalSizeInPixels</text>
</g>
<!-- Node6&#45;&gt;Node7 -->
<g id="edge9" class="edge">
<title>Node6&#45;&gt;Node7</title>
<path fill="none" stroke="#9a32cd" stroke-dasharray="5,2" d="M297.34,-204.04C297.08,-197.47 298.06,-190.4 302,-185 305.34,-180.42 333.61,-171.22 355.61,-164.61"/>
<polygon fill="#9a32cd" stroke="#9a32cd" points="293.9,-204.78 298.63,-214.26 300.85,-203.9 293.9,-204.78"/>
<text text-anchor="middle" x="313.5" y="-188" font-family="Helvetica,sans-Serif" font-size="10.00"> size</text>
</g>
<!-- Node6&#45;&gt;Node8 -->
<g id="edge12" class="edge">
<title>Node6&#45;&gt;Node8</title>
<path fill="none" stroke="#9a32cd" stroke-dasharray="5,2" d="M316.54,-207.45C325.16,-199.65 336.44,-190.68 348,-185 355.11,-181.51 394.64,-172.44 426.02,-165.57"/>
<polygon fill="#9a32cd" stroke="#9a32cd" points="314.04,-205 309.19,-214.42 318.85,-210.08 314.04,-205"/>
<text text-anchor="middle" x="388.5" y="-188" font-family="Helvetica,sans-Serif" font-size="10.00"> m_tContentSize</text>
</g>
<!-- Node7&#45;&gt;Node4 -->
<g id="edge7" class="edge">
<title>Node7&#45;&gt;Node4</title>
<path fill="none" stroke="#9a32cd" stroke-dasharray="5,2" d="M353.91,-142.12C319.49,-126.35 262.15,-100.07 232.7,-86.57"/>
<polygon fill="#9a32cd" stroke="#9a32cd" points="352.83,-145.48 363.38,-146.47 355.75,-139.12 352.83,-145.48"/>
<text text-anchor="middle" x="361.5" y="-119" font-family="Helvetica,sans-Serif" font-size="10.00"> m_obRect</text>
<text text-anchor="middle" x="361.5" y="-108" font-family="Helvetica,sans-Serif" font-size="10.00">m_obRectInPixels</text>
</g>
<!-- Node8&#45;&gt;Node4 -->
<g id="edge10" class="edge">
<title>Node8&#45;&gt;Node4</title>
<path fill="none" stroke="#9a32cd" stroke-dasharray="5,2" d="M452.19,-138.62C441.6,-127.23 425.95,-112.75 409,-105 383.05,-93.13 307.97,-85.26 258.91,-81.22"/>
<polygon fill="#9a32cd" stroke="#9a32cd" points="449.69,-141.08 458.95,-146.23 454.92,-136.43 449.69,-141.08"/>
<text text-anchor="middle" x="476.5" y="-113.5" font-family="Helvetica,sans-Serif" font-size="10.00"> m_pobTexture</text>
</g>
<!-- Node9&#45;&gt;Node8 -->
<g id="edge13" class="edge">
<title>Node9&#45;&gt;Node8</title>
<path fill="none" stroke="#9a32cd" stroke-dasharray="5,2" d="M498.63,-205.94C490.07,-193.11 478.71,-176.06 471.89,-165.84"/>
<polygon fill="#9a32cd" stroke="#9a32cd" points="495.79,-207.99 504.25,-214.37 501.61,-204.11 495.79,-207.99"/>
<text text-anchor="middle" x="542" y="-188" font-family="Helvetica,sans-Serif" font-size="10.00"> m_pShaderProgram</text>
</g>
<!-- Node10&#45;&gt;Node1 -->
<g id="edge15" class="edge">
<title>Node10&#45;&gt;Node1</title>
<path fill="none" stroke="#9a32cd" stroke-dasharray="5,2" d="M603.43,-205.01C600.66,-198.45 597.12,-191.15 593,-185 565.71,-144.25 558.64,-130.91 517,-105 438.67,-56.26 333.13,-31.06 269.51,-19.46"/>
<polygon fill="#9a32cd" stroke="#9a32cd" points="600.21,-206.39 607.12,-214.42 606.73,-203.84 600.21,-206.39"/>
<text text-anchor="middle" x="580" y="-113.5" font-family="Helvetica,sans-Serif" font-size="10.00"> m_pUserInfo</text>
</g>
<!-- Node11 -->
<g id="node11" class="node">
<title>Node11</title>
<g id="a_node11"><a xlink:href="../../d0/da2/classcocos2d_1_1_c_c_dict_element.html" target="_top" xlink:title="CCDictElement is used for traversing CCDictionary.">
<polygon fill="none" stroke="black" points="565,-281.5 565,-300.5 655,-300.5 655,-281.5 565,-281.5"/>
<text text-anchor="middle" x="610" y="-288.5" font-family="Helvetica,sans-Serif" font-size="10.00">CCDictElement</text>
</a>
</g>
</g>
<!-- Node11&#45;&gt;Node10 -->
<g id="edge17" class="edge">
<title>Node11&#45;&gt;Node10</title>
<path fill="none" stroke="#9a32cd" stroke-dasharray="5,2" d="M610,-271.04C610,-258.67 610,-243.12 610,-233.63"/>
<polygon fill="#9a32cd" stroke="#9a32cd" points="606.5,-271.23 610,-281.23 613.5,-271.23 606.5,-271.23"/>
<text text-anchor="middle" x="645" y="-255" font-family="Helvetica,sans-Serif" font-size="10.00"> m_pElements</text>
</g>
</g>
</svg>
