<?xml version="1.0" encoding="UTF-8" standalone="no"?>
<!DOCTYPE svg PUBLIC "-//W3C//DTD SVG 1.1//EN"
 "http://www.w3.org/Graphics/SVG/1.1/DTD/svg11.dtd">
<!-- Generated by graphviz version 2.43.0 (0)
 -->
<!-- Title: /home/runner/work/cocos&#45;headers/cocos&#45;headers/cocos2dx/shaders/CCShaderCache.h Pages: 1 -->
<svg width="542pt" height="511pt"
 viewBox="0.00 0.00 541.50 511.00" xmlns="http://www.w3.org/2000/svg" xmlns:xlink="http://www.w3.org/1999/xlink">
<g id="graph0" class="graph" transform="scale(1 1) rotate(0) translate(4 507)">
<title>/home/runner/work/cocos&#45;headers/cocos&#45;headers/cocos2dx/shaders/CCShaderCache.h</title>
<!-- Node1 -->
<g id="node1" class="node">
<title>Node1</title>
<g id="a_node1"><a xlink:title=" ">
<polygon fill="#999999" stroke="#666666" points="298,-503 102,-503 102,-462 298,-462 298,-503"/>
<text text-anchor="start" x="110" y="-491" font-family="Helvetica,sans-Serif" font-size="10.00">/home/runner/work/cocos</text>
<text text-anchor="start" x="110" y="-480" font-family="Helvetica,sans-Serif" font-size="10.00">&#45;headers/cocos&#45;headers</text>
<text text-anchor="middle" x="200" y="-469" font-family="Helvetica,sans-Serif" font-size="10.00">/cocos2dx/shaders/CCShaderCache.h</text>
</a>
</g>
</g>
<!-- Node2 -->
<g id="node2" class="node">
<title>Node2</title>
<g id="a_node2"><a xlink:href="../../d9/d8d/_c_c_dictionary_8h.html" target="_top" xlink:title=" ">
<polygon fill="white" stroke="#666666" points="259.5,-426 140.5,-426 140.5,-407 259.5,-407 259.5,-426"/>
<text text-anchor="middle" x="200" y="-414" font-family="Helvetica,sans-Serif" font-size="10.00">cocoa/CCDictionary.h</text>
</a>
</g>
</g>
<!-- Node1&#45;&gt;Node2 -->
<g id="edge1" class="edge">
<title>Node1&#45;&gt;Node2</title>
<path fill="none" stroke="#63b8ff" d="M200,-461.95C200,-453.85 200,-444.5 200,-436.47"/>
<polygon fill="#63b8ff" stroke="#63b8ff" points="203.5,-436.26 200,-426.26 196.5,-436.26 203.5,-436.26"/>
</g>
<!-- Node3 -->
<g id="node3" class="node">
<title>Node3</title>
<g id="a_node3"><a xlink:title=" ">
<polygon fill="#e0e0e0" stroke="#999999" points="120,-371 0,-371 0,-341 120,-341 120,-371"/>
<text text-anchor="start" x="8" y="-359" font-family="Helvetica,sans-Serif" font-size="10.00">support/data_support</text>
<text text-anchor="middle" x="60" y="-348" font-family="Helvetica,sans-Serif" font-size="10.00">/uthash.h</text>
</a>
</g>
</g>
<!-- Node2&#45;&gt;Node3 -->
<g id="edge2" class="edge">
<title>Node2&#45;&gt;Node3</title>
<path fill="none" stroke="#63b8ff" d="M179.64,-406.99C159.67,-398.65 128.59,-385.66 103.11,-375.02"/>
<polygon fill="#63b8ff" stroke="#63b8ff" points="104.23,-371.69 93.66,-371.06 101.54,-378.15 104.23,-371.69"/>
</g>
<!-- Node4 -->
<g id="node4" class="node">
<title>Node4</title>
<g id="a_node4"><a xlink:href="../../dd/d69/_c_c_object_8h.html" target="_top" xlink:title=" ">
<polygon fill="white" stroke="#666666" points="265.5,-299.5 194.5,-299.5 194.5,-280.5 265.5,-280.5 265.5,-299.5"/>
<text text-anchor="middle" x="230" y="-287.5" font-family="Helvetica,sans-Serif" font-size="10.00">CCObject.h</text>
</a>
</g>
</g>
<!-- Node2&#45;&gt;Node4 -->
<g id="edge3" class="edge">
<title>Node2&#45;&gt;Node4</title>
<path fill="none" stroke="#63b8ff" d="M202.13,-406.97C204.37,-398.02 207.96,-383.53 211,-371 216.08,-350.03 221.78,-325.94 225.6,-309.72"/>
<polygon fill="#63b8ff" stroke="#63b8ff" points="229.04,-310.42 227.92,-299.89 222.22,-308.82 229.04,-310.42"/>
</g>
<!-- Node14 -->
<g id="node14" class="node">
<title>Node14</title>
<g id="a_node14"><a xlink:href="../../da/d35/_c_c_array_8h.html" target="_top" xlink:title=" ">
<polygon fill="white" stroke="#666666" points="202,-365.5 138,-365.5 138,-346.5 202,-346.5 202,-365.5"/>
<text text-anchor="middle" x="170" y="-353.5" font-family="Helvetica,sans-Serif" font-size="10.00">CCArray.h</text>
</a>
</g>
</g>
<!-- Node2&#45;&gt;Node14 -->
<g id="edge16" class="edge">
<title>Node2&#45;&gt;Node14</title>
<path fill="none" stroke="#63b8ff" d="M195.57,-406.87C191.23,-398.4 184.48,-385.24 179.01,-374.57"/>
<polygon fill="#63b8ff" stroke="#63b8ff" points="182.12,-372.97 174.44,-365.67 175.89,-376.16 182.12,-372.97"/>
</g>
<!-- Node16 -->
<g id="node16" class="node">
<title>Node16</title>
<g id="a_node16"><a xlink:href="../../d0/d8a/_c_c_string_8h.html" target="_top" xlink:title=" ">
<polygon fill="white" stroke="#666666" points="385,-365.5 317,-365.5 317,-346.5 385,-346.5 385,-365.5"/>
<text text-anchor="middle" x="351" y="-353.5" font-family="Helvetica,sans-Serif" font-size="10.00">CCString.h</text>
</a>
</g>
</g>
<!-- Node2&#45;&gt;Node16 -->
<g id="edge18" class="edge">
<title>Node2&#45;&gt;Node16</title>
<path fill="none" stroke="#63b8ff" d="M221.96,-406.99C247.68,-397.03 290.48,-380.45 319.68,-369.13"/>
<polygon fill="#63b8ff" stroke="#63b8ff" points="320.96,-372.39 329.02,-365.52 318.43,-365.87 320.96,-372.39"/>
</g>
<!-- Node5 -->
<g id="node5" class="node">
<title>Node5</title>
<g id="a_node5"><a xlink:href="../../d9/d2d/_c_c_data_visitor_8h.html" target="_top" xlink:title=" ">
<polygon fill="white" stroke="#666666" points="423.5,-239 330.5,-239 330.5,-220 423.5,-220 423.5,-239"/>
<text text-anchor="middle" x="377" y="-227" font-family="Helvetica,sans-Serif" font-size="10.00">CCDataVisitor.h</text>
</a>
</g>
</g>
<!-- Node4&#45;&gt;Node5 -->
<g id="edge4" class="edge">
<title>Node4&#45;&gt;Node5</title>
<path fill="none" stroke="#63b8ff" d="M251.38,-280.49C276.31,-270.57 317.72,-254.09 346.14,-242.78"/>
<polygon fill="#63b8ff" stroke="#63b8ff" points="347.6,-245.97 355.6,-239.02 345.01,-239.46 347.6,-245.97"/>
</g>
<!-- Node11 -->
<g id="node11" class="node">
<title>Node11</title>
<g id="a_node11"><a xlink:href="../../d9/dc8/cc_macros_8h.html" target="_top" xlink:title=" ">
<polygon fill="white" stroke="#666666" points="259.5,-239 188.5,-239 188.5,-220 259.5,-220 259.5,-239"/>
<text text-anchor="middle" x="224" y="-227" font-family="Helvetica,sans-Serif" font-size="10.00">ccMacros.h</text>
</a>
</g>
</g>
<!-- Node4&#45;&gt;Node11 -->
<g id="edge11" class="edge">
<title>Node4&#45;&gt;Node11</title>
<path fill="none" stroke="#63b8ff" d="M229.11,-280.37C228.28,-272.25 227.01,-259.81 225.94,-249.39"/>
<polygon fill="#63b8ff" stroke="#63b8ff" points="229.39,-248.76 224.89,-239.17 222.43,-249.47 229.39,-248.76"/>
</g>
<!-- Node6 -->
<g id="node6" class="node">
<title>Node6</title>
<g id="a_node6"><a xlink:href="../../d3/d41/_c_c_platform_macros_8h.html" target="_top" xlink:title=" ">
<polygon fill="white" stroke="#666666" points="309.5,-129 148.5,-129 148.5,-110 309.5,-110 309.5,-129"/>
<text text-anchor="middle" x="229" y="-117" font-family="Helvetica,sans-Serif" font-size="10.00">platform/CCPlatformMacros.h</text>
</a>
</g>
</g>
<!-- Node5&#45;&gt;Node6 -->
<g id="edge5" class="edge">
<title>Node5&#45;&gt;Node6</title>
<path fill="none" stroke="#63b8ff" d="M377.92,-219.94C378.86,-206.53 378.62,-180.51 365,-165 350.78,-148.81 330.57,-138.48 310.08,-131.9"/>
<polygon fill="#63b8ff" stroke="#63b8ff" points="310.92,-128.5 300.34,-129.05 308.95,-135.22 310.92,-128.5"/>
</g>
<!-- Node10 -->
<g id="node10" class="node">
<title>Node10</title>
<g id="a_node10"><a xlink:title=" ">
<polygon fill="#e0e0e0" stroke="#999999" points="468,-184 424,-184 424,-165 468,-165 468,-184"/>
<text text-anchor="middle" x="446" y="-172" font-family="Helvetica,sans-Serif" font-size="10.00">string</text>
</a>
</g>
</g>
<!-- Node5&#45;&gt;Node10 -->
<g id="edge10" class="edge">
<title>Node5&#45;&gt;Node10</title>
<path fill="none" stroke="#63b8ff" d="M388.09,-219.98C398.49,-212 414.26,-199.88 426.72,-190.31"/>
<polygon fill="#63b8ff" stroke="#63b8ff" points="428.91,-193.04 434.71,-184.17 424.65,-187.49 428.91,-193.04"/>
</g>
<!-- Node7 -->
<g id="node7" class="node">
<title>Node7</title>
<g id="a_node7"><a xlink:href="../../db/d9f/cc_config_8h.html" target="_top" xlink:title="cocos2d (cc) configuration file">
<polygon fill="white" stroke="#666666" points="153.5,-74 86.5,-74 86.5,-55 153.5,-55 153.5,-74"/>
<text text-anchor="middle" x="120" y="-62" font-family="Helvetica,sans-Serif" font-size="10.00">ccConfig.h</text>
</a>
</g>
</g>
<!-- Node6&#45;&gt;Node7 -->
<g id="edge6" class="edge">
<title>Node6&#45;&gt;Node7</title>
<path fill="none" stroke="#63b8ff" d="M211.49,-109.98C194.03,-101.5 166.99,-88.35 146.83,-78.54"/>
<polygon fill="#63b8ff" stroke="#63b8ff" points="148.36,-75.4 137.83,-74.17 145.29,-81.69 148.36,-75.4"/>
</g>
<!-- Node8 -->
<g id="node8" class="node">
<title>Node8</title>
<g id="a_node8"><a xlink:href="../../dd/d96/_c_c_platform_config_8h.html" target="_top" xlink:title=" ">
<polygon fill="white" stroke="#666666" points="294.5,-19 137.5,-19 137.5,0 294.5,0 294.5,-19"/>
<text text-anchor="middle" x="216" y="-7" font-family="Helvetica,sans-Serif" font-size="10.00">platform/CCPlatformConfig.h</text>
</a>
</g>
</g>
<!-- Node6&#45;&gt;Node8 -->
<g id="edge8" class="edge">
<title>Node6&#45;&gt;Node8</title>
<path fill="none" stroke="#63b8ff" d="M250.22,-109.86C274,-98.82 307.55,-78.33 294,-55 285.46,-40.29 270.03,-30.04 255.14,-23.11"/>
<polygon fill="#63b8ff" stroke="#63b8ff" points="256.08,-19.71 245.5,-19.03 253.34,-26.15 256.08,-19.71"/>
</g>
<!-- Node9 -->
<g id="node9" class="node">
<title>Node9</title>
<g id="a_node9"><a xlink:title=" ">
<polygon fill="#e0e0e0" stroke="#999999" points="284.5,-74 171.5,-74 171.5,-55 284.5,-55 284.5,-74"/>
<text text-anchor="middle" x="228" y="-62" font-family="Helvetica,sans-Serif" font-size="10.00">CCPlatformDefine.h</text>
</a>
</g>
</g>
<!-- Node6&#45;&gt;Node9 -->
<g id="edge9" class="edge">
<title>Node6&#45;&gt;Node9</title>
<path fill="none" stroke="#63b8ff" d="M228.83,-109.75C228.7,-102.8 228.52,-92.85 228.35,-84.13"/>
<polygon fill="#63b8ff" stroke="#63b8ff" points="231.85,-84.02 228.16,-74.09 224.85,-84.15 231.85,-84.02"/>
</g>
<!-- Node7&#45;&gt;Node8 -->
<g id="edge7" class="edge">
<title>Node7&#45;&gt;Node8</title>
<path fill="none" stroke="#63b8ff" d="M135.42,-54.98C150.45,-46.69 173.54,-33.94 191.16,-24.22"/>
<polygon fill="#63b8ff" stroke="#63b8ff" points="193.23,-27.07 200.3,-19.17 189.85,-20.94 193.23,-27.07"/>
</g>
<!-- Node11&#45;&gt;Node7 -->
<g id="edge15" class="edge">
<title>Node11&#45;&gt;Node7</title>
<path fill="none" stroke="#63b8ff" d="M192.53,-219.85C174.04,-213.12 151.84,-201.85 139,-184 117.58,-154.23 116.63,-109.37 118.13,-84.25"/>
<polygon fill="#63b8ff" stroke="#63b8ff" points="121.63,-84.47 118.93,-74.22 114.65,-83.91 121.63,-84.47"/>
</g>
<!-- Node12 -->
<g id="node12" class="node">
<title>Node12</title>
<g id="a_node12"><a xlink:href="../../d5/d22/_c_c_common_8h.html" target="_top" xlink:title=" ">
<polygon fill="white" stroke="#666666" points="276,-184 148,-184 148,-165 276,-165 276,-184"/>
<text text-anchor="middle" x="212" y="-172" font-family="Helvetica,sans-Serif" font-size="10.00">platform/CCCommon.h</text>
</a>
</g>
</g>
<!-- Node11&#45;&gt;Node12 -->
<g id="edge12" class="edge">
<title>Node11&#45;&gt;Node12</title>
<path fill="none" stroke="#63b8ff" d="M222.02,-219.75C220.43,-212.72 218.14,-202.62 216.15,-193.84"/>
<polygon fill="#63b8ff" stroke="#63b8ff" points="219.57,-193.07 213.94,-184.09 212.74,-194.62 219.57,-193.07"/>
</g>
<!-- Node13 -->
<g id="node13" class="node">
<title>Node13</title>
<g id="a_node13"><a xlink:title=" ">
<polygon fill="#e0e0e0" stroke="#999999" points="356,-184 294,-184 294,-165 356,-165 356,-184"/>
<text text-anchor="middle" x="325" y="-172" font-family="Helvetica,sans-Serif" font-size="10.00">CCStdC.h</text>
</a>
</g>
</g>
<!-- Node11&#45;&gt;Node13 -->
<g id="edge14" class="edge">
<title>Node11&#45;&gt;Node13</title>
<path fill="none" stroke="#63b8ff" d="M240.23,-219.98C256.18,-211.61 280.78,-198.7 299.38,-188.95"/>
<polygon fill="#63b8ff" stroke="#63b8ff" points="301.25,-191.92 308.48,-184.17 298,-185.72 301.25,-191.92"/>
</g>
<!-- Node12&#45;&gt;Node6 -->
<g id="edge13" class="edge">
<title>Node12&#45;&gt;Node6</title>
<path fill="none" stroke="#63b8ff" d="M214.81,-164.75C217.06,-157.72 220.3,-147.62 223.12,-138.84"/>
<polygon fill="#63b8ff" stroke="#63b8ff" points="226.52,-139.68 226.25,-129.09 219.86,-137.54 226.52,-139.68"/>
</g>
<!-- Node15 -->
<g id="node15" class="node">
<title>Node15</title>
<g id="a_node15"><a xlink:title=" ">
<polygon fill="#e0e0e0" stroke="#999999" points="176,-305 56,-305 56,-275 176,-275 176,-305"/>
<text text-anchor="start" x="64" y="-293" font-family="Helvetica,sans-Serif" font-size="10.00">support/data_support</text>
<text text-anchor="middle" x="116" y="-282" font-family="Helvetica,sans-Serif" font-size="10.00">/ccCArray.h</text>
</a>
</g>
</g>
<!-- Node14&#45;&gt;Node15 -->
<g id="edge17" class="edge">
<title>Node14&#45;&gt;Node15</title>
<path fill="none" stroke="#63b8ff" d="M162.72,-346.37C155.58,-337.91 144.41,-324.67 134.78,-313.25"/>
<polygon fill="#63b8ff" stroke="#63b8ff" points="137.24,-310.75 128.12,-305.36 131.89,-315.26 137.24,-310.75"/>
</g>
<!-- Node16&#45;&gt;Node4 -->
<g id="edge23" class="edge">
<title>Node16&#45;&gt;Node4</title>
<path fill="none" stroke="#63b8ff" d="M334.68,-346.37C314.29,-335.59 279.19,-317.02 255.3,-304.38"/>
<polygon fill="#63b8ff" stroke="#63b8ff" points="256.92,-301.28 246.45,-299.7 253.65,-307.47 256.92,-301.28"/>
</g>
<!-- Node16&#45;&gt;Node10 -->
<g id="edge21" class="edge">
<title>Node16&#45;&gt;Node10</title>
<path fill="none" stroke="#63b8ff" d="M376.62,-346.49C395.53,-338.79 420.12,-325.46 433,-305 454.59,-270.7 452.3,-220.89 449,-194.14"/>
<polygon fill="#63b8ff" stroke="#63b8ff" points="452.47,-193.61 447.59,-184.2 445.53,-194.6 452.47,-193.61"/>
</g>
<!-- Node17 -->
<g id="node17" class="node">
<title>Node17</title>
<g id="a_node17"><a xlink:title=" ">
<polygon fill="#e0e0e0" stroke="#999999" points="533.5,-299.5 480.5,-299.5 480.5,-280.5 533.5,-280.5 533.5,-299.5"/>
<text text-anchor="middle" x="507" y="-287.5" font-family="Helvetica,sans-Serif" font-size="10.00">string.h</text>
</a>
</g>
</g>
<!-- Node16&#45;&gt;Node17 -->
<g id="edge19" class="edge">
<title>Node16&#45;&gt;Node17</title>
<path fill="none" stroke="#63b8ff" d="M372.04,-346.37C398.98,-335.32 445.86,-316.08 476.66,-303.45"/>
<polygon fill="#63b8ff" stroke="#63b8ff" points="478.12,-306.63 486.05,-299.6 475.47,-300.15 478.12,-306.63"/>
</g>
<!-- Node18 -->
<g id="node18" class="node">
<title>Node18</title>
<g id="a_node18"><a xlink:title=" ">
<polygon fill="#e0e0e0" stroke="#999999" points="340,-299.5 284,-299.5 284,-280.5 340,-280.5 340,-299.5"/>
<text text-anchor="middle" x="312" y="-287.5" font-family="Helvetica,sans-Serif" font-size="10.00">stdarg.h</text>
</a>
</g>
</g>
<!-- Node16&#45;&gt;Node18 -->
<g id="edge20" class="edge">
<title>Node16&#45;&gt;Node18</title>
<path fill="none" stroke="#63b8ff" d="M345.74,-346.37C339.9,-336.78 330.31,-321.05 322.85,-308.8"/>
<polygon fill="#63b8ff" stroke="#63b8ff" points="325.62,-306.62 317.43,-299.91 319.64,-310.27 325.62,-306.62"/>
</g>
<!-- Node19 -->
<g id="node19" class="node">
<title>Node19</title>
<g id="a_node19"><a xlink:title=" ">
<polygon fill="#e0e0e0" stroke="#999999" points="423.5,-299.5 358.5,-299.5 358.5,-280.5 423.5,-280.5 423.5,-299.5"/>
<text text-anchor="middle" x="391" y="-287.5" font-family="Helvetica,sans-Serif" font-size="10.00">functional</text>
</a>
</g>
</g>
<!-- Node16&#45;&gt;Node19 -->
<g id="edge22" class="edge">
<title>Node16&#45;&gt;Node19</title>
<path fill="none" stroke="#63b8ff" d="M356.39,-346.37C362.44,-336.69 372.41,-320.74 380.1,-308.44"/>
<polygon fill="#63b8ff" stroke="#63b8ff" points="383.1,-310.24 385.43,-299.91 377.17,-306.53 383.1,-310.24"/>
</g>
</g>
</svg>
