<?xml version="1.0" encoding="UTF-8" standalone="no"?>
<!DOCTYPE svg PUBLIC "-//W3C//DTD SVG 1.1//EN"
 "http://www.w3.org/Graphics/SVG/1.1/DTD/svg11.dtd">
<!-- Generated by graphviz version 2.43.0 (0)
 -->
<!-- Title: CCTextFieldTTF Pages: 1 -->
<svg width="1971pt" height="919pt"
 viewBox="0.00 0.00 1971.00 918.55" xmlns="http://www.w3.org/2000/svg" xmlns:xlink="http://www.w3.org/1999/xlink">
<g id="graph0" class="graph" transform="scale(1 1) rotate(0) translate(4 914.55)">
<title>CCTextFieldTTF</title>
<!-- Node1 -->
<g id="node1" class="node">
<title>Node1</title>
<g id="a_node1"><a xlink:title="A simple text input field with TTF font.">
<polygon fill="#999999" stroke="#666666" points="1963,-128.55 1871,-128.55 1871,-109.55 1963,-109.55 1963,-128.55"/>
<text text-anchor="middle" x="1917" y="-116.55" font-family="Helvetica,sans-Serif" font-size="10.00">CCTextFieldTTF</text>
</a>
</g>
</g>
<!-- Node2 -->
<g id="node2" class="node">
<title>Node2</title>
<g id="a_node2"><a xlink:href="../../df/d72/classcocos2d_1_1_c_c_label_t_t_f.html" target="_top" xlink:title="CCLabelTTF is a subclass of CCTextureNode that knows how to render text labels.">
<polygon fill="white" stroke="#666666" points="1744,-608.55 1670,-608.55 1670,-589.55 1744,-589.55 1744,-608.55"/>
<text text-anchor="middle" x="1707" y="-596.55" font-family="Helvetica,sans-Serif" font-size="10.00">CCLabelTTF</text>
</a>
</g>
</g>
<!-- Node2&#45;&gt;Node1 -->
<g id="edge1" class="edge">
<title>Node2&#45;&gt;Node1</title>
<path fill="none" stroke="#63b8ff" d="M1716.23,-580.05C1751.14,-499.49 1886.33,-187.52 1911.84,-128.66"/>
<polygon fill="#63b8ff" stroke="#63b8ff" points="1712.92,-578.89 1712.15,-589.46 1719.34,-581.67 1712.92,-578.89"/>
</g>
<!-- Node3 -->
<g id="node3" class="node">
<title>Node3</title>
<g id="a_node3"><a xlink:href="../../d4/de7/classcocos2d_1_1_c_c_sprite.html" target="_top" xlink:title="CCSprite is a 2d image ( http://en.wikipedia.org/wiki/Sprite_(computer_graphics) )">
<polygon fill="white" stroke="#666666" points="1587.5,-608.55 1528.5,-608.55 1528.5,-589.55 1587.5,-589.55 1587.5,-608.55"/>
<text text-anchor="middle" x="1558" y="-596.55" font-family="Helvetica,sans-Serif" font-size="10.00">CCSprite</text>
</a>
</g>
</g>
<!-- Node3&#45;&gt;Node2 -->
<g id="edge2" class="edge">
<title>Node3&#45;&gt;Node2</title>
<path fill="none" stroke="#63b8ff" d="M1597.83,-599.05C1620.14,-599.05 1647.97,-599.05 1669.82,-599.05"/>
<polygon fill="#63b8ff" stroke="#63b8ff" points="1597.69,-595.55 1587.69,-599.05 1597.69,-602.55 1597.69,-595.55"/>
</g>
<!-- Node4 -->
<g id="node4" class="node">
<title>Node4</title>
<g id="a_node4"><a xlink:href="../../de/d2e/classcocos2d_1_1_c_c_node_r_g_b_a.html" target="_top" xlink:title="CCNodeRGBA is a subclass of CCNode that implements the CCRGBAProtocol protocol.">
<polygon fill="white" stroke="#666666" points="1364.5,-249.55 1281.5,-249.55 1281.5,-230.55 1364.5,-230.55 1364.5,-249.55"/>
<text text-anchor="middle" x="1323" y="-237.55" font-family="Helvetica,sans-Serif" font-size="10.00">CCNodeRGBA</text>
</a>
</g>
</g>
<!-- Node4&#45;&gt;Node3 -->
<g id="edge3" class="edge">
<title>Node4&#45;&gt;Node3</title>
<path fill="none" stroke="#63b8ff" d="M1374.95,-233.5C1410.83,-231.89 1457.53,-236.29 1487,-264.05 1536.2,-310.39 1553.24,-538.93 1556.42,-589.24"/>
<polygon fill="#63b8ff" stroke="#63b8ff" points="1374.43,-230.03 1364.67,-234.14 1374.87,-237.01 1374.43,-230.03"/>
</g>
<!-- Node5 -->
<g id="node5" class="node">
<title>Node5</title>
<g id="a_node5"><a xlink:href="../../d0/ded/classcocos2d_1_1_c_c_node.html" target="_top" xlink:title="CCNode is the main element.">
<polygon fill="white" stroke="#666666" points="1083,-363.55 1027,-363.55 1027,-344.55 1083,-344.55 1083,-363.55"/>
<text text-anchor="middle" x="1055" y="-351.55" font-family="Helvetica,sans-Serif" font-size="10.00">CCNode</text>
</a>
</g>
</g>
<!-- Node5&#45;&gt;Node4 -->
<g id="edge4" class="edge">
<title>Node5&#45;&gt;Node4</title>
<path fill="none" stroke="#63b8ff" d="M1087.73,-340.45C1142.25,-317.08 1252.41,-269.87 1299.65,-249.62"/>
<polygon fill="#63b8ff" stroke="#63b8ff" points="1086.03,-337.37 1078.22,-344.52 1088.79,-343.8 1086.03,-337.37"/>
</g>
<!-- Node5&#45;&gt;Node5 -->
<g id="edge26" class="edge">
<title>Node5&#45;&gt;Node5</title>
<path fill="none" stroke="#9a32cd" stroke-dasharray="5,2" d="M1028.96,-372.74C1030.38,-377.74 1039.06,-381.55 1055,-381.55 1079.88,-381.55 1087.08,-372.28 1076.58,-363.63"/>
<polygon fill="#9a32cd" stroke="#9a32cd" points="1032.16,-374.15 1033.42,-363.63 1025.88,-371.07 1032.16,-374.15"/>
<text text-anchor="middle" x="1055" y="-384.55" font-family="Helvetica,sans-Serif" font-size="10.00"> m_pParent</text>
</g>
<!-- Node30 -->
<g id="node30" class="node">
<title>Node30</title>
<g id="a_node30"><a xlink:href="../../dd/d95/classcocos2d_1_1_c_c_sprite_batch_node.html" target="_top" xlink:title="CCSpriteBatchNode is like a batch node: if it contains children, it will draw them in 1 single OpenGL...">
<polygon fill="white" stroke="#666666" points="1379,-430.55 1267,-430.55 1267,-411.55 1379,-411.55 1379,-430.55"/>
<text text-anchor="middle" x="1323" y="-418.55" font-family="Helvetica,sans-Serif" font-size="10.00">CCSpriteBatchNode</text>
</a>
</g>
</g>
<!-- Node5&#45;&gt;Node30 -->
<g id="edge48" class="edge">
<title>Node5&#45;&gt;Node30</title>
<path fill="none" stroke="#63b8ff" d="M1093.31,-363.44C1143.77,-376.15 1233.26,-398.7 1284.05,-411.49"/>
<polygon fill="#63b8ff" stroke="#63b8ff" points="1094.02,-360.01 1083.46,-360.96 1092.31,-366.8 1094.02,-360.01"/>
</g>
<!-- Node6 -->
<g id="node6" class="node">
<title>Node6</title>
<g id="a_node6"><a xlink:href="../../d3/dbf/classcocos2d_1_1_c_c_object.html" target="_top" xlink:title="NA.">
<polygon fill="white" stroke="#666666" points="169,-307.55 107,-307.55 107,-288.55 169,-288.55 169,-307.55"/>
<text text-anchor="middle" x="138" y="-295.55" font-family="Helvetica,sans-Serif" font-size="10.00">CCObject</text>
</a>
</g>
</g>
<!-- Node6&#45;&gt;Node5 -->
<g id="edge5" class="edge">
<title>Node6&#45;&gt;Node5</title>
<path fill="none" stroke="#63b8ff" d="M179.27,-300.51C335.02,-310.04 895.81,-344.36 1026.59,-352.37"/>
<polygon fill="#63b8ff" stroke="#63b8ff" points="179.38,-297.01 169.18,-299.89 178.95,-304 179.38,-297.01"/>
</g>
<!-- Node6&#45;&gt;Node5 -->
<g id="edge27" class="edge">
<title>Node6&#45;&gt;Node5</title>
<path fill="none" stroke="#9a32cd" stroke-dasharray="5,2" d="M163.83,-283.53C185.15,-272.44 217.09,-259.05 247,-259.05 247,-259.05 247,-259.05 754,-259.05 848.82,-259.05 891.03,-224.99 966,-283.05 983.69,-296.74 967.91,-314.51 984,-330.05 995.55,-341.2 1012.52,-347.18 1026.85,-350.39"/>
<polygon fill="#9a32cd" stroke="#9a32cd" points="161.95,-280.57 154.82,-288.41 165.28,-286.72 161.95,-280.57"/>
<text text-anchor="middle" x="476" y="-262.05" font-family="Helvetica,sans-Serif" font-size="10.00"> m_pUserObject</text>
</g>
<!-- Node11 -->
<g id="node11" class="node">
<title>Node11</title>
<g id="a_node11"><a xlink:href="../../d2/d51/classcocos2d_1_1_c_c_camera.html" target="_top" xlink:title="A CCCamera is used in every CCNode.">
<polygon fill="white" stroke="#666666" points="392,-184.55 324,-184.55 324,-165.55 392,-165.55 392,-184.55"/>
<text text-anchor="middle" x="358" y="-172.55" font-family="Helvetica,sans-Serif" font-size="10.00">CCCamera</text>
</a>
</g>
</g>
<!-- Node6&#45;&gt;Node11 -->
<g id="edge11" class="edge">
<title>Node6&#45;&gt;Node11</title>
<path fill="none" stroke="#63b8ff" d="M142.71,-278.57C148.18,-255.62 160.73,-218.19 187,-199.05 227.11,-169.82 286.95,-168.46 323.9,-171.08"/>
<polygon fill="#63b8ff" stroke="#63b8ff" points="139.25,-278.02 140.57,-288.53 146.09,-279.49 139.25,-278.02"/>
</g>
<!-- Node12 -->
<g id="node12" class="node">
<title>Node12</title>
<g id="a_node12"><a xlink:href="../../d6/d70/classcocos2d_1_1_c_c_grid_base.html" target="_top" xlink:title="Base class for other.">
<polygon fill="white" stroke="#666666" points="790,-420.55 716,-420.55 716,-401.55 790,-401.55 790,-420.55"/>
<text text-anchor="middle" x="753" y="-408.55" font-family="Helvetica,sans-Serif" font-size="10.00">CCGridBase</text>
</a>
</g>
</g>
<!-- Node6&#45;&gt;Node12 -->
<g id="edge13" class="edge">
<title>Node6&#45;&gt;Node12</title>
<path fill="none" stroke="#63b8ff" d="M178.92,-310.05C181.64,-310.76 184.36,-311.43 187,-312.05 384.62,-358.03 625.57,-393.53 715.7,-406.1"/>
<polygon fill="#63b8ff" stroke="#63b8ff" points="179.65,-306.62 169.08,-307.37 177.81,-313.37 179.65,-306.62"/>
</g>
<!-- Node13 -->
<g id="node13" class="node">
<title>Node13</title>
<g id="a_node13"><a xlink:href="../../d7/dfd/classcocos2d_1_1_c_c_texture2_d.html" target="_top" xlink:title="CCTexture2D class.">
<polygon fill="white" stroke="#666666" points="516,-600.55 436,-600.55 436,-581.55 516,-581.55 516,-600.55"/>
<text text-anchor="middle" x="476" y="-588.55" font-family="Helvetica,sans-Serif" font-size="10.00">CCTexture2D</text>
</a>
</g>
</g>
<!-- Node6&#45;&gt;Node13 -->
<g id="edge16" class="edge">
<title>Node6&#45;&gt;Node13</title>
<path fill="none" stroke="#63b8ff" d="M140.46,-317.75C145.34,-377.9 163.29,-557.2 206,-593.05 276.65,-652.34 398.4,-618.96 450.35,-600.6"/>
<polygon fill="#63b8ff" stroke="#63b8ff" points="143.94,-317.38 139.67,-307.68 136.96,-317.92 143.94,-317.38"/>
</g>
<!-- Node14 -->
<g id="node14" class="node">
<title>Node14</title>
<g id="a_node14"><a xlink:href="../../db/d28/classcocos2d_1_1_c_c_g_l_program.html" target="_top" xlink:title="CCGLProgram Class that implements a glProgram.">
<polygon fill="white" stroke="#666666" points="290,-467.55 206,-467.55 206,-448.55 290,-448.55 290,-467.55"/>
<text text-anchor="middle" x="248" y="-455.55" font-family="Helvetica,sans-Serif" font-size="10.00">CCGLProgram</text>
</a>
</g>
</g>
<!-- Node6&#45;&gt;Node14 -->
<g id="edge19" class="edge">
<title>Node6&#45;&gt;Node14</title>
<path fill="none" stroke="#63b8ff" d="M141.39,-317.81C145.76,-345.97 157.47,-397.8 187,-430.05 194.45,-438.18 204.75,-444.16 214.72,-448.44"/>
<polygon fill="#63b8ff" stroke="#63b8ff" points="144.82,-317.05 139.98,-307.63 137.89,-318.02 144.82,-317.05"/>
</g>
<!-- Node15 -->
<g id="node15" class="node">
<title>Node15</title>
<g id="a_node15"><a xlink:href="../../d3/d89/classcocos2d_1_1_c_c_grabber.html" target="_top" xlink:title="FBO class that grabs the the contents of the screen NA NA.">
<polygon fill="white" stroke="#666666" points="392.5,-427.55 323.5,-427.55 323.5,-408.55 392.5,-408.55 392.5,-427.55"/>
<text text-anchor="middle" x="358" y="-415.55" font-family="Helvetica,sans-Serif" font-size="10.00">CCGrabber</text>
</a>
</g>
</g>
<!-- Node6&#45;&gt;Node15 -->
<g id="edge22" class="edge">
<title>Node6&#45;&gt;Node15</title>
<path fill="none" stroke="#63b8ff" d="M143.9,-317.5C150.22,-338.38 163.32,-370.86 187,-388.05 227.14,-417.18 286.43,-421.18 323.34,-420.37"/>
<polygon fill="#63b8ff" stroke="#63b8ff" points="147.24,-316.47 141.19,-307.78 140.5,-318.35 147.24,-316.47"/>
</g>
<!-- Node16 -->
<g id="node16" class="node">
<title>Node16</title>
<g id="a_node16"><a xlink:href="../../d9/d2e/classcocos2d_1_1_c_c_array.html" target="_top" xlink:title="NA.">
<polygon fill="white" stroke="#666666" points="504,-102.55 448,-102.55 448,-83.55 504,-83.55 504,-102.55"/>
<text text-anchor="middle" x="476" y="-90.55" font-family="Helvetica,sans-Serif" font-size="10.00">CCArray</text>
</a>
</g>
</g>
<!-- Node6&#45;&gt;Node16 -->
<g id="edge25" class="edge">
<title>Node6&#45;&gt;Node16</title>
<path fill="none" stroke="#63b8ff" d="M141.62,-278.19C147.53,-236.74 163.23,-143.21 187,-123.05 262.33,-59.15 391.7,-75.67 447.77,-86.8"/>
<polygon fill="#63b8ff" stroke="#63b8ff" points="138.15,-277.79 140.25,-288.18 145.08,-278.75 138.15,-277.79"/>
</g>
<!-- Node17 -->
<g id="node17" class="node">
<title>Node17</title>
<g id="a_node17"><a xlink:href="../../de/dee/classcocos2d_1_1_c_c_scheduler.html" target="_top" xlink:title="Scheduler is responsible for triggering the scheduled callbacks.">
<polygon fill="white" stroke="#666666" points="792,-230.55 714,-230.55 714,-211.55 792,-211.55 792,-230.55"/>
<text text-anchor="middle" x="753" y="-218.55" font-family="Helvetica,sans-Serif" font-size="10.00">CCScheduler</text>
</a>
</g>
</g>
<!-- Node6&#45;&gt;Node17 -->
<g id="edge30" class="edge">
<title>Node6&#45;&gt;Node17</title>
<path fill="none" stroke="#63b8ff" d="M149.9,-279.87C158.34,-267.64 171.24,-252.44 187,-245.05 280.55,-201.16 602.26,-213.22 713.67,-218.89"/>
<polygon fill="#63b8ff" stroke="#63b8ff" points="146.83,-278.17 144.34,-288.47 152.71,-281.98 146.83,-278.17"/>
</g>
<!-- Node18 -->
<g id="node18" class="node">
<title>Node18</title>
<g id="a_node18"><a xlink:href="../../d5/dcb/classcocos2d_1_1_c_c_action_manager.html" target="_top" xlink:title="CCActionManager is a singleton that manages all the actions.">
<polygon fill="white" stroke="#666666" points="658,-159.55 554,-159.55 554,-140.55 658,-140.55 658,-159.55"/>
<text text-anchor="middle" x="606" y="-147.55" font-family="Helvetica,sans-Serif" font-size="10.00">CCActionManager</text>
</a>
</g>
</g>
<!-- Node6&#45;&gt;Node18 -->
<g id="edge33" class="edge">
<title>Node6&#45;&gt;Node18</title>
<path fill="none" stroke="#63b8ff" d="M142.25,-278.54C148.5,-248.12 165.35,-190.38 206,-166.05 263.18,-131.82 459.5,-139.98 553.73,-146.16"/>
<polygon fill="#63b8ff" stroke="#63b8ff" points="138.81,-277.92 140.41,-288.39 145.69,-279.21 138.81,-277.92"/>
</g>
<!-- Node24 -->
<g id="node24" class="node">
<title>Node24</title>
<g id="a_node24"><a xlink:href="../../df/d3a/classcocos2d_1_1_c_c_texture_atlas.html" target="_top" xlink:title="A class that implements a Texture Atlas.">
<polygon fill="white" stroke="#666666" points="1100.5,-631.55 1009.5,-631.55 1009.5,-612.55 1100.5,-612.55 1100.5,-631.55"/>
<text text-anchor="middle" x="1055" y="-619.55" font-family="Helvetica,sans-Serif" font-size="10.00">CCTextureAtlas</text>
</a>
</g>
</g>
<!-- Node6&#45;&gt;Node24 -->
<g id="edge40" class="edge">
<title>Node6&#45;&gt;Node24</title>
<path fill="none" stroke="#63b8ff" d="M140.28,-318.2C144.79,-382.33 162.05,-579.94 206,-623.05 281.42,-697.02 322.8,-690.47 426,-713.05 597.07,-750.46 680.65,-820.09 820,-714.05 841.82,-697.44 817.27,-672.98 838,-655.05 885.34,-614.1 961.39,-612.22 1009.47,-616.07"/>
<polygon fill="#63b8ff" stroke="#63b8ff" points="143.75,-317.59 139.59,-307.85 136.77,-318.06 143.75,-317.59"/>
</g>
<!-- Node7 -->
<g id="node7" class="node">
<title>Node7</title>
<g id="a_node7"><a xlink:href="../../d5/d61/classcocos2d_1_1_c_c_copying.html" target="_top" xlink:title="NA NA.">
<polygon fill="white" stroke="#666666" points="70,-307.55 0,-307.55 0,-288.55 70,-288.55 70,-307.55"/>
<text text-anchor="middle" x="35" y="-295.55" font-family="Helvetica,sans-Serif" font-size="10.00">CCCopying</text>
</a>
</g>
</g>
<!-- Node7&#45;&gt;Node6 -->
<g id="edge6" class="edge">
<title>Node7&#45;&gt;Node6</title>
<path fill="none" stroke="#63b8ff" d="M80.2,-298.05C89.22,-298.05 98.51,-298.05 106.9,-298.05"/>
<polygon fill="#63b8ff" stroke="#63b8ff" points="80.19,-294.55 70.19,-298.05 80.19,-301.55 80.19,-294.55"/>
</g>
<!-- Node8 -->
<g id="node8" class="node">
<title>Node8</title>
<g id="a_node8"><a xlink:href="../../d2/df3/classcocos2d_1_1_c_c_point.html" target="_top" xlink:title="NA.">
<polygon fill="white" stroke="#666666" points="503.5,-656.55 448.5,-656.55 448.5,-637.55 503.5,-637.55 503.5,-656.55"/>
<text text-anchor="middle" x="476" y="-644.55" font-family="Helvetica,sans-Serif" font-size="10.00">CCPoint</text>
</a>
</g>
</g>
<!-- Node8&#45;&gt;Node3 -->
<g id="edge59" class="edge">
<title>Node8&#45;&gt;Node3</title>
<path fill="none" stroke="#9a32cd" stroke-dasharray="5,2" d="M513.31,-655.89C517.91,-658.05 522.3,-660.73 526,-664.05 539.91,-676.52 528.64,-691.4 544,-702.05 596.04,-738.14 622.81,-709.79 686,-714.05 993.37,-734.76 1072.67,-761.73 1379,-729.05 1427.46,-723.88 1446.53,-737.21 1487,-710.05 1525.02,-684.52 1546.49,-630.65 1553.96,-608.68"/>
<polygon fill="#9a32cd" stroke="#9a32cd" points="514.31,-652.52 503.72,-652.14 511.76,-659.04 514.31,-652.52"/>
<text text-anchor="middle" x="1055" y="-769.05" font-family="Helvetica,sans-Serif" font-size="10.00"> m_obOffsetPosition</text>
<text text-anchor="start" x="984" y="-758.05" font-family="Helvetica,sans-Serif" font-size="10.00">m_obUnflippedOffsetPosition</text>
<text text-anchor="middle" x="1055" y="-747.05" font-family="Helvetica,sans-Serif" font-size="10.00">FromCenter</text>
</g>
<!-- Node8&#45;&gt;Node5 -->
<g id="edge7" class="edge">
<title>Node8&#45;&gt;Node5</title>
<path fill="none" stroke="#9a32cd" stroke-dasharray="5,2" d="M513.85,-653.07C556.98,-657.83 627.65,-658.1 668,-618.05 704.09,-582.22 649.88,-540.84 686,-505.05 775.38,-416.47 856.81,-525.6 966,-463.05 987.63,-450.65 1031.05,-388.21 1047.49,-363.82"/>
<polygon fill="#9a32cd" stroke="#9a32cd" points="514.13,-649.57 503.77,-651.82 513.26,-656.52 514.13,-649.57"/>
<text text-anchor="middle" x="753" y="-530.05" font-family="Helvetica,sans-Serif" font-size="10.00"> m_obAnchorPoint</text>
<text text-anchor="middle" x="753" y="-519.05" font-family="Helvetica,sans-Serif" font-size="10.00">m_obAnchorPointInPoints</text>
<text text-anchor="middle" x="753" y="-508.05" font-family="Helvetica,sans-Serif" font-size="10.00">m_obPosition</text>
</g>
<!-- Node8&#45;&gt;Node12 -->
<g id="edge20" class="edge">
<title>Node8&#45;&gt;Node12</title>
<path fill="none" stroke="#9a32cd" stroke-dasharray="5,2" d="M499.74,-631.99C512.44,-623.97 528.74,-614.29 544,-607.05 596.96,-581.91 629.73,-606.46 668,-562.05 694.34,-531.47 666.37,-508.3 686,-473.05 698.54,-450.52 722.1,-431.41 737.41,-420.59"/>
<polygon fill="#9a32cd" stroke="#9a32cd" points="497.72,-629.13 491.2,-637.48 501.5,-635.02 497.72,-629.13"/>
<text text-anchor="middle" x="606" y="-610.05" font-family="Helvetica,sans-Serif" font-size="10.00"> m_obStep</text>
</g>
<!-- Node32 -->
<g id="node32" class="node">
<title>Node32</title>
<g id="a_node32"><a xlink:href="../../da/d4d/classcocos2d_1_1_c_c_rect.html" target="_top" xlink:title="NA.">
<polygon fill="white" stroke="#666666" points="779,-704.55 727,-704.55 727,-685.55 779,-685.55 779,-704.55"/>
<text text-anchor="middle" x="753" y="-692.55" font-family="Helvetica,sans-Serif" font-size="10.00">CCRect</text>
</a>
</g>
</g>
<!-- Node8&#45;&gt;Node32 -->
<g id="edge57" class="edge">
<title>Node8&#45;&gt;Node32</title>
<path fill="none" stroke="#9a32cd" stroke-dasharray="5,2" d="M513.29,-659.69C523.16,-662.78 533.91,-665.83 544,-668.05 609.08,-682.35 687.41,-690 726.78,-693.2"/>
<polygon fill="#9a32cd" stroke="#9a32cd" points="514.36,-656.36 503.77,-656.61 512.21,-663.02 514.36,-656.36"/>
<text text-anchor="middle" x="606" y="-690.05" font-family="Helvetica,sans-Serif" font-size="10.00"> origin</text>
</g>
<!-- Node9 -->
<g id="node9" class="node">
<title>Node9</title>
<g id="a_node9"><a xlink:href="../../d9/d24/classcocos2d_1_1_c_c_size.html" target="_top" xlink:title="NA.">
<polygon fill="white" stroke="#666666" points="273,-583.55 223,-583.55 223,-564.55 273,-564.55 273,-583.55"/>
<text text-anchor="middle" x="248" y="-571.55" font-family="Helvetica,sans-Serif" font-size="10.00">CCSize</text>
</a>
</g>
</g>
<!-- Node9&#45;&gt;Node2 -->
<g id="edge62" class="edge">
<title>Node9&#45;&gt;Node2</title>
<path fill="none" stroke="#9a32cd" stroke-dasharray="5,2" d="M261.15,-592.12C272.31,-608.04 289.83,-631.37 308,-649.05 394.52,-733.22 449.44,-717.72 526,-811.05 537.85,-825.49 528.55,-838.53 544,-849.05 620.58,-901.19 659.35,-863.05 752,-863.05 752,-863.05 752,-863.05 1559,-863.05 1677.82,-863.05 1701.46,-656.38 1705.33,-608.75"/>
<polygon fill="#9a32cd" stroke="#9a32cd" points="263.91,-589.96 255.36,-583.71 258.14,-593.93 263.91,-589.96"/>
<text text-anchor="middle" x="1055" y="-877.05" font-family="Helvetica,sans-Serif" font-size="10.00"> m_shadowOffset</text>
<text text-anchor="middle" x="1055" y="-866.05" font-family="Helvetica,sans-Serif" font-size="10.00">m_tDimensions</text>
</g>
<!-- Node9&#45;&gt;Node5 -->
<g id="edge8" class="edge">
<title>Node9&#45;&gt;Node5</title>
<path fill="none" stroke="#9a32cd" stroke-dasharray="5,2" d="M283.3,-572.19C378.11,-566.75 638.74,-549.7 668,-525.05 689.62,-506.83 664.71,-482.64 686,-464.05 733.41,-422.63 908.06,-445.65 966,-421.05 998.52,-407.24 1029.75,-378.67 1044.75,-363.69"/>
<polygon fill="#9a32cd" stroke="#9a32cd" points="282.88,-568.7 273.09,-572.76 283.28,-575.69 282.88,-568.7"/>
<text text-anchor="middle" x="606" y="-553.05" font-family="Helvetica,sans-Serif" font-size="10.00"> m_obContentSize</text>
</g>
<!-- Node9&#45;&gt;Node12 -->
<g id="edge14" class="edge">
<title>Node9&#45;&gt;Node12</title>
<path fill="none" stroke="#9a32cd" stroke-dasharray="5,2" d="M270.86,-559.05C281.65,-552.17 295.11,-544.39 308,-539.05 460.56,-475.83 517.15,-514.25 668,-447.05 676.78,-443.13 677.42,-439.39 686,-435.05 697.1,-429.43 709.83,-424.48 721.13,-420.56"/>
<polygon fill="#9a32cd" stroke="#9a32cd" points="268.93,-556.12 262.48,-564.53 272.76,-561.98 268.93,-556.12"/>
<text text-anchor="middle" x="476" y="-506.05" font-family="Helvetica,sans-Serif" font-size="10.00"> m_sGridSize</text>
</g>
<!-- Node9&#45;&gt;Node13 -->
<g id="edge17" class="edge">
<title>Node9&#45;&gt;Node13</title>
<path fill="none" stroke="#9a32cd" stroke-dasharray="5,2" d="M283.24,-576.62C324.26,-579.71 392.84,-584.87 435.91,-588.11"/>
<polygon fill="#9a32cd" stroke="#9a32cd" points="283.42,-573.13 273.19,-575.87 282.9,-580.11 283.42,-573.13"/>
<text text-anchor="middle" x="358" y="-588.05" font-family="Helvetica,sans-Serif" font-size="10.00"> m_tContentSize</text>
</g>
<!-- Node9&#45;&gt;Node32 -->
<g id="edge58" class="edge">
<title>Node9&#45;&gt;Node32</title>
<path fill="none" stroke="#9a32cd" stroke-dasharray="5,2" d="M272.23,-589.21C320.42,-619.49 435.81,-685.91 544,-702.05 609.4,-711.8 687.59,-704.03 726.86,-698.81"/>
<polygon fill="#9a32cd" stroke="#9a32cd" points="273.83,-586.08 263.51,-583.66 270.07,-591.99 273.83,-586.08"/>
<text text-anchor="middle" x="476" y="-701.05" font-family="Helvetica,sans-Serif" font-size="10.00"> size</text>
</g>
<!-- Node10 -->
<g id="node10" class="node">
<title>Node10</title>
<g id="a_node10"><a xlink:href="../../da/dbf/structcocos2d_1_1_c_c_affine_transform.html" target="_top" xlink:title=" ">
<polygon fill="white" stroke="#666666" points="806.5,-565.55 699.5,-565.55 699.5,-546.55 806.5,-546.55 806.5,-565.55"/>
<text text-anchor="middle" x="753" y="-553.55" font-family="Helvetica,sans-Serif" font-size="10.00">CCAffineTransform</text>
</a>
</g>
</g>
<!-- Node10&#45;&gt;Node3 -->
<g id="edge53" class="edge">
<title>Node10&#45;&gt;Node3</title>
<path fill="none" stroke="#9a32cd" stroke-dasharray="5,2" d="M817.12,-560.69C824.17,-561.17 831.23,-561.63 838,-562.05 1106.23,-578.53 1431.05,-593.42 1528.22,-597.77"/>
<polygon fill="#9a32cd" stroke="#9a32cd" points="817.08,-557.18 806.86,-559.98 816.6,-564.16 817.08,-557.18"/>
<text text-anchor="middle" x="1196.5" y="-587.05" font-family="Helvetica,sans-Serif" font-size="10.00"> m_transformToBatch</text>
</g>
<!-- Node10&#45;&gt;Node5 -->
<g id="edge9" class="edge">
<title>Node10&#45;&gt;Node5</title>
<path fill="none" stroke="#9a32cd" stroke-dasharray="5,2" d="M790.31,-543.21C804.99,-538.32 822.18,-532.99 838,-529.05 894.08,-515.06 922.6,-544.22 966,-506.05 985.95,-488.5 971.96,-472.73 984,-449.05 1001.37,-414.9 1030.71,-379.95 1045.27,-363.59"/>
<polygon fill="#9a32cd" stroke="#9a32cd" points="788.95,-539.97 780.6,-546.49 791.19,-546.6 788.95,-539.97"/>
<text text-anchor="middle" x="902" y="-554.05" font-family="Helvetica,sans-Serif" font-size="10.00"> m_sAdditionalTransform</text>
<text text-anchor="middle" x="902" y="-543.05" font-family="Helvetica,sans-Serif" font-size="10.00">m_sInverse</text>
<text text-anchor="middle" x="902" y="-532.05" font-family="Helvetica,sans-Serif" font-size="10.00">m_sTransform</text>
</g>
<!-- Node11&#45;&gt;Node5 -->
<g id="edge10" class="edge">
<title>Node11&#45;&gt;Node5</title>
<path fill="none" stroke="#9a32cd" stroke-dasharray="5,2" d="M402.49,-173.54C534.57,-169.39 924.55,-160.46 966,-198.05 1009.86,-237.82 946.4,-284.31 984,-330.05 994.44,-342.75 1011.94,-348.75 1026.83,-351.57"/>
<polygon fill="#9a32cd" stroke="#9a32cd" points="402.22,-170.04 392.34,-173.86 402.45,-177.04 402.22,-170.04"/>
<text text-anchor="middle" x="606" y="-173.05" font-family="Helvetica,sans-Serif" font-size="10.00"> m_pCamera</text>
</g>
<!-- Node12&#45;&gt;Node5 -->
<g id="edge12" class="edge">
<title>Node12&#45;&gt;Node5</title>
<path fill="none" stroke="#9a32cd" stroke-dasharray="5,2" d="M800.33,-409.08C843.67,-406.48 909.94,-400.51 966,-387.05 989.48,-381.41 1015.22,-371.26 1032.77,-363.7"/>
<polygon fill="#9a32cd" stroke="#9a32cd" points="799.89,-405.6 790.1,-409.66 800.28,-412.59 799.89,-405.6"/>
<text text-anchor="middle" x="902" y="-409.05" font-family="Helvetica,sans-Serif" font-size="10.00"> m_pGrid</text>
</g>
<!-- Node13&#45;&gt;Node3 -->
<g id="edge55" class="edge">
<title>Node13&#45;&gt;Node3</title>
<path fill="none" stroke="#9a32cd" stroke-dasharray="5,2" d="M503.46,-605.29C515.53,-611.25 530.18,-617.78 544,-622.05 670.58,-661.1 705.98,-660.12 838,-671.05 1126.42,-694.92 1202.44,-670.77 1487,-618.05 1500.74,-615.5 1515.73,-611.59 1528.3,-607.98"/>
<polygon fill="#9a32cd" stroke="#9a32cd" points="504.9,-602.09 494.4,-600.68 501.72,-608.33 504.9,-602.09"/>
<text text-anchor="middle" x="1055" y="-683.05" font-family="Helvetica,sans-Serif" font-size="10.00"> m_pobTexture</text>
</g>
<!-- Node13&#45;&gt;Node12 -->
<g id="edge15" class="edge">
<title>Node13&#45;&gt;Node12</title>
<path fill="none" stroke="#9a32cd" stroke-dasharray="5,2" d="M490.21,-573.3C505.71,-552.97 530.93,-521.51 544,-514.05 592.67,-486.24 618.4,-517.15 668,-491.05 678.01,-485.78 677.88,-480.92 686,-473.05 705.42,-454.23 728.54,-432.71 741.62,-420.61"/>
<polygon fill="#9a32cd" stroke="#9a32cd" points="487.27,-571.38 484.04,-581.47 492.86,-575.6 487.27,-571.38"/>
<text text-anchor="middle" x="606" y="-517.05" font-family="Helvetica,sans-Serif" font-size="10.00"> m_pTexture</text>
</g>
<!-- Node13&#45;&gt;Node24 -->
<g id="edge41" class="edge">
<title>Node13&#45;&gt;Node24</title>
<path fill="none" stroke="#9a32cd" stroke-dasharray="5,2" d="M526.7,-587.75C532.53,-587.46 538.39,-587.21 544,-587.05 599.09,-585.4 612.95,-584.56 668,-587.05 791.85,-592.65 937.38,-608.32 1009.22,-616.66"/>
<polygon fill="#9a32cd" stroke="#9a32cd" points="526.11,-584.27 516.31,-588.31 526.48,-591.26 526.11,-584.27"/>
<text text-anchor="middle" x="753" y="-599.05" font-family="Helvetica,sans-Serif" font-size="10.00"> m_pTexture</text>
</g>
<!-- Node14&#45;&gt;Node5 -->
<g id="edge28" class="edge">
<title>Node14&#45;&gt;Node5</title>
<path fill="none" stroke="#9a32cd" stroke-dasharray="5,2" d="M262.46,-440.2C273.32,-427.08 289.75,-409.89 308,-400.05 402.44,-349.09 437.3,-360.44 544,-349.05 598.8,-343.19 612.89,-348.69 668,-349.05 802.71,-349.92 963.84,-352.5 1026.86,-353.57"/>
<polygon fill="#9a32cd" stroke="#9a32cd" points="259.65,-438.11 256.17,-448.11 265.13,-442.46 259.65,-438.11"/>
<text text-anchor="middle" x="606" y="-352.05" font-family="Helvetica,sans-Serif" font-size="10.00"> m_pShaderProgram</text>
</g>
<!-- Node14&#45;&gt;Node12 -->
<g id="edge23" class="edge">
<title>Node14&#45;&gt;Node12</title>
<path fill="none" stroke="#9a32cd" stroke-dasharray="5,2" d="M300.39,-456.14C379.59,-452.77 536.16,-444.42 668,-427.05 683.75,-424.97 701.01,-421.83 715.76,-418.89"/>
<polygon fill="#9a32cd" stroke="#9a32cd" points="300.04,-452.65 290.2,-456.56 300.33,-459.64 300.04,-452.65"/>
<text text-anchor="middle" x="476" y="-452.05" font-family="Helvetica,sans-Serif" font-size="10.00"> m_pShaderProgram</text>
</g>
<!-- Node14&#45;&gt;Node13 -->
<g id="edge18" class="edge">
<title>Node14&#45;&gt;Node13</title>
<path fill="none" stroke="#9a32cd" stroke-dasharray="5,2" d="M274.11,-472.82C320.74,-500.27 419.51,-558.39 458.59,-581.39"/>
<polygon fill="#9a32cd" stroke="#9a32cd" points="275.65,-469.67 265.25,-467.61 272.1,-475.7 275.65,-469.67"/>
<text text-anchor="middle" x="358" y="-550.05" font-family="Helvetica,sans-Serif" font-size="10.00"> m_pShaderProgram</text>
</g>
<!-- Node15&#45;&gt;Node12 -->
<g id="edge21" class="edge">
<title>Node15&#45;&gt;Node12</title>
<path fill="none" stroke="#9a32cd" stroke-dasharray="5,2" d="M402.98,-417.26C481.28,-415.87 643.39,-412.98 715.75,-411.69"/>
<polygon fill="#9a32cd" stroke="#9a32cd" points="402.44,-413.77 392.51,-417.45 402.57,-420.77 402.44,-413.77"/>
<text text-anchor="middle" x="476" y="-419.05" font-family="Helvetica,sans-Serif" font-size="10.00"> m_pGrabber</text>
</g>
<!-- Node16&#45;&gt;Node5 -->
<g id="edge24" class="edge">
<title>Node16&#45;&gt;Node5</title>
<path fill="none" stroke="#9a32cd" stroke-dasharray="5,2" d="M514.26,-90.37C617.44,-83.82 903.34,-71.87 966,-135.05 996.64,-165.94 957.1,-295.84 984,-330.05 994.24,-343.07 1011.94,-349.07 1026.97,-351.81"/>
<polygon fill="#9a32cd" stroke="#9a32cd" points="513.77,-86.89 504.02,-91.04 514.22,-93.88 513.77,-86.89"/>
<text text-anchor="middle" x="753" y="-94.05" font-family="Helvetica,sans-Serif" font-size="10.00"> m_pChildren</text>
</g>
<!-- Node16&#45;&gt;Node17 -->
<g id="edge31" class="edge">
<title>Node16&#45;&gt;Node17</title>
<path fill="none" stroke="#9a32cd" stroke-dasharray="5,2" d="M514.22,-98C568.03,-105.3 661.84,-118.54 668,-123.05 682.44,-133.61 675.31,-144.7 686,-159.05 701.68,-180.1 724.99,-200.07 739.3,-211.41"/>
<polygon fill="#9a32cd" stroke="#9a32cd" points="514.4,-94.5 504.03,-96.63 513.47,-101.43 514.4,-94.5"/>
<text text-anchor="middle" x="606" y="-126.05" font-family="Helvetica,sans-Serif" font-size="10.00"> m_pScriptHandlerEntries</text>
</g>
<!-- Node16&#45;&gt;Node30 -->
<g id="edge52" class="edge">
<title>Node16&#45;&gt;Node30</title>
<path fill="none" stroke="#9a32cd" stroke-dasharray="5,2" d="M514.05,-85.59C616.57,-65.88 900.77,-17.96 966,-78.05 1001.91,-111.13 952.83,-259.46 984,-297.05 1025.78,-347.42 1063.1,-317.95 1126,-336.05 1180.86,-351.83 1197.28,-348.89 1249,-373.05 1271.81,-383.7 1295.74,-400.72 1309.74,-411.37"/>
<polygon fill="#9a32cd" stroke="#9a32cd" points="513.29,-82.17 504.14,-87.51 514.63,-89.04 513.29,-82.17"/>
<text text-anchor="middle" x="902" y="-81.05" font-family="Helvetica,sans-Serif" font-size="10.00"> m_pobDescendants</text>
</g>
<!-- Node17&#45;&gt;Node5 -->
<g id="edge29" class="edge">
<title>Node17&#45;&gt;Node5</title>
<path fill="none" stroke="#9a32cd" stroke-dasharray="5,2" d="M798.92,-209.36C846.44,-199.94 920.68,-194.03 966,-234.05 998.54,-262.78 955.61,-297.21 984,-330.05 994.67,-342.39 1011.98,-348.39 1026.72,-351.31"/>
<polygon fill="#9a32cd" stroke="#9a32cd" points="797.98,-205.98 788.92,-211.48 799.43,-212.83 797.98,-205.98"/>
<text text-anchor="middle" x="902" y="-237.05" font-family="Helvetica,sans-Serif" font-size="10.00"> m_pScheduler</text>
</g>
<!-- Node18&#45;&gt;Node5 -->
<g id="edge32" class="edge">
<title>Node18&#45;&gt;Node5</title>
<path fill="none" stroke="#9a32cd" stroke-dasharray="5,2" d="M668.34,-144.09C759.64,-136.7 924.96,-129.46 966,-169.05 991.91,-194.04 961.48,-301.96 984,-330.05 994.29,-342.87 1011.79,-348.87 1026.72,-351.67"/>
<polygon fill="#9a32cd" stroke="#9a32cd" points="667.8,-140.63 658.12,-144.95 668.38,-147.6 667.8,-140.63"/>
<text text-anchor="middle" x="753" y="-145.05" font-family="Helvetica,sans-Serif" font-size="10.00"> m_pActionManager</text>
</g>
<!-- Node19 -->
<g id="node19" class="node">
<title>Node19</title>
<g id="a_node19"><a xlink:href="../../d1/d65/classcocos2d_1_1_c_c_component_container.html" target="_top" xlink:title="NA NA.">
<polygon fill="white" stroke="#666666" points="820,-306.55 686,-306.55 686,-287.55 820,-287.55 820,-306.55"/>
<text text-anchor="middle" x="753" y="-294.55" font-family="Helvetica,sans-Serif" font-size="10.00">CCComponentContainer</text>
</a>
</g>
</g>
<!-- Node19&#45;&gt;Node5 -->
<g id="edge34" class="edge">
<title>Node19&#45;&gt;Node5</title>
<path fill="none" stroke="#9a32cd" stroke-dasharray="5,2" d="M830.47,-288.06C872.44,-286.41 924.27,-289.91 966,-310.05 976.77,-315.24 974.02,-323.45 984,-330.05 996.97,-338.62 1013.31,-344.45 1026.95,-348.21"/>
<polygon fill="#9a32cd" stroke="#9a32cd" points="830.12,-284.58 820.3,-288.57 830.47,-291.57 830.12,-284.58"/>
<text text-anchor="middle" x="902" y="-313.05" font-family="Helvetica,sans-Serif" font-size="10.00"> m_pComponentContainer</text>
</g>
<!-- Node20 -->
<g id="node20" class="node">
<title>Node20</title>
<g id="a_node20"><a xlink:href="../../d8/dda/classcocos2d_1_1_c_c_r_g_b_a_protocol.html" target="_top" xlink:title="RGBA protocol that affects CCNode&#39;s color and opacity NA.">
<polygon fill="white" stroke="#666666" points="1104,-250.55 1006,-250.55 1006,-231.55 1104,-231.55 1104,-250.55"/>
<text text-anchor="middle" x="1055" y="-238.55" font-family="Helvetica,sans-Serif" font-size="10.00">CCRGBAProtocol</text>
</a>
</g>
</g>
<!-- Node20&#45;&gt;Node4 -->
<g id="edge35" class="edge">
<title>Node20&#45;&gt;Node4</title>
<path fill="none" stroke="#63b8ff" d="M1114.29,-240.83C1164.79,-240.64 1236.57,-240.37 1281.16,-240.2"/>
<polygon fill="#63b8ff" stroke="#63b8ff" points="1114.16,-237.33 1104.17,-240.86 1114.18,-244.33 1114.16,-237.33"/>
</g>
<!-- Node21 -->
<g id="node21" class="node">
<title>Node21</title>
<g id="a_node21"><a xlink:href="../../d7/d39/structcc_color3_b.html" target="_top" xlink:title="RGB color composed of bytes 3 bytes.">
<polygon fill="white" stroke="#666666" points="1087.5,-186.55 1022.5,-186.55 1022.5,-167.55 1087.5,-167.55 1087.5,-186.55"/>
<text text-anchor="middle" x="1055" y="-174.55" font-family="Helvetica,sans-Serif" font-size="10.00">ccColor3B</text>
</a>
</g>
</g>
<!-- Node21&#45;&gt;Node1 -->
<g id="edge66" class="edge">
<title>Node21&#45;&gt;Node1</title>
<path fill="none" stroke="#9a32cd" stroke-dasharray="5,2" d="M1093.89,-164.5C1109.28,-159.88 1127.33,-155.04 1144,-152.05 1222.11,-138.02 1242.64,-138.05 1322,-138.05 1322,-138.05 1322,-138.05 1708,-138.05 1764.21,-138.05 1828.6,-131.08 1870.66,-125.58"/>
<polygon fill="#9a32cd" stroke="#9a32cd" points="1092.72,-161.2 1084.2,-167.49 1094.79,-167.89 1092.72,-161.2"/>
<text text-anchor="middle" x="1558" y="-141.05" font-family="Helvetica,sans-Serif" font-size="10.00"> m_ColorSpaceHolder</text>
</g>
<!-- Node21&#45;&gt;Node2 -->
<g id="edge63" class="edge">
<title>Node21&#45;&gt;Node2</title>
<path fill="none" stroke="#9a32cd" stroke-dasharray="5,2" d="M1097.43,-167.86C1179.15,-152.16 1363.86,-128.91 1487,-207.05 1637.08,-302.27 1693.54,-538.82 1704.1,-589.42"/>
<polygon fill="#9a32cd" stroke="#9a32cd" points="1096.65,-164.45 1087.52,-169.82 1098.01,-171.31 1096.65,-164.45"/>
<text text-anchor="middle" x="1442" y="-221.05" font-family="Helvetica,sans-Serif" font-size="10.00"> m_strokeColor</text>
<text text-anchor="middle" x="1442" y="-210.05" font-family="Helvetica,sans-Serif" font-size="10.00">m_textFillColor</text>
</g>
<!-- Node21&#45;&gt;Node4 -->
<g id="edge36" class="edge">
<title>Node21&#45;&gt;Node4</title>
<path fill="none" stroke="#9a32cd" stroke-dasharray="5,2" d="M1097.79,-183.17C1137.17,-189.38 1197.63,-200.06 1249,-214.05 1265.62,-218.57 1283.87,-225.07 1297.96,-230.44"/>
<polygon fill="#9a32cd" stroke="#9a32cd" points="1098.18,-179.68 1087.76,-181.61 1097.11,-186.6 1098.18,-179.68"/>
<text text-anchor="middle" x="1196.5" y="-228.05" font-family="Helvetica,sans-Serif" font-size="10.00"> _displayedColor</text>
<text text-anchor="middle" x="1196.5" y="-217.05" font-family="Helvetica,sans-Serif" font-size="10.00">_realColor</text>
</g>
<!-- Node22 -->
<g id="node22" class="node">
<title>Node22</title>
<g id="a_node22"><a xlink:href="../../db/d1b/classcocos2d_1_1_c_c_texture_protocol.html" target="_top" xlink:title="CCNode objects that uses a CCTexture2D to render the images.">
<polygon fill="white" stroke="#666666" points="1108,-287.55 1002,-287.55 1002,-268.55 1108,-268.55 1108,-287.55"/>
<text text-anchor="middle" x="1055" y="-275.55" font-family="Helvetica,sans-Serif" font-size="10.00">CCTextureProtocol</text>
</a>
</g>
</g>
<!-- Node22&#45;&gt;Node3 -->
<g id="edge37" class="edge">
<title>Node22&#45;&gt;Node3</title>
<path fill="none" stroke="#63b8ff" d="M1118.24,-276.01C1156.64,-276.34 1206.51,-279.69 1249,-292.05 1364.33,-325.58 1407.35,-330.15 1487,-420.05 1533.69,-472.74 1550.97,-560.17 1555.6,-589.28"/>
<polygon fill="#63b8ff" stroke="#63b8ff" points="1118.25,-272.51 1108.24,-275.98 1118.23,-279.51 1118.25,-272.51"/>
</g>
<!-- Node22&#45;&gt;Node30 -->
<g id="edge49" class="edge">
<title>Node22&#45;&gt;Node30</title>
<path fill="none" stroke="#63b8ff" d="M1118.33,-285.56C1166.26,-292.27 1227.76,-303.16 1249,-317.05 1285.74,-341.07 1309.47,-390.59 1318.22,-411.45"/>
<polygon fill="#63b8ff" stroke="#63b8ff" points="1118.71,-282.08 1108.33,-284.19 1117.77,-289.02 1118.71,-282.08"/>
</g>
<!-- Node23 -->
<g id="node23" class="node">
<title>Node23</title>
<g id="a_node23"><a xlink:href="../../d6/d82/classcocos2d_1_1_c_c_blend_protocol.html" target="_top" xlink:title="Specify the blending function according glBlendFunc Please refer to glBlendFunc in OpenGL ES Manual h...">
<polygon fill="white" stroke="#666666" points="802,-22.55 704,-22.55 704,-3.55 802,-3.55 802,-22.55"/>
<text text-anchor="middle" x="753" y="-10.55" font-family="Helvetica,sans-Serif" font-size="10.00">CCBlendProtocol</text>
</a>
</g>
</g>
<!-- Node23&#45;&gt;Node22 -->
<g id="edge38" class="edge">
<title>Node23&#45;&gt;Node22</title>
<path fill="none" stroke="#63b8ff" d="M811.49,-2.27C859.8,3.15 927.04,1.54 966,-39.05 1000.12,-74.59 952.25,-222.37 984,-260.05 988.77,-265.71 995.06,-269.72 1001.92,-272.53"/>
<polygon fill="#63b8ff" stroke="#63b8ff" points="810.97,1.19 801.48,-3.52 811.84,-5.75 810.97,1.19"/>
</g>
<!-- Node24&#45;&gt;Node3 -->
<g id="edge39" class="edge">
<title>Node24&#45;&gt;Node3</title>
<path fill="none" stroke="#9a32cd" stroke-dasharray="5,2" d="M1111.11,-619.52C1217.53,-614.63 1447.91,-604.05 1528.48,-600.36"/>
<polygon fill="#9a32cd" stroke="#9a32cd" points="1110.73,-616.03 1100.9,-619.98 1111.05,-623.02 1110.73,-616.03"/>
<text text-anchor="middle" x="1323" y="-615.05" font-family="Helvetica,sans-Serif" font-size="10.00"> m_pobTextureAtlas</text>
</g>
<!-- Node24&#45;&gt;Node30 -->
<g id="edge50" class="edge">
<title>Node24&#45;&gt;Node30</title>
<path fill="none" stroke="#9a32cd" stroke-dasharray="5,2" d="M1073.56,-605.03C1090.91,-588.53 1118.48,-563.11 1144,-543.05 1201.43,-497.9 1274.65,-450.74 1306.28,-430.84"/>
<polygon fill="#9a32cd" stroke="#9a32cd" points="1070.72,-602.91 1065.92,-612.35 1075.56,-607.96 1070.72,-602.91"/>
<text text-anchor="middle" x="1196.5" y="-546.05" font-family="Helvetica,sans-Serif" font-size="10.00"> m_pobTextureAtlas</text>
</g>
<!-- Node25 -->
<g id="node25" class="node">
<title>Node25</title>
<g id="a_node25"><a xlink:href="../../dd/d60/structcc_v3_f___c4_b___t2_f___quad.html" target="_top" xlink:title="4 ccVertex3FTex2FColor4B">
<polygon fill="white" stroke="#666666" points="815.5,-818.55 690.5,-818.55 690.5,-799.55 815.5,-799.55 815.5,-818.55"/>
<text text-anchor="middle" x="753" y="-806.55" font-family="Helvetica,sans-Serif" font-size="10.00">ccV3F_C4B_T2F_Quad</text>
</a>
</g>
</g>
<!-- Node25&#45;&gt;Node3 -->
<g id="edge60" class="edge">
<title>Node25&#45;&gt;Node3</title>
<path fill="none" stroke="#9a32cd" stroke-dasharray="5,2" d="M826.05,-814.73C989.62,-826.16 1382.88,-844.84 1487,-770.05 1542.23,-730.37 1553.99,-639.14 1556.4,-608.95"/>
<polygon fill="#9a32cd" stroke="#9a32cd" points="825.84,-811.21 815.62,-813.99 825.34,-818.19 825.84,-811.21"/>
<text text-anchor="middle" x="1196.5" y="-828.05" font-family="Helvetica,sans-Serif" font-size="10.00"> m_sQuad</text>
</g>
<!-- Node25&#45;&gt;Node24 -->
<g id="edge42" class="edge">
<title>Node25&#45;&gt;Node24</title>
<path fill="none" stroke="#9a32cd" stroke-dasharray="5,2" d="M773.64,-792.92C812.12,-761.92 900.92,-693.14 984,-649.05 996.89,-642.21 1011.9,-636.18 1024.7,-631.57"/>
<polygon fill="#9a32cd" stroke="#9a32cd" points="771.36,-790.27 765.8,-799.28 775.77,-795.7 771.36,-790.27"/>
<text text-anchor="middle" x="902" y="-745.05" font-family="Helvetica,sans-Serif" font-size="10.00"> m_pQuads</text>
</g>
<!-- Node26 -->
<g id="node26" class="node">
<title>Node26</title>
<g id="a_node26"><a xlink:href="../../d7/de4/structcc_v3_f___c4_b___t2_f.html" target="_top" xlink:title="a Point with a vertex point, a tex coord point and a color 4B">
<polygon fill="white" stroke="#666666" points="523,-838.55 429,-838.55 429,-819.55 523,-819.55 523,-838.55"/>
<text text-anchor="middle" x="476" y="-826.55" font-family="Helvetica,sans-Serif" font-size="10.00">ccV3F_C4B_T2F</text>
</a>
</g>
</g>
<!-- Node26&#45;&gt;Node25 -->
<g id="edge43" class="edge">
<title>Node26&#45;&gt;Node25</title>
<path fill="none" stroke="#9a32cd" stroke-dasharray="5,2" d="M533.06,-824.97C578.75,-821.65 643.19,-816.96 690.33,-813.53"/>
<polygon fill="#9a32cd" stroke="#9a32cd" points="532.75,-821.48 523.03,-825.7 533.26,-828.46 532.75,-821.48"/>
<text text-anchor="middle" x="606" y="-859.05" font-family="Helvetica,sans-Serif" font-size="10.00"> bl</text>
<text text-anchor="middle" x="606" y="-848.05" font-family="Helvetica,sans-Serif" font-size="10.00">br</text>
<text text-anchor="middle" x="606" y="-837.05" font-family="Helvetica,sans-Serif" font-size="10.00">tl</text>
<text text-anchor="middle" x="606" y="-826.05" font-family="Helvetica,sans-Serif" font-size="10.00">tr</text>
</g>
<!-- Node27 -->
<g id="node27" class="node">
<title>Node27</title>
<g id="a_node27"><a xlink:href="../../d3/d87/structcc_vertex3_f.html" target="_top" xlink:title="A vertex composed of 2 floats: x, y.">
<polygon fill="white" stroke="#666666" points="283.5,-876.55 212.5,-876.55 212.5,-857.55 283.5,-857.55 283.5,-876.55"/>
<text text-anchor="middle" x="248" y="-864.55" font-family="Helvetica,sans-Serif" font-size="10.00">ccVertex3F</text>
</a>
</g>
</g>
<!-- Node27&#45;&gt;Node26 -->
<g id="edge44" class="edge">
<title>Node27&#45;&gt;Node26</title>
<path fill="none" stroke="#9a32cd" stroke-dasharray="5,2" d="M293.48,-861.54C325.45,-857.36 369.51,-851.13 408,-844.05 416.68,-842.45 425.93,-840.52 434.71,-838.59"/>
<polygon fill="#9a32cd" stroke="#9a32cd" points="293.02,-858.07 283.55,-862.82 293.92,-865.01 293.02,-858.07"/>
<text text-anchor="middle" x="358" y="-862.05" font-family="Helvetica,sans-Serif" font-size="10.00"> vertices</text>
</g>
<!-- Node28 -->
<g id="node28" class="node">
<title>Node28</title>
<g id="a_node28"><a xlink:href="../../d2/dd4/structcc_color4_b.html" target="_top" xlink:title="RGBA color composed of 4 bytes.">
<polygon fill="white" stroke="#666666" points="280.5,-839.55 215.5,-839.55 215.5,-820.55 280.5,-820.55 280.5,-839.55"/>
<text text-anchor="middle" x="248" y="-827.55" font-family="Helvetica,sans-Serif" font-size="10.00">ccColor4B</text>
</a>
</g>
</g>
<!-- Node28&#45;&gt;Node26 -->
<g id="edge45" class="edge">
<title>Node28&#45;&gt;Node26</title>
<path fill="none" stroke="#9a32cd" stroke-dasharray="5,2" d="M290.9,-829.86C330.03,-829.69 388.3,-829.43 428.77,-829.25"/>
<polygon fill="#9a32cd" stroke="#9a32cd" points="290.89,-826.36 280.9,-829.9 290.92,-833.36 290.89,-826.36"/>
<text text-anchor="middle" x="358" y="-832.05" font-family="Helvetica,sans-Serif" font-size="10.00"> colors</text>
</g>
<!-- Node29 -->
<g id="node29" class="node">
<title>Node29</title>
<g id="a_node29"><a xlink:href="../../d0/d46/structcc_tex2_f.html" target="_top" xlink:title="A texcoord composed of 2 floats: u, y.">
<polygon fill="white" stroke="#666666" points="276,-802.55 220,-802.55 220,-783.55 276,-783.55 276,-802.55"/>
<text text-anchor="middle" x="248" y="-790.55" font-family="Helvetica,sans-Serif" font-size="10.00">ccTex2F</text>
</a>
</g>
</g>
<!-- Node29&#45;&gt;Node26 -->
<g id="edge46" class="edge">
<title>Node29&#45;&gt;Node26</title>
<path fill="none" stroke="#9a32cd" stroke-dasharray="5,2" d="M286.45,-797.04C318.76,-800.71 366.62,-806.7 408,-814.05 416.8,-815.61 426.2,-817.54 435.08,-819.5"/>
<polygon fill="#9a32cd" stroke="#9a32cd" points="286.45,-793.52 276.12,-795.88 285.67,-800.47 286.45,-793.52"/>
<text text-anchor="middle" x="358" y="-817.05" font-family="Helvetica,sans-Serif" font-size="10.00"> texCoords</text>
</g>
<!-- Node30&#45;&gt;Node3 -->
<g id="edge47" class="edge">
<title>Node30&#45;&gt;Node3</title>
<path fill="none" stroke="#9a32cd" stroke-dasharray="5,2" d="M1389.59,-423C1421.82,-426.97 1459.53,-436.43 1487,-458.05 1531.46,-493.03 1549.79,-563.63 1555.17,-589.37"/>
<polygon fill="#9a32cd" stroke="#9a32cd" points="1389.65,-419.49 1379.34,-421.9 1388.9,-426.45 1389.65,-419.49"/>
<text text-anchor="middle" x="1442" y="-461.05" font-family="Helvetica,sans-Serif" font-size="10.00"> m_pobBatchNode</text>
</g>
<!-- Node31 -->
<g id="node31" class="node">
<title>Node31</title>
<g id="a_node31"><a xlink:href="../../d6/d45/structcc_blend_func.html" target="_top" xlink:title="Blend Function used for textures.">
<polygon fill="white" stroke="#666666" points="1093.5,-476.55 1016.5,-476.55 1016.5,-457.55 1093.5,-457.55 1093.5,-476.55"/>
<text text-anchor="middle" x="1055" y="-464.55" font-family="Helvetica,sans-Serif" font-size="10.00">ccBlendFunc</text>
</a>
</g>
</g>
<!-- Node31&#45;&gt;Node3 -->
<g id="edge54" class="edge">
<title>Node31&#45;&gt;Node3</title>
<path fill="none" stroke="#9a32cd" stroke-dasharray="5,2" d="M1104.2,-472.57C1185.45,-483 1353.85,-509.41 1487,-562.05 1506.43,-569.73 1527.47,-581.33 1541.35,-589.49"/>
<polygon fill="#9a32cd" stroke="#9a32cd" points="1104.15,-469.04 1093.79,-471.27 1103.27,-475.99 1104.15,-469.04"/>
<text text-anchor="middle" x="1323" y="-529.05" font-family="Helvetica,sans-Serif" font-size="10.00"> m_sBlendFunc</text>
</g>
<!-- Node31&#45;&gt;Node30 -->
<g id="edge51" class="edge">
<title>Node31&#45;&gt;Node30</title>
<path fill="none" stroke="#9a32cd" stroke-dasharray="5,2" d="M1103.5,-458.83C1149.24,-450.92 1218.38,-438.97 1266.6,-430.63"/>
<polygon fill="#9a32cd" stroke="#9a32cd" points="1102.8,-455.4 1093.55,-460.55 1104,-462.3 1102.8,-455.4"/>
<text text-anchor="middle" x="1196.5" y="-453.05" font-family="Helvetica,sans-Serif" font-size="10.00"> m_blendFunc</text>
</g>
<!-- Node32&#45;&gt;Node3 -->
<g id="edge56" class="edge">
<title>Node32&#45;&gt;Node3</title>
<path fill="none" stroke="#9a32cd" stroke-dasharray="5,2" d="M789.21,-698.46C917.97,-710.33 1362.28,-745.96 1487,-685.05 1520.73,-668.57 1543.69,-627.3 1552.72,-608.56"/>
<polygon fill="#9a32cd" stroke="#9a32cd" points="789.39,-694.96 779.11,-697.51 788.74,-701.93 789.39,-694.96"/>
<text text-anchor="middle" x="1196.5" y="-722.05" font-family="Helvetica,sans-Serif" font-size="10.00"> m_obRect</text>
</g>
<!-- Node33 -->
<g id="node33" class="node">
<title>Node33</title>
<g id="a_node33"><a xlink:href="../../df/da3/classcocos2d_1_1_c_c_label_protocol.html" target="_top" xlink:title="Common interface for Labels NA NA.">
<polygon fill="white" stroke="#666666" points="1606,-910.55 1510,-910.55 1510,-891.55 1606,-891.55 1606,-910.55"/>
<text text-anchor="middle" x="1558" y="-898.55" font-family="Helvetica,sans-Serif" font-size="10.00">CCLabelProtocol</text>
</a>
</g>
</g>
<!-- Node33&#45;&gt;Node2 -->
<g id="edge61" class="edge">
<title>Node33&#45;&gt;Node2</title>
<path fill="none" stroke="#63b8ff" d="M1615.62,-887.91C1620.95,-884.99 1625.88,-881.41 1630,-877.05 1705.85,-796.58 1707.38,-647.86 1706.38,-608.7"/>
<polygon fill="#63b8ff" stroke="#63b8ff" points="1613.93,-884.83 1606.35,-892.24 1616.89,-891.17 1613.93,-884.83"/>
</g>
<!-- Node34 -->
<g id="node34" class="node">
<title>Node34</title>
<g id="a_node34"><a xlink:href="../../d7/d98/classcocos2d_1_1_c_c_i_m_e_delegate.html" target="_top" xlink:title="Input method editor delegate.">
<polygon fill="white" stroke="#666666" points="1753,-109.55 1661,-109.55 1661,-90.55 1753,-90.55 1753,-109.55"/>
<text text-anchor="middle" x="1707" y="-97.55" font-family="Helvetica,sans-Serif" font-size="10.00">CCIMEDelegate</text>
</a>
</g>
</g>
<!-- Node34&#45;&gt;Node1 -->
<g id="edge64" class="edge">
<title>Node34&#45;&gt;Node1</title>
<path fill="none" stroke="#63b8ff" d="M1763.27,-105.09C1796.92,-108.17 1839.36,-112.04 1870.96,-114.93"/>
<polygon fill="#63b8ff" stroke="#63b8ff" points="1763.41,-101.59 1753.13,-104.17 1762.77,-108.56 1763.41,-101.59"/>
</g>
<!-- Node35 -->
<g id="node35" class="node">
<title>Node35</title>
<g id="a_node35"><a xlink:href="../../de/d56/classcocos2d_1_1_c_c_text_field_delegate.html" target="_top" xlink:title=" ">
<polygon fill="white" stroke="#666666" points="1766,-72.55 1648,-72.55 1648,-53.55 1766,-53.55 1766,-72.55"/>
<text text-anchor="middle" x="1707" y="-60.55" font-family="Helvetica,sans-Serif" font-size="10.00">CCTextFieldDelegate</text>
</a>
</g>
</g>
<!-- Node35&#45;&gt;Node1 -->
<g id="edge65" class="edge">
<title>Node35&#45;&gt;Node1</title>
<path fill="none" stroke="#9a32cd" stroke-dasharray="5,2" d="M1776.13,-73.66C1800.65,-78.26 1828.33,-84.38 1853,-92.05 1868,-96.7 1884.28,-103.74 1896.53,-109.46"/>
<polygon fill="#9a32cd" stroke="#9a32cd" points="1776.66,-70.2 1766.2,-71.84 1775.41,-77.08 1776.66,-70.2"/>
<text text-anchor="middle" x="1818.5" y="-95.05" font-family="Helvetica,sans-Serif" font-size="10.00"> m_pDelegate</text>
</g>
</g>
</svg>
