<?xml version="1.0" encoding="UTF-8" standalone="no"?>
<!DOCTYPE svg PUBLIC "-//W3C//DTD SVG 1.1//EN"
 "http://www.w3.org/Graphics/SVG/1.1/DTD/svg11.dtd">
<!-- Generated by graphviz version 2.43.0 (0)
 -->
<!-- Title: CCLabelBMFont Pages: 1 -->
<svg width="378pt" height="252pt"
 viewBox="0.00 0.00 378.00 252.00" xmlns="http://www.w3.org/2000/svg" xmlns:xlink="http://www.w3.org/1999/xlink">
<g id="graph0" class="graph" transform="scale(1 1) rotate(0) translate(4 248)">
<title>CCLabelBMFont</title>
<!-- Node1 -->
<g id="node1" class="node">
<title>Node1</title>
<g id="a_node1"><a xlink:title="CCLabelBMFont is a subclass of CCSpriteBatchNode.">
<polygon fill="#bfbfbf" stroke="black" points="159.5,-0.5 159.5,-19.5 252.5,-19.5 252.5,-0.5 159.5,-0.5"/>
<text text-anchor="middle" x="206" y="-7.5" font-family="Helvetica,sans-Serif" font-size="10.00">CCLabelBMFont</text>
</a>
</g>
</g>
<!-- Node2 -->
<g id="node2" class="node">
<title>Node2</title>
<g id="a_node2"><a xlink:href="../../dd/d95/classcocos2d_1_1_c_c_sprite_batch_node.html" target="_top" xlink:title="CCSpriteBatchNode is like a batch node: if it contains children, it will draw them in 1 single OpenGL...">
<polygon fill="none" stroke="black" points="28,-56.5 28,-75.5 140,-75.5 140,-56.5 28,-56.5"/>
<text text-anchor="middle" x="84" y="-63.5" font-family="Helvetica,sans-Serif" font-size="10.00">CCSpriteBatchNode</text>
</a>
</g>
</g>
<!-- Node2&#45;&gt;Node1 -->
<g id="edge1" class="edge">
<title>Node2&#45;&gt;Node1</title>
<path fill="none" stroke="midnightblue" d="M112.54,-52.37C135.39,-42.26 166.81,-28.35 186.76,-19.52"/>
<polygon fill="midnightblue" stroke="midnightblue" points="111.06,-49.2 103.33,-56.44 113.89,-55.6 111.06,-49.2"/>
</g>
<!-- Node3 -->
<g id="node3" class="node">
<title>Node3</title>
<g id="a_node3"><a xlink:href="../../d0/ded/classcocos2d_1_1_c_c_node.html" target="_top" xlink:title="CCNode is the main element.">
<polygon fill="none" stroke="black" points="7,-112.5 7,-131.5 63,-131.5 63,-112.5 7,-112.5"/>
<text text-anchor="middle" x="35" y="-119.5" font-family="Helvetica,sans-Serif" font-size="10.00">CCNode</text>
</a>
</g>
</g>
<!-- Node3&#45;&gt;Node2 -->
<g id="edge2" class="edge">
<title>Node3&#45;&gt;Node2</title>
<path fill="none" stroke="midnightblue" d="M50.03,-104.43C58.62,-94.97 69.04,-83.48 76.06,-75.75"/>
<polygon fill="midnightblue" stroke="midnightblue" points="47.22,-102.33 43.09,-112.08 52.4,-107.03 47.22,-102.33"/>
</g>
<!-- Node4 -->
<g id="node4" class="node">
<title>Node4</title>
<g id="a_node4"><a xlink:href="../../d3/dbf/classcocos2d_1_1_c_c_object.html" target="_top" xlink:title="NA.">
<polygon fill="none" stroke="black" points="4,-168.5 4,-187.5 66,-187.5 66,-168.5 4,-168.5"/>
<text text-anchor="middle" x="35" y="-175.5" font-family="Helvetica,sans-Serif" font-size="10.00">CCObject</text>
</a>
</g>
</g>
<!-- Node4&#45;&gt;Node3 -->
<g id="edge3" class="edge">
<title>Node4&#45;&gt;Node3</title>
<path fill="none" stroke="midnightblue" d="M35,-157.8C35,-148.91 35,-138.78 35,-131.75"/>
<polygon fill="midnightblue" stroke="midnightblue" points="31.5,-158.08 35,-168.08 38.5,-158.08 31.5,-158.08"/>
</g>
<!-- Node5 -->
<g id="node5" class="node">
<title>Node5</title>
<g id="a_node5"><a xlink:href="../../d5/d61/classcocos2d_1_1_c_c_copying.html" target="_top" xlink:title="NA NA.">
<polygon fill="none" stroke="black" points="0,-224.5 0,-243.5 70,-243.5 70,-224.5 0,-224.5"/>
<text text-anchor="middle" x="35" y="-231.5" font-family="Helvetica,sans-Serif" font-size="10.00">CCCopying</text>
</a>
</g>
</g>
<!-- Node5&#45;&gt;Node4 -->
<g id="edge4" class="edge">
<title>Node5&#45;&gt;Node4</title>
<path fill="none" stroke="midnightblue" d="M35,-213.8C35,-204.91 35,-194.78 35,-187.75"/>
<polygon fill="midnightblue" stroke="midnightblue" points="31.5,-214.08 35,-224.08 38.5,-214.08 31.5,-214.08"/>
</g>
<!-- Node6 -->
<g id="node6" class="node">
<title>Node6</title>
<g id="a_node6"><a xlink:href="../../db/d1b/classcocos2d_1_1_c_c_texture_protocol.html" target="_top" xlink:title="CCNode objects that uses a CCTexture2D to render the images.">
<polygon fill="none" stroke="black" points="81,-112.5 81,-131.5 187,-131.5 187,-112.5 81,-112.5"/>
<text text-anchor="middle" x="134" y="-119.5" font-family="Helvetica,sans-Serif" font-size="10.00">CCTextureProtocol</text>
</a>
</g>
</g>
<!-- Node6&#45;&gt;Node2 -->
<g id="edge5" class="edge">
<title>Node6&#45;&gt;Node2</title>
<path fill="none" stroke="midnightblue" d="M118.92,-104.72C110.11,-95.2 99.33,-83.56 92.1,-75.75"/>
<polygon fill="midnightblue" stroke="midnightblue" points="116.38,-107.12 125.74,-112.08 121.52,-102.37 116.38,-107.12"/>
</g>
<!-- Node7 -->
<g id="node7" class="node">
<title>Node7</title>
<g id="a_node7"><a xlink:href="../../d6/d82/classcocos2d_1_1_c_c_blend_protocol.html" target="_top" xlink:title="Specify the blending function according glBlendFunc Please refer to glBlendFunc in OpenGL ES Manual h...">
<polygon fill="none" stroke="black" points="85,-168.5 85,-187.5 183,-187.5 183,-168.5 85,-168.5"/>
<text text-anchor="middle" x="134" y="-175.5" font-family="Helvetica,sans-Serif" font-size="10.00">CCBlendProtocol</text>
</a>
</g>
</g>
<!-- Node7&#45;&gt;Node6 -->
<g id="edge6" class="edge">
<title>Node7&#45;&gt;Node6</title>
<path fill="none" stroke="midnightblue" d="M134,-157.8C134,-148.91 134,-138.78 134,-131.75"/>
<polygon fill="midnightblue" stroke="midnightblue" points="130.5,-158.08 134,-168.08 137.5,-158.08 130.5,-158.08"/>
</g>
<!-- Node8 -->
<g id="node8" class="node">
<title>Node8</title>
<g id="a_node8"><a xlink:href="../../df/da3/classcocos2d_1_1_c_c_label_protocol.html" target="_top" xlink:title="Common interface for Labels NA NA.">
<polygon fill="none" stroke="black" points="158,-56.5 158,-75.5 254,-75.5 254,-56.5 158,-56.5"/>
<text text-anchor="middle" x="206" y="-63.5" font-family="Helvetica,sans-Serif" font-size="10.00">CCLabelProtocol</text>
</a>
</g>
</g>
<!-- Node8&#45;&gt;Node1 -->
<g id="edge7" class="edge">
<title>Node8&#45;&gt;Node1</title>
<path fill="none" stroke="midnightblue" d="M206,-45.8C206,-36.91 206,-26.78 206,-19.75"/>
<polygon fill="midnightblue" stroke="midnightblue" points="202.5,-46.08 206,-56.08 209.5,-46.08 202.5,-46.08"/>
</g>
<!-- Node9 -->
<g id="node9" class="node">
<title>Node9</title>
<g id="a_node9"><a xlink:href="../../d8/dda/classcocos2d_1_1_c_c_r_g_b_a_protocol.html" target="_top" xlink:title="RGBA protocol that affects CCNode&#39;s color and opacity NA.">
<polygon fill="none" stroke="black" points="272,-56.5 272,-75.5 370,-75.5 370,-56.5 272,-56.5"/>
<text text-anchor="middle" x="321" y="-63.5" font-family="Helvetica,sans-Serif" font-size="10.00">CCRGBAProtocol</text>
</a>
</g>
</g>
<!-- Node9&#45;&gt;Node1 -->
<g id="edge8" class="edge">
<title>Node9&#45;&gt;Node1</title>
<path fill="none" stroke="midnightblue" d="M293.52,-52.1C272.03,-42.01 242.78,-28.27 224.14,-19.52"/>
<polygon fill="midnightblue" stroke="midnightblue" points="292.24,-55.36 302.78,-56.44 295.21,-49.02 292.24,-55.36"/>
</g>
</g>
</svg>
