<?xml version="1.0" encoding="UTF-8" standalone="no"?>
<!DOCTYPE svg PUBLIC "-//W3C//DTD SVG 1.1//EN"
 "http://www.w3.org/Graphics/SVG/1.1/DTD/svg11.dtd">
<!-- Generated by graphviz version 2.43.0 (0)
 -->
<!-- Title: CCTextureCache Pages: 1 -->
<svg width="190pt" height="219pt"
 viewBox="0.00 0.00 190.00 219.00" xmlns="http://www.w3.org/2000/svg" xmlns:xlink="http://www.w3.org/1999/xlink">
<g id="graph0" class="graph" transform="scale(1 1) rotate(0) translate(4 215)">
<title>CCTextureCache</title>
<!-- Node1 -->
<g id="node1" class="node">
<title>Node1</title>
<g id="a_node1"><a xlink:title="Singleton that handles the loading of textures Once the texture is loaded, the next time it will retu...">
<polygon fill="#bfbfbf" stroke="black" points="66,-0.5 66,-19.5 162,-19.5 162,-0.5 66,-0.5"/>
<text text-anchor="middle" x="114" y="-7.5" font-family="Helvetica,sans-Serif" font-size="10.00">CCTextureCache</text>
</a>
</g>
</g>
<!-- Node2 -->
<g id="node2" class="node">
<title>Node2</title>
<g id="a_node2"><a xlink:href="../../d3/dbf/classcocos2d_1_1_c_c_object.html" target="_top" xlink:title="NA.">
<polygon fill="none" stroke="black" points="116,-134.5 116,-153.5 178,-153.5 178,-134.5 116,-134.5"/>
<text text-anchor="middle" x="147" y="-141.5" font-family="Helvetica,sans-Serif" font-size="10.00">CCObject</text>
</a>
</g>
</g>
<!-- Node2&#45;&gt;Node1 -->
<g id="edge1" class="edge">
<title>Node2&#45;&gt;Node1</title>
<path fill="none" stroke="midnightblue" d="M149.81,-124.17C152.21,-102.39 153.53,-65.97 141,-38 137.75,-30.74 131.61,-24.35 126.01,-19.62"/>
<polygon fill="midnightblue" stroke="midnightblue" points="146.31,-123.99 148.49,-134.35 153.25,-124.89 146.31,-123.99"/>
</g>
<!-- Node4 -->
<g id="node4" class="node">
<title>Node4</title>
<g id="a_node4"><a xlink:href="../../d7/d5f/classcocos2d_1_1_c_c_dictionary.html" target="_top" xlink:title="CCDictionary is a class like NSDictionary in Obj&#45;C .">
<polygon fill="none" stroke="black" points="34,-67.5 34,-86.5 114,-86.5 114,-67.5 34,-67.5"/>
<text text-anchor="middle" x="74" y="-74.5" font-family="Helvetica,sans-Serif" font-size="10.00">CCDictionary</text>
</a>
</g>
</g>
<!-- Node2&#45;&gt;Node4 -->
<g id="edge4" class="edge">
<title>Node2&#45;&gt;Node4</title>
<path fill="none" stroke="midnightblue" d="M135.23,-126.31C129.82,-119.29 123.06,-111.3 116,-105 108.11,-97.96 98.2,-91.49 89.99,-86.66"/>
<polygon fill="midnightblue" stroke="midnightblue" points="132.51,-128.52 141.26,-134.5 138.14,-124.37 132.51,-128.52"/>
</g>
<!-- Node3 -->
<g id="node3" class="node">
<title>Node3</title>
<g id="a_node3"><a xlink:href="../../d5/d61/classcocos2d_1_1_c_c_copying.html" target="_top" xlink:title="NA NA.">
<polygon fill="none" stroke="black" points="112,-191.5 112,-210.5 182,-210.5 182,-191.5 112,-191.5"/>
<text text-anchor="middle" x="147" y="-198.5" font-family="Helvetica,sans-Serif" font-size="10.00">CCCopying</text>
</a>
</g>
</g>
<!-- Node3&#45;&gt;Node2 -->
<g id="edge2" class="edge">
<title>Node3&#45;&gt;Node2</title>
<path fill="none" stroke="midnightblue" d="M147,-181.12C147,-171.82 147,-161.06 147,-153.71"/>
<polygon fill="midnightblue" stroke="midnightblue" points="143.5,-181.41 147,-191.41 150.5,-181.41 143.5,-181.41"/>
</g>
<!-- Node4&#45;&gt;Node1 -->
<g id="edge3" class="edge">
<title>Node4&#45;&gt;Node1</title>
<path fill="none" stroke="#9a32cd" stroke-dasharray="5,2" d="M71.16,-57.32C71.02,-50.86 71.86,-43.8 75,-38 79.31,-30.03 87.12,-23.93 94.62,-19.55"/>
<polygon fill="#9a32cd" stroke="#9a32cd" points="67.68,-57.65 72.1,-67.28 74.65,-57 67.68,-57.65"/>
<text text-anchor="middle" x="108" y="-41" font-family="Helvetica,sans-Serif" font-size="10.00"> m_pTextures</text>
</g>
<!-- Node5 -->
<g id="node5" class="node">
<title>Node5</title>
<g id="a_node5"><a xlink:href="../../d0/da2/classcocos2d_1_1_c_c_dict_element.html" target="_top" xlink:title="CCDictElement is used for traversing CCDictionary.">
<polygon fill="none" stroke="black" points="0,-134.5 0,-153.5 90,-153.5 90,-134.5 0,-134.5"/>
<text text-anchor="middle" x="45" y="-141.5" font-family="Helvetica,sans-Serif" font-size="10.00">CCDictElement</text>
</a>
</g>
</g>
<!-- Node5&#45;&gt;Node4 -->
<g id="edge5" class="edge">
<title>Node5&#45;&gt;Node4</title>
<path fill="none" stroke="#9a32cd" stroke-dasharray="5,2" d="M42.69,-124.11C42.64,-117.8 43.41,-110.89 46,-105 49.21,-97.71 55.41,-91.4 61.16,-86.72"/>
<polygon fill="#9a32cd" stroke="#9a32cd" points="39.23,-124.73 43.44,-134.45 46.21,-124.22 39.23,-124.73"/>
<text text-anchor="middle" x="81" y="-108" font-family="Helvetica,sans-Serif" font-size="10.00"> m_pElements</text>
</g>
</g>
</svg>
