<?xml version="1.0" encoding="UTF-8" standalone="no"?>
<!DOCTYPE svg PUBLIC "-//W3C//DTD SVG 1.1//EN"
 "http://www.w3.org/Graphics/SVG/1.1/DTD/svg11.dtd">
<!-- Generated by graphviz version 2.43.0 (0)
 -->
<!-- Title: /home/runner/work/cocos&#45;headers/cocos&#45;headers/cocos2dx/text_input_node/CCTextFieldTTF.h Pages: 1 -->
<svg width="2053pt" height="797pt"
 viewBox="0.00 0.00 2052.50 797.00" xmlns="http://www.w3.org/2000/svg" xmlns:xlink="http://www.w3.org/1999/xlink">
<g id="graph0" class="graph" transform="scale(1 1) rotate(0) translate(4 793)">
<title>/home/runner/work/cocos&#45;headers/cocos&#45;headers/cocos2dx/text_input_node/CCTextFieldTTF.h</title>
<!-- Node1 -->
<g id="node1" class="node">
<title>Node1</title>
<g id="a_node1"><a xlink:title=" ">
<polygon fill="#999999" stroke="#666666" points="1917,-789 1770,-789 1770,-737 1917,-737 1917,-789"/>
<text text-anchor="start" x="1778" y="-777" font-family="Helvetica,sans-Serif" font-size="10.00">/home/runner/work/cocos</text>
<text text-anchor="start" x="1778" y="-766" font-family="Helvetica,sans-Serif" font-size="10.00">&#45;headers/cocos&#45;headers</text>
<text text-anchor="start" x="1778" y="-755" font-family="Helvetica,sans-Serif" font-size="10.00">/cocos2dx/text_input_node</text>
<text text-anchor="middle" x="1843.5" y="-744" font-family="Helvetica,sans-Serif" font-size="10.00">/CCTextFieldTTF.h</text>
</a>
</g>
</g>
<!-- Node2 -->
<g id="node2" class="node">
<title>Node2</title>
<g id="a_node2"><a xlink:href="../../df/dc3/_c_c_label_t_t_f_8h.html" target="_top" xlink:title=" ">
<polygon fill="white" stroke="#666666" points="1795,-701 1652,-701 1652,-682 1795,-682 1795,-701"/>
<text text-anchor="middle" x="1723.5" y="-689" font-family="Helvetica,sans-Serif" font-size="10.00">label_nodes/CCLabelTTF.h</text>
</a>
</g>
</g>
<!-- Node1&#45;&gt;Node2 -->
<g id="edge1" class="edge">
<title>Node1&#45;&gt;Node2</title>
<path fill="none" stroke="#63b8ff" d="M1800.18,-736.91C1782.28,-726.54 1762.22,-714.93 1747.11,-706.18"/>
<polygon fill="#63b8ff" stroke="#63b8ff" points="1748.82,-703.12 1738.41,-701.14 1745.31,-709.18 1748.82,-703.12"/>
</g>
<!-- Node41 -->
<g id="node41" class="node">
<title>Node41</title>
<g id="a_node41"><a xlink:href="../../d4/d6f/_c_c_i_m_e_delegate_8h.html" target="_top" xlink:title=" ">
<polygon fill="white" stroke="#666666" points="1935,-646 1752,-646 1752,-627 1935,-627 1935,-646"/>
<text text-anchor="middle" x="1843.5" y="-634" font-family="Helvetica,sans-Serif" font-size="10.00">text_input_node/CCIMEDelegate.h</text>
</a>
</g>
</g>
<!-- Node1&#45;&gt;Node41 -->
<g id="edge76" class="edge">
<title>Node1&#45;&gt;Node41</title>
<path fill="none" stroke="#63b8ff" d="M1843.5,-736.81C1843.5,-712.95 1843.5,-677.69 1843.5,-656.24"/>
<polygon fill="#63b8ff" stroke="#63b8ff" points="1847,-656.15 1843.5,-646.15 1840,-656.15 1847,-656.15"/>
</g>
<!-- Node42 -->
<g id="node42" class="node">
<title>Node42</title>
<g id="a_node42"><a xlink:href="../../d8/d70/_c_c_touch_delegate_protocol_8h.html" target="_top" xlink:title=" ">
<polygon fill="white" stroke="#666666" points="2044.5,-371 1900.5,-371 1900.5,-341 2044.5,-341 2044.5,-371"/>
<text text-anchor="start" x="1908.5" y="-359" font-family="Helvetica,sans-Serif" font-size="10.00">touch_dispatcher/CCTouch</text>
<text text-anchor="middle" x="1972.5" y="-348" font-family="Helvetica,sans-Serif" font-size="10.00">DelegateProtocol.h</text>
</a>
</g>
</g>
<!-- Node1&#45;&gt;Node42 -->
<g id="edge78" class="edge">
<title>Node1&#45;&gt;Node42</title>
<path fill="none" stroke="#63b8ff" d="M1894.75,-736.79C1929.63,-715.64 1969.5,-681.78 1969.5,-637.5 1969.5,-637.5 1969.5,-637.5 1969.5,-470.5 1969.5,-439.84 1970.61,-404.54 1971.48,-381.55"/>
<polygon fill="#63b8ff" stroke="#63b8ff" points="1974.98,-381.46 1971.88,-371.33 1967.99,-381.19 1974.98,-381.46"/>
</g>
<!-- Node3 -->
<g id="node3" class="node">
<title>Node3</title>
<g id="a_node3"><a xlink:href="../../d5/d8a/_c_c_sprite_8h.html" target="_top" xlink:title=" ">
<polygon fill="white" stroke="#666666" points="1541,-646 1408,-646 1408,-627 1541,-627 1541,-646"/>
<text text-anchor="middle" x="1474.5" y="-634" font-family="Helvetica,sans-Serif" font-size="10.00">sprite_nodes/CCSprite.h</text>
</a>
</g>
</g>
<!-- Node2&#45;&gt;Node3 -->
<g id="edge2" class="edge">
<title>Node2&#45;&gt;Node3</title>
<path fill="none" stroke="#63b8ff" d="M1683.49,-681.98C1640.33,-672.8 1571.52,-658.15 1524.74,-648.19"/>
<polygon fill="#63b8ff" stroke="#63b8ff" points="1525.33,-644.74 1514.82,-646.08 1523.87,-651.59 1525.33,-644.74"/>
</g>
<!-- Node33 -->
<g id="node33" class="node">
<title>Node33</title>
<g id="a_node33"><a xlink:href="../../d5/d70/_c_c_texture2_d_8h.html" target="_top" xlink:title=" ">
<polygon fill="white" stroke="#666666" points="1571.5,-481 1439.5,-481 1439.5,-462 1571.5,-462 1571.5,-481"/>
<text text-anchor="middle" x="1505.5" y="-469" font-family="Helvetica,sans-Serif" font-size="10.00">textures/CCTexture2D.h</text>
</a>
</g>
</g>
<!-- Node2&#45;&gt;Node33 -->
<g id="edge75" class="edge">
<title>Node2&#45;&gt;Node33</title>
<path fill="none" stroke="#63b8ff" d="M1714.95,-681.95C1682.2,-649.2 1564.34,-531.34 1521.34,-488.34"/>
<polygon fill="#63b8ff" stroke="#63b8ff" points="1523.77,-485.82 1514.22,-481.22 1518.82,-490.77 1523.77,-485.82"/>
</g>
<!-- Node4 -->
<g id="node4" class="node">
<title>Node4</title>
<g id="a_node4"><a xlink:href="../../db/d7f/_c_c_node_8h.html" target="_top" xlink:title=" ">
<polygon fill="white" stroke="#666666" points="778,-591 653,-591 653,-572 778,-572 778,-591"/>
<text text-anchor="middle" x="715.5" y="-579" font-family="Helvetica,sans-Serif" font-size="10.00">base_nodes/CCNode.h</text>
</a>
</g>
</g>
<!-- Node3&#45;&gt;Node4 -->
<g id="edge3" class="edge">
<title>Node3&#45;&gt;Node4</title>
<path fill="none" stroke="#63b8ff" d="M1407.81,-630.84C1265.98,-620.94 935.37,-597.85 788.29,-587.58"/>
<polygon fill="#63b8ff" stroke="#63b8ff" points="788.25,-584.07 778.03,-586.87 787.76,-591.05 788.25,-584.07"/>
</g>
<!-- Node16 -->
<g id="node16" class="node">
<title>Node16</title>
<g id="a_node16"><a xlink:title=" ">
<polygon fill="#e0e0e0" stroke="#999999" points="1723.5,-184 1679.5,-184 1679.5,-165 1723.5,-165 1723.5,-184"/>
<text text-anchor="middle" x="1701.5" y="-172" font-family="Helvetica,sans-Serif" font-size="10.00">string</text>
</a>
</g>
</g>
<!-- Node3&#45;&gt;Node16 -->
<g id="edge74" class="edge">
<title>Node3&#45;&gt;Node16</title>
<path fill="none" stroke="#63b8ff" d="M1512.91,-626.98C1589.83,-607.42 1759.33,-551.04 1805.5,-426 1837.36,-339.71 1848.55,-286.98 1785.5,-220 1771.22,-204.83 1750.6,-193.8 1733.37,-186.52"/>
<polygon fill="#63b8ff" stroke="#63b8ff" points="1734.27,-183.11 1723.68,-182.66 1731.68,-189.61 1734.27,-183.11"/>
</g>
<!-- Node31 -->
<g id="node31" class="node">
<title>Node31</title>
<g id="a_node31"><a xlink:href="../../d8/d76/_c_c_protocols_8h.html" target="_top" xlink:title=" ">
<polygon fill="white" stroke="#666666" points="1516.5,-536 1432.5,-536 1432.5,-517 1516.5,-517 1516.5,-536"/>
<text text-anchor="middle" x="1474.5" y="-524" font-family="Helvetica,sans-Serif" font-size="10.00">CCProtocols.h</text>
</a>
</g>
</g>
<!-- Node3&#45;&gt;Node31 -->
<g id="edge57" class="edge">
<title>Node3&#45;&gt;Node31</title>
<path fill="none" stroke="#63b8ff" d="M1474.5,-626.66C1474.5,-609.17 1474.5,-569.8 1474.5,-546.27"/>
<polygon fill="#63b8ff" stroke="#63b8ff" points="1478,-546.16 1474.5,-536.16 1471,-546.16 1478,-546.16"/>
</g>
<!-- Node32 -->
<g id="node32" class="node">
<title>Node32</title>
<g id="a_node32"><a xlink:href="../../df/de6/cc_types_8h.html" target="_top" xlink:title=" ">
<polygon fill="white" stroke="#666666" points="1540.5,-426 1476.5,-426 1476.5,-407 1540.5,-407 1540.5,-426"/>
<text text-anchor="middle" x="1508.5" y="-414" font-family="Helvetica,sans-Serif" font-size="10.00">ccTypes.h</text>
</a>
</g>
</g>
<!-- Node3&#45;&gt;Node32 -->
<g id="edge63" class="edge">
<title>Node3&#45;&gt;Node32</title>
<path fill="none" stroke="#63b8ff" d="M1467.44,-626.93C1446.63,-600.56 1389.04,-518.94 1423.5,-462 1433.09,-446.16 1450.38,-435.68 1466.88,-428.9"/>
<polygon fill="#63b8ff" stroke="#63b8ff" points="1468.3,-432.11 1476.43,-425.32 1465.84,-425.55 1468.3,-432.11"/>
</g>
<!-- Node34 -->
<g id="node34" class="node">
<title>Node34</title>
<g id="a_node34"><a xlink:href="../../d1/d48/_c_c_texture_atlas_8h.html" target="_top" xlink:title=" ">
<polygon fill="white" stroke="#666666" points="1733,-481 1590,-481 1590,-462 1733,-462 1733,-481"/>
<text text-anchor="middle" x="1661.5" y="-469" font-family="Helvetica,sans-Serif" font-size="10.00">textures/CCTextureAtlas.h</text>
</a>
</g>
</g>
<!-- Node3&#45;&gt;Node34 -->
<g id="edge58" class="edge">
<title>Node3&#45;&gt;Node34</title>
<path fill="none" stroke="#63b8ff" d="M1484.29,-626.97C1514.19,-600.9 1604.65,-522.06 1643.48,-488.21"/>
<polygon fill="#63b8ff" stroke="#63b8ff" points="1646.11,-490.55 1651.35,-481.34 1641.51,-485.28 1646.11,-490.55"/>
</g>
<!-- Node35 -->
<g id="node35" class="node">
<title>Node35</title>
<g id="a_node35"><a xlink:href="../../d9/d8d/_c_c_dictionary_8h.html" target="_top" xlink:title=" ">
<polygon fill="white" stroke="#666666" points="276,-426 157,-426 157,-407 276,-407 276,-426"/>
<text text-anchor="middle" x="216.5" y="-414" font-family="Helvetica,sans-Serif" font-size="10.00">cocoa/CCDictionary.h</text>
</a>
</g>
</g>
<!-- Node3&#45;&gt;Node35 -->
<g id="edge64" class="edge">
<title>Node3&#45;&gt;Node35</title>
<path fill="none" stroke="#63b8ff" d="M1407.78,-634.43C1266.45,-631.61 926.62,-621.94 643.5,-591 494.82,-574.75 440.58,-611.56 311.5,-536 269.93,-511.67 239.32,-461.73 225.19,-435.11"/>
<polygon fill="#63b8ff" stroke="#63b8ff" points="228.27,-433.45 220.59,-426.16 222.04,-436.65 228.27,-433.45"/>
</g>
<!-- Node5 -->
<g id="node5" class="node">
<title>Node5</title>
<g id="a_node5"><a xlink:href="../../d9/dc8/cc_macros_8h.html" target="_top" xlink:title=" ">
<polygon fill="white" stroke="#666666" points="647,-239 576,-239 576,-220 647,-220 647,-239"/>
<text text-anchor="middle" x="611.5" y="-227" font-family="Helvetica,sans-Serif" font-size="10.00">ccMacros.h</text>
</a>
</g>
</g>
<!-- Node4&#45;&gt;Node5 -->
<g id="edge4" class="edge">
<title>Node4&#45;&gt;Node5</title>
<path fill="none" stroke="#63b8ff" d="M652.98,-573.75C569.9,-561.03 426.1,-525.17 361.5,-426 329.71,-377.2 409.07,-391.19 441.5,-371 503.04,-332.7 566.53,-274.21 595.43,-246.34"/>
<polygon fill="#63b8ff" stroke="#63b8ff" points="598.22,-248.51 602.94,-239.03 593.33,-243.49 598.22,-248.51"/>
</g>
<!-- Node12 -->
<g id="node12" class="node">
<title>Node12</title>
<g id="a_node12"><a xlink:href="../../d3/d15/_c_c_affine_transform_8h.html" target="_top" xlink:title=" ">
<polygon fill="white" stroke="#666666" points="910.5,-426 762.5,-426 762.5,-407 910.5,-407 910.5,-426"/>
<text text-anchor="middle" x="836.5" y="-414" font-family="Helvetica,sans-Serif" font-size="10.00">cocoa/CCAffineTransform.h</text>
</a>
</g>
</g>
<!-- Node4&#45;&gt;Node12 -->
<g id="edge13" class="edge">
<title>Node4&#45;&gt;Node12</title>
<path fill="none" stroke="#63b8ff" d="M721.15,-571.74C729.2,-559.37 744.54,-536.15 758.5,-517 780.26,-487.16 807.1,-453.57 822.95,-434.05"/>
<polygon fill="#63b8ff" stroke="#63b8ff" points="825.8,-436.09 829.41,-426.13 820.38,-431.67 825.8,-436.09"/>
</g>
<!-- Node18 -->
<g id="node18" class="node">
<title>Node18</title>
<g id="a_node18"><a xlink:href="../../da/d35/_c_c_array_8h.html" target="_top" xlink:title=" ">
<polygon fill="white" stroke="#666666" points="433,-365.5 338,-365.5 338,-346.5 433,-346.5 433,-365.5"/>
<text text-anchor="middle" x="385.5" y="-353.5" font-family="Helvetica,sans-Serif" font-size="10.00">cocoa/CCArray.h</text>
</a>
</g>
</g>
<!-- Node4&#45;&gt;Node18 -->
<g id="edge23" class="edge">
<title>Node4&#45;&gt;Node18</title>
<path fill="none" stroke="#63b8ff" d="M652.98,-577.79C548.98,-572.64 349.68,-559.76 328.5,-536 290.34,-493.21 304.84,-459.22 328.5,-407 335.28,-392.04 348.98,-379.79 361.25,-371.16"/>
<polygon fill="#63b8ff" stroke="#63b8ff" points="363.38,-373.95 369.82,-365.53 359.54,-368.1 363.38,-373.95"/>
</g>
<!-- Node20 -->
<g id="node20" class="node">
<title>Node20</title>
<g id="a_node20"><a xlink:title=" ">
<polygon fill="#e0e0e0" stroke="#999999" points="706.5,-365.5 654.5,-365.5 654.5,-346.5 706.5,-346.5 706.5,-365.5"/>
<text text-anchor="middle" x="680.5" y="-353.5" font-family="Helvetica,sans-Serif" font-size="10.00">CCGL.h</text>
</a>
</g>
</g>
<!-- Node4&#45;&gt;Node20 -->
<g id="edge25" class="edge">
<title>Node4&#45;&gt;Node20</title>
<path fill="none" stroke="#63b8ff" d="M714.13,-571.74C708.98,-538.85 690.73,-422.3 683.49,-376.09"/>
<polygon fill="#63b8ff" stroke="#63b8ff" points="686.91,-375.28 681.9,-365.94 679.99,-376.36 686.91,-375.28"/>
</g>
<!-- Node21 -->
<g id="node21" class="node">
<title>Node21</title>
<g id="a_node21"><a xlink:href="../../da/d2f/cc_g_l_state_cache_8h.html" target="_top" xlink:title=" ">
<polygon fill="white" stroke="#666666" points="516.5,-426 370.5,-426 370.5,-407 516.5,-407 516.5,-426"/>
<text text-anchor="middle" x="443.5" y="-414" font-family="Helvetica,sans-Serif" font-size="10.00">shaders/ccGLStateCache.h</text>
</a>
</g>
</g>
<!-- Node4&#45;&gt;Node21 -->
<g id="edge26" class="edge">
<title>Node4&#45;&gt;Node21</title>
<path fill="none" stroke="#63b8ff" d="M701.26,-571.97C656.93,-545.4 521.11,-464.01 466.55,-431.31"/>
<polygon fill="#63b8ff" stroke="#63b8ff" points="468.3,-428.28 457.93,-426.15 464.71,-434.29 468.3,-428.28"/>
</g>
<!-- Node22 -->
<g id="node22" class="node">
<title>Node22</title>
<g id="a_node22"><a xlink:href="../../de/d32/_c_c_g_l_program_8h.html" target="_top" xlink:title=" ">
<polygon fill="white" stroke="#666666" points="668.5,-426 534.5,-426 534.5,-407 668.5,-407 668.5,-426"/>
<text text-anchor="middle" x="601.5" y="-414" font-family="Helvetica,sans-Serif" font-size="10.00">shaders/CCGLProgram.h</text>
</a>
</g>
</g>
<!-- Node4&#45;&gt;Node22 -->
<g id="edge29" class="edge">
<title>Node4&#45;&gt;Node22</title>
<path fill="none" stroke="#63b8ff" d="M708.82,-571.71C702.09,-562.78 691.43,-548.54 682.5,-536 657.09,-500.32 628.38,-457.77 612.89,-434.6"/>
<polygon fill="#63b8ff" stroke="#63b8ff" points="615.75,-432.58 607.28,-426.2 609.92,-436.46 615.75,-432.58"/>
</g>
<!-- Node23 -->
<g id="node23" class="node">
<title>Node23</title>
<g id="a_node23"><a xlink:title=" ">
<polygon fill="#e0e0e0" stroke="#999999" points="914,-536 801,-536 801,-517 914,-517 914,-536"/>
<text text-anchor="middle" x="857.5" y="-524" font-family="Helvetica,sans-Serif" font-size="10.00">kazmath/kazmath.h</text>
</a>
</g>
</g>
<!-- Node4&#45;&gt;Node23 -->
<g id="edge33" class="edge">
<title>Node4&#45;&gt;Node23</title>
<path fill="none" stroke="#63b8ff" d="M738.31,-571.98C761.67,-563.27 798.2,-549.63 824.67,-539.75"/>
<polygon fill="#63b8ff" stroke="#63b8ff" points="826.13,-542.95 834.27,-536.17 823.68,-536.39 826.13,-542.95"/>
</g>
<!-- Node24 -->
<g id="node24" class="node">
<title>Node24</title>
<g id="a_node24"><a xlink:href="../../dc/dbc/_c_c_script_support_8h.html" target="_top" xlink:title=" ">
<polygon fill="white" stroke="#666666" points="1166.5,-481 990.5,-481 990.5,-462 1166.5,-462 1166.5,-481"/>
<text text-anchor="middle" x="1078.5" y="-469" font-family="Helvetica,sans-Serif" font-size="10.00">script_support/CCScriptSupport.h</text>
</a>
</g>
</g>
<!-- Node4&#45;&gt;Node24 -->
<g id="edge34" class="edge">
<title>Node4&#45;&gt;Node24</title>
<path fill="none" stroke="#63b8ff" d="M722.9,-571.81C735.45,-557.73 762.36,-530.18 791.5,-517 850.65,-490.23 922.91,-479.13 980.13,-474.71"/>
<polygon fill="#63b8ff" stroke="#63b8ff" points="980.54,-478.19 990.26,-473.99 980.04,-471.21 980.54,-478.19"/>
</g>
<!-- Node4&#45;&gt;Node31 -->
<g id="edge46" class="edge">
<title>Node4&#45;&gt;Node31</title>
<path fill="none" stroke="#63b8ff" d="M778.26,-576.12C924.68,-565.89 1286.71,-540.61 1422.2,-531.15"/>
<polygon fill="#63b8ff" stroke="#63b8ff" points="1422.59,-534.63 1432.32,-530.45 1422.1,-527.65 1422.59,-534.63"/>
</g>
<!-- Node6 -->
<g id="node6" class="node">
<title>Node6</title>
<g id="a_node6"><a xlink:href="../../d5/d22/_c_c_common_8h.html" target="_top" xlink:title=" ">
<polygon fill="white" stroke="#666666" points="798.5,-184 670.5,-184 670.5,-165 798.5,-165 798.5,-184"/>
<text text-anchor="middle" x="734.5" y="-172" font-family="Helvetica,sans-Serif" font-size="10.00">platform/CCCommon.h</text>
</a>
</g>
</g>
<!-- Node5&#45;&gt;Node6 -->
<g id="edge5" class="edge">
<title>Node5&#45;&gt;Node6</title>
<path fill="none" stroke="#63b8ff" d="M631.26,-219.98C651.23,-211.38 682.3,-197.99 705.15,-188.15"/>
<polygon fill="#63b8ff" stroke="#63b8ff" points="706.58,-191.34 714.38,-184.17 703.81,-184.91 706.58,-191.34"/>
</g>
<!-- Node8 -->
<g id="node8" class="node">
<title>Node8</title>
<g id="a_node8"><a xlink:href="../../db/d9f/cc_config_8h.html" target="_top" xlink:title="cocos2d (cc) configuration file">
<polygon fill="white" stroke="#666666" points="1057,-74 990,-74 990,-55 1057,-55 1057,-74"/>
<text text-anchor="middle" x="1023.5" y="-62" font-family="Helvetica,sans-Serif" font-size="10.00">ccConfig.h</text>
</a>
</g>
</g>
<!-- Node5&#45;&gt;Node8 -->
<g id="edge12" class="edge">
<title>Node5&#45;&gt;Node8</title>
<path fill="none" stroke="#63b8ff" d="M616.21,-219.89C623.97,-206.41 640.7,-180.3 661.5,-165 716.68,-124.4 739.72,-129.14 805.5,-110 813.85,-107.57 918.33,-86.54 979.56,-74.28"/>
<polygon fill="#63b8ff" stroke="#63b8ff" points="980.61,-77.64 989.72,-72.24 979.23,-70.77 980.61,-77.64"/>
</g>
<!-- Node11 -->
<g id="node11" class="node">
<title>Node11</title>
<g id="a_node11"><a xlink:title=" ">
<polygon fill="#e0e0e0" stroke="#999999" points="614.5,-184 552.5,-184 552.5,-165 614.5,-165 614.5,-184"/>
<text text-anchor="middle" x="583.5" y="-172" font-family="Helvetica,sans-Serif" font-size="10.00">CCStdC.h</text>
</a>
</g>
</g>
<!-- Node5&#45;&gt;Node11 -->
<g id="edge11" class="edge">
<title>Node5&#45;&gt;Node11</title>
<path fill="none" stroke="#63b8ff" d="M606.88,-219.75C603.04,-212.49 597.48,-201.95 592.74,-192.98"/>
<polygon fill="#63b8ff" stroke="#63b8ff" points="595.8,-191.3 588.04,-184.09 589.61,-194.57 595.8,-191.3"/>
</g>
<!-- Node7 -->
<g id="node7" class="node">
<title>Node7</title>
<g id="a_node7"><a xlink:href="../../d3/d41/_c_c_platform_macros_8h.html" target="_top" xlink:title=" ">
<polygon fill="white" stroke="#666666" points="930.5,-129 814.5,-129 814.5,-110 930.5,-110 930.5,-129"/>
<text text-anchor="middle" x="872.5" y="-117" font-family="Helvetica,sans-Serif" font-size="10.00">CCPlatformMacros.h</text>
</a>
</g>
</g>
<!-- Node6&#45;&gt;Node7 -->
<g id="edge6" class="edge">
<title>Node6&#45;&gt;Node7</title>
<path fill="none" stroke="#63b8ff" d="M756.67,-164.98C779.27,-156.3 814.56,-142.75 840.25,-132.88"/>
<polygon fill="#63b8ff" stroke="#63b8ff" points="841.84,-136.02 849.92,-129.17 839.33,-129.49 841.84,-136.02"/>
</g>
<!-- Node7&#45;&gt;Node8 -->
<g id="edge7" class="edge">
<title>Node7&#45;&gt;Node8</title>
<path fill="none" stroke="#63b8ff" d="M896.76,-109.98C921.82,-101.19 961.13,-87.39 989.33,-77.49"/>
<polygon fill="#63b8ff" stroke="#63b8ff" points="990.52,-80.78 998.8,-74.17 988.2,-74.18 990.52,-80.78"/>
</g>
<!-- Node9 -->
<g id="node9" class="node">
<title>Node9</title>
<g id="a_node9"><a xlink:href="../../dd/d96/_c_c_platform_config_8h.html" target="_top" xlink:title=" ">
<polygon fill="white" stroke="#666666" points="1005,-19 848,-19 848,0 1005,0 1005,-19"/>
<text text-anchor="middle" x="926.5" y="-7" font-family="Helvetica,sans-Serif" font-size="10.00">platform/CCPlatformConfig.h</text>
</a>
</g>
</g>
<!-- Node7&#45;&gt;Node9 -->
<g id="edge9" class="edge">
<title>Node7&#45;&gt;Node9</title>
<path fill="none" stroke="#63b8ff" d="M864.83,-109.87C854.61,-97.25 838.95,-73.28 849.5,-55 857.92,-40.41 873.15,-30.17 887.85,-23.23"/>
<polygon fill="#63b8ff" stroke="#63b8ff" points="889.57,-26.3 897.36,-19.13 886.79,-19.87 889.57,-26.3"/>
</g>
<!-- Node10 -->
<g id="node10" class="node">
<title>Node10</title>
<g id="a_node10"><a xlink:title=" ">
<polygon fill="#e0e0e0" stroke="#999999" points="972,-74 859,-74 859,-55 972,-55 972,-74"/>
<text text-anchor="middle" x="915.5" y="-62" font-family="Helvetica,sans-Serif" font-size="10.00">CCPlatformDefine.h</text>
</a>
</g>
</g>
<!-- Node7&#45;&gt;Node10 -->
<g id="edge10" class="edge">
<title>Node7&#45;&gt;Node10</title>
<path fill="none" stroke="#63b8ff" d="M879.6,-109.75C885.67,-102.26 894.59,-91.28 902.01,-82.13"/>
<polygon fill="#63b8ff" stroke="#63b8ff" points="904.95,-84.06 908.53,-74.09 899.51,-79.65 904.95,-84.06"/>
</g>
<!-- Node8&#45;&gt;Node9 -->
<g id="edge8" class="edge">
<title>Node8&#45;&gt;Node9</title>
<path fill="none" stroke="#63b8ff" d="M1007.92,-54.98C992.73,-46.69 969.4,-33.94 951.6,-24.22"/>
<polygon fill="#63b8ff" stroke="#63b8ff" points="952.82,-20.89 942.37,-19.17 949.47,-27.04 952.82,-20.89"/>
</g>
<!-- Node12&#45;&gt;Node7 -->
<g id="edge22" class="edge">
<title>Node12&#45;&gt;Node7</title>
<path fill="none" stroke="#63b8ff" d="M835.31,-406.76C832.66,-386.48 826.5,-334.59 826.5,-291 826.5,-291 826.5,-291 826.5,-228.5 826.5,-194.04 846.57,-157.98 860.2,-137.47"/>
<polygon fill="#63b8ff" stroke="#63b8ff" points="863.1,-139.42 865.91,-129.2 857.35,-135.44 863.1,-139.42"/>
</g>
<!-- Node13 -->
<g id="node13" class="node">
<title>Node13</title>
<g id="a_node13"><a xlink:href="../../d6/d09/_c_c_geometry_8h.html" target="_top" xlink:title=" ">
<polygon fill="white" stroke="#666666" points="1420.5,-365.5 1334.5,-365.5 1334.5,-346.5 1420.5,-346.5 1420.5,-365.5"/>
<text text-anchor="middle" x="1377.5" y="-353.5" font-family="Helvetica,sans-Serif" font-size="10.00">CCGeometry.h</text>
</a>
</g>
</g>
<!-- Node12&#45;&gt;Node13 -->
<g id="edge14" class="edge">
<title>Node12&#45;&gt;Node13</title>
<path fill="none" stroke="#63b8ff" d="M910.59,-407.49C1021.3,-395.52 1227.24,-373.25 1324.29,-362.75"/>
<polygon fill="#63b8ff" stroke="#63b8ff" points="1324.89,-366.21 1334.46,-361.65 1324.14,-359.25 1324.89,-366.21"/>
</g>
<!-- Node13&#45;&gt;Node7 -->
<g id="edge15" class="edge">
<title>Node13&#45;&gt;Node7</title>
<path fill="none" stroke="#63b8ff" d="M1360.09,-346.46C1315.99,-324.89 1196.25,-266.58 1095.5,-220 1026.24,-187.98 944.14,-151.8 901.49,-133.14"/>
<polygon fill="#63b8ff" stroke="#63b8ff" points="902.83,-129.91 892.27,-129.11 900.03,-136.32 902.83,-129.91"/>
</g>
<!-- Node14 -->
<g id="node14" class="node">
<title>Node14</title>
<g id="a_node14"><a xlink:href="../../dd/d69/_c_c_object_8h.html" target="_top" xlink:title=" ">
<polygon fill="white" stroke="#666666" points="1076,-299.5 1005,-299.5 1005,-280.5 1076,-280.5 1076,-299.5"/>
<text text-anchor="middle" x="1040.5" y="-287.5" font-family="Helvetica,sans-Serif" font-size="10.00">CCObject.h</text>
</a>
</g>
</g>
<!-- Node13&#45;&gt;Node14 -->
<g id="edge16" class="edge">
<title>Node13&#45;&gt;Node14</title>
<path fill="none" stroke="#63b8ff" d="M1344.43,-346.5C1336.6,-344.59 1328.28,-342.65 1320.5,-341 1238.19,-323.56 1141.4,-307.19 1085.88,-298.18"/>
<polygon fill="#63b8ff" stroke="#63b8ff" points="1086.43,-294.73 1076,-296.59 1085.32,-301.64 1086.43,-294.73"/>
</g>
<!-- Node17 -->
<g id="node17" class="node">
<title>Node17</title>
<g id="a_node17"><a xlink:title=" ">
<polygon fill="#e0e0e0" stroke="#999999" points="1403,-299.5 1352,-299.5 1352,-280.5 1403,-280.5 1403,-299.5"/>
<text text-anchor="middle" x="1377.5" y="-287.5" font-family="Helvetica,sans-Serif" font-size="10.00">math.h</text>
</a>
</g>
</g>
<!-- Node13&#45;&gt;Node17 -->
<g id="edge21" class="edge">
<title>Node13&#45;&gt;Node17</title>
<path fill="none" stroke="#63b8ff" d="M1377.5,-346.37C1377.5,-337.16 1377.5,-322.29 1377.5,-310.27"/>
<polygon fill="#63b8ff" stroke="#63b8ff" points="1381,-309.91 1377.5,-299.91 1374,-309.91 1381,-309.91"/>
</g>
<!-- Node14&#45;&gt;Node5 -->
<g id="edge20" class="edge">
<title>Node14&#45;&gt;Node5</title>
<path fill="none" stroke="#63b8ff" d="M1004.66,-284.11C926.97,-273.52 743.11,-248.45 657.21,-236.73"/>
<polygon fill="#63b8ff" stroke="#63b8ff" points="657.62,-233.26 647.24,-235.37 656.67,-240.19 657.62,-233.26"/>
</g>
<!-- Node15 -->
<g id="node15" class="node">
<title>Node15</title>
<g id="a_node15"><a xlink:href="../../d9/d2d/_c_c_data_visitor_8h.html" target="_top" xlink:title=" ">
<polygon fill="white" stroke="#666666" points="1087,-239 994,-239 994,-220 1087,-220 1087,-239"/>
<text text-anchor="middle" x="1040.5" y="-227" font-family="Helvetica,sans-Serif" font-size="10.00">CCDataVisitor.h</text>
</a>
</g>
</g>
<!-- Node14&#45;&gt;Node15 -->
<g id="edge17" class="edge">
<title>Node14&#45;&gt;Node15</title>
<path fill="none" stroke="#63b8ff" d="M1040.5,-280.37C1040.5,-272.25 1040.5,-259.81 1040.5,-249.39"/>
<polygon fill="#63b8ff" stroke="#63b8ff" points="1044,-249.17 1040.5,-239.17 1037,-249.17 1044,-249.17"/>
</g>
<!-- Node15&#45;&gt;Node7 -->
<g id="edge18" class="edge">
<title>Node15&#45;&gt;Node7</title>
<path fill="none" stroke="#63b8ff" d="M1027.04,-219.84C998.16,-201.28 930.04,-157.49 894.67,-134.75"/>
<polygon fill="#63b8ff" stroke="#63b8ff" points="896.33,-131.66 886.03,-129.2 892.55,-137.55 896.33,-131.66"/>
</g>
<!-- Node15&#45;&gt;Node16 -->
<g id="edge19" class="edge">
<title>Node15&#45;&gt;Node16</title>
<path fill="none" stroke="#63b8ff" d="M1087.24,-224.75C1213.9,-214.6 1561.41,-186.73 1669.19,-178.09"/>
<polygon fill="#63b8ff" stroke="#63b8ff" points="1669.74,-181.56 1679.43,-177.27 1669.18,-174.58 1669.74,-181.56"/>
</g>
<!-- Node19 -->
<g id="node19" class="node">
<title>Node19</title>
<g id="a_node19"><a xlink:title=" ">
<polygon fill="#e0e0e0" stroke="#999999" points="445.5,-305 325.5,-305 325.5,-275 445.5,-275 445.5,-305"/>
<text text-anchor="start" x="333.5" y="-293" font-family="Helvetica,sans-Serif" font-size="10.00">support/data_support</text>
<text text-anchor="middle" x="385.5" y="-282" font-family="Helvetica,sans-Serif" font-size="10.00">/ccCArray.h</text>
</a>
</g>
</g>
<!-- Node18&#45;&gt;Node19 -->
<g id="edge24" class="edge">
<title>Node18&#45;&gt;Node19</title>
<path fill="none" stroke="#63b8ff" d="M385.5,-346.37C385.5,-338.49 385.5,-326.45 385.5,-315.6"/>
<polygon fill="#63b8ff" stroke="#63b8ff" points="389,-315.36 385.5,-305.36 382,-315.36 389,-315.36"/>
</g>
<!-- Node21&#45;&gt;Node7 -->
<g id="edge28" class="edge">
<title>Node21&#45;&gt;Node7</title>
<path fill="none" stroke="#63b8ff" d="M453.57,-406.97C474.44,-388.28 520.5,-341.32 520.5,-291 520.5,-291 520.5,-291 520.5,-228.5 520.5,-198.48 520.14,-183.85 543.5,-165 582.46,-133.57 720,-124.3 804.42,-121.6"/>
<polygon fill="#63b8ff" stroke="#63b8ff" points="804.55,-125.09 814.44,-121.3 804.34,-118.1 804.55,-125.09"/>
</g>
<!-- Node21&#45;&gt;Node20 -->
<g id="edge27" class="edge">
<title>Node21&#45;&gt;Node20</title>
<path fill="none" stroke="#63b8ff" d="M477.96,-406.99C522.39,-396.03 599.28,-377.05 644.46,-365.9"/>
<polygon fill="#63b8ff" stroke="#63b8ff" points="645.54,-369.23 654.41,-363.44 643.86,-362.44 645.54,-369.23"/>
</g>
<!-- Node22&#45;&gt;Node5 -->
<g id="edge30" class="edge">
<title>Node22&#45;&gt;Node5</title>
<path fill="none" stroke="#63b8ff" d="M601.98,-406.58C603.52,-378.07 608.35,-288.74 610.48,-249.41"/>
<polygon fill="#63b8ff" stroke="#63b8ff" points="613.98,-249.51 611.02,-239.33 606.99,-249.13 613.98,-249.51"/>
</g>
<!-- Node22&#45;&gt;Node14 -->
<g id="edge31" class="edge">
<title>Node22&#45;&gt;Node14</title>
<path fill="none" stroke="#63b8ff" d="M603.86,-406.83C608.7,-390.83 621.4,-356.84 645.5,-341 702.09,-303.79 903.47,-294.25 994.83,-291.82"/>
<polygon fill="#63b8ff" stroke="#63b8ff" points="994.98,-295.32 1004.89,-291.57 994.81,-288.32 994.98,-295.32"/>
</g>
<!-- Node22&#45;&gt;Node20 -->
<g id="edge32" class="edge">
<title>Node22&#45;&gt;Node20</title>
<path fill="none" stroke="#63b8ff" d="M613.16,-406.87C625.64,-397.62 645.68,-382.78 660.66,-371.69"/>
<polygon fill="#63b8ff" stroke="#63b8ff" points="662.84,-374.43 668.8,-365.67 658.68,-368.81 662.84,-374.43"/>
</g>
<!-- Node24&#45;&gt;Node6 -->
<g id="edge35" class="edge">
<title>Node24&#45;&gt;Node6</title>
<path fill="none" stroke="#63b8ff" d="M990.13,-469.08C906.16,-465.89 787.78,-456.01 753.5,-426 729.57,-405.05 734.5,-388.81 734.5,-357 734.5,-357 734.5,-357 734.5,-289 734.5,-255.61 734.5,-216.69 734.5,-194.19"/>
<polygon fill="#63b8ff" stroke="#63b8ff" points="738,-194.04 734.5,-184.04 731,-194.04 738,-194.04"/>
</g>
<!-- Node24&#45;&gt;Node16 -->
<g id="edge44" class="edge">
<title>Node24&#45;&gt;Node16</title>
<path fill="none" stroke="#63b8ff" d="M1166.83,-470.04C1257.43,-467.73 1390.33,-458.65 1428.5,-426 1452.76,-405.25 1448.5,-388.93 1448.5,-357 1448.5,-357 1448.5,-357 1448.5,-289 1448.5,-193.27 1601.17,-177.78 1669.31,-175.63"/>
<polygon fill="#63b8ff" stroke="#63b8ff" points="1669.58,-179.13 1679.49,-175.39 1669.41,-172.13 1669.58,-179.13"/>
</g>
<!-- Node25 -->
<g id="node25" class="node">
<title>Node25</title>
<g id="a_node25"><a xlink:title=" ">
<polygon fill="#e0e0e0" stroke="#999999" points="1248.5,-426 1138.5,-426 1138.5,-407 1248.5,-407 1248.5,-426"/>
<text text-anchor="middle" x="1193.5" y="-414" font-family="Helvetica,sans-Serif" font-size="10.00">CCAccelerometer.h</text>
</a>
</g>
</g>
<!-- Node24&#45;&gt;Node25 -->
<g id="edge36" class="edge">
<title>Node24&#45;&gt;Node25</title>
<path fill="none" stroke="#63b8ff" d="M1096.98,-461.98C1115.48,-453.46 1144.18,-440.23 1165.48,-430.41"/>
<polygon fill="#63b8ff" stroke="#63b8ff" points="1167.07,-433.53 1174.69,-426.17 1164.14,-427.18 1167.07,-433.53"/>
</g>
<!-- Node26 -->
<g id="node26" class="node">
<title>Node26</title>
<g id="a_node26"><a xlink:href="../../d3/dff/_c_c_touch_8h.html" target="_top" xlink:title=" ">
<polygon fill="white" stroke="#666666" points="1420,-426 1267,-426 1267,-407 1420,-407 1420,-426"/>
<text text-anchor="middle" x="1343.5" y="-414" font-family="Helvetica,sans-Serif" font-size="10.00">touch_dispatcher/CCTouch.h</text>
</a>
</g>
</g>
<!-- Node24&#45;&gt;Node26 -->
<g id="edge37" class="edge">
<title>Node24&#45;&gt;Node26</title>
<path fill="none" stroke="#63b8ff" d="M1121.08,-461.98C1167.2,-452.76 1240.86,-438.03 1290.66,-428.07"/>
<polygon fill="#63b8ff" stroke="#63b8ff" points="1291.47,-431.48 1300.59,-426.08 1290.1,-424.61 1291.47,-431.48"/>
</g>
<!-- Node27 -->
<g id="node27" class="node">
<title>Node27</title>
<g id="a_node27"><a xlink:href="../../da/ddc/_c_c_set_8h.html" target="_top" xlink:title=" ">
<polygon fill="white" stroke="#666666" points="1014.5,-426 928.5,-426 928.5,-407 1014.5,-407 1014.5,-426"/>
<text text-anchor="middle" x="971.5" y="-414" font-family="Helvetica,sans-Serif" font-size="10.00">cocoa/CCSet.h</text>
</a>
</g>
</g>
<!-- Node24&#45;&gt;Node27 -->
<g id="edge40" class="edge">
<title>Node24&#45;&gt;Node27</title>
<path fill="none" stroke="#63b8ff" d="M1061.31,-461.98C1044.25,-453.54 1017.87,-440.47 998.1,-430.68"/>
<polygon fill="#63b8ff" stroke="#63b8ff" points="999.52,-427.47 989,-426.17 996.41,-433.75 999.52,-427.47"/>
</g>
<!-- Node29 -->
<g id="node29" class="node">
<title>Node29</title>
<g id="a_node29"><a xlink:title=" ">
<polygon fill="#e0e0e0" stroke="#999999" points="1070.5,-426 1032.5,-426 1032.5,-407 1070.5,-407 1070.5,-426"/>
<text text-anchor="middle" x="1051.5" y="-414" font-family="Helvetica,sans-Serif" font-size="10.00">map</text>
</a>
</g>
</g>
<!-- Node24&#45;&gt;Node29 -->
<g id="edge43" class="edge">
<title>Node24&#45;&gt;Node29</title>
<path fill="none" stroke="#63b8ff" d="M1074.04,-461.75C1070.38,-454.57 1065.09,-444.18 1060.55,-435.27"/>
<polygon fill="#63b8ff" stroke="#63b8ff" points="1063.53,-433.41 1055.88,-426.09 1057.3,-436.59 1063.53,-433.41"/>
</g>
<!-- Node30 -->
<g id="node30" class="node">
<title>Node30</title>
<g id="a_node30"><a xlink:title=" ">
<polygon fill="#e0e0e0" stroke="#999999" points="1120.5,-426 1088.5,-426 1088.5,-407 1120.5,-407 1120.5,-426"/>
<text text-anchor="middle" x="1104.5" y="-414" font-family="Helvetica,sans-Serif" font-size="10.00">list</text>
</a>
</g>
</g>
<!-- Node24&#45;&gt;Node30 -->
<g id="edge45" class="edge">
<title>Node24&#45;&gt;Node30</title>
<path fill="none" stroke="#63b8ff" d="M1082.79,-461.75C1086.31,-454.57 1091.41,-444.18 1095.78,-435.27"/>
<polygon fill="#63b8ff" stroke="#63b8ff" points="1099.02,-436.61 1100.29,-426.09 1092.74,-433.53 1099.02,-436.61"/>
</g>
<!-- Node26&#45;&gt;Node13 -->
<g id="edge39" class="edge">
<title>Node26&#45;&gt;Node13</title>
<path fill="none" stroke="#63b8ff" d="M1348.52,-406.87C1353.44,-398.4 1361.09,-385.24 1367.29,-374.57"/>
<polygon fill="#63b8ff" stroke="#63b8ff" points="1370.46,-376.07 1372.46,-365.67 1364.41,-372.55 1370.46,-376.07"/>
</g>
<!-- Node26&#45;&gt;Node14 -->
<g id="edge38" class="edge">
<title>Node26&#45;&gt;Node14</title>
<path fill="none" stroke="#63b8ff" d="M1322.67,-406.94C1270.24,-385.4 1132.58,-328.84 1071.02,-303.54"/>
<polygon fill="#63b8ff" stroke="#63b8ff" points="1072.05,-300.18 1061.47,-299.62 1069.39,-306.66 1072.05,-300.18"/>
</g>
<!-- Node27&#45;&gt;Node14 -->
<g id="edge42" class="edge">
<title>Node27&#45;&gt;Node14</title>
<path fill="none" stroke="#63b8ff" d="M972.23,-406.68C973.75,-392.13 978.22,-362.58 990.5,-341 998.17,-327.53 1010.43,-315.19 1020.9,-306.13"/>
<polygon fill="#63b8ff" stroke="#63b8ff" points="1023.3,-308.69 1028.78,-299.62 1018.84,-303.29 1023.3,-308.69"/>
</g>
<!-- Node28 -->
<g id="node28" class="node">
<title>Node28</title>
<g id="a_node28"><a xlink:title=" ">
<polygon fill="#e0e0e0" stroke="#999999" points="1031.5,-365.5 999.5,-365.5 999.5,-346.5 1031.5,-346.5 1031.5,-365.5"/>
<text text-anchor="middle" x="1015.5" y="-353.5" font-family="Helvetica,sans-Serif" font-size="10.00">set</text>
</a>
</g>
</g>
<!-- Node27&#45;&gt;Node28 -->
<g id="edge41" class="edge">
<title>Node27&#45;&gt;Node28</title>
<path fill="none" stroke="#63b8ff" d="M977.99,-406.87C984.49,-398.23 994.66,-384.7 1002.78,-373.92"/>
<polygon fill="#63b8ff" stroke="#63b8ff" points="1005.77,-375.76 1008.98,-365.67 1000.17,-371.56 1005.77,-375.76"/>
</g>
<!-- Node31&#45;&gt;Node16 -->
<g id="edge56" class="edge">
<title>Node31&#45;&gt;Node16</title>
<path fill="none" stroke="#63b8ff" d="M1516.52,-523.29C1582.67,-519.04 1707.09,-507.66 1741.5,-481 1789.16,-444.07 1796.5,-417.29 1796.5,-357 1796.5,-357 1796.5,-357 1796.5,-289 1796.5,-244.71 1753.44,-208.61 1725.3,-189.75"/>
<polygon fill="#63b8ff" stroke="#63b8ff" points="1727.06,-186.72 1716.76,-184.24 1723.27,-192.6 1727.06,-186.72"/>
</g>
<!-- Node31&#45;&gt;Node32 -->
<g id="edge47" class="edge">
<title>Node31&#45;&gt;Node32</title>
<path fill="none" stroke="#63b8ff" d="M1461.11,-516.96C1444.18,-505.03 1418.58,-482.53 1430.5,-462 1439.04,-447.29 1454.47,-437.04 1469.36,-430.11"/>
<polygon fill="#63b8ff" stroke="#63b8ff" points="1471.16,-433.15 1479,-426.03 1468.42,-426.71 1471.16,-433.15"/>
</g>
<!-- Node31&#45;&gt;Node33 -->
<g id="edge51" class="edge">
<title>Node31&#45;&gt;Node33</title>
<path fill="none" stroke="#63b8ff" d="M1479.62,-516.75C1483.86,-509.49 1490.03,-498.95 1495.28,-489.98"/>
<polygon fill="#63b8ff" stroke="#63b8ff" points="1498.45,-491.49 1500.48,-481.09 1492.41,-487.95 1498.45,-491.49"/>
</g>
<!-- Node32&#45;&gt;Node13 -->
<g id="edge49" class="edge">
<title>Node32&#45;&gt;Node13</title>
<path fill="none" stroke="#63b8ff" d="M1489.45,-406.99C1467.53,-397.2 1431.29,-381.02 1406,-369.73"/>
<polygon fill="#63b8ff" stroke="#63b8ff" points="1407.13,-366.4 1396.57,-365.52 1404.28,-372.79 1407.13,-366.4"/>
</g>
<!-- Node32&#45;&gt;Node16 -->
<g id="edge48" class="edge">
<title>Node32&#45;&gt;Node16</title>
<path fill="none" stroke="#63b8ff" d="M1515.37,-406.96C1543.5,-371.97 1650.24,-239.24 1688.09,-192.17"/>
<polygon fill="#63b8ff" stroke="#63b8ff" points="1690.97,-194.18 1694.51,-184.19 1685.52,-189.79 1690.97,-194.18"/>
</g>
<!-- Node32&#45;&gt;Node20 -->
<g id="edge50" class="edge">
<title>Node32&#45;&gt;Node20</title>
<path fill="none" stroke="#63b8ff" d="M1476.22,-411.78C1461.65,-410.18 1444.22,-408.36 1428.5,-407 1155.25,-383.36 825.01,-364.76 716.76,-358.92"/>
<polygon fill="#63b8ff" stroke="#63b8ff" points="716.87,-355.42 706.7,-358.38 716.49,-362.41 716.87,-355.42"/>
</g>
<!-- Node33&#45;&gt;Node13 -->
<g id="edge54" class="edge">
<title>Node33&#45;&gt;Node13</title>
<path fill="none" stroke="#63b8ff" d="M1531.13,-461.95C1560.06,-450.93 1600.86,-430.37 1582.5,-407 1563.95,-383.39 1485.09,-369.51 1430.77,-362.59"/>
<polygon fill="#63b8ff" stroke="#63b8ff" points="1430.95,-359.08 1420.6,-361.33 1430.1,-366.03 1430.95,-359.08"/>
</g>
<!-- Node33&#45;&gt;Node14 -->
<g id="edge53" class="edge">
<title>Node33&#45;&gt;Node14</title>
<path fill="none" stroke="#63b8ff" d="M1518.97,-461.89C1537.04,-449.3 1565.16,-425.38 1549.5,-407 1516.8,-368.63 1374.74,-381.83 1325.5,-371 1278.12,-360.58 1145.6,-322.01 1079.3,-302.49"/>
<polygon fill="#63b8ff" stroke="#63b8ff" points="1080.22,-299.11 1069.64,-299.64 1078.24,-305.82 1080.22,-299.11"/>
</g>
<!-- Node33&#45;&gt;Node16 -->
<g id="edge52" class="edge">
<title>Node33&#45;&gt;Node16</title>
<path fill="none" stroke="#63b8ff" d="M1571.76,-463.39C1634.93,-452.5 1720.5,-425.17 1720.5,-357 1720.5,-357 1720.5,-357 1720.5,-289 1720.5,-255.16 1712.18,-216.41 1706.55,-194.07"/>
<polygon fill="#63b8ff" stroke="#63b8ff" points="1709.9,-193.03 1703.98,-184.25 1703.13,-194.81 1709.9,-193.03"/>
</g>
<!-- Node33&#45;&gt;Node32 -->
<g id="edge55" class="edge">
<title>Node33&#45;&gt;Node32</title>
<path fill="none" stroke="#63b8ff" d="M1506,-461.75C1506.39,-454.8 1506.95,-444.85 1507.45,-436.13"/>
<polygon fill="#63b8ff" stroke="#63b8ff" points="1510.94,-436.27 1508.01,-426.09 1503.95,-435.88 1510.94,-436.27"/>
</g>
<!-- Node34&#45;&gt;Node8 -->
<g id="edge61" class="edge">
<title>Node34&#45;&gt;Node8</title>
<path fill="none" stroke="#63b8ff" d="M1688.65,-461.85C1745.64,-441.81 1872.5,-386.47 1872.5,-291 1872.5,-291 1872.5,-291 1872.5,-173.5 1872.5,-91.46 1240.56,-70.59 1067.09,-66.41"/>
<polygon fill="#63b8ff" stroke="#63b8ff" points="1067.12,-62.91 1057.04,-66.17 1066.96,-69.91 1067.12,-62.91"/>
</g>
<!-- Node34&#45;&gt;Node14 -->
<g id="edge60" class="edge">
<title>Node34&#45;&gt;Node14</title>
<path fill="none" stroke="#63b8ff" d="M1655.16,-461.97C1644.83,-448.59 1623.15,-422.63 1599.5,-407 1531.88,-362.32 1508.05,-360.98 1429.5,-341 1307.95,-310.08 1159.94,-297.77 1086.46,-293.3"/>
<polygon fill="#63b8ff" stroke="#63b8ff" points="1086.36,-289.79 1076.17,-292.69 1085.95,-296.77 1086.36,-289.79"/>
</g>
<!-- Node34&#45;&gt;Node16 -->
<g id="edge62" class="edge">
<title>Node34&#45;&gt;Node16</title>
<path fill="none" stroke="#63b8ff" d="M1683.48,-461.95C1699.66,-454.63 1721.08,-442.63 1734.5,-426 1754.89,-400.73 1758.5,-389.47 1758.5,-357 1758.5,-357 1758.5,-357 1758.5,-289 1758.5,-251.18 1732.92,-213.1 1716.03,-192.07"/>
<polygon fill="#63b8ff" stroke="#63b8ff" points="1718.52,-189.59 1709.43,-184.16 1713.15,-194.08 1718.52,-189.59"/>
</g>
<!-- Node34&#45;&gt;Node32 -->
<g id="edge59" class="edge">
<title>Node34&#45;&gt;Node32</title>
<path fill="none" stroke="#63b8ff" d="M1636.92,-461.98C1611.45,-453.16 1571.46,-439.31 1542.87,-429.41"/>
<polygon fill="#63b8ff" stroke="#63b8ff" points="1543.87,-426.05 1533.27,-426.08 1541.58,-432.66 1543.87,-426.05"/>
</g>
<!-- Node35&#45;&gt;Node14 -->
<g id="edge66" class="edge">
<title>Node35&#45;&gt;Node14</title>
<path fill="none" stroke="#63b8ff" d="M232.16,-406.85C247.39,-398.26 271.02,-384.47 290.5,-371 308.2,-358.76 308.43,-348.77 328.5,-341 450.71,-293.71 856.93,-290.43 994.5,-290.72"/>
<polygon fill="#63b8ff" stroke="#63b8ff" points="994.68,-294.22 1004.69,-290.75 994.7,-287.22 994.68,-294.22"/>
</g>
<!-- Node35&#45;&gt;Node18 -->
<g id="edge67" class="edge">
<title>Node35&#45;&gt;Node18</title>
<path fill="none" stroke="#63b8ff" d="M241.07,-406.99C270.11,-396.94 318.6,-380.16 351.3,-368.84"/>
<polygon fill="#63b8ff" stroke="#63b8ff" points="352.59,-372.1 360.9,-365.52 350.3,-365.48 352.59,-372.1"/>
</g>
<!-- Node36 -->
<g id="node36" class="node">
<title>Node36</title>
<g id="a_node36"><a xlink:title=" ">
<polygon fill="#e0e0e0" stroke="#999999" points="281.5,-371 161.5,-371 161.5,-341 281.5,-341 281.5,-371"/>
<text text-anchor="start" x="169.5" y="-359" font-family="Helvetica,sans-Serif" font-size="10.00">support/data_support</text>
<text text-anchor="middle" x="221.5" y="-348" font-family="Helvetica,sans-Serif" font-size="10.00">/uthash.h</text>
</a>
</g>
</g>
<!-- Node35&#45;&gt;Node36 -->
<g id="edge65" class="edge">
<title>Node35&#45;&gt;Node36</title>
<path fill="none" stroke="#63b8ff" d="M217.24,-406.87C217.82,-400.11 218.65,-390.35 219.43,-381.26"/>
<polygon fill="#63b8ff" stroke="#63b8ff" points="222.93,-381.38 220.29,-371.11 215.95,-380.78 222.93,-381.38"/>
</g>
<!-- Node37 -->
<g id="node37" class="node">
<title>Node37</title>
<g id="a_node37"><a xlink:href="../../d0/d8a/_c_c_string_8h.html" target="_top" xlink:title=" ">
<polygon fill="white" stroke="#666666" points="143.5,-365.5 75.5,-365.5 75.5,-346.5 143.5,-346.5 143.5,-365.5"/>
<text text-anchor="middle" x="109.5" y="-353.5" font-family="Helvetica,sans-Serif" font-size="10.00">CCString.h</text>
</a>
</g>
</g>
<!-- Node35&#45;&gt;Node37 -->
<g id="edge68" class="edge">
<title>Node35&#45;&gt;Node37</title>
<path fill="none" stroke="#63b8ff" d="M200.71,-406.87C183.17,-397.28 154.62,-381.67 134.13,-370.47"/>
<polygon fill="#63b8ff" stroke="#63b8ff" points="135.81,-367.39 125.35,-365.67 132.45,-373.54 135.81,-367.39"/>
</g>
<!-- Node37&#45;&gt;Node14 -->
<g id="edge73" class="edge">
<title>Node37&#45;&gt;Node14</title>
<path fill="none" stroke="#63b8ff" d="M131.98,-346.47C138.51,-344.33 145.71,-342.27 152.5,-341 316.43,-310.24 836.07,-295.79 994.32,-292.03"/>
<polygon fill="#63b8ff" stroke="#63b8ff" points="994.73,-295.52 1004.65,-291.78 994.57,-288.52 994.73,-295.52"/>
</g>
<!-- Node37&#45;&gt;Node16 -->
<g id="edge71" class="edge">
<title>Node37&#45;&gt;Node16</title>
<path fill="none" stroke="#63b8ff" d="M126.68,-346.4C161.5,-329.42 243.27,-291.8 316.5,-275 452.42,-243.82 1474.02,-187.72 1669.29,-177.22"/>
<polygon fill="#63b8ff" stroke="#63b8ff" points="1669.67,-180.7 1679.47,-176.67 1669.3,-173.71 1669.67,-180.7"/>
</g>
<!-- Node38 -->
<g id="node38" class="node">
<title>Node38</title>
<g id="a_node38"><a xlink:title=" ">
<polygon fill="#e0e0e0" stroke="#999999" points="136,-299.5 83,-299.5 83,-280.5 136,-280.5 136,-299.5"/>
<text text-anchor="middle" x="109.5" y="-287.5" font-family="Helvetica,sans-Serif" font-size="10.00">string.h</text>
</a>
</g>
</g>
<!-- Node37&#45;&gt;Node38 -->
<g id="edge69" class="edge">
<title>Node37&#45;&gt;Node38</title>
<path fill="none" stroke="#63b8ff" d="M109.5,-346.37C109.5,-337.16 109.5,-322.29 109.5,-310.27"/>
<polygon fill="#63b8ff" stroke="#63b8ff" points="113,-309.91 109.5,-299.91 106,-309.91 113,-309.91"/>
</g>
<!-- Node39 -->
<g id="node39" class="node">
<title>Node39</title>
<g id="a_node39"><a xlink:title=" ">
<polygon fill="#e0e0e0" stroke="#999999" points="210.5,-299.5 154.5,-299.5 154.5,-280.5 210.5,-280.5 210.5,-299.5"/>
<text text-anchor="middle" x="182.5" y="-287.5" font-family="Helvetica,sans-Serif" font-size="10.00">stdarg.h</text>
</a>
</g>
</g>
<!-- Node37&#45;&gt;Node39 -->
<g id="edge70" class="edge">
<title>Node37&#45;&gt;Node39</title>
<path fill="none" stroke="#63b8ff" d="M119.35,-346.37C130.93,-336.21 150.38,-319.16 164.64,-306.65"/>
<polygon fill="#63b8ff" stroke="#63b8ff" points="167.13,-309.13 172.34,-299.91 162.52,-303.87 167.13,-309.13"/>
</g>
<!-- Node40 -->
<g id="node40" class="node">
<title>Node40</title>
<g id="a_node40"><a xlink:title=" ">
<polygon fill="#e0e0e0" stroke="#999999" points="65,-299.5 0,-299.5 0,-280.5 65,-280.5 65,-299.5"/>
<text text-anchor="middle" x="32.5" y="-287.5" font-family="Helvetica,sans-Serif" font-size="10.00">functional</text>
</a>
</g>
</g>
<!-- Node37&#45;&gt;Node40 -->
<g id="edge72" class="edge">
<title>Node37&#45;&gt;Node40</title>
<path fill="none" stroke="#63b8ff" d="M99.12,-346.37C86.78,-336.12 65.99,-318.84 50.91,-306.31"/>
<polygon fill="#63b8ff" stroke="#63b8ff" points="53.14,-303.61 43.21,-299.91 48.67,-308.99 53.14,-303.61"/>
</g>
<!-- Node41&#45;&gt;Node13 -->
<g id="edge77" class="edge">
<title>Node41&#45;&gt;Node13</title>
<path fill="none" stroke="#63b8ff" d="M1840.77,-626.93C1831.47,-599.13 1798.48,-510.42 1741.5,-462 1651.39,-385.42 1508.31,-364.62 1431.11,-359.02"/>
<polygon fill="#63b8ff" stroke="#63b8ff" points="1430.88,-355.49 1420.67,-358.32 1430.41,-362.48 1430.88,-355.49"/>
</g>
<!-- Node42&#45;&gt;Node8 -->
<g id="edge80" class="edge">
<title>Node42&#45;&gt;Node8</title>
<path fill="none" stroke="#63b8ff" d="M1966.52,-340.72C1957.51,-317.87 1941.5,-271.49 1941.5,-230.5 1941.5,-230.5 1941.5,-230.5 1941.5,-173.5 1941.5,-136.16 1920.05,-126.38 1886.5,-110 1812.63,-73.93 1232.61,-67 1067.32,-65.76"/>
<polygon fill="#63b8ff" stroke="#63b8ff" points="1067.07,-62.26 1057.04,-65.68 1067.02,-69.26 1067.07,-62.26"/>
</g>
<!-- Node42&#45;&gt;Node14 -->
<g id="edge79" class="edge">
<title>Node42&#45;&gt;Node14</title>
<path fill="none" stroke="#63b8ff" d="M1900.14,-350.03C1716.58,-337.43 1236.69,-304.47 1086.27,-294.14"/>
<polygon fill="#63b8ff" stroke="#63b8ff" points="1086.24,-290.63 1076.02,-293.44 1085.76,-297.62 1086.24,-290.63"/>
</g>
</g>
</svg>
