<?xml version="1.0" encoding="UTF-8" standalone="no"?>
<!DOCTYPE svg PUBLIC "-//W3C//DTD SVG 1.1//EN"
 "http://www.w3.org/Graphics/SVG/1.1/DTD/svg11.dtd">
<!-- Generated by graphviz version 2.43.0 (0)
 -->
<!-- Title: CCParallaxNode Pages: 1 -->
<svg width="1184pt" height="742pt"
 viewBox="0.00 0.00 1184.00 741.62" xmlns="http://www.w3.org/2000/svg" xmlns:xlink="http://www.w3.org/1999/xlink">
<g id="graph0" class="graph" transform="scale(1 1) rotate(0) translate(4 737.62)">
<title>CCParallaxNode</title>
<!-- Node1 -->
<g id="node1" class="node">
<title>Node1</title>
<g id="a_node1"><a xlink:title="CCParallaxNode: A node that simulates a parallax scroller.">
<polygon fill="#bfbfbf" stroke="black" points="1081,-573.12 1081,-592.12 1176,-592.12 1176,-573.12 1081,-573.12"/>
<text text-anchor="middle" x="1128.5" y="-580.12" font-family="Helvetica,sans-Serif" font-size="10.00">CCParallaxNode</text>
</a>
</g>
</g>
<!-- Node2 -->
<g id="node2" class="node">
<title>Node2</title>
<g id="a_node2"><a xlink:href="../../d0/ded/classcocos2d_1_1_c_c_node.html" target="_top" xlink:title="CCNode is the main element.">
<polygon fill="none" stroke="black" points="988,-436.12 988,-455.12 1044,-455.12 1044,-436.12 988,-436.12"/>
<text text-anchor="middle" x="1016" y="-443.12" font-family="Helvetica,sans-Serif" font-size="10.00">CCNode</text>
</a>
</g>
</g>
<!-- Node2&#45;&gt;Node1 -->
<g id="edge1" class="edge">
<title>Node2&#45;&gt;Node1</title>
<path fill="none" stroke="midnightblue" d="M1031.51,-463.62C1055.16,-492.94 1101.22,-550.04 1119.63,-572.86"/>
<polygon fill="midnightblue" stroke="midnightblue" points="1033.95,-461.06 1024.95,-455.48 1028.5,-465.46 1033.95,-461.06"/>
</g>
<!-- Node2&#45;&gt;Node2 -->
<g id="edge23" class="edge">
<title>Node2&#45;&gt;Node2</title>
<path fill="none" stroke="#9a32cd" stroke-dasharray="5,2" d="M1007.53,-465.39C1008.19,-470.12 1011.02,-473.62 1016,-473.62 1024.18,-473.62 1026.54,-464.19 1023.09,-455.38"/>
<polygon fill="#9a32cd" stroke="#9a32cd" points="1011.01,-465.77 1008.91,-455.38 1004.08,-464.81 1011.01,-465.77"/>
<text text-anchor="middle" x="1016" y="-476.62" font-family="Helvetica,sans-Serif" font-size="10.00"> m_pParent</text>
</g>
<!-- Node3 -->
<g id="node3" class="node">
<title>Node3</title>
<g id="a_node3"><a xlink:href="../../d3/dbf/classcocos2d_1_1_c_c_object.html" target="_top" xlink:title="NA.">
<polygon fill="none" stroke="black" points="107,-221.12 107,-240.12 169,-240.12 169,-221.12 107,-221.12"/>
<text text-anchor="middle" x="138" y="-228.12" font-family="Helvetica,sans-Serif" font-size="10.00">CCObject</text>
</a>
</g>
</g>
<!-- Node3&#45;&gt;Node2 -->
<g id="edge2" class="edge">
<title>Node3&#45;&gt;Node2</title>
<path fill="none" stroke="midnightblue" d="M139.32,-250.48C140.69,-308 148.02,-472.73 187,-505.62 239.37,-549.81 894.21,-543.63 970,-505.62 990.95,-495.12 1004.69,-469.72 1011,-455.57"/>
<polygon fill="midnightblue" stroke="midnightblue" points="142.81,-250.13 139.11,-240.2 135.81,-250.27 142.81,-250.13"/>
</g>
<!-- Node3&#45;&gt;Node2 -->
<g id="edge24" class="edge">
<title>Node3&#45;&gt;Node2</title>
<path fill="none" stroke="#9a32cd" stroke-dasharray="5,2" d="M138.27,-250.42C137.16,-311.3 142.65,-491.62 247,-491.62 247,-491.62 247,-491.62 758,-491.62 842.99,-491.62 941.35,-466.95 987.9,-453.74"/>
<polygon fill="#9a32cd" stroke="#9a32cd" points="141.78,-250.31 138.55,-240.22 134.78,-250.13 141.78,-250.31"/>
<text text-anchor="middle" x="500" y="-494.62" font-family="Helvetica,sans-Serif" font-size="10.00"> m_pUserObject</text>
</g>
<!-- Node8 -->
<g id="node8" class="node">
<title>Node8</title>
<g id="a_node8"><a xlink:href="../../d2/d51/classcocos2d_1_1_c_c_camera.html" target="_top" xlink:title="A CCCamera is used in every CCNode.">
<polygon fill="none" stroke="black" points="336,-430.12 336,-449.12 404,-449.12 404,-430.12 336,-430.12"/>
<text text-anchor="middle" x="370" y="-437.12" font-family="Helvetica,sans-Serif" font-size="10.00">CCCamera</text>
</a>
</g>
</g>
<!-- Node3&#45;&gt;Node8 -->
<g id="edge8" class="edge">
<title>Node3&#45;&gt;Node8</title>
<path fill="none" stroke="midnightblue" d="M141.02,-250.45C145.72,-285.91 160.7,-360.14 206,-399.62 242.35,-431.31 299.83,-438.75 335.92,-440.04"/>
<polygon fill="midnightblue" stroke="midnightblue" points="144.48,-249.92 139.83,-240.4 137.53,-250.74 144.48,-249.92"/>
</g>
<!-- Node9 -->
<g id="node9" class="node">
<title>Node9</title>
<g id="a_node9"><a xlink:href="../../d6/d70/classcocos2d_1_1_c_c_grid_base.html" target="_top" xlink:title="Base class for other.">
<polygon fill="none" stroke="black" points="720,-313.12 720,-332.12 794,-332.12 794,-313.12 720,-313.12"/>
<text text-anchor="middle" x="757" y="-320.12" font-family="Helvetica,sans-Serif" font-size="10.00">CCGridBase</text>
</a>
</g>
</g>
<!-- Node3&#45;&gt;Node9 -->
<g id="edge10" class="edge">
<title>Node3&#45;&gt;Node9</title>
<path fill="none" stroke="midnightblue" d="M179.32,-224.76C288.16,-209.68 585.49,-173.56 672,-215.62 714.69,-236.38 742.13,-290.51 751.95,-312.8"/>
<polygon fill="midnightblue" stroke="midnightblue" points="178.51,-221.34 169.09,-226.2 179.48,-228.27 178.51,-221.34"/>
</g>
<!-- Node10 -->
<g id="node10" class="node">
<title>Node10</title>
<g id="a_node10"><a xlink:href="../../d7/dfd/classcocos2d_1_1_c_c_texture2_d.html" target="_top" xlink:title="CCTexture2D class.">
<polygon fill="none" stroke="black" points="460,-313.12 460,-332.12 540,-332.12 540,-313.12 460,-313.12"/>
<text text-anchor="middle" x="500" y="-320.12" font-family="Helvetica,sans-Serif" font-size="10.00">CCTexture2D</text>
</a>
</g>
</g>
<!-- Node3&#45;&gt;Node10 -->
<g id="edge13" class="edge">
<title>Node3&#45;&gt;Node10</title>
<path fill="none" stroke="midnightblue" d="M160.31,-246.24C173.09,-255.11 189.95,-265.95 206,-273.62 249.11,-294.24 261.17,-298.13 308,-307.62 359.83,-318.13 420.96,-321.37 459.84,-322.32"/>
<polygon fill="midnightblue" stroke="midnightblue" points="161.97,-243.13 151.78,-240.2 157.92,-248.84 161.97,-243.13"/>
</g>
<!-- Node11 -->
<g id="node11" class="node">
<title>Node11</title>
<g id="a_node11"><a xlink:href="../../db/d28/classcocos2d_1_1_c_c_g_l_program.html" target="_top" xlink:title="CCGLProgram Class that implements a glProgram.">
<polygon fill="none" stroke="black" points="206,-245.12 206,-264.12 290,-264.12 290,-245.12 206,-245.12"/>
<text text-anchor="middle" x="248" y="-252.12" font-family="Helvetica,sans-Serif" font-size="10.00">CCGLProgram</text>
</a>
</g>
</g>
<!-- Node3&#45;&gt;Node11 -->
<g id="edge16" class="edge">
<title>Node3&#45;&gt;Node11</title>
<path fill="none" stroke="midnightblue" d="M179.03,-239.52C187.76,-241.46 197.01,-243.51 205.78,-245.46"/>
<polygon fill="midnightblue" stroke="midnightblue" points="179.61,-236.06 169.08,-237.31 178.09,-242.9 179.61,-236.06"/>
</g>
<!-- Node12 -->
<g id="node12" class="node">
<title>Node12</title>
<g id="a_node12"><a xlink:href="../../d3/d89/classcocos2d_1_1_c_c_grabber.html" target="_top" xlink:title="FBO class that grabs the the contents of the screen NA NA.">
<polygon fill="none" stroke="black" points="335.5,-152.12 335.5,-171.12 404.5,-171.12 404.5,-152.12 335.5,-152.12"/>
<text text-anchor="middle" x="370" y="-159.12" font-family="Helvetica,sans-Serif" font-size="10.00">CCGrabber</text>
</a>
</g>
</g>
<!-- Node3&#45;&gt;Node12 -->
<g id="edge19" class="edge">
<title>Node3&#45;&gt;Node12</title>
<path fill="none" stroke="midnightblue" d="M152.75,-213.2C161.47,-203.43 173.61,-191.96 187,-185.62 234.96,-162.92 297.52,-159.6 335.41,-160.05"/>
<polygon fill="midnightblue" stroke="midnightblue" points="150.05,-210.96 146.27,-220.86 155.4,-215.48 150.05,-210.96"/>
</g>
<!-- Node13 -->
<g id="node13" class="node">
<title>Node13</title>
<g id="a_node13"><a xlink:href="../../d9/d2e/classcocos2d_1_1_c_c_array.html" target="_top" xlink:title="NA.">
<polygon fill="none" stroke="black" points="220,-110.12 220,-129.12 276,-129.12 276,-110.12 220,-110.12"/>
<text text-anchor="middle" x="248" y="-117.12" font-family="Helvetica,sans-Serif" font-size="10.00">CCArray</text>
</a>
</g>
</g>
<!-- Node3&#45;&gt;Node13 -->
<g id="edge22" class="edge">
<title>Node3&#45;&gt;Node13</title>
<path fill="none" stroke="midnightblue" d="M146.08,-211.51C153.74,-193.1 167.52,-165.47 187,-147.62 196.32,-139.08 208.71,-132.71 219.81,-128.22"/>
<polygon fill="midnightblue" stroke="midnightblue" points="142.79,-210.32 142.38,-220.91 149.3,-212.89 142.79,-210.32"/>
</g>
<!-- Node14 -->
<g id="node14" class="node">
<title>Node14</title>
<g id="a_node14"><a xlink:href="../../de/dee/classcocos2d_1_1_c_c_scheduler.html" target="_top" xlink:title="Scheduler is responsible for triggering the scheduled callbacks.">
<polygon fill="none" stroke="black" points="461,-66.12 461,-85.12 539,-85.12 539,-66.12 461,-66.12"/>
<text text-anchor="middle" x="500" y="-73.12" font-family="Helvetica,sans-Serif" font-size="10.00">CCScheduler</text>
</a>
</g>
</g>
<!-- Node3&#45;&gt;Node14 -->
<g id="edge27" class="edge">
<title>Node3&#45;&gt;Node14</title>
<path fill="none" stroke="midnightblue" d="M143.63,-211.05C151.44,-182.37 170.05,-129.24 206,-100.62 279.9,-41.81 400,-54.94 460.94,-66.75"/>
<polygon fill="midnightblue" stroke="midnightblue" points="140.15,-210.51 141.07,-221.06 146.93,-212.24 140.15,-210.51"/>
</g>
<!-- Node15 -->
<g id="node15" class="node">
<title>Node15</title>
<g id="a_node15"><a xlink:href="../../d5/dcb/classcocos2d_1_1_c_c_action_manager.html" target="_top" xlink:title="CCActionManager is a singleton that manages all the actions.">
<polygon fill="none" stroke="black" points="568,-15.12 568,-34.12 672,-34.12 672,-15.12 568,-15.12"/>
<text text-anchor="middle" x="620" y="-22.12" font-family="Helvetica,sans-Serif" font-size="10.00">CCActionManager</text>
</a>
</g>
</g>
<!-- Node3&#45;&gt;Node15 -->
<g id="edge30" class="edge">
<title>Node3&#45;&gt;Node15</title>
<path fill="none" stroke="midnightblue" d="M140.36,-210.49C144,-173.9 157.37,-96.92 206,-60.62 317.61,22.68 496.45,0.62 577.13,-15.12"/>
<polygon fill="midnightblue" stroke="midnightblue" points="136.84,-210.59 139.48,-220.85 143.81,-211.18 136.84,-210.59"/>
</g>
<!-- Node4 -->
<g id="node4" class="node">
<title>Node4</title>
<g id="a_node4"><a xlink:href="../../d5/d61/classcocos2d_1_1_c_c_copying.html" target="_top" xlink:title="NA NA.">
<polygon fill="none" stroke="black" points="0,-221.12 0,-240.12 70,-240.12 70,-221.12 0,-221.12"/>
<text text-anchor="middle" x="35" y="-228.12" font-family="Helvetica,sans-Serif" font-size="10.00">CCCopying</text>
</a>
</g>
</g>
<!-- Node4&#45;&gt;Node3 -->
<g id="edge3" class="edge">
<title>Node4&#45;&gt;Node3</title>
<path fill="none" stroke="midnightblue" d="M80.2,-230.62C89.22,-230.62 98.51,-230.62 106.9,-230.62"/>
<polygon fill="midnightblue" stroke="midnightblue" points="80.19,-227.12 70.19,-230.62 80.19,-234.12 80.19,-227.12"/>
</g>
<!-- Node5 -->
<g id="node5" class="node">
<title>Node5</title>
<g id="a_node5"><a xlink:href="../../d2/df3/classcocos2d_1_1_c_c_point.html" target="_top" xlink:title="NA.">
<polygon fill="none" stroke="black" points="472.5,-579.12 472.5,-598.12 527.5,-598.12 527.5,-579.12 472.5,-579.12"/>
<text text-anchor="middle" x="500" y="-586.12" font-family="Helvetica,sans-Serif" font-size="10.00">CCPoint</text>
</a>
</g>
</g>
<!-- Node5&#45;&gt;Node1 -->
<g id="edge32" class="edge">
<title>Node5&#45;&gt;Node1</title>
<path fill="none" stroke="#9a32cd" stroke-dasharray="5,2" d="M521.35,-604.34C554.5,-628.88 623.19,-675.37 690,-693.62 810.06,-726.42 851.68,-736.22 970,-697.62 1035.66,-676.2 1096.69,-615.9 1118.77,-592.28"/>
<polygon fill="#9a32cd" stroke="#9a32cd" points="523.44,-601.54 513.34,-598.33 519.24,-607.13 523.44,-601.54"/>
<text text-anchor="middle" x="906" y="-725.62" font-family="Helvetica,sans-Serif" font-size="10.00"> m_tLastPosition</text>
</g>
<!-- Node5&#45;&gt;Node2 -->
<g id="edge4" class="edge">
<title>Node5&#45;&gt;Node2</title>
<path fill="none" stroke="#9a32cd" stroke-dasharray="5,2" d="M537.9,-587.18C642.4,-582.82 935.03,-568.48 970,-543.62 1000.21,-522.15 1010.61,-475.27 1013.77,-455.13"/>
<polygon fill="#9a32cd" stroke="#9a32cd" points="537.67,-583.69 527.82,-587.6 537.96,-590.69 537.67,-583.69"/>
<text text-anchor="middle" x="757" y="-603.62" font-family="Helvetica,sans-Serif" font-size="10.00"> m_obAnchorPoint</text>
<text text-anchor="middle" x="757" y="-592.62" font-family="Helvetica,sans-Serif" font-size="10.00">m_obAnchorPointInPoints</text>
<text text-anchor="middle" x="757" y="-581.62" font-family="Helvetica,sans-Serif" font-size="10.00">m_obPosition</text>
</g>
<!-- Node5&#45;&gt;Node9 -->
<g id="edge17" class="edge">
<title>Node5&#45;&gt;Node9</title>
<path fill="none" stroke="#9a32cd" stroke-dasharray="5,2" d="M526.54,-573.85C562.22,-552.32 627.59,-509.5 672,-460.62 710.48,-418.27 740.97,-355.79 751.77,-332.15"/>
<polygon fill="#9a32cd" stroke="#9a32cd" points="524.52,-570.98 517.72,-579.11 528.1,-577 524.52,-570.98"/>
<text text-anchor="middle" x="620" y="-547.62" font-family="Helvetica,sans-Serif" font-size="10.00"> m_obStep</text>
</g>
<!-- Node6 -->
<g id="node6" class="node">
<title>Node6</title>
<g id="a_node6"><a xlink:href="../../d9/d24/classcocos2d_1_1_c_c_size.html" target="_top" xlink:title="NA.">
<polygon fill="none" stroke="black" points="223,-371.12 223,-390.12 273,-390.12 273,-371.12 223,-371.12"/>
<text text-anchor="middle" x="248" y="-378.12" font-family="Helvetica,sans-Serif" font-size="10.00">CCSize</text>
</a>
</g>
</g>
<!-- Node6&#45;&gt;Node2 -->
<g id="edge5" class="edge">
<title>Node6&#45;&gt;Node2</title>
<path fill="none" stroke="#9a32cd" stroke-dasharray="5,2" d="M283.08,-383.53C291.25,-384.22 299.93,-384.95 308,-385.62 602.18,-410.09 676.49,-408.11 970,-439.62 975.8,-440.25 982.01,-441.01 987.9,-441.78"/>
<polygon fill="#9a32cd" stroke="#9a32cd" points="283.37,-380.04 273.11,-382.68 282.78,-387.02 283.37,-380.04"/>
<text text-anchor="middle" x="620" y="-414.62" font-family="Helvetica,sans-Serif" font-size="10.00"> m_obContentSize</text>
</g>
<!-- Node6&#45;&gt;Node9 -->
<g id="edge11" class="edge">
<title>Node6&#45;&gt;Node9</title>
<path fill="none" stroke="#9a32cd" stroke-dasharray="5,2" d="M283.19,-378.46C319.98,-376.02 380.19,-371.73 432,-366.62 538.92,-356.08 565.74,-353.52 672,-337.62 687.68,-335.28 704.92,-332.27 719.69,-329.57"/>
<polygon fill="#9a32cd" stroke="#9a32cd" points="282.76,-374.98 273.01,-379.12 283.22,-381.96 282.76,-374.98"/>
<text text-anchor="middle" x="500" y="-366.62" font-family="Helvetica,sans-Serif" font-size="10.00"> m_sGridSize</text>
</g>
<!-- Node6&#45;&gt;Node10 -->
<g id="edge14" class="edge">
<title>Node6&#45;&gt;Node10</title>
<path fill="none" stroke="#9a32cd" stroke-dasharray="5,2" d="M277.85,-366.84C287.29,-362.75 297.94,-358.58 308,-355.62 322.29,-351.42 408.12,-337.26 459.74,-328.91"/>
<polygon fill="#9a32cd" stroke="#9a32cd" points="276.22,-363.73 268.52,-371.01 279.08,-370.12 276.22,-363.73"/>
<text text-anchor="middle" x="370" y="-358.62" font-family="Helvetica,sans-Serif" font-size="10.00"> m_tContentSize</text>
</g>
<!-- Node7 -->
<g id="node7" class="node">
<title>Node7</title>
<g id="a_node7"><a xlink:href="../../da/dbf/structcocos2d_1_1_c_c_affine_transform.html" target="_top" xlink:title=" ">
<polygon fill="none" stroke="black" points="703.5,-665.12 703.5,-684.12 810.5,-684.12 810.5,-665.12 703.5,-665.12"/>
<text text-anchor="middle" x="757" y="-672.12" font-family="Helvetica,sans-Serif" font-size="10.00">CCAffineTransform</text>
</a>
</g>
</g>
<!-- Node7&#45;&gt;Node2 -->
<g id="edge6" class="edge">
<title>Node7&#45;&gt;Node2</title>
<path fill="none" stroke="#9a32cd" stroke-dasharray="5,2" d="M820.92,-666.27C881.42,-657.97 964.5,-645.77 970,-640.62 997.67,-614.77 1010.85,-491.54 1014.15,-455.53"/>
<polygon fill="#9a32cd" stroke="#9a32cd" points="820.1,-662.85 810.67,-667.67 821.05,-669.78 820.1,-662.85"/>
<text text-anchor="middle" x="906" y="-687.62" font-family="Helvetica,sans-Serif" font-size="10.00"> m_sAdditionalTransform</text>
<text text-anchor="middle" x="906" y="-676.62" font-family="Helvetica,sans-Serif" font-size="10.00">m_sInverse</text>
<text text-anchor="middle" x="906" y="-665.62" font-family="Helvetica,sans-Serif" font-size="10.00">m_sTransform</text>
</g>
<!-- Node8&#45;&gt;Node2 -->
<g id="edge7" class="edge">
<title>Node8&#45;&gt;Node2</title>
<path fill="none" stroke="#9a32cd" stroke-dasharray="5,2" d="M414.46,-440.03C537.81,-441.18 887.59,-444.44 987.84,-445.37"/>
<polygon fill="#9a32cd" stroke="#9a32cd" points="414.3,-436.53 404.27,-439.93 414.24,-443.53 414.3,-436.53"/>
<text text-anchor="middle" x="620" y="-444.62" font-family="Helvetica,sans-Serif" font-size="10.00"> m_pCamera</text>
</g>
<!-- Node9&#45;&gt;Node2 -->
<g id="edge9" class="edge">
<title>Node9&#45;&gt;Node2</title>
<path fill="none" stroke="#9a32cd" stroke-dasharray="5,2" d="M804.04,-326.76C849.73,-332.79 919.98,-347.42 970,-382.62 989.79,-396.55 1004,-422.04 1010.69,-435.94"/>
<polygon fill="#9a32cd" stroke="#9a32cd" points="804.47,-323.29 794.12,-325.54 803.61,-330.23 804.47,-323.29"/>
<text text-anchor="middle" x="906" y="-385.62" font-family="Helvetica,sans-Serif" font-size="10.00"> m_pGrid</text>
</g>
<!-- Node10&#45;&gt;Node9 -->
<g id="edge12" class="edge">
<title>Node10&#45;&gt;Node9</title>
<path fill="none" stroke="#9a32cd" stroke-dasharray="5,2" d="M550.2,-322.62C599.89,-322.62 675.47,-322.62 719.89,-322.62"/>
<polygon fill="#9a32cd" stroke="#9a32cd" points="550.01,-319.12 540.01,-322.62 550.01,-326.12 550.01,-319.12"/>
<text text-anchor="middle" x="620" y="-325.62" font-family="Helvetica,sans-Serif" font-size="10.00"> m_pTexture</text>
</g>
<!-- Node11&#45;&gt;Node2 -->
<g id="edge25" class="edge">
<title>Node11&#45;&gt;Node2</title>
<path fill="none" stroke="#9a32cd" stroke-dasharray="5,2" d="M298.91,-243.02C426.82,-216.43 770.35,-165.36 970,-329.62 1003.69,-357.35 1012.23,-413.54 1014.34,-436.02"/>
<polygon fill="#9a32cd" stroke="#9a32cd" points="298.05,-239.62 288.99,-245.12 299.5,-246.47 298.05,-239.62"/>
<text text-anchor="middle" x="620" y="-222.62" font-family="Helvetica,sans-Serif" font-size="10.00"> m_pShaderProgram</text>
</g>
<!-- Node11&#45;&gt;Node9 -->
<g id="edge20" class="edge">
<title>Node11&#45;&gt;Node9</title>
<path fill="none" stroke="#9a32cd" stroke-dasharray="5,2" d="M300.06,-260.55C336.78,-264.87 387.46,-270.93 432,-276.62 536.54,-289.99 659.7,-308.14 719.6,-317.12"/>
<polygon fill="#9a32cd" stroke="#9a32cd" points="300.43,-257.07 290.09,-259.38 299.61,-264.02 300.43,-257.07"/>
<text text-anchor="middle" x="500" y="-295.62" font-family="Helvetica,sans-Serif" font-size="10.00"> m_pShaderProgram</text>
</g>
<!-- Node11&#45;&gt;Node10 -->
<g id="edge15" class="edge">
<title>Node11&#45;&gt;Node10</title>
<path fill="none" stroke="#9a32cd" stroke-dasharray="5,2" d="M285.79,-267.27C293.1,-269.56 300.76,-271.79 308,-273.62 362.34,-287.35 378.08,-281.31 432,-296.62 447.48,-301.02 464.37,-307.59 477.32,-313.02"/>
<polygon fill="#9a32cd" stroke="#9a32cd" points="286.7,-263.89 276.11,-264.16 284.55,-270.55 286.7,-263.89"/>
<text text-anchor="middle" x="370" y="-299.62" font-family="Helvetica,sans-Serif" font-size="10.00"> m_pShaderProgram</text>
</g>
<!-- Node12&#45;&gt;Node9 -->
<g id="edge18" class="edge">
<title>Node12&#45;&gt;Node9</title>
<path fill="none" stroke="#9a32cd" stroke-dasharray="5,2" d="M415.02,-153.35C477.31,-144.1 592.41,-136.24 672,-185.62 721.07,-216.07 745.71,-286.85 753.34,-312.83"/>
<polygon fill="#9a32cd" stroke="#9a32cd" points="414.1,-149.95 404.76,-154.96 415.18,-156.87 414.1,-149.95"/>
<text text-anchor="middle" x="500" y="-152.62" font-family="Helvetica,sans-Serif" font-size="10.00"> m_pGrabber</text>
</g>
<!-- Node13&#45;&gt;Node2 -->
<g id="edge21" class="edge">
<title>Node13&#45;&gt;Node2</title>
<path fill="none" stroke="#9a32cd" stroke-dasharray="5,2" d="M286.38,-116.9C360.78,-112.39 532.28,-106.63 672,-136.62 811.6,-166.6 876.84,-148.43 970,-256.62 1016.88,-311.07 1016.9,-405.75 1015.59,-436.03"/>
<polygon fill="#9a32cd" stroke="#9a32cd" points="285.88,-113.42 276.12,-117.55 286.33,-120.41 285.88,-113.42"/>
<text text-anchor="middle" x="620" y="-139.62" font-family="Helvetica,sans-Serif" font-size="10.00"> m_pChildren</text>
</g>
<!-- Node13&#45;&gt;Node14 -->
<g id="edge28" class="edge">
<title>Node13&#45;&gt;Node14</title>
<path fill="none" stroke="#9a32cd" stroke-dasharray="5,2" d="M276.76,-105.83C286.43,-101.57 297.49,-97.31 308,-94.62 359.82,-81.39 421.74,-77.28 460.73,-76.06"/>
<polygon fill="#9a32cd" stroke="#9a32cd" points="275.25,-102.67 267.63,-110.02 278.17,-109.03 275.25,-102.67"/>
<text text-anchor="middle" x="370" y="-97.62" font-family="Helvetica,sans-Serif" font-size="10.00"> m_pScriptHandlerEntries</text>
</g>
<!-- Node14&#45;&gt;Node2 -->
<g id="edge26" class="edge">
<title>Node14&#45;&gt;Node2</title>
<path fill="none" stroke="#9a32cd" stroke-dasharray="5,2" d="M549.48,-70.69C657.01,-60.89 910.7,-44.47 970,-100.62 1020,-147.97 1016.63,-384.64 1015.3,-435.84"/>
<polygon fill="#9a32cd" stroke="#9a32cd" points="548.87,-67.23 539.23,-71.64 549.52,-74.2 548.87,-67.23"/>
<text text-anchor="middle" x="757" y="-66.62" font-family="Helvetica,sans-Serif" font-size="10.00"> m_pScheduler</text>
</g>
<!-- Node15&#45;&gt;Node2 -->
<g id="edge29" class="edge">
<title>Node15&#45;&gt;Node2</title>
<path fill="none" stroke="#9a32cd" stroke-dasharray="5,2" d="M668.9,-12.97C744.5,2.27 890.99,18.4 970,-61.62 997.18,-89.15 1011.9,-378.42 1014.56,-435.77"/>
<polygon fill="#9a32cd" stroke="#9a32cd" points="667.79,-9.62 658.72,-15.1 669.22,-16.48 667.79,-9.62"/>
<text text-anchor="middle" x="757" y="-12.62" font-family="Helvetica,sans-Serif" font-size="10.00"> m_pActionManager</text>
</g>
<!-- Node16 -->
<g id="node16" class="node">
<title>Node16</title>
<g id="a_node16"><a xlink:href="../../d1/d65/classcocos2d_1_1_c_c_component_container.html" target="_top" xlink:title="NA NA.">
<polygon fill="none" stroke="black" points="690,-627.12 690,-646.12 824,-646.12 824,-627.12 690,-627.12"/>
<text text-anchor="middle" x="757" y="-634.12" font-family="Helvetica,sans-Serif" font-size="10.00">CCComponentContainer</text>
</a>
</g>
</g>
<!-- Node16&#45;&gt;Node2 -->
<g id="edge31" class="edge">
<title>Node16&#45;&gt;Node2</title>
<path fill="none" stroke="#9a32cd" stroke-dasharray="5,2" d="M834.07,-627.86C886.51,-620.35 950.18,-607.83 970,-589.62 1009.93,-552.94 1014.71,-481.43 1015.07,-455.4"/>
<polygon fill="#9a32cd" stroke="#9a32cd" points="833.51,-624.41 824.09,-629.25 834.48,-631.34 833.51,-624.41"/>
<text text-anchor="middle" x="906" y="-628.62" font-family="Helvetica,sans-Serif" font-size="10.00"> m_pComponentContainer</text>
</g>
</g>
</svg>
