<?xml version="1.0" encoding="UTF-8" standalone="no"?>
<!DOCTYPE svg PUBLIC "-//W3C//DTD SVG 1.1//EN"
 "http://www.w3.org/Graphics/SVG/1.1/DTD/svg11.dtd">
<!-- Generated by graphviz version 2.43.0 (0)
 -->
<!-- Title: CCParallaxNode Pages: 1 -->
<svg width="1184pt" height="739pt"
 viewBox="0.00 0.00 1184.00 739.34" xmlns="http://www.w3.org/2000/svg" xmlns:xlink="http://www.w3.org/1999/xlink">
<g id="graph0" class="graph" transform="scale(1 1) rotate(0) translate(4 735.34)">
<title>CCParallaxNode</title>
<!-- Node1 -->
<g id="node1" class="node">
<title>Node1</title>
<g id="a_node1"><a xlink:title="CCParallaxNode: A node that simulates a parallax scroller.">
<polygon fill="#999999" stroke="#666666" points="1176,-594.84 1081,-594.84 1081,-575.84 1176,-575.84 1176,-594.84"/>
<text text-anchor="middle" x="1128.5" y="-582.84" font-family="Helvetica,sans-Serif" font-size="10.00">CCParallaxNode</text>
</a>
</g>
</g>
<!-- Node2 -->
<g id="node2" class="node">
<title>Node2</title>
<g id="a_node2"><a xlink:href="../../d0/ded/classcocos2d_1_1_c_c_node.html" target="_top" xlink:title="CCNode is the main element.">
<polygon fill="white" stroke="#666666" points="1044,-454.84 988,-454.84 988,-435.84 1044,-435.84 1044,-454.84"/>
<text text-anchor="middle" x="1016" y="-442.84" font-family="Helvetica,sans-Serif" font-size="10.00">CCNode</text>
</a>
</g>
</g>
<!-- Node2&#45;&gt;Node1 -->
<g id="edge1" class="edge">
<title>Node2&#45;&gt;Node1</title>
<path fill="none" stroke="#63b8ff" d="M1030.82,-462.85C1054.35,-492.66 1101.42,-552.3 1119.85,-575.65"/>
<polygon fill="#63b8ff" stroke="#63b8ff" points="1033.54,-460.64 1024.6,-454.96 1028.04,-464.98 1033.54,-460.64"/>
</g>
<!-- Node2&#45;&gt;Node2 -->
<g id="edge23" class="edge">
<title>Node2&#45;&gt;Node2</title>
<path fill="none" stroke="#9a32cd" stroke-dasharray="5,2" d="M1007.58,-465.11C1008.34,-469.57 1011.15,-472.84 1016,-472.84 1024.18,-472.84 1026.54,-463.57 1023.09,-454.92"/>
<polygon fill="#9a32cd" stroke="#9a32cd" points="1011.09,-465.29 1008.91,-454.92 1004.15,-464.39 1011.09,-465.29"/>
<text text-anchor="middle" x="1016" y="-475.84" font-family="Helvetica,sans-Serif" font-size="10.00"> m_pParent</text>
</g>
<!-- Node3 -->
<g id="node3" class="node">
<title>Node3</title>
<g id="a_node3"><a xlink:href="../../d3/dbf/classcocos2d_1_1_c_c_object.html" target="_top" xlink:title="NA.">
<polygon fill="white" stroke="#666666" points="169,-220.84 107,-220.84 107,-201.84 169,-201.84 169,-220.84"/>
<text text-anchor="middle" x="138" y="-208.84" font-family="Helvetica,sans-Serif" font-size="10.00">CCObject</text>
</a>
</g>
</g>
<!-- Node3&#45;&gt;Node2 -->
<g id="edge2" class="edge">
<title>Node3&#45;&gt;Node2</title>
<path fill="none" stroke="#63b8ff" d="M139.07,-230.99C139.73,-290.95 145.23,-469.7 187,-505.34 238.91,-549.63 893.65,-543.63 970,-505.34 990.95,-494.83 1004.69,-469.44 1011,-455.29"/>
<polygon fill="#63b8ff" stroke="#63b8ff" points="142.57,-230.92 138.99,-220.94 135.57,-230.97 142.57,-230.92"/>
</g>
<!-- Node3&#45;&gt;Node2 -->
<g id="edge24" class="edge">
<title>Node3&#45;&gt;Node2</title>
<path fill="none" stroke="#9a32cd" stroke-dasharray="5,2" d="M142.17,-230.93C153.02,-294.55 191.09,-491.34 247,-491.34 247,-491.34 247,-491.34 758,-491.34 842.99,-491.34 941.35,-466.66 987.9,-453.46"/>
<polygon fill="#9a32cd" stroke="#9a32cd" points="145.61,-230.27 140.51,-220.98 138.71,-231.42 145.61,-230.27"/>
<text text-anchor="middle" x="500" y="-494.34" font-family="Helvetica,sans-Serif" font-size="10.00"> m_pUserObject</text>
</g>
<!-- Node8 -->
<g id="node8" class="node">
<title>Node8</title>
<g id="a_node8"><a xlink:href="../../d2/d51/classcocos2d_1_1_c_c_camera.html" target="_top" xlink:title="A CCCamera is used in every CCNode.">
<polygon fill="white" stroke="#666666" points="404,-448.84 336,-448.84 336,-429.84 404,-429.84 404,-448.84"/>
<text text-anchor="middle" x="370" y="-436.84" font-family="Helvetica,sans-Serif" font-size="10.00">CCCamera</text>
</a>
</g>
</g>
<!-- Node3&#45;&gt;Node8 -->
<g id="edge8" class="edge">
<title>Node3&#45;&gt;Node8</title>
<path fill="none" stroke="#63b8ff" d="M140.11,-231.19C143.37,-269.61 156.13,-354.3 206,-399.34 241.79,-431.66 299.43,-438.91 335.71,-439.99"/>
<polygon fill="#63b8ff" stroke="#63b8ff" points="143.58,-230.57 139.37,-220.85 136.59,-231.07 143.58,-230.57"/>
</g>
<!-- Node9 -->
<g id="node9" class="node">
<title>Node9</title>
<g id="a_node9"><a xlink:href="../../d6/d70/classcocos2d_1_1_c_c_grid_base.html" target="_top" xlink:title="Base class for other.">
<polygon fill="white" stroke="#666666" points="794,-331.84 720,-331.84 720,-312.84 794,-312.84 794,-331.84"/>
<text text-anchor="middle" x="757" y="-319.84" font-family="Helvetica,sans-Serif" font-size="10.00">CCGridBase</text>
</a>
</g>
</g>
<!-- Node3&#45;&gt;Node9 -->
<g id="edge10" class="edge">
<title>Node3&#45;&gt;Node9</title>
<path fill="none" stroke="#63b8ff" d="M179.34,-207.21C288.23,-196.75 585.68,-172.96 672,-215.34 714.61,-236.26 742.09,-290.29 751.93,-312.54"/>
<polygon fill="#63b8ff" stroke="#63b8ff" points="178.72,-203.75 169.11,-208.21 179.4,-210.72 178.72,-203.75"/>
</g>
<!-- Node10 -->
<g id="node10" class="node">
<title>Node10</title>
<g id="a_node10"><a xlink:href="../../d7/dfd/classcocos2d_1_1_c_c_texture2_d.html" target="_top" xlink:title="CCTexture2D class.">
<polygon fill="white" stroke="#666666" points="540,-331.84 460,-331.84 460,-312.84 540,-312.84 540,-331.84"/>
<text text-anchor="middle" x="500" y="-319.84" font-family="Helvetica,sans-Serif" font-size="10.00">CCTexture2D</text>
</a>
</g>
</g>
<!-- Node3&#45;&gt;Node10 -->
<g id="edge13" class="edge">
<title>Node3&#45;&gt;Node10</title>
<path fill="none" stroke="#63b8ff" d="M155.89,-228.12C168.78,-240.24 187.42,-256.33 206,-267.34 247.89,-292.16 260.54,-296.43 308,-307.34 359.54,-319.19 420.74,-322.11 459.71,-322.62"/>
<polygon fill="#63b8ff" stroke="#63b8ff" points="158.3,-225.58 148.66,-221.18 153.45,-230.63 158.3,-225.58"/>
</g>
<!-- Node11 -->
<g id="node11" class="node">
<title>Node11</title>
<g id="a_node11"><a xlink:href="../../db/d28/classcocos2d_1_1_c_c_g_l_program.html" target="_top" xlink:title="CCGLProgram Class that implements a glProgram.">
<polygon fill="white" stroke="#666666" points="290,-258.84 206,-258.84 206,-239.84 290,-239.84 290,-258.84"/>
<text text-anchor="middle" x="248" y="-246.84" font-family="Helvetica,sans-Serif" font-size="10.00">CCGLProgram</text>
</a>
</g>
</g>
<!-- Node3&#45;&gt;Node11 -->
<g id="edge16" class="edge">
<title>Node3&#45;&gt;Node11</title>
<path fill="none" stroke="#63b8ff" d="M175.87,-224.31C190.26,-229.37 206.45,-235.07 219.76,-239.75"/>
<polygon fill="#63b8ff" stroke="#63b8ff" points="176.85,-220.95 166.25,-220.93 174.52,-227.55 176.85,-220.95"/>
</g>
<!-- Node12 -->
<g id="node12" class="node">
<title>Node12</title>
<g id="a_node12"><a xlink:href="../../d3/d89/classcocos2d_1_1_c_c_grabber.html" target="_top" xlink:title="FBO class that grabs the the contents of the screen NA NA.">
<polygon fill="white" stroke="#666666" points="404.5,-170.84 335.5,-170.84 335.5,-151.84 404.5,-151.84 404.5,-170.84"/>
<text text-anchor="middle" x="370" y="-158.84" font-family="Helvetica,sans-Serif" font-size="10.00">CCGrabber</text>
</a>
</g>
</g>
<!-- Node3&#45;&gt;Node12 -->
<g id="edge19" class="edge">
<title>Node3&#45;&gt;Node12</title>
<path fill="none" stroke="#63b8ff" d="M162.2,-196.56C169.83,-192.31 178.54,-188.08 187,-185.34 237.02,-169.11 298.17,-163.83 335.32,-162.13"/>
<polygon fill="#63b8ff" stroke="#63b8ff" points="160.35,-193.59 153.5,-201.67 163.9,-199.62 160.35,-193.59"/>
</g>
<!-- Node13 -->
<g id="node13" class="node">
<title>Node13</title>
<g id="a_node13"><a xlink:href="../../d9/d2e/classcocos2d_1_1_c_c_array.html" target="_top" xlink:title="NA.">
<polygon fill="white" stroke="#666666" points="276,-128.84 220,-128.84 220,-109.84 276,-109.84 276,-128.84"/>
<text text-anchor="middle" x="248" y="-116.84" font-family="Helvetica,sans-Serif" font-size="10.00">CCArray</text>
</a>
</g>
</g>
<!-- Node3&#45;&gt;Node13 -->
<g id="edge22" class="edge">
<title>Node3&#45;&gt;Node13</title>
<path fill="none" stroke="#63b8ff" d="M149.5,-192.73C158.11,-178.78 171.41,-160 187,-147.34 196.73,-139.44 209.05,-133.19 219.99,-128.62"/>
<polygon fill="#63b8ff" stroke="#63b8ff" points="146.4,-191.09 144.31,-201.48 152.42,-194.66 146.4,-191.09"/>
</g>
<!-- Node14 -->
<g id="node14" class="node">
<title>Node14</title>
<g id="a_node14"><a xlink:href="../../de/dee/classcocos2d_1_1_c_c_scheduler.html" target="_top" xlink:title="Scheduler is responsible for triggering the scheduled callbacks.">
<polygon fill="white" stroke="#666666" points="539,-84.84 461,-84.84 461,-65.84 539,-65.84 539,-84.84"/>
<text text-anchor="middle" x="500" y="-72.84" font-family="Helvetica,sans-Serif" font-size="10.00">CCScheduler</text>
</a>
</g>
</g>
<!-- Node3&#45;&gt;Node14 -->
<g id="edge27" class="edge">
<title>Node3&#45;&gt;Node14</title>
<path fill="none" stroke="#63b8ff" d="M145.38,-192.09C154.68,-167.07 174.37,-123.82 206,-100.34 281.63,-44.19 400.43,-55.99 460.9,-66.96"/>
<polygon fill="#63b8ff" stroke="#63b8ff" points="142.06,-190.99 142.03,-201.58 148.66,-193.32 142.06,-190.99"/>
</g>
<!-- Node15 -->
<g id="node15" class="node">
<title>Node15</title>
<g id="a_node15"><a xlink:href="../../d5/dcb/classcocos2d_1_1_c_c_action_manager.html" target="_top" xlink:title="CCActionManager is a singleton that manages all the actions.">
<polygon fill="white" stroke="#666666" points="672,-33.84 568,-33.84 568,-14.84 672,-14.84 672,-33.84"/>
<text text-anchor="middle" x="620" y="-21.84" font-family="Helvetica,sans-Serif" font-size="10.00">CCActionManager</text>
</a>
</g>
</g>
<!-- Node3&#45;&gt;Node15 -->
<g id="edge30" class="edge">
<title>Node3&#45;&gt;Node15</title>
<path fill="none" stroke="#63b8ff" d="M141.52,-191.25C146.86,-158.05 162.6,-92.32 206,-61.34 317.9,18.56 492.73,-0.17 574.29,-14.83"/>
<polygon fill="#63b8ff" stroke="#63b8ff" points="138,-191.13 140.04,-201.53 144.93,-192.13 138,-191.13"/>
</g>
<!-- Node4 -->
<g id="node4" class="node">
<title>Node4</title>
<g id="a_node4"><a xlink:href="../../d5/d61/classcocos2d_1_1_c_c_copying.html" target="_top" xlink:title="NA NA.">
<polygon fill="white" stroke="#666666" points="70,-220.84 0,-220.84 0,-201.84 70,-201.84 70,-220.84"/>
<text text-anchor="middle" x="35" y="-208.84" font-family="Helvetica,sans-Serif" font-size="10.00">CCCopying</text>
</a>
</g>
</g>
<!-- Node4&#45;&gt;Node3 -->
<g id="edge3" class="edge">
<title>Node4&#45;&gt;Node3</title>
<path fill="none" stroke="#63b8ff" d="M80.2,-211.34C89.22,-211.34 98.51,-211.34 106.9,-211.34"/>
<polygon fill="#63b8ff" stroke="#63b8ff" points="80.19,-207.84 70.19,-211.34 80.19,-214.84 80.19,-207.84"/>
</g>
<!-- Node5 -->
<g id="node5" class="node">
<title>Node5</title>
<g id="a_node5"><a xlink:href="../../d2/df3/classcocos2d_1_1_c_c_point.html" target="_top" xlink:title="NA.">
<polygon fill="white" stroke="#666666" points="527.5,-597.84 472.5,-597.84 472.5,-578.84 527.5,-578.84 527.5,-597.84"/>
<text text-anchor="middle" x="500" y="-585.84" font-family="Helvetica,sans-Serif" font-size="10.00">CCPoint</text>
</a>
</g>
</g>
<!-- Node5&#45;&gt;Node1 -->
<g id="edge32" class="edge">
<title>Node5&#45;&gt;Node1</title>
<path fill="none" stroke="#9a32cd" stroke-dasharray="5,2" d="M521.81,-604.22C555.15,-628.61 623.59,-674.34 690,-692.34 810.12,-724.9 851.36,-733.94 970,-696.34 1034.73,-675.82 1095.84,-618.05 1118.37,-595"/>
<polygon fill="#9a32cd" stroke="#9a32cd" points="523.48,-601.1 513.36,-597.95 519.3,-606.72 523.48,-601.1"/>
<text text-anchor="middle" x="906" y="-723.34" font-family="Helvetica,sans-Serif" font-size="10.00"> m_tLastPosition</text>
</g>
<!-- Node5&#45;&gt;Node2 -->
<g id="edge4" class="edge">
<title>Node5&#45;&gt;Node2</title>
<path fill="none" stroke="#9a32cd" stroke-dasharray="5,2" d="M537.9,-586.9C642.4,-582.53 935.03,-568.2 970,-543.34 1000.21,-521.86 1010.61,-474.98 1013.77,-454.84"/>
<polygon fill="#9a32cd" stroke="#9a32cd" points="537.67,-583.41 527.82,-587.31 537.96,-590.4 537.67,-583.41"/>
<text text-anchor="middle" x="757" y="-603.34" font-family="Helvetica,sans-Serif" font-size="10.00"> m_obAnchorPoint</text>
<text text-anchor="middle" x="757" y="-592.34" font-family="Helvetica,sans-Serif" font-size="10.00">m_obAnchorPointInPoints</text>
<text text-anchor="middle" x="757" y="-581.34" font-family="Helvetica,sans-Serif" font-size="10.00">m_obPosition</text>
</g>
<!-- Node5&#45;&gt;Node9 -->
<g id="edge17" class="edge">
<title>Node5&#45;&gt;Node9</title>
<path fill="none" stroke="#9a32cd" stroke-dasharray="5,2" d="M526.54,-573.57C562.22,-552.03 627.59,-509.22 672,-460.34 710.48,-417.99 740.97,-355.5 751.77,-331.87"/>
<polygon fill="#9a32cd" stroke="#9a32cd" points="524.52,-570.7 517.72,-578.82 528.1,-576.71 524.52,-570.7"/>
<text text-anchor="middle" x="620" y="-547.34" font-family="Helvetica,sans-Serif" font-size="10.00"> m_obStep</text>
</g>
<!-- Node6 -->
<g id="node6" class="node">
<title>Node6</title>
<g id="a_node6"><a xlink:href="../../d9/d24/classcocos2d_1_1_c_c_size.html" target="_top" xlink:title="NA.">
<polygon fill="white" stroke="#666666" points="273,-389.84 223,-389.84 223,-370.84 273,-370.84 273,-389.84"/>
<text text-anchor="middle" x="248" y="-377.84" font-family="Helvetica,sans-Serif" font-size="10.00">CCSize</text>
</a>
</g>
</g>
<!-- Node6&#45;&gt;Node2 -->
<g id="edge5" class="edge">
<title>Node6&#45;&gt;Node2</title>
<path fill="none" stroke="#9a32cd" stroke-dasharray="5,2" d="M283.08,-383.25C291.25,-383.94 299.93,-384.67 308,-385.34 602.18,-409.8 676.49,-407.82 970,-439.34 975.8,-439.96 982.01,-440.73 987.9,-441.5"/>
<polygon fill="#9a32cd" stroke="#9a32cd" points="283.37,-379.76 273.11,-382.4 282.78,-386.73 283.37,-379.76"/>
<text text-anchor="middle" x="620" y="-414.34" font-family="Helvetica,sans-Serif" font-size="10.00"> m_obContentSize</text>
</g>
<!-- Node6&#45;&gt;Node9 -->
<g id="edge11" class="edge">
<title>Node6&#45;&gt;Node9</title>
<path fill="none" stroke="#9a32cd" stroke-dasharray="5,2" d="M283.19,-378.17C319.98,-375.74 380.19,-371.45 432,-366.34 538.92,-355.79 565.74,-353.23 672,-337.34 687.68,-334.99 704.92,-331.99 719.69,-329.29"/>
<polygon fill="#9a32cd" stroke="#9a32cd" points="282.76,-374.69 273.01,-378.84 283.22,-381.68 282.76,-374.69"/>
<text text-anchor="middle" x="500" y="-366.34" font-family="Helvetica,sans-Serif" font-size="10.00"> m_sGridSize</text>
</g>
<!-- Node6&#45;&gt;Node10 -->
<g id="edge14" class="edge">
<title>Node6&#45;&gt;Node10</title>
<path fill="none" stroke="#9a32cd" stroke-dasharray="5,2" d="M277.85,-366.55C287.29,-362.47 297.94,-358.3 308,-355.34 322.29,-351.14 408.12,-336.97 459.74,-328.63"/>
<polygon fill="#9a32cd" stroke="#9a32cd" points="276.22,-363.45 268.52,-370.73 279.08,-369.84 276.22,-363.45"/>
<text text-anchor="middle" x="370" y="-358.34" font-family="Helvetica,sans-Serif" font-size="10.00"> m_tContentSize</text>
</g>
<!-- Node7 -->
<g id="node7" class="node">
<title>Node7</title>
<g id="a_node7"><a xlink:href="../../da/dbf/structcocos2d_1_1_c_c_affine_transform.html" target="_top" xlink:title=" ">
<polygon fill="white" stroke="#666666" points="810.5,-682.84 703.5,-682.84 703.5,-663.84 810.5,-663.84 810.5,-682.84"/>
<text text-anchor="middle" x="757" y="-670.84" font-family="Helvetica,sans-Serif" font-size="10.00">CCAffineTransform</text>
</a>
</g>
</g>
<!-- Node7&#45;&gt;Node2 -->
<g id="edge6" class="edge">
<title>Node7&#45;&gt;Node2</title>
<path fill="none" stroke="#9a32cd" stroke-dasharray="5,2" d="M820.92,-665.28C881.41,-657.28 964.49,-645.47 970,-640.34 997.73,-614.55 1010.86,-491.28 1014.15,-455.25"/>
<polygon fill="#9a32cd" stroke="#9a32cd" points="820.12,-661.86 810.67,-666.63 821.04,-668.8 820.12,-661.86"/>
<text text-anchor="middle" x="906" y="-687.34" font-family="Helvetica,sans-Serif" font-size="10.00"> m_sAdditionalTransform</text>
<text text-anchor="middle" x="906" y="-676.34" font-family="Helvetica,sans-Serif" font-size="10.00">m_sInverse</text>
<text text-anchor="middle" x="906" y="-665.34" font-family="Helvetica,sans-Serif" font-size="10.00">m_sTransform</text>
</g>
<!-- Node8&#45;&gt;Node2 -->
<g id="edge7" class="edge">
<title>Node8&#45;&gt;Node2</title>
<path fill="none" stroke="#9a32cd" stroke-dasharray="5,2" d="M414.46,-439.74C537.81,-440.89 887.59,-444.15 987.84,-445.09"/>
<polygon fill="#9a32cd" stroke="#9a32cd" points="414.3,-436.24 404.27,-439.65 414.24,-443.24 414.3,-436.24"/>
<text text-anchor="middle" x="620" y="-444.34" font-family="Helvetica,sans-Serif" font-size="10.00"> m_pCamera</text>
</g>
<!-- Node9&#45;&gt;Node2 -->
<g id="edge9" class="edge">
<title>Node9&#45;&gt;Node2</title>
<path fill="none" stroke="#9a32cd" stroke-dasharray="5,2" d="M804.04,-326.48C849.73,-332.5 919.98,-347.14 970,-382.34 989.79,-396.26 1004,-421.75 1010.69,-435.66"/>
<polygon fill="#9a32cd" stroke="#9a32cd" points="804.47,-323 794.12,-325.25 803.61,-329.95 804.47,-323"/>
<text text-anchor="middle" x="906" y="-385.34" font-family="Helvetica,sans-Serif" font-size="10.00"> m_pGrid</text>
</g>
<!-- Node10&#45;&gt;Node9 -->
<g id="edge12" class="edge">
<title>Node10&#45;&gt;Node9</title>
<path fill="none" stroke="#9a32cd" stroke-dasharray="5,2" d="M550.2,-322.34C599.89,-322.34 675.47,-322.34 719.89,-322.34"/>
<polygon fill="#9a32cd" stroke="#9a32cd" points="550.01,-318.84 540.01,-322.34 550.01,-325.84 550.01,-318.84"/>
<text text-anchor="middle" x="620" y="-325.34" font-family="Helvetica,sans-Serif" font-size="10.00"> m_pTexture</text>
</g>
<!-- Node11&#45;&gt;Node2 -->
<g id="edge25" class="edge">
<title>Node11&#45;&gt;Node2</title>
<path fill="none" stroke="#9a32cd" stroke-dasharray="5,2" d="M300.26,-237.96C429.2,-212.54 770.92,-165.53 970,-329.34 1003.69,-357.06 1012.23,-413.26 1014.34,-435.73"/>
<polygon fill="#9a32cd" stroke="#9a32cd" points="299.37,-234.57 290.26,-239.97 300.75,-241.43 299.37,-234.57"/>
<text text-anchor="middle" x="620" y="-220.34" font-family="Helvetica,sans-Serif" font-size="10.00"> m_pShaderProgram</text>
</g>
<!-- Node11&#45;&gt;Node9 -->
<g id="edge20" class="edge">
<title>Node11&#45;&gt;Node9</title>
<path fill="none" stroke="#9a32cd" stroke-dasharray="5,2" d="M300.36,-256.63C360.28,-265.15 462.33,-279.69 550,-292.34 609.56,-300.93 678.78,-311.04 719.91,-317.05"/>
<polygon fill="#9a32cd" stroke="#9a32cd" points="300.78,-253.16 290.39,-255.22 299.8,-260.09 300.78,-253.16"/>
<text text-anchor="middle" x="500" y="-295.34" font-family="Helvetica,sans-Serif" font-size="10.00"> m_pShaderProgram</text>
</g>
<!-- Node11&#45;&gt;Node10 -->
<g id="edge15" class="edge">
<title>Node11&#45;&gt;Node10</title>
<path fill="none" stroke="#9a32cd" stroke-dasharray="5,2" d="M279.1,-262.96C288.25,-266.72 298.41,-270.53 308,-273.34 361.79,-289.09 378.08,-281.02 432,-296.34 447.48,-300.74 464.37,-307.3 477.32,-312.74"/>
<polygon fill="#9a32cd" stroke="#9a32cd" points="280.23,-259.63 269.66,-258.95 277.49,-266.08 280.23,-259.63"/>
<text text-anchor="middle" x="370" y="-299.34" font-family="Helvetica,sans-Serif" font-size="10.00"> m_pShaderProgram</text>
</g>
<!-- Node12&#45;&gt;Node9 -->
<g id="edge18" class="edge">
<title>Node12&#45;&gt;Node9</title>
<path fill="none" stroke="#9a32cd" stroke-dasharray="5,2" d="M415.02,-153.07C477.31,-143.81 592.41,-135.96 672,-185.34 721.07,-215.79 745.71,-286.57 753.34,-312.55"/>
<polygon fill="#9a32cd" stroke="#9a32cd" points="414.1,-149.67 404.76,-154.68 415.18,-156.58 414.1,-149.67"/>
<text text-anchor="middle" x="500" y="-152.34" font-family="Helvetica,sans-Serif" font-size="10.00"> m_pGrabber</text>
</g>
<!-- Node13&#45;&gt;Node2 -->
<g id="edge21" class="edge">
<title>Node13&#45;&gt;Node2</title>
<path fill="none" stroke="#9a32cd" stroke-dasharray="5,2" d="M286.37,-116.65C360.76,-112.2 532.24,-106.54 672,-136.34 811.48,-166.08 876.85,-147.35 970,-255.34 1017.16,-310.02 1016.99,-405.24 1015.61,-435.69"/>
<polygon fill="#9a32cd" stroke="#9a32cd" points="285.88,-113.17 276.12,-117.29 286.32,-120.16 285.88,-113.17"/>
<text text-anchor="middle" x="620" y="-139.34" font-family="Helvetica,sans-Serif" font-size="10.00"> m_pChildren</text>
</g>
<!-- Node13&#45;&gt;Node14 -->
<g id="edge28" class="edge">
<title>Node13&#45;&gt;Node14</title>
<path fill="none" stroke="#9a32cd" stroke-dasharray="5,2" d="M276.76,-105.54C286.43,-101.29 297.49,-97.02 308,-94.34 359.82,-81.11 421.74,-77 460.73,-75.77"/>
<polygon fill="#9a32cd" stroke="#9a32cd" points="275.25,-102.38 267.63,-109.73 278.17,-108.74 275.25,-102.38"/>
<text text-anchor="middle" x="370" y="-97.34" font-family="Helvetica,sans-Serif" font-size="10.00"> m_pScriptHandlerEntries</text>
</g>
<!-- Node14&#45;&gt;Node2 -->
<g id="edge26" class="edge">
<title>Node14&#45;&gt;Node2</title>
<path fill="none" stroke="#9a32cd" stroke-dasharray="5,2" d="M549.48,-70.4C657.01,-60.61 910.7,-44.18 970,-100.34 1020,-147.69 1016.63,-384.35 1015.3,-435.56"/>
<polygon fill="#9a32cd" stroke="#9a32cd" points="548.87,-66.95 539.23,-71.36 549.52,-73.92 548.87,-66.95"/>
<text text-anchor="middle" x="757" y="-66.34" font-family="Helvetica,sans-Serif" font-size="10.00"> m_pScheduler</text>
</g>
<!-- Node15&#45;&gt;Node2 -->
<g id="edge29" class="edge">
<title>Node15&#45;&gt;Node2</title>
<path fill="none" stroke="#9a32cd" stroke-dasharray="5,2" d="M668.9,-12.68C744.5,2.55 890.99,18.69 970,-61.34 997.18,-88.86 1011.9,-378.13 1014.56,-435.49"/>
<polygon fill="#9a32cd" stroke="#9a32cd" points="667.79,-9.34 658.72,-14.82 669.22,-16.19 667.79,-9.34"/>
<text text-anchor="middle" x="757" y="-12.34" font-family="Helvetica,sans-Serif" font-size="10.00"> m_pActionManager</text>
</g>
<!-- Node16 -->
<g id="node16" class="node">
<title>Node16</title>
<g id="a_node16"><a xlink:href="../../d1/d65/classcocos2d_1_1_c_c_component_container.html" target="_top" xlink:title="NA NA.">
<polygon fill="white" stroke="#666666" points="824,-645.84 690,-645.84 690,-626.84 824,-626.84 824,-645.84"/>
<text text-anchor="middle" x="757" y="-633.84" font-family="Helvetica,sans-Serif" font-size="10.00">CCComponentContainer</text>
</a>
</g>
</g>
<!-- Node16&#45;&gt;Node2 -->
<g id="edge31" class="edge">
<title>Node16&#45;&gt;Node2</title>
<path fill="none" stroke="#9a32cd" stroke-dasharray="5,2" d="M834.07,-627.58C886.51,-620.07 950.18,-607.55 970,-589.34 1009.93,-552.66 1014.71,-481.15 1015.07,-455.11"/>
<polygon fill="#9a32cd" stroke="#9a32cd" points="833.51,-624.12 824.09,-628.97 834.48,-631.06 833.51,-624.12"/>
<text text-anchor="middle" x="906" y="-628.34" font-family="Helvetica,sans-Serif" font-size="10.00"> m_pComponentContainer</text>
</g>
</g>
</svg>
