<?xml version="1.0" encoding="UTF-8" standalone="no"?>
<!DOCTYPE svg PUBLIC "-//W3C//DTD SVG 1.1//EN"
 "http://www.w3.org/Graphics/SVG/1.1/DTD/svg11.dtd">
<!-- Generated by graphviz version 2.43.0 (0)
 -->
<!-- Title: CCGrid3DAction Pages: 1 -->
<svg width="772pt" height="467pt"
 viewBox="0.00 0.00 772.00 467.00" xmlns="http://www.w3.org/2000/svg" xmlns:xlink="http://www.w3.org/1999/xlink">
<g id="graph0" class="graph" transform="scale(1 1) rotate(0) translate(4 463)">
<title>CCGrid3DAction</title>
<!-- Node1 -->
<g id="node1" class="node">
<title>Node1</title>
<g id="a_node1"><a xlink:title="Base class for CCGrid3D actions.">
<polygon fill="#999999" stroke="#666666" points="437.5,-129 342.5,-129 342.5,-110 437.5,-110 437.5,-129"/>
<text text-anchor="middle" x="390" y="-117" font-family="Helvetica,sans-Serif" font-size="10.00">CCGrid3DAction</text>
</a>
</g>
</g>
<!-- Node8 -->
<g id="node8" class="node">
<title>Node8</title>
<g id="a_node8"><a xlink:href="../../dd/d95/classcocos2d_1_1_c_c_flip_x3_d.html" target="_top" xlink:title="CCFlipX3D action.">
<polygon fill="white" stroke="#666666" points="68,-74 0,-74 0,-55 68,-55 68,-74"/>
<text text-anchor="middle" x="34" y="-62" font-family="Helvetica,sans-Serif" font-size="10.00">CCFlipX3D</text>
</a>
</g>
</g>
<!-- Node1&#45;&gt;Node8 -->
<g id="edge7" class="edge">
<title>Node1&#45;&gt;Node8</title>
<path fill="none" stroke="#63b8ff" d="M332.3,-111.24C269.38,-103.11 165.81,-89.08 77,-74 74.15,-73.52 71.2,-72.99 68.24,-72.44"/>
<polygon fill="#63b8ff" stroke="#63b8ff" points="332.05,-114.74 342.42,-112.55 332.95,-107.8 332.05,-114.74"/>
</g>
<!-- Node10 -->
<g id="node10" class="node">
<title>Node10</title>
<g id="a_node10"><a xlink:href="../../d3/d6c/classcocos2d_1_1_c_c_lens3_d.html" target="_top" xlink:title="CCLens3D action.">
<polygon fill="white" stroke="#666666" points="152,-74 86,-74 86,-55 152,-55 152,-74"/>
<text text-anchor="middle" x="119" y="-62" font-family="Helvetica,sans-Serif" font-size="10.00">CCLens3D</text>
</a>
</g>
</g>
<!-- Node1&#45;&gt;Node10 -->
<g id="edge9" class="edge">
<title>Node1&#45;&gt;Node10</title>
<path fill="none" stroke="#63b8ff" d="M335.8,-108.09C289.39,-99.15 220.77,-85.86 161,-74 158.08,-73.42 155.05,-72.82 152.01,-72.21"/>
<polygon fill="#63b8ff" stroke="#63b8ff" points="335.17,-111.53 345.65,-109.99 336.49,-104.66 335.17,-111.53"/>
</g>
<!-- Node11 -->
<g id="node11" class="node">
<title>Node11</title>
<g id="a_node11"><a xlink:href="../../de/dc7/classcocos2d_1_1_c_c_liquid.html" target="_top" xlink:title="CCLiquid action.">
<polygon fill="white" stroke="#666666" points="229.5,-74 170.5,-74 170.5,-55 229.5,-55 229.5,-74"/>
<text text-anchor="middle" x="200" y="-62" font-family="Helvetica,sans-Serif" font-size="10.00">CCLiquid</text>
</a>
</g>
</g>
<!-- Node1&#45;&gt;Node11 -->
<g id="edge10" class="edge">
<title>Node1&#45;&gt;Node11</title>
<path fill="none" stroke="#63b8ff" d="M349.77,-107.28C313.76,-97.23 261.8,-82.74 229.51,-73.73"/>
<polygon fill="#63b8ff" stroke="#63b8ff" points="348.9,-110.67 359.47,-109.98 350.78,-103.93 348.9,-110.67"/>
</g>
<!-- Node12 -->
<g id="node12" class="node">
<title>Node12</title>
<g id="a_node12"><a xlink:href="../../d6/d7e/classcocos2d_1_1_c_c_page_turn3_d.html" target="_top" xlink:title="This action simulates a page turn from the bottom right hand corner of the screen.">
<polygon fill="white" stroke="#666666" points="334.5,-74 247.5,-74 247.5,-55 334.5,-55 334.5,-74"/>
<text text-anchor="middle" x="291" y="-62" font-family="Helvetica,sans-Serif" font-size="10.00">CCPageTurn3D</text>
</a>
</g>
</g>
<!-- Node1&#45;&gt;Node12 -->
<g id="edge11" class="edge">
<title>Node1&#45;&gt;Node12</title>
<path fill="none" stroke="#63b8ff" d="M365.22,-105.23C347.06,-95.51 322.94,-82.6 307.2,-74.17"/>
<polygon fill="#63b8ff" stroke="#63b8ff" points="363.63,-108.35 374.09,-109.98 366.93,-102.18 363.63,-108.35"/>
</g>
<!-- Node13 -->
<g id="node13" class="node">
<title>Node13</title>
<g id="a_node13"><a xlink:href="../../d3/dea/classcocos2d_1_1_c_c_ripple3_d.html" target="_top" xlink:title="CCRipple3D action.">
<polygon fill="white" stroke="#666666" points="427,-74 353,-74 353,-55 427,-55 427,-74"/>
<text text-anchor="middle" x="390" y="-62" font-family="Helvetica,sans-Serif" font-size="10.00">CCRipple3D</text>
</a>
</g>
</g>
<!-- Node1&#45;&gt;Node13 -->
<g id="edge12" class="edge">
<title>Node1&#45;&gt;Node13</title>
<path fill="none" stroke="#63b8ff" d="M390,-99.66C390,-90.93 390,-80.99 390,-74.09"/>
<polygon fill="#63b8ff" stroke="#63b8ff" points="386.5,-99.75 390,-109.75 393.5,-99.75 386.5,-99.75"/>
</g>
<!-- Node14 -->
<g id="node14" class="node">
<title>Node14</title>
<g id="a_node14"><a xlink:href="../../db/d09/classcocos2d_1_1_c_c_shaky3_d.html" target="_top" xlink:title="CCShaky3D action.">
<polygon fill="white" stroke="#666666" points="518.5,-74 445.5,-74 445.5,-55 518.5,-55 518.5,-74"/>
<text text-anchor="middle" x="482" y="-62" font-family="Helvetica,sans-Serif" font-size="10.00">CCShaky3D</text>
</a>
</g>
</g>
<!-- Node1&#45;&gt;Node14 -->
<g id="edge13" class="edge">
<title>Node1&#45;&gt;Node14</title>
<path fill="none" stroke="#63b8ff" d="M413.49,-104.97C430.31,-95.28 452.45,-82.52 466.95,-74.17"/>
<polygon fill="#63b8ff" stroke="#63b8ff" points="411.7,-101.96 404.78,-109.98 415.19,-108.03 411.7,-101.96"/>
</g>
<!-- Node15 -->
<g id="node15" class="node">
<title>Node15</title>
<g id="a_node15"><a xlink:href="../../d9/d15/classcocos2d_1_1_c_c_twirl.html" target="_top" xlink:title="CCTwirl action.">
<polygon fill="white" stroke="#666666" points="589.5,-74 536.5,-74 536.5,-55 589.5,-55 589.5,-74"/>
<text text-anchor="middle" x="563" y="-62" font-family="Helvetica,sans-Serif" font-size="10.00">CCTwirl</text>
</a>
</g>
</g>
<!-- Node1&#45;&gt;Node15 -->
<g id="edge14" class="edge">
<title>Node1&#45;&gt;Node15</title>
<path fill="none" stroke="#63b8ff" d="M427.51,-107.01C460.36,-96.94 507.29,-82.57 536.41,-73.65"/>
<polygon fill="#63b8ff" stroke="#63b8ff" points="426.33,-103.71 417.8,-109.98 428.38,-110.4 426.33,-103.71"/>
</g>
<!-- Node16 -->
<g id="node16" class="node">
<title>Node16</title>
<g id="a_node16"><a xlink:href="../../de/d84/classcocos2d_1_1_c_c_waves.html" target="_top" xlink:title="CCWaves action.">
<polygon fill="white" stroke="#666666" points="670,-74 608,-74 608,-55 670,-55 670,-74"/>
<text text-anchor="middle" x="639" y="-62" font-family="Helvetica,sans-Serif" font-size="10.00">CCWaves</text>
</a>
</g>
</g>
<!-- Node1&#45;&gt;Node16 -->
<g id="edge15" class="edge">
<title>Node1&#45;&gt;Node16</title>
<path fill="none" stroke="#63b8ff" d="M439.98,-107.86C490.07,-97.2 565.62,-81.12 607.76,-72.15"/>
<polygon fill="#63b8ff" stroke="#63b8ff" points="439.06,-104.48 430.01,-109.98 440.52,-111.33 439.06,-104.48"/>
</g>
<!-- Node17 -->
<g id="node17" class="node">
<title>Node17</title>
<g id="a_node17"><a xlink:href="../../df/d51/classcocos2d_1_1_c_c_waves3_d.html" target="_top" xlink:title="CCWaves3D action.">
<polygon fill="white" stroke="#666666" points="764,-74 688,-74 688,-55 764,-55 764,-74"/>
<text text-anchor="middle" x="726" y="-62" font-family="Helvetica,sans-Serif" font-size="10.00">CCWaves3D</text>
</a>
</g>
</g>
<!-- Node1&#45;&gt;Node17 -->
<g id="edge16" class="edge">
<title>Node1&#45;&gt;Node17</title>
<path fill="none" stroke="#63b8ff" d="M447.76,-110.06C506.14,-101.42 598.94,-87.4 679,-74 681.86,-73.52 684.82,-73.01 687.8,-72.5"/>
<polygon fill="#63b8ff" stroke="#63b8ff" points="447,-106.63 437.62,-111.56 448.02,-113.56 447,-106.63"/>
</g>
<!-- Node2 -->
<g id="node2" class="node">
<title>Node2</title>
<g id="a_node2"><a xlink:href="../../d5/d1e/classcocos2d_1_1_c_c_grid_action.html" target="_top" xlink:title="Base class for Grid actions.">
<polygon fill="white" stroke="#666666" points="430.5,-184 349.5,-184 349.5,-165 430.5,-165 430.5,-184"/>
<text text-anchor="middle" x="390" y="-172" font-family="Helvetica,sans-Serif" font-size="10.00">CCGridAction</text>
</a>
</g>
</g>
<!-- Node2&#45;&gt;Node1 -->
<g id="edge1" class="edge">
<title>Node2&#45;&gt;Node1</title>
<path fill="none" stroke="#63b8ff" d="M390,-154.66C390,-145.93 390,-135.99 390,-129.09"/>
<polygon fill="#63b8ff" stroke="#63b8ff" points="386.5,-154.75 390,-164.75 393.5,-154.75 386.5,-154.75"/>
</g>
<!-- Node3 -->
<g id="node3" class="node">
<title>Node3</title>
<g id="a_node3"><a xlink:href="../../dd/d8d/classcocos2d_1_1_c_c_action_interval.html" target="_top" xlink:title="An interval action is an action that takes place within a certain period of time.">
<polygon fill="white" stroke="#666666" points="439,-239 341,-239 341,-220 439,-220 439,-239"/>
<text text-anchor="middle" x="390" y="-227" font-family="Helvetica,sans-Serif" font-size="10.00">CCActionInterval</text>
</a>
</g>
</g>
<!-- Node3&#45;&gt;Node2 -->
<g id="edge2" class="edge">
<title>Node3&#45;&gt;Node2</title>
<path fill="none" stroke="#63b8ff" d="M390,-209.66C390,-200.93 390,-190.99 390,-184.09"/>
<polygon fill="#63b8ff" stroke="#63b8ff" points="386.5,-209.75 390,-219.75 393.5,-209.75 386.5,-209.75"/>
</g>
<!-- Node4 -->
<g id="node4" class="node">
<title>Node4</title>
<g id="a_node4"><a xlink:href="../../dd/d89/classcocos2d_1_1_c_c_finite_time_action.html" target="_top" xlink:title="Base class actions that do have a finite time duration.">
<polygon fill="white" stroke="#666666" points="446.5,-294 333.5,-294 333.5,-275 446.5,-275 446.5,-294"/>
<text text-anchor="middle" x="390" y="-282" font-family="Helvetica,sans-Serif" font-size="10.00">CCFiniteTimeAction</text>
</a>
</g>
</g>
<!-- Node4&#45;&gt;Node3 -->
<g id="edge3" class="edge">
<title>Node4&#45;&gt;Node3</title>
<path fill="none" stroke="#63b8ff" d="M390,-264.66C390,-255.93 390,-245.99 390,-239.09"/>
<polygon fill="#63b8ff" stroke="#63b8ff" points="386.5,-264.75 390,-274.75 393.5,-264.75 386.5,-264.75"/>
</g>
<!-- Node5 -->
<g id="node5" class="node">
<title>Node5</title>
<g id="a_node5"><a xlink:href="../../d7/d12/classcocos2d_1_1_c_c_action.html" target="_top" xlink:title="Base class for CCAction objects.">
<polygon fill="white" stroke="#666666" points="420.5,-349 359.5,-349 359.5,-330 420.5,-330 420.5,-349"/>
<text text-anchor="middle" x="390" y="-337" font-family="Helvetica,sans-Serif" font-size="10.00">CCAction</text>
</a>
</g>
</g>
<!-- Node5&#45;&gt;Node4 -->
<g id="edge4" class="edge">
<title>Node5&#45;&gt;Node4</title>
<path fill="none" stroke="#63b8ff" d="M390,-319.66C390,-310.93 390,-300.99 390,-294.09"/>
<polygon fill="#63b8ff" stroke="#63b8ff" points="386.5,-319.75 390,-329.75 393.5,-319.75 386.5,-319.75"/>
</g>
<!-- Node6 -->
<g id="node6" class="node">
<title>Node6</title>
<g id="a_node6"><a xlink:href="../../d3/dbf/classcocos2d_1_1_c_c_object.html" target="_top" xlink:title="NA.">
<polygon fill="white" stroke="#666666" points="421,-404 359,-404 359,-385 421,-385 421,-404"/>
<text text-anchor="middle" x="390" y="-392" font-family="Helvetica,sans-Serif" font-size="10.00">CCObject</text>
</a>
</g>
</g>
<!-- Node6&#45;&gt;Node5 -->
<g id="edge5" class="edge">
<title>Node6&#45;&gt;Node5</title>
<path fill="none" stroke="#63b8ff" d="M390,-374.66C390,-365.93 390,-355.99 390,-349.09"/>
<polygon fill="#63b8ff" stroke="#63b8ff" points="386.5,-374.75 390,-384.75 393.5,-374.75 386.5,-374.75"/>
</g>
<!-- Node7 -->
<g id="node7" class="node">
<title>Node7</title>
<g id="a_node7"><a xlink:href="../../d5/d61/classcocos2d_1_1_c_c_copying.html" target="_top" xlink:title="NA NA.">
<polygon fill="white" stroke="#666666" points="425,-459 355,-459 355,-440 425,-440 425,-459"/>
<text text-anchor="middle" x="390" y="-447" font-family="Helvetica,sans-Serif" font-size="10.00">CCCopying</text>
</a>
</g>
</g>
<!-- Node7&#45;&gt;Node6 -->
<g id="edge6" class="edge">
<title>Node7&#45;&gt;Node6</title>
<path fill="none" stroke="#63b8ff" d="M390,-429.66C390,-420.93 390,-410.99 390,-404.09"/>
<polygon fill="#63b8ff" stroke="#63b8ff" points="386.5,-429.75 390,-439.75 393.5,-429.75 386.5,-429.75"/>
</g>
<!-- Node9 -->
<g id="node9" class="node">
<title>Node9</title>
<g id="a_node9"><a xlink:href="../../df/da3/classcocos2d_1_1_c_c_flip_y3_d.html" target="_top" xlink:title="CCFlipY3D action.">
<polygon fill="white" stroke="#666666" points="68,-19 0,-19 0,0 68,0 68,-19"/>
<text text-anchor="middle" x="34" y="-7" font-family="Helvetica,sans-Serif" font-size="10.00">CCFlipY3D</text>
</a>
</g>
</g>
<!-- Node8&#45;&gt;Node9 -->
<g id="edge8" class="edge">
<title>Node8&#45;&gt;Node9</title>
<path fill="none" stroke="#63b8ff" d="M34,-44.66C34,-35.93 34,-25.99 34,-19.09"/>
<polygon fill="#63b8ff" stroke="#63b8ff" points="30.5,-44.75 34,-54.75 37.5,-44.75 30.5,-44.75"/>
</g>
</g>
</svg>
