<?xml version="1.0" encoding="UTF-8" standalone="no"?>
<!DOCTYPE svg PUBLIC "-//W3C//DTD SVG 1.1//EN"
 "http://www.w3.org/Graphics/SVG/1.1/DTD/svg11.dtd">
<!-- Generated by graphviz version 2.43.0 (0)
 -->
<!-- Title: /home/runner/work/cocos&#45;headers/cocos&#45;headers/cocos2dx/label_nodes/CCLabelBMFont.h Pages: 1 -->
<svg width="1535pt" height="744pt"
 viewBox="0.00 0.00 1534.50 744.00" xmlns="http://www.w3.org/2000/svg" xmlns:xlink="http://www.w3.org/1999/xlink">
<g id="graph0" class="graph" transform="scale(1 1) rotate(0) translate(4 740)">
<title>/home/runner/work/cocos&#45;headers/cocos&#45;headers/cocos2dx/label_nodes/CCLabelBMFont.h</title>
<!-- Node1 -->
<g id="node1" class="node">
<title>Node1</title>
<g id="a_node1"><a xlink:title=" ">
<polygon fill="#bfbfbf" stroke="black" points="864.5,-694.5 864.5,-735.5 1079.5,-735.5 1079.5,-694.5 864.5,-694.5"/>
<text text-anchor="start" x="872.5" y="-723.5" font-family="Helvetica,sans-Serif" font-size="10.00">/home/runner/work/cocos</text>
<text text-anchor="start" x="872.5" y="-712.5" font-family="Helvetica,sans-Serif" font-size="10.00">&#45;headers/cocos&#45;headers</text>
<text text-anchor="middle" x="972" y="-701.5" font-family="Helvetica,sans-Serif" font-size="10.00">/cocos2dx/label_nodes/CCLabelBMFont.h</text>
</a>
</g>
</g>
<!-- Node2 -->
<g id="node2" class="node">
<title>Node2</title>
<g id="a_node2"><a xlink:href="../../df/d92/_c_c_sprite_batch_node_8h.html" target="_top" xlink:title=" ">
<polygon fill="none" stroke="black" points="689,-627.5 689,-657.5 841,-657.5 841,-627.5 689,-627.5"/>
<text text-anchor="start" x="697" y="-645.5" font-family="Helvetica,sans-Serif" font-size="10.00">sprite_nodes/CCSpriteBatch</text>
<text text-anchor="middle" x="765" y="-634.5" font-family="Helvetica,sans-Serif" font-size="10.00">Node.h</text>
</a>
</g>
</g>
<!-- Node1&#45;&gt;Node2 -->
<g id="edge1" class="edge">
<title>Node1&#45;&gt;Node2</title>
<path fill="none" stroke="midnightblue" d="M914.61,-694.46C883.76,-683.95 846.04,-671.1 816.19,-660.93"/>
<polygon fill="midnightblue" stroke="midnightblue" points="816.99,-657.51 806.39,-657.6 814.73,-664.13 816.99,-657.51"/>
</g>
<!-- Node28 -->
<g id="node28" class="node">
<title>Node28</title>
<g id="a_node28"><a xlink:title=" ">
<polygon fill="none" stroke="#bfbfbf" points="66,-392.5 66,-411.5 104,-411.5 104,-392.5 66,-392.5"/>
<text text-anchor="middle" x="85" y="-399.5" font-family="Helvetica,sans-Serif" font-size="10.00">map</text>
</a>
</g>
</g>
<!-- Node1&#45;&gt;Node28 -->
<g id="edge65" class="edge">
<title>Node1&#45;&gt;Node28</title>
<path fill="none" stroke="midnightblue" d="M864.2,-699.02C808.5,-689.86 739.84,-676.33 680,-658 451.28,-587.95 191.58,-458.11 110.52,-416.32"/>
<polygon fill="midnightblue" stroke="midnightblue" points="112.03,-413.16 101.54,-411.67 108.81,-419.38 112.03,-413.16"/>
</g>
<!-- Node34 -->
<g id="node34" class="node">
<title>Node34</title>
<g id="a_node34"><a xlink:title=" ">
<polygon fill="none" stroke="#bfbfbf" points="859,-627.5 859,-657.5 979,-657.5 979,-627.5 859,-627.5"/>
<text text-anchor="start" x="867" y="-645.5" font-family="Helvetica,sans-Serif" font-size="10.00">support/data_support</text>
<text text-anchor="middle" x="919" y="-634.5" font-family="Helvetica,sans-Serif" font-size="10.00">/uthash.h</text>
</a>
</g>
</g>
<!-- Node1&#45;&gt;Node34 -->
<g id="edge64" class="edge">
<title>Node1&#45;&gt;Node34</title>
<path fill="none" stroke="midnightblue" d="M957.24,-694.36C950.64,-685.59 942.84,-675.21 936,-666.12"/>
<polygon fill="midnightblue" stroke="midnightblue" points="938.63,-663.78 929.82,-657.89 933.03,-667.99 938.63,-663.78"/>
</g>
<!-- Node35 -->
<g id="node35" class="node">
<title>Node35</title>
<g id="a_node35"><a xlink:title=" ">
<polygon fill="none" stroke="#bfbfbf" points="997,-633 997,-652 1053,-652 1053,-633 997,-633"/>
<text text-anchor="middle" x="1025" y="-640" font-family="Helvetica,sans-Serif" font-size="10.00">sstream</text>
</a>
</g>
</g>
<!-- Node1&#45;&gt;Node35 -->
<g id="edge66" class="edge">
<title>Node1&#45;&gt;Node35</title>
<path fill="none" stroke="midnightblue" d="M986.76,-694.36C994.82,-683.65 1004.69,-670.52 1012.38,-660.29"/>
<polygon fill="midnightblue" stroke="midnightblue" points="1015.27,-662.27 1018.48,-652.17 1009.67,-658.06 1015.27,-662.27"/>
</g>
<!-- Node36 -->
<g id="node36" class="node">
<title>Node36</title>
<g id="a_node36"><a xlink:title=" ">
<polygon fill="none" stroke="#bfbfbf" points="1071,-633 1071,-652 1131,-652 1131,-633 1071,-633"/>
<text text-anchor="middle" x="1101" y="-640" font-family="Helvetica,sans-Serif" font-size="10.00">iostream</text>
</a>
</g>
</g>
<!-- Node1&#45;&gt;Node36 -->
<g id="edge67" class="edge">
<title>Node1&#45;&gt;Node36</title>
<path fill="none" stroke="midnightblue" d="M1007.93,-694.36C1029.72,-682.46 1056.95,-667.58 1076.31,-656.99"/>
<polygon fill="midnightblue" stroke="midnightblue" points="1078.03,-660.04 1085.13,-652.17 1074.68,-653.9 1078.03,-660.04"/>
</g>
<!-- Node37 -->
<g id="node37" class="node">
<title>Node37</title>
<g id="a_node37"><a xlink:title=" ">
<polygon fill="none" stroke="#bfbfbf" points="1149.5,-633 1149.5,-652 1196.5,-652 1196.5,-633 1149.5,-633"/>
<text text-anchor="middle" x="1173" y="-640" font-family="Helvetica,sans-Serif" font-size="10.00">vector</text>
</a>
</g>
</g>
<!-- Node1&#45;&gt;Node37 -->
<g id="edge68" class="edge">
<title>Node1&#45;&gt;Node37</title>
<path fill="none" stroke="midnightblue" d="M1035.12,-694.48C1066.83,-684.29 1105.72,-671.21 1140,-658 1141.61,-657.38 1143.25,-656.73 1144.9,-656.05"/>
<polygon fill="midnightblue" stroke="midnightblue" points="1146.43,-659.21 1154.28,-652.08 1143.7,-652.76 1146.43,-659.21"/>
</g>
<!-- Node3 -->
<g id="node3" class="node">
<title>Node3</title>
<g id="a_node3"><a xlink:href="../../db/d7f/_c_c_node_8h.html" target="_top" xlink:title=" ">
<polygon fill="none" stroke="black" points="618.5,-571.5 618.5,-590.5 743.5,-590.5 743.5,-571.5 618.5,-571.5"/>
<text text-anchor="middle" x="681" y="-578.5" font-family="Helvetica,sans-Serif" font-size="10.00">base_nodes/CCNode.h</text>
</a>
</g>
</g>
<!-- Node2&#45;&gt;Node3 -->
<g id="edge2" class="edge">
<title>Node2&#45;&gt;Node3</title>
<path fill="none" stroke="midnightblue" d="M745.09,-627.4C732.01,-618.13 714.92,-606.03 701.68,-596.65"/>
<polygon fill="midnightblue" stroke="midnightblue" points="703.41,-593.58 693.22,-590.66 699.36,-599.29 703.41,-593.58"/>
</g>
<!-- Node4 -->
<g id="node4" class="node">
<title>Node4</title>
<g id="a_node4"><a xlink:href="../../d9/dc8/cc_macros_8h.html" target="_top" xlink:title=" ">
<polygon fill="none" stroke="black" points="191.5,-224.5 191.5,-243.5 262.5,-243.5 262.5,-224.5 191.5,-224.5"/>
<text text-anchor="middle" x="227" y="-231.5" font-family="Helvetica,sans-Serif" font-size="10.00">ccMacros.h</text>
</a>
</g>
</g>
<!-- Node2&#45;&gt;Node4 -->
<g id="edge62" class="edge">
<title>Node2&#45;&gt;Node4</title>
<path fill="none" stroke="midnightblue" d="M688.85,-639.95C495.35,-633.96 0,-604.91 0,-464.5 0,-464.5 0,-464.5 0,-345 0,-307.44 22.3,-300.14 54,-280 75.02,-266.64 137.68,-252.35 181.51,-243.54"/>
<polygon fill="midnightblue" stroke="midnightblue" points="182.25,-246.96 191.38,-241.58 180.89,-240.09 182.25,-246.96"/>
</g>
<!-- Node17 -->
<g id="node17" class="node">
<title>Node17</title>
<g id="a_node17"><a xlink:href="../../da/d35/_c_c_array_8h.html" target="_top" xlink:title=" ">
<polygon fill="none" stroke="black" points="840.5,-515.5 840.5,-534.5 935.5,-534.5 935.5,-515.5 840.5,-515.5"/>
<text text-anchor="middle" x="888" y="-522.5" font-family="Helvetica,sans-Serif" font-size="10.00">cocoa/CCArray.h</text>
</a>
</g>
</g>
<!-- Node2&#45;&gt;Node17 -->
<g id="edge63" class="edge">
<title>Node2&#45;&gt;Node17</title>
<path fill="none" stroke="midnightblue" d="M780.08,-627.34C803.25,-605.58 847.43,-564.09 871.45,-541.54"/>
<polygon fill="midnightblue" stroke="midnightblue" points="873.87,-544.07 878.77,-534.67 869.08,-538.96 873.87,-544.07"/>
</g>
<!-- Node30 -->
<g id="node30" class="node">
<title>Node30</title>
<g id="a_node30"><a xlink:href="../../d8/d76/_c_c_protocols_8h.html" target="_top" xlink:title=" ">
<polygon fill="none" stroke="black" points="1179,-515.5 1179,-534.5 1263,-534.5 1263,-515.5 1179,-515.5"/>
<text text-anchor="middle" x="1221" y="-522.5" font-family="Helvetica,sans-Serif" font-size="10.00">CCProtocols.h</text>
</a>
</g>
</g>
<!-- Node2&#45;&gt;Node30 -->
<g id="edge56" class="edge">
<title>Node2&#45;&gt;Node30</title>
<path fill="none" stroke="midnightblue" d="M820.46,-627.45C912.28,-604.19 1094.02,-558.16 1177.37,-537.05"/>
<polygon fill="midnightblue" stroke="midnightblue" points="1178.44,-540.39 1187.27,-534.54 1176.72,-533.6 1178.44,-540.39"/>
</g>
<!-- Node33 -->
<g id="node33" class="node">
<title>Node33</title>
<g id="a_node33"><a xlink:href="../../d1/d48/_c_c_texture_atlas_8h.html" target="_top" xlink:title=" ">
<polygon fill="none" stroke="black" points="1383.5,-454 1383.5,-473 1526.5,-473 1526.5,-454 1383.5,-454"/>
<text text-anchor="middle" x="1455" y="-461" font-family="Helvetica,sans-Serif" font-size="10.00">textures/CCTextureAtlas.h</text>
</a>
</g>
</g>
<!-- Node2&#45;&gt;Node33 -->
<g id="edge57" class="edge">
<title>Node2&#45;&gt;Node33</title>
<path fill="none" stroke="midnightblue" d="M839.53,-627.44C959.91,-604.46 1191.76,-559.01 1272,-535 1327.9,-518.27 1390.98,-492.34 1426.56,-477.03"/>
<polygon fill="midnightblue" stroke="midnightblue" points="1428.06,-480.2 1435.84,-473.01 1425.27,-473.78 1428.06,-480.2"/>
</g>
<!-- Node3&#45;&gt;Node4 -->
<g id="edge3" class="edge">
<title>Node3&#45;&gt;Node4</title>
<path fill="none" stroke="midnightblue" d="M618.47,-576.14C456.89,-564.45 38,-522.62 38,-403 38,-403 38,-403 38,-345 38,-278.88 125.47,-251.81 181.4,-241.27"/>
<polygon fill="midnightblue" stroke="midnightblue" points="182.22,-244.68 191.45,-239.48 180.99,-237.78 182.22,-244.68"/>
</g>
<!-- Node11 -->
<g id="node11" class="node">
<title>Node11</title>
<g id="a_node11"><a xlink:href="../../d3/d15/_c_c_affine_transform_8h.html" target="_top" xlink:title=" ">
<polygon fill="none" stroke="black" points="1044,-392.5 1044,-411.5 1192,-411.5 1192,-392.5 1044,-392.5"/>
<text text-anchor="middle" x="1118" y="-399.5" font-family="Helvetica,sans-Serif" font-size="10.00">cocoa/CCAffineTransform.h</text>
</a>
</g>
</g>
<!-- Node3&#45;&gt;Node11 -->
<g id="edge12" class="edge">
<title>Node3&#45;&gt;Node11</title>
<path fill="none" stroke="midnightblue" d="M721.86,-571.43C744.87,-564.81 772.77,-553.55 792,-535 822.5,-505.59 797.33,-473.73 831,-448 847.02,-435.76 955.01,-421.25 1033.82,-412.09"/>
<polygon fill="midnightblue" stroke="midnightblue" points="1034.23,-415.56 1043.76,-410.94 1033.43,-408.61 1034.23,-415.56"/>
</g>
<!-- Node3&#45;&gt;Node17 -->
<g id="edge22" class="edge">
<title>Node3&#45;&gt;Node17</title>
<path fill="none" stroke="midnightblue" d="M713.8,-571.44C749.38,-562.16 806.31,-547.31 845.35,-537.13"/>
<polygon fill="midnightblue" stroke="midnightblue" points="846.56,-540.43 855.35,-534.52 844.79,-533.65 846.56,-540.43"/>
</g>
<!-- Node19 -->
<g id="node19" class="node">
<title>Node19</title>
<g id="a_node19"><a xlink:title=" ">
<polygon fill="none" stroke="#bfbfbf" points="660,-336.5 660,-355.5 712,-355.5 712,-336.5 660,-336.5"/>
<text text-anchor="middle" x="686" y="-343.5" font-family="Helvetica,sans-Serif" font-size="10.00">CCGL.h</text>
</a>
</g>
</g>
<!-- Node3&#45;&gt;Node19 -->
<g id="edge24" class="edge">
<title>Node3&#45;&gt;Node19</title>
<path fill="none" stroke="midnightblue" d="M673.82,-571.34C651.97,-543.88 589.71,-456.69 623,-392 630.08,-378.25 643.52,-367.77 656.18,-360.39"/>
<polygon fill="midnightblue" stroke="midnightblue" points="658,-363.39 665.15,-355.57 654.69,-357.22 658,-363.39"/>
</g>
<!-- Node20 -->
<g id="node20" class="node">
<title>Node20</title>
<g id="a_node20"><a xlink:href="../../da/d2f/cc_g_l_state_cache_8h.html" target="_top" xlink:title=" ">
<polygon fill="none" stroke="black" points="632,-392.5 632,-411.5 778,-411.5 778,-392.5 632,-392.5"/>
<text text-anchor="middle" x="705" y="-399.5" font-family="Helvetica,sans-Serif" font-size="10.00">shaders/ccGLStateCache.h</text>
</a>
</g>
</g>
<!-- Node3&#45;&gt;Node20 -->
<g id="edge25" class="edge">
<title>Node3&#45;&gt;Node20</title>
<path fill="none" stroke="midnightblue" d="M675.87,-571.41C670.94,-562.61 663.84,-548.38 661,-535 659.15,-526.3 659.35,-523.73 661,-515 667.61,-480.09 684.86,-442.14 695.69,-420.59"/>
<polygon fill="midnightblue" stroke="midnightblue" points="698.82,-422.15 700.29,-411.66 692.6,-418.95 698.82,-422.15"/>
</g>
<!-- Node21 -->
<g id="node21" class="node">
<title>Node21</title>
<g id="a_node21"><a xlink:href="../../de/d32/_c_c_g_l_program_8h.html" target="_top" xlink:title=" ">
<polygon fill="none" stroke="black" points="160,-392.5 160,-411.5 294,-411.5 294,-392.5 160,-392.5"/>
<text text-anchor="middle" x="227" y="-399.5" font-family="Helvetica,sans-Serif" font-size="10.00">shaders/CCGLProgram.h</text>
</a>
</g>
</g>
<!-- Node3&#45;&gt;Node21 -->
<g id="edge28" class="edge">
<title>Node3&#45;&gt;Node21</title>
<path fill="none" stroke="midnightblue" d="M643.93,-571.46C582.52,-556.65 456.49,-523.5 356,-479 315.96,-461.27 272.75,-433.96 247.88,-417.36"/>
<polygon fill="midnightblue" stroke="midnightblue" points="249.54,-414.26 239.3,-411.56 245.63,-420.06 249.54,-414.26"/>
</g>
<!-- Node22 -->
<g id="node22" class="node">
<title>Node22</title>
<g id="a_node22"><a xlink:title=" ">
<polygon fill="none" stroke="#bfbfbf" points="670.5,-515.5 670.5,-534.5 783.5,-534.5 783.5,-515.5 670.5,-515.5"/>
<text text-anchor="middle" x="727" y="-522.5" font-family="Helvetica,sans-Serif" font-size="10.00">kazmath/kazmath.h</text>
</a>
</g>
</g>
<!-- Node3&#45;&gt;Node22 -->
<g id="edge32" class="edge">
<title>Node3&#45;&gt;Node22</title>
<path fill="none" stroke="midnightblue" d="M688.6,-571.08C695.23,-563.3 705.02,-551.8 713.06,-542.37"/>
<polygon fill="midnightblue" stroke="midnightblue" points="715.73,-544.63 719.55,-534.75 710.4,-540.09 715.73,-544.63"/>
</g>
<!-- Node23 -->
<g id="node23" class="node">
<title>Node23</title>
<g id="a_node23"><a xlink:href="../../dc/dbc/_c_c_script_support_8h.html" target="_top" xlink:title=" ">
<polygon fill="none" stroke="black" points="365,-454 365,-473 541,-473 541,-454 365,-454"/>
<text text-anchor="middle" x="453" y="-461" font-family="Helvetica,sans-Serif" font-size="10.00">script_support/CCScriptSupport.h</text>
</a>
</g>
</g>
<!-- Node3&#45;&gt;Node23 -->
<g id="edge33" class="edge">
<title>Node3&#45;&gt;Node23</title>
<path fill="none" stroke="midnightblue" d="M663.51,-571.46C645.16,-562.46 615.49,-547.86 590,-535 550.91,-515.28 505.79,-491.95 478.34,-477.69"/>
<polygon fill="midnightblue" stroke="midnightblue" points="479.89,-474.56 469.41,-473.05 476.66,-480.77 479.89,-474.56"/>
</g>
<!-- Node3&#45;&gt;Node30 -->
<g id="edge45" class="edge">
<title>Node3&#45;&gt;Node30</title>
<path fill="none" stroke="midnightblue" d="M743.74,-573.73C851.24,-562.98 1068.71,-541.23 1168.63,-531.24"/>
<polygon fill="midnightblue" stroke="midnightblue" points="1169.19,-534.7 1178.79,-530.22 1168.49,-527.73 1169.19,-534.7"/>
</g>
<!-- Node5 -->
<g id="node5" class="node">
<title>Node5</title>
<g id="a_node5"><a xlink:href="../../d5/d22/_c_c_common_8h.html" target="_top" xlink:title=" ">
<polygon fill="none" stroke="black" points="107,-168.5 107,-187.5 235,-187.5 235,-168.5 107,-168.5"/>
<text text-anchor="middle" x="171" y="-175.5" font-family="Helvetica,sans-Serif" font-size="10.00">platform/CCCommon.h</text>
</a>
</g>
</g>
<!-- Node4&#45;&gt;Node5 -->
<g id="edge4" class="edge">
<title>Node4&#45;&gt;Node5</title>
<path fill="none" stroke="midnightblue" d="M218,-224.32C209.81,-216.42 197.49,-204.55 187.53,-194.94"/>
<polygon fill="midnightblue" stroke="midnightblue" points="189.79,-192.26 180.16,-187.83 184.93,-197.29 189.79,-192.26"/>
</g>
<!-- Node7 -->
<g id="node7" class="node">
<title>Node7</title>
<g id="a_node7"><a xlink:href="../../db/d9f/cc_config_8h.html" target="_top" xlink:title="cocos2d (cc) configuration file">
<polygon fill="none" stroke="black" points="858.5,-56.5 858.5,-75.5 925.5,-75.5 925.5,-56.5 858.5,-56.5"/>
<text text-anchor="middle" x="892" y="-63.5" font-family="Helvetica,sans-Serif" font-size="10.00">ccConfig.h</text>
</a>
</g>
</g>
<!-- Node4&#45;&gt;Node7 -->
<g id="edge11" class="edge">
<title>Node4&#45;&gt;Node7</title>
<path fill="none" stroke="midnightblue" d="M261.35,-224.42C372.85,-196.59 724.55,-108.8 848.36,-77.89"/>
<polygon fill="midnightblue" stroke="midnightblue" points="849.39,-81.24 858.25,-75.43 847.7,-74.45 849.39,-81.24"/>
</g>
<!-- Node10 -->
<g id="node10" class="node">
<title>Node10</title>
<g id="a_node10"><a xlink:title=" ">
<polygon fill="none" stroke="#bfbfbf" points="253,-168.5 253,-187.5 315,-187.5 315,-168.5 253,-168.5"/>
<text text-anchor="middle" x="284" y="-175.5" font-family="Helvetica,sans-Serif" font-size="10.00">CCStdC.h</text>
</a>
</g>
</g>
<!-- Node4&#45;&gt;Node10 -->
<g id="edge10" class="edge">
<title>Node4&#45;&gt;Node10</title>
<path fill="none" stroke="midnightblue" d="M236.16,-224.32C244.5,-216.42 257.03,-204.55 267.18,-194.94"/>
<polygon fill="midnightblue" stroke="midnightblue" points="269.82,-197.25 274.68,-187.83 265.01,-192.17 269.82,-197.25"/>
</g>
<!-- Node6 -->
<g id="node6" class="node">
<title>Node6</title>
<g id="a_node6"><a xlink:href="../../d3/d41/_c_c_platform_macros_8h.html" target="_top" xlink:title=" ">
<polygon fill="none" stroke="black" points="942,-112.5 942,-131.5 1058,-131.5 1058,-112.5 942,-112.5"/>
<text text-anchor="middle" x="1000" y="-119.5" font-family="Helvetica,sans-Serif" font-size="10.00">CCPlatformMacros.h</text>
</a>
</g>
</g>
<!-- Node5&#45;&gt;Node6 -->
<g id="edge5" class="edge">
<title>Node5&#45;&gt;Node6</title>
<path fill="none" stroke="midnightblue" d="M235.07,-168.87C238.09,-168.56 241.08,-168.27 244,-168 496.99,-144.9 798.75,-131.03 931.54,-125.62"/>
<polygon fill="midnightblue" stroke="midnightblue" points="931.72,-129.12 941.57,-125.22 931.44,-122.13 931.72,-129.12"/>
</g>
<!-- Node6&#45;&gt;Node7 -->
<g id="edge6" class="edge">
<title>Node6&#45;&gt;Node7</title>
<path fill="none" stroke="midnightblue" d="M982.65,-112.32C965.33,-103.66 938.48,-90.24 918.5,-80.25"/>
<polygon fill="midnightblue" stroke="midnightblue" points="919.82,-77 909.31,-75.65 916.69,-83.26 919.82,-77"/>
</g>
<!-- Node8 -->
<g id="node8" class="node">
<title>Node8</title>
<g id="a_node8"><a xlink:href="../../dd/d96/_c_c_platform_config_8h.html" target="_top" xlink:title=" ">
<polygon fill="none" stroke="black" points="909.5,-0.5 909.5,-19.5 1066.5,-19.5 1066.5,-0.5 909.5,-0.5"/>
<text text-anchor="middle" x="988" y="-7.5" font-family="Helvetica,sans-Serif" font-size="10.00">platform/CCPlatformConfig.h</text>
</a>
</g>
</g>
<!-- Node6&#45;&gt;Node8 -->
<g id="edge8" class="edge">
<title>Node6&#45;&gt;Node8</title>
<path fill="none" stroke="midnightblue" d="M1020.4,-112.48C1044.23,-101.21 1078.74,-79.95 1065,-56 1056.38,-40.99 1040.61,-30.5 1025.57,-23.46"/>
<polygon fill="midnightblue" stroke="midnightblue" points="1026.94,-20.24 1016.37,-19.51 1024.18,-26.67 1026.94,-20.24"/>
</g>
<!-- Node9 -->
<g id="node9" class="node">
<title>Node9</title>
<g id="a_node9"><a xlink:title=" ">
<polygon fill="none" stroke="#bfbfbf" points="943.5,-56.5 943.5,-75.5 1056.5,-75.5 1056.5,-56.5 943.5,-56.5"/>
<text text-anchor="middle" x="1000" y="-63.5" font-family="Helvetica,sans-Serif" font-size="10.00">CCPlatformDefine.h</text>
</a>
</g>
</g>
<!-- Node6&#45;&gt;Node9 -->
<g id="edge9" class="edge">
<title>Node6&#45;&gt;Node9</title>
<path fill="none" stroke="midnightblue" d="M1000,-112.08C1000,-105.01 1000,-94.86 1000,-85.99"/>
<polygon fill="midnightblue" stroke="midnightblue" points="1003.5,-85.75 1000,-75.75 996.5,-85.75 1003.5,-85.75"/>
</g>
<!-- Node7&#45;&gt;Node8 -->
<g id="edge7" class="edge">
<title>Node7&#45;&gt;Node8</title>
<path fill="none" stroke="midnightblue" d="M907.42,-56.32C922.54,-47.82 945.82,-34.73 963.47,-24.8"/>
<polygon fill="midnightblue" stroke="midnightblue" points="965.61,-27.61 972.61,-19.65 962.18,-21.51 965.61,-27.61"/>
</g>
<!-- Node11&#45;&gt;Node6 -->
<g id="edge21" class="edge">
<title>Node11&#45;&gt;Node6</title>
<path fill="none" stroke="midnightblue" d="M1110.92,-392.46C1092.59,-369.85 1043.37,-305.93 1020,-244 1006.95,-209.42 1002.4,-166.1 1000.83,-141.79"/>
<polygon fill="midnightblue" stroke="midnightblue" points="1004.3,-141.3 1000.27,-131.51 997.31,-141.68 1004.3,-141.3"/>
</g>
<!-- Node12 -->
<g id="node12" class="node">
<title>Node12</title>
<g id="a_node12"><a xlink:href="../../d6/d09/_c_c_geometry_8h.html" target="_top" xlink:title=" ">
<polygon fill="none" stroke="black" points="1107,-336.5 1107,-355.5 1193,-355.5 1193,-336.5 1107,-336.5"/>
<text text-anchor="middle" x="1150" y="-343.5" font-family="Helvetica,sans-Serif" font-size="10.00">CCGeometry.h</text>
</a>
</g>
</g>
<!-- Node11&#45;&gt;Node12 -->
<g id="edge13" class="edge">
<title>Node11&#45;&gt;Node12</title>
<path fill="none" stroke="midnightblue" d="M1123.28,-392.08C1127.71,-384.61 1134.16,-373.72 1139.62,-364.52"/>
<polygon fill="midnightblue" stroke="midnightblue" points="1142.73,-366.14 1144.81,-355.75 1136.71,-362.57 1142.73,-366.14"/>
</g>
<!-- Node12&#45;&gt;Node6 -->
<g id="edge14" class="edge">
<title>Node12&#45;&gt;Node6</title>
<path fill="none" stroke="midnightblue" d="M1150.63,-336.36C1151.73,-315.46 1152.11,-261.14 1130,-224 1105.59,-183.01 1057.74,-152.53 1027.39,-136.28"/>
<polygon fill="midnightblue" stroke="midnightblue" points="1028.7,-133.02 1018.21,-131.51 1025.47,-139.23 1028.7,-133.02"/>
</g>
<!-- Node13 -->
<g id="node13" class="node">
<title>Node13</title>
<g id="a_node13"><a xlink:href="../../dd/d69/_c_c_object_8h.html" target="_top" xlink:title=" ">
<polygon fill="none" stroke="black" points="812.5,-280.5 812.5,-299.5 883.5,-299.5 883.5,-280.5 812.5,-280.5"/>
<text text-anchor="middle" x="848" y="-287.5" font-family="Helvetica,sans-Serif" font-size="10.00">CCObject.h</text>
</a>
</g>
</g>
<!-- Node12&#45;&gt;Node13 -->
<g id="edge15" class="edge">
<title>Node12&#45;&gt;Node13</title>
<path fill="none" stroke="midnightblue" d="M1106.73,-337.26C1050.11,-327.14 951.32,-309.48 893.58,-299.15"/>
<polygon fill="midnightblue" stroke="midnightblue" points="894.1,-295.69 883.64,-297.37 892.87,-302.58 894.1,-295.69"/>
</g>
<!-- Node16 -->
<g id="node16" class="node">
<title>Node16</title>
<g id="a_node16"><a xlink:title=" ">
<polygon fill="none" stroke="#bfbfbf" points="1178.5,-280.5 1178.5,-299.5 1229.5,-299.5 1229.5,-280.5 1178.5,-280.5"/>
<text text-anchor="middle" x="1204" y="-287.5" font-family="Helvetica,sans-Serif" font-size="10.00">math.h</text>
</a>
</g>
</g>
<!-- Node12&#45;&gt;Node16 -->
<g id="edge20" class="edge">
<title>Node12&#45;&gt;Node16</title>
<path fill="none" stroke="midnightblue" d="M1158.92,-336.08C1166.78,-328.22 1178.43,-316.57 1187.92,-307.08"/>
<polygon fill="midnightblue" stroke="midnightblue" points="1190.65,-309.3 1195.25,-299.75 1185.7,-304.35 1190.65,-309.3"/>
</g>
<!-- Node13&#45;&gt;Node4 -->
<g id="edge19" class="edge">
<title>Node13&#45;&gt;Node4</title>
<path fill="none" stroke="midnightblue" d="M812.38,-285.9C706.18,-276.67 391.76,-249.33 273.06,-239.01"/>
<polygon fill="midnightblue" stroke="midnightblue" points="273.13,-235.5 262.86,-238.12 272.52,-242.47 273.13,-235.5"/>
</g>
<!-- Node14 -->
<g id="node14" class="node">
<title>Node14</title>
<g id="a_node14"><a xlink:href="../../d9/d2d/_c_c_data_visitor_8h.html" target="_top" xlink:title=" ">
<polygon fill="none" stroke="black" points="1028.5,-224.5 1028.5,-243.5 1121.5,-243.5 1121.5,-224.5 1028.5,-224.5"/>
<text text-anchor="middle" x="1075" y="-231.5" font-family="Helvetica,sans-Serif" font-size="10.00">CCDataVisitor.h</text>
</a>
</g>
</g>
<!-- Node13&#45;&gt;Node14 -->
<g id="edge16" class="edge">
<title>Node13&#45;&gt;Node14</title>
<path fill="none" stroke="midnightblue" d="M883.72,-280.5C923.02,-271.15 986.29,-256.1 1029.21,-245.89"/>
<polygon fill="midnightblue" stroke="midnightblue" points="1030.2,-249.26 1039.12,-243.54 1028.58,-242.45 1030.2,-249.26"/>
</g>
<!-- Node14&#45;&gt;Node6 -->
<g id="edge17" class="edge">
<title>Node14&#45;&gt;Node6</title>
<path fill="none" stroke="midnightblue" d="M1069.11,-224.37C1056.74,-206.22 1027.82,-163.8 1011.58,-139.99"/>
<polygon fill="midnightblue" stroke="midnightblue" points="1014.38,-137.88 1005.86,-131.59 1008.6,-141.83 1014.38,-137.88"/>
</g>
<!-- Node15 -->
<g id="node15" class="node">
<title>Node15</title>
<g id="a_node15"><a xlink:title=" ">
<polygon fill="none" stroke="#bfbfbf" points="1331,-168.5 1331,-187.5 1375,-187.5 1375,-168.5 1331,-168.5"/>
<text text-anchor="middle" x="1353" y="-175.5" font-family="Helvetica,sans-Serif" font-size="10.00">string</text>
</a>
</g>
</g>
<!-- Node14&#45;&gt;Node15 -->
<g id="edge18" class="edge">
<title>Node14&#45;&gt;Node15</title>
<path fill="none" stroke="midnightblue" d="M1119.05,-224.44C1175.22,-213.53 1271.03,-194.92 1320.82,-185.25"/>
<polygon fill="midnightblue" stroke="midnightblue" points="1321.56,-188.67 1330.71,-183.33 1320.23,-181.8 1321.56,-188.67"/>
</g>
<!-- Node18 -->
<g id="node18" class="node">
<title>Node18</title>
<g id="a_node18"><a xlink:title=" ">
<polygon fill="none" stroke="#bfbfbf" points="840,-448.5 840,-478.5 960,-478.5 960,-448.5 840,-448.5"/>
<text text-anchor="start" x="848" y="-466.5" font-family="Helvetica,sans-Serif" font-size="10.00">support/data_support</text>
<text text-anchor="middle" x="900" y="-455.5" font-family="Helvetica,sans-Serif" font-size="10.00">/ccCArray.h</text>
</a>
</g>
</g>
<!-- Node17&#45;&gt;Node18 -->
<g id="edge23" class="edge">
<title>Node17&#45;&gt;Node18</title>
<path fill="none" stroke="midnightblue" d="M889.72,-515.48C891.15,-508.4 893.25,-497.97 895.18,-488.39"/>
<polygon fill="midnightblue" stroke="midnightblue" points="898.63,-489.02 897.17,-478.52 891.76,-487.63 898.63,-489.02"/>
</g>
<!-- Node20&#45;&gt;Node6 -->
<g id="edge27" class="edge">
<title>Node20&#45;&gt;Node6</title>
<path fill="none" stroke="midnightblue" d="M711.81,-392.46C725.28,-374.69 754,-331.98 754,-291 754,-291 754,-291 754,-233 754,-154.81 858.86,-131.83 931.66,-125.3"/>
<polygon fill="midnightblue" stroke="midnightblue" points="932.02,-128.78 941.7,-124.48 931.45,-121.8 932.02,-128.78"/>
</g>
<!-- Node20&#45;&gt;Node19 -->
<g id="edge26" class="edge">
<title>Node20&#45;&gt;Node19</title>
<path fill="none" stroke="midnightblue" d="M701.86,-392.08C699.32,-384.85 695.64,-374.41 692.47,-365.4"/>
<polygon fill="midnightblue" stroke="midnightblue" points="695.7,-364.02 689.08,-355.75 689.1,-366.35 695.7,-364.02"/>
</g>
<!-- Node21&#45;&gt;Node4 -->
<g id="edge29" class="edge">
<title>Node21&#45;&gt;Node4</title>
<path fill="none" stroke="midnightblue" d="M227,-392.08C227,-365.95 227,-289.21 227,-253.58"/>
<polygon fill="midnightblue" stroke="midnightblue" points="230.5,-253.57 227,-243.57 223.5,-253.57 230.5,-253.57"/>
</g>
<!-- Node21&#45;&gt;Node13 -->
<g id="edge30" class="edge">
<title>Node21&#45;&gt;Node13</title>
<path fill="none" stroke="midnightblue" d="M259.24,-392.48C311.27,-378.97 417.1,-352.49 508,-336 612.55,-317.03 736.55,-302.64 802.09,-295.67"/>
<polygon fill="midnightblue" stroke="midnightblue" points="802.51,-299.14 812.09,-294.61 801.78,-292.18 802.51,-299.14"/>
</g>
<!-- Node21&#45;&gt;Node19 -->
<g id="edge31" class="edge">
<title>Node21&#45;&gt;Node19</title>
<path fill="none" stroke="midnightblue" d="M294.14,-393.05C297.13,-392.69 300.1,-392.34 303,-392 430.49,-376.96 581.86,-359.21 649.82,-351.24"/>
<polygon fill="midnightblue" stroke="midnightblue" points="650.47,-354.69 659.99,-350.05 649.65,-347.74 650.47,-354.69"/>
</g>
<!-- Node23&#45;&gt;Node5 -->
<g id="edge34" class="edge">
<title>Node23&#45;&gt;Node5</title>
<path fill="none" stroke="midnightblue" d="M364.91,-459.99C285.78,-455.66 178.01,-443.9 151,-412 97.92,-349.31 141.23,-240.18 161.73,-197.17"/>
<polygon fill="midnightblue" stroke="midnightblue" points="164.99,-198.46 166.27,-187.94 158.71,-195.37 164.99,-198.46"/>
</g>
<!-- Node23&#45;&gt;Node15 -->
<g id="edge43" class="edge">
<title>Node23&#45;&gt;Node15</title>
<path fill="none" stroke="midnightblue" d="M541.25,-458.34C732.8,-449.08 1171.87,-426.4 1201,-412 1235.44,-394.97 1258,-385.42 1258,-347 1258,-347 1258,-347 1258,-289 1258,-245.74 1300.61,-211.09 1328.75,-192.91"/>
<polygon fill="midnightblue" stroke="midnightblue" points="1330.66,-195.85 1337.31,-187.6 1326.97,-189.9 1330.66,-195.85"/>
</g>
<!-- Node24 -->
<g id="node24" class="node">
<title>Node24</title>
<g id="a_node24"><a xlink:title=" ">
<polygon fill="none" stroke="#bfbfbf" points="362,-392.5 362,-411.5 472,-411.5 472,-392.5 362,-392.5"/>
<text text-anchor="middle" x="417" y="-399.5" font-family="Helvetica,sans-Serif" font-size="10.00">CCAccelerometer.h</text>
</a>
</g>
</g>
<!-- Node23&#45;&gt;Node24 -->
<g id="edge35" class="edge">
<title>Node23&#45;&gt;Node24</title>
<path fill="none" stroke="midnightblue" d="M447.84,-453.98C442.55,-445.23 434.16,-431.37 427.47,-420.31"/>
<polygon fill="midnightblue" stroke="midnightblue" points="430.32,-418.25 422.15,-411.51 424.33,-421.88 430.32,-418.25"/>
</g>
<!-- Node25 -->
<g id="node25" class="node">
<title>Node25</title>
<g id="a_node25"><a xlink:href="../../d3/dff/_c_c_touch_8h.html" target="_top" xlink:title=" ">
<polygon fill="none" stroke="black" points="834.5,-392.5 834.5,-411.5 987.5,-411.5 987.5,-392.5 834.5,-392.5"/>
<text text-anchor="middle" x="911" y="-399.5" font-family="Helvetica,sans-Serif" font-size="10.00">touch_dispatcher/CCTouch.h</text>
</a>
</g>
</g>
<!-- Node23&#45;&gt;Node25 -->
<g id="edge36" class="edge">
<title>Node23&#45;&gt;Node25</title>
<path fill="none" stroke="midnightblue" d="M518.62,-453.98C602.46,-443.08 747.25,-424.27 835.55,-412.8"/>
<polygon fill="midnightblue" stroke="midnightblue" points="836.04,-416.27 845.5,-411.51 835.13,-409.33 836.04,-416.27"/>
</g>
<!-- Node26 -->
<g id="node26" class="node">
<title>Node26</title>
<g id="a_node26"><a xlink:href="../../da/ddc/_c_c_set_8h.html" target="_top" xlink:title=" ">
<polygon fill="none" stroke="black" points="490,-392.5 490,-411.5 576,-411.5 576,-392.5 490,-392.5"/>
<text text-anchor="middle" x="533" y="-399.5" font-family="Helvetica,sans-Serif" font-size="10.00">cocoa/CCSet.h</text>
</a>
</g>
</g>
<!-- Node23&#45;&gt;Node26 -->
<g id="edge39" class="edge">
<title>Node23&#45;&gt;Node26</title>
<path fill="none" stroke="midnightblue" d="M464.46,-453.98C477.17,-444.52 497.91,-429.1 513.25,-417.69"/>
<polygon fill="midnightblue" stroke="midnightblue" points="515.62,-420.29 521.56,-411.51 511.45,-414.67 515.62,-420.29"/>
</g>
<!-- Node23&#45;&gt;Node28 -->
<g id="edge42" class="edge">
<title>Node23&#45;&gt;Node28</title>
<path fill="none" stroke="midnightblue" d="M380.02,-453.99C311.87,-445.46 207.49,-430.88 118,-412 116.73,-411.73 115.43,-411.44 114.12,-411.14"/>
<polygon fill="midnightblue" stroke="midnightblue" points="114.65,-407.66 104.1,-408.62 112.94,-414.45 114.65,-407.66"/>
</g>
<!-- Node29 -->
<g id="node29" class="node">
<title>Node29</title>
<g id="a_node29"><a xlink:title=" ">
<polygon fill="none" stroke="#bfbfbf" points="312,-392.5 312,-411.5 344,-411.5 344,-392.5 312,-392.5"/>
<text text-anchor="middle" x="328" y="-399.5" font-family="Helvetica,sans-Serif" font-size="10.00">list</text>
</a>
</g>
</g>
<!-- Node23&#45;&gt;Node29 -->
<g id="edge44" class="edge">
<title>Node23&#45;&gt;Node29</title>
<path fill="none" stroke="midnightblue" d="M435.09,-453.98C413.73,-443.81 377.87,-426.74 353.59,-415.18"/>
<polygon fill="midnightblue" stroke="midnightblue" points="354.82,-411.89 344.29,-410.75 351.81,-418.21 354.82,-411.89"/>
</g>
<!-- Node25&#45;&gt;Node12 -->
<g id="edge38" class="edge">
<title>Node25&#45;&gt;Node12</title>
<path fill="none" stroke="midnightblue" d="M948.87,-392.44C990.48,-383.04 1057.37,-367.93 1102.47,-357.74"/>
<polygon fill="midnightblue" stroke="midnightblue" points="1103.32,-361.13 1112.31,-355.52 1101.78,-354.31 1103.32,-361.13"/>
</g>
<!-- Node25&#45;&gt;Node13 -->
<g id="edge37" class="edge">
<title>Node25&#45;&gt;Node13</title>
<path fill="none" stroke="midnightblue" d="M906.06,-392.37C895.71,-374.3 871.58,-332.18 857.91,-308.31"/>
<polygon fill="midnightblue" stroke="midnightblue" points="860.93,-306.53 852.92,-299.59 854.85,-310.01 860.93,-306.53"/>
</g>
<!-- Node26&#45;&gt;Node13 -->
<g id="edge41" class="edge">
<title>Node26&#45;&gt;Node13</title>
<path fill="none" stroke="midnightblue" d="M545.86,-392.33C566.95,-378.49 610.57,-351.41 651,-336 701.17,-316.88 761.75,-304.54 802.37,-297.71"/>
<polygon fill="midnightblue" stroke="midnightblue" points="802.95,-301.16 812.25,-296.09 801.82,-294.25 802.95,-301.16"/>
</g>
<!-- Node27 -->
<g id="node27" class="node">
<title>Node27</title>
<g id="a_node27"><a xlink:title=" ">
<polygon fill="none" stroke="#bfbfbf" points="517,-336.5 517,-355.5 549,-355.5 549,-336.5 517,-336.5"/>
<text text-anchor="middle" x="533" y="-343.5" font-family="Helvetica,sans-Serif" font-size="10.00">set</text>
</a>
</g>
</g>
<!-- Node26&#45;&gt;Node27 -->
<g id="edge40" class="edge">
<title>Node26&#45;&gt;Node27</title>
<path fill="none" stroke="midnightblue" d="M533,-392.08C533,-385.01 533,-374.86 533,-365.99"/>
<polygon fill="midnightblue" stroke="midnightblue" points="536.5,-365.75 533,-355.75 529.5,-365.75 536.5,-365.75"/>
</g>
<!-- Node30&#45;&gt;Node15 -->
<g id="edge55" class="edge">
<title>Node30&#45;&gt;Node15</title>
<path fill="none" stroke="midnightblue" d="M1244.91,-515.42C1296.98,-495.04 1416,-438.44 1416,-347 1416,-347 1416,-347 1416,-289 1416,-251.48 1388.05,-215.14 1369.39,-195.05"/>
<polygon fill="midnightblue" stroke="midnightblue" points="1371.76,-192.48 1362.3,-187.72 1366.73,-197.34 1371.76,-192.48"/>
</g>
<!-- Node31 -->
<g id="node31" class="node">
<title>Node31</title>
<g id="a_node31"><a xlink:href="../../df/de6/cc_types_8h.html" target="_top" xlink:title=" ">
<polygon fill="none" stroke="black" points="1286,-392.5 1286,-411.5 1350,-411.5 1350,-392.5 1286,-392.5"/>
<text text-anchor="middle" x="1318" y="-399.5" font-family="Helvetica,sans-Serif" font-size="10.00">ccTypes.h</text>
</a>
</g>
</g>
<!-- Node30&#45;&gt;Node31 -->
<g id="edge46" class="edge">
<title>Node30&#45;&gt;Node31</title>
<path fill="none" stroke="midnightblue" d="M1244.2,-515.49C1260.9,-508.23 1282.75,-496.21 1296,-479 1308.8,-462.37 1314.16,-438.53 1316.4,-422"/>
<polygon fill="midnightblue" stroke="midnightblue" points="1319.89,-422.23 1317.5,-411.91 1312.93,-421.47 1319.89,-422.23"/>
</g>
<!-- Node32 -->
<g id="node32" class="node">
<title>Node32</title>
<g id="a_node32"><a xlink:href="../../d5/d70/_c_c_texture2_d_8h.html" target="_top" xlink:title=" ">
<polygon fill="none" stroke="black" points="1155,-454 1155,-473 1287,-473 1287,-454 1155,-454"/>
<text text-anchor="middle" x="1221" y="-461" font-family="Helvetica,sans-Serif" font-size="10.00">textures/CCTexture2D.h</text>
</a>
</g>
</g>
<!-- Node30&#45;&gt;Node32 -->
<g id="edge50" class="edge">
<title>Node30&#45;&gt;Node32</title>
<path fill="none" stroke="midnightblue" d="M1221,-515.48C1221,-507.08 1221,-493.98 1221,-483.16"/>
<polygon fill="midnightblue" stroke="midnightblue" points="1224.5,-483.01 1221,-473.01 1217.5,-483.01 1224.5,-483.01"/>
</g>
<!-- Node31&#45;&gt;Node12 -->
<g id="edge48" class="edge">
<title>Node31&#45;&gt;Node12</title>
<path fill="none" stroke="midnightblue" d="M1291.38,-392.44C1262.99,-383.32 1217.86,-368.81 1186.25,-358.65"/>
<polygon fill="midnightblue" stroke="midnightblue" points="1187.09,-355.24 1176.5,-355.52 1184.94,-361.91 1187.09,-355.24"/>
</g>
<!-- Node31&#45;&gt;Node15 -->
<g id="edge47" class="edge">
<title>Node31&#45;&gt;Node15</title>
<path fill="none" stroke="midnightblue" d="M1319.37,-392.3C1324.52,-359.63 1342.77,-243.87 1350.01,-197.96"/>
<polygon fill="midnightblue" stroke="midnightblue" points="1353.5,-198.31 1351.6,-187.88 1346.58,-197.22 1353.5,-198.31"/>
</g>
<!-- Node31&#45;&gt;Node19 -->
<g id="edge49" class="edge">
<title>Node31&#45;&gt;Node19</title>
<path fill="none" stroke="midnightblue" d="M1285.79,-398.25C1178.69,-389.1 834.95,-359.73 722.2,-350.09"/>
<polygon fill="midnightblue" stroke="midnightblue" points="722.28,-346.59 712.02,-349.22 721.69,-353.56 722.28,-346.59"/>
</g>
<!-- Node32&#45;&gt;Node12 -->
<g id="edge53" class="edge">
<title>Node32&#45;&gt;Node12</title>
<path fill="none" stroke="midnightblue" d="M1220.1,-453.61C1218.35,-439.56 1213.48,-411.81 1201,-392 1193.53,-380.14 1182.01,-369.6 1171.81,-361.7"/>
<polygon fill="midnightblue" stroke="midnightblue" points="1173.81,-358.82 1163.68,-355.73 1169.66,-364.47 1173.81,-358.82"/>
</g>
<!-- Node32&#45;&gt;Node13 -->
<g id="edge52" class="edge">
<title>Node32&#45;&gt;Node13</title>
<path fill="none" stroke="midnightblue" d="M1154.87,-458.77C1047.84,-452.05 846.41,-436.32 825,-412 799.31,-382.83 821.7,-334.08 836.84,-308.26"/>
<polygon fill="midnightblue" stroke="midnightblue" points="839.92,-309.93 842.18,-299.58 833.96,-306.27 839.92,-309.93"/>
</g>
<!-- Node32&#45;&gt;Node15 -->
<g id="edge51" class="edge">
<title>Node32&#45;&gt;Node15</title>
<path fill="none" stroke="midnightblue" d="M1278.06,-453.99C1305.93,-447.06 1337.91,-434.54 1359,-412 1379.56,-390.02 1378,-377.1 1378,-347 1378,-347 1378,-347 1378,-289 1378,-256 1367.17,-218.77 1359.76,-197.19"/>
<polygon fill="midnightblue" stroke="midnightblue" points="1363.03,-195.93 1356.37,-187.69 1356.43,-198.28 1363.03,-195.93"/>
</g>
<!-- Node32&#45;&gt;Node31 -->
<g id="edge54" class="edge">
<title>Node32&#45;&gt;Node31</title>
<path fill="none" stroke="midnightblue" d="M1234.9,-453.98C1250.67,-444.3 1276.64,-428.37 1295.35,-416.89"/>
<polygon fill="midnightblue" stroke="midnightblue" points="1297.43,-419.72 1304.13,-411.51 1293.77,-413.75 1297.43,-419.72"/>
</g>
<!-- Node33&#45;&gt;Node7 -->
<g id="edge60" class="edge">
<title>Node33&#45;&gt;Node7</title>
<path fill="none" stroke="midnightblue" d="M1459.84,-453.82C1469.87,-434.98 1492,-388.69 1492,-347 1492,-347 1492,-347 1492,-177 1492,-54.06 1078.58,-98.12 936.08,-76.14"/>
<polygon fill="midnightblue" stroke="midnightblue" points="936.36,-72.64 925.91,-74.36 935.16,-79.53 936.36,-72.64"/>
</g>
<!-- Node33&#45;&gt;Node13 -->
<g id="edge59" class="edge">
<title>Node33&#45;&gt;Node13</title>
<path fill="none" stroke="midnightblue" d="M1383.37,-455.67C1272.06,-444.78 1066.94,-423.55 1035,-412 999.33,-399.1 908.53,-334.92 868.03,-305.63"/>
<polygon fill="midnightblue" stroke="midnightblue" points="869.9,-302.66 859.75,-299.62 865.78,-308.32 869.9,-302.66"/>
</g>
<!-- Node33&#45;&gt;Node15 -->
<g id="edge61" class="edge">
<title>Node33&#45;&gt;Node15</title>
<path fill="none" stroke="midnightblue" d="M1454.87,-453.81C1454.6,-434.56 1454,-386.91 1454,-347 1454,-347 1454,-347 1454,-289 1454,-258.2 1449.79,-247.6 1430,-224 1417.89,-209.56 1399.88,-198.67 1384.33,-191.23"/>
<polygon fill="midnightblue" stroke="midnightblue" points="1385.59,-187.96 1375.04,-187.04 1382.71,-194.34 1385.59,-187.96"/>
</g>
<!-- Node33&#45;&gt;Node31 -->
<g id="edge58" class="edge">
<title>Node33&#45;&gt;Node31</title>
<path fill="none" stroke="midnightblue" d="M1435.37,-453.98C1412.18,-443.9 1373.38,-427.05 1346.79,-415.5"/>
<polygon fill="midnightblue" stroke="midnightblue" points="1348.16,-412.28 1337.59,-411.51 1345.37,-418.7 1348.16,-412.28"/>
</g>
</g>
</svg>
