<?xml version="1.0" encoding="UTF-8" standalone="no"?>
<!DOCTYPE svg PUBLIC "-//W3C//DTD SVG 1.1//EN"
 "http://www.w3.org/Graphics/SVG/1.1/DTD/svg11.dtd">
<!-- Generated by graphviz version 2.43.0 (0)
 -->
<!-- Title: /home/runner/work/cocos&#45;headers/cocos&#45;headers/cocos2dx/label_nodes/CCLabelBMFont.h Pages: 1 -->
<svg width="1535pt" height="731pt"
 viewBox="0.00 0.00 1534.50 731.00" xmlns="http://www.w3.org/2000/svg" xmlns:xlink="http://www.w3.org/1999/xlink">
<g id="graph0" class="graph" transform="scale(1 1) rotate(0) translate(4 727)">
<title>/home/runner/work/cocos&#45;headers/cocos&#45;headers/cocos2dx/label_nodes/CCLabelBMFont.h</title>
<!-- Node1 -->
<g id="node1" class="node">
<title>Node1</title>
<g id="a_node1"><a xlink:title=" ">
<polygon fill="#999999" stroke="#666666" points="1079.5,-723 864.5,-723 864.5,-682 1079.5,-682 1079.5,-723"/>
<text text-anchor="start" x="872.5" y="-711" font-family="Helvetica,sans-Serif" font-size="10.00">/home/runner/work/cocos</text>
<text text-anchor="start" x="872.5" y="-700" font-family="Helvetica,sans-Serif" font-size="10.00">&#45;headers/cocos&#45;headers</text>
<text text-anchor="middle" x="972" y="-689" font-family="Helvetica,sans-Serif" font-size="10.00">/cocos2dx/label_nodes/CCLabelBMFont.h</text>
</a>
</g>
</g>
<!-- Node2 -->
<g id="node2" class="node">
<title>Node2</title>
<g id="a_node2"><a xlink:href="../../df/d92/_c_c_sprite_batch_node_8h.html" target="_top" xlink:title=" ">
<polygon fill="white" stroke="#666666" points="841,-646 689,-646 689,-616 841,-616 841,-646"/>
<text text-anchor="start" x="697" y="-634" font-family="Helvetica,sans-Serif" font-size="10.00">sprite_nodes/CCSpriteBatch</text>
<text text-anchor="middle" x="765" y="-623" font-family="Helvetica,sans-Serif" font-size="10.00">Node.h</text>
</a>
</g>
</g>
<!-- Node1&#45;&gt;Node2 -->
<g id="edge1" class="edge">
<title>Node1&#45;&gt;Node2</title>
<path fill="none" stroke="#63b8ff" d="M913.79,-681.96C883.17,-671.68 845.96,-659.18 816.42,-649.26"/>
<polygon fill="#63b8ff" stroke="#63b8ff" points="817.3,-645.87 806.71,-646 815.08,-652.5 817.3,-645.87"/>
</g>
<!-- Node28 -->
<g id="node28" class="node">
<title>Node28</title>
<g id="a_node28"><a xlink:title=" ">
<polygon fill="#e0e0e0" stroke="#999999" points="104,-404 66,-404 66,-385 104,-385 104,-404"/>
<text text-anchor="middle" x="85" y="-392" font-family="Helvetica,sans-Serif" font-size="10.00">map</text>
</a>
</g>
</g>
<!-- Node1&#45;&gt;Node28 -->
<g id="edge65" class="edge">
<title>Node1&#45;&gt;Node28</title>
<path fill="none" stroke="#63b8ff" d="M864.25,-686.59C808.56,-677.48 739.9,-664.08 680,-646 451.62,-577.06 191.69,-449.59 110.55,-408.58"/>
<polygon fill="#63b8ff" stroke="#63b8ff" points="112.06,-405.42 101.56,-404.01 108.89,-411.66 112.06,-405.42"/>
</g>
<!-- Node34 -->
<g id="node34" class="node">
<title>Node34</title>
<g id="a_node34"><a xlink:title=" ">
<polygon fill="#e0e0e0" stroke="#999999" points="979,-646 859,-646 859,-616 979,-616 979,-646"/>
<text text-anchor="start" x="867" y="-634" font-family="Helvetica,sans-Serif" font-size="10.00">support/data_support</text>
<text text-anchor="middle" x="919" y="-623" font-family="Helvetica,sans-Serif" font-size="10.00">/uthash.h</text>
</a>
</g>
</g>
<!-- Node1&#45;&gt;Node34 -->
<g id="edge64" class="edge">
<title>Node1&#45;&gt;Node34</title>
<path fill="none" stroke="#63b8ff" d="M956.95,-681.77C950.37,-673.13 942.61,-662.96 935.83,-654.08"/>
<polygon fill="#63b8ff" stroke="#63b8ff" points="938.55,-651.87 929.71,-646.04 932.99,-656.11 938.55,-651.87"/>
</g>
<!-- Node35 -->
<g id="node35" class="node">
<title>Node35</title>
<g id="a_node35"><a xlink:title=" ">
<polygon fill="#e0e0e0" stroke="#999999" points="1053,-640.5 997,-640.5 997,-621.5 1053,-621.5 1053,-640.5"/>
<text text-anchor="middle" x="1025" y="-628.5" font-family="Helvetica,sans-Serif" font-size="10.00">sstream</text>
</a>
</g>
</g>
<!-- Node1&#45;&gt;Node35 -->
<g id="edge66" class="edge">
<title>Node1&#45;&gt;Node35</title>
<path fill="none" stroke="#63b8ff" d="M987.05,-681.77C994.92,-671.45 1004.46,-658.93 1012.01,-649.04"/>
<polygon fill="#63b8ff" stroke="#63b8ff" points="1014.99,-650.89 1018.27,-640.82 1009.43,-646.65 1014.99,-650.89"/>
</g>
<!-- Node36 -->
<g id="node36" class="node">
<title>Node36</title>
<g id="a_node36"><a xlink:title=" ">
<polygon fill="#e0e0e0" stroke="#999999" points="1131,-640.5 1071,-640.5 1071,-621.5 1131,-621.5 1131,-640.5"/>
<text text-anchor="middle" x="1101" y="-628.5" font-family="Helvetica,sans-Serif" font-size="10.00">iostream</text>
</a>
</g>
</g>
<!-- Node1&#45;&gt;Node36 -->
<g id="edge67" class="edge">
<title>Node1&#45;&gt;Node36</title>
<path fill="none" stroke="#63b8ff" d="M1008.28,-681.96C1029.95,-670.28 1056.92,-655.75 1076.18,-645.37"/>
<polygon fill="#63b8ff" stroke="#63b8ff" points="1078.07,-648.33 1085.22,-640.5 1074.75,-642.17 1078.07,-648.33"/>
</g>
<!-- Node37 -->
<g id="node37" class="node">
<title>Node37</title>
<g id="a_node37"><a xlink:title=" ">
<polygon fill="#e0e0e0" stroke="#999999" points="1196.5,-640.5 1149.5,-640.5 1149.5,-621.5 1196.5,-621.5 1196.5,-640.5"/>
<text text-anchor="middle" x="1173" y="-628.5" font-family="Helvetica,sans-Serif" font-size="10.00">vector</text>
</a>
</g>
</g>
<!-- Node1&#45;&gt;Node37 -->
<g id="edge68" class="edge">
<title>Node1&#45;&gt;Node37</title>
<path fill="none" stroke="#63b8ff" d="M1035.45,-681.9C1067.09,-671.78 1105.79,-658.88 1140,-646 1141.38,-645.48 1142.79,-644.93 1144.21,-644.37"/>
<polygon fill="#63b8ff" stroke="#63b8ff" points="1145.63,-647.58 1153.56,-640.56 1142.98,-641.1 1145.63,-647.58"/>
</g>
<!-- Node3 -->
<g id="node3" class="node">
<title>Node3</title>
<g id="a_node3"><a xlink:href="../../db/d7f/_c_c_node_8h.html" target="_top" xlink:title=" ">
<polygon fill="white" stroke="#666666" points="743.5,-580 618.5,-580 618.5,-561 743.5,-561 743.5,-580"/>
<text text-anchor="middle" x="681" y="-568" font-family="Helvetica,sans-Serif" font-size="10.00">base_nodes/CCNode.h</text>
</a>
</g>
</g>
<!-- Node2&#45;&gt;Node3 -->
<g id="edge2" class="edge">
<title>Node2&#45;&gt;Node3</title>
<path fill="none" stroke="#63b8ff" d="M744.67,-615.84C731.73,-606.83 715.01,-595.18 701.95,-586.09"/>
<polygon fill="#63b8ff" stroke="#63b8ff" points="703.79,-583.11 693.59,-580.27 699.79,-588.85 703.79,-583.11"/>
</g>
<!-- Node4 -->
<g id="node4" class="node">
<title>Node4</title>
<g id="a_node4"><a xlink:href="../../d9/dc8/cc_macros_8h.html" target="_top" xlink:title=" ">
<polygon fill="white" stroke="#666666" points="262.5,-239 191.5,-239 191.5,-220 262.5,-220 262.5,-239"/>
<text text-anchor="middle" x="227" y="-227" font-family="Helvetica,sans-Serif" font-size="10.00">ccMacros.h</text>
</a>
</g>
</g>
<!-- Node2&#45;&gt;Node4 -->
<g id="edge62" class="edge">
<title>Node2&#45;&gt;Node4</title>
<path fill="none" stroke="#63b8ff" d="M688.85,-628.74C495.35,-623.47 0,-596.29 0,-456 0,-456 0,-456 0,-338.5 0,-301.45 22.59,-294.65 54,-275 75.1,-261.8 137.74,-247.66 181.54,-238.95"/>
<polygon fill="#63b8ff" stroke="#63b8ff" points="182.27,-242.37 191.41,-237.01 180.92,-235.5 182.27,-242.37"/>
</g>
<!-- Node17 -->
<g id="node17" class="node">
<title>Node17</title>
<g id="a_node17"><a xlink:href="../../da/d35/_c_c_array_8h.html" target="_top" xlink:title=" ">
<polygon fill="white" stroke="#666666" points="935.5,-525 840.5,-525 840.5,-506 935.5,-506 935.5,-525"/>
<text text-anchor="middle" x="888" y="-513" font-family="Helvetica,sans-Serif" font-size="10.00">cocoa/CCArray.h</text>
</a>
</g>
</g>
<!-- Node2&#45;&gt;Node17 -->
<g id="edge63" class="edge">
<title>Node2&#45;&gt;Node17</title>
<path fill="none" stroke="#63b8ff" d="M780.33,-615.85C803.37,-594.59 846.79,-554.52 870.86,-532.32"/>
<polygon fill="#63b8ff" stroke="#63b8ff" points="873.52,-534.62 878.5,-525.27 868.77,-529.48 873.52,-534.62"/>
</g>
<!-- Node30 -->
<g id="node30" class="node">
<title>Node30</title>
<g id="a_node30"><a xlink:href="../../d8/d76/_c_c_protocols_8h.html" target="_top" xlink:title=" ">
<polygon fill="white" stroke="#666666" points="1263,-525 1179,-525 1179,-506 1263,-506 1263,-525"/>
<text text-anchor="middle" x="1221" y="-513" font-family="Helvetica,sans-Serif" font-size="10.00">CCProtocols.h</text>
</a>
</g>
</g>
<!-- Node2&#45;&gt;Node30 -->
<g id="edge56" class="edge">
<title>Node2&#45;&gt;Node30</title>
<path fill="none" stroke="#63b8ff" d="M821.37,-615.97C913.21,-593.11 1093.24,-548.3 1176.64,-527.54"/>
<polygon fill="#63b8ff" stroke="#63b8ff" points="1177.7,-530.88 1186.56,-525.07 1176.01,-524.09 1177.7,-530.88"/>
</g>
<!-- Node33 -->
<g id="node33" class="node">
<title>Node33</title>
<g id="a_node33"><a xlink:href="../../d1/d48/_c_c_texture_atlas_8h.html" target="_top" xlink:title=" ">
<polygon fill="white" stroke="#666666" points="1526.5,-464.5 1383.5,-464.5 1383.5,-445.5 1526.5,-445.5 1526.5,-464.5"/>
<text text-anchor="middle" x="1455" y="-452.5" font-family="Helvetica,sans-Serif" font-size="10.00">textures/CCTextureAtlas.h</text>
</a>
</g>
</g>
<!-- Node2&#45;&gt;Node33 -->
<g id="edge57" class="edge">
<title>Node2&#45;&gt;Node33</title>
<path fill="none" stroke="#63b8ff" d="M840.5,-615.98C961.15,-593.3 1191.96,-548.72 1272,-525 1327.5,-508.55 1390.23,-483.41 1425.95,-468.45"/>
<polygon fill="#63b8ff" stroke="#63b8ff" points="1427.43,-471.63 1435.28,-464.52 1424.71,-465.18 1427.43,-471.63"/>
</g>
<!-- Node3&#45;&gt;Node4 -->
<g id="edge3" class="edge">
<title>Node3&#45;&gt;Node4</title>
<path fill="none" stroke="#63b8ff" d="M618.47,-565.91C456.89,-554.94 38,-514.98 38,-395.5 38,-395.5 38,-395.5 38,-338.5 38,-272.68 125.47,-246.43 181.4,-236.38"/>
<polygon fill="#63b8ff" stroke="#63b8ff" points="182.17,-239.8 191.45,-234.68 181.01,-232.89 182.17,-239.8"/>
</g>
<!-- Node11 -->
<g id="node11" class="node">
<title>Node11</title>
<g id="a_node11"><a xlink:href="../../d3/d15/_c_c_affine_transform_8h.html" target="_top" xlink:title=" ">
<polygon fill="white" stroke="#666666" points="1192,-404 1044,-404 1044,-385 1192,-385 1192,-404"/>
<text text-anchor="middle" x="1118" y="-392" font-family="Helvetica,sans-Serif" font-size="10.00">cocoa/CCAffineTransform.h</text>
</a>
</g>
</g>
<!-- Node3&#45;&gt;Node11 -->
<g id="edge12" class="edge">
<title>Node3&#45;&gt;Node11</title>
<path fill="none" stroke="#63b8ff" d="M722.07,-560.99C745,-554.45 772.75,-543.33 792,-525 822.1,-496.34 797.84,-465.06 831,-440 847.08,-427.85 955.06,-413.51 1033.85,-404.46"/>
<polygon fill="#63b8ff" stroke="#63b8ff" points="1034.25,-407.94 1043.79,-403.33 1033.46,-400.99 1034.25,-407.94"/>
</g>
<!-- Node3&#45;&gt;Node17 -->
<g id="edge22" class="edge">
<title>Node3&#45;&gt;Node17</title>
<path fill="none" stroke="#63b8ff" d="M714.26,-560.98C749.61,-551.93 805.67,-537.58 844.51,-527.64"/>
<polygon fill="#63b8ff" stroke="#63b8ff" points="845.66,-530.95 854.48,-525.08 843.93,-524.17 845.66,-530.95"/>
</g>
<!-- Node19 -->
<g id="node19" class="node">
<title>Node19</title>
<g id="a_node19"><a xlink:title=" ">
<polygon fill="#e0e0e0" stroke="#999999" points="712,-349 660,-349 660,-330 712,-330 712,-349"/>
<text text-anchor="middle" x="686" y="-337" font-family="Helvetica,sans-Serif" font-size="10.00">CCGL.h</text>
</a>
</g>
</g>
<!-- Node3&#45;&gt;Node19 -->
<g id="edge24" class="edge">
<title>Node3&#45;&gt;Node19</title>
<path fill="none" stroke="#63b8ff" d="M673.55,-560.62C651.52,-533.26 590.26,-448.21 623,-385 630.04,-371.41 643.34,-361.09 655.92,-353.82"/>
<polygon fill="#63b8ff" stroke="#63b8ff" points="657.67,-356.86 664.85,-349.07 654.38,-350.68 657.67,-356.86"/>
</g>
<!-- Node20 -->
<g id="node20" class="node">
<title>Node20</title>
<g id="a_node20"><a xlink:href="../../da/d2f/cc_g_l_state_cache_8h.html" target="_top" xlink:title=" ">
<polygon fill="white" stroke="#666666" points="778,-404 632,-404 632,-385 778,-385 778,-404"/>
<text text-anchor="middle" x="705" y="-392" font-family="Helvetica,sans-Serif" font-size="10.00">shaders/ccGLStateCache.h</text>
</a>
</g>
</g>
<!-- Node3&#45;&gt;Node20 -->
<g id="edge25" class="edge">
<title>Node3&#45;&gt;Node20</title>
<path fill="none" stroke="#63b8ff" d="M675.68,-560.68C670.77,-551.97 663.81,-538.09 661,-525 659.23,-516.74 659.41,-514.29 661,-506 667.58,-471.67 684.7,-434.42 695.54,-413.13"/>
<polygon fill="#63b8ff" stroke="#63b8ff" points="698.76,-414.52 700.29,-404.04 692.56,-411.28 698.76,-414.52"/>
</g>
<!-- Node21 -->
<g id="node21" class="node">
<title>Node21</title>
<g id="a_node21"><a xlink:href="../../de/d32/_c_c_g_l_program_8h.html" target="_top" xlink:title=" ">
<polygon fill="white" stroke="#666666" points="294,-404 160,-404 160,-385 294,-385 294,-404"/>
<text text-anchor="middle" x="227" y="-392" font-family="Helvetica,sans-Serif" font-size="10.00">shaders/CCGLProgram.h</text>
</a>
</g>
</g>
<!-- Node3&#45;&gt;Node21 -->
<g id="edge28" class="edge">
<title>Node3&#45;&gt;Node21</title>
<path fill="none" stroke="#63b8ff" d="M643.47,-560.95C581.93,-546.3 456.37,-513.67 356,-470 316.26,-452.71 273.26,-426.13 248.31,-409.83"/>
<polygon fill="#63b8ff" stroke="#63b8ff" points="249.95,-406.72 239.67,-404.13 246.09,-412.56 249.95,-406.72"/>
</g>
<!-- Node22 -->
<g id="node22" class="node">
<title>Node22</title>
<g id="a_node22"><a xlink:title=" ">
<polygon fill="#e0e0e0" stroke="#999999" points="783.5,-525 670.5,-525 670.5,-506 783.5,-506 783.5,-525"/>
<text text-anchor="middle" x="727" y="-513" font-family="Helvetica,sans-Serif" font-size="10.00">kazmath/kazmath.h</text>
</a>
</g>
</g>
<!-- Node3&#45;&gt;Node22 -->
<g id="edge32" class="edge">
<title>Node3&#45;&gt;Node22</title>
<path fill="none" stroke="#63b8ff" d="M688.6,-560.75C695.16,-553.18 704.82,-542.05 712.81,-532.84"/>
<polygon fill="#63b8ff" stroke="#63b8ff" points="715.63,-534.94 719.55,-525.09 710.35,-530.35 715.63,-534.94"/>
</g>
<!-- Node23 -->
<g id="node23" class="node">
<title>Node23</title>
<g id="a_node23"><a xlink:href="../../dc/dbc/_c_c_script_support_8h.html" target="_top" xlink:title=" ">
<polygon fill="white" stroke="#666666" points="541,-464.5 365,-464.5 365,-445.5 541,-445.5 541,-464.5"/>
<text text-anchor="middle" x="453" y="-452.5" font-family="Helvetica,sans-Serif" font-size="10.00">script_support/CCScriptSupport.h</text>
</a>
</g>
</g>
<!-- Node3&#45;&gt;Node23 -->
<g id="edge33" class="edge">
<title>Node3&#45;&gt;Node23</title>
<path fill="none" stroke="#63b8ff" d="M663.18,-560.86C644.82,-551.94 615.36,-537.59 590,-525 551.16,-505.73 506.32,-483.06 478.81,-469.11"/>
<polygon fill="#63b8ff" stroke="#63b8ff" points="480.34,-465.97 469.84,-464.56 477.18,-472.21 480.34,-465.97"/>
</g>
<!-- Node3&#45;&gt;Node30 -->
<g id="edge45" class="edge">
<title>Node3&#45;&gt;Node30</title>
<path fill="none" stroke="#63b8ff" d="M743.74,-563.34C851.24,-552.79 1068.71,-531.45 1168.63,-521.64"/>
<polygon fill="#63b8ff" stroke="#63b8ff" points="1169.18,-525.1 1178.79,-520.64 1168.5,-518.14 1169.18,-525.1"/>
</g>
<!-- Node5 -->
<g id="node5" class="node">
<title>Node5</title>
<g id="a_node5"><a xlink:href="../../d5/d22/_c_c_common_8h.html" target="_top" xlink:title=" ">
<polygon fill="white" stroke="#666666" points="235,-184 107,-184 107,-165 235,-165 235,-184"/>
<text text-anchor="middle" x="171" y="-172" font-family="Helvetica,sans-Serif" font-size="10.00">platform/CCCommon.h</text>
</a>
</g>
</g>
<!-- Node4&#45;&gt;Node5 -->
<g id="edge4" class="edge">
<title>Node4&#45;&gt;Node5</title>
<path fill="none" stroke="#63b8ff" d="M218,-219.98C209.81,-212.23 197.49,-200.58 187.53,-191.14"/>
<polygon fill="#63b8ff" stroke="#63b8ff" points="189.83,-188.5 180.16,-184.17 185.02,-193.59 189.83,-188.5"/>
</g>
<!-- Node7 -->
<g id="node7" class="node">
<title>Node7</title>
<g id="a_node7"><a xlink:href="../../db/d9f/cc_config_8h.html" target="_top" xlink:title="cocos2d (cc) configuration file">
<polygon fill="white" stroke="#666666" points="925.5,-74 858.5,-74 858.5,-55 925.5,-55 925.5,-74"/>
<text text-anchor="middle" x="892" y="-62" font-family="Helvetica,sans-Serif" font-size="10.00">ccConfig.h</text>
</a>
</g>
</g>
<!-- Node4&#45;&gt;Node7 -->
<g id="edge11" class="edge">
<title>Node4&#45;&gt;Node7</title>
<path fill="none" stroke="#63b8ff" d="M261.82,-219.97C373.85,-192.51 724.9,-106.46 848.45,-76.17"/>
<polygon fill="#63b8ff" stroke="#63b8ff" points="849.44,-79.54 858.32,-73.75 847.78,-72.74 849.44,-79.54"/>
</g>
<!-- Node10 -->
<g id="node10" class="node">
<title>Node10</title>
<g id="a_node10"><a xlink:title=" ">
<polygon fill="#e0e0e0" stroke="#999999" points="315,-184 253,-184 253,-165 315,-165 315,-184"/>
<text text-anchor="middle" x="284" y="-172" font-family="Helvetica,sans-Serif" font-size="10.00">CCStdC.h</text>
</a>
</g>
</g>
<!-- Node4&#45;&gt;Node10 -->
<g id="edge10" class="edge">
<title>Node4&#45;&gt;Node10</title>
<path fill="none" stroke="#63b8ff" d="M236.16,-219.98C244.5,-212.23 257.03,-200.58 267.18,-191.14"/>
<polygon fill="#63b8ff" stroke="#63b8ff" points="269.74,-193.54 274.68,-184.17 264.97,-188.42 269.74,-193.54"/>
</g>
<!-- Node6 -->
<g id="node6" class="node">
<title>Node6</title>
<g id="a_node6"><a xlink:href="../../d3/d41/_c_c_platform_macros_8h.html" target="_top" xlink:title=" ">
<polygon fill="white" stroke="#666666" points="1058,-129 942,-129 942,-110 1058,-110 1058,-129"/>
<text text-anchor="middle" x="1000" y="-117" font-family="Helvetica,sans-Serif" font-size="10.00">CCPlatformMacros.h</text>
</a>
</g>
</g>
<!-- Node5&#45;&gt;Node6 -->
<g id="edge5" class="edge">
<title>Node5&#45;&gt;Node6</title>
<path fill="none" stroke="#63b8ff" d="M235.07,-165.83C238.09,-165.53 241.08,-165.26 244,-165 497.07,-142.84 798.78,-128.78 931.55,-123.22"/>
<polygon fill="#63b8ff" stroke="#63b8ff" points="931.74,-126.71 941.58,-122.8 931.45,-119.72 931.74,-126.71"/>
</g>
<!-- Node6&#45;&gt;Node7 -->
<g id="edge6" class="edge">
<title>Node6&#45;&gt;Node7</title>
<path fill="none" stroke="#63b8ff" d="M982.65,-109.98C965.43,-101.54 938.8,-88.47 918.85,-78.68"/>
<polygon fill="#63b8ff" stroke="#63b8ff" points="920.19,-75.43 909.67,-74.17 917.1,-81.72 920.19,-75.43"/>
</g>
<!-- Node8 -->
<g id="node8" class="node">
<title>Node8</title>
<g id="a_node8"><a xlink:href="../../dd/d96/_c_c_platform_config_8h.html" target="_top" xlink:title=" ">
<polygon fill="white" stroke="#666666" points="1066.5,-19 909.5,-19 909.5,0 1066.5,0 1066.5,-19"/>
<text text-anchor="middle" x="988" y="-7" font-family="Helvetica,sans-Serif" font-size="10.00">platform/CCPlatformConfig.h</text>
</a>
</g>
</g>
<!-- Node6&#45;&gt;Node8 -->
<g id="edge8" class="edge">
<title>Node6&#45;&gt;Node8</title>
<path fill="none" stroke="#63b8ff" d="M1021.2,-109.87C1044.95,-98.85 1078.48,-78.37 1065,-55 1056.58,-40.41 1041.35,-30.17 1026.65,-23.23"/>
<polygon fill="#63b8ff" stroke="#63b8ff" points="1027.71,-19.87 1017.14,-19.13 1024.93,-26.3 1027.71,-19.87"/>
</g>
<!-- Node9 -->
<g id="node9" class="node">
<title>Node9</title>
<g id="a_node9"><a xlink:title=" ">
<polygon fill="#e0e0e0" stroke="#999999" points="1056.5,-74 943.5,-74 943.5,-55 1056.5,-55 1056.5,-74"/>
<text text-anchor="middle" x="1000" y="-62" font-family="Helvetica,sans-Serif" font-size="10.00">CCPlatformDefine.h</text>
</a>
</g>
</g>
<!-- Node6&#45;&gt;Node9 -->
<g id="edge9" class="edge">
<title>Node6&#45;&gt;Node9</title>
<path fill="none" stroke="#63b8ff" d="M1000,-109.75C1000,-102.8 1000,-92.85 1000,-84.13"/>
<polygon fill="#63b8ff" stroke="#63b8ff" points="1003.5,-84.09 1000,-74.09 996.5,-84.09 1003.5,-84.09"/>
</g>
<!-- Node7&#45;&gt;Node8 -->
<g id="edge7" class="edge">
<title>Node7&#45;&gt;Node8</title>
<path fill="none" stroke="#63b8ff" d="M907.42,-54.98C922.45,-46.69 945.54,-33.94 963.16,-24.22"/>
<polygon fill="#63b8ff" stroke="#63b8ff" points="965.23,-27.07 972.3,-19.17 961.85,-20.94 965.23,-27.07"/>
</g>
<!-- Node11&#45;&gt;Node6 -->
<g id="edge21" class="edge">
<title>Node11&#45;&gt;Node6</title>
<path fill="none" stroke="#63b8ff" d="M1110.66,-384.79C1092.13,-362.3 1043.32,-299.8 1020,-239 1007.09,-205.35 1002.5,-163.16 1000.88,-139.27"/>
<polygon fill="#63b8ff" stroke="#63b8ff" points="1004.36,-138.92 1000.29,-129.14 997.37,-139.32 1004.36,-138.92"/>
</g>
<!-- Node12 -->
<g id="node12" class="node">
<title>Node12</title>
<g id="a_node12"><a xlink:href="../../d6/d09/_c_c_geometry_8h.html" target="_top" xlink:title=" ">
<polygon fill="white" stroke="#666666" points="1193,-349 1107,-349 1107,-330 1193,-330 1193,-349"/>
<text text-anchor="middle" x="1150" y="-337" font-family="Helvetica,sans-Serif" font-size="10.00">CCGeometry.h</text>
</a>
</g>
</g>
<!-- Node11&#45;&gt;Node12 -->
<g id="edge13" class="edge">
<title>Node11&#45;&gt;Node12</title>
<path fill="none" stroke="#63b8ff" d="M1123.28,-384.75C1127.71,-377.42 1134.16,-366.73 1139.62,-357.7"/>
<polygon fill="#63b8ff" stroke="#63b8ff" points="1142.64,-359.46 1144.81,-349.09 1136.65,-355.84 1142.64,-359.46"/>
</g>
<!-- Node12&#45;&gt;Node6 -->
<g id="edge14" class="edge">
<title>Node12&#45;&gt;Node6</title>
<path fill="none" stroke="#63b8ff" d="M1150.61,-329.72C1151.63,-309.01 1151.75,-256.1 1130,-220 1105.64,-179.58 1058.2,-149.74 1027.86,-133.75"/>
<polygon fill="#63b8ff" stroke="#63b8ff" points="1029.16,-130.49 1018.66,-129.06 1025.97,-136.72 1029.16,-130.49"/>
</g>
<!-- Node13 -->
<g id="node13" class="node">
<title>Node13</title>
<g id="a_node13"><a xlink:href="../../dd/d69/_c_c_object_8h.html" target="_top" xlink:title=" ">
<polygon fill="white" stroke="#666666" points="883.5,-294 812.5,-294 812.5,-275 883.5,-275 883.5,-294"/>
<text text-anchor="middle" x="848" y="-282" font-family="Helvetica,sans-Serif" font-size="10.00">CCObject.h</text>
</a>
</g>
</g>
<!-- Node12&#45;&gt;Node13 -->
<g id="edge15" class="edge">
<title>Node12&#45;&gt;Node13</title>
<path fill="none" stroke="#63b8ff" d="M1106.73,-330.91C1050.11,-320.97 951.32,-303.63 893.58,-293.5"/>
<polygon fill="#63b8ff" stroke="#63b8ff" points="894.1,-290.04 883.64,-291.76 892.89,-296.93 894.1,-290.04"/>
</g>
<!-- Node16 -->
<g id="node16" class="node">
<title>Node16</title>
<g id="a_node16"><a xlink:title=" ">
<polygon fill="#e0e0e0" stroke="#999999" points="1229.5,-294 1178.5,-294 1178.5,-275 1229.5,-275 1229.5,-294"/>
<text text-anchor="middle" x="1204" y="-282" font-family="Helvetica,sans-Serif" font-size="10.00">math.h</text>
</a>
</g>
</g>
<!-- Node12&#45;&gt;Node16 -->
<g id="edge20" class="edge">
<title>Node12&#45;&gt;Node16</title>
<path fill="none" stroke="#63b8ff" d="M1158.92,-329.75C1166.78,-322.03 1178.43,-310.6 1187.92,-301.28"/>
<polygon fill="#63b8ff" stroke="#63b8ff" points="1190.56,-303.59 1195.25,-294.09 1185.66,-298.6 1190.56,-303.59"/>
</g>
<!-- Node13&#45;&gt;Node4 -->
<g id="edge19" class="edge">
<title>Node13&#45;&gt;Node4</title>
<path fill="none" stroke="#63b8ff" d="M812.38,-280.46C706.18,-271.4 391.76,-244.56 273.06,-234.43"/>
<polygon fill="#63b8ff" stroke="#63b8ff" points="273.12,-230.92 262.86,-233.56 272.53,-237.9 273.12,-230.92"/>
</g>
<!-- Node14 -->
<g id="node14" class="node">
<title>Node14</title>
<g id="a_node14"><a xlink:href="../../d9/d2d/_c_c_data_visitor_8h.html" target="_top" xlink:title=" ">
<polygon fill="white" stroke="#666666" points="1121.5,-239 1028.5,-239 1028.5,-220 1121.5,-220 1121.5,-239"/>
<text text-anchor="middle" x="1075" y="-227" font-family="Helvetica,sans-Serif" font-size="10.00">CCDataVisitor.h</text>
</a>
</g>
</g>
<!-- Node13&#45;&gt;Node14 -->
<g id="edge16" class="edge">
<title>Node13&#45;&gt;Node14</title>
<path fill="none" stroke="#63b8ff" d="M883.72,-275.16C922.79,-266.04 985.55,-251.39 1028.45,-241.37"/>
<polygon fill="#63b8ff" stroke="#63b8ff" points="1029.42,-244.74 1038.36,-239.05 1027.83,-237.92 1029.42,-244.74"/>
</g>
<!-- Node14&#45;&gt;Node6 -->
<g id="edge17" class="edge">
<title>Node14&#45;&gt;Node6</title>
<path fill="none" stroke="#63b8ff" d="M1068.86,-219.66C1056.38,-201.69 1027.88,-160.64 1011.72,-137.38"/>
<polygon fill="#63b8ff" stroke="#63b8ff" points="1014.59,-135.38 1006.01,-129.16 1008.84,-139.37 1014.59,-135.38"/>
</g>
<!-- Node15 -->
<g id="node15" class="node">
<title>Node15</title>
<g id="a_node15"><a xlink:title=" ">
<polygon fill="#e0e0e0" stroke="#999999" points="1375,-184 1331,-184 1331,-165 1375,-165 1375,-184"/>
<text text-anchor="middle" x="1353" y="-172" font-family="Helvetica,sans-Serif" font-size="10.00">string</text>
</a>
</g>
</g>
<!-- Node14&#45;&gt;Node15 -->
<g id="edge18" class="edge">
<title>Node14&#45;&gt;Node15</title>
<path fill="none" stroke="#63b8ff" d="M1119.67,-219.98C1175.98,-209.25 1271.41,-191.06 1320.97,-181.61"/>
<polygon fill="#63b8ff" stroke="#63b8ff" points="1321.65,-185.04 1330.82,-179.73 1320.34,-178.16 1321.65,-185.04"/>
</g>
<!-- Node18 -->
<g id="node18" class="node">
<title>Node18</title>
<g id="a_node18"><a xlink:title=" ">
<polygon fill="#e0e0e0" stroke="#999999" points="960,-470 840,-470 840,-440 960,-440 960,-470"/>
<text text-anchor="start" x="848" y="-458" font-family="Helvetica,sans-Serif" font-size="10.00">support/data_support</text>
<text text-anchor="middle" x="900" y="-447" font-family="Helvetica,sans-Serif" font-size="10.00">/ccCArray.h</text>
</a>
</g>
</g>
<!-- Node17&#45;&gt;Node18 -->
<g id="edge23" class="edge">
<title>Node17&#45;&gt;Node18</title>
<path fill="none" stroke="#63b8ff" d="M889.77,-505.87C891.17,-499.03 893.2,-489.14 895.08,-479.97"/>
<polygon fill="#63b8ff" stroke="#63b8ff" points="898.52,-480.61 897.1,-470.11 891.67,-479.21 898.52,-480.61"/>
</g>
<!-- Node20&#45;&gt;Node6 -->
<g id="edge27" class="edge">
<title>Node20&#45;&gt;Node6</title>
<path fill="none" stroke="#63b8ff" d="M712.02,-384.87C725.57,-367.3 754,-325.65 754,-285.5 754,-285.5 754,-285.5 754,-228.5 754,-150.54 858.86,-128.34 931.66,-122.33"/>
<polygon fill="#63b8ff" stroke="#63b8ff" points="931.99,-125.81 941.7,-121.58 931.47,-118.83 931.99,-125.81"/>
</g>
<!-- Node20&#45;&gt;Node19 -->
<g id="edge26" class="edge">
<title>Node20&#45;&gt;Node19</title>
<path fill="none" stroke="#63b8ff" d="M701.86,-384.75C699.32,-377.65 695.64,-367.4 692.47,-358.56"/>
<polygon fill="#63b8ff" stroke="#63b8ff" points="695.75,-357.32 689.08,-349.09 689.16,-359.68 695.75,-357.32"/>
</g>
<!-- Node21&#45;&gt;Node4 -->
<g id="edge29" class="edge">
<title>Node21&#45;&gt;Node4</title>
<path fill="none" stroke="#63b8ff" d="M227,-384.74C227,-359.31 227,-285.08 227,-249.69"/>
<polygon fill="#63b8ff" stroke="#63b8ff" points="230.5,-249.31 227,-239.31 223.5,-249.31 230.5,-249.31"/>
</g>
<!-- Node21&#45;&gt;Node13 -->
<g id="edge30" class="edge">
<title>Node21&#45;&gt;Node13</title>
<path fill="none" stroke="#63b8ff" d="M260.11,-384.98C312.44,-371.74 417.64,-346.09 508,-330 612.59,-311.38 736.58,-297.09 802.1,-290.15"/>
<polygon fill="#63b8ff" stroke="#63b8ff" points="802.52,-293.63 812.1,-289.1 801.79,-286.66 802.52,-293.63"/>
</g>
<!-- Node21&#45;&gt;Node19 -->
<g id="edge31" class="edge">
<title>Node21&#45;&gt;Node19</title>
<path fill="none" stroke="#63b8ff" d="M294.23,-385.74C392.69,-374.37 572.73,-353.58 649.62,-344.7"/>
<polygon fill="#63b8ff" stroke="#63b8ff" points="650.23,-348.15 659.77,-343.53 649.43,-341.2 650.23,-348.15"/>
</g>
<!-- Node23&#45;&gt;Node5 -->
<g id="edge34" class="edge">
<title>Node23&#45;&gt;Node5</title>
<path fill="none" stroke="#63b8ff" d="M364.92,-451.65C285.8,-447.45 178.03,-435.87 151,-404 98.89,-342.55 141.64,-235.51 161.86,-193.32"/>
<polygon fill="#63b8ff" stroke="#63b8ff" points="165.04,-194.79 166.33,-184.27 158.76,-191.68 165.04,-194.79"/>
</g>
<!-- Node23&#45;&gt;Node15 -->
<g id="edge43" class="edge">
<title>Node23&#45;&gt;Node15</title>
<path fill="none" stroke="#63b8ff" d="M541.24,-449.88C732.76,-440.69 1171.78,-418.22 1201,-404 1235.1,-387.4 1258,-378.42 1258,-340.5 1258,-340.5 1258,-340.5 1258,-283.5 1258,-240.91 1300.16,-207.14 1328.31,-189.33"/>
<polygon fill="#63b8ff" stroke="#63b8ff" points="1330.16,-192.31 1336.88,-184.12 1326.52,-186.32 1330.16,-192.31"/>
</g>
<!-- Node24 -->
<g id="node24" class="node">
<title>Node24</title>
<g id="a_node24"><a xlink:title=" ">
<polygon fill="#e0e0e0" stroke="#999999" points="472,-404 362,-404 362,-385 472,-385 472,-404"/>
<text text-anchor="middle" x="417" y="-392" font-family="Helvetica,sans-Serif" font-size="10.00">CCAccelerometer.h</text>
</a>
</g>
</g>
<!-- Node23&#45;&gt;Node24 -->
<g id="edge35" class="edge">
<title>Node23&#45;&gt;Node24</title>
<path fill="none" stroke="#63b8ff" d="M447.69,-445.37C442.42,-436.81 434.21,-423.47 427.61,-412.74"/>
<polygon fill="#63b8ff" stroke="#63b8ff" points="430.56,-410.85 422.33,-404.17 424.59,-414.52 430.56,-410.85"/>
</g>
<!-- Node25 -->
<g id="node25" class="node">
<title>Node25</title>
<g id="a_node25"><a xlink:href="../../d3/dff/_c_c_touch_8h.html" target="_top" xlink:title=" ">
<polygon fill="white" stroke="#666666" points="987.5,-404 834.5,-404 834.5,-385 987.5,-385 987.5,-404"/>
<text text-anchor="middle" x="911" y="-392" font-family="Helvetica,sans-Serif" font-size="10.00">touch_dispatcher/CCTouch.h</text>
</a>
</g>
</g>
<!-- Node23&#45;&gt;Node25 -->
<g id="edge36" class="edge">
<title>Node23&#45;&gt;Node25</title>
<path fill="none" stroke="#63b8ff" d="M519.6,-445.49C603.21,-434.81 746.33,-416.53 834.39,-405.29"/>
<polygon fill="#63b8ff" stroke="#63b8ff" points="834.85,-408.76 844.32,-404.02 833.96,-401.81 834.85,-408.76"/>
</g>
<!-- Node26 -->
<g id="node26" class="node">
<title>Node26</title>
<g id="a_node26"><a xlink:href="../../da/ddc/_c_c_set_8h.html" target="_top" xlink:title=" ">
<polygon fill="white" stroke="#666666" points="576,-404 490,-404 490,-385 576,-385 576,-404"/>
<text text-anchor="middle" x="533" y="-392" font-family="Helvetica,sans-Serif" font-size="10.00">cocoa/CCSet.h</text>
</a>
</g>
</g>
<!-- Node23&#45;&gt;Node26 -->
<g id="edge39" class="edge">
<title>Node23&#45;&gt;Node26</title>
<path fill="none" stroke="#63b8ff" d="M464.8,-445.37C477.45,-436.12 497.74,-421.28 512.91,-410.19"/>
<polygon fill="#63b8ff" stroke="#63b8ff" points="515.14,-412.9 521.15,-404.17 511.01,-407.24 515.14,-412.9"/>
</g>
<!-- Node23&#45;&gt;Node28 -->
<g id="edge42" class="edge">
<title>Node23&#45;&gt;Node28</title>
<path fill="none" stroke="#63b8ff" d="M381.07,-445.46C312.97,-436.86 208.05,-422.27 118,-404 116.73,-403.74 115.43,-403.47 114.12,-403.18"/>
<polygon fill="#63b8ff" stroke="#63b8ff" points="114.66,-399.71 104.12,-400.78 113.03,-406.51 114.66,-399.71"/>
</g>
<!-- Node29 -->
<g id="node29" class="node">
<title>Node29</title>
<g id="a_node29"><a xlink:title=" ">
<polygon fill="#e0e0e0" stroke="#999999" points="344,-404 312,-404 312,-385 344,-385 344,-404"/>
<text text-anchor="middle" x="328" y="-392" font-family="Helvetica,sans-Serif" font-size="10.00">list</text>
</a>
</g>
</g>
<!-- Node23&#45;&gt;Node29 -->
<g id="edge44" class="edge">
<title>Node23&#45;&gt;Node29</title>
<path fill="none" stroke="#63b8ff" d="M434.82,-445.49C413.4,-435.47 377.66,-418.74 353.48,-407.42"/>
<polygon fill="#63b8ff" stroke="#63b8ff" points="354.75,-404.15 344.21,-403.09 351.78,-410.49 354.75,-404.15"/>
</g>
<!-- Node25&#45;&gt;Node12 -->
<g id="edge38" class="edge">
<title>Node25&#45;&gt;Node12</title>
<path fill="none" stroke="#63b8ff" d="M949.4,-384.98C990.74,-375.82 1056.6,-361.21 1101.49,-351.26"/>
<polygon fill="#63b8ff" stroke="#63b8ff" points="1102.29,-354.66 1111.3,-349.08 1100.78,-347.83 1102.29,-354.66"/>
</g>
<!-- Node25&#45;&gt;Node13 -->
<g id="edge37" class="edge">
<title>Node25&#45;&gt;Node13</title>
<path fill="none" stroke="#63b8ff" d="M905.84,-384.66C895.46,-366.85 871.84,-326.37 858.21,-303.01"/>
<polygon fill="#63b8ff" stroke="#63b8ff" points="861.11,-301.03 853.05,-294.16 855.07,-304.56 861.11,-301.03"/>
</g>
<!-- Node26&#45;&gt;Node13 -->
<g id="edge41" class="edge">
<title>Node26&#45;&gt;Node13</title>
<path fill="none" stroke="#63b8ff" d="M546.24,-384.82C567.49,-371.24 610.91,-345 651,-330 701.26,-311.2 761.82,-298.98 802.42,-292.18"/>
<polygon fill="#63b8ff" stroke="#63b8ff" points="802.98,-295.64 812.29,-290.57 801.86,-288.73 802.98,-295.64"/>
</g>
<!-- Node27 -->
<g id="node27" class="node">
<title>Node27</title>
<g id="a_node27"><a xlink:title=" ">
<polygon fill="#e0e0e0" stroke="#999999" points="549,-349 517,-349 517,-330 549,-330 549,-349"/>
<text text-anchor="middle" x="533" y="-337" font-family="Helvetica,sans-Serif" font-size="10.00">set</text>
</a>
</g>
</g>
<!-- Node26&#45;&gt;Node27 -->
<g id="edge40" class="edge">
<title>Node26&#45;&gt;Node27</title>
<path fill="none" stroke="#63b8ff" d="M533,-384.75C533,-377.8 533,-367.85 533,-359.13"/>
<polygon fill="#63b8ff" stroke="#63b8ff" points="536.5,-359.09 533,-349.09 529.5,-359.09 536.5,-359.09"/>
</g>
<!-- Node30&#45;&gt;Node15 -->
<g id="edge55" class="edge">
<title>Node30&#45;&gt;Node15</title>
<path fill="none" stroke="#63b8ff" d="M1245.7,-505.89C1298.17,-485.85 1416,-430.79 1416,-340.5 1416,-340.5 1416,-340.5 1416,-283.5 1416,-246.49 1388.05,-210.87 1369.39,-191.21"/>
<polygon fill="#63b8ff" stroke="#63b8ff" points="1371.81,-188.68 1362.3,-184.03 1366.83,-193.6 1371.81,-188.68"/>
</g>
<!-- Node31 -->
<g id="node31" class="node">
<title>Node31</title>
<g id="a_node31"><a xlink:href="../../df/de6/cc_types_8h.html" target="_top" xlink:title=" ">
<polygon fill="white" stroke="#666666" points="1350,-404 1286,-404 1286,-385 1350,-385 1350,-404"/>
<text text-anchor="middle" x="1318" y="-392" font-family="Helvetica,sans-Serif" font-size="10.00">ccTypes.h</text>
</a>
</g>
</g>
<!-- Node30&#45;&gt;Node31 -->
<g id="edge46" class="edge">
<title>Node30&#45;&gt;Node31</title>
<path fill="none" stroke="#63b8ff" d="M1244.52,-505.98C1261.17,-498.8 1282.8,-486.97 1296,-470 1308.53,-453.9 1313.93,-430.81 1316.26,-414.62"/>
<polygon fill="#63b8ff" stroke="#63b8ff" points="1319.78,-414.58 1317.46,-404.24 1312.83,-413.77 1319.78,-414.58"/>
</g>
<!-- Node32 -->
<g id="node32" class="node">
<title>Node32</title>
<g id="a_node32"><a xlink:href="../../d5/d70/_c_c_texture2_d_8h.html" target="_top" xlink:title=" ">
<polygon fill="white" stroke="#666666" points="1287,-464.5 1155,-464.5 1155,-445.5 1287,-445.5 1287,-464.5"/>
<text text-anchor="middle" x="1221" y="-452.5" font-family="Helvetica,sans-Serif" font-size="10.00">textures/CCTexture2D.h</text>
</a>
</g>
</g>
<!-- Node30&#45;&gt;Node32 -->
<g id="edge50" class="edge">
<title>Node30&#45;&gt;Node32</title>
<path fill="none" stroke="#63b8ff" d="M1221,-505.87C1221,-497.75 1221,-485.31 1221,-474.89"/>
<polygon fill="#63b8ff" stroke="#63b8ff" points="1224.5,-474.67 1221,-464.67 1217.5,-474.67 1224.5,-474.67"/>
</g>
<!-- Node31&#45;&gt;Node12 -->
<g id="edge48" class="edge">
<title>Node31&#45;&gt;Node12</title>
<path fill="none" stroke="#63b8ff" d="M1291.01,-384.98C1262.8,-376.09 1218.36,-362.07 1186.92,-352.15"/>
<polygon fill="#63b8ff" stroke="#63b8ff" points="1187.79,-348.75 1177.2,-349.08 1185.69,-355.43 1187.79,-348.75"/>
</g>
<!-- Node31&#45;&gt;Node15 -->
<g id="edge47" class="edge">
<title>Node31&#45;&gt;Node15</title>
<path fill="none" stroke="#63b8ff" d="M1319.37,-384.95C1324.52,-352.88 1342.77,-239.2 1350.01,-194.12"/>
<polygon fill="#63b8ff" stroke="#63b8ff" points="1353.47,-194.65 1351.6,-184.22 1346.56,-193.54 1353.47,-194.65"/>
</g>
<!-- Node31&#45;&gt;Node19 -->
<g id="edge49" class="edge">
<title>Node31&#45;&gt;Node19</title>
<path fill="none" stroke="#63b8ff" d="M1285.79,-390.8C1178.69,-381.82 834.95,-352.99 722.2,-343.54"/>
<polygon fill="#63b8ff" stroke="#63b8ff" points="722.28,-340.03 712.02,-342.68 721.7,-347.01 722.28,-340.03"/>
</g>
<!-- Node32&#45;&gt;Node12 -->
<g id="edge53" class="edge">
<title>Node32&#45;&gt;Node12</title>
<path fill="none" stroke="#63b8ff" d="M1220.07,-445.29C1218.27,-431.53 1213.34,-404.35 1201,-385 1193.5,-373.24 1181.98,-362.81 1171.79,-355.01"/>
<polygon fill="#63b8ff" stroke="#63b8ff" points="1173.81,-352.15 1163.66,-349.11 1169.69,-357.82 1173.81,-352.15"/>
</g>
<!-- Node32&#45;&gt;Node13 -->
<g id="edge52" class="edge">
<title>Node32&#45;&gt;Node13</title>
<path fill="none" stroke="#63b8ff" d="M1154.87,-450.36C1047.85,-443.78 846.42,-428.3 825,-404 799.93,-375.56 821.77,-328.15 836.75,-302.77"/>
<polygon fill="#63b8ff" stroke="#63b8ff" points="839.76,-304.56 842.04,-294.21 833.8,-300.88 839.76,-304.56"/>
</g>
<!-- Node32&#45;&gt;Node15 -->
<g id="edge51" class="edge">
<title>Node32&#45;&gt;Node15</title>
<path fill="none" stroke="#63b8ff" d="M1278.68,-445.48C1306.37,-438.6 1338,-426.23 1359,-404 1379.23,-382.59 1378,-369.96 1378,-340.5 1378,-340.5 1378,-340.5 1378,-283.5 1378,-251.21 1367.26,-214.86 1359.86,-193.64"/>
<polygon fill="#63b8ff" stroke="#63b8ff" points="1363.07,-192.23 1356.37,-184.02 1356.49,-194.62 1363.07,-192.23"/>
</g>
<!-- Node32&#45;&gt;Node31 -->
<g id="edge54" class="edge">
<title>Node32&#45;&gt;Node31</title>
<path fill="none" stroke="#63b8ff" d="M1235.31,-445.37C1251,-435.91 1276.4,-420.59 1294.91,-409.42"/>
<polygon fill="#63b8ff" stroke="#63b8ff" points="1296.87,-412.33 1303.63,-404.17 1293.26,-406.33 1296.87,-412.33"/>
</g>
<!-- Node33&#45;&gt;Node7 -->
<g id="edge60" class="edge">
<title>Node33&#45;&gt;Node7</title>
<path fill="none" stroke="#63b8ff" d="M1459.84,-445.48C1469.87,-426.99 1492,-381.54 1492,-340.5 1492,-340.5 1492,-340.5 1492,-173.5 1492,-50.62 1078.68,-95.21 936.1,-74.14"/>
<polygon fill="#63b8ff" stroke="#63b8ff" points="936.35,-70.64 925.91,-72.43 935.2,-77.54 936.35,-70.64"/>
</g>
<!-- Node33&#45;&gt;Node13 -->
<g id="edge59" class="edge">
<title>Node33&#45;&gt;Node13</title>
<path fill="none" stroke="#63b8ff" d="M1383.39,-447.22C1272.09,-436.42 1067,-415.38 1035,-404 999.65,-391.43 909.46,-329.11 868.63,-300.24"/>
<polygon fill="#63b8ff" stroke="#63b8ff" points="870.44,-297.23 860.26,-294.29 866.39,-302.94 870.44,-297.23"/>
</g>
<!-- Node33&#45;&gt;Node15 -->
<g id="edge61" class="edge">
<title>Node33&#45;&gt;Node15</title>
<path fill="none" stroke="#63b8ff" d="M1454.87,-445.46C1454.6,-426.55 1454,-379.71 1454,-340.5 1454,-340.5 1454,-340.5 1454,-283.5 1454,-253.33 1449.53,-243 1430,-220 1417.83,-205.67 1399.83,-194.91 1384.28,-187.56"/>
<polygon fill="#63b8ff" stroke="#63b8ff" points="1385.56,-184.3 1375,-183.42 1382.71,-190.69 1385.56,-184.3"/>
</g>
<!-- Node33&#45;&gt;Node31 -->
<g id="edge58" class="edge">
<title>Node33&#45;&gt;Node31</title>
<path fill="none" stroke="#63b8ff" d="M1435.08,-445.49C1412.05,-435.66 1373.92,-419.38 1347.46,-408.08"/>
<polygon fill="#63b8ff" stroke="#63b8ff" points="1348.52,-404.72 1337.95,-404.02 1345.77,-411.16 1348.52,-404.72"/>
</g>
</g>
</svg>
