<?xml version="1.0" encoding="UTF-8" standalone="no"?>
<!DOCTYPE svg PUBLIC "-//W3C//DTD SVG 1.1//EN"
 "http://www.w3.org/Graphics/SVG/1.1/DTD/svg11.dtd">
<!-- Generated by graphviz version 2.43.0 (0)
 -->
<!-- Title: CCNode Pages: 1 -->
<svg width="1267pt" height="868pt"
 viewBox="0.00 0.00 1267.00 868.28" xmlns="http://www.w3.org/2000/svg" xmlns:xlink="http://www.w3.org/1999/xlink">
<g id="graph0" class="graph" transform="scale(1 1) rotate(0) translate(4 864.28)">
<title>CCNode</title>
<!-- Node1 -->
<g id="node1" class="node">
<title>Node1</title>
<g id="a_node1"><a xlink:title="CCNode is the main element.">
<polygon fill="#bfbfbf" stroke="black" points="1203,-510.76 1203,-529.76 1259,-529.76 1259,-510.76 1203,-510.76"/>
<text text-anchor="middle" x="1231" y="-517.76" font-family="Helvetica,sans-Serif" font-size="10.00">CCNode</text>
</a>
</g>
</g>
<!-- Node2 -->
<g id="node2" class="node">
<title>Node2</title>
<g id="a_node2"><a xlink:href="../../d3/dbf/classcocos2d_1_1_c_c_object.html" target="_top" xlink:title="NA.">
<polygon fill="none" stroke="black" points="107,-383.76 107,-402.76 169,-402.76 169,-383.76 107,-383.76"/>
<text text-anchor="middle" x="138" y="-390.76" font-family="Helvetica,sans-Serif" font-size="10.00">CCObject</text>
</a>
</g>
</g>
<!-- Node2&#45;&gt;Node1 -->
<g id="edge1" class="edge">
<title>Node2&#45;&gt;Node1</title>
<path fill="none" stroke="midnightblue" d="M138.56,-413.13C137.23,-489.64 136.16,-764.35 187,-831.26 204.38,-854.13 218.28,-855.26 247,-855.26 247,-855.26 247,-855.26 1049,-855.26 1110.38,-855.26 1142.28,-875.33 1185,-831.26 1228.01,-786.9 1230.14,-577.58 1230.06,-529.93"/>
<polygon fill="midnightblue" stroke="midnightblue" points="142.06,-413.03 138.75,-402.96 135.06,-412.89 142.06,-413.03"/>
</g>
<!-- Node2&#45;&gt;Node1 -->
<g id="edge39" class="edge">
<title>Node2&#45;&gt;Node1</title>
<path fill="none" stroke="#9a32cd" stroke-dasharray="5,2" d="M139.72,-413.11C143.29,-496.87 162.48,-817.26 247,-817.26 247,-817.26 247,-817.26 1049,-817.26 1186.98,-817.26 1222.85,-580.64 1228.96,-529.81"/>
<polygon fill="#9a32cd" stroke="#9a32cd" points="143.21,-412.77 139.32,-402.91 136.22,-413.05 143.21,-412.77"/>
<text text-anchor="middle" x="606" y="-820.26" font-family="Helvetica,sans-Serif" font-size="10.00"> m_pUserObject</text>
</g>
<!-- Node7 -->
<g id="node7" class="node">
<title>Node7</title>
<g id="a_node7"><a xlink:href="../../d2/d51/classcocos2d_1_1_c_c_camera.html" target="_top" xlink:title="A CCCamera is used in every CCNode.">
<polygon fill="none" stroke="black" points="719,-266.76 719,-285.76 787,-285.76 787,-266.76 719,-266.76"/>
<text text-anchor="middle" x="753" y="-273.76" font-family="Helvetica,sans-Serif" font-size="10.00">CCCamera</text>
</a>
</g>
</g>
<!-- Node2&#45;&gt;Node7 -->
<g id="edge7" class="edge">
<title>Node2&#45;&gt;Node7</title>
<path fill="none" stroke="midnightblue" d="M149.9,-374.74C158.35,-362.21 171.24,-346.49 187,-338.26 368.72,-243.36 627.59,-261.66 718.72,-271.93"/>
<polygon fill="midnightblue" stroke="midnightblue" points="146.73,-373.21 144.34,-383.53 152.65,-376.95 146.73,-373.21"/>
</g>
<!-- Node8 -->
<g id="node8" class="node">
<title>Node8</title>
<g id="a_node8"><a xlink:href="../../d6/d70/classcocos2d_1_1_c_c_grid_base.html" target="_top" xlink:title="Base class for other.">
<polygon fill="none" stroke="black" points="716,-652.76 716,-671.76 790,-671.76 790,-652.76 716,-652.76"/>
<text text-anchor="middle" x="753" y="-659.76" font-family="Helvetica,sans-Serif" font-size="10.00">CCGridBase</text>
</a>
</g>
</g>
<!-- Node2&#45;&gt;Node8 -->
<g id="edge9" class="edge">
<title>Node2&#45;&gt;Node8</title>
<path fill="none" stroke="midnightblue" d="M140.81,-413.2C146.74,-474.14 167.39,-656.34 206,-699.26 239.77,-736.79 258.82,-737.86 308,-749.26 465.24,-785.73 515.02,-752.77 668,-701.26 680.57,-697.03 711.83,-682.05 732.47,-671.94"/>
<polygon fill="midnightblue" stroke="midnightblue" points="144.28,-412.63 139.85,-403 137.31,-413.29 144.28,-412.63"/>
</g>
<!-- Node9 -->
<g id="node9" class="node">
<title>Node9</title>
<g id="a_node9"><a xlink:href="../../d7/dfd/classcocos2d_1_1_c_c_texture2_d.html" target="_top" xlink:title="CCTexture2D class.">
<polygon fill="none" stroke="black" points="436,-599.76 436,-618.76 516,-618.76 516,-599.76 436,-599.76"/>
<text text-anchor="middle" x="476" y="-606.76" font-family="Helvetica,sans-Serif" font-size="10.00">CCTexture2D</text>
</a>
</g>
</g>
<!-- Node2&#45;&gt;Node9 -->
<g id="edge12" class="edge">
<title>Node2&#45;&gt;Node9</title>
<path fill="none" stroke="midnightblue" d="M151.16,-411.57C176.05,-447.49 236.51,-527.19 308,-567.26 348.16,-589.78 400.44,-600.4 435.72,-605.29"/>
<polygon fill="midnightblue" stroke="midnightblue" points="153.88,-409.34 145.36,-403.05 148.09,-413.28 153.88,-409.34"/>
</g>
<!-- Node10 -->
<g id="node10" class="node">
<title>Node10</title>
<g id="a_node10"><a xlink:href="../../db/d28/classcocos2d_1_1_c_c_g_l_program.html" target="_top" xlink:title="CCGLProgram Class that implements a glProgram.">
<polygon fill="none" stroke="black" points="206,-438.76 206,-457.76 290,-457.76 290,-438.76 206,-438.76"/>
<text text-anchor="middle" x="248" y="-445.76" font-family="Helvetica,sans-Serif" font-size="10.00">CCGLProgram</text>
</a>
</g>
</g>
<!-- Node2&#45;&gt;Node10 -->
<g id="edge15" class="edge">
<title>Node2&#45;&gt;Node10</title>
<path fill="none" stroke="midnightblue" d="M166.98,-407.51C186.18,-417.29 211.14,-430 228.04,-438.61"/>
<polygon fill="midnightblue" stroke="midnightblue" points="168.31,-404.26 157.81,-402.84 165.13,-410.5 168.31,-404.26"/>
</g>
<!-- Node11 -->
<g id="node11" class="node">
<title>Node11</title>
<g id="a_node11"><a xlink:href="../../d3/d89/classcocos2d_1_1_c_c_grabber.html" target="_top" xlink:title="FBO class that grabs the the contents of the screen NA NA.">
<polygon fill="none" stroke="black" points="323.5,-720.76 323.5,-739.76 392.5,-739.76 392.5,-720.76 323.5,-720.76"/>
<text text-anchor="middle" x="358" y="-727.76" font-family="Helvetica,sans-Serif" font-size="10.00">CCGrabber</text>
</a>
</g>
</g>
<!-- Node2&#45;&gt;Node11 -->
<g id="edge18" class="edge">
<title>Node2&#45;&gt;Node11</title>
<path fill="none" stroke="midnightblue" d="M138.36,-413.11C137.89,-461.24 143.22,-585.59 206,-659.26 236.44,-694.98 288.82,-713.92 323.19,-723.02"/>
<polygon fill="midnightblue" stroke="midnightblue" points="141.87,-412.9 138.57,-402.83 134.87,-412.76 141.87,-412.9"/>
</g>
<!-- Node12 -->
<g id="node12" class="node">
<title>Node12</title>
<g id="a_node12"><a xlink:href="../../d9/d2e/classcocos2d_1_1_c_c_array.html" target="_top" xlink:title="NA.">
<polygon fill="none" stroke="black" points="448,-171.76 448,-190.76 504,-190.76 504,-171.76 448,-171.76"/>
<text text-anchor="middle" x="476" y="-178.76" font-family="Helvetica,sans-Serif" font-size="10.00">CCArray</text>
</a>
</g>
</g>
<!-- Node2&#45;&gt;Node12 -->
<g id="edge21" class="edge">
<title>Node2&#45;&gt;Node12</title>
<path fill="none" stroke="midnightblue" d="M138.25,-373.21C138.1,-337.39 143.38,-262.6 187,-224.26 261.61,-158.67 391.36,-168.44 447.65,-176.52"/>
<polygon fill="midnightblue" stroke="midnightblue" points="134.75,-373.44 138.45,-383.37 141.75,-373.3 134.75,-373.44"/>
</g>
<!-- Node13 -->
<g id="node13" class="node">
<title>Node13</title>
<g id="a_node13"><a xlink:href="../../d0/ded/classcocos2d_1_1_c_c_node.html" target="_top" xlink:title="CCNode is the main element.">
<polygon fill="none" stroke="black" points="1020,-355.76 1020,-374.76 1076,-374.76 1076,-355.76 1020,-355.76"/>
<text text-anchor="middle" x="1048" y="-362.76" font-family="Helvetica,sans-Serif" font-size="10.00">CCNode</text>
</a>
</g>
</g>
<!-- Node2&#45;&gt;Node13 -->
<g id="edge23" class="edge">
<title>Node2&#45;&gt;Node13</title>
<path fill="none" stroke="midnightblue" d="M142.94,-373.76C152.62,-332.11 181.67,-238.26 247,-238.26 247,-238.26 247,-238.26 607,-238.26 687.2,-238.26 906.18,-221.84 966,-275.26 991.57,-298.1 959.74,-326.04 984,-350.26 993.31,-359.56 1007.27,-363.49 1019.68,-365.02"/>
<polygon fill="midnightblue" stroke="midnightblue" points="139.51,-373.05 140.8,-383.57 146.35,-374.54 139.51,-373.05"/>
</g>
<!-- Node2&#45;&gt;Node13 -->
<g id="edge31" class="edge">
<title>Node2&#45;&gt;Node13</title>
<path fill="none" stroke="#9a32cd" stroke-dasharray="5,2" d="M162.64,-378.6C183.89,-366.84 216.39,-352.26 247,-352.26 247,-352.26 247,-352.26 607,-352.26 763.47,-352.26 951.11,-360.58 1019.97,-363.91"/>
<polygon fill="#9a32cd" stroke="#9a32cd" points="160.62,-375.73 153.71,-383.75 164.12,-381.79 160.62,-375.73"/>
<text text-anchor="middle" x="476" y="-355.26" font-family="Helvetica,sans-Serif" font-size="10.00"> m_pUserObject</text>
</g>
<!-- Node14 -->
<g id="node14" class="node">
<title>Node14</title>
<g id="a_node14"><a xlink:href="../../de/dee/classcocos2d_1_1_c_c_scheduler.html" target="_top" xlink:title="Scheduler is responsible for triggering the scheduled callbacks.">
<polygon fill="none" stroke="black" points="714,-138.76 714,-157.76 792,-157.76 792,-138.76 714,-138.76"/>
<text text-anchor="middle" x="753" y="-145.76" font-family="Helvetica,sans-Serif" font-size="10.00">CCScheduler</text>
</a>
</g>
</g>
<!-- Node2&#45;&gt;Node14 -->
<g id="edge34" class="edge">
<title>Node2&#45;&gt;Node14</title>
<path fill="none" stroke="midnightblue" d="M141.98,-373.51C149.85,-324.22 172.92,-198.07 206,-174.26 366.6,-58.68 627.78,-114.12 719.17,-138.68"/>
<polygon fill="midnightblue" stroke="midnightblue" points="138.49,-373.12 140.41,-383.54 145.41,-374.2 138.49,-373.12"/>
</g>
<!-- Node15 -->
<g id="node15" class="node">
<title>Node15</title>
<g id="a_node15"><a xlink:href="../../d5/dcb/classcocos2d_1_1_c_c_action_manager.html" target="_top" xlink:title="CCActionManager is a singleton that manages all the actions.">
<polygon fill="none" stroke="black" points="701,-46.76 701,-65.76 805,-65.76 805,-46.76 701,-46.76"/>
<text text-anchor="middle" x="753" y="-53.76" font-family="Helvetica,sans-Serif" font-size="10.00">CCActionManager</text>
</a>
</g>
</g>
<!-- Node2&#45;&gt;Node15 -->
<g id="edge37" class="edge">
<title>Node2&#45;&gt;Node15</title>
<path fill="none" stroke="midnightblue" d="M141.35,-373.42C148.32,-318.06 170.57,-163.75 206,-129.26 344.59,5.67 604.99,-27.04 708.23,-46.72"/>
<polygon fill="midnightblue" stroke="midnightblue" points="137.84,-373.3 140.1,-383.65 144.79,-374.15 137.84,-373.3"/>
</g>
<!-- Node3 -->
<g id="node3" class="node">
<title>Node3</title>
<g id="a_node3"><a xlink:href="../../d5/d61/classcocos2d_1_1_c_c_copying.html" target="_top" xlink:title="NA NA.">
<polygon fill="none" stroke="black" points="0,-383.76 0,-402.76 70,-402.76 70,-383.76 0,-383.76"/>
<text text-anchor="middle" x="35" y="-390.76" font-family="Helvetica,sans-Serif" font-size="10.00">CCCopying</text>
</a>
</g>
</g>
<!-- Node3&#45;&gt;Node2 -->
<g id="edge2" class="edge">
<title>Node3&#45;&gt;Node2</title>
<path fill="none" stroke="midnightblue" d="M80.2,-393.26C89.22,-393.26 98.51,-393.26 106.9,-393.26"/>
<polygon fill="midnightblue" stroke="midnightblue" points="80.19,-389.76 70.19,-393.26 80.19,-396.76 80.19,-389.76"/>
</g>
<!-- Node4 -->
<g id="node4" class="node">
<title>Node4</title>
<g id="a_node4"><a xlink:href="../../d2/df3/classcocos2d_1_1_c_c_point.html" target="_top" xlink:title="NA.">
<polygon fill="none" stroke="black" points="448.5,-514.76 448.5,-533.76 503.5,-533.76 503.5,-514.76 448.5,-514.76"/>
<text text-anchor="middle" x="476" y="-521.76" font-family="Helvetica,sans-Serif" font-size="10.00">CCPoint</text>
</a>
</g>
</g>
<!-- Node4&#45;&gt;Node1 -->
<g id="edge3" class="edge">
<title>Node4&#45;&gt;Node1</title>
<path fill="none" stroke="#9a32cd" stroke-dasharray="5,2" d="M513.7,-524.47C562.36,-525.47 644.79,-529.93 668,-548.26 685.88,-562.38 667.27,-583.28 686,-596.26 693.96,-601.78 1158.88,-610.1 1185,-595.26 1210.09,-581.01 1222.72,-546.6 1227.57,-529.81"/>
<polygon fill="#9a32cd" stroke="#9a32cd" points="513.63,-520.97 503.57,-524.3 513.51,-527.97 513.63,-520.97"/>
<text text-anchor="middle" x="902" y="-628.26" font-family="Helvetica,sans-Serif" font-size="10.00"> m_obAnchorPoint</text>
<text text-anchor="middle" x="902" y="-617.26" font-family="Helvetica,sans-Serif" font-size="10.00">m_obAnchorPointInPoints</text>
<text text-anchor="middle" x="902" y="-606.26" font-family="Helvetica,sans-Serif" font-size="10.00">m_obPosition</text>
</g>
<!-- Node4&#45;&gt;Node8 -->
<g id="edge16" class="edge">
<title>Node4&#45;&gt;Node8</title>
<path fill="none" stroke="#9a32cd" stroke-dasharray="5,2" d="M513.11,-536.45C523.05,-539.57 533.89,-542.75 544,-545.26 598.4,-558.78 626.76,-530.3 668,-568.26 690.37,-588.85 666,-611.36 686,-634.26 693.78,-643.17 704.87,-649.32 715.75,-653.54"/>
<polygon fill="#9a32cd" stroke="#9a32cd" points="514.12,-533.1 503.53,-533.38 511.98,-539.77 514.12,-533.1"/>
<text text-anchor="middle" x="606" y="-571.26" font-family="Helvetica,sans-Serif" font-size="10.00"> m_obStep</text>
</g>
<!-- Node4&#45;&gt;Node13 -->
<g id="edge24" class="edge">
<title>Node4&#45;&gt;Node13</title>
<path fill="none" stroke="#9a32cd" stroke-dasharray="5,2" d="M513.62,-516.64C555.29,-508.07 625.41,-493.96 686,-483.26 748.03,-472.31 909.23,-466.55 966,-439.26 998.27,-423.75 1026.83,-391.11 1039.72,-374.87"/>
<polygon fill="#9a32cd" stroke="#9a32cd" points="512.75,-513.25 503.66,-518.7 514.16,-520.1 512.75,-513.25"/>
<text text-anchor="middle" x="753" y="-508.26" font-family="Helvetica,sans-Serif" font-size="10.00"> m_obAnchorPoint</text>
<text text-anchor="middle" x="753" y="-497.26" font-family="Helvetica,sans-Serif" font-size="10.00">m_obAnchorPointInPoints</text>
<text text-anchor="middle" x="753" y="-486.26" font-family="Helvetica,sans-Serif" font-size="10.00">m_obPosition</text>
</g>
<!-- Node5 -->
<g id="node5" class="node">
<title>Node5</title>
<g id="a_node5"><a xlink:href="../../d9/d24/classcocos2d_1_1_c_c_size.html" target="_top" xlink:title="NA.">
<polygon fill="none" stroke="black" points="223,-630.76 223,-649.76 273,-649.76 273,-630.76 223,-630.76"/>
<text text-anchor="middle" x="248" y="-637.76" font-family="Helvetica,sans-Serif" font-size="10.00">CCSize</text>
</a>
</g>
</g>
<!-- Node5&#45;&gt;Node1 -->
<g id="edge4" class="edge">
<title>Node5&#45;&gt;Node1</title>
<path fill="none" stroke="#9a32cd" stroke-dasharray="5,2" d="M282.72,-651.94C290.9,-654.39 299.69,-656.7 308,-658.26 359.69,-667.99 373.55,-663.35 426,-667.26 730.34,-689.95 815.56,-769.8 1112,-697.26 1147.53,-688.57 1161.38,-687.19 1185,-659.26 1218.58,-619.56 1227.23,-554.31 1229.35,-529.89"/>
<polygon fill="#9a32cd" stroke="#9a32cd" points="283.69,-648.58 273.1,-648.93 281.6,-655.26 283.69,-648.58"/>
<text text-anchor="middle" x="753" y="-726.26" font-family="Helvetica,sans-Serif" font-size="10.00"> m_obContentSize</text>
</g>
<!-- Node5&#45;&gt;Node8 -->
<g id="edge10" class="edge">
<title>Node5&#45;&gt;Node8</title>
<path fill="none" stroke="#9a32cd" stroke-dasharray="5,2" d="M283.34,-641.76C374.56,-645.75 622.34,-656.59 715.73,-660.68"/>
<polygon fill="#9a32cd" stroke="#9a32cd" points="283.4,-638.26 273.26,-641.32 283.1,-645.26 283.4,-638.26"/>
<text text-anchor="middle" x="476" y="-655.26" font-family="Helvetica,sans-Serif" font-size="10.00"> m_sGridSize</text>
</g>
<!-- Node5&#45;&gt;Node9 -->
<g id="edge13" class="edge">
<title>Node5&#45;&gt;Node9</title>
<path fill="none" stroke="#9a32cd" stroke-dasharray="5,2" d="M283.05,-634.24C291.21,-632.86 299.91,-631.46 308,-630.26 351.65,-623.82 401.91,-617.67 435.79,-613.71"/>
<polygon fill="#9a32cd" stroke="#9a32cd" points="282.34,-630.81 273.08,-635.94 283.52,-637.71 282.34,-630.81"/>
<text text-anchor="middle" x="358" y="-633.26" font-family="Helvetica,sans-Serif" font-size="10.00"> m_tContentSize</text>
</g>
<!-- Node5&#45;&gt;Node13 -->
<g id="edge25" class="edge">
<title>Node5&#45;&gt;Node13</title>
<path fill="none" stroke="#9a32cd" stroke-dasharray="5,2" d="M272.17,-624.85C303.88,-603.4 362.1,-562.7 408,-523.26 416.58,-515.89 416.26,-511.01 426,-505.26 473.01,-477.53 490.84,-483.61 544,-471.26 729.56,-428.17 782.44,-447.2 966,-396.26 986.6,-390.54 1009.27,-381.63 1025.37,-374.83"/>
<polygon fill="#9a32cd" stroke="#9a32cd" points="269.93,-622.14 263.59,-630.62 273.84,-627.95 269.93,-622.14"/>
<text text-anchor="middle" x="606" y="-474.26" font-family="Helvetica,sans-Serif" font-size="10.00"> m_obContentSize</text>
</g>
<!-- Node6 -->
<g id="node6" class="node">
<title>Node6</title>
<g id="a_node6"><a xlink:href="../../da/dbf/structcocos2d_1_1_c_c_affine_transform.html" target="_top" xlink:title=" ">
<polygon fill="none" stroke="black" points="699.5,-525.76 699.5,-544.76 806.5,-544.76 806.5,-525.76 699.5,-525.76"/>
<text text-anchor="middle" x="753" y="-532.76" font-family="Helvetica,sans-Serif" font-size="10.00">CCAffineTransform</text>
</a>
</g>
</g>
<!-- Node6&#45;&gt;Node1 -->
<g id="edge5" class="edge">
<title>Node6&#45;&gt;Node1</title>
<path fill="none" stroke="#9a32cd" stroke-dasharray="5,2" d="M816.91,-533.28C921.99,-529.97 1128.99,-523.44 1202.95,-521.11"/>
<polygon fill="#9a32cd" stroke="#9a32cd" points="816.64,-529.79 806.76,-533.6 816.86,-536.78 816.64,-529.79"/>
<text text-anchor="middle" x="1048" y="-552.26" font-family="Helvetica,sans-Serif" font-size="10.00"> m_sAdditionalTransform</text>
<text text-anchor="middle" x="1048" y="-541.26" font-family="Helvetica,sans-Serif" font-size="10.00">m_sInverse</text>
<text text-anchor="middle" x="1048" y="-530.26" font-family="Helvetica,sans-Serif" font-size="10.00">m_sTransform</text>
</g>
<!-- Node6&#45;&gt;Node13 -->
<g id="edge26" class="edge">
<title>Node6&#45;&gt;Node13</title>
<path fill="none" stroke="#9a32cd" stroke-dasharray="5,2" d="M801.48,-521.82C808.02,-518.9 814.41,-515.41 820,-511.26 830.71,-503.32 826.65,-494.26 838,-487.26 887.2,-456.93 916.17,-493.55 966,-464.26 1003.91,-441.98 1031.63,-394.94 1042.25,-374.77"/>
<polygon fill="#9a32cd" stroke="#9a32cd" points="799.82,-518.72 791.86,-525.71 802.44,-525.21 799.82,-518.72"/>
<text text-anchor="middle" x="902" y="-512.26" font-family="Helvetica,sans-Serif" font-size="10.00"> m_sAdditionalTransform</text>
<text text-anchor="middle" x="902" y="-501.26" font-family="Helvetica,sans-Serif" font-size="10.00">m_sInverse</text>
<text text-anchor="middle" x="902" y="-490.26" font-family="Helvetica,sans-Serif" font-size="10.00">m_sTransform</text>
</g>
<!-- Node7&#45;&gt;Node1 -->
<g id="edge6" class="edge">
<title>Node7&#45;&gt;Node1</title>
<path fill="none" stroke="#9a32cd" stroke-dasharray="5,2" d="M782.71,-261.37C796,-253.06 810.84,-241.5 820,-227.26 840.66,-195.15 808.31,-167.27 838,-143.26 882.24,-107.5 912.99,-122.62 966,-143.26 1089.11,-191.19 1117.16,-230.9 1185,-344.26 1219.01,-401.09 1227.5,-483.12 1229.46,-510.76"/>
<polygon fill="#9a32cd" stroke="#9a32cd" points="780.68,-258.51 773.84,-266.6 784.23,-264.54 780.68,-258.51"/>
<text text-anchor="middle" x="1048" y="-237.26" font-family="Helvetica,sans-Serif" font-size="10.00"> m_pCamera</text>
</g>
<!-- Node7&#45;&gt;Node13 -->
<g id="edge27" class="edge">
<title>Node7&#45;&gt;Node13</title>
<path fill="none" stroke="#9a32cd" stroke-dasharray="5,2" d="M797.47,-276.2C841.59,-277.59 911.04,-283.82 966,-307.26 975.32,-311.24 975.84,-315.25 984,-321.26 1000.54,-333.45 1019.98,-346.9 1032.84,-355.68"/>
<polygon fill="#9a32cd" stroke="#9a32cd" points="797.45,-272.7 787.37,-275.96 797.28,-279.7 797.45,-272.7"/>
<text text-anchor="middle" x="902" y="-310.26" font-family="Helvetica,sans-Serif" font-size="10.00"> m_pCamera</text>
</g>
<!-- Node8&#45;&gt;Node1 -->
<g id="edge8" class="edge">
<title>Node8&#45;&gt;Node1</title>
<path fill="none" stroke="#9a32cd" stroke-dasharray="5,2" d="M796.2,-674.34C809.46,-677.59 824.24,-680.65 838,-682.26 915.34,-691.34 1125.74,-683.79 1185,-633.26 1217.3,-605.73 1226.62,-551.77 1229.13,-529.86"/>
<polygon fill="#9a32cd" stroke="#9a32cd" points="796.95,-670.92 786.39,-671.84 795.22,-677.71 796.95,-670.92"/>
<text text-anchor="middle" x="1048" y="-685.26" font-family="Helvetica,sans-Serif" font-size="10.00"> m_pGrid</text>
</g>
<!-- Node8&#45;&gt;Node13 -->
<g id="edge28" class="edge">
<title>Node8&#45;&gt;Node13</title>
<path fill="none" stroke="#9a32cd" stroke-dasharray="5,2" d="M800.59,-665.81C855.75,-668.91 943.05,-670.02 966,-648.26 990.37,-625.17 974.69,-530.52 984,-498.26 998.1,-449.41 1028.35,-396.14 1041.12,-374.84"/>
<polygon fill="#9a32cd" stroke="#9a32cd" points="800.54,-662.3 790.35,-665.19 800.12,-669.29 800.54,-662.3"/>
<text text-anchor="middle" x="902" y="-670.26" font-family="Helvetica,sans-Serif" font-size="10.00"> m_pGrid</text>
</g>
<!-- Node9&#45;&gt;Node8 -->
<g id="edge11" class="edge">
<title>Node9&#45;&gt;Node8</title>
<path fill="none" stroke="#9a32cd" stroke-dasharray="5,2" d="M526.3,-611.24C565.22,-613.62 620.67,-618.84 668,-630.26 690.3,-635.64 714.69,-645.39 731.41,-652.72"/>
<polygon fill="#9a32cd" stroke="#9a32cd" points="526.46,-607.74 516.28,-610.66 526.06,-614.73 526.46,-607.74"/>
<text text-anchor="middle" x="606" y="-633.26" font-family="Helvetica,sans-Serif" font-size="10.00"> m_pTexture</text>
</g>
<!-- Node10&#45;&gt;Node1 -->
<g id="edge40" class="edge">
<title>Node10&#45;&gt;Node1</title>
<path fill="none" stroke="#9a32cd" stroke-dasharray="5,2" d="M300.25,-451.01C331.51,-453.12 372.21,-456.65 408,-462.26 437.27,-466.85 644.37,-503.4 668,-521.26 681.33,-531.34 671.78,-545.49 686,-554.26 742.4,-589.04 917.75,-563.15 984,-564.26 1040.88,-565.22 1056.01,-574.36 1112,-564.26 1148.36,-557.7 1188.14,-540.63 1210.98,-529.78"/>
<polygon fill="#9a32cd" stroke="#9a32cd" points="300.24,-447.5 290.03,-450.35 299.79,-454.49 300.24,-447.5"/>
<text text-anchor="middle" x="753" y="-575.26" font-family="Helvetica,sans-Serif" font-size="10.00"> m_pShaderProgram</text>
</g>
<!-- Node10&#45;&gt;Node8 -->
<g id="edge19" class="edge">
<title>Node10&#45;&gt;Node8</title>
<path fill="none" stroke="#9a32cd" stroke-dasharray="5,2" d="M296.83,-460.35C342.11,-471.97 403.79,-488.33 408,-492.26 425.58,-508.66 408.64,-526.64 426,-543.26 465.6,-581.19 491.05,-565.01 544,-579.26 598.65,-593.97 621.21,-576.42 668,-608.26 679.62,-616.17 675.1,-625.39 686,-634.26 695.85,-642.28 708.32,-648.35 719.77,-652.76"/>
<polygon fill="#9a32cd" stroke="#9a32cd" points="297.43,-456.89 286.88,-457.81 295.7,-463.68 297.43,-456.89"/>
<text text-anchor="middle" x="476" y="-577.26" font-family="Helvetica,sans-Serif" font-size="10.00"> m_pShaderProgram</text>
</g>
<!-- Node10&#45;&gt;Node9 -->
<g id="edge14" class="edge">
<title>Node10&#45;&gt;Node9</title>
<path fill="none" stroke="#9a32cd" stroke-dasharray="5,2" d="M270.81,-463.55C281.91,-471.3 295.64,-480.83 308,-489.26 352.19,-519.42 370.84,-517.78 408,-556.26 418.54,-567.17 414.75,-575.09 426,-585.26 432.53,-591.17 440.79,-595.96 448.65,-599.65"/>
<polygon fill="#9a32cd" stroke="#9a32cd" points="272.75,-460.63 262.55,-457.77 268.74,-466.37 272.75,-460.63"/>
<text text-anchor="middle" x="358" y="-559.26" font-family="Helvetica,sans-Serif" font-size="10.00"> m_pShaderProgram</text>
</g>
<!-- Node10&#45;&gt;Node13 -->
<g id="edge32" class="edge">
<title>Node10&#45;&gt;Node13</title>
<path fill="none" stroke="#9a32cd" stroke-dasharray="5,2" d="M296.18,-436.58C300.17,-435.74 304.15,-434.95 308,-434.26 412.02,-415.59 438.8,-415.33 544,-405.26 731.14,-387.35 778.98,-395.37 966,-376.26 983.93,-374.43 1004,-371.71 1019.68,-369.43"/>
<polygon fill="#9a32cd" stroke="#9a32cd" points="295.34,-433.18 286.32,-438.75 296.84,-440.02 295.34,-433.18"/>
<text text-anchor="middle" x="606" y="-408.26" font-family="Helvetica,sans-Serif" font-size="10.00"> m_pShaderProgram</text>
</g>
<!-- Node11&#45;&gt;Node8 -->
<g id="edge17" class="edge">
<title>Node11&#45;&gt;Node8</title>
<path fill="none" stroke="#9a32cd" stroke-dasharray="5,2" d="M402.5,-722.74C480.61,-709.22 643.24,-681.08 715.75,-668.53"/>
<polygon fill="#9a32cd" stroke="#9a32cd" points="401.76,-719.31 392.51,-724.46 402.96,-726.21 401.76,-719.31"/>
<text text-anchor="middle" x="476" y="-720.26" font-family="Helvetica,sans-Serif" font-size="10.00"> m_pGrabber</text>
</g>
<!-- Node12&#45;&gt;Node1 -->
<g id="edge20" class="edge">
<title>Node12&#45;&gt;Node1</title>
<path fill="none" stroke="#9a32cd" stroke-dasharray="5,2" d="M509.27,-167.81C520.19,-163.51 532.53,-158.92 544,-155.26 672.39,-114.37 704.28,-97.83 838,-81.26 894.46,-74.27 909.15,-79.12 966,-81.26 1031.03,-83.71 1051.01,-69.58 1112,-92.26 1149.83,-106.33 1164.71,-111.38 1185,-146.26 1222.57,-210.85 1228.92,-458.1 1229.85,-510.48"/>
<polygon fill="#9a32cd" stroke="#9a32cd" points="507.68,-164.68 499.7,-171.65 510.28,-171.18 507.68,-164.68"/>
<text text-anchor="middle" x="902" y="-84.26" font-family="Helvetica,sans-Serif" font-size="10.00"> m_pChildren</text>
</g>
<!-- Node12&#45;&gt;Node13 -->
<g id="edge29" class="edge">
<title>Node12&#45;&gt;Node13</title>
<path fill="none" stroke="#9a32cd" stroke-dasharray="5,2" d="M514.43,-184.24C626.01,-193.27 949.6,-220.7 966,-236.26 994.01,-262.84 962.68,-289.07 984,-321.26 994.16,-336.61 1011.68,-348.2 1025.66,-355.62"/>
<polygon fill="#9a32cd" stroke="#9a32cd" points="514.56,-180.74 504.31,-183.42 514,-187.72 514.56,-180.74"/>
<text text-anchor="middle" x="753" y="-215.26" font-family="Helvetica,sans-Serif" font-size="10.00"> m_pChildren</text>
</g>
<!-- Node12&#45;&gt;Node14 -->
<g id="edge35" class="edge">
<title>Node12&#45;&gt;Node14</title>
<path fill="none" stroke="#9a32cd" stroke-dasharray="5,2" d="M514.29,-176.79C566.52,-170.52 660.98,-159.18 713.74,-152.85"/>
<polygon fill="#9a32cd" stroke="#9a32cd" points="513.63,-173.34 504.12,-178.01 514.47,-180.29 513.63,-173.34"/>
<text text-anchor="middle" x="606" y="-176.26" font-family="Helvetica,sans-Serif" font-size="10.00"> m_pScriptHandlerEntries</text>
</g>
<!-- Node13&#45;&gt;Node1 -->
<g id="edge22" class="edge">
<title>Node13&#45;&gt;Node1</title>
<path fill="none" stroke="#9a32cd" stroke-dasharray="5,2" d="M1068.04,-381.57C1105.65,-413.78 1188.47,-484.7 1218.68,-510.57"/>
<polygon fill="#9a32cd" stroke="#9a32cd" points="1070.19,-378.8 1060.32,-374.96 1065.64,-384.12 1070.19,-378.8"/>
<text text-anchor="middle" x="1157.5" y="-481.26" font-family="Helvetica,sans-Serif" font-size="10.00"> m_pParent</text>
</g>
<!-- Node13&#45;&gt;Node13 -->
<g id="edge30" class="edge">
<title>Node13&#45;&gt;Node13</title>
<path fill="none" stroke="#9a32cd" stroke-dasharray="5,2" d="M1028,-384.66C1029.34,-389.58 1036,-393.26 1048,-393.26 1067.2,-393.26 1072.74,-383.83 1064.65,-375.02"/>
<polygon fill="#9a32cd" stroke="#9a32cd" points="1031.38,-385.61 1031.35,-375.02 1024.76,-383.31 1031.38,-385.61"/>
<text text-anchor="middle" x="1048" y="-396.26" font-family="Helvetica,sans-Serif" font-size="10.00"> m_pParent</text>
</g>
<!-- Node14&#45;&gt;Node1 -->
<g id="edge41" class="edge">
<title>Node14&#45;&gt;Node1</title>
<path fill="none" stroke="#9a32cd" stroke-dasharray="5,2" d="M783.75,-134.82C799.52,-128.42 819.43,-121.48 838,-118.26 958.25,-97.43 1009.48,-70.05 1112,-136.26 1164.44,-170.13 1163.14,-197.79 1185,-256.26 1220.32,-350.77 1228.1,-474.75 1229.64,-510.33"/>
<polygon fill="#9a32cd" stroke="#9a32cd" points="782.39,-131.59 774.52,-138.69 785.09,-138.05 782.39,-131.59"/>
<text text-anchor="middle" x="1048" y="-139.26" font-family="Helvetica,sans-Serif" font-size="10.00"> m_pScheduler</text>
</g>
<!-- Node14&#45;&gt;Node13 -->
<g id="edge33" class="edge">
<title>Node14&#45;&gt;Node13</title>
<path fill="none" stroke="#9a32cd" stroke-dasharray="5,2" d="M791.36,-160.9C805.82,-165.51 822.57,-170.5 838,-174.26 894.16,-187.94 925.82,-155.71 966,-197.26 1004.71,-237.3 954.77,-273.86 984,-321.26 993.59,-336.82 1010.96,-348.33 1025.04,-355.66"/>
<polygon fill="#9a32cd" stroke="#9a32cd" points="792.35,-157.54 781.76,-157.79 790.2,-164.2 792.35,-157.54"/>
<text text-anchor="middle" x="902" y="-200.26" font-family="Helvetica,sans-Serif" font-size="10.00"> m_pScheduler</text>
</g>
<!-- Node15&#45;&gt;Node1 -->
<g id="edge42" class="edge">
<title>Node15&#45;&gt;Node1</title>
<path fill="none" stroke="#9a32cd" stroke-dasharray="5,2" d="M787.7,-43.21C869.6,-13.93 1080.09,46.16 1185,-64.26 1216.92,-97.86 1228.01,-448.04 1229.75,-510.69"/>
<polygon fill="#9a32cd" stroke="#9a32cd" points="786.33,-39.98 778.14,-46.7 788.73,-46.56 786.33,-39.98"/>
<text text-anchor="middle" x="1048" y="-19.26" font-family="Helvetica,sans-Serif" font-size="10.00"> m_pActionManager</text>
</g>
<!-- Node15&#45;&gt;Node13 -->
<g id="edge36" class="edge">
<title>Node15&#45;&gt;Node13</title>
<path fill="none" stroke="#9a32cd" stroke-dasharray="5,2" d="M784.04,-70.21C841.16,-96.86 960.27,-153.1 966,-161.26 1007.08,-219.86 947.42,-259.76 984,-321.26 993.34,-336.97 1010.73,-348.47 1024.87,-355.76"/>
<polygon fill="#9a32cd" stroke="#9a32cd" points="785.33,-66.95 774.79,-65.9 782.37,-73.3 785.33,-66.95"/>
<text text-anchor="middle" x="902" y="-164.26" font-family="Helvetica,sans-Serif" font-size="10.00"> m_pActionManager</text>
</g>
<!-- Node16 -->
<g id="node16" class="node">
<title>Node16</title>
<g id="a_node16"><a xlink:href="../../d1/d65/classcocos2d_1_1_c_c_component_container.html" target="_top" xlink:title="NA NA.">
<polygon fill="none" stroke="black" points="686,-304.76 686,-323.76 820,-323.76 820,-304.76 686,-304.76"/>
<text text-anchor="middle" x="753" y="-311.76" font-family="Helvetica,sans-Serif" font-size="10.00">CCComponentContainer</text>
</a>
</g>
</g>
<!-- Node16&#45;&gt;Node1 -->
<g id="edge43" class="edge">
<title>Node16&#45;&gt;Node1</title>
<path fill="none" stroke="#9a32cd" stroke-dasharray="5,2" d="M810.36,-303.08C884.72,-291.4 1017.25,-281.45 1112,-335.26 1183.22,-375.71 1218.04,-478.7 1227.37,-510.66"/>
<polygon fill="#9a32cd" stroke="#9a32cd" points="809.57,-299.67 800.27,-304.74 810.7,-306.57 809.57,-299.67"/>
<text text-anchor="middle" x="1048" y="-338.26" font-family="Helvetica,sans-Serif" font-size="10.00"> m_pComponentContainer</text>
</g>
<!-- Node16&#45;&gt;Node13 -->
<g id="edge38" class="edge">
<title>Node16&#45;&gt;Node13</title>
<path fill="none" stroke="#9a32cd" stroke-dasharray="5,2" d="M830.48,-320.34C871.04,-324.39 921.54,-330.75 966,-340.26 984.42,-344.2 1004.67,-350.45 1020.32,-355.72"/>
<polygon fill="#9a32cd" stroke="#9a32cd" points="830.68,-316.84 820.39,-319.36 830.01,-323.81 830.68,-316.84"/>
<text text-anchor="middle" x="902" y="-343.26" font-family="Helvetica,sans-Serif" font-size="10.00"> m_pComponentContainer</text>
</g>
</g>
</svg>
