<?xml version="1.0" encoding="UTF-8" standalone="no"?>
<!DOCTYPE svg PUBLIC "-//W3C//DTD SVG 1.1//EN"
 "http://www.w3.org/Graphics/SVG/1.1/DTD/svg11.dtd">
<!-- Generated by graphviz version 2.43.0 (0)
 -->
<!-- Title: CCTableView Pages: 1 -->
<svg width="1892pt" height="897pt"
 viewBox="0.00 0.00 1892.00 896.65" xmlns="http://www.w3.org/2000/svg" xmlns:xlink="http://www.w3.org/1999/xlink">
<g id="graph0" class="graph" transform="scale(1 1) rotate(0) translate(4 892.65)">
<title>CCTableView</title>
<!-- Node1 -->
<g id="node1" class="node">
<title>Node1</title>
<g id="a_node1"><a xlink:title="UITableView counterpart for cocos2d for iphone.">
<polygon fill="#bfbfbf" stroke="black" points="1804,-113.15 1804,-132.15 1884,-132.15 1884,-113.15 1804,-113.15"/>
<text text-anchor="middle" x="1844" y="-120.15" font-family="Helvetica,sans-Serif" font-size="10.00">CCTableView</text>
</a>
</g>
</g>
<!-- Node2 -->
<g id="node2" class="node">
<title>Node2</title>
<g id="a_node2"><a xlink:href="../../d3/dbc/classcocos2d_1_1extension_1_1_c_c_scroll_view.html" target="_top" xlink:title="ScrollView support for cocos2d for iphone.">
<polygon fill="none" stroke="black" points="1541.5,-199.15 1541.5,-218.15 1622.5,-218.15 1622.5,-199.15 1541.5,-199.15"/>
<text text-anchor="middle" x="1582" y="-206.15" font-family="Helvetica,sans-Serif" font-size="10.00">CCScrollView</text>
</a>
</g>
</g>
<!-- Node2&#45;&gt;Node1 -->
<g id="edge1" class="edge">
<title>Node2&#45;&gt;Node1</title>
<path fill="none" stroke="midnightblue" d="M1621.45,-195.93C1673.98,-178.56 1767.02,-147.78 1814.05,-132.22"/>
<polygon fill="midnightblue" stroke="midnightblue" points="1620.21,-192.65 1611.82,-199.12 1622.41,-199.3 1620.21,-192.65"/>
</g>
<!-- Node3 -->
<g id="node3" class="node">
<title>Node3</title>
<g id="a_node3"><a xlink:href="../../d0/d45/class_c_c_layer.html" target="_top" xlink:title="CCLayer is a subclass of CCNode that implements the TouchEventsDelegate protocol.">
<polygon fill="none" stroke="black" points="1318,-347.15 1318,-366.15 1375,-366.15 1375,-347.15 1318,-347.15"/>
<text text-anchor="middle" x="1346.5" y="-354.15" font-family="Helvetica,sans-Serif" font-size="10.00">CCLayer</text>
</a>
</g>
</g>
<!-- Node3&#45;&gt;Node2 -->
<g id="edge2" class="edge">
<title>Node3&#45;&gt;Node2</title>
<path fill="none" stroke="midnightblue" d="M1372,-341.76C1401.54,-323.74 1452.65,-292.35 1496,-264.65 1521.02,-248.66 1549.81,-229.54 1566.64,-218.28"/>
<polygon fill="midnightblue" stroke="midnightblue" points="1369.92,-338.93 1363.2,-347.12 1373.56,-344.91 1369.92,-338.93"/>
</g>
<!-- Node4 -->
<g id="node4" class="node">
<title>Node4</title>
<g id="a_node4"><a xlink:href="../../d0/ded/classcocos2d_1_1_c_c_node.html" target="_top" xlink:title="CCNode is the main element.">
<polygon fill="none" stroke="black" points="1038,-499.15 1038,-518.15 1094,-518.15 1094,-499.15 1038,-499.15"/>
<text text-anchor="middle" x="1066" y="-506.15" font-family="Helvetica,sans-Serif" font-size="10.00">CCNode</text>
</a>
</g>
</g>
<!-- Node4&#45;&gt;Node2 -->
<g id="edge40" class="edge">
<title>Node4&#45;&gt;Node2</title>
<path fill="none" stroke="#9a32cd" stroke-dasharray="5,2" d="M1103.88,-499.05C1144.29,-488.1 1210.73,-468.82 1266,-446.65 1331.86,-420.23 1350.02,-415.09 1409,-375.65 1451.68,-347.11 1459.1,-335.34 1496,-299.65 1525.37,-271.24 1557.7,-235.18 1572.62,-218.25"/>
<polygon fill="#9a32cd" stroke="#9a32cd" points="1102.94,-495.68 1094.19,-501.65 1104.75,-502.44 1102.94,-495.68"/>
<text text-anchor="middle" x="1346.5" y="-441.65" font-family="Helvetica,sans-Serif" font-size="10.00"> m_pContainer</text>
</g>
<!-- Node4&#45;&gt;Node3 -->
<g id="edge3" class="edge">
<title>Node4&#45;&gt;Node3</title>
<path fill="none" stroke="midnightblue" d="M1094.91,-494.46C1133.62,-474.67 1205.65,-437.39 1266,-403.65 1288.39,-391.13 1313.85,-375.9 1329.79,-366.24"/>
<polygon fill="midnightblue" stroke="midnightblue" points="1093.13,-491.44 1085.82,-499.1 1096.32,-497.67 1093.13,-491.44"/>
</g>
<!-- Node4&#45;&gt;Node4 -->
<g id="edge25" class="edge">
<title>Node4&#45;&gt;Node4</title>
<path fill="none" stroke="#9a32cd" stroke-dasharray="5,2" d="M1039.12,-527.3C1040.24,-532.59 1049.2,-536.65 1066,-536.65 1091.59,-536.65 1098.99,-527.21 1088.19,-518.41"/>
<polygon fill="#9a32cd" stroke="#9a32cd" points="1042.24,-528.89 1043.81,-518.41 1036.05,-525.62 1042.24,-528.89"/>
<text text-anchor="middle" x="1066" y="-539.65" font-family="Helvetica,sans-Serif" font-size="10.00"> m_pParent</text>
</g>
<!-- Node25 -->
<g id="node25" class="node">
<title>Node25</title>
<g id="a_node25"><a xlink:href="../../d4/d2b/classcocos2d_1_1extension_1_1_c_c_table_view_cell.html" target="_top" xlink:title="Abstract class for SWTableView cell node NA.">
<polygon fill="none" stroke="black" points="1297.5,-832.15 1297.5,-851.15 1395.5,-851.15 1395.5,-832.15 1297.5,-832.15"/>
<text text-anchor="middle" x="1346.5" y="-839.15" font-family="Helvetica,sans-Serif" font-size="10.00">CCTableViewCell</text>
</a>
</g>
</g>
<!-- Node4&#45;&gt;Node25 -->
<g id="edge48" class="edge">
<title>Node4&#45;&gt;Node25</title>
<path fill="none" stroke="midnightblue" d="M1075.34,-527.47C1099.74,-580.55 1176.18,-733.05 1284,-817.65 1291.84,-823.8 1301.46,-828.55 1310.74,-832.13"/>
<polygon fill="midnightblue" stroke="midnightblue" points="1078.47,-525.9 1071.15,-518.23 1072.09,-528.78 1078.47,-525.9"/>
</g>
<!-- Node5 -->
<g id="node5" class="node">
<title>Node5</title>
<g id="a_node5"><a xlink:href="../../d3/dbf/classcocos2d_1_1_c_c_object.html" target="_top" xlink:title="NA.">
<polygon fill="none" stroke="black" points="107,-580.15 107,-599.15 169,-599.15 169,-580.15 107,-580.15"/>
<text text-anchor="middle" x="138" y="-587.15" font-family="Helvetica,sans-Serif" font-size="10.00">CCObject</text>
</a>
</g>
</g>
<!-- Node5&#45;&gt;Node4 -->
<g id="edge4" class="edge">
<title>Node5&#45;&gt;Node4</title>
<path fill="none" stroke="midnightblue" d="M156.77,-605.89C165.29,-612.66 176.01,-619.82 187,-623.65 460.56,-718.94 548.36,-650.89 838,-655.65 898.88,-656.65 921.88,-685.41 975,-655.65 1029.82,-624.93 1055.26,-545.69 1062.64,-518.21"/>
<polygon fill="midnightblue" stroke="midnightblue" points="158.97,-603.17 149.07,-599.4 154.46,-608.52 158.97,-603.17"/>
</g>
<!-- Node5&#45;&gt;Node4 -->
<g id="edge26" class="edge">
<title>Node5&#45;&gt;Node4</title>
<path fill="none" stroke="#9a32cd" stroke-dasharray="5,2" d="M179.25,-595.05C181.87,-595.29 184.47,-595.49 187,-595.65 232.72,-598.5 244.24,-593.9 290,-591.65 342.47,-589.06 355.65,-589.02 408,-584.65 465.91,-579.82 619.89,-589.25 668,-556.65 682.15,-547.06 671.52,-531.74 686,-522.65 744.42,-485.99 961.04,-499.96 1037.81,-506.24"/>
<polygon fill="#9a32cd" stroke="#9a32cd" points="179.47,-591.55 169.16,-594 178.74,-598.52 179.47,-591.55"/>
<text text-anchor="middle" x="476" y="-585.65" font-family="Helvetica,sans-Serif" font-size="10.00"> m_pUserObject</text>
</g>
<!-- Node10 -->
<g id="node10" class="node">
<title>Node10</title>
<g id="a_node10"><a xlink:href="../../d2/d51/classcocos2d_1_1_c_c_camera.html" target="_top" xlink:title="A CCCamera is used in every CCNode.">
<polygon fill="none" stroke="black" points="324,-556.15 324,-575.15 392,-575.15 392,-556.15 324,-556.15"/>
<text text-anchor="middle" x="358" y="-563.15" font-family="Helvetica,sans-Serif" font-size="10.00">CCCamera</text>
</a>
</g>
</g>
<!-- Node5&#45;&gt;Node10 -->
<g id="edge10" class="edge">
<title>Node5&#45;&gt;Node10</title>
<path fill="none" stroke="midnightblue" d="M179.37,-585.2C220.94,-580.63 284.97,-573.58 323.73,-569.31"/>
<polygon fill="midnightblue" stroke="midnightblue" points="178.87,-581.74 169.31,-586.31 179.63,-588.7 178.87,-581.74"/>
</g>
<!-- Node11 -->
<g id="node11" class="node">
<title>Node11</title>
<g id="a_node11"><a xlink:href="../../d6/d70/classcocos2d_1_1_c_c_grid_base.html" target="_top" xlink:title="Base class for other.">
<polygon fill="none" stroke="black" points="716,-423.15 716,-442.15 790,-442.15 790,-423.15 716,-423.15"/>
<text text-anchor="middle" x="753" y="-430.15" font-family="Helvetica,sans-Serif" font-size="10.00">CCGridBase</text>
</a>
</g>
</g>
<!-- Node5&#45;&gt;Node11 -->
<g id="edge12" class="edge">
<title>Node5&#45;&gt;Node11</title>
<path fill="none" stroke="midnightblue" d="M158.21,-573.63C171.06,-563.56 188.73,-550.97 206,-542.65 248.57,-522.14 262.01,-523.52 308,-512.65 386.22,-494.16 624.42,-453.89 715.79,-438.65"/>
<polygon fill="midnightblue" stroke="midnightblue" points="155.75,-571.11 150.14,-580.1 160.13,-576.57 155.75,-571.11"/>
</g>
<!-- Node12 -->
<g id="node12" class="node">
<title>Node12</title>
<g id="a_node12"><a xlink:href="../../d7/dfd/classcocos2d_1_1_c_c_texture2_d.html" target="_top" xlink:title="CCTexture2D class.">
<polygon fill="none" stroke="black" points="436,-384.15 436,-403.15 516,-403.15 516,-384.15 436,-384.15"/>
<text text-anchor="middle" x="476" y="-391.15" font-family="Helvetica,sans-Serif" font-size="10.00">CCTexture2D</text>
</a>
</g>
</g>
<!-- Node5&#45;&gt;Node12 -->
<g id="edge15" class="edge">
<title>Node5&#45;&gt;Node12</title>
<path fill="none" stroke="midnightblue" d="M141.22,-569.87C145.34,-542.78 156.7,-494.42 187,-467.65 196.45,-459.3 359.43,-420.54 435.93,-402.69"/>
<polygon fill="midnightblue" stroke="midnightblue" points="137.72,-569.69 139.87,-580.06 144.66,-570.61 137.72,-569.69"/>
</g>
<!-- Node13 -->
<g id="node13" class="node">
<title>Node13</title>
<g id="a_node13"><a xlink:href="../../db/d28/classcocos2d_1_1_c_c_g_l_program.html" target="_top" xlink:title="CCGLProgram Class that implements a glProgram.">
<polygon fill="none" stroke="black" points="206,-384.15 206,-403.15 290,-403.15 290,-384.15 206,-384.15"/>
<text text-anchor="middle" x="248" y="-391.15" font-family="Helvetica,sans-Serif" font-size="10.00">CCGLProgram</text>
</a>
</g>
</g>
<!-- Node5&#45;&gt;Node13 -->
<g id="edge18" class="edge">
<title>Node5&#45;&gt;Node13</title>
<path fill="none" stroke="midnightblue" d="M139.09,-569.75C140.31,-534.67 147.75,-461.4 187,-417.65 192.62,-411.39 200.1,-406.73 207.86,-403.28"/>
<polygon fill="midnightblue" stroke="midnightblue" points="135.58,-570.02 138.88,-580.09 142.58,-570.16 135.58,-570.02"/>
</g>
<!-- Node14 -->
<g id="node14" class="node">
<title>Node14</title>
<g id="a_node14"><a xlink:href="../../d3/d89/classcocos2d_1_1_c_c_grabber.html" target="_top" xlink:title="FBO class that grabs the the contents of the screen NA NA.">
<polygon fill="none" stroke="black" points="323.5,-522.15 323.5,-541.15 392.5,-541.15 392.5,-522.15 323.5,-522.15"/>
<text text-anchor="middle" x="358" y="-529.15" font-family="Helvetica,sans-Serif" font-size="10.00">CCGrabber</text>
</a>
</g>
</g>
<!-- Node5&#45;&gt;Node14 -->
<g id="edge21" class="edge">
<title>Node5&#45;&gt;Node14</title>
<path fill="none" stroke="midnightblue" d="M177.9,-577C187.08,-574.14 196.86,-571.2 206,-568.65 246.04,-557.48 292.55,-546.36 323.26,-539.27"/>
<polygon fill="midnightblue" stroke="midnightblue" points="176.72,-573.7 168.23,-580.04 178.82,-580.38 176.72,-573.7"/>
</g>
<!-- Node15 -->
<g id="node15" class="node">
<title>Node15</title>
<g id="a_node15"><a xlink:href="../../d9/d2e/classcocos2d_1_1_c_c_array.html" target="_top" xlink:title="NA.">
<polygon fill="none" stroke="black" points="448,-715.15 448,-734.15 504,-734.15 504,-715.15 448,-715.15"/>
<text text-anchor="middle" x="476" y="-722.15" font-family="Helvetica,sans-Serif" font-size="10.00">CCArray</text>
</a>
</g>
</g>
<!-- Node5&#45;&gt;Node15 -->
<g id="edge24" class="edge">
<title>Node5&#45;&gt;Node15</title>
<path fill="none" stroke="midnightblue" d="M141.41,-609.48C145.67,-635.17 157.14,-679.2 187,-700.65 266.67,-757.87 392.62,-741.69 447.7,-730.85"/>
<polygon fill="midnightblue" stroke="midnightblue" points="144.85,-608.8 139.95,-599.41 137.92,-609.81 144.85,-608.8"/>
</g>
<!-- Node16 -->
<g id="node16" class="node">
<title>Node16</title>
<g id="a_node16"><a xlink:href="../../de/dee/classcocos2d_1_1_c_c_scheduler.html" target="_top" xlink:title="Scheduler is responsible for triggering the scheduled callbacks.">
<polygon fill="none" stroke="black" points="714,-698.15 714,-717.15 792,-717.15 792,-698.15 714,-698.15"/>
<text text-anchor="middle" x="753" y="-705.15" font-family="Helvetica,sans-Serif" font-size="10.00">CCScheduler</text>
</a>
</g>
</g>
<!-- Node5&#45;&gt;Node16 -->
<g id="edge29" class="edge">
<title>Node5&#45;&gt;Node16</title>
<path fill="none" stroke="midnightblue" d="M145.97,-608.95C153.32,-626.23 166.68,-650.62 187,-662.65 232.15,-689.36 594.13,-702.8 713.77,-706.54"/>
<polygon fill="midnightblue" stroke="midnightblue" points="149.09,-607.31 142.17,-599.29 142.58,-609.88 149.09,-607.31"/>
</g>
<!-- Node17 -->
<g id="node17" class="node">
<title>Node17</title>
<g id="a_node17"><a xlink:href="../../d5/dcb/classcocos2d_1_1_c_c_action_manager.html" target="_top" xlink:title="CCActionManager is a singleton that manages all the actions.">
<polygon fill="none" stroke="black" points="554,-809.15 554,-828.15 658,-828.15 658,-809.15 554,-809.15"/>
<text text-anchor="middle" x="606" y="-816.15" font-family="Helvetica,sans-Serif" font-size="10.00">CCActionManager</text>
</a>
</g>
</g>
<!-- Node5&#45;&gt;Node17 -->
<g id="edge32" class="edge">
<title>Node5&#45;&gt;Node17</title>
<path fill="none" stroke="midnightblue" d="M140.99,-609.4C145.6,-643.18 160.36,-711.15 206,-739.65 316.06,-808.38 473.69,-819.14 553.9,-819.75"/>
<polygon fill="midnightblue" stroke="midnightblue" points="144.46,-608.88 139.79,-599.37 137.51,-609.71 144.46,-608.88"/>
</g>
<!-- Node6 -->
<g id="node6" class="node">
<title>Node6</title>
<g id="a_node6"><a xlink:href="../../d5/d61/classcocos2d_1_1_c_c_copying.html" target="_top" xlink:title="NA NA.">
<polygon fill="none" stroke="black" points="0,-580.15 0,-599.15 70,-599.15 70,-580.15 0,-580.15"/>
<text text-anchor="middle" x="35" y="-587.15" font-family="Helvetica,sans-Serif" font-size="10.00">CCCopying</text>
</a>
</g>
</g>
<!-- Node6&#45;&gt;Node5 -->
<g id="edge5" class="edge">
<title>Node6&#45;&gt;Node5</title>
<path fill="none" stroke="midnightblue" d="M80.2,-589.65C89.22,-589.65 98.51,-589.65 106.9,-589.65"/>
<polygon fill="midnightblue" stroke="midnightblue" points="80.19,-586.15 70.19,-589.65 80.19,-593.15 80.19,-586.15"/>
</g>
<!-- Node7 -->
<g id="node7" class="node">
<title>Node7</title>
<g id="a_node7"><a xlink:href="../../d2/df3/classcocos2d_1_1_c_c_point.html" target="_top" xlink:title="NA.">
<polygon fill="none" stroke="black" points="448.5,-222.15 448.5,-241.15 503.5,-241.15 503.5,-222.15 448.5,-222.15"/>
<text text-anchor="middle" x="476" y="-229.15" font-family="Helvetica,sans-Serif" font-size="10.00">CCPoint</text>
</a>
</g>
</g>
<!-- Node7&#45;&gt;Node2 -->
<g id="edge39" class="edge">
<title>Node7&#45;&gt;Node2</title>
<path fill="none" stroke="#9a32cd" stroke-dasharray="5,2" d="M513.67,-220.92C577.25,-202.7 705.57,-167.65 752,-167.65 752,-167.65 752,-167.65 1347.5,-167.65 1419.94,-167.65 1503.14,-187.03 1548.07,-199.14"/>
<polygon fill="#9a32cd" stroke="#9a32cd" points="512.32,-217.67 503.68,-223.8 514.26,-224.4 512.32,-217.67"/>
<text text-anchor="middle" x="1066" y="-214.65" font-family="Helvetica,sans-Serif" font-size="10.00"> m_fMaxInset</text>
<text text-anchor="middle" x="1066" y="-203.65" font-family="Helvetica,sans-Serif" font-size="10.00">m_fMinInset</text>
<text text-anchor="middle" x="1066" y="-192.65" font-family="Helvetica,sans-Serif" font-size="10.00">m_tContentOffset</text>
<text text-anchor="middle" x="1066" y="-181.65" font-family="Helvetica,sans-Serif" font-size="10.00">m_tScrollDistance</text>
<text text-anchor="middle" x="1066" y="-170.65" font-family="Helvetica,sans-Serif" font-size="10.00">m_tTouchPoint</text>
</g>
<!-- Node7&#45;&gt;Node4 -->
<g id="edge6" class="edge">
<title>Node7&#45;&gt;Node4</title>
<path fill="none" stroke="#9a32cd" stroke-dasharray="5,2" d="M513.71,-235.49C589.63,-243.5 761.66,-262.06 820,-271.65 889.5,-283.07 926.97,-253.13 975,-304.65 1014.17,-346.67 968.06,-380.9 993,-432.65 1006.73,-461.14 1035.06,-486.01 1051.8,-499.02"/>
<polygon fill="#9a32cd" stroke="#9a32cd" points="513.97,-232 503.66,-234.43 513.24,-238.96 513.97,-232"/>
<text text-anchor="middle" x="753" y="-296.65" font-family="Helvetica,sans-Serif" font-size="10.00"> m_obAnchorPoint</text>
<text text-anchor="middle" x="753" y="-285.65" font-family="Helvetica,sans-Serif" font-size="10.00">m_obAnchorPointInPoints</text>
<text text-anchor="middle" x="753" y="-274.65" font-family="Helvetica,sans-Serif" font-size="10.00">m_obPosition</text>
</g>
<!-- Node7&#45;&gt;Node11 -->
<g id="edge19" class="edge">
<title>Node7&#45;&gt;Node11</title>
<path fill="none" stroke="#9a32cd" stroke-dasharray="5,2" d="M503.5,-245.77C515.57,-251.72 530.22,-258.26 544,-262.65 597.41,-279.66 622.3,-253.19 668,-285.65 717.85,-321.05 742.15,-395.97 749.51,-422.82"/>
<polygon fill="#9a32cd" stroke="#9a32cd" points="504.93,-242.58 494.43,-241.19 501.77,-248.82 504.93,-242.58"/>
<text text-anchor="middle" x="606" y="-288.65" font-family="Helvetica,sans-Serif" font-size="10.00"> m_obStep</text>
</g>
<!-- Node24 -->
<g id="node24" class="node">
<title>Node24</title>
<g id="a_node24"><a xlink:href="../../da/d4d/classcocos2d_1_1_c_c_rect.html" target="_top" xlink:title="NA.">
<polygon fill="none" stroke="black" points="727,-202.15 727,-221.15 779,-221.15 779,-202.15 727,-202.15"/>
<text text-anchor="middle" x="753" y="-209.15" font-family="Helvetica,sans-Serif" font-size="10.00">CCRect</text>
</a>
</g>
</g>
<!-- Node7&#45;&gt;Node24 -->
<g id="edge44" class="edge">
<title>Node7&#45;&gt;Node24</title>
<path fill="none" stroke="#9a32cd" stroke-dasharray="5,2" d="M513.96,-228.87C523.73,-228.15 534.26,-227.36 544,-226.65 609.9,-221.81 687.55,-216.25 726.7,-213.45"/>
<polygon fill="#9a32cd" stroke="#9a32cd" points="513.44,-225.4 503.73,-229.64 513.97,-232.38 513.44,-225.4"/>
<text text-anchor="middle" x="606" y="-229.65" font-family="Helvetica,sans-Serif" font-size="10.00"> origin</text>
</g>
<!-- Node8 -->
<g id="node8" class="node">
<title>Node8</title>
<g id="a_node8"><a xlink:href="../../d9/d24/classcocos2d_1_1_c_c_size.html" target="_top" xlink:title="NA.">
<polygon fill="none" stroke="black" points="223,-260.15 223,-279.15 273,-279.15 273,-260.15 223,-260.15"/>
<text text-anchor="middle" x="248" y="-267.15" font-family="Helvetica,sans-Serif" font-size="10.00">CCSize</text>
</a>
</g>
</g>
<!-- Node8&#45;&gt;Node2 -->
<g id="edge42" class="edge">
<title>Node8&#45;&gt;Node2</title>
<path fill="none" stroke="#9a32cd" stroke-dasharray="5,2" d="M261.59,-251.36C272.52,-236.51 289.47,-215.78 308,-201.65 373.44,-151.75 392.7,-121.65 475,-121.65 475,-121.65 475,-121.65 907.5,-121.65 1130.84,-121.65 1187.34,-126.29 1409,-153.65 1448.02,-158.46 1458.51,-157.8 1496,-169.65 1520.31,-177.33 1546.77,-190.26 1563.6,-199.11"/>
<polygon fill="#9a32cd" stroke="#9a32cd" points="258.57,-249.57 255.6,-259.74 264.26,-253.64 258.57,-249.57"/>
<text text-anchor="middle" x="906.5" y="-124.65" font-family="Helvetica,sans-Serif" font-size="10.00"> m_tViewSize</text>
</g>
<!-- Node8&#45;&gt;Node4 -->
<g id="edge7" class="edge">
<title>Node8&#45;&gt;Node4</title>
<path fill="none" stroke="#9a32cd" stroke-dasharray="5,2" d="M283.6,-273.2C424.47,-287.77 948.59,-343.37 975,-366.65 997.81,-386.75 978.1,-406.15 993,-432.65 1008.59,-460.37 1036.51,-485.71 1052.62,-498.96"/>
<polygon fill="#9a32cd" stroke="#9a32cd" points="283.69,-269.69 273.39,-272.14 282.98,-276.65 283.69,-269.69"/>
<text text-anchor="middle" x="606" y="-318.65" font-family="Helvetica,sans-Serif" font-size="10.00"> m_obContentSize</text>
</g>
<!-- Node8&#45;&gt;Node11 -->
<g id="edge13" class="edge">
<title>Node8&#45;&gt;Node11</title>
<path fill="none" stroke="#9a32cd" stroke-dasharray="5,2" d="M282.73,-281.91C337.2,-301.45 448.12,-340.13 544,-366.65 598.45,-381.71 614.43,-376.69 668,-394.65 691.37,-402.48 717.02,-414.64 733.75,-423.09"/>
<polygon fill="#9a32cd" stroke="#9a32cd" points="283.83,-278.59 273.24,-278.49 281.46,-285.17 283.83,-278.59"/>
<text text-anchor="middle" x="476" y="-362.65" font-family="Helvetica,sans-Serif" font-size="10.00"> m_sGridSize</text>
</g>
<!-- Node8&#45;&gt;Node12 -->
<g id="edge16" class="edge">
<title>Node8&#45;&gt;Node12</title>
<path fill="none" stroke="#9a32cd" stroke-dasharray="5,2" d="M263.34,-287.1C274.45,-299.73 290.81,-316.47 308,-327.65 349.68,-354.76 404.25,-373.71 439.47,-384.14"/>
<polygon fill="#9a32cd" stroke="#9a32cd" points="265.99,-284.82 256.83,-279.5 260.67,-289.37 265.99,-284.82"/>
<text text-anchor="middle" x="358" y="-375.65" font-family="Helvetica,sans-Serif" font-size="10.00"> m_tContentSize</text>
</g>
<!-- Node8&#45;&gt;Node24 -->
<g id="edge45" class="edge">
<title>Node8&#45;&gt;Node24</title>
<path fill="none" stroke="#9a32cd" stroke-dasharray="5,2" d="M276.48,-255.43C310.52,-238.7 370.76,-211.89 426,-201.65 536.51,-181.15 671.65,-198.45 726.77,-207.26"/>
<polygon fill="#9a32cd" stroke="#9a32cd" points="274.58,-252.47 267.2,-260.07 277.71,-258.73 274.58,-252.47"/>
<text text-anchor="middle" x="476" y="-204.65" font-family="Helvetica,sans-Serif" font-size="10.00"> size</text>
</g>
<!-- Node9 -->
<g id="node9" class="node">
<title>Node9</title>
<g id="a_node9"><a xlink:href="../../da/dbf/structcocos2d_1_1_c_c_affine_transform.html" target="_top" xlink:title=" ">
<polygon fill="none" stroke="black" points="699.5,-622.15 699.5,-641.15 806.5,-641.15 806.5,-622.15 699.5,-622.15"/>
<text text-anchor="middle" x="753" y="-629.15" font-family="Helvetica,sans-Serif" font-size="10.00">CCAffineTransform</text>
</a>
</g>
</g>
<!-- Node9&#45;&gt;Node4 -->
<g id="edge8" class="edge">
<title>Node9&#45;&gt;Node4</title>
<path fill="none" stroke="#9a32cd" stroke-dasharray="5,2" d="M816.76,-624.63C877.07,-617.55 961.05,-606.69 975,-599.65 1013.68,-580.13 1045.65,-537.55 1058.69,-518.36"/>
<polygon fill="#9a32cd" stroke="#9a32cd" points="816.08,-621.18 806.55,-625.82 816.89,-628.14 816.08,-621.18"/>
<text text-anchor="middle" x="906.5" y="-645.65" font-family="Helvetica,sans-Serif" font-size="10.00"> m_sAdditionalTransform</text>
<text text-anchor="middle" x="906.5" y="-634.65" font-family="Helvetica,sans-Serif" font-size="10.00">m_sInverse</text>
<text text-anchor="middle" x="906.5" y="-623.65" font-family="Helvetica,sans-Serif" font-size="10.00">m_sTransform</text>
</g>
<!-- Node10&#45;&gt;Node4 -->
<g id="edge9" class="edge">
<title>Node10&#45;&gt;Node4</title>
<path fill="none" stroke="#9a32cd" stroke-dasharray="5,2" d="M402,-560.75C435.77,-556.78 483.95,-550.84 526,-544.65 589.32,-535.32 613.99,-554.99 668,-520.65 679.86,-513.11 673.55,-501.17 686,-494.65 799.77,-435.04 846.94,-484.75 975,-494.65 996.28,-496.29 1020.15,-500.1 1037.95,-503.33"/>
<polygon fill="#9a32cd" stroke="#9a32cd" points="401.54,-557.28 392.01,-561.92 402.35,-564.23 401.54,-557.28"/>
<text text-anchor="middle" x="606" y="-544.65" font-family="Helvetica,sans-Serif" font-size="10.00"> m_pCamera</text>
</g>
<!-- Node11&#45;&gt;Node4 -->
<g id="edge11" class="edge">
<title>Node11&#45;&gt;Node4</title>
<path fill="none" stroke="#9a32cd" stroke-dasharray="5,2" d="M800.59,-428.17C846.33,-425.42 917.41,-425.62 975,-445.65 1007.97,-457.12 1039.79,-484.38 1055.26,-499"/>
<polygon fill="#9a32cd" stroke="#9a32cd" points="800.12,-424.69 790.38,-428.86 800.6,-431.68 800.12,-424.69"/>
<text text-anchor="middle" x="906.5" y="-448.65" font-family="Helvetica,sans-Serif" font-size="10.00"> m_pGrid</text>
</g>
<!-- Node12&#45;&gt;Node11 -->
<g id="edge14" class="edge">
<title>Node12&#45;&gt;Node11</title>
<path fill="none" stroke="#9a32cd" stroke-dasharray="5,2" d="M526.75,-397.72C565.41,-401.23 620.29,-406.93 668,-414.65 683.75,-417.2 701.01,-420.76 715.77,-424.04"/>
<polygon fill="#9a32cd" stroke="#9a32cd" points="526.57,-394.19 516.3,-396.79 525.95,-401.17 526.57,-394.19"/>
<text text-anchor="middle" x="606" y="-417.65" font-family="Helvetica,sans-Serif" font-size="10.00"> m_pTexture</text>
</g>
<!-- Node13&#45;&gt;Node4 -->
<g id="edge27" class="edge">
<title>Node13&#45;&gt;Node4</title>
<path fill="none" stroke="#9a32cd" stroke-dasharray="5,2" d="M266.39,-377.3C277.4,-368.11 292.44,-357.52 308,-352.65 350.41,-339.36 363.63,-350.01 408,-352.65 661.47,-367.71 745.76,-313.46 975,-422.65 1012.85,-440.68 1045.02,-480.77 1058.38,-499.13"/>
<polygon fill="#9a32cd" stroke="#9a32cd" points="264.03,-374.71 258.82,-383.94 268.64,-379.98 264.03,-374.71"/>
<text text-anchor="middle" x="606" y="-357.65" font-family="Helvetica,sans-Serif" font-size="10.00"> m_pShaderProgram</text>
</g>
<!-- Node13&#45;&gt;Node11 -->
<g id="edge22" class="edge">
<title>Node13&#45;&gt;Node11</title>
<path fill="none" stroke="#9a32cd" stroke-dasharray="5,2" d="M292.2,-405.56C297.49,-406.75 302.85,-407.82 308,-408.65 457.93,-432.91 639.66,-434.06 715.75,-433.29"/>
<polygon fill="#9a32cd" stroke="#9a32cd" points="292.71,-402.09 282.17,-403.18 291.09,-408.9 292.71,-402.09"/>
<text text-anchor="middle" x="476" y="-431.65" font-family="Helvetica,sans-Serif" font-size="10.00"> m_pShaderProgram</text>
</g>
<!-- Node13&#45;&gt;Node12 -->
<g id="edge17" class="edge">
<title>Node13&#45;&gt;Node12</title>
<path fill="none" stroke="#9a32cd" stroke-dasharray="5,2" d="M300.3,-393.65C341.49,-393.65 398.45,-393.65 435.98,-393.65"/>
<polygon fill="#9a32cd" stroke="#9a32cd" points="300.19,-390.15 290.19,-393.65 300.19,-397.15 300.19,-390.15"/>
<text text-anchor="middle" x="358" y="-396.65" font-family="Helvetica,sans-Serif" font-size="10.00"> m_pShaderProgram</text>
</g>
<!-- Node14&#45;&gt;Node11 -->
<g id="edge20" class="edge">
<title>Node14&#45;&gt;Node11</title>
<path fill="none" stroke="#9a32cd" stroke-dasharray="5,2" d="M402.72,-531.11C477.59,-529.38 626.28,-522.2 668,-492.65 682.6,-482.31 672.65,-468.55 686,-456.65 694.37,-449.19 705.25,-443.99 715.76,-440.39"/>
<polygon fill="#9a32cd" stroke="#9a32cd" points="402.59,-527.61 392.67,-531.32 402.74,-534.61 402.59,-527.61"/>
<text text-anchor="middle" x="476" y="-532.65" font-family="Helvetica,sans-Serif" font-size="10.00"> m_pGrabber</text>
</g>
<!-- Node15&#45;&gt;Node2 -->
<g id="edge41" class="edge">
<title>Node15&#45;&gt;Node2</title>
<path fill="none" stroke="#9a32cd" stroke-dasharray="5,2" d="M514.51,-729.34C567.39,-735.52 666.89,-745.65 752,-745.65 752,-745.65 752,-745.65 1347.5,-745.65 1586.91,-745.65 1583.44,-291.21 1581.35,-218.43"/>
<polygon fill="#9a32cd" stroke="#9a32cd" points="514.61,-725.82 504.27,-728.12 513.79,-732.77 514.61,-725.82"/>
<text text-anchor="middle" x="1066" y="-748.65" font-family="Helvetica,sans-Serif" font-size="10.00"> m_pTouches</text>
</g>
<!-- Node15&#45;&gt;Node4 -->
<g id="edge23" class="edge">
<title>Node15&#45;&gt;Node4</title>
<path fill="none" stroke="#9a32cd" stroke-dasharray="5,2" d="M500.83,-709.34C538.18,-684.86 612.01,-634.46 668,-583.65 676.86,-575.61 675.45,-569.27 686,-563.65 800.5,-502.66 846.68,-541.73 975,-522.65 996.12,-519.51 1019.99,-515.79 1037.84,-512.97"/>
<polygon fill="#9a32cd" stroke="#9a32cd" points="498.63,-706.6 492.16,-714.99 502.45,-712.46 498.63,-706.6"/>
<text text-anchor="middle" x="753" y="-566.65" font-family="Helvetica,sans-Serif" font-size="10.00"> m_pChildren</text>
</g>
<!-- Node15&#45;&gt;Node16 -->
<g id="edge30" class="edge">
<title>Node15&#45;&gt;Node16</title>
<path fill="none" stroke="#9a32cd" stroke-dasharray="5,2" d="M514.29,-722.34C566.52,-719.12 660.98,-713.28 713.74,-710.01"/>
<polygon fill="#9a32cd" stroke="#9a32cd" points="513.89,-718.86 504.12,-722.97 514.32,-725.85 513.89,-718.86"/>
<text text-anchor="middle" x="606" y="-722.65" font-family="Helvetica,sans-Serif" font-size="10.00"> m_pScriptHandlerEntries</text>
</g>
<!-- Node27 -->
<g id="node27" class="node">
<title>Node27</title>
<g id="a_node27"><a xlink:href="../../d8/d99/classcocos2d_1_1extension_1_1_c_c_array_for_object_sorting.html" target="_top" xlink:title="NA NA.">
<polygon fill="none" stroke="black" points="838,-845.15 838,-864.15 975,-864.15 975,-845.15 838,-845.15"/>
<text text-anchor="middle" x="906.5" y="-852.15" font-family="Helvetica,sans-Serif" font-size="10.00">CCArrayForObjectSorting</text>
</a>
</g>
</g>
<!-- Node15&#45;&gt;Node27 -->
<g id="edge51" class="edge">
<title>Node15&#45;&gt;Node27</title>
<path fill="none" stroke="midnightblue" d="M500.91,-739.45C513.35,-746.54 529.04,-754.58 544,-759.65 661.92,-799.62 702.51,-766.43 820,-807.65 846.85,-817.07 875.28,-834.37 891.66,-845.15"/>
<polygon fill="midnightblue" stroke="midnightblue" points="502.49,-736.32 492.1,-734.27 498.95,-742.36 502.49,-736.32"/>
</g>
<!-- Node16&#45;&gt;Node4 -->
<g id="edge28" class="edge">
<title>Node16&#45;&gt;Node4</title>
<path fill="none" stroke="#9a32cd" stroke-dasharray="5,2" d="M802.24,-714.79C850.28,-719.25 924.03,-718.67 975,-683.65 1034.98,-642.44 1057.45,-548.66 1063.31,-518.31"/>
<polygon fill="#9a32cd" stroke="#9a32cd" points="802.4,-711.29 792.1,-713.73 801.68,-718.25 802.4,-711.29"/>
<text text-anchor="middle" x="906.5" y="-719.65" font-family="Helvetica,sans-Serif" font-size="10.00"> m_pScheduler</text>
</g>
<!-- Node17&#45;&gt;Node4 -->
<g id="edge31" class="edge">
<title>Node17&#45;&gt;Node4</title>
<path fill="none" stroke="#9a32cd" stroke-dasharray="5,2" d="M668.5,-820.51C748.43,-819.62 888.02,-806.36 975,-731.65 1043.72,-672.62 1060.61,-553.43 1064.16,-518.49"/>
<polygon fill="#9a32cd" stroke="#9a32cd" points="668.09,-817.01 658.11,-820.56 668.13,-824.01 668.09,-817.01"/>
<text text-anchor="middle" x="753" y="-822.65" font-family="Helvetica,sans-Serif" font-size="10.00"> m_pActionManager</text>
</g>
<!-- Node18 -->
<g id="node18" class="node">
<title>Node18</title>
<g id="a_node18"><a xlink:href="../../d1/d65/classcocos2d_1_1_c_c_component_container.html" target="_top" xlink:title="NA NA.">
<polygon fill="none" stroke="black" points="686,-584.15 686,-603.15 820,-603.15 820,-584.15 686,-584.15"/>
<text text-anchor="middle" x="753" y="-591.15" font-family="Helvetica,sans-Serif" font-size="10.00">CCComponentContainer</text>
</a>
</g>
</g>
<!-- Node18&#45;&gt;Node4 -->
<g id="edge33" class="edge">
<title>Node18&#45;&gt;Node4</title>
<path fill="none" stroke="#9a32cd" stroke-dasharray="5,2" d="M830.18,-587.55C883.26,-582.63 949.02,-575 975,-565.65 1005.98,-554.51 1037.39,-531.3 1053.65,-518.2"/>
<polygon fill="#9a32cd" stroke="#9a32cd" points="829.73,-584.07 820.09,-588.47 830.37,-591.05 829.73,-584.07"/>
<text text-anchor="middle" x="906.5" y="-588.65" font-family="Helvetica,sans-Serif" font-size="10.00"> m_pComponentContainer</text>
</g>
<!-- Node19 -->
<g id="node19" class="node">
<title>Node19</title>
<g id="a_node19"><a xlink:href="../../d0/d38/classcocos2d_1_1_c_c_touch_delegate.html" target="_top" xlink:title=" ">
<polygon fill="none" stroke="black" points="1015,-290.15 1015,-309.15 1117,-309.15 1117,-290.15 1015,-290.15"/>
<text text-anchor="middle" x="1066" y="-297.15" font-family="Helvetica,sans-Serif" font-size="10.00">CCTouchDelegate</text>
</a>
</g>
</g>
<!-- Node19&#45;&gt;Node3 -->
<g id="edge34" class="edge">
<title>Node19&#45;&gt;Node3</title>
<path fill="none" stroke="midnightblue" d="M1125.32,-311.18C1165.01,-319.07 1218.7,-329.84 1266,-339.65 1283.27,-343.23 1302.63,-347.37 1317.92,-350.67"/>
<polygon fill="midnightblue" stroke="midnightblue" points="1125.78,-307.7 1115.29,-309.18 1124.41,-314.56 1125.78,-307.7"/>
</g>
<!-- Node20 -->
<g id="node20" class="node">
<title>Node20</title>
<g id="a_node20"><a xlink:href="../../da/d55/classcocos2d_1_1_c_c_accelerometer_delegate.html" target="_top" xlink:title="The CCAccelerometerDelegate defines a single method for receiving acceleration&#45;related data from the ...">
<polygon fill="none" stroke="black" points="993,-404.15 993,-423.15 1139,-423.15 1139,-404.15 993,-404.15"/>
<text text-anchor="middle" x="1066" y="-411.15" font-family="Helvetica,sans-Serif" font-size="10.00">CCAccelerometerDelegate</text>
</a>
</g>
</g>
<!-- Node20&#45;&gt;Node3 -->
<g id="edge35" class="edge">
<title>Node20&#45;&gt;Node3</title>
<path fill="none" stroke="midnightblue" d="M1144.38,-402.5C1181.38,-396.64 1226.19,-388.78 1266,-379.65 1283.37,-375.67 1302.56,-370.15 1317.74,-365.51"/>
<polygon fill="midnightblue" stroke="midnightblue" points="1143.5,-399.1 1134.16,-404.1 1144.58,-406.01 1143.5,-399.1"/>
</g>
<!-- Node21 -->
<g id="node21" class="node">
<title>Node21</title>
<g id="a_node21"><a xlink:href="../../d2/d2d/classcocos2d_1_1_c_c_keypad_delegate.html" target="_top" xlink:title=" ">
<polygon fill="none" stroke="black" points="1011,-366.15 1011,-385.15 1121,-385.15 1121,-366.15 1011,-366.15"/>
<text text-anchor="middle" x="1066" y="-373.15" font-family="Helvetica,sans-Serif" font-size="10.00">CCKeypadDelegate</text>
</a>
</g>
</g>
<!-- Node21&#45;&gt;Node3 -->
<g id="edge36" class="edge">
<title>Node21&#45;&gt;Node3</title>
<path fill="none" stroke="midnightblue" d="M1131.36,-371.26C1190.32,-367.24 1274.79,-361.47 1317.9,-358.53"/>
<polygon fill="midnightblue" stroke="midnightblue" points="1130.77,-367.79 1121.03,-371.96 1131.24,-374.77 1130.77,-367.79"/>
</g>
<!-- Node22 -->
<g id="node22" class="node">
<title>Node22</title>
<g id="a_node22"><a xlink:href="../../d2/d91/classcocos2d_1_1_c_c_keyboard_delegate.html" target="_top" xlink:title=" ">
<polygon fill="none" stroke="black" points="1006,-328.15 1006,-347.15 1126,-347.15 1126,-328.15 1006,-328.15"/>
<text text-anchor="middle" x="1066" y="-335.15" font-family="Helvetica,sans-Serif" font-size="10.00">CCKeyboardDelegate</text>
</a>
</g>
</g>
<!-- Node22&#45;&gt;Node3 -->
<g id="edge37" class="edge">
<title>Node22&#45;&gt;Node3</title>
<path fill="none" stroke="midnightblue" d="M1136.37,-342.38C1195,-346.38 1275.95,-351.9 1317.86,-354.76"/>
<polygon fill="midnightblue" stroke="midnightblue" points="1136.28,-338.87 1126.06,-341.68 1135.8,-345.85 1136.28,-338.87"/>
</g>
<!-- Node23 -->
<g id="node23" class="node">
<title>Node23</title>
<g id="a_node23"><a xlink:href="../../d6/d2a/classcocos2d_1_1extension_1_1_c_c_scroll_view_delegate.html" target="_top" xlink:title="NA NA.">
<polygon fill="none" stroke="black" points="1284,-74.15 1284,-93.15 1409,-93.15 1409,-74.15 1284,-74.15"/>
<text text-anchor="middle" x="1346.5" y="-81.15" font-family="Helvetica,sans-Serif" font-size="10.00">CCScrollViewDelegate</text>
</a>
</g>
</g>
<!-- Node23&#45;&gt;Node1 -->
<g id="edge46" class="edge">
<title>Node23&#45;&gt;Node1</title>
<path fill="none" stroke="midnightblue" d="M1419.24,-89.3C1525.34,-97.65 1720.53,-113.01 1803.75,-119.56"/>
<polygon fill="midnightblue" stroke="midnightblue" points="1419.5,-85.81 1409.25,-88.51 1418.95,-92.78 1419.5,-85.81"/>
</g>
<!-- Node23&#45;&gt;Node2 -->
<g id="edge38" class="edge">
<title>Node23&#45;&gt;Node2</title>
<path fill="none" stroke="#9a32cd" stroke-dasharray="5,2" d="M1414.84,-95.11C1447.19,-101.4 1481.93,-109.55 1496,-117.65 1532.35,-138.57 1562.42,-180.04 1574.85,-198.9"/>
<polygon fill="#9a32cd" stroke="#9a32cd" points="1415.39,-91.65 1404.91,-93.22 1414.08,-98.52 1415.39,-91.65"/>
<text text-anchor="middle" x="1461.5" y="-120.65" font-family="Helvetica,sans-Serif" font-size="10.00"> m_pDelegate</text>
</g>
<!-- Node29 -->
<g id="node29" class="node">
<title>Node29</title>
<g id="a_node29"><a xlink:href="../../df/d91/classcocos2d_1_1extension_1_1_c_c_table_view_delegate.html" target="_top" xlink:title="Sole purpose of this delegate is to single touch event in this version.">
<polygon fill="none" stroke="black" points="1520,-40.15 1520,-59.15 1644,-59.15 1644,-40.15 1520,-40.15"/>
<text text-anchor="middle" x="1582" y="-47.15" font-family="Helvetica,sans-Serif" font-size="10.00">CCTableViewDelegate</text>
</a>
</g>
</g>
<!-- Node23&#45;&gt;Node29 -->
<g id="edge54" class="edge">
<title>Node23&#45;&gt;Node29</title>
<path fill="none" stroke="midnightblue" d="M1409.52,-72.45C1415.42,-71.47 1421.32,-70.52 1427,-69.65 1457.52,-64.98 1491.54,-60.49 1519.83,-56.95"/>
<polygon fill="midnightblue" stroke="midnightblue" points="1408.89,-69 1399.62,-74.12 1410.06,-75.91 1408.89,-69"/>
</g>
<!-- Node24&#45;&gt;Node2 -->
<g id="edge43" class="edge">
<title>Node24&#45;&gt;Node2</title>
<path fill="none" stroke="#9a32cd" stroke-dasharray="5,2" d="M789.27,-214.56C835.87,-218.24 920.52,-224.38 993,-226.65 1199.46,-233.12 1446.7,-218.13 1541.43,-211.55"/>
<polygon fill="#9a32cd" stroke="#9a32cd" points="789.34,-211.05 779.09,-213.74 788.78,-218.03 789.34,-211.05"/>
<text text-anchor="middle" x="1211.5" y="-230.65" font-family="Helvetica,sans-Serif" font-size="10.00"> m_tParentScissorRect</text>
</g>
<!-- Node25&#45;&gt;Node1 -->
<g id="edge47" class="edge">
<title>Node25&#45;&gt;Node1</title>
<path fill="none" stroke="#9a32cd" stroke-dasharray="5,2" d="M1389.74,-853.75C1477.35,-876 1679.55,-911.96 1786,-805.65 1835.94,-755.78 1842.27,-211.73 1842.93,-132.3"/>
<polygon fill="#9a32cd" stroke="#9a32cd" points="1390.44,-850.32 1379.88,-851.19 1388.67,-857.09 1390.44,-850.32"/>
<text text-anchor="middle" x="1582" y="-880.65" font-family="Helvetica,sans-Serif" font-size="10.00"> m_pTouchedCell</text>
</g>
<!-- Node26 -->
<g id="node26" class="node">
<title>Node26</title>
<g id="a_node26"><a xlink:href="../../dc/d67/classcocos2d_1_1extension_1_1_c_c_sortable_object.html" target="_top" xlink:title="NA NA.">
<polygon fill="none" stroke="black" points="1015,-832.15 1015,-851.15 1117,-851.15 1117,-832.15 1015,-832.15"/>
<text text-anchor="middle" x="1066" y="-839.15" font-family="Helvetica,sans-Serif" font-size="10.00">CCSortableObject</text>
</a>
</g>
</g>
<!-- Node26&#45;&gt;Node25 -->
<g id="edge49" class="edge">
<title>Node26&#45;&gt;Node25</title>
<path fill="none" stroke="midnightblue" d="M1127.31,-841.65C1178.18,-841.65 1250.04,-841.65 1297.19,-841.65"/>
<polygon fill="midnightblue" stroke="midnightblue" points="1127.11,-838.15 1117.11,-841.65 1127.11,-845.15 1127.11,-838.15"/>
</g>
<!-- Node27&#45;&gt;Node1 -->
<g id="edge50" class="edge">
<title>Node27&#45;&gt;Node1</title>
<path fill="none" stroke="#9a32cd" stroke-dasharray="5,2" d="M938.62,-841.15C954.61,-834.69 974.56,-827.35 993,-822.65 1087.61,-798.51 1112.86,-791.65 1210.5,-791.65 1210.5,-791.65 1210.5,-791.65 1583,-791.65 1731.13,-791.65 1828.37,-214.63 1841.48,-132.36"/>
<polygon fill="#9a32cd" stroke="#9a32cd" points="937.13,-837.97 929.22,-845.02 939.8,-844.44 937.13,-837.97"/>
<text text-anchor="middle" x="1346.5" y="-805.65" font-family="Helvetica,sans-Serif" font-size="10.00"> m_pCellsFreed</text>
<text text-anchor="middle" x="1346.5" y="-794.65" font-family="Helvetica,sans-Serif" font-size="10.00">m_pCellsUsed</text>
</g>
<!-- Node28 -->
<g id="node28" class="node">
<title>Node28</title>
<g id="a_node28"><a xlink:href="../../d6/dc1/classcocos2d_1_1extension_1_1_c_c_table_view_data_source.html" target="_top" xlink:title="Data source that governs table backend data.">
<polygon fill="none" stroke="black" points="1514,-2.15 1514,-21.15 1650,-21.15 1650,-2.15 1514,-2.15"/>
<text text-anchor="middle" x="1582" y="-9.15" font-family="Helvetica,sans-Serif" font-size="10.00">CCTableViewDataSource</text>
</a>
</g>
</g>
<!-- Node28&#45;&gt;Node1 -->
<g id="edge52" class="edge">
<title>Node28&#45;&gt;Node1</title>
<path fill="none" stroke="#9a32cd" stroke-dasharray="5,2" d="M1649.12,-1.25C1691.31,1.96 1745.48,-0.57 1786,-25.65 1818.89,-46 1835,-92.9 1840.61,-113.1"/>
<polygon fill="#9a32cd" stroke="#9a32cd" points="1648.59,2.22 1638.94,-2.15 1649.21,-4.75 1648.59,2.22"/>
<text text-anchor="middle" x="1727" y="-28.65" font-family="Helvetica,sans-Serif" font-size="10.00"> m_pDataSource</text>
</g>
<!-- Node29&#45;&gt;Node1 -->
<g id="edge53" class="edge">
<title>Node29&#45;&gt;Node1</title>
<path fill="none" stroke="#9a32cd" stroke-dasharray="5,2" d="M1654.09,-41.77C1694.56,-40.26 1745.16,-43.55 1786,-62.65 1809.43,-73.61 1828.09,-98.82 1837.11,-112.82"/>
<polygon fill="#9a32cd" stroke="#9a32cd" points="1653.86,-38.28 1644.04,-42.25 1654.19,-45.27 1653.86,-38.28"/>
<text text-anchor="middle" x="1727" y="-65.65" font-family="Helvetica,sans-Serif" font-size="10.00"> m_pTableViewDelegate</text>
</g>
</g>
</svg>
