<?xml version="1.0" encoding="UTF-8" standalone="no"?>
<!DOCTYPE svg PUBLIC "-//W3C//DTD SVG 1.1//EN"
 "http://www.w3.org/Graphics/SVG/1.1/DTD/svg11.dtd">
<!-- Generated by graphviz version 2.43.0 (0)
 -->
<!-- Title: CCTableView Pages: 1 -->
<svg width="1892pt" height="896pt"
 viewBox="0.00 0.00 1892.00 895.59" xmlns="http://www.w3.org/2000/svg" xmlns:xlink="http://www.w3.org/1999/xlink">
<g id="graph0" class="graph" transform="scale(1 1) rotate(0) translate(4 891.59)">
<title>CCTableView</title>
<!-- Node1 -->
<g id="node1" class="node">
<title>Node1</title>
<g id="a_node1"><a xlink:title="UITableView counterpart for cocos2d for iphone.">
<polygon fill="#999999" stroke="#666666" points="1884,-131.09 1804,-131.09 1804,-112.09 1884,-112.09 1884,-131.09"/>
<text text-anchor="middle" x="1844" y="-119.09" font-family="Helvetica,sans-Serif" font-size="10.00">CCTableView</text>
</a>
</g>
</g>
<!-- Node2 -->
<g id="node2" class="node">
<title>Node2</title>
<g id="a_node2"><a xlink:href="../../d3/dbc/classcocos2d_1_1extension_1_1_c_c_scroll_view.html" target="_top" xlink:title="ScrollView support for cocos2d for iphone.">
<polygon fill="white" stroke="#666666" points="1622.5,-217.09 1541.5,-217.09 1541.5,-198.09 1622.5,-198.09 1622.5,-217.09"/>
<text text-anchor="middle" x="1582" y="-205.09" font-family="Helvetica,sans-Serif" font-size="10.00">CCScrollView</text>
</a>
</g>
</g>
<!-- Node2&#45;&gt;Node1 -->
<g id="edge1" class="edge">
<title>Node2&#45;&gt;Node1</title>
<path fill="none" stroke="#63b8ff" d="M1621.45,-194.87C1673.98,-177.5 1767.02,-146.72 1814.05,-131.16"/>
<polygon fill="#63b8ff" stroke="#63b8ff" points="1620.21,-191.59 1611.82,-198.06 1622.41,-198.24 1620.21,-191.59"/>
</g>
<!-- Node3 -->
<g id="node3" class="node">
<title>Node3</title>
<g id="a_node3"><a xlink:href="../../d0/d45/class_c_c_layer.html" target="_top" xlink:title="CCLayer is a subclass of CCNode that implements the TouchEventsDelegate protocol.">
<polygon fill="white" stroke="#666666" points="1375,-368.09 1318,-368.09 1318,-349.09 1375,-349.09 1375,-368.09"/>
<text text-anchor="middle" x="1346.5" y="-356.09" font-family="Helvetica,sans-Serif" font-size="10.00">CCLayer</text>
</a>
</g>
</g>
<!-- Node3&#45;&gt;Node2 -->
<g id="edge2" class="edge">
<title>Node3&#45;&gt;Node2</title>
<path fill="none" stroke="#63b8ff" d="M1371.46,-343.4C1400.87,-324.72 1452.22,-292.01 1496,-263.59 1520.9,-247.42 1549.73,-228.36 1566.6,-217.16"/>
<polygon fill="#63b8ff" stroke="#63b8ff" points="1369.29,-340.63 1362.72,-348.95 1373.04,-346.54 1369.29,-340.63"/>
</g>
<!-- Node4 -->
<g id="node4" class="node">
<title>Node4</title>
<g id="a_node4"><a xlink:href="../../d0/ded/classcocos2d_1_1_c_c_node.html" target="_top" xlink:title="CCNode is the main element.">
<polygon fill="white" stroke="#666666" points="1094,-518.09 1038,-518.09 1038,-499.09 1094,-499.09 1094,-518.09"/>
<text text-anchor="middle" x="1066" y="-506.09" font-family="Helvetica,sans-Serif" font-size="10.00">CCNode</text>
</a>
</g>
</g>
<!-- Node4&#45;&gt;Node2 -->
<g id="edge40" class="edge">
<title>Node4&#45;&gt;Node2</title>
<path fill="none" stroke="#9a32cd" stroke-dasharray="5,2" d="M1104.24,-500.39C1170.11,-484.63 1309.58,-445.51 1409,-377.59 1481.8,-327.85 1550.9,-245.32 1573.39,-217.26"/>
<polygon fill="#9a32cd" stroke="#9a32cd" points="1103.25,-497.02 1094.32,-502.72 1104.85,-503.84 1103.25,-497.02"/>
<text text-anchor="middle" x="1346.5" y="-444.59" font-family="Helvetica,sans-Serif" font-size="10.00"> m_pContainer</text>
</g>
<!-- Node4&#45;&gt;Node3 -->
<g id="edge3" class="edge">
<title>Node4&#45;&gt;Node3</title>
<path fill="none" stroke="#63b8ff" d="M1095.56,-494.44C1134.44,-475.04 1206.08,-438.77 1266,-405.59 1288.44,-393.16 1313.89,-377.91 1329.81,-368.22"/>
<polygon fill="#63b8ff" stroke="#63b8ff" points="1093.79,-491.41 1086.4,-499 1096.91,-497.68 1093.79,-491.41"/>
</g>
<!-- Node4&#45;&gt;Node4 -->
<g id="edge25" class="edge">
<title>Node4&#45;&gt;Node4</title>
<path fill="none" stroke="#9a32cd" stroke-dasharray="5,2" d="M1039.21,-527.28C1040.68,-532.29 1049.6,-536.09 1066,-536.09 1091.59,-536.09 1098.99,-526.82 1088.19,-518.17"/>
<polygon fill="#9a32cd" stroke="#9a32cd" points="1042.43,-528.68 1043.81,-518.17 1036.18,-525.52 1042.43,-528.68"/>
<text text-anchor="middle" x="1066" y="-539.09" font-family="Helvetica,sans-Serif" font-size="10.00"> m_pParent</text>
</g>
<!-- Node25 -->
<g id="node25" class="node">
<title>Node25</title>
<g id="a_node25"><a xlink:href="../../d4/d2b/classcocos2d_1_1extension_1_1_c_c_table_view_cell.html" target="_top" xlink:title="Abstract class for SWTableView cell node NA.">
<polygon fill="white" stroke="#666666" points="1395.5,-850.09 1297.5,-850.09 1297.5,-831.09 1395.5,-831.09 1395.5,-850.09"/>
<text text-anchor="middle" x="1346.5" y="-838.09" font-family="Helvetica,sans-Serif" font-size="10.00">CCTableViewCell</text>
</a>
</g>
</g>
<!-- Node4&#45;&gt;Node25 -->
<g id="edge48" class="edge">
<title>Node4&#45;&gt;Node25</title>
<path fill="none" stroke="#63b8ff" d="M1075.35,-527.35C1099.8,-580.25 1176.35,-732.25 1284,-816.59 1291.85,-822.74 1301.47,-827.48 1310.74,-831.06"/>
<polygon fill="#63b8ff" stroke="#63b8ff" points="1078.49,-525.79 1071.16,-518.14 1072.12,-528.69 1078.49,-525.79"/>
</g>
<!-- Node5 -->
<g id="node5" class="node">
<title>Node5</title>
<g id="a_node5"><a xlink:href="../../d3/dbf/classcocos2d_1_1_c_c_object.html" target="_top" xlink:title="NA.">
<polygon fill="white" stroke="#666666" points="169,-595.09 107,-595.09 107,-576.09 169,-576.09 169,-595.09"/>
<text text-anchor="middle" x="138" y="-583.09" font-family="Helvetica,sans-Serif" font-size="10.00">CCObject</text>
</a>
</g>
</g>
<!-- Node5&#45;&gt;Node4 -->
<g id="edge4" class="edge">
<title>Node5&#45;&gt;Node4</title>
<path fill="none" stroke="#63b8ff" d="M155.28,-602.15C163.93,-609.83 175.19,-618.2 187,-622.59 458.58,-723.38 548.36,-649.83 838,-654.59 898.88,-655.59 921.84,-684.27 975,-654.59 1029.34,-624.25 1054.94,-546.14 1062.51,-518.48"/>
<polygon fill="#63b8ff" stroke="#63b8ff" points="157.54,-599.47 147.87,-595.16 152.74,-604.57 157.54,-599.47"/>
</g>
<!-- Node5&#45;&gt;Node4 -->
<g id="edge26" class="edge">
<title>Node5&#45;&gt;Node4</title>
<path fill="none" stroke="#9a32cd" stroke-dasharray="5,2" d="M179.2,-594.33C182.16,-594.56 185.12,-594.66 188,-594.59 285.87,-592.14 310.39,-591.09 408,-583.59 465.92,-579.14 619.44,-588.47 668,-556.59 681.64,-547.63 672.09,-533.12 686,-524.59 744.8,-488.51 961.18,-500.77 1037.85,-506.41"/>
<polygon fill="#9a32cd" stroke="#9a32cd" points="179.51,-590.85 169.17,-593.14 178.68,-597.8 179.51,-590.85"/>
<text text-anchor="middle" x="476" y="-585.59" font-family="Helvetica,sans-Serif" font-size="10.00"> m_pUserObject</text>
</g>
<!-- Node10 -->
<g id="node10" class="node">
<title>Node10</title>
<g id="a_node10"><a xlink:href="../../d2/d51/classcocos2d_1_1_c_c_camera.html" target="_top" xlink:title="A CCCamera is used in every CCNode.">
<polygon fill="white" stroke="#666666" points="392,-574.09 324,-574.09 324,-555.09 392,-555.09 392,-574.09"/>
<text text-anchor="middle" x="358" y="-562.09" font-family="Helvetica,sans-Serif" font-size="10.00">CCCamera</text>
</a>
</g>
</g>
<!-- Node5&#45;&gt;Node10 -->
<g id="edge10" class="edge">
<title>Node5&#45;&gt;Node10</title>
<path fill="none" stroke="#63b8ff" d="M179.37,-581.7C220.94,-577.69 284.97,-571.53 323.73,-567.79"/>
<polygon fill="#63b8ff" stroke="#63b8ff" points="178.93,-578.23 169.31,-582.67 179.6,-585.19 178.93,-578.23"/>
</g>
<!-- Node11 -->
<g id="node11" class="node">
<title>Node11</title>
<g id="a_node11"><a xlink:href="../../d6/d70/classcocos2d_1_1_c_c_grid_base.html" target="_top" xlink:title="Base class for other.">
<polygon fill="white" stroke="#666666" points="790,-442.09 716,-442.09 716,-423.09 790,-423.09 790,-442.09"/>
<text text-anchor="middle" x="753" y="-430.09" font-family="Helvetica,sans-Serif" font-size="10.00">CCGridBase</text>
</a>
</g>
</g>
<!-- Node5&#45;&gt;Node11 -->
<g id="edge12" class="edge">
<title>Node5&#45;&gt;Node11</title>
<path fill="none" stroke="#63b8ff" d="M158.78,-569.68C171.64,-559.94 189.09,-547.81 206,-539.59 248.72,-518.8 261.8,-518.68 308,-507.59 386.01,-488.86 624.34,-451.95 715.77,-438.05"/>
<polygon fill="#63b8ff" stroke="#63b8ff" points="156.44,-567.06 150.68,-575.96 160.73,-572.6 156.44,-567.06"/>
</g>
<!-- Node12 -->
<g id="node12" class="node">
<title>Node12</title>
<g id="a_node12"><a xlink:href="../../d7/dfd/classcocos2d_1_1_c_c_texture2_d.html" target="_top" xlink:title="CCTexture2D class.">
<polygon fill="white" stroke="#666666" points="516,-402.09 436,-402.09 436,-383.09 516,-383.09 516,-402.09"/>
<text text-anchor="middle" x="476" y="-390.09" font-family="Helvetica,sans-Serif" font-size="10.00">CCTexture2D</text>
</a>
</g>
</g>
<!-- Node5&#45;&gt;Node12 -->
<g id="edge15" class="edge">
<title>Node5&#45;&gt;Node12</title>
<path fill="none" stroke="#63b8ff" d="M141.44,-565.9C145.78,-539.38 157.38,-492.54 187,-466.59 196.49,-458.27 359.45,-419.5 435.94,-401.64"/>
<polygon fill="#63b8ff" stroke="#63b8ff" points="137.96,-565.5 139.99,-575.9 144.89,-566.5 137.96,-565.5"/>
</g>
<!-- Node13 -->
<g id="node13" class="node">
<title>Node13</title>
<g id="a_node13"><a xlink:href="../../db/d28/classcocos2d_1_1_c_c_g_l_program.html" target="_top" xlink:title="CCGLProgram Class that implements a glProgram.">
<polygon fill="white" stroke="#666666" points="290,-402.09 206,-402.09 206,-383.09 290,-383.09 290,-402.09"/>
<text text-anchor="middle" x="248" y="-390.09" font-family="Helvetica,sans-Serif" font-size="10.00">CCGLProgram</text>
</a>
</g>
</g>
<!-- Node5&#45;&gt;Node13 -->
<g id="edge18" class="edge">
<title>Node5&#45;&gt;Node13</title>
<path fill="none" stroke="#63b8ff" d="M139.22,-565.54C140.66,-530.87 148.47,-459.34 187,-416.59 192.71,-410.25 200.32,-405.57 208.19,-402.1"/>
<polygon fill="#63b8ff" stroke="#63b8ff" points="135.71,-565.7 138.94,-575.79 142.71,-565.89 135.71,-565.7"/>
</g>
<!-- Node14 -->
<g id="node14" class="node">
<title>Node14</title>
<g id="a_node14"><a xlink:href="../../d3/d89/classcocos2d_1_1_c_c_grabber.html" target="_top" xlink:title="FBO class that grabs the the contents of the screen NA NA.">
<polygon fill="white" stroke="#666666" points="392.5,-535.09 323.5,-535.09 323.5,-516.09 392.5,-516.09 392.5,-535.09"/>
<text text-anchor="middle" x="358" y="-523.09" font-family="Helvetica,sans-Serif" font-size="10.00">CCGrabber</text>
</a>
</g>
</g>
<!-- Node5&#45;&gt;Node14 -->
<g id="edge21" class="edge">
<title>Node5&#45;&gt;Node14</title>
<path fill="none" stroke="#63b8ff" d="M179.07,-574.15C187.93,-571.64 197.28,-569.01 206,-566.59 246.31,-555.4 292.77,-542.84 323.39,-534.6"/>
<polygon fill="#63b8ff" stroke="#63b8ff" points="178,-570.81 169.33,-576.91 179.91,-577.55 178,-570.81"/>
</g>
<!-- Node15 -->
<g id="node15" class="node">
<title>Node15</title>
<g id="a_node15"><a xlink:href="../../d9/d2e/classcocos2d_1_1_c_c_array.html" target="_top" xlink:title="NA.">
<polygon fill="white" stroke="#666666" points="504,-733.09 448,-733.09 448,-714.09 504,-714.09 504,-733.09"/>
<text text-anchor="middle" x="476" y="-721.09" font-family="Helvetica,sans-Serif" font-size="10.00">CCArray</text>
</a>
</g>
</g>
<!-- Node5&#45;&gt;Node15 -->
<g id="edge24" class="edge">
<title>Node5&#45;&gt;Node15</title>
<path fill="none" stroke="#63b8ff" d="M141.12,-605.19C145.1,-631.44 156.28,-677.3 187,-699.59 266.39,-757.19 392.48,-740.81 447.65,-729.85"/>
<polygon fill="#63b8ff" stroke="#63b8ff" points="144.59,-604.73 139.82,-595.26 137.65,-605.63 144.59,-604.73"/>
</g>
<!-- Node16 -->
<g id="node16" class="node">
<title>Node16</title>
<g id="a_node16"><a xlink:href="../../de/dee/classcocos2d_1_1_c_c_scheduler.html" target="_top" xlink:title="Scheduler is responsible for triggering the scheduled callbacks.">
<polygon fill="white" stroke="#666666" points="792,-716.09 714,-716.09 714,-697.09 792,-697.09 792,-716.09"/>
<text text-anchor="middle" x="753" y="-704.09" font-family="Helvetica,sans-Serif" font-size="10.00">CCScheduler</text>
</a>
</g>
</g>
<!-- Node5&#45;&gt;Node16 -->
<g id="edge29" class="edge">
<title>Node5&#45;&gt;Node16</title>
<path fill="none" stroke="#63b8ff" d="M145.44,-604.87C152.56,-622.88 165.9,-648.84 187,-661.59 231.9,-688.72 594.05,-701.87 713.75,-705.51"/>
<polygon fill="#63b8ff" stroke="#63b8ff" points="148.68,-603.53 141.95,-595.35 142.1,-605.94 148.68,-603.53"/>
</g>
<!-- Node17 -->
<g id="node17" class="node">
<title>Node17</title>
<g id="a_node17"><a xlink:href="../../d5/dcb/classcocos2d_1_1_c_c_action_manager.html" target="_top" xlink:title="CCActionManager is a singleton that manages all the actions.">
<polygon fill="white" stroke="#666666" points="658,-827.09 554,-827.09 554,-808.09 658,-808.09 658,-827.09"/>
<text text-anchor="middle" x="606" y="-815.09" font-family="Helvetica,sans-Serif" font-size="10.00">CCActionManager</text>
</a>
</g>
</g>
<!-- Node5&#45;&gt;Node17 -->
<g id="edge32" class="edge">
<title>Node5&#45;&gt;Node17</title>
<path fill="none" stroke="#63b8ff" d="M140.77,-605.27C145.06,-639.58 159.37,-709.47 206,-738.59 316.06,-807.31 473.69,-818.08 553.9,-818.69"/>
<polygon fill="#63b8ff" stroke="#63b8ff" points="144.23,-604.67 139.67,-595.1 137.27,-605.42 144.23,-604.67"/>
</g>
<!-- Node6 -->
<g id="node6" class="node">
<title>Node6</title>
<g id="a_node6"><a xlink:href="../../d5/d61/classcocos2d_1_1_c_c_copying.html" target="_top" xlink:title="NA NA.">
<polygon fill="white" stroke="#666666" points="70,-595.09 0,-595.09 0,-576.09 70,-576.09 70,-595.09"/>
<text text-anchor="middle" x="35" y="-583.09" font-family="Helvetica,sans-Serif" font-size="10.00">CCCopying</text>
</a>
</g>
</g>
<!-- Node6&#45;&gt;Node5 -->
<g id="edge5" class="edge">
<title>Node6&#45;&gt;Node5</title>
<path fill="none" stroke="#63b8ff" d="M80.2,-585.59C89.22,-585.59 98.51,-585.59 106.9,-585.59"/>
<polygon fill="#63b8ff" stroke="#63b8ff" points="80.19,-582.09 70.19,-585.59 80.19,-589.09 80.19,-582.09"/>
</g>
<!-- Node7 -->
<g id="node7" class="node">
<title>Node7</title>
<g id="a_node7"><a xlink:href="../../d2/df3/classcocos2d_1_1_c_c_point.html" target="_top" xlink:title="NA.">
<polygon fill="white" stroke="#666666" points="503.5,-240.09 448.5,-240.09 448.5,-221.09 503.5,-221.09 503.5,-240.09"/>
<text text-anchor="middle" x="476" y="-228.09" font-family="Helvetica,sans-Serif" font-size="10.00">CCPoint</text>
</a>
</g>
</g>
<!-- Node7&#45;&gt;Node2 -->
<g id="edge39" class="edge">
<title>Node7&#45;&gt;Node2</title>
<path fill="none" stroke="#9a32cd" stroke-dasharray="5,2" d="M513.57,-220.45C523.43,-217.8 534.1,-215.01 544,-212.59 635.96,-190.08 657.32,-166.59 752,-166.59 752,-166.59 752,-166.59 1347.5,-166.59 1419.94,-166.59 1503.14,-185.97 1548.07,-198.08"/>
<polygon fill="#9a32cd" stroke="#9a32cd" points="512.4,-217.14 503.66,-223.13 514.23,-223.89 512.4,-217.14"/>
<text text-anchor="middle" x="1066" y="-213.59" font-family="Helvetica,sans-Serif" font-size="10.00"> m_fMaxInset</text>
<text text-anchor="middle" x="1066" y="-202.59" font-family="Helvetica,sans-Serif" font-size="10.00">m_fMinInset</text>
<text text-anchor="middle" x="1066" y="-191.59" font-family="Helvetica,sans-Serif" font-size="10.00">m_tContentOffset</text>
<text text-anchor="middle" x="1066" y="-180.59" font-family="Helvetica,sans-Serif" font-size="10.00">m_tScrollDistance</text>
<text text-anchor="middle" x="1066" y="-169.59" font-family="Helvetica,sans-Serif" font-size="10.00">m_tTouchPoint</text>
</g>
<!-- Node7&#45;&gt;Node4 -->
<g id="edge6" class="edge">
<title>Node7&#45;&gt;Node4</title>
<path fill="none" stroke="#9a32cd" stroke-dasharray="5,2" d="M513.71,-234.43C589.63,-242.44 761.66,-261 820,-270.59 889.5,-282.01 927.03,-252.02 975,-303.59 1014.73,-346.29 967.56,-381.1 993,-433.59 1006.62,-461.69 1034.71,-486.06 1051.5,-498.91"/>
<polygon fill="#9a32cd" stroke="#9a32cd" points="513.97,-230.94 503.66,-233.37 513.24,-237.9 513.97,-230.94"/>
<text text-anchor="middle" x="753" y="-295.59" font-family="Helvetica,sans-Serif" font-size="10.00"> m_obAnchorPoint</text>
<text text-anchor="middle" x="753" y="-284.59" font-family="Helvetica,sans-Serif" font-size="10.00">m_obAnchorPointInPoints</text>
<text text-anchor="middle" x="753" y="-273.59" font-family="Helvetica,sans-Serif" font-size="10.00">m_obPosition</text>
</g>
<!-- Node7&#45;&gt;Node11 -->
<g id="edge19" class="edge">
<title>Node7&#45;&gt;Node11</title>
<path fill="none" stroke="#9a32cd" stroke-dasharray="5,2" d="M503.5,-244.71C515.57,-250.66 530.22,-257.2 544,-261.59 597.41,-278.6 622.35,-252.07 668,-284.59 718.29,-320.41 742.45,-396.39 749.63,-423.08"/>
<polygon fill="#9a32cd" stroke="#9a32cd" points="504.93,-241.52 494.43,-240.12 501.77,-247.76 504.93,-241.52"/>
<text text-anchor="middle" x="606" y="-287.59" font-family="Helvetica,sans-Serif" font-size="10.00"> m_obStep</text>
</g>
<!-- Node24 -->
<g id="node24" class="node">
<title>Node24</title>
<g id="a_node24"><a xlink:href="../../da/d4d/classcocos2d_1_1_c_c_rect.html" target="_top" xlink:title="NA.">
<polygon fill="white" stroke="#666666" points="779,-220.09 727,-220.09 727,-201.09 779,-201.09 779,-220.09"/>
<text text-anchor="middle" x="753" y="-208.09" font-family="Helvetica,sans-Serif" font-size="10.00">CCRect</text>
</a>
</g>
</g>
<!-- Node7&#45;&gt;Node24 -->
<g id="edge44" class="edge">
<title>Node7&#45;&gt;Node24</title>
<path fill="none" stroke="#9a32cd" stroke-dasharray="5,2" d="M513.96,-227.81C523.73,-227.08 534.26,-226.3 544,-225.59 609.9,-220.75 687.55,-215.19 726.7,-212.39"/>
<polygon fill="#9a32cd" stroke="#9a32cd" points="513.44,-224.34 503.73,-228.58 513.97,-231.32 513.44,-224.34"/>
<text text-anchor="middle" x="606" y="-228.59" font-family="Helvetica,sans-Serif" font-size="10.00"> origin</text>
</g>
<!-- Node8 -->
<g id="node8" class="node">
<title>Node8</title>
<g id="a_node8"><a xlink:href="../../d9/d24/classcocos2d_1_1_c_c_size.html" target="_top" xlink:title="NA.">
<polygon fill="white" stroke="#666666" points="273,-278.09 223,-278.09 223,-259.09 273,-259.09 273,-278.09"/>
<text text-anchor="middle" x="248" y="-266.09" font-family="Helvetica,sans-Serif" font-size="10.00">CCSize</text>
</a>
</g>
</g>
<!-- Node8&#45;&gt;Node2 -->
<g id="edge42" class="edge">
<title>Node8&#45;&gt;Node2</title>
<path fill="none" stroke="#9a32cd" stroke-dasharray="5,2" d="M261.66,-250.6C272.63,-235.99 289.61,-215.57 308,-201.59 373.66,-151.65 392.51,-120.59 475,-120.59 475,-120.59 475,-120.59 907.5,-120.59 1130.84,-120.59 1187.34,-125.23 1409,-152.59 1448.02,-157.4 1458.51,-156.74 1496,-168.59 1520.31,-176.27 1546.77,-189.2 1563.6,-198.05"/>
<polygon fill="#9a32cd" stroke="#9a32cd" points="258.71,-248.7 255.64,-258.84 264.36,-252.83 258.71,-248.7"/>
<text text-anchor="middle" x="906.5" y="-123.59" font-family="Helvetica,sans-Serif" font-size="10.00"> m_tViewSize</text>
</g>
<!-- Node8&#45;&gt;Node4 -->
<g id="edge7" class="edge">
<title>Node8&#45;&gt;Node4</title>
<path fill="none" stroke="#9a32cd" stroke-dasharray="5,2" d="M283.6,-272.18C424.49,-286.94 948.65,-343.24 975,-366.59 998.08,-387.04 977.85,-406.73 993,-433.59 1008.52,-461.1 1036.47,-486.04 1052.6,-499.08"/>
<polygon fill="#9a32cd" stroke="#9a32cd" points="283.7,-268.67 273.39,-271.11 282.97,-275.63 283.7,-268.67"/>
<text text-anchor="middle" x="606" y="-317.59" font-family="Helvetica,sans-Serif" font-size="10.00"> m_obContentSize</text>
</g>
<!-- Node8&#45;&gt;Node11 -->
<g id="edge13" class="edge">
<title>Node8&#45;&gt;Node11</title>
<path fill="none" stroke="#9a32cd" stroke-dasharray="5,2" d="M282.73,-280.85C337.2,-300.38 448.12,-339.07 544,-365.59 598.45,-380.65 614.52,-375.37 668,-393.59 691.74,-401.68 717.74,-414.39 734.43,-423.09"/>
<polygon fill="#9a32cd" stroke="#9a32cd" points="283.83,-277.53 273.24,-277.43 281.46,-284.11 283.83,-277.53"/>
<text text-anchor="middle" x="476" y="-361.59" font-family="Helvetica,sans-Serif" font-size="10.00"> m_sGridSize</text>
</g>
<!-- Node8&#45;&gt;Node12 -->
<g id="edge16" class="edge">
<title>Node8&#45;&gt;Node12</title>
<path fill="none" stroke="#9a32cd" stroke-dasharray="5,2" d="M263.34,-286.04C274.45,-298.67 290.81,-315.41 308,-326.59 349.68,-353.7 404.25,-372.65 439.47,-383.08"/>
<polygon fill="#9a32cd" stroke="#9a32cd" points="265.99,-283.76 256.83,-278.43 260.67,-288.31 265.99,-283.76"/>
<text text-anchor="middle" x="358" y="-374.59" font-family="Helvetica,sans-Serif" font-size="10.00"> m_tContentSize</text>
</g>
<!-- Node8&#45;&gt;Node24 -->
<g id="edge45" class="edge">
<title>Node8&#45;&gt;Node24</title>
<path fill="none" stroke="#9a32cd" stroke-dasharray="5,2" d="M276.78,-254.45C310.89,-237.95 370.99,-211.65 426,-201.59 536.55,-181.36 671.66,-197.91 726.78,-206.37"/>
<polygon fill="#9a32cd" stroke="#9a32cd" points="274.9,-251.47 267.47,-259.02 277.99,-257.75 274.9,-251.47"/>
<text text-anchor="middle" x="476" y="-204.59" font-family="Helvetica,sans-Serif" font-size="10.00"> size</text>
</g>
<!-- Node9 -->
<g id="node9" class="node">
<title>Node9</title>
<g id="a_node9"><a xlink:href="../../da/dbf/structcocos2d_1_1_c_c_affine_transform.html" target="_top" xlink:title=" ">
<polygon fill="white" stroke="#666666" points="806.5,-640.09 699.5,-640.09 699.5,-621.09 806.5,-621.09 806.5,-640.09"/>
<text text-anchor="middle" x="753" y="-628.09" font-family="Helvetica,sans-Serif" font-size="10.00">CCAffineTransform</text>
</a>
</g>
</g>
<!-- Node9&#45;&gt;Node4 -->
<g id="edge8" class="edge">
<title>Node9&#45;&gt;Node4</title>
<path fill="none" stroke="#9a32cd" stroke-dasharray="5,2" d="M816.75,-623.55C877.05,-616.46 961.03,-605.59 975,-598.59 1013.52,-579.28 1045.58,-537.17 1058.67,-518.19"/>
<polygon fill="#9a32cd" stroke="#9a32cd" points="816.07,-620.11 806.54,-624.74 816.88,-627.06 816.07,-620.11"/>
<text text-anchor="middle" x="906.5" y="-644.59" font-family="Helvetica,sans-Serif" font-size="10.00"> m_sAdditionalTransform</text>
<text text-anchor="middle" x="906.5" y="-633.59" font-family="Helvetica,sans-Serif" font-size="10.00">m_sInverse</text>
<text text-anchor="middle" x="906.5" y="-622.59" font-family="Helvetica,sans-Serif" font-size="10.00">m_sTransform</text>
</g>
<!-- Node10&#45;&gt;Node4 -->
<g id="edge9" class="edge">
<title>Node10&#45;&gt;Node4</title>
<path fill="none" stroke="#9a32cd" stroke-dasharray="5,2" d="M402.34,-559.98C481.98,-551.25 645.57,-531.96 668,-518.59 679.45,-511.76 674.07,-500.55 686,-494.59 800.88,-437.15 846.94,-484.69 975,-494.59 996.28,-496.23 1020.15,-500.04 1037.95,-503.26"/>
<polygon fill="#9a32cd" stroke="#9a32cd" points="401.7,-556.53 392.14,-561.09 402.46,-563.49 401.7,-556.53"/>
<text text-anchor="middle" x="606" y="-544.59" font-family="Helvetica,sans-Serif" font-size="10.00"> m_pCamera</text>
</g>
<!-- Node11&#45;&gt;Node4 -->
<g id="edge11" class="edge">
<title>Node11&#45;&gt;Node4</title>
<path fill="none" stroke="#9a32cd" stroke-dasharray="5,2" d="M800.59,-428.11C846.33,-425.36 917.41,-425.56 975,-445.59 1007.97,-457.05 1039.79,-484.32 1055.26,-498.94"/>
<polygon fill="#9a32cd" stroke="#9a32cd" points="800.12,-424.63 790.38,-428.79 800.6,-431.61 800.12,-424.63"/>
<text text-anchor="middle" x="906.5" y="-448.59" font-family="Helvetica,sans-Serif" font-size="10.00"> m_pGrid</text>
</g>
<!-- Node12&#45;&gt;Node11 -->
<g id="edge14" class="edge">
<title>Node12&#45;&gt;Node11</title>
<path fill="none" stroke="#9a32cd" stroke-dasharray="5,2" d="M526.78,-396.51C565.45,-399.93 620.33,-405.6 668,-413.59 683.78,-416.23 701.04,-419.98 715.79,-423.46"/>
<polygon fill="#9a32cd" stroke="#9a32cd" points="526.58,-392.98 516.32,-395.6 525.98,-399.95 526.58,-392.98"/>
<text text-anchor="middle" x="606" y="-416.59" font-family="Helvetica,sans-Serif" font-size="10.00"> m_pTexture</text>
</g>
<!-- Node13&#45;&gt;Node4 -->
<g id="edge27" class="edge">
<title>Node13&#45;&gt;Node4</title>
<path fill="none" stroke="#9a32cd" stroke-dasharray="5,2" d="M266.39,-376.24C277.4,-367.04 292.44,-356.46 308,-351.59 350.41,-338.3 363.63,-348.95 408,-351.59 661.52,-366.65 745.89,-313.01 975,-422.59 994.4,-431.87 1038.02,-478.69 1056.49,-499.08"/>
<polygon fill="#9a32cd" stroke="#9a32cd" points="264.03,-373.65 258.82,-382.88 268.64,-378.91 264.03,-373.65"/>
<text text-anchor="middle" x="606" y="-356.59" font-family="Helvetica,sans-Serif" font-size="10.00"> m_pShaderProgram</text>
</g>
<!-- Node13&#45;&gt;Node11 -->
<g id="edge22" class="edge">
<title>Node13&#45;&gt;Node11</title>
<path fill="none" stroke="#9a32cd" stroke-dasharray="5,2" d="M292.2,-404.5C297.49,-405.69 302.85,-406.75 308,-407.59 457.95,-431.85 639.67,-433.59 715.76,-433.09"/>
<polygon fill="#9a32cd" stroke="#9a32cd" points="292.71,-401.02 282.17,-402.12 291.09,-407.84 292.71,-401.02"/>
<text text-anchor="middle" x="476" y="-431.59" font-family="Helvetica,sans-Serif" font-size="10.00"> m_pShaderProgram</text>
</g>
<!-- Node13&#45;&gt;Node12 -->
<g id="edge17" class="edge">
<title>Node13&#45;&gt;Node12</title>
<path fill="none" stroke="#9a32cd" stroke-dasharray="5,2" d="M300.3,-392.59C341.49,-392.59 398.45,-392.59 435.98,-392.59"/>
<polygon fill="#9a32cd" stroke="#9a32cd" points="300.19,-389.09 290.19,-392.59 300.19,-396.09 300.19,-389.09"/>
<text text-anchor="middle" x="358" y="-395.59" font-family="Helvetica,sans-Serif" font-size="10.00"> m_pShaderProgram</text>
</g>
<!-- Node14&#45;&gt;Node11 -->
<g id="edge20" class="edge">
<title>Node14&#45;&gt;Node11</title>
<path fill="none" stroke="#9a32cd" stroke-dasharray="5,2" d="M402.66,-525.76C477.42,-525.26 625.96,-520.51 668,-491.59 682.41,-481.67 672.88,-468.15 686,-456.59 694.42,-449.17 705.31,-443.99 715.81,-440.39"/>
<polygon fill="#9a32cd" stroke="#9a32cd" points="402.6,-522.26 392.62,-525.81 402.63,-529.26 402.6,-522.26"/>
<text text-anchor="middle" x="476" y="-527.59" font-family="Helvetica,sans-Serif" font-size="10.00"> m_pGrabber</text>
</g>
<!-- Node15&#45;&gt;Node2 -->
<g id="edge41" class="edge">
<title>Node15&#45;&gt;Node2</title>
<path fill="none" stroke="#9a32cd" stroke-dasharray="5,2" d="M514.51,-728.27C567.39,-734.46 666.89,-744.59 752,-744.59 752,-744.59 752,-744.59 1347.5,-744.59 1586.91,-744.59 1583.44,-290.15 1581.35,-217.37"/>
<polygon fill="#9a32cd" stroke="#9a32cd" points="514.61,-724.76 504.27,-727.06 513.79,-731.71 514.61,-724.76"/>
<text text-anchor="middle" x="1066" y="-747.59" font-family="Helvetica,sans-Serif" font-size="10.00"> m_pTouches</text>
</g>
<!-- Node15&#45;&gt;Node4 -->
<g id="edge23" class="edge">
<title>Node15&#45;&gt;Node4</title>
<path fill="none" stroke="#9a32cd" stroke-dasharray="5,2" d="M500.41,-708.43C537.48,-684 611.28,-633.59 668,-583.59 676.73,-575.9 675.67,-569.94 686,-564.59 801.22,-504.84 846.65,-541.9 975,-522.59 996.11,-519.41 1019.98,-515.69 1037.84,-512.89"/>
<polygon fill="#9a32cd" stroke="#9a32cd" points="498.26,-705.66 491.81,-714.07 502.1,-711.51 498.26,-705.66"/>
<text text-anchor="middle" x="753" y="-567.59" font-family="Helvetica,sans-Serif" font-size="10.00"> m_pChildren</text>
</g>
<!-- Node15&#45;&gt;Node16 -->
<g id="edge30" class="edge">
<title>Node15&#45;&gt;Node16</title>
<path fill="none" stroke="#9a32cd" stroke-dasharray="5,2" d="M514.29,-721.28C566.52,-718.05 660.98,-712.21 713.74,-708.95"/>
<polygon fill="#9a32cd" stroke="#9a32cd" points="513.89,-717.8 504.12,-721.91 514.32,-724.79 513.89,-717.8"/>
<text text-anchor="middle" x="606" y="-721.59" font-family="Helvetica,sans-Serif" font-size="10.00"> m_pScriptHandlerEntries</text>
</g>
<!-- Node27 -->
<g id="node27" class="node">
<title>Node27</title>
<g id="a_node27"><a xlink:href="../../d8/d99/classcocos2d_1_1extension_1_1_c_c_array_for_object_sorting.html" target="_top" xlink:title="NA NA.">
<polygon fill="white" stroke="#666666" points="975,-863.09 838,-863.09 838,-844.09 975,-844.09 975,-863.09"/>
<text text-anchor="middle" x="906.5" y="-851.09" font-family="Helvetica,sans-Serif" font-size="10.00">CCArrayForObjectSorting</text>
</a>
</g>
</g>
<!-- Node15&#45;&gt;Node27 -->
<g id="edge51" class="edge">
<title>Node15&#45;&gt;Node27</title>
<path fill="none" stroke="#63b8ff" d="M500.91,-738.39C513.35,-745.48 529.04,-753.52 544,-758.59 661.92,-798.56 702.51,-765.37 820,-806.59 846.85,-816.01 875.28,-833.31 891.66,-844.08"/>
<polygon fill="#63b8ff" stroke="#63b8ff" points="502.49,-735.26 492.1,-733.21 498.95,-741.3 502.49,-735.26"/>
</g>
<!-- Node16&#45;&gt;Node4 -->
<g id="edge28" class="edge">
<title>Node16&#45;&gt;Node4</title>
<path fill="none" stroke="#9a32cd" stroke-dasharray="5,2" d="M802.22,-713.42C850.26,-717.59 924,-716.62 975,-681.59 1034.44,-640.76 1057.27,-548.11 1063.27,-518.14"/>
<polygon fill="#9a32cd" stroke="#9a32cd" points="802.38,-709.91 792.09,-712.43 801.7,-716.88 802.38,-709.91"/>
<text text-anchor="middle" x="906.5" y="-717.59" font-family="Helvetica,sans-Serif" font-size="10.00"> m_pScheduler</text>
</g>
<!-- Node17&#45;&gt;Node4 -->
<g id="edge31" class="edge">
<title>Node17&#45;&gt;Node4</title>
<path fill="none" stroke="#9a32cd" stroke-dasharray="5,2" d="M668.48,-819.22C748.38,-818.04 887.95,-804.32 975,-729.59 1043.21,-671.03 1060.45,-552.95 1064.12,-518.34"/>
<polygon fill="#9a32cd" stroke="#9a32cd" points="668.06,-815.72 658.09,-819.3 668.12,-822.72 668.06,-815.72"/>
<text text-anchor="middle" x="753" y="-821.59" font-family="Helvetica,sans-Serif" font-size="10.00"> m_pActionManager</text>
</g>
<!-- Node18 -->
<g id="node18" class="node">
<title>Node18</title>
<g id="a_node18"><a xlink:href="../../d1/d65/classcocos2d_1_1_c_c_component_container.html" target="_top" xlink:title="NA NA.">
<polygon fill="white" stroke="#666666" points="820,-603.09 686,-603.09 686,-584.09 820,-584.09 820,-603.09"/>
<text text-anchor="middle" x="753" y="-591.09" font-family="Helvetica,sans-Serif" font-size="10.00">CCComponentContainer</text>
</a>
</g>
</g>
<!-- Node18&#45;&gt;Node4 -->
<g id="edge33" class="edge">
<title>Node18&#45;&gt;Node4</title>
<path fill="none" stroke="#9a32cd" stroke-dasharray="5,2" d="M830.16,-587.05C883.23,-581.84 948.99,-573.89 975,-564.59 1005.67,-553.62 1036.95,-531.05 1053.34,-518.16"/>
<polygon fill="#9a32cd" stroke="#9a32cd" points="829.69,-583.58 820.08,-588.02 830.37,-590.55 829.69,-583.58"/>
<text text-anchor="middle" x="906.5" y="-588.59" font-family="Helvetica,sans-Serif" font-size="10.00"> m_pComponentContainer</text>
</g>
<!-- Node19 -->
<g id="node19" class="node">
<title>Node19</title>
<g id="a_node19"><a xlink:href="../../d0/d38/classcocos2d_1_1_c_c_touch_delegate.html" target="_top" xlink:title=" ">
<polygon fill="white" stroke="#666666" points="1117,-313.09 1015,-313.09 1015,-294.09 1117,-294.09 1117,-313.09"/>
<text text-anchor="middle" x="1066" y="-301.09" font-family="Helvetica,sans-Serif" font-size="10.00">CCTouchDelegate</text>
</a>
</g>
</g>
<!-- Node19&#45;&gt;Node3 -->
<g id="edge34" class="edge">
<title>Node19&#45;&gt;Node3</title>
<path fill="none" stroke="#63b8ff" d="M1127.36,-314.76C1166.85,-322.15 1219.54,-332.19 1266,-341.59 1283.29,-345.09 1302.65,-349.22 1317.94,-352.54"/>
<polygon fill="#63b8ff" stroke="#63b8ff" points="1127.83,-311.28 1117.36,-312.89 1126.55,-318.17 1127.83,-311.28"/>
</g>
<!-- Node20 -->
<g id="node20" class="node">
<title>Node20</title>
<g id="a_node20"><a xlink:href="../../da/d55/classcocos2d_1_1_c_c_accelerometer_delegate.html" target="_top" xlink:title="The CCAccelerometerDelegate defines a single method for receiving acceleration&#45;related data from the ...">
<polygon fill="white" stroke="#666666" points="1139,-424.09 993,-424.09 993,-405.09 1139,-405.09 1139,-424.09"/>
<text text-anchor="middle" x="1066" y="-412.09" font-family="Helvetica,sans-Serif" font-size="10.00">CCAccelerometerDelegate</text>
</a>
</g>
</g>
<!-- Node20&#45;&gt;Node3 -->
<g id="edge35" class="edge">
<title>Node20&#45;&gt;Node3</title>
<path fill="none" stroke="#63b8ff" d="M1147.01,-403.51C1183.5,-397.9 1227.13,-390.4 1266,-381.59 1283.38,-377.65 1302.57,-372.13 1317.75,-367.48"/>
<polygon fill="#63b8ff" stroke="#63b8ff" points="1146.28,-400.08 1136.92,-405.04 1147.33,-407 1146.28,-400.08"/>
</g>
<!-- Node21 -->
<g id="node21" class="node">
<title>Node21</title>
<g id="a_node21"><a xlink:href="../../d2/d2d/classcocos2d_1_1_c_c_keypad_delegate.html" target="_top" xlink:title=" ">
<polygon fill="white" stroke="#666666" points="1121,-387.09 1011,-387.09 1011,-368.09 1121,-368.09 1121,-387.09"/>
<text text-anchor="middle" x="1066" y="-375.09" font-family="Helvetica,sans-Serif" font-size="10.00">CCKeypadDelegate</text>
</a>
</g>
</g>
<!-- Node21&#45;&gt;Node3 -->
<g id="edge36" class="edge">
<title>Node21&#45;&gt;Node3</title>
<path fill="none" stroke="#63b8ff" d="M1131.36,-373.2C1190.32,-369.17 1274.79,-363.41 1317.9,-360.47"/>
<polygon fill="#63b8ff" stroke="#63b8ff" points="1130.77,-369.73 1121.03,-373.9 1131.24,-376.71 1130.77,-369.73"/>
</g>
<!-- Node22 -->
<g id="node22" class="node">
<title>Node22</title>
<g id="a_node22"><a xlink:href="../../d2/d91/classcocos2d_1_1_c_c_keyboard_delegate.html" target="_top" xlink:title=" ">
<polygon fill="white" stroke="#666666" points="1126,-350.09 1006,-350.09 1006,-331.09 1126,-331.09 1126,-350.09"/>
<text text-anchor="middle" x="1066" y="-338.09" font-family="Helvetica,sans-Serif" font-size="10.00">CCKeyboardDelegate</text>
</a>
</g>
</g>
<!-- Node22&#45;&gt;Node3 -->
<g id="edge37" class="edge">
<title>Node22&#45;&gt;Node3</title>
<path fill="none" stroke="#63b8ff" d="M1136.37,-345.07C1195,-348.86 1275.95,-354.09 1317.86,-356.8"/>
<polygon fill="#63b8ff" stroke="#63b8ff" points="1136.27,-341.56 1126.06,-344.41 1135.82,-348.54 1136.27,-341.56"/>
</g>
<!-- Node23 -->
<g id="node23" class="node">
<title>Node23</title>
<g id="a_node23"><a xlink:href="../../d6/d2a/classcocos2d_1_1extension_1_1_c_c_scroll_view_delegate.html" target="_top" xlink:title="NA NA.">
<polygon fill="white" stroke="#666666" points="1409,-92.09 1284,-92.09 1284,-73.09 1409,-73.09 1409,-92.09"/>
<text text-anchor="middle" x="1346.5" y="-80.09" font-family="Helvetica,sans-Serif" font-size="10.00">CCScrollViewDelegate</text>
</a>
</g>
</g>
<!-- Node23&#45;&gt;Node1 -->
<g id="edge46" class="edge">
<title>Node23&#45;&gt;Node1</title>
<path fill="none" stroke="#63b8ff" d="M1419.24,-88.23C1525.34,-96.59 1720.53,-111.95 1803.75,-118.5"/>
<polygon fill="#63b8ff" stroke="#63b8ff" points="1419.5,-84.74 1409.25,-87.45 1418.95,-91.72 1419.5,-84.74"/>
</g>
<!-- Node23&#45;&gt;Node2 -->
<g id="edge38" class="edge">
<title>Node23&#45;&gt;Node2</title>
<path fill="none" stroke="#9a32cd" stroke-dasharray="5,2" d="M1414.84,-94.04C1447.19,-100.34 1481.93,-108.49 1496,-116.59 1532.35,-137.51 1562.42,-178.98 1574.85,-197.84"/>
<polygon fill="#9a32cd" stroke="#9a32cd" points="1415.39,-90.59 1404.91,-92.15 1414.08,-97.46 1415.39,-90.59"/>
<text text-anchor="middle" x="1461.5" y="-119.59" font-family="Helvetica,sans-Serif" font-size="10.00"> m_pDelegate</text>
</g>
<!-- Node29 -->
<g id="node29" class="node">
<title>Node29</title>
<g id="a_node29"><a xlink:href="../../df/d91/classcocos2d_1_1extension_1_1_c_c_table_view_delegate.html" target="_top" xlink:title="Sole purpose of this delegate is to single touch event in this version.">
<polygon fill="white" stroke="#666666" points="1644,-58.09 1520,-58.09 1520,-39.09 1644,-39.09 1644,-58.09"/>
<text text-anchor="middle" x="1582" y="-46.09" font-family="Helvetica,sans-Serif" font-size="10.00">CCTableViewDelegate</text>
</a>
</g>
</g>
<!-- Node23&#45;&gt;Node29 -->
<g id="edge54" class="edge">
<title>Node23&#45;&gt;Node29</title>
<path fill="none" stroke="#63b8ff" d="M1409.52,-71.39C1415.42,-70.41 1421.32,-69.46 1427,-68.59 1457.52,-63.92 1491.54,-59.43 1519.83,-55.89"/>
<polygon fill="#63b8ff" stroke="#63b8ff" points="1408.89,-67.94 1399.62,-73.06 1410.06,-74.85 1408.89,-67.94"/>
</g>
<!-- Node24&#45;&gt;Node2 -->
<g id="edge43" class="edge">
<title>Node24&#45;&gt;Node2</title>
<path fill="none" stroke="#9a32cd" stroke-dasharray="5,2" d="M789.27,-213.5C835.87,-217.18 920.52,-223.32 993,-225.59 1199.46,-232.06 1446.7,-217.07 1541.43,-210.49"/>
<polygon fill="#9a32cd" stroke="#9a32cd" points="789.34,-209.99 779.09,-212.68 788.78,-216.97 789.34,-209.99"/>
<text text-anchor="middle" x="1211.5" y="-229.59" font-family="Helvetica,sans-Serif" font-size="10.00"> m_tParentScissorRect</text>
</g>
<!-- Node25&#45;&gt;Node1 -->
<g id="edge47" class="edge">
<title>Node25&#45;&gt;Node1</title>
<path fill="none" stroke="#9a32cd" stroke-dasharray="5,2" d="M1389.74,-852.69C1477.35,-874.94 1679.55,-910.89 1786,-804.59 1835.94,-754.72 1842.27,-210.67 1842.93,-131.24"/>
<polygon fill="#9a32cd" stroke="#9a32cd" points="1390.44,-849.26 1379.88,-850.13 1388.67,-856.03 1390.44,-849.26"/>
<text text-anchor="middle" x="1582" y="-879.59" font-family="Helvetica,sans-Serif" font-size="10.00"> m_pTouchedCell</text>
</g>
<!-- Node26 -->
<g id="node26" class="node">
<title>Node26</title>
<g id="a_node26"><a xlink:href="../../dc/d67/classcocos2d_1_1extension_1_1_c_c_sortable_object.html" target="_top" xlink:title="NA NA.">
<polygon fill="white" stroke="#666666" points="1117,-850.09 1015,-850.09 1015,-831.09 1117,-831.09 1117,-850.09"/>
<text text-anchor="middle" x="1066" y="-838.09" font-family="Helvetica,sans-Serif" font-size="10.00">CCSortableObject</text>
</a>
</g>
</g>
<!-- Node26&#45;&gt;Node25 -->
<g id="edge49" class="edge">
<title>Node26&#45;&gt;Node25</title>
<path fill="none" stroke="#63b8ff" d="M1127.31,-840.59C1178.18,-840.59 1250.04,-840.59 1297.19,-840.59"/>
<polygon fill="#63b8ff" stroke="#63b8ff" points="1127.11,-837.09 1117.11,-840.59 1127.11,-844.09 1127.11,-837.09"/>
</g>
<!-- Node27&#45;&gt;Node1 -->
<g id="edge50" class="edge">
<title>Node27&#45;&gt;Node1</title>
<path fill="none" stroke="#9a32cd" stroke-dasharray="5,2" d="M939.33,-840.31C955.22,-834.13 974.87,-827.16 993,-822.59 1087.74,-798.7 1112.79,-790.59 1210.5,-790.59 1210.5,-790.59 1210.5,-790.59 1583,-790.59 1731.13,-790.59 1828.37,-213.57 1841.48,-131.3"/>
<polygon fill="#9a32cd" stroke="#9a32cd" points="937.98,-837.08 929.97,-844.03 940.56,-843.59 937.98,-837.08"/>
<text text-anchor="middle" x="1346.5" y="-804.59" font-family="Helvetica,sans-Serif" font-size="10.00"> m_pCellsFreed</text>
<text text-anchor="middle" x="1346.5" y="-793.59" font-family="Helvetica,sans-Serif" font-size="10.00">m_pCellsUsed</text>
</g>
<!-- Node28 -->
<g id="node28" class="node">
<title>Node28</title>
<g id="a_node28"><a xlink:href="../../d6/dc1/classcocos2d_1_1extension_1_1_c_c_table_view_data_source.html" target="_top" xlink:title="Data source that governs table backend data.">
<polygon fill="white" stroke="#666666" points="1650,-21.09 1514,-21.09 1514,-2.09 1650,-2.09 1650,-21.09"/>
<text text-anchor="middle" x="1582" y="-9.09" font-family="Helvetica,sans-Serif" font-size="10.00">CCTableViewDataSource</text>
</a>
</g>
</g>
<!-- Node28&#45;&gt;Node1 -->
<g id="edge52" class="edge">
<title>Node28&#45;&gt;Node1</title>
<path fill="none" stroke="#9a32cd" stroke-dasharray="5,2" d="M1649.95,-1.18C1692,1.9 1745.7,-0.78 1786,-25.59 1818.52,-45.61 1834.74,-91.67 1840.49,-111.83"/>
<polygon fill="#9a32cd" stroke="#9a32cd" points="1649.46,2.29 1639.8,-2.05 1650.06,-4.69 1649.46,2.29"/>
<text text-anchor="middle" x="1727" y="-28.59" font-family="Helvetica,sans-Serif" font-size="10.00"> m_pDataSource</text>
</g>
<!-- Node29&#45;&gt;Node1 -->
<g id="edge53" class="edge">
<title>Node29&#45;&gt;Node1</title>
<path fill="none" stroke="#9a32cd" stroke-dasharray="5,2" d="M1654.09,-40.71C1694.56,-39.2 1745.16,-42.48 1786,-61.59 1809.43,-72.55 1828.09,-97.76 1837.11,-111.76"/>
<polygon fill="#9a32cd" stroke="#9a32cd" points="1653.86,-37.22 1644.04,-41.19 1654.19,-44.21 1653.86,-37.22"/>
<text text-anchor="middle" x="1727" y="-64.59" font-family="Helvetica,sans-Serif" font-size="10.00"> m_pTableViewDelegate</text>
</g>
</g>
</svg>
