<?xml version="1.0" encoding="UTF-8" standalone="no"?>
<!DOCTYPE svg PUBLIC "-//W3C//DTD SVG 1.1//EN"
 "http://www.w3.org/Graphics/SVG/1.1/DTD/svg11.dtd">
<!-- Generated by graphviz version 2.43.0 (0)
 -->
<!-- Title: CCGridAction Pages: 1 -->
<svg width="1278pt" height="656pt"
 viewBox="0.00 0.00 1278.00 656.00" xmlns="http://www.w3.org/2000/svg" xmlns:xlink="http://www.w3.org/1999/xlink">
<g id="graph0" class="graph" transform="scale(1 1) rotate(0) translate(4 652)">
<title>CCGridAction</title>
<!-- Node1 -->
<g id="node1" class="node">
<title>Node1</title>
<g id="a_node1"><a xlink:title="Base class for Grid actions.">
<polygon fill="#999999" stroke="#666666" points="665,-315 584,-315 584,-296 665,-296 665,-315"/>
<text text-anchor="middle" x="624.5" y="-303" font-family="Helvetica,sans-Serif" font-size="10.00">CCGridAction</text>
</a>
</g>
</g>
<!-- Node7 -->
<g id="node7" class="node">
<title>Node7</title>
<g id="a_node7"><a xlink:href="../../d7/dce/classcocos2d_1_1_c_c_grid3_d_action.html" target="_top" xlink:title="Base class for CCGrid3D actions.">
<polygon fill="white" stroke="#666666" points="808,-481 713,-481 713,-462 808,-462 808,-481"/>
<text text-anchor="middle" x="760.5" y="-469" font-family="Helvetica,sans-Serif" font-size="10.00">CCGrid3DAction</text>
</a>
</g>
</g>
<!-- Node1&#45;&gt;Node7 -->
<g id="edge6" class="edge">
<title>Node1&#45;&gt;Node7</title>
<path fill="none" stroke="#63b8ff" d="M639.89,-323.33C668.14,-358.32 729.96,-434.91 751.73,-461.87"/>
<polygon fill="#63b8ff" stroke="#63b8ff" points="642.49,-320.97 633.48,-315.39 637.04,-325.37 642.49,-320.97"/>
</g>
<!-- Node18 -->
<g id="node18" class="node">
<title>Node18</title>
<g id="a_node18"><a xlink:href="../../d0/d92/classcocos2d_1_1_c_c_tiled_grid3_d_action.html" target="_top" xlink:title="Base class for CCTiledGrid3D actions.">
<polygon fill="white" stroke="#666666" points="820,-186 701,-186 701,-167 820,-167 820,-186"/>
<text text-anchor="middle" x="760.5" y="-174" font-family="Helvetica,sans-Serif" font-size="10.00">CCTiledGrid3DAction</text>
</a>
</g>
</g>
<!-- Node1&#45;&gt;Node18 -->
<g id="edge17" class="edge">
<title>Node1&#45;&gt;Node18</title>
<path fill="none" stroke="#63b8ff" d="M642.79,-288.85C671.11,-261.59 726.5,-208.27 749.31,-186.31"/>
<polygon fill="#63b8ff" stroke="#63b8ff" points="640.35,-286.35 635.57,-295.8 645.2,-291.39 640.35,-286.35"/>
</g>
<!-- Node2 -->
<g id="node2" class="node">
<title>Node2</title>
<g id="a_node2"><a xlink:href="../../dd/d8d/classcocos2d_1_1_c_c_action_interval.html" target="_top" xlink:title="An interval action is an action that takes place within a certain period of time.">
<polygon fill="white" stroke="#666666" points="548,-315 450,-315 450,-296 548,-296 548,-315"/>
<text text-anchor="middle" x="499" y="-303" font-family="Helvetica,sans-Serif" font-size="10.00">CCActionInterval</text>
</a>
</g>
</g>
<!-- Node2&#45;&gt;Node1 -->
<g id="edge1" class="edge">
<title>Node2&#45;&gt;Node1</title>
<path fill="none" stroke="#63b8ff" d="M558.17,-305.5C566.82,-305.5 575.56,-305.5 583.71,-305.5"/>
<polygon fill="#63b8ff" stroke="#63b8ff" points="558.1,-302 548.1,-305.5 558.1,-309 558.1,-302"/>
</g>
<!-- Node3 -->
<g id="node3" class="node">
<title>Node3</title>
<g id="a_node3"><a xlink:href="../../dd/d89/classcocos2d_1_1_c_c_finite_time_action.html" target="_top" xlink:title="Base class actions that do have a finite time duration.">
<polygon fill="white" stroke="#666666" points="414,-315 301,-315 301,-296 414,-296 414,-315"/>
<text text-anchor="middle" x="357.5" y="-303" font-family="Helvetica,sans-Serif" font-size="10.00">CCFiniteTimeAction</text>
</a>
</g>
</g>
<!-- Node3&#45;&gt;Node2 -->
<g id="edge2" class="edge">
<title>Node3&#45;&gt;Node2</title>
<path fill="none" stroke="#63b8ff" d="M424.14,-305.5C432.81,-305.5 441.56,-305.5 449.86,-305.5"/>
<polygon fill="#63b8ff" stroke="#63b8ff" points="424.03,-302 414.03,-305.5 424.03,-309 424.03,-302"/>
</g>
<!-- Node4 -->
<g id="node4" class="node">
<title>Node4</title>
<g id="a_node4"><a xlink:href="../../d7/d12/classcocos2d_1_1_c_c_action.html" target="_top" xlink:title="Base class for CCAction objects.">
<polygon fill="white" stroke="#666666" points="265,-315 204,-315 204,-296 265,-296 265,-315"/>
<text text-anchor="middle" x="234.5" y="-303" font-family="Helvetica,sans-Serif" font-size="10.00">CCAction</text>
</a>
</g>
</g>
<!-- Node4&#45;&gt;Node3 -->
<g id="edge3" class="edge">
<title>Node4&#45;&gt;Node3</title>
<path fill="none" stroke="#63b8ff" d="M275.11,-305.5C283.31,-305.5 292.09,-305.5 300.74,-305.5"/>
<polygon fill="#63b8ff" stroke="#63b8ff" points="275.1,-302 265.1,-305.5 275.1,-309 275.1,-302"/>
</g>
<!-- Node5 -->
<g id="node5" class="node">
<title>Node5</title>
<g id="a_node5"><a xlink:href="../../d3/dbf/classcocos2d_1_1_c_c_object.html" target="_top" xlink:title="NA.">
<polygon fill="white" stroke="#666666" points="168,-315 106,-315 106,-296 168,-296 168,-315"/>
<text text-anchor="middle" x="137" y="-303" font-family="Helvetica,sans-Serif" font-size="10.00">CCObject</text>
</a>
</g>
</g>
<!-- Node5&#45;&gt;Node4 -->
<g id="edge4" class="edge">
<title>Node5&#45;&gt;Node4</title>
<path fill="none" stroke="#63b8ff" d="M178.38,-305.5C186.91,-305.5 195.76,-305.5 203.81,-305.5"/>
<polygon fill="#63b8ff" stroke="#63b8ff" points="178.22,-302 168.22,-305.5 178.22,-309 178.22,-302"/>
</g>
<!-- Node6 -->
<g id="node6" class="node">
<title>Node6</title>
<g id="a_node6"><a xlink:href="../../d5/d61/classcocos2d_1_1_c_c_copying.html" target="_top" xlink:title="NA NA.">
<polygon fill="white" stroke="#666666" points="70,-315 0,-315 0,-296 70,-296 70,-315"/>
<text text-anchor="middle" x="35" y="-303" font-family="Helvetica,sans-Serif" font-size="10.00">CCCopying</text>
</a>
</g>
</g>
<!-- Node6&#45;&gt;Node5 -->
<g id="edge5" class="edge">
<title>Node6&#45;&gt;Node5</title>
<path fill="none" stroke="#63b8ff" d="M80.39,-305.5C88.95,-305.5 97.72,-305.5 105.7,-305.5"/>
<polygon fill="#63b8ff" stroke="#63b8ff" points="80.13,-302 70.13,-305.5 80.13,-309 80.13,-302"/>
</g>
<!-- Node8 -->
<g id="node8" class="node">
<title>Node8</title>
<g id="a_node8"><a xlink:href="../../dd/d95/classcocos2d_1_1_c_c_flip_x3_d.html" target="_top" xlink:title="CCFlipX3D action.">
<polygon fill="white" stroke="#666666" points="947,-648 879,-648 879,-629 947,-629 947,-648"/>
<text text-anchor="middle" x="913" y="-636" font-family="Helvetica,sans-Serif" font-size="10.00">CCFlipX3D</text>
</a>
</g>
</g>
<!-- Node7&#45;&gt;Node8 -->
<g id="edge7" class="edge">
<title>Node7&#45;&gt;Node8</title>
<path fill="none" stroke="#63b8ff" d="M768.54,-490.56C781.19,-522.19 810.72,-585.48 856,-620.5 862.62,-625.62 870.75,-629.31 878.74,-631.96"/>
<polygon fill="#63b8ff" stroke="#63b8ff" points="771.77,-489.21 764.91,-481.14 765.24,-491.73 771.77,-489.21"/>
</g>
<!-- Node10 -->
<g id="node10" class="node">
<title>Node10</title>
<g id="a_node10"><a xlink:href="../../d3/d6c/classcocos2d_1_1_c_c_lens3_d.html" target="_top" xlink:title="CCLens3D action.">
<polygon fill="white" stroke="#666666" points="946,-611 880,-611 880,-592 946,-592 946,-611"/>
<text text-anchor="middle" x="913" y="-599" font-family="Helvetica,sans-Serif" font-size="10.00">CCLens3D</text>
</a>
</g>
</g>
<!-- Node7&#45;&gt;Node10 -->
<g id="edge9" class="edge">
<title>Node7&#45;&gt;Node10</title>
<path fill="none" stroke="#63b8ff" d="M772.37,-489.94C787.89,-514.7 818.69,-558.49 856,-583.5 863.13,-588.28 871.6,-591.86 879.78,-594.51"/>
<polygon fill="#63b8ff" stroke="#63b8ff" points="775.22,-487.88 767.02,-481.17 769.24,-491.53 775.22,-487.88"/>
</g>
<!-- Node11 -->
<g id="node11" class="node">
<title>Node11</title>
<g id="a_node11"><a xlink:href="../../de/dc7/classcocos2d_1_1_c_c_liquid.html" target="_top" xlink:title="CCLiquid action.">
<polygon fill="white" stroke="#666666" points="942.5,-574 883.5,-574 883.5,-555 942.5,-555 942.5,-574"/>
<text text-anchor="middle" x="913" y="-562" font-family="Helvetica,sans-Serif" font-size="10.00">CCLiquid</text>
</a>
</g>
</g>
<!-- Node7&#45;&gt;Node11 -->
<g id="edge10" class="edge">
<title>Node7&#45;&gt;Node11</title>
<path fill="none" stroke="#63b8ff" d="M778.88,-488.09C796.93,-504.57 826.59,-529.6 856,-545.5 864.49,-550.09 874.29,-553.87 883.3,-556.82"/>
<polygon fill="#63b8ff" stroke="#63b8ff" points="781.16,-485.43 771.45,-481.19 776.4,-490.56 781.16,-485.43"/>
</g>
<!-- Node12 -->
<g id="node12" class="node">
<title>Node12</title>
<g id="a_node12"><a xlink:href="../../d6/d7e/classcocos2d_1_1_c_c_page_turn3_d.html" target="_top" xlink:title="This action simulates a page turn from the bottom right hand corner of the screen.">
<polygon fill="white" stroke="#666666" points="956.5,-537 869.5,-537 869.5,-518 956.5,-518 956.5,-537"/>
<text text-anchor="middle" x="913" y="-525" font-family="Helvetica,sans-Serif" font-size="10.00">CCPageTurn3D</text>
</a>
</g>
</g>
<!-- Node7&#45;&gt;Node12 -->
<g id="edge11" class="edge">
<title>Node7&#45;&gt;Node12</title>
<path fill="none" stroke="#63b8ff" d="M794.58,-484.88C812.65,-492.09 835.47,-501 856,-508.5 864.78,-511.7 874.39,-515.03 883.13,-517.99"/>
<polygon fill="#63b8ff" stroke="#63b8ff" points="795.66,-481.55 785.08,-481.08 793.06,-488.04 795.66,-481.55"/>
</g>
<!-- Node13 -->
<g id="node13" class="node">
<title>Node13</title>
<g id="a_node13"><a xlink:href="../../d3/dea/classcocos2d_1_1_c_c_ripple3_d.html" target="_top" xlink:title="CCRipple3D action.">
<polygon fill="white" stroke="#666666" points="950,-500 876,-500 876,-481 950,-481 950,-500"/>
<text text-anchor="middle" x="913" y="-488" font-family="Helvetica,sans-Serif" font-size="10.00">CCRipple3D</text>
</a>
</g>
</g>
<!-- Node7&#45;&gt;Node13 -->
<g id="edge12" class="edge">
<title>Node7&#45;&gt;Node13</title>
<path fill="none" stroke="#63b8ff" d="M818.46,-478.69C837.68,-481.12 858.59,-483.76 875.75,-485.92"/>
<polygon fill="#63b8ff" stroke="#63b8ff" points="818.65,-475.19 808.29,-477.41 817.78,-482.13 818.65,-475.19"/>
</g>
<!-- Node14 -->
<g id="node14" class="node">
<title>Node14</title>
<g id="a_node14"><a xlink:href="../../db/d09/classcocos2d_1_1_c_c_shaky3_d.html" target="_top" xlink:title="CCShaky3D action.">
<polygon fill="white" stroke="#666666" points="949.5,-463 876.5,-463 876.5,-444 949.5,-444 949.5,-463"/>
<text text-anchor="middle" x="913" y="-451" font-family="Helvetica,sans-Serif" font-size="10.00">CCShaky3D</text>
</a>
</g>
</g>
<!-- Node7&#45;&gt;Node14 -->
<g id="edge13" class="edge">
<title>Node7&#45;&gt;Node14</title>
<path fill="none" stroke="#63b8ff" d="M818.27,-464.71C837.72,-462.38 858.92,-459.85 876.24,-457.78"/>
<polygon fill="#63b8ff" stroke="#63b8ff" points="817.81,-461.24 808.29,-465.9 818.64,-468.19 817.81,-461.24"/>
</g>
<!-- Node15 -->
<g id="node15" class="node">
<title>Node15</title>
<g id="a_node15"><a xlink:href="../../d9/d15/classcocos2d_1_1_c_c_twirl.html" target="_top" xlink:title="CCTwirl action.">
<polygon fill="white" stroke="#666666" points="939.5,-426 886.5,-426 886.5,-407 939.5,-407 939.5,-426"/>
<text text-anchor="middle" x="913" y="-414" font-family="Helvetica,sans-Serif" font-size="10.00">CCTwirl</text>
</a>
</g>
</g>
<!-- Node7&#45;&gt;Node15 -->
<g id="edge14" class="edge">
<title>Node7&#45;&gt;Node15</title>
<path fill="none" stroke="#63b8ff" d="M794.17,-458.13C812.28,-450.86 835.27,-441.88 856,-434.5 865.81,-431.01 876.7,-427.44 886.24,-424.41"/>
<polygon fill="#63b8ff" stroke="#63b8ff" points="792.61,-454.98 784.65,-461.97 795.23,-461.48 792.61,-454.98"/>
</g>
<!-- Node16 -->
<g id="node16" class="node">
<title>Node16</title>
<g id="a_node16"><a xlink:href="../../de/d84/classcocos2d_1_1_c_c_waves.html" target="_top" xlink:title="CCWaves action.">
<polygon fill="white" stroke="#666666" points="944,-389 882,-389 882,-370 944,-370 944,-389"/>
<text text-anchor="middle" x="913" y="-377" font-family="Helvetica,sans-Serif" font-size="10.00">CCWaves</text>
</a>
</g>
</g>
<!-- Node7&#45;&gt;Node16 -->
<g id="edge15" class="edge">
<title>Node7&#45;&gt;Node16</title>
<path fill="none" stroke="#63b8ff" d="M778.83,-454.81C796.84,-438.26 826.47,-413.16 856,-397.5 864.03,-393.24 873.24,-389.77 881.85,-387.05"/>
<polygon fill="#63b8ff" stroke="#63b8ff" points="776.32,-452.36 771.42,-461.75 781.11,-457.47 776.32,-452.36"/>
</g>
<!-- Node17 -->
<g id="node17" class="node">
<title>Node17</title>
<g id="a_node17"><a xlink:href="../../df/d51/classcocos2d_1_1_c_c_waves3_d.html" target="_top" xlink:title="CCWaves3D action.">
<polygon fill="white" stroke="#666666" points="951,-352 875,-352 875,-333 951,-333 951,-352"/>
<text text-anchor="middle" x="913" y="-340" font-family="Helvetica,sans-Serif" font-size="10.00">CCWaves3D</text>
</a>
</g>
</g>
<!-- Node7&#45;&gt;Node17 -->
<g id="edge16" class="edge">
<title>Node7&#45;&gt;Node17</title>
<path fill="none" stroke="#63b8ff" d="M772.41,-453.23C787.98,-428.69 818.83,-385.3 856,-360.5 861.69,-356.7 868.24,-353.66 874.81,-351.24"/>
<polygon fill="#63b8ff" stroke="#63b8ff" points="769.32,-451.57 767.04,-461.92 775.28,-455.25 769.32,-451.57"/>
</g>
<!-- Node9 -->
<g id="node9" class="node">
<title>Node9</title>
<g id="a_node9"><a xlink:href="../../df/da3/classcocos2d_1_1_c_c_flip_y3_d.html" target="_top" xlink:title="CCFlipY3D action.">
<polygon fill="white" stroke="#666666" points="1093.5,-648 1025.5,-648 1025.5,-629 1093.5,-629 1093.5,-648"/>
<text text-anchor="middle" x="1059.5" y="-636" font-family="Helvetica,sans-Serif" font-size="10.00">CCFlipY3D</text>
</a>
</g>
</g>
<!-- Node8&#45;&gt;Node9 -->
<g id="edge8" class="edge">
<title>Node8&#45;&gt;Node9</title>
<path fill="none" stroke="#63b8ff" d="M957.41,-638.5C979.08,-638.5 1004.89,-638.5 1025,-638.5"/>
<polygon fill="#63b8ff" stroke="#63b8ff" points="957.15,-635 947.15,-638.5 957.15,-642 957.15,-635"/>
</g>
<!-- Node19 -->
<g id="node19" class="node">
<title>Node19</title>
<g id="a_node19"><a xlink:href="../../da/d0c/classcocos2d_1_1_c_c_fade_out_t_r_tiles.html" target="_top" xlink:title="CCFadeOutTRTiles action Fades out the tiles in a Top&#45;Right direction.">
<polygon fill="white" stroke="#666666" points="965.5,-315 860.5,-315 860.5,-296 965.5,-296 965.5,-315"/>
<text text-anchor="middle" x="913" y="-303" font-family="Helvetica,sans-Serif" font-size="10.00">CCFadeOutTRTiles</text>
</a>
</g>
</g>
<!-- Node18&#45;&gt;Node19 -->
<g id="edge18" class="edge">
<title>Node18&#45;&gt;Node19</title>
<path fill="none" stroke="#63b8ff" d="M772.75,-194.88C788.5,-219.16 819.35,-261.74 856,-286.5 861.61,-290.29 868.06,-293.39 874.53,-295.91"/>
<polygon fill="#63b8ff" stroke="#63b8ff" points="775.6,-192.84 767.29,-186.26 769.68,-196.58 775.6,-192.84"/>
</g>
<!-- Node23 -->
<g id="node23" class="node">
<title>Node23</title>
<g id="a_node23"><a xlink:href="../../da/d0d/classcocos2d_1_1_c_c_jump_tiles3_d.html" target="_top" xlink:title="CCJumpTiles3D action.">
<polygon fill="white" stroke="#666666" points="959,-278 867,-278 867,-259 959,-259 959,-278"/>
<text text-anchor="middle" x="913" y="-266" font-family="Helvetica,sans-Serif" font-size="10.00">CCJumpTiles3D</text>
</a>
</g>
</g>
<!-- Node18&#45;&gt;Node23 -->
<g id="edge22" class="edge">
<title>Node18&#45;&gt;Node23</title>
<path fill="none" stroke="#63b8ff" d="M778.92,-192.85C797.01,-209.09 826.69,-233.78 856,-249.5 862.79,-253.14 870.4,-256.28 877.78,-258.9"/>
<polygon fill="#63b8ff" stroke="#63b8ff" points="781.22,-190.21 771.48,-186.05 776.5,-195.38 781.22,-190.21"/>
</g>
<!-- Node24 -->
<g id="node24" class="node">
<title>Node24</title>
<g id="a_node24"><a xlink:href="../../dd/d21/classcocos2d_1_1_c_c_shaky_tiles3_d.html" target="_top" xlink:title="CCShakyTiles3D action.">
<polygon fill="white" stroke="#666666" points="961,-241 865,-241 865,-222 961,-222 961,-241"/>
<text text-anchor="middle" x="913" y="-229" font-family="Helvetica,sans-Serif" font-size="10.00">CCShakyTiles3D</text>
</a>
</g>
</g>
<!-- Node18&#45;&gt;Node24 -->
<g id="edge23" class="edge">
<title>Node18&#45;&gt;Node24</title>
<path fill="none" stroke="#63b8ff" d="M795.35,-189.74C813.31,-196.68 835.79,-205.22 856,-212.5 864.79,-215.66 874.41,-218.98 883.15,-221.94"/>
<polygon fill="#63b8ff" stroke="#63b8ff" points="796.47,-186.42 785.88,-186.07 793.94,-192.95 796.47,-186.42"/>
</g>
<!-- Node25 -->
<g id="node25" class="node">
<title>Node25</title>
<g id="a_node25"><a xlink:href="../../d5/d4f/classcocos2d_1_1_c_c_shattered_tiles3_d.html" target="_top" xlink:title="CCShatteredTiles3D action.">
<polygon fill="white" stroke="#666666" points="970,-204 856,-204 856,-185 970,-185 970,-204"/>
<text text-anchor="middle" x="913" y="-192" font-family="Helvetica,sans-Serif" font-size="10.00">CCShatteredTiles3D</text>
</a>
</g>
</g>
<!-- Node18&#45;&gt;Node25 -->
<g id="edge24" class="edge">
<title>Node18&#45;&gt;Node25</title>
<path fill="none" stroke="#63b8ff" d="M830.11,-184.71C838.7,-185.73 847.4,-186.77 855.76,-187.77"/>
<polygon fill="#63b8ff" stroke="#63b8ff" points="830.46,-181.22 820.12,-183.51 829.63,-188.17 830.46,-181.22"/>
</g>
<!-- Node26 -->
<g id="node26" class="node">
<title>Node26</title>
<g id="a_node26"><a xlink:href="../../d5/d76/classcocos2d_1_1_c_c_shuffle_tiles.html" target="_top" xlink:title="CCShuffleTiles action Shuffle the tiles in random order.">
<polygon fill="white" stroke="#666666" points="956.5,-167 869.5,-167 869.5,-148 956.5,-148 956.5,-167"/>
<text text-anchor="middle" x="913" y="-155" font-family="Helvetica,sans-Serif" font-size="10.00">CCShuffleTiles</text>
</a>
</g>
</g>
<!-- Node18&#45;&gt;Node26 -->
<g id="edge25" class="edge">
<title>Node18&#45;&gt;Node26</title>
<path fill="none" stroke="#63b8ff" d="M830.19,-167.83C843.46,-166.15 857,-164.44 869.15,-162.91"/>
<polygon fill="#63b8ff" stroke="#63b8ff" points="829.6,-164.37 820.12,-169.1 830.48,-171.32 829.6,-164.37"/>
</g>
<!-- Node27 -->
<g id="node27" class="node">
<title>Node27</title>
<g id="a_node27"><a xlink:href="../../d1/d37/classcocos2d_1_1_c_c_split_cols.html" target="_top" xlink:title="CCSplitCols action.">
<polygon fill="white" stroke="#666666" points="949.5,-130 876.5,-130 876.5,-111 949.5,-111 949.5,-130"/>
<text text-anchor="middle" x="913" y="-118" font-family="Helvetica,sans-Serif" font-size="10.00">CCSplitCols</text>
</a>
</g>
</g>
<!-- Node18&#45;&gt;Node27 -->
<g id="edge26" class="edge">
<title>Node18&#45;&gt;Node27</title>
<path fill="none" stroke="#63b8ff" d="M793.15,-163.12C811.4,-155.56 834.85,-146.14 856,-138.5 864.07,-135.59 872.87,-132.65 881.06,-130.01"/>
<polygon fill="#63b8ff" stroke="#63b8ff" points="791.74,-159.91 783.86,-166.99 794.43,-166.37 791.74,-159.91"/>
</g>
<!-- Node28 -->
<g id="node28" class="node">
<title>Node28</title>
<g id="a_node28"><a xlink:href="../../d4/d47/classcocos2d_1_1_c_c_split_rows.html" target="_top" xlink:title="CCSplitRows action.">
<polygon fill="white" stroke="#666666" points="952,-93 874,-93 874,-74 952,-74 952,-93"/>
<text text-anchor="middle" x="913" y="-81" font-family="Helvetica,sans-Serif" font-size="10.00">CCSplitRows</text>
</a>
</g>
</g>
<!-- Node18&#45;&gt;Node28 -->
<g id="edge27" class="edge">
<title>Node18&#45;&gt;Node28</title>
<path fill="none" stroke="#63b8ff" d="M778.5,-159.84C796.44,-143.06 826.21,-117.43 856,-101.5 862.12,-98.23 868.95,-95.42 875.66,-93.07"/>
<polygon fill="#63b8ff" stroke="#63b8ff" points="775.95,-157.43 771.13,-166.86 780.78,-162.5 775.95,-157.43"/>
</g>
<!-- Node29 -->
<g id="node29" class="node">
<title>Node29</title>
<g id="a_node29"><a xlink:href="../../d2/d9a/classcocos2d_1_1_c_c_turn_off_tiles.html" target="_top" xlink:title="CCTurnOffTiles action.">
<polygon fill="white" stroke="#666666" points="957,-56 869,-56 869,-37 957,-37 957,-56"/>
<text text-anchor="middle" x="913" y="-44" font-family="Helvetica,sans-Serif" font-size="10.00">CCTurnOffTiles</text>
</a>
</g>
</g>
<!-- Node18&#45;&gt;Node29 -->
<g id="edge28" class="edge">
<title>Node18&#45;&gt;Node29</title>
<path fill="none" stroke="#63b8ff" d="M772.37,-158.06C787.89,-133.3 818.69,-89.51 856,-64.5 861,-61.15 866.68,-58.38 872.44,-56.11"/>
<polygon fill="#63b8ff" stroke="#63b8ff" points="769.24,-156.47 767.02,-166.83 775.22,-160.12 769.24,-156.47"/>
</g>
<!-- Node30 -->
<g id="node30" class="node">
<title>Node30</title>
<g id="a_node30"><a xlink:href="../../d4/d4e/classcocos2d_1_1_c_c_waves_tiles3_d.html" target="_top" xlink:title="CCWavesTiles3D action.">
<polygon fill="white" stroke="#666666" points="962.5,-19 863.5,-19 863.5,0 962.5,0 962.5,-19"/>
<text text-anchor="middle" x="913" y="-7" font-family="Helvetica,sans-Serif" font-size="10.00">CCWavesTiles3D</text>
</a>
</g>
</g>
<!-- Node18&#45;&gt;Node30 -->
<g id="edge29" class="edge">
<title>Node18&#45;&gt;Node30</title>
<path fill="none" stroke="#63b8ff" d="M768.54,-157.44C781.19,-125.81 810.72,-62.52 856,-27.5 860.44,-24.06 865.56,-21.27 870.86,-19.01"/>
<polygon fill="#63b8ff" stroke="#63b8ff" points="765.24,-156.27 764.91,-166.86 771.77,-158.79 765.24,-156.27"/>
</g>
<!-- Node20 -->
<g id="node20" class="node">
<title>Node20</title>
<g id="a_node20"><a xlink:href="../../d1/d7b/classcocos2d_1_1_c_c_fade_out_b_l_tiles.html" target="_top" xlink:title="CCFadeOutBLTiles action.">
<polygon fill="white" stroke="#666666" points="1111.5,-334 1007.5,-334 1007.5,-315 1111.5,-315 1111.5,-334"/>
<text text-anchor="middle" x="1059.5" y="-322" font-family="Helvetica,sans-Serif" font-size="10.00">CCFadeOutBLTiles</text>
</a>
</g>
</g>
<!-- Node19&#45;&gt;Node20 -->
<g id="edge19" class="edge">
<title>Node19&#45;&gt;Node20</title>
<path fill="none" stroke="#63b8ff" d="M975.68,-313.61C986.15,-314.99 996.93,-316.4 1007.1,-317.74"/>
<polygon fill="#63b8ff" stroke="#63b8ff" points="976.13,-310.14 965.76,-312.31 975.22,-317.08 976.13,-310.14"/>
</g>
<!-- Node21 -->
<g id="node21" class="node">
<title>Node21</title>
<g id="a_node21"><a xlink:href="../../d1/d71/classcocos2d_1_1_c_c_fade_out_up_tiles.html" target="_top" xlink:title="CCFadeOutUpTiles action.">
<polygon fill="white" stroke="#666666" points="1113,-297 1006,-297 1006,-278 1113,-278 1113,-297"/>
<text text-anchor="middle" x="1059.5" y="-285" font-family="Helvetica,sans-Serif" font-size="10.00">CCFadeOutUpTiles</text>
</a>
</g>
</g>
<!-- Node19&#45;&gt;Node21 -->
<g id="edge20" class="edge">
<title>Node19&#45;&gt;Node21</title>
<path fill="none" stroke="#63b8ff" d="M975.94,-297.78C985.83,-296.55 995.99,-295.29 1005.64,-294.08"/>
<polygon fill="#63b8ff" stroke="#63b8ff" points="975.25,-294.34 965.76,-299.05 976.12,-301.29 975.25,-294.34"/>
</g>
<!-- Node22 -->
<g id="node22" class="node">
<title>Node22</title>
<g id="a_node22"><a xlink:href="../../d6/d08/classcocos2d_1_1_c_c_fade_out_down_tiles.html" target="_top" xlink:title="CCFadeOutDownTiles action.">
<polygon fill="white" stroke="#666666" points="1270,-297 1149,-297 1149,-278 1270,-278 1270,-297"/>
<text text-anchor="middle" x="1209.5" y="-285" font-family="Helvetica,sans-Serif" font-size="10.00">CCFadeOutDownTiles</text>
</a>
</g>
</g>
<!-- Node21&#45;&gt;Node22 -->
<g id="edge21" class="edge">
<title>Node21&#45;&gt;Node22</title>
<path fill="none" stroke="#63b8ff" d="M1123.27,-287.5C1131.72,-287.5 1140.37,-287.5 1148.76,-287.5"/>
<polygon fill="#63b8ff" stroke="#63b8ff" points="1123.1,-284 1113.1,-287.5 1123.1,-291 1123.1,-284"/>
</g>
</g>
</svg>
