<?xml version="1.0" encoding="UTF-8" standalone="no"?>
<!DOCTYPE svg PUBLIC "-//W3C//DTD SVG 1.1//EN"
 "http://www.w3.org/Graphics/SVG/1.1/DTD/svg11.dtd">
<!-- Generated by graphviz version 2.43.0 (0)
 -->
<!-- Title: CCTextureAtlas Pages: 1 -->
<svg width="459pt" height="319pt"
 viewBox="0.00 0.00 459.32 319.00" xmlns="http://www.w3.org/2000/svg" xmlns:xlink="http://www.w3.org/1999/xlink">
<g id="graph0" class="graph" transform="scale(1 1) rotate(0) translate(4 315)">
<title>CCTextureAtlas</title>
<!-- Node1 -->
<g id="node1" class="node">
<title>Node1</title>
<g id="a_node1"><a xlink:title="A class that implements a Texture Atlas.">
<polygon fill="#bfbfbf" stroke="black" points="93.82,-0.5 93.82,-19.5 184.82,-19.5 184.82,-0.5 93.82,-0.5"/>
<text text-anchor="middle" x="139.32" y="-7.5" font-family="Helvetica,sans-Serif" font-size="10.00">CCTextureAtlas</text>
</a>
</g>
</g>
<!-- Node2 -->
<g id="node2" class="node">
<title>Node2</title>
<g id="a_node2"><a xlink:href="../../d3/dbf/classcocos2d_1_1_c_c_object.html" target="_top" xlink:title="NA.">
<polygon fill="none" stroke="black" points="22.32,-234.5 22.32,-253.5 84.32,-253.5 84.32,-234.5 22.32,-234.5"/>
<text text-anchor="middle" x="53.32" y="-241.5" font-family="Helvetica,sans-Serif" font-size="10.00">CCObject</text>
</a>
</g>
</g>
<!-- Node2&#45;&gt;Node1 -->
<g id="edge1" class="edge">
<title>Node2&#45;&gt;Node1</title>
<path fill="none" stroke="midnightblue" d="M33.42,-227.7C21.95,-217.56 8.59,-203.18 2.32,-187 -8.43,-159.23 23.53,-107.52 25.32,-105 52.98,-66.12 100.63,-34.11 124.62,-19.52"/>
<polygon fill="midnightblue" stroke="midnightblue" points="31.4,-230.57 41.31,-234.29 35.88,-225.2 31.4,-230.57"/>
</g>
<!-- Node4 -->
<g id="node4" class="node">
<title>Node4</title>
<g id="a_node4"><a xlink:href="../../d7/dfd/classcocos2d_1_1_c_c_texture2_d.html" target="_top" xlink:title="CCTexture2D class.">
<polygon fill="none" stroke="black" points="99.32,-67.5 99.32,-86.5 179.32,-86.5 179.32,-67.5 99.32,-67.5"/>
<text text-anchor="middle" x="139.32" y="-74.5" font-family="Helvetica,sans-Serif" font-size="10.00">CCTexture2D</text>
</a>
</g>
</g>
<!-- Node2&#45;&gt;Node4 -->
<g id="edge4" class="edge">
<title>Node2&#45;&gt;Node4</title>
<path fill="none" stroke="midnightblue" d="M94.29,-234.22C135.94,-222.76 197.59,-198.06 221.32,-149 229.84,-131.4 232.79,-120.84 221.32,-105 211.66,-91.64 195.16,-84.78 179.48,-81.3"/>
<polygon fill="midnightblue" stroke="midnightblue" points="93.23,-230.89 84.43,-236.8 94.99,-237.66 93.23,-230.89"/>
</g>
<!-- Node6 -->
<g id="node6" class="node">
<title>Node6</title>
<g id="a_node6"><a xlink:href="../../db/d28/classcocos2d_1_1_c_c_g_l_program.html" target="_top" xlink:title="CCGLProgram Class that implements a glProgram.">
<polygon fill="none" stroke="black" points="11.32,-167.5 11.32,-186.5 95.32,-186.5 95.32,-167.5 11.32,-167.5"/>
<text text-anchor="middle" x="53.32" y="-174.5" font-family="Helvetica,sans-Serif" font-size="10.00">CCGLProgram</text>
</a>
</g>
</g>
<!-- Node2&#45;&gt;Node6 -->
<g id="edge7" class="edge">
<title>Node2&#45;&gt;Node6</title>
<path fill="none" stroke="midnightblue" d="M53.32,-224.04C53.32,-211.67 53.32,-196.12 53.32,-186.63"/>
<polygon fill="midnightblue" stroke="midnightblue" points="49.82,-224.23 53.32,-234.23 56.82,-224.23 49.82,-224.23"/>
</g>
<!-- Node3 -->
<g id="node3" class="node">
<title>Node3</title>
<g id="a_node3"><a xlink:href="../../d5/d61/classcocos2d_1_1_c_c_copying.html" target="_top" xlink:title="NA NA.">
<polygon fill="none" stroke="black" points="18.32,-291.5 18.32,-310.5 88.32,-310.5 88.32,-291.5 18.32,-291.5"/>
<text text-anchor="middle" x="53.32" y="-298.5" font-family="Helvetica,sans-Serif" font-size="10.00">CCCopying</text>
</a>
</g>
</g>
<!-- Node3&#45;&gt;Node2 -->
<g id="edge2" class="edge">
<title>Node3&#45;&gt;Node2</title>
<path fill="none" stroke="midnightblue" d="M53.32,-281.12C53.32,-271.82 53.32,-261.06 53.32,-253.71"/>
<polygon fill="midnightblue" stroke="midnightblue" points="49.82,-281.41 53.32,-291.41 56.82,-281.41 49.82,-281.41"/>
</g>
<!-- Node4&#45;&gt;Node1 -->
<g id="edge3" class="edge">
<title>Node4&#45;&gt;Node1</title>
<path fill="none" stroke="#9a32cd" stroke-dasharray="5,2" d="M139.32,-57.04C139.32,-44.67 139.32,-29.12 139.32,-19.63"/>
<polygon fill="#9a32cd" stroke="#9a32cd" points="135.82,-57.23 139.32,-67.23 142.82,-57.23 135.82,-57.23"/>
<text text-anchor="middle" x="169.82" y="-41" font-family="Helvetica,sans-Serif" font-size="10.00"> m_pTexture</text>
</g>
<!-- Node5 -->
<g id="node5" class="node">
<title>Node5</title>
<g id="a_node5"><a xlink:href="../../d9/d24/classcocos2d_1_1_c_c_size.html" target="_top" xlink:title="NA.">
<polygon fill="none" stroke="black" points="114.32,-167.5 114.32,-186.5 164.32,-186.5 164.32,-167.5 114.32,-167.5"/>
<text text-anchor="middle" x="139.32" y="-174.5" font-family="Helvetica,sans-Serif" font-size="10.00">CCSize</text>
</a>
</g>
</g>
<!-- Node5&#45;&gt;Node4 -->
<g id="edge5" class="edge">
<title>Node5&#45;&gt;Node4</title>
<path fill="none" stroke="#9a32cd" stroke-dasharray="5,2" d="M139.32,-157.22C139.32,-135.95 139.32,-102.22 139.32,-86.54"/>
<polygon fill="#9a32cd" stroke="#9a32cd" points="135.82,-157.3 139.32,-167.3 142.82,-157.3 135.82,-157.3"/>
<text text-anchor="middle" x="179.82" y="-124.5" font-family="Helvetica,sans-Serif" font-size="10.00"> m_tContentSize</text>
</g>
<!-- Node6&#45;&gt;Node4 -->
<g id="edge6" class="edge">
<title>Node6&#45;&gt;Node4</title>
<path fill="none" stroke="#9a32cd" stroke-dasharray="5,2" d="M39.72,-158.74C37.91,-155.65 36.34,-152.34 35.32,-149 29.66,-130.28 23.36,-120.47 35.32,-105 43.28,-94.71 73.45,-87.62 99.26,-83.29"/>
<polygon fill="#9a32cd" stroke="#9a32cd" points="36.98,-160.93 45.52,-167.2 42.75,-156.97 36.98,-160.93"/>
<text text-anchor="middle" x="85.32" y="-124.5" font-family="Helvetica,sans-Serif" font-size="10.00"> m_pShaderProgram</text>
</g>
<!-- Node7 -->
<g id="node7" class="node">
<title>Node7</title>
<g id="a_node7"><a xlink:href="../../dd/d60/structcc_v3_f___c4_b___t2_f___quad.html" target="_top" xlink:title="4 ccVertex3FTex2FColor4B">
<polygon fill="none" stroke="black" points="239.82,-67.5 239.82,-86.5 364.82,-86.5 364.82,-67.5 239.82,-67.5"/>
<text text-anchor="middle" x="302.32" y="-74.5" font-family="Helvetica,sans-Serif" font-size="10.00">ccV3F_C4B_T2F_Quad</text>
</a>
</g>
</g>
<!-- Node7&#45;&gt;Node1 -->
<g id="edge8" class="edge">
<title>Node7&#45;&gt;Node1</title>
<path fill="none" stroke="#9a32cd" stroke-dasharray="5,2" d="M271.24,-63.6C238.87,-50.7 189.04,-30.83 160.8,-19.56"/>
<polygon fill="#9a32cd" stroke="#9a32cd" points="270.09,-66.92 280.68,-67.37 272.69,-60.41 270.09,-66.92"/>
<text text-anchor="middle" x="258.82" y="-41" font-family="Helvetica,sans-Serif" font-size="10.00"> m_pQuads</text>
</g>
<!-- Node8 -->
<g id="node8" class="node">
<title>Node8</title>
<g id="a_node8"><a xlink:href="../../d7/de4/structcc_v3_f___c4_b___t2_f.html" target="_top" xlink:title="a Point with a vertex point, a tex coord point and a color 4B">
<polygon fill="none" stroke="black" points="287.32,-167.5 287.32,-186.5 381.32,-186.5 381.32,-167.5 287.32,-167.5"/>
<text text-anchor="middle" x="334.32" y="-174.5" font-family="Helvetica,sans-Serif" font-size="10.00">ccV3F_C4B_T2F</text>
</a>
</g>
</g>
<!-- Node8&#45;&gt;Node7 -->
<g id="edge9" class="edge">
<title>Node8&#45;&gt;Node7</title>
<path fill="none" stroke="#9a32cd" stroke-dasharray="5,2" d="M328.29,-157.51C321.35,-136.26 310.26,-102.29 305.11,-86.54"/>
<polygon fill="#9a32cd" stroke="#9a32cd" points="325.05,-158.88 331.48,-167.3 331.71,-156.71 325.05,-158.88"/>
<text text-anchor="middle" x="331.82" y="-141" font-family="Helvetica,sans-Serif" font-size="10.00"> bl</text>
<text text-anchor="middle" x="331.82" y="-130" font-family="Helvetica,sans-Serif" font-size="10.00">br</text>
<text text-anchor="middle" x="331.82" y="-119" font-family="Helvetica,sans-Serif" font-size="10.00">tl</text>
<text text-anchor="middle" x="331.82" y="-108" font-family="Helvetica,sans-Serif" font-size="10.00">tr</text>
</g>
<!-- Node9 -->
<g id="node9" class="node">
<title>Node9</title>
<g id="a_node9"><a xlink:href="../../d3/d87/structcc_vertex3_f.html" target="_top" xlink:title="A vertex composed of 2 floats: x, y.">
<polygon fill="none" stroke="black" points="222.82,-234.5 222.82,-253.5 293.82,-253.5 293.82,-234.5 222.82,-234.5"/>
<text text-anchor="middle" x="258.32" y="-241.5" font-family="Helvetica,sans-Serif" font-size="10.00">ccVertex3F</text>
</a>
</g>
</g>
<!-- Node9&#45;&gt;Node8 -->
<g id="edge10" class="edge">
<title>Node9&#45;&gt;Node8</title>
<path fill="none" stroke="#9a32cd" stroke-dasharray="5,2" d="M271.71,-226.12C277.64,-219.18 284.94,-211.3 292.32,-205 300.5,-198.03 310.61,-191.47 318.86,-186.57"/>
<polygon fill="#9a32cd" stroke="#9a32cd" points="268.68,-224.29 265.02,-234.24 274.08,-228.74 268.68,-224.29"/>
<text text-anchor="middle" x="313.82" y="-208" font-family="Helvetica,sans-Serif" font-size="10.00"> vertices</text>
</g>
<!-- Node10 -->
<g id="node10" class="node">
<title>Node10</title>
<g id="a_node10"><a xlink:href="../../d2/dd4/structcc_color4_b.html" target="_top" xlink:title="RGBA color composed of 4 bytes.">
<polygon fill="none" stroke="black" points="311.82,-234.5 311.82,-253.5 376.82,-253.5 376.82,-234.5 311.82,-234.5"/>
<text text-anchor="middle" x="344.32" y="-241.5" font-family="Helvetica,sans-Serif" font-size="10.00">ccColor4B</text>
</a>
</g>
</g>
<!-- Node10&#45;&gt;Node8 -->
<g id="edge11" class="edge">
<title>Node10&#45;&gt;Node8</title>
<path fill="none" stroke="#9a32cd" stroke-dasharray="5,2" d="M341.41,-224.04C339.5,-211.67 337.11,-196.12 335.65,-186.63"/>
<polygon fill="#9a32cd" stroke="#9a32cd" points="337.99,-224.88 342.97,-234.23 344.91,-223.82 337.99,-224.88"/>
<text text-anchor="middle" x="356.82" y="-208" font-family="Helvetica,sans-Serif" font-size="10.00"> colors</text>
</g>
<!-- Node11 -->
<g id="node11" class="node">
<title>Node11</title>
<g id="a_node11"><a xlink:href="../../d0/d46/structcc_tex2_f.html" target="_top" xlink:title="A texcoord composed of 2 floats: u, y.">
<polygon fill="none" stroke="black" points="395.32,-234.5 395.32,-253.5 451.32,-253.5 451.32,-234.5 395.32,-234.5"/>
<text text-anchor="middle" x="423.32" y="-241.5" font-family="Helvetica,sans-Serif" font-size="10.00">ccTex2F</text>
</a>
</g>
</g>
<!-- Node11&#45;&gt;Node8 -->
<g id="edge12" class="edge">
<title>Node11&#45;&gt;Node8</title>
<path fill="none" stroke="#9a32cd" stroke-dasharray="5,2" d="M406.06,-227.83C397.6,-220.64 387.15,-212.1 377.32,-205 368.18,-198.39 357.43,-191.64 348.96,-186.54"/>
<polygon fill="#9a32cd" stroke="#9a32cd" points="403.89,-230.59 413.75,-234.47 408.46,-225.29 403.89,-230.59"/>
<text text-anchor="middle" x="418.82" y="-208" font-family="Helvetica,sans-Serif" font-size="10.00"> texCoords</text>
</g>
</g>
</svg>
