<?xml version="1.0" encoding="UTF-8" standalone="no"?>
<!DOCTYPE svg PUBLIC "-//W3C//DTD SVG 1.1//EN"
 "http://www.w3.org/Graphics/SVG/1.1/DTD/svg11.dtd">
<!-- Generated by graphviz version 2.43.0 (0)
 -->
<!-- Title: XMLUnknown Pages: 1 -->
<svg width="222pt" height="197pt"
 viewBox="0.00 0.00 222.00 197.00" xmlns="http://www.w3.org/2000/svg" xmlns:xlink="http://www.w3.org/1999/xlink">
<g id="graph0" class="graph" transform="scale(1 1) rotate(0) translate(4 193)">
<title>XMLUnknown</title>
<!-- Node1 -->
<g id="node1" class="node">
<title>Node1</title>
<g id="a_node1"><a xlink:title="Any tag that tinyXml doesn&#39;t recognize is saved as an unknown.">
<polygon fill="#bfbfbf" stroke="black" points="0,-0.5 0,-19.5 83,-19.5 83,-0.5 0,-0.5"/>
<text text-anchor="middle" x="41.5" y="-7.5" font-family="Helvetica,sans-Serif" font-size="10.00">XMLUnknown</text>
</a>
</g>
</g>
<!-- Node2 -->
<g id="node2" class="node">
<title>Node2</title>
<g id="a_node2"><a xlink:href="../../de/d13/classtinyxml2_1_1_x_m_l_node.html" target="_top" xlink:title="XMLNode is a base class for every object that is in the XML Document Object Model (DOM),...">
<polygon fill="none" stroke="black" points="81,-85 81,-104 144,-104 144,-85 81,-85"/>
<text text-anchor="middle" x="112.5" y="-92" font-family="Helvetica,sans-Serif" font-size="10.00">XMLNode</text>
</a>
</g>
</g>
<!-- Node2&#45;&gt;Node1 -->
<g id="edge1" class="edge">
<title>Node2&#45;&gt;Node1</title>
<path fill="none" stroke="midnightblue" d="M98.6,-77.35C83.71,-60.04 60.63,-33.23 48.9,-19.6"/>
<polygon fill="midnightblue" stroke="midnightblue" points="95.99,-79.69 105.17,-84.98 101.3,-75.12 95.99,-79.69"/>
</g>
<!-- Node2&#45;&gt;Node2 -->
<g id="edge4" class="edge">
<title>Node2&#45;&gt;Node2</title>
<path fill="none" stroke="#9a32cd" stroke-dasharray="5,2" d="M154.3,-102.42C158.98,-100.92 162,-98.28 162,-94.5 162,-88.45 154.26,-85.32 144.4,-85.13"/>
<polygon fill="#9a32cd" stroke="#9a32cd" points="153.79,-98.95 144.4,-103.87 154.8,-105.88 153.79,-98.95"/>
<text text-anchor="middle" x="188" y="-114" font-family="Helvetica,sans-Serif" font-size="10.00"> _firstChild</text>
<text text-anchor="middle" x="188" y="-103" font-family="Helvetica,sans-Serif" font-size="10.00">_lastChild</text>
<text text-anchor="middle" x="188" y="-92" font-family="Helvetica,sans-Serif" font-size="10.00">_next</text>
<text text-anchor="middle" x="188" y="-81" font-family="Helvetica,sans-Serif" font-size="10.00">_parent</text>
<text text-anchor="middle" x="188" y="-70" font-family="Helvetica,sans-Serif" font-size="10.00">_prev</text>
</g>
<!-- Node3 -->
<g id="node3" class="node">
<title>Node3</title>
<g id="a_node3"><a xlink:href="../../dc/d59/classtinyxml2_1_1_x_m_l_document.html" target="_top" xlink:title="A Document binds together all the functionality.">
<polygon fill="none" stroke="black" points="101.5,-0.5 101.5,-19.5 189.5,-19.5 189.5,-0.5 101.5,-0.5"/>
<text text-anchor="middle" x="145.5" y="-7.5" font-family="Helvetica,sans-Serif" font-size="10.00">XMLDocument</text>
</a>
</g>
</g>
<!-- Node2&#45;&gt;Node3 -->
<g id="edge3" class="edge">
<title>Node2&#45;&gt;Node3</title>
<path fill="none" stroke="midnightblue" d="M115.9,-75.11C118.32,-64.05 122.12,-49.86 127.5,-38 130.48,-31.43 134.98,-24.68 138.73,-19.57"/>
<polygon fill="midnightblue" stroke="midnightblue" points="112.47,-74.44 113.92,-84.93 119.33,-75.82 112.47,-74.44"/>
</g>
<!-- Node3&#45;&gt;Node2 -->
<g id="edge2" class="edge">
<title>Node3&#45;&gt;Node2</title>
<path fill="none" stroke="#9a32cd" stroke-dasharray="5,2" d="M138.23,-29.18C131.29,-46.52 121.14,-71.89 115.91,-84.98"/>
<polygon fill="#9a32cd" stroke="#9a32cd" points="141.6,-30.18 142.06,-19.6 135.1,-27.58 141.6,-30.18"/>
<text text-anchor="middle" x="163.5" y="-41" font-family="Helvetica,sans-Serif" font-size="10.00"> _document</text>
</g>
<!-- Node4 -->
<g id="node4" class="node">
<title>Node4</title>
<g id="a_node4"><a xlink:href="../../de/dc1/classtinyxml2_1_1_str_pair.html" target="_top" xlink:title=" ">
<polygon fill="none" stroke="black" points="88.5,-169.5 88.5,-188.5 136.5,-188.5 136.5,-169.5 88.5,-169.5"/>
<text text-anchor="middle" x="112.5" y="-176.5" font-family="Helvetica,sans-Serif" font-size="10.00">StrPair</text>
</a>
</g>
</g>
<!-- Node4&#45;&gt;Node2 -->
<g id="edge5" class="edge">
<title>Node4&#45;&gt;Node2</title>
<path fill="none" stroke="#9a32cd" stroke-dasharray="5,2" d="M112.5,-159.43C112.5,-142.13 112.5,-117.11 112.5,-104.1"/>
<polygon fill="#9a32cd" stroke="#9a32cd" points="109,-159.48 112.5,-169.48 116,-159.48 109,-159.48"/>
<text text-anchor="middle" x="130.5" y="-143" font-family="Helvetica,sans-Serif" font-size="10.00"> _value</text>
</g>
</g>
</svg>
