<?xml version="1.0" encoding="UTF-8" standalone="no"?>
<!DOCTYPE svg PUBLIC "-//W3C//DTD SVG 1.1//EN"
 "http://www.w3.org/Graphics/SVG/1.1/DTD/svg11.dtd">
<!-- Generated by graphviz version 2.43.0 (0)
 -->
<!-- Title: /home/runner/work/cocos&#45;headers/cocos&#45;headers/cocos2dx/text_input_node/CCIMEDispatcher.h Pages: 1 -->
<svg width="377pt" height="509pt"
 viewBox="0.00 0.00 376.50 509.00" xmlns="http://www.w3.org/2000/svg" xmlns:xlink="http://www.w3.org/1999/xlink">
<g id="graph0" class="graph" transform="scale(1 1) rotate(0) translate(4 505)">
<title>/home/runner/work/cocos&#45;headers/cocos&#45;headers/cocos2dx/text_input_node/CCIMEDispatcher.h</title>
<!-- Node1 -->
<g id="node1" class="node">
<title>Node1</title>
<g id="a_node1"><a xlink:title=" ">
<polygon fill="#bfbfbf" stroke="black" points="2,-448.5 2,-500.5 149,-500.5 149,-448.5 2,-448.5"/>
<text text-anchor="start" x="10" y="-488.5" font-family="Helvetica,sans-Serif" font-size="10.00">/home/runner/work/cocos</text>
<text text-anchor="start" x="10" y="-477.5" font-family="Helvetica,sans-Serif" font-size="10.00">&#45;headers/cocos&#45;headers</text>
<text text-anchor="start" x="10" y="-466.5" font-family="Helvetica,sans-Serif" font-size="10.00">/cocos2dx/text_input_node</text>
<text text-anchor="middle" x="75.5" y="-455.5" font-family="Helvetica,sans-Serif" font-size="10.00">/CCIMEDispatcher.h</text>
</a>
</g>
</g>
<!-- Node2 -->
<g id="node2" class="node">
<title>Node2</title>
<g id="a_node2"><a xlink:href="../../d4/d6f/_c_c_i_m_e_delegate_8h.html" target="_top" xlink:title=" ">
<polygon fill="none" stroke="black" points="25,-392.5 25,-411.5 126,-411.5 126,-392.5 25,-392.5"/>
<text text-anchor="middle" x="75.5" y="-399.5" font-family="Helvetica,sans-Serif" font-size="10.00">CCIMEDelegate.h</text>
</a>
</g>
</g>
<!-- Node1&#45;&gt;Node2 -->
<g id="edge1" class="edge">
<title>Node1&#45;&gt;Node2</title>
<path fill="none" stroke="midnightblue" d="M75.5,-448.45C75.5,-439.73 75.5,-430.1 75.5,-421.96"/>
<polygon fill="midnightblue" stroke="midnightblue" points="79,-421.7 75.5,-411.7 72,-421.7 79,-421.7"/>
</g>
<!-- Node3 -->
<g id="node3" class="node">
<title>Node3</title>
<g id="a_node3"><a xlink:href="../../d6/d09/_c_c_geometry_8h.html" target="_top" xlink:title=" ">
<polygon fill="none" stroke="black" points="16.5,-336.5 16.5,-355.5 134.5,-355.5 134.5,-336.5 16.5,-336.5"/>
<text text-anchor="middle" x="75.5" y="-343.5" font-family="Helvetica,sans-Serif" font-size="10.00">cocoa/CCGeometry.h</text>
</a>
</g>
</g>
<!-- Node2&#45;&gt;Node3 -->
<g id="edge2" class="edge">
<title>Node2&#45;&gt;Node3</title>
<path fill="none" stroke="midnightblue" d="M75.5,-392.08C75.5,-385.01 75.5,-374.86 75.5,-365.99"/>
<polygon fill="midnightblue" stroke="midnightblue" points="79,-365.75 75.5,-355.75 72,-365.75 79,-365.75"/>
</g>
<!-- Node4 -->
<g id="node4" class="node">
<title>Node4</title>
<g id="a_node4"><a xlink:href="../../d3/d41/_c_c_platform_macros_8h.html" target="_top" xlink:title=" ">
<polygon fill="none" stroke="black" points="0,-112.5 0,-131.5 161,-131.5 161,-112.5 0,-112.5"/>
<text text-anchor="middle" x="80.5" y="-119.5" font-family="Helvetica,sans-Serif" font-size="10.00">platform/CCPlatformMacros.h</text>
</a>
</g>
</g>
<!-- Node3&#45;&gt;Node4 -->
<g id="edge3" class="edge">
<title>Node3&#45;&gt;Node4</title>
<path fill="none" stroke="midnightblue" d="M63.57,-336.41C53.16,-328.25 38.5,-315.02 30.5,-300 14.45,-269.88 11.9,-257.27 19.5,-224 27.1,-190.75 50.62,-158.03 66.13,-139.21"/>
<polygon fill="midnightblue" stroke="midnightblue" points="68.8,-141.48 72.61,-131.59 63.47,-136.94 68.8,-141.48"/>
</g>
<!-- Node8 -->
<g id="node8" class="node">
<title>Node8</title>
<g id="a_node8"><a xlink:href="../../dd/d69/_c_c_object_8h.html" target="_top" xlink:title=" ">
<polygon fill="none" stroke="black" points="40,-280.5 40,-299.5 111,-299.5 111,-280.5 40,-280.5"/>
<text text-anchor="middle" x="75.5" y="-287.5" font-family="Helvetica,sans-Serif" font-size="10.00">CCObject.h</text>
</a>
</g>
</g>
<!-- Node3&#45;&gt;Node8 -->
<g id="edge8" class="edge">
<title>Node3&#45;&gt;Node8</title>
<path fill="none" stroke="midnightblue" d="M75.5,-336.08C75.5,-329.01 75.5,-318.86 75.5,-309.99"/>
<polygon fill="midnightblue" stroke="midnightblue" points="79,-309.75 75.5,-299.75 72,-309.75 79,-309.75"/>
</g>
<!-- Node14 -->
<g id="node14" class="node">
<title>Node14</title>
<g id="a_node14"><a xlink:title=" ">
<polygon fill="none" stroke="#bfbfbf" points="129,-280.5 129,-299.5 180,-299.5 180,-280.5 129,-280.5"/>
<text text-anchor="middle" x="154.5" y="-287.5" font-family="Helvetica,sans-Serif" font-size="10.00">math.h</text>
</a>
</g>
</g>
<!-- Node3&#45;&gt;Node14 -->
<g id="edge17" class="edge">
<title>Node3&#45;&gt;Node14</title>
<path fill="none" stroke="midnightblue" d="M88.19,-336.32C100.4,-327.98 119.08,-315.21 133.5,-305.35"/>
<polygon fill="midnightblue" stroke="midnightblue" points="135.56,-308.19 141.84,-299.65 131.61,-302.41 135.56,-308.19"/>
</g>
<!-- Node5 -->
<g id="node5" class="node">
<title>Node5</title>
<g id="a_node5"><a xlink:href="../../db/d9f/cc_config_8h.html" target="_top" xlink:title="cocos2d (cc) configuration file">
<polygon fill="none" stroke="black" points="198,-56.5 198,-75.5 265,-75.5 265,-56.5 198,-56.5"/>
<text text-anchor="middle" x="231.5" y="-63.5" font-family="Helvetica,sans-Serif" font-size="10.00">ccConfig.h</text>
</a>
</g>
</g>
<!-- Node4&#45;&gt;Node5 -->
<g id="edge4" class="edge">
<title>Node4&#45;&gt;Node5</title>
<path fill="none" stroke="midnightblue" d="M104.43,-112.44C129.72,-103.4 169.8,-89.06 198.18,-78.92"/>
<polygon fill="midnightblue" stroke="midnightblue" points="199.45,-82.18 207.69,-75.52 197.09,-75.59 199.45,-82.18"/>
</g>
<!-- Node6 -->
<g id="node6" class="node">
<title>Node6</title>
<g id="a_node6"><a xlink:href="../../dd/d96/_c_c_platform_config_8h.html" target="_top" xlink:title=" ">
<polygon fill="none" stroke="black" points="56,-0.5 56,-19.5 213,-19.5 213,-0.5 56,-0.5"/>
<text text-anchor="middle" x="134.5" y="-7.5" font-family="Helvetica,sans-Serif" font-size="10.00">platform/CCPlatformConfig.h</text>
</a>
</g>
</g>
<!-- Node4&#45;&gt;Node6 -->
<g id="edge6" class="edge">
<title>Node4&#45;&gt;Node6</title>
<path fill="none" stroke="midnightblue" d="M72.79,-112.16C62.5,-99.23 46.78,-74.69 57.5,-56 66.12,-40.99 81.89,-30.5 96.93,-23.46"/>
<polygon fill="midnightblue" stroke="midnightblue" points="98.32,-26.67 106.13,-19.51 95.56,-20.24 98.32,-26.67"/>
</g>
<!-- Node7 -->
<g id="node7" class="node">
<title>Node7</title>
<g id="a_node7"><a xlink:title=" ">
<polygon fill="none" stroke="#bfbfbf" points="67,-56.5 67,-75.5 180,-75.5 180,-56.5 67,-56.5"/>
<text text-anchor="middle" x="123.5" y="-63.5" font-family="Helvetica,sans-Serif" font-size="10.00">CCPlatformDefine.h</text>
</a>
</g>
</g>
<!-- Node4&#45;&gt;Node7 -->
<g id="edge7" class="edge">
<title>Node4&#45;&gt;Node7</title>
<path fill="none" stroke="midnightblue" d="M87.6,-112.08C93.74,-104.38 102.77,-93.03 110.24,-83.65"/>
<polygon fill="midnightblue" stroke="midnightblue" points="113.04,-85.75 116.53,-75.75 107.56,-81.39 113.04,-85.75"/>
</g>
<!-- Node5&#45;&gt;Node6 -->
<g id="edge5" class="edge">
<title>Node5&#45;&gt;Node6</title>
<path fill="none" stroke="midnightblue" d="M215.92,-56.32C200.5,-47.74 176.69,-34.49 158.79,-24.52"/>
<polygon fill="midnightblue" stroke="midnightblue" points="160.49,-21.46 150.05,-19.65 157.08,-27.58 160.49,-21.46"/>
</g>
<!-- Node9 -->
<g id="node9" class="node">
<title>Node9</title>
<g id="a_node9"><a xlink:href="../../d9/d2d/_c_c_data_visitor_8h.html" target="_top" xlink:title=" ">
<polygon fill="none" stroke="black" points="29,-224.5 29,-243.5 122,-243.5 122,-224.5 29,-224.5"/>
<text text-anchor="middle" x="75.5" y="-231.5" font-family="Helvetica,sans-Serif" font-size="10.00">CCDataVisitor.h</text>
</a>
</g>
</g>
<!-- Node8&#45;&gt;Node9 -->
<g id="edge9" class="edge">
<title>Node8&#45;&gt;Node9</title>
<path fill="none" stroke="midnightblue" d="M75.5,-280.08C75.5,-273.01 75.5,-262.86 75.5,-253.99"/>
<polygon fill="midnightblue" stroke="midnightblue" points="79,-253.75 75.5,-243.75 72,-253.75 79,-253.75"/>
</g>
<!-- Node11 -->
<g id="node11" class="node">
<title>Node11</title>
<g id="a_node11"><a xlink:href="../../d9/dc8/cc_macros_8h.html" target="_top" xlink:title=" ">
<polygon fill="none" stroke="black" points="197,-224.5 197,-243.5 268,-243.5 268,-224.5 197,-224.5"/>
<text text-anchor="middle" x="232.5" y="-231.5" font-family="Helvetica,sans-Serif" font-size="10.00">ccMacros.h</text>
</a>
</g>
</g>
<!-- Node8&#45;&gt;Node11 -->
<g id="edge12" class="edge">
<title>Node8&#45;&gt;Node11</title>
<path fill="none" stroke="midnightblue" d="M100.38,-280.44C126.79,-271.36 168.72,-256.94 198.24,-246.78"/>
<polygon fill="midnightblue" stroke="midnightblue" points="199.42,-250.08 207.74,-243.52 197.14,-243.46 199.42,-250.08"/>
</g>
<!-- Node9&#45;&gt;Node4 -->
<g id="edge10" class="edge">
<title>Node9&#45;&gt;Node4</title>
<path fill="none" stroke="midnightblue" d="M68.49,-224.3C59.42,-211.94 45.45,-188.54 51.5,-168 54.51,-157.76 60.65,-147.66 66.51,-139.63"/>
<polygon fill="midnightblue" stroke="midnightblue" points="69.43,-141.58 72.83,-131.54 63.91,-137.27 69.43,-141.58"/>
</g>
<!-- Node10 -->
<g id="node10" class="node">
<title>Node10</title>
<g id="a_node10"><a xlink:title=" ">
<polygon fill="none" stroke="#bfbfbf" points="60.5,-168.5 60.5,-187.5 104.5,-187.5 104.5,-168.5 60.5,-168.5"/>
<text text-anchor="middle" x="82.5" y="-175.5" font-family="Helvetica,sans-Serif" font-size="10.00">string</text>
</a>
</g>
</g>
<!-- Node9&#45;&gt;Node10 -->
<g id="edge11" class="edge">
<title>Node9&#45;&gt;Node10</title>
<path fill="none" stroke="midnightblue" d="M76.66,-224.08C77.58,-216.93 78.92,-206.64 80.08,-197.69"/>
<polygon fill="midnightblue" stroke="midnightblue" points="83.55,-198.12 81.37,-187.75 76.61,-197.22 83.55,-198.12"/>
</g>
<!-- Node11&#45;&gt;Node5 -->
<g id="edge16" class="edge">
<title>Node11&#45;&gt;Node5</title>
<path fill="none" stroke="midnightblue" d="M239.65,-224.36C246.27,-215.76 255.66,-201.87 259.5,-188 269.58,-151.62 252.77,-108.4 241.14,-84.72"/>
<polygon fill="midnightblue" stroke="midnightblue" points="244.12,-82.85 236.42,-75.57 237.9,-86.06 244.12,-82.85"/>
</g>
<!-- Node12 -->
<g id="node12" class="node">
<title>Node12</title>
<g id="a_node12"><a xlink:href="../../d5/d22/_c_c_common_8h.html" target="_top" xlink:title=" ">
<polygon fill="none" stroke="black" points="122.5,-168.5 122.5,-187.5 250.5,-187.5 250.5,-168.5 122.5,-168.5"/>
<text text-anchor="middle" x="186.5" y="-175.5" font-family="Helvetica,sans-Serif" font-size="10.00">platform/CCCommon.h</text>
</a>
</g>
</g>
<!-- Node11&#45;&gt;Node12 -->
<g id="edge13" class="edge">
<title>Node11&#45;&gt;Node12</title>
<path fill="none" stroke="midnightblue" d="M224.9,-224.08C218.27,-216.3 208.48,-204.8 200.44,-195.37"/>
<polygon fill="midnightblue" stroke="midnightblue" points="203.1,-193.09 193.95,-187.75 197.77,-197.63 203.1,-193.09"/>
</g>
<!-- Node13 -->
<g id="node13" class="node">
<title>Node13</title>
<g id="a_node13"><a xlink:title=" ">
<polygon fill="none" stroke="#bfbfbf" points="306.5,-168.5 306.5,-187.5 368.5,-187.5 368.5,-168.5 306.5,-168.5"/>
<text text-anchor="middle" x="337.5" y="-175.5" font-family="Helvetica,sans-Serif" font-size="10.00">CCStdC.h</text>
</a>
</g>
</g>
<!-- Node11&#45;&gt;Node13 -->
<g id="edge15" class="edge">
<title>Node11&#45;&gt;Node13</title>
<path fill="none" stroke="midnightblue" d="M249.37,-224.32C266.21,-215.66 292.31,-202.24 311.74,-192.25"/>
<polygon fill="midnightblue" stroke="midnightblue" points="313.38,-195.34 320.67,-187.65 310.18,-189.12 313.38,-195.34"/>
</g>
<!-- Node12&#45;&gt;Node4 -->
<g id="edge14" class="edge">
<title>Node12&#45;&gt;Node4</title>
<path fill="none" stroke="midnightblue" d="M169.47,-168.32C152.47,-159.66 126.12,-146.24 106.51,-136.25"/>
<polygon fill="midnightblue" stroke="midnightblue" points="107.99,-133.08 97.49,-131.65 104.81,-139.31 107.99,-133.08"/>
</g>
</g>
</svg>
