<?xml version="1.0" encoding="UTF-8" standalone="no"?>
<!DOCTYPE svg PUBLIC "-//W3C//DTD SVG 1.1//EN"
 "http://www.w3.org/Graphics/SVG/1.1/DTD/svg11.dtd">
<!-- Generated by graphviz version 2.43.0 (0)
 -->
<!-- Title: CCActionEase Pages: 1 -->
<svg width="1001pt" height="434pt"
 viewBox="0.00 0.00 1001.00 434.00" xmlns="http://www.w3.org/2000/svg" xmlns:xlink="http://www.w3.org/1999/xlink">
<g id="graph0" class="graph" transform="scale(1 1) rotate(0) translate(4 430)">
<title>CCActionEase</title>
<!-- Node1 -->
<g id="node1" class="node">
<title>Node1</title>
<g id="a_node1"><a xlink:title="Base class for Easing actions.">
<polygon fill="#999999" stroke="#666666" points="668,-222 584,-222 584,-203 668,-203 668,-222"/>
<text text-anchor="middle" x="626" y="-210" font-family="Helvetica,sans-Serif" font-size="10.00">CCActionEase</text>
</a>
</g>
</g>
<!-- Node7 -->
<g id="node7" class="node">
<title>Node7</title>
<g id="a_node7"><a xlink:href="../../d9/d11/classcocos2d_1_1_c_c_ease_back_in.html" target="_top" xlink:title="CCEaseBackIn action.">
<polygon fill="white" stroke="#666666" points="815.5,-426 729.5,-426 729.5,-407 815.5,-407 815.5,-426"/>
<text text-anchor="middle" x="772.5" y="-414" font-family="Helvetica,sans-Serif" font-size="10.00">CCEaseBackIn</text>
</a>
</g>
</g>
<!-- Node1&#45;&gt;Node7 -->
<g id="edge6" class="edge">
<title>Node1&#45;&gt;Node7</title>
<path fill="none" stroke="#63b8ff" d="M629.47,-232.66C635.26,-270.88 653.26,-354.04 704,-398.5 711.12,-404.73 720.16,-408.84 729.3,-411.54"/>
<polygon fill="#63b8ff" stroke="#63b8ff" points="632.88,-231.76 628.05,-222.33 625.95,-232.71 632.88,-231.76"/>
</g>
<!-- Node8 -->
<g id="node8" class="node">
<title>Node8</title>
<g id="a_node8"><a xlink:href="../../d9/dec/classcocos2d_1_1_c_c_ease_back_in_out.html" target="_top" xlink:title="CCEaseBackInOut action.">
<polygon fill="white" stroke="#666666" points="824.5,-389 720.5,-389 720.5,-370 824.5,-370 824.5,-389"/>
<text text-anchor="middle" x="772.5" y="-377" font-family="Helvetica,sans-Serif" font-size="10.00">CCEaseBackInOut</text>
</a>
</g>
</g>
<!-- Node1&#45;&gt;Node8 -->
<g id="edge7" class="edge">
<title>Node1&#45;&gt;Node8</title>
<path fill="none" stroke="#63b8ff" d="M631.65,-232.18C640.26,-264.24 661.78,-327.55 704,-361.5 708.82,-365.38 714.4,-368.42 720.24,-370.81"/>
<polygon fill="#63b8ff" stroke="#63b8ff" points="634.98,-231.08 629.13,-222.25 628.19,-232.8 634.98,-231.08"/>
</g>
<!-- Node9 -->
<g id="node9" class="node">
<title>Node9</title>
<g id="a_node9"><a xlink:href="../../d3/d4a/classcocos2d_1_1_c_c_ease_back_out.html" target="_top" xlink:title="CCEaseBackOut action.">
<polygon fill="white" stroke="#666666" points="820,-352 725,-352 725,-333 820,-333 820,-352"/>
<text text-anchor="middle" x="772.5" y="-340" font-family="Helvetica,sans-Serif" font-size="10.00">CCEaseBackOut</text>
</a>
</g>
</g>
<!-- Node1&#45;&gt;Node9 -->
<g id="edge8" class="edge">
<title>Node1&#45;&gt;Node9</title>
<path fill="none" stroke="#63b8ff" d="M634.79,-231.18C646.22,-256.27 669.94,-300.46 704,-324.5 710.24,-328.91 717.5,-332.23 724.9,-334.75"/>
<polygon fill="#63b8ff" stroke="#63b8ff" points="637.99,-229.76 630.77,-222 631.58,-232.56 637.99,-229.76"/>
</g>
<!-- Node10 -->
<g id="node10" class="node">
<title>Node10</title>
<g id="a_node10"><a xlink:href="../../dc/d49/classcocos2d_1_1_c_c_ease_bounce.html" target="_top" xlink:title="CCEaseBounce abstract class.">
<polygon fill="white" stroke="#666666" points="817,-315 728,-315 728,-296 817,-296 817,-315"/>
<text text-anchor="middle" x="772.5" y="-303" font-family="Helvetica,sans-Serif" font-size="10.00">CCEaseBounce</text>
</a>
</g>
</g>
<!-- Node1&#45;&gt;Node10 -->
<g id="edge9" class="edge">
<title>Node1&#45;&gt;Node10</title>
<path fill="none" stroke="#63b8ff" d="M640.61,-230.25C654.67,-247.39 678.16,-272.83 704,-287.5 711.28,-291.63 719.54,-294.84 727.72,-297.33"/>
<polygon fill="#63b8ff" stroke="#63b8ff" points="643.12,-227.79 634.15,-222.15 637.65,-232.15 643.12,-227.79"/>
</g>
<!-- Node14 -->
<g id="node14" class="node">
<title>Node14</title>
<g id="a_node14"><a xlink:href="../../d6/d89/classcocos2d_1_1_c_c_ease_elastic.html" target="_top" xlink:title="Ease Elastic abstract class.">
<polygon fill="white" stroke="#666666" points="815.5,-278 729.5,-278 729.5,-259 815.5,-259 815.5,-278"/>
<text text-anchor="middle" x="772.5" y="-266" font-family="Helvetica,sans-Serif" font-size="10.00">CCEaseElastic</text>
</a>
</g>
</g>
<!-- Node1&#45;&gt;Node14 -->
<g id="edge13" class="edge">
<title>Node1&#45;&gt;Node14</title>
<path fill="none" stroke="#63b8ff" d="M652.97,-226.92C667.64,-234.66 686.49,-243.92 704,-250.5 712.4,-253.66 721.59,-256.49 730.4,-258.93"/>
<polygon fill="#63b8ff" stroke="#63b8ff" points="654.46,-223.75 644,-222.11 651.15,-229.92 654.46,-223.75"/>
</g>
<!-- Node18 -->
<g id="node18" class="node">
<title>Node18</title>
<g id="a_node18"><a xlink:href="../../d1/d77/classcocos2d_1_1_c_c_ease_exponential_in.html" target="_top" xlink:title="CCEase Exponential In.">
<polygon fill="white" stroke="#666666" points="832.5,-241 712.5,-241 712.5,-222 832.5,-222 832.5,-241"/>
<text text-anchor="middle" x="772.5" y="-229" font-family="Helvetica,sans-Serif" font-size="10.00">CCEaseExponentialIn</text>
</a>
</g>
</g>
<!-- Node1&#45;&gt;Node18 -->
<g id="edge17" class="edge">
<title>Node1&#45;&gt;Node18</title>
<path fill="none" stroke="#63b8ff" d="M677.98,-219.2C689.08,-220.66 700.92,-222.22 712.31,-223.72"/>
<polygon fill="#63b8ff" stroke="#63b8ff" points="678.39,-215.73 668.02,-217.89 677.48,-222.67 678.39,-215.73"/>
</g>
<!-- Node19 -->
<g id="node19" class="node">
<title>Node19</title>
<g id="a_node19"><a xlink:href="../../d7/d1c/classcocos2d_1_1_c_c_ease_exponential_in_out.html" target="_top" xlink:title="Ease Exponential InOut.">
<polygon fill="white" stroke="#666666" points="841,-204 704,-204 704,-185 841,-185 841,-204"/>
<text text-anchor="middle" x="772.5" y="-192" font-family="Helvetica,sans-Serif" font-size="10.00">CCEaseExponentialInOut</text>
</a>
</g>
</g>
<!-- Node1&#45;&gt;Node19 -->
<g id="edge18" class="edge">
<title>Node1&#45;&gt;Node19</title>
<path fill="none" stroke="#63b8ff" d="M677.99,-206.15C686.37,-205.1 695.16,-204.01 703.86,-202.93"/>
<polygon fill="#63b8ff" stroke="#63b8ff" points="677.51,-202.68 668.02,-207.39 678.38,-209.63 677.51,-202.68"/>
</g>
<!-- Node20 -->
<g id="node20" class="node">
<title>Node20</title>
<g id="a_node20"><a xlink:href="../../db/d83/classcocos2d_1_1_c_c_ease_exponential_out.html" target="_top" xlink:title="Ease Exponential Out.">
<polygon fill="white" stroke="#666666" points="836.5,-167 708.5,-167 708.5,-148 836.5,-148 836.5,-167"/>
<text text-anchor="middle" x="772.5" y="-155" font-family="Helvetica,sans-Serif" font-size="10.00">CCEaseExponentialOut</text>
</a>
</g>
</g>
<!-- Node1&#45;&gt;Node20 -->
<g id="edge19" class="edge">
<title>Node1&#45;&gt;Node20</title>
<path fill="none" stroke="#63b8ff" d="M653.59,-198.2C668.19,-190.74 686.77,-181.87 704,-175.5 712.53,-172.34 721.86,-169.49 730.78,-167.04"/>
<polygon fill="#63b8ff" stroke="#63b8ff" points="651.89,-195.14 644.63,-202.85 655.12,-201.35 651.89,-195.14"/>
</g>
<!-- Node21 -->
<g id="node21" class="node">
<title>Node21</title>
<g id="a_node21"><a xlink:href="../../db/d64/classcocos2d_1_1_c_c_ease_rate_action.html" target="_top" xlink:title="Base class for Easing actions with rate parameters.">
<polygon fill="white" stroke="#666666" points="826,-130 719,-130 719,-111 826,-111 826,-130"/>
<text text-anchor="middle" x="772.5" y="-118" font-family="Helvetica,sans-Serif" font-size="10.00">CCEaseRateAction</text>
</a>
</g>
</g>
<!-- Node1&#45;&gt;Node21 -->
<g id="edge20" class="edge">
<title>Node1&#45;&gt;Node21</title>
<path fill="none" stroke="#63b8ff" d="M640.66,-194.99C654.76,-178.09 678.28,-152.99 704,-138.5 710.02,-135.11 716.71,-132.33 723.47,-130.07"/>
<polygon fill="#63b8ff" stroke="#63b8ff" points="637.76,-193.01 634.18,-202.98 643.2,-197.41 637.76,-193.01"/>
</g>
<!-- Node25 -->
<g id="node25" class="node">
<title>Node25</title>
<g id="a_node25"><a xlink:href="../../da/de0/classcocos2d_1_1_c_c_ease_sine_in.html" target="_top" xlink:title="Ease Sine In.">
<polygon fill="white" stroke="#666666" points="814,-93 731,-93 731,-74 814,-74 814,-93"/>
<text text-anchor="middle" x="772.5" y="-81" font-family="Helvetica,sans-Serif" font-size="10.00">CCEaseSineIn</text>
</a>
</g>
</g>
<!-- Node1&#45;&gt;Node25 -->
<g id="edge24" class="edge">
<title>Node1&#45;&gt;Node25</title>
<path fill="none" stroke="#63b8ff" d="M635.01,-193.61C646.55,-168.69 670.27,-125.2 704,-101.5 711.94,-95.92 721.51,-92.07 730.91,-89.42"/>
<polygon fill="#63b8ff" stroke="#63b8ff" points="631.8,-192.2 630.93,-202.76 638.2,-195.05 631.8,-192.2"/>
</g>
<!-- Node26 -->
<g id="node26" class="node">
<title>Node26</title>
<g id="a_node26"><a xlink:href="../../d6/d70/classcocos2d_1_1_c_c_ease_sine_in_out.html" target="_top" xlink:title="Ease Sine InOut.">
<polygon fill="white" stroke="#666666" points="823,-56 722,-56 722,-37 823,-37 823,-56"/>
<text text-anchor="middle" x="772.5" y="-44" font-family="Helvetica,sans-Serif" font-size="10.00">CCEaseSineInOut</text>
</a>
</g>
</g>
<!-- Node1&#45;&gt;Node26 -->
<g id="edge25" class="edge">
<title>Node1&#45;&gt;Node26</title>
<path fill="none" stroke="#63b8ff" d="M631.69,-192.95C640.35,-161.1 661.95,-98.21 704,-64.5 709.3,-60.25 715.51,-57 721.98,-54.51"/>
<polygon fill="#63b8ff" stroke="#63b8ff" points="628.25,-192.26 629.15,-202.82 635.03,-194 628.25,-192.26"/>
</g>
<!-- Node27 -->
<g id="node27" class="node">
<title>Node27</title>
<g id="a_node27"><a xlink:href="../../d4/d72/classcocos2d_1_1_c_c_ease_sine_out.html" target="_top" xlink:title="Ease Sine Out.">
<polygon fill="white" stroke="#666666" points="818.5,-19 726.5,-19 726.5,0 818.5,0 818.5,-19"/>
<text text-anchor="middle" x="772.5" y="-7" font-family="Helvetica,sans-Serif" font-size="10.00">CCEaseSineOut</text>
</a>
</g>
</g>
<!-- Node1&#45;&gt;Node27 -->
<g id="edge26" class="edge">
<title>Node1&#45;&gt;Node27</title>
<path fill="none" stroke="#63b8ff" d="M629.51,-192.45C635.35,-154.43 653.45,-71.7 704,-27.5 710.3,-21.99 718.11,-18.14 726.15,-15.46"/>
<polygon fill="#63b8ff" stroke="#63b8ff" points="625.99,-192.33 628.07,-202.72 632.92,-193.31 625.99,-192.33"/>
</g>
<!-- Node2 -->
<g id="node2" class="node">
<title>Node2</title>
<g id="a_node2"><a xlink:href="../../dd/d8d/classcocos2d_1_1_c_c_action_interval.html" target="_top" xlink:title="An interval action is an action that takes place within a certain period of time.">
<polygon fill="white" stroke="#666666" points="548,-222 450,-222 450,-203 548,-203 548,-222"/>
<text text-anchor="middle" x="499" y="-210" font-family="Helvetica,sans-Serif" font-size="10.00">CCActionInterval</text>
</a>
</g>
</g>
<!-- Node2&#45;&gt;Node1 -->
<g id="edge1" class="edge">
<title>Node2&#45;&gt;Node1</title>
<path fill="none" stroke="#63b8ff" d="M558.59,-212.5C567.07,-212.5 575.66,-212.5 583.71,-212.5"/>
<polygon fill="#63b8ff" stroke="#63b8ff" points="558.33,-209 548.33,-212.5 558.33,-216 558.33,-209"/>
</g>
<!-- Node3 -->
<g id="node3" class="node">
<title>Node3</title>
<g id="a_node3"><a xlink:href="../../dd/d89/classcocos2d_1_1_c_c_finite_time_action.html" target="_top" xlink:title="Base class actions that do have a finite time duration.">
<polygon fill="white" stroke="#666666" points="414,-222 301,-222 301,-203 414,-203 414,-222"/>
<text text-anchor="middle" x="357.5" y="-210" font-family="Helvetica,sans-Serif" font-size="10.00">CCFiniteTimeAction</text>
</a>
</g>
</g>
<!-- Node3&#45;&gt;Node2 -->
<g id="edge2" class="edge">
<title>Node3&#45;&gt;Node2</title>
<path fill="none" stroke="#63b8ff" d="M424.14,-212.5C432.81,-212.5 441.56,-212.5 449.86,-212.5"/>
<polygon fill="#63b8ff" stroke="#63b8ff" points="424.03,-209 414.03,-212.5 424.03,-216 424.03,-209"/>
</g>
<!-- Node4 -->
<g id="node4" class="node">
<title>Node4</title>
<g id="a_node4"><a xlink:href="../../d7/d12/classcocos2d_1_1_c_c_action.html" target="_top" xlink:title="Base class for CCAction objects.">
<polygon fill="white" stroke="#666666" points="265,-222 204,-222 204,-203 265,-203 265,-222"/>
<text text-anchor="middle" x="234.5" y="-210" font-family="Helvetica,sans-Serif" font-size="10.00">CCAction</text>
</a>
</g>
</g>
<!-- Node4&#45;&gt;Node3 -->
<g id="edge3" class="edge">
<title>Node4&#45;&gt;Node3</title>
<path fill="none" stroke="#63b8ff" d="M275.11,-212.5C283.31,-212.5 292.09,-212.5 300.74,-212.5"/>
<polygon fill="#63b8ff" stroke="#63b8ff" points="275.1,-209 265.1,-212.5 275.1,-216 275.1,-209"/>
</g>
<!-- Node5 -->
<g id="node5" class="node">
<title>Node5</title>
<g id="a_node5"><a xlink:href="../../d3/dbf/classcocos2d_1_1_c_c_object.html" target="_top" xlink:title="NA.">
<polygon fill="white" stroke="#666666" points="168,-222 106,-222 106,-203 168,-203 168,-222"/>
<text text-anchor="middle" x="137" y="-210" font-family="Helvetica,sans-Serif" font-size="10.00">CCObject</text>
</a>
</g>
</g>
<!-- Node5&#45;&gt;Node4 -->
<g id="edge4" class="edge">
<title>Node5&#45;&gt;Node4</title>
<path fill="none" stroke="#63b8ff" d="M178.38,-212.5C186.91,-212.5 195.76,-212.5 203.81,-212.5"/>
<polygon fill="#63b8ff" stroke="#63b8ff" points="178.22,-209 168.22,-212.5 178.22,-216 178.22,-209"/>
</g>
<!-- Node6 -->
<g id="node6" class="node">
<title>Node6</title>
<g id="a_node6"><a xlink:href="../../d5/d61/classcocos2d_1_1_c_c_copying.html" target="_top" xlink:title="NA NA.">
<polygon fill="white" stroke="#666666" points="70,-222 0,-222 0,-203 70,-203 70,-222"/>
<text text-anchor="middle" x="35" y="-210" font-family="Helvetica,sans-Serif" font-size="10.00">CCCopying</text>
</a>
</g>
</g>
<!-- Node6&#45;&gt;Node5 -->
<g id="edge5" class="edge">
<title>Node6&#45;&gt;Node5</title>
<path fill="none" stroke="#63b8ff" d="M80.39,-212.5C88.95,-212.5 97.72,-212.5 105.7,-212.5"/>
<polygon fill="#63b8ff" stroke="#63b8ff" points="80.13,-209 70.13,-212.5 80.13,-216 80.13,-209"/>
</g>
<!-- Node11 -->
<g id="node11" class="node">
<title>Node11</title>
<g id="a_node11"><a xlink:href="../../d8/d2e/classcocos2d_1_1_c_c_ease_bounce_in.html" target="_top" xlink:title="CCEaseBounceIn action.">
<polygon fill="white" stroke="#666666" points="984,-389 886,-389 886,-370 984,-370 984,-389"/>
<text text-anchor="middle" x="935" y="-377" font-family="Helvetica,sans-Serif" font-size="10.00">CCEaseBounceIn</text>
</a>
</g>
</g>
<!-- Node10&#45;&gt;Node11 -->
<g id="edge10" class="edge">
<title>Node10&#45;&gt;Node11</title>
<path fill="none" stroke="#63b8ff" d="M826.7,-317.56C831.69,-319.55 836.54,-321.84 841,-324.5 860.72,-336.23 857.47,-349.46 877,-361.5 882.48,-364.88 888.64,-367.67 894.85,-369.97"/>
<polygon fill="#63b8ff" stroke="#63b8ff" points="827.62,-314.17 817.02,-314.11 825.27,-320.76 827.62,-314.17"/>
</g>
<!-- Node12 -->
<g id="node12" class="node">
<title>Node12</title>
<g id="a_node12"><a xlink:href="../../d7/d76/classcocos2d_1_1_c_c_ease_bounce_in_out.html" target="_top" xlink:title="CCEaseBounceInOut action.">
<polygon fill="white" stroke="#666666" points="993,-352 877,-352 877,-333 993,-333 993,-352"/>
<text text-anchor="middle" x="935" y="-340" font-family="Helvetica,sans-Serif" font-size="10.00">CCEaseBounceInOut</text>
</a>
</g>
</g>
<!-- Node10&#45;&gt;Node12 -->
<g id="edge11" class="edge">
<title>Node10&#45;&gt;Node12</title>
<path fill="none" stroke="#63b8ff" d="M824.64,-317.29C846.55,-322.34 871.81,-328.16 892.53,-332.94"/>
<polygon fill="#63b8ff" stroke="#63b8ff" points="825.36,-313.86 814.83,-315.03 823.79,-320.69 825.36,-313.86"/>
</g>
<!-- Node13 -->
<g id="node13" class="node">
<title>Node13</title>
<g id="a_node13"><a xlink:href="../../d1/d43/classcocos2d_1_1_c_c_ease_bounce_out.html" target="_top" xlink:title="EaseBounceOut action.">
<polygon fill="white" stroke="#666666" points="988.5,-315 881.5,-315 881.5,-296 988.5,-296 988.5,-315"/>
<text text-anchor="middle" x="935" y="-303" font-family="Helvetica,sans-Serif" font-size="10.00">CCEaseBounceOut</text>
</a>
</g>
</g>
<!-- Node10&#45;&gt;Node13 -->
<g id="edge12" class="edge">
<title>Node10&#45;&gt;Node13</title>
<path fill="none" stroke="#63b8ff" d="M827.36,-305.5C844.77,-305.5 864.03,-305.5 881.35,-305.5"/>
<polygon fill="#63b8ff" stroke="#63b8ff" points="827.36,-302 817.36,-305.5 827.36,-309 827.36,-302"/>
</g>
<!-- Node15 -->
<g id="node15" class="node">
<title>Node15</title>
<g id="a_node15"><a xlink:href="../../d9/d6b/classcocos2d_1_1_c_c_ease_elastic_in.html" target="_top" xlink:title="Ease Elastic In action.">
<polygon fill="white" stroke="#666666" points="982.5,-278 887.5,-278 887.5,-259 982.5,-259 982.5,-278"/>
<text text-anchor="middle" x="935" y="-266" font-family="Helvetica,sans-Serif" font-size="10.00">CCEaseElasticIn</text>
</a>
</g>
</g>
<!-- Node14&#45;&gt;Node15 -->
<g id="edge14" class="edge">
<title>Node14&#45;&gt;Node15</title>
<path fill="none" stroke="#63b8ff" d="M825.77,-268.5C845.6,-268.5 868.03,-268.5 887.31,-268.5"/>
<polygon fill="#63b8ff" stroke="#63b8ff" points="825.67,-265 815.67,-268.5 825.67,-272 825.67,-265"/>
</g>
<!-- Node16 -->
<g id="node16" class="node">
<title>Node16</title>
<g id="a_node16"><a xlink:href="../../d4/db6/classcocos2d_1_1_c_c_ease_elastic_in_out.html" target="_top" xlink:title="Ease Elastic InOut action.">
<polygon fill="white" stroke="#666666" points="991,-241 879,-241 879,-222 991,-222 991,-241"/>
<text text-anchor="middle" x="935" y="-229" font-family="Helvetica,sans-Serif" font-size="10.00">CCEaseElasticInOut</text>
</a>
</g>
</g>
<!-- Node14&#45;&gt;Node16 -->
<g id="edge15" class="edge">
<title>Node14&#45;&gt;Node16</title>
<path fill="none" stroke="#63b8ff" d="M824.64,-256.71C846.55,-251.66 871.81,-245.84 892.53,-241.06"/>
<polygon fill="#63b8ff" stroke="#63b8ff" points="823.79,-253.31 814.83,-258.97 825.36,-260.14 823.79,-253.31"/>
</g>
<!-- Node17 -->
<g id="node17" class="node">
<title>Node17</title>
<g id="a_node17"><a xlink:href="../../d0/d9c/classcocos2d_1_1_c_c_ease_elastic_out.html" target="_top" xlink:title="Ease Elastic Out action.">
<polygon fill="white" stroke="#666666" points="986.5,-204 883.5,-204 883.5,-185 986.5,-185 986.5,-204"/>
<text text-anchor="middle" x="935" y="-192" font-family="Helvetica,sans-Serif" font-size="10.00">CCEaseElasticOut</text>
</a>
</g>
</g>
<!-- Node14&#45;&gt;Node17 -->
<g id="edge16" class="edge">
<title>Node14&#45;&gt;Node17</title>
<path fill="none" stroke="#63b8ff" d="M825.44,-257.76C830.87,-255.73 836.16,-253.33 841,-250.5 860.8,-238.9 857.57,-225.7 877,-213.5 883.01,-209.73 889.85,-206.62 896.65,-204.09"/>
<polygon fill="#63b8ff" stroke="#63b8ff" points="823.99,-254.55 815.6,-261.02 826.19,-261.2 823.99,-254.55"/>
</g>
<!-- Node22 -->
<g id="node22" class="node">
<title>Node22</title>
<g id="a_node22"><a xlink:href="../../d5/d13/classcocos2d_1_1_c_c_ease_in.html" target="_top" xlink:title="CCEaseIn action with a rate.">
<polygon fill="white" stroke="#666666" points="966,-167 904,-167 904,-148 966,-148 966,-167"/>
<text text-anchor="middle" x="935" y="-155" font-family="Helvetica,sans-Serif" font-size="10.00">CCEaseIn</text>
</a>
</g>
</g>
<!-- Node21&#45;&gt;Node22 -->
<g id="edge21" class="edge">
<title>Node21&#45;&gt;Node22</title>
<path fill="none" stroke="#63b8ff" d="M824.59,-132.28C850.74,-138.31 881.67,-145.44 903.96,-150.57"/>
<polygon fill="#63b8ff" stroke="#63b8ff" points="825.36,-128.86 814.83,-130.03 823.79,-135.69 825.36,-128.86"/>
</g>
<!-- Node23 -->
<g id="node23" class="node">
<title>Node23</title>
<g id="a_node23"><a xlink:href="../../d9/d10/classcocos2d_1_1_c_c_ease_in_out.html" target="_top" xlink:title="CCEaseInOut action with a rate.">
<polygon fill="white" stroke="#666666" points="975,-130 895,-130 895,-111 975,-111 975,-130"/>
<text text-anchor="middle" x="935" y="-118" font-family="Helvetica,sans-Serif" font-size="10.00">CCEaseInOut</text>
</a>
</g>
</g>
<!-- Node21&#45;&gt;Node23 -->
<g id="edge22" class="edge">
<title>Node21&#45;&gt;Node23</title>
<path fill="none" stroke="#63b8ff" d="M836.22,-120.5C855.97,-120.5 877.2,-120.5 894.82,-120.5"/>
<polygon fill="#63b8ff" stroke="#63b8ff" points="836.05,-117 826.05,-120.5 836.05,-124 836.05,-117"/>
</g>
<!-- Node24 -->
<g id="node24" class="node">
<title>Node24</title>
<g id="a_node24"><a xlink:href="../../d0/ddb/classcocos2d_1_1_c_c_ease_out.html" target="_top" xlink:title="CCEaseOut action with a rate.">
<polygon fill="white" stroke="#666666" points="970.5,-93 899.5,-93 899.5,-74 970.5,-74 970.5,-93"/>
<text text-anchor="middle" x="935" y="-81" font-family="Helvetica,sans-Serif" font-size="10.00">CCEaseOut</text>
</a>
</g>
</g>
<!-- Node21&#45;&gt;Node24 -->
<g id="edge23" class="edge">
<title>Node21&#45;&gt;Node24</title>
<path fill="none" stroke="#63b8ff" d="M824.64,-108.71C849.01,-103.09 877.52,-96.52 899.32,-91.49"/>
<polygon fill="#63b8ff" stroke="#63b8ff" points="823.79,-105.31 814.83,-110.97 825.36,-112.14 823.79,-105.31"/>
</g>
</g>
</svg>
