<?xml version="1.0" encoding="UTF-8" standalone="no"?>
<!DOCTYPE svg PUBLIC "-//W3C//DTD SVG 1.1//EN"
 "http://www.w3.org/Graphics/SVG/1.1/DTD/svg11.dtd">
<!-- Generated by graphviz version 2.43.0 (0)
 -->
<!-- Title: CCSpriteBatchNode Pages: 1 -->
<svg width="1410pt" height="802pt"
 viewBox="0.00 0.00 1410.00 801.82" xmlns="http://www.w3.org/2000/svg" xmlns:xlink="http://www.w3.org/1999/xlink">
<g id="graph0" class="graph" transform="scale(1 1) rotate(0) translate(4 797.82)">
<title>CCSpriteBatchNode</title>
<!-- Node1 -->
<g id="node1" class="node">
<title>Node1</title>
<g id="a_node1"><a xlink:title="CCSpriteBatchNode is like a batch node: if it contains children, it will draw them in 1 single OpenGL...">
<polygon fill="#999999" stroke="#666666" points="1402,-303.82 1290,-303.82 1290,-284.82 1402,-284.82 1402,-303.82"/>
<text text-anchor="middle" x="1346" y="-291.82" font-family="Helvetica,sans-Serif" font-size="10.00">CCSpriteBatchNode</text>
</a>
</g>
</g>
<!-- Node2 -->
<g id="node2" class="node">
<title>Node2</title>
<g id="a_node2"><a xlink:href="../../d0/ded/classcocos2d_1_1_c_c_node.html" target="_top" xlink:title="CCNode is the main element.">
<polygon fill="white" stroke="#666666" points="1161,-303.82 1105,-303.82 1105,-284.82 1161,-284.82 1161,-303.82"/>
<text text-anchor="middle" x="1133" y="-291.82" font-family="Helvetica,sans-Serif" font-size="10.00">CCNode</text>
</a>
</g>
</g>
<!-- Node2&#45;&gt;Node1 -->
<g id="edge1" class="edge">
<title>Node2&#45;&gt;Node1</title>
<path fill="none" stroke="#63b8ff" d="M1171.25,-294.32C1204.15,-294.32 1252.55,-294.32 1289.91,-294.32"/>
<polygon fill="#63b8ff" stroke="#63b8ff" points="1171.15,-290.82 1161.15,-294.32 1171.15,-297.82 1171.15,-290.82"/>
</g>
<!-- Node2&#45;&gt;Node2 -->
<g id="edge23" class="edge">
<title>Node2&#45;&gt;Node2</title>
<path fill="none" stroke="#9a32cd" stroke-dasharray="5,2" d="M1113.74,-313.37C1115.03,-318.2 1121.45,-321.82 1133,-321.82 1151.48,-321.82 1156.83,-312.55 1149.03,-303.9"/>
<polygon fill="#9a32cd" stroke="#9a32cd" points="1117.06,-314.49 1116.97,-303.9 1110.43,-312.24 1117.06,-314.49"/>
<text text-anchor="middle" x="1133" y="-324.82" font-family="Helvetica,sans-Serif" font-size="10.00"> m_pParent</text>
</g>
<!-- Node3 -->
<g id="node3" class="node">
<title>Node3</title>
<g id="a_node3"><a xlink:href="../../d3/dbf/classcocos2d_1_1_c_c_object.html" target="_top" xlink:title="NA.">
<polygon fill="white" stroke="#666666" points="173.5,-303.82 111.5,-303.82 111.5,-284.82 173.5,-284.82 173.5,-303.82"/>
<text text-anchor="middle" x="142.5" y="-291.82" font-family="Helvetica,sans-Serif" font-size="10.00">CCObject</text>
</a>
</g>
</g>
<!-- Node3&#45;&gt;Node2 -->
<g id="edge2" class="edge">
<title>Node3&#45;&gt;Node2</title>
<path fill="none" stroke="#63b8ff" d="M161.88,-277.87C191.46,-253.16 252.48,-209.32 313,-209.32 313,-209.32 313,-209.32 850,-209.32 947.23,-209.32 973.92,-222.13 1062,-263.32 1070.94,-267.5 1071.24,-271.77 1080,-276.32 1087.8,-280.37 1096.71,-283.84 1104.92,-286.61"/>
<polygon fill="#63b8ff" stroke="#63b8ff" points="159.38,-275.4 154.07,-284.57 163.94,-280.71 159.38,-275.4"/>
</g>
<!-- Node3&#45;&gt;Node2 -->
<g id="edge24" class="edge">
<title>Node3&#45;&gt;Node2</title>
<path fill="none" stroke="#9a32cd" stroke-dasharray="5,2" d="M151.58,-275.51C160.05,-258.11 175.07,-232.95 196,-219.32 222.95,-201.76 235.19,-210.08 267,-205.32 561.21,-161.27 636.53,-152.25 934,-149.32 990.89,-148.76 1019.04,-112.02 1062,-149.32 1105.05,-186.69 1043.75,-232.32 1080,-276.32 1086.2,-283.84 1095.71,-288.22 1104.91,-290.78"/>
<polygon fill="#9a32cd" stroke="#9a32cd" points="148.34,-274.16 147.35,-284.71 154.7,-277.08 148.34,-274.16"/>
<text text-anchor="middle" x="559.5" y="-176.32" font-family="Helvetica,sans-Serif" font-size="10.00"> m_pUserObject</text>
</g>
<!-- Node8 -->
<g id="node8" class="node">
<title>Node8</title>
<g id="a_node8"><a xlink:href="../../d2/d51/classcocos2d_1_1_c_c_camera.html" target="_top" xlink:title="A CCCamera is used in every CCNode.">
<polygon fill="white" stroke="#666666" points="463,-106.82 395,-106.82 395,-87.82 463,-87.82 463,-106.82"/>
<text text-anchor="middle" x="429" y="-94.82" font-family="Helvetica,sans-Serif" font-size="10.00">CCCamera</text>
</a>
</g>
</g>
<!-- Node3&#45;&gt;Node8 -->
<g id="edge8" class="edge">
<title>Node3&#45;&gt;Node8</title>
<path fill="none" stroke="#63b8ff" d="M143.34,-274.36C144.23,-238.74 151.65,-164.48 196,-127.32 252.5,-79.98 345.5,-84.68 394.85,-91.43"/>
<polygon fill="#63b8ff" stroke="#63b8ff" points="139.84,-274.43 143.24,-284.47 146.84,-274.5 139.84,-274.43"/>
</g>
<!-- Node9 -->
<g id="node9" class="node">
<title>Node9</title>
<g id="a_node9"><a xlink:href="../../d6/d70/classcocos2d_1_1_c_c_grid_base.html" target="_top" xlink:title="Base class for other.">
<polygon fill="white" stroke="#666666" points="886,-524.82 812,-524.82 812,-505.82 886,-505.82 886,-524.82"/>
<text text-anchor="middle" x="849" y="-512.82" font-family="Helvetica,sans-Serif" font-size="10.00">CCGridBase</text>
</a>
</g>
</g>
<!-- Node3&#45;&gt;Node9 -->
<g id="edge10" class="edge">
<title>Node3&#45;&gt;Node9</title>
<path fill="none" stroke="#63b8ff" d="M183.5,-304.99C187.72,-306.12 191.95,-307.24 196,-308.32 321.75,-341.75 367.97,-315.47 479,-383.32 489.2,-389.55 486.77,-397.13 497,-403.32 510.1,-411.24 750.02,-465.09 764,-471.32 772.78,-475.23 773.65,-478.54 782,-483.32 796.48,-491.6 813.42,-499.79 826.52,-505.81"/>
<polygon fill="#63b8ff" stroke="#63b8ff" points="184.32,-301.59 173.76,-302.39 182.52,-308.35 184.32,-301.59"/>
</g>
<!-- Node10 -->
<g id="node10" class="node">
<title>Node10</title>
<g id="a_node10"><a xlink:href="../../d7/dfd/classcocos2d_1_1_c_c_texture2_d.html" target="_top" xlink:title="CCTexture2D class.">
<polygon fill="white" stroke="#666666" points="599.5,-563.82 519.5,-563.82 519.5,-544.82 599.5,-544.82 599.5,-563.82"/>
<text text-anchor="middle" x="559.5" y="-551.82" font-family="Helvetica,sans-Serif" font-size="10.00">CCTexture2D</text>
</a>
</g>
</g>
<!-- Node3&#45;&gt;Node10 -->
<g id="edge13" class="edge">
<title>Node3&#45;&gt;Node10</title>
<path fill="none" stroke="#63b8ff" d="M148.83,-313.95C161.43,-356.25 197.38,-455.85 267,-501.32 345.38,-552.51 459.65,-557.7 519.16,-556.42"/>
<polygon fill="#63b8ff" stroke="#63b8ff" points="152.18,-312.93 146.06,-304.28 145.45,-314.86 152.18,-312.93"/>
</g>
<!-- Node11 -->
<g id="node11" class="node">
<title>Node11</title>
<g id="a_node11"><a xlink:href="../../db/d28/classcocos2d_1_1_c_c_g_l_program.html" target="_top" xlink:title="CCGLProgram Class that implements a glProgram.">
<polygon fill="white" stroke="#666666" points="356,-601.82 272,-601.82 272,-582.82 356,-582.82 356,-601.82"/>
<text text-anchor="middle" x="314" y="-589.82" font-family="Helvetica,sans-Serif" font-size="10.00">CCGLProgram</text>
</a>
</g>
</g>
<!-- Node3&#45;&gt;Node11 -->
<g id="edge16" class="edge">
<title>Node3&#45;&gt;Node11</title>
<path fill="none" stroke="#63b8ff" d="M144.92,-314.11C149.21,-368.65 163.79,-519.43 196,-555.32 215.14,-576.64 246.46,-585.77 271.89,-589.63"/>
<polygon fill="#63b8ff" stroke="#63b8ff" points="148.4,-313.72 144.16,-304.01 141.42,-314.25 148.4,-313.72"/>
</g>
<!-- Node12 -->
<g id="node12" class="node">
<title>Node12</title>
<g id="a_node12"><a xlink:href="../../d3/d89/classcocos2d_1_1_c_c_grabber.html" target="_top" xlink:title="FBO class that grabs the the contents of the screen NA NA.">
<polygon fill="white" stroke="#666666" points="463.5,-403.82 394.5,-403.82 394.5,-384.82 463.5,-384.82 463.5,-403.82"/>
<text text-anchor="middle" x="429" y="-391.82" font-family="Helvetica,sans-Serif" font-size="10.00">CCGrabber</text>
</a>
</g>
</g>
<!-- Node3&#45;&gt;Node12 -->
<g id="edge19" class="edge">
<title>Node3&#45;&gt;Node12</title>
<path fill="none" stroke="#63b8ff" d="M148.84,-313.57C155.85,-334.76 170.37,-367.86 196,-383.32 257.81,-420.59 346.61,-411.12 394.44,-402.05"/>
<polygon fill="#63b8ff" stroke="#63b8ff" points="152.19,-312.53 145.92,-303.99 145.49,-314.58 152.19,-312.53"/>
</g>
<!-- Node13 -->
<g id="node13" class="node">
<title>Node13</title>
<g id="a_node13"><a xlink:href="../../d9/d2e/classcocos2d_1_1_c_c_array.html" target="_top" xlink:title="NA.">
<polygon fill="white" stroke="#666666" points="587.5,-265.82 531.5,-265.82 531.5,-246.82 587.5,-246.82 587.5,-265.82"/>
<text text-anchor="middle" x="559.5" y="-253.82" font-family="Helvetica,sans-Serif" font-size="10.00">CCArray</text>
</a>
</g>
</g>
<!-- Node3&#45;&gt;Node13 -->
<g id="edge22" class="edge">
<title>Node3&#45;&gt;Node13</title>
<path fill="none" stroke="#63b8ff" d="M183.33,-282.83C187.58,-281.87 191.86,-281 196,-280.32 320.15,-259.85 470.95,-256.71 531.46,-256.32"/>
<polygon fill="#63b8ff" stroke="#63b8ff" points="182.42,-279.45 173.54,-285.23 184.09,-286.25 182.42,-279.45"/>
</g>
<!-- Node14 -->
<g id="node14" class="node">
<title>Node14</title>
<g id="a_node14"><a xlink:href="../../de/dee/classcocos2d_1_1_c_c_scheduler.html" target="_top" xlink:title="Scheduler is responsible for triggering the scheduled callbacks.">
<polygon fill="white" stroke="#666666" points="888,-303.82 810,-303.82 810,-284.82 888,-284.82 888,-303.82"/>
<text text-anchor="middle" x="849" y="-291.82" font-family="Helvetica,sans-Serif" font-size="10.00">CCScheduler</text>
</a>
</g>
</g>
<!-- Node3&#45;&gt;Node14 -->
<g id="edge27" class="edge">
<title>Node3&#45;&gt;Node14</title>
<path fill="none" stroke="#63b8ff" d="M184.05,-294.32C309.2,-294.32 688.23,-294.32 809.94,-294.32"/>
<polygon fill="#63b8ff" stroke="#63b8ff" points="183.77,-290.82 173.77,-294.32 183.77,-297.82 183.77,-290.82"/>
</g>
<!-- Node15 -->
<g id="node15" class="node">
<title>Node15</title>
<g id="a_node15"><a xlink:href="../../d5/dcb/classcocos2d_1_1_c_c_action_manager.html" target="_top" xlink:title="CCActionManager is a singleton that manages all the actions.">
<polygon fill="white" stroke="#666666" points="754,-65.82 650,-65.82 650,-46.82 754,-46.82 754,-65.82"/>
<text text-anchor="middle" x="702" y="-53.82" font-family="Helvetica,sans-Serif" font-size="10.00">CCActionManager</text>
</a>
</g>
</g>
<!-- Node3&#45;&gt;Node15 -->
<g id="edge30" class="edge">
<title>Node3&#45;&gt;Node15</title>
<path fill="none" stroke="#63b8ff" d="M146.01,-274.79C152.21,-229.77 169.64,-120.69 196,-96.32 329.98,27.59 578.54,-23.09 667.92,-46.74"/>
<polygon fill="#63b8ff" stroke="#63b8ff" points="142.53,-274.39 144.68,-284.76 149.47,-275.31 142.53,-274.39"/>
</g>
<!-- Node19 -->
<g id="node19" class="node">
<title>Node19</title>
<g id="a_node19"><a xlink:href="../../df/d3a/classcocos2d_1_1_c_c_texture_atlas.html" target="_top" xlink:title="A class that implements a Texture Atlas.">
<polygon fill="white" stroke="#666666" points="894.5,-688.82 803.5,-688.82 803.5,-669.82 894.5,-669.82 894.5,-688.82"/>
<text text-anchor="middle" x="849" y="-676.82" font-family="Helvetica,sans-Serif" font-size="10.00">CCTextureAtlas</text>
</a>
</g>
</g>
<!-- Node3&#45;&gt;Node19 -->
<g id="edge35" class="edge">
<title>Node3&#45;&gt;Node19</title>
<path fill="none" stroke="#63b8ff" d="M144.64,-314.16C148.34,-372.47 161.87,-541.75 196,-583.32 272.87,-676.94 668.66,-681.36 803.18,-680.1"/>
<polygon fill="#63b8ff" stroke="#63b8ff" points="148.12,-313.82 144.02,-304.05 141.13,-314.25 148.12,-313.82"/>
</g>
<!-- Node4 -->
<g id="node4" class="node">
<title>Node4</title>
<g id="a_node4"><a xlink:href="../../d5/d61/classcocos2d_1_1_c_c_copying.html" target="_top" xlink:title="NA NA.">
<polygon fill="white" stroke="#666666" points="70,-303.82 0,-303.82 0,-284.82 70,-284.82 70,-303.82"/>
<text text-anchor="middle" x="35" y="-291.82" font-family="Helvetica,sans-Serif" font-size="10.00">CCCopying</text>
</a>
</g>
</g>
<!-- Node4&#45;&gt;Node3 -->
<g id="edge3" class="edge">
<title>Node4&#45;&gt;Node3</title>
<path fill="none" stroke="#63b8ff" d="M80.45,-294.32C90.86,-294.32 101.71,-294.32 111.33,-294.32"/>
<polygon fill="#63b8ff" stroke="#63b8ff" points="80.25,-290.82 70.25,-294.32 80.25,-297.82 80.25,-290.82"/>
</g>
<!-- Node5 -->
<g id="node5" class="node">
<title>Node5</title>
<g id="a_node5"><a xlink:href="../../d2/df3/classcocos2d_1_1_c_c_point.html" target="_top" xlink:title="NA.">
<polygon fill="white" stroke="#666666" points="587,-393.82 532,-393.82 532,-374.82 587,-374.82 587,-393.82"/>
<text text-anchor="middle" x="559.5" y="-381.82" font-family="Helvetica,sans-Serif" font-size="10.00">CCPoint</text>
</a>
</g>
</g>
<!-- Node5&#45;&gt;Node2 -->
<g id="edge4" class="edge">
<title>Node5&#45;&gt;Node2</title>
<path fill="none" stroke="#9a32cd" stroke-dasharray="5,2" d="M597.22,-383.79C697.88,-381.97 976.38,-374.2 1062,-343.32 1086,-334.66 1109.35,-315.52 1122.09,-303.89"/>
<polygon fill="#9a32cd" stroke="#9a32cd" points="597.16,-380.29 587.22,-383.97 597.28,-387.29 597.16,-380.29"/>
<text text-anchor="middle" x="849" y="-401.32" font-family="Helvetica,sans-Serif" font-size="10.00"> m_obAnchorPoint</text>
<text text-anchor="middle" x="849" y="-390.32" font-family="Helvetica,sans-Serif" font-size="10.00">m_obAnchorPointInPoints</text>
<text text-anchor="middle" x="849" y="-379.32" font-family="Helvetica,sans-Serif" font-size="10.00">m_obPosition</text>
</g>
<!-- Node5&#45;&gt;Node9 -->
<g id="edge17" class="edge">
<title>Node5&#45;&gt;Node9</title>
<path fill="none" stroke="#9a32cd" stroke-dasharray="5,2" d="M597.17,-387.11C652.43,-391.65 751.93,-401.25 764,-412.32 790.55,-436.65 758.17,-464.32 782,-491.32 789.74,-500.09 800.96,-505.66 811.96,-509.2"/>
<polygon fill="#9a32cd" stroke="#9a32cd" points="597.32,-383.61 587.07,-386.3 596.76,-390.59 597.32,-383.61"/>
<text text-anchor="middle" x="702" y="-415.32" font-family="Helvetica,sans-Serif" font-size="10.00"> m_obStep</text>
</g>
<!-- Node6 -->
<g id="node6" class="node">
<title>Node6</title>
<g id="a_node6"><a xlink:href="../../d9/d24/classcocos2d_1_1_c_c_size.html" target="_top" xlink:title="NA.">
<polygon fill="white" stroke="#666666" points="339,-491.82 289,-491.82 289,-472.82 339,-472.82 339,-491.82"/>
<text text-anchor="middle" x="314" y="-479.82" font-family="Helvetica,sans-Serif" font-size="10.00">CCSize</text>
</a>
</g>
</g>
<!-- Node6&#45;&gt;Node2 -->
<g id="edge5" class="edge">
<title>Node6&#45;&gt;Node2</title>
<path fill="none" stroke="#9a32cd" stroke-dasharray="5,2" d="M348.88,-473.91C385.19,-463.36 442.53,-442.03 479,-405.32 492.45,-391.77 481.46,-377.4 497,-366.32 599.74,-293.05 937.34,-328.9 1062,-309.32 1076.24,-307.08 1091.95,-303.79 1104.87,-300.86"/>
<polygon fill="#9a32cd" stroke="#9a32cd" points="347.92,-470.55 339.23,-476.61 349.8,-477.29 347.92,-470.55"/>
<text text-anchor="middle" x="702" y="-328.32" font-family="Helvetica,sans-Serif" font-size="10.00"> m_obContentSize</text>
</g>
<!-- Node6&#45;&gt;Node9 -->
<g id="edge11" class="edge">
<title>Node6&#45;&gt;Node9</title>
<path fill="none" stroke="#9a32cd" stroke-dasharray="5,2" d="M349.29,-484.44C444.93,-490.36 713.96,-507.02 811.83,-513.08"/>
<polygon fill="#9a32cd" stroke="#9a32cd" points="349.48,-480.95 339.29,-483.82 349.05,-487.93 349.48,-480.95"/>
<text text-anchor="middle" x="559.5" y="-503.32" font-family="Helvetica,sans-Serif" font-size="10.00"> m_sGridSize</text>
</g>
<!-- Node6&#45;&gt;Node10 -->
<g id="edge14" class="edge">
<title>Node6&#45;&gt;Node10</title>
<path fill="none" stroke="#9a32cd" stroke-dasharray="5,2" d="M349.36,-488.58C393.92,-496.84 467.36,-510.94 479,-516.32 488.2,-520.57 488.19,-525.31 497,-530.32 506.97,-535.98 518.53,-540.88 528.92,-544.75"/>
<polygon fill="#9a32cd" stroke="#9a32cd" points="349.71,-485.09 339.25,-486.71 348.44,-491.97 349.71,-485.09"/>
<text text-anchor="middle" x="429" y="-519.32" font-family="Helvetica,sans-Serif" font-size="10.00"> m_tContentSize</text>
</g>
<!-- Node7 -->
<g id="node7" class="node">
<title>Node7</title>
<g id="a_node7"><a xlink:href="../../da/dbf/structcocos2d_1_1_c_c_affine_transform.html" target="_top" xlink:title=" ">
<polygon fill="white" stroke="#666666" points="902.5,-448.82 795.5,-448.82 795.5,-429.82 902.5,-429.82 902.5,-448.82"/>
<text text-anchor="middle" x="849" y="-436.82" font-family="Helvetica,sans-Serif" font-size="10.00">CCAffineTransform</text>
</a>
</g>
</g>
<!-- Node7&#45;&gt;Node2 -->
<g id="edge6" class="edge">
<title>Node7&#45;&gt;Node2</title>
<path fill="none" stroke="#9a32cd" stroke-dasharray="5,2" d="M897.48,-425.88C904.02,-422.96 910.41,-419.46 916,-415.32 926.71,-407.38 922.65,-398.31 934,-391.32 983.2,-360.98 1011.15,-395.8 1062,-368.32 1091.25,-352.51 1115.29,-320.01 1126,-303.86"/>
<polygon fill="#9a32cd" stroke="#9a32cd" points="895.82,-422.77 887.86,-429.76 898.44,-429.26 895.82,-422.77"/>
<text text-anchor="middle" x="998" y="-416.32" font-family="Helvetica,sans-Serif" font-size="10.00"> m_sAdditionalTransform</text>
<text text-anchor="middle" x="998" y="-405.32" font-family="Helvetica,sans-Serif" font-size="10.00">m_sInverse</text>
<text text-anchor="middle" x="998" y="-394.32" font-family="Helvetica,sans-Serif" font-size="10.00">m_sTransform</text>
</g>
<!-- Node8&#45;&gt;Node2 -->
<g id="edge7" class="edge">
<title>Node8&#45;&gt;Node2</title>
<path fill="none" stroke="#9a32cd" stroke-dasharray="5,2" d="M473.03,-95.64C608.37,-90.81 1018.96,-79.57 1062,-119.32 1087.8,-143.14 1058.03,-248.92 1080,-276.32 1086.1,-283.92 1095.59,-288.32 1104.8,-290.87"/>
<polygon fill="#9a32cd" stroke="#9a32cd" points="472.89,-92.15 463.02,-96.01 473.14,-99.14 472.89,-92.15"/>
<text text-anchor="middle" x="702" y="-94.32" font-family="Helvetica,sans-Serif" font-size="10.00"> m_pCamera</text>
</g>
<!-- Node9&#45;&gt;Node2 -->
<g id="edge9" class="edge">
<title>Node9&#45;&gt;Node2</title>
<path fill="none" stroke="#9a32cd" stroke-dasharray="5,2" d="M868.24,-498.74C888.35,-480.78 919.75,-453.84 934,-447.32 986.56,-423.27 1015.21,-458.24 1062,-424.32 1104.54,-393.47 1123.84,-328.66 1129.84,-304.07"/>
<polygon fill="#9a32cd" stroke="#9a32cd" points="865.73,-496.28 860.64,-505.57 870.42,-501.48 865.73,-496.28"/>
<text text-anchor="middle" x="998" y="-450.32" font-family="Helvetica,sans-Serif" font-size="10.00"> m_pGrid</text>
</g>
<!-- Node10&#45;&gt;Node9 -->
<g id="edge12" class="edge">
<title>Node10&#45;&gt;Node9</title>
<path fill="none" stroke="#9a32cd" stroke-dasharray="5,2" d="M609.5,-547.67C666.86,-539.89 760.52,-527.18 811.74,-520.24"/>
<polygon fill="#9a32cd" stroke="#9a32cd" points="609.01,-544.2 599.57,-549.02 609.95,-551.14 609.01,-544.2"/>
<text text-anchor="middle" x="702" y="-545.32" font-family="Helvetica,sans-Serif" font-size="10.00"> m_pTexture</text>
</g>
<!-- Node10&#45;&gt;Node19 -->
<g id="edge36" class="edge">
<title>Node10&#45;&gt;Node19</title>
<path fill="none" stroke="#9a32cd" stroke-dasharray="5,2" d="M609.99,-561.17C652.63,-568.5 714.89,-582.72 764,-608.32 795.16,-624.56 824.92,-654.13 839.2,-669.48"/>
<polygon fill="#9a32cd" stroke="#9a32cd" points="610.3,-557.67 599.86,-559.49 609.15,-564.58 610.3,-557.67"/>
<text text-anchor="middle" x="702" y="-611.32" font-family="Helvetica,sans-Serif" font-size="10.00"> m_pTexture</text>
</g>
<!-- Node11&#45;&gt;Node2 -->
<g id="edge25" class="edge">
<title>Node11&#45;&gt;Node2</title>
<path fill="none" stroke="#9a32cd" stroke-dasharray="5,2" d="M355.03,-604.4C362.91,-606.37 371.17,-608.14 379,-609.32 548.27,-634.72 596.24,-653.32 764,-619.32 904.93,-590.75 963.51,-598.09 1062,-493.32 1115.68,-436.21 1128.53,-335.52 1131.3,-304.02"/>
<polygon fill="#9a32cd" stroke="#9a32cd" points="355.87,-601 345.31,-601.84 354.09,-607.77 355.87,-601"/>
<text text-anchor="middle" x="702" y="-639.32" font-family="Helvetica,sans-Serif" font-size="10.00"> m_pShaderProgram</text>
</g>
<!-- Node11&#45;&gt;Node9 -->
<g id="edge20" class="edge">
<title>Node11&#45;&gt;Node9</title>
<path fill="none" stroke="#9a32cd" stroke-dasharray="5,2" d="M366.41,-595.17C451.18,-598.38 624.74,-598.56 764,-557.32 789.48,-549.77 816.57,-534.81 832.89,-524.93"/>
<polygon fill="#9a32cd" stroke="#9a32cd" points="366.41,-591.67 356.28,-594.76 366.13,-598.66 366.41,-591.67"/>
<text text-anchor="middle" x="559.5" y="-597.32" font-family="Helvetica,sans-Serif" font-size="10.00"> m_pShaderProgram</text>
</g>
<!-- Node11&#45;&gt;Node10 -->
<g id="edge15" class="edge">
<title>Node11&#45;&gt;Node10</title>
<path fill="none" stroke="#9a32cd" stroke-dasharray="5,2" d="M357.06,-580.23C364.34,-578.4 371.86,-576.68 379,-575.32 426.93,-566.2 482.86,-560.41 519.39,-557.27"/>
<polygon fill="#9a32cd" stroke="#9a32cd" points="356.15,-576.85 347.35,-582.76 357.91,-583.62 356.15,-576.85"/>
<text text-anchor="middle" x="429" y="-578.32" font-family="Helvetica,sans-Serif" font-size="10.00"> m_pShaderProgram</text>
</g>
<!-- Node12&#45;&gt;Node9 -->
<g id="edge18" class="edge">
<title>Node12&#45;&gt;Node9</title>
<path fill="none" stroke="#9a32cd" stroke-dasharray="5,2" d="M451.09,-410.14C463.81,-419 480.66,-429.59 497,-436.32 554.39,-459.95 734.23,-494.51 811.8,-508.78"/>
<polygon fill="#9a32cd" stroke="#9a32cd" points="452.8,-407.06 442.63,-404.08 448.72,-412.75 452.8,-407.06"/>
<text text-anchor="middle" x="559.5" y="-472.32" font-family="Helvetica,sans-Serif" font-size="10.00"> m_pGrabber</text>
</g>
<!-- Node13&#45;&gt;Node1 -->
<g id="edge43" class="edge">
<title>Node13&#45;&gt;Node1</title>
<path fill="none" stroke="#9a32cd" stroke-dasharray="5,2" d="M596.12,-269.27C653.73,-290.3 761.24,-329.87 764,-333.32 799.12,-377.1 739.58,-421.57 782,-458.32 829.03,-499.06 1001.91,-474.47 1062,-458.32 1178.81,-426.92 1297.15,-334.24 1333.62,-303.99"/>
<polygon fill="#9a32cd" stroke="#9a32cd" points="597.25,-265.96 586.65,-265.82 594.85,-272.54 597.25,-265.96"/>
<text text-anchor="middle" x="998" y="-481.32" font-family="Helvetica,sans-Serif" font-size="10.00"> m_pobDescendants</text>
</g>
<!-- Node13&#45;&gt;Node2 -->
<g id="edge21" class="edge">
<title>Node13&#45;&gt;Node2</title>
<path fill="none" stroke="#9a32cd" stroke-dasharray="5,2" d="M597.93,-254.61C611.21,-254.09 626.27,-253.58 640,-253.32 762.76,-251 793.91,-252.31 916,-265.32 984.1,-272.57 1063.88,-284.06 1104.78,-290.18"/>
<polygon fill="#9a32cd" stroke="#9a32cd" points="597.57,-251.13 587.72,-255.04 597.86,-258.12 597.57,-251.13"/>
<text text-anchor="middle" x="849" y="-268.32" font-family="Helvetica,sans-Serif" font-size="10.00"> m_pChildren</text>
</g>
<!-- Node13&#45;&gt;Node14 -->
<g id="edge28" class="edge">
<title>Node13&#45;&gt;Node14</title>
<path fill="none" stroke="#9a32cd" stroke-dasharray="5,2" d="M597.81,-256.19C638.85,-256.63 706.61,-259.08 764,-269.32 783.62,-272.82 805.16,-279.28 821.51,-284.76"/>
<polygon fill="#9a32cd" stroke="#9a32cd" points="597.75,-252.69 587.72,-256.12 597.7,-259.69 597.75,-252.69"/>
<text text-anchor="middle" x="702" y="-272.32" font-family="Helvetica,sans-Serif" font-size="10.00"> m_pScriptHandlerEntries</text>
</g>
<!-- Node14&#45;&gt;Node2 -->
<g id="edge26" class="edge">
<title>Node14&#45;&gt;Node2</title>
<path fill="none" stroke="#9a32cd" stroke-dasharray="5,2" d="M898.31,-294.32C957.85,-294.32 1056.99,-294.32 1104.7,-294.32"/>
<polygon fill="#9a32cd" stroke="#9a32cd" points="898.03,-290.82 888.03,-294.32 898.03,-297.82 898.03,-290.82"/>
<text text-anchor="middle" x="998" y="-297.32" font-family="Helvetica,sans-Serif" font-size="10.00"> m_pScheduler</text>
</g>
<!-- Node15&#45;&gt;Node2 -->
<g id="edge29" class="edge">
<title>Node15&#45;&gt;Node2</title>
<path fill="none" stroke="#9a32cd" stroke-dasharray="5,2" d="M764.42,-51.45C855.83,-45.67 1021.3,-41.3 1062,-81.32 1093.03,-111.83 1053.15,-242.07 1080,-276.32 1086.07,-284.06 1095.67,-288.49 1104.98,-291.01"/>
<polygon fill="#9a32cd" stroke="#9a32cd" points="763.94,-47.97 754.19,-52.12 764.4,-54.96 763.94,-47.97"/>
<text text-anchor="middle" x="849" y="-53.32" font-family="Helvetica,sans-Serif" font-size="10.00"> m_pActionManager</text>
</g>
<!-- Node16 -->
<g id="node16" class="node">
<title>Node16</title>
<g id="a_node16"><a xlink:href="../../d1/d65/classcocos2d_1_1_c_c_component_container.html" target="_top" xlink:title="NA NA.">
<polygon fill="white" stroke="#666666" points="916,-180.82 782,-180.82 782,-161.82 916,-161.82 916,-180.82"/>
<text text-anchor="middle" x="849" y="-168.82" font-family="Helvetica,sans-Serif" font-size="10.00">CCComponentContainer</text>
</a>
</g>
</g>
<!-- Node16&#45;&gt;Node2 -->
<g id="edge31" class="edge">
<title>Node16&#45;&gt;Node2</title>
<path fill="none" stroke="#9a32cd" stroke-dasharray="5,2" d="M894.86,-159.7C942.33,-150.34 1016.52,-144.48 1062,-184.32 1093.34,-211.77 1052.67,-244.87 1080,-276.32 1086.33,-283.6 1095.76,-287.94 1104.86,-290.52"/>
<polygon fill="#9a32cd" stroke="#9a32cd" points="893.93,-156.32 884.87,-161.8 895.37,-163.17 893.93,-156.32"/>
<text text-anchor="middle" x="998" y="-187.32" font-family="Helvetica,sans-Serif" font-size="10.00"> m_pComponentContainer</text>
</g>
<!-- Node17 -->
<g id="node17" class="node">
<title>Node17</title>
<g id="a_node17"><a xlink:href="../../db/d1b/classcocos2d_1_1_c_c_texture_protocol.html" target="_top" xlink:title="CCNode objects that uses a CCTexture2D to render the images.">
<polygon fill="white" stroke="#666666" points="1186,-266.82 1080,-266.82 1080,-247.82 1186,-247.82 1186,-266.82"/>
<text text-anchor="middle" x="1133" y="-254.82" font-family="Helvetica,sans-Serif" font-size="10.00">CCTextureProtocol</text>
</a>
</g>
</g>
<!-- Node17&#45;&gt;Node1 -->
<g id="edge32" class="edge">
<title>Node17&#45;&gt;Node1</title>
<path fill="none" stroke="#63b8ff" d="M1196.08,-268.2C1226.02,-273.45 1261.62,-279.7 1290.5,-284.76"/>
<polygon fill="#63b8ff" stroke="#63b8ff" points="1196.61,-264.74 1186.16,-266.46 1195.4,-271.64 1196.61,-264.74"/>
</g>
<!-- Node18 -->
<g id="node18" class="node">
<title>Node18</title>
<g id="a_node18"><a xlink:href="../../d6/d82/classcocos2d_1_1_c_c_blend_protocol.html" target="_top" xlink:title="Specify the blending function according glBlendFunc Please refer to glBlendFunc in OpenGL ES Manual h...">
<polygon fill="white" stroke="#666666" points="898,-19.82 800,-19.82 800,-0.82 898,-0.82 898,-19.82"/>
<text text-anchor="middle" x="849" y="-7.82" font-family="Helvetica,sans-Serif" font-size="10.00">CCBlendProtocol</text>
</a>
</g>
</g>
<!-- Node18&#45;&gt;Node17 -->
<g id="edge33" class="edge">
<title>Node18&#45;&gt;Node17</title>
<path fill="none" stroke="#63b8ff" d="M908.04,-1.43C956.4,2.37 1023.38,-1.36 1062,-42.32 1092.16,-74.3 1052.9,-204.71 1080,-239.32 1082.59,-242.63 1085.83,-245.33 1089.41,-247.54"/>
<polygon fill="#63b8ff" stroke="#63b8ff" points="907.67,2.05 898.03,-2.35 908.3,-4.92 907.67,2.05"/>
</g>
<!-- Node19&#45;&gt;Node1 -->
<g id="edge34" class="edge">
<title>Node19&#45;&gt;Node1</title>
<path fill="none" stroke="#9a32cd" stroke-dasharray="5,2" d="M904.93,-681.05C948.93,-680.59 1011.44,-675.71 1062,-655.32 1171.07,-611.32 1202.4,-589.11 1272,-494.32 1318.6,-430.86 1338.19,-334.54 1343.46,-303.98"/>
<polygon fill="#9a32cd" stroke="#9a32cd" points="904.71,-677.55 894.72,-681.08 904.73,-684.55 904.71,-677.55"/>
<text text-anchor="middle" x="1133" y="-649.32" font-family="Helvetica,sans-Serif" font-size="10.00"> m_pobTextureAtlas</text>
</g>
<!-- Node20 -->
<g id="node20" class="node">
<title>Node20</title>
<g id="a_node20"><a xlink:href="../../dd/d60/structcc_v3_f___c4_b___t2_f___quad.html" target="_top" xlink:title="4 ccVertex3FTex2FColor4B">
<polygon fill="white" stroke="#666666" points="622,-741.82 497,-741.82 497,-722.82 622,-722.82 622,-741.82"/>
<text text-anchor="middle" x="559.5" y="-729.82" font-family="Helvetica,sans-Serif" font-size="10.00">ccV3F_C4B_T2F_Quad</text>
</a>
</g>
</g>
<!-- Node20&#45;&gt;Node19 -->
<g id="edge37" class="edge">
<title>Node20&#45;&gt;Node19</title>
<path fill="none" stroke="#9a32cd" stroke-dasharray="5,2" d="M622.11,-720.96C676.55,-710.92 754.64,-696.53 803.29,-687.56"/>
<polygon fill="#9a32cd" stroke="#9a32cd" points="621.43,-717.53 612.23,-722.78 622.7,-724.41 621.43,-717.53"/>
<text text-anchor="middle" x="702" y="-719.32" font-family="Helvetica,sans-Serif" font-size="10.00"> m_pQuads</text>
</g>
<!-- Node21 -->
<g id="node21" class="node">
<title>Node21</title>
<g id="a_node21"><a xlink:href="../../d7/de4/structcc_v3_f___c4_b___t2_f.html" target="_top" xlink:title="a Point with a vertex point, a tex coord point and a color 4B">
<polygon fill="white" stroke="#666666" points="361,-754.82 267,-754.82 267,-735.82 361,-735.82 361,-754.82"/>
<text text-anchor="middle" x="314" y="-742.82" font-family="Helvetica,sans-Serif" font-size="10.00">ccV3F_C4B_T2F</text>
</a>
</g>
</g>
<!-- Node21&#45;&gt;Node20 -->
<g id="edge38" class="edge">
<title>Node21&#45;&gt;Node20</title>
<path fill="none" stroke="#9a32cd" stroke-dasharray="5,2" d="M371.36,-742.31C408.94,-740.3 458.35,-737.66 496.96,-735.6"/>
<polygon fill="#9a32cd" stroke="#9a32cd" points="370.89,-738.83 361.09,-742.86 371.26,-745.82 370.89,-738.83"/>
<text text-anchor="middle" x="429" y="-777.32" font-family="Helvetica,sans-Serif" font-size="10.00"> bl</text>
<text text-anchor="middle" x="429" y="-766.32" font-family="Helvetica,sans-Serif" font-size="10.00">br</text>
<text text-anchor="middle" x="429" y="-755.32" font-family="Helvetica,sans-Serif" font-size="10.00">tl</text>
<text text-anchor="middle" x="429" y="-744.32" font-family="Helvetica,sans-Serif" font-size="10.00">tr</text>
</g>
<!-- Node22 -->
<g id="node22" class="node">
<title>Node22</title>
<g id="a_node22"><a xlink:href="../../d3/d87/structcc_vertex3_f.html" target="_top" xlink:title="A vertex composed of 2 floats: x, y.">
<polygon fill="white" stroke="#666666" points="178,-793.82 107,-793.82 107,-774.82 178,-774.82 178,-793.82"/>
<text text-anchor="middle" x="142.5" y="-781.82" font-family="Helvetica,sans-Serif" font-size="10.00">ccVertex3F</text>
</a>
</g>
</g>
<!-- Node22&#45;&gt;Node21 -->
<g id="edge39" class="edge">
<title>Node22&#45;&gt;Node21</title>
<path fill="none" stroke="#9a32cd" stroke-dasharray="5,2" d="M188.05,-774.92C206.88,-770.86 229.04,-765.99 249,-761.32 257.59,-759.31 266.8,-757.06 275.48,-754.9"/>
<polygon fill="#9a32cd" stroke="#9a32cd" points="187.29,-771.5 178.25,-777.02 188.76,-778.35 187.29,-771.5"/>
<text text-anchor="middle" x="222.5" y="-775.32" font-family="Helvetica,sans-Serif" font-size="10.00"> vertices</text>
</g>
<!-- Node23 -->
<g id="node23" class="node">
<title>Node23</title>
<g id="a_node23"><a xlink:href="../../d2/dd4/structcc_color4_b.html" target="_top" xlink:title="RGBA color composed of 4 bytes.">
<polygon fill="white" stroke="#666666" points="175,-756.82 110,-756.82 110,-737.82 175,-737.82 175,-756.82"/>
<text text-anchor="middle" x="142.5" y="-744.82" font-family="Helvetica,sans-Serif" font-size="10.00">ccColor4B</text>
</a>
</g>
</g>
<!-- Node23&#45;&gt;Node21 -->
<g id="edge40" class="edge">
<title>Node23&#45;&gt;Node21</title>
<path fill="none" stroke="#9a32cd" stroke-dasharray="5,2" d="M185.53,-746.82C210.23,-746.53 241.48,-746.16 266.86,-745.86"/>
<polygon fill="#9a32cd" stroke="#9a32cd" points="185.34,-743.32 175.38,-746.94 185.42,-750.32 185.34,-743.32"/>
<text text-anchor="middle" x="222.5" y="-749.32" font-family="Helvetica,sans-Serif" font-size="10.00"> colors</text>
</g>
<!-- Node24 -->
<g id="node24" class="node">
<title>Node24</title>
<g id="a_node24"><a xlink:href="../../d0/d46/structcc_tex2_f.html" target="_top" xlink:title="A texcoord composed of 2 floats: u, y.">
<polygon fill="white" stroke="#666666" points="170.5,-719.82 114.5,-719.82 114.5,-700.82 170.5,-700.82 170.5,-719.82"/>
<text text-anchor="middle" x="142.5" y="-707.82" font-family="Helvetica,sans-Serif" font-size="10.00">ccTex2F</text>
</a>
</g>
</g>
<!-- Node24&#45;&gt;Node21 -->
<g id="edge41" class="edge">
<title>Node24&#45;&gt;Node21</title>
<path fill="none" stroke="#9a32cd" stroke-dasharray="5,2" d="M180.94,-717.01C201.14,-720.72 226.48,-725.55 249,-730.32 256.93,-732 265.38,-733.9 273.46,-735.77"/>
<polygon fill="#9a32cd" stroke="#9a32cd" points="181.35,-713.53 170.89,-715.18 180.1,-720.41 181.35,-713.53"/>
<text text-anchor="middle" x="222.5" y="-733.32" font-family="Helvetica,sans-Serif" font-size="10.00"> texCoords</text>
</g>
<!-- Node25 -->
<g id="node25" class="node">
<title>Node25</title>
<g id="a_node25"><a xlink:href="../../d6/d45/structcc_blend_func.html" target="_top" xlink:title="Blend Function used for textures.">
<polygon fill="white" stroke="#666666" points="1171.5,-229.82 1094.5,-229.82 1094.5,-210.82 1171.5,-210.82 1171.5,-229.82"/>
<text text-anchor="middle" x="1133" y="-217.82" font-family="Helvetica,sans-Serif" font-size="10.00">ccBlendFunc</text>
</a>
</g>
</g>
<!-- Node25&#45;&gt;Node1 -->
<g id="edge42" class="edge">
<title>Node25&#45;&gt;Node1</title>
<path fill="none" stroke="#9a32cd" stroke-dasharray="5,2" d="M1181.64,-229.41C1208.64,-235.3 1242.77,-244 1272,-255.32 1292.77,-263.36 1315.15,-275.96 1329.58,-284.65"/>
<polygon fill="#9a32cd" stroke="#9a32cd" points="1182.17,-225.95 1171.66,-227.29 1180.72,-232.8 1182.17,-225.95"/>
<text text-anchor="middle" x="1238" y="-258.32" font-family="Helvetica,sans-Serif" font-size="10.00"> m_blendFunc</text>
</g>
</g>
</svg>
