<?xml version="1.0" encoding="UTF-8" standalone="no"?>
<!DOCTYPE svg PUBLIC "-//W3C//DTD SVG 1.1//EN"
 "http://www.w3.org/Graphics/SVG/1.1/DTD/svg11.dtd">
<!-- Generated by graphviz version 2.43.0 (0)
 -->
<!-- Title: CCSpriteBatchNode Pages: 1 -->
<svg width="1410pt" height="804pt"
 viewBox="0.00 0.00 1410.00 804.31" xmlns="http://www.w3.org/2000/svg" xmlns:xlink="http://www.w3.org/1999/xlink">
<g id="graph0" class="graph" transform="scale(1 1) rotate(0) translate(4 800.31)">
<title>CCSpriteBatchNode</title>
<!-- Node1 -->
<g id="node1" class="node">
<title>Node1</title>
<g id="a_node1"><a xlink:title="CCSpriteBatchNode is like a batch node: if it contains children, it will draw them in 1 single OpenGL...">
<polygon fill="#bfbfbf" stroke="black" points="1290,-284.81 1290,-303.81 1402,-303.81 1402,-284.81 1290,-284.81"/>
<text text-anchor="middle" x="1346" y="-291.81" font-family="Helvetica,sans-Serif" font-size="10.00">CCSpriteBatchNode</text>
</a>
</g>
</g>
<!-- Node2 -->
<g id="node2" class="node">
<title>Node2</title>
<g id="a_node2"><a xlink:href="../../d0/ded/classcocos2d_1_1_c_c_node.html" target="_top" xlink:title="CCNode is the main element.">
<polygon fill="none" stroke="black" points="1105,-284.81 1105,-303.81 1161,-303.81 1161,-284.81 1105,-284.81"/>
<text text-anchor="middle" x="1133" y="-291.81" font-family="Helvetica,sans-Serif" font-size="10.00">CCNode</text>
</a>
</g>
</g>
<!-- Node2&#45;&gt;Node1 -->
<g id="edge1" class="edge">
<title>Node2&#45;&gt;Node1</title>
<path fill="none" stroke="midnightblue" d="M1171.25,-294.31C1204.15,-294.31 1252.55,-294.31 1289.91,-294.31"/>
<polygon fill="midnightblue" stroke="midnightblue" points="1171.15,-290.81 1161.15,-294.31 1171.15,-297.81 1171.15,-290.81"/>
</g>
<!-- Node2&#45;&gt;Node2 -->
<g id="edge23" class="edge">
<title>Node2&#45;&gt;Node2</title>
<path fill="none" stroke="#9a32cd" stroke-dasharray="5,2" d="M1113.74,-313.71C1115.03,-318.62 1121.45,-322.31 1133,-322.31 1151.48,-322.31 1156.83,-312.87 1149.03,-304.06"/>
<polygon fill="#9a32cd" stroke="#9a32cd" points="1117.11,-314.66 1116.97,-304.06 1110.48,-312.43 1117.11,-314.66"/>
<text text-anchor="middle" x="1133" y="-325.31" font-family="Helvetica,sans-Serif" font-size="10.00"> m_pParent</text>
</g>
<!-- Node3 -->
<g id="node3" class="node">
<title>Node3</title>
<g id="a_node3"><a xlink:href="../../d3/dbf/classcocos2d_1_1_c_c_object.html" target="_top" xlink:title="NA.">
<polygon fill="none" stroke="black" points="111.5,-284.81 111.5,-303.81 173.5,-303.81 173.5,-284.81 111.5,-284.81"/>
<text text-anchor="middle" x="142.5" y="-291.81" font-family="Helvetica,sans-Serif" font-size="10.00">CCObject</text>
</a>
</g>
</g>
<!-- Node3&#45;&gt;Node2 -->
<g id="edge2" class="edge">
<title>Node3&#45;&gt;Node2</title>
<path fill="none" stroke="midnightblue" d="M161.88,-277.86C191.46,-253.15 252.48,-209.31 313,-209.31 313,-209.31 313,-209.31 850,-209.31 947.12,-209.31 973.93,-221.36 1062,-262.31 1070.95,-266.47 1071.28,-270.68 1080,-275.31 1087.81,-279.45 1096.72,-283.07 1104.94,-286.01"/>
<polygon fill="midnightblue" stroke="midnightblue" points="159.38,-275.39 154.07,-284.55 163.94,-280.7 159.38,-275.39"/>
</g>
<!-- Node3&#45;&gt;Node2 -->
<g id="edge24" class="edge">
<title>Node3&#45;&gt;Node2</title>
<path fill="none" stroke="#9a32cd" stroke-dasharray="5,2" d="M151.58,-275.49C160.05,-258.1 175.07,-232.94 196,-219.31 222.95,-201.75 235.19,-210.07 267,-205.31 561.21,-161.26 636.53,-152.24 934,-149.31 990.89,-148.74 1019.02,-112.03 1062,-149.31 1104.73,-186.37 1044.38,-231.36 1080,-275.31 1086.17,-282.92 1095.68,-287.48 1104.89,-290.22"/>
<polygon fill="#9a32cd" stroke="#9a32cd" points="148.34,-274.15 147.35,-284.69 154.7,-277.07 148.34,-274.15"/>
<text text-anchor="middle" x="559.5" y="-176.31" font-family="Helvetica,sans-Serif" font-size="10.00"> m_pUserObject</text>
</g>
<!-- Node8 -->
<g id="node8" class="node">
<title>Node8</title>
<g id="a_node8"><a xlink:href="../../d2/d51/classcocos2d_1_1_c_c_camera.html" target="_top" xlink:title="A CCCamera is used in every CCNode.">
<polygon fill="none" stroke="black" points="395,-87.81 395,-106.81 463,-106.81 463,-87.81 395,-87.81"/>
<text text-anchor="middle" x="429" y="-94.81" font-family="Helvetica,sans-Serif" font-size="10.00">CCCamera</text>
</a>
</g>
</g>
<!-- Node3&#45;&gt;Node8 -->
<g id="edge8" class="edge">
<title>Node3&#45;&gt;Node8</title>
<path fill="none" stroke="midnightblue" d="M143.34,-274.35C144.23,-238.73 151.65,-164.47 196,-127.31 252.5,-79.96 345.5,-84.67 394.85,-91.42"/>
<polygon fill="midnightblue" stroke="midnightblue" points="139.84,-274.42 143.24,-284.46 146.84,-274.49 139.84,-274.42"/>
</g>
<!-- Node9 -->
<g id="node9" class="node">
<title>Node9</title>
<g id="a_node9"><a xlink:href="../../d6/d70/classcocos2d_1_1_c_c_grid_base.html" target="_top" xlink:title="Base class for other.">
<polygon fill="none" stroke="black" points="812,-505.81 812,-524.81 886,-524.81 886,-505.81 812,-505.81"/>
<text text-anchor="middle" x="849" y="-512.81" font-family="Helvetica,sans-Serif" font-size="10.00">CCGridBase</text>
</a>
</g>
</g>
<!-- Node3&#45;&gt;Node9 -->
<g id="edge10" class="edge">
<title>Node3&#45;&gt;Node9</title>
<path fill="none" stroke="midnightblue" d="M183.5,-304.98C187.72,-306.1 191.95,-307.23 196,-308.31 321.75,-341.74 367.97,-315.46 479,-383.31 489.2,-389.54 486.77,-397.12 497,-403.31 510.1,-411.22 750.02,-465.08 764,-471.31 772.78,-475.21 773.65,-478.53 782,-483.31 796.48,-491.59 813.42,-499.78 826.52,-505.79"/>
<polygon fill="midnightblue" stroke="midnightblue" points="184.32,-301.58 173.76,-302.38 182.52,-308.34 184.32,-301.58"/>
</g>
<!-- Node10 -->
<g id="node10" class="node">
<title>Node10</title>
<g id="a_node10"><a xlink:href="../../d7/dfd/classcocos2d_1_1_c_c_texture2_d.html" target="_top" xlink:title="CCTexture2D class.">
<polygon fill="none" stroke="black" points="519.5,-544.81 519.5,-563.81 599.5,-563.81 599.5,-544.81 519.5,-544.81"/>
<text text-anchor="middle" x="559.5" y="-551.81" font-family="Helvetica,sans-Serif" font-size="10.00">CCTexture2D</text>
</a>
</g>
</g>
<!-- Node3&#45;&gt;Node10 -->
<g id="edge13" class="edge">
<title>Node3&#45;&gt;Node10</title>
<path fill="none" stroke="midnightblue" d="M148.83,-313.94C161.43,-356.24 197.38,-455.84 267,-501.31 345.38,-552.49 459.65,-557.69 519.16,-556.41"/>
<polygon fill="midnightblue" stroke="midnightblue" points="152.18,-312.92 146.06,-304.27 145.45,-314.84 152.18,-312.92"/>
</g>
<!-- Node11 -->
<g id="node11" class="node">
<title>Node11</title>
<g id="a_node11"><a xlink:href="../../db/d28/classcocos2d_1_1_c_c_g_l_program.html" target="_top" xlink:title="CCGLProgram Class that implements a glProgram.">
<polygon fill="none" stroke="black" points="272,-580.81 272,-599.81 356,-599.81 356,-580.81 272,-580.81"/>
<text text-anchor="middle" x="314" y="-587.81" font-family="Helvetica,sans-Serif" font-size="10.00">CCGLProgram</text>
</a>
</g>
</g>
<!-- Node3&#45;&gt;Node11 -->
<g id="edge16" class="edge">
<title>Node3&#45;&gt;Node11</title>
<path fill="none" stroke="midnightblue" d="M144.89,-314.13C149.11,-368.73 163.51,-519.67 196,-555.31 215.21,-576.38 246.53,-584.97 271.94,-588.38"/>
<polygon fill="midnightblue" stroke="midnightblue" points="148.37,-313.73 144.14,-304.01 141.39,-314.24 148.37,-313.73"/>
</g>
<!-- Node12 -->
<g id="node12" class="node">
<title>Node12</title>
<g id="a_node12"><a xlink:href="../../d3/d89/classcocos2d_1_1_c_c_grabber.html" target="_top" xlink:title="FBO class that grabs the the contents of the screen NA NA.">
<polygon fill="none" stroke="black" points="394.5,-384.81 394.5,-403.81 463.5,-403.81 463.5,-384.81 394.5,-384.81"/>
<text text-anchor="middle" x="429" y="-391.81" font-family="Helvetica,sans-Serif" font-size="10.00">CCGrabber</text>
</a>
</g>
</g>
<!-- Node3&#45;&gt;Node12 -->
<g id="edge19" class="edge">
<title>Node3&#45;&gt;Node12</title>
<path fill="none" stroke="midnightblue" d="M148.84,-313.56C155.85,-334.75 170.37,-367.85 196,-383.31 257.81,-420.58 346.61,-411.1 394.44,-402.03"/>
<polygon fill="midnightblue" stroke="midnightblue" points="152.19,-312.52 145.92,-303.98 145.49,-314.57 152.19,-312.52"/>
</g>
<!-- Node13 -->
<g id="node13" class="node">
<title>Node13</title>
<g id="a_node13"><a xlink:href="../../d9/d2e/classcocos2d_1_1_c_c_array.html" target="_top" xlink:title="NA.">
<polygon fill="none" stroke="black" points="531.5,-246.81 531.5,-265.81 587.5,-265.81 587.5,-246.81 531.5,-246.81"/>
<text text-anchor="middle" x="559.5" y="-253.81" font-family="Helvetica,sans-Serif" font-size="10.00">CCArray</text>
</a>
</g>
</g>
<!-- Node3&#45;&gt;Node13 -->
<g id="edge22" class="edge">
<title>Node3&#45;&gt;Node13</title>
<path fill="none" stroke="midnightblue" d="M183.33,-282.82C187.58,-281.85 191.86,-280.99 196,-280.31 320.15,-259.84 470.95,-256.7 531.46,-256.31"/>
<polygon fill="midnightblue" stroke="midnightblue" points="182.42,-279.44 173.54,-285.22 184.09,-286.24 182.42,-279.44"/>
</g>
<!-- Node14 -->
<g id="node14" class="node">
<title>Node14</title>
<g id="a_node14"><a xlink:href="../../de/dee/classcocos2d_1_1_c_c_scheduler.html" target="_top" xlink:title="Scheduler is responsible for triggering the scheduled callbacks.">
<polygon fill="none" stroke="black" points="810,-284.81 810,-303.81 888,-303.81 888,-284.81 810,-284.81"/>
<text text-anchor="middle" x="849" y="-291.81" font-family="Helvetica,sans-Serif" font-size="10.00">CCScheduler</text>
</a>
</g>
</g>
<!-- Node3&#45;&gt;Node14 -->
<g id="edge27" class="edge">
<title>Node3&#45;&gt;Node14</title>
<path fill="none" stroke="midnightblue" d="M184.05,-294.31C309.2,-294.31 688.23,-294.31 809.94,-294.31"/>
<polygon fill="midnightblue" stroke="midnightblue" points="183.77,-290.81 173.77,-294.31 183.77,-297.81 183.77,-290.81"/>
</g>
<!-- Node15 -->
<g id="node15" class="node">
<title>Node15</title>
<g id="a_node15"><a xlink:href="../../d5/dcb/classcocos2d_1_1_c_c_action_manager.html" target="_top" xlink:title="CCActionManager is a singleton that manages all the actions.">
<polygon fill="none" stroke="black" points="650,-46.81 650,-65.81 754,-65.81 754,-46.81 650,-46.81"/>
<text text-anchor="middle" x="702" y="-53.81" font-family="Helvetica,sans-Serif" font-size="10.00">CCActionManager</text>
</a>
</g>
</g>
<!-- Node3&#45;&gt;Node15 -->
<g id="edge30" class="edge">
<title>Node3&#45;&gt;Node15</title>
<path fill="none" stroke="midnightblue" d="M146.01,-274.77C152.21,-229.75 169.64,-120.68 196,-96.31 329.98,27.6 578.54,-23.08 667.92,-46.73"/>
<polygon fill="midnightblue" stroke="midnightblue" points="142.53,-274.37 144.68,-284.75 149.47,-275.3 142.53,-274.37"/>
</g>
<!-- Node19 -->
<g id="node19" class="node">
<title>Node19</title>
<g id="a_node19"><a xlink:href="../../df/d3a/classcocos2d_1_1_c_c_texture_atlas.html" target="_top" xlink:title="A class that implements a Texture Atlas.">
<polygon fill="none" stroke="black" points="803.5,-669.81 803.5,-688.81 894.5,-688.81 894.5,-669.81 803.5,-669.81"/>
<text text-anchor="middle" x="849" y="-676.81" font-family="Helvetica,sans-Serif" font-size="10.00">CCTextureAtlas</text>
</a>
</g>
</g>
<!-- Node3&#45;&gt;Node19 -->
<g id="edge35" class="edge">
<title>Node3&#45;&gt;Node19</title>
<path fill="none" stroke="midnightblue" d="M144.59,-314.19C148.16,-372.61 161.36,-542.16 196,-583.31 274.01,-675.98 669.05,-681.02 803.29,-680"/>
<polygon fill="midnightblue" stroke="midnightblue" points="148.07,-313.84 144,-304.06 141.09,-314.25 148.07,-313.84"/>
</g>
<!-- Node4 -->
<g id="node4" class="node">
<title>Node4</title>
<g id="a_node4"><a xlink:href="../../d5/d61/classcocos2d_1_1_c_c_copying.html" target="_top" xlink:title="NA NA.">
<polygon fill="none" stroke="black" points="0,-284.81 0,-303.81 70,-303.81 70,-284.81 0,-284.81"/>
<text text-anchor="middle" x="35" y="-291.81" font-family="Helvetica,sans-Serif" font-size="10.00">CCCopying</text>
</a>
</g>
</g>
<!-- Node4&#45;&gt;Node3 -->
<g id="edge3" class="edge">
<title>Node4&#45;&gt;Node3</title>
<path fill="none" stroke="midnightblue" d="M80.45,-294.31C90.86,-294.31 101.71,-294.31 111.33,-294.31"/>
<polygon fill="midnightblue" stroke="midnightblue" points="80.25,-290.81 70.25,-294.31 80.25,-297.81 80.25,-290.81"/>
</g>
<!-- Node5 -->
<g id="node5" class="node">
<title>Node5</title>
<g id="a_node5"><a xlink:href="../../d2/df3/classcocos2d_1_1_c_c_point.html" target="_top" xlink:title="NA.">
<polygon fill="none" stroke="black" points="532,-374.81 532,-393.81 587,-393.81 587,-374.81 532,-374.81"/>
<text text-anchor="middle" x="559.5" y="-381.81" font-family="Helvetica,sans-Serif" font-size="10.00">CCPoint</text>
</a>
</g>
</g>
<!-- Node5&#45;&gt;Node2 -->
<g id="edge4" class="edge">
<title>Node5&#45;&gt;Node2</title>
<path fill="none" stroke="#9a32cd" stroke-dasharray="5,2" d="M597.22,-383.78C697.88,-381.96 976.38,-374.18 1062,-343.31 1086,-334.65 1109.35,-315.5 1122.09,-303.87"/>
<polygon fill="#9a32cd" stroke="#9a32cd" points="597.16,-380.28 587.22,-383.95 597.28,-387.28 597.16,-380.28"/>
<text text-anchor="middle" x="849" y="-401.31" font-family="Helvetica,sans-Serif" font-size="10.00"> m_obAnchorPoint</text>
<text text-anchor="middle" x="849" y="-390.31" font-family="Helvetica,sans-Serif" font-size="10.00">m_obAnchorPointInPoints</text>
<text text-anchor="middle" x="849" y="-379.31" font-family="Helvetica,sans-Serif" font-size="10.00">m_obPosition</text>
</g>
<!-- Node5&#45;&gt;Node9 -->
<g id="edge17" class="edge">
<title>Node5&#45;&gt;Node9</title>
<path fill="none" stroke="#9a32cd" stroke-dasharray="5,2" d="M597.17,-387.1C652.43,-391.64 751.93,-401.24 764,-412.31 790.55,-436.63 758.17,-464.3 782,-491.31 789.74,-500.08 800.96,-505.65 811.96,-509.18"/>
<polygon fill="#9a32cd" stroke="#9a32cd" points="597.32,-383.6 587.07,-386.28 596.76,-390.58 597.32,-383.6"/>
<text text-anchor="middle" x="702" y="-415.31" font-family="Helvetica,sans-Serif" font-size="10.00"> m_obStep</text>
</g>
<!-- Node6 -->
<g id="node6" class="node">
<title>Node6</title>
<g id="a_node6"><a xlink:href="../../d9/d24/classcocos2d_1_1_c_c_size.html" target="_top" xlink:title="NA.">
<polygon fill="none" stroke="black" points="289,-472.81 289,-491.81 339,-491.81 339,-472.81 289,-472.81"/>
<text text-anchor="middle" x="314" y="-479.81" font-family="Helvetica,sans-Serif" font-size="10.00">CCSize</text>
</a>
</g>
</g>
<!-- Node6&#45;&gt;Node2 -->
<g id="edge5" class="edge">
<title>Node6&#45;&gt;Node2</title>
<path fill="none" stroke="#9a32cd" stroke-dasharray="5,2" d="M348.95,-473.97C385.32,-463.47 442.7,-442.19 479,-405.31 492.67,-391.41 481.17,-376.69 497,-365.31 599.44,-291.65 937.34,-328.78 1062,-309.31 1076.24,-307.08 1091.95,-303.79 1104.87,-300.86"/>
<polygon fill="#9a32cd" stroke="#9a32cd" points="347.98,-470.6 339.28,-476.65 349.85,-477.35 347.98,-470.6"/>
<text text-anchor="middle" x="702" y="-327.31" font-family="Helvetica,sans-Serif" font-size="10.00"> m_obContentSize</text>
</g>
<!-- Node6&#45;&gt;Node9 -->
<g id="edge11" class="edge">
<title>Node6&#45;&gt;Node9</title>
<path fill="none" stroke="#9a32cd" stroke-dasharray="5,2" d="M349.29,-484.43C444.93,-490.35 713.96,-507.01 811.83,-513.07"/>
<polygon fill="#9a32cd" stroke="#9a32cd" points="349.48,-480.93 339.29,-483.81 349.05,-487.92 349.48,-480.93"/>
<text text-anchor="middle" x="559.5" y="-503.31" font-family="Helvetica,sans-Serif" font-size="10.00"> m_sGridSize</text>
</g>
<!-- Node6&#45;&gt;Node10 -->
<g id="edge14" class="edge">
<title>Node6&#45;&gt;Node10</title>
<path fill="none" stroke="#9a32cd" stroke-dasharray="5,2" d="M349.36,-488.57C393.92,-496.82 467.36,-510.93 479,-516.31 488.2,-520.56 488.19,-525.3 497,-530.31 506.97,-535.97 518.53,-540.87 528.92,-544.74"/>
<polygon fill="#9a32cd" stroke="#9a32cd" points="349.71,-485.07 339.25,-486.7 348.44,-491.96 349.71,-485.07"/>
<text text-anchor="middle" x="429" y="-519.31" font-family="Helvetica,sans-Serif" font-size="10.00"> m_tContentSize</text>
</g>
<!-- Node7 -->
<g id="node7" class="node">
<title>Node7</title>
<g id="a_node7"><a xlink:href="../../da/dbf/structcocos2d_1_1_c_c_affine_transform.html" target="_top" xlink:title=" ">
<polygon fill="none" stroke="black" points="795.5,-429.81 795.5,-448.81 902.5,-448.81 902.5,-429.81 795.5,-429.81"/>
<text text-anchor="middle" x="849" y="-436.81" font-family="Helvetica,sans-Serif" font-size="10.00">CCAffineTransform</text>
</a>
</g>
</g>
<!-- Node7&#45;&gt;Node2 -->
<g id="edge6" class="edge">
<title>Node7&#45;&gt;Node2</title>
<path fill="none" stroke="#9a32cd" stroke-dasharray="5,2" d="M897.48,-425.87C904.02,-422.94 910.41,-419.45 916,-415.31 926.71,-407.36 922.65,-398.3 934,-391.31 983.2,-360.97 1011.15,-395.79 1062,-368.31 1091.25,-352.5 1115.29,-320 1126,-303.85"/>
<polygon fill="#9a32cd" stroke="#9a32cd" points="895.82,-422.76 887.86,-429.75 898.44,-429.25 895.82,-422.76"/>
<text text-anchor="middle" x="998" y="-416.31" font-family="Helvetica,sans-Serif" font-size="10.00"> m_sAdditionalTransform</text>
<text text-anchor="middle" x="998" y="-405.31" font-family="Helvetica,sans-Serif" font-size="10.00">m_sInverse</text>
<text text-anchor="middle" x="998" y="-394.31" font-family="Helvetica,sans-Serif" font-size="10.00">m_sTransform</text>
</g>
<!-- Node8&#45;&gt;Node2 -->
<g id="edge7" class="edge">
<title>Node8&#45;&gt;Node2</title>
<path fill="none" stroke="#9a32cd" stroke-dasharray="5,2" d="M473.03,-95.63C608.36,-90.8 1018.95,-79.57 1062,-119.31 1087.64,-142.97 1058.39,-247.9 1080,-275.31 1086.07,-283 1095.56,-287.58 1104.78,-290.31"/>
<polygon fill="#9a32cd" stroke="#9a32cd" points="472.89,-92.14 463.02,-96 473.14,-99.13 472.89,-92.14"/>
<text text-anchor="middle" x="702" y="-94.31" font-family="Helvetica,sans-Serif" font-size="10.00"> m_pCamera</text>
</g>
<!-- Node9&#45;&gt;Node2 -->
<g id="edge9" class="edge">
<title>Node9&#45;&gt;Node2</title>
<path fill="none" stroke="#9a32cd" stroke-dasharray="5,2" d="M868.24,-498.72C888.35,-480.77 919.75,-453.82 934,-447.31 986.56,-423.25 1015.21,-458.23 1062,-424.31 1104.54,-393.46 1123.84,-328.65 1129.84,-304.06"/>
<polygon fill="#9a32cd" stroke="#9a32cd" points="865.73,-496.27 860.64,-505.56 870.42,-501.47 865.73,-496.27"/>
<text text-anchor="middle" x="998" y="-450.31" font-family="Helvetica,sans-Serif" font-size="10.00"> m_pGrid</text>
</g>
<!-- Node10&#45;&gt;Node9 -->
<g id="edge12" class="edge">
<title>Node10&#45;&gt;Node9</title>
<path fill="none" stroke="#9a32cd" stroke-dasharray="5,2" d="M609.5,-547.66C666.86,-539.88 760.52,-527.17 811.74,-520.22"/>
<polygon fill="#9a32cd" stroke="#9a32cd" points="609.01,-544.19 599.57,-549 609.95,-551.13 609.01,-544.19"/>
<text text-anchor="middle" x="702" y="-545.31" font-family="Helvetica,sans-Serif" font-size="10.00"> m_pTexture</text>
</g>
<!-- Node10&#45;&gt;Node19 -->
<g id="edge36" class="edge">
<title>Node10&#45;&gt;Node19</title>
<path fill="none" stroke="#9a32cd" stroke-dasharray="5,2" d="M609.99,-561.16C652.63,-568.49 714.89,-582.7 764,-608.31 795.16,-624.55 824.92,-654.12 839.2,-669.47"/>
<polygon fill="#9a32cd" stroke="#9a32cd" points="610.3,-557.66 599.86,-559.48 609.15,-564.56 610.3,-557.66"/>
<text text-anchor="middle" x="702" y="-611.31" font-family="Helvetica,sans-Serif" font-size="10.00"> m_pTexture</text>
</g>
<!-- Node11&#45;&gt;Node2 -->
<g id="edge25" class="edge">
<title>Node11&#45;&gt;Node2</title>
<path fill="none" stroke="#9a32cd" stroke-dasharray="5,2" d="M353,-602.55C361.48,-604.85 370.48,-606.95 379,-608.31 548.04,-635.26 596.23,-653.32 764,-619.31 904.93,-590.74 963.51,-598.08 1062,-493.31 1115.68,-436.2 1128.53,-335.51 1131.3,-304.01"/>
<polygon fill="#9a32cd" stroke="#9a32cd" points="353.93,-599.18 343.36,-599.81 352.02,-605.91 353.93,-599.18"/>
<text text-anchor="middle" x="702" y="-639.31" font-family="Helvetica,sans-Serif" font-size="10.00"> m_pShaderProgram</text>
</g>
<!-- Node11&#45;&gt;Node9 -->
<g id="edge20" class="edge">
<title>Node11&#45;&gt;Node9</title>
<path fill="none" stroke="#9a32cd" stroke-dasharray="5,2" d="M366.42,-593.53C451.21,-597.31 624.79,-598.53 764,-557.31 789.48,-549.76 816.57,-534.79 832.89,-524.92"/>
<polygon fill="#9a32cd" stroke="#9a32cd" points="366.44,-590.02 356.29,-593.04 366.11,-597.02 366.44,-590.02"/>
<text text-anchor="middle" x="559.5" y="-597.31" font-family="Helvetica,sans-Serif" font-size="10.00"> m_pShaderProgram</text>
</g>
<!-- Node11&#45;&gt;Node10 -->
<g id="edge15" class="edge">
<title>Node11&#45;&gt;Node10</title>
<path fill="none" stroke="#9a32cd" stroke-dasharray="5,2" d="M362.36,-578.57C367.95,-577.37 373.59,-576.25 379,-575.31 427.06,-566.89 482.96,-560.95 519.45,-557.58"/>
<polygon fill="#9a32cd" stroke="#9a32cd" points="361.42,-575.19 352.42,-580.78 362.94,-582.03 361.42,-575.19"/>
<text text-anchor="middle" x="429" y="-578.31" font-family="Helvetica,sans-Serif" font-size="10.00"> m_pShaderProgram</text>
</g>
<!-- Node12&#45;&gt;Node9 -->
<g id="edge18" class="edge">
<title>Node12&#45;&gt;Node9</title>
<path fill="none" stroke="#9a32cd" stroke-dasharray="5,2" d="M451.09,-410.13C463.81,-418.99 480.66,-429.57 497,-436.31 554.39,-459.94 734.23,-494.49 811.8,-508.77"/>
<polygon fill="#9a32cd" stroke="#9a32cd" points="452.8,-407.05 442.63,-404.07 448.72,-412.74 452.8,-407.05"/>
<text text-anchor="middle" x="559.5" y="-472.31" font-family="Helvetica,sans-Serif" font-size="10.00"> m_pGrabber</text>
</g>
<!-- Node13&#45;&gt;Node1 -->
<g id="edge43" class="edge">
<title>Node13&#45;&gt;Node1</title>
<path fill="none" stroke="#9a32cd" stroke-dasharray="5,2" d="M596.12,-269.26C653.73,-290.29 761.24,-329.86 764,-333.31 799.12,-377.09 739.58,-421.55 782,-458.31 829.03,-499.05 1001.91,-474.46 1062,-458.31 1178.81,-426.91 1297.15,-334.22 1333.62,-303.97"/>
<polygon fill="#9a32cd" stroke="#9a32cd" points="597.25,-265.95 586.65,-265.81 594.85,-272.52 597.25,-265.95"/>
<text text-anchor="middle" x="998" y="-481.31" font-family="Helvetica,sans-Serif" font-size="10.00"> m_pobDescendants</text>
</g>
<!-- Node13&#45;&gt;Node2 -->
<g id="edge21" class="edge">
<title>Node13&#45;&gt;Node2</title>
<path fill="none" stroke="#9a32cd" stroke-dasharray="5,2" d="M597.93,-254.6C611.21,-254.07 626.27,-253.56 640,-253.31 762.74,-250.99 793.91,-251.42 916,-264.31 984.15,-271.5 1063.91,-283.52 1104.79,-289.94"/>
<polygon fill="#9a32cd" stroke="#9a32cd" points="597.57,-251.11 587.72,-255.02 597.86,-258.11 597.57,-251.11"/>
<text text-anchor="middle" x="849" y="-267.31" font-family="Helvetica,sans-Serif" font-size="10.00"> m_pChildren</text>
</g>
<!-- Node13&#45;&gt;Node14 -->
<g id="edge28" class="edge">
<title>Node13&#45;&gt;Node14</title>
<path fill="none" stroke="#9a32cd" stroke-dasharray="5,2" d="M597.81,-256.18C638.85,-256.62 706.61,-259.07 764,-269.31 783.62,-272.81 805.16,-279.27 821.51,-284.75"/>
<polygon fill="#9a32cd" stroke="#9a32cd" points="597.75,-252.68 587.72,-256.11 597.7,-259.68 597.75,-252.68"/>
<text text-anchor="middle" x="702" y="-272.31" font-family="Helvetica,sans-Serif" font-size="10.00"> m_pScriptHandlerEntries</text>
</g>
<!-- Node14&#45;&gt;Node2 -->
<g id="edge26" class="edge">
<title>Node14&#45;&gt;Node2</title>
<path fill="none" stroke="#9a32cd" stroke-dasharray="5,2" d="M898.31,-294.31C957.85,-294.31 1056.99,-294.31 1104.7,-294.31"/>
<polygon fill="#9a32cd" stroke="#9a32cd" points="898.03,-290.81 888.03,-294.31 898.03,-297.81 898.03,-290.81"/>
<text text-anchor="middle" x="998" y="-297.31" font-family="Helvetica,sans-Serif" font-size="10.00"> m_pScheduler</text>
</g>
<!-- Node15&#45;&gt;Node2 -->
<g id="edge29" class="edge">
<title>Node15&#45;&gt;Node2</title>
<path fill="none" stroke="#9a32cd" stroke-dasharray="5,2" d="M764.42,-51.44C855.83,-45.66 1021.29,-41.3 1062,-81.31 1092.88,-111.65 1053.57,-241.01 1080,-275.31 1086.04,-283.15 1095.64,-287.75 1104.95,-290.46"/>
<polygon fill="#9a32cd" stroke="#9a32cd" points="763.94,-47.97 754.19,-52.11 764.4,-54.95 763.94,-47.97"/>
<text text-anchor="middle" x="849" y="-53.31" font-family="Helvetica,sans-Serif" font-size="10.00"> m_pActionManager</text>
</g>
<!-- Node16 -->
<g id="node16" class="node">
<title>Node16</title>
<g id="a_node16"><a xlink:href="../../d1/d65/classcocos2d_1_1_c_c_component_container.html" target="_top" xlink:title="NA NA.">
<polygon fill="none" stroke="black" points="782,-161.81 782,-180.81 916,-180.81 916,-161.81 782,-161.81"/>
<text text-anchor="middle" x="849" y="-168.81" font-family="Helvetica,sans-Serif" font-size="10.00">CCComponentContainer</text>
</a>
</g>
</g>
<!-- Node16&#45;&gt;Node2 -->
<g id="edge31" class="edge">
<title>Node16&#45;&gt;Node2</title>
<path fill="none" stroke="#9a32cd" stroke-dasharray="5,2" d="M895.25,-159.63C942.72,-150.33 1016.61,-144.62 1062,-184.31 1093.04,-211.44 1053.19,-243.98 1080,-275.31 1086.31,-282.68 1095.74,-287.19 1104.84,-289.96"/>
<polygon fill="#9a32cd" stroke="#9a32cd" points="894.32,-156.25 885.25,-161.72 895.76,-163.1 894.32,-156.25"/>
<text text-anchor="middle" x="998" y="-187.31" font-family="Helvetica,sans-Serif" font-size="10.00"> m_pComponentContainer</text>
</g>
<!-- Node17 -->
<g id="node17" class="node">
<title>Node17</title>
<g id="a_node17"><a xlink:href="../../db/d1b/classcocos2d_1_1_c_c_texture_protocol.html" target="_top" xlink:title="CCNode objects that uses a CCTexture2D to render the images.">
<polygon fill="none" stroke="black" points="1080,-246.81 1080,-265.81 1186,-265.81 1186,-246.81 1080,-246.81"/>
<text text-anchor="middle" x="1133" y="-253.81" font-family="Helvetica,sans-Serif" font-size="10.00">CCTextureProtocol</text>
</a>
</g>
</g>
<!-- Node17&#45;&gt;Node1 -->
<g id="edge32" class="edge">
<title>Node17&#45;&gt;Node1</title>
<path fill="none" stroke="midnightblue" d="M1196.23,-267.51C1226.66,-272.99 1262.89,-279.52 1291.98,-284.76"/>
<polygon fill="midnightblue" stroke="midnightblue" points="1196.62,-264.03 1186.16,-265.7 1195.38,-270.92 1196.62,-264.03"/>
</g>
<!-- Node18 -->
<g id="node18" class="node">
<title>Node18</title>
<g id="a_node18"><a xlink:href="../../d6/d82/classcocos2d_1_1_c_c_blend_protocol.html" target="_top" xlink:title="Specify the blending function according glBlendFunc Please refer to glBlendFunc in OpenGL ES Manual h...">
<polygon fill="none" stroke="black" points="800,-0.81 800,-19.81 898,-19.81 898,-0.81 800,-0.81"/>
<text text-anchor="middle" x="849" y="-7.81" font-family="Helvetica,sans-Serif" font-size="10.00">CCBlendProtocol</text>
</a>
</g>
</g>
<!-- Node18&#45;&gt;Node17 -->
<g id="edge33" class="edge">
<title>Node18&#45;&gt;Node17</title>
<path fill="none" stroke="midnightblue" d="M908.03,-1.43C956.38,2.37 1023.36,-1.36 1062,-42.31 1091.87,-73.95 1053.45,-202.83 1080,-237.31 1082.99,-241.19 1086.85,-244.28 1091.12,-246.74"/>
<polygon fill="midnightblue" stroke="midnightblue" points="907.66,2.05 898.02,-2.34 908.29,-4.92 907.66,2.05"/>
</g>
<!-- Node19&#45;&gt;Node1 -->
<g id="edge34" class="edge">
<title>Node19&#45;&gt;Node1</title>
<path fill="none" stroke="#9a32cd" stroke-dasharray="5,2" d="M904.93,-681.04C948.93,-680.58 1011.44,-675.7 1062,-655.31 1171.07,-611.31 1202.4,-589.1 1272,-494.31 1318.6,-430.84 1338.19,-334.53 1343.46,-303.97"/>
<polygon fill="#9a32cd" stroke="#9a32cd" points="904.71,-677.54 894.72,-681.07 904.73,-684.54 904.71,-677.54"/>
<text text-anchor="middle" x="1133" y="-649.31" font-family="Helvetica,sans-Serif" font-size="10.00"> m_pobTextureAtlas</text>
</g>
<!-- Node20 -->
<g id="node20" class="node">
<title>Node20</title>
<g id="a_node20"><a xlink:href="../../dd/d60/structcc_v3_f___c4_b___t2_f___quad.html" target="_top" xlink:title="4 ccVertex3FTex2FColor4B">
<polygon fill="none" stroke="black" points="497,-723.81 497,-742.81 622,-742.81 622,-723.81 497,-723.81"/>
<text text-anchor="middle" x="559.5" y="-730.81" font-family="Helvetica,sans-Serif" font-size="10.00">ccV3F_C4B_T2F_Quad</text>
</a>
</g>
</g>
<!-- Node20&#45;&gt;Node19 -->
<g id="edge37" class="edge">
<title>Node20&#45;&gt;Node19</title>
<path fill="none" stroke="#9a32cd" stroke-dasharray="5,2" d="M621.12,-721.92C675.65,-711.68 754.5,-696.87 803.43,-687.68"/>
<polygon fill="#9a32cd" stroke="#9a32cd" points="620.42,-718.49 611.24,-723.78 621.71,-725.37 620.42,-718.49"/>
<text text-anchor="middle" x="702" y="-720.31" font-family="Helvetica,sans-Serif" font-size="10.00"> m_pQuads</text>
</g>
<!-- Node21 -->
<g id="node21" class="node">
<title>Node21</title>
<g id="a_node21"><a xlink:href="../../d7/de4/structcc_v3_f___c4_b___t2_f.html" target="_top" xlink:title="a Point with a vertex point, a tex coord point and a color 4B">
<polygon fill="none" stroke="black" points="267,-735.81 267,-754.81 361,-754.81 361,-735.81 267,-735.81"/>
<text text-anchor="middle" x="314" y="-742.81" font-family="Helvetica,sans-Serif" font-size="10.00">ccV3F_C4B_T2F</text>
</a>
</g>
</g>
<!-- Node21&#45;&gt;Node20 -->
<g id="edge38" class="edge">
<title>Node21&#45;&gt;Node20</title>
<path fill="none" stroke="#9a32cd" stroke-dasharray="5,2" d="M371.36,-742.53C408.94,-740.68 458.35,-738.24 496.96,-736.34"/>
<polygon fill="#9a32cd" stroke="#9a32cd" points="370.9,-739.05 361.09,-743.03 371.25,-746.04 370.9,-739.05"/>
<text text-anchor="middle" x="429" y="-777.31" font-family="Helvetica,sans-Serif" font-size="10.00"> bl</text>
<text text-anchor="middle" x="429" y="-766.31" font-family="Helvetica,sans-Serif" font-size="10.00">br</text>
<text text-anchor="middle" x="429" y="-755.31" font-family="Helvetica,sans-Serif" font-size="10.00">tl</text>
<text text-anchor="middle" x="429" y="-744.31" font-family="Helvetica,sans-Serif" font-size="10.00">tr</text>
</g>
<!-- Node22 -->
<g id="node22" class="node">
<title>Node22</title>
<g id="a_node22"><a xlink:href="../../d3/d87/structcc_vertex3_f.html" target="_top" xlink:title="A vertex composed of 2 floats: x, y.">
<polygon fill="none" stroke="black" points="107,-776.81 107,-795.81 178,-795.81 178,-776.81 107,-776.81"/>
<text text-anchor="middle" x="142.5" y="-783.81" font-family="Helvetica,sans-Serif" font-size="10.00">ccVertex3F</text>
</a>
</g>
</g>
<!-- Node22&#45;&gt;Node21 -->
<g id="edge39" class="edge">
<title>Node22&#45;&gt;Node21</title>
<path fill="none" stroke="#9a32cd" stroke-dasharray="5,2" d="M188.06,-776.54C206.9,-772.32 229.06,-767.22 249,-762.31 258.38,-759.99 268.49,-757.37 277.85,-754.89"/>
<polygon fill="#9a32cd" stroke="#9a32cd" points="187.26,-773.13 178.26,-778.73 188.78,-779.97 187.26,-773.13"/>
<text text-anchor="middle" x="222.5" y="-777.31" font-family="Helvetica,sans-Serif" font-size="10.00"> vertices</text>
</g>
<!-- Node23 -->
<g id="node23" class="node">
<title>Node23</title>
<g id="a_node23"><a xlink:href="../../d2/dd4/structcc_color4_b.html" target="_top" xlink:title="RGBA color composed of 4 bytes.">
<polygon fill="none" stroke="black" points="110,-738.81 110,-757.81 175,-757.81 175,-738.81 110,-738.81"/>
<text text-anchor="middle" x="142.5" y="-745.81" font-family="Helvetica,sans-Serif" font-size="10.00">ccColor4B</text>
</a>
</g>
</g>
<!-- Node23&#45;&gt;Node21 -->
<g id="edge40" class="edge">
<title>Node23&#45;&gt;Node21</title>
<path fill="none" stroke="#9a32cd" stroke-dasharray="5,2" d="M185.53,-747.56C210.23,-747.12 241.48,-746.57 266.86,-746.12"/>
<polygon fill="#9a32cd" stroke="#9a32cd" points="185.32,-744.06 175.38,-747.74 185.44,-751.06 185.32,-744.06"/>
<text text-anchor="middle" x="222.5" y="-750.31" font-family="Helvetica,sans-Serif" font-size="10.00"> colors</text>
</g>
<!-- Node24 -->
<g id="node24" class="node">
<title>Node24</title>
<g id="a_node24"><a xlink:href="../../d0/d46/structcc_tex2_f.html" target="_top" xlink:title="A texcoord composed of 2 floats: u, y.">
<polygon fill="none" stroke="black" points="114.5,-700.81 114.5,-719.81 170.5,-719.81 170.5,-700.81 114.5,-700.81"/>
<text text-anchor="middle" x="142.5" y="-707.81" font-family="Helvetica,sans-Serif" font-size="10.00">ccTex2F</text>
</a>
</g>
</g>
<!-- Node24&#45;&gt;Node21 -->
<g id="edge41" class="edge">
<title>Node24&#45;&gt;Node21</title>
<path fill="none" stroke="#9a32cd" stroke-dasharray="5,2" d="M180.9,-717.57C201.09,-721.54 226.43,-726.59 249,-731.31 255.79,-732.72 262.98,-734.26 269.99,-735.78"/>
<polygon fill="#9a32cd" stroke="#9a32cd" points="181.34,-714.09 170.85,-715.6 179.99,-720.96 181.34,-714.09"/>
<text text-anchor="middle" x="222.5" y="-734.31" font-family="Helvetica,sans-Serif" font-size="10.00"> texCoords</text>
</g>
<!-- Node25 -->
<g id="node25" class="node">
<title>Node25</title>
<g id="a_node25"><a xlink:href="../../d6/d45/structcc_blend_func.html" target="_top" xlink:title="Blend Function used for textures.">
<polygon fill="none" stroke="black" points="1094.5,-208.81 1094.5,-227.81 1171.5,-227.81 1171.5,-208.81 1094.5,-208.81"/>
<text text-anchor="middle" x="1133" y="-215.81" font-family="Helvetica,sans-Serif" font-size="10.00">ccBlendFunc</text>
</a>
</g>
</g>
<!-- Node25&#45;&gt;Node1 -->
<g id="edge42" class="edge">
<title>Node25&#45;&gt;Node1</title>
<path fill="none" stroke="#9a32cd" stroke-dasharray="5,2" d="M1181.67,-227.7C1208.69,-233.77 1242.82,-242.71 1272,-254.31 1293.09,-262.68 1315.76,-275.83 1330.15,-284.74"/>
<polygon fill="#9a32cd" stroke="#9a32cd" points="1182.21,-224.23 1171.69,-225.51 1180.71,-231.07 1182.21,-224.23"/>
<text text-anchor="middle" x="1238" y="-257.31" font-family="Helvetica,sans-Serif" font-size="10.00"> m_blendFunc</text>
</g>
</g>
</svg>
