<?xml version="1.0" encoding="UTF-8" standalone="no"?>
<!DOCTYPE svg PUBLIC "-//W3C//DTD SVG 1.1//EN"
 "http://www.w3.org/Graphics/SVG/1.1/DTD/svg11.dtd">
<!-- Generated by graphviz version 2.43.0 (0)
 -->
<!-- Title: CCNodeRGBA Pages: 1 -->
<svg width="874pt" height="267pt"
 viewBox="0.00 0.00 874.00 267.00" xmlns="http://www.w3.org/2000/svg" xmlns:xlink="http://www.w3.org/1999/xlink">
<g id="graph0" class="graph" transform="scale(1 1) rotate(0) translate(4 263)">
<title>CCNodeRGBA</title>
<!-- Node1 -->
<g id="node1" class="node">
<title>Node1</title>
<g id="a_node1"><a xlink:title="CCNodeRGBA is a subclass of CCNode that implements the CCRGBAProtocol protocol.">
<polygon fill="#999999" stroke="#666666" points="421,-111 338,-111 338,-92 421,-92 421,-111"/>
<text text-anchor="middle" x="379.5" y="-99" font-family="Helvetica,sans-Serif" font-size="10.00">CCNodeRGBA</text>
</a>
</g>
</g>
<!-- Node6 -->
<g id="node6" class="node">
<title>Node6</title>
<g id="a_node6"><a xlink:href="../../d7/d70/classcocos2d_1_1_c_c_atlas_node.html" target="_top" xlink:title="CCAtlasNode is a subclass of CCNode that implements the CCRGBAProtocol and CCTextureProtocol protocol...">
<polygon fill="white" stroke="#666666" points="547.5,-222 467.5,-222 467.5,-203 547.5,-203 547.5,-222"/>
<text text-anchor="middle" x="507.5" y="-210" font-family="Helvetica,sans-Serif" font-size="10.00">CCAtlasNode</text>
</a>
</g>
</g>
<!-- Node1&#45;&gt;Node6 -->
<g id="edge5" class="edge">
<title>Node1&#45;&gt;Node6</title>
<path fill="none" stroke="#63b8ff" d="M396.55,-118.62C411.59,-134.32 434.99,-157.88 457,-176.5 468.36,-186.11 482.1,-195.97 492.22,-202.94"/>
<polygon fill="#63b8ff" stroke="#63b8ff" points="398.93,-116.04 389.5,-111.2 393.85,-120.86 398.93,-116.04"/>
</g>
<!-- Node9 -->
<g id="node9" class="node">
<title>Node9</title>
<g id="a_node9"><a xlink:href="../../d3/ddc/classcocos2d_1_1_c_c_menu_item.html" target="_top" xlink:title="CCMenuItem base class.">
<polygon fill="white" stroke="#666666" points="547.5,-167 467.5,-167 467.5,-148 547.5,-148 547.5,-167"/>
<text text-anchor="middle" x="507.5" y="-155" font-family="Helvetica,sans-Serif" font-size="10.00">CCMenuItem</text>
</a>
</g>
</g>
<!-- Node1&#45;&gt;Node9 -->
<g id="edge8" class="edge">
<title>Node1&#45;&gt;Node9</title>
<path fill="none" stroke="#63b8ff" d="M407.4,-115.79C421.91,-123.25 440.23,-132.31 457,-139.5 463.89,-142.45 471.45,-145.36 478.53,-147.95"/>
<polygon fill="#63b8ff" stroke="#63b8ff" points="408.96,-112.65 398.47,-111.14 405.73,-118.86 408.96,-112.65"/>
</g>
<!-- Node16 -->
<g id="node16" class="node">
<title>Node16</title>
<g id="a_node16"><a xlink:href="../../d9/d38/classcocos2d_1_1_c_c_motion_streak.html" target="_top" xlink:title="MotionStreak.">
<polygon fill="white" stroke="#666666" points="555,-130 460,-130 460,-111 555,-111 555,-130"/>
<text text-anchor="middle" x="507.5" y="-118" font-family="Helvetica,sans-Serif" font-size="10.00">CCMotionStreak</text>
</a>
</g>
</g>
<!-- Node1&#45;&gt;Node16 -->
<g id="edge15" class="edge">
<title>Node1&#45;&gt;Node16</title>
<path fill="none" stroke="#63b8ff" d="M431.16,-109.14C440.65,-110.57 450.52,-112.06 459.88,-113.47"/>
<polygon fill="#63b8ff" stroke="#63b8ff" points="431.47,-105.65 421.06,-107.62 430.43,-112.57 431.47,-105.65"/>
</g>
<!-- Node17 -->
<g id="node17" class="node">
<title>Node17</title>
<g id="a_node17"><a xlink:href="../../dc/db9/classcocos2d_1_1_c_c_progress_timer.html" target="_top" xlink:title="CCProgressTimer is a subclass of CCNode.">
<polygon fill="white" stroke="#666666" points="558,-93 457,-93 457,-74 558,-74 558,-93"/>
<text text-anchor="middle" x="507.5" y="-81" font-family="Helvetica,sans-Serif" font-size="10.00">CCProgressTimer</text>
</a>
</g>
</g>
<!-- Node1&#45;&gt;Node17 -->
<g id="edge16" class="edge">
<title>Node1&#45;&gt;Node17</title>
<path fill="none" stroke="#63b8ff" d="M431.16,-94.26C439.59,-93.06 448.34,-91.81 456.75,-90.61"/>
<polygon fill="#63b8ff" stroke="#63b8ff" points="430.47,-90.83 421.06,-95.71 431.46,-97.76 430.47,-90.83"/>
</g>
<!-- Node18 -->
<g id="node18" class="node">
<title>Node18</title>
<g id="a_node18"><a xlink:href="../../d4/de7/classcocos2d_1_1_c_c_sprite.html" target="_top" xlink:title="CCSprite is a 2d image ( http://en.wikipedia.org/wiki/Sprite_(computer_graphics) )">
<polygon fill="white" stroke="#666666" points="537,-56 478,-56 478,-37 537,-37 537,-56"/>
<text text-anchor="middle" x="507.5" y="-44" font-family="Helvetica,sans-Serif" font-size="10.00">CCSprite</text>
</a>
</g>
</g>
<!-- Node1&#45;&gt;Node18 -->
<g id="edge17" class="edge">
<title>Node1&#45;&gt;Node18</title>
<path fill="none" stroke="#63b8ff" d="M408.14,-87.29C422.55,-80.1 440.55,-71.45 457,-64.5 463.99,-61.55 471.65,-58.62 478.81,-56"/>
<polygon fill="#63b8ff" stroke="#63b8ff" points="406.16,-84.37 398.81,-91.99 409.31,-90.62 406.16,-84.37"/>
</g>
<!-- Node21 -->
<g id="node21" class="node">
<title>Node21</title>
<g id="a_node21"><a xlink:href="../../d7/d8b/classcocos2d_1_1extension_1_1_c_c_scale9_sprite.html" target="_top" xlink:title="A 9&#45;slice sprite for cocos2d.">
<polygon fill="white" stroke="#666666" points="553,-19 462,-19 462,0 553,0 553,-19"/>
<text text-anchor="middle" x="507.5" y="-7" font-family="Helvetica,sans-Serif" font-size="10.00">CCScale9Sprite</text>
</a>
</g>
</g>
<!-- Node1&#45;&gt;Node21 -->
<g id="edge20" class="edge">
<title>Node1&#45;&gt;Node21</title>
<path fill="none" stroke="#63b8ff" d="M395.02,-83.66C409.29,-67.13 432.45,-42.85 457,-27.5 462.27,-24.2 468.24,-21.39 474.15,-19.03"/>
<polygon fill="#63b8ff" stroke="#63b8ff" points="392.18,-81.61 388.41,-91.51 397.53,-86.12 392.18,-81.61"/>
</g>
<!-- Node2 -->
<g id="node2" class="node">
<title>Node2</title>
<g id="a_node2"><a xlink:href="../../d0/ded/classcocos2d_1_1_c_c_node.html" target="_top" xlink:title="CCNode is the main element.">
<polygon fill="white" stroke="#666666" points="281,-130 225,-130 225,-111 281,-111 281,-130"/>
<text text-anchor="middle" x="253" y="-118" font-family="Helvetica,sans-Serif" font-size="10.00">CCNode</text>
</a>
</g>
</g>
<!-- Node2&#45;&gt;Node1 -->
<g id="edge1" class="edge">
<title>Node2&#45;&gt;Node1</title>
<path fill="none" stroke="#63b8ff" d="M291.25,-114.82C305.92,-112.58 322.82,-110 337.81,-107.71"/>
<polygon fill="#63b8ff" stroke="#63b8ff" points="290.37,-111.41 281.01,-116.38 291.43,-118.33 290.37,-111.41"/>
</g>
<!-- Node3 -->
<g id="node3" class="node">
<title>Node3</title>
<g id="a_node3"><a xlink:href="../../d3/dbf/classcocos2d_1_1_c_c_object.html" target="_top" xlink:title="NA.">
<polygon fill="white" stroke="#666666" points="168,-130 106,-130 106,-111 168,-111 168,-130"/>
<text text-anchor="middle" x="137" y="-118" font-family="Helvetica,sans-Serif" font-size="10.00">CCObject</text>
</a>
</g>
</g>
<!-- Node3&#45;&gt;Node2 -->
<g id="edge2" class="edge">
<title>Node3&#45;&gt;Node2</title>
<path fill="none" stroke="#63b8ff" d="M178.52,-120.5C193.84,-120.5 210.91,-120.5 224.73,-120.5"/>
<polygon fill="#63b8ff" stroke="#63b8ff" points="178.25,-117 168.25,-120.5 178.25,-124 178.25,-117"/>
</g>
<!-- Node4 -->
<g id="node4" class="node">
<title>Node4</title>
<g id="a_node4"><a xlink:href="../../d5/d61/classcocos2d_1_1_c_c_copying.html" target="_top" xlink:title="NA NA.">
<polygon fill="white" stroke="#666666" points="70,-130 0,-130 0,-111 70,-111 70,-130"/>
<text text-anchor="middle" x="35" y="-118" font-family="Helvetica,sans-Serif" font-size="10.00">CCCopying</text>
</a>
</g>
</g>
<!-- Node4&#45;&gt;Node3 -->
<g id="edge3" class="edge">
<title>Node4&#45;&gt;Node3</title>
<path fill="none" stroke="#63b8ff" d="M80.39,-120.5C88.95,-120.5 97.72,-120.5 105.7,-120.5"/>
<polygon fill="#63b8ff" stroke="#63b8ff" points="80.13,-117 70.13,-120.5 80.13,-124 80.13,-117"/>
</g>
<!-- Node5 -->
<g id="node5" class="node">
<title>Node5</title>
<g id="a_node5"><a xlink:href="../../d8/dda/classcocos2d_1_1_c_c_r_g_b_a_protocol.html" target="_top" xlink:title="RGBA protocol that affects CCNode&#39;s color and opacity NA.">
<polygon fill="white" stroke="#666666" points="302,-93 204,-93 204,-74 302,-74 302,-93"/>
<text text-anchor="middle" x="253" y="-81" font-family="Helvetica,sans-Serif" font-size="10.00">CCRGBAProtocol</text>
</a>
</g>
</g>
<!-- Node5&#45;&gt;Node1 -->
<g id="edge4" class="edge">
<title>Node5&#45;&gt;Node1</title>
<path fill="none" stroke="#63b8ff" d="M312.19,-91.91C320.84,-93.16 329.59,-94.43 337.77,-95.61"/>
<polygon fill="#63b8ff" stroke="#63b8ff" points="312.53,-88.43 302.13,-90.46 311.53,-95.35 312.53,-88.43"/>
</g>
<!-- Node7 -->
<g id="node7" class="node">
<title>Node7</title>
<g id="a_node7"><a xlink:href="../../d7/d84/classcocos2d_1_1_c_c_label_atlas.html" target="_top" xlink:title="CCLabelAtlas is a subclass of CCAtlasNode.">
<polygon fill="white" stroke="#666666" points="690,-259 609,-259 609,-240 690,-240 690,-259"/>
<text text-anchor="middle" x="649.5" y="-247" font-family="Helvetica,sans-Serif" font-size="10.00">CCLabelAtlas</text>
</a>
</g>
</g>
<!-- Node6&#45;&gt;Node7 -->
<g id="edge6" class="edge">
<title>Node6&#45;&gt;Node7</title>
<path fill="none" stroke="#63b8ff" d="M554.36,-224.62C573.09,-229.57 594.45,-235.22 612.08,-239.88"/>
<polygon fill="#63b8ff" stroke="#63b8ff" points="555.12,-221.2 544.55,-222.03 553.33,-227.97 555.12,-221.2"/>
</g>
<!-- Node8 -->
<g id="node8" class="node">
<title>Node8</title>
<g id="a_node8"><a xlink:href="../../d2/d8b/classcocos2d_1_1_c_c_tile_map_atlas.html" target="_top" xlink:title="CCTileMapAtlas is a subclass of CCAtlasNode.">
<polygon fill="white" stroke="#666666" points="696.5,-222 602.5,-222 602.5,-203 696.5,-203 696.5,-222"/>
<text text-anchor="middle" x="649.5" y="-210" font-family="Helvetica,sans-Serif" font-size="10.00">CCTileMapAtlas</text>
</a>
</g>
</g>
<!-- Node6&#45;&gt;Node8 -->
<g id="edge7" class="edge">
<title>Node6&#45;&gt;Node8</title>
<path fill="none" stroke="#63b8ff" d="M558.13,-212.5C572.57,-212.5 588.28,-212.5 602.5,-212.5"/>
<polygon fill="#63b8ff" stroke="#63b8ff" points="557.87,-209 547.87,-212.5 557.87,-216 557.87,-209"/>
</g>
<!-- Node10 -->
<g id="node10" class="node">
<title>Node10</title>
<g id="a_node10"><a xlink:href="../../d3/dc3/classcocos2d_1_1_c_c_menu_item_label.html" target="_top" xlink:title="An abstract class for &quot;label&quot; CCMenuItemLabel items Any CCNode that supports the CCLabelProtocol prot...">
<polygon fill="white" stroke="#666666" points="702.5,-185 596.5,-185 596.5,-166 702.5,-166 702.5,-185"/>
<text text-anchor="middle" x="649.5" y="-173" font-family="Helvetica,sans-Serif" font-size="10.00">CCMenuItemLabel</text>
</a>
</g>
</g>
<!-- Node9&#45;&gt;Node10 -->
<g id="edge9" class="edge">
<title>Node9&#45;&gt;Node10</title>
<path fill="none" stroke="#63b8ff" d="M558.04,-163.87C570.46,-165.47 583.82,-167.18 596.36,-168.8"/>
<polygon fill="#63b8ff" stroke="#63b8ff" points="558.24,-160.37 547.87,-162.56 557.34,-167.31 558.24,-160.37"/>
</g>
<!-- Node13 -->
<g id="node13" class="node">
<title>Node13</title>
<g id="a_node13"><a xlink:href="../../db/dbd/classcocos2d_1_1_c_c_menu_item_sprite.html" target="_top" xlink:title="CCMenuItemSprite accepts CCNode&lt;CCRGBAProtocol&gt; objects as items.">
<polygon fill="white" stroke="#666666" points="703.5,-148 595.5,-148 595.5,-129 703.5,-129 703.5,-148"/>
<text text-anchor="middle" x="649.5" y="-136" font-family="Helvetica,sans-Serif" font-size="10.00">CCMenuItemSprite</text>
</a>
</g>
</g>
<!-- Node9&#45;&gt;Node13 -->
<g id="edge12" class="edge">
<title>Node9&#45;&gt;Node13</title>
<path fill="none" stroke="#63b8ff" d="M557.82,-150.81C569.96,-149.16 583.01,-147.39 595.32,-145.72"/>
<polygon fill="#63b8ff" stroke="#63b8ff" points="557.31,-147.34 547.87,-152.16 558.25,-154.28 557.31,-147.34"/>
</g>
<!-- Node15 -->
<g id="node15" class="node">
<title>Node15</title>
<g id="a_node15"><a xlink:href="../../dd/dd3/classcocos2d_1_1_c_c_menu_item_toggle.html" target="_top" xlink:title="A CCMenuItemToggle A simple container class that &quot;toggles&quot; it&#39;s inner items The inner items can be an...">
<polygon fill="white" stroke="#666666" points="705,-111 594,-111 594,-92 705,-92 705,-111"/>
<text text-anchor="middle" x="649.5" y="-99" font-family="Helvetica,sans-Serif" font-size="10.00">CCMenuItemToggle</text>
</a>
</g>
</g>
<!-- Node9&#45;&gt;Node15 -->
<g id="edge14" class="edge">
<title>Node9&#45;&gt;Node15</title>
<path fill="none" stroke="#63b8ff" d="M546.65,-144.32C550.52,-142.78 554.36,-141.16 558,-139.5 574.65,-131.9 577.24,-126.85 594,-119.5 601.03,-116.42 608.76,-113.56 616.13,-111.08"/>
<polygon fill="#63b8ff" stroke="#63b8ff" points="545.17,-141.14 537.08,-147.98 547.67,-147.68 545.17,-141.14"/>
</g>
<!-- Node11 -->
<g id="node11" class="node">
<title>Node11</title>
<g id="a_node11"><a xlink:href="../../d4/dc6/classcocos2d_1_1_c_c_menu_item_atlas_font.html" target="_top" xlink:title="A CCMenuItemAtlasFont Helper class that creates a MenuItemLabel class with a LabelAtlas.">
<polygon fill="white" stroke="#666666" points="866,-222 741,-222 741,-203 866,-203 866,-222"/>
<text text-anchor="middle" x="803.5" y="-210" font-family="Helvetica,sans-Serif" font-size="10.00">CCMenuItemAtlasFont</text>
</a>
</g>
</g>
<!-- Node10&#45;&gt;Node11 -->
<g id="edge10" class="edge">
<title>Node10&#45;&gt;Node11</title>
<path fill="none" stroke="#63b8ff" d="M699.49,-187.43C720.11,-192.44 743.78,-198.21 763.22,-202.94"/>
<polygon fill="#63b8ff" stroke="#63b8ff" points="700.19,-183.99 689.64,-185.03 698.53,-190.79 700.19,-183.99"/>
</g>
<!-- Node12 -->
<g id="node12" class="node">
<title>Node12</title>
<g id="a_node12"><a xlink:href="../../d0/d45/classcocos2d_1_1_c_c_menu_item_font.html" target="_top" xlink:title="A CCMenuItemFont Helper class that creates a CCMenuItemLabel class with a Label.">
<polygon fill="white" stroke="#666666" points="854,-185 753,-185 753,-166 854,-166 854,-185"/>
<text text-anchor="middle" x="803.5" y="-173" font-family="Helvetica,sans-Serif" font-size="10.00">CCMenuItemFont</text>
</a>
</g>
</g>
<!-- Node10&#45;&gt;Node12 -->
<g id="edge11" class="edge">
<title>Node10&#45;&gt;Node12</title>
<path fill="none" stroke="#63b8ff" d="M712.87,-175.5C726.21,-175.5 740.13,-175.5 752.91,-175.5"/>
<polygon fill="#63b8ff" stroke="#63b8ff" points="712.81,-172 702.81,-175.5 712.81,-179 712.81,-172"/>
</g>
<!-- Node14 -->
<g id="node14" class="node">
<title>Node14</title>
<g id="a_node14"><a xlink:href="../../d0/d4f/classcocos2d_1_1_c_c_menu_item_image.html" target="_top" xlink:title="CCMenuItemImage accepts images as items.">
<polygon fill="white" stroke="#666666" points="858.5,-148 748.5,-148 748.5,-129 858.5,-129 858.5,-148"/>
<text text-anchor="middle" x="803.5" y="-136" font-family="Helvetica,sans-Serif" font-size="10.00">CCMenuItemImage</text>
</a>
</g>
</g>
<!-- Node13&#45;&gt;Node14 -->
<g id="edge13" class="edge">
<title>Node13&#45;&gt;Node14</title>
<path fill="none" stroke="#63b8ff" d="M714.01,-138.5C725.42,-138.5 737.22,-138.5 748.34,-138.5"/>
<polygon fill="#63b8ff" stroke="#63b8ff" points="713.66,-135 703.66,-138.5 713.66,-142 713.66,-135"/>
</g>
<!-- Node19 -->
<g id="node19" class="node">
<title>Node19</title>
<g id="a_node19"><a xlink:href="../../df/d72/classcocos2d_1_1_c_c_label_t_t_f.html" target="_top" xlink:title="CCLabelTTF is a subclass of CCTextureNode that knows how to render text labels.">
<polygon fill="white" stroke="#666666" points="686.5,-56 612.5,-56 612.5,-37 686.5,-37 686.5,-56"/>
<text text-anchor="middle" x="649.5" y="-44" font-family="Helvetica,sans-Serif" font-size="10.00">CCLabelTTF</text>
</a>
</g>
</g>
<!-- Node18&#45;&gt;Node19 -->
<g id="edge18" class="edge">
<title>Node18&#45;&gt;Node19</title>
<path fill="none" stroke="#63b8ff" d="M547.36,-46.5C567.71,-46.5 592.46,-46.5 612.39,-46.5"/>
<polygon fill="#63b8ff" stroke="#63b8ff" points="547.17,-43 537.17,-46.5 547.17,-50 547.17,-43"/>
</g>
<!-- Node20 -->
<g id="node20" class="node">
<title>Node20</title>
<g id="a_node20"><a xlink:href="../../d4/d5b/classcocos2d_1_1_c_c_text_field_t_t_f.html" target="_top" xlink:title="A simple text input field with TTF font.">
<polygon fill="white" stroke="#666666" points="849.5,-56 757.5,-56 757.5,-37 849.5,-37 849.5,-56"/>
<text text-anchor="middle" x="803.5" y="-44" font-family="Helvetica,sans-Serif" font-size="10.00">CCTextFieldTTF</text>
</a>
</g>
</g>
<!-- Node19&#45;&gt;Node20 -->
<g id="edge19" class="edge">
<title>Node19&#45;&gt;Node20</title>
<path fill="none" stroke="#63b8ff" d="M696.6,-46.5C715.91,-46.5 738.29,-46.5 757.48,-46.5"/>
<polygon fill="#63b8ff" stroke="#63b8ff" points="696.52,-43 686.52,-46.5 696.52,-50 696.52,-43"/>
</g>
</g>
</svg>
