<?xml version="1.0" encoding="UTF-8" standalone="no"?>
<!DOCTYPE svg PUBLIC "-//W3C//DTD SVG 1.1//EN"
 "http://www.w3.org/Graphics/SVG/1.1/DTD/svg11.dtd">
<!-- Generated by graphviz version 2.43.0 (0)
 -->
<!-- Title: CCNodeRGBA Pages: 1 -->
<svg width="874pt" height="275pt"
 viewBox="0.00 0.00 874.00 275.00" xmlns="http://www.w3.org/2000/svg" xmlns:xlink="http://www.w3.org/1999/xlink">
<g id="graph0" class="graph" transform="scale(1 1) rotate(0) translate(4 271)">
<title>CCNodeRGBA</title>
<!-- Node1 -->
<g id="node1" class="node">
<title>Node1</title>
<g id="a_node1"><a xlink:title="CCNodeRGBA is a subclass of CCNode that implements the CCRGBAProtocol protocol.">
<polygon fill="#bfbfbf" stroke="black" points="338,-95.5 338,-114.5 421,-114.5 421,-95.5 338,-95.5"/>
<text text-anchor="middle" x="379.5" y="-102.5" font-family="Helvetica,sans-Serif" font-size="10.00">CCNodeRGBA</text>
</a>
</g>
</g>
<!-- Node6 -->
<g id="node6" class="node">
<title>Node6</title>
<g id="a_node6"><a xlink:href="../../d7/d70/classcocos2d_1_1_c_c_atlas_node.html" target="_top" xlink:title="CCAtlasNode is a subclass of CCNode that implements the CCRGBAProtocol and CCTextureProtocol protocol...">
<polygon fill="none" stroke="black" points="467.5,-209.5 467.5,-228.5 547.5,-228.5 547.5,-209.5 467.5,-209.5"/>
<text text-anchor="middle" x="507.5" y="-216.5" font-family="Helvetica,sans-Serif" font-size="10.00">CCAtlasNode</text>
</a>
</g>
</g>
<!-- Node1&#45;&gt;Node6 -->
<g id="edge5" class="edge">
<title>Node1&#45;&gt;Node6</title>
<path fill="none" stroke="midnightblue" d="M396.63,-122.24C411.72,-138.07 435.16,-161.9 457,-181 468.75,-191.27 482.94,-202.01 493.11,-209.44"/>
<polygon fill="midnightblue" stroke="midnightblue" points="398.97,-119.62 389.55,-114.76 393.88,-124.43 398.97,-119.62"/>
</g>
<!-- Node9 -->
<g id="node9" class="node">
<title>Node9</title>
<g id="a_node9"><a xlink:href="../../d3/ddc/classcocos2d_1_1_c_c_menu_item.html" target="_top" xlink:title="CCMenuItem base class.">
<polygon fill="none" stroke="black" points="467.5,-152.5 467.5,-171.5 547.5,-171.5 547.5,-152.5 467.5,-152.5"/>
<text text-anchor="middle" x="507.5" y="-159.5" font-family="Helvetica,sans-Serif" font-size="10.00">CCMenuItem</text>
</a>
</g>
</g>
<!-- Node1&#45;&gt;Node9 -->
<g id="edge8" class="edge">
<title>Node1&#45;&gt;Node9</title>
<path fill="none" stroke="midnightblue" d="M407.45,-119.17C421.97,-126.6 440.29,-135.66 457,-143 464.5,-146.29 472.77,-149.59 480.36,-152.5"/>
<polygon fill="midnightblue" stroke="midnightblue" points="409,-116.03 398.51,-114.55 405.79,-122.25 409,-116.03"/>
</g>
<!-- Node16 -->
<g id="node16" class="node">
<title>Node16</title>
<g id="a_node16"><a xlink:href="../../d9/d38/classcocos2d_1_1_c_c_motion_streak.html" target="_top" xlink:title="MotionStreak.">
<polygon fill="none" stroke="black" points="460,-114.5 460,-133.5 555,-133.5 555,-114.5 460,-114.5"/>
<text text-anchor="middle" x="507.5" y="-121.5" font-family="Helvetica,sans-Serif" font-size="10.00">CCMotionStreak</text>
</a>
</g>
</g>
<!-- Node1&#45;&gt;Node16 -->
<g id="edge15" class="edge">
<title>Node1&#45;&gt;Node16</title>
<path fill="none" stroke="midnightblue" d="M431.16,-112.64C440.65,-114.07 450.52,-115.56 459.88,-116.97"/>
<polygon fill="midnightblue" stroke="midnightblue" points="431.47,-109.15 421.06,-111.12 430.43,-116.07 431.47,-109.15"/>
</g>
<!-- Node17 -->
<g id="node17" class="node">
<title>Node17</title>
<g id="a_node17"><a xlink:href="../../dc/db9/classcocos2d_1_1_c_c_progress_timer.html" target="_top" xlink:title="CCProgressTimer is a subclass of CCNode.">
<polygon fill="none" stroke="black" points="457,-76.5 457,-95.5 558,-95.5 558,-76.5 457,-76.5"/>
<text text-anchor="middle" x="507.5" y="-83.5" font-family="Helvetica,sans-Serif" font-size="10.00">CCProgressTimer</text>
</a>
</g>
</g>
<!-- Node1&#45;&gt;Node17 -->
<g id="edge16" class="edge">
<title>Node1&#45;&gt;Node17</title>
<path fill="none" stroke="midnightblue" d="M431.16,-97.36C439.59,-96.09 448.34,-94.77 456.75,-93.5"/>
<polygon fill="midnightblue" stroke="midnightblue" points="430.43,-93.93 421.06,-98.88 431.47,-100.85 430.43,-93.93"/>
</g>
<!-- Node18 -->
<g id="node18" class="node">
<title>Node18</title>
<g id="a_node18"><a xlink:href="../../d4/de7/classcocos2d_1_1_c_c_sprite.html" target="_top" xlink:title="CCSprite is a 2d image ( http://en.wikipedia.org/wiki/Sprite_(computer_graphics) )">
<polygon fill="none" stroke="black" points="478,-38.5 478,-57.5 537,-57.5 537,-38.5 478,-38.5"/>
<text text-anchor="middle" x="507.5" y="-45.5" font-family="Helvetica,sans-Serif" font-size="10.00">CCSprite</text>
</a>
</g>
</g>
<!-- Node1&#45;&gt;Node18 -->
<g id="edge17" class="edge">
<title>Node1&#45;&gt;Node18</title>
<path fill="none" stroke="midnightblue" d="M407.45,-90.83C421.97,-83.4 440.29,-74.34 457,-67 464.5,-63.71 472.77,-60.41 480.36,-57.5"/>
<polygon fill="midnightblue" stroke="midnightblue" points="405.79,-87.75 398.51,-95.45 409,-93.97 405.79,-87.75"/>
</g>
<!-- Node21 -->
<g id="node21" class="node">
<title>Node21</title>
<g id="a_node21"><a xlink:href="../../d7/d8b/classcocos2d_1_1extension_1_1_c_c_scale9_sprite.html" target="_top" xlink:title="A 9&#45;slice sprite for cocos2d.">
<polygon fill="none" stroke="black" points="462,-0.5 462,-19.5 553,-19.5 553,-0.5 462,-0.5"/>
<text text-anchor="middle" x="507.5" y="-7.5" font-family="Helvetica,sans-Serif" font-size="10.00">CCScale9Sprite</text>
</a>
</g>
</g>
<!-- Node1&#45;&gt;Node21 -->
<g id="edge20" class="edge">
<title>Node1&#45;&gt;Node21</title>
<path fill="none" stroke="midnightblue" d="M394.53,-87.3C408.73,-70.38 432.1,-45.11 457,-29 462.72,-25.3 469.27,-22.15 475.69,-19.54"/>
<polygon fill="midnightblue" stroke="midnightblue" points="391.6,-85.35 387.97,-95.3 397.02,-89.79 391.6,-85.35"/>
</g>
<!-- Node2 -->
<g id="node2" class="node">
<title>Node2</title>
<g id="a_node2"><a xlink:href="../../d0/ded/classcocos2d_1_1_c_c_node.html" target="_top" xlink:title="CCNode is the main element.">
<polygon fill="none" stroke="black" points="225,-114.5 225,-133.5 281,-133.5 281,-114.5 225,-114.5"/>
<text text-anchor="middle" x="253" y="-121.5" font-family="Helvetica,sans-Serif" font-size="10.00">CCNode</text>
</a>
</g>
</g>
<!-- Node2&#45;&gt;Node1 -->
<g id="edge1" class="edge">
<title>Node2&#45;&gt;Node1</title>
<path fill="none" stroke="midnightblue" d="M291.25,-118.32C305.92,-116.08 322.82,-113.5 337.81,-111.21"/>
<polygon fill="midnightblue" stroke="midnightblue" points="290.37,-114.91 281.01,-119.88 291.43,-121.83 290.37,-114.91"/>
</g>
<!-- Node3 -->
<g id="node3" class="node">
<title>Node3</title>
<g id="a_node3"><a xlink:href="../../d3/dbf/classcocos2d_1_1_c_c_object.html" target="_top" xlink:title="NA.">
<polygon fill="none" stroke="black" points="106,-114.5 106,-133.5 168,-133.5 168,-114.5 106,-114.5"/>
<text text-anchor="middle" x="137" y="-121.5" font-family="Helvetica,sans-Serif" font-size="10.00">CCObject</text>
</a>
</g>
</g>
<!-- Node3&#45;&gt;Node2 -->
<g id="edge2" class="edge">
<title>Node3&#45;&gt;Node2</title>
<path fill="none" stroke="midnightblue" d="M178.52,-124C193.84,-124 210.91,-124 224.73,-124"/>
<polygon fill="midnightblue" stroke="midnightblue" points="178.25,-120.5 168.25,-124 178.25,-127.5 178.25,-120.5"/>
</g>
<!-- Node4 -->
<g id="node4" class="node">
<title>Node4</title>
<g id="a_node4"><a xlink:href="../../d5/d61/classcocos2d_1_1_c_c_copying.html" target="_top" xlink:title="NA NA.">
<polygon fill="none" stroke="black" points="0,-114.5 0,-133.5 70,-133.5 70,-114.5 0,-114.5"/>
<text text-anchor="middle" x="35" y="-121.5" font-family="Helvetica,sans-Serif" font-size="10.00">CCCopying</text>
</a>
</g>
</g>
<!-- Node4&#45;&gt;Node3 -->
<g id="edge3" class="edge">
<title>Node4&#45;&gt;Node3</title>
<path fill="none" stroke="midnightblue" d="M80.39,-124C88.95,-124 97.72,-124 105.7,-124"/>
<polygon fill="midnightblue" stroke="midnightblue" points="80.13,-120.5 70.13,-124 80.13,-127.5 80.13,-120.5"/>
</g>
<!-- Node5 -->
<g id="node5" class="node">
<title>Node5</title>
<g id="a_node5"><a xlink:href="../../d8/dda/classcocos2d_1_1_c_c_r_g_b_a_protocol.html" target="_top" xlink:title="RGBA protocol that affects CCNode&#39;s color and opacity NA.">
<polygon fill="none" stroke="black" points="204,-76.5 204,-95.5 302,-95.5 302,-76.5 204,-76.5"/>
<text text-anchor="middle" x="253" y="-83.5" font-family="Helvetica,sans-Serif" font-size="10.00">CCRGBAProtocol</text>
</a>
</g>
</g>
<!-- Node5&#45;&gt;Node1 -->
<g id="edge4" class="edge">
<title>Node5&#45;&gt;Node1</title>
<path fill="none" stroke="midnightblue" d="M312.19,-94.88C320.84,-96.2 329.59,-97.54 337.77,-98.78"/>
<polygon fill="midnightblue" stroke="midnightblue" points="312.55,-91.39 302.13,-93.35 311.49,-98.31 312.55,-91.39"/>
</g>
<!-- Node7 -->
<g id="node7" class="node">
<title>Node7</title>
<g id="a_node7"><a xlink:href="../../d7/d84/classcocos2d_1_1_c_c_label_atlas.html" target="_top" xlink:title="CCLabelAtlas is a subclass of CCAtlasNode.">
<polygon fill="none" stroke="black" points="609,-247.5 609,-266.5 690,-266.5 690,-247.5 609,-247.5"/>
<text text-anchor="middle" x="649.5" y="-254.5" font-family="Helvetica,sans-Serif" font-size="10.00">CCLabelAtlas</text>
</a>
</g>
</g>
<!-- Node6&#45;&gt;Node7 -->
<g id="edge6" class="edge">
<title>Node6&#45;&gt;Node7</title>
<path fill="none" stroke="midnightblue" d="M553.62,-231.25C572.91,-236.48 595.11,-242.51 613.18,-247.41"/>
<polygon fill="midnightblue" stroke="midnightblue" points="554.4,-227.83 543.83,-228.59 552.56,-234.59 554.4,-227.83"/>
</g>
<!-- Node8 -->
<g id="node8" class="node">
<title>Node8</title>
<g id="a_node8"><a xlink:href="../../d2/d8b/classcocos2d_1_1_c_c_tile_map_atlas.html" target="_top" xlink:title="CCTileMapAtlas is a subclass of CCAtlasNode.">
<polygon fill="none" stroke="black" points="602.5,-209.5 602.5,-228.5 696.5,-228.5 696.5,-209.5 602.5,-209.5"/>
<text text-anchor="middle" x="649.5" y="-216.5" font-family="Helvetica,sans-Serif" font-size="10.00">CCTileMapAtlas</text>
</a>
</g>
</g>
<!-- Node6&#45;&gt;Node8 -->
<g id="edge7" class="edge">
<title>Node6&#45;&gt;Node8</title>
<path fill="none" stroke="midnightblue" d="M558.13,-219C572.57,-219 588.28,-219 602.5,-219"/>
<polygon fill="midnightblue" stroke="midnightblue" points="557.87,-215.5 547.87,-219 557.87,-222.5 557.87,-215.5"/>
</g>
<!-- Node10 -->
<g id="node10" class="node">
<title>Node10</title>
<g id="a_node10"><a xlink:href="../../d3/dc3/classcocos2d_1_1_c_c_menu_item_label.html" target="_top" xlink:title="An abstract class for &quot;label&quot; CCMenuItemLabel items Any CCNode that supports the CCLabelProtocol prot...">
<polygon fill="none" stroke="black" points="596.5,-171.5 596.5,-190.5 702.5,-190.5 702.5,-171.5 596.5,-171.5"/>
<text text-anchor="middle" x="649.5" y="-178.5" font-family="Helvetica,sans-Serif" font-size="10.00">CCMenuItemLabel</text>
</a>
</g>
</g>
<!-- Node9&#45;&gt;Node10 -->
<g id="edge9" class="edge">
<title>Node9&#45;&gt;Node10</title>
<path fill="none" stroke="midnightblue" d="M558.04,-168.72C570.46,-170.41 583.82,-172.22 596.36,-173.92"/>
<polygon fill="midnightblue" stroke="midnightblue" points="558.25,-165.22 547.87,-167.34 557.31,-172.16 558.25,-165.22"/>
</g>
<!-- Node13 -->
<g id="node13" class="node">
<title>Node13</title>
<g id="a_node13"><a xlink:href="../../db/dbd/classcocos2d_1_1_c_c_menu_item_sprite.html" target="_top" xlink:title="CCMenuItemSprite accepts CCNode&lt;CCRGBAProtocol&gt; objects as items.">
<polygon fill="none" stroke="black" points="595.5,-133.5 595.5,-152.5 703.5,-152.5 703.5,-133.5 595.5,-133.5"/>
<text text-anchor="middle" x="649.5" y="-140.5" font-family="Helvetica,sans-Serif" font-size="10.00">CCMenuItemSprite</text>
</a>
</g>
</g>
<!-- Node9&#45;&gt;Node13 -->
<g id="edge12" class="edge">
<title>Node9&#45;&gt;Node13</title>
<path fill="none" stroke="midnightblue" d="M557.82,-155.31C569.96,-153.66 583.01,-151.89 595.32,-150.22"/>
<polygon fill="midnightblue" stroke="midnightblue" points="557.31,-151.84 547.87,-156.66 558.25,-158.78 557.31,-151.84"/>
</g>
<!-- Node15 -->
<g id="node15" class="node">
<title>Node15</title>
<g id="a_node15"><a xlink:href="../../dd/dd3/classcocos2d_1_1_c_c_menu_item_toggle.html" target="_top" xlink:title="A CCMenuItemToggle A simple container class that &quot;toggles&quot; it&#39;s inner items The inner items can be an...">
<polygon fill="none" stroke="black" points="594,-95.5 594,-114.5 705,-114.5 705,-95.5 594,-95.5"/>
<text text-anchor="middle" x="649.5" y="-102.5" font-family="Helvetica,sans-Serif" font-size="10.00">CCMenuItemToggle</text>
</a>
</g>
</g>
<!-- Node9&#45;&gt;Node15 -->
<g id="edge14" class="edge">
<title>Node9&#45;&gt;Node15</title>
<path fill="none" stroke="midnightblue" d="M544.85,-148.62C549.31,-146.81 553.78,-144.91 558,-143 574.47,-135.52 577.41,-131.22 594,-124 601.81,-120.6 610.44,-117.36 618.49,-114.56"/>
<polygon fill="midnightblue" stroke="midnightblue" points="543.22,-145.5 535.2,-152.42 545.79,-152.01 543.22,-145.5"/>
</g>
<!-- Node11 -->
<g id="node11" class="node">
<title>Node11</title>
<g id="a_node11"><a xlink:href="../../d4/dc6/classcocos2d_1_1_c_c_menu_item_atlas_font.html" target="_top" xlink:title="A CCMenuItemAtlasFont Helper class that creates a MenuItemLabel class with a LabelAtlas.">
<polygon fill="none" stroke="black" points="741,-209.5 741,-228.5 866,-228.5 866,-209.5 741,-209.5"/>
<text text-anchor="middle" x="803.5" y="-216.5" font-family="Helvetica,sans-Serif" font-size="10.00">CCMenuItemAtlasFont</text>
</a>
</g>
</g>
<!-- Node10&#45;&gt;Node11 -->
<g id="edge10" class="edge">
<title>Node10&#45;&gt;Node11</title>
<path fill="none" stroke="midnightblue" d="M698.66,-193.04C719.9,-198.35 744.5,-204.5 764.42,-209.48"/>
<polygon fill="midnightblue" stroke="midnightblue" points="699.41,-189.62 688.86,-190.59 697.71,-196.41 699.41,-189.62"/>
</g>
<!-- Node12 -->
<g id="node12" class="node">
<title>Node12</title>
<g id="a_node12"><a xlink:href="../../d0/d45/classcocos2d_1_1_c_c_menu_item_font.html" target="_top" xlink:title="A CCMenuItemFont Helper class that creates a CCMenuItemLabel class with a Label.">
<polygon fill="none" stroke="black" points="753,-171.5 753,-190.5 854,-190.5 854,-171.5 753,-171.5"/>
<text text-anchor="middle" x="803.5" y="-178.5" font-family="Helvetica,sans-Serif" font-size="10.00">CCMenuItemFont</text>
</a>
</g>
</g>
<!-- Node10&#45;&gt;Node12 -->
<g id="edge11" class="edge">
<title>Node10&#45;&gt;Node12</title>
<path fill="none" stroke="midnightblue" d="M712.87,-181C726.21,-181 740.13,-181 752.91,-181"/>
<polygon fill="midnightblue" stroke="midnightblue" points="712.81,-177.5 702.81,-181 712.81,-184.5 712.81,-177.5"/>
</g>
<!-- Node14 -->
<g id="node14" class="node">
<title>Node14</title>
<g id="a_node14"><a xlink:href="../../d0/d4f/classcocos2d_1_1_c_c_menu_item_image.html" target="_top" xlink:title="CCMenuItemImage accepts images as items.">
<polygon fill="none" stroke="black" points="748.5,-133.5 748.5,-152.5 858.5,-152.5 858.5,-133.5 748.5,-133.5"/>
<text text-anchor="middle" x="803.5" y="-140.5" font-family="Helvetica,sans-Serif" font-size="10.00">CCMenuItemImage</text>
</a>
</g>
</g>
<!-- Node13&#45;&gt;Node14 -->
<g id="edge13" class="edge">
<title>Node13&#45;&gt;Node14</title>
<path fill="none" stroke="midnightblue" d="M714.01,-143C725.42,-143 737.22,-143 748.34,-143"/>
<polygon fill="midnightblue" stroke="midnightblue" points="713.66,-139.5 703.66,-143 713.66,-146.5 713.66,-139.5"/>
</g>
<!-- Node19 -->
<g id="node19" class="node">
<title>Node19</title>
<g id="a_node19"><a xlink:href="../../df/d72/classcocos2d_1_1_c_c_label_t_t_f.html" target="_top" xlink:title="CCLabelTTF is a subclass of CCTextureNode that knows how to render text labels.">
<polygon fill="none" stroke="black" points="612.5,-38.5 612.5,-57.5 686.5,-57.5 686.5,-38.5 612.5,-38.5"/>
<text text-anchor="middle" x="649.5" y="-45.5" font-family="Helvetica,sans-Serif" font-size="10.00">CCLabelTTF</text>
</a>
</g>
</g>
<!-- Node18&#45;&gt;Node19 -->
<g id="edge18" class="edge">
<title>Node18&#45;&gt;Node19</title>
<path fill="none" stroke="midnightblue" d="M547.36,-48C567.71,-48 592.46,-48 612.39,-48"/>
<polygon fill="midnightblue" stroke="midnightblue" points="547.17,-44.5 537.17,-48 547.17,-51.5 547.17,-44.5"/>
</g>
<!-- Node20 -->
<g id="node20" class="node">
<title>Node20</title>
<g id="a_node20"><a xlink:href="../../d4/d5b/classcocos2d_1_1_c_c_text_field_t_t_f.html" target="_top" xlink:title="A simple text input field with TTF font.">
<polygon fill="none" stroke="black" points="757.5,-38.5 757.5,-57.5 849.5,-57.5 849.5,-38.5 757.5,-38.5"/>
<text text-anchor="middle" x="803.5" y="-45.5" font-family="Helvetica,sans-Serif" font-size="10.00">CCTextFieldTTF</text>
</a>
</g>
</g>
<!-- Node19&#45;&gt;Node20 -->
<g id="edge19" class="edge">
<title>Node19&#45;&gt;Node20</title>
<path fill="none" stroke="midnightblue" d="M696.6,-48C715.91,-48 738.29,-48 757.48,-48"/>
<polygon fill="midnightblue" stroke="midnightblue" points="696.52,-44.5 686.52,-48 696.52,-51.5 696.52,-44.5"/>
</g>
</g>
</svg>
