<?xml version="1.0" encoding="UTF-8" standalone="no"?>
<!DOCTYPE svg PUBLIC "-//W3C//DTD SVG 1.1//EN"
 "http://www.w3.org/Graphics/SVG/1.1/DTD/svg11.dtd">
<!-- Generated by graphviz version 2.43.0 (0)
 -->
<!-- Title: /home/runner/work/cocos&#45;headers/cocos&#45;headers/extensions/network/HttpRequest.h Pages: 1 -->
<svg width="326pt" height="284pt"
 viewBox="0.00 0.00 326.00 284.00" xmlns="http://www.w3.org/2000/svg" xmlns:xlink="http://www.w3.org/1999/xlink">
<g id="graph0" class="graph" transform="scale(1 1) rotate(0) translate(4 280)">
<title>/home/runner/work/cocos&#45;headers/cocos&#45;headers/extensions/network/HttpRequest.h</title>
<!-- Node1 -->
<g id="node1" class="node">
<title>Node1</title>
<g id="a_node1"><a xlink:title=" ">
<polygon fill="#bfbfbf" stroke="black" points="0,-234.5 0,-275.5 188,-275.5 188,-234.5 0,-234.5"/>
<text text-anchor="start" x="8" y="-263.5" font-family="Helvetica,sans-Serif" font-size="10.00">/home/runner/work/cocos</text>
<text text-anchor="start" x="8" y="-252.5" font-family="Helvetica,sans-Serif" font-size="10.00">&#45;headers/cocos&#45;headers</text>
<text text-anchor="middle" x="94" y="-241.5" font-family="Helvetica,sans-Serif" font-size="10.00">/extensions/network/HttpRequest.h</text>
</a>
</g>
</g>
<!-- Node2 -->
<g id="node2" class="node">
<title>Node2</title>
<g id="a_node2"><a xlink:href="../../d3/d58/cocos-ext_8h.html" target="_top" xlink:title=" ">
<polygon fill="none" stroke="black" points="68,-0.5 68,-41.5 208,-41.5 208,-0.5 68,-0.5"/>
<text text-anchor="start" x="76" y="-29.5" font-family="Helvetica,sans-Serif" font-size="10.00">/home/runner/work/cocos</text>
<text text-anchor="start" x="76" y="-18.5" font-family="Helvetica,sans-Serif" font-size="10.00">&#45;headers/cocos&#45;headers</text>
<text text-anchor="middle" x="138" y="-7.5" font-family="Helvetica,sans-Serif" font-size="10.00">/extensions/cocos&#45;ext.h</text>
</a>
</g>
</g>
<!-- Node1&#45;&gt;Node2 -->
<g id="edge1" class="edge">
<title>Node1&#45;&gt;Node2</title>
<path fill="none" stroke="midnightblue" d="M72.33,-225.77C47.43,-189.61 13.35,-125.9 41,-78 50.24,-62 65.98,-50.17 82.12,-41.61"/>
<polygon fill="midnightblue" stroke="midnightblue" points="69.77,-228.21 78.42,-234.34 75.48,-224.16 69.77,-228.21"/>
</g>
<!-- Node3 -->
<g id="node3" class="node">
<title>Node3</title>
<g id="a_node3"><a xlink:href="../../d8/d12/_http_client_8h.html" target="_top" xlink:title=" ">
<polygon fill="none" stroke="black" points="49.5,-78.5 49.5,-119.5 226.5,-119.5 226.5,-78.5 49.5,-78.5"/>
<text text-anchor="start" x="57.5" y="-107.5" font-family="Helvetica,sans-Serif" font-size="10.00">/home/runner/work/cocos</text>
<text text-anchor="start" x="57.5" y="-96.5" font-family="Helvetica,sans-Serif" font-size="10.00">&#45;headers/cocos&#45;headers</text>
<text text-anchor="middle" x="138" y="-85.5" font-family="Helvetica,sans-Serif" font-size="10.00">/extensions/network/HttpClient.h</text>
</a>
</g>
</g>
<!-- Node1&#45;&gt;Node3 -->
<g id="edge2" class="edge">
<title>Node1&#45;&gt;Node3</title>
<path fill="none" stroke="midnightblue" d="M97.96,-224.24C101.01,-204.59 105.93,-178.42 113,-156 116.94,-143.51 122.87,-130.1 127.96,-119.53"/>
<polygon fill="midnightblue" stroke="midnightblue" points="94.5,-223.74 96.49,-234.15 101.42,-224.77 94.5,-223.74"/>
</g>
<!-- Node4 -->
<g id="node4" class="node">
<title>Node4</title>
<g id="a_node4"><a xlink:href="../../d1/d33/_http_response_8h.html" target="_top" xlink:title=" ">
<polygon fill="none" stroke="black" points="122,-156.5 122,-197.5 318,-197.5 318,-156.5 122,-156.5"/>
<text text-anchor="start" x="130" y="-185.5" font-family="Helvetica,sans-Serif" font-size="10.00">/home/runner/work/cocos</text>
<text text-anchor="start" x="130" y="-174.5" font-family="Helvetica,sans-Serif" font-size="10.00">&#45;headers/cocos&#45;headers</text>
<text text-anchor="middle" x="220" y="-163.5" font-family="Helvetica,sans-Serif" font-size="10.00">/extensions/network/HttpResponse.h</text>
</a>
</g>
</g>
<!-- Node1&#45;&gt;Node4 -->
<g id="edge4" class="edge">
<title>Node1&#45;&gt;Node4</title>
<path fill="none" stroke="midnightblue" d="M135.11,-229.2C152.16,-218.92 171.66,-207.16 187.66,-197.51"/>
<polygon fill="midnightblue" stroke="midnightblue" points="133.2,-226.27 126.45,-234.43 136.82,-232.26 133.2,-226.27"/>
</g>
<!-- Node3&#45;&gt;Node2 -->
<g id="edge3" class="edge">
<title>Node3&#45;&gt;Node2</title>
<path fill="none" stroke="midnightblue" d="M138,-68.3C138,-59.3 138,-49.65 138,-41.51"/>
<polygon fill="midnightblue" stroke="midnightblue" points="134.5,-68.43 138,-78.43 141.5,-68.43 134.5,-68.43"/>
</g>
<!-- Node4&#45;&gt;Node2 -->
<g id="edge5" class="edge">
<title>Node4&#45;&gt;Node2</title>
<path fill="none" stroke="midnightblue" d="M233.86,-146.76C241.43,-126.25 247.06,-98.88 235,-78 225.76,-62 210.02,-50.17 193.88,-41.61"/>
<polygon fill="midnightblue" stroke="midnightblue" points="230.54,-145.63 230.05,-156.22 237.03,-148.24 230.54,-145.63"/>
</g>
<!-- Node4&#45;&gt;Node3 -->
<g id="edge6" class="edge">
<title>Node4&#45;&gt;Node3</title>
<path fill="none" stroke="midnightblue" d="M191.4,-149.49C180.76,-139.63 168.89,-128.63 159.05,-119.51"/>
<polygon fill="midnightblue" stroke="midnightblue" points="189.17,-152.2 198.88,-156.43 193.93,-147.06 189.17,-152.2"/>
</g>
</g>
</svg>
