<?xml version="1.0" encoding="UTF-8" standalone="no"?>
<!DOCTYPE svg PUBLIC "-//W3C//DTD SVG 1.1//EN"
 "http://www.w3.org/Graphics/SVG/1.1/DTD/svg11.dtd">
<!-- Generated by graphviz version 2.43.0 (0)
 -->
<!-- Title: /home/runner/work/cocos&#45;headers/cocos&#45;headers/cocos2dx/textures/CCTextureETC.h Pages: 1 -->
<svg width="393pt" height="386pt"
 viewBox="0.00 0.00 393.00 386.00" xmlns="http://www.w3.org/2000/svg" xmlns:xlink="http://www.w3.org/1999/xlink">
<g id="graph0" class="graph" transform="scale(1 1) rotate(0) translate(4 382)">
<title>/home/runner/work/cocos&#45;headers/cocos&#45;headers/cocos2dx/textures/CCTextureETC.h</title>
<!-- Node1 -->
<g id="node1" class="node">
<title>Node1</title>
<g id="a_node1"><a xlink:title=" ">
<polygon fill="#bfbfbf" stroke="black" points="0,-336.5 0,-377.5 188,-377.5 188,-336.5 0,-336.5"/>
<text text-anchor="start" x="8" y="-365.5" font-family="Helvetica,sans-Serif" font-size="10.00">/home/runner/work/cocos</text>
<text text-anchor="start" x="8" y="-354.5" font-family="Helvetica,sans-Serif" font-size="10.00">&#45;headers/cocos&#45;headers</text>
<text text-anchor="middle" x="94" y="-343.5" font-family="Helvetica,sans-Serif" font-size="10.00">/cocos2dx/textures/CCTextureETC.h</text>
</a>
</g>
</g>
<!-- Node2 -->
<g id="node2" class="node">
<title>Node2</title>
<g id="a_node2"><a xlink:href="../../dd/d69/_c_c_object_8h.html" target="_top" xlink:title=" ">
<polygon fill="none" stroke="black" points="43,-280.5 43,-299.5 145,-299.5 145,-280.5 43,-280.5"/>
<text text-anchor="middle" x="94" y="-287.5" font-family="Helvetica,sans-Serif" font-size="10.00">cocoa/CCObject.h</text>
</a>
</g>
</g>
<!-- Node1&#45;&gt;Node2 -->
<g id="edge1" class="edge">
<title>Node1&#45;&gt;Node2</title>
<path fill="none" stroke="midnightblue" d="M94,-336.5C94,-328.07 94,-318.24 94,-309.87"/>
<polygon fill="midnightblue" stroke="midnightblue" points="97.5,-309.65 94,-299.65 90.5,-309.65 97.5,-309.65"/>
</g>
<!-- Node4 -->
<g id="node4" class="node">
<title>Node4</title>
<g id="a_node4"><a xlink:href="../../d3/d41/_c_c_platform_macros_8h.html" target="_top" xlink:title=" ">
<polygon fill="none" stroke="black" points="16.5,-112.5 16.5,-131.5 177.5,-131.5 177.5,-112.5 16.5,-112.5"/>
<text text-anchor="middle" x="97" y="-119.5" font-family="Helvetica,sans-Serif" font-size="10.00">platform/CCPlatformMacros.h</text>
</a>
</g>
</g>
<!-- Node1&#45;&gt;Node4 -->
<g id="edge14" class="edge">
<title>Node1&#45;&gt;Node4</title>
<path fill="none" stroke="midnightblue" d="M64.13,-336.42C52.42,-326.96 40.3,-314.51 34,-300 30.46,-291.85 33.68,-288.88 34,-280 34.89,-255.06 31.93,-248.2 38,-224 44.63,-197.56 49.14,-191.47 63,-168 68.91,-157.99 76.66,-147.58 83.26,-139.3"/>
<polygon fill="midnightblue" stroke="midnightblue" points="85.98,-141.5 89.6,-131.55 80.56,-137.07 85.98,-141.5"/>
</g>
<!-- Node12 -->
<g id="node12" class="node">
<title>Node12</title>
<g id="a_node12"><a xlink:title=" ">
<polygon fill="none" stroke="#bfbfbf" points="163,-280.5 163,-299.5 215,-299.5 215,-280.5 163,-280.5"/>
<text text-anchor="middle" x="189" y="-287.5" font-family="Helvetica,sans-Serif" font-size="10.00">CCGL.h</text>
</a>
</g>
</g>
<!-- Node1&#45;&gt;Node12 -->
<g id="edge15" class="edge">
<title>Node1&#45;&gt;Node12</title>
<path fill="none" stroke="midnightblue" d="M122.5,-336.5C137.07,-326.53 154.49,-314.61 167.84,-305.48"/>
<polygon fill="midnightblue" stroke="midnightblue" points="170.08,-308.19 176.35,-299.65 166.12,-302.41 170.08,-308.19"/>
</g>
<!-- Node3 -->
<g id="node3" class="node">
<title>Node3</title>
<g id="a_node3"><a xlink:href="../../d9/d2d/_c_c_data_visitor_8h.html" target="_top" xlink:title=" ">
<polygon fill="none" stroke="black" points="47.5,-224.5 47.5,-243.5 140.5,-243.5 140.5,-224.5 47.5,-224.5"/>
<text text-anchor="middle" x="94" y="-231.5" font-family="Helvetica,sans-Serif" font-size="10.00">CCDataVisitor.h</text>
</a>
</g>
</g>
<!-- Node2&#45;&gt;Node3 -->
<g id="edge2" class="edge">
<title>Node2&#45;&gt;Node3</title>
<path fill="none" stroke="midnightblue" d="M94,-280.08C94,-273.01 94,-262.86 94,-253.99"/>
<polygon fill="midnightblue" stroke="midnightblue" points="97.5,-253.75 94,-243.75 90.5,-253.75 97.5,-253.75"/>
</g>
<!-- Node9 -->
<g id="node9" class="node">
<title>Node9</title>
<g id="a_node9"><a xlink:href="../../d9/dc8/cc_macros_8h.html" target="_top" xlink:title=" ">
<polygon fill="none" stroke="black" points="213.5,-224.5 213.5,-243.5 284.5,-243.5 284.5,-224.5 213.5,-224.5"/>
<text text-anchor="middle" x="249" y="-231.5" font-family="Helvetica,sans-Serif" font-size="10.00">ccMacros.h</text>
</a>
</g>
</g>
<!-- Node2&#45;&gt;Node9 -->
<g id="edge9" class="edge">
<title>Node2&#45;&gt;Node9</title>
<path fill="none" stroke="midnightblue" d="M118.56,-280.44C144.52,-271.4 185.67,-257.06 214.8,-246.92"/>
<polygon fill="midnightblue" stroke="midnightblue" points="216.26,-250.11 224.55,-243.52 213.96,-243.5 216.26,-250.11"/>
</g>
<!-- Node3&#45;&gt;Node4 -->
<g id="edge3" class="edge">
<title>Node3&#45;&gt;Node4</title>
<path fill="none" stroke="midnightblue" d="M86.53,-224.35C76.85,-212.07 61.89,-188.75 68,-168 71.01,-157.76 77.15,-147.66 83.01,-139.63"/>
<polygon fill="midnightblue" stroke="midnightblue" points="85.93,-141.58 89.33,-131.54 80.41,-137.27 85.93,-141.58"/>
</g>
<!-- Node8 -->
<g id="node8" class="node">
<title>Node8</title>
<g id="a_node8"><a xlink:title=" ">
<polygon fill="none" stroke="#bfbfbf" points="77,-168.5 77,-187.5 121,-187.5 121,-168.5 77,-168.5"/>
<text text-anchor="middle" x="99" y="-175.5" font-family="Helvetica,sans-Serif" font-size="10.00">string</text>
</a>
</g>
</g>
<!-- Node3&#45;&gt;Node8 -->
<g id="edge8" class="edge">
<title>Node3&#45;&gt;Node8</title>
<path fill="none" stroke="midnightblue" d="M94.83,-224.08C95.48,-217.01 96.42,-206.86 97.24,-197.99"/>
<polygon fill="midnightblue" stroke="midnightblue" points="100.75,-198.03 98.19,-187.75 93.78,-197.39 100.75,-198.03"/>
</g>
<!-- Node5 -->
<g id="node5" class="node">
<title>Node5</title>
<g id="a_node5"><a xlink:href="../../db/d9f/cc_config_8h.html" target="_top" xlink:title="cocos2d (cc) configuration file">
<polygon fill="none" stroke="black" points="214.5,-56.5 214.5,-75.5 281.5,-75.5 281.5,-56.5 214.5,-56.5"/>
<text text-anchor="middle" x="248" y="-63.5" font-family="Helvetica,sans-Serif" font-size="10.00">ccConfig.h</text>
</a>
</g>
</g>
<!-- Node4&#45;&gt;Node5 -->
<g id="edge4" class="edge">
<title>Node4&#45;&gt;Node5</title>
<path fill="none" stroke="midnightblue" d="M120.93,-112.44C146.22,-103.4 186.3,-89.06 214.68,-78.92"/>
<polygon fill="midnightblue" stroke="midnightblue" points="215.95,-82.18 224.19,-75.52 213.59,-75.59 215.95,-82.18"/>
</g>
<!-- Node6 -->
<g id="node6" class="node">
<title>Node6</title>
<g id="a_node6"><a xlink:href="../../dd/d96/_c_c_platform_config_8h.html" target="_top" xlink:title=" ">
<polygon fill="none" stroke="black" points="72.5,-0.5 72.5,-19.5 229.5,-19.5 229.5,-0.5 72.5,-0.5"/>
<text text-anchor="middle" x="151" y="-7.5" font-family="Helvetica,sans-Serif" font-size="10.00">platform/CCPlatformConfig.h</text>
</a>
</g>
</g>
<!-- Node4&#45;&gt;Node6 -->
<g id="edge6" class="edge">
<title>Node4&#45;&gt;Node6</title>
<path fill="none" stroke="midnightblue" d="M89.29,-112.16C79,-99.23 63.28,-74.69 74,-56 82.62,-40.99 98.39,-30.5 113.43,-23.46"/>
<polygon fill="midnightblue" stroke="midnightblue" points="114.82,-26.67 122.63,-19.51 112.06,-20.24 114.82,-26.67"/>
</g>
<!-- Node7 -->
<g id="node7" class="node">
<title>Node7</title>
<g id="a_node7"><a xlink:title=" ">
<polygon fill="none" stroke="#bfbfbf" points="83.5,-56.5 83.5,-75.5 196.5,-75.5 196.5,-56.5 83.5,-56.5"/>
<text text-anchor="middle" x="140" y="-63.5" font-family="Helvetica,sans-Serif" font-size="10.00">CCPlatformDefine.h</text>
</a>
</g>
</g>
<!-- Node4&#45;&gt;Node7 -->
<g id="edge7" class="edge">
<title>Node4&#45;&gt;Node7</title>
<path fill="none" stroke="midnightblue" d="M104.1,-112.08C110.24,-104.38 119.27,-93.03 126.74,-83.65"/>
<polygon fill="midnightblue" stroke="midnightblue" points="129.54,-85.75 133.03,-75.75 124.06,-81.39 129.54,-85.75"/>
</g>
<!-- Node5&#45;&gt;Node6 -->
<g id="edge5" class="edge">
<title>Node5&#45;&gt;Node6</title>
<path fill="none" stroke="midnightblue" d="M232.42,-56.32C217,-47.74 193.19,-34.49 175.29,-24.52"/>
<polygon fill="midnightblue" stroke="midnightblue" points="176.99,-21.46 166.55,-19.65 173.58,-27.58 176.99,-21.46"/>
</g>
<!-- Node9&#45;&gt;Node5 -->
<g id="edge13" class="edge">
<title>Node9&#45;&gt;Node5</title>
<path fill="none" stroke="midnightblue" d="M256.15,-224.36C262.77,-215.76 272.16,-201.87 276,-188 286.08,-151.62 269.27,-108.4 257.64,-84.72"/>
<polygon fill="midnightblue" stroke="midnightblue" points="260.62,-82.85 252.92,-75.57 254.4,-86.06 260.62,-82.85"/>
</g>
<!-- Node10 -->
<g id="node10" class="node">
<title>Node10</title>
<g id="a_node10"><a xlink:href="../../d5/d22/_c_c_common_8h.html" target="_top" xlink:title=" ">
<polygon fill="none" stroke="black" points="139,-168.5 139,-187.5 267,-187.5 267,-168.5 139,-168.5"/>
<text text-anchor="middle" x="203" y="-175.5" font-family="Helvetica,sans-Serif" font-size="10.00">platform/CCCommon.h</text>
</a>
</g>
</g>
<!-- Node9&#45;&gt;Node10 -->
<g id="edge10" class="edge">
<title>Node9&#45;&gt;Node10</title>
<path fill="none" stroke="midnightblue" d="M241.4,-224.08C234.77,-216.3 224.98,-204.8 216.94,-195.37"/>
<polygon fill="midnightblue" stroke="midnightblue" points="219.6,-193.09 210.45,-187.75 214.27,-197.63 219.6,-193.09"/>
</g>
<!-- Node11 -->
<g id="node11" class="node">
<title>Node11</title>
<g id="a_node11"><a xlink:title=" ">
<polygon fill="none" stroke="#bfbfbf" points="323,-168.5 323,-187.5 385,-187.5 385,-168.5 323,-168.5"/>
<text text-anchor="middle" x="354" y="-175.5" font-family="Helvetica,sans-Serif" font-size="10.00">CCStdC.h</text>
</a>
</g>
</g>
<!-- Node9&#45;&gt;Node11 -->
<g id="edge12" class="edge">
<title>Node9&#45;&gt;Node11</title>
<path fill="none" stroke="midnightblue" d="M265.87,-224.32C282.71,-215.66 308.81,-202.24 328.24,-192.25"/>
<polygon fill="midnightblue" stroke="midnightblue" points="329.88,-195.34 337.17,-187.65 326.68,-189.12 329.88,-195.34"/>
</g>
<!-- Node10&#45;&gt;Node4 -->
<g id="edge11" class="edge">
<title>Node10&#45;&gt;Node4</title>
<path fill="none" stroke="midnightblue" d="M185.97,-168.32C168.97,-159.66 142.62,-146.24 123.01,-136.25"/>
<polygon fill="midnightblue" stroke="midnightblue" points="124.49,-133.08 113.99,-131.65 121.31,-139.31 124.49,-133.08"/>
</g>
</g>
</svg>
