<?xml version="1.0" encoding="UTF-8" standalone="no"?>
<!DOCTYPE svg PUBLIC "-//W3C//DTD SVG 1.1//EN"
 "http://www.w3.org/Graphics/SVG/1.1/DTD/svg11.dtd">
<!-- Generated by graphviz version 2.43.0 (0)
 -->
<!-- Title: /home/runner/work/cocos&#45;headers/cocos&#45;headers/cocos2dx/textures/CCTextureETC.h Pages: 1 -->
<svg width="393pt" height="379pt"
 viewBox="0.00 0.00 393.00 379.00" xmlns="http://www.w3.org/2000/svg" xmlns:xlink="http://www.w3.org/1999/xlink">
<g id="graph0" class="graph" transform="scale(1 1) rotate(0) translate(4 375)">
<title>/home/runner/work/cocos&#45;headers/cocos&#45;headers/cocos2dx/textures/CCTextureETC.h</title>
<!-- Node1 -->
<g id="node1" class="node">
<title>Node1</title>
<g id="a_node1"><a xlink:title=" ">
<polygon fill="#999999" stroke="#666666" points="188,-371 0,-371 0,-330 188,-330 188,-371"/>
<text text-anchor="start" x="8" y="-359" font-family="Helvetica,sans-Serif" font-size="10.00">/home/runner/work/cocos</text>
<text text-anchor="start" x="8" y="-348" font-family="Helvetica,sans-Serif" font-size="10.00">&#45;headers/cocos&#45;headers</text>
<text text-anchor="middle" x="94" y="-337" font-family="Helvetica,sans-Serif" font-size="10.00">/cocos2dx/textures/CCTextureETC.h</text>
</a>
</g>
</g>
<!-- Node2 -->
<g id="node2" class="node">
<title>Node2</title>
<g id="a_node2"><a xlink:href="../../dd/d69/_c_c_object_8h.html" target="_top" xlink:title=" ">
<polygon fill="white" stroke="#666666" points="145,-294 43,-294 43,-275 145,-275 145,-294"/>
<text text-anchor="middle" x="94" y="-282" font-family="Helvetica,sans-Serif" font-size="10.00">cocoa/CCObject.h</text>
</a>
</g>
</g>
<!-- Node1&#45;&gt;Node2 -->
<g id="edge1" class="edge">
<title>Node1&#45;&gt;Node2</title>
<path fill="none" stroke="#63b8ff" d="M94,-329.95C94,-321.85 94,-312.5 94,-304.47"/>
<polygon fill="#63b8ff" stroke="#63b8ff" points="97.5,-304.26 94,-294.26 90.5,-304.26 97.5,-304.26"/>
</g>
<!-- Node4 -->
<g id="node4" class="node">
<title>Node4</title>
<g id="a_node4"><a xlink:href="../../d3/d41/_c_c_platform_macros_8h.html" target="_top" xlink:title=" ">
<polygon fill="white" stroke="#666666" points="177.5,-129 16.5,-129 16.5,-110 177.5,-110 177.5,-129"/>
<text text-anchor="middle" x="97" y="-117" font-family="Helvetica,sans-Serif" font-size="10.00">platform/CCPlatformMacros.h</text>
</a>
</g>
</g>
<!-- Node1&#45;&gt;Node4 -->
<g id="edge14" class="edge">
<title>Node1&#45;&gt;Node4</title>
<path fill="none" stroke="#63b8ff" d="M63.81,-329.89C52.21,-320.56 40.25,-308.3 34,-294 30.62,-286.26 33.69,-283.44 34,-275 34.89,-250.51 31.95,-243.75 38,-220 44.63,-193.98 49.21,-188.04 63,-165 68.8,-155.32 76.32,-145.27 82.82,-137.18"/>
<polygon fill="#63b8ff" stroke="#63b8ff" points="85.68,-139.22 89.34,-129.28 80.28,-134.77 85.68,-139.22"/>
</g>
<!-- Node12 -->
<g id="node12" class="node">
<title>Node12</title>
<g id="a_node12"><a xlink:title=" ">
<polygon fill="#e0e0e0" stroke="#999999" points="215,-294 163,-294 163,-275 215,-275 215,-294"/>
<text text-anchor="middle" x="189" y="-282" font-family="Helvetica,sans-Serif" font-size="10.00">CCGL.h</text>
</a>
</g>
</g>
<!-- Node1&#45;&gt;Node12 -->
<g id="edge15" class="edge">
<title>Node1&#45;&gt;Node12</title>
<path fill="none" stroke="#63b8ff" d="M123.02,-329.95C137.38,-320.27 154.42,-308.8 167.58,-299.93"/>
<polygon fill="#63b8ff" stroke="#63b8ff" points="169.66,-302.75 176,-294.26 165.75,-296.95 169.66,-302.75"/>
</g>
<!-- Node3 -->
<g id="node3" class="node">
<title>Node3</title>
<g id="a_node3"><a xlink:href="../../d9/d2d/_c_c_data_visitor_8h.html" target="_top" xlink:title=" ">
<polygon fill="white" stroke="#666666" points="140.5,-239 47.5,-239 47.5,-220 140.5,-220 140.5,-239"/>
<text text-anchor="middle" x="94" y="-227" font-family="Helvetica,sans-Serif" font-size="10.00">CCDataVisitor.h</text>
</a>
</g>
</g>
<!-- Node2&#45;&gt;Node3 -->
<g id="edge2" class="edge">
<title>Node2&#45;&gt;Node3</title>
<path fill="none" stroke="#63b8ff" d="M94,-274.75C94,-267.8 94,-257.85 94,-249.13"/>
<polygon fill="#63b8ff" stroke="#63b8ff" points="97.5,-249.09 94,-239.09 90.5,-249.09 97.5,-249.09"/>
</g>
<!-- Node9 -->
<g id="node9" class="node">
<title>Node9</title>
<g id="a_node9"><a xlink:href="../../d9/dc8/cc_macros_8h.html" target="_top" xlink:title=" ">
<polygon fill="white" stroke="#666666" points="284.5,-239 213.5,-239 213.5,-220 284.5,-220 284.5,-239"/>
<text text-anchor="middle" x="249" y="-227" font-family="Helvetica,sans-Serif" font-size="10.00">ccMacros.h</text>
</a>
</g>
</g>
<!-- Node2&#45;&gt;Node9 -->
<g id="edge9" class="edge">
<title>Node2&#45;&gt;Node9</title>
<path fill="none" stroke="#63b8ff" d="M118.9,-274.98C144.7,-266.16 185.22,-252.31 214.18,-242.41"/>
<polygon fill="#63b8ff" stroke="#63b8ff" points="215.57,-245.63 223.9,-239.08 213.31,-239.01 215.57,-245.63"/>
</g>
<!-- Node3&#45;&gt;Node4 -->
<g id="edge3" class="edge">
<title>Node3&#45;&gt;Node4</title>
<path fill="none" stroke="#63b8ff" d="M86.22,-219.66C76.56,-207.57 62.03,-185.1 68,-165 70.98,-154.98 77,-145.11 82.79,-137.22"/>
<polygon fill="#63b8ff" stroke="#63b8ff" points="85.63,-139.28 89.06,-129.25 80.13,-134.95 85.63,-139.28"/>
</g>
<!-- Node8 -->
<g id="node8" class="node">
<title>Node8</title>
<g id="a_node8"><a xlink:title=" ">
<polygon fill="#e0e0e0" stroke="#999999" points="121,-184 77,-184 77,-165 121,-165 121,-184"/>
<text text-anchor="middle" x="99" y="-172" font-family="Helvetica,sans-Serif" font-size="10.00">string</text>
</a>
</g>
</g>
<!-- Node3&#45;&gt;Node8 -->
<g id="edge8" class="edge">
<title>Node3&#45;&gt;Node8</title>
<path fill="none" stroke="#63b8ff" d="M94.83,-219.75C95.48,-212.8 96.42,-202.85 97.24,-194.13"/>
<polygon fill="#63b8ff" stroke="#63b8ff" points="100.73,-194.37 98.19,-184.09 93.77,-193.72 100.73,-194.37"/>
</g>
<!-- Node5 -->
<g id="node5" class="node">
<title>Node5</title>
<g id="a_node5"><a xlink:href="../../db/d9f/cc_config_8h.html" target="_top" xlink:title="cocos2d (cc) configuration file">
<polygon fill="white" stroke="#666666" points="281.5,-74 214.5,-74 214.5,-55 281.5,-55 281.5,-74"/>
<text text-anchor="middle" x="248" y="-62" font-family="Helvetica,sans-Serif" font-size="10.00">ccConfig.h</text>
</a>
</g>
</g>
<!-- Node4&#45;&gt;Node5 -->
<g id="edge4" class="edge">
<title>Node4&#45;&gt;Node5</title>
<path fill="none" stroke="#63b8ff" d="M121.26,-109.98C146.32,-101.19 185.63,-87.39 213.83,-77.49"/>
<polygon fill="#63b8ff" stroke="#63b8ff" points="215.02,-80.78 223.3,-74.17 212.7,-74.18 215.02,-80.78"/>
</g>
<!-- Node6 -->
<g id="node6" class="node">
<title>Node6</title>
<g id="a_node6"><a xlink:href="../../dd/d96/_c_c_platform_config_8h.html" target="_top" xlink:title=" ">
<polygon fill="white" stroke="#666666" points="229.5,-19 72.5,-19 72.5,0 229.5,0 229.5,-19"/>
<text text-anchor="middle" x="151" y="-7" font-family="Helvetica,sans-Serif" font-size="10.00">platform/CCPlatformConfig.h</text>
</a>
</g>
</g>
<!-- Node4&#45;&gt;Node6 -->
<g id="edge6" class="edge">
<title>Node4&#45;&gt;Node6</title>
<path fill="none" stroke="#63b8ff" d="M89.33,-109.87C79.11,-97.25 63.45,-73.28 74,-55 82.42,-40.41 97.65,-30.17 112.35,-23.23"/>
<polygon fill="#63b8ff" stroke="#63b8ff" points="114.07,-26.3 121.86,-19.13 111.29,-19.87 114.07,-26.3"/>
</g>
<!-- Node7 -->
<g id="node7" class="node">
<title>Node7</title>
<g id="a_node7"><a xlink:title=" ">
<polygon fill="#e0e0e0" stroke="#999999" points="196.5,-74 83.5,-74 83.5,-55 196.5,-55 196.5,-74"/>
<text text-anchor="middle" x="140" y="-62" font-family="Helvetica,sans-Serif" font-size="10.00">CCPlatformDefine.h</text>
</a>
</g>
</g>
<!-- Node4&#45;&gt;Node7 -->
<g id="edge7" class="edge">
<title>Node4&#45;&gt;Node7</title>
<path fill="none" stroke="#63b8ff" d="M104.1,-109.75C110.17,-102.26 119.09,-91.28 126.51,-82.13"/>
<polygon fill="#63b8ff" stroke="#63b8ff" points="129.45,-84.06 133.03,-74.09 124.01,-79.65 129.45,-84.06"/>
</g>
<!-- Node5&#45;&gt;Node6 -->
<g id="edge5" class="edge">
<title>Node5&#45;&gt;Node6</title>
<path fill="none" stroke="#63b8ff" d="M232.42,-54.98C217.23,-46.69 193.9,-33.94 176.1,-24.22"/>
<polygon fill="#63b8ff" stroke="#63b8ff" points="177.32,-20.89 166.87,-19.17 173.97,-27.04 177.32,-20.89"/>
</g>
<!-- Node9&#45;&gt;Node5 -->
<g id="edge13" class="edge">
<title>Node9&#45;&gt;Node5</title>
<path fill="none" stroke="#63b8ff" d="M256.15,-219.97C262.77,-211.48 272.15,-197.75 276,-184 285.92,-148.53 269.37,-106.46 257.78,-83.19"/>
<polygon fill="#63b8ff" stroke="#63b8ff" points="260.81,-81.42 253.07,-74.19 254.6,-84.67 260.81,-81.42"/>
</g>
<!-- Node10 -->
<g id="node10" class="node">
<title>Node10</title>
<g id="a_node10"><a xlink:href="../../d5/d22/_c_c_common_8h.html" target="_top" xlink:title=" ">
<polygon fill="white" stroke="#666666" points="267,-184 139,-184 139,-165 267,-165 267,-184"/>
<text text-anchor="middle" x="203" y="-172" font-family="Helvetica,sans-Serif" font-size="10.00">platform/CCCommon.h</text>
</a>
</g>
</g>
<!-- Node9&#45;&gt;Node10 -->
<g id="edge10" class="edge">
<title>Node9&#45;&gt;Node10</title>
<path fill="none" stroke="#63b8ff" d="M241.4,-219.75C234.84,-212.18 225.18,-201.05 217.19,-191.84"/>
<polygon fill="#63b8ff" stroke="#63b8ff" points="219.65,-189.35 210.45,-184.09 214.37,-193.94 219.65,-189.35"/>
</g>
<!-- Node11 -->
<g id="node11" class="node">
<title>Node11</title>
<g id="a_node11"><a xlink:title=" ">
<polygon fill="#e0e0e0" stroke="#999999" points="385,-184 323,-184 323,-165 385,-165 385,-184"/>
<text text-anchor="middle" x="354" y="-172" font-family="Helvetica,sans-Serif" font-size="10.00">CCStdC.h</text>
</a>
</g>
</g>
<!-- Node9&#45;&gt;Node11 -->
<g id="edge12" class="edge">
<title>Node9&#45;&gt;Node11</title>
<path fill="none" stroke="#63b8ff" d="M265.87,-219.98C282.61,-211.54 308.5,-198.47 327.89,-188.68"/>
<polygon fill="#63b8ff" stroke="#63b8ff" points="329.47,-191.8 336.82,-184.17 326.32,-185.55 329.47,-191.8"/>
</g>
<!-- Node10&#45;&gt;Node4 -->
<g id="edge11" class="edge">
<title>Node10&#45;&gt;Node4</title>
<path fill="none" stroke="#63b8ff" d="M185.97,-164.98C169.07,-156.54 142.94,-143.47 123.36,-133.68"/>
<polygon fill="#63b8ff" stroke="#63b8ff" points="124.85,-130.51 114.34,-129.17 121.72,-136.77 124.85,-130.51"/>
</g>
</g>
</svg>
