<?xml version="1.0" encoding="UTF-8" standalone="no"?>
<!DOCTYPE svg PUBLIC "-//W3C//DTD SVG 1.1//EN"
 "http://www.w3.org/Graphics/SVG/1.1/DTD/svg11.dtd">
<!-- Generated by graphviz version 2.43.0 (0)
 -->
<!-- Title: /home/runner/work/cocos&#45;headers/cocos&#45;headers/extensions/GUI/CCScrollView/CCScrollView.h Pages: 1 -->
<svg width="223pt" height="228pt"
 viewBox="0.00 0.00 223.00 228.00" xmlns="http://www.w3.org/2000/svg" xmlns:xlink="http://www.w3.org/1999/xlink">
<g id="graph0" class="graph" transform="scale(1 1) rotate(0) translate(4 224)">
<title>/home/runner/work/cocos&#45;headers/cocos&#45;headers/extensions/GUI/CCScrollView/CCScrollView.h</title>
<!-- Node1 -->
<g id="node1" class="node">
<title>Node1</title>
<g id="a_node1"><a xlink:title=" ">
<polygon fill="#bfbfbf" stroke="black" points="54,-167.5 54,-219.5 215,-219.5 215,-167.5 54,-167.5"/>
<text text-anchor="start" x="62" y="-207.5" font-family="Helvetica,sans-Serif" font-size="10.00">/home/runner/work/cocos</text>
<text text-anchor="start" x="62" y="-196.5" font-family="Helvetica,sans-Serif" font-size="10.00">&#45;headers/cocos&#45;headers</text>
<text text-anchor="start" x="62" y="-185.5" font-family="Helvetica,sans-Serif" font-size="10.00">/extensions/GUI/CCScrollView</text>
<text text-anchor="middle" x="134.5" y="-174.5" font-family="Helvetica,sans-Serif" font-size="10.00">/CCScrollView.h</text>
</a>
</g>
</g>
<!-- Node2 -->
<g id="node2" class="node">
<title>Node2</title>
<g id="a_node2"><a xlink:href="../../d8/dbb/_c_c_table_view_8h.html" target="_top" xlink:title=" ">
<polygon fill="none" stroke="black" points="0,-78.5 0,-130.5 161,-130.5 161,-78.5 0,-78.5"/>
<text text-anchor="start" x="8" y="-118.5" font-family="Helvetica,sans-Serif" font-size="10.00">/home/runner/work/cocos</text>
<text text-anchor="start" x="8" y="-107.5" font-family="Helvetica,sans-Serif" font-size="10.00">&#45;headers/cocos&#45;headers</text>
<text text-anchor="start" x="8" y="-96.5" font-family="Helvetica,sans-Serif" font-size="10.00">/extensions/GUI/CCScrollView</text>
<text text-anchor="middle" x="80.5" y="-85.5" font-family="Helvetica,sans-Serif" font-size="10.00">/CCTableView.h</text>
</a>
</g>
</g>
<!-- Node1&#45;&gt;Node2 -->
<g id="edge1" class="edge">
<title>Node1&#45;&gt;Node2</title>
<path fill="none" stroke="midnightblue" d="M113.48,-158.64C107.69,-149.31 101.51,-139.35 96.08,-130.61"/>
<polygon fill="midnightblue" stroke="midnightblue" points="110.63,-160.69 118.88,-167.34 116.58,-156.99 110.63,-160.69"/>
</g>
<!-- Node3 -->
<g id="node3" class="node">
<title>Node3</title>
<g id="a_node3"><a xlink:href="../../d3/d58/cocos-ext_8h.html" target="_top" xlink:title=" ">
<polygon fill="none" stroke="black" points="64.5,-0.5 64.5,-41.5 204.5,-41.5 204.5,-0.5 64.5,-0.5"/>
<text text-anchor="start" x="72.5" y="-29.5" font-family="Helvetica,sans-Serif" font-size="10.00">/home/runner/work/cocos</text>
<text text-anchor="start" x="72.5" y="-18.5" font-family="Helvetica,sans-Serif" font-size="10.00">&#45;headers/cocos&#45;headers</text>
<text text-anchor="middle" x="134.5" y="-7.5" font-family="Helvetica,sans-Serif" font-size="10.00">/extensions/cocos&#45;ext.h</text>
</a>
</g>
</g>
<!-- Node1&#45;&gt;Node3 -->
<g id="edge3" class="edge">
<title>Node1&#45;&gt;Node3</title>
<path fill="none" stroke="midnightblue" d="M158.59,-158.62C163.49,-150 167.93,-140.48 170.5,-131 176.66,-108.27 177.14,-100.6 170.5,-78 166.62,-64.8 158.57,-51.78 151.07,-41.61"/>
<polygon fill="midnightblue" stroke="midnightblue" points="155.55,-156.87 153.37,-167.24 161.54,-160.49 155.55,-156.87"/>
</g>
<!-- Node2&#45;&gt;Node3 -->
<g id="edge2" class="edge">
<title>Node2&#45;&gt;Node3</title>
<path fill="none" stroke="midnightblue" d="M102.95,-69.61C109.27,-60.08 115.93,-50.03 121.49,-41.63"/>
<polygon fill="midnightblue" stroke="midnightblue" points="99.9,-67.89 97.29,-78.16 105.73,-71.76 99.9,-67.89"/>
</g>
</g>
</svg>
