<?xml version="1.0" encoding="UTF-8" standalone="no"?>
<!DOCTYPE svg PUBLIC "-//W3C//DTD SVG 1.1//EN"
 "http://www.w3.org/Graphics/SVG/1.1/DTD/svg11.dtd">
<!-- Generated by graphviz version 2.43.0 (0)
 -->
<!-- Title: /home/runner/work/cocos&#45;headers/cocos&#45;headers/extensions/GUI/CCControlExtension/CCControlColourPicker.h Pages: 1 -->
<svg width="986pt" height="417pt"
 viewBox="0.00 0.00 986.00 417.00" xmlns="http://www.w3.org/2000/svg" xmlns:xlink="http://www.w3.org/1999/xlink">
<g id="graph0" class="graph" transform="scale(1 1) rotate(0) translate(4 413)">
<title>/home/runner/work/cocos&#45;headers/cocos&#45;headers/extensions/GUI/CCControlExtension/CCControlColourPicker.h</title>
<!-- Node1 -->
<g id="node1" class="node">
<title>Node1</title>
<g id="a_node1"><a xlink:title=" ">
<polygon fill="#bfbfbf" stroke="black" points="503,-356.5 503,-408.5 697,-408.5 697,-356.5 503,-356.5"/>
<text text-anchor="start" x="511" y="-396.5" font-family="Helvetica,sans-Serif" font-size="10.00">/home/runner/work/cocos</text>
<text text-anchor="start" x="511" y="-385.5" font-family="Helvetica,sans-Serif" font-size="10.00">&#45;headers/cocos&#45;headers</text>
<text text-anchor="start" x="511" y="-374.5" font-family="Helvetica,sans-Serif" font-size="10.00">/extensions/GUI/CCControlExtension</text>
<text text-anchor="middle" x="600" y="-363.5" font-family="Helvetica,sans-Serif" font-size="10.00">/CCControlColourPicker.h</text>
</a>
</g>
</g>
<!-- Node2 -->
<g id="node2" class="node">
<title>Node2</title>
<g id="a_node2"><a xlink:href="../../d6/d86/_c_c_control_extensions_8h.html" target="_top" xlink:title=" ">
<polygon fill="none" stroke="black" points="503,-267.5 503,-319.5 697,-319.5 697,-267.5 503,-267.5"/>
<text text-anchor="start" x="511" y="-307.5" font-family="Helvetica,sans-Serif" font-size="10.00">/home/runner/work/cocos</text>
<text text-anchor="start" x="511" y="-296.5" font-family="Helvetica,sans-Serif" font-size="10.00">&#45;headers/cocos&#45;headers</text>
<text text-anchor="start" x="511" y="-285.5" font-family="Helvetica,sans-Serif" font-size="10.00">/extensions/GUI/CCControlExtension</text>
<text text-anchor="middle" x="600" y="-274.5" font-family="Helvetica,sans-Serif" font-size="10.00">/CCControlExtensions.h</text>
</a>
</g>
</g>
<!-- Node1&#45;&gt;Node2 -->
<g id="edge1" class="edge">
<title>Node1&#45;&gt;Node2</title>
<path fill="none" stroke="midnightblue" d="M600,-346.19C600,-337.28 600,-327.9 600,-319.61"/>
<polygon fill="midnightblue" stroke="midnightblue" points="596.5,-346.34 600,-356.34 603.5,-346.34 596.5,-346.34"/>
</g>
<!-- Node3 -->
<g id="node3" class="node">
<title>Node3</title>
<g id="a_node3"><a xlink:href="../../dc/d4a/_c_c_edit_box_8h.html" target="_top" xlink:title=" ">
<polygon fill="none" stroke="black" points="475,-178.5 475,-230.5 623,-230.5 623,-178.5 475,-178.5"/>
<text text-anchor="start" x="483" y="-218.5" font-family="Helvetica,sans-Serif" font-size="10.00">/home/runner/work/cocos</text>
<text text-anchor="start" x="483" y="-207.5" font-family="Helvetica,sans-Serif" font-size="10.00">&#45;headers/cocos&#45;headers</text>
<text text-anchor="start" x="483" y="-196.5" font-family="Helvetica,sans-Serif" font-size="10.00">/extensions/GUI/CCEditBox</text>
<text text-anchor="middle" x="549" y="-185.5" font-family="Helvetica,sans-Serif" font-size="10.00">/CCEditBox.h</text>
</a>
</g>
</g>
<!-- Node2&#45;&gt;Node3 -->
<g id="edge2" class="edge">
<title>Node2&#45;&gt;Node3</title>
<path fill="none" stroke="midnightblue" d="M580.15,-258.64C574.68,-249.31 568.84,-239.35 563.72,-230.61"/>
<polygon fill="midnightblue" stroke="midnightblue" points="577.17,-260.48 585.25,-267.34 583.21,-256.94 577.17,-260.48"/>
</g>
<!-- Node11 -->
<g id="node11" class="node">
<title>Node11</title>
<g id="a_node11"><a xlink:href="../../d3/d58/cocos-ext_8h.html" target="_top" xlink:title=" ">
<polygon fill="none" stroke="black" points="581,-95 581,-136 721,-136 721,-95 581,-95"/>
<text text-anchor="start" x="589" y="-124" font-family="Helvetica,sans-Serif" font-size="10.00">/home/runner/work/cocos</text>
<text text-anchor="start" x="589" y="-113" font-family="Helvetica,sans-Serif" font-size="10.00">&#45;headers/cocos&#45;headers</text>
<text text-anchor="middle" x="651" y="-102" font-family="Helvetica,sans-Serif" font-size="10.00">/extensions/cocos&#45;ext.h</text>
</a>
</g>
</g>
<!-- Node2&#45;&gt;Node11 -->
<g id="edge11" class="edge">
<title>Node2&#45;&gt;Node11</title>
<path fill="none" stroke="midnightblue" d="M620.25,-258.23C624.68,-249.58 628.95,-240.14 632,-231 642.72,-198.89 647.55,-159.61 649.61,-136.4"/>
<polygon fill="midnightblue" stroke="midnightblue" points="617.05,-256.79 615.43,-267.26 623.22,-260.09 617.05,-256.79"/>
</g>
<!-- Node4 -->
<g id="node4" class="node">
<title>Node4</title>
<g id="a_node4"><a xlink:href="../../db/da9/_c_c_edit_box_impl_8h.html" target="_top" xlink:title=" ">
<polygon fill="none" stroke="black" points="415,-89.5 415,-141.5 563,-141.5 563,-89.5 415,-89.5"/>
<text text-anchor="start" x="423" y="-129.5" font-family="Helvetica,sans-Serif" font-size="10.00">/home/runner/work/cocos</text>
<text text-anchor="start" x="423" y="-118.5" font-family="Helvetica,sans-Serif" font-size="10.00">&#45;headers/cocos&#45;headers</text>
<text text-anchor="start" x="423" y="-107.5" font-family="Helvetica,sans-Serif" font-size="10.00">/extensions/GUI/CCEditBox</text>
<text text-anchor="middle" x="489" y="-96.5" font-family="Helvetica,sans-Serif" font-size="10.00">/CCEditBoxImpl.h</text>
</a>
</g>
</g>
<!-- Node3&#45;&gt;Node4 -->
<g id="edge3" class="edge">
<title>Node3&#45;&gt;Node4</title>
<path fill="none" stroke="midnightblue" d="M525.85,-169.93C519.35,-160.51 512.41,-150.44 506.32,-141.61"/>
<polygon fill="midnightblue" stroke="midnightblue" points="523.09,-172.09 531.65,-178.34 528.85,-168.12 523.09,-172.09"/>
</g>
<!-- Node3&#45;&gt;Node11 -->
<g id="edge10" class="edge">
<title>Node3&#45;&gt;Node11</title>
<path fill="none" stroke="midnightblue" d="M586.5,-171.51C600.43,-159.64 615.8,-146.53 628.04,-136.08"/>
<polygon fill="midnightblue" stroke="midnightblue" points="583.84,-169.18 578.5,-178.34 588.38,-174.51 583.84,-169.18"/>
</g>
<!-- Node5 -->
<g id="node5" class="node">
<title>Node5</title>
<g id="a_node5"><a xlink:href="../../d4/dd3/_c_c_edit_box_impl_android_8h.html" target="_top" xlink:title=" ">
<polygon fill="none" stroke="black" points="0,-0.5 0,-52.5 148,-52.5 148,-0.5 0,-0.5"/>
<text text-anchor="start" x="8" y="-40.5" font-family="Helvetica,sans-Serif" font-size="10.00">/home/runner/work/cocos</text>
<text text-anchor="start" x="8" y="-29.5" font-family="Helvetica,sans-Serif" font-size="10.00">&#45;headers/cocos&#45;headers</text>
<text text-anchor="start" x="8" y="-18.5" font-family="Helvetica,sans-Serif" font-size="10.00">/extensions/GUI/CCEditBox</text>
<text text-anchor="middle" x="74" y="-7.5" font-family="Helvetica,sans-Serif" font-size="10.00">/CCEditBoxImplAndroid.h</text>
</a>
</g>
</g>
<!-- Node4&#45;&gt;Node5 -->
<g id="edge4" class="edge">
<title>Node4&#45;&gt;Node5</title>
<path fill="none" stroke="midnightblue" d="M404.82,-101.65C337.36,-90.7 240.53,-73.5 157,-53 154.07,-52.28 151.09,-51.52 148.09,-50.73"/>
<polygon fill="midnightblue" stroke="midnightblue" points="404.54,-105.15 414.97,-103.29 405.65,-98.24 404.54,-105.15"/>
</g>
<!-- Node6 -->
<g id="node6" class="node">
<title>Node6</title>
<g id="a_node6"><a xlink:href="../../dd/dfd/_c_c_edit_box_impl_i_o_s_8h.html" target="_top" xlink:title=" ">
<polygon fill="none" stroke="black" points="166,-0.5 166,-52.5 314,-52.5 314,-0.5 166,-0.5"/>
<text text-anchor="start" x="174" y="-40.5" font-family="Helvetica,sans-Serif" font-size="10.00">/home/runner/work/cocos</text>
<text text-anchor="start" x="174" y="-29.5" font-family="Helvetica,sans-Serif" font-size="10.00">&#45;headers/cocos&#45;headers</text>
<text text-anchor="start" x="174" y="-18.5" font-family="Helvetica,sans-Serif" font-size="10.00">/extensions/GUI/CCEditBox</text>
<text text-anchor="middle" x="240" y="-7.5" font-family="Helvetica,sans-Serif" font-size="10.00">/CCEditBoxImplIOS.h</text>
</a>
</g>
</g>
<!-- Node4&#45;&gt;Node6 -->
<g id="edge5" class="edge">
<title>Node4&#45;&gt;Node6</title>
<path fill="none" stroke="midnightblue" d="M407.83,-86.14C376.8,-75.3 341.68,-63.03 311.61,-52.52"/>
<polygon fill="midnightblue" stroke="midnightblue" points="406.72,-89.46 417.31,-89.45 409.03,-82.85 406.72,-89.46"/>
</g>
<!-- Node7 -->
<g id="node7" class="node">
<title>Node7</title>
<g id="a_node7"><a xlink:href="../../d7/d4d/_c_c_edit_box_impl_mac_8h.html" target="_top" xlink:title=" ">
<polygon fill="none" stroke="black" points="332,-0.5 332,-52.5 480,-52.5 480,-0.5 332,-0.5"/>
<text text-anchor="start" x="340" y="-40.5" font-family="Helvetica,sans-Serif" font-size="10.00">/home/runner/work/cocos</text>
<text text-anchor="start" x="340" y="-29.5" font-family="Helvetica,sans-Serif" font-size="10.00">&#45;headers/cocos&#45;headers</text>
<text text-anchor="start" x="340" y="-18.5" font-family="Helvetica,sans-Serif" font-size="10.00">/extensions/GUI/CCEditBox</text>
<text text-anchor="middle" x="406" y="-7.5" font-family="Helvetica,sans-Serif" font-size="10.00">/CCEditBoxImplMac.h</text>
</a>
</g>
</g>
<!-- Node4&#45;&gt;Node7 -->
<g id="edge6" class="edge">
<title>Node4&#45;&gt;Node7</title>
<path fill="none" stroke="midnightblue" d="M458.07,-82.08C448.77,-72.34 438.72,-61.8 429.95,-52.61"/>
<polygon fill="midnightblue" stroke="midnightblue" points="455.56,-84.52 464.99,-89.34 460.62,-79.68 455.56,-84.52"/>
</g>
<!-- Node8 -->
<g id="node8" class="node">
<title>Node8</title>
<g id="a_node8"><a xlink:href="../../de/dac/_c_c_edit_box_impl_tizen_8h.html" target="_top" xlink:title=" ">
<polygon fill="none" stroke="black" points="498,-0.5 498,-52.5 646,-52.5 646,-0.5 498,-0.5"/>
<text text-anchor="start" x="506" y="-40.5" font-family="Helvetica,sans-Serif" font-size="10.00">/home/runner/work/cocos</text>
<text text-anchor="start" x="506" y="-29.5" font-family="Helvetica,sans-Serif" font-size="10.00">&#45;headers/cocos&#45;headers</text>
<text text-anchor="start" x="506" y="-18.5" font-family="Helvetica,sans-Serif" font-size="10.00">/extensions/GUI/CCEditBox</text>
<text text-anchor="middle" x="572" y="-7.5" font-family="Helvetica,sans-Serif" font-size="10.00">/CCEditBoxImplTizen.h</text>
</a>
</g>
</g>
<!-- Node4&#45;&gt;Node8 -->
<g id="edge7" class="edge">
<title>Node4&#45;&gt;Node8</title>
<path fill="none" stroke="midnightblue" d="M519.93,-82.08C529.23,-72.34 539.28,-61.8 548.05,-52.61"/>
<polygon fill="midnightblue" stroke="midnightblue" points="517.38,-79.68 513.01,-89.34 522.44,-84.52 517.38,-79.68"/>
</g>
<!-- Node9 -->
<g id="node9" class="node">
<title>Node9</title>
<g id="a_node9"><a xlink:href="../../dd/d41/_c_c_edit_box_impl_win_8h.html" target="_top" xlink:title=" ">
<polygon fill="none" stroke="black" points="664,-0.5 664,-52.5 812,-52.5 812,-0.5 664,-0.5"/>
<text text-anchor="start" x="672" y="-40.5" font-family="Helvetica,sans-Serif" font-size="10.00">/home/runner/work/cocos</text>
<text text-anchor="start" x="672" y="-29.5" font-family="Helvetica,sans-Serif" font-size="10.00">&#45;headers/cocos&#45;headers</text>
<text text-anchor="start" x="672" y="-18.5" font-family="Helvetica,sans-Serif" font-size="10.00">/extensions/GUI/CCEditBox</text>
<text text-anchor="middle" x="738" y="-7.5" font-family="Helvetica,sans-Serif" font-size="10.00">/CCEditBoxImplWin.h</text>
</a>
</g>
</g>
<!-- Node4&#45;&gt;Node9 -->
<g id="edge8" class="edge">
<title>Node4&#45;&gt;Node9</title>
<path fill="none" stroke="midnightblue" d="M570.17,-86.14C601.2,-75.3 636.32,-63.03 666.39,-52.52"/>
<polygon fill="midnightblue" stroke="midnightblue" points="568.97,-82.85 560.69,-89.45 571.28,-89.46 568.97,-82.85"/>
</g>
<!-- Node10 -->
<g id="node10" class="node">
<title>Node10</title>
<g id="a_node10"><a xlink:href="../../d4/d91/_c_c_edit_box_impl_wp8_8h.html" target="_top" xlink:title=" ">
<polygon fill="none" stroke="black" points="830,-0.5 830,-52.5 978,-52.5 978,-0.5 830,-0.5"/>
<text text-anchor="start" x="838" y="-40.5" font-family="Helvetica,sans-Serif" font-size="10.00">/home/runner/work/cocos</text>
<text text-anchor="start" x="838" y="-29.5" font-family="Helvetica,sans-Serif" font-size="10.00">&#45;headers/cocos&#45;headers</text>
<text text-anchor="start" x="838" y="-18.5" font-family="Helvetica,sans-Serif" font-size="10.00">/extensions/GUI/CCEditBox</text>
<text text-anchor="middle" x="904" y="-7.5" font-family="Helvetica,sans-Serif" font-size="10.00">/CCEditBoxImplWp8.h</text>
</a>
</g>
</g>
<!-- Node4&#45;&gt;Node10 -->
<g id="edge9" class="edge">
<title>Node4&#45;&gt;Node10</title>
<path fill="none" stroke="midnightblue" d="M572.88,-88.96C682.91,-65.21 714.99,-76.8 821,-53 823.94,-52.34 826.93,-51.63 829.94,-50.87"/>
<polygon fill="midnightblue" stroke="midnightblue" points="572.07,-85.55 563.06,-91.13 573.58,-92.39 572.07,-85.55"/>
</g>
</g>
</svg>
