<?xml version="1.0" encoding="UTF-8" standalone="no"?>
<!DOCTYPE svg PUBLIC "-//W3C//DTD SVG 1.1//EN"
 "http://www.w3.org/Graphics/SVG/1.1/DTD/svg11.dtd">
<!-- Generated by graphviz version 2.43.0 (0)
 -->
<!-- Title: XMLElement Pages: 1 -->
<svg width="217pt" height="197pt"
 viewBox="0.00 0.00 216.50 197.00" xmlns="http://www.w3.org/2000/svg" xmlns:xlink="http://www.w3.org/1999/xlink">
<g id="graph0" class="graph" transform="scale(1 1) rotate(0) translate(4 193)">
<title>XMLElement</title>
<!-- Node1 -->
<g id="node1" class="node">
<title>Node1</title>
<g id="a_node1"><a xlink:title="The element is a container class.">
<polygon fill="#bfbfbf" stroke="black" points="0,-0.5 0,-19.5 78,-19.5 78,-0.5 0,-0.5"/>
<text text-anchor="middle" x="39" y="-7.5" font-family="Helvetica,sans-Serif" font-size="10.00">XMLElement</text>
</a>
</g>
</g>
<!-- Node2 -->
<g id="node2" class="node">
<title>Node2</title>
<g id="a_node2"><a xlink:href="../../de/d13/classtinyxml2_1_1_x_m_l_node.html" target="_top" xlink:title="XMLNode is a base class for every object that is in the XML Document Object Model (DOM),...">
<polygon fill="none" stroke="black" points="75.5,-85 75.5,-104 138.5,-104 138.5,-85 75.5,-85"/>
<text text-anchor="middle" x="107" y="-92" font-family="Helvetica,sans-Serif" font-size="10.00">XMLNode</text>
</a>
</g>
</g>
<!-- Node2&#45;&gt;Node1 -->
<g id="edge1" class="edge">
<title>Node2&#45;&gt;Node1</title>
<path fill="none" stroke="midnightblue" d="M93.3,-76.88C79.02,-59.56 57.22,-33.11 46.08,-19.6"/>
<polygon fill="midnightblue" stroke="midnightblue" points="90.92,-79.49 99.98,-84.98 96.32,-75.04 90.92,-79.49"/>
</g>
<!-- Node2&#45;&gt;Node2 -->
<g id="edge4" class="edge">
<title>Node2&#45;&gt;Node2</title>
<path fill="none" stroke="#9a32cd" stroke-dasharray="5,2" d="M148.8,-102.42C153.48,-100.92 156.5,-98.28 156.5,-94.5 156.5,-88.45 148.76,-85.32 138.9,-85.13"/>
<polygon fill="#9a32cd" stroke="#9a32cd" points="148.29,-98.95 138.9,-103.87 149.3,-105.88 148.29,-98.95"/>
<text text-anchor="middle" x="182.5" y="-114" font-family="Helvetica,sans-Serif" font-size="10.00"> _firstChild</text>
<text text-anchor="middle" x="182.5" y="-103" font-family="Helvetica,sans-Serif" font-size="10.00">_lastChild</text>
<text text-anchor="middle" x="182.5" y="-92" font-family="Helvetica,sans-Serif" font-size="10.00">_next</text>
<text text-anchor="middle" x="182.5" y="-81" font-family="Helvetica,sans-Serif" font-size="10.00">_parent</text>
<text text-anchor="middle" x="182.5" y="-70" font-family="Helvetica,sans-Serif" font-size="10.00">_prev</text>
</g>
<!-- Node3 -->
<g id="node3" class="node">
<title>Node3</title>
<g id="a_node3"><a xlink:href="../../dc/d59/classtinyxml2_1_1_x_m_l_document.html" target="_top" xlink:title="A Document binds together all the functionality.">
<polygon fill="none" stroke="black" points="96,-0.5 96,-19.5 184,-19.5 184,-0.5 96,-0.5"/>
<text text-anchor="middle" x="140" y="-7.5" font-family="Helvetica,sans-Serif" font-size="10.00">XMLDocument</text>
</a>
</g>
</g>
<!-- Node2&#45;&gt;Node3 -->
<g id="edge3" class="edge">
<title>Node2&#45;&gt;Node3</title>
<path fill="none" stroke="midnightblue" d="M109.96,-74.71C112.13,-63.68 115.65,-49.66 121,-38 123.96,-31.54 128.51,-25 132.42,-19.98"/>
<polygon fill="midnightblue" stroke="midnightblue" points="106.46,-74.45 108.17,-84.9 113.35,-75.66 106.46,-74.45"/>
</g>
<!-- Node3&#45;&gt;Node2 -->
<g id="edge2" class="edge">
<title>Node3&#45;&gt;Node2</title>
<path fill="none" stroke="#9a32cd" stroke-dasharray="5,2" d="M132.73,-29.18C125.79,-46.52 115.64,-71.89 110.41,-84.98"/>
<polygon fill="#9a32cd" stroke="#9a32cd" points="136.1,-30.18 136.56,-19.6 129.6,-27.58 136.1,-30.18"/>
<text text-anchor="middle" x="157" y="-41" font-family="Helvetica,sans-Serif" font-size="10.00"> _document</text>
</g>
<!-- Node4 -->
<g id="node4" class="node">
<title>Node4</title>
<g id="a_node4"><a xlink:href="../../de/dc1/classtinyxml2_1_1_str_pair.html" target="_top" xlink:title=" ">
<polygon fill="none" stroke="black" points="83,-169.5 83,-188.5 131,-188.5 131,-169.5 83,-169.5"/>
<text text-anchor="middle" x="107" y="-176.5" font-family="Helvetica,sans-Serif" font-size="10.00">StrPair</text>
</a>
</g>
</g>
<!-- Node4&#45;&gt;Node2 -->
<g id="edge5" class="edge">
<title>Node4&#45;&gt;Node2</title>
<path fill="none" stroke="#9a32cd" stroke-dasharray="5,2" d="M107,-159.43C107,-142.13 107,-117.11 107,-104.1"/>
<polygon fill="#9a32cd" stroke="#9a32cd" points="103.5,-159.48 107,-169.48 110.5,-159.48 103.5,-159.48"/>
<text text-anchor="middle" x="125" y="-143" font-family="Helvetica,sans-Serif" font-size="10.00"> _value</text>
</g>
</g>
</svg>
