<?xml version="1.0" encoding="UTF-8" standalone="no"?>
<!DOCTYPE svg PUBLIC "-//W3C//DTD SVG 1.1//EN"
 "http://www.w3.org/Graphics/SVG/1.1/DTD/svg11.dtd">
<!-- Generated by graphviz version 2.43.0 (0)
 -->
<!-- Title: CCCallFuncO Pages: 1 -->
<svg width="1779pt" height="748pt"
 viewBox="0.00 0.00 1779.00 747.50" xmlns="http://www.w3.org/2000/svg" xmlns:xlink="http://www.w3.org/1999/xlink">
<g id="graph0" class="graph" transform="scale(1 1) rotate(0) translate(4 743.5)">
<title>CCCallFuncO</title>
<!-- Node1 -->
<g id="node1" class="node">
<title>Node1</title>
<g id="a_node1"><a xlink:title="Calls a &#39;callback&#39; with an object as the first argument.">
<polygon fill="#999999" stroke="#666666" points="1771,-57 1692,-57 1692,-38 1771,-38 1771,-57"/>
<text text-anchor="middle" x="1731.5" y="-45" font-family="Helvetica,sans-Serif" font-size="10.00">CCCallFuncO</text>
</a>
</g>
</g>
<!-- Node2 -->
<g id="node2" class="node">
<title>Node2</title>
<g id="a_node2"><a xlink:href="../../dd/d6e/classcocos2d_1_1_c_c_call_func.html" target="_top" xlink:title="Calls a &#39;callback&#39;.">
<polygon fill="white" stroke="#666666" points="1655,-430 1584,-430 1584,-411 1655,-411 1655,-430"/>
<text text-anchor="middle" x="1619.5" y="-418" font-family="Helvetica,sans-Serif" font-size="10.00">CCCallFunc</text>
</a>
</g>
</g>
<!-- Node2&#45;&gt;Node1 -->
<g id="edge1" class="edge">
<title>Node2&#45;&gt;Node1</title>
<path fill="none" stroke="#63b8ff" d="M1626.23,-401.05C1646.33,-332.91 1713.14,-106.35 1727.69,-57.03"/>
<polygon fill="#63b8ff" stroke="#63b8ff" points="1622.8,-400.32 1623.33,-410.9 1629.52,-402.3 1622.8,-400.32"/>
</g>
<!-- Node3 -->
<g id="node3" class="node">
<title>Node3</title>
<g id="a_node3"><a xlink:href="../../df/d52/classcocos2d_1_1_c_c_action_instant.html" target="_top" xlink:title="Instant actions are immediate actions.">
<polygon fill="white" stroke="#666666" points="1547,-399 1452,-399 1452,-380 1547,-380 1547,-399"/>
<text text-anchor="middle" x="1499.5" y="-387" font-family="Helvetica,sans-Serif" font-size="10.00">CCActionInstant</text>
</a>
</g>
</g>
<!-- Node3&#45;&gt;Node2 -->
<g id="edge2" class="edge">
<title>Node3&#45;&gt;Node2</title>
<path fill="none" stroke="#63b8ff" d="M1546.55,-401.6C1558.9,-404.84 1572.04,-408.29 1583.67,-411.35"/>
<polygon fill="#63b8ff" stroke="#63b8ff" points="1547.43,-398.21 1536.87,-399.05 1545.65,-404.98 1547.43,-398.21"/>
</g>
<!-- Node4 -->
<g id="node4" class="node">
<title>Node4</title>
<g id="a_node4"><a xlink:href="../../dd/d89/classcocos2d_1_1_c_c_finite_time_action.html" target="_top" xlink:title="Base class actions that do have a finite time duration.">
<polygon fill="white" stroke="#666666" points="1415,-393 1302,-393 1302,-374 1415,-374 1415,-393"/>
<text text-anchor="middle" x="1358.5" y="-381" font-family="Helvetica,sans-Serif" font-size="10.00">CCFiniteTimeAction</text>
</a>
</g>
</g>
<!-- Node4&#45;&gt;Node3 -->
<g id="edge3" class="edge">
<title>Node4&#45;&gt;Node3</title>
<path fill="none" stroke="#63b8ff" d="M1425.25,-386.34C1434.17,-386.72 1443.18,-387.11 1451.68,-387.48"/>
<polygon fill="#63b8ff" stroke="#63b8ff" points="1425.38,-382.84 1415.24,-385.91 1425.08,-389.83 1425.38,-382.84"/>
</g>
<!-- Node5 -->
<g id="node5" class="node">
<title>Node5</title>
<g id="a_node5"><a xlink:href="../../d7/d12/classcocos2d_1_1_c_c_action.html" target="_top" xlink:title="Base class for CCAction objects.">
<polygon fill="white" stroke="#666666" points="1265,-393 1204,-393 1204,-374 1265,-374 1265,-393"/>
<text text-anchor="middle" x="1234.5" y="-381" font-family="Helvetica,sans-Serif" font-size="10.00">CCAction</text>
</a>
</g>
</g>
<!-- Node5&#45;&gt;Node4 -->
<g id="edge4" class="edge">
<title>Node5&#45;&gt;Node4</title>
<path fill="none" stroke="#63b8ff" d="M1275.12,-383.5C1283.7,-383.5 1292.93,-383.5 1301.99,-383.5"/>
<polygon fill="#63b8ff" stroke="#63b8ff" points="1275.03,-380 1265.03,-383.5 1275.03,-387 1275.03,-380"/>
</g>
<!-- Node6 -->
<g id="node6" class="node">
<title>Node6</title>
<g id="a_node6"><a xlink:href="../../d3/dbf/classcocos2d_1_1_c_c_object.html" target="_top" xlink:title="NA.">
<polygon fill="white" stroke="#666666" points="169,-464 107,-464 107,-445 169,-445 169,-464"/>
<text text-anchor="middle" x="138" y="-452" font-family="Helvetica,sans-Serif" font-size="10.00">CCObject</text>
</a>
</g>
</g>
<!-- Node6&#45;&gt;Node1 -->
<g id="edge40" class="edge">
<title>Node6&#45;&gt;Node1</title>
<path fill="none" stroke="#9a32cd" stroke-dasharray="5,2" d="M139.94,-434.43C144.31,-352.47 166,-47.5 247,-47.5 247,-47.5 247,-47.5 1620.5,-47.5 1644.18,-47.5 1670.73,-47.5 1691.81,-47.5"/>
<polygon fill="#9a32cd" stroke="#9a32cd" points="136.42,-434.68 139.41,-444.84 143.41,-435.03 136.42,-434.68"/>
<text text-anchor="middle" x="1139.5" y="-50.5" font-family="Helvetica,sans-Serif" font-size="10.00"> m_pObject</text>
</g>
<!-- Node6&#45;&gt;Node2 -->
<g id="edge37" class="edge">
<title>Node6&#45;&gt;Node2</title>
<path fill="none" stroke="#9a32cd" stroke-dasharray="5,2" d="M138.21,-474.45C136.93,-535.8 141.97,-717.5 247,-717.5 247,-717.5 247,-717.5 1500.5,-717.5 1563.89,-717.5 1608.13,-480.88 1616.9,-430.05"/>
<polygon fill="#9a32cd" stroke="#9a32cd" points="141.72,-474.27 138.52,-464.17 134.72,-474.06 141.72,-474.27"/>
<text text-anchor="middle" x="1029.5" y="-731.5" font-family="Helvetica,sans-Serif" font-size="10.00"> m_pCallFuncO</text>
<text text-anchor="middle" x="1029.5" y="-720.5" font-family="Helvetica,sans-Serif" font-size="10.00">m_pSelectorTarget</text>
</g>
<!-- Node6&#45;&gt;Node5 -->
<g id="edge5" class="edge">
<title>Node6&#45;&gt;Node5</title>
<path fill="none" stroke="#63b8ff" d="M140.47,-434.37C146.66,-357.32 173.67,-85.5 247,-85.5 247,-85.5 247,-85.5 1030.5,-85.5 1173.54,-85.5 1222.96,-322.92 1231.93,-373.92"/>
<polygon fill="#63b8ff" stroke="#63b8ff" points="136.96,-434.39 139.68,-444.63 143.94,-434.93 136.96,-434.39"/>
</g>
<!-- Node8 -->
<g id="node8" class="node">
<title>Node8</title>
<g id="a_node8"><a xlink:href="../../d0/ded/classcocos2d_1_1_c_c_node.html" target="_top" xlink:title="CCNode is the main element.">
<polygon fill="white" stroke="#666666" points="1057.5,-439 1001.5,-439 1001.5,-420 1057.5,-420 1057.5,-439"/>
<text text-anchor="middle" x="1029.5" y="-427" font-family="Helvetica,sans-Serif" font-size="10.00">CCNode</text>
</a>
</g>
</g>
<!-- Node6&#45;&gt;Node8 -->
<g id="edge8" class="edge">
<title>Node6&#45;&gt;Node8</title>
<path fill="none" stroke="#63b8ff" d="M149.81,-472.85C166.86,-499.17 202.66,-544.5 247,-544.5 247,-544.5 247,-544.5 754,-544.5 848.73,-544.5 884.81,-571.3 966,-522.5 998.68,-502.86 1017.95,-458.78 1025.19,-439.19"/>
<polygon fill="#63b8ff" stroke="#63b8ff" points="152.64,-470.78 144.39,-464.13 146.7,-474.47 152.64,-470.78"/>
</g>
<!-- Node6&#45;&gt;Node8 -->
<g id="edge29" class="edge">
<title>Node6&#45;&gt;Node8</title>
<path fill="none" stroke="#9a32cd" stroke-dasharray="5,2" d="M179.24,-466.22C181.85,-466.73 184.45,-467.16 187,-467.5 358.66,-490.33 795.44,-477.43 966,-447.5 977.79,-445.43 990.53,-441.99 1001.42,-438.67"/>
<polygon fill="#9a32cd" stroke="#9a32cd" points="179.75,-462.75 169.22,-463.98 178.22,-469.58 179.75,-462.75"/>
<text text-anchor="middle" x="500" y="-481.5" font-family="Helvetica,sans-Serif" font-size="10.00"> m_pUserObject</text>
</g>
<!-- Node12 -->
<g id="node12" class="node">
<title>Node12</title>
<g id="a_node12"><a xlink:href="../../d2/d51/classcocos2d_1_1_c_c_camera.html" target="_top" xlink:title="A CCCamera is used in every CCNode.">
<polygon fill="white" stroke="#666666" points="652,-458 584,-458 584,-439 652,-439 652,-458"/>
<text text-anchor="middle" x="618" y="-446" font-family="Helvetica,sans-Serif" font-size="10.00">CCCamera</text>
</a>
</g>
</g>
<!-- Node6&#45;&gt;Node12 -->
<g id="edge13" class="edge">
<title>Node6&#45;&gt;Node12</title>
<path fill="none" stroke="#63b8ff" d="M179.36,-453.99C271.99,-452.83 498.4,-449.99 583.73,-448.92"/>
<polygon fill="#63b8ff" stroke="#63b8ff" points="179.22,-450.49 169.26,-454.12 179.31,-457.49 179.22,-450.49"/>
</g>
<!-- Node13 -->
<g id="node13" class="node">
<title>Node13</title>
<g id="a_node13"><a xlink:href="../../d6/d70/classcocos2d_1_1_c_c_grid_base.html" target="_top" xlink:title="Base class for other.">
<polygon fill="white" stroke="#666666" points="790,-348 716,-348 716,-329 790,-329 790,-348"/>
<text text-anchor="middle" x="753" y="-336" font-family="Helvetica,sans-Serif" font-size="10.00">CCGridBase</text>
</a>
</g>
</g>
<!-- Node6&#45;&gt;Node13 -->
<g id="edge15" class="edge">
<title>Node6&#45;&gt;Node13</title>
<path fill="none" stroke="#63b8ff" d="M138.46,-434.94C138.23,-388.08 144.12,-268.14 206,-198.5 238.35,-162.1 260.95,-171.03 308,-158.5 385.41,-137.88 609.07,-85.23 668,-139.5 697.73,-166.88 659.9,-289.63 686,-320.5 693.44,-329.3 704.71,-334.01 715.85,-336.48"/>
<polygon fill="#63b8ff" stroke="#63b8ff" points="134.96,-435.02 138.61,-444.97 141.96,-434.92 134.96,-435.02"/>
</g>
<!-- Node14 -->
<g id="node14" class="node">
<title>Node14</title>
<g id="a_node14"><a xlink:href="../../d7/dfd/classcocos2d_1_1_c_c_texture2_d.html" target="_top" xlink:title="CCTexture2D class.">
<polygon fill="white" stroke="#666666" points="540,-341 460,-341 460,-322 540,-322 540,-341"/>
<text text-anchor="middle" x="500" y="-329" font-family="Helvetica,sans-Serif" font-size="10.00">CCTexture2D</text>
</a>
</g>
</g>
<!-- Node6&#45;&gt;Node14 -->
<g id="edge18" class="edge">
<title>Node6&#45;&gt;Node14</title>
<path fill="none" stroke="#63b8ff" d="M149.44,-436.13C160.93,-417.57 181.13,-389.42 206,-373.5 284.99,-322.95 400.27,-323.13 459.95,-327.4"/>
<polygon fill="#63b8ff" stroke="#63b8ff" points="146.35,-434.47 144.24,-444.85 152.37,-438.05 146.35,-434.47"/>
</g>
<!-- Node15 -->
<g id="node15" class="node">
<title>Node15</title>
<g id="a_node15"><a xlink:href="../../db/d28/classcocos2d_1_1_c_c_g_l_program.html" target="_top" xlink:title="CCGLProgram Class that implements a glProgram.">
<polygon fill="white" stroke="#666666" points="290,-294 206,-294 206,-275 290,-275 290,-294"/>
<text text-anchor="middle" x="248" y="-282" font-family="Helvetica,sans-Serif" font-size="10.00">CCGLProgram</text>
</a>
</g>
</g>
<!-- Node6&#45;&gt;Node15 -->
<g id="edge21" class="edge">
<title>Node6&#45;&gt;Node15</title>
<path fill="none" stroke="#63b8ff" d="M141.52,-434.84C146.07,-406.31 158.04,-353.07 187,-318.5 196.07,-307.67 209.53,-299.6 221.4,-294.05"/>
<polygon fill="#63b8ff" stroke="#63b8ff" points="138.05,-434.39 140.08,-444.79 144.98,-435.4 138.05,-434.39"/>
</g>
<!-- Node16 -->
<g id="node16" class="node">
<title>Node16</title>
<g id="a_node16"><a xlink:href="../../d3/d89/classcocos2d_1_1_c_c_grabber.html" target="_top" xlink:title="FBO class that grabs the the contents of the screen NA NA.">
<polygon fill="white" stroke="#666666" points="404.5,-186 335.5,-186 335.5,-167 404.5,-167 404.5,-186"/>
<text text-anchor="middle" x="370" y="-174" font-family="Helvetica,sans-Serif" font-size="10.00">CCGrabber</text>
</a>
</g>
</g>
<!-- Node6&#45;&gt;Node16 -->
<g id="edge24" class="edge">
<title>Node6&#45;&gt;Node16</title>
<path fill="none" stroke="#63b8ff" d="M141.82,-434.53C147.87,-397.81 165.02,-318.6 206,-266.5 240.31,-222.89 258.05,-218.68 308,-194.5 316.55,-190.36 326.24,-186.97 335.33,-184.3"/>
<polygon fill="#63b8ff" stroke="#63b8ff" points="138.29,-434.45 140.23,-444.86 145.21,-435.51 138.29,-434.45"/>
</g>
<!-- Node17 -->
<g id="node17" class="node">
<title>Node17</title>
<g id="a_node17"><a xlink:href="../../d9/d2e/classcocos2d_1_1_c_c_array.html" target="_top" xlink:title="NA.">
<polygon fill="white" stroke="#666666" points="276,-630 220,-630 220,-611 276,-611 276,-630"/>
<text text-anchor="middle" x="248" y="-618" font-family="Helvetica,sans-Serif" font-size="10.00">CCArray</text>
</a>
</g>
</g>
<!-- Node6&#45;&gt;Node17 -->
<g id="edge27" class="edge">
<title>Node6&#45;&gt;Node17</title>
<path fill="none" stroke="#63b8ff" d="M140.51,-474.29C143.84,-504.43 154.32,-561.98 187,-596.5 195.72,-605.71 208.43,-611.46 219.91,-615.02"/>
<polygon fill="#63b8ff" stroke="#63b8ff" points="143.98,-473.81 139.56,-464.18 137.02,-474.46 143.98,-473.81"/>
</g>
<!-- Node18 -->
<g id="node18" class="node">
<title>Node18</title>
<g id="a_node18"><a xlink:href="../../de/dee/classcocos2d_1_1_c_c_scheduler.html" target="_top" xlink:title="Scheduler is responsible for triggering the scheduled callbacks.">
<polygon fill="white" stroke="#666666" points="539,-676 461,-676 461,-657 539,-657 539,-676"/>
<text text-anchor="middle" x="500" y="-664" font-family="Helvetica,sans-Serif" font-size="10.00">CCScheduler</text>
</a>
</g>
</g>
<!-- Node6&#45;&gt;Node18 -->
<g id="edge32" class="edge">
<title>Node6&#45;&gt;Node18</title>
<path fill="none" stroke="#63b8ff" d="M139.37,-474.55C141.32,-513.91 151.86,-600.83 206,-639.5 282.49,-694.13 400.39,-684.18 460.66,-674.26"/>
<polygon fill="#63b8ff" stroke="#63b8ff" points="142.86,-474.24 139.01,-464.37 135.87,-474.49 142.86,-474.24"/>
</g>
<!-- Node19 -->
<g id="node19" class="node">
<title>Node19</title>
<g id="a_node19"><a xlink:href="../../d5/dcb/classcocos2d_1_1_c_c_action_manager.html" target="_top" xlink:title="CCActionManager is a singleton that manages all the actions.">
<polygon fill="white" stroke="#666666" points="422,-592 318,-592 318,-573 422,-573 422,-592"/>
<text text-anchor="middle" x="370" y="-580" font-family="Helvetica,sans-Serif" font-size="10.00">CCActionManager</text>
</a>
</g>
</g>
<!-- Node6&#45;&gt;Node19 -->
<g id="edge35" class="edge">
<title>Node6&#45;&gt;Node19</title>
<path fill="none" stroke="#63b8ff" d="M142.23,-474.28C147.29,-498.34 159.49,-538.24 187,-558.5 224.47,-586.09 278.4,-590.02 317.82,-588.3"/>
<polygon fill="#63b8ff" stroke="#63b8ff" points="145.62,-473.36 140.34,-464.18 138.74,-474.66 145.62,-473.36"/>
</g>
<!-- Node7 -->
<g id="node7" class="node">
<title>Node7</title>
<g id="a_node7"><a xlink:href="../../d5/d61/classcocos2d_1_1_c_c_copying.html" target="_top" xlink:title="NA NA.">
<polygon fill="white" stroke="#666666" points="70,-464 0,-464 0,-445 70,-445 70,-464"/>
<text text-anchor="middle" x="35" y="-452" font-family="Helvetica,sans-Serif" font-size="10.00">CCCopying</text>
</a>
</g>
</g>
<!-- Node7&#45;&gt;Node6 -->
<g id="edge6" class="edge">
<title>Node7&#45;&gt;Node6</title>
<path fill="none" stroke="#63b8ff" d="M80.2,-454.5C89.22,-454.5 98.51,-454.5 106.9,-454.5"/>
<polygon fill="#63b8ff" stroke="#63b8ff" points="80.19,-451 70.19,-454.5 80.19,-458 80.19,-451"/>
</g>
<!-- Node8&#45;&gt;Node2 -->
<g id="edge38" class="edge">
<title>Node8&#45;&gt;Node2</title>
<path fill="none" stroke="#9a32cd" stroke-dasharray="5,2" d="M1067.76,-429.5C1108.48,-429.5 1175.63,-429.5 1233.5,-429.5 1233.5,-429.5 1233.5,-429.5 1500.5,-429.5 1528.65,-429.5 1560.46,-426.92 1583.96,-424.53"/>
<polygon fill="#9a32cd" stroke="#9a32cd" points="1067.75,-426 1057.75,-429.5 1067.75,-433 1067.75,-426"/>
<text text-anchor="middle" x="1358.5" y="-443.5" font-family="Helvetica,sans-Serif" font-size="10.00"> m_pCallFuncN</text>
<text text-anchor="middle" x="1358.5" y="-432.5" font-family="Helvetica,sans-Serif" font-size="10.00">m_pCallFuncND</text>
</g>
<!-- Node8&#45;&gt;Node5 -->
<g id="edge7" class="edge">
<title>Node8&#45;&gt;Node5</title>
<path fill="none" stroke="#9a32cd" stroke-dasharray="5,2" d="M1051.63,-414.11C1063.25,-406.5 1078.26,-398.01 1093,-393.5 1129.95,-382.2 1174.81,-381.04 1203.74,-381.81"/>
<polygon fill="#9a32cd" stroke="#9a32cd" points="1049.39,-411.4 1043.11,-419.93 1053.34,-417.18 1049.39,-411.4"/>
<text text-anchor="middle" x="1139.5" y="-407.5" font-family="Helvetica,sans-Serif" font-size="10.00"> m_pOriginalTarget</text>
<text text-anchor="middle" x="1139.5" y="-396.5" font-family="Helvetica,sans-Serif" font-size="10.00">m_pTarget</text>
</g>
<!-- Node8&#45;&gt;Node8 -->
<g id="edge28" class="edge">
<title>Node8&#45;&gt;Node8</title>
<path fill="none" stroke="#9a32cd" stroke-dasharray="5,2" d="M1009.13,-448.55C1010.49,-453.38 1017.28,-457 1029.5,-457 1049.05,-457 1054.7,-447.73 1046.45,-439.08"/>
<polygon fill="#9a32cd" stroke="#9a32cd" points="1012.45,-449.68 1012.55,-439.08 1005.86,-447.3 1012.45,-449.68"/>
<text text-anchor="middle" x="1029.5" y="-460" font-family="Helvetica,sans-Serif" font-size="10.00"> m_pParent</text>
</g>
<!-- Node9 -->
<g id="node9" class="node">
<title>Node9</title>
<g id="a_node9"><a xlink:href="../../d2/df3/classcocos2d_1_1_c_c_point.html" target="_top" xlink:title="NA.">
<polygon fill="white" stroke="#666666" points="527.5,-256 472.5,-256 472.5,-237 527.5,-237 527.5,-256"/>
<text text-anchor="middle" x="500" y="-244" font-family="Helvetica,sans-Serif" font-size="10.00">CCPoint</text>
</a>
</g>
</g>
<!-- Node9&#45;&gt;Node8 -->
<g id="edge9" class="edge">
<title>Node9&#45;&gt;Node8</title>
<path fill="none" stroke="#9a32cd" stroke-dasharray="5,2" d="M537.79,-243.56C635.87,-236.51 900.63,-222.92 966,-275.5 1012.99,-313.3 1024.91,-392.02 1027.71,-419.66"/>
<polygon fill="#9a32cd" stroke="#9a32cd" points="537.46,-240.07 527.75,-244.3 537.98,-247.05 537.46,-240.07"/>
<text text-anchor="middle" x="753" y="-264.5" font-family="Helvetica,sans-Serif" font-size="10.00"> m_obAnchorPoint</text>
<text text-anchor="middle" x="753" y="-253.5" font-family="Helvetica,sans-Serif" font-size="10.00">m_obAnchorPointInPoints</text>
<text text-anchor="middle" x="753" y="-242.5" font-family="Helvetica,sans-Serif" font-size="10.00">m_obPosition</text>
</g>
<!-- Node9&#45;&gt;Node13 -->
<g id="edge22" class="edge">
<title>Node9&#45;&gt;Node13</title>
<path fill="none" stroke="#9a32cd" stroke-dasharray="5,2" d="M537.75,-250.72C583.83,-256.31 658.03,-266.4 668,-274.5 685.04,-288.34 669.67,-305.83 686,-320.5 694.22,-327.88 705.17,-332.28 715.79,-334.88"/>
<polygon fill="#9a32cd" stroke="#9a32cd" points="538.16,-247.25 527.82,-249.53 537.33,-254.2 538.16,-247.25"/>
<text text-anchor="middle" x="618" y="-277.5" font-family="Helvetica,sans-Serif" font-size="10.00"> m_obStep</text>
</g>
<!-- Node10 -->
<g id="node10" class="node">
<title>Node10</title>
<g id="a_node10"><a xlink:href="../../d9/d24/classcocos2d_1_1_c_c_size.html" target="_top" xlink:title="NA.">
<polygon fill="white" stroke="#666666" points="273,-401 223,-401 223,-382 273,-382 273,-401"/>
<text text-anchor="middle" x="248" y="-389" font-family="Helvetica,sans-Serif" font-size="10.00">CCSize</text>
</a>
</g>
</g>
<!-- Node10&#45;&gt;Node8 -->
<g id="edge10" class="edge">
<title>Node10&#45;&gt;Node8</title>
<path fill="none" stroke="#9a32cd" stroke-dasharray="5,2" d="M283.35,-393.95C291.43,-394.49 300.02,-395.04 308,-395.5 578.35,-411.04 906.08,-424.59 1001.34,-428.42"/>
<polygon fill="#9a32cd" stroke="#9a32cd" points="283.32,-390.44 273.11,-393.25 282.84,-397.42 283.32,-390.44"/>
<text text-anchor="middle" x="618" y="-416.5" font-family="Helvetica,sans-Serif" font-size="10.00"> m_obContentSize</text>
</g>
<!-- Node10&#45;&gt;Node13 -->
<g id="edge16" class="edge">
<title>Node10&#45;&gt;Node13</title>
<path fill="none" stroke="#9a32cd" stroke-dasharray="5,2" d="M283.18,-389.27C319.97,-386.78 380.18,-382.44 432,-377.5 537.1,-367.47 563.29,-363.97 668,-350.5 683.63,-348.49 700.87,-346.06 715.65,-343.92"/>
<polygon fill="#9a32cd" stroke="#9a32cd" points="282.75,-385.79 273.01,-389.95 283.22,-392.78 282.75,-385.79"/>
<text text-anchor="middle" x="500" y="-378.5" font-family="Helvetica,sans-Serif" font-size="10.00"> m_sGridSize</text>
</g>
<!-- Node10&#45;&gt;Node14 -->
<g id="edge19" class="edge">
<title>Node10&#45;&gt;Node14</title>
<path fill="none" stroke="#9a32cd" stroke-dasharray="5,2" d="M277.87,-377.77C287.31,-373.69 297.96,-369.51 308,-366.5 311.64,-365.41 405.1,-348.46 459.91,-338.55"/>
<polygon fill="#9a32cd" stroke="#9a32cd" points="276.24,-374.67 268.54,-381.94 279.09,-381.06 276.24,-374.67"/>
<text text-anchor="middle" x="370" y="-369.5" font-family="Helvetica,sans-Serif" font-size="10.00"> m_tContentSize</text>
</g>
<!-- Node11 -->
<g id="node11" class="node">
<title>Node11</title>
<g id="a_node11"><a xlink:href="../../da/dbf/structcocos2d_1_1_c_c_affine_transform.html" target="_top" xlink:title=" ">
<polygon fill="white" stroke="#666666" points="806.5,-311 699.5,-311 699.5,-292 806.5,-292 806.5,-311"/>
<text text-anchor="middle" x="753" y="-299" font-family="Helvetica,sans-Serif" font-size="10.00">CCAffineTransform</text>
</a>
</g>
</g>
<!-- Node11&#45;&gt;Node8 -->
<g id="edge11" class="edge">
<title>Node11&#45;&gt;Node8</title>
<path fill="none" stroke="#9a32cd" stroke-dasharray="5,2" d="M795.79,-289.58C841.31,-279.19 914.51,-270.28 966,-302.5 1008.91,-329.35 1023.23,-395.22 1027.19,-419.93"/>
<polygon fill="#9a32cd" stroke="#9a32cd" points="794.86,-286.21 785.95,-291.95 796.5,-293.01 794.86,-286.21"/>
<text text-anchor="middle" x="902" y="-327.5" font-family="Helvetica,sans-Serif" font-size="10.00"> m_sAdditionalTransform</text>
<text text-anchor="middle" x="902" y="-316.5" font-family="Helvetica,sans-Serif" font-size="10.00">m_sInverse</text>
<text text-anchor="middle" x="902" y="-305.5" font-family="Helvetica,sans-Serif" font-size="10.00">m_sTransform</text>
</g>
<!-- Node12&#45;&gt;Node8 -->
<g id="edge12" class="edge">
<title>Node12&#45;&gt;Node8</title>
<path fill="none" stroke="#9a32cd" stroke-dasharray="5,2" d="M662.22,-445.06C670.12,-444.49 678.31,-443.94 686,-443.5 803.34,-436.73 943.48,-432.07 1001.4,-430.3"/>
<polygon fill="#9a32cd" stroke="#9a32cd" points="661.76,-441.58 652.04,-445.81 662.27,-448.57 661.76,-441.58"/>
<text text-anchor="middle" x="753" y="-446.5" font-family="Helvetica,sans-Serif" font-size="10.00"> m_pCamera</text>
</g>
<!-- Node13&#45;&gt;Node8 -->
<g id="edge14" class="edge">
<title>Node13&#45;&gt;Node8</title>
<path fill="none" stroke="#9a32cd" stroke-dasharray="5,2" d="M800.52,-338.93C854.01,-340.11 938.06,-344.25 966,-358.5 993.36,-372.45 1014.1,-403.9 1023.29,-419.85"/>
<polygon fill="#9a32cd" stroke="#9a32cd" points="800.32,-335.42 790.25,-338.73 800.18,-342.42 800.32,-335.42"/>
<text text-anchor="middle" x="902" y="-361.5" font-family="Helvetica,sans-Serif" font-size="10.00"> m_pGrid</text>
</g>
<!-- Node14&#45;&gt;Node13 -->
<g id="edge17" class="edge">
<title>Node14&#45;&gt;Node13</title>
<path fill="none" stroke="#9a32cd" stroke-dasharray="5,2" d="M550.22,-332.87C598.93,-334.23 672.36,-336.28 715.9,-337.49"/>
<polygon fill="#9a32cd" stroke="#9a32cd" points="550.31,-329.37 540.22,-332.59 550.12,-336.37 550.31,-329.37"/>
<text text-anchor="middle" x="618" y="-338.5" font-family="Helvetica,sans-Serif" font-size="10.00"> m_pTexture</text>
</g>
<!-- Node15&#45;&gt;Node8 -->
<g id="edge30" class="edge">
<title>Node15&#45;&gt;Node8</title>
<path fill="none" stroke="#9a32cd" stroke-dasharray="5,2" d="M277.84,-270.57C382.95,-222.03 750.58,-72.08 966,-237.5 1025.78,-283.4 1029.23,-387.63 1028.8,-419.84"/>
<polygon fill="#9a32cd" stroke="#9a32cd" points="276.08,-267.53 268.5,-274.94 279.04,-273.87 276.08,-267.53"/>
<text text-anchor="middle" x="618" y="-178.5" font-family="Helvetica,sans-Serif" font-size="10.00"> m_pShaderProgram</text>
</g>
<!-- Node15&#45;&gt;Node13 -->
<g id="edge25" class="edge">
<title>Node15&#45;&gt;Node13</title>
<path fill="none" stroke="#9a32cd" stroke-dasharray="5,2" d="M300.57,-283.83C337.27,-283.73 387.72,-284.33 432,-287.5 535.81,-294.93 656.7,-318.25 715.77,-330.62"/>
<polygon fill="#9a32cd" stroke="#9a32cd" points="300.1,-280.34 290.12,-283.88 300.14,-287.34 300.1,-280.34"/>
<text text-anchor="middle" x="500" y="-303.5" font-family="Helvetica,sans-Serif" font-size="10.00"> m_pShaderProgram</text>
</g>
<!-- Node15&#45;&gt;Node14 -->
<g id="edge20" class="edge">
<title>Node15&#45;&gt;Node14</title>
<path fill="none" stroke="#9a32cd" stroke-dasharray="5,2" d="M300.21,-287.92C337.2,-291.12 388.16,-297.03 432,-307.5 447.02,-311.09 463.35,-316.89 476.12,-321.9"/>
<polygon fill="#9a32cd" stroke="#9a32cd" points="300.42,-284.42 290.16,-287.09 299.84,-291.4 300.42,-284.42"/>
<text text-anchor="middle" x="370" y="-310.5" font-family="Helvetica,sans-Serif" font-size="10.00"> m_pShaderProgram</text>
</g>
<!-- Node16&#45;&gt;Node13 -->
<g id="edge23" class="edge">
<title>Node16&#45;&gt;Node13</title>
<path fill="none" stroke="#9a32cd" stroke-dasharray="5,2" d="M407.9,-163.87C470.1,-145.18 596.03,-118.86 668,-183.5 713.69,-224.54 645.62,-274.23 686,-320.5 693.5,-329.09 704.65,-333.77 715.67,-336.26"/>
<polygon fill="#9a32cd" stroke="#9a32cd" points="406.64,-160.6 398.13,-166.91 408.72,-167.28 406.64,-160.6"/>
<text text-anchor="middle" x="500" y="-154.5" font-family="Helvetica,sans-Serif" font-size="10.00"> m_pGrabber</text>
</g>
<!-- Node17&#45;&gt;Node8 -->
<g id="edge26" class="edge">
<title>Node17&#45;&gt;Node8</title>
<path fill="none" stroke="#9a32cd" stroke-dasharray="5,2" d="M286.45,-623.66C418.03,-633.98 857.14,-661.67 966,-581.5 1014.25,-545.97 1025.4,-466.45 1027.84,-439.02"/>
<polygon fill="#9a32cd" stroke="#9a32cd" points="286.34,-620.14 276.09,-622.83 285.78,-627.12 286.34,-620.14"/>
<text text-anchor="middle" x="618" y="-639.5" font-family="Helvetica,sans-Serif" font-size="10.00"> m_pChildren</text>
</g>
<!-- Node17&#45;&gt;Node18 -->
<g id="edge33" class="edge">
<title>Node17&#45;&gt;Node18</title>
<path fill="none" stroke="#9a32cd" stroke-dasharray="5,2" d="M286.03,-627.42C293.31,-628.78 300.9,-630.19 308,-631.5 361.04,-641.3 422.39,-652.52 460.94,-659.56"/>
<polygon fill="#9a32cd" stroke="#9a32cd" points="286.49,-623.95 276.02,-625.56 285.21,-630.83 286.49,-623.95"/>
<text text-anchor="middle" x="370" y="-656.5" font-family="Helvetica,sans-Serif" font-size="10.00"> m_pScriptHandlerEntries</text>
</g>
<!-- Node18&#45;&gt;Node8 -->
<g id="edge31" class="edge">
<title>Node18&#45;&gt;Node8</title>
<path fill="none" stroke="#9a32cd" stroke-dasharray="5,2" d="M549.17,-669.82C654.86,-676.08 902.71,-684.82 966,-634.5 1028.91,-584.48 1030.15,-472.93 1029.01,-439.29"/>
<polygon fill="#9a32cd" stroke="#9a32cd" points="549.29,-666.32 539.1,-669.21 548.87,-673.31 549.29,-666.32"/>
<text text-anchor="middle" x="753" y="-677.5" font-family="Helvetica,sans-Serif" font-size="10.00"> m_pScheduler</text>
</g>
<!-- Node19&#45;&gt;Node8 -->
<g id="edge34" class="edge">
<title>Node19&#45;&gt;Node8</title>
<path fill="none" stroke="#9a32cd" stroke-dasharray="5,2" d="M432.5,-583.55C575.63,-585.51 922.24,-587.17 966,-558.5 1008.88,-530.41 1023.22,-464 1027.19,-439.13"/>
<polygon fill="#9a32cd" stroke="#9a32cd" points="432.19,-580.05 422.15,-583.41 432.1,-587.05 432.19,-580.05"/>
<text text-anchor="middle" x="618" y="-586.5" font-family="Helvetica,sans-Serif" font-size="10.00"> m_pActionManager</text>
</g>
<!-- Node20 -->
<g id="node20" class="node">
<title>Node20</title>
<g id="a_node20"><a xlink:href="../../d1/d65/classcocos2d_1_1_c_c_component_container.html" target="_top" xlink:title="NA NA.">
<polygon fill="white" stroke="#666666" points="820,-516 686,-516 686,-497 820,-497 820,-516"/>
<text text-anchor="middle" x="753" y="-504" font-family="Helvetica,sans-Serif" font-size="10.00">CCComponentContainer</text>
</a>
</g>
</g>
<!-- Node20&#45;&gt;Node8 -->
<g id="edge36" class="edge">
<title>Node20&#45;&gt;Node8</title>
<path fill="none" stroke="#9a32cd" stroke-dasharray="5,2" d="M830.16,-508.52C871.81,-507.04 923.44,-500.9 966,-482.5 988.72,-472.68 1009.43,-451.72 1020.36,-439.31"/>
<polygon fill="#9a32cd" stroke="#9a32cd" points="829.97,-505.02 820.07,-508.79 830.16,-512.02 829.97,-505.02"/>
<text text-anchor="middle" x="902" y="-510.5" font-family="Helvetica,sans-Serif" font-size="10.00"> m_pComponentContainer</text>
</g>
<!-- Node21 -->
<g id="node21" class="node">
<title>Node21</title>
<g id="a_node21"><a xlink:href="../../dc/d72/classcocos2d_1_1_type_info.html" target="_top" xlink:title=" ">
<polygon fill="white" stroke="#666666" points="1648.5,-19 1590.5,-19 1590.5,0 1648.5,0 1648.5,-19"/>
<text text-anchor="middle" x="1619.5" y="-7" font-family="Helvetica,sans-Serif" font-size="10.00">TypeInfo</text>
</a>
</g>
</g>
<!-- Node21&#45;&gt;Node1 -->
<g id="edge39" class="edge">
<title>Node21&#45;&gt;Node1</title>
<path fill="none" stroke="#63b8ff" d="M1658.05,-22.47C1672.7,-27.53 1689.2,-33.23 1702.75,-37.91"/>
<polygon fill="#63b8ff" stroke="#63b8ff" points="1658.85,-19.05 1648.26,-19.09 1656.57,-25.66 1658.85,-19.05"/>
</g>
</g>
</svg>
