<?xml version="1.0" encoding="UTF-8" standalone="no"?>
<!DOCTYPE svg PUBLIC "-//W3C//DTD SVG 1.1//EN"
 "http://www.w3.org/Graphics/SVG/1.1/DTD/svg11.dtd">
<!-- Generated by graphviz version 2.43.0 (0)
 -->
<!-- Title: /home/runner/work/cocos&#45;headers/cocos&#45;headers/cocos2dx/textures/CCTexturePVR.h Pages: 1 -->
<svg width="461pt" height="390pt"
 viewBox="0.00 0.00 461.00 390.00" xmlns="http://www.w3.org/2000/svg" xmlns:xlink="http://www.w3.org/1999/xlink">
<g id="graph0" class="graph" transform="scale(1 1) rotate(0) translate(4 386)">
<title>/home/runner/work/cocos&#45;headers/cocos&#45;headers/cocos2dx/textures/CCTexturePVR.h</title>
<!-- Node1 -->
<g id="node1" class="node">
<title>Node1</title>
<g id="a_node1"><a xlink:title=" ">
<polygon fill="#999999" stroke="#666666" points="306,-382 116,-382 116,-341 306,-341 306,-382"/>
<text text-anchor="start" x="124" y="-370" font-family="Helvetica,sans-Serif" font-size="10.00">/home/runner/work/cocos</text>
<text text-anchor="start" x="124" y="-359" font-family="Helvetica,sans-Serif" font-size="10.00">&#45;headers/cocos&#45;headers</text>
<text text-anchor="middle" x="211" y="-348" font-family="Helvetica,sans-Serif" font-size="10.00">/cocos2dx/textures/CCTexturePVR.h</text>
</a>
</g>
</g>
<!-- Node2 -->
<g id="node2" class="node">
<title>Node2</title>
<g id="a_node2"><a xlink:title=" ">
<polygon fill="#e0e0e0" stroke="#999999" points="62,-184 0,-184 0,-165 62,-165 62,-184"/>
<text text-anchor="middle" x="31" y="-172" font-family="Helvetica,sans-Serif" font-size="10.00">CCStdC.h</text>
</a>
</g>
</g>
<!-- Node1&#45;&gt;Node2 -->
<g id="edge1" class="edge">
<title>Node1&#45;&gt;Node2</title>
<path fill="none" stroke="#63b8ff" d="M158.91,-340.9C140.05,-332 119.58,-320.05 104,-305 70.24,-272.39 47.61,-220.76 37.33,-193.59"/>
<polygon fill="#63b8ff" stroke="#63b8ff" points="40.6,-192.36 33.89,-184.16 34.03,-194.76 40.6,-192.36"/>
</g>
<!-- Node3 -->
<g id="node3" class="node">
<title>Node3</title>
<g id="a_node3"><a xlink:title=" ">
<polygon fill="#e0e0e0" stroke="#999999" points="285,-305 233,-305 233,-286 285,-286 285,-305"/>
<text text-anchor="middle" x="259" y="-293" font-family="Helvetica,sans-Serif" font-size="10.00">CCGL.h</text>
</a>
</g>
</g>
<!-- Node1&#45;&gt;Node3 -->
<g id="edge2" class="edge">
<title>Node1&#45;&gt;Node3</title>
<path fill="none" stroke="#63b8ff" d="M225.66,-340.95C232.29,-332.11 240.05,-321.77 246.41,-313.29"/>
<polygon fill="#63b8ff" stroke="#63b8ff" points="249.23,-315.36 252.43,-305.26 243.63,-311.16 249.23,-315.36"/>
</g>
<!-- Node4 -->
<g id="node4" class="node">
<title>Node4</title>
<g id="a_node4"><a xlink:href="../../dd/d69/_c_c_object_8h.html" target="_top" xlink:title=" ">
<polygon fill="white" stroke="#666666" points="215,-305 113,-305 113,-286 215,-286 215,-305"/>
<text text-anchor="middle" x="164" y="-293" font-family="Helvetica,sans-Serif" font-size="10.00">cocoa/CCObject.h</text>
</a>
</g>
</g>
<!-- Node1&#45;&gt;Node4 -->
<g id="edge3" class="edge">
<title>Node1&#45;&gt;Node4</title>
<path fill="none" stroke="#63b8ff" d="M196.64,-340.95C190.22,-332.2 182.72,-321.99 176.52,-313.56"/>
<polygon fill="#63b8ff" stroke="#63b8ff" points="179.17,-311.25 170.43,-305.26 173.53,-315.39 179.17,-311.25"/>
</g>
<!-- Node13 -->
<g id="node13" class="node">
<title>Node13</title>
<g id="a_node13"><a xlink:href="../../da/d35/_c_c_array_8h.html" target="_top" xlink:title=" ">
<polygon fill="white" stroke="#666666" points="404.5,-305 309.5,-305 309.5,-286 404.5,-286 404.5,-305"/>
<text text-anchor="middle" x="357" y="-293" font-family="Helvetica,sans-Serif" font-size="10.00">cocoa/CCArray.h</text>
</a>
</g>
</g>
<!-- Node1&#45;&gt;Node13 -->
<g id="edge16" class="edge">
<title>Node1&#45;&gt;Node13</title>
<path fill="none" stroke="#63b8ff" d="M255.6,-340.95C279.2,-330.6 307.49,-318.2 328.19,-309.13"/>
<polygon fill="#63b8ff" stroke="#63b8ff" points="329.65,-312.31 337.4,-305.09 326.84,-305.9 329.65,-312.31"/>
</g>
<!-- Node5 -->
<g id="node5" class="node">
<title>Node5</title>
<g id="a_node5"><a xlink:href="../../d9/d2d/_c_c_data_visitor_8h.html" target="_top" xlink:title=" ">
<polygon fill="white" stroke="#666666" points="314.5,-244.5 221.5,-244.5 221.5,-225.5 314.5,-225.5 314.5,-244.5"/>
<text text-anchor="middle" x="268" y="-232.5" font-family="Helvetica,sans-Serif" font-size="10.00">CCDataVisitor.h</text>
</a>
</g>
</g>
<!-- Node4&#45;&gt;Node5 -->
<g id="edge4" class="edge">
<title>Node4&#45;&gt;Node5</title>
<path fill="none" stroke="#63b8ff" d="M179.35,-285.87C196.32,-276.32 223.9,-260.81 243.79,-249.62"/>
<polygon fill="#63b8ff" stroke="#63b8ff" points="245.59,-252.62 252.59,-244.67 242.16,-246.52 245.59,-252.62"/>
</g>
<!-- Node11 -->
<g id="node11" class="node">
<title>Node11</title>
<g id="a_node11"><a xlink:href="../../d9/dc8/cc_macros_8h.html" target="_top" xlink:title=" ">
<polygon fill="white" stroke="#666666" points="186.5,-244.5 115.5,-244.5 115.5,-225.5 186.5,-225.5 186.5,-244.5"/>
<text text-anchor="middle" x="151" y="-232.5" font-family="Helvetica,sans-Serif" font-size="10.00">ccMacros.h</text>
</a>
</g>
</g>
<!-- Node4&#45;&gt;Node11 -->
<g id="edge11" class="edge">
<title>Node4&#45;&gt;Node11</title>
<path fill="none" stroke="#63b8ff" d="M162.08,-285.87C160.26,-277.66 157.45,-265.04 155.12,-254.55"/>
<polygon fill="#63b8ff" stroke="#63b8ff" points="158.51,-253.67 152.93,-244.67 151.68,-255.19 158.51,-253.67"/>
</g>
<!-- Node6 -->
<g id="node6" class="node">
<title>Node6</title>
<g id="a_node6"><a xlink:href="../../d3/d41/_c_c_platform_macros_8h.html" target="_top" xlink:title=" ">
<polygon fill="white" stroke="#666666" points="279.5,-129 118.5,-129 118.5,-110 279.5,-110 279.5,-129"/>
<text text-anchor="middle" x="199" y="-117" font-family="Helvetica,sans-Serif" font-size="10.00">platform/CCPlatformMacros.h</text>
</a>
</g>
</g>
<!-- Node5&#45;&gt;Node6 -->
<g id="edge5" class="edge">
<title>Node5&#45;&gt;Node6</title>
<path fill="none" stroke="#63b8ff" d="M282.05,-225.33C301.37,-212.31 332.13,-186.87 317,-165 305.92,-148.98 288.28,-138.71 269.99,-132.15"/>
<polygon fill="#63b8ff" stroke="#63b8ff" points="270.98,-128.79 260.39,-129.04 268.83,-135.45 270.98,-128.79"/>
</g>
<!-- Node10 -->
<g id="node10" class="node">
<title>Node10</title>
<g id="a_node10"><a xlink:title=" ">
<polygon fill="#e0e0e0" stroke="#999999" points="308,-184 264,-184 264,-165 308,-165 308,-184"/>
<text text-anchor="middle" x="286" y="-172" font-family="Helvetica,sans-Serif" font-size="10.00">string</text>
</a>
</g>
</g>
<!-- Node5&#45;&gt;Node10 -->
<g id="edge10" class="edge">
<title>Node5&#45;&gt;Node10</title>
<path fill="none" stroke="#63b8ff" d="M270.66,-225.37C273.18,-217.16 277.06,-204.54 280.29,-194.05"/>
<polygon fill="#63b8ff" stroke="#63b8ff" points="283.74,-194.75 283.33,-184.17 277.05,-192.7 283.74,-194.75"/>
</g>
<!-- Node7 -->
<g id="node7" class="node">
<title>Node7</title>
<g id="a_node7"><a xlink:href="../../db/d9f/cc_config_8h.html" target="_top" xlink:title="cocos2d (cc) configuration file">
<polygon fill="white" stroke="#666666" points="123.5,-74 56.5,-74 56.5,-55 123.5,-55 123.5,-74"/>
<text text-anchor="middle" x="90" y="-62" font-family="Helvetica,sans-Serif" font-size="10.00">ccConfig.h</text>
</a>
</g>
</g>
<!-- Node6&#45;&gt;Node7 -->
<g id="edge6" class="edge">
<title>Node6&#45;&gt;Node7</title>
<path fill="none" stroke="#63b8ff" d="M181.49,-109.98C164.03,-101.5 136.99,-88.35 116.83,-78.54"/>
<polygon fill="#63b8ff" stroke="#63b8ff" points="118.36,-75.4 107.83,-74.17 115.29,-81.69 118.36,-75.4"/>
</g>
<!-- Node8 -->
<g id="node8" class="node">
<title>Node8</title>
<g id="a_node8"><a xlink:href="../../dd/d96/_c_c_platform_config_8h.html" target="_top" xlink:title=" ">
<polygon fill="white" stroke="#666666" points="264.5,-19 107.5,-19 107.5,0 264.5,0 264.5,-19"/>
<text text-anchor="middle" x="186" y="-7" font-family="Helvetica,sans-Serif" font-size="10.00">platform/CCPlatformConfig.h</text>
</a>
</g>
</g>
<!-- Node6&#45;&gt;Node8 -->
<g id="edge8" class="edge">
<title>Node6&#45;&gt;Node8</title>
<path fill="none" stroke="#63b8ff" d="M220.22,-109.86C244,-98.82 277.55,-78.33 264,-55 255.46,-40.29 240.03,-30.04 225.14,-23.11"/>
<polygon fill="#63b8ff" stroke="#63b8ff" points="226.08,-19.71 215.5,-19.03 223.34,-26.15 226.08,-19.71"/>
</g>
<!-- Node9 -->
<g id="node9" class="node">
<title>Node9</title>
<g id="a_node9"><a xlink:title=" ">
<polygon fill="#e0e0e0" stroke="#999999" points="254.5,-74 141.5,-74 141.5,-55 254.5,-55 254.5,-74"/>
<text text-anchor="middle" x="198" y="-62" font-family="Helvetica,sans-Serif" font-size="10.00">CCPlatformDefine.h</text>
</a>
</g>
</g>
<!-- Node6&#45;&gt;Node9 -->
<g id="edge9" class="edge">
<title>Node6&#45;&gt;Node9</title>
<path fill="none" stroke="#63b8ff" d="M198.83,-109.75C198.7,-102.8 198.52,-92.85 198.35,-84.13"/>
<polygon fill="#63b8ff" stroke="#63b8ff" points="201.85,-84.02 198.16,-74.09 194.85,-84.15 201.85,-84.02"/>
</g>
<!-- Node7&#45;&gt;Node8 -->
<g id="edge7" class="edge">
<title>Node7&#45;&gt;Node8</title>
<path fill="none" stroke="#63b8ff" d="M105.42,-54.98C120.45,-46.69 143.54,-33.94 161.16,-24.22"/>
<polygon fill="#63b8ff" stroke="#63b8ff" points="163.23,-27.07 170.3,-19.17 159.85,-20.94 163.23,-27.07"/>
</g>
<!-- Node11&#45;&gt;Node2 -->
<g id="edge14" class="edge">
<title>Node11&#45;&gt;Node2</title>
<path fill="none" stroke="#63b8ff" d="M133.55,-225.49C113.64,-215.79 80.86,-199.81 57.73,-188.53"/>
<polygon fill="#63b8ff" stroke="#63b8ff" points="58.99,-185.25 48.47,-184.02 55.93,-191.54 58.99,-185.25"/>
</g>
<!-- Node11&#45;&gt;Node7 -->
<g id="edge15" class="edge">
<title>Node11&#45;&gt;Node7</title>
<path fill="none" stroke="#63b8ff" d="M141.26,-225.48C131.43,-216.29 116.64,-200.7 109,-184 94.04,-151.27 90.61,-108.76 89.97,-84.57"/>
<polygon fill="#63b8ff" stroke="#63b8ff" points="93.47,-84.24 89.84,-74.28 86.47,-84.33 93.47,-84.24"/>
</g>
<!-- Node12 -->
<g id="node12" class="node">
<title>Node12</title>
<g id="a_node12"><a xlink:href="../../d5/d22/_c_c_common_8h.html" target="_top" xlink:title=" ">
<polygon fill="white" stroke="#666666" points="246,-184 118,-184 118,-165 246,-165 246,-184"/>
<text text-anchor="middle" x="182" y="-172" font-family="Helvetica,sans-Serif" font-size="10.00">platform/CCCommon.h</text>
</a>
</g>
</g>
<!-- Node11&#45;&gt;Node12 -->
<g id="edge12" class="edge">
<title>Node11&#45;&gt;Node12</title>
<path fill="none" stroke="#63b8ff" d="M155.57,-225.37C160.06,-216.9 167.03,-203.74 172.69,-193.07"/>
<polygon fill="#63b8ff" stroke="#63b8ff" points="175.82,-194.64 177.41,-184.17 169.63,-191.36 175.82,-194.64"/>
</g>
<!-- Node12&#45;&gt;Node6 -->
<g id="edge13" class="edge">
<title>Node12&#45;&gt;Node6</title>
<path fill="none" stroke="#63b8ff" d="M184.81,-164.75C187.06,-157.72 190.3,-147.62 193.12,-138.84"/>
<polygon fill="#63b8ff" stroke="#63b8ff" points="196.52,-139.68 196.25,-129.09 189.86,-137.54 196.52,-139.68"/>
</g>
<!-- Node14 -->
<g id="node14" class="node">
<title>Node14</title>
<g id="a_node14"><a xlink:title=" ">
<polygon fill="#e0e0e0" stroke="#999999" points="453,-250 333,-250 333,-220 453,-220 453,-250"/>
<text text-anchor="start" x="341" y="-238" font-family="Helvetica,sans-Serif" font-size="10.00">support/data_support</text>
<text text-anchor="middle" x="393" y="-227" font-family="Helvetica,sans-Serif" font-size="10.00">/ccCArray.h</text>
</a>
</g>
</g>
<!-- Node13&#45;&gt;Node14 -->
<g id="edge17" class="edge">
<title>Node13&#45;&gt;Node14</title>
<path fill="none" stroke="#63b8ff" d="M362.31,-285.87C366.7,-278.74 373.13,-268.28 378.98,-258.79"/>
<polygon fill="#63b8ff" stroke="#63b8ff" points="382.05,-260.47 384.31,-250.11 376.09,-256.8 382.05,-260.47"/>
</g>
</g>
</svg>
