<?xml version="1.0" encoding="UTF-8" standalone="no"?>
<!DOCTYPE svg PUBLIC "-//W3C//DTD SVG 1.1//EN"
 "http://www.w3.org/Graphics/SVG/1.1/DTD/svg11.dtd">
<!-- Generated by graphviz version 2.43.0 (0)
 -->
<!-- Title: CCTiledGrid3D Pages: 1 -->
<svg width="548pt" height="335pt"
 viewBox="0.00 0.00 547.51 335.00" xmlns="http://www.w3.org/2000/svg" xmlns:xlink="http://www.w3.org/1999/xlink">
<g id="graph0" class="graph" transform="scale(1 1) rotate(0) translate(4 331)">
<title>CCTiledGrid3D</title>
<!-- Node1 -->
<g id="node1" class="node">
<title>Node1</title>
<g id="a_node1"><a xlink:title="CCTiledGrid3D is a 3D grid implementation.">
<polygon fill="#999999" stroke="#666666" points="272.01,-19 184.01,-19 184.01,0 272.01,0 272.01,-19"/>
<text text-anchor="middle" x="228.01" y="-7" font-family="Helvetica,sans-Serif" font-size="10.00">CCTiledGrid3D</text>
</a>
</g>
</g>
<!-- Node2 -->
<g id="node2" class="node">
<title>Node2</title>
<g id="a_node2"><a xlink:href="../../d6/d70/classcocos2d_1_1_c_c_grid_base.html" target="_top" xlink:title="Base class for other.">
<polygon fill="white" stroke="#666666" points="265.01,-75 191.01,-75 191.01,-56 265.01,-56 265.01,-75"/>
<text text-anchor="middle" x="228.01" y="-63" font-family="Helvetica,sans-Serif" font-size="10.00">CCGridBase</text>
</a>
</g>
</g>
<!-- Node2&#45;&gt;Node1 -->
<g id="edge1" class="edge">
<title>Node2&#45;&gt;Node1</title>
<path fill="none" stroke="#63b8ff" d="M228.01,-45.3C228.01,-36.41 228.01,-26.28 228.01,-19.25"/>
<polygon fill="#63b8ff" stroke="#63b8ff" points="224.51,-45.58 228.01,-55.58 231.51,-45.58 224.51,-45.58"/>
</g>
<!-- Node3 -->
<g id="node3" class="node">
<title>Node3</title>
<g id="a_node3"><a xlink:href="../../d3/dbf/classcocos2d_1_1_c_c_object.html" target="_top" xlink:title="NA.">
<polygon fill="white" stroke="#666666" points="212.01,-271 150.01,-271 150.01,-252 212.01,-252 212.01,-271"/>
<text text-anchor="middle" x="181.01" y="-259" font-family="Helvetica,sans-Serif" font-size="10.00">CCObject</text>
</a>
</g>
</g>
<!-- Node3&#45;&gt;Node2 -->
<g id="edge2" class="edge">
<title>Node3&#45;&gt;Node2</title>
<path fill="none" stroke="#63b8ff" d="M139.89,-255.8C92.69,-249.46 19.64,-236.42 3.01,-215 -2.17,-208.33 1.34,-204.28 3.01,-196 13.77,-142.46 20.19,-115.38 70.01,-93 108.82,-75.56 157.68,-69.5 190.71,-67.45"/>
<polygon fill="#63b8ff" stroke="#63b8ff" points="139.46,-259.27 149.83,-257.09 140.36,-252.33 139.46,-259.27"/>
</g>
<!-- Node6 -->
<g id="node6" class="node">
<title>Node6</title>
<g id="a_node6"><a xlink:href="../../d7/dfd/classcocos2d_1_1_c_c_texture2_d.html" target="_top" xlink:title="CCTexture2D class.">
<polygon fill="white" stroke="#666666" points="202.01,-141 122.01,-141 122.01,-122 202.01,-122 202.01,-141"/>
<text text-anchor="middle" x="162.01" y="-129" font-family="Helvetica,sans-Serif" font-size="10.00">CCTexture2D</text>
</a>
</g>
</g>
<!-- Node3&#45;&gt;Node6 -->
<g id="edge6" class="edge">
<title>Node3&#45;&gt;Node6</title>
<path fill="none" stroke="#63b8ff" d="M173.33,-242.67C170.14,-234.41 166.78,-224.37 165.01,-215 159.99,-188.53 160.72,-156.44 161.47,-141.27"/>
<polygon fill="#63b8ff" stroke="#63b8ff" points="170.12,-244.06 177.14,-251.99 176.6,-241.41 170.12,-244.06"/>
</g>
<!-- Node7 -->
<g id="node7" class="node">
<title>Node7</title>
<g id="a_node7"><a xlink:href="../../db/d28/classcocos2d_1_1_c_c_g_l_program.html" target="_top" xlink:title="CCGLProgram Class that implements a glProgram.">
<polygon fill="white" stroke="#666666" points="258.01,-215 174.01,-215 174.01,-196 258.01,-196 258.01,-215"/>
<text text-anchor="middle" x="216.01" y="-203" font-family="Helvetica,sans-Serif" font-size="10.00">CCGLProgram</text>
</a>
</g>
</g>
<!-- Node3&#45;&gt;Node7 -->
<g id="edge9" class="edge">
<title>Node3&#45;&gt;Node7</title>
<path fill="none" stroke="#63b8ff" d="M192.31,-243.07C198.33,-233.77 205.47,-222.75 210.33,-215.25"/>
<polygon fill="#63b8ff" stroke="#63b8ff" points="189.29,-241.29 186.79,-251.58 195.16,-245.1 189.29,-241.29"/>
</g>
<!-- Node9 -->
<g id="node9" class="node">
<title>Node9</title>
<g id="a_node9"><a xlink:href="../../d3/d89/classcocos2d_1_1_c_c_grabber.html" target="_top" xlink:title="FBO class that grabs the the contents of the screen NA NA.">
<polygon fill="white" stroke="#666666" points="393.51,-178 324.51,-178 324.51,-159 393.51,-159 393.51,-178"/>
<text text-anchor="middle" x="359.01" y="-166" font-family="Helvetica,sans-Serif" font-size="10.00">CCGrabber</text>
</a>
</g>
</g>
<!-- Node3&#45;&gt;Node9 -->
<g id="edge12" class="edge">
<title>Node3&#45;&gt;Node9</title>
<path fill="none" stroke="#63b8ff" d="M206.91,-247.26C243.94,-228.32 310.97,-194.06 342.17,-178.1"/>
<polygon fill="#63b8ff" stroke="#63b8ff" points="205.06,-244.27 197.75,-251.94 208.25,-250.5 205.06,-244.27"/>
</g>
<!-- Node4 -->
<g id="node4" class="node">
<title>Node4</title>
<g id="a_node4"><a xlink:href="../../d5/d61/classcocos2d_1_1_c_c_copying.html" target="_top" xlink:title="NA NA.">
<polygon fill="white" stroke="#666666" points="216.01,-327 146.01,-327 146.01,-308 216.01,-308 216.01,-327"/>
<text text-anchor="middle" x="181.01" y="-315" font-family="Helvetica,sans-Serif" font-size="10.00">CCCopying</text>
</a>
</g>
</g>
<!-- Node4&#45;&gt;Node3 -->
<g id="edge3" class="edge">
<title>Node4&#45;&gt;Node3</title>
<path fill="none" stroke="#63b8ff" d="M181.01,-297.3C181.01,-288.41 181.01,-278.28 181.01,-271.25"/>
<polygon fill="#63b8ff" stroke="#63b8ff" points="177.51,-297.58 181.01,-307.58 184.51,-297.58 177.51,-297.58"/>
</g>
<!-- Node5 -->
<g id="node5" class="node">
<title>Node5</title>
<g id="a_node5"><a xlink:href="../../d9/d24/classcocos2d_1_1_c_c_size.html" target="_top" xlink:title="NA.">
<polygon fill="white" stroke="#666666" points="62.01,-215 12.01,-215 12.01,-196 62.01,-196 62.01,-215"/>
<text text-anchor="middle" x="37.01" y="-203" font-family="Helvetica,sans-Serif" font-size="10.00">CCSize</text>
</a>
</g>
</g>
<!-- Node5&#45;&gt;Node2 -->
<g id="edge4" class="edge">
<title>Node5&#45;&gt;Node2</title>
<path fill="none" stroke="#9a32cd" stroke-dasharray="5,2" d="M33.9,-185.76C31.95,-166.93 32.38,-138.41 49.01,-122 87.21,-84.29 150.53,-72.13 190.71,-68.26"/>
<polygon fill="#9a32cd" stroke="#9a32cd" points="30.45,-186.36 35.26,-195.8 37.39,-185.42 30.45,-186.36"/>
<text text-anchor="middle" x="81.01" y="-129" font-family="Helvetica,sans-Serif" font-size="10.00"> m_sGridSize</text>
</g>
<!-- Node5&#45;&gt;Node6 -->
<g id="edge7" class="edge">
<title>Node5&#45;&gt;Node6</title>
<path fill="none" stroke="#9a32cd" stroke-dasharray="5,2" d="M38.44,-185.86C40.12,-176.59 43.64,-165.91 51.01,-159 61.3,-149.34 94.53,-142.23 121.97,-137.81"/>
<polygon fill="#9a32cd" stroke="#9a32cd" points="34.97,-185.45 37.21,-195.8 41.92,-186.31 34.97,-185.45"/>
<text text-anchor="middle" x="91.51" y="-166" font-family="Helvetica,sans-Serif" font-size="10.00"> m_tContentSize</text>
</g>
<!-- Node6&#45;&gt;Node2 -->
<g id="edge5" class="edge">
<title>Node6&#45;&gt;Node2</title>
<path fill="none" stroke="#9a32cd" stroke-dasharray="5,2" d="M173.56,-113.44C178.53,-106.7 184.65,-99.13 191.01,-93 197.95,-86.31 206.67,-79.98 213.91,-75.18"/>
<polygon fill="#9a32cd" stroke="#9a32cd" points="170.51,-111.7 167.59,-121.88 176.22,-115.74 170.51,-111.7"/>
<text text-anchor="middle" x="221.51" y="-96" font-family="Helvetica,sans-Serif" font-size="10.00"> m_pTexture</text>
</g>
<!-- Node7&#45;&gt;Node2 -->
<g id="edge13" class="edge">
<title>Node7&#45;&gt;Node2</title>
<path fill="none" stroke="#9a32cd" stroke-dasharray="5,2" d="M265.78,-191.21C271.38,-187.77 276.37,-183.45 280.01,-178 284.7,-170.98 282.75,-166.99 280.01,-159 276.72,-149.41 270.62,-150.02 266.01,-141 255.89,-121.21 262.85,-112.4 252.01,-93 248.25,-86.28 242.5,-79.85 237.57,-75.01"/>
<polygon fill="#9a32cd" stroke="#9a32cd" points="263.89,-188.25 256.59,-195.92 267.08,-194.48 263.89,-188.25"/>
<text text-anchor="middle" x="316.01" y="-129" font-family="Helvetica,sans-Serif" font-size="10.00"> m_pShaderProgram</text>
</g>
<!-- Node7&#45;&gt;Node6 -->
<g id="edge8" class="edge">
<title>Node7&#45;&gt;Node6</title>
<path fill="none" stroke="#9a32cd" stroke-dasharray="5,2" d="M191.99,-189.78C187.6,-186.31 183.35,-182.35 180.01,-178 171.4,-166.83 166.39,-151.01 163.92,-141.27"/>
<polygon fill="#9a32cd" stroke="#9a32cd" points="190.24,-192.83 200.41,-195.79 194.31,-187.13 190.24,-192.83"/>
<text text-anchor="middle" x="230.01" y="-166" font-family="Helvetica,sans-Serif" font-size="10.00"> m_pShaderProgram</text>
</g>
<!-- Node8 -->
<g id="node8" class="node">
<title>Node8</title>
<g id="a_node8"><a xlink:href="../../d2/df3/classcocos2d_1_1_c_c_point.html" target="_top" xlink:title="NA.">
<polygon fill="white" stroke="#666666" points="539.51,-141 484.51,-141 484.51,-122 539.51,-122 539.51,-141"/>
<text text-anchor="middle" x="512.01" y="-129" font-family="Helvetica,sans-Serif" font-size="10.00">CCPoint</text>
</a>
</g>
</g>
<!-- Node8&#45;&gt;Node2 -->
<g id="edge10" class="edge">
<title>Node8&#45;&gt;Node2</title>
<path fill="none" stroke="#9a32cd" stroke-dasharray="5,2" d="M484.47,-117.77C465.58,-109.53 439.74,-99.22 416.01,-93 364.67,-79.55 303.55,-72.54 265.25,-69.18"/>
<polygon fill="#9a32cd" stroke="#9a32cd" points="483.11,-120.99 493.67,-121.86 485.95,-114.6 483.11,-120.99"/>
<text text-anchor="middle" x="474.01" y="-96" font-family="Helvetica,sans-Serif" font-size="10.00"> m_obStep</text>
</g>
<!-- Node9&#45;&gt;Node2 -->
<g id="edge11" class="edge">
<title>Node9&#45;&gt;Node2</title>
<path fill="none" stroke="#9a32cd" stroke-dasharray="5,2" d="M369.62,-149.57C373.41,-140.66 375.53,-130.09 370.01,-122 346.65,-87.79 298.78,-74.67 265.1,-69.63"/>
<polygon fill="#9a32cd" stroke="#9a32cd" points="366.38,-148.22 364.95,-158.71 372.62,-151.4 366.38,-148.22"/>
<text text-anchor="middle" x="405.01" y="-129" font-family="Helvetica,sans-Serif" font-size="10.00"> m_pGrabber</text>
</g>
</g>
</svg>
