<?xml version="1.0" encoding="UTF-8" standalone="no"?>
<!DOCTYPE svg PUBLIC "-//W3C//DTD SVG 1.1//EN"
 "http://www.w3.org/Graphics/SVG/1.1/DTD/svg11.dtd">
<!-- Generated by graphviz version 2.43.0 (0)
 -->
<!-- Title: /home/runner/work/cocos&#45;headers/cocos&#45;headers/cocos2dx/platform/winrt/CCEGLView.h Pages: 1 -->
<svg width="1344pt" height="555pt"
 viewBox="0.00 0.00 1344.11 555.00" xmlns="http://www.w3.org/2000/svg" xmlns:xlink="http://www.w3.org/1999/xlink">
<g id="graph0" class="graph" transform="scale(1 1) rotate(0) translate(4 551)">
<title>/home/runner/work/cocos&#45;headers/cocos&#45;headers/cocos2dx/platform/winrt/CCEGLView.h</title>
<!-- Node1 -->
<g id="node1" class="node">
<title>Node1</title>
<g id="a_node1"><a xlink:title=" ">
<polygon fill="#999999" stroke="#666666" points="1052.11,-547 912.11,-547 912.11,-495 1052.11,-495 1052.11,-547"/>
<text text-anchor="start" x="920.11" y="-535" font-family="Helvetica,sans-Serif" font-size="10.00">/home/runner/work/cocos</text>
<text text-anchor="start" x="920.11" y="-524" font-family="Helvetica,sans-Serif" font-size="10.00">&#45;headers/cocos&#45;headers</text>
<text text-anchor="start" x="920.11" y="-513" font-family="Helvetica,sans-Serif" font-size="10.00">/cocos2dx/platform/winrt</text>
<text text-anchor="middle" x="982.11" y="-502" font-family="Helvetica,sans-Serif" font-size="10.00">/CCEGLView.h</text>
</a>
</g>
</g>
<!-- Node2 -->
<g id="node2" class="node">
<title>Node2</title>
<g id="a_node2"><a xlink:href="../../df/d52/winrt_2_c_c_std_c_8h.html" target="_top" xlink:title=" ">
<polygon fill="white" stroke="#666666" points="350.11,-349 288.11,-349 288.11,-330 350.11,-330 350.11,-349"/>
<text text-anchor="middle" x="319.11" y="-337" font-family="Helvetica,sans-Serif" font-size="10.00">CCStdC.h</text>
</a>
</g>
</g>
<!-- Node1&#45;&gt;Node2 -->
<g id="edge1" class="edge">
<title>Node1&#45;&gt;Node2</title>
<path fill="none" stroke="#63b8ff" d="M912.1,-501.05C773.95,-463.64 470.11,-381.38 359.99,-351.57"/>
<polygon fill="#63b8ff" stroke="#63b8ff" points="360.82,-348.17 350.26,-348.93 358.99,-354.92 360.82,-348.17"/>
</g>
<!-- Node18 -->
<g id="node18" class="node">
<title>Node18</title>
<g id="a_node18"><a xlink:href="../../d5/d22/_c_c_common_8h.html" target="_top" xlink:title=" ">
<polygon fill="white" stroke="#666666" points="873.11,-184 745.11,-184 745.11,-165 873.11,-165 873.11,-184"/>
<text text-anchor="middle" x="809.11" y="-172" font-family="Helvetica,sans-Serif" font-size="10.00">platform/CCCommon.h</text>
</a>
</g>
</g>
<!-- Node1&#45;&gt;Node18 -->
<g id="edge18" class="edge">
<title>Node1&#45;&gt;Node18</title>
<path fill="none" stroke="#63b8ff" d="M911.75,-506.68C882.02,-497.76 849.23,-483.06 827.11,-459 807.18,-437.31 808.11,-424.96 808.11,-395.5 808.11,-395.5 808.11,-395.5 808.11,-283.5 808.11,-252.19 808.54,-215.77 808.84,-194.23"/>
<polygon fill="#63b8ff" stroke="#63b8ff" points="812.34,-194.23 808.98,-184.18 805.34,-194.13 812.34,-194.23"/>
</g>
<!-- Node19 -->
<g id="node19" class="node">
<title>Node19</title>
<g id="a_node19"><a xlink:href="../../d6/d09/_c_c_geometry_8h.html" target="_top" xlink:title=" ">
<polygon fill="white" stroke="#666666" points="780.11,-349 662.11,-349 662.11,-330 780.11,-330 780.11,-349"/>
<text text-anchor="middle" x="721.11" y="-337" font-family="Helvetica,sans-Serif" font-size="10.00">cocoa/CCGeometry.h</text>
</a>
</g>
</g>
<!-- Node1&#45;&gt;Node19 -->
<g id="edge20" class="edge">
<title>Node1&#45;&gt;Node19</title>
<path fill="none" stroke="#63b8ff" d="M911.75,-509.35C873.81,-500.79 827.97,-485.61 794.11,-459 760.04,-432.21 737.88,-384.79 727.66,-358.79"/>
<polygon fill="#63b8ff" stroke="#63b8ff" points="730.81,-357.22 724.01,-349.09 724.26,-359.68 730.81,-357.22"/>
</g>
<!-- Node25 -->
<g id="node25" class="node">
<title>Node25</title>
<g id="a_node25"><a xlink:href="../../df/da9/_c_c_e_g_l_view_protocol_8h.html" target="_top" xlink:title=" ">
<polygon fill="white" stroke="#666666" points="1002.11,-459 836.11,-459 836.11,-440 1002.11,-440 1002.11,-459"/>
<text text-anchor="middle" x="919.11" y="-447" font-family="Helvetica,sans-Serif" font-size="10.00">platform/CCEGLViewProtocol.h</text>
</a>
</g>
</g>
<!-- Node1&#45;&gt;Node25 -->
<g id="edge31" class="edge">
<title>Node1&#45;&gt;Node25</title>
<path fill="none" stroke="#63b8ff" d="M959.37,-494.91C950.91,-485.58 941.54,-475.24 933.96,-466.88"/>
<polygon fill="#63b8ff" stroke="#63b8ff" points="936.4,-464.36 927.09,-459.3 931.22,-469.06 936.4,-464.36"/>
</g>
<!-- Node28 -->
<g id="node28" class="node">
<title>Node28</title>
<g id="a_node28"><a xlink:title=" ">
<polygon fill="#e0e0e0" stroke="#999999" points="1070.11,-459 1020.11,-459 1020.11,-440 1070.11,-440 1070.11,-459"/>
<text text-anchor="middle" x="1045.11" y="-447" font-family="Helvetica,sans-Serif" font-size="10.00">agile.h</text>
</a>
</g>
</g>
<!-- Node1&#45;&gt;Node28 -->
<g id="edge36" class="edge">
<title>Node1&#45;&gt;Node28</title>
<path fill="none" stroke="#63b8ff" d="M1004.86,-494.91C1013.32,-485.58 1022.69,-475.24 1030.26,-466.88"/>
<polygon fill="#63b8ff" stroke="#63b8ff" points="1033.01,-469.06 1037.13,-459.3 1027.83,-464.36 1033.01,-469.06"/>
</g>
<!-- Node29 -->
<g id="node29" class="node">
<title>Node29</title>
<g id="a_node29"><a xlink:title=" ">
<polygon fill="#e0e0e0" stroke="#999999" points="1159.61,-459 1088.61,-459 1088.61,-440 1159.61,-440 1159.61,-459"/>
<text text-anchor="middle" x="1124.11" y="-447" font-family="Helvetica,sans-Serif" font-size="10.00">wrl/client.h</text>
</a>
</g>
</g>
<!-- Node1&#45;&gt;Node29 -->
<g id="edge37" class="edge">
<title>Node1&#45;&gt;Node29</title>
<path fill="none" stroke="#63b8ff" d="M1033.38,-494.91C1054.96,-484.35 1079.19,-472.49 1097.18,-463.68"/>
<polygon fill="#63b8ff" stroke="#63b8ff" points="1099.03,-466.68 1106.47,-459.14 1095.95,-460.39 1099.03,-466.68"/>
</g>
<!-- Node30 -->
<g id="node30" class="node">
<title>Node30</title>
<g id="a_node30"><a xlink:title=" ">
<polygon fill="#e0e0e0" stroke="#999999" points="1264.11,-459 1178.11,-459 1178.11,-440 1264.11,-440 1264.11,-459"/>
<text text-anchor="middle" x="1221.11" y="-447" font-family="Helvetica,sans-Serif" font-size="10.00">DirectXMath.h</text>
</a>
</g>
</g>
<!-- Node1&#45;&gt;Node30 -->
<g id="edge38" class="edge">
<title>Node1&#45;&gt;Node30</title>
<path fill="none" stroke="#63b8ff" d="M1052.21,-499.62C1094.45,-487.33 1146.7,-472.14 1181.8,-461.93"/>
<polygon fill="#63b8ff" stroke="#63b8ff" points="1183.05,-465.21 1191.67,-459.06 1181.09,-458.49 1183.05,-465.21"/>
</g>
<!-- Node31 -->
<g id="node31" class="node">
<title>Node31</title>
<g id="a_node31"><a xlink:title=" ">
<polygon fill="#e0e0e0" stroke="#999999" points="1336.11,-459 1282.11,-459 1282.11,-440 1336.11,-440 1336.11,-459"/>
<text text-anchor="middle" x="1309.11" y="-447" font-family="Helvetica,sans-Serif" font-size="10.00">esUtil.h</text>
</a>
</g>
</g>
<!-- Node1&#45;&gt;Node31 -->
<g id="edge39" class="edge">
<title>Node1&#45;&gt;Node31</title>
<path fill="none" stroke="#63b8ff" d="M1052.19,-505.83C1108.9,-494.24 1191.07,-477.18 1272.13,-459.18"/>
<polygon fill="#63b8ff" stroke="#63b8ff" points="1273,-462.57 1282,-456.98 1271.48,-455.74 1273,-462.57"/>
</g>
<!-- Node3 -->
<g id="node3" class="node">
<title>Node3</title>
<g id="a_node3"><a xlink:href="../../d3/d41/_c_c_platform_macros_8h.html" target="_top" xlink:title=" ">
<polygon fill="white" stroke="#666666" points="889.61,-129 728.61,-129 728.61,-110 889.61,-110 889.61,-129"/>
<text text-anchor="middle" x="809.11" y="-117" font-family="Helvetica,sans-Serif" font-size="10.00">platform/CCPlatformMacros.h</text>
</a>
</g>
</g>
<!-- Node2&#45;&gt;Node3 -->
<g id="edge2" class="edge">
<title>Node2&#45;&gt;Node3</title>
<path fill="none" stroke="#63b8ff" d="M287.86,-339.02C215.67,-339.47 40.7,-336.11 4.11,-294 -1.42,-287.62 -1.27,-281.51 4.11,-275 93.95,-166.28 527.22,-133.3 718.28,-123.95"/>
<polygon fill="#63b8ff" stroke="#63b8ff" points="718.48,-127.44 728.3,-123.47 718.15,-120.45 718.48,-127.44"/>
</g>
<!-- Node7 -->
<g id="node7" class="node">
<title>Node7</title>
<g id="a_node7"><a xlink:title=" ">
<polygon fill="#e0e0e0" stroke="#999999" points="60.61,-294 13.61,-294 13.61,-275 60.61,-275 60.61,-294"/>
<text text-anchor="middle" x="37.11" y="-282" font-family="Helvetica,sans-Serif" font-size="10.00">float.h</text>
</a>
</g>
</g>
<!-- Node2&#45;&gt;Node7 -->
<g id="edge7" class="edge">
<title>Node2&#45;&gt;Node7</title>
<path fill="none" stroke="#63b8ff" d="M287.77,-333.78C242.06,-326.72 154.25,-312.44 70.72,-294.22"/>
<polygon fill="#63b8ff" stroke="#63b8ff" points="71.34,-290.77 60.83,-292.03 69.84,-297.61 71.34,-290.77"/>
</g>
<!-- Node8 -->
<g id="node8" class="node">
<title>Node8</title>
<g id="a_node8"><a xlink:title=" ">
<polygon fill="#e0e0e0" stroke="#999999" points="691.61,-294 640.61,-294 640.61,-275 691.61,-275 691.61,-294"/>
<text text-anchor="middle" x="666.11" y="-282" font-family="Helvetica,sans-Serif" font-size="10.00">math.h</text>
</a>
</g>
</g>
<!-- Node2&#45;&gt;Node8 -->
<g id="edge8" class="edge">
<title>Node2&#45;&gt;Node8</title>
<path fill="none" stroke="#63b8ff" d="M350.28,-335.07C404.96,-328.82 521.91,-314.5 630.73,-293.89"/>
<polygon fill="#63b8ff" stroke="#63b8ff" points="631.4,-297.33 640.56,-292.01 630.08,-290.45 631.4,-297.33"/>
</g>
<!-- Node9 -->
<g id="node9" class="node">
<title>Node9</title>
<g id="a_node9"><a xlink:title=" ">
<polygon fill="#e0e0e0" stroke="#999999" points="131.61,-294 78.61,-294 78.61,-275 131.61,-275 131.61,-294"/>
<text text-anchor="middle" x="105.11" y="-282" font-family="Helvetica,sans-Serif" font-size="10.00">string.h</text>
</a>
</g>
</g>
<!-- Node2&#45;&gt;Node9 -->
<g id="edge9" class="edge">
<title>Node2&#45;&gt;Node9</title>
<path fill="none" stroke="#63b8ff" d="M288,-330.79C249.2,-321.19 183,-304.79 141.78,-294.58"/>
<polygon fill="#63b8ff" stroke="#63b8ff" points="142.42,-291.13 131.87,-292.13 140.74,-297.93 142.42,-291.13"/>
</g>
<!-- Node10 -->
<g id="node10" class="node">
<title>Node10</title>
<g id="a_node10"><a xlink:title=" ">
<polygon fill="#e0e0e0" stroke="#999999" points="206.11,-294 150.11,-294 150.11,-275 206.11,-275 206.11,-294"/>
<text text-anchor="middle" x="178.11" y="-282" font-family="Helvetica,sans-Serif" font-size="10.00">stdarg.h</text>
</a>
</g>
</g>
<!-- Node2&#45;&gt;Node10 -->
<g id="edge10" class="edge">
<title>Node2&#45;&gt;Node10</title>
<path fill="none" stroke="#63b8ff" d="M296.46,-329.98C273.27,-321.27 236.99,-307.63 210.71,-297.75"/>
<polygon fill="#63b8ff" stroke="#63b8ff" points="211.77,-294.41 201.18,-294.17 209.31,-300.97 211.77,-294.41"/>
</g>
<!-- Node11 -->
<g id="node11" class="node">
<title>Node11</title>
<g id="a_node11"><a xlink:title=" ">
<polygon fill="#e0e0e0" stroke="#999999" points="274.11,-294 224.11,-294 224.11,-275 274.11,-275 274.11,-294"/>
<text text-anchor="middle" x="249.11" y="-282" font-family="Helvetica,sans-Serif" font-size="10.00">stdio.h</text>
</a>
</g>
</g>
<!-- Node2&#45;&gt;Node11 -->
<g id="edge11" class="edge">
<title>Node2&#45;&gt;Node11</title>
<path fill="none" stroke="#63b8ff" d="M307.87,-329.98C297.32,-322 281.31,-309.88 268.67,-300.31"/>
<polygon fill="#63b8ff" stroke="#63b8ff" points="270.65,-297.42 260.56,-294.17 266.42,-303 270.65,-297.42"/>
</g>
<!-- Node12 -->
<g id="node12" class="node">
<title>Node12</title>
<g id="a_node12"><a xlink:title=" ">
<polygon fill="#e0e0e0" stroke="#999999" points="345.61,-294 292.61,-294 292.61,-275 345.61,-275 345.61,-294"/>
<text text-anchor="middle" x="319.11" y="-282" font-family="Helvetica,sans-Serif" font-size="10.00">stdlib.h</text>
</a>
</g>
</g>
<!-- Node2&#45;&gt;Node12 -->
<g id="edge12" class="edge">
<title>Node2&#45;&gt;Node12</title>
<path fill="none" stroke="#63b8ff" d="M319.11,-329.75C319.11,-322.8 319.11,-312.85 319.11,-304.13"/>
<polygon fill="#63b8ff" stroke="#63b8ff" points="322.61,-304.09 319.11,-294.09 315.61,-304.09 322.61,-304.09"/>
</g>
<!-- Node13 -->
<g id="node13" class="node">
<title>Node13</title>
<g id="a_node13"><a xlink:title=" ">
<polygon fill="#e0e0e0" stroke="#999999" points="412.11,-294 364.11,-294 364.11,-275 412.11,-275 412.11,-294"/>
<text text-anchor="middle" x="388.11" y="-282" font-family="Helvetica,sans-Serif" font-size="10.00">time.h</text>
</a>
</g>
</g>
<!-- Node2&#45;&gt;Node13 -->
<g id="edge13" class="edge">
<title>Node2&#45;&gt;Node13</title>
<path fill="none" stroke="#63b8ff" d="M330.2,-329.98C340.6,-322 356.37,-309.88 368.84,-300.31"/>
<polygon fill="#63b8ff" stroke="#63b8ff" points="371.03,-303.04 376.83,-294.17 366.76,-297.49 371.03,-303.04"/>
</g>
<!-- Node14 -->
<g id="node14" class="node">
<title>Node14</title>
<g id="a_node14"><a xlink:href="../../db/de0/winrt_2compat_2stdint_8h.html" target="_top" xlink:title=" ">
<polygon fill="white" stroke="#666666" points="529.61,-294 430.61,-294 430.61,-275 529.61,-275 529.61,-294"/>
<text text-anchor="middle" x="480.11" y="-282" font-family="Helvetica,sans-Serif" font-size="10.00">./compat/stdint.h</text>
</a>
</g>
</g>
<!-- Node2&#45;&gt;Node14 -->
<g id="edge14" class="edge">
<title>Node2&#45;&gt;Node14</title>
<path fill="none" stroke="#63b8ff" d="M344.98,-329.98C371.89,-321.13 414.23,-307.19 444.34,-297.28"/>
<polygon fill="#63b8ff" stroke="#63b8ff" points="445.64,-300.53 454.04,-294.08 443.45,-293.88 445.64,-300.53"/>
</g>
<!-- Node17 -->
<g id="node17" class="node">
<title>Node17</title>
<g id="a_node17"><a xlink:title=" ">
<polygon fill="#e0e0e0" stroke="#999999" points="622.11,-294 548.11,-294 548.11,-275 622.11,-275 622.11,-294"/>
<text text-anchor="middle" x="585.11" y="-282" font-family="Helvetica,sans-Serif" font-size="10.00">WinSock2.h</text>
</a>
</g>
</g>
<!-- Node2&#45;&gt;Node17 -->
<g id="edge17" class="edge">
<title>Node2&#45;&gt;Node17</title>
<path fill="none" stroke="#63b8ff" d="M350.15,-332.32C396.37,-323.11 483.65,-305.72 537.84,-294.92"/>
<polygon fill="#63b8ff" stroke="#63b8ff" points="538.76,-298.3 547.89,-292.92 537.4,-291.44 538.76,-298.3"/>
</g>
<!-- Node4 -->
<g id="node4" class="node">
<title>Node4</title>
<g id="a_node4"><a xlink:href="../../db/d9f/cc_config_8h.html" target="_top" xlink:title="cocos2d (cc) configuration file">
<polygon fill="white" stroke="#666666" points="947.61,-74 880.61,-74 880.61,-55 947.61,-55 947.61,-74"/>
<text text-anchor="middle" x="914.11" y="-62" font-family="Helvetica,sans-Serif" font-size="10.00">ccConfig.h</text>
</a>
</g>
</g>
<!-- Node3&#45;&gt;Node4 -->
<g id="edge3" class="edge">
<title>Node3&#45;&gt;Node4</title>
<path fill="none" stroke="#63b8ff" d="M825.98,-109.98C842.72,-101.54 868.61,-88.47 888.01,-78.68"/>
<polygon fill="#63b8ff" stroke="#63b8ff" points="889.59,-81.8 896.94,-74.17 886.43,-75.55 889.59,-81.8"/>
</g>
<!-- Node5 -->
<g id="node5" class="node">
<title>Node5</title>
<g id="a_node5"><a xlink:href="../../dd/d96/_c_c_platform_config_8h.html" target="_top" xlink:title=" ">
<polygon fill="white" stroke="#666666" points="961.61,-19 804.61,-19 804.61,0 961.61,0 961.61,-19"/>
<text text-anchor="middle" x="883.11" y="-7" font-family="Helvetica,sans-Serif" font-size="10.00">platform/CCPlatformConfig.h</text>
</a>
</g>
</g>
<!-- Node3&#45;&gt;Node5 -->
<g id="edge5" class="edge">
<title>Node3&#45;&gt;Node5</title>
<path fill="none" stroke="#63b8ff" d="M815.17,-109.66C827.43,-91.77 855.36,-51 871.33,-27.69"/>
<polygon fill="#63b8ff" stroke="#63b8ff" points="874.42,-29.39 877.18,-19.16 868.64,-25.43 874.42,-29.39"/>
</g>
<!-- Node6 -->
<g id="node6" class="node">
<title>Node6</title>
<g id="a_node6"><a xlink:title=" ">
<polygon fill="#e0e0e0" stroke="#999999" points="823.61,-74 710.61,-74 710.61,-55 823.61,-55 823.61,-74"/>
<text text-anchor="middle" x="767.11" y="-62" font-family="Helvetica,sans-Serif" font-size="10.00">CCPlatformDefine.h</text>
</a>
</g>
</g>
<!-- Node3&#45;&gt;Node6 -->
<g id="edge6" class="edge">
<title>Node3&#45;&gt;Node6</title>
<path fill="none" stroke="#63b8ff" d="M802.18,-109.75C796.25,-102.26 787.54,-91.28 780.29,-82.13"/>
<polygon fill="#63b8ff" stroke="#63b8ff" points="782.87,-79.75 773.92,-74.09 777.39,-84.1 782.87,-79.75"/>
</g>
<!-- Node4&#45;&gt;Node5 -->
<g id="edge4" class="edge">
<title>Node4&#45;&gt;Node5</title>
<path fill="none" stroke="#63b8ff" d="M908.99,-54.75C904.75,-47.49 898.59,-36.95 893.34,-27.98"/>
<polygon fill="#63b8ff" stroke="#63b8ff" points="896.21,-25.95 888.14,-19.09 890.17,-29.49 896.21,-25.95"/>
</g>
<!-- Node15 -->
<g id="node15" class="node">
<title>Node15</title>
<g id="a_node15"><a xlink:title=" ">
<polygon fill="#e0e0e0" stroke="#999999" points="542.61,-239 489.61,-239 489.61,-220 542.61,-220 542.61,-239"/>
<text text-anchor="middle" x="516.11" y="-227" font-family="Helvetica,sans-Serif" font-size="10.00">limits.h</text>
</a>
</g>
</g>
<!-- Node14&#45;&gt;Node15 -->
<g id="edge15" class="edge">
<title>Node14&#45;&gt;Node15</title>
<path fill="none" stroke="#63b8ff" d="M486.06,-274.75C491.09,-267.34 498.45,-256.5 504.63,-247.41"/>
<polygon fill="#63b8ff" stroke="#63b8ff" points="507.56,-249.33 510.28,-239.09 501.77,-245.39 507.56,-249.33"/>
</g>
<!-- Node16 -->
<g id="node16" class="node">
<title>Node16</title>
<g id="a_node16"><a xlink:title=" ">
<polygon fill="#e0e0e0" stroke="#999999" points="471.11,-239 417.11,-239 417.11,-220 471.11,-220 471.11,-239"/>
<text text-anchor="middle" x="444.11" y="-227" font-family="Helvetica,sans-Serif" font-size="10.00">wchar.h</text>
</a>
</g>
</g>
<!-- Node14&#45;&gt;Node16 -->
<g id="edge16" class="edge">
<title>Node14&#45;&gt;Node16</title>
<path fill="none" stroke="#63b8ff" d="M474.17,-274.75C469.14,-267.34 461.78,-256.5 455.6,-247.41"/>
<polygon fill="#63b8ff" stroke="#63b8ff" points="458.46,-245.39 449.95,-239.09 452.67,-249.33 458.46,-245.39"/>
</g>
<!-- Node18&#45;&gt;Node3 -->
<g id="edge19" class="edge">
<title>Node18&#45;&gt;Node3</title>
<path fill="none" stroke="#63b8ff" d="M809.11,-164.75C809.11,-157.8 809.11,-147.85 809.11,-139.13"/>
<polygon fill="#63b8ff" stroke="#63b8ff" points="812.61,-139.09 809.11,-129.09 805.61,-139.09 812.61,-139.09"/>
</g>
<!-- Node19&#45;&gt;Node3 -->
<g id="edge21" class="edge">
<title>Node19&#45;&gt;Node3</title>
<path fill="none" stroke="#63b8ff" d="M719.3,-329.71C714.22,-302.71 702.35,-219.48 736.11,-165 744.96,-150.72 760.26,-140.37 774.57,-133.26"/>
<polygon fill="#63b8ff" stroke="#63b8ff" points="776.13,-136.4 783.76,-129.05 773.21,-130.03 776.13,-136.4"/>
</g>
<!-- Node19&#45;&gt;Node8 -->
<g id="edge30" class="edge">
<title>Node19&#45;&gt;Node8</title>
<path fill="none" stroke="#63b8ff" d="M712.03,-329.75C704.02,-322.03 692.16,-310.6 682.49,-301.28"/>
<polygon fill="#63b8ff" stroke="#63b8ff" points="684.66,-298.51 675.03,-294.09 679.8,-303.55 684.66,-298.51"/>
</g>
<!-- Node20 -->
<g id="node20" class="node">
<title>Node20</title>
<g id="a_node20"><a xlink:href="../../dd/d69/_c_c_object_8h.html" target="_top" xlink:title=" ">
<polygon fill="white" stroke="#666666" points="920.61,-294 849.61,-294 849.61,-275 920.61,-275 920.61,-294"/>
<text text-anchor="middle" x="885.11" y="-282" font-family="Helvetica,sans-Serif" font-size="10.00">CCObject.h</text>
</a>
</g>
</g>
<!-- Node19&#45;&gt;Node20 -->
<g id="edge22" class="edge">
<title>Node19&#45;&gt;Node20</title>
<path fill="none" stroke="#63b8ff" d="M747.46,-329.98C774.88,-321.13 818.01,-307.19 848.67,-297.28"/>
<polygon fill="#63b8ff" stroke="#63b8ff" points="850.12,-300.49 858.56,-294.08 847.97,-293.83 850.12,-300.49"/>
</g>
<!-- Node21 -->
<g id="node21" class="node">
<title>Node21</title>
<g id="a_node21"><a xlink:href="../../d9/d2d/_c_c_data_visitor_8h.html" target="_top" xlink:title=" ">
<polygon fill="white" stroke="#666666" points="1031.61,-239 938.61,-239 938.61,-220 1031.61,-220 1031.61,-239"/>
<text text-anchor="middle" x="985.11" y="-227" font-family="Helvetica,sans-Serif" font-size="10.00">CCDataVisitor.h</text>
</a>
</g>
</g>
<!-- Node20&#45;&gt;Node21 -->
<g id="edge23" class="edge">
<title>Node20&#45;&gt;Node21</title>
<path fill="none" stroke="#63b8ff" d="M901.18,-274.98C916.98,-266.61 941.33,-253.7 959.74,-243.95"/>
<polygon fill="#63b8ff" stroke="#63b8ff" points="961.56,-246.95 968.75,-239.17 958.28,-240.76 961.56,-246.95"/>
</g>
<!-- Node23 -->
<g id="node23" class="node">
<title>Node23</title>
<g id="a_node23"><a xlink:href="../../d9/dc8/cc_macros_8h.html" target="_top" xlink:title=" ">
<polygon fill="white" stroke="#666666" points="920.61,-239 849.61,-239 849.61,-220 920.61,-220 920.61,-239"/>
<text text-anchor="middle" x="885.11" y="-227" font-family="Helvetica,sans-Serif" font-size="10.00">ccMacros.h</text>
</a>
</g>
</g>
<!-- Node20&#45;&gt;Node23 -->
<g id="edge26" class="edge">
<title>Node20&#45;&gt;Node23</title>
<path fill="none" stroke="#63b8ff" d="M885.11,-274.75C885.11,-267.8 885.11,-257.85 885.11,-249.13"/>
<polygon fill="#63b8ff" stroke="#63b8ff" points="888.61,-249.09 885.11,-239.09 881.61,-249.09 888.61,-249.09"/>
</g>
<!-- Node21&#45;&gt;Node3 -->
<g id="edge24" class="edge">
<title>Node21&#45;&gt;Node3</title>
<path fill="none" stroke="#63b8ff" d="M984.41,-219.76C982.85,-206.1 977.85,-179.76 962.11,-165 944.63,-148.61 921.46,-138.22 898.46,-131.64"/>
<polygon fill="#63b8ff" stroke="#63b8ff" points="899.19,-128.21 888.62,-129.05 897.4,-134.98 899.19,-128.21"/>
</g>
<!-- Node22 -->
<g id="node22" class="node">
<title>Node22</title>
<g id="a_node22"><a xlink:title=" ">
<polygon fill="#e0e0e0" stroke="#999999" points="1091.11,-184 1047.11,-184 1047.11,-165 1091.11,-165 1091.11,-184"/>
<text text-anchor="middle" x="1069.11" y="-172" font-family="Helvetica,sans-Serif" font-size="10.00">string</text>
</a>
</g>
</g>
<!-- Node21&#45;&gt;Node22 -->
<g id="edge25" class="edge">
<title>Node21&#45;&gt;Node22</title>
<path fill="none" stroke="#63b8ff" d="M998.61,-219.98C1011.51,-211.84 1031.22,-199.41 1046.51,-189.76"/>
<polygon fill="#63b8ff" stroke="#63b8ff" points="1048.78,-192.47 1055.37,-184.17 1045.05,-186.55 1048.78,-192.47"/>
</g>
<!-- Node23&#45;&gt;Node4 -->
<g id="edge29" class="edge">
<title>Node23&#45;&gt;Node4</title>
<path fill="none" stroke="#63b8ff" d="M914.25,-219.87C931.47,-213.1 951.85,-201.79 962.11,-184 981.97,-149.58 950.59,-105.36 929.91,-81.87"/>
<polygon fill="#63b8ff" stroke="#63b8ff" points="932.23,-79.22 922.9,-74.21 927.07,-83.95 932.23,-79.22"/>
</g>
<!-- Node23&#45;&gt;Node18 -->
<g id="edge27" class="edge">
<title>Node23&#45;&gt;Node18</title>
<path fill="none" stroke="#63b8ff" d="M872.9,-219.98C861.34,-211.92 843.74,-199.65 829.95,-190.03"/>
<polygon fill="#63b8ff" stroke="#63b8ff" points="831.75,-187.02 821.55,-184.17 827.75,-192.76 831.75,-187.02"/>
</g>
<!-- Node24 -->
<g id="node24" class="node">
<title>Node24</title>
<g id="a_node24"><a xlink:title=" ">
<polygon fill="#e0e0e0" stroke="#999999" points="953.11,-184 891.11,-184 891.11,-165 953.11,-165 953.11,-184"/>
<text text-anchor="middle" x="922.11" y="-172" font-family="Helvetica,sans-Serif" font-size="10.00">CCStdC.h</text>
</a>
</g>
</g>
<!-- Node23&#45;&gt;Node24 -->
<g id="edge28" class="edge">
<title>Node23&#45;&gt;Node24</title>
<path fill="none" stroke="#63b8ff" d="M891.22,-219.75C896.4,-212.34 903.96,-201.5 910.31,-192.41"/>
<polygon fill="#63b8ff" stroke="#63b8ff" points="913.26,-194.29 916.12,-184.09 907.52,-190.29 913.26,-194.29"/>
</g>
<!-- Node26 -->
<g id="node26" class="node">
<title>Node26</title>
<g id="a_node26"><a xlink:href="../../df/de6/cc_types_8h.html" target="_top" xlink:title=" ">
<polygon fill="white" stroke="#666666" points="951.11,-404 887.11,-404 887.11,-385 951.11,-385 951.11,-404"/>
<text text-anchor="middle" x="919.11" y="-392" font-family="Helvetica,sans-Serif" font-size="10.00">ccTypes.h</text>
</a>
</g>
</g>
<!-- Node25&#45;&gt;Node26 -->
<g id="edge32" class="edge">
<title>Node25&#45;&gt;Node26</title>
<path fill="none" stroke="#63b8ff" d="M919.11,-439.75C919.11,-432.8 919.11,-422.85 919.11,-414.13"/>
<polygon fill="#63b8ff" stroke="#63b8ff" points="922.61,-414.09 919.11,-404.09 915.61,-414.09 922.61,-414.09"/>
</g>
<!-- Node26&#45;&gt;Node19 -->
<g id="edge34" class="edge">
<title>Node26&#45;&gt;Node19</title>
<path fill="none" stroke="#63b8ff" d="M887.3,-384.98C853.63,-375.97 800.32,-361.7 763.19,-351.76"/>
<polygon fill="#63b8ff" stroke="#63b8ff" points="763.74,-348.29 753.18,-349.08 761.93,-355.05 763.74,-348.29"/>
</g>
<!-- Node26&#45;&gt;Node22 -->
<g id="edge33" class="edge">
<title>Node26&#45;&gt;Node22</title>
<path fill="none" stroke="#63b8ff" d="M927.41,-384.69C948.48,-361.99 1004.98,-299.03 1041.11,-239 1049.85,-224.48 1057.44,-206.75 1062.5,-193.72"/>
<polygon fill="#63b8ff" stroke="#63b8ff" points="1065.89,-194.65 1066.13,-184.05 1059.34,-192.19 1065.89,-194.65"/>
</g>
<!-- Node27 -->
<g id="node27" class="node">
<title>Node27</title>
<g id="a_node27"><a xlink:title=" ">
<polygon fill="#e0e0e0" stroke="#999999" points="945.11,-349 893.11,-349 893.11,-330 945.11,-330 945.11,-349"/>
<text text-anchor="middle" x="919.11" y="-337" font-family="Helvetica,sans-Serif" font-size="10.00">CCGL.h</text>
</a>
</g>
</g>
<!-- Node26&#45;&gt;Node27 -->
<g id="edge35" class="edge">
<title>Node26&#45;&gt;Node27</title>
<path fill="none" stroke="#63b8ff" d="M919.11,-384.75C919.11,-377.8 919.11,-367.85 919.11,-359.13"/>
<polygon fill="#63b8ff" stroke="#63b8ff" points="922.61,-359.09 919.11,-349.09 915.61,-359.09 922.61,-359.09"/>
</g>
</g>
</svg>
