<?xml version="1.0" encoding="UTF-8" standalone="no"?>
<!DOCTYPE svg PUBLIC "-//W3C//DTD SVG 1.1//EN"
 "http://www.w3.org/Graphics/SVG/1.1/DTD/svg11.dtd">
<!-- Generated by graphviz version 2.43.0 (0)
 -->
<!-- Title: CCMouseHandler Pages: 1 -->
<svg width="109pt" height="137pt"
 viewBox="0.00 0.00 109.00 137.00" xmlns="http://www.w3.org/2000/svg" xmlns:xlink="http://www.w3.org/1999/xlink">
<g id="graph0" class="graph" transform="scale(1 1) rotate(0) translate(4 133)">
<title>CCMouseHandler</title>
<!-- Node1 -->
<g id="node1" class="node">
<title>Node1</title>
<g id="a_node1"><a xlink:title=" ">
<polygon fill="#999999" stroke="#666666" points="101,-19 0,-19 0,0 101,0 101,-19"/>
<text text-anchor="middle" x="50.5" y="-7" font-family="Helvetica,sans-Serif" font-size="10.00">CCMouseHandler</text>
</a>
</g>
</g>
<!-- Node2 -->
<g id="node2" class="node">
<title>Node2</title>
<g id="a_node2"><a xlink:href="../../d3/dbf/classcocos2d_1_1_c_c_object.html" target="_top" xlink:title="NA.">
<polygon fill="white" stroke="#666666" points="81.5,-74 19.5,-74 19.5,-55 81.5,-55 81.5,-74"/>
<text text-anchor="middle" x="50.5" y="-62" font-family="Helvetica,sans-Serif" font-size="10.00">CCObject</text>
</a>
</g>
</g>
<!-- Node2&#45;&gt;Node1 -->
<g id="edge1" class="edge">
<title>Node2&#45;&gt;Node1</title>
<path fill="none" stroke="#63b8ff" d="M50.5,-44.66C50.5,-35.93 50.5,-25.99 50.5,-19.09"/>
<polygon fill="#63b8ff" stroke="#63b8ff" points="47,-44.75 50.5,-54.75 54,-44.75 47,-44.75"/>
</g>
<!-- Node3 -->
<g id="node3" class="node">
<title>Node3</title>
<g id="a_node3"><a xlink:href="../../d5/d61/classcocos2d_1_1_c_c_copying.html" target="_top" xlink:title="NA NA.">
<polygon fill="white" stroke="#666666" points="85.5,-129 15.5,-129 15.5,-110 85.5,-110 85.5,-129"/>
<text text-anchor="middle" x="50.5" y="-117" font-family="Helvetica,sans-Serif" font-size="10.00">CCCopying</text>
</a>
</g>
</g>
<!-- Node3&#45;&gt;Node2 -->
<g id="edge2" class="edge">
<title>Node3&#45;&gt;Node2</title>
<path fill="none" stroke="#63b8ff" d="M50.5,-99.66C50.5,-90.93 50.5,-80.99 50.5,-74.09"/>
<polygon fill="#63b8ff" stroke="#63b8ff" points="47,-99.75 50.5,-109.75 54,-99.75 47,-99.75"/>
</g>
</g>
</svg>
