<?xml version="1.0" encoding="UTF-8" standalone="no"?>
<!DOCTYPE svg PUBLIC "-//W3C//DTD SVG 1.1//EN"
 "http://www.w3.org/Graphics/SVG/1.1/DTD/svg11.dtd">
<!-- Generated by graphviz version 2.43.0 (0)
 -->
<!-- Title: CCFadeOutBLTiles Pages: 1 -->
<svg width="127pt" height="476pt"
 viewBox="0.00 0.00 127.00 476.00" xmlns="http://www.w3.org/2000/svg" xmlns:xlink="http://www.w3.org/1999/xlink">
<g id="graph0" class="graph" transform="scale(1 1) rotate(0) translate(4 472)">
<title>CCFadeOutBLTiles</title>
<!-- Node1 -->
<g id="node1" class="node">
<title>Node1</title>
<g id="a_node1"><a xlink:title="CCFadeOutBLTiles action.">
<polygon fill="#bfbfbf" stroke="black" points="7.5,-0.5 7.5,-19.5 111.5,-19.5 111.5,-0.5 7.5,-0.5"/>
<text text-anchor="middle" x="59.5" y="-7.5" font-family="Helvetica,sans-Serif" font-size="10.00">CCFadeOutBLTiles</text>
</a>
</g>
</g>
<!-- Node2 -->
<g id="node2" class="node">
<title>Node2</title>
<g id="a_node2"><a xlink:href="../../da/d0c/classcocos2d_1_1_c_c_fade_out_t_r_tiles.html" target="_top" xlink:title="CCFadeOutTRTiles action Fades out the tiles in a Top&#45;Right direction.">
<polygon fill="none" stroke="black" points="7,-56.5 7,-75.5 112,-75.5 112,-56.5 7,-56.5"/>
<text text-anchor="middle" x="59.5" y="-63.5" font-family="Helvetica,sans-Serif" font-size="10.00">CCFadeOutTRTiles</text>
</a>
</g>
</g>
<!-- Node2&#45;&gt;Node1 -->
<g id="edge1" class="edge">
<title>Node2&#45;&gt;Node1</title>
<path fill="none" stroke="midnightblue" d="M59.5,-45.8C59.5,-36.91 59.5,-26.78 59.5,-19.75"/>
<polygon fill="midnightblue" stroke="midnightblue" points="56,-46.08 59.5,-56.08 63,-46.08 56,-46.08"/>
</g>
<!-- Node3 -->
<g id="node3" class="node">
<title>Node3</title>
<g id="a_node3"><a xlink:href="../../d0/d92/classcocos2d_1_1_c_c_tiled_grid3_d_action.html" target="_top" xlink:title="Base class for CCTiledGrid3D actions.">
<polygon fill="none" stroke="black" points="0,-112.5 0,-131.5 119,-131.5 119,-112.5 0,-112.5"/>
<text text-anchor="middle" x="59.5" y="-119.5" font-family="Helvetica,sans-Serif" font-size="10.00">CCTiledGrid3DAction</text>
</a>
</g>
</g>
<!-- Node3&#45;&gt;Node2 -->
<g id="edge2" class="edge">
<title>Node3&#45;&gt;Node2</title>
<path fill="none" stroke="midnightblue" d="M59.5,-101.8C59.5,-92.91 59.5,-82.78 59.5,-75.75"/>
<polygon fill="midnightblue" stroke="midnightblue" points="56,-102.08 59.5,-112.08 63,-102.08 56,-102.08"/>
</g>
<!-- Node4 -->
<g id="node4" class="node">
<title>Node4</title>
<g id="a_node4"><a xlink:href="../../d5/d1e/classcocos2d_1_1_c_c_grid_action.html" target="_top" xlink:title="Base class for Grid actions.">
<polygon fill="none" stroke="black" points="19,-168.5 19,-187.5 100,-187.5 100,-168.5 19,-168.5"/>
<text text-anchor="middle" x="59.5" y="-175.5" font-family="Helvetica,sans-Serif" font-size="10.00">CCGridAction</text>
</a>
</g>
</g>
<!-- Node4&#45;&gt;Node3 -->
<g id="edge3" class="edge">
<title>Node4&#45;&gt;Node3</title>
<path fill="none" stroke="midnightblue" d="M59.5,-157.8C59.5,-148.91 59.5,-138.78 59.5,-131.75"/>
<polygon fill="midnightblue" stroke="midnightblue" points="56,-158.08 59.5,-168.08 63,-158.08 56,-158.08"/>
</g>
<!-- Node5 -->
<g id="node5" class="node">
<title>Node5</title>
<g id="a_node5"><a xlink:href="../../dd/d8d/classcocos2d_1_1_c_c_action_interval.html" target="_top" xlink:title="An interval action is an action that takes place within a certain period of time.">
<polygon fill="none" stroke="black" points="10.5,-224.5 10.5,-243.5 108.5,-243.5 108.5,-224.5 10.5,-224.5"/>
<text text-anchor="middle" x="59.5" y="-231.5" font-family="Helvetica,sans-Serif" font-size="10.00">CCActionInterval</text>
</a>
</g>
</g>
<!-- Node5&#45;&gt;Node4 -->
<g id="edge4" class="edge">
<title>Node5&#45;&gt;Node4</title>
<path fill="none" stroke="midnightblue" d="M59.5,-213.8C59.5,-204.91 59.5,-194.78 59.5,-187.75"/>
<polygon fill="midnightblue" stroke="midnightblue" points="56,-214.08 59.5,-224.08 63,-214.08 56,-214.08"/>
</g>
<!-- Node6 -->
<g id="node6" class="node">
<title>Node6</title>
<g id="a_node6"><a xlink:href="../../dd/d89/classcocos2d_1_1_c_c_finite_time_action.html" target="_top" xlink:title="Base class actions that do have a finite time duration.">
<polygon fill="none" stroke="black" points="3,-280.5 3,-299.5 116,-299.5 116,-280.5 3,-280.5"/>
<text text-anchor="middle" x="59.5" y="-287.5" font-family="Helvetica,sans-Serif" font-size="10.00">CCFiniteTimeAction</text>
</a>
</g>
</g>
<!-- Node6&#45;&gt;Node5 -->
<g id="edge5" class="edge">
<title>Node6&#45;&gt;Node5</title>
<path fill="none" stroke="midnightblue" d="M59.5,-269.8C59.5,-260.91 59.5,-250.78 59.5,-243.75"/>
<polygon fill="midnightblue" stroke="midnightblue" points="56,-270.08 59.5,-280.08 63,-270.08 56,-270.08"/>
</g>
<!-- Node7 -->
<g id="node7" class="node">
<title>Node7</title>
<g id="a_node7"><a xlink:href="../../d7/d12/classcocos2d_1_1_c_c_action.html" target="_top" xlink:title="Base class for CCAction objects.">
<polygon fill="none" stroke="black" points="29,-336.5 29,-355.5 90,-355.5 90,-336.5 29,-336.5"/>
<text text-anchor="middle" x="59.5" y="-343.5" font-family="Helvetica,sans-Serif" font-size="10.00">CCAction</text>
</a>
</g>
</g>
<!-- Node7&#45;&gt;Node6 -->
<g id="edge6" class="edge">
<title>Node7&#45;&gt;Node6</title>
<path fill="none" stroke="midnightblue" d="M59.5,-325.8C59.5,-316.91 59.5,-306.78 59.5,-299.75"/>
<polygon fill="midnightblue" stroke="midnightblue" points="56,-326.08 59.5,-336.08 63,-326.08 56,-326.08"/>
</g>
<!-- Node8 -->
<g id="node8" class="node">
<title>Node8</title>
<g id="a_node8"><a xlink:href="../../d3/dbf/classcocos2d_1_1_c_c_object.html" target="_top" xlink:title="NA.">
<polygon fill="none" stroke="black" points="28.5,-392.5 28.5,-411.5 90.5,-411.5 90.5,-392.5 28.5,-392.5"/>
<text text-anchor="middle" x="59.5" y="-399.5" font-family="Helvetica,sans-Serif" font-size="10.00">CCObject</text>
</a>
</g>
</g>
<!-- Node8&#45;&gt;Node7 -->
<g id="edge7" class="edge">
<title>Node8&#45;&gt;Node7</title>
<path fill="none" stroke="midnightblue" d="M59.5,-381.8C59.5,-372.91 59.5,-362.78 59.5,-355.75"/>
<polygon fill="midnightblue" stroke="midnightblue" points="56,-382.08 59.5,-392.08 63,-382.08 56,-382.08"/>
</g>
<!-- Node9 -->
<g id="node9" class="node">
<title>Node9</title>
<g id="a_node9"><a xlink:href="../../d5/d61/classcocos2d_1_1_c_c_copying.html" target="_top" xlink:title="NA NA.">
<polygon fill="none" stroke="black" points="24.5,-448.5 24.5,-467.5 94.5,-467.5 94.5,-448.5 24.5,-448.5"/>
<text text-anchor="middle" x="59.5" y="-455.5" font-family="Helvetica,sans-Serif" font-size="10.00">CCCopying</text>
</a>
</g>
</g>
<!-- Node9&#45;&gt;Node8 -->
<g id="edge8" class="edge">
<title>Node9&#45;&gt;Node8</title>
<path fill="none" stroke="midnightblue" d="M59.5,-437.8C59.5,-428.91 59.5,-418.78 59.5,-411.75"/>
<polygon fill="midnightblue" stroke="midnightblue" points="56,-438.08 59.5,-448.08 63,-438.08 56,-438.08"/>
</g>
</g>
</svg>
