<?xml version="1.0" encoding="UTF-8" standalone="no"?>
<!DOCTYPE svg PUBLIC "-//W3C//DTD SVG 1.1//EN"
 "http://www.w3.org/Graphics/SVG/1.1/DTD/svg11.dtd">
<!-- Generated by graphviz version 2.43.0 (0)
 -->
<!-- Title: CCFadeOutBLTiles Pages: 1 -->
<svg width="127pt" height="467pt"
 viewBox="0.00 0.00 127.00 467.00" xmlns="http://www.w3.org/2000/svg" xmlns:xlink="http://www.w3.org/1999/xlink">
<g id="graph0" class="graph" transform="scale(1 1) rotate(0) translate(4 463)">
<title>CCFadeOutBLTiles</title>
<!-- Node1 -->
<g id="node1" class="node">
<title>Node1</title>
<g id="a_node1"><a xlink:title="CCFadeOutBLTiles action.">
<polygon fill="#999999" stroke="#666666" points="111.5,-19 7.5,-19 7.5,0 111.5,0 111.5,-19"/>
<text text-anchor="middle" x="59.5" y="-7" font-family="Helvetica,sans-Serif" font-size="10.00">CCFadeOutBLTiles</text>
</a>
</g>
</g>
<!-- Node2 -->
<g id="node2" class="node">
<title>Node2</title>
<g id="a_node2"><a xlink:href="../../da/d0c/classcocos2d_1_1_c_c_fade_out_t_r_tiles.html" target="_top" xlink:title="CCFadeOutTRTiles action Fades out the tiles in a Top&#45;Right direction.">
<polygon fill="white" stroke="#666666" points="112,-74 7,-74 7,-55 112,-55 112,-74"/>
<text text-anchor="middle" x="59.5" y="-62" font-family="Helvetica,sans-Serif" font-size="10.00">CCFadeOutTRTiles</text>
</a>
</g>
</g>
<!-- Node2&#45;&gt;Node1 -->
<g id="edge1" class="edge">
<title>Node2&#45;&gt;Node1</title>
<path fill="none" stroke="#63b8ff" d="M59.5,-44.66C59.5,-35.93 59.5,-25.99 59.5,-19.09"/>
<polygon fill="#63b8ff" stroke="#63b8ff" points="56,-44.75 59.5,-54.75 63,-44.75 56,-44.75"/>
</g>
<!-- Node3 -->
<g id="node3" class="node">
<title>Node3</title>
<g id="a_node3"><a xlink:href="../../d0/d92/classcocos2d_1_1_c_c_tiled_grid3_d_action.html" target="_top" xlink:title="Base class for CCTiledGrid3D actions.">
<polygon fill="white" stroke="#666666" points="119,-129 0,-129 0,-110 119,-110 119,-129"/>
<text text-anchor="middle" x="59.5" y="-117" font-family="Helvetica,sans-Serif" font-size="10.00">CCTiledGrid3DAction</text>
</a>
</g>
</g>
<!-- Node3&#45;&gt;Node2 -->
<g id="edge2" class="edge">
<title>Node3&#45;&gt;Node2</title>
<path fill="none" stroke="#63b8ff" d="M59.5,-99.66C59.5,-90.93 59.5,-80.99 59.5,-74.09"/>
<polygon fill="#63b8ff" stroke="#63b8ff" points="56,-99.75 59.5,-109.75 63,-99.75 56,-99.75"/>
</g>
<!-- Node4 -->
<g id="node4" class="node">
<title>Node4</title>
<g id="a_node4"><a xlink:href="../../d5/d1e/classcocos2d_1_1_c_c_grid_action.html" target="_top" xlink:title="Base class for Grid actions.">
<polygon fill="white" stroke="#666666" points="100,-184 19,-184 19,-165 100,-165 100,-184"/>
<text text-anchor="middle" x="59.5" y="-172" font-family="Helvetica,sans-Serif" font-size="10.00">CCGridAction</text>
</a>
</g>
</g>
<!-- Node4&#45;&gt;Node3 -->
<g id="edge3" class="edge">
<title>Node4&#45;&gt;Node3</title>
<path fill="none" stroke="#63b8ff" d="M59.5,-154.66C59.5,-145.93 59.5,-135.99 59.5,-129.09"/>
<polygon fill="#63b8ff" stroke="#63b8ff" points="56,-154.75 59.5,-164.75 63,-154.75 56,-154.75"/>
</g>
<!-- Node5 -->
<g id="node5" class="node">
<title>Node5</title>
<g id="a_node5"><a xlink:href="../../dd/d8d/classcocos2d_1_1_c_c_action_interval.html" target="_top" xlink:title="An interval action is an action that takes place within a certain period of time.">
<polygon fill="white" stroke="#666666" points="108.5,-239 10.5,-239 10.5,-220 108.5,-220 108.5,-239"/>
<text text-anchor="middle" x="59.5" y="-227" font-family="Helvetica,sans-Serif" font-size="10.00">CCActionInterval</text>
</a>
</g>
</g>
<!-- Node5&#45;&gt;Node4 -->
<g id="edge4" class="edge">
<title>Node5&#45;&gt;Node4</title>
<path fill="none" stroke="#63b8ff" d="M59.5,-209.66C59.5,-200.93 59.5,-190.99 59.5,-184.09"/>
<polygon fill="#63b8ff" stroke="#63b8ff" points="56,-209.75 59.5,-219.75 63,-209.75 56,-209.75"/>
</g>
<!-- Node6 -->
<g id="node6" class="node">
<title>Node6</title>
<g id="a_node6"><a xlink:href="../../dd/d89/classcocos2d_1_1_c_c_finite_time_action.html" target="_top" xlink:title="Base class actions that do have a finite time duration.">
<polygon fill="white" stroke="#666666" points="116,-294 3,-294 3,-275 116,-275 116,-294"/>
<text text-anchor="middle" x="59.5" y="-282" font-family="Helvetica,sans-Serif" font-size="10.00">CCFiniteTimeAction</text>
</a>
</g>
</g>
<!-- Node6&#45;&gt;Node5 -->
<g id="edge5" class="edge">
<title>Node6&#45;&gt;Node5</title>
<path fill="none" stroke="#63b8ff" d="M59.5,-264.66C59.5,-255.93 59.5,-245.99 59.5,-239.09"/>
<polygon fill="#63b8ff" stroke="#63b8ff" points="56,-264.75 59.5,-274.75 63,-264.75 56,-264.75"/>
</g>
<!-- Node7 -->
<g id="node7" class="node">
<title>Node7</title>
<g id="a_node7"><a xlink:href="../../d7/d12/classcocos2d_1_1_c_c_action.html" target="_top" xlink:title="Base class for CCAction objects.">
<polygon fill="white" stroke="#666666" points="90,-349 29,-349 29,-330 90,-330 90,-349"/>
<text text-anchor="middle" x="59.5" y="-337" font-family="Helvetica,sans-Serif" font-size="10.00">CCAction</text>
</a>
</g>
</g>
<!-- Node7&#45;&gt;Node6 -->
<g id="edge6" class="edge">
<title>Node7&#45;&gt;Node6</title>
<path fill="none" stroke="#63b8ff" d="M59.5,-319.66C59.5,-310.93 59.5,-300.99 59.5,-294.09"/>
<polygon fill="#63b8ff" stroke="#63b8ff" points="56,-319.75 59.5,-329.75 63,-319.75 56,-319.75"/>
</g>
<!-- Node8 -->
<g id="node8" class="node">
<title>Node8</title>
<g id="a_node8"><a xlink:href="../../d3/dbf/classcocos2d_1_1_c_c_object.html" target="_top" xlink:title="NA.">
<polygon fill="white" stroke="#666666" points="90.5,-404 28.5,-404 28.5,-385 90.5,-385 90.5,-404"/>
<text text-anchor="middle" x="59.5" y="-392" font-family="Helvetica,sans-Serif" font-size="10.00">CCObject</text>
</a>
</g>
</g>
<!-- Node8&#45;&gt;Node7 -->
<g id="edge7" class="edge">
<title>Node8&#45;&gt;Node7</title>
<path fill="none" stroke="#63b8ff" d="M59.5,-374.66C59.5,-365.93 59.5,-355.99 59.5,-349.09"/>
<polygon fill="#63b8ff" stroke="#63b8ff" points="56,-374.75 59.5,-384.75 63,-374.75 56,-374.75"/>
</g>
<!-- Node9 -->
<g id="node9" class="node">
<title>Node9</title>
<g id="a_node9"><a xlink:href="../../d5/d61/classcocos2d_1_1_c_c_copying.html" target="_top" xlink:title="NA NA.">
<polygon fill="white" stroke="#666666" points="94.5,-459 24.5,-459 24.5,-440 94.5,-440 94.5,-459"/>
<text text-anchor="middle" x="59.5" y="-447" font-family="Helvetica,sans-Serif" font-size="10.00">CCCopying</text>
</a>
</g>
</g>
<!-- Node9&#45;&gt;Node8 -->
<g id="edge8" class="edge">
<title>Node9&#45;&gt;Node8</title>
<path fill="none" stroke="#63b8ff" d="M59.5,-429.66C59.5,-420.93 59.5,-410.99 59.5,-404.09"/>
<polygon fill="#63b8ff" stroke="#63b8ff" points="56,-429.75 59.5,-439.75 63,-429.75 56,-429.75"/>
</g>
</g>
</svg>
