<?xml version="1.0" encoding="UTF-8" standalone="no"?>
<!DOCTYPE svg PUBLIC "-//W3C//DTD SVG 1.1//EN"
 "http://www.w3.org/Graphics/SVG/1.1/DTD/svg11.dtd">
<!-- Generated by graphviz version 2.43.0 (0)
 -->
<!-- Title: CCTransitionScene Pages: 1 -->
<svg width="900pt" height="826pt"
 viewBox="0.00 0.00 900.00 826.00" xmlns="http://www.w3.org/2000/svg" xmlns:xlink="http://www.w3.org/1999/xlink">
<g id="graph0" class="graph" transform="scale(1 1) rotate(0) translate(4 822)">
<title>CCTransitionScene</title>
<!-- Node1 -->
<g id="node1" class="node">
<title>Node1</title>
<g id="a_node1"><a xlink:title="Base class for CCTransition scenes.">
<polygon fill="#bfbfbf" stroke="black" points="391,-475.5 391,-494.5 498,-494.5 498,-475.5 391,-475.5"/>
<text text-anchor="middle" x="444.5" y="-482.5" font-family="Helvetica,sans-Serif" font-size="10.00">CCTransitionScene</text>
</a>
</g>
</g>
<!-- Node6 -->
<g id="node6" class="node">
<title>Node6</title>
<g id="a_node6"><a xlink:href="../../d3/df4/classcocos2d_1_1_c_c_transition_cross_fade.html" target="_top" xlink:title="CCTransitionCrossFade: Cross fades two scenes using the CCRenderTexture object.">
<polygon fill="none" stroke="black" points="545,-779.5 545,-798.5 672,-798.5 672,-779.5 545,-779.5"/>
<text text-anchor="middle" x="608.5" y="-786.5" font-family="Helvetica,sans-Serif" font-size="10.00">CCTransitionCrossFade</text>
</a>
</g>
</g>
<!-- Node1&#45;&gt;Node6 -->
<g id="edge5" class="edge">
<title>Node1&#45;&gt;Node6</title>
<path fill="none" stroke="midnightblue" d="M445.46,-504.65C446.48,-556.16 456.59,-696.23 534,-770 538.01,-773.82 542.68,-776.9 547.69,-779.37"/>
<polygon fill="midnightblue" stroke="midnightblue" points="448.96,-504.51 445.36,-494.55 441.96,-504.58 448.96,-504.51"/>
</g>
<!-- Node7 -->
<g id="node7" class="node">
<title>Node7</title>
<g id="a_node7"><a xlink:href="../../de/d97/classcocos2d_1_1_c_c_transition_fade.html" target="_top" xlink:title="CCTransitionFade: Fade out the outgoing scene and then fade in the incoming scene.">
<polygon fill="none" stroke="black" points="558.5,-741.5 558.5,-760.5 658.5,-760.5 658.5,-741.5 558.5,-741.5"/>
<text text-anchor="middle" x="608.5" y="-748.5" font-family="Helvetica,sans-Serif" font-size="10.00">CCTransitionFade</text>
</a>
</g>
</g>
<!-- Node1&#45;&gt;Node7 -->
<g id="edge6" class="edge">
<title>Node1&#45;&gt;Node7</title>
<path fill="none" stroke="midnightblue" d="M446.54,-504.51C450.11,-551.13 465.78,-669.73 534,-732 540.81,-738.22 549.4,-742.46 558.27,-745.34"/>
<polygon fill="midnightblue" stroke="midnightblue" points="450.03,-504.27 445.88,-494.52 443.05,-504.73 450.03,-504.27"/>
</g>
<!-- Node8 -->
<g id="node8" class="node">
<title>Node8</title>
<g id="a_node8"><a xlink:href="../../dc/d01/classcocos2d_1_1_c_c_transition_fade_t_r.html" target="_top" xlink:title="CCTransitionFadeTR: Fade the tiles of the outgoing scene from the left&#45;bottom corner the to top&#45;right...">
<polygon fill="none" stroke="black" points="552,-703.5 552,-722.5 665,-722.5 665,-703.5 552,-703.5"/>
<text text-anchor="middle" x="608.5" y="-710.5" font-family="Helvetica,sans-Serif" font-size="10.00">CCTransitionFadeTR</text>
</a>
</g>
</g>
<!-- Node1&#45;&gt;Node8 -->
<g id="edge7" class="edge">
<title>Node1&#45;&gt;Node8</title>
<path fill="none" stroke="midnightblue" d="M450.1,-504.63C459.76,-542.04 485.37,-624.32 534,-675 546.33,-687.85 563.96,-697.17 578.86,-703.36"/>
<polygon fill="midnightblue" stroke="midnightblue" points="453.41,-503.42 447.61,-494.55 446.61,-505.09 453.41,-503.42"/>
</g>
<!-- Node12 -->
<g id="node12" class="node">
<title>Node12</title>
<g id="a_node12"><a xlink:href="../../d5/d65/classcocos2d_1_1_c_c_transition_jump_zoom.html" target="_top" xlink:title="CCTransitionJumpZoom: Zoom out and jump the outgoing scene, and then jump and zoom in the incoming.">
<polygon fill="none" stroke="black" points="543,-646.5 543,-665.5 674,-665.5 674,-646.5 543,-646.5"/>
<text text-anchor="middle" x="608.5" y="-653.5" font-family="Helvetica,sans-Serif" font-size="10.00">CCTransitionJumpZoom</text>
</a>
</g>
</g>
<!-- Node1&#45;&gt;Node12 -->
<g id="edge11" class="edge">
<title>Node1&#45;&gt;Node12</title>
<path fill="none" stroke="midnightblue" d="M451.27,-504.26C462.02,-536.77 488.29,-602.38 534,-637 539.15,-640.9 545.02,-644 551.15,-646.47"/>
<polygon fill="midnightblue" stroke="midnightblue" points="454.56,-503.07 448.21,-494.59 447.89,-505.18 454.56,-503.07"/>
</g>
<!-- Node13 -->
<g id="node13" class="node">
<title>Node13</title>
<g id="a_node13"><a xlink:href="../../d9/dd6/classcocos2d_1_1_c_c_transition_move_in_l.html" target="_top" xlink:title="CCTransitionMoveInL: Move in from to the left the incoming scene.">
<polygon fill="none" stroke="black" points="549,-608.5 549,-627.5 668,-627.5 668,-608.5 549,-608.5"/>
<text text-anchor="middle" x="608.5" y="-615.5" font-family="Helvetica,sans-Serif" font-size="10.00">CCTransitionMoveInL</text>
</a>
</g>
</g>
<!-- Node1&#45;&gt;Node13 -->
<g id="edge12" class="edge">
<title>Node1&#45;&gt;Node13</title>
<path fill="none" stroke="midnightblue" d="M464.97,-500.98C498.87,-528.82 567.77,-585.38 595.52,-608.16"/>
<polygon fill="midnightblue" stroke="midnightblue" points="467.1,-498.21 457.15,-494.57 462.66,-503.62 467.1,-498.21"/>
</g>
<!-- Node17 -->
<g id="node17" class="node">
<title>Node17</title>
<g id="a_node17"><a xlink:href="../../d6/ddb/classcocos2d_1_1_c_c_transition_page_turn.html" target="_top" xlink:title="A transition which peels back the bottom right hand corner of a scene to transition to the scene bene...">
<polygon fill="none" stroke="black" points="548,-513.5 548,-532.5 669,-532.5 669,-513.5 548,-513.5"/>
<text text-anchor="middle" x="608.5" y="-520.5" font-family="Helvetica,sans-Serif" font-size="10.00">CCTransitionPageTurn</text>
</a>
</g>
</g>
<!-- Node1&#45;&gt;Node17 -->
<g id="edge16" class="edge">
<title>Node1&#45;&gt;Node17</title>
<path fill="none" stroke="midnightblue" d="M496.21,-496.9C518.99,-502.24 545.49,-508.45 566.91,-513.48"/>
<polygon fill="midnightblue" stroke="midnightblue" points="496.91,-493.47 486.38,-494.59 495.32,-500.28 496.91,-493.47"/>
</g>
<!-- Node18 -->
<g id="node18" class="node">
<title>Node18</title>
<g id="a_node18"><a xlink:href="../../d5/dd2/classcocos2d_1_1_c_c_transition_progress.html" target="_top" xlink:title=" ">
<polygon fill="none" stroke="black" points="549,-475.5 549,-494.5 668,-494.5 668,-475.5 549,-475.5"/>
<text text-anchor="middle" x="608.5" y="-482.5" font-family="Helvetica,sans-Serif" font-size="10.00">CCTransitionProgress</text>
</a>
</g>
</g>
<!-- Node1&#45;&gt;Node18 -->
<g id="edge17" class="edge">
<title>Node1&#45;&gt;Node18</title>
<path fill="none" stroke="midnightblue" d="M508.2,-485C521.62,-485 535.74,-485 549,-485"/>
<polygon fill="midnightblue" stroke="midnightblue" points="508.1,-481.5 498.1,-485 508.1,-488.5 508.1,-481.5"/>
</g>
<!-- Node25 -->
<g id="node25" class="node">
<title>Node25</title>
<g id="a_node25"><a xlink:href="../../d2/d50/classcocos2d_1_1_c_c_transition_roto_zoom.html" target="_top" xlink:title="CCTransitionRotoZoom: Rotate and zoom out the outgoing scene, and then rotate and zoom in the incomin...">
<polygon fill="none" stroke="black" points="544.5,-437.5 544.5,-456.5 672.5,-456.5 672.5,-437.5 544.5,-437.5"/>
<text text-anchor="middle" x="608.5" y="-444.5" font-family="Helvetica,sans-Serif" font-size="10.00">CCTransitionRotoZoom</text>
</a>
</g>
</g>
<!-- Node1&#45;&gt;Node25 -->
<g id="edge24" class="edge">
<title>Node1&#45;&gt;Node25</title>
<path fill="none" stroke="midnightblue" d="M496.21,-473.1C518.99,-467.76 545.49,-461.55 566.91,-456.52"/>
<polygon fill="midnightblue" stroke="midnightblue" points="495.32,-469.72 486.38,-475.41 496.91,-476.53 495.32,-469.72"/>
</g>
<!-- Node26 -->
<g id="node26" class="node">
<title>Node26</title>
<g id="a_node26"><a xlink:href="../../df/dbf/classcocos2d_1_1_c_c_transition_scene_oriented.html" target="_top" xlink:title="A CCTransition that supports orientation like.">
<polygon fill="none" stroke="black" points="534,-285.5 534,-304.5 683,-304.5 683,-285.5 534,-285.5"/>
<text text-anchor="middle" x="608.5" y="-292.5" font-family="Helvetica,sans-Serif" font-size="10.00">CCTransitionSceneOriented</text>
</a>
</g>
</g>
<!-- Node1&#45;&gt;Node26 -->
<g id="edge25" class="edge">
<title>Node1&#45;&gt;Node26</title>
<path fill="none" stroke="midnightblue" d="M460.48,-467.43C493.78,-428.38 573.05,-335.41 599.07,-304.89"/>
<polygon fill="midnightblue" stroke="midnightblue" points="457.58,-465.44 453.76,-475.32 462.91,-469.98 457.58,-465.44"/>
</g>
<!-- Node33 -->
<g id="node33" class="node">
<title>Node33</title>
<g id="a_node33"><a xlink:href="../../de/d67/classcocos2d_1_1_c_c_transition_shrink_grow.html" target="_top" xlink:title="Shrink the outgoing scene while grow the incoming scene.">
<polygon fill="none" stroke="black" points="541.5,-247.5 541.5,-266.5 675.5,-266.5 675.5,-247.5 541.5,-247.5"/>
<text text-anchor="middle" x="608.5" y="-254.5" font-family="Helvetica,sans-Serif" font-size="10.00">CCTransitionShrinkGrow</text>
</a>
</g>
</g>
<!-- Node1&#45;&gt;Node33 -->
<g id="edge32" class="edge">
<title>Node1&#45;&gt;Node33</title>
<path fill="none" stroke="midnightblue" d="M447.98,-465.43C454.32,-423.97 474.96,-326.91 534,-276 538.49,-272.13 543.68,-269.03 549.17,-266.55"/>
<polygon fill="midnightblue" stroke="midnightblue" points="444.52,-464.97 446.59,-475.36 451.45,-465.94 444.52,-464.97"/>
</g>
<!-- Node34 -->
<g id="node34" class="node">
<title>Node34</title>
<g id="a_node34"><a xlink:href="../../d3/dd6/classcocos2d_1_1_c_c_transition_slide_in_l.html" target="_top" xlink:title="CCTransitionSlideInL: Slide in the incoming scene from the left border.">
<polygon fill="none" stroke="black" points="550.5,-114.5 550.5,-133.5 666.5,-133.5 666.5,-114.5 550.5,-114.5"/>
<text text-anchor="middle" x="608.5" y="-121.5" font-family="Helvetica,sans-Serif" font-size="10.00">CCTransitionSlideInL</text>
</a>
</g>
</g>
<!-- Node1&#45;&gt;Node34 -->
<g id="edge33" class="edge">
<title>Node1&#45;&gt;Node34</title>
<path fill="none" stroke="midnightblue" d="M450.8,-465.62C462.75,-423.14 493.95,-319.17 534,-238 554.21,-197.03 586,-152.69 600.21,-133.61"/>
<polygon fill="midnightblue" stroke="midnightblue" points="447.42,-464.68 448.12,-475.26 454.17,-466.56 447.42,-464.68"/>
</g>
<!-- Node38 -->
<g id="node38" class="node">
<title>Node38</title>
<g id="a_node38"><a xlink:href="../../d0/d28/classcocos2d_1_1_c_c_transition_split_cols.html" target="_top" xlink:title="CCTransitionSplitCols: The odd columns goes upwards while the even columns goes downwards.">
<polygon fill="none" stroke="black" points="548.5,-76.5 548.5,-95.5 668.5,-95.5 668.5,-76.5 548.5,-76.5"/>
<text text-anchor="middle" x="608.5" y="-83.5" font-family="Helvetica,sans-Serif" font-size="10.00">CCTransitionSplitCols</text>
</a>
</g>
</g>
<!-- Node1&#45;&gt;Node38 -->
<g id="edge37" class="edge">
<title>Node1&#45;&gt;Node38</title>
<path fill="none" stroke="midnightblue" d="M447.42,-465.28C454.67,-394.93 482.57,-157.69 534,-105 538.14,-100.76 543.1,-97.42 548.46,-94.8"/>
<polygon fill="midnightblue" stroke="midnightblue" points="443.92,-465.12 446.4,-475.42 450.89,-465.82 443.92,-465.12"/>
</g>
<!-- Node40 -->
<g id="node40" class="node">
<title>Node40</title>
<g id="a_node40"><a xlink:href="../../db/da8/classcocos2d_1_1_c_c_transition_turn_off_tiles.html" target="_top" xlink:title="CCTransitionTurnOffTiles: Turn off the tiles of the outgoing scene in random order.">
<polygon fill="none" stroke="black" points="541,-38.5 541,-57.5 676,-57.5 676,-38.5 541,-38.5"/>
<text text-anchor="middle" x="608.5" y="-45.5" font-family="Helvetica,sans-Serif" font-size="10.00">CCTransitionTurnOffTiles</text>
</a>
</g>
</g>
<!-- Node1&#45;&gt;Node40 -->
<g id="edge39" class="edge">
<title>Node1&#45;&gt;Node40</title>
<path fill="none" stroke="midnightblue" d="M447.01,-464.8C453.05,-389.38 477.9,-125.64 534,-67 537.64,-63.19 541.94,-60.11 546.61,-57.62"/>
<polygon fill="midnightblue" stroke="midnightblue" points="443.49,-464.98 446.2,-475.22 450.46,-465.52 443.49,-464.98"/>
</g>
<!-- Node2 -->
<g id="node2" class="node">
<title>Node2</title>
<g id="a_node2"><a xlink:href="../../d1/da4/classcocos2d_1_1_c_c_scene.html" target="_top" xlink:title="CCScene is a subclass of CCNode that is used only as an abstract concept.">
<polygon fill="none" stroke="black" points="296,-475.5 296,-494.5 355,-494.5 355,-475.5 296,-475.5"/>
<text text-anchor="middle" x="325.5" y="-482.5" font-family="Helvetica,sans-Serif" font-size="10.00">CCScene</text>
</a>
</g>
</g>
<!-- Node2&#45;&gt;Node1 -->
<g id="edge1" class="edge">
<title>Node2&#45;&gt;Node1</title>
<path fill="none" stroke="midnightblue" d="M365.2,-485C373.45,-485 382.3,-485 390.97,-485"/>
<polygon fill="midnightblue" stroke="midnightblue" points="365.12,-481.5 355.12,-485 365.12,-488.5 365.12,-481.5"/>
</g>
<!-- Node3 -->
<g id="node3" class="node">
<title>Node3</title>
<g id="a_node3"><a xlink:href="../../d0/ded/classcocos2d_1_1_c_c_node.html" target="_top" xlink:title="CCNode is the main element.">
<polygon fill="none" stroke="black" points="204,-475.5 204,-494.5 260,-494.5 260,-475.5 204,-475.5"/>
<text text-anchor="middle" x="232" y="-482.5" font-family="Helvetica,sans-Serif" font-size="10.00">CCNode</text>
</a>
</g>
</g>
<!-- Node3&#45;&gt;Node2 -->
<g id="edge2" class="edge">
<title>Node3&#45;&gt;Node2</title>
<path fill="none" stroke="midnightblue" d="M270.49,-485C278.94,-485 287.77,-485 295.8,-485"/>
<polygon fill="midnightblue" stroke="midnightblue" points="270.45,-481.5 260.45,-485 270.45,-488.5 270.45,-481.5"/>
</g>
<!-- Node4 -->
<g id="node4" class="node">
<title>Node4</title>
<g id="a_node4"><a xlink:href="../../d3/dbf/classcocos2d_1_1_c_c_object.html" target="_top" xlink:title="NA.">
<polygon fill="none" stroke="black" points="106,-475.5 106,-494.5 168,-494.5 168,-475.5 106,-475.5"/>
<text text-anchor="middle" x="137" y="-482.5" font-family="Helvetica,sans-Serif" font-size="10.00">CCObject</text>
</a>
</g>
</g>
<!-- Node4&#45;&gt;Node3 -->
<g id="edge3" class="edge">
<title>Node4&#45;&gt;Node3</title>
<path fill="none" stroke="midnightblue" d="M178.43,-485C187,-485 195.85,-485 203.78,-485"/>
<polygon fill="midnightblue" stroke="midnightblue" points="178.19,-481.5 168.19,-485 178.19,-488.5 178.19,-481.5"/>
</g>
<!-- Node5 -->
<g id="node5" class="node">
<title>Node5</title>
<g id="a_node5"><a xlink:href="../../d5/d61/classcocos2d_1_1_c_c_copying.html" target="_top" xlink:title="NA NA.">
<polygon fill="none" stroke="black" points="0,-475.5 0,-494.5 70,-494.5 70,-475.5 0,-475.5"/>
<text text-anchor="middle" x="35" y="-482.5" font-family="Helvetica,sans-Serif" font-size="10.00">CCCopying</text>
</a>
</g>
</g>
<!-- Node5&#45;&gt;Node4 -->
<g id="edge4" class="edge">
<title>Node5&#45;&gt;Node4</title>
<path fill="none" stroke="midnightblue" d="M80.39,-485C88.95,-485 97.72,-485 105.7,-485"/>
<polygon fill="midnightblue" stroke="midnightblue" points="80.13,-481.5 70.13,-485 80.13,-488.5 80.13,-481.5"/>
</g>
<!-- Node9 -->
<g id="node9" class="node">
<title>Node9</title>
<g id="a_node9"><a xlink:href="../../d8/dc3/classcocos2d_1_1_c_c_transition_fade_b_l.html" target="_top" xlink:title="CCTransitionFadeBL: Fade the tiles of the outgoing scene from the top&#45;right corner to the bottom&#45;left...">
<polygon fill="none" stroke="black" points="749.5,-798.5 749.5,-817.5 861.5,-817.5 861.5,-798.5 749.5,-798.5"/>
<text text-anchor="middle" x="805.5" y="-805.5" font-family="Helvetica,sans-Serif" font-size="10.00">CCTransitionFadeBL</text>
</a>
</g>
</g>
<!-- Node8&#45;&gt;Node9 -->
<g id="edge8" class="edge">
<title>Node8&#45;&gt;Node9</title>
<path fill="none" stroke="midnightblue" d="M674.53,-726.75C677.49,-728.31 680.34,-730.06 683,-732 707.21,-749.66 694.49,-771.76 719,-789 727.95,-795.3 738.64,-799.56 749.36,-802.43"/>
<polygon fill="midnightblue" stroke="midnightblue" points="675.89,-723.52 665.34,-722.56 672.99,-729.89 675.89,-723.52"/>
</g>
<!-- Node10 -->
<g id="node10" class="node">
<title>Node10</title>
<g id="a_node10"><a xlink:href="../../de/d35/classcocos2d_1_1_c_c_transition_fade_down.html" target="_top" xlink:title="CCTransitionFadeDown: Fade the tiles of the outgoing scene from the top to the bottom.">
<polygon fill="none" stroke="black" points="741.5,-760.5 741.5,-779.5 869.5,-779.5 869.5,-760.5 741.5,-760.5"/>
<text text-anchor="middle" x="805.5" y="-767.5" font-family="Helvetica,sans-Serif" font-size="10.00">CCTransitionFadeDown</text>
</a>
</g>
</g>
<!-- Node8&#45;&gt;Node10 -->
<g id="edge9" class="edge">
<title>Node8&#45;&gt;Node10</title>
<path fill="none" stroke="midnightblue" d="M663.06,-725.28C669.85,-727.3 676.64,-729.54 683,-732 699.87,-738.53 702.02,-744.76 719,-751 729.13,-754.72 740.22,-757.84 750.96,-760.41"/>
<polygon fill="midnightblue" stroke="midnightblue" points="663.74,-721.84 653.17,-722.5 661.85,-728.58 663.74,-721.84"/>
</g>
<!-- Node11 -->
<g id="node11" class="node">
<title>Node11</title>
<g id="a_node11"><a xlink:href="../../d5/dc2/classcocos2d_1_1_c_c_transition_fade_up.html" target="_top" xlink:title="CCTransitionFadeUp: Fade the tiles of the outgoing scene from the bottom to the top.">
<polygon fill="none" stroke="black" points="749,-722.5 749,-741.5 862,-741.5 862,-722.5 749,-722.5"/>
<text text-anchor="middle" x="805.5" y="-729.5" font-family="Helvetica,sans-Serif" font-size="10.00">CCTransitionFadeUp</text>
</a>
</g>
</g>
<!-- Node8&#45;&gt;Node11 -->
<g id="edge10" class="edge">
<title>Node8&#45;&gt;Node11</title>
<path fill="none" stroke="midnightblue" d="M675.17,-719.4C699.08,-721.73 725.85,-724.34 748.81,-726.57"/>
<polygon fill="midnightblue" stroke="midnightblue" points="675.41,-715.91 665.12,-718.42 674.73,-722.87 675.41,-715.91"/>
</g>
<!-- Node14 -->
<g id="node14" class="node">
<title>Node14</title>
<g id="a_node14"><a xlink:href="../../d2/d89/classcocos2d_1_1_c_c_transition_move_in_b.html" target="_top" xlink:title="CCTransitionMoveInB: Move in from to the bottom the incoming scene.">
<polygon fill="none" stroke="black" points="745.5,-684.5 745.5,-703.5 865.5,-703.5 865.5,-684.5 745.5,-684.5"/>
<text text-anchor="middle" x="805.5" y="-691.5" font-family="Helvetica,sans-Serif" font-size="10.00">CCTransitionMoveInB</text>
</a>
</g>
</g>
<!-- Node13&#45;&gt;Node14 -->
<g id="edge13" class="edge">
<title>Node13&#45;&gt;Node14</title>
<path fill="none" stroke="midnightblue" d="M671.26,-631.17C675.34,-632.88 679.3,-634.82 683,-637 703.04,-648.81 698.76,-663.53 719,-675 727.07,-679.57 736.15,-683.05 745.3,-685.68"/>
<polygon fill="midnightblue" stroke="midnightblue" points="672.17,-627.77 661.57,-627.55 669.72,-634.32 672.17,-627.77"/>
</g>
<!-- Node15 -->
<g id="node15" class="node">
<title>Node15</title>
<g id="a_node15"><a xlink:href="../../dc/d98/classcocos2d_1_1_c_c_transition_move_in_r.html" target="_top" xlink:title="CCTransitionMoveInR: Move in from to the right the incoming scene.">
<polygon fill="none" stroke="black" points="745.5,-646.5 745.5,-665.5 865.5,-665.5 865.5,-646.5 745.5,-646.5"/>
<text text-anchor="middle" x="805.5" y="-653.5" font-family="Helvetica,sans-Serif" font-size="10.00">CCTransitionMoveInR</text>
</a>
</g>
</g>
<!-- Node13&#45;&gt;Node15 -->
<g id="edge14" class="edge">
<title>Node13&#45;&gt;Node15</title>
<path fill="none" stroke="midnightblue" d="M668.46,-629.49C696.28,-634.91 729.1,-641.31 755.52,-646.46"/>
<polygon fill="midnightblue" stroke="midnightblue" points="668.94,-626.02 658.46,-627.54 667.6,-632.89 668.94,-626.02"/>
</g>
<!-- Node16 -->
<g id="node16" class="node">
<title>Node16</title>
<g id="a_node16"><a xlink:href="../../d9/d5f/classcocos2d_1_1_c_c_transition_move_in_t.html" target="_top" xlink:title="CCTransitionMoveInT: Move in from to the top the incoming scene.">
<polygon fill="none" stroke="black" points="746,-608.5 746,-627.5 865,-627.5 865,-608.5 746,-608.5"/>
<text text-anchor="middle" x="805.5" y="-615.5" font-family="Helvetica,sans-Serif" font-size="10.00">CCTransitionMoveInT</text>
</a>
</g>
</g>
<!-- Node13&#45;&gt;Node16 -->
<g id="edge15" class="edge">
<title>Node13&#45;&gt;Node16</title>
<path fill="none" stroke="midnightblue" d="M678.28,-618C700.3,-618 724.46,-618 745.7,-618"/>
<polygon fill="midnightblue" stroke="midnightblue" points="678.01,-614.5 668.01,-618 678.01,-621.5 678.01,-614.5"/>
</g>
<!-- Node19 -->
<g id="node19" class="node">
<title>Node19</title>
<g id="a_node19"><a xlink:href="../../df/d7e/classcocos2d_1_1_c_c_transition_progress_horizontal.html" target="_top" xlink:title="CCTransitionProgressHorizontal transition.">
<polygon fill="none" stroke="black" points="720.5,-570.5 720.5,-589.5 890.5,-589.5 890.5,-570.5 720.5,-570.5"/>
<text text-anchor="middle" x="805.5" y="-577.5" font-family="Helvetica,sans-Serif" font-size="10.00">CCTransitionProgressHorizontal</text>
</a>
</g>
</g>
<!-- Node18&#45;&gt;Node19 -->
<g id="edge18" class="edge">
<title>Node18&#45;&gt;Node19</title>
<path fill="none" stroke="midnightblue" d="M674.53,-498.75C677.49,-500.31 680.34,-502.06 683,-504 707.21,-521.66 694.49,-543.76 719,-561 724.47,-564.85 730.59,-567.94 736.97,-570.41"/>
<polygon fill="midnightblue" stroke="midnightblue" points="675.89,-495.52 665.34,-494.56 672.99,-501.89 675.89,-495.52"/>
</g>
<!-- Node20 -->
<g id="node20" class="node">
<title>Node20</title>
<g id="a_node20"><a xlink:href="../../d0/da3/classcocos2d_1_1_c_c_transition_progress_in_out.html" target="_top" xlink:title=" ">
<polygon fill="none" stroke="black" points="732.5,-532.5 732.5,-551.5 878.5,-551.5 878.5,-532.5 732.5,-532.5"/>
<text text-anchor="middle" x="805.5" y="-539.5" font-family="Helvetica,sans-Serif" font-size="10.00">CCTransitionProgressInOut</text>
</a>
</g>
</g>
<!-- Node18&#45;&gt;Node20 -->
<g id="edge19" class="edge">
<title>Node18&#45;&gt;Node20</title>
<path fill="none" stroke="midnightblue" d="M663.06,-497.28C669.85,-499.3 676.64,-501.54 683,-504 699.87,-510.53 702.02,-516.76 719,-523 729.13,-526.72 740.22,-529.84 750.96,-532.41"/>
<polygon fill="midnightblue" stroke="midnightblue" points="663.74,-493.84 653.17,-494.5 661.85,-500.58 663.74,-493.84"/>
</g>
<!-- Node21 -->
<g id="node21" class="node">
<title>Node21</title>
<g id="a_node21"><a xlink:href="../../de/d95/classcocos2d_1_1_c_c_transition_progress_out_in.html" target="_top" xlink:title=" ">
<polygon fill="none" stroke="black" points="732.5,-494.5 732.5,-513.5 878.5,-513.5 878.5,-494.5 732.5,-494.5"/>
<text text-anchor="middle" x="805.5" y="-501.5" font-family="Helvetica,sans-Serif" font-size="10.00">CCTransitionProgressOutIn</text>
</a>
</g>
</g>
<!-- Node18&#45;&gt;Node21 -->
<g id="edge20" class="edge">
<title>Node18&#45;&gt;Node21</title>
<path fill="none" stroke="midnightblue" d="M678.14,-491.69C695.66,-493.39 714.54,-495.23 732.23,-496.96"/>
<polygon fill="midnightblue" stroke="midnightblue" points="678.3,-488.19 668.01,-490.7 677.62,-495.15 678.3,-488.19"/>
</g>
<!-- Node22 -->
<g id="node22" class="node">
<title>Node22</title>
<g id="a_node22"><a xlink:href="../../d2/d34/classcocos2d_1_1_c_c_transition_progress_radial_c_c_w.html" target="_top" xlink:title="CCTransitionRadialCCW transition.">
<polygon fill="none" stroke="black" points="719,-456.5 719,-475.5 892,-475.5 892,-456.5 719,-456.5"/>
<text text-anchor="middle" x="805.5" y="-463.5" font-family="Helvetica,sans-Serif" font-size="10.00">CCTransitionProgressRadialCCW</text>
</a>
</g>
</g>
<!-- Node18&#45;&gt;Node22 -->
<g id="edge21" class="edge">
<title>Node18&#45;&gt;Node22</title>
<path fill="none" stroke="midnightblue" d="M677.97,-478.33C691.23,-477.04 705.28,-475.67 719,-474.33"/>
<polygon fill="midnightblue" stroke="midnightblue" points="677.62,-474.85 668.01,-479.3 678.3,-481.81 677.62,-474.85"/>
</g>
<!-- Node23 -->
<g id="node23" class="node">
<title>Node23</title>
<g id="a_node23"><a xlink:href="../../d5/d0b/classcocos2d_1_1_c_c_transition_progress_radial_c_w.html" target="_top" xlink:title="CCTransitionRadialCW transition.">
<polygon fill="none" stroke="black" points="722,-418.5 722,-437.5 889,-437.5 889,-418.5 722,-418.5"/>
<text text-anchor="middle" x="805.5" y="-425.5" font-family="Helvetica,sans-Serif" font-size="10.00">CCTransitionProgressRadialCW</text>
</a>
</g>
</g>
<!-- Node18&#45;&gt;Node23 -->
<g id="edge22" class="edge">
<title>Node18&#45;&gt;Node23</title>
<path fill="none" stroke="midnightblue" d="M663.06,-472.72C669.85,-470.7 676.64,-468.46 683,-466 699.87,-459.47 702.02,-453.24 719,-447 729.13,-443.28 740.22,-440.16 750.96,-437.59"/>
<polygon fill="midnightblue" stroke="midnightblue" points="661.85,-469.42 653.17,-475.5 663.74,-476.16 661.85,-469.42"/>
</g>
<!-- Node24 -->
<g id="node24" class="node">
<title>Node24</title>
<g id="a_node24"><a xlink:href="../../d0/d95/classcocos2d_1_1_c_c_transition_progress_vertical.html" target="_top" xlink:title=" ">
<polygon fill="none" stroke="black" points="727.5,-380.5 727.5,-399.5 883.5,-399.5 883.5,-380.5 727.5,-380.5"/>
<text text-anchor="middle" x="805.5" y="-387.5" font-family="Helvetica,sans-Serif" font-size="10.00">CCTransitionProgressVertical</text>
</a>
</g>
</g>
<!-- Node18&#45;&gt;Node24 -->
<g id="edge23" class="edge">
<title>Node18&#45;&gt;Node24</title>
<path fill="none" stroke="midnightblue" d="M674.53,-471.25C677.49,-469.69 680.34,-467.94 683,-466 707.21,-448.34 694.49,-426.24 719,-409 724.47,-405.15 730.59,-402.06 736.97,-399.59"/>
<polygon fill="midnightblue" stroke="midnightblue" points="672.99,-468.11 665.34,-475.44 675.89,-474.48 672.99,-468.11"/>
</g>
<!-- Node27 -->
<g id="node27" class="node">
<title>Node27</title>
<g id="a_node27"><a xlink:href="../../de/d08/classcocos2d_1_1_c_c_transition_flip_angular.html" target="_top" xlink:title="CCTransitionFlipAngular: Flips the screen half horizontally and half vertically.">
<polygon fill="none" stroke="black" points="739,-342.5 739,-361.5 872,-361.5 872,-342.5 739,-342.5"/>
<text text-anchor="middle" x="805.5" y="-349.5" font-family="Helvetica,sans-Serif" font-size="10.00">CCTransitionFlipAngular</text>
</a>
</g>
</g>
<!-- Node26&#45;&gt;Node27 -->
<g id="edge26" class="edge">
<title>Node26&#45;&gt;Node27</title>
<path fill="none" stroke="midnightblue" d="M644.08,-308.15C665.47,-315.99 693.6,-325.8 719,-333 731.14,-336.44 744.4,-339.65 756.77,-342.41"/>
<polygon fill="midnightblue" stroke="midnightblue" points="645.06,-304.78 634.46,-304.59 642.62,-311.34 645.06,-304.78"/>
</g>
<!-- Node28 -->
<g id="node28" class="node">
<title>Node28</title>
<g id="a_node28"><a xlink:href="../../d9/d4a/classcocos2d_1_1_c_c_transition_flip_x.html" target="_top" xlink:title="CCTransitionFlipX: Flips the screen horizontally.">
<polygon fill="none" stroke="black" points="754.5,-304.5 754.5,-323.5 856.5,-323.5 856.5,-304.5 754.5,-304.5"/>
<text text-anchor="middle" x="805.5" y="-311.5" font-family="Helvetica,sans-Serif" font-size="10.00">CCTransitionFlipX</text>
</a>
</g>
</g>
<!-- Node26&#45;&gt;Node28 -->
<g id="edge27" class="edge">
<title>Node26&#45;&gt;Node28</title>
<path fill="none" stroke="midnightblue" d="M693.33,-303.17C714.1,-305.19 735.72,-307.3 754.31,-309.11"/>
<polygon fill="midnightblue" stroke="midnightblue" points="693.51,-299.67 683.22,-302.18 692.83,-306.64 693.51,-299.67"/>
</g>
<!-- Node29 -->
<g id="node29" class="node">
<title>Node29</title>
<g id="a_node29"><a xlink:href="../../d4/dfa/classcocos2d_1_1_c_c_transition_flip_y.html" target="_top" xlink:title="CCTransitionFlipY: Flips the screen vertically.">
<polygon fill="none" stroke="black" points="755,-266.5 755,-285.5 856,-285.5 856,-266.5 755,-266.5"/>
<text text-anchor="middle" x="805.5" y="-273.5" font-family="Helvetica,sans-Serif" font-size="10.00">CCTransitionFlipY</text>
</a>
</g>
</g>
<!-- Node26&#45;&gt;Node29 -->
<g id="edge28" class="edge">
<title>Node26&#45;&gt;Node29</title>
<path fill="none" stroke="midnightblue" d="M693.43,-286.82C714.39,-284.78 736.2,-282.65 754.9,-280.83"/>
<polygon fill="midnightblue" stroke="midnightblue" points="692.83,-283.36 683.22,-287.82 693.51,-290.33 692.83,-283.36"/>
</g>
<!-- Node30 -->
<g id="node30" class="node">
<title>Node30</title>
<g id="a_node30"><a xlink:href="../../d1/d91/classcocos2d_1_1_c_c_transition_zoom_flip_angular.html" target="_top" xlink:title="CCTransitionZoomFlipAngular: Flips the screen half horizontally and half vertically doing a little zo...">
<polygon fill="none" stroke="black" points="725,-228.5 725,-247.5 886,-247.5 886,-228.5 725,-228.5"/>
<text text-anchor="middle" x="805.5" y="-235.5" font-family="Helvetica,sans-Serif" font-size="10.00">CCTransitionZoomFlipAngular</text>
</a>
</g>
</g>
<!-- Node26&#45;&gt;Node30 -->
<g id="edge29" class="edge">
<title>Node26&#45;&gt;Node30</title>
<path fill="none" stroke="midnightblue" d="M663.06,-282.72C669.85,-280.7 676.64,-278.46 683,-276 699.87,-269.47 702.02,-263.24 719,-257 729.13,-253.28 740.22,-250.16 750.96,-247.59"/>
<polygon fill="midnightblue" stroke="midnightblue" points="661.85,-279.42 653.17,-285.5 663.74,-286.16 661.85,-279.42"/>
</g>
<!-- Node31 -->
<g id="node31" class="node">
<title>Node31</title>
<g id="a_node31"><a xlink:href="../../da/df6/classcocos2d_1_1_c_c_transition_zoom_flip_x.html" target="_top" xlink:title="CCTransitionZoomFlipX: Flips the screen horizontally doing a zoom out/in The front face is the outgoi...">
<polygon fill="none" stroke="black" points="740,-190.5 740,-209.5 871,-209.5 871,-190.5 740,-190.5"/>
<text text-anchor="middle" x="805.5" y="-197.5" font-family="Helvetica,sans-Serif" font-size="10.00">CCTransitionZoomFlipX</text>
</a>
</g>
</g>
<!-- Node26&#45;&gt;Node31 -->
<g id="edge30" class="edge">
<title>Node26&#45;&gt;Node31</title>
<path fill="none" stroke="midnightblue" d="M674.53,-281.25C677.49,-279.69 680.34,-277.94 683,-276 707.21,-258.34 694.49,-236.24 719,-219 725.22,-214.63 732.27,-211.23 739.59,-208.61"/>
<polygon fill="midnightblue" stroke="midnightblue" points="672.99,-278.11 665.34,-285.44 675.89,-284.48 672.99,-278.11"/>
</g>
<!-- Node32 -->
<g id="node32" class="node">
<title>Node32</title>
<g id="a_node32"><a xlink:href="../../de/d5d/classcocos2d_1_1_c_c_transition_zoom_flip_y.html" target="_top" xlink:title="CCTransitionZoomFlipY: Flips the screen vertically doing a little zooming out/in The front face is th...">
<polygon fill="none" stroke="black" points="740.5,-152.5 740.5,-171.5 870.5,-171.5 870.5,-152.5 740.5,-152.5"/>
<text text-anchor="middle" x="805.5" y="-159.5" font-family="Helvetica,sans-Serif" font-size="10.00">CCTransitionZoomFlipY</text>
</a>
</g>
</g>
<!-- Node26&#45;&gt;Node32 -->
<g id="edge31" class="edge">
<title>Node26&#45;&gt;Node32</title>
<path fill="none" stroke="midnightblue" d="M677.42,-280.35C679.38,-279.02 681.25,-277.57 683,-276 716.62,-245.86 684.87,-210.56 719,-181 725.21,-175.63 732.6,-171.67 740.4,-168.78"/>
<polygon fill="midnightblue" stroke="midnightblue" points="675.35,-277.5 668.35,-285.45 678.78,-283.6 675.35,-277.5"/>
</g>
<!-- Node35 -->
<g id="node35" class="node">
<title>Node35</title>
<g id="a_node35"><a xlink:href="../../d1/d5c/classcocos2d_1_1_c_c_transition_slide_in_b.html" target="_top" xlink:title="CCTransitionSlideInB: Slide in the incoming scene from the bottom border.">
<polygon fill="none" stroke="black" points="747,-114.5 747,-133.5 864,-133.5 864,-114.5 747,-114.5"/>
<text text-anchor="middle" x="805.5" y="-121.5" font-family="Helvetica,sans-Serif" font-size="10.00">CCTransitionSlideInB</text>
</a>
</g>
</g>
<!-- Node34&#45;&gt;Node35 -->
<g id="edge34" class="edge">
<title>Node34&#45;&gt;Node35</title>
<path fill="none" stroke="midnightblue" d="M676.98,-124C699.78,-124 725.01,-124 746.97,-124"/>
<polygon fill="midnightblue" stroke="midnightblue" points="676.69,-120.5 666.69,-124 676.69,-127.5 676.69,-120.5"/>
</g>
<!-- Node36 -->
<g id="node36" class="node">
<title>Node36</title>
<g id="a_node36"><a xlink:href="../../de/d84/classcocos2d_1_1_c_c_transition_slide_in_r.html" target="_top" xlink:title="CCTransitionSlideInR: Slide in the incoming scene from the right border.">
<polygon fill="none" stroke="black" points="747,-76.5 747,-95.5 864,-95.5 864,-76.5 747,-76.5"/>
<text text-anchor="middle" x="805.5" y="-83.5" font-family="Helvetica,sans-Serif" font-size="10.00">CCTransitionSlideInR</text>
</a>
</g>
</g>
<!-- Node34&#45;&gt;Node36 -->
<g id="edge35" class="edge">
<title>Node34&#45;&gt;Node36</title>
<path fill="none" stroke="midnightblue" d="M668.46,-112.51C696.28,-107.09 729.1,-100.69 755.52,-95.54"/>
<polygon fill="midnightblue" stroke="midnightblue" points="667.6,-109.11 658.46,-114.46 668.94,-115.98 667.6,-109.11"/>
</g>
<!-- Node37 -->
<g id="node37" class="node">
<title>Node37</title>
<g id="a_node37"><a xlink:href="../../d7/d48/classcocos2d_1_1_c_c_transition_slide_in_t.html" target="_top" xlink:title="CCTransitionSlideInT: Slide in the incoming scene from the top border.">
<polygon fill="none" stroke="black" points="747.5,-38.5 747.5,-57.5 863.5,-57.5 863.5,-38.5 747.5,-38.5"/>
<text text-anchor="middle" x="805.5" y="-45.5" font-family="Helvetica,sans-Serif" font-size="10.00">CCTransitionSlideInT</text>
</a>
</g>
</g>
<!-- Node34&#45;&gt;Node37 -->
<g id="edge36" class="edge">
<title>Node34&#45;&gt;Node37</title>
<path fill="none" stroke="midnightblue" d="M671.26,-110.83C675.34,-109.12 679.3,-107.18 683,-105 703.04,-93.19 698.76,-78.47 719,-67 727.6,-62.13 737.34,-58.5 747.1,-55.81"/>
<polygon fill="midnightblue" stroke="midnightblue" points="669.72,-107.68 661.57,-114.45 672.17,-114.23 669.72,-107.68"/>
</g>
<!-- Node39 -->
<g id="node39" class="node">
<title>Node39</title>
<g id="a_node39"><a xlink:href="../../de/d82/classcocos2d_1_1_c_c_transition_split_rows.html" target="_top" xlink:title="CCTransitionSplitRows: The odd rows goes to the left while the even rows goes to the right.">
<polygon fill="none" stroke="black" points="743,-0.5 743,-19.5 868,-19.5 868,-0.5 743,-0.5"/>
<text text-anchor="middle" x="805.5" y="-7.5" font-family="Helvetica,sans-Serif" font-size="10.00">CCTransitionSplitRows</text>
</a>
</g>
</g>
<!-- Node38&#45;&gt;Node39 -->
<g id="edge38" class="edge">
<title>Node38&#45;&gt;Node39</title>
<path fill="none" stroke="midnightblue" d="M671.26,-72.83C675.34,-71.12 679.3,-69.18 683,-67 703.04,-55.19 698.76,-40.47 719,-29 726.28,-24.88 734.37,-21.65 742.6,-19.12"/>
<polygon fill="midnightblue" stroke="midnightblue" points="669.72,-69.68 661.57,-76.45 672.17,-76.23 669.72,-69.68"/>
</g>
</g>
</svg>
