<?xml version="1.0" encoding="UTF-8" standalone="no"?>
<!DOCTYPE svg PUBLIC "-//W3C//DTD SVG 1.1//EN"
 "http://www.w3.org/Graphics/SVG/1.1/DTD/svg11.dtd">
<!-- Generated by graphviz version 2.43.0 (0)
 -->
<!-- Title: CCTransitionScene Pages: 1 -->
<svg width="900pt" height="804pt"
 viewBox="0.00 0.00 900.00 804.00" xmlns="http://www.w3.org/2000/svg" xmlns:xlink="http://www.w3.org/1999/xlink">
<g id="graph0" class="graph" transform="scale(1 1) rotate(0) translate(4 800)">
<title>CCTransitionScene</title>
<!-- Node1 -->
<g id="node1" class="node">
<title>Node1</title>
<g id="a_node1"><a xlink:title="Base class for CCTransition scenes.">
<polygon fill="#999999" stroke="#666666" points="498,-482 391,-482 391,-463 498,-463 498,-482"/>
<text text-anchor="middle" x="444.5" y="-470" font-family="Helvetica,sans-Serif" font-size="10.00">CCTransitionScene</text>
</a>
</g>
</g>
<!-- Node6 -->
<g id="node6" class="node">
<title>Node6</title>
<g id="a_node6"><a xlink:href="../../d3/df4/classcocos2d_1_1_c_c_transition_cross_fade.html" target="_top" xlink:title="CCTransitionCrossFade: Cross fades two scenes using the CCRenderTexture object.">
<polygon fill="white" stroke="#666666" points="672,-777 545,-777 545,-758 672,-758 672,-777"/>
<text text-anchor="middle" x="608.5" y="-765" font-family="Helvetica,sans-Serif" font-size="10.00">CCTransitionCrossFade</text>
</a>
</g>
</g>
<!-- Node1&#45;&gt;Node6 -->
<g id="edge5" class="edge">
<title>Node1&#45;&gt;Node6</title>
<path fill="none" stroke="#63b8ff" d="M445.62,-492.33C447.05,-543.09 458.15,-678.72 534,-749.5 537.65,-752.91 541.84,-755.7 546.32,-757.98"/>
<polygon fill="#63b8ff" stroke="#63b8ff" points="449.11,-492.02 445.43,-482.08 442.11,-492.14 449.11,-492.02"/>
</g>
<!-- Node7 -->
<g id="node7" class="node">
<title>Node7</title>
<g id="a_node7"><a xlink:href="../../de/d97/classcocos2d_1_1_c_c_transition_fade.html" target="_top" xlink:title="CCTransitionFade: Fade out the outgoing scene and then fade in the incoming scene.">
<polygon fill="white" stroke="#666666" points="658.5,-740 558.5,-740 558.5,-721 658.5,-721 658.5,-740"/>
<text text-anchor="middle" x="608.5" y="-728" font-family="Helvetica,sans-Serif" font-size="10.00">CCTransitionFade</text>
</a>
</g>
</g>
<!-- Node1&#45;&gt;Node7 -->
<g id="edge6" class="edge">
<title>Node1&#45;&gt;Node7</title>
<path fill="none" stroke="#63b8ff" d="M446.73,-492.13C450.69,-537.99 467.12,-652.79 534,-712.5 540.86,-718.62 549.46,-722.75 558.34,-725.5"/>
<polygon fill="#63b8ff" stroke="#63b8ff" points="450.21,-491.74 445.97,-482.03 443.23,-492.27 450.21,-491.74"/>
</g>
<!-- Node8 -->
<g id="node8" class="node">
<title>Node8</title>
<g id="a_node8"><a xlink:href="../../dc/d01/classcocos2d_1_1_c_c_transition_fade_t_r.html" target="_top" xlink:title="CCTransitionFadeTR: Fade the tiles of the outgoing scene from the left&#45;bottom corner the to top&#45;right...">
<polygon fill="white" stroke="#666666" points="665,-703 552,-703 552,-684 665,-684 665,-703"/>
<text text-anchor="middle" x="608.5" y="-691" font-family="Helvetica,sans-Serif" font-size="10.00">CCTransitionFadeTR</text>
</a>
</g>
</g>
<!-- Node1&#45;&gt;Node8 -->
<g id="edge7" class="edge">
<title>Node1&#45;&gt;Node8</title>
<path fill="none" stroke="#63b8ff" d="M450.29,-492.23C460.13,-529.05 485.86,-608.91 534,-657.5 545.9,-669.51 562.62,-678.13 577.11,-683.92"/>
<polygon fill="#63b8ff" stroke="#63b8ff" points="453.61,-491.08 447.74,-482.26 446.83,-492.82 453.61,-491.08"/>
</g>
<!-- Node12 -->
<g id="node12" class="node">
<title>Node12</title>
<g id="a_node12"><a xlink:href="../../d5/d65/classcocos2d_1_1_c_c_transition_jump_zoom.html" target="_top" xlink:title="CCTransitionJumpZoom: Zoom out and jump the outgoing scene, and then jump and zoom in the incoming.">
<polygon fill="white" stroke="#666666" points="674,-648 543,-648 543,-629 674,-629 674,-648"/>
<text text-anchor="middle" x="608.5" y="-636" font-family="Helvetica,sans-Serif" font-size="10.00">CCTransitionJumpZoom</text>
</a>
</g>
</g>
<!-- Node1&#45;&gt;Node12 -->
<g id="edge11" class="edge">
<title>Node1&#45;&gt;Node12</title>
<path fill="none" stroke="#63b8ff" d="M451.53,-491.78C462.54,-523.69 488.99,-587.27 534,-620.5 538.65,-623.93 543.87,-626.72 549.33,-628.98"/>
<polygon fill="#63b8ff" stroke="#63b8ff" points="454.84,-490.65 448.38,-482.26 448.2,-492.85 454.84,-490.65"/>
</g>
<!-- Node13 -->
<g id="node13" class="node">
<title>Node13</title>
<g id="a_node13"><a xlink:href="../../d9/dd6/classcocos2d_1_1_c_c_transition_move_in_l.html" target="_top" xlink:title="CCTransitionMoveInL: Move in from to the left the incoming scene.">
<polygon fill="white" stroke="#666666" points="668,-611 549,-611 549,-592 668,-592 668,-611"/>
<text text-anchor="middle" x="608.5" y="-599" font-family="Helvetica,sans-Serif" font-size="10.00">CCTransitionMoveInL</text>
</a>
</g>
</g>
<!-- Node1&#45;&gt;Node13 -->
<g id="edge12" class="edge">
<title>Node1&#45;&gt;Node13</title>
<path fill="none" stroke="#63b8ff" d="M465.53,-488.45C499.49,-515.49 567.37,-569.54 595.18,-591.69"/>
<polygon fill="#63b8ff" stroke="#63b8ff" points="467.68,-485.69 457.68,-482.2 463.32,-491.16 467.68,-485.69"/>
</g>
<!-- Node17 -->
<g id="node17" class="node">
<title>Node17</title>
<g id="a_node17"><a xlink:href="../../d6/ddb/classcocos2d_1_1_c_c_transition_page_turn.html" target="_top" xlink:title="A transition which peels back the bottom right hand corner of a scene to transition to the scene bene...">
<polygon fill="white" stroke="#666666" points="669,-519 548,-519 548,-500 669,-500 669,-519"/>
<text text-anchor="middle" x="608.5" y="-507" font-family="Helvetica,sans-Serif" font-size="10.00">CCTransitionPageTurn</text>
</a>
</g>
</g>
<!-- Node1&#45;&gt;Node17 -->
<g id="edge16" class="edge">
<title>Node1&#45;&gt;Node17</title>
<path fill="none" stroke="#63b8ff" d="M497.11,-484.29C519.23,-489.34 544.73,-495.16 565.64,-499.94"/>
<polygon fill="#63b8ff" stroke="#63b8ff" points="497.75,-480.84 487.22,-482.03 496.19,-487.67 497.75,-480.84"/>
</g>
<!-- Node18 -->
<g id="node18" class="node">
<title>Node18</title>
<g id="a_node18"><a xlink:href="../../d5/dd2/classcocos2d_1_1_c_c_transition_progress.html" target="_top" xlink:title=" ">
<polygon fill="white" stroke="#666666" points="668,-482 549,-482 549,-463 668,-463 668,-482"/>
<text text-anchor="middle" x="608.5" y="-470" font-family="Helvetica,sans-Serif" font-size="10.00">CCTransitionProgress</text>
</a>
</g>
</g>
<!-- Node1&#45;&gt;Node18 -->
<g id="edge17" class="edge">
<title>Node1&#45;&gt;Node18</title>
<path fill="none" stroke="#63b8ff" d="M508.2,-472.5C521.62,-472.5 535.74,-472.5 549,-472.5"/>
<polygon fill="#63b8ff" stroke="#63b8ff" points="508.1,-469 498.1,-472.5 508.1,-476 508.1,-469"/>
</g>
<!-- Node25 -->
<g id="node25" class="node">
<title>Node25</title>
<g id="a_node25"><a xlink:href="../../d2/d50/classcocos2d_1_1_c_c_transition_roto_zoom.html" target="_top" xlink:title="CCTransitionRotoZoom: Rotate and zoom out the outgoing scene, and then rotate and zoom in the incomin...">
<polygon fill="white" stroke="#666666" points="672.5,-445 544.5,-445 544.5,-426 672.5,-426 672.5,-445"/>
<text text-anchor="middle" x="608.5" y="-433" font-family="Helvetica,sans-Serif" font-size="10.00">CCTransitionRotoZoom</text>
</a>
</g>
</g>
<!-- Node1&#45;&gt;Node25 -->
<g id="edge24" class="edge">
<title>Node1&#45;&gt;Node25</title>
<path fill="none" stroke="#63b8ff" d="M497.11,-460.71C519.23,-455.66 544.73,-449.84 565.64,-445.06"/>
<polygon fill="#63b8ff" stroke="#63b8ff" points="496.19,-457.33 487.22,-462.97 497.75,-464.16 496.19,-457.33"/>
</g>
<!-- Node26 -->
<g id="node26" class="node">
<title>Node26</title>
<g id="a_node26"><a xlink:href="../../df/dbf/classcocos2d_1_1_c_c_transition_scene_oriented.html" target="_top" xlink:title="A CCTransition that supports orientation like.">
<polygon fill="white" stroke="#666666" points="683,-297 534,-297 534,-278 683,-278 683,-297"/>
<text text-anchor="middle" x="608.5" y="-285" font-family="Helvetica,sans-Serif" font-size="10.00">CCTransitionSceneOriented</text>
</a>
</g>
</g>
<!-- Node1&#45;&gt;Node26 -->
<g id="edge25" class="edge">
<title>Node1&#45;&gt;Node26</title>
<path fill="none" stroke="#63b8ff" d="M460.75,-455.08C494.22,-416.86 573.19,-326.68 599.1,-297.09"/>
<polygon fill="#63b8ff" stroke="#63b8ff" points="457.94,-452.99 453.98,-462.81 463.2,-457.6 457.94,-452.99"/>
</g>
<!-- Node33 -->
<g id="node33" class="node">
<title>Node33</title>
<g id="a_node33"><a xlink:href="../../de/d67/classcocos2d_1_1_c_c_transition_shrink_grow.html" target="_top" xlink:title="Shrink the outgoing scene while grow the incoming scene.">
<polygon fill="white" stroke="#666666" points="675.5,-260 541.5,-260 541.5,-241 675.5,-241 675.5,-260"/>
<text text-anchor="middle" x="608.5" y="-248" font-family="Helvetica,sans-Serif" font-size="10.00">CCTransitionShrinkGrow</text>
</a>
</g>
</g>
<!-- Node1&#45;&gt;Node33 -->
<g id="edge32" class="edge">
<title>Node1&#45;&gt;Node33</title>
<path fill="none" stroke="#63b8ff" d="M448.22,-452.5C454.9,-411.45 476.01,-317.42 534,-268.5 538.02,-265.11 542.57,-262.34 547.4,-260.08"/>
<polygon fill="#63b8ff" stroke="#63b8ff" points="444.73,-452.19 446.7,-462.6 451.65,-453.23 444.73,-452.19"/>
</g>
<!-- Node34 -->
<g id="node34" class="node">
<title>Node34</title>
<g id="a_node34"><a xlink:href="../../d3/dd6/classcocos2d_1_1_c_c_transition_slide_in_l.html" target="_top" xlink:title="CCTransitionSlideInL: Slide in the incoming scene from the left border.">
<polygon fill="white" stroke="#666666" points="666.5,-130 550.5,-130 550.5,-111 666.5,-111 666.5,-130"/>
<text text-anchor="middle" x="608.5" y="-118" font-family="Helvetica,sans-Serif" font-size="10.00">CCTransitionSlideInL</text>
</a>
</g>
</g>
<!-- Node1&#45;&gt;Node34 -->
<g id="edge33" class="edge">
<title>Node1&#45;&gt;Node34</title>
<path fill="none" stroke="#63b8ff" d="M450.88,-453.3C462.92,-411.64 494.1,-310.36 534,-231.5 554.14,-191.7 585.69,-148.82 600,-130.13"/>
<polygon fill="#63b8ff" stroke="#63b8ff" points="447.5,-452.4 448.12,-462.98 454.23,-454.32 447.5,-452.4"/>
</g>
<!-- Node38 -->
<g id="node38" class="node">
<title>Node38</title>
<g id="a_node38"><a xlink:href="../../d0/d28/classcocos2d_1_1_c_c_transition_split_cols.html" target="_top" xlink:title="CCTransitionSplitCols: The odd columns goes upwards while the even columns goes downwards.">
<polygon fill="white" stroke="#666666" points="668.5,-93 548.5,-93 548.5,-74 668.5,-74 668.5,-93"/>
<text text-anchor="middle" x="608.5" y="-81" font-family="Helvetica,sans-Serif" font-size="10.00">CCTransitionSplitCols</text>
</a>
</g>
</g>
<!-- Node1&#45;&gt;Node38 -->
<g id="edge37" class="edge">
<title>Node1&#45;&gt;Node38</title>
<path fill="none" stroke="#63b8ff" d="M447.52,-452.77C455,-383.43 483.37,-152.44 534,-101.5 538.08,-97.4 542.92,-94.18 548.15,-91.65"/>
<polygon fill="#63b8ff" stroke="#63b8ff" points="444.03,-452.47 446.46,-462.78 450.99,-453.21 444.03,-452.47"/>
</g>
<!-- Node40 -->
<g id="node40" class="node">
<title>Node40</title>
<g id="a_node40"><a xlink:href="../../db/da8/classcocos2d_1_1_c_c_transition_turn_off_tiles.html" target="_top" xlink:title="CCTransitionTurnOffTiles: Turn off the tiles of the outgoing scene in random order.">
<polygon fill="white" stroke="#666666" points="676,-56 541,-56 541,-37 676,-37 676,-56"/>
<text text-anchor="middle" x="608.5" y="-44" font-family="Helvetica,sans-Serif" font-size="10.00">CCTransitionTurnOffTiles</text>
</a>
</g>
</g>
<!-- Node1&#45;&gt;Node40 -->
<g id="edge39" class="edge">
<title>Node1&#45;&gt;Node40</title>
<path fill="none" stroke="#63b8ff" d="M447.06,-452.75C453.28,-379.04 478.68,-121.31 534,-64.5 537.3,-61.11 541.12,-58.32 545.26,-56.03"/>
<polygon fill="#63b8ff" stroke="#63b8ff" points="443.55,-452.69 446.22,-462.94 450.53,-453.26 443.55,-452.69"/>
</g>
<!-- Node2 -->
<g id="node2" class="node">
<title>Node2</title>
<g id="a_node2"><a xlink:href="../../d1/da4/classcocos2d_1_1_c_c_scene.html" target="_top" xlink:title="CCScene is a subclass of CCNode that is used only as an abstract concept.">
<polygon fill="white" stroke="#666666" points="355,-482 296,-482 296,-463 355,-463 355,-482"/>
<text text-anchor="middle" x="325.5" y="-470" font-family="Helvetica,sans-Serif" font-size="10.00">CCScene</text>
</a>
</g>
</g>
<!-- Node2&#45;&gt;Node1 -->
<g id="edge1" class="edge">
<title>Node2&#45;&gt;Node1</title>
<path fill="none" stroke="#63b8ff" d="M365.2,-472.5C373.45,-472.5 382.3,-472.5 390.97,-472.5"/>
<polygon fill="#63b8ff" stroke="#63b8ff" points="365.12,-469 355.12,-472.5 365.12,-476 365.12,-469"/>
</g>
<!-- Node3 -->
<g id="node3" class="node">
<title>Node3</title>
<g id="a_node3"><a xlink:href="../../d0/ded/classcocos2d_1_1_c_c_node.html" target="_top" xlink:title="CCNode is the main element.">
<polygon fill="white" stroke="#666666" points="260,-482 204,-482 204,-463 260,-463 260,-482"/>
<text text-anchor="middle" x="232" y="-470" font-family="Helvetica,sans-Serif" font-size="10.00">CCNode</text>
</a>
</g>
</g>
<!-- Node3&#45;&gt;Node2 -->
<g id="edge2" class="edge">
<title>Node3&#45;&gt;Node2</title>
<path fill="none" stroke="#63b8ff" d="M270.49,-472.5C278.94,-472.5 287.77,-472.5 295.8,-472.5"/>
<polygon fill="#63b8ff" stroke="#63b8ff" points="270.45,-469 260.45,-472.5 270.45,-476 270.45,-469"/>
</g>
<!-- Node4 -->
<g id="node4" class="node">
<title>Node4</title>
<g id="a_node4"><a xlink:href="../../d3/dbf/classcocos2d_1_1_c_c_object.html" target="_top" xlink:title="NA.">
<polygon fill="white" stroke="#666666" points="168,-482 106,-482 106,-463 168,-463 168,-482"/>
<text text-anchor="middle" x="137" y="-470" font-family="Helvetica,sans-Serif" font-size="10.00">CCObject</text>
</a>
</g>
</g>
<!-- Node4&#45;&gt;Node3 -->
<g id="edge3" class="edge">
<title>Node4&#45;&gt;Node3</title>
<path fill="none" stroke="#63b8ff" d="M178.43,-472.5C187,-472.5 195.85,-472.5 203.78,-472.5"/>
<polygon fill="#63b8ff" stroke="#63b8ff" points="178.19,-469 168.19,-472.5 178.19,-476 178.19,-469"/>
</g>
<!-- Node5 -->
<g id="node5" class="node">
<title>Node5</title>
<g id="a_node5"><a xlink:href="../../d5/d61/classcocos2d_1_1_c_c_copying.html" target="_top" xlink:title="NA NA.">
<polygon fill="white" stroke="#666666" points="70,-482 0,-482 0,-463 70,-463 70,-482"/>
<text text-anchor="middle" x="35" y="-470" font-family="Helvetica,sans-Serif" font-size="10.00">CCCopying</text>
</a>
</g>
</g>
<!-- Node5&#45;&gt;Node4 -->
<g id="edge4" class="edge">
<title>Node5&#45;&gt;Node4</title>
<path fill="none" stroke="#63b8ff" d="M80.39,-472.5C88.95,-472.5 97.72,-472.5 105.7,-472.5"/>
<polygon fill="#63b8ff" stroke="#63b8ff" points="80.13,-469 70.13,-472.5 80.13,-476 80.13,-469"/>
</g>
<!-- Node9 -->
<g id="node9" class="node">
<title>Node9</title>
<g id="a_node9"><a xlink:href="../../d8/dc3/classcocos2d_1_1_c_c_transition_fade_b_l.html" target="_top" xlink:title="CCTransitionFadeBL: Fade the tiles of the outgoing scene from the top&#45;right corner to the bottom&#45;left...">
<polygon fill="white" stroke="#666666" points="861.5,-796 749.5,-796 749.5,-777 861.5,-777 861.5,-796"/>
<text text-anchor="middle" x="805.5" y="-784" font-family="Helvetica,sans-Serif" font-size="10.00">CCTransitionFadeBL</text>
</a>
</g>
</g>
<!-- Node8&#45;&gt;Node9 -->
<g id="edge8" class="edge">
<title>Node8&#45;&gt;Node9</title>
<path fill="none" stroke="#63b8ff" d="M674.51,-707.27C677.48,-708.83 680.33,-710.57 683,-712.5 706.97,-729.84 694.64,-751.71 719,-768.5 727.99,-774.7 738.69,-778.83 749.42,-781.58"/>
<polygon fill="#63b8ff" stroke="#63b8ff" points="675.86,-704.04 665.31,-703.11 672.98,-710.42 675.86,-704.04"/>
</g>
<!-- Node10 -->
<g id="node10" class="node">
<title>Node10</title>
<g id="a_node10"><a xlink:href="../../de/d35/classcocos2d_1_1_c_c_transition_fade_down.html" target="_top" xlink:title="CCTransitionFadeDown: Fade the tiles of the outgoing scene from the top to the bottom.">
<polygon fill="white" stroke="#666666" points="869.5,-759 741.5,-759 741.5,-740 869.5,-740 869.5,-759"/>
<text text-anchor="middle" x="805.5" y="-747" font-family="Helvetica,sans-Serif" font-size="10.00">CCTransitionFadeDown</text>
</a>
</g>
</g>
<!-- Node8&#45;&gt;Node10 -->
<g id="edge9" class="edge">
<title>Node8&#45;&gt;Node10</title>
<path fill="none" stroke="#63b8ff" d="M663.06,-705.78C669.85,-707.8 676.64,-710.04 683,-712.5 699.87,-719.03 701.98,-725.35 719,-731.5 728.27,-734.85 738.35,-737.66 748.22,-739.98"/>
<polygon fill="#63b8ff" stroke="#63b8ff" points="663.74,-702.34 653.17,-703 661.85,-709.08 663.74,-702.34"/>
</g>
<!-- Node11 -->
<g id="node11" class="node">
<title>Node11</title>
<g id="a_node11"><a xlink:href="../../d5/dc2/classcocos2d_1_1_c_c_transition_fade_up.html" target="_top" xlink:title="CCTransitionFadeUp: Fade the tiles of the outgoing scene from the bottom to the top.">
<polygon fill="white" stroke="#666666" points="862,-722 749,-722 749,-703 862,-703 862,-722"/>
<text text-anchor="middle" x="805.5" y="-710" font-family="Helvetica,sans-Serif" font-size="10.00">CCTransitionFadeUp</text>
</a>
</g>
</g>
<!-- Node8&#45;&gt;Node11 -->
<g id="edge10" class="edge">
<title>Node8&#45;&gt;Node11</title>
<path fill="none" stroke="#63b8ff" d="M675.17,-699.9C699.08,-702.23 725.85,-704.84 748.81,-707.07"/>
<polygon fill="#63b8ff" stroke="#63b8ff" points="675.41,-696.41 665.12,-698.92 674.73,-703.37 675.41,-696.41"/>
</g>
<!-- Node14 -->
<g id="node14" class="node">
<title>Node14</title>
<g id="a_node14"><a xlink:href="../../d2/d89/classcocos2d_1_1_c_c_transition_move_in_b.html" target="_top" xlink:title="CCTransitionMoveInB: Move in from to the bottom the incoming scene.">
<polygon fill="white" stroke="#666666" points="865.5,-685 745.5,-685 745.5,-666 865.5,-666 865.5,-685"/>
<text text-anchor="middle" x="805.5" y="-673" font-family="Helvetica,sans-Serif" font-size="10.00">CCTransitionMoveInB</text>
</a>
</g>
</g>
<!-- Node13&#45;&gt;Node14 -->
<g id="edge13" class="edge">
<title>Node13&#45;&gt;Node14</title>
<path fill="none" stroke="#63b8ff" d="M670.67,-614.49C674.96,-616.25 679.11,-618.24 683,-620.5 702.84,-632.02 698.9,-646.43 719,-657.5 727.11,-661.96 736.2,-665.32 745.36,-667.85"/>
<polygon fill="#63b8ff" stroke="#63b8ff" points="671.73,-611.15 661.14,-611 669.33,-617.73 671.73,-611.15"/>
</g>
<!-- Node15 -->
<g id="node15" class="node">
<title>Node15</title>
<g id="a_node15"><a xlink:href="../../dc/d98/classcocos2d_1_1_c_c_transition_move_in_r.html" target="_top" xlink:title="CCTransitionMoveInR: Move in from to the right the incoming scene.">
<polygon fill="white" stroke="#666666" points="865.5,-648 745.5,-648 745.5,-629 865.5,-629 865.5,-648"/>
<text text-anchor="middle" x="805.5" y="-636" font-family="Helvetica,sans-Serif" font-size="10.00">CCTransitionMoveInR</text>
</a>
</g>
</g>
<!-- Node13&#45;&gt;Node15 -->
<g id="edge14" class="edge">
<title>Node13&#45;&gt;Node15</title>
<path fill="none" stroke="#63b8ff" d="M669.84,-612.95C696.86,-618.08 728.37,-624.06 754.11,-628.94"/>
<polygon fill="#63b8ff" stroke="#63b8ff" points="670.19,-609.45 659.72,-611.03 668.89,-616.33 670.19,-609.45"/>
</g>
<!-- Node16 -->
<g id="node16" class="node">
<title>Node16</title>
<g id="a_node16"><a xlink:href="../../d9/d5f/classcocos2d_1_1_c_c_transition_move_in_t.html" target="_top" xlink:title="CCTransitionMoveInT: Move in from to the top the incoming scene.">
<polygon fill="white" stroke="#666666" points="865,-611 746,-611 746,-592 865,-592 865,-611"/>
<text text-anchor="middle" x="805.5" y="-599" font-family="Helvetica,sans-Serif" font-size="10.00">CCTransitionMoveInT</text>
</a>
</g>
</g>
<!-- Node13&#45;&gt;Node16 -->
<g id="edge15" class="edge">
<title>Node13&#45;&gt;Node16</title>
<path fill="none" stroke="#63b8ff" d="M678.28,-601.5C700.3,-601.5 724.46,-601.5 745.7,-601.5"/>
<polygon fill="#63b8ff" stroke="#63b8ff" points="678.01,-598 668.01,-601.5 678.01,-605 678.01,-598"/>
</g>
<!-- Node19 -->
<g id="node19" class="node">
<title>Node19</title>
<g id="a_node19"><a xlink:href="../../df/d7e/classcocos2d_1_1_c_c_transition_progress_horizontal.html" target="_top" xlink:title="CCTransitionProgressHorizontal transition.">
<polygon fill="white" stroke="#666666" points="890.5,-574 720.5,-574 720.5,-555 890.5,-555 890.5,-574"/>
<text text-anchor="middle" x="805.5" y="-562" font-family="Helvetica,sans-Serif" font-size="10.00">CCTransitionProgressHorizontal</text>
</a>
</g>
</g>
<!-- Node18&#45;&gt;Node19 -->
<g id="edge18" class="edge">
<title>Node18&#45;&gt;Node19</title>
<path fill="none" stroke="#63b8ff" d="M674.31,-486.21C677.35,-487.78 680.27,-489.54 683,-491.5 706.74,-508.52 694.88,-530.02 719,-546.5 724.01,-549.92 729.54,-552.72 735.31,-554.99"/>
<polygon fill="#63b8ff" stroke="#63b8ff" points="675.46,-482.89 664.9,-482 672.6,-489.28 675.46,-482.89"/>
</g>
<!-- Node20 -->
<g id="node20" class="node">
<title>Node20</title>
<g id="a_node20"><a xlink:href="../../d0/da3/classcocos2d_1_1_c_c_transition_progress_in_out.html" target="_top" xlink:title=" ">
<polygon fill="white" stroke="#666666" points="878.5,-537 732.5,-537 732.5,-518 878.5,-518 878.5,-537"/>
<text text-anchor="middle" x="805.5" y="-525" font-family="Helvetica,sans-Serif" font-size="10.00">CCTransitionProgressInOut</text>
</a>
</g>
</g>
<!-- Node18&#45;&gt;Node20 -->
<g id="edge19" class="edge">
<title>Node18&#45;&gt;Node20</title>
<path fill="none" stroke="#63b8ff" d="M662.75,-484.84C669.63,-486.85 676.53,-489.08 683,-491.5 699.75,-497.77 702.11,-503.61 719,-509.5 728.45,-512.8 738.72,-515.59 748.74,-517.92"/>
<polygon fill="#63b8ff" stroke="#63b8ff" points="663.3,-481.36 652.72,-482.05 661.42,-488.11 663.3,-481.36"/>
</g>
<!-- Node21 -->
<g id="node21" class="node">
<title>Node21</title>
<g id="a_node21"><a xlink:href="../../de/d95/classcocos2d_1_1_c_c_transition_progress_out_in.html" target="_top" xlink:title=" ">
<polygon fill="white" stroke="#666666" points="878.5,-500 732.5,-500 732.5,-481 878.5,-481 878.5,-500"/>
<text text-anchor="middle" x="805.5" y="-488" font-family="Helvetica,sans-Serif" font-size="10.00">CCTransitionProgressOutIn</text>
</a>
</g>
</g>
<!-- Node18&#45;&gt;Node21 -->
<g id="edge20" class="edge">
<title>Node18&#45;&gt;Node21</title>
<path fill="none" stroke="#63b8ff" d="M678.14,-478.84C695.66,-480.45 714.54,-482.2 732.23,-483.83"/>
<polygon fill="#63b8ff" stroke="#63b8ff" points="678.29,-475.33 668.01,-477.9 677.64,-482.31 678.29,-475.33"/>
</g>
<!-- Node22 -->
<g id="node22" class="node">
<title>Node22</title>
<g id="a_node22"><a xlink:href="../../d2/d34/classcocos2d_1_1_c_c_transition_progress_radial_c_c_w.html" target="_top" xlink:title="CCTransitionRadialCCW transition.">
<polygon fill="white" stroke="#666666" points="892,-463 719,-463 719,-444 892,-444 892,-463"/>
<text text-anchor="middle" x="805.5" y="-451" font-family="Helvetica,sans-Serif" font-size="10.00">CCTransitionProgressRadialCCW</text>
</a>
</g>
</g>
<!-- Node18&#45;&gt;Node22 -->
<g id="edge21" class="edge">
<title>Node18&#45;&gt;Node22</title>
<path fill="none" stroke="#63b8ff" d="M677.97,-465.83C691.23,-464.54 705.28,-463.17 719,-461.83"/>
<polygon fill="#63b8ff" stroke="#63b8ff" points="677.62,-462.35 668.01,-466.8 678.3,-469.31 677.62,-462.35"/>
</g>
<!-- Node23 -->
<g id="node23" class="node">
<title>Node23</title>
<g id="a_node23"><a xlink:href="../../d5/d0b/classcocos2d_1_1_c_c_transition_progress_radial_c_w.html" target="_top" xlink:title="CCTransitionRadialCW transition.">
<polygon fill="white" stroke="#666666" points="889,-426 722,-426 722,-407 889,-407 889,-426"/>
<text text-anchor="middle" x="805.5" y="-414" font-family="Helvetica,sans-Serif" font-size="10.00">CCTransitionProgressRadialCW</text>
</a>
</g>
</g>
<!-- Node18&#45;&gt;Node23 -->
<g id="edge22" class="edge">
<title>Node18&#45;&gt;Node23</title>
<path fill="none" stroke="#63b8ff" d="M663.06,-460.22C669.85,-458.2 676.64,-455.96 683,-453.5 699.87,-446.97 701.98,-440.65 719,-434.5 728.27,-431.15 738.35,-428.34 748.22,-426.02"/>
<polygon fill="#63b8ff" stroke="#63b8ff" points="661.85,-456.92 653.17,-463 663.74,-463.66 661.85,-456.92"/>
</g>
<!-- Node24 -->
<g id="node24" class="node">
<title>Node24</title>
<g id="a_node24"><a xlink:href="../../d0/d95/classcocos2d_1_1_c_c_transition_progress_vertical.html" target="_top" xlink:title=" ">
<polygon fill="white" stroke="#666666" points="883.5,-389 727.5,-389 727.5,-370 883.5,-370 883.5,-389"/>
<text text-anchor="middle" x="805.5" y="-377" font-family="Helvetica,sans-Serif" font-size="10.00">CCTransitionProgressVertical</text>
</a>
</g>
</g>
<!-- Node18&#45;&gt;Node24 -->
<g id="edge23" class="edge">
<title>Node18&#45;&gt;Node24</title>
<path fill="none" stroke="#63b8ff" d="M674.51,-458.73C677.48,-457.17 680.33,-455.43 683,-453.5 706.97,-436.16 694.64,-414.29 719,-397.5 723.87,-394.14 729.24,-391.39 734.85,-389.14"/>
<polygon fill="#63b8ff" stroke="#63b8ff" points="672.98,-455.58 665.31,-462.89 675.86,-461.96 672.98,-455.58"/>
</g>
<!-- Node27 -->
<g id="node27" class="node">
<title>Node27</title>
<g id="a_node27"><a xlink:href="../../de/d08/classcocos2d_1_1_c_c_transition_flip_angular.html" target="_top" xlink:title="CCTransitionFlipAngular: Flips the screen half horizontally and half vertically.">
<polygon fill="white" stroke="#666666" points="872,-352 739,-352 739,-333 872,-333 872,-352"/>
<text text-anchor="middle" x="805.5" y="-340" font-family="Helvetica,sans-Serif" font-size="10.00">CCTransitionFlipAngular</text>
</a>
</g>
</g>
<!-- Node26&#45;&gt;Node27 -->
<g id="edge26" class="edge">
<title>Node26&#45;&gt;Node27</title>
<path fill="none" stroke="#63b8ff" d="M645.84,-300.45C667.03,-307.75 694.35,-316.73 719,-323.5 731.46,-326.92 745.08,-330.17 757.7,-332.98"/>
<polygon fill="#63b8ff" stroke="#63b8ff" points="646.87,-297.1 636.27,-297.13 644.57,-303.71 646.87,-297.1"/>
</g>
<!-- Node28 -->
<g id="node28" class="node">
<title>Node28</title>
<g id="a_node28"><a xlink:href="../../d9/d4a/classcocos2d_1_1_c_c_transition_flip_x.html" target="_top" xlink:title="CCTransitionFlipX: Flips the screen horizontally.">
<polygon fill="white" stroke="#666666" points="856.5,-315 754.5,-315 754.5,-296 856.5,-296 856.5,-315"/>
<text text-anchor="middle" x="805.5" y="-303" font-family="Helvetica,sans-Serif" font-size="10.00">CCTransitionFlipX</text>
</a>
</g>
</g>
<!-- Node26&#45;&gt;Node28 -->
<g id="edge27" class="edge">
<title>Node26&#45;&gt;Node28</title>
<path fill="none" stroke="#63b8ff" d="M693.33,-295.24C714.1,-297.16 735.72,-299.15 754.31,-300.87"/>
<polygon fill="#63b8ff" stroke="#63b8ff" points="693.5,-291.74 683.22,-294.31 692.86,-298.71 693.5,-291.74"/>
</g>
<!-- Node29 -->
<g id="node29" class="node">
<title>Node29</title>
<g id="a_node29"><a xlink:href="../../d4/dfa/classcocos2d_1_1_c_c_transition_flip_y.html" target="_top" xlink:title="CCTransitionFlipY: Flips the screen vertically.">
<polygon fill="white" stroke="#666666" points="856,-278 755,-278 755,-259 856,-259 856,-278"/>
<text text-anchor="middle" x="805.5" y="-266" font-family="Helvetica,sans-Serif" font-size="10.00">CCTransitionFlipY</text>
</a>
</g>
</g>
<!-- Node26&#45;&gt;Node29 -->
<g id="edge28" class="edge">
<title>Node26&#45;&gt;Node29</title>
<path fill="none" stroke="#63b8ff" d="M693.43,-279.32C714.39,-277.28 736.2,-275.15 754.9,-273.33"/>
<polygon fill="#63b8ff" stroke="#63b8ff" points="692.83,-275.86 683.22,-280.32 693.51,-282.83 692.83,-275.86"/>
</g>
<!-- Node30 -->
<g id="node30" class="node">
<title>Node30</title>
<g id="a_node30"><a xlink:href="../../d1/d91/classcocos2d_1_1_c_c_transition_zoom_flip_angular.html" target="_top" xlink:title="CCTransitionZoomFlipAngular: Flips the screen half horizontally and half vertically doing a little zo...">
<polygon fill="white" stroke="#666666" points="886,-241 725,-241 725,-222 886,-222 886,-241"/>
<text text-anchor="middle" x="805.5" y="-229" font-family="Helvetica,sans-Serif" font-size="10.00">CCTransitionZoomFlipAngular</text>
</a>
</g>
</g>
<!-- Node26&#45;&gt;Node30 -->
<g id="edge29" class="edge">
<title>Node26&#45;&gt;Node30</title>
<path fill="none" stroke="#63b8ff" d="M663.06,-275.22C669.85,-273.2 676.64,-270.96 683,-268.5 699.87,-261.97 701.98,-255.65 719,-249.5 728.27,-246.15 738.35,-243.34 748.22,-241.02"/>
<polygon fill="#63b8ff" stroke="#63b8ff" points="661.85,-271.92 653.17,-278 663.74,-278.66 661.85,-271.92"/>
</g>
<!-- Node31 -->
<g id="node31" class="node">
<title>Node31</title>
<g id="a_node31"><a xlink:href="../../da/df6/classcocos2d_1_1_c_c_transition_zoom_flip_x.html" target="_top" xlink:title="CCTransitionZoomFlipX: Flips the screen horizontally doing a zoom out/in The front face is the outgoi...">
<polygon fill="white" stroke="#666666" points="871,-204 740,-204 740,-185 871,-185 871,-204"/>
<text text-anchor="middle" x="805.5" y="-192" font-family="Helvetica,sans-Serif" font-size="10.00">CCTransitionZoomFlipX</text>
</a>
</g>
</g>
<!-- Node26&#45;&gt;Node31 -->
<g id="edge30" class="edge">
<title>Node26&#45;&gt;Node31</title>
<path fill="none" stroke="#63b8ff" d="M674.51,-273.73C677.48,-272.17 680.33,-270.43 683,-268.5 706.97,-251.16 694.64,-229.29 719,-212.5 725.24,-208.2 732.31,-204.89 739.64,-202.35"/>
<polygon fill="#63b8ff" stroke="#63b8ff" points="672.98,-270.58 665.31,-277.89 675.86,-276.96 672.98,-270.58"/>
</g>
<!-- Node32 -->
<g id="node32" class="node">
<title>Node32</title>
<g id="a_node32"><a xlink:href="../../de/d5d/classcocos2d_1_1_c_c_transition_zoom_flip_y.html" target="_top" xlink:title="CCTransitionZoomFlipY: Flips the screen vertically doing a little zooming out/in The front face is th...">
<polygon fill="white" stroke="#666666" points="870.5,-167 740.5,-167 740.5,-148 870.5,-148 870.5,-167"/>
<text text-anchor="middle" x="805.5" y="-155" font-family="Helvetica,sans-Serif" font-size="10.00">CCTransitionZoomFlipY</text>
</a>
</g>
</g>
<!-- Node26&#45;&gt;Node32 -->
<g id="edge31" class="edge">
<title>Node26&#45;&gt;Node32</title>
<path fill="none" stroke="#63b8ff" d="M677.41,-272.83C679.37,-271.51 681.24,-270.07 683,-268.5 716.11,-239.04 685.23,-204.2 719,-175.5 725.24,-170.19 732.65,-166.33 740.47,-163.53"/>
<polygon fill="#63b8ff" stroke="#63b8ff" points="675.33,-269.98 668.32,-277.92 678.75,-276.09 675.33,-269.98"/>
</g>
<!-- Node35 -->
<g id="node35" class="node">
<title>Node35</title>
<g id="a_node35"><a xlink:href="../../d1/d5c/classcocos2d_1_1_c_c_transition_slide_in_b.html" target="_top" xlink:title="CCTransitionSlideInB: Slide in the incoming scene from the bottom border.">
<polygon fill="white" stroke="#666666" points="864,-130 747,-130 747,-111 864,-111 864,-130"/>
<text text-anchor="middle" x="805.5" y="-118" font-family="Helvetica,sans-Serif" font-size="10.00">CCTransitionSlideInB</text>
</a>
</g>
</g>
<!-- Node34&#45;&gt;Node35 -->
<g id="edge34" class="edge">
<title>Node34&#45;&gt;Node35</title>
<path fill="none" stroke="#63b8ff" d="M676.98,-120.5C699.78,-120.5 725.01,-120.5 746.97,-120.5"/>
<polygon fill="#63b8ff" stroke="#63b8ff" points="676.69,-117 666.69,-120.5 676.69,-124 676.69,-117"/>
</g>
<!-- Node36 -->
<g id="node36" class="node">
<title>Node36</title>
<g id="a_node36"><a xlink:href="../../de/d84/classcocos2d_1_1_c_c_transition_slide_in_r.html" target="_top" xlink:title="CCTransitionSlideInR: Slide in the incoming scene from the right border.">
<polygon fill="white" stroke="#666666" points="864,-93 747,-93 747,-74 864,-74 864,-93"/>
<text text-anchor="middle" x="805.5" y="-81" font-family="Helvetica,sans-Serif" font-size="10.00">CCTransitionSlideInR</text>
</a>
</g>
</g>
<!-- Node34&#45;&gt;Node36 -->
<g id="edge35" class="edge">
<title>Node34&#45;&gt;Node36</title>
<path fill="none" stroke="#63b8ff" d="M669.84,-109.05C696.86,-103.92 728.37,-97.94 754.11,-93.06"/>
<polygon fill="#63b8ff" stroke="#63b8ff" points="668.89,-105.67 659.72,-110.97 670.19,-112.55 668.89,-105.67"/>
</g>
<!-- Node37 -->
<g id="node37" class="node">
<title>Node37</title>
<g id="a_node37"><a xlink:href="../../d7/d48/classcocos2d_1_1_c_c_transition_slide_in_t.html" target="_top" xlink:title="CCTransitionSlideInT: Slide in the incoming scene from the top border.">
<polygon fill="white" stroke="#666666" points="863.5,-56 747.5,-56 747.5,-37 863.5,-37 863.5,-56"/>
<text text-anchor="middle" x="805.5" y="-44" font-family="Helvetica,sans-Serif" font-size="10.00">CCTransitionSlideInT</text>
</a>
</g>
</g>
<!-- Node34&#45;&gt;Node37 -->
<g id="edge36" class="edge">
<title>Node34&#45;&gt;Node37</title>
<path fill="none" stroke="#63b8ff" d="M670.67,-107.51C674.96,-105.75 679.11,-103.76 683,-101.5 702.84,-89.98 698.9,-75.57 719,-64.5 727.64,-59.74 737.4,-56.24 747.16,-53.67"/>
<polygon fill="#63b8ff" stroke="#63b8ff" points="669.33,-104.27 661.14,-111 671.73,-110.85 669.33,-104.27"/>
</g>
<!-- Node39 -->
<g id="node39" class="node">
<title>Node39</title>
<g id="a_node39"><a xlink:href="../../de/d82/classcocos2d_1_1_c_c_transition_split_rows.html" target="_top" xlink:title="CCTransitionSplitRows: The odd rows goes to the left while the even rows goes to the right.">
<polygon fill="white" stroke="#666666" points="868,-19 743,-19 743,0 868,0 868,-19"/>
<text text-anchor="middle" x="805.5" y="-7" font-family="Helvetica,sans-Serif" font-size="10.00">CCTransitionSplitRows</text>
</a>
</g>
</g>
<!-- Node38&#45;&gt;Node39 -->
<g id="edge38" class="edge">
<title>Node38&#45;&gt;Node39</title>
<path fill="none" stroke="#63b8ff" d="M670.67,-70.51C674.96,-68.75 679.11,-66.76 683,-64.5 702.84,-52.98 698.9,-38.57 719,-27.5 726.31,-23.48 734.42,-20.35 742.66,-17.92"/>
<polygon fill="#63b8ff" stroke="#63b8ff" points="669.33,-67.27 661.14,-74 671.73,-73.85 669.33,-67.27"/>
</g>
</g>
</svg>
