<?xml version="1.0" encoding="UTF-8" standalone="no"?>
<!DOCTYPE svg PUBLIC "-//W3C//DTD SVG 1.1//EN"
 "http://www.w3.org/Graphics/SVG/1.1/DTD/svg11.dtd">
<!-- Generated by graphviz version 2.43.0 (0)
 -->
<!-- Title: /home/runner/work/cocos&#45;headers/cocos&#45;headers/cocos2dx/robtop/keyboard_dispatcher/CCKeyboardDelegate.h Pages: 1 -->
<svg width="377pt" height="390pt"
 viewBox="0.00 0.00 376.50 390.00" xmlns="http://www.w3.org/2000/svg" xmlns:xlink="http://www.w3.org/1999/xlink">
<g id="graph0" class="graph" transform="scale(1 1) rotate(0) translate(4 386)">
<title>/home/runner/work/cocos&#45;headers/cocos&#45;headers/cocos2dx/robtop/keyboard_dispatcher/CCKeyboardDelegate.h</title>
<!-- Node1 -->
<g id="node1" class="node">
<title>Node1</title>
<g id="a_node1"><a xlink:title=" ">
<polygon fill="#999999" stroke="#666666" points="293.5,-382 105.5,-382 105.5,-330 293.5,-330 293.5,-382"/>
<text text-anchor="start" x="113.5" y="-370" font-family="Helvetica,sans-Serif" font-size="10.00">/home/runner/work/cocos</text>
<text text-anchor="start" x="113.5" y="-359" font-family="Helvetica,sans-Serif" font-size="10.00">&#45;headers/cocos&#45;headers</text>
<text text-anchor="start" x="113.5" y="-348" font-family="Helvetica,sans-Serif" font-size="10.00">/cocos2dx/robtop/keyboard</text>
<text text-anchor="middle" x="199.5" y="-337" font-family="Helvetica,sans-Serif" font-size="10.00">_dispatcher/CCKeyboardDelegate.h</text>
</a>
</g>
</g>
<!-- Node2 -->
<g id="node2" class="node">
<title>Node2</title>
<g id="a_node2"><a xlink:href="../../d9/dc8/cc_macros_8h.html" target="_top" xlink:title=" ">
<polygon fill="white" stroke="#666666" points="196,-239 125,-239 125,-220 196,-220 196,-239"/>
<text text-anchor="middle" x="160.5" y="-227" font-family="Helvetica,sans-Serif" font-size="10.00">ccMacros.h</text>
</a>
</g>
</g>
<!-- Node1&#45;&gt;Node2 -->
<g id="edge1" class="edge">
<title>Node1&#45;&gt;Node2</title>
<path fill="none" stroke="#63b8ff" d="M191.08,-329.82C187.45,-318.84 183.2,-305.8 179.5,-294 174.76,-278.88 169.62,-261.66 165.89,-248.97"/>
<polygon fill="#63b8ff" stroke="#63b8ff" points="169.18,-247.76 163.01,-239.15 162.46,-249.73 169.18,-247.76"/>
</g>
<!-- Node9 -->
<g id="node9" class="node">
<title>Node9</title>
<g id="a_node9"><a xlink:href="../../dd/d69/_c_c_object_8h.html" target="_top" xlink:title=" ">
<polygon fill="white" stroke="#666666" points="290.5,-294 188.5,-294 188.5,-275 290.5,-275 290.5,-294"/>
<text text-anchor="middle" x="239.5" y="-282" font-family="Helvetica,sans-Serif" font-size="10.00">cocoa/CCObject.h</text>
</a>
</g>
</g>
<!-- Node1&#45;&gt;Node9 -->
<g id="edge10" class="edge">
<title>Node1&#45;&gt;Node9</title>
<path fill="none" stroke="#63b8ff" d="M213.94,-329.91C219.03,-321.06 224.64,-311.31 229.31,-303.2"/>
<polygon fill="#63b8ff" stroke="#63b8ff" points="232.48,-304.72 234.43,-294.3 226.41,-301.22 232.48,-304.72"/>
</g>
<!-- Node3 -->
<g id="node3" class="node">
<title>Node3</title>
<g id="a_node3"><a xlink:href="../../d5/d22/_c_c_common_8h.html" target="_top" xlink:title=" ">
<polygon fill="white" stroke="#666666" points="188.5,-184 60.5,-184 60.5,-165 188.5,-165 188.5,-184"/>
<text text-anchor="middle" x="124.5" y="-172" font-family="Helvetica,sans-Serif" font-size="10.00">platform/CCCommon.h</text>
</a>
</g>
</g>
<!-- Node2&#45;&gt;Node3 -->
<g id="edge2" class="edge">
<title>Node2&#45;&gt;Node3</title>
<path fill="none" stroke="#63b8ff" d="M154.56,-219.75C149.52,-212.34 142.16,-201.5 135.99,-192.41"/>
<polygon fill="#63b8ff" stroke="#63b8ff" points="138.85,-190.39 130.33,-184.09 133.06,-194.33 138.85,-190.39"/>
</g>
<!-- Node5 -->
<g id="node5" class="node">
<title>Node5</title>
<g id="a_node5"><a xlink:href="../../db/d9f/cc_config_8h.html" target="_top" xlink:title="cocos2d (cc) configuration file">
<polygon fill="white" stroke="#666666" points="81,-74 14,-74 14,-55 81,-55 81,-74"/>
<text text-anchor="middle" x="47.5" y="-62" font-family="Helvetica,sans-Serif" font-size="10.00">ccConfig.h</text>
</a>
</g>
</g>
<!-- Node2&#45;&gt;Node5 -->
<g id="edge9" class="edge">
<title>Node2&#45;&gt;Node5</title>
<path fill="none" stroke="#63b8ff" d="M124.78,-224.05C99.81,-218.9 68.09,-207.82 51.5,-184 30.79,-154.27 36.67,-109.39 42.36,-84.26"/>
<polygon fill="#63b8ff" stroke="#63b8ff" points="45.84,-84.78 44.87,-74.23 39.05,-83.08 45.84,-84.78"/>
</g>
<!-- Node8 -->
<g id="node8" class="node">
<title>Node8</title>
<g id="a_node8"><a xlink:title=" ">
<polygon fill="#e0e0e0" stroke="#999999" points="268.5,-184 206.5,-184 206.5,-165 268.5,-165 268.5,-184"/>
<text text-anchor="middle" x="237.5" y="-172" font-family="Helvetica,sans-Serif" font-size="10.00">CCStdC.h</text>
</a>
</g>
</g>
<!-- Node2&#45;&gt;Node8 -->
<g id="edge8" class="edge">
<title>Node2&#45;&gt;Node8</title>
<path fill="none" stroke="#63b8ff" d="M172.87,-219.98C184.59,-211.92 202.42,-199.65 216.39,-190.03"/>
<polygon fill="#63b8ff" stroke="#63b8ff" points="218.65,-192.72 224.9,-184.17 214.68,-186.96 218.65,-192.72"/>
</g>
<!-- Node4 -->
<g id="node4" class="node">
<title>Node4</title>
<g id="a_node4"><a xlink:href="../../d3/d41/_c_c_platform_macros_8h.html" target="_top" xlink:title=" ">
<polygon fill="white" stroke="#666666" points="182.5,-129 66.5,-129 66.5,-110 182.5,-110 182.5,-129"/>
<text text-anchor="middle" x="124.5" y="-117" font-family="Helvetica,sans-Serif" font-size="10.00">CCPlatformMacros.h</text>
</a>
</g>
</g>
<!-- Node3&#45;&gt;Node4 -->
<g id="edge3" class="edge">
<title>Node3&#45;&gt;Node4</title>
<path fill="none" stroke="#63b8ff" d="M124.5,-164.75C124.5,-157.8 124.5,-147.85 124.5,-139.13"/>
<polygon fill="#63b8ff" stroke="#63b8ff" points="128,-139.09 124.5,-129.09 121,-139.09 128,-139.09"/>
</g>
<!-- Node4&#45;&gt;Node5 -->
<g id="edge4" class="edge">
<title>Node4&#45;&gt;Node5</title>
<path fill="none" stroke="#63b8ff" d="M112.13,-109.98C100.41,-101.92 82.58,-89.65 68.61,-80.03"/>
<polygon fill="#63b8ff" stroke="#63b8ff" points="70.32,-76.96 60.1,-74.17 66.35,-82.72 70.32,-76.96"/>
</g>
<!-- Node6 -->
<g id="node6" class="node">
<title>Node6</title>
<g id="a_node6"><a xlink:href="../../dd/d96/_c_c_platform_config_8h.html" target="_top" xlink:title=" ">
<polygon fill="white" stroke="#666666" points="157,-19 0,-19 0,0 157,0 157,-19"/>
<text text-anchor="middle" x="78.5" y="-7" font-family="Helvetica,sans-Serif" font-size="10.00">platform/CCPlatformConfig.h</text>
</a>
</g>
</g>
<!-- Node4&#45;&gt;Node6 -->
<g id="edge6" class="edge">
<title>Node4&#45;&gt;Node6</title>
<path fill="none" stroke="#63b8ff" d="M120.74,-109.66C113.22,-92.01 96.21,-52.09 86.22,-28.64"/>
<polygon fill="#63b8ff" stroke="#63b8ff" points="89.33,-26.99 82.19,-19.16 82.89,-29.73 89.33,-26.99"/>
</g>
<!-- Node7 -->
<g id="node7" class="node">
<title>Node7</title>
<g id="a_node7"><a xlink:title=" ">
<polygon fill="#e0e0e0" stroke="#999999" points="251,-74 138,-74 138,-55 251,-55 251,-74"/>
<text text-anchor="middle" x="194.5" y="-62" font-family="Helvetica,sans-Serif" font-size="10.00">CCPlatformDefine.h</text>
</a>
</g>
</g>
<!-- Node4&#45;&gt;Node7 -->
<g id="edge7" class="edge">
<title>Node4&#45;&gt;Node7</title>
<path fill="none" stroke="#63b8ff" d="M135.75,-109.98C146.3,-102 162.3,-89.88 174.94,-80.31"/>
<polygon fill="#63b8ff" stroke="#63b8ff" points="177.19,-83 183.05,-74.17 172.96,-77.42 177.19,-83"/>
</g>
<!-- Node5&#45;&gt;Node6 -->
<g id="edge5" class="edge">
<title>Node5&#45;&gt;Node6</title>
<path fill="none" stroke="#63b8ff" d="M52.62,-54.75C56.86,-47.49 63.03,-36.95 68.28,-27.98"/>
<polygon fill="#63b8ff" stroke="#63b8ff" points="71.45,-29.49 73.48,-19.09 65.41,-25.95 71.45,-29.49"/>
</g>
<!-- Node9&#45;&gt;Node2 -->
<g id="edge14" class="edge">
<title>Node9&#45;&gt;Node2</title>
<path fill="none" stroke="#63b8ff" d="M226.81,-274.98C214.67,-266.84 196.14,-254.41 181.75,-244.76"/>
<polygon fill="#63b8ff" stroke="#63b8ff" points="183.68,-241.84 173.42,-239.17 179.78,-247.65 183.68,-241.84"/>
</g>
<!-- Node10 -->
<g id="node10" class="node">
<title>Node10</title>
<g id="a_node10"><a xlink:href="../../d9/d2d/_c_c_data_visitor_8h.html" target="_top" xlink:title=" ">
<polygon fill="white" stroke="#666666" points="343,-239 250,-239 250,-220 343,-220 343,-239"/>
<text text-anchor="middle" x="296.5" y="-227" font-family="Helvetica,sans-Serif" font-size="10.00">CCDataVisitor.h</text>
</a>
</g>
</g>
<!-- Node9&#45;&gt;Node10 -->
<g id="edge11" class="edge">
<title>Node9&#45;&gt;Node10</title>
<path fill="none" stroke="#63b8ff" d="M248.66,-274.98C257,-267.23 269.53,-255.58 279.68,-246.14"/>
<polygon fill="#63b8ff" stroke="#63b8ff" points="282.24,-248.54 287.18,-239.17 277.47,-243.42 282.24,-248.54"/>
</g>
<!-- Node10&#45;&gt;Node4 -->
<g id="edge12" class="edge">
<title>Node10&#45;&gt;Node4</title>
<path fill="none" stroke="#63b8ff" d="M296.4,-219.8C295.77,-206.19 292.53,-179.91 277.5,-165 255.01,-142.68 222.01,-131.42 192.41,-125.8"/>
<polygon fill="#63b8ff" stroke="#63b8ff" points="192.97,-122.35 182.52,-124.1 191.79,-129.24 192.97,-122.35"/>
</g>
<!-- Node11 -->
<g id="node11" class="node">
<title>Node11</title>
<g id="a_node11"><a xlink:title=" ">
<polygon fill="#e0e0e0" stroke="#999999" points="368.5,-184 324.5,-184 324.5,-165 368.5,-165 368.5,-184"/>
<text text-anchor="middle" x="346.5" y="-172" font-family="Helvetica,sans-Serif" font-size="10.00">string</text>
</a>
</g>
</g>
<!-- Node10&#45;&gt;Node11 -->
<g id="edge13" class="edge">
<title>Node10&#45;&gt;Node11</title>
<path fill="none" stroke="#63b8ff" d="M304.76,-219.75C311.96,-212.11 322.61,-200.82 331.35,-191.56"/>
<polygon fill="#63b8ff" stroke="#63b8ff" points="334.08,-193.76 338.4,-184.09 328.99,-188.96 334.08,-193.76"/>
</g>
</g>
</svg>
