<?xml version="1.0" encoding="UTF-8" standalone="no"?>
<!DOCTYPE svg PUBLIC "-//W3C//DTD SVG 1.1//EN"
 "http://www.w3.org/Graphics/SVG/1.1/DTD/svg11.dtd">
<!-- Generated by graphviz version 2.43.0 (0)
 -->
<!-- Title: CCControl Pages: 1 -->
<svg width="1021pt" height="298pt"
 viewBox="0.00 0.00 1021.00 298.00" xmlns="http://www.w3.org/2000/svg" xmlns:xlink="http://www.w3.org/1999/xlink">
<g id="graph0" class="graph" transform="scale(1 1) rotate(0) translate(4 294)">
<title>CCControl</title>
<!-- Node1 -->
<g id="node1" class="node">
<title>Node1</title>
<g id="a_node1"><a xlink:title=" ">
<polygon fill="#999999" stroke="#666666" points="706,-157 641,-157 641,-138 706,-138 706,-157"/>
<text text-anchor="middle" x="673.5" y="-145" font-family="Helvetica,sans-Serif" font-size="10.00">CCControl</text>
</a>
</g>
</g>
<!-- Node12 -->
<g id="node12" class="node">
<title>Node12</title>
<g id="a_node12"><a xlink:href="../../d5/d52/classcocos2d_1_1extension_1_1_c_c_control_button.html" target="_top" xlink:title="for Cocos2D.">
<polygon fill="white" stroke="#666666" points="874.5,-290 776.5,-290 776.5,-271 874.5,-271 874.5,-290"/>
<text text-anchor="middle" x="825.5" y="-278" font-family="Helvetica,sans-Serif" font-size="10.00">CCControlButton</text>
</a>
</g>
</g>
<!-- Node1&#45;&gt;Node12 -->
<g id="edge11" class="edge">
<title>Node1&#45;&gt;Node12</title>
<path fill="none" stroke="#63b8ff" d="M680.38,-166.83C689.31,-192.81 708.87,-238.48 742,-262.5 751.97,-269.73 764.28,-274.15 776.32,-276.83"/>
<polygon fill="#63b8ff" stroke="#63b8ff" points="683.61,-165.46 677.19,-157.03 676.95,-167.62 683.61,-165.46"/>
</g>
<!-- Node14 -->
<g id="node14" class="node">
<title>Node14</title>
<g id="a_node14"><a xlink:href="../../d3/def/classcocos2d_1_1extension_1_1_c_c_control_colour_picker.html" target="_top" xlink:title=" ">
<polygon fill="white" stroke="#666666" points="888.5,-253 762.5,-253 762.5,-234 888.5,-234 888.5,-253"/>
<text text-anchor="middle" x="825.5" y="-241" font-family="Helvetica,sans-Serif" font-size="10.00">CCControlColourPicker</text>
</a>
</g>
</g>
<!-- Node1&#45;&gt;Node14 -->
<g id="edge13" class="edge">
<title>Node1&#45;&gt;Node14</title>
<path fill="none" stroke="#63b8ff" d="M685.26,-165.69C696.92,-183.74 717.22,-210.78 742,-225.5 748.3,-229.24 755.29,-232.21 762.45,-234.57"/>
<polygon fill="#63b8ff" stroke="#63b8ff" points="688.22,-163.82 679.97,-157.18 682.28,-167.52 688.22,-163.82"/>
</g>
<!-- Node15 -->
<g id="node15" class="node">
<title>Node15</title>
<g id="a_node15"><a xlink:href="../../da/de8/classcocos2d_1_1extension_1_1_c_c_control_hue_picker.html" target="_top" xlink:title=" ">
<polygon fill="white" stroke="#666666" points="882.5,-216 768.5,-216 768.5,-197 882.5,-197 882.5,-216"/>
<text text-anchor="middle" x="825.5" y="-204" font-family="Helvetica,sans-Serif" font-size="10.00">CCControlHuePicker</text>
</a>
</g>
</g>
<!-- Node1&#45;&gt;Node15 -->
<g id="edge14" class="edge">
<title>Node1&#45;&gt;Node15</title>
<path fill="none" stroke="#63b8ff" d="M695.8,-162.96C708.63,-171.61 725.61,-181.95 742,-188.5 750.44,-191.87 759.63,-194.67 768.71,-196.97"/>
<polygon fill="#63b8ff" stroke="#63b8ff" points="697.47,-159.86 687.26,-157.04 693.48,-165.61 697.47,-159.86"/>
</g>
<!-- Node16 -->
<g id="node16" class="node">
<title>Node16</title>
<g id="a_node16"><a xlink:href="../../d8/dfb/classcocos2d_1_1extension_1_1_c_c_control_potentiometer.html" target="_top" xlink:title="for Cocos2D.">
<polygon fill="white" stroke="#666666" points="893,-179 758,-179 758,-160 893,-160 893,-179"/>
<text text-anchor="middle" x="825.5" y="-167" font-family="Helvetica,sans-Serif" font-size="10.00">CCControlPotentiometer</text>
</a>
</g>
</g>
<!-- Node1&#45;&gt;Node16 -->
<g id="edge15" class="edge">
<title>Node1&#45;&gt;Node16</title>
<path fill="none" stroke="#63b8ff" d="M716.22,-153.62C729.7,-155.6 744.96,-157.83 759.7,-160"/>
<polygon fill="#63b8ff" stroke="#63b8ff" points="716.71,-150.15 706.31,-152.17 715.7,-157.08 716.71,-150.15"/>
</g>
<!-- Node17 -->
<g id="node17" class="node">
<title>Node17</title>
<g id="a_node17"><a xlink:href="../../d2/d34/classcocos2d_1_1extension_1_1_c_c_control_saturation_brightness_picker.html" target="_top" xlink:title=" ">
<polygon fill="white" stroke="#666666" points="909,-141.5 742,-141.5 742,-111.5 909,-111.5 909,-141.5"/>
<text text-anchor="start" x="750" y="-129.5" font-family="Helvetica,sans-Serif" font-size="10.00">CCControlSaturationBrightness</text>
<text text-anchor="middle" x="825.5" y="-118.5" font-family="Helvetica,sans-Serif" font-size="10.00">Picker</text>
</a>
</g>
</g>
<!-- Node1&#45;&gt;Node17 -->
<g id="edge16" class="edge">
<title>Node1&#45;&gt;Node17</title>
<path fill="none" stroke="#63b8ff" d="M716.42,-141.63C724.42,-140.51 733.05,-139.3 741.81,-138.08"/>
<polygon fill="#63b8ff" stroke="#63b8ff" points="715.73,-138.19 706.31,-143.05 716.7,-145.13 715.73,-138.19"/>
</g>
<!-- Node18 -->
<g id="node18" class="node">
<title>Node18</title>
<g id="a_node18"><a xlink:href="../../d1/d6f/classcocos2d_1_1extension_1_1_c_c_control_slider.html" target="_top" xlink:title=" ">
<polygon fill="white" stroke="#666666" points="872,-93 779,-93 779,-74 872,-74 872,-93"/>
<text text-anchor="middle" x="825.5" y="-81" font-family="Helvetica,sans-Serif" font-size="10.00">CCControlSlider</text>
</a>
</g>
</g>
<!-- Node1&#45;&gt;Node18 -->
<g id="edge17" class="edge">
<title>Node1&#45;&gt;Node18</title>
<path fill="none" stroke="#63b8ff" d="M694.29,-131.51C707.19,-121.82 724.77,-109.93 742,-102.5 753.47,-97.55 766.42,-93.8 778.6,-90.98"/>
<polygon fill="#63b8ff" stroke="#63b8ff" points="691.94,-128.9 686.17,-137.79 696.22,-134.44 691.94,-128.9"/>
</g>
<!-- Node19 -->
<g id="node19" class="node">
<title>Node19</title>
<g id="a_node19"><a xlink:href="../../d7/d7a/classcocos2d_1_1extension_1_1_c_c_control_stepper.html" target="_top" xlink:title=" ">
<polygon fill="white" stroke="#666666" points="877,-56 774,-56 774,-37 877,-37 877,-56"/>
<text text-anchor="middle" x="825.5" y="-44" font-family="Helvetica,sans-Serif" font-size="10.00">CCControlStepper</text>
</a>
</g>
</g>
<!-- Node1&#45;&gt;Node19 -->
<g id="edge18" class="edge">
<title>Node1&#45;&gt;Node19</title>
<path fill="none" stroke="#63b8ff" d="M684.46,-129.02C695.8,-109.81 716.15,-80.4 742,-64.5 751.49,-58.66 762.62,-54.71 773.57,-52.03"/>
<polygon fill="#63b8ff" stroke="#63b8ff" points="681.39,-127.33 679.5,-137.76 687.48,-130.79 681.39,-127.33"/>
</g>
<!-- Node20 -->
<g id="node20" class="node">
<title>Node20</title>
<g id="a_node20"><a xlink:href="../../d9/dd1/classcocos2d_1_1extension_1_1_c_c_control_switch.html" target="_top" xlink:title="for Cocos2D.">
<polygon fill="white" stroke="#666666" points="874.5,-19 776.5,-19 776.5,0 874.5,0 874.5,-19"/>
<text text-anchor="middle" x="825.5" y="-7" font-family="Helvetica,sans-Serif" font-size="10.00">CCControlSwitch</text>
</a>
</g>
</g>
<!-- Node1&#45;&gt;Node20 -->
<g id="edge19" class="edge">
<title>Node1&#45;&gt;Node20</title>
<path fill="none" stroke="#63b8ff" d="M679.89,-128.1C688.43,-101.15 707.71,-52.85 742,-27.5 751.9,-20.18 764.19,-15.73 776.23,-13.04"/>
<polygon fill="#63b8ff" stroke="#63b8ff" points="676.47,-127.33 676.96,-137.91 683.18,-129.33 676.47,-127.33"/>
</g>
<!-- Node2 -->
<g id="node2" class="node">
<title>Node2</title>
<g id="a_node2"><a xlink:href="../../dd/d1e/classcocos2d_1_1_c_c_layer_r_g_b_a.html" target="_top" xlink:title="CCLayerRGBA is a subclass of CCLayer that implements the CCRGBAProtocol protocol using a solid color ...">
<polygon fill="white" stroke="#666666" points="605,-157 520,-157 520,-138 605,-138 605,-157"/>
<text text-anchor="middle" x="562.5" y="-145" font-family="Helvetica,sans-Serif" font-size="10.00">CCLayerRGBA</text>
</a>
</g>
</g>
<!-- Node2&#45;&gt;Node1 -->
<g id="edge1" class="edge">
<title>Node2&#45;&gt;Node1</title>
<path fill="none" stroke="#63b8ff" d="M615.22,-147.5C624,-147.5 632.87,-147.5 640.93,-147.5"/>
<polygon fill="#63b8ff" stroke="#63b8ff" points="615.02,-144 605.02,-147.5 615.02,-151 615.02,-144"/>
</g>
<!-- Node3 -->
<g id="node3" class="node">
<title>Node3</title>
<g id="a_node3"><a xlink:href="../../d0/d45/class_c_c_layer.html" target="_top" xlink:title="CCLayer is a subclass of CCNode that implements the TouchEventsDelegate protocol.">
<polygon fill="white" stroke="#666666" points="463.5,-176 406.5,-176 406.5,-157 463.5,-157 463.5,-176"/>
<text text-anchor="middle" x="435" y="-164" font-family="Helvetica,sans-Serif" font-size="10.00">CCLayer</text>
</a>
</g>
</g>
<!-- Node3&#45;&gt;Node2 -->
<g id="edge2" class="edge">
<title>Node3&#45;&gt;Node2</title>
<path fill="none" stroke="#63b8ff" d="M473.67,-160.8C488.18,-158.6 504.83,-156.08 519.7,-153.83"/>
<polygon fill="#63b8ff" stroke="#63b8ff" points="472.9,-157.37 463.54,-162.33 473.95,-164.29 472.9,-157.37"/>
</g>
<!-- Node4 -->
<g id="node4" class="node">
<title>Node4</title>
<g id="a_node4"><a xlink:href="../../d0/ded/classcocos2d_1_1_c_c_node.html" target="_top" xlink:title="CCNode is the main element.">
<polygon fill="white" stroke="#666666" points="305,-250 249,-250 249,-231 305,-231 305,-250"/>
<text text-anchor="middle" x="277" y="-238" font-family="Helvetica,sans-Serif" font-size="10.00">CCNode</text>
</a>
</g>
</g>
<!-- Node4&#45;&gt;Node3 -->
<g id="edge3" class="edge">
<title>Node4&#45;&gt;Node3</title>
<path fill="none" stroke="#63b8ff" d="M314.85,-233.85C326.39,-231.1 338.97,-227.38 350,-222.5 378.05,-210.09 407,-188.48 422.52,-176.04"/>
<polygon fill="#63b8ff" stroke="#63b8ff" points="314.06,-230.44 305.06,-236.02 315.58,-237.27 314.06,-230.44"/>
</g>
<!-- Node5 -->
<g id="node5" class="node">
<title>Node5</title>
<g id="a_node5"><a xlink:href="../../d3/dbf/classcocos2d_1_1_c_c_object.html" target="_top" xlink:title="NA.">
<polygon fill="white" stroke="#666666" points="168,-250 106,-250 106,-231 168,-231 168,-250"/>
<text text-anchor="middle" x="137" y="-238" font-family="Helvetica,sans-Serif" font-size="10.00">CCObject</text>
</a>
</g>
</g>
<!-- Node5&#45;&gt;Node4 -->
<g id="edge4" class="edge">
<title>Node5&#45;&gt;Node4</title>
<path fill="none" stroke="#63b8ff" d="M178.58,-240.5C201.13,-240.5 228.59,-240.5 248.6,-240.5"/>
<polygon fill="#63b8ff" stroke="#63b8ff" points="178.28,-237 168.28,-240.5 178.28,-244 178.28,-237"/>
</g>
<!-- Node6 -->
<g id="node6" class="node">
<title>Node6</title>
<g id="a_node6"><a xlink:href="../../d5/d61/classcocos2d_1_1_c_c_copying.html" target="_top" xlink:title="NA NA.">
<polygon fill="white" stroke="#666666" points="70,-250 0,-250 0,-231 70,-231 70,-250"/>
<text text-anchor="middle" x="35" y="-238" font-family="Helvetica,sans-Serif" font-size="10.00">CCCopying</text>
</a>
</g>
</g>
<!-- Node6&#45;&gt;Node5 -->
<g id="edge5" class="edge">
<title>Node6&#45;&gt;Node5</title>
<path fill="none" stroke="#63b8ff" d="M80.39,-240.5C88.95,-240.5 97.72,-240.5 105.7,-240.5"/>
<polygon fill="#63b8ff" stroke="#63b8ff" points="80.13,-237 70.13,-240.5 80.13,-244 80.13,-237"/>
</g>
<!-- Node7 -->
<g id="node7" class="node">
<title>Node7</title>
<g id="a_node7"><a xlink:href="../../d0/d38/classcocos2d_1_1_c_c_touch_delegate.html" target="_top" xlink:title=" ">
<polygon fill="white" stroke="#666666" points="328,-213 226,-213 226,-194 328,-194 328,-213"/>
<text text-anchor="middle" x="277" y="-201" font-family="Helvetica,sans-Serif" font-size="10.00">CCTouchDelegate</text>
</a>
</g>
</g>
<!-- Node7&#45;&gt;Node3 -->
<g id="edge6" class="edge">
<title>Node7&#45;&gt;Node3</title>
<path fill="none" stroke="#63b8ff" d="M328.2,-191.59C354.07,-185.46 384.64,-178.21 406.25,-173.08"/>
<polygon fill="#63b8ff" stroke="#63b8ff" points="327.1,-188.26 318.17,-193.97 328.71,-195.07 327.1,-188.26"/>
</g>
<!-- Node8 -->
<g id="node8" class="node">
<title>Node8</title>
<g id="a_node8"><a xlink:href="../../da/d55/classcocos2d_1_1_c_c_accelerometer_delegate.html" target="_top" xlink:title="The CCAccelerometerDelegate defines a single method for receiving acceleration&#45;related data from the ...">
<polygon fill="white" stroke="#666666" points="350,-176 204,-176 204,-157 350,-157 350,-176"/>
<text text-anchor="middle" x="277" y="-164" font-family="Helvetica,sans-Serif" font-size="10.00">CCAccelerometerDelegate</text>
</a>
</g>
</g>
<!-- Node8&#45;&gt;Node3 -->
<g id="edge7" class="edge">
<title>Node8&#45;&gt;Node3</title>
<path fill="none" stroke="#63b8ff" d="M360.37,-166.5C376.92,-166.5 393.21,-166.5 406.24,-166.5"/>
<polygon fill="#63b8ff" stroke="#63b8ff" points="360.06,-163 350.06,-166.5 360.06,-170 360.06,-163"/>
</g>
<!-- Node9 -->
<g id="node9" class="node">
<title>Node9</title>
<g id="a_node9"><a xlink:href="../../d2/d2d/classcocos2d_1_1_c_c_keypad_delegate.html" target="_top" xlink:title=" ">
<polygon fill="white" stroke="#666666" points="332,-139 222,-139 222,-120 332,-120 332,-139"/>
<text text-anchor="middle" x="277" y="-127" font-family="Helvetica,sans-Serif" font-size="10.00">CCKeypadDelegate</text>
</a>
</g>
</g>
<!-- Node9&#45;&gt;Node3 -->
<g id="edge8" class="edge">
<title>Node9&#45;&gt;Node3</title>
<path fill="none" stroke="#63b8ff" d="M328.2,-141.41C354.07,-147.54 384.64,-154.79 406.25,-159.92"/>
<polygon fill="#63b8ff" stroke="#63b8ff" points="328.71,-137.93 318.17,-139.03 327.1,-144.74 328.71,-137.93"/>
</g>
<!-- Node10 -->
<g id="node10" class="node">
<title>Node10</title>
<g id="a_node10"><a xlink:href="../../d2/d91/classcocos2d_1_1_c_c_keyboard_delegate.html" target="_top" xlink:title=" ">
<polygon fill="white" stroke="#666666" points="337,-102 217,-102 217,-83 337,-83 337,-102"/>
<text text-anchor="middle" x="277" y="-90" font-family="Helvetica,sans-Serif" font-size="10.00">CCKeyboardDelegate</text>
</a>
</g>
</g>
<!-- Node10&#45;&gt;Node3 -->
<g id="edge9" class="edge">
<title>Node10&#45;&gt;Node3</title>
<path fill="none" stroke="#63b8ff" d="M340.44,-105.68C343.75,-107.12 346.96,-108.72 350,-110.5 370.09,-122.23 366.61,-135.64 386,-148.5 392.16,-152.58 399.37,-155.91 406.3,-158.54"/>
<polygon fill="#63b8ff" stroke="#63b8ff" points="341.49,-102.33 330.9,-102.01 338.97,-108.86 341.49,-102.33"/>
</g>
<!-- Node11 -->
<g id="node11" class="node">
<title>Node11</title>
<g id="a_node11"><a xlink:href="../../d8/dda/classcocos2d_1_1_c_c_r_g_b_a_protocol.html" target="_top" xlink:title="RGBA protocol that affects CCNode&#39;s color and opacity NA.">
<polygon fill="white" stroke="#666666" points="484,-139 386,-139 386,-120 484,-120 484,-139"/>
<text text-anchor="middle" x="435" y="-127" font-family="Helvetica,sans-Serif" font-size="10.00">CCRGBAProtocol</text>
</a>
</g>
</g>
<!-- Node11&#45;&gt;Node2 -->
<g id="edge10" class="edge">
<title>Node11&#45;&gt;Node2</title>
<path fill="none" stroke="#63b8ff" d="M494.21,-137.85C502.85,-139.09 511.6,-140.34 519.81,-141.52"/>
<polygon fill="#63b8ff" stroke="#63b8ff" points="494.56,-134.36 484.16,-136.41 493.56,-141.29 494.56,-134.36"/>
</g>
<!-- Node13 -->
<g id="node13" class="node">
<title>Node13</title>
<g id="a_node13"><a xlink:href="../../d7/dc3/classcocos2d_1_1extension_1_1_c_c_edit_box.html" target="_top" xlink:title="Class for edit box.">
<polygon fill="white" stroke="#666666" points="1013,-290 945,-290 945,-271 1013,-271 1013,-290"/>
<text text-anchor="middle" x="979" y="-278" font-family="Helvetica,sans-Serif" font-size="10.00">CCEditBox</text>
</a>
</g>
</g>
<!-- Node12&#45;&gt;Node13 -->
<g id="edge12" class="edge">
<title>Node12&#45;&gt;Node13</title>
<path fill="none" stroke="#63b8ff" d="M884.98,-280.5C905.3,-280.5 927.39,-280.5 944.93,-280.5"/>
<polygon fill="#63b8ff" stroke="#63b8ff" points="884.85,-277 874.85,-280.5 884.85,-284 884.85,-277"/>
</g>
</g>
</svg>
