<?xml version="1.0" encoding="UTF-8" standalone="no"?>
<!DOCTYPE svg PUBLIC "-//W3C//DTD SVG 1.1//EN"
 "http://www.w3.org/Graphics/SVG/1.1/DTD/svg11.dtd">
<!-- Generated by graphviz version 2.43.0 (0)
 -->
<!-- Title: CCControl Pages: 1 -->
<svg width="1021pt" height="306pt"
 viewBox="0.00 0.00 1021.00 306.00" xmlns="http://www.w3.org/2000/svg" xmlns:xlink="http://www.w3.org/1999/xlink">
<g id="graph0" class="graph" transform="scale(1 1) rotate(0) translate(4 302)">
<title>CCControl</title>
<!-- Node1 -->
<g id="node1" class="node">
<title>Node1</title>
<g id="a_node1"><a xlink:title=" ">
<polygon fill="#bfbfbf" stroke="black" points="641,-142.5 641,-161.5 706,-161.5 706,-142.5 641,-142.5"/>
<text text-anchor="middle" x="673.5" y="-149.5" font-family="Helvetica,sans-Serif" font-size="10.00">CCControl</text>
</a>
</g>
</g>
<!-- Node12 -->
<g id="node12" class="node">
<title>Node12</title>
<g id="a_node12"><a xlink:href="../../d5/d52/classcocos2d_1_1extension_1_1_c_c_control_button.html" target="_top" xlink:title="for Cocos2D.">
<polygon fill="none" stroke="black" points="776.5,-278.5 776.5,-297.5 874.5,-297.5 874.5,-278.5 776.5,-278.5"/>
<text text-anchor="middle" x="825.5" y="-285.5" font-family="Helvetica,sans-Serif" font-size="10.00">CCControlButton</text>
</a>
</g>
</g>
<!-- Node1&#45;&gt;Node12 -->
<g id="edge11" class="edge">
<title>Node1&#45;&gt;Node12</title>
<path fill="none" stroke="midnightblue" d="M680.2,-171.26C689.02,-197.55 708.53,-244.24 742,-269 751.93,-276.34 764.22,-280.91 776.26,-283.74"/>
<polygon fill="midnightblue" stroke="midnightblue" points="683.52,-170.13 677.16,-161.66 676.85,-172.25 683.52,-170.13"/>
</g>
<!-- Node14 -->
<g id="node14" class="node">
<title>Node14</title>
<g id="a_node14"><a xlink:href="../../d3/def/classcocos2d_1_1extension_1_1_c_c_control_colour_picker.html" target="_top" xlink:title=" ">
<polygon fill="none" stroke="black" points="762.5,-240.5 762.5,-259.5 888.5,-259.5 888.5,-240.5 762.5,-240.5"/>
<text text-anchor="middle" x="825.5" y="-247.5" font-family="Helvetica,sans-Serif" font-size="10.00">CCControlColourPicker</text>
</a>
</g>
</g>
<!-- Node1&#45;&gt;Node14 -->
<g id="edge13" class="edge">
<title>Node1&#45;&gt;Node14</title>
<path fill="none" stroke="midnightblue" d="M685.05,-170.07C696.67,-188.31 717.04,-215.87 742,-231 748.41,-234.89 755.54,-237.98 762.85,-240.44"/>
<polygon fill="midnightblue" stroke="midnightblue" points="688.01,-168.2 679.8,-161.5 682.04,-171.86 688.01,-168.2"/>
</g>
<!-- Node15 -->
<g id="node15" class="node">
<title>Node15</title>
<g id="a_node15"><a xlink:href="../../da/de8/classcocos2d_1_1extension_1_1_c_c_control_hue_picker.html" target="_top" xlink:title=" ">
<polygon fill="none" stroke="black" points="768.5,-202.5 768.5,-221.5 882.5,-221.5 882.5,-202.5 768.5,-202.5"/>
<text text-anchor="middle" x="825.5" y="-209.5" font-family="Helvetica,sans-Serif" font-size="10.00">CCControlHuePicker</text>
</a>
</g>
</g>
<!-- Node1&#45;&gt;Node15 -->
<g id="edge14" class="edge">
<title>Node1&#45;&gt;Node15</title>
<path fill="none" stroke="midnightblue" d="M696.07,-167.55C708.88,-176.15 725.75,-186.39 742,-193 751.26,-196.76 761.42,-199.87 771.35,-202.4"/>
<polygon fill="midnightblue" stroke="midnightblue" points="697.75,-164.46 687.53,-161.66 693.78,-170.22 697.75,-164.46"/>
</g>
<!-- Node16 -->
<g id="node16" class="node">
<title>Node16</title>
<g id="a_node16"><a xlink:href="../../d8/dfb/classcocos2d_1_1extension_1_1_c_c_control_potentiometer.html" target="_top" xlink:title="for Cocos2D.">
<polygon fill="none" stroke="black" points="758,-164.5 758,-183.5 893,-183.5 893,-164.5 758,-164.5"/>
<text text-anchor="middle" x="825.5" y="-171.5" font-family="Helvetica,sans-Serif" font-size="10.00">CCControlPotentiometer</text>
</a>
</g>
</g>
<!-- Node1&#45;&gt;Node16 -->
<g id="edge15" class="edge">
<title>Node1&#45;&gt;Node16</title>
<path fill="none" stroke="midnightblue" d="M716.22,-158.12C729.7,-160.1 744.96,-162.33 759.7,-164.5"/>
<polygon fill="midnightblue" stroke="midnightblue" points="716.71,-154.65 706.31,-156.67 715.7,-161.58 716.71,-154.65"/>
</g>
<!-- Node17 -->
<g id="node17" class="node">
<title>Node17</title>
<g id="a_node17"><a xlink:href="../../d2/d34/classcocos2d_1_1extension_1_1_c_c_control_saturation_brightness_picker.html" target="_top" xlink:title=" ">
<polygon fill="none" stroke="black" points="742,-115 742,-145 909,-145 909,-115 742,-115"/>
<text text-anchor="start" x="750" y="-133" font-family="Helvetica,sans-Serif" font-size="10.00">CCControlSaturationBrightness</text>
<text text-anchor="middle" x="825.5" y="-122" font-family="Helvetica,sans-Serif" font-size="10.00">Picker</text>
</a>
</g>
</g>
<!-- Node1&#45;&gt;Node17 -->
<g id="edge16" class="edge">
<title>Node1&#45;&gt;Node17</title>
<path fill="none" stroke="midnightblue" d="M716.42,-145.85C724.42,-144.68 733.05,-143.41 741.81,-142.13"/>
<polygon fill="midnightblue" stroke="midnightblue" points="715.7,-142.42 706.31,-147.33 716.71,-149.35 715.7,-142.42"/>
</g>
<!-- Node18 -->
<g id="node18" class="node">
<title>Node18</title>
<g id="a_node18"><a xlink:href="../../d1/d6f/classcocos2d_1_1extension_1_1_c_c_control_slider.html" target="_top" xlink:title=" ">
<polygon fill="none" stroke="black" points="779,-76.5 779,-95.5 872,-95.5 872,-76.5 779,-76.5"/>
<text text-anchor="middle" x="825.5" y="-83.5" font-family="Helvetica,sans-Serif" font-size="10.00">CCControlSlider</text>
</a>
</g>
</g>
<!-- Node1&#45;&gt;Node18 -->
<g id="edge17" class="edge">
<title>Node1&#45;&gt;Node18</title>
<path fill="none" stroke="midnightblue" d="M693.71,-135.63C706.6,-125.43 724.39,-112.81 742,-105 753.56,-99.88 766.66,-96.05 778.96,-93.23"/>
<polygon fill="midnightblue" stroke="midnightblue" points="691.17,-133.19 685.63,-142.22 695.59,-138.62 691.17,-133.19"/>
</g>
<!-- Node19 -->
<g id="node19" class="node">
<title>Node19</title>
<g id="a_node19"><a xlink:href="../../d7/d7a/classcocos2d_1_1extension_1_1_c_c_control_stepper.html" target="_top" xlink:title=" ">
<polygon fill="none" stroke="black" points="774,-38.5 774,-57.5 877,-57.5 877,-38.5 774,-38.5"/>
<text text-anchor="middle" x="825.5" y="-45.5" font-family="Helvetica,sans-Serif" font-size="10.00">CCControlStepper</text>
</a>
</g>
</g>
<!-- Node1&#45;&gt;Node19 -->
<g id="edge18" class="edge">
<title>Node1&#45;&gt;Node19</title>
<path fill="none" stroke="midnightblue" d="M684.21,-133.44C695.45,-113.83 715.83,-83.52 742,-67 751.57,-60.96 762.85,-56.83 773.94,-54.02"/>
<polygon fill="midnightblue" stroke="midnightblue" points="681.07,-131.89 679.31,-142.34 687.2,-135.27 681.07,-131.89"/>
</g>
<!-- Node20 -->
<g id="node20" class="node">
<title>Node20</title>
<g id="a_node20"><a xlink:href="../../d9/dd1/classcocos2d_1_1extension_1_1_c_c_control_switch.html" target="_top" xlink:title="for Cocos2D.">
<polygon fill="none" stroke="black" points="776.5,-0.5 776.5,-19.5 874.5,-19.5 874.5,-0.5 776.5,-0.5"/>
<text text-anchor="middle" x="825.5" y="-7.5" font-family="Helvetica,sans-Serif" font-size="10.00">CCControlSwitch</text>
</a>
</g>
</g>
<!-- Node1&#45;&gt;Node20 -->
<g id="edge19" class="edge">
<title>Node1&#45;&gt;Node20</title>
<path fill="none" stroke="midnightblue" d="M679.68,-132.55C688.04,-105.08 707.19,-55.34 742,-29 751.85,-21.55 764.11,-16.95 776.15,-14.12"/>
<polygon fill="midnightblue" stroke="midnightblue" points="676.3,-131.63 676.91,-142.2 683.03,-133.55 676.3,-131.63"/>
</g>
<!-- Node2 -->
<g id="node2" class="node">
<title>Node2</title>
<g id="a_node2"><a xlink:href="../../dd/d1e/classcocos2d_1_1_c_c_layer_r_g_b_a.html" target="_top" xlink:title="CCLayerRGBA is a subclass of CCLayer that implements the CCRGBAProtocol protocol using a solid color ...">
<polygon fill="none" stroke="black" points="520,-142.5 520,-161.5 605,-161.5 605,-142.5 520,-142.5"/>
<text text-anchor="middle" x="562.5" y="-149.5" font-family="Helvetica,sans-Serif" font-size="10.00">CCLayerRGBA</text>
</a>
</g>
</g>
<!-- Node2&#45;&gt;Node1 -->
<g id="edge1" class="edge">
<title>Node2&#45;&gt;Node1</title>
<path fill="none" stroke="midnightblue" d="M615.22,-152C624,-152 632.87,-152 640.93,-152"/>
<polygon fill="midnightblue" stroke="midnightblue" points="615.02,-148.5 605.02,-152 615.02,-155.5 615.02,-148.5"/>
</g>
<!-- Node3 -->
<g id="node3" class="node">
<title>Node3</title>
<g id="a_node3"><a xlink:href="../../d0/d45/class_c_c_layer.html" target="_top" xlink:title="CCLayer is a subclass of CCNode that implements the TouchEventsDelegate protocol.">
<polygon fill="none" stroke="black" points="406.5,-161.5 406.5,-180.5 463.5,-180.5 463.5,-161.5 406.5,-161.5"/>
<text text-anchor="middle" x="435" y="-168.5" font-family="Helvetica,sans-Serif" font-size="10.00">CCLayer</text>
</a>
</g>
</g>
<!-- Node3&#45;&gt;Node2 -->
<g id="edge2" class="edge">
<title>Node3&#45;&gt;Node2</title>
<path fill="none" stroke="midnightblue" d="M473.67,-165.3C488.18,-163.1 504.83,-160.58 519.7,-158.33"/>
<polygon fill="midnightblue" stroke="midnightblue" points="472.9,-161.87 463.54,-166.83 473.95,-168.79 472.9,-161.87"/>
</g>
<!-- Node4 -->
<g id="node4" class="node">
<title>Node4</title>
<g id="a_node4"><a xlink:href="../../d0/ded/classcocos2d_1_1_c_c_node.html" target="_top" xlink:title="CCNode is the main element.">
<polygon fill="none" stroke="black" points="249,-237.5 249,-256.5 305,-256.5 305,-237.5 249,-237.5"/>
<text text-anchor="middle" x="277" y="-244.5" font-family="Helvetica,sans-Serif" font-size="10.00">CCNode</text>
</a>
</g>
</g>
<!-- Node4&#45;&gt;Node3 -->
<g id="edge3" class="edge">
<title>Node4&#45;&gt;Node3</title>
<path fill="none" stroke="midnightblue" d="M314.87,-239.81C326.41,-236.9 338.99,-233.01 350,-228 378.07,-215.22 407.02,-193.28 422.52,-180.67"/>
<polygon fill="midnightblue" stroke="midnightblue" points="314,-236.42 305.07,-242.13 315.61,-243.23 314,-236.42"/>
</g>
<!-- Node5 -->
<g id="node5" class="node">
<title>Node5</title>
<g id="a_node5"><a xlink:href="../../d3/dbf/classcocos2d_1_1_c_c_object.html" target="_top" xlink:title="NA.">
<polygon fill="none" stroke="black" points="106,-237.5 106,-256.5 168,-256.5 168,-237.5 106,-237.5"/>
<text text-anchor="middle" x="137" y="-244.5" font-family="Helvetica,sans-Serif" font-size="10.00">CCObject</text>
</a>
</g>
</g>
<!-- Node5&#45;&gt;Node4 -->
<g id="edge4" class="edge">
<title>Node5&#45;&gt;Node4</title>
<path fill="none" stroke="midnightblue" d="M178.58,-247C201.13,-247 228.59,-247 248.6,-247"/>
<polygon fill="midnightblue" stroke="midnightblue" points="178.28,-243.5 168.28,-247 178.28,-250.5 178.28,-243.5"/>
</g>
<!-- Node6 -->
<g id="node6" class="node">
<title>Node6</title>
<g id="a_node6"><a xlink:href="../../d5/d61/classcocos2d_1_1_c_c_copying.html" target="_top" xlink:title="NA NA.">
<polygon fill="none" stroke="black" points="0,-237.5 0,-256.5 70,-256.5 70,-237.5 0,-237.5"/>
<text text-anchor="middle" x="35" y="-244.5" font-family="Helvetica,sans-Serif" font-size="10.00">CCCopying</text>
</a>
</g>
</g>
<!-- Node6&#45;&gt;Node5 -->
<g id="edge5" class="edge">
<title>Node6&#45;&gt;Node5</title>
<path fill="none" stroke="midnightblue" d="M80.39,-247C88.95,-247 97.72,-247 105.7,-247"/>
<polygon fill="midnightblue" stroke="midnightblue" points="80.13,-243.5 70.13,-247 80.13,-250.5 80.13,-243.5"/>
</g>
<!-- Node7 -->
<g id="node7" class="node">
<title>Node7</title>
<g id="a_node7"><a xlink:href="../../d0/d38/classcocos2d_1_1_c_c_touch_delegate.html" target="_top" xlink:title=" ">
<polygon fill="none" stroke="black" points="226,-199.5 226,-218.5 328,-218.5 328,-199.5 226,-199.5"/>
<text text-anchor="middle" x="277" y="-206.5" font-family="Helvetica,sans-Serif" font-size="10.00">CCTouchDelegate</text>
</a>
</g>
</g>
<!-- Node7&#45;&gt;Node3 -->
<g id="edge6" class="edge">
<title>Node7&#45;&gt;Node3</title>
<path fill="none" stroke="midnightblue" d="M327.12,-197.03C353.3,-190.66 384.53,-183.05 406.45,-177.71"/>
<polygon fill="midnightblue" stroke="midnightblue" points="326.25,-193.64 317.37,-199.41 327.91,-200.44 326.25,-193.64"/>
</g>
<!-- Node8 -->
<g id="node8" class="node">
<title>Node8</title>
<g id="a_node8"><a xlink:href="../../da/d55/classcocos2d_1_1_c_c_accelerometer_delegate.html" target="_top" xlink:title="The CCAccelerometerDelegate defines a single method for receiving acceleration&#45;related data from the ...">
<polygon fill="none" stroke="black" points="204,-161.5 204,-180.5 350,-180.5 350,-161.5 204,-161.5"/>
<text text-anchor="middle" x="277" y="-168.5" font-family="Helvetica,sans-Serif" font-size="10.00">CCAccelerometerDelegate</text>
</a>
</g>
</g>
<!-- Node8&#45;&gt;Node3 -->
<g id="edge7" class="edge">
<title>Node8&#45;&gt;Node3</title>
<path fill="none" stroke="midnightblue" d="M360.37,-171C376.92,-171 393.21,-171 406.24,-171"/>
<polygon fill="midnightblue" stroke="midnightblue" points="360.06,-167.5 350.06,-171 360.06,-174.5 360.06,-167.5"/>
</g>
<!-- Node9 -->
<g id="node9" class="node">
<title>Node9</title>
<g id="a_node9"><a xlink:href="../../d2/d2d/classcocos2d_1_1_c_c_keypad_delegate.html" target="_top" xlink:title=" ">
<polygon fill="none" stroke="black" points="222,-123.5 222,-142.5 332,-142.5 332,-123.5 222,-123.5"/>
<text text-anchor="middle" x="277" y="-130.5" font-family="Helvetica,sans-Serif" font-size="10.00">CCKeypadDelegate</text>
</a>
</g>
</g>
<!-- Node9&#45;&gt;Node3 -->
<g id="edge8" class="edge">
<title>Node9&#45;&gt;Node3</title>
<path fill="none" stroke="midnightblue" d="M327.12,-144.97C353.3,-151.34 384.53,-158.95 406.45,-164.29"/>
<polygon fill="midnightblue" stroke="midnightblue" points="327.91,-141.56 317.37,-142.59 326.25,-148.36 327.91,-141.56"/>
</g>
<!-- Node10 -->
<g id="node10" class="node">
<title>Node10</title>
<g id="a_node10"><a xlink:href="../../d2/d91/classcocos2d_1_1_c_c_keyboard_delegate.html" target="_top" xlink:title=" ">
<polygon fill="none" stroke="black" points="217,-85.5 217,-104.5 337,-104.5 337,-85.5 217,-85.5"/>
<text text-anchor="middle" x="277" y="-92.5" font-family="Helvetica,sans-Serif" font-size="10.00">CCKeyboardDelegate</text>
</a>
</g>
</g>
<!-- Node10&#45;&gt;Node3 -->
<g id="edge9" class="edge">
<title>Node10&#45;&gt;Node3</title>
<path fill="none" stroke="midnightblue" d="M338.3,-108.15C342.37,-109.87 346.31,-111.81 350,-114 370.01,-125.87 366.73,-138.97 386,-152 392.16,-156.17 399.37,-159.63 406.31,-162.41"/>
<polygon fill="midnightblue" stroke="midnightblue" points="339.23,-104.76 328.63,-104.53 336.77,-111.32 339.23,-104.76"/>
</g>
<!-- Node11 -->
<g id="node11" class="node">
<title>Node11</title>
<g id="a_node11"><a xlink:href="../../d8/dda/classcocos2d_1_1_c_c_r_g_b_a_protocol.html" target="_top" xlink:title="RGBA protocol that affects CCNode&#39;s color and opacity NA.">
<polygon fill="none" stroke="black" points="386,-123.5 386,-142.5 484,-142.5 484,-123.5 386,-123.5"/>
<text text-anchor="middle" x="435" y="-130.5" font-family="Helvetica,sans-Serif" font-size="10.00">CCRGBAProtocol</text>
</a>
</g>
</g>
<!-- Node11&#45;&gt;Node2 -->
<g id="edge10" class="edge">
<title>Node11&#45;&gt;Node2</title>
<path fill="none" stroke="midnightblue" d="M494.21,-141.81C502.85,-143.12 511.6,-144.45 519.81,-145.69"/>
<polygon fill="midnightblue" stroke="midnightblue" points="494.57,-138.33 484.16,-140.29 493.53,-145.25 494.57,-138.33"/>
</g>
<!-- Node13 -->
<g id="node13" class="node">
<title>Node13</title>
<g id="a_node13"><a xlink:href="../../d7/dc3/classcocos2d_1_1extension_1_1_c_c_edit_box.html" target="_top" xlink:title="Class for edit box.">
<polygon fill="none" stroke="black" points="945,-278.5 945,-297.5 1013,-297.5 1013,-278.5 945,-278.5"/>
<text text-anchor="middle" x="979" y="-285.5" font-family="Helvetica,sans-Serif" font-size="10.00">CCEditBox</text>
</a>
</g>
</g>
<!-- Node12&#45;&gt;Node13 -->
<g id="edge12" class="edge">
<title>Node12&#45;&gt;Node13</title>
<path fill="none" stroke="midnightblue" d="M884.98,-288C905.3,-288 927.39,-288 944.93,-288"/>
<polygon fill="midnightblue" stroke="midnightblue" points="884.85,-284.5 874.85,-288 884.85,-291.5 884.85,-284.5"/>
</g>
</g>
</svg>
