<?xml version="1.0" encoding="UTF-8" standalone="no"?>
<!DOCTYPE svg PUBLIC "-//W3C//DTD SVG 1.1//EN"
 "http://www.w3.org/Graphics/SVG/1.1/DTD/svg11.dtd">
<!-- Generated by graphviz version 2.43.0 (0)
 -->
<!-- Title: /home/runner/work/cocos&#45;headers/cocos&#45;headers/extensions/GUI/CCControlExtension/CCControlUtils.h Pages: 1 -->
<svg width="1249pt" height="684pt"
 viewBox="0.00 0.00 1248.82 684.00" xmlns="http://www.w3.org/2000/svg" xmlns:xlink="http://www.w3.org/1999/xlink">
<g id="graph0" class="graph" transform="scale(1 1) rotate(0) translate(4 680)">
<title>/home/runner/work/cocos&#45;headers/cocos&#45;headers/extensions/GUI/CCControlExtension/CCControlUtils.h</title>
<!-- Node1 -->
<g id="node1" class="node">
<title>Node1</title>
<g id="a_node1"><a xlink:title=" ">
<polygon fill="#bfbfbf" stroke="black" points="232.82,-623.5 232.82,-675.5 426.82,-675.5 426.82,-623.5 232.82,-623.5"/>
<text text-anchor="start" x="240.82" y="-663.5" font-family="Helvetica,sans-Serif" font-size="10.00">/home/runner/work/cocos</text>
<text text-anchor="start" x="240.82" y="-652.5" font-family="Helvetica,sans-Serif" font-size="10.00">&#45;headers/cocos&#45;headers</text>
<text text-anchor="start" x="240.82" y="-641.5" font-family="Helvetica,sans-Serif" font-size="10.00">/extensions/GUI/CCControlExtension</text>
<text text-anchor="middle" x="329.82" y="-630.5" font-family="Helvetica,sans-Serif" font-size="10.00">/CCControlUtils.h</text>
</a>
</g>
</g>
<!-- Node2 -->
<g id="node2" class="node">
<title>Node2</title>
<g id="a_node2"><a xlink:href="../../de/d8b/_c_c_control_8h.html" target="_top" xlink:title=" ">
<polygon fill="none" stroke="black" points="595.82,-534.5 595.82,-586.5 789.82,-586.5 789.82,-534.5 595.82,-534.5"/>
<text text-anchor="start" x="603.82" y="-574.5" font-family="Helvetica,sans-Serif" font-size="10.00">/home/runner/work/cocos</text>
<text text-anchor="start" x="603.82" y="-563.5" font-family="Helvetica,sans-Serif" font-size="10.00">&#45;headers/cocos&#45;headers</text>
<text text-anchor="start" x="603.82" y="-552.5" font-family="Helvetica,sans-Serif" font-size="10.00">/extensions/GUI/CCControlExtension</text>
<text text-anchor="middle" x="692.82" y="-541.5" font-family="Helvetica,sans-Serif" font-size="10.00">/CCControl.h</text>
</a>
</g>
</g>
<!-- Node1&#45;&gt;Node2 -->
<g id="edge1" class="edge">
<title>Node1&#45;&gt;Node2</title>
<path fill="none" stroke="midnightblue" d="M437.02,-622.81C487.26,-610.77 546.67,-596.53 595.59,-584.8"/>
<polygon fill="midnightblue" stroke="midnightblue" points="436.01,-619.45 427.1,-625.19 437.64,-626.26 436.01,-619.45"/>
</g>
<!-- Node14 -->
<g id="node14" class="node">
<title>Node14</title>
<g id="a_node14"><a xlink:href="../../d3/db7/_c_c_control_colour_picker_8h.html" target="_top" xlink:title=" ">
<polygon fill="none" stroke="black" points="77.82,-356.5 77.82,-408.5 271.82,-408.5 271.82,-356.5 77.82,-356.5"/>
<text text-anchor="start" x="85.82" y="-396.5" font-family="Helvetica,sans-Serif" font-size="10.00">/home/runner/work/cocos</text>
<text text-anchor="start" x="85.82" y="-385.5" font-family="Helvetica,sans-Serif" font-size="10.00">&#45;headers/cocos&#45;headers</text>
<text text-anchor="start" x="85.82" y="-374.5" font-family="Helvetica,sans-Serif" font-size="10.00">/extensions/GUI/CCControlExtension</text>
<text text-anchor="middle" x="174.82" y="-363.5" font-family="Helvetica,sans-Serif" font-size="10.00">/CCControlColourPicker.h</text>
</a>
</g>
</g>
<!-- Node1&#45;&gt;Node14 -->
<g id="edge31" class="edge">
<title>Node1&#45;&gt;Node14</title>
<path fill="none" stroke="midnightblue" d="M222.83,-629.09C149.1,-609.53 56.35,-571.29 9.82,-498 -2.8,-478.11 -3.61,-464.35 9.82,-445 25.78,-422.02 51.41,-407.62 77.76,-398.59"/>
<polygon fill="midnightblue" stroke="midnightblue" points="222.08,-632.51 232.64,-631.61 223.82,-625.73 222.08,-632.51"/>
</g>
<!-- Node3 -->
<g id="node3" class="node">
<title>Node3</title>
<g id="a_node3"><a xlink:href="../../d0/d7e/_c_c_control_button_8h.html" target="_top" xlink:title=" ">
<polygon fill="none" stroke="black" points="1046.82,-356.5 1046.82,-408.5 1240.82,-408.5 1240.82,-356.5 1046.82,-356.5"/>
<text text-anchor="start" x="1054.82" y="-396.5" font-family="Helvetica,sans-Serif" font-size="10.00">/home/runner/work/cocos</text>
<text text-anchor="start" x="1054.82" y="-385.5" font-family="Helvetica,sans-Serif" font-size="10.00">&#45;headers/cocos&#45;headers</text>
<text text-anchor="start" x="1054.82" y="-374.5" font-family="Helvetica,sans-Serif" font-size="10.00">/extensions/GUI/CCControlExtension</text>
<text text-anchor="middle" x="1143.82" y="-363.5" font-family="Helvetica,sans-Serif" font-size="10.00">/CCControlButton.h</text>
</a>
</g>
</g>
<!-- Node2&#45;&gt;Node3 -->
<g id="edge2" class="edge">
<title>Node2&#45;&gt;Node3</title>
<path fill="none" stroke="midnightblue" d="M800.1,-556.88C869.94,-551.25 961.06,-536.27 1032.82,-498 1072.89,-476.63 1107.17,-435.65 1126.64,-408.96"/>
<polygon fill="midnightblue" stroke="midnightblue" points="799.67,-553.41 789.96,-557.65 800.19,-560.39 799.67,-553.41"/>
</g>
<!-- Node4 -->
<g id="node4" class="node">
<title>Node4</title>
<g id="a_node4"><a xlink:href="../../d6/d86/_c_c_control_extensions_8h.html" target="_top" xlink:title=" ">
<polygon fill="none" stroke="black" points="758.82,-267.5 758.82,-319.5 952.82,-319.5 952.82,-267.5 758.82,-267.5"/>
<text text-anchor="start" x="766.82" y="-307.5" font-family="Helvetica,sans-Serif" font-size="10.00">/home/runner/work/cocos</text>
<text text-anchor="start" x="766.82" y="-296.5" font-family="Helvetica,sans-Serif" font-size="10.00">&#45;headers/cocos&#45;headers</text>
<text text-anchor="start" x="766.82" y="-285.5" font-family="Helvetica,sans-Serif" font-size="10.00">/extensions/GUI/CCControlExtension</text>
<text text-anchor="middle" x="855.82" y="-274.5" font-family="Helvetica,sans-Serif" font-size="10.00">/CCControlExtensions.h</text>
</a>
</g>
</g>
<!-- Node2&#45;&gt;Node4 -->
<g id="edge16" class="edge">
<title>Node2&#45;&gt;Node4</title>
<path fill="none" stroke="midnightblue" d="M800.31,-552.18C878.42,-544.37 974.68,-528.68 999.82,-498 1020.86,-472.33 984.2,-361.57 979.82,-356 967.65,-340.5 950.56,-328.62 932.94,-319.63"/>
<polygon fill="midnightblue" stroke="midnightblue" points="799.52,-548.74 789.91,-553.19 800.2,-555.71 799.52,-548.74"/>
</g>
<!-- Node2&#45;&gt;Node14 -->
<g id="edge14" class="edge">
<title>Node2&#45;&gt;Node14</title>
<path fill="none" stroke="midnightblue" d="M585.45,-557.39C405.95,-552.75 60.86,-538.6 23.82,-498 7.95,-480.6 10.68,-464.55 23.82,-445 36.62,-425.97 56.43,-412.83 77.54,-403.75"/>
<polygon fill="midnightblue" stroke="midnightblue" points="585.63,-560.9 595.71,-557.65 585.8,-553.9 585.63,-560.9"/>
</g>
<!-- Node15 -->
<g id="node15" class="node">
<title>Node15</title>
<g id="a_node15"><a xlink:href="../../dd/d5a/_c_c_control_hue_picker_8h.html" target="_top" xlink:title=" ">
<polygon fill="none" stroke="black" points="32.82,-445.5 32.82,-497.5 226.82,-497.5 226.82,-445.5 32.82,-445.5"/>
<text text-anchor="start" x="40.82" y="-485.5" font-family="Helvetica,sans-Serif" font-size="10.00">/home/runner/work/cocos</text>
<text text-anchor="start" x="40.82" y="-474.5" font-family="Helvetica,sans-Serif" font-size="10.00">&#45;headers/cocos&#45;headers</text>
<text text-anchor="start" x="40.82" y="-463.5" font-family="Helvetica,sans-Serif" font-size="10.00">/extensions/GUI/CCControlExtension</text>
<text text-anchor="middle" x="129.82" y="-452.5" font-family="Helvetica,sans-Serif" font-size="10.00">/CCControlHuePicker.h</text>
</a>
</g>
</g>
<!-- Node2&#45;&gt;Node15 -->
<g id="edge17" class="edge">
<title>Node2&#45;&gt;Node15</title>
<path fill="none" stroke="midnightblue" d="M585.66,-548.22C492.73,-537.69 354.83,-520.26 235.82,-498 232.94,-497.46 230.02,-496.89 227.07,-496.3"/>
<polygon fill="midnightblue" stroke="midnightblue" points="585.3,-551.7 595.63,-549.34 586.09,-544.74 585.3,-551.7"/>
</g>
<!-- Node16 -->
<g id="node16" class="node">
<title>Node16</title>
<g id="a_node16"><a xlink:href="../../d2/d29/_c_c_control_potentiometer_8h.html" target="_top" xlink:title=" ">
<polygon fill="none" stroke="black" points="334.82,-356.5 334.82,-408.5 528.82,-408.5 528.82,-356.5 334.82,-356.5"/>
<text text-anchor="start" x="342.82" y="-396.5" font-family="Helvetica,sans-Serif" font-size="10.00">/home/runner/work/cocos</text>
<text text-anchor="start" x="342.82" y="-385.5" font-family="Helvetica,sans-Serif" font-size="10.00">&#45;headers/cocos&#45;headers</text>
<text text-anchor="start" x="342.82" y="-374.5" font-family="Helvetica,sans-Serif" font-size="10.00">/extensions/GUI/CCControlExtension</text>
<text text-anchor="middle" x="431.82" y="-363.5" font-family="Helvetica,sans-Serif" font-size="10.00">/CCControlPotentiometer.h</text>
</a>
</g>
</g>
<!-- Node2&#45;&gt;Node16 -->
<g id="edge19" class="edge">
<title>Node2&#45;&gt;Node16</title>
<path fill="none" stroke="midnightblue" d="M696.4,-524.01C696.9,-498.88 693.15,-466.03 673.82,-445 671.19,-442.13 595.21,-423.09 529.08,-406.95"/>
<polygon fill="midnightblue" stroke="midnightblue" points="692.89,-524.1 695.95,-534.25 699.88,-524.41 692.89,-524.1"/>
</g>
<!-- Node17 -->
<g id="node17" class="node">
<title>Node17</title>
<g id="a_node17"><a xlink:href="../../de/d08/_c_c_control_saturation_brightness_picker_8h.html" target="_top" xlink:title=" ">
<polygon fill="none" stroke="black" points="244.82,-445.5 244.82,-497.5 452.82,-497.5 452.82,-445.5 244.82,-445.5"/>
<text text-anchor="start" x="252.82" y="-485.5" font-family="Helvetica,sans-Serif" font-size="10.00">/home/runner/work/cocos</text>
<text text-anchor="start" x="252.82" y="-474.5" font-family="Helvetica,sans-Serif" font-size="10.00">&#45;headers/cocos&#45;headers</text>
<text text-anchor="start" x="252.82" y="-463.5" font-family="Helvetica,sans-Serif" font-size="10.00">/extensions/GUI/CCControlExtension</text>
<text text-anchor="middle" x="348.82" y="-452.5" font-family="Helvetica,sans-Serif" font-size="10.00">/CCControlSaturationBrightnessPicker.h</text>
</a>
</g>
</g>
<!-- Node2&#45;&gt;Node17 -->
<g id="edge21" class="edge">
<title>Node2&#45;&gt;Node17</title>
<path fill="none" stroke="midnightblue" d="M585.76,-532.42C541.72,-521.29 491.04,-508.47 447.87,-497.55"/>
<polygon fill="midnightblue" stroke="midnightblue" points="585.07,-535.86 595.63,-534.92 586.79,-529.07 585.07,-535.86"/>
</g>
<!-- Node18 -->
<g id="node18" class="node">
<title>Node18</title>
<g id="a_node18"><a xlink:href="../../d6/d7e/_c_c_control_slider_8h.html" target="_top" xlink:title=" ">
<polygon fill="none" stroke="black" points="546.82,-356.5 546.82,-408.5 740.82,-408.5 740.82,-356.5 546.82,-356.5"/>
<text text-anchor="start" x="554.82" y="-396.5" font-family="Helvetica,sans-Serif" font-size="10.00">/home/runner/work/cocos</text>
<text text-anchor="start" x="554.82" y="-385.5" font-family="Helvetica,sans-Serif" font-size="10.00">&#45;headers/cocos&#45;headers</text>
<text text-anchor="start" x="554.82" y="-374.5" font-family="Helvetica,sans-Serif" font-size="10.00">/extensions/GUI/CCControlExtension</text>
<text text-anchor="middle" x="643.82" y="-363.5" font-family="Helvetica,sans-Serif" font-size="10.00">/CCControlSlider.h</text>
</a>
</g>
</g>
<!-- Node2&#45;&gt;Node18 -->
<g id="edge23" class="edge">
<title>Node2&#45;&gt;Node18</title>
<path fill="none" stroke="midnightblue" d="M706.03,-524.55C712.73,-501.19 717.46,-470.24 706.82,-445 700.95,-431.05 690.2,-418.7 679.22,-408.79"/>
<polygon fill="midnightblue" stroke="midnightblue" points="702.6,-523.78 702.96,-534.37 709.28,-525.87 702.6,-523.78"/>
</g>
<!-- Node19 -->
<g id="node19" class="node">
<title>Node19</title>
<g id="a_node19"><a xlink:href="../../de/dba/_c_c_control_stepper_8h.html" target="_top" xlink:title=" ">
<polygon fill="none" stroke="black" points="758.82,-356.5 758.82,-408.5 952.82,-408.5 952.82,-356.5 758.82,-356.5"/>
<text text-anchor="start" x="766.82" y="-396.5" font-family="Helvetica,sans-Serif" font-size="10.00">/home/runner/work/cocos</text>
<text text-anchor="start" x="766.82" y="-385.5" font-family="Helvetica,sans-Serif" font-size="10.00">&#45;headers/cocos&#45;headers</text>
<text text-anchor="start" x="766.82" y="-374.5" font-family="Helvetica,sans-Serif" font-size="10.00">/extensions/GUI/CCControlExtension</text>
<text text-anchor="middle" x="855.82" y="-363.5" font-family="Helvetica,sans-Serif" font-size="10.00">/CCControlStepper.h</text>
</a>
</g>
</g>
<!-- Node2&#45;&gt;Node19 -->
<g id="edge25" class="edge">
<title>Node2&#45;&gt;Node19</title>
<path fill="none" stroke="midnightblue" d="M718.43,-526.13C736.91,-502.7 762.89,-471.03 787.82,-445 799.83,-432.47 813.94,-419.46 826.18,-408.65"/>
<polygon fill="midnightblue" stroke="midnightblue" points="715.64,-524.02 712.22,-534.05 721.15,-528.34 715.64,-524.02"/>
</g>
<!-- Node20 -->
<g id="node20" class="node">
<title>Node20</title>
<g id="a_node20"><a xlink:href="../../de/dc7/_c_c_control_switch_8h.html" target="_top" xlink:title=" ">
<polygon fill="none" stroke="black" points="796.82,-445.5 796.82,-497.5 990.82,-497.5 990.82,-445.5 796.82,-445.5"/>
<text text-anchor="start" x="804.82" y="-485.5" font-family="Helvetica,sans-Serif" font-size="10.00">/home/runner/work/cocos</text>
<text text-anchor="start" x="804.82" y="-474.5" font-family="Helvetica,sans-Serif" font-size="10.00">&#45;headers/cocos&#45;headers</text>
<text text-anchor="start" x="804.82" y="-463.5" font-family="Helvetica,sans-Serif" font-size="10.00">/extensions/GUI/CCControlExtension</text>
<text text-anchor="middle" x="893.82" y="-452.5" font-family="Helvetica,sans-Serif" font-size="10.00">/CCControlSwitch.h</text>
</a>
</g>
</g>
<!-- Node2&#45;&gt;Node20 -->
<g id="edge27" class="edge">
<title>Node2&#45;&gt;Node20</title>
<path fill="none" stroke="midnightblue" d="M759.97,-530.44C784.61,-519.77 812.27,-507.8 836.02,-497.52"/>
<polygon fill="midnightblue" stroke="midnightblue" points="758.48,-527.27 750.69,-534.45 761.26,-533.69 758.48,-527.27"/>
</g>
<!-- Node21 -->
<g id="node21" class="node">
<title>Node21</title>
<g id="a_node21"><a xlink:href="../../d8/dec/_color_picker_delegate_8h.html" target="_top" xlink:title=" ">
<polygon fill="none" stroke="black" points="470.82,-445.5 470.82,-497.5 664.82,-497.5 664.82,-445.5 470.82,-445.5"/>
<text text-anchor="start" x="478.82" y="-485.5" font-family="Helvetica,sans-Serif" font-size="10.00">/home/runner/work/cocos</text>
<text text-anchor="start" x="478.82" y="-474.5" font-family="Helvetica,sans-Serif" font-size="10.00">&#45;headers/cocos&#45;headers</text>
<text text-anchor="start" x="478.82" y="-463.5" font-family="Helvetica,sans-Serif" font-size="10.00">/extensions/GUI/CCControlExtension</text>
<text text-anchor="middle" x="567.82" y="-452.5" font-family="Helvetica,sans-Serif" font-size="10.00">/ColorPickerDelegate.h</text>
</a>
</g>
</g>
<!-- Node2&#45;&gt;Node21 -->
<g id="edge29" class="edge">
<title>Node2&#45;&gt;Node21</title>
<path fill="none" stroke="midnightblue" d="M648.29,-528.5C633.73,-518.37 617.75,-507.25 603.9,-497.61"/>
<polygon fill="midnightblue" stroke="midnightblue" points="646.46,-531.5 656.67,-534.34 650.46,-525.75 646.46,-531.5"/>
</g>
<!-- Node3&#45;&gt;Node4 -->
<g id="edge3" class="edge">
<title>Node3&#45;&gt;Node4</title>
<path fill="none" stroke="midnightblue" d="M1051.33,-353.56C1015.11,-342.62 973.88,-330.16 938.65,-319.52"/>
<polygon fill="midnightblue" stroke="midnightblue" points="1050.32,-356.91 1060.91,-356.45 1052.35,-350.21 1050.32,-356.91"/>
</g>
<!-- Node5 -->
<g id="node5" class="node">
<title>Node5</title>
<g id="a_node5"><a xlink:href="../../dc/d4a/_c_c_edit_box_8h.html" target="_top" xlink:title=" ">
<polygon fill="none" stroke="black" points="730.82,-178.5 730.82,-230.5 878.82,-230.5 878.82,-178.5 730.82,-178.5"/>
<text text-anchor="start" x="738.82" y="-218.5" font-family="Helvetica,sans-Serif" font-size="10.00">/home/runner/work/cocos</text>
<text text-anchor="start" x="738.82" y="-207.5" font-family="Helvetica,sans-Serif" font-size="10.00">&#45;headers/cocos&#45;headers</text>
<text text-anchor="start" x="738.82" y="-196.5" font-family="Helvetica,sans-Serif" font-size="10.00">/extensions/GUI/CCEditBox</text>
<text text-anchor="middle" x="804.82" y="-185.5" font-family="Helvetica,sans-Serif" font-size="10.00">/CCEditBox.h</text>
</a>
</g>
</g>
<!-- Node4&#45;&gt;Node5 -->
<g id="edge4" class="edge">
<title>Node4&#45;&gt;Node5</title>
<path fill="none" stroke="midnightblue" d="M835.97,-258.64C830.5,-249.31 824.67,-239.35 819.54,-230.61"/>
<polygon fill="midnightblue" stroke="midnightblue" points="833,-260.48 841.07,-267.34 839.03,-256.94 833,-260.48"/>
</g>
<!-- Node13 -->
<g id="node13" class="node">
<title>Node13</title>
<g id="a_node13"><a xlink:href="../../d3/d58/cocos-ext_8h.html" target="_top" xlink:title=" ">
<polygon fill="none" stroke="black" points="836.82,-95 836.82,-136 976.82,-136 976.82,-95 836.82,-95"/>
<text text-anchor="start" x="844.82" y="-124" font-family="Helvetica,sans-Serif" font-size="10.00">/home/runner/work/cocos</text>
<text text-anchor="start" x="844.82" y="-113" font-family="Helvetica,sans-Serif" font-size="10.00">&#45;headers/cocos&#45;headers</text>
<text text-anchor="middle" x="906.82" y="-102" font-family="Helvetica,sans-Serif" font-size="10.00">/extensions/cocos&#45;ext.h</text>
</a>
</g>
</g>
<!-- Node4&#45;&gt;Node13 -->
<g id="edge13" class="edge">
<title>Node4&#45;&gt;Node13</title>
<path fill="none" stroke="midnightblue" d="M876.07,-258.23C880.5,-249.58 884.77,-240.14 887.82,-231 898.54,-198.89 903.37,-159.61 905.43,-136.4"/>
<polygon fill="midnightblue" stroke="midnightblue" points="872.87,-256.79 871.25,-267.26 879.05,-260.09 872.87,-256.79"/>
</g>
<!-- Node6 -->
<g id="node6" class="node">
<title>Node6</title>
<g id="a_node6"><a xlink:href="../../db/da9/_c_c_edit_box_impl_8h.html" target="_top" xlink:title=" ">
<polygon fill="none" stroke="black" points="670.82,-89.5 670.82,-141.5 818.82,-141.5 818.82,-89.5 670.82,-89.5"/>
<text text-anchor="start" x="678.82" y="-129.5" font-family="Helvetica,sans-Serif" font-size="10.00">/home/runner/work/cocos</text>
<text text-anchor="start" x="678.82" y="-118.5" font-family="Helvetica,sans-Serif" font-size="10.00">&#45;headers/cocos&#45;headers</text>
<text text-anchor="start" x="678.82" y="-107.5" font-family="Helvetica,sans-Serif" font-size="10.00">/extensions/GUI/CCEditBox</text>
<text text-anchor="middle" x="744.82" y="-96.5" font-family="Helvetica,sans-Serif" font-size="10.00">/CCEditBoxImpl.h</text>
</a>
</g>
</g>
<!-- Node5&#45;&gt;Node6 -->
<g id="edge5" class="edge">
<title>Node5&#45;&gt;Node6</title>
<path fill="none" stroke="midnightblue" d="M781.67,-169.93C775.18,-160.51 768.23,-150.44 762.14,-141.61"/>
<polygon fill="midnightblue" stroke="midnightblue" points="778.91,-172.09 787.47,-178.34 784.67,-168.12 778.91,-172.09"/>
</g>
<!-- Node5&#45;&gt;Node13 -->
<g id="edge12" class="edge">
<title>Node5&#45;&gt;Node13</title>
<path fill="none" stroke="midnightblue" d="M842.32,-171.51C856.25,-159.64 871.62,-146.53 883.87,-136.08"/>
<polygon fill="midnightblue" stroke="midnightblue" points="839.66,-169.18 834.33,-178.34 844.21,-174.51 839.66,-169.18"/>
</g>
<!-- Node7 -->
<g id="node7" class="node">
<title>Node7</title>
<g id="a_node7"><a xlink:href="../../d4/dd3/_c_c_edit_box_impl_android_8h.html" target="_top" xlink:title=" ">
<polygon fill="none" stroke="black" points="255.82,-0.5 255.82,-52.5 403.82,-52.5 403.82,-0.5 255.82,-0.5"/>
<text text-anchor="start" x="263.82" y="-40.5" font-family="Helvetica,sans-Serif" font-size="10.00">/home/runner/work/cocos</text>
<text text-anchor="start" x="263.82" y="-29.5" font-family="Helvetica,sans-Serif" font-size="10.00">&#45;headers/cocos&#45;headers</text>
<text text-anchor="start" x="263.82" y="-18.5" font-family="Helvetica,sans-Serif" font-size="10.00">/extensions/GUI/CCEditBox</text>
<text text-anchor="middle" x="329.82" y="-7.5" font-family="Helvetica,sans-Serif" font-size="10.00">/CCEditBoxImplAndroid.h</text>
</a>
</g>
</g>
<!-- Node6&#45;&gt;Node7 -->
<g id="edge6" class="edge">
<title>Node6&#45;&gt;Node7</title>
<path fill="none" stroke="midnightblue" d="M660.64,-101.65C593.19,-90.7 496.35,-73.5 412.82,-53 409.9,-52.28 406.92,-51.52 403.92,-50.73"/>
<polygon fill="midnightblue" stroke="midnightblue" points="660.36,-105.15 670.79,-103.29 661.47,-98.24 660.36,-105.15"/>
</g>
<!-- Node8 -->
<g id="node8" class="node">
<title>Node8</title>
<g id="a_node8"><a xlink:href="../../dd/dfd/_c_c_edit_box_impl_i_o_s_8h.html" target="_top" xlink:title=" ">
<polygon fill="none" stroke="black" points="421.82,-0.5 421.82,-52.5 569.82,-52.5 569.82,-0.5 421.82,-0.5"/>
<text text-anchor="start" x="429.82" y="-40.5" font-family="Helvetica,sans-Serif" font-size="10.00">/home/runner/work/cocos</text>
<text text-anchor="start" x="429.82" y="-29.5" font-family="Helvetica,sans-Serif" font-size="10.00">&#45;headers/cocos&#45;headers</text>
<text text-anchor="start" x="429.82" y="-18.5" font-family="Helvetica,sans-Serif" font-size="10.00">/extensions/GUI/CCEditBox</text>
<text text-anchor="middle" x="495.82" y="-7.5" font-family="Helvetica,sans-Serif" font-size="10.00">/CCEditBoxImplIOS.h</text>
</a>
</g>
</g>
<!-- Node6&#45;&gt;Node8 -->
<g id="edge7" class="edge">
<title>Node6&#45;&gt;Node8</title>
<path fill="none" stroke="midnightblue" d="M663.65,-86.14C632.63,-75.3 597.5,-63.03 567.44,-52.52"/>
<polygon fill="midnightblue" stroke="midnightblue" points="662.54,-89.46 673.14,-89.45 664.85,-82.85 662.54,-89.46"/>
</g>
<!-- Node9 -->
<g id="node9" class="node">
<title>Node9</title>
<g id="a_node9"><a xlink:href="../../d7/d4d/_c_c_edit_box_impl_mac_8h.html" target="_top" xlink:title=" ">
<polygon fill="none" stroke="black" points="587.82,-0.5 587.82,-52.5 735.82,-52.5 735.82,-0.5 587.82,-0.5"/>
<text text-anchor="start" x="595.82" y="-40.5" font-family="Helvetica,sans-Serif" font-size="10.00">/home/runner/work/cocos</text>
<text text-anchor="start" x="595.82" y="-29.5" font-family="Helvetica,sans-Serif" font-size="10.00">&#45;headers/cocos&#45;headers</text>
<text text-anchor="start" x="595.82" y="-18.5" font-family="Helvetica,sans-Serif" font-size="10.00">/extensions/GUI/CCEditBox</text>
<text text-anchor="middle" x="661.82" y="-7.5" font-family="Helvetica,sans-Serif" font-size="10.00">/CCEditBoxImplMac.h</text>
</a>
</g>
</g>
<!-- Node6&#45;&gt;Node9 -->
<g id="edge8" class="edge">
<title>Node6&#45;&gt;Node9</title>
<path fill="none" stroke="midnightblue" d="M713.89,-82.08C704.6,-72.34 694.55,-61.8 685.78,-52.61"/>
<polygon fill="midnightblue" stroke="midnightblue" points="711.38,-84.52 720.82,-89.34 716.45,-79.68 711.38,-84.52"/>
</g>
<!-- Node10 -->
<g id="node10" class="node">
<title>Node10</title>
<g id="a_node10"><a xlink:href="../../de/dac/_c_c_edit_box_impl_tizen_8h.html" target="_top" xlink:title=" ">
<polygon fill="none" stroke="black" points="753.82,-0.5 753.82,-52.5 901.82,-52.5 901.82,-0.5 753.82,-0.5"/>
<text text-anchor="start" x="761.82" y="-40.5" font-family="Helvetica,sans-Serif" font-size="10.00">/home/runner/work/cocos</text>
<text text-anchor="start" x="761.82" y="-29.5" font-family="Helvetica,sans-Serif" font-size="10.00">&#45;headers/cocos&#45;headers</text>
<text text-anchor="start" x="761.82" y="-18.5" font-family="Helvetica,sans-Serif" font-size="10.00">/extensions/GUI/CCEditBox</text>
<text text-anchor="middle" x="827.82" y="-7.5" font-family="Helvetica,sans-Serif" font-size="10.00">/CCEditBoxImplTizen.h</text>
</a>
</g>
</g>
<!-- Node6&#45;&gt;Node10 -->
<g id="edge9" class="edge">
<title>Node6&#45;&gt;Node10</title>
<path fill="none" stroke="midnightblue" d="M775.76,-82.08C785.05,-72.34 795.1,-61.8 803.87,-52.61"/>
<polygon fill="midnightblue" stroke="midnightblue" points="773.2,-79.68 768.83,-89.34 778.27,-84.52 773.2,-79.68"/>
</g>
<!-- Node11 -->
<g id="node11" class="node">
<title>Node11</title>
<g id="a_node11"><a xlink:href="../../dd/d41/_c_c_edit_box_impl_win_8h.html" target="_top" xlink:title=" ">
<polygon fill="none" stroke="black" points="919.82,-0.5 919.82,-52.5 1067.82,-52.5 1067.82,-0.5 919.82,-0.5"/>
<text text-anchor="start" x="927.82" y="-40.5" font-family="Helvetica,sans-Serif" font-size="10.00">/home/runner/work/cocos</text>
<text text-anchor="start" x="927.82" y="-29.5" font-family="Helvetica,sans-Serif" font-size="10.00">&#45;headers/cocos&#45;headers</text>
<text text-anchor="start" x="927.82" y="-18.5" font-family="Helvetica,sans-Serif" font-size="10.00">/extensions/GUI/CCEditBox</text>
<text text-anchor="middle" x="993.82" y="-7.5" font-family="Helvetica,sans-Serif" font-size="10.00">/CCEditBoxImplWin.h</text>
</a>
</g>
</g>
<!-- Node6&#45;&gt;Node11 -->
<g id="edge10" class="edge">
<title>Node6&#45;&gt;Node11</title>
<path fill="none" stroke="midnightblue" d="M826,-86.14C857.02,-75.3 892.14,-63.03 922.21,-52.52"/>
<polygon fill="midnightblue" stroke="midnightblue" points="824.8,-82.85 816.51,-89.45 827.11,-89.46 824.8,-82.85"/>
</g>
<!-- Node12 -->
<g id="node12" class="node">
<title>Node12</title>
<g id="a_node12"><a xlink:href="../../d4/d91/_c_c_edit_box_impl_wp8_8h.html" target="_top" xlink:title=" ">
<polygon fill="none" stroke="black" points="1085.82,-0.5 1085.82,-52.5 1233.82,-52.5 1233.82,-0.5 1085.82,-0.5"/>
<text text-anchor="start" x="1093.82" y="-40.5" font-family="Helvetica,sans-Serif" font-size="10.00">/home/runner/work/cocos</text>
<text text-anchor="start" x="1093.82" y="-29.5" font-family="Helvetica,sans-Serif" font-size="10.00">&#45;headers/cocos&#45;headers</text>
<text text-anchor="start" x="1093.82" y="-18.5" font-family="Helvetica,sans-Serif" font-size="10.00">/extensions/GUI/CCEditBox</text>
<text text-anchor="middle" x="1159.82" y="-7.5" font-family="Helvetica,sans-Serif" font-size="10.00">/CCEditBoxImplWp8.h</text>
</a>
</g>
</g>
<!-- Node6&#45;&gt;Node12 -->
<g id="edge11" class="edge">
<title>Node6&#45;&gt;Node12</title>
<path fill="none" stroke="midnightblue" d="M828.71,-88.96C938.73,-65.21 970.81,-76.8 1076.82,-53 1079.77,-52.34 1082.75,-51.63 1085.76,-50.87"/>
<polygon fill="midnightblue" stroke="midnightblue" points="827.89,-85.55 818.88,-91.13 829.4,-92.39 827.89,-85.55"/>
</g>
<!-- Node14&#45;&gt;Node4 -->
<g id="edge15" class="edge">
<title>Node14&#45;&gt;Node4</title>
<path fill="none" stroke="midnightblue" d="M282.26,-362.66C296.88,-360.3 311.71,-358.01 325.82,-356 476.45,-334.56 651.97,-315.31 758.43,-304.27"/>
<polygon fill="midnightblue" stroke="midnightblue" points="281.49,-359.23 272.18,-364.3 282.61,-366.14 281.49,-359.23"/>
</g>
<!-- Node15&#45;&gt;Node14 -->
<g id="edge18" class="edge">
<title>Node15&#45;&gt;Node14</title>
<path fill="none" stroke="midnightblue" d="M147.49,-436.35C152.27,-427.1 157.36,-417.26 161.84,-408.61"/>
<polygon fill="midnightblue" stroke="midnightblue" points="144.32,-434.85 142.84,-445.34 150.54,-438.06 144.32,-434.85"/>
</g>
<!-- Node16&#45;&gt;Node4 -->
<g id="edge20" class="edge">
<title>Node16&#45;&gt;Node4</title>
<path fill="none" stroke="midnightblue" d="M539.02,-355.78C618.44,-338.68 698.04,-323.39 758.52,-312.14"/>
<polygon fill="midnightblue" stroke="midnightblue" points="537.86,-352.44 528.83,-357.98 539.34,-359.29 537.86,-352.44"/>
</g>
<!-- Node17&#45;&gt;Node14 -->
<g id="edge22" class="edge">
<title>Node17&#45;&gt;Node14</title>
<path fill="none" stroke="midnightblue" d="M289.38,-440.78C268.44,-430.31 245.14,-418.66 225.04,-408.61"/>
<polygon fill="midnightblue" stroke="midnightblue" points="287.99,-443.99 298.5,-445.34 291.12,-437.73 287.99,-443.99"/>
</g>
<!-- Node18&#45;&gt;Node4 -->
<g id="edge24" class="edge">
<title>Node18&#45;&gt;Node4</title>
<path fill="none" stroke="midnightblue" d="M714.3,-352.58C740.38,-341.88 769.69,-329.85 794.85,-319.52"/>
<polygon fill="midnightblue" stroke="midnightblue" points="712.78,-349.42 704.86,-356.45 715.44,-355.89 712.78,-349.42"/>
</g>
<!-- Node19&#45;&gt;Node4 -->
<g id="edge26" class="edge">
<title>Node19&#45;&gt;Node4</title>
<path fill="none" stroke="midnightblue" d="M855.82,-346.19C855.82,-337.28 855.82,-327.9 855.82,-319.61"/>
<polygon fill="midnightblue" stroke="midnightblue" points="852.32,-346.34 855.82,-356.34 859.32,-346.34 852.32,-346.34"/>
</g>
<!-- Node20&#45;&gt;Node4 -->
<g id="edge28" class="edge">
<title>Node20&#45;&gt;Node4</title>
<path fill="none" stroke="midnightblue" d="M939.93,-438.63C948.81,-430.12 956.88,-420.14 961.82,-409 971.38,-387.47 973.58,-376.41 961.82,-356 952.9,-340.51 938.43,-328.57 923,-319.51"/>
<polygon fill="midnightblue" stroke="midnightblue" points="937.44,-436.15 932.33,-445.43 942.11,-441.37 937.44,-436.15"/>
</g>
<!-- Node21&#45;&gt;Node14 -->
<g id="edge30" class="edge">
<title>Node21&#45;&gt;Node14</title>
<path fill="none" stroke="midnightblue" d="M460.67,-444.76C392.08,-429.23 324.98,-414.85 271.93,-403.68"/>
<polygon fill="midnightblue" stroke="midnightblue" points="460.27,-448.26 470.8,-447.06 461.82,-441.43 460.27,-448.26"/>
</g>
</g>
</svg>
