<?xml version="1.0" encoding="UTF-8" standalone="no"?>
<!DOCTYPE svg PUBLIC "-//W3C//DTD SVG 1.1//EN"
 "http://www.w3.org/Graphics/SVG/1.1/DTD/svg11.dtd">
<!-- Generated by graphviz version 2.43.0 (0)
 -->
<!-- Title: /home/runner/work/cocos&#45;headers/cocos&#45;headers/extensions/GUI/CCControlExtension/CCControlUtils.h Pages: 1 -->
<svg width="1249pt" height="676pt"
 viewBox="0.00 0.00 1248.66 676.00" xmlns="http://www.w3.org/2000/svg" xmlns:xlink="http://www.w3.org/1999/xlink">
<g id="graph0" class="graph" transform="scale(1 1) rotate(0) translate(4 672)">
<title>/home/runner/work/cocos&#45;headers/cocos&#45;headers/extensions/GUI/CCControlExtension/CCControlUtils.h</title>
<!-- Node1 -->
<g id="node1" class="node">
<title>Node1</title>
<g id="a_node1"><a xlink:title=" ">
<polygon fill="#999999" stroke="#666666" points="426.66,-668 232.66,-668 232.66,-616 426.66,-616 426.66,-668"/>
<text text-anchor="start" x="240.66" y="-656" font-family="Helvetica,sans-Serif" font-size="10.00">/home/runner/work/cocos</text>
<text text-anchor="start" x="240.66" y="-645" font-family="Helvetica,sans-Serif" font-size="10.00">&#45;headers/cocos&#45;headers</text>
<text text-anchor="start" x="240.66" y="-634" font-family="Helvetica,sans-Serif" font-size="10.00">/extensions/GUI/CCControlExtension</text>
<text text-anchor="middle" x="329.66" y="-623" font-family="Helvetica,sans-Serif" font-size="10.00">/CCControlUtils.h</text>
</a>
</g>
</g>
<!-- Node2 -->
<g id="node2" class="node">
<title>Node2</title>
<g id="a_node2"><a xlink:href="../../de/d8b/_c_c_control_8h.html" target="_top" xlink:title=" ">
<polygon fill="white" stroke="#666666" points="789.66,-580 595.66,-580 595.66,-528 789.66,-528 789.66,-580"/>
<text text-anchor="start" x="603.66" y="-568" font-family="Helvetica,sans-Serif" font-size="10.00">/home/runner/work/cocos</text>
<text text-anchor="start" x="603.66" y="-557" font-family="Helvetica,sans-Serif" font-size="10.00">&#45;headers/cocos&#45;headers</text>
<text text-anchor="start" x="603.66" y="-546" font-family="Helvetica,sans-Serif" font-size="10.00">/extensions/GUI/CCControlExtension</text>
<text text-anchor="middle" x="692.66" y="-535" font-family="Helvetica,sans-Serif" font-size="10.00">/CCControl.h</text>
</a>
</g>
</g>
<!-- Node1&#45;&gt;Node2 -->
<g id="edge1" class="edge">
<title>Node1&#45;&gt;Node2</title>
<path fill="none" stroke="#63b8ff" d="M436.86,-615.6C487.09,-603.7 546.51,-589.63 595.43,-578.04"/>
<polygon fill="#63b8ff" stroke="#63b8ff" points="435.86,-612.24 426.94,-617.95 437.48,-619.05 435.86,-612.24"/>
</g>
<!-- Node14 -->
<g id="node14" class="node">
<title>Node14</title>
<g id="a_node14"><a xlink:href="../../d3/db7/_c_c_control_colour_picker_8h.html" target="_top" xlink:title=" ">
<polygon fill="white" stroke="#666666" points="271.66,-404 77.66,-404 77.66,-352 271.66,-352 271.66,-404"/>
<text text-anchor="start" x="85.66" y="-392" font-family="Helvetica,sans-Serif" font-size="10.00">/home/runner/work/cocos</text>
<text text-anchor="start" x="85.66" y="-381" font-family="Helvetica,sans-Serif" font-size="10.00">&#45;headers/cocos&#45;headers</text>
<text text-anchor="start" x="85.66" y="-370" font-family="Helvetica,sans-Serif" font-size="10.00">/extensions/GUI/CCControlExtension</text>
<text text-anchor="middle" x="174.66" y="-359" font-family="Helvetica,sans-Serif" font-size="10.00">/CCControlColourPicker.h</text>
</a>
</g>
</g>
<!-- Node1&#45;&gt;Node14 -->
<g id="edge31" class="edge">
<title>Node1&#45;&gt;Node14</title>
<path fill="none" stroke="#63b8ff" d="M222.7,-622.09C148.99,-602.88 56.24,-565.07 9.66,-492 -2.76,-472.51 -3.55,-458.96 9.66,-440 25.63,-417.07 51.26,-402.74 77.61,-393.79"/>
<polygon fill="#63b8ff" stroke="#63b8ff" points="221.95,-625.51 232.51,-624.56 223.67,-618.72 221.95,-625.51"/>
</g>
<!-- Node3 -->
<g id="node3" class="node">
<title>Node3</title>
<g id="a_node3"><a xlink:href="../../d0/d7e/_c_c_control_button_8h.html" target="_top" xlink:title=" ">
<polygon fill="white" stroke="#666666" points="1240.66,-404 1046.66,-404 1046.66,-352 1240.66,-352 1240.66,-404"/>
<text text-anchor="start" x="1054.66" y="-392" font-family="Helvetica,sans-Serif" font-size="10.00">/home/runner/work/cocos</text>
<text text-anchor="start" x="1054.66" y="-381" font-family="Helvetica,sans-Serif" font-size="10.00">&#45;headers/cocos&#45;headers</text>
<text text-anchor="start" x="1054.66" y="-370" font-family="Helvetica,sans-Serif" font-size="10.00">/extensions/GUI/CCControlExtension</text>
<text text-anchor="middle" x="1143.66" y="-359" font-family="Helvetica,sans-Serif" font-size="10.00">/CCControlButton.h</text>
</a>
</g>
</g>
<!-- Node2&#45;&gt;Node3 -->
<g id="edge2" class="edge">
<title>Node2&#45;&gt;Node3</title>
<path fill="none" stroke="#63b8ff" d="M799.85,-550.41C869.65,-544.83 960.76,-529.97 1032.66,-492 1072.54,-470.94 1106.88,-430.49 1126.41,-404.13"/>
<polygon fill="#63b8ff" stroke="#63b8ff" points="799.42,-546.93 789.71,-551.17 799.94,-553.92 799.42,-546.93"/>
</g>
<!-- Node4 -->
<g id="node4" class="node">
<title>Node4</title>
<g id="a_node4"><a xlink:href="../../d6/d86/_c_c_control_extensions_8h.html" target="_top" xlink:title=" ">
<polygon fill="white" stroke="#666666" points="952.66,-316 758.66,-316 758.66,-264 952.66,-264 952.66,-316"/>
<text text-anchor="start" x="766.66" y="-304" font-family="Helvetica,sans-Serif" font-size="10.00">/home/runner/work/cocos</text>
<text text-anchor="start" x="766.66" y="-293" font-family="Helvetica,sans-Serif" font-size="10.00">&#45;headers/cocos&#45;headers</text>
<text text-anchor="start" x="766.66" y="-282" font-family="Helvetica,sans-Serif" font-size="10.00">/extensions/GUI/CCControlExtension</text>
<text text-anchor="middle" x="855.66" y="-271" font-family="Helvetica,sans-Serif" font-size="10.00">/CCControlExtensions.h</text>
</a>
</g>
</g>
<!-- Node2&#45;&gt;Node4 -->
<g id="edge16" class="edge">
<title>Node2&#45;&gt;Node4</title>
<path fill="none" stroke="#63b8ff" d="M800.14,-545.87C878.25,-538.18 974.5,-522.65 999.66,-492 1021.19,-465.77 982.75,-357.14 978.66,-352 966.49,-336.71 949.49,-324.95 932.01,-316.04"/>
<polygon fill="#63b8ff" stroke="#63b8ff" points="799.36,-542.42 789.74,-546.85 800.02,-549.39 799.36,-542.42"/>
</g>
<!-- Node2&#45;&gt;Node14 -->
<g id="edge14" class="edge">
<title>Node2&#45;&gt;Node14</title>
<path fill="none" stroke="#63b8ff" d="M585.29,-550.98C405.8,-546.47 60.71,-532.58 23.66,-492 8.08,-474.93 10.74,-459.16 23.66,-440 36.47,-421.01 56.29,-407.94 77.4,-398.93"/>
<polygon fill="#63b8ff" stroke="#63b8ff" points="585.47,-554.48 595.55,-551.23 585.64,-547.48 585.47,-554.48"/>
</g>
<!-- Node15 -->
<g id="node15" class="node">
<title>Node15</title>
<g id="a_node15"><a xlink:href="../../dd/d5a/_c_c_control_hue_picker_8h.html" target="_top" xlink:title=" ">
<polygon fill="white" stroke="#666666" points="226.66,-492 32.66,-492 32.66,-440 226.66,-440 226.66,-492"/>
<text text-anchor="start" x="40.66" y="-480" font-family="Helvetica,sans-Serif" font-size="10.00">/home/runner/work/cocos</text>
<text text-anchor="start" x="40.66" y="-469" font-family="Helvetica,sans-Serif" font-size="10.00">&#45;headers/cocos&#45;headers</text>
<text text-anchor="start" x="40.66" y="-458" font-family="Helvetica,sans-Serif" font-size="10.00">/extensions/GUI/CCControlExtension</text>
<text text-anchor="middle" x="129.66" y="-447" font-family="Helvetica,sans-Serif" font-size="10.00">/CCControlHuePicker.h</text>
</a>
</g>
</g>
<!-- Node2&#45;&gt;Node15 -->
<g id="edge17" class="edge">
<title>Node2&#45;&gt;Node15</title>
<path fill="none" stroke="#63b8ff" d="M585.52,-541.73C492.6,-531.24 354.72,-513.93 235.66,-492 232.78,-491.47 229.86,-490.91 226.91,-490.33"/>
<polygon fill="#63b8ff" stroke="#63b8ff" points="585.16,-545.21 595.49,-542.85 585.94,-538.26 585.16,-545.21"/>
</g>
<!-- Node16 -->
<g id="node16" class="node">
<title>Node16</title>
<g id="a_node16"><a xlink:href="../../d2/d29/_c_c_control_potentiometer_8h.html" target="_top" xlink:title=" ">
<polygon fill="white" stroke="#666666" points="528.66,-404 334.66,-404 334.66,-352 528.66,-352 528.66,-404"/>
<text text-anchor="start" x="342.66" y="-392" font-family="Helvetica,sans-Serif" font-size="10.00">/home/runner/work/cocos</text>
<text text-anchor="start" x="342.66" y="-381" font-family="Helvetica,sans-Serif" font-size="10.00">&#45;headers/cocos&#45;headers</text>
<text text-anchor="start" x="342.66" y="-370" font-family="Helvetica,sans-Serif" font-size="10.00">/extensions/GUI/CCControlExtension</text>
<text text-anchor="middle" x="431.66" y="-359" font-family="Helvetica,sans-Serif" font-size="10.00">/CCControlPotentiometer.h</text>
</a>
</g>
</g>
<!-- Node2&#45;&gt;Node16 -->
<g id="edge19" class="edge">
<title>Node2&#45;&gt;Node16</title>
<path fill="none" stroke="#63b8ff" d="M696.12,-517.49C696.51,-492.74 692.67,-460.6 673.66,-440 671.02,-437.14 595.04,-418.26 528.92,-402.25"/>
<polygon fill="#63b8ff" stroke="#63b8ff" points="692.62,-517.46 695.73,-527.59 699.61,-517.73 692.62,-517.46"/>
</g>
<!-- Node17 -->
<g id="node17" class="node">
<title>Node17</title>
<g id="a_node17"><a xlink:href="../../de/d08/_c_c_control_saturation_brightness_picker_8h.html" target="_top" xlink:title=" ">
<polygon fill="white" stroke="#666666" points="452.66,-492 244.66,-492 244.66,-440 452.66,-440 452.66,-492"/>
<text text-anchor="start" x="252.66" y="-480" font-family="Helvetica,sans-Serif" font-size="10.00">/home/runner/work/cocos</text>
<text text-anchor="start" x="252.66" y="-469" font-family="Helvetica,sans-Serif" font-size="10.00">&#45;headers/cocos&#45;headers</text>
<text text-anchor="start" x="252.66" y="-458" font-family="Helvetica,sans-Serif" font-size="10.00">/extensions/GUI/CCControlExtension</text>
<text text-anchor="middle" x="348.66" y="-447" font-family="Helvetica,sans-Serif" font-size="10.00">/CCControlSaturationBrightnessPicker.h</text>
</a>
</g>
</g>
<!-- Node2&#45;&gt;Node17 -->
<g id="edge21" class="edge">
<title>Node2&#45;&gt;Node17</title>
<path fill="none" stroke="#63b8ff" d="M585.68,-526.25C542.03,-515.34 491.84,-502.79 448.91,-492.06"/>
<polygon fill="#63b8ff" stroke="#63b8ff" points="584.91,-529.67 595.46,-528.7 586.61,-522.88 584.91,-529.67"/>
</g>
<!-- Node18 -->
<g id="node18" class="node">
<title>Node18</title>
<g id="a_node18"><a xlink:href="../../d6/d7e/_c_c_control_slider_8h.html" target="_top" xlink:title=" ">
<polygon fill="white" stroke="#666666" points="740.66,-404 546.66,-404 546.66,-352 740.66,-352 740.66,-404"/>
<text text-anchor="start" x="554.66" y="-392" font-family="Helvetica,sans-Serif" font-size="10.00">/home/runner/work/cocos</text>
<text text-anchor="start" x="554.66" y="-381" font-family="Helvetica,sans-Serif" font-size="10.00">&#45;headers/cocos&#45;headers</text>
<text text-anchor="start" x="554.66" y="-370" font-family="Helvetica,sans-Serif" font-size="10.00">/extensions/GUI/CCControlExtension</text>
<text text-anchor="middle" x="643.66" y="-359" font-family="Helvetica,sans-Serif" font-size="10.00">/CCControlSlider.h</text>
</a>
</g>
</g>
<!-- Node2&#45;&gt;Node18 -->
<g id="edge23" class="edge">
<title>Node2&#45;&gt;Node18</title>
<path fill="none" stroke="#63b8ff" d="M705.93,-518.05C712.55,-495.05 717.14,-464.73 706.66,-440 700.78,-426.12 690.03,-413.86 679.05,-404.03"/>
<polygon fill="#63b8ff" stroke="#63b8ff" points="702.55,-517.15 702.91,-527.74 709.23,-519.24 702.55,-517.15"/>
</g>
<!-- Node19 -->
<g id="node19" class="node">
<title>Node19</title>
<g id="a_node19"><a xlink:href="../../de/dba/_c_c_control_stepper_8h.html" target="_top" xlink:title=" ">
<polygon fill="white" stroke="#666666" points="952.66,-404 758.66,-404 758.66,-352 952.66,-352 952.66,-404"/>
<text text-anchor="start" x="766.66" y="-392" font-family="Helvetica,sans-Serif" font-size="10.00">/home/runner/work/cocos</text>
<text text-anchor="start" x="766.66" y="-381" font-family="Helvetica,sans-Serif" font-size="10.00">&#45;headers/cocos&#45;headers</text>
<text text-anchor="start" x="766.66" y="-370" font-family="Helvetica,sans-Serif" font-size="10.00">/extensions/GUI/CCControlExtension</text>
<text text-anchor="middle" x="855.66" y="-359" font-family="Helvetica,sans-Serif" font-size="10.00">/CCControlStepper.h</text>
</a>
</g>
</g>
<!-- Node2&#45;&gt;Node19 -->
<g id="edge25" class="edge">
<title>Node2&#45;&gt;Node19</title>
<path fill="none" stroke="#63b8ff" d="M718.55,-519.77C737.02,-496.68 762.89,-465.58 787.66,-440 799.58,-427.7 813.54,-414.92 825.7,-404.25"/>
<polygon fill="#63b8ff" stroke="#63b8ff" points="715.58,-517.89 712.09,-527.89 721.05,-522.24 715.58,-517.89"/>
</g>
<!-- Node20 -->
<g id="node20" class="node">
<title>Node20</title>
<g id="a_node20"><a xlink:href="../../de/dc7/_c_c_control_switch_8h.html" target="_top" xlink:title=" ">
<polygon fill="white" stroke="#666666" points="990.66,-492 796.66,-492 796.66,-440 990.66,-440 990.66,-492"/>
<text text-anchor="start" x="804.66" y="-480" font-family="Helvetica,sans-Serif" font-size="10.00">/home/runner/work/cocos</text>
<text text-anchor="start" x="804.66" y="-469" font-family="Helvetica,sans-Serif" font-size="10.00">&#45;headers/cocos&#45;headers</text>
<text text-anchor="start" x="804.66" y="-458" font-family="Helvetica,sans-Serif" font-size="10.00">/extensions/GUI/CCControlExtension</text>
<text text-anchor="middle" x="893.66" y="-447" font-family="Helvetica,sans-Serif" font-size="10.00">/CCControlSwitch.h</text>
</a>
</g>
</g>
<!-- Node2&#45;&gt;Node20 -->
<g id="edge27" class="edge">
<title>Node2&#45;&gt;Node20</title>
<path fill="none" stroke="#63b8ff" d="M760.76,-523.86C784.83,-513.56 811.68,-502.08 834.91,-492.14"/>
<polygon fill="#63b8ff" stroke="#63b8ff" points="759.16,-520.74 751.34,-527.89 761.91,-527.18 759.16,-520.74"/>
</g>
<!-- Node21 -->
<g id="node21" class="node">
<title>Node21</title>
<g id="a_node21"><a xlink:href="../../d8/dec/_color_picker_delegate_8h.html" target="_top" xlink:title=" ">
<polygon fill="white" stroke="#666666" points="664.66,-492 470.66,-492 470.66,-440 664.66,-440 664.66,-492"/>
<text text-anchor="start" x="478.66" y="-480" font-family="Helvetica,sans-Serif" font-size="10.00">/home/runner/work/cocos</text>
<text text-anchor="start" x="478.66" y="-469" font-family="Helvetica,sans-Serif" font-size="10.00">&#45;headers/cocos&#45;headers</text>
<text text-anchor="start" x="478.66" y="-458" font-family="Helvetica,sans-Serif" font-size="10.00">/extensions/GUI/CCControlExtension</text>
<text text-anchor="middle" x="567.66" y="-447" font-family="Helvetica,sans-Serif" font-size="10.00">/ColorPickerDelegate.h</text>
</a>
</g>
</g>
<!-- Node2&#45;&gt;Node21 -->
<g id="edge29" class="edge">
<title>Node2&#45;&gt;Node21</title>
<path fill="none" stroke="#63b8ff" d="M647.55,-521.96C633.38,-512.22 617.93,-501.58 604.41,-492.29"/>
<polygon fill="#63b8ff" stroke="#63b8ff" points="645.95,-525.11 656.17,-527.89 649.91,-519.34 645.95,-525.11"/>
</g>
<!-- Node3&#45;&gt;Node4 -->
<g id="edge3" class="edge">
<title>Node3&#45;&gt;Node4</title>
<path fill="none" stroke="#63b8ff" d="M1049.73,-348.95C1014.32,-338.38 974.3,-326.43 939.84,-316.14"/>
<polygon fill="#63b8ff" stroke="#63b8ff" points="1049,-352.39 1059.59,-351.89 1051,-345.68 1049,-352.39"/>
</g>
<!-- Node5 -->
<g id="node5" class="node">
<title>Node5</title>
<g id="a_node5"><a xlink:href="../../dc/d4a/_c_c_edit_box_8h.html" target="_top" xlink:title=" ">
<polygon fill="white" stroke="#666666" points="878.66,-228 730.66,-228 730.66,-176 878.66,-176 878.66,-228"/>
<text text-anchor="start" x="738.66" y="-216" font-family="Helvetica,sans-Serif" font-size="10.00">/home/runner/work/cocos</text>
<text text-anchor="start" x="738.66" y="-205" font-family="Helvetica,sans-Serif" font-size="10.00">&#45;headers/cocos&#45;headers</text>
<text text-anchor="start" x="738.66" y="-194" font-family="Helvetica,sans-Serif" font-size="10.00">/extensions/GUI/CCEditBox</text>
<text text-anchor="middle" x="804.66" y="-183" font-family="Helvetica,sans-Serif" font-size="10.00">/CCEditBox.h</text>
</a>
</g>
</g>
<!-- Node4&#45;&gt;Node5 -->
<g id="edge4" class="edge">
<title>Node4&#45;&gt;Node5</title>
<path fill="none" stroke="#63b8ff" d="M835.48,-254.96C830.17,-246.02 824.55,-236.54 819.58,-228.16"/>
<polygon fill="#63b8ff" stroke="#63b8ff" points="832.52,-256.85 840.63,-263.66 838.54,-253.28 832.52,-256.85"/>
</g>
<!-- Node13 -->
<g id="node13" class="node">
<title>Node13</title>
<g id="a_node13"><a xlink:href="../../d3/d58/cocos-ext_8h.html" target="_top" xlink:title=" ">
<polygon fill="white" stroke="#666666" points="976.66,-134.5 836.66,-134.5 836.66,-93.5 976.66,-93.5 976.66,-134.5"/>
<text text-anchor="start" x="844.66" y="-122.5" font-family="Helvetica,sans-Serif" font-size="10.00">/home/runner/work/cocos</text>
<text text-anchor="start" x="844.66" y="-111.5" font-family="Helvetica,sans-Serif" font-size="10.00">&#45;headers/cocos&#45;headers</text>
<text text-anchor="middle" x="906.66" y="-100.5" font-family="Helvetica,sans-Serif" font-size="10.00">/extensions/cocos&#45;ext.h</text>
</a>
</g>
</g>
<!-- Node4&#45;&gt;Node13 -->
<g id="edge13" class="edge">
<title>Node4&#45;&gt;Node13</title>
<path fill="none" stroke="#63b8ff" d="M875.9,-255.02C880.33,-246.43 884.61,-237.07 887.66,-228 898.33,-196.33 903.18,-157.56 905.25,-134.65"/>
<polygon fill="#63b8ff" stroke="#63b8ff" points="872.74,-253.51 871.08,-263.98 878.9,-256.83 872.74,-253.51"/>
</g>
<!-- Node6 -->
<g id="node6" class="node">
<title>Node6</title>
<g id="a_node6"><a xlink:href="../../db/da9/_c_c_edit_box_impl_8h.html" target="_top" xlink:title=" ">
<polygon fill="white" stroke="#666666" points="818.66,-140 670.66,-140 670.66,-88 818.66,-88 818.66,-140"/>
<text text-anchor="start" x="678.66" y="-128" font-family="Helvetica,sans-Serif" font-size="10.00">/home/runner/work/cocos</text>
<text text-anchor="start" x="678.66" y="-117" font-family="Helvetica,sans-Serif" font-size="10.00">&#45;headers/cocos&#45;headers</text>
<text text-anchor="start" x="678.66" y="-106" font-family="Helvetica,sans-Serif" font-size="10.00">/extensions/GUI/CCEditBox</text>
<text text-anchor="middle" x="744.66" y="-95" font-family="Helvetica,sans-Serif" font-size="10.00">/CCEditBoxImpl.h</text>
</a>
</g>
</g>
<!-- Node5&#45;&gt;Node6 -->
<g id="edge5" class="edge">
<title>Node5&#45;&gt;Node6</title>
<path fill="none" stroke="#63b8ff" d="M781.11,-167.24C774.81,-158.22 768.12,-148.63 762.21,-140.16"/>
<polygon fill="#63b8ff" stroke="#63b8ff" points="778.39,-169.46 786.98,-175.66 784.13,-165.46 778.39,-169.46"/>
</g>
<!-- Node5&#45;&gt;Node13 -->
<g id="edge12" class="edge">
<title>Node5&#45;&gt;Node13</title>
<path fill="none" stroke="#63b8ff" d="M842.36,-169.21C856.16,-157.58 871.35,-144.77 883.5,-134.53"/>
<polygon fill="#63b8ff" stroke="#63b8ff" points="839.83,-166.77 834.44,-175.89 844.34,-172.12 839.83,-166.77"/>
</g>
<!-- Node7 -->
<g id="node7" class="node">
<title>Node7</title>
<g id="a_node7"><a xlink:href="../../d4/dd3/_c_c_edit_box_impl_android_8h.html" target="_top" xlink:title=" ">
<polygon fill="white" stroke="#666666" points="403.66,-52 255.66,-52 255.66,0 403.66,0 403.66,-52"/>
<text text-anchor="start" x="263.66" y="-40" font-family="Helvetica,sans-Serif" font-size="10.00">/home/runner/work/cocos</text>
<text text-anchor="start" x="263.66" y="-29" font-family="Helvetica,sans-Serif" font-size="10.00">&#45;headers/cocos&#45;headers</text>
<text text-anchor="start" x="263.66" y="-18" font-family="Helvetica,sans-Serif" font-size="10.00">/extensions/GUI/CCEditBox</text>
<text text-anchor="middle" x="329.66" y="-7" font-family="Helvetica,sans-Serif" font-size="10.00">/CCEditBoxImplAndroid.h</text>
</a>
</g>
</g>
<!-- Node6&#45;&gt;Node7 -->
<g id="edge6" class="edge">
<title>Node6&#45;&gt;Node7</title>
<path fill="none" stroke="#63b8ff" d="M660.5,-100.19C593.07,-89.28 496.24,-72.2 412.66,-52 409.74,-51.29 406.76,-50.54 403.76,-49.76"/>
<polygon fill="#63b8ff" stroke="#63b8ff" points="660.22,-103.68 670.65,-101.81 661.33,-96.77 660.22,-103.68"/>
</g>
<!-- Node8 -->
<g id="node8" class="node">
<title>Node8</title>
<g id="a_node8"><a xlink:href="../../dd/dfd/_c_c_edit_box_impl_i_o_s_8h.html" target="_top" xlink:title=" ">
<polygon fill="white" stroke="#666666" points="569.66,-52 421.66,-52 421.66,0 569.66,0 569.66,-52"/>
<text text-anchor="start" x="429.66" y="-40" font-family="Helvetica,sans-Serif" font-size="10.00">/home/runner/work/cocos</text>
<text text-anchor="start" x="429.66" y="-29" font-family="Helvetica,sans-Serif" font-size="10.00">&#45;headers/cocos&#45;headers</text>
<text text-anchor="start" x="429.66" y="-18" font-family="Helvetica,sans-Serif" font-size="10.00">/extensions/GUI/CCEditBox</text>
<text text-anchor="middle" x="495.66" y="-7" font-family="Helvetica,sans-Serif" font-size="10.00">/CCEditBoxImplIOS.h</text>
</a>
</g>
</g>
<!-- Node6&#45;&gt;Node8 -->
<g id="edge7" class="edge">
<title>Node6&#45;&gt;Node8</title>
<path fill="none" stroke="#63b8ff" d="M662.27,-84.54C631.95,-74.07 597.85,-62.3 568.44,-52.14"/>
<polygon fill="#63b8ff" stroke="#63b8ff" points="661.38,-87.94 671.97,-87.89 663.66,-81.32 661.38,-87.94"/>
</g>
<!-- Node9 -->
<g id="node9" class="node">
<title>Node9</title>
<g id="a_node9"><a xlink:href="../../d7/d4d/_c_c_edit_box_impl_mac_8h.html" target="_top" xlink:title=" ">
<polygon fill="white" stroke="#666666" points="735.66,-52 587.66,-52 587.66,0 735.66,0 735.66,-52"/>
<text text-anchor="start" x="595.66" y="-40" font-family="Helvetica,sans-Serif" font-size="10.00">/home/runner/work/cocos</text>
<text text-anchor="start" x="595.66" y="-29" font-family="Helvetica,sans-Serif" font-size="10.00">&#45;headers/cocos&#45;headers</text>
<text text-anchor="start" x="595.66" y="-18" font-family="Helvetica,sans-Serif" font-size="10.00">/extensions/GUI/CCEditBox</text>
<text text-anchor="middle" x="661.66" y="-7" font-family="Helvetica,sans-Serif" font-size="10.00">/CCEditBoxImplMac.h</text>
</a>
</g>
</g>
<!-- Node6&#45;&gt;Node9 -->
<g id="edge8" class="edge">
<title>Node6&#45;&gt;Node9</title>
<path fill="none" stroke="#63b8ff" d="M713.15,-80.35C704.14,-71.01 694.45,-60.98 685.94,-52.16"/>
<polygon fill="#63b8ff" stroke="#63b8ff" points="710.74,-82.9 720.21,-87.66 715.78,-78.04 710.74,-82.9"/>
</g>
<!-- Node10 -->
<g id="node10" class="node">
<title>Node10</title>
<g id="a_node10"><a xlink:href="../../de/dac/_c_c_edit_box_impl_tizen_8h.html" target="_top" xlink:title=" ">
<polygon fill="white" stroke="#666666" points="901.66,-52 753.66,-52 753.66,0 901.66,0 901.66,-52"/>
<text text-anchor="start" x="761.66" y="-40" font-family="Helvetica,sans-Serif" font-size="10.00">/home/runner/work/cocos</text>
<text text-anchor="start" x="761.66" y="-29" font-family="Helvetica,sans-Serif" font-size="10.00">&#45;headers/cocos&#45;headers</text>
<text text-anchor="start" x="761.66" y="-18" font-family="Helvetica,sans-Serif" font-size="10.00">/extensions/GUI/CCEditBox</text>
<text text-anchor="middle" x="827.66" y="-7" font-family="Helvetica,sans-Serif" font-size="10.00">/CCEditBoxImplTizen.h</text>
</a>
</g>
</g>
<!-- Node6&#45;&gt;Node10 -->
<g id="edge9" class="edge">
<title>Node6&#45;&gt;Node10</title>
<path fill="none" stroke="#63b8ff" d="M776.17,-80.35C785.18,-71.01 794.87,-60.98 803.38,-52.16"/>
<polygon fill="#63b8ff" stroke="#63b8ff" points="773.54,-78.04 769.11,-87.66 778.58,-82.9 773.54,-78.04"/>
</g>
<!-- Node11 -->
<g id="node11" class="node">
<title>Node11</title>
<g id="a_node11"><a xlink:href="../../dd/d41/_c_c_edit_box_impl_win_8h.html" target="_top" xlink:title=" ">
<polygon fill="white" stroke="#666666" points="1067.66,-52 919.66,-52 919.66,0 1067.66,0 1067.66,-52"/>
<text text-anchor="start" x="927.66" y="-40" font-family="Helvetica,sans-Serif" font-size="10.00">/home/runner/work/cocos</text>
<text text-anchor="start" x="927.66" y="-29" font-family="Helvetica,sans-Serif" font-size="10.00">&#45;headers/cocos&#45;headers</text>
<text text-anchor="start" x="927.66" y="-18" font-family="Helvetica,sans-Serif" font-size="10.00">/extensions/GUI/CCEditBox</text>
<text text-anchor="middle" x="993.66" y="-7" font-family="Helvetica,sans-Serif" font-size="10.00">/CCEditBoxImplWin.h</text>
</a>
</g>
</g>
<!-- Node6&#45;&gt;Node11 -->
<g id="edge10" class="edge">
<title>Node6&#45;&gt;Node11</title>
<path fill="none" stroke="#63b8ff" d="M827.05,-84.54C857.37,-74.07 891.47,-62.3 920.88,-52.14"/>
<polygon fill="#63b8ff" stroke="#63b8ff" points="825.66,-81.32 817.35,-87.89 827.95,-87.94 825.66,-81.32"/>
</g>
<!-- Node12 -->
<g id="node12" class="node">
<title>Node12</title>
<g id="a_node12"><a xlink:href="../../d4/d91/_c_c_edit_box_impl_wp8_8h.html" target="_top" xlink:title=" ">
<polygon fill="white" stroke="#666666" points="1233.66,-52 1085.66,-52 1085.66,0 1233.66,0 1233.66,-52"/>
<text text-anchor="start" x="1093.66" y="-40" font-family="Helvetica,sans-Serif" font-size="10.00">/home/runner/work/cocos</text>
<text text-anchor="start" x="1093.66" y="-29" font-family="Helvetica,sans-Serif" font-size="10.00">&#45;headers/cocos&#45;headers</text>
<text text-anchor="start" x="1093.66" y="-18" font-family="Helvetica,sans-Serif" font-size="10.00">/extensions/GUI/CCEditBox</text>
<text text-anchor="middle" x="1159.66" y="-7" font-family="Helvetica,sans-Serif" font-size="10.00">/CCEditBoxImplWp8.h</text>
</a>
</g>
</g>
<!-- Node6&#45;&gt;Node12 -->
<g id="edge11" class="edge">
<title>Node6&#45;&gt;Node12</title>
<path fill="none" stroke="#63b8ff" d="M828.56,-87.95C938.63,-64.48 970.58,-75.51 1076.66,-52 1079.6,-51.35 1082.59,-50.65 1085.59,-49.91"/>
<polygon fill="#63b8ff" stroke="#63b8ff" points="827.75,-84.54 818.73,-90.09 829.24,-91.38 827.75,-84.54"/>
</g>
<!-- Node14&#45;&gt;Node4 -->
<g id="edge15" class="edge">
<title>Node14&#45;&gt;Node4</title>
<path fill="none" stroke="#63b8ff" d="M282.1,-358.54C296.72,-356.23 311.55,-353.98 325.66,-352 476.32,-330.87 651.83,-311.74 758.28,-300.75"/>
<polygon fill="#63b8ff" stroke="#63b8ff" points="281.35,-355.12 272.03,-360.15 282.45,-362.03 281.35,-355.12"/>
</g>
<!-- Node15&#45;&gt;Node14 -->
<g id="edge18" class="edge">
<title>Node15&#45;&gt;Node14</title>
<path fill="none" stroke="#63b8ff" d="M147.62,-430.68C152.25,-421.82 157.16,-412.45 161.5,-404.16"/>
<polygon fill="#63b8ff" stroke="#63b8ff" points="144.45,-429.18 142.92,-439.66 150.66,-432.42 144.45,-429.18"/>
</g>
<!-- Node16&#45;&gt;Node4 -->
<g id="edge20" class="edge">
<title>Node16&#45;&gt;Node4</title>
<path fill="none" stroke="#63b8ff" d="M538.86,-351.78C618.31,-334.92 697.9,-319.74 758.37,-308.56"/>
<polygon fill="#63b8ff" stroke="#63b8ff" points="537.72,-348.44 528.67,-353.95 539.18,-355.29 537.72,-348.44"/>
</g>
<!-- Node17&#45;&gt;Node14 -->
<g id="edge22" class="edge">
<title>Node17&#45;&gt;Node14</title>
<path fill="none" stroke="#63b8ff" d="M288.88,-435.45C268.25,-425.26 245.36,-413.94 225.52,-404.14"/>
<polygon fill="#63b8ff" stroke="#63b8ff" points="287.35,-438.6 297.87,-439.89 290.45,-432.33 287.35,-438.6"/>
</g>
<!-- Node18&#45;&gt;Node4 -->
<g id="edge24" class="edge">
<title>Node18&#45;&gt;Node4</title>
<path fill="none" stroke="#63b8ff" d="M715.15,-348C740.63,-337.66 769.09,-326.12 793.69,-316.14"/>
<polygon fill="#63b8ff" stroke="#63b8ff" points="713.5,-344.89 705.55,-351.89 716.13,-351.38 713.5,-344.89"/>
</g>
<!-- Node19&#45;&gt;Node4 -->
<g id="edge26" class="edge">
<title>Node19&#45;&gt;Node4</title>
<path fill="none" stroke="#63b8ff" d="M855.66,-341.56C855.66,-333.04 855.66,-324.1 855.66,-316.16"/>
<polygon fill="#63b8ff" stroke="#63b8ff" points="852.16,-341.66 855.66,-351.66 859.16,-341.66 852.16,-341.66"/>
</g>
<!-- Node20&#45;&gt;Node4 -->
<g id="edge28" class="edge">
<title>Node20&#45;&gt;Node4</title>
<path fill="none" stroke="#63b8ff" d="M940.03,-433.19C948.81,-424.8 956.76,-414.97 961.66,-404 971.08,-382.9 973.23,-372.01 961.66,-352 952.84,-336.74 938.59,-324.97 923.37,-316.02"/>
<polygon fill="#63b8ff" stroke="#63b8ff" points="937.65,-430.62 932.51,-439.89 942.31,-435.85 937.65,-430.62"/>
</g>
<!-- Node21&#45;&gt;Node14 -->
<g id="edge30" class="edge">
<title>Node21&#45;&gt;Node14</title>
<path fill="none" stroke="#63b8ff" d="M460.5,-439.76C391.9,-424.44 324.8,-410.18 271.75,-399.08"/>
<polygon fill="#63b8ff" stroke="#63b8ff" points="460.11,-443.26 470.63,-442.03 461.64,-436.43 460.11,-443.26"/>
</g>
</g>
</svg>
