<?xml version="1.0" encoding="UTF-8" standalone="no"?>
<!DOCTYPE svg PUBLIC "-//W3C//DTD SVG 1.1//EN"
 "http://www.w3.org/Graphics/SVG/1.1/DTD/svg11.dtd">
<!-- Generated by graphviz version 2.43.0 (0)
 -->
<!-- Title: CCTableViewCell Pages: 1 -->
<svg width="1233pt" height="621pt"
 viewBox="0.00 0.00 1233.00 620.79" xmlns="http://www.w3.org/2000/svg" xmlns:xlink="http://www.w3.org/1999/xlink">
<g id="graph0" class="graph" transform="scale(1 1) rotate(0) translate(4 616.79)">
<title>CCTableViewCell</title>
<!-- Node1 -->
<g id="node1" class="node">
<title>Node1</title>
<g id="a_node1"><a xlink:title="Abstract class for SWTableView cell node NA.">
<polygon fill="#999999" stroke="#666666" points="1225,-346.79 1127,-346.79 1127,-327.79 1225,-327.79 1225,-346.79"/>
<text text-anchor="middle" x="1176" y="-334.79" font-family="Helvetica,sans-Serif" font-size="10.00">CCTableViewCell</text>
</a>
</g>
</g>
<!-- Node2 -->
<g id="node2" class="node">
<title>Node2</title>
<g id="a_node2"><a xlink:href="../../d0/ded/classcocos2d_1_1_c_c_node.html" target="_top" xlink:title="CCNode is the main element.">
<polygon fill="white" stroke="#666666" points="1067,-371.79 1011,-371.79 1011,-352.79 1067,-352.79 1067,-371.79"/>
<text text-anchor="middle" x="1039" y="-359.79" font-family="Helvetica,sans-Serif" font-size="10.00">CCNode</text>
</a>
</g>
</g>
<!-- Node2&#45;&gt;Node1 -->
<g id="edge1" class="edge">
<title>Node2&#45;&gt;Node1</title>
<path fill="none" stroke="#63b8ff" d="M1077.46,-355.35C1092.78,-352.51 1110.69,-349.2 1126.96,-346.18"/>
<polygon fill="#63b8ff" stroke="#63b8ff" points="1076.51,-351.96 1067.32,-357.23 1077.79,-358.85 1076.51,-351.96"/>
</g>
<!-- Node2&#45;&gt;Node2 -->
<g id="edge23" class="edge">
<title>Node2&#45;&gt;Node2</title>
<path fill="none" stroke="#9a32cd" stroke-dasharray="5,2" d="M1026.48,-381.7C1027.46,-386.35 1031.64,-389.79 1039,-389.79 1051.09,-389.79 1054.58,-380.52 1049.48,-371.87"/>
<polygon fill="#9a32cd" stroke="#9a32cd" points="1029.91,-382.37 1028.52,-371.87 1023.06,-380.95 1029.91,-382.37"/>
<text text-anchor="middle" x="1039" y="-392.79" font-family="Helvetica,sans-Serif" font-size="10.00"> m_pParent</text>
</g>
<!-- Node3 -->
<g id="node3" class="node">
<title>Node3</title>
<g id="a_node3"><a xlink:href="../../d3/dbf/classcocos2d_1_1_c_c_object.html" target="_top" xlink:title="NA.">
<polygon fill="white" stroke="#666666" points="169,-261.79 107,-261.79 107,-242.79 169,-242.79 169,-261.79"/>
<text text-anchor="middle" x="138" y="-249.79" font-family="Helvetica,sans-Serif" font-size="10.00">CCObject</text>
</a>
</g>
</g>
<!-- Node3&#45;&gt;Node2 -->
<g id="edge2" class="edge">
<title>Node3&#45;&gt;Node2</title>
<path fill="none" stroke="#63b8ff" d="M139.43,-272.04C141.18,-334.92 149.57,-529.19 187,-577.29 204.74,-600.09 218.11,-602.29 247,-602.29 247,-602.29 247,-602.29 758,-602.29 852.88,-602.29 896.88,-637.75 970,-577.29 1035.47,-523.15 1038.81,-406.31 1038.3,-371.97"/>
<polygon fill="#63b8ff" stroke="#63b8ff" points="142.93,-271.8 139.18,-261.89 135.93,-271.97 142.93,-271.8"/>
</g>
<!-- Node3&#45;&gt;Node2 -->
<g id="edge24" class="edge">
<title>Node3&#45;&gt;Node2</title>
<path fill="none" stroke="#9a32cd" stroke-dasharray="5,2" d="M141.5,-272.24C150.67,-340.9 185.14,-563.29 247,-563.29 247,-563.29 247,-563.29 758,-563.29 853.97,-563.29 895.38,-582.63 970,-522.29 1019.29,-482.43 1033.47,-400.3 1036.98,-372.07"/>
<polygon fill="#9a32cd" stroke="#9a32cd" points="144.93,-271.4 140.17,-261.94 137.98,-272.3 144.93,-271.4"/>
<text text-anchor="middle" x="500" y="-566.29" font-family="Helvetica,sans-Serif" font-size="10.00"> m_pUserObject</text>
</g>
<!-- Node8 -->
<g id="node8" class="node">
<title>Node8</title>
<g id="a_node8"><a xlink:href="../../d2/d51/classcocos2d_1_1_c_c_camera.html" target="_top" xlink:title="A CCCamera is used in every CCNode.">
<polygon fill="white" stroke="#666666" points="404,-520.79 336,-520.79 336,-501.79 404,-501.79 404,-520.79"/>
<text text-anchor="middle" x="370" y="-508.79" font-family="Helvetica,sans-Serif" font-size="10.00">CCCamera</text>
</a>
</g>
</g>
<!-- Node3&#45;&gt;Node8 -->
<g id="edge8" class="edge">
<title>Node3&#45;&gt;Node8</title>
<path fill="none" stroke="#63b8ff" d="M141.88,-272.22C147.96,-308.09 165.06,-384.36 206,-433.29 239.62,-473.46 298.74,-494.42 335.79,-504.13"/>
<polygon fill="#63b8ff" stroke="#63b8ff" points="145.29,-271.4 140.28,-262.07 138.38,-272.5 145.29,-271.4"/>
</g>
<!-- Node9 -->
<g id="node9" class="node">
<title>Node9</title>
<g id="a_node9"><a xlink:href="../../d6/d70/classcocos2d_1_1_c_c_grid_base.html" target="_top" xlink:title="Base class for other.">
<polygon fill="white" stroke="#666666" points="794,-343.79 720,-343.79 720,-324.79 794,-324.79 794,-343.79"/>
<text text-anchor="middle" x="757" y="-331.79" font-family="Helvetica,sans-Serif" font-size="10.00">CCGridBase</text>
</a>
</g>
</g>
<!-- Node3&#45;&gt;Node9 -->
<g id="edge10" class="edge">
<title>Node3&#45;&gt;Node9</title>
<path fill="none" stroke="#63b8ff" d="M179.34,-249.2C269.69,-243.53 494.31,-236.38 672,-288.29 698.97,-296.17 726.94,-313.69 742.83,-324.69"/>
<polygon fill="#63b8ff" stroke="#63b8ff" points="179,-245.71 169.25,-249.86 179.46,-252.7 179,-245.71"/>
</g>
<!-- Node10 -->
<g id="node10" class="node">
<title>Node10</title>
<g id="a_node10"><a xlink:href="../../d7/dfd/classcocos2d_1_1_c_c_texture2_d.html" target="_top" xlink:title="CCTexture2D class.">
<polygon fill="white" stroke="#666666" points="540,-365.79 460,-365.79 460,-346.79 540,-346.79 540,-365.79"/>
<text text-anchor="middle" x="500" y="-353.79" font-family="Helvetica,sans-Serif" font-size="10.00">CCTexture2D</text>
</a>
</g>
</g>
<!-- Node3&#45;&gt;Node10 -->
<g id="edge13" class="edge">
<title>Node3&#45;&gt;Node10</title>
<path fill="none" stroke="#63b8ff" d="M158.36,-268.53C171.28,-278.83 188.97,-291.92 206,-301.29 248.67,-324.74 260.54,-330.37 308,-341.29 359.54,-353.14 420.74,-356.06 459.71,-356.56"/>
<polygon fill="#63b8ff" stroke="#63b8ff" points="160.21,-265.52 150.25,-261.92 155.8,-270.95 160.21,-265.52"/>
</g>
<!-- Node11 -->
<g id="node11" class="node">
<title>Node11</title>
<g id="a_node11"><a xlink:href="../../db/d28/classcocos2d_1_1_c_c_g_l_program.html" target="_top" xlink:title="CCGLProgram Class that implements a glProgram.">
<polygon fill="white" stroke="#666666" points="290,-292.79 206,-292.79 206,-273.79 290,-273.79 290,-292.79"/>
<text text-anchor="middle" x="248" y="-280.79" font-family="Helvetica,sans-Serif" font-size="10.00">CCGLProgram</text>
</a>
</g>
</g>
<!-- Node3&#45;&gt;Node11 -->
<g id="edge16" class="edge">
<title>Node3&#45;&gt;Node11</title>
<path fill="none" stroke="#63b8ff" d="M178.85,-263.72C190.3,-267.01 202.65,-270.56 213.66,-273.72"/>
<polygon fill="#63b8ff" stroke="#63b8ff" points="179.66,-260.32 169.08,-260.92 177.73,-267.04 179.66,-260.32"/>
</g>
<!-- Node12 -->
<g id="node12" class="node">
<title>Node12</title>
<g id="a_node12"><a xlink:href="../../d3/d89/classcocos2d_1_1_c_c_grabber.html" target="_top" xlink:title="FBO class that grabs the the contents of the screen NA NA.">
<polygon fill="white" stroke="#666666" points="404.5,-203.79 335.5,-203.79 335.5,-184.79 404.5,-184.79 404.5,-203.79"/>
<text text-anchor="middle" x="370" y="-191.79" font-family="Helvetica,sans-Serif" font-size="10.00">CCGrabber</text>
</a>
</g>
</g>
<!-- Node3&#45;&gt;Node12 -->
<g id="edge19" class="edge">
<title>Node3&#45;&gt;Node12</title>
<path fill="none" stroke="#63b8ff" d="M157.94,-236.22C166.33,-229.94 176.64,-223.3 187,-219.29 236.22,-200.23 297.87,-195.36 335.3,-194.31"/>
<polygon fill="#63b8ff" stroke="#63b8ff" points="155.65,-233.57 149.97,-242.51 159.99,-239.07 155.65,-233.57"/>
</g>
<!-- Node13 -->
<g id="node13" class="node">
<title>Node13</title>
<g id="a_node13"><a xlink:href="../../d9/d2e/classcocos2d_1_1_c_c_array.html" target="_top" xlink:title="NA.">
<polygon fill="white" stroke="#666666" points="276,-162.79 220,-162.79 220,-143.79 276,-143.79 276,-162.79"/>
<text text-anchor="middle" x="248" y="-150.79" font-family="Helvetica,sans-Serif" font-size="10.00">CCArray</text>
</a>
</g>
</g>
<!-- Node3&#45;&gt;Node13 -->
<g id="edge22" class="edge">
<title>Node3&#45;&gt;Node13</title>
<path fill="none" stroke="#63b8ff" d="M148.26,-233.08C156.59,-217.46 170.1,-195.71 187,-181.29 196.53,-173.15 208.82,-166.87 219.8,-162.33"/>
<polygon fill="#63b8ff" stroke="#63b8ff" points="144.97,-231.83 143.55,-242.33 151.21,-235 144.97,-231.83"/>
</g>
<!-- Node14 -->
<g id="node14" class="node">
<title>Node14</title>
<g id="a_node14"><a xlink:href="../../de/dee/classcocos2d_1_1_c_c_scheduler.html" target="_top" xlink:title="Scheduler is responsible for triggering the scheduled callbacks.">
<polygon fill="white" stroke="#666666" points="539,-118.79 461,-118.79 461,-99.79 539,-99.79 539,-118.79"/>
<text text-anchor="middle" x="500" y="-106.79" font-family="Helvetica,sans-Serif" font-size="10.00">CCScheduler</text>
</a>
</g>
</g>
<!-- Node3&#45;&gt;Node14 -->
<g id="edge27" class="edge">
<title>Node3&#45;&gt;Node14</title>
<path fill="none" stroke="#63b8ff" d="M144.65,-232.98C153.4,-206.6 172.75,-159.66 206,-134.29 280.87,-77.13 400.01,-89.38 460.72,-100.67"/>
<polygon fill="#63b8ff" stroke="#63b8ff" points="141.29,-232.02 141.64,-242.6 147.97,-234.11 141.29,-232.02"/>
</g>
<!-- Node15 -->
<g id="node15" class="node">
<title>Node15</title>
<g id="a_node15"><a xlink:href="../../d5/dcb/classcocos2d_1_1_c_c_action_manager.html" target="_top" xlink:title="CCActionManager is a singleton that manages all the actions.">
<polygon fill="white" stroke="#666666" points="672,-66.79 568,-66.79 568,-47.79 672,-47.79 672,-66.79"/>
<text text-anchor="middle" x="620" y="-54.79" font-family="Helvetica,sans-Serif" font-size="10.00">CCActionManager</text>
</a>
</g>
</g>
<!-- Node3&#45;&gt;Node15 -->
<g id="edge30" class="edge">
<title>Node3&#45;&gt;Node15</title>
<path fill="none" stroke="#63b8ff" d="M141.04,-232.12C145.71,-197.52 160.56,-127.38 206,-94.29 317.58,-13.01 493.71,-32.73 575.1,-47.75"/>
<polygon fill="#63b8ff" stroke="#63b8ff" points="137.52,-232.04 139.81,-242.38 144.47,-232.87 137.52,-232.04"/>
</g>
<!-- Node4 -->
<g id="node4" class="node">
<title>Node4</title>
<g id="a_node4"><a xlink:href="../../d5/d61/classcocos2d_1_1_c_c_copying.html" target="_top" xlink:title="NA NA.">
<polygon fill="white" stroke="#666666" points="70,-261.79 0,-261.79 0,-242.79 70,-242.79 70,-261.79"/>
<text text-anchor="middle" x="35" y="-249.79" font-family="Helvetica,sans-Serif" font-size="10.00">CCCopying</text>
</a>
</g>
</g>
<!-- Node4&#45;&gt;Node3 -->
<g id="edge3" class="edge">
<title>Node4&#45;&gt;Node3</title>
<path fill="none" stroke="#63b8ff" d="M80.2,-252.29C89.22,-252.29 98.51,-252.29 106.9,-252.29"/>
<polygon fill="#63b8ff" stroke="#63b8ff" points="80.19,-248.79 70.19,-252.29 80.19,-255.79 80.19,-248.79"/>
</g>
<!-- Node5 -->
<g id="node5" class="node">
<title>Node5</title>
<g id="a_node5"><a xlink:href="../../d2/df3/classcocos2d_1_1_c_c_point.html" target="_top" xlink:title="NA.">
<polygon fill="white" stroke="#666666" points="527.5,-450.79 472.5,-450.79 472.5,-431.79 527.5,-431.79 527.5,-450.79"/>
<text text-anchor="middle" x="500" y="-438.79" font-family="Helvetica,sans-Serif" font-size="10.00">CCPoint</text>
</a>
</g>
</g>
<!-- Node5&#45;&gt;Node2 -->
<g id="edge4" class="edge">
<title>Node5&#45;&gt;Node2</title>
<path fill="none" stroke="#9a32cd" stroke-dasharray="5,2" d="M537.94,-447.09C575.03,-450.89 632.22,-451.01 672,-424.29 686.19,-414.75 675.72,-399.69 690,-390.29 696.69,-385.88 929.86,-369.64 1010.72,-364.13"/>
<polygon fill="#9a32cd" stroke="#9a32cd" points="537.92,-443.56 527.58,-445.88 537.11,-450.52 537.92,-443.56"/>
<text text-anchor="middle" x="757" y="-415.29" font-family="Helvetica,sans-Serif" font-size="10.00"> m_obAnchorPoint</text>
<text text-anchor="middle" x="757" y="-404.29" font-family="Helvetica,sans-Serif" font-size="10.00">m_obAnchorPointInPoints</text>
<text text-anchor="middle" x="757" y="-393.29" font-family="Helvetica,sans-Serif" font-size="10.00">m_obPosition</text>
</g>
<!-- Node5&#45;&gt;Node9 -->
<g id="edge17" class="edge">
<title>Node5&#45;&gt;Node9</title>
<path fill="none" stroke="#9a32cd" stroke-dasharray="5,2" d="M530.36,-427.68C541.92,-422.68 555.42,-417.27 568,-413.29 613.13,-398.99 633.97,-418.48 672,-390.29 685.11,-380.57 677.56,-368.84 690,-358.29 698.55,-351.03 709.48,-345.89 719.98,-342.28"/>
<polygon fill="#9a32cd" stroke="#9a32cd" points="528.9,-424.5 521.17,-431.75 531.73,-430.9 528.9,-424.5"/>
<text text-anchor="middle" x="620" y="-416.29" font-family="Helvetica,sans-Serif" font-size="10.00"> m_obStep</text>
</g>
<!-- Node6 -->
<g id="node6" class="node">
<title>Node6</title>
<g id="a_node6"><a xlink:href="../../d9/d24/classcocos2d_1_1_c_c_size.html" target="_top" xlink:title="NA.">
<polygon fill="white" stroke="#666666" points="273,-423.79 223,-423.79 223,-404.79 273,-404.79 273,-423.79"/>
<text text-anchor="middle" x="248" y="-411.79" font-family="Helvetica,sans-Serif" font-size="10.00">CCSize</text>
</a>
</g>
</g>
<!-- Node6&#45;&gt;Node2 -->
<g id="edge5" class="edge">
<title>Node6&#45;&gt;Node2</title>
<path fill="none" stroke="#9a32cd" stroke-dasharray="5,2" d="M282.83,-424.4C322.46,-435.7 390.31,-453.31 450,-460.29 564.78,-473.7 867.99,-517.58 970,-463.29 1007.32,-443.42 1027.83,-392.95 1035.02,-371.82"/>
<polygon fill="#9a32cd" stroke="#9a32cd" points="283.72,-421.02 273.15,-421.61 281.78,-427.75 283.72,-421.02"/>
<text text-anchor="middle" x="620" y="-486.29" font-family="Helvetica,sans-Serif" font-size="10.00"> m_obContentSize</text>
</g>
<!-- Node6&#45;&gt;Node9 -->
<g id="edge11" class="edge">
<title>Node6&#45;&gt;Node9</title>
<path fill="none" stroke="#9a32cd" stroke-dasharray="5,2" d="M283.68,-413.4C356.64,-410.85 530.94,-401.18 672,-365.29 693.54,-359.8 717.23,-350.77 733.94,-343.87"/>
<polygon fill="#9a32cd" stroke="#9a32cd" points="283.14,-409.91 273.26,-413.74 283.37,-416.91 283.14,-409.91"/>
<text text-anchor="middle" x="500" y="-404.29" font-family="Helvetica,sans-Serif" font-size="10.00"> m_sGridSize</text>
</g>
<!-- Node6&#45;&gt;Node10 -->
<g id="edge14" class="edge">
<title>Node6&#45;&gt;Node10</title>
<path fill="none" stroke="#9a32cd" stroke-dasharray="5,2" d="M277.85,-400.5C287.29,-396.41 297.94,-392.24 308,-389.29 322.29,-385.09 408.12,-370.92 459.74,-362.57"/>
<polygon fill="#9a32cd" stroke="#9a32cd" points="276.22,-397.39 268.52,-404.68 279.08,-403.78 276.22,-397.39"/>
<text text-anchor="middle" x="370" y="-392.29" font-family="Helvetica,sans-Serif" font-size="10.00"> m_tContentSize</text>
</g>
<!-- Node7 -->
<g id="node7" class="node">
<title>Node7</title>
<g id="a_node7"><a xlink:href="../../da/dbf/structcocos2d_1_1_c_c_affine_transform.html" target="_top" xlink:title=" ">
<polygon fill="white" stroke="#666666" points="810.5,-450.79 703.5,-450.79 703.5,-431.79 810.5,-431.79 810.5,-450.79"/>
<text text-anchor="middle" x="757" y="-438.79" font-family="Helvetica,sans-Serif" font-size="10.00">CCAffineTransform</text>
</a>
</g>
</g>
<!-- Node7&#45;&gt;Node2 -->
<g id="edge6" class="edge">
<title>Node7&#45;&gt;Node2</title>
<path fill="none" stroke="#9a32cd" stroke-dasharray="5,2" d="M820.71,-431.16C863.44,-423.35 920.95,-411.03 970,-394.29 987.78,-388.22 1007.07,-378.85 1020.55,-371.82"/>
<polygon fill="#9a32cd" stroke="#9a32cd" points="819.95,-427.74 810.73,-432.95 821.19,-434.63 819.95,-427.74"/>
<text text-anchor="middle" x="906" y="-451.29" font-family="Helvetica,sans-Serif" font-size="10.00"> m_sAdditionalTransform</text>
<text text-anchor="middle" x="906" y="-440.29" font-family="Helvetica,sans-Serif" font-size="10.00">m_sInverse</text>
<text text-anchor="middle" x="906" y="-429.29" font-family="Helvetica,sans-Serif" font-size="10.00">m_sTransform</text>
</g>
<!-- Node8&#45;&gt;Node2 -->
<g id="edge7" class="edge">
<title>Node8&#45;&gt;Node2</title>
<path fill="none" stroke="#9a32cd" stroke-dasharray="5,2" d="M414.16,-515.48C535.66,-526.43 877.77,-551.24 970,-493.29 1014.7,-465.2 1031.49,-397.49 1036.35,-372.11"/>
<polygon fill="#9a32cd" stroke="#9a32cd" points="414.38,-511.98 404.11,-514.56 413.74,-518.95 414.38,-511.98"/>
<text text-anchor="middle" x="620" y="-532.29" font-family="Helvetica,sans-Serif" font-size="10.00"> m_pCamera</text>
</g>
<!-- Node9&#45;&gt;Node2 -->
<g id="edge9" class="edge">
<title>Node9&#45;&gt;Node2</title>
<path fill="none" stroke="#9a32cd" stroke-dasharray="5,2" d="M804.16,-338.81C847.1,-343.03 912.89,-349.52 970,-355.29 983.46,-356.65 998.42,-358.18 1010.87,-359.47"/>
<polygon fill="#9a32cd" stroke="#9a32cd" points="804.31,-335.31 794.01,-337.81 803.62,-342.27 804.31,-335.31"/>
<text text-anchor="middle" x="906" y="-358.29" font-family="Helvetica,sans-Serif" font-size="10.00"> m_pGrid</text>
</g>
<!-- Node10&#45;&gt;Node9 -->
<g id="edge12" class="edge">
<title>Node10&#45;&gt;Node9</title>
<path fill="none" stroke="#9a32cd" stroke-dasharray="5,2" d="M550.2,-352.04C599.89,-347.75 675.47,-341.23 719.89,-337.4"/>
<polygon fill="#9a32cd" stroke="#9a32cd" points="549.67,-348.57 540.01,-352.92 550.27,-355.55 549.67,-348.57"/>
<text text-anchor="middle" x="620" y="-353.29" font-family="Helvetica,sans-Serif" font-size="10.00"> m_pTexture</text>
</g>
<!-- Node11&#45;&gt;Node2 -->
<g id="edge25" class="edge">
<title>Node11&#45;&gt;Node2</title>
<path fill="none" stroke="#9a32cd" stroke-dasharray="5,2" d="M300.52,-283.5C337.2,-283.8 387.64,-284.54 432,-286.29 606.56,-293.17 650.64,-293.67 824,-315.29 889.18,-323.41 906.32,-322.18 970,-338.29 974.28,-339.37 994.47,-346.54 1011.75,-352.76"/>
<polygon fill="#9a32cd" stroke="#9a32cd" points="300.11,-280 290.08,-283.42 300.05,-287 300.11,-280"/>
<text text-anchor="middle" x="620" y="-302.29" font-family="Helvetica,sans-Serif" font-size="10.00"> m_pShaderProgram</text>
</g>
<!-- Node11&#45;&gt;Node9 -->
<g id="edge20" class="edge">
<title>Node11&#45;&gt;Node9</title>
<path fill="none" stroke="#9a32cd" stroke-dasharray="5,2" d="M300.17,-288.43C402.68,-298.75 630.99,-321.71 719.74,-330.64"/>
<polygon fill="#9a32cd" stroke="#9a32cd" points="300.36,-284.94 290.06,-287.42 299.66,-291.9 300.36,-284.94"/>
<text text-anchor="middle" x="500" y="-316.29" font-family="Helvetica,sans-Serif" font-size="10.00"> m_pShaderProgram</text>
</g>
<!-- Node11&#45;&gt;Node10 -->
<g id="edge15" class="edge">
<title>Node11&#45;&gt;Node10</title>
<path fill="none" stroke="#9a32cd" stroke-dasharray="5,2" d="M279.1,-296.9C288.25,-300.67 298.41,-304.48 308,-307.29 361.79,-323.04 378.08,-314.97 432,-330.29 447.48,-334.68 464.37,-341.25 477.32,-346.69"/>
<polygon fill="#9a32cd" stroke="#9a32cd" points="280.23,-293.58 269.66,-292.89 277.49,-300.02 280.23,-293.58"/>
<text text-anchor="middle" x="370" y="-333.29" font-family="Helvetica,sans-Serif" font-size="10.00"> m_pShaderProgram</text>
</g>
<!-- Node12&#45;&gt;Node9 -->
<g id="edge18" class="edge">
<title>Node12&#45;&gt;Node9</title>
<path fill="none" stroke="#9a32cd" stroke-dasharray="5,2" d="M414.98,-187.06C476.73,-179.2 590.68,-173.27 672,-219.29 715.68,-244 742.91,-301.83 752.31,-324.72"/>
<polygon fill="#9a32cd" stroke="#9a32cd" points="414.24,-183.63 404.8,-188.43 415.18,-190.56 414.24,-183.63"/>
<text text-anchor="middle" x="500" y="-187.29" font-family="Helvetica,sans-Serif" font-size="10.00"> m_pGrabber</text>
</g>
<!-- Node13&#45;&gt;Node2 -->
<g id="edge21" class="edge">
<title>Node13&#45;&gt;Node2</title>
<path fill="none" stroke="#9a32cd" stroke-dasharray="5,2" d="M286.56,-150.04C361.29,-144.67 533.33,-137.65 672,-172.29 814.34,-207.84 861.41,-215.63 970,-314.29 981.51,-324.74 975.99,-334.41 988,-344.29 994.56,-349.68 1002.86,-353.52 1010.8,-356.23"/>
<polygon fill="#9a32cd" stroke="#9a32cd" points="285.97,-146.58 276.26,-150.82 286.49,-153.56 285.97,-146.58"/>
<text text-anchor="middle" x="620" y="-175.29" font-family="Helvetica,sans-Serif" font-size="10.00"> m_pChildren</text>
</g>
<!-- Node13&#45;&gt;Node14 -->
<g id="edge28" class="edge">
<title>Node13&#45;&gt;Node14</title>
<path fill="none" stroke="#9a32cd" stroke-dasharray="5,2" d="M276.76,-139.49C286.43,-135.24 297.49,-130.97 308,-128.29 359.82,-115.06 421.74,-110.95 460.73,-109.72"/>
<polygon fill="#9a32cd" stroke="#9a32cd" points="275.25,-136.33 267.63,-143.68 278.17,-142.69 275.25,-136.33"/>
<text text-anchor="middle" x="370" y="-131.29" font-family="Helvetica,sans-Serif" font-size="10.00"> m_pScriptHandlerEntries</text>
</g>
<!-- Node14&#45;&gt;Node2 -->
<g id="edge26" class="edge">
<title>Node14&#45;&gt;Node2</title>
<path fill="none" stroke="#9a32cd" stroke-dasharray="5,2" d="M549.27,-104.2C656.94,-94.03 911.88,-76.76 970,-134.29 1003.29,-167.23 959.45,-307.15 988,-344.29 993.57,-351.53 1002.31,-355.86 1010.93,-358.45"/>
<polygon fill="#9a32cd" stroke="#9a32cd" points="548.63,-100.75 539.01,-105.19 549.3,-107.72 548.63,-100.75"/>
<text text-anchor="middle" x="757" y="-99.29" font-family="Helvetica,sans-Serif" font-size="10.00"> m_pScheduler</text>
</g>
<!-- Node15&#45;&gt;Node2 -->
<g id="edge29" class="edge">
<title>Node15&#45;&gt;Node2</title>
<path fill="none" stroke="#9a32cd" stroke-dasharray="5,2" d="M682.1,-54.87C771.61,-52.77 931.92,-54.96 970,-95.29 1008.09,-135.62 954.48,-300.08 988,-344.29 993.52,-351.56 1002.25,-355.91 1010.88,-358.49"/>
<polygon fill="#9a32cd" stroke="#9a32cd" points="681.98,-51.37 672.08,-55.13 682.16,-58.37 681.98,-51.37"/>
<text text-anchor="middle" x="757" y="-60.29" font-family="Helvetica,sans-Serif" font-size="10.00"> m_pActionManager</text>
</g>
<!-- Node16 -->
<g id="node16" class="node">
<title>Node16</title>
<g id="a_node16"><a xlink:href="../../d1/d65/classcocos2d_1_1_c_c_component_container.html" target="_top" xlink:title="NA NA.">
<polygon fill="white" stroke="#666666" points="824,-25.79 690,-25.79 690,-6.79 824,-6.79 824,-25.79"/>
<text text-anchor="middle" x="757" y="-13.79" font-family="Helvetica,sans-Serif" font-size="10.00">CCComponentContainer</text>
</a>
</g>
</g>
<!-- Node16&#45;&gt;Node2 -->
<g id="edge31" class="edge">
<title>Node16&#45;&gt;Node2</title>
<path fill="none" stroke="#9a32cd" stroke-dasharray="5,2" d="M807.26,-5.01C855.92,2.91 928.86,5.54 970,-37.29 1017.34,-86.57 947.08,-289.55 988,-344.29 993.47,-351.6 1002.19,-355.95 1010.82,-358.53"/>
<polygon fill="#9a32cd" stroke="#9a32cd" points="806.51,-1.59 797.26,-6.77 807.72,-8.48 806.51,-1.59"/>
<text text-anchor="middle" x="906" y="-40.29" font-family="Helvetica,sans-Serif" font-size="10.00"> m_pComponentContainer</text>
</g>
<!-- Node17 -->
<g id="node17" class="node">
<title>Node17</title>
<g id="a_node17"><a xlink:href="../../dc/d67/classcocos2d_1_1extension_1_1_c_c_sortable_object.html" target="_top" xlink:title="NA NA.">
<polygon fill="white" stroke="#666666" points="1090,-334.79 988,-334.79 988,-315.79 1090,-315.79 1090,-334.79"/>
<text text-anchor="middle" x="1039" y="-322.79" font-family="Helvetica,sans-Serif" font-size="10.00">CCSortableObject</text>
</a>
</g>
</g>
<!-- Node17&#45;&gt;Node1 -->
<g id="edge32" class="edge">
<title>Node17&#45;&gt;Node1</title>
<path fill="none" stroke="#63b8ff" d="M1100.25,-330.64C1109.18,-331.44 1118.29,-332.25 1126.93,-333.01"/>
<polygon fill="#63b8ff" stroke="#63b8ff" points="1100.54,-327.15 1090.27,-329.75 1099.92,-334.13 1100.54,-327.15"/>
</g>
</g>
</svg>
