<?xml version="1.0" encoding="UTF-8" standalone="no"?>
<!DOCTYPE svg PUBLIC "-//W3C//DTD SVG 1.1//EN"
 "http://www.w3.org/Graphics/SVG/1.1/DTD/svg11.dtd">
<!-- Generated by graphviz version 2.43.0 (0)
 -->
<!-- Title: /home/runner/work/cocos&#45;headers/cocos&#45;headers/cocos2dx/platform/CCCommon.h Pages: 1 -->
<svg width="259pt" height="214pt"
 viewBox="0.00 0.00 259.00 214.00" xmlns="http://www.w3.org/2000/svg" xmlns:xlink="http://www.w3.org/1999/xlink">
<g id="graph0" class="graph" transform="scale(1 1) rotate(0) translate(4 210)">
<title>/home/runner/work/cocos&#45;headers/cocos&#45;headers/cocos2dx/platform/CCCommon.h</title>
<!-- Node1 -->
<g id="node1" class="node">
<title>Node1</title>
<g id="a_node1"><a xlink:title=" ">
<polygon fill="#999999" stroke="#666666" points="199.5,-206 19.5,-206 19.5,-165 199.5,-165 199.5,-206"/>
<text text-anchor="start" x="27.5" y="-194" font-family="Helvetica,sans-Serif" font-size="10.00">/home/runner/work/cocos</text>
<text text-anchor="start" x="27.5" y="-183" font-family="Helvetica,sans-Serif" font-size="10.00">&#45;headers/cocos&#45;headers</text>
<text text-anchor="middle" x="109.5" y="-172" font-family="Helvetica,sans-Serif" font-size="10.00">/cocos2dx/platform/CCCommon.h</text>
</a>
</g>
</g>
<!-- Node2 -->
<g id="node2" class="node">
<title>Node2</title>
<g id="a_node2"><a xlink:href="../../d3/d41/_c_c_platform_macros_8h.html" target="_top" xlink:title=" ">
<polygon fill="white" stroke="#666666" points="167.5,-129 51.5,-129 51.5,-110 167.5,-110 167.5,-129"/>
<text text-anchor="middle" x="109.5" y="-117" font-family="Helvetica,sans-Serif" font-size="10.00">CCPlatformMacros.h</text>
</a>
</g>
</g>
<!-- Node1&#45;&gt;Node2 -->
<g id="edge1" class="edge">
<title>Node1&#45;&gt;Node2</title>
<path fill="none" stroke="#63b8ff" d="M109.5,-164.95C109.5,-156.85 109.5,-147.5 109.5,-139.47"/>
<polygon fill="#63b8ff" stroke="#63b8ff" points="113,-139.26 109.5,-129.26 106,-139.26 113,-139.26"/>
</g>
<!-- Node3 -->
<g id="node3" class="node">
<title>Node3</title>
<g id="a_node3"><a xlink:href="../../db/d9f/cc_config_8h.html" target="_top" xlink:title="cocos2d (cc) configuration file">
<polygon fill="white" stroke="#666666" points="81,-74 14,-74 14,-55 81,-55 81,-74"/>
<text text-anchor="middle" x="47.5" y="-62" font-family="Helvetica,sans-Serif" font-size="10.00">ccConfig.h</text>
</a>
</g>
</g>
<!-- Node2&#45;&gt;Node3 -->
<g id="edge2" class="edge">
<title>Node2&#45;&gt;Node3</title>
<path fill="none" stroke="#63b8ff" d="M99.54,-109.98C90.37,-102.15 76.56,-90.34 65.47,-80.86"/>
<polygon fill="#63b8ff" stroke="#63b8ff" points="67.52,-78.01 57.64,-74.17 62.97,-83.33 67.52,-78.01"/>
</g>
<!-- Node4 -->
<g id="node4" class="node">
<title>Node4</title>
<g id="a_node4"><a xlink:href="../../dd/d96/_c_c_platform_config_8h.html" target="_top" xlink:title=" ">
<polygon fill="white" stroke="#666666" points="157,-19 0,-19 0,0 157,0 157,-19"/>
<text text-anchor="middle" x="78.5" y="-7" font-family="Helvetica,sans-Serif" font-size="10.00">platform/CCPlatformConfig.h</text>
</a>
</g>
</g>
<!-- Node2&#45;&gt;Node4 -->
<g id="edge4" class="edge">
<title>Node2&#45;&gt;Node4</title>
<path fill="none" stroke="#63b8ff" d="M106.96,-109.66C101.92,-92.09 90.54,-52.45 83.8,-28.95"/>
<polygon fill="#63b8ff" stroke="#63b8ff" points="87.11,-27.8 80.99,-19.16 80.38,-29.74 87.11,-27.8"/>
</g>
<!-- Node5 -->
<g id="node5" class="node">
<title>Node5</title>
<g id="a_node5"><a xlink:title=" ">
<polygon fill="#e0e0e0" stroke="#999999" points="251,-74 138,-74 138,-55 251,-55 251,-74"/>
<text text-anchor="middle" x="194.5" y="-62" font-family="Helvetica,sans-Serif" font-size="10.00">CCPlatformDefine.h</text>
</a>
</g>
</g>
<!-- Node2&#45;&gt;Node5 -->
<g id="edge5" class="edge">
<title>Node2&#45;&gt;Node5</title>
<path fill="none" stroke="#63b8ff" d="M123.16,-109.98C136.34,-101.77 156.53,-89.18 172.07,-79.49"/>
<polygon fill="#63b8ff" stroke="#63b8ff" points="173.96,-82.43 180.59,-74.17 170.26,-76.49 173.96,-82.43"/>
</g>
<!-- Node3&#45;&gt;Node4 -->
<g id="edge3" class="edge">
<title>Node3&#45;&gt;Node4</title>
<path fill="none" stroke="#63b8ff" d="M52.62,-54.75C56.86,-47.49 63.03,-36.95 68.28,-27.98"/>
<polygon fill="#63b8ff" stroke="#63b8ff" points="71.45,-29.49 73.48,-19.09 65.41,-25.95 71.45,-29.49"/>
</g>
</g>
</svg>
