<?xml version="1.0" encoding="UTF-8" standalone="no"?>
<!DOCTYPE svg PUBLIC "-//W3C//DTD SVG 1.1//EN"
 "http://www.w3.org/Graphics/SVG/1.1/DTD/svg11.dtd">
<!-- Generated by graphviz version 2.43.0 (0)
 -->
<!-- Title: CCRenderTexture Pages: 1 -->
<svg width="1847pt" height="987pt"
 viewBox="0.00 0.00 1847.00 987.45" xmlns="http://www.w3.org/2000/svg" xmlns:xlink="http://www.w3.org/1999/xlink">
<g id="graph0" class="graph" transform="scale(1 1) rotate(0) translate(4 983.45)">
<title>CCRenderTexture</title>
<!-- Node1 -->
<g id="node1" class="node">
<title>Node1</title>
<g id="a_node1"><a xlink:title="CCRenderTexture is a generic rendering target.">
<polygon fill="#999999" stroke="#666666" points="1839,-660.95 1738,-660.95 1738,-641.95 1839,-641.95 1839,-660.95"/>
<text text-anchor="middle" x="1788.5" y="-648.95" font-family="Helvetica,sans-Serif" font-size="10.00">CCRenderTexture</text>
</a>
</g>
</g>
<!-- Node2 -->
<g id="node2" class="node">
<title>Node2</title>
<g id="a_node2"><a xlink:href="../../d0/ded/classcocos2d_1_1_c_c_node.html" target="_top" xlink:title="CCNode is the main element.">
<polygon fill="white" stroke="#666666" points="1140,-344.95 1084,-344.95 1084,-325.95 1140,-325.95 1140,-344.95"/>
<text text-anchor="middle" x="1112" y="-332.95" font-family="Helvetica,sans-Serif" font-size="10.00">CCNode</text>
</a>
</g>
</g>
<!-- Node2&#45;&gt;Node1 -->
<g id="edge1" class="edge">
<title>Node2&#45;&gt;Node1</title>
<path fill="none" stroke="#63b8ff" d="M1150.52,-338.03C1228.38,-344.74 1411.33,-367.64 1544,-440.45 1649.92,-498.59 1750.45,-608.84 1779.28,-641.87"/>
<polygon fill="#63b8ff" stroke="#63b8ff" points="1150.5,-334.52 1140.24,-337.19 1149.92,-341.5 1150.5,-334.52"/>
</g>
<!-- Node2&#45;&gt;Node2 -->
<g id="edge23" class="edge">
<title>Node2&#45;&gt;Node2</title>
<path fill="none" stroke="#9a32cd" stroke-dasharray="5,2" d="M1085.96,-354.14C1087.38,-359.15 1096.06,-362.95 1112,-362.95 1136.88,-362.95 1144.08,-353.69 1133.58,-345.04"/>
<polygon fill="#9a32cd" stroke="#9a32cd" points="1089.16,-355.56 1090.42,-345.04 1082.88,-352.48 1089.16,-355.56"/>
<text text-anchor="middle" x="1112" y="-365.95" font-family="Helvetica,sans-Serif" font-size="10.00"> m_pParent</text>
</g>
<!-- Node18 -->
<g id="node18" class="node">
<title>Node18</title>
<g id="a_node18"><a xlink:href="../../de/d2e/classcocos2d_1_1_c_c_node_r_g_b_a.html" target="_top" xlink:title="CCNodeRGBA is a subclass of CCNode that implements the CCRGBAProtocol protocol.">
<polygon fill="white" stroke="#666666" points="1421.5,-725.95 1338.5,-725.95 1338.5,-706.95 1421.5,-706.95 1421.5,-725.95"/>
<text text-anchor="middle" x="1380" y="-713.95" font-family="Helvetica,sans-Serif" font-size="10.00">CCNodeRGBA</text>
</a>
</g>
</g>
<!-- Node2&#45;&gt;Node18 -->
<g id="edge34" class="edge">
<title>Node2&#45;&gt;Node18</title>
<path fill="none" stroke="#63b8ff" d="M1127.78,-353.29C1144.43,-374.5 1170.75,-411.67 1183,-448.45 1197.31,-491.42 1173.43,-615.53 1201,-651.45 1233.55,-693.87 1296.5,-708.63 1338.14,-713.75"/>
<polygon fill="#63b8ff" stroke="#63b8ff" points="1130.3,-350.84 1121.31,-345.23 1124.84,-355.22 1130.3,-350.84"/>
</g>
<!-- Node29 -->
<g id="node29" class="node">
<title>Node29</title>
<g id="a_node29"><a xlink:href="../../dd/d95/classcocos2d_1_1_c_c_sprite_batch_node.html" target="_top" xlink:title="CCSpriteBatchNode is like a batch node: if it contains children, it will draw them in 1 single OpenGL...">
<polygon fill="white" stroke="#666666" points="1436,-448.95 1324,-448.95 1324,-429.95 1436,-429.95 1436,-448.95"/>
<text text-anchor="middle" x="1380" y="-436.95" font-family="Helvetica,sans-Serif" font-size="10.00">CCSpriteBatchNode</text>
</a>
</g>
</g>
<!-- Node2&#45;&gt;Node29 -->
<g id="edge48" class="edge">
<title>Node2&#45;&gt;Node29</title>
<path fill="none" stroke="#63b8ff" d="M1143.56,-349.12C1160.41,-356.54 1181.76,-365.74 1201,-373.45 1254.08,-394.74 1316.97,-417.49 1351.99,-429.94"/>
<polygon fill="#63b8ff" stroke="#63b8ff" points="1144.77,-345.83 1134.21,-344.98 1141.94,-352.23 1144.77,-345.83"/>
</g>
<!-- Node3 -->
<g id="node3" class="node">
<title>Node3</title>
<g id="a_node3"><a xlink:href="../../d3/dbf/classcocos2d_1_1_c_c_object.html" target="_top" xlink:title="NA.">
<polygon fill="white" stroke="#666666" points="185.5,-356.95 123.5,-356.95 123.5,-337.95 185.5,-337.95 185.5,-356.95"/>
<text text-anchor="middle" x="154.5" y="-344.95" font-family="Helvetica,sans-Serif" font-size="10.00">CCObject</text>
</a>
</g>
</g>
<!-- Node3&#45;&gt;Node2 -->
<g id="edge2" class="edge">
<title>Node3&#45;&gt;Node2</title>
<path fill="none" stroke="#63b8ff" d="M165.05,-328.6C185.25,-291.69 236.07,-213.45 304,-213.45 304,-213.45 304,-213.45 811,-213.45 908.12,-213.45 935.76,-223.78 1023,-266.45 1055.09,-282.15 1086.51,-310.93 1101.65,-325.88"/>
<polygon fill="#63b8ff" stroke="#63b8ff" points="161.76,-327.34 160.18,-337.82 167.95,-330.61 161.76,-327.34"/>
</g>
<!-- Node3&#45;&gt;Node2 -->
<g id="edge24" class="edge">
<title>Node3&#45;&gt;Node2</title>
<path fill="none" stroke="#9a32cd" stroke-dasharray="5,2" d="M162.32,-328.29C171.93,-303.55 191.52,-260.37 220,-232.45 304.63,-149.49 364.61,-193.96 483,-188.45 603.02,-182.87 918.95,-155.38 1023,-215.45 1068.64,-241.81 1097.42,-302.36 1107.23,-325.87"/>
<polygon fill="#9a32cd" stroke="#9a32cd" points="158.93,-327.36 158.72,-337.95 165.49,-329.81 158.93,-327.36"/>
<text text-anchor="middle" x="533" y="-191.45" font-family="Helvetica,sans-Serif" font-size="10.00"> m_pUserObject</text>
</g>
<!-- Node8 -->
<g id="node8" class="node">
<title>Node8</title>
<g id="a_node8"><a xlink:href="../../d2/d51/classcocos2d_1_1_c_c_camera.html" target="_top" xlink:title="A CCCamera is used in every CCNode.">
<polygon fill="white" stroke="#666666" points="449,-126.95 381,-126.95 381,-107.95 449,-107.95 449,-126.95"/>
<text text-anchor="middle" x="415" y="-114.95" font-family="Helvetica,sans-Serif" font-size="10.00">CCCamera</text>
</a>
</g>
</g>
<!-- Node3&#45;&gt;Node8 -->
<g id="edge8" class="edge">
<title>Node3&#45;&gt;Node8</title>
<path fill="none" stroke="#63b8ff" d="M156.31,-327.09C158.99,-288.48 170.53,-204.58 220,-160.45 264.79,-120.5 338.32,-114.99 380.83,-115.56"/>
<polygon fill="#63b8ff" stroke="#63b8ff" points="152.79,-327.34 155.73,-337.52 159.78,-327.73 152.79,-327.34"/>
</g>
<!-- Node9 -->
<g id="node9" class="node">
<title>Node9</title>
<g id="a_node9"><a xlink:href="../../d6/d70/classcocos2d_1_1_c_c_grid_base.html" target="_top" xlink:title="Base class for other.">
<polygon fill="white" stroke="#666666" points="847,-344.95 773,-344.95 773,-325.95 847,-325.95 847,-344.95"/>
<text text-anchor="middle" x="810" y="-332.95" font-family="Helvetica,sans-Serif" font-size="10.00">CCGridBase</text>
</a>
</g>
</g>
<!-- Node3&#45;&gt;Node9 -->
<g id="edge10" class="edge">
<title>Node3&#45;&gt;Node9</title>
<path fill="none" stroke="#63b8ff" d="M195.8,-346.71C314.23,-344.54 659.92,-338.19 772.85,-336.12"/>
<polygon fill="#63b8ff" stroke="#63b8ff" points="195.64,-343.22 185.71,-346.9 195.77,-350.22 195.64,-343.22"/>
</g>
<!-- Node10 -->
<g id="node10" class="node">
<title>Node10</title>
<g id="a_node10"><a xlink:href="../../d7/dfd/classcocos2d_1_1_c_c_texture2_d.html" target="_top" xlink:title="CCTexture2D class.">
<polygon fill="white" stroke="#666666" points="573,-773.95 493,-773.95 493,-754.95 573,-754.95 573,-773.95"/>
<text text-anchor="middle" x="533" y="-761.95" font-family="Helvetica,sans-Serif" font-size="10.00">CCTexture2D</text>
</a>
</g>
</g>
<!-- Node3&#45;&gt;Node10 -->
<g id="edge13" class="edge">
<title>Node3&#45;&gt;Node10</title>
<path fill="none" stroke="#63b8ff" d="M156.03,-367.3C158.33,-437.01 169.71,-669.21 220,-719.45 292.69,-792.08 426.57,-782.38 492.8,-772.05"/>
<polygon fill="#63b8ff" stroke="#63b8ff" points="159.53,-367.12 155.73,-357.23 152.53,-367.33 159.53,-367.12"/>
</g>
<!-- Node11 -->
<g id="node11" class="node">
<title>Node11</title>
<g id="a_node11"><a xlink:href="../../db/d28/classcocos2d_1_1_c_c_g_l_program.html" target="_top" xlink:title="CCGLProgram Class that implements a glProgram.">
<polygon fill="white" stroke="#666666" points="347,-665.95 263,-665.95 263,-646.95 347,-646.95 347,-665.95"/>
<text text-anchor="middle" x="305" y="-653.95" font-family="Helvetica,sans-Serif" font-size="10.00">CCGLProgram</text>
</a>
</g>
</g>
<!-- Node3&#45;&gt;Node11 -->
<g id="edge16" class="edge">
<title>Node3&#45;&gt;Node11</title>
<path fill="none" stroke="#63b8ff" d="M160.32,-367.39C172.19,-413.81 206.08,-531.46 263,-614.45 271.41,-626.72 283.57,-638.66 292.46,-646.65"/>
<polygon fill="#63b8ff" stroke="#63b8ff" points="163.65,-366.27 157.83,-357.42 156.85,-367.97 163.65,-366.27"/>
</g>
<!-- Node12 -->
<g id="node12" class="node">
<title>Node12</title>
<g id="a_node12"><a xlink:href="../../d3/d89/classcocos2d_1_1_c_c_grabber.html" target="_top" xlink:title="FBO class that grabs the the contents of the screen NA NA.">
<polygon fill="white" stroke="#666666" points="449.5,-378.95 380.5,-378.95 380.5,-359.95 449.5,-359.95 449.5,-378.95"/>
<text text-anchor="middle" x="415" y="-366.95" font-family="Helvetica,sans-Serif" font-size="10.00">CCGrabber</text>
</a>
</g>
</g>
<!-- Node3&#45;&gt;Node12 -->
<g id="edge19" class="edge">
<title>Node3&#45;&gt;Node12</title>
<path fill="none" stroke="#63b8ff" d="M195.94,-350.9C246.74,-355.22 332.99,-362.56 380.36,-366.59"/>
<polygon fill="#63b8ff" stroke="#63b8ff" points="195.92,-347.38 185.66,-350.02 195.33,-354.36 195.92,-347.38"/>
</g>
<!-- Node13 -->
<g id="node13" class="node">
<title>Node13</title>
<g id="a_node13"><a xlink:href="../../d9/d2e/classcocos2d_1_1_c_c_array.html" target="_top" xlink:title="NA.">
<polygon fill="white" stroke="#666666" points="561,-260.95 505,-260.95 505,-241.95 561,-241.95 561,-260.95"/>
<text text-anchor="middle" x="533" y="-248.95" font-family="Helvetica,sans-Serif" font-size="10.00">CCArray</text>
</a>
</g>
</g>
<!-- Node3&#45;&gt;Node13 -->
<g id="edge22" class="edge">
<title>Node3&#45;&gt;Node13</title>
<path fill="none" stroke="#63b8ff" d="M166.04,-329.24C177.08,-312.06 196.13,-287.24 220,-275.45 315.72,-228.2 448.32,-239.35 504.79,-247.08"/>
<polygon fill="#63b8ff" stroke="#63b8ff" points="162.99,-327.51 160.75,-337.87 168.96,-331.17 162.99,-327.51"/>
</g>
<!-- Node14 -->
<g id="node14" class="node">
<title>Node14</title>
<g id="a_node14"><a xlink:href="../../de/dee/classcocos2d_1_1_c_c_scheduler.html" target="_top" xlink:title="Scheduler is responsible for triggering the scheduled callbacks.">
<polygon fill="white" stroke="#666666" points="849,-307.95 771,-307.95 771,-288.95 849,-288.95 849,-307.95"/>
<text text-anchor="middle" x="810" y="-295.95" font-family="Helvetica,sans-Serif" font-size="10.00">CCScheduler</text>
</a>
</g>
</g>
<!-- Node3&#45;&gt;Node14 -->
<g id="edge27" class="edge">
<title>Node3&#45;&gt;Node14</title>
<path fill="none" stroke="#63b8ff" d="M195.92,-344.3C203.9,-343.69 212.21,-343.05 220,-342.45 427.82,-326.64 676.92,-308.2 770.75,-301.27"/>
<polygon fill="#63b8ff" stroke="#63b8ff" points="195.39,-340.83 185.69,-345.1 195.93,-347.81 195.39,-340.83"/>
</g>
<!-- Node15 -->
<g id="node15" class="node">
<title>Node15</title>
<g id="a_node15"><a xlink:href="../../d5/dcb/classcocos2d_1_1_c_c_action_manager.html" target="_top" xlink:title="CCActionManager is a singleton that manages all the actions.">
<polygon fill="white" stroke="#666666" points="715,-474.95 611,-474.95 611,-455.95 715,-455.95 715,-474.95"/>
<text text-anchor="middle" x="663" y="-462.95" font-family="Helvetica,sans-Serif" font-size="10.00">CCActionManager</text>
</a>
</g>
</g>
<!-- Node3&#45;&gt;Node15 -->
<g id="edge30" class="edge">
<title>Node3&#45;&gt;Node15</title>
<path fill="none" stroke="#63b8ff" d="M179.31,-362.21C231.75,-393.75 362.19,-466.91 483,-492.45 526.48,-501.65 540.71,-506.13 583,-492.45 592.39,-489.42 592.01,-483.53 601,-479.45 604.66,-477.8 608.54,-476.32 612.49,-475.02"/>
<polygon fill="#63b8ff" stroke="#63b8ff" points="181.09,-359.2 170.72,-357 177.46,-365.18 181.09,-359.2"/>
</g>
<!-- Node23 -->
<g id="node23" class="node">
<title>Node23</title>
<g id="a_node23"><a xlink:href="../../df/d3a/classcocos2d_1_1_c_c_texture_atlas.html" target="_top" xlink:title="A class that implements a Texture Atlas.">
<polygon fill="white" stroke="#666666" points="1157.5,-696.95 1066.5,-696.95 1066.5,-677.95 1157.5,-677.95 1157.5,-696.95"/>
<text text-anchor="middle" x="1112" y="-684.95" font-family="Helvetica,sans-Serif" font-size="10.00">CCTextureAtlas</text>
</a>
</g>
</g>
<!-- Node3&#45;&gt;Node23 -->
<g id="edge40" class="edge">
<title>Node3&#45;&gt;Node23</title>
<path fill="none" stroke="#63b8ff" d="M155.06,-367.13C154.96,-425.35 163.43,-597.58 263,-675.45 326.43,-725.06 900.63,-698.65 1066.39,-689.92"/>
<polygon fill="#63b8ff" stroke="#63b8ff" points="158.56,-367.1 155.18,-357.07 151.57,-367.03 158.56,-367.1"/>
</g>
<!-- Node32 -->
<g id="node32" class="node">
<title>Node32</title>
<g id="a_node32"><a xlink:href="../../d8/d10/classcocos2d_1_1_c_c_image.html" target="_top" xlink:title=" ">
<polygon fill="white" stroke="#666666" points="335.5,-945.95 274.5,-945.95 274.5,-926.95 335.5,-926.95 335.5,-945.95"/>
<text text-anchor="middle" x="305" y="-933.95" font-family="Helvetica,sans-Serif" font-size="10.00">CCImage</text>
</a>
</g>
</g>
<!-- Node3&#45;&gt;Node32 -->
<g id="edge63" class="edge">
<title>Node3&#45;&gt;Node32</title>
<path fill="none" stroke="#63b8ff" d="M157.02,-367.23C162.05,-428.88 180.2,-622.83 220,-778.45 233.73,-832.13 233.16,-848.78 263,-895.45 270.81,-907.67 282.8,-919.11 291.81,-926.79"/>
<polygon fill="#63b8ff" stroke="#63b8ff" points="160.49,-366.69 156.2,-357 153.51,-367.25 160.49,-366.69"/>
</g>
<!-- Node4 -->
<g id="node4" class="node">
<title>Node4</title>
<g id="a_node4"><a xlink:href="../../d5/d61/classcocos2d_1_1_c_c_copying.html" target="_top" xlink:title="NA NA.">
<polygon fill="white" stroke="#666666" points="70,-356.95 0,-356.95 0,-337.95 70,-337.95 70,-356.95"/>
<text text-anchor="middle" x="35" y="-344.95" font-family="Helvetica,sans-Serif" font-size="10.00">CCCopying</text>
</a>
</g>
</g>
<!-- Node4&#45;&gt;Node3 -->
<g id="edge3" class="edge">
<title>Node4&#45;&gt;Node3</title>
<path fill="none" stroke="#63b8ff" d="M80.46,-347.45C94.78,-347.45 110.31,-347.45 123.35,-347.45"/>
<polygon fill="#63b8ff" stroke="#63b8ff" points="80.3,-343.95 70.3,-347.45 80.3,-350.95 80.3,-343.95"/>
</g>
<!-- Node5 -->
<g id="node5" class="node">
<title>Node5</title>
<g id="a_node5"><a xlink:href="../../d2/df3/classcocos2d_1_1_c_c_point.html" target="_top" xlink:title="NA.">
<polygon fill="white" stroke="#666666" points="560.5,-553.95 505.5,-553.95 505.5,-534.95 560.5,-534.95 560.5,-553.95"/>
<text text-anchor="middle" x="533" y="-541.95" font-family="Helvetica,sans-Serif" font-size="10.00">CCPoint</text>
</a>
</g>
</g>
<!-- Node5&#45;&gt;Node2 -->
<g id="edge4" class="edge">
<title>Node5&#45;&gt;Node2</title>
<path fill="none" stroke="#9a32cd" stroke-dasharray="5,2" d="M571.07,-540.02C623.39,-533.44 713.81,-520.75 725,-510.45 748,-489.28 720.85,-464.52 743,-442.45 745.85,-439.62 1019.17,-370.69 1023,-369.45 1045.6,-362.17 1070.83,-352.23 1088.46,-344.98"/>
<polygon fill="#9a32cd" stroke="#9a32cd" points="570.33,-536.59 560.84,-541.29 571.19,-543.53 570.33,-536.59"/>
<text text-anchor="middle" x="810" y="-467.45" font-family="Helvetica,sans-Serif" font-size="10.00"> m_obAnchorPoint</text>
<text text-anchor="middle" x="810" y="-456.45" font-family="Helvetica,sans-Serif" font-size="10.00">m_obAnchorPointInPoints</text>
<text text-anchor="middle" x="810" y="-445.45" font-family="Helvetica,sans-Serif" font-size="10.00">m_obPosition</text>
</g>
<!-- Node5&#45;&gt;Node9 -->
<g id="edge17" class="edge">
<title>Node5&#45;&gt;Node9</title>
<path fill="none" stroke="#9a32cd" stroke-dasharray="5,2" d="M567.4,-530.39C572.85,-527.46 578.25,-524.13 583,-520.45 592.72,-512.93 590.35,-505.59 601,-499.45 649.56,-471.47 685.98,-516.69 725,-476.45 761.63,-438.69 709.62,-400.12 743,-359.45 750.5,-350.31 761.8,-344.65 772.93,-341.15"/>
<polygon fill="#9a32cd" stroke="#9a32cd" points="565.7,-527.33 558.32,-534.92 568.83,-533.59 565.7,-527.33"/>
<text text-anchor="middle" x="663" y="-502.45" font-family="Helvetica,sans-Serif" font-size="10.00"> m_obStep</text>
</g>
<!-- Node17 -->
<g id="node17" class="node">
<title>Node17</title>
<g id="a_node17"><a xlink:href="../../d4/de7/classcocos2d_1_1_c_c_sprite.html" target="_top" xlink:title="CCSprite is a 2d image ( http://en.wikipedia.org/wiki/Sprite_(computer_graphics) )">
<polygon fill="white" stroke="#666666" points="1624,-660.95 1565,-660.95 1565,-641.95 1624,-641.95 1624,-660.95"/>
<text text-anchor="middle" x="1594.5" y="-648.95" font-family="Helvetica,sans-Serif" font-size="10.00">CCSprite</text>
</a>
</g>
</g>
<!-- Node5&#45;&gt;Node17 -->
<g id="edge59" class="edge">
<title>Node5&#45;&gt;Node17</title>
<path fill="none" stroke="#9a32cd" stroke-dasharray="5,2" d="M570.8,-543.44C619.58,-542.86 702.15,-544.81 725,-563.45 745.91,-580.52 721.27,-605.45 743,-621.45 790.95,-656.78 817.44,-621.64 877,-621.45 1013,-621.04 1047.08,-615.75 1183,-620.45 1343.73,-626.01 1383.89,-630.22 1544,-645.45 1550.81,-646.1 1558.13,-646.92 1565,-647.75"/>
<polygon fill="#9a32cd" stroke="#9a32cd" points="570.59,-539.94 560.65,-543.6 570.7,-546.94 570.59,-539.94"/>
<text text-anchor="middle" x="1112" y="-645.45" font-family="Helvetica,sans-Serif" font-size="10.00"> m_obOffsetPosition</text>
<text text-anchor="start" x="1041" y="-634.45" font-family="Helvetica,sans-Serif" font-size="10.00">m_obUnflippedOffsetPosition</text>
<text text-anchor="middle" x="1112" y="-623.45" font-family="Helvetica,sans-Serif" font-size="10.00">FromCenter</text>
</g>
<!-- Node31 -->
<g id="node31" class="node">
<title>Node31</title>
<g id="a_node31"><a xlink:href="../../da/d4d/classcocos2d_1_1_c_c_rect.html" target="_top" xlink:title="NA.">
<polygon fill="white" stroke="#666666" points="836,-687.95 784,-687.95 784,-668.95 836,-668.95 836,-687.95"/>
<text text-anchor="middle" x="810" y="-675.95" font-family="Helvetica,sans-Serif" font-size="10.00">CCRect</text>
</a>
</g>
</g>
<!-- Node5&#45;&gt;Node31 -->
<g id="edge57" class="edge">
<title>Node5&#45;&gt;Node31</title>
<path fill="none" stroke="#9a32cd" stroke-dasharray="5,2" d="M548,-562.16C567.38,-586.65 600.1,-627.92 601,-628.45 649.06,-657.29 670.65,-637.74 725,-651.45 745.05,-656.51 767.31,-663.75 783.88,-669.45"/>
<polygon fill="#9a32cd" stroke="#9a32cd" points="550.5,-559.68 541.55,-554.01 545.01,-564.02 550.5,-559.68"/>
<text text-anchor="middle" x="663" y="-654.45" font-family="Helvetica,sans-Serif" font-size="10.00"> origin</text>
</g>
<!-- Node6 -->
<g id="node6" class="node">
<title>Node6</title>
<g id="a_node6"><a xlink:href="../../d9/d24/classcocos2d_1_1_c_c_size.html" target="_top" xlink:title="NA.">
<polygon fill="white" stroke="#666666" points="330,-604.95 280,-604.95 280,-585.95 330,-585.95 330,-604.95"/>
<text text-anchor="middle" x="305" y="-592.95" font-family="Helvetica,sans-Serif" font-size="10.00">CCSize</text>
</a>
</g>
</g>
<!-- Node6&#45;&gt;Node2 -->
<g id="edge5" class="edge">
<title>Node6&#45;&gt;Node2</title>
<path fill="none" stroke="#9a32cd" stroke-dasharray="5,2" d="M340.25,-592.31C392.68,-587.31 495.92,-576.75 583,-563.45 646.51,-553.76 670.14,-569.89 725,-536.45 736.08,-529.7 732.23,-520.69 743,-513.45 794.39,-478.93 819.41,-498.15 877,-475.45 944.87,-448.71 961.01,-438.92 1023,-400.45 1051.57,-382.73 1082.7,-358.44 1099.19,-345.14"/>
<polygon fill="#9a32cd" stroke="#9a32cd" points="339.79,-588.84 330.16,-593.26 340.45,-595.81 339.79,-588.84"/>
<text text-anchor="middle" x="663" y="-563.45" font-family="Helvetica,sans-Serif" font-size="10.00"> m_obContentSize</text>
</g>
<!-- Node6&#45;&gt;Node9 -->
<g id="edge11" class="edge">
<title>Node6&#45;&gt;Node9</title>
<path fill="none" stroke="#9a32cd" stroke-dasharray="5,2" d="M308.52,-575.87C313.55,-545.1 327.75,-485.62 365,-453.45 489.91,-345.59 566.36,-407.95 725,-362.45 743.7,-357.09 764.52,-350.4 780.75,-345.03"/>
<polygon fill="#9a32cd" stroke="#9a32cd" points="305.06,-575.41 307.06,-585.81 311.98,-576.43 305.06,-575.41"/>
<text text-anchor="middle" x="533" y="-394.45" font-family="Helvetica,sans-Serif" font-size="10.00"> m_sGridSize</text>
</g>
<!-- Node6&#45;&gt;Node10 -->
<g id="edge14" class="edge">
<title>Node6&#45;&gt;Node10</title>
<path fill="none" stroke="#9a32cd" stroke-dasharray="5,2" d="M337.35,-609C380.62,-627.86 454.52,-660.7 465,-669.45 495.05,-694.56 518.03,-736.17 527.4,-754.85"/>
<polygon fill="#9a32cd" stroke="#9a32cd" points="338.67,-605.76 328.1,-604.98 335.88,-612.18 338.67,-605.76"/>
<text text-anchor="middle" x="415" y="-672.45" font-family="Helvetica,sans-Serif" font-size="10.00"> m_tContentSize</text>
</g>
<!-- Node6&#45;&gt;Node31 -->
<g id="edge58" class="edge">
<title>Node6&#45;&gt;Node31</title>
<path fill="none" stroke="#9a32cd" stroke-dasharray="5,2" d="M340.42,-600.1C372.79,-604.76 422.48,-612.63 465,-622.45 526.39,-636.64 539.03,-651.09 601,-662.45 666.19,-674.41 744.47,-677.45 783.81,-678.21"/>
<polygon fill="#9a32cd" stroke="#9a32cd" points="340.54,-596.59 330.15,-598.65 339.56,-603.52 340.54,-596.59"/>
<text text-anchor="middle" x="533" y="-661.45" font-family="Helvetica,sans-Serif" font-size="10.00"> size</text>
</g>
<!-- Node7 -->
<g id="node7" class="node">
<title>Node7</title>
<g id="a_node7"><a xlink:href="../../da/dbf/structcocos2d_1_1_c_c_affine_transform.html" target="_top" xlink:title=" ">
<polygon fill="white" stroke="#666666" points="863.5,-611.95 756.5,-611.95 756.5,-592.95 863.5,-592.95 863.5,-611.95"/>
<text text-anchor="middle" x="810" y="-599.95" font-family="Helvetica,sans-Serif" font-size="10.00">CCAffineTransform</text>
</a>
</g>
</g>
<!-- Node7&#45;&gt;Node2 -->
<g id="edge6" class="edge">
<title>Node7&#45;&gt;Node2</title>
<path fill="none" stroke="#9a32cd" stroke-dasharray="5,2" d="M862.83,-590.54C921.99,-576.49 1012.04,-553.51 1023,-541.45 1051.32,-510.3 1025.66,-487.66 1041,-448.45 1057.23,-406.98 1088.77,-363.81 1103.32,-345.08"/>
<polygon fill="#9a32cd" stroke="#9a32cd" points="861.82,-587.19 852.89,-592.89 863.43,-594 861.82,-587.19"/>
<text text-anchor="middle" x="959" y="-606.45" font-family="Helvetica,sans-Serif" font-size="10.00"> m_sAdditionalTransform</text>
<text text-anchor="middle" x="959" y="-595.45" font-family="Helvetica,sans-Serif" font-size="10.00">m_sInverse</text>
<text text-anchor="middle" x="959" y="-584.45" font-family="Helvetica,sans-Serif" font-size="10.00">m_sTransform</text>
</g>
<!-- Node7&#45;&gt;Node17 -->
<g id="edge53" class="edge">
<title>Node7&#45;&gt;Node17</title>
<path fill="none" stroke="#9a32cd" stroke-dasharray="5,2" d="M830.32,-618.58C881.12,-660.81 1016.27,-772 1041,-780.45 1147.71,-816.92 1449.43,-774.87 1544,-713.45 1564.79,-699.95 1580.82,-674.79 1588.5,-661.03"/>
<polygon fill="#9a32cd" stroke="#9a32cd" points="832.31,-615.68 822.39,-611.97 827.83,-621.06 832.31,-615.68"/>
<text text-anchor="middle" x="1253.5" y="-795.45" font-family="Helvetica,sans-Serif" font-size="10.00"> m_transformToBatch</text>
</g>
<!-- Node8&#45;&gt;Node2 -->
<g id="edge7" class="edge">
<title>Node8&#45;&gt;Node2</title>
<path fill="none" stroke="#9a32cd" stroke-dasharray="5,2" d="M459.23,-110.85C583.23,-92.91 936.71,-49.12 1023,-118.45 1051.75,-141.55 1028.46,-164.77 1041,-199.45 1059.06,-249.4 1091.63,-304.31 1105.01,-325.95"/>
<polygon fill="#9a32cd" stroke="#9a32cd" points="458.72,-107.39 449.33,-112.3 459.73,-114.31 458.72,-107.39"/>
<text text-anchor="middle" x="663" y="-96.45" font-family="Helvetica,sans-Serif" font-size="10.00"> m_pCamera</text>
</g>
<!-- Node9&#45;&gt;Node2 -->
<g id="edge9" class="edge">
<title>Node9&#45;&gt;Node2</title>
<path fill="none" stroke="#9a32cd" stroke-dasharray="5,2" d="M857.32,-335.45C920.77,-335.45 1032.7,-335.45 1083.97,-335.45"/>
<polygon fill="#9a32cd" stroke="#9a32cd" points="857.19,-331.95 847.19,-335.45 857.19,-338.95 857.19,-331.95"/>
<text text-anchor="middle" x="959" y="-338.45" font-family="Helvetica,sans-Serif" font-size="10.00"> m_pGrid</text>
</g>
<!-- Node10&#45;&gt;Node1 -->
<g id="edge61" class="edge">
<title>Node10&#45;&gt;Node1</title>
<path fill="none" stroke="#9a32cd" stroke-dasharray="5,2" d="M553.72,-781.07C563.92,-790.7 575.73,-803.62 583,-817.45 599.95,-849.72 573.95,-873.03 601,-897.45 670.1,-959.86 715.89,-922.45 809,-922.45 809,-922.45 809,-922.45 1595.5,-922.45 1726.39,-922.45 1776.12,-709.38 1785.71,-661.1"/>
<polygon fill="#9a32cd" stroke="#9a32cd" points="555.77,-778.2 546,-774.1 551.08,-783.4 555.77,-778.2"/>
<text text-anchor="middle" x="1253.5" y="-936.45" font-family="Helvetica,sans-Serif" font-size="10.00"> m_pTexture</text>
<text text-anchor="middle" x="1253.5" y="-925.45" font-family="Helvetica,sans-Serif" font-size="10.00">m_pTextureCopy</text>
</g>
<!-- Node10&#45;&gt;Node9 -->
<g id="edge12" class="edge">
<title>Node10&#45;&gt;Node9</title>
<path fill="none" stroke="#9a32cd" stroke-dasharray="5,2" d="M569.27,-751.25C619.24,-731.78 706.64,-694.63 725,-666.45 762.32,-609.2 702.17,-414.26 743,-359.45 750.14,-349.87 761.48,-344.11 772.77,-340.65"/>
<polygon fill="#9a32cd" stroke="#9a32cd" points="567.88,-748.04 559.81,-754.9 570.4,-754.57 567.88,-748.04"/>
<text text-anchor="middle" x="663" y="-739.45" font-family="Helvetica,sans-Serif" font-size="10.00"> m_pTexture</text>
</g>
<!-- Node10&#45;&gt;Node17 -->
<g id="edge55" class="edge">
<title>Node10&#45;&gt;Node17</title>
<path fill="none" stroke="#9a32cd" stroke-dasharray="5,2" d="M552.74,-781.04C562.84,-790.81 574.87,-803.88 583,-817.45 595.57,-838.43 581.57,-854.61 601,-869.45 674.63,-925.7 716.35,-883.45 809,-883.45 809,-883.45 809,-883.45 1381,-883.45 1468.15,-883.45 1489.07,-842.11 1544,-774.45 1573.16,-738.54 1587.05,-683.2 1591.67,-661.07"/>
<polygon fill="#9a32cd" stroke="#9a32cd" points="554.86,-778.23 545.16,-773.97 550.08,-783.35 554.86,-778.23"/>
<text text-anchor="middle" x="1112" y="-886.45" font-family="Helvetica,sans-Serif" font-size="10.00"> m_pobTexture</text>
</g>
<!-- Node10&#45;&gt;Node23 -->
<g id="edge41" class="edge">
<title>Node10&#45;&gt;Node23</title>
<path fill="none" stroke="#9a32cd" stroke-dasharray="5,2" d="M583.07,-773.72C675.56,-788.57 879.26,-808.67 1023,-730.45 1034.71,-724.08 1029.97,-713.94 1041,-706.45 1048.61,-701.29 1057.57,-697.53 1066.49,-694.79"/>
<polygon fill="#9a32cd" stroke="#9a32cd" points="583.59,-770.26 573.15,-772.08 582.45,-777.16 583.59,-770.26"/>
<text text-anchor="middle" x="810" y="-790.45" font-family="Helvetica,sans-Serif" font-size="10.00"> m_pTexture</text>
</g>
<!-- Node11&#45;&gt;Node2 -->
<g id="edge25" class="edge">
<title>Node11&#45;&gt;Node2</title>
<path fill="none" stroke="#9a32cd" stroke-dasharray="5,2" d="M347.11,-668.58C404.8,-682.98 510.79,-699.7 583,-653.45 598.74,-643.38 586.95,-627.78 601,-615.45 644.53,-577.26 679.1,-610.76 725,-575.45 736.73,-566.43 731.15,-556.31 743,-547.45 792.7,-510.35 818.51,-529.11 877,-508.45 943.31,-485.04 967.03,-490.03 1023,-447.45 1062.17,-417.66 1093.62,-366.51 1105.68,-345.21"/>
<polygon fill="#9a32cd" stroke="#9a32cd" points="347.82,-665.14 337.26,-666.02 346.06,-671.92 347.82,-665.14"/>
<text text-anchor="middle" x="663" y="-618.45" font-family="Helvetica,sans-Serif" font-size="10.00"> m_pShaderProgram</text>
</g>
<!-- Node11&#45;&gt;Node9 -->
<g id="edge20" class="edge">
<title>Node11&#45;&gt;Node9</title>
<path fill="none" stroke="#9a32cd" stroke-dasharray="5,2" d="M324.13,-640.16C355.27,-612.59 421.51,-555.85 483,-515.45 495.73,-507.09 713.8,-396.78 725,-386.45 735.88,-376.43 731.38,-367.61 743,-358.45 751.67,-351.62 762.52,-346.74 772.9,-343.28"/>
<polygon fill="#9a32cd" stroke="#9a32cd" points="321.79,-637.55 316.65,-646.81 326.45,-642.78 321.79,-637.55"/>
<text text-anchor="middle" x="533" y="-518.45" font-family="Helvetica,sans-Serif" font-size="10.00"> m_pShaderProgram</text>
</g>
<!-- Node11&#45;&gt;Node10 -->
<g id="edge15" class="edge">
<title>Node11&#45;&gt;Node10</title>
<path fill="none" stroke="#9a32cd" stroke-dasharray="5,2" d="M335.32,-670.47C382,-692.77 471.99,-735.78 511.99,-754.89"/>
<polygon fill="#9a32cd" stroke="#9a32cd" points="336.59,-667.19 326.06,-666.04 333.57,-673.51 336.59,-667.19"/>
<text text-anchor="middle" x="415" y="-732.45" font-family="Helvetica,sans-Serif" font-size="10.00"> m_pShaderProgram</text>
</g>
<!-- Node12&#45;&gt;Node9 -->
<g id="edge18" class="edge">
<title>Node12&#45;&gt;Node9</title>
<path fill="none" stroke="#9a32cd" stroke-dasharray="5,2" d="M459.5,-365.69C537.61,-358.93 700.24,-344.86 772.75,-338.59"/>
<polygon fill="#9a32cd" stroke="#9a32cd" points="459.17,-362.21 449.51,-366.56 459.77,-369.18 459.17,-362.21"/>
<text text-anchor="middle" x="533" y="-366.45" font-family="Helvetica,sans-Serif" font-size="10.00"> m_pGrabber</text>
</g>
<!-- Node13&#45;&gt;Node2 -->
<g id="edge21" class="edge">
<title>Node13&#45;&gt;Node2</title>
<path fill="none" stroke="#9a32cd" stroke-dasharray="5,2" d="M571.45,-251.53C609.98,-251.77 671.72,-252.62 725,-255.45 858.89,-262.58 894.66,-263.63 1023,-302.45 1045.49,-309.26 1070.52,-318.85 1088.12,-325.94"/>
<polygon fill="#9a32cd" stroke="#9a32cd" points="571.24,-248.03 561.22,-251.47 571.2,-255.03 571.24,-248.03"/>
<text text-anchor="middle" x="810" y="-270.45" font-family="Helvetica,sans-Serif" font-size="10.00"> m_pChildren</text>
</g>
<!-- Node13&#45;&gt;Node14 -->
<g id="edge28" class="edge">
<title>Node13&#45;&gt;Node14</title>
<path fill="none" stroke="#9a32cd" stroke-dasharray="5,2" d="M571.34,-254.56C610.03,-258.15 672.12,-264.95 725,-275.45 742.8,-278.99 762.37,-284.27 778.14,-288.87"/>
<polygon fill="#9a32cd" stroke="#9a32cd" points="571.35,-251.05 561.08,-253.64 570.72,-258.02 571.35,-251.05"/>
<text text-anchor="middle" x="663" y="-278.45" font-family="Helvetica,sans-Serif" font-size="10.00"> m_pScriptHandlerEntries</text>
</g>
<!-- Node13&#45;&gt;Node29 -->
<g id="edge52" class="edge">
<title>Node13&#45;&gt;Node29</title>
<path fill="none" stroke="#9a32cd" stroke-dasharray="5,2" d="M551.5,-234.32C562.32,-222.68 575.52,-206.38 583,-189.45 602.85,-144.55 564.16,-112.91 601,-80.45 741.77,43.58 850.36,4.01 1023,-69.45 1209.6,-148.86 1345.69,-379.34 1373.68,-429.67"/>
<polygon fill="#9a32cd" stroke="#9a32cd" points="548.92,-231.95 544.5,-241.58 553.96,-236.81 548.92,-231.95"/>
<text text-anchor="middle" x="959" y="-72.45" font-family="Helvetica,sans-Serif" font-size="10.00"> m_pobDescendants</text>
</g>
<!-- Node14&#45;&gt;Node2 -->
<g id="edge26" class="edge">
<title>Node14&#45;&gt;Node2</title>
<path fill="none" stroke="#9a32cd" stroke-dasharray="5,2" d="M859.19,-302.55C902.23,-306.42 966.95,-312.78 1023,-320.45 1043.42,-323.25 1066.38,-327.19 1083.72,-330.33"/>
<polygon fill="#9a32cd" stroke="#9a32cd" points="859.27,-299.04 849,-301.64 858.65,-306.02 859.27,-299.04"/>
<text text-anchor="middle" x="959" y="-323.45" font-family="Helvetica,sans-Serif" font-size="10.00"> m_pScheduler</text>
</g>
<!-- Node15&#45;&gt;Node2 -->
<g id="edge29" class="edge">
<title>Node15&#45;&gt;Node2</title>
<path fill="none" stroke="#9a32cd" stroke-dasharray="5,2" d="M723.58,-453.68C724.06,-453.28 724.54,-452.88 725,-452.45 744.66,-434.59 722.89,-412.81 743,-395.45 790.7,-354.27 960.83,-360.75 1023,-350.45 1043.34,-347.09 1066.29,-343.17 1083.66,-340.18"/>
<polygon fill="#9a32cd" stroke="#9a32cd" points="721.6,-450.79 715.03,-459.11 725.35,-456.7 721.6,-450.79"/>
<text text-anchor="middle" x="810" y="-398.45" font-family="Helvetica,sans-Serif" font-size="10.00"> m_pActionManager</text>
</g>
<!-- Node16 -->
<g id="node16" class="node">
<title>Node16</title>
<g id="a_node16"><a xlink:href="../../d1/d65/classcocos2d_1_1_c_c_component_container.html" target="_top" xlink:title="NA NA.">
<polygon fill="white" stroke="#666666" points="877,-146.95 743,-146.95 743,-127.95 877,-127.95 877,-146.95"/>
<text text-anchor="middle" x="810" y="-134.95" font-family="Helvetica,sans-Serif" font-size="10.00">CCComponentContainer</text>
</a>
</g>
</g>
<!-- Node16&#45;&gt;Node2 -->
<g id="edge31" class="edge">
<title>Node16&#45;&gt;Node2</title>
<path fill="none" stroke="#9a32cd" stroke-dasharray="5,2" d="M861.19,-126.2C907.78,-118.81 976.71,-115.99 1023,-150.45 1041.61,-164.31 1031.67,-178.21 1041,-199.45 1062.35,-248.08 1093.07,-303.74 1105.48,-325.76"/>
<polygon fill="#9a32cd" stroke="#9a32cd" points="860.58,-122.76 851.32,-127.89 861.76,-129.66 860.58,-122.76"/>
<text text-anchor="middle" x="959" y="-153.45" font-family="Helvetica,sans-Serif" font-size="10.00"> m_pComponentContainer</text>
</g>
<!-- Node17&#45;&gt;Node1 -->
<g id="edge32" class="edge">
<title>Node17&#45;&gt;Node1</title>
<path fill="none" stroke="#9a32cd" stroke-dasharray="5,2" d="M1634.26,-651.45C1664.04,-651.45 1705.4,-651.45 1737.64,-651.45"/>
<polygon fill="#9a32cd" stroke="#9a32cd" points="1634.24,-647.95 1624.24,-651.45 1634.24,-654.95 1634.24,-647.95"/>
<text text-anchor="middle" x="1682.5" y="-654.45" font-family="Helvetica,sans-Serif" font-size="10.00"> m_pSprite</text>
</g>
<!-- Node18&#45;&gt;Node17 -->
<g id="edge33" class="edge">
<title>Node18&#45;&gt;Node17</title>
<path fill="none" stroke="#63b8ff" d="M1432.03,-713.86C1465.07,-710.7 1508.41,-703.75 1544,-688.45 1559.38,-681.84 1574.39,-669.55 1583.78,-660.96"/>
<polygon fill="#63b8ff" stroke="#63b8ff" points="1431.34,-710.4 1421.68,-714.75 1431.95,-717.38 1431.34,-710.4"/>
</g>
<!-- Node19 -->
<g id="node19" class="node">
<title>Node19</title>
<g id="a_node19"><a xlink:href="../../d8/dda/classcocos2d_1_1_c_c_r_g_b_a_protocol.html" target="_top" xlink:title="RGBA protocol that affects CCNode&#39;s color and opacity NA.">
<polygon fill="white" stroke="#666666" points="1161,-733.95 1063,-733.95 1063,-714.95 1161,-714.95 1161,-733.95"/>
<text text-anchor="middle" x="1112" y="-721.95" font-family="Helvetica,sans-Serif" font-size="10.00">CCRGBAProtocol</text>
</a>
</g>
</g>
<!-- Node19&#45;&gt;Node18 -->
<g id="edge35" class="edge">
<title>Node19&#45;&gt;Node18</title>
<path fill="none" stroke="#63b8ff" d="M1171.29,-722.7C1221.79,-721.18 1293.57,-719.02 1338.16,-717.68"/>
<polygon fill="#63b8ff" stroke="#63b8ff" points="1171.06,-719.21 1161.17,-723.01 1171.27,-726.2 1171.06,-719.21"/>
</g>
<!-- Node20 -->
<g id="node20" class="node">
<title>Node20</title>
<g id="a_node20"><a xlink:href="../../d7/d39/structcc_color3_b.html" target="_top" xlink:title="RGB color composed of bytes 3 bytes.">
<polygon fill="white" stroke="#666666" points="1144.5,-770.95 1079.5,-770.95 1079.5,-751.95 1144.5,-751.95 1144.5,-770.95"/>
<text text-anchor="middle" x="1112" y="-758.95" font-family="Helvetica,sans-Serif" font-size="10.00">ccColor3B</text>
</a>
</g>
</g>
<!-- Node20&#45;&gt;Node18 -->
<g id="edge36" class="edge">
<title>Node20&#45;&gt;Node18</title>
<path fill="none" stroke="#9a32cd" stroke-dasharray="5,2" d="M1154.51,-756.03C1193.68,-750.72 1254,-742.05 1306,-732.45 1316.46,-730.52 1327.71,-728.19 1338.17,-725.91"/>
<polygon fill="#9a32cd" stroke="#9a32cd" points="1153.97,-752.57 1144.53,-757.37 1154.91,-759.51 1153.97,-752.57"/>
<text text-anchor="middle" x="1253.5" y="-763.45" font-family="Helvetica,sans-Serif" font-size="10.00"> _displayedColor</text>
<text text-anchor="middle" x="1253.5" y="-752.45" font-family="Helvetica,sans-Serif" font-size="10.00">_realColor</text>
</g>
<!-- Node21 -->
<g id="node21" class="node">
<title>Node21</title>
<g id="a_node21"><a xlink:href="../../db/d1b/classcocos2d_1_1_c_c_texture_protocol.html" target="_top" xlink:title="CCNode objects that uses a CCTexture2D to render the images.">
<polygon fill="white" stroke="#666666" points="1165,-551.95 1059,-551.95 1059,-532.95 1165,-532.95 1165,-551.95"/>
<text text-anchor="middle" x="1112" y="-539.95" font-family="Helvetica,sans-Serif" font-size="10.00">CCTextureProtocol</text>
</a>
</g>
</g>
<!-- Node21&#45;&gt;Node17 -->
<g id="edge37" class="edge">
<title>Node21&#45;&gt;Node17</title>
<path fill="none" stroke="#63b8ff" d="M1175.26,-540.39C1279.38,-538.04 1483.39,-538.39 1544,-574.45 1569.95,-589.9 1584.65,-624.83 1590.5,-641.82"/>
<polygon fill="#63b8ff" stroke="#63b8ff" points="1175.11,-536.9 1165.2,-540.64 1175.28,-543.89 1175.11,-536.9"/>
</g>
<!-- Node21&#45;&gt;Node29 -->
<g id="edge49" class="edge">
<title>Node21&#45;&gt;Node29</title>
<path fill="none" stroke="#63b8ff" d="M1133.97,-526.54C1148.19,-515.46 1167.21,-500.11 1183,-485.45 1191.53,-477.54 1190.69,-471.84 1201,-466.45 1238.95,-446.62 1287.26,-440.29 1323.97,-438.68"/>
<polygon fill="#63b8ff" stroke="#63b8ff" points="1131.58,-523.95 1125.8,-532.83 1135.86,-529.5 1131.58,-523.95"/>
</g>
<!-- Node22 -->
<g id="node22" class="node">
<title>Node22</title>
<g id="a_node22"><a xlink:href="../../d6/d82/classcocos2d_1_1_c_c_blend_protocol.html" target="_top" xlink:title="Specify the blending function according glBlendFunc Please refer to glBlendFunc in OpenGL ES Manual h...">
<polygon fill="white" stroke="#666666" points="859,-574.95 761,-574.95 761,-555.95 859,-555.95 859,-574.95"/>
<text text-anchor="middle" x="810" y="-562.95" font-family="Helvetica,sans-Serif" font-size="10.00">CCBlendProtocol</text>
</a>
</g>
</g>
<!-- Node22&#45;&gt;Node21 -->
<g id="edge38" class="edge">
<title>Node22&#45;&gt;Node21</title>
<path fill="none" stroke="#63b8ff" d="M869.49,-560.97C924.49,-556.75 1006.07,-550.5 1058.89,-546.45"/>
<polygon fill="#63b8ff" stroke="#63b8ff" points="868.9,-557.51 859.2,-561.76 869.44,-564.48 868.9,-557.51"/>
</g>
<!-- Node23&#45;&gt;Node17 -->
<g id="edge39" class="edge">
<title>Node23&#45;&gt;Node17</title>
<path fill="none" stroke="#9a32cd" stroke-dasharray="5,2" d="M1167.91,-683.34C1270.33,-675.67 1487.17,-659.42 1564.97,-653.59"/>
<polygon fill="#9a32cd" stroke="#9a32cd" points="1167.48,-679.86 1157.77,-684.1 1168.01,-686.84 1167.48,-679.86"/>
<text text-anchor="middle" x="1380" y="-673.45" font-family="Helvetica,sans-Serif" font-size="10.00"> m_pobTextureAtlas</text>
</g>
<!-- Node23&#45;&gt;Node29 -->
<g id="edge50" class="edge">
<title>Node23&#45;&gt;Node29</title>
<path fill="none" stroke="#9a32cd" stroke-dasharray="5,2" d="M1132.74,-671.43C1147.2,-659.36 1167.01,-642.08 1183,-625.45 1191.76,-616.35 1192.35,-612.66 1201,-603.45 1252.05,-549.15 1269.09,-539.86 1324,-489.45 1339.4,-475.32 1357.33,-459.05 1368.43,-449.01"/>
<polygon fill="#9a32cd" stroke="#9a32cd" points="1130.39,-668.83 1124.92,-677.9 1134.85,-674.23 1130.39,-668.83"/>
<text text-anchor="middle" x="1253.5" y="-606.45" font-family="Helvetica,sans-Serif" font-size="10.00"> m_pobTextureAtlas</text>
</g>
<!-- Node24 -->
<g id="node24" class="node">
<title>Node24</title>
<g id="a_node24"><a xlink:href="../../dd/d60/structcc_v3_f___c4_b___t2_f___quad.html" target="_top" xlink:title="4 ccVertex3FTex2FColor4B">
<polygon fill="white" stroke="#666666" points="872.5,-833.95 747.5,-833.95 747.5,-814.95 872.5,-814.95 872.5,-833.95"/>
<text text-anchor="middle" x="810" y="-821.95" font-family="Helvetica,sans-Serif" font-size="10.00">ccV3F_C4B_T2F_Quad</text>
</a>
</g>
</g>
<!-- Node24&#45;&gt;Node17 -->
<g id="edge60" class="edge">
<title>Node24&#45;&gt;Node17</title>
<path fill="none" stroke="#9a32cd" stroke-dasharray="5,2" d="M882.91,-828.26C1000.69,-832.55 1241.1,-833.21 1436,-781.45 1484.9,-768.47 1505.43,-778.2 1544,-745.45 1571.42,-722.18 1585.79,-679.82 1591.08,-660.96"/>
<polygon fill="#9a32cd" stroke="#9a32cd" points="882.71,-824.75 872.59,-827.86 882.44,-831.74 882.71,-824.75"/>
<text text-anchor="middle" x="1253.5" y="-823.45" font-family="Helvetica,sans-Serif" font-size="10.00"> m_sQuad</text>
</g>
<!-- Node24&#45;&gt;Node23 -->
<g id="edge42" class="edge">
<title>Node24&#45;&gt;Node23</title>
<path fill="none" stroke="#9a32cd" stroke-dasharray="5,2" d="M880.18,-813.17C937.98,-803.14 1012.59,-788.55 1023,-778.45 1046.69,-755.5 1017.91,-730.01 1041,-706.45 1047.79,-699.53 1056.82,-695.05 1066.14,-692.18"/>
<polygon fill="#9a32cd" stroke="#9a32cd" points="879.24,-809.78 869.97,-814.93 880.42,-816.68 879.24,-809.78"/>
<text text-anchor="middle" x="959" y="-812.45" font-family="Helvetica,sans-Serif" font-size="10.00"> m_pQuads</text>
</g>
<!-- Node25 -->
<g id="node25" class="node">
<title>Node25</title>
<g id="a_node25"><a xlink:href="../../d7/de4/structcc_v3_f___c4_b___t2_f.html" target="_top" xlink:title="a Point with a vertex point, a tex coord point and a color 4B">
<polygon fill="white" stroke="#666666" points="580,-844.95 486,-844.95 486,-825.95 580,-825.95 580,-844.95"/>
<text text-anchor="middle" x="533" y="-832.95" font-family="Helvetica,sans-Serif" font-size="10.00">ccV3F_C4B_T2F</text>
</a>
</g>
</g>
<!-- Node25&#45;&gt;Node24 -->
<g id="edge43" class="edge">
<title>Node25&#45;&gt;Node24</title>
<path fill="none" stroke="#9a32cd" stroke-dasharray="5,2" d="M590.06,-833.21C635.75,-831.39 700.19,-828.81 747.33,-826.92"/>
<polygon fill="#9a32cd" stroke="#9a32cd" points="589.88,-829.72 580.03,-833.61 590.16,-836.71 589.88,-829.72"/>
<text text-anchor="middle" x="663" y="-868.45" font-family="Helvetica,sans-Serif" font-size="10.00"> bl</text>
<text text-anchor="middle" x="663" y="-857.45" font-family="Helvetica,sans-Serif" font-size="10.00">br</text>
<text text-anchor="middle" x="663" y="-846.45" font-family="Helvetica,sans-Serif" font-size="10.00">tl</text>
<text text-anchor="middle" x="663" y="-835.45" font-family="Helvetica,sans-Serif" font-size="10.00">tr</text>
</g>
<!-- Node26 -->
<g id="node26" class="node">
<title>Node26</title>
<g id="a_node26"><a xlink:href="../../d3/d87/structcc_vertex3_f.html" target="_top" xlink:title="A vertex composed of 2 floats: x, y.">
<polygon fill="white" stroke="#666666" points="340.5,-885.95 269.5,-885.95 269.5,-866.95 340.5,-866.95 340.5,-885.95"/>
<text text-anchor="middle" x="305" y="-873.95" font-family="Helvetica,sans-Serif" font-size="10.00">ccVertex3F</text>
</a>
</g>
</g>
<!-- Node26&#45;&gt;Node25 -->
<g id="edge44" class="edge">
<title>Node26&#45;&gt;Node25</title>
<path fill="none" stroke="#9a32cd" stroke-dasharray="5,2" d="M350.54,-870.93C382.53,-866.67 426.6,-860.2 465,-852.45 475.47,-850.34 486.76,-847.64 497.03,-845.02"/>
<polygon fill="#9a32cd" stroke="#9a32cd" points="350.06,-867.46 340.6,-872.23 350.97,-874.4 350.06,-867.46"/>
<text text-anchor="middle" x="415" y="-871.45" font-family="Helvetica,sans-Serif" font-size="10.00"> vertices</text>
</g>
<!-- Node27 -->
<g id="node27" class="node">
<title>Node27</title>
<g id="a_node27"><a xlink:href="../../d2/dd4/structcc_color4_b.html" target="_top" xlink:title="RGBA color composed of 4 bytes.">
<polygon fill="white" stroke="#666666" points="337.5,-848.95 272.5,-848.95 272.5,-829.95 337.5,-829.95 337.5,-848.95"/>
<text text-anchor="middle" x="305" y="-836.95" font-family="Helvetica,sans-Serif" font-size="10.00">ccColor4B</text>
</a>
</g>
</g>
<!-- Node27&#45;&gt;Node25 -->
<g id="edge45" class="edge">
<title>Node27&#45;&gt;Node25</title>
<path fill="none" stroke="#9a32cd" stroke-dasharray="5,2" d="M347.9,-838.71C387.03,-838.02 445.3,-836.99 485.77,-836.27"/>
<polygon fill="#9a32cd" stroke="#9a32cd" points="347.84,-835.21 337.9,-838.89 347.96,-842.21 347.84,-835.21"/>
<text text-anchor="middle" x="415" y="-840.45" font-family="Helvetica,sans-Serif" font-size="10.00"> colors</text>
</g>
<!-- Node28 -->
<g id="node28" class="node">
<title>Node28</title>
<g id="a_node28"><a xlink:href="../../d0/d46/structcc_tex2_f.html" target="_top" xlink:title="A texcoord composed of 2 floats: u, y.">
<polygon fill="white" stroke="#666666" points="333,-811.95 277,-811.95 277,-792.95 333,-792.95 333,-811.95"/>
<text text-anchor="middle" x="305" y="-799.95" font-family="Helvetica,sans-Serif" font-size="10.00">ccTex2F</text>
</a>
</g>
</g>
<!-- Node28&#45;&gt;Node25 -->
<g id="edge46" class="edge">
<title>Node28&#45;&gt;Node25</title>
<path fill="none" stroke="#9a32cd" stroke-dasharray="5,2" d="M343.44,-806C375.74,-809.28 423.59,-814.67 465,-821.45 472.86,-822.74 481.19,-824.32 489.21,-825.94"/>
<polygon fill="#9a32cd" stroke="#9a32cd" points="343.41,-802.48 333.11,-804.97 342.71,-809.44 343.41,-802.48"/>
<text text-anchor="middle" x="415" y="-824.45" font-family="Helvetica,sans-Serif" font-size="10.00"> texCoords</text>
</g>
<!-- Node29&#45;&gt;Node17 -->
<g id="edge47" class="edge">
<title>Node29&#45;&gt;Node17</title>
<path fill="none" stroke="#9a32cd" stroke-dasharray="5,2" d="M1446.22,-443.67C1479.46,-449.08 1518.2,-460.93 1544,-486.45 1588.65,-530.63 1593.35,-613.36 1593.6,-641.67"/>
<polygon fill="#9a32cd" stroke="#9a32cd" points="1446.5,-440.17 1436.1,-442.19 1445.49,-447.1 1446.5,-440.17"/>
<text text-anchor="middle" x="1499" y="-489.45" font-family="Helvetica,sans-Serif" font-size="10.00"> m_pobBatchNode</text>
</g>
<!-- Node30 -->
<g id="node30" class="node">
<title>Node30</title>
<g id="a_node30"><a xlink:href="../../d6/d45/structcc_blend_func.html" target="_top" xlink:title="Blend Function used for textures.">
<polygon fill="white" stroke="#666666" points="1150.5,-475.95 1073.5,-475.95 1073.5,-456.95 1150.5,-456.95 1150.5,-475.95"/>
<text text-anchor="middle" x="1112" y="-463.95" font-family="Helvetica,sans-Serif" font-size="10.00">ccBlendFunc</text>
</a>
</g>
</g>
<!-- Node30&#45;&gt;Node17 -->
<g id="edge54" class="edge">
<title>Node30&#45;&gt;Node17</title>
<path fill="none" stroke="#9a32cd" stroke-dasharray="5,2" d="M1145.4,-479.79C1161.81,-486.05 1182.19,-493.08 1201,-497.45 1350.98,-532.36 1422.46,-451.9 1544,-546.45 1575.65,-571.08 1588.01,-620.87 1591.94,-641.82"/>
<polygon fill="#9a32cd" stroke="#9a32cd" points="1146.34,-476.4 1135.75,-476.03 1143.79,-482.92 1146.34,-476.4"/>
<text text-anchor="middle" x="1380" y="-507.45" font-family="Helvetica,sans-Serif" font-size="10.00"> m_sBlendFunc</text>
</g>
<!-- Node30&#45;&gt;Node29 -->
<g id="edge51" class="edge">
<title>Node30&#45;&gt;Node29</title>
<path fill="none" stroke="#9a32cd" stroke-dasharray="5,2" d="M1137.97,-452.02C1155.08,-442.98 1178.65,-432.18 1201,-427.45 1246.15,-417.9 1299.04,-423.53 1335.37,-429.91"/>
<polygon fill="#9a32cd" stroke="#9a32cd" points="1136.28,-448.95 1129.17,-456.81 1139.62,-455.1 1136.28,-448.95"/>
<text text-anchor="middle" x="1253.5" y="-430.45" font-family="Helvetica,sans-Serif" font-size="10.00"> m_blendFunc</text>
</g>
<!-- Node31&#45;&gt;Node17 -->
<g id="edge56" class="edge">
<title>Node31&#45;&gt;Node17</title>
<path fill="none" stroke="#9a32cd" stroke-dasharray="5,2" d="M846.3,-676.24C914.71,-672.03 1070.13,-662.79 1201,-657.45 1313.39,-652.87 1341.52,-652.01 1454,-650.45 1494,-649.9 1504,-650.05 1544,-650.45 1550.79,-650.52 1558.1,-650.64 1564.97,-650.78"/>
<polygon fill="#9a32cd" stroke="#9a32cd" points="845.85,-672.77 836.08,-676.88 846.28,-679.75 845.85,-672.77"/>
<text text-anchor="middle" x="1253.5" y="-660.45" font-family="Helvetica,sans-Serif" font-size="10.00"> m_obRect</text>
</g>
<!-- Node32&#45;&gt;Node1 -->
<g id="edge62" class="edge">
<title>Node32&#45;&gt;Node1</title>
<path fill="none" stroke="#9a32cd" stroke-dasharray="5,2" d="M345.71,-945.53C390.66,-954.99 466.19,-968.45 532,-968.45 532,-968.45 532,-968.45 1595.5,-968.45 1661.27,-968.45 1680.8,-941.27 1720,-888.45 1775.33,-813.91 1785.36,-695.45 1787.13,-661.09"/>
<polygon fill="#9a32cd" stroke="#9a32cd" points="346.3,-942.07 335.79,-943.4 344.83,-948.92 346.3,-942.07"/>
<text text-anchor="middle" x="1112" y="-971.45" font-family="Helvetica,sans-Serif" font-size="10.00"> m_pUITextureImage</text>
</g>
<!-- Node33 -->
<g id="node33" class="node">
<title>Node33</title>
<g id="a_node33"><a xlink:href="../../d2/d73/classcocos2d_1_1_c_c_free_type_font.html" target="_top" xlink:title=" ">
<polygon fill="white" stroke="#666666" points="202,-945.95 107,-945.95 107,-926.95 202,-926.95 202,-945.95"/>
<text text-anchor="middle" x="154.5" y="-933.95" font-family="Helvetica,sans-Serif" font-size="10.00">CCFreeTypeFont</text>
</a>
</g>
</g>
<!-- Node33&#45;&gt;Node32 -->
<g id="edge64" class="edge">
<title>Node33&#45;&gt;Node32</title>
<path fill="none" stroke="#9a32cd" stroke-dasharray="5,2" d="M212.28,-936.45C233.46,-936.45 256.65,-936.45 274.41,-936.45"/>
<polygon fill="#9a32cd" stroke="#9a32cd" points="212.08,-932.95 202.08,-936.45 212.08,-939.95 212.08,-932.95"/>
<text text-anchor="middle" x="232.5" y="-939.45" font-family="Helvetica,sans-Serif" font-size="10.00"> m_ft</text>
</g>
<!-- Node34 -->
<g id="node34" class="node">
<title>Node34</title>
<g id="a_node34"><a xlink:href="../../d7/d4d/structcc_color4_f.html" target="_top" xlink:title="RGBA color composed of 4 floats.">
<polygon fill="white" stroke="#666666" points="1627,-305.95 1562,-305.95 1562,-286.95 1627,-286.95 1627,-305.95"/>
<text text-anchor="middle" x="1594.5" y="-293.95" font-family="Helvetica,sans-Serif" font-size="10.00">ccColor4F</text>
</a>
</g>
</g>
<!-- Node34&#45;&gt;Node1 -->
<g id="edge65" class="edge">
<title>Node34&#45;&gt;Node1</title>
<path fill="none" stroke="#9a32cd" stroke-dasharray="5,2" d="M1637.3,-289.23C1664.2,-287.09 1698.11,-289.47 1720,-309.45 1770.95,-355.98 1784.69,-590.91 1787.08,-641.75"/>
<polygon fill="#9a32cd" stroke="#9a32cd" points="1636.59,-285.78 1627,-290.29 1637.31,-292.75 1636.59,-285.78"/>
<text text-anchor="middle" x="1682.5" y="-312.45" font-family="Helvetica,sans-Serif" font-size="10.00"> m_sClearColor</text>
</g>
</g>
</svg>
