<?xml version="1.0" encoding="UTF-8" standalone="no"?>
<!DOCTYPE svg PUBLIC "-//W3C//DTD SVG 1.1//EN"
 "http://www.w3.org/Graphics/SVG/1.1/DTD/svg11.dtd">
<!-- Generated by graphviz version 2.43.0 (0)
 -->
<!-- Title: /home/runner/work/cocos&#45;headers/cocos&#45;headers/cocos2dx/cocoa/CCSet.h Pages: 1 -->
<svg width="347pt" height="379pt"
 viewBox="0.00 0.00 347.00 379.00" xmlns="http://www.w3.org/2000/svg" xmlns:xlink="http://www.w3.org/1999/xlink">
<g id="graph0" class="graph" transform="scale(1 1) rotate(0) translate(4 375)">
<title>/home/runner/work/cocos&#45;headers/cocos&#45;headers/cocos2dx/cocoa/CCSet.h</title>
<!-- Node1 -->
<g id="node1" class="node">
<title>Node1</title>
<g id="a_node1"><a xlink:title=" ">
<polygon fill="#999999" stroke="#666666" points="140,-371 0,-371 0,-330 140,-330 140,-371"/>
<text text-anchor="start" x="8" y="-359" font-family="Helvetica,sans-Serif" font-size="10.00">/home/runner/work/cocos</text>
<text text-anchor="start" x="8" y="-348" font-family="Helvetica,sans-Serif" font-size="10.00">&#45;headers/cocos&#45;headers</text>
<text text-anchor="middle" x="70" y="-337" font-family="Helvetica,sans-Serif" font-size="10.00">/cocos2dx/cocoa/CCSet.h</text>
</a>
</g>
</g>
<!-- Node2 -->
<g id="node2" class="node">
<title>Node2</title>
<g id="a_node2"><a xlink:title=" ">
<polygon fill="#e0e0e0" stroke="#999999" points="51,-294 19,-294 19,-275 51,-275 51,-294"/>
<text text-anchor="middle" x="35" y="-282" font-family="Helvetica,sans-Serif" font-size="10.00">set</text>
</a>
</g>
</g>
<!-- Node1&#45;&gt;Node2 -->
<g id="edge1" class="edge">
<title>Node1&#45;&gt;Node2</title>
<path fill="none" stroke="#63b8ff" d="M59.31,-329.95C54.63,-321.39 49.18,-311.42 44.62,-303.1"/>
<polygon fill="#63b8ff" stroke="#63b8ff" points="47.66,-301.35 39.79,-294.26 41.52,-304.71 47.66,-301.35"/>
</g>
<!-- Node3 -->
<g id="node3" class="node">
<title>Node3</title>
<g id="a_node3"><a xlink:href="../../dd/d69/_c_c_object_8h.html" target="_top" xlink:title=" ">
<polygon fill="white" stroke="#666666" points="140.5,-294 69.5,-294 69.5,-275 140.5,-275 140.5,-294"/>
<text text-anchor="middle" x="105" y="-282" font-family="Helvetica,sans-Serif" font-size="10.00">CCObject.h</text>
</a>
</g>
</g>
<!-- Node1&#45;&gt;Node3 -->
<g id="edge2" class="edge">
<title>Node1&#45;&gt;Node3</title>
<path fill="none" stroke="#63b8ff" d="M80.69,-329.95C85.37,-321.39 90.82,-311.42 95.38,-303.1"/>
<polygon fill="#63b8ff" stroke="#63b8ff" points="98.48,-304.71 100.21,-294.26 92.34,-301.35 98.48,-304.71"/>
</g>
<!-- Node4 -->
<g id="node4" class="node">
<title>Node4</title>
<g id="a_node4"><a xlink:href="../../d9/d2d/_c_c_data_visitor_8h.html" target="_top" xlink:title=" ">
<polygon fill="white" stroke="#666666" points="99.5,-239 6.5,-239 6.5,-220 99.5,-220 99.5,-239"/>
<text text-anchor="middle" x="53" y="-227" font-family="Helvetica,sans-Serif" font-size="10.00">CCDataVisitor.h</text>
</a>
</g>
</g>
<!-- Node3&#45;&gt;Node4 -->
<g id="edge3" class="edge">
<title>Node3&#45;&gt;Node4</title>
<path fill="none" stroke="#63b8ff" d="M96.41,-274.75C88.84,-267.03 77.62,-255.6 68.49,-246.28"/>
<polygon fill="#63b8ff" stroke="#63b8ff" points="70.93,-243.78 61.43,-239.09 65.93,-248.68 70.93,-243.78"/>
</g>
<!-- Node10 -->
<g id="node10" class="node">
<title>Node10</title>
<g id="a_node10"><a xlink:href="../../d9/dc8/cc_macros_8h.html" target="_top" xlink:title=" ">
<polygon fill="white" stroke="#666666" points="238.5,-239 167.5,-239 167.5,-220 238.5,-220 238.5,-239"/>
<text text-anchor="middle" x="203" y="-227" font-family="Helvetica,sans-Serif" font-size="10.00">ccMacros.h</text>
</a>
</g>
</g>
<!-- Node3&#45;&gt;Node10 -->
<g id="edge10" class="edge">
<title>Node3&#45;&gt;Node10</title>
<path fill="none" stroke="#63b8ff" d="M120.75,-274.98C136.23,-266.61 160.09,-253.7 178.14,-243.95"/>
<polygon fill="#63b8ff" stroke="#63b8ff" points="179.84,-247.01 186.97,-239.17 176.51,-240.85 179.84,-247.01"/>
</g>
<!-- Node5 -->
<g id="node5" class="node">
<title>Node5</title>
<g id="a_node5"><a xlink:href="../../d3/d41/_c_c_platform_macros_8h.html" target="_top" xlink:title=" ">
<polygon fill="white" stroke="#666666" points="220.5,-129 59.5,-129 59.5,-110 220.5,-110 220.5,-129"/>
<text text-anchor="middle" x="140" y="-117" font-family="Helvetica,sans-Serif" font-size="10.00">platform/CCPlatformMacros.h</text>
</a>
</g>
</g>
<!-- Node4&#45;&gt;Node5 -->
<g id="edge4" class="edge">
<title>Node4&#45;&gt;Node5</title>
<path fill="none" stroke="#63b8ff" d="M43.1,-219.84C29.87,-207.18 9.44,-183.16 22,-165 33.08,-148.98 50.72,-138.71 69.01,-132.15"/>
<polygon fill="#63b8ff" stroke="#63b8ff" points="70.17,-135.45 78.61,-129.04 68.02,-128.79 70.17,-135.45"/>
</g>
<!-- Node9 -->
<g id="node9" class="node">
<title>Node9</title>
<g id="a_node9"><a xlink:title=" ">
<polygon fill="#e0e0e0" stroke="#999999" points="75,-184 31,-184 31,-165 75,-165 75,-184"/>
<text text-anchor="middle" x="53" y="-172" font-family="Helvetica,sans-Serif" font-size="10.00">string</text>
</a>
</g>
</g>
<!-- Node4&#45;&gt;Node9 -->
<g id="edge9" class="edge">
<title>Node4&#45;&gt;Node9</title>
<path fill="none" stroke="#63b8ff" d="M53,-219.75C53,-212.8 53,-202.85 53,-194.13"/>
<polygon fill="#63b8ff" stroke="#63b8ff" points="56.5,-194.09 53,-184.09 49.5,-194.09 56.5,-194.09"/>
</g>
<!-- Node6 -->
<g id="node6" class="node">
<title>Node6</title>
<g id="a_node6"><a xlink:href="../../db/d9f/cc_config_8h.html" target="_top" xlink:title="cocos2d (cc) configuration file">
<polygon fill="white" stroke="#666666" points="282.5,-74 215.5,-74 215.5,-55 282.5,-55 282.5,-74"/>
<text text-anchor="middle" x="249" y="-62" font-family="Helvetica,sans-Serif" font-size="10.00">ccConfig.h</text>
</a>
</g>
</g>
<!-- Node5&#45;&gt;Node6 -->
<g id="edge5" class="edge">
<title>Node5&#45;&gt;Node6</title>
<path fill="none" stroke="#63b8ff" d="M157.51,-109.98C174.97,-101.5 202.01,-88.35 222.17,-78.54"/>
<polygon fill="#63b8ff" stroke="#63b8ff" points="223.71,-81.69 231.17,-74.17 220.64,-75.4 223.71,-81.69"/>
</g>
<!-- Node7 -->
<g id="node7" class="node">
<title>Node7</title>
<g id="a_node7"><a xlink:href="../../dd/d96/_c_c_platform_config_8h.html" target="_top" xlink:title=" ">
<polygon fill="white" stroke="#666666" points="230.5,-19 73.5,-19 73.5,0 230.5,0 230.5,-19"/>
<text text-anchor="middle" x="152" y="-7" font-family="Helvetica,sans-Serif" font-size="10.00">platform/CCPlatformConfig.h</text>
</a>
</g>
</g>
<!-- Node5&#45;&gt;Node7 -->
<g id="edge7" class="edge">
<title>Node5&#45;&gt;Node7</title>
<path fill="none" stroke="#63b8ff" d="M118.8,-109.87C95.05,-98.85 61.52,-78.37 75,-55 83.42,-40.41 98.65,-30.17 113.35,-23.23"/>
<polygon fill="#63b8ff" stroke="#63b8ff" points="115.07,-26.3 122.86,-19.13 112.29,-19.87 115.07,-26.3"/>
</g>
<!-- Node8 -->
<g id="node8" class="node">
<title>Node8</title>
<g id="a_node8"><a xlink:title=" ">
<polygon fill="#e0e0e0" stroke="#999999" points="197.5,-74 84.5,-74 84.5,-55 197.5,-55 197.5,-74"/>
<text text-anchor="middle" x="141" y="-62" font-family="Helvetica,sans-Serif" font-size="10.00">CCPlatformDefine.h</text>
</a>
</g>
</g>
<!-- Node5&#45;&gt;Node8 -->
<g id="edge8" class="edge">
<title>Node5&#45;&gt;Node8</title>
<path fill="none" stroke="#63b8ff" d="M140.17,-109.75C140.3,-102.8 140.48,-92.85 140.65,-84.13"/>
<polygon fill="#63b8ff" stroke="#63b8ff" points="144.15,-84.15 140.84,-74.09 137.15,-84.02 144.15,-84.15"/>
</g>
<!-- Node6&#45;&gt;Node7 -->
<g id="edge6" class="edge">
<title>Node6&#45;&gt;Node7</title>
<path fill="none" stroke="#63b8ff" d="M233.42,-54.98C218.23,-46.69 194.9,-33.94 177.1,-24.22"/>
<polygon fill="#63b8ff" stroke="#63b8ff" points="178.32,-20.89 167.87,-19.17 174.97,-27.04 178.32,-20.89"/>
</g>
<!-- Node10&#45;&gt;Node6 -->
<g id="edge14" class="edge">
<title>Node10&#45;&gt;Node6</title>
<path fill="none" stroke="#63b8ff" d="M209.68,-219.82C215.94,-211.21 225.08,-197.4 230,-184 242.41,-150.22 246.73,-108.07 248.22,-84.23"/>
<polygon fill="#63b8ff" stroke="#63b8ff" points="251.72,-84.28 248.75,-74.12 244.73,-83.92 251.72,-84.28"/>
</g>
<!-- Node11 -->
<g id="node11" class="node">
<title>Node11</title>
<g id="a_node11"><a xlink:href="../../d5/d22/_c_c_common_8h.html" target="_top" xlink:title=" ">
<polygon fill="white" stroke="#666666" points="221,-184 93,-184 93,-165 221,-165 221,-184"/>
<text text-anchor="middle" x="157" y="-172" font-family="Helvetica,sans-Serif" font-size="10.00">platform/CCCommon.h</text>
</a>
</g>
</g>
<!-- Node10&#45;&gt;Node11 -->
<g id="edge11" class="edge">
<title>Node10&#45;&gt;Node11</title>
<path fill="none" stroke="#63b8ff" d="M195.4,-219.75C188.84,-212.18 179.18,-201.05 171.19,-191.84"/>
<polygon fill="#63b8ff" stroke="#63b8ff" points="173.65,-189.35 164.45,-184.09 168.37,-193.94 173.65,-189.35"/>
</g>
<!-- Node12 -->
<g id="node12" class="node">
<title>Node12</title>
<g id="a_node12"><a xlink:title=" ">
<polygon fill="#e0e0e0" stroke="#999999" points="339,-184 277,-184 277,-165 339,-165 339,-184"/>
<text text-anchor="middle" x="308" y="-172" font-family="Helvetica,sans-Serif" font-size="10.00">CCStdC.h</text>
</a>
</g>
</g>
<!-- Node10&#45;&gt;Node12 -->
<g id="edge13" class="edge">
<title>Node10&#45;&gt;Node12</title>
<path fill="none" stroke="#63b8ff" d="M219.87,-219.98C236.61,-211.54 262.5,-198.47 281.89,-188.68"/>
<polygon fill="#63b8ff" stroke="#63b8ff" points="283.47,-191.8 290.82,-184.17 280.32,-185.55 283.47,-191.8"/>
</g>
<!-- Node11&#45;&gt;Node5 -->
<g id="edge12" class="edge">
<title>Node11&#45;&gt;Node5</title>
<path fill="none" stroke="#63b8ff" d="M154.19,-164.75C151.94,-157.72 148.7,-147.62 145.88,-138.84"/>
<polygon fill="#63b8ff" stroke="#63b8ff" points="149.14,-137.54 142.75,-129.09 142.48,-139.68 149.14,-137.54"/>
</g>
</g>
</svg>
