<?xml version="1.0" encoding="UTF-8" standalone="no"?>
<!DOCTYPE svg PUBLIC "-//W3C//DTD SVG 1.1//EN"
 "http://www.w3.org/Graphics/SVG/1.1/DTD/svg11.dtd">
<!-- Generated by graphviz version 2.43.0 (0)
 -->
<!-- Title: CCCardinalSplineTo Pages: 1 -->
<svg width="1763pt" height="738pt"
 viewBox="0.00 0.00 1763.00 738.00" xmlns="http://www.w3.org/2000/svg" xmlns:xlink="http://www.w3.org/1999/xlink">
<g id="graph0" class="graph" transform="scale(1 1) rotate(0) translate(4 734)">
<title>CCCardinalSplineTo</title>
<!-- Node1 -->
<g id="node1" class="node">
<title>Node1</title>
<g id="a_node1"><a xlink:title="Cardinal Spline path.">
<polygon fill="#bfbfbf" stroke="black" points="1644,-151.5 1644,-170.5 1755,-170.5 1755,-151.5 1644,-151.5"/>
<text text-anchor="middle" x="1699.5" y="-158.5" font-family="Helvetica,sans-Serif" font-size="10.00">CCCardinalSplineTo</text>
</a>
</g>
</g>
<!-- Node2 -->
<g id="node2" class="node">
<title>Node2</title>
<g id="a_node2"><a xlink:href="../../dd/d8d/classcocos2d_1_1_c_c_action_interval.html" target="_top" xlink:title="An interval action is an action that takes place within a certain period of time.">
<polygon fill="none" stroke="black" points="1509,-189.5 1509,-208.5 1607,-208.5 1607,-189.5 1509,-189.5"/>
<text text-anchor="middle" x="1558" y="-196.5" font-family="Helvetica,sans-Serif" font-size="10.00">CCActionInterval</text>
</a>
</g>
</g>
<!-- Node2&#45;&gt;Node1 -->
<g id="edge1" class="edge">
<title>Node2&#45;&gt;Node1</title>
<path fill="none" stroke="midnightblue" d="M1603.96,-186.75C1623.18,-181.52 1645.3,-175.49 1663.31,-170.59"/>
<polygon fill="midnightblue" stroke="midnightblue" points="1602.93,-183.41 1594.2,-189.41 1604.77,-190.16 1602.93,-183.41"/>
</g>
<!-- Node3 -->
<g id="node3" class="node">
<title>Node3</title>
<g id="a_node3"><a xlink:href="../../dd/d89/classcocos2d_1_1_c_c_finite_time_action.html" target="_top" xlink:title="Base class actions that do have a finite time duration.">
<polygon fill="none" stroke="black" points="1359,-232.5 1359,-251.5 1472,-251.5 1472,-232.5 1359,-232.5"/>
<text text-anchor="middle" x="1415.5" y="-239.5" font-family="Helvetica,sans-Serif" font-size="10.00">CCFiniteTimeAction</text>
</a>
</g>
</g>
<!-- Node3&#45;&gt;Node2 -->
<g id="edge2" class="edge">
<title>Node3&#45;&gt;Node2</title>
<path fill="none" stroke="midnightblue" d="M1457.36,-229.49C1479.23,-222.8 1505.73,-214.69 1525.91,-208.52"/>
<polygon fill="midnightblue" stroke="midnightblue" points="1456.22,-226.18 1447.68,-232.46 1458.27,-232.88 1456.22,-226.18"/>
</g>
<!-- Node4 -->
<g id="node4" class="node">
<title>Node4</title>
<g id="a_node4"><a xlink:href="../../d7/d12/classcocos2d_1_1_c_c_action.html" target="_top" xlink:title="Base class for CCAction objects.">
<polygon fill="none" stroke="black" points="1188,-291.5 1188,-310.5 1249,-310.5 1249,-291.5 1188,-291.5"/>
<text text-anchor="middle" x="1218.5" y="-298.5" font-family="Helvetica,sans-Serif" font-size="10.00">CCAction</text>
</a>
</g>
</g>
<!-- Node4&#45;&gt;Node3 -->
<g id="edge3" class="edge">
<title>Node4&#45;&gt;Node3</title>
<path fill="none" stroke="midnightblue" d="M1258.94,-289.07C1295.51,-278 1349.2,-261.76 1382.99,-251.54"/>
<polygon fill="midnightblue" stroke="midnightblue" points="1257.67,-285.79 1249.12,-292.04 1259.7,-292.49 1257.67,-285.79"/>
</g>
<!-- Node5 -->
<g id="node5" class="node">
<title>Node5</title>
<g id="a_node5"><a xlink:href="../../d3/dbf/classcocos2d_1_1_c_c_object.html" target="_top" xlink:title="NA.">
<polygon fill="none" stroke="black" points="107,-349.5 107,-368.5 169,-368.5 169,-349.5 107,-349.5"/>
<text text-anchor="middle" x="138" y="-356.5" font-family="Helvetica,sans-Serif" font-size="10.00">CCObject</text>
</a>
</g>
</g>
<!-- Node5&#45;&gt;Node4 -->
<g id="edge4" class="edge">
<title>Node5&#45;&gt;Node4</title>
<path fill="none" stroke="midnightblue" d="M140.41,-378.74C146.44,-455.52 173.14,-730 247,-730 247,-730 247,-730 1013,-730 1205.24,-730 1216.95,-374.62 1217.5,-310.77"/>
<polygon fill="midnightblue" stroke="midnightblue" points="143.89,-378.25 139.64,-368.54 136.91,-378.78 143.89,-378.25"/>
</g>
<!-- Node7 -->
<g id="node7" class="node">
<title>Node7</title>
<g id="a_node7"><a xlink:href="../../d0/ded/classcocos2d_1_1_c_c_node.html" target="_top" xlink:title="CCNode is the main element.">
<polygon fill="none" stroke="black" points="984,-291.5 984,-310.5 1040,-310.5 1040,-291.5 984,-291.5"/>
<text text-anchor="middle" x="1012" y="-298.5" font-family="Helvetica,sans-Serif" font-size="10.00">CCNode</text>
</a>
</g>
</g>
<!-- Node5&#45;&gt;Node7 -->
<g id="edge7" class="edge">
<title>Node5&#45;&gt;Node7</title>
<path fill="none" stroke="midnightblue" d="M152.02,-341.19C164.31,-325.58 184.07,-303.37 206,-290 291.12,-238.09 457.25,-207.46 686,-180 809.58,-165.17 864.26,-103.3 966,-175 1004.92,-202.43 1010.36,-266.73 1010.99,-291.26"/>
<polygon fill="midnightblue" stroke="midnightblue" points="148.97,-339.42 145.69,-349.49 154.54,-343.66 148.97,-339.42"/>
</g>
<!-- Node5&#45;&gt;Node7 -->
<g id="edge28" class="edge">
<title>Node5&#45;&gt;Node7</title>
<path fill="none" stroke="#9a32cd" stroke-dasharray="5,2" d="M142.4,-339.03C153.69,-275.93 192.37,-85 247,-85 247,-85 247,-85 754,-85 851.12,-85 896.49,-70.17 966,-138 1010.12,-181.06 1012.14,-263.16 1011.44,-291.27"/>
<polygon fill="#9a32cd" stroke="#9a32cd" points="138.88,-338.79 140.61,-349.25 145.78,-340 138.88,-338.79"/>
<text text-anchor="middle" x="500" y="-88" font-family="Helvetica,sans-Serif" font-size="10.00"> m_pUserObject</text>
</g>
<!-- Node11 -->
<g id="node11" class="node">
<title>Node11</title>
<g id="a_node11"><a xlink:href="../../d2/d51/classcocos2d_1_1_c_c_camera.html" target="_top" xlink:title="A CCCamera is used in every CCNode.">
<polygon fill="none" stroke="black" points="584,-32.5 584,-51.5 652,-51.5 652,-32.5 584,-32.5"/>
<text text-anchor="middle" x="618" y="-39.5" font-family="Helvetica,sans-Serif" font-size="10.00">CCCamera</text>
</a>
</g>
</g>
<!-- Node5&#45;&gt;Node11 -->
<g id="edge12" class="edge">
<title>Node5&#45;&gt;Node11</title>
<path fill="none" stroke="midnightblue" d="M139.25,-339.1C140.44,-279.94 147.31,-106.99 187,-71 244.72,-18.67 493.08,-32.29 583.72,-39.19"/>
<polygon fill="midnightblue" stroke="midnightblue" points="135.75,-339.29 139.08,-349.34 142.74,-339.4 135.75,-339.29"/>
</g>
<!-- Node12 -->
<g id="node12" class="node">
<title>Node12</title>
<g id="a_node12"><a xlink:href="../../d6/d70/classcocos2d_1_1_c_c_grid_base.html" target="_top" xlink:title="Base class for other.">
<polygon fill="none" stroke="black" points="716,-516.5 716,-535.5 790,-535.5 790,-516.5 716,-516.5"/>
<text text-anchor="middle" x="753" y="-523.5" font-family="Helvetica,sans-Serif" font-size="10.00">CCGridBase</text>
</a>
</g>
</g>
<!-- Node5&#45;&gt;Node12 -->
<g id="edge14" class="edge">
<title>Node5&#45;&gt;Node12</title>
<path fill="none" stroke="midnightblue" d="M142.78,-378.79C149.75,-409.92 167.58,-470.27 206,-504 241.71,-535.34 261.17,-527.98 308,-536 465.71,-563.01 508.58,-552.62 668,-539 683.73,-537.66 700.99,-535.16 715.75,-532.72"/>
<polygon fill="midnightblue" stroke="midnightblue" points="146.15,-377.82 140.68,-368.74 139.3,-379.24 146.15,-377.82"/>
</g>
<!-- Node13 -->
<g id="node13" class="node">
<title>Node13</title>
<g id="a_node13"><a xlink:href="../../d7/dfd/classcocos2d_1_1_c_c_texture2_d.html" target="_top" xlink:title="CCTexture2D class.">
<polygon fill="none" stroke="black" points="460,-512.5 460,-531.5 540,-531.5 540,-512.5 460,-512.5"/>
<text text-anchor="middle" x="500" y="-519.5" font-family="Helvetica,sans-Serif" font-size="10.00">CCTexture2D</text>
</a>
</g>
</g>
<!-- Node5&#45;&gt;Node13 -->
<g id="edge17" class="edge">
<title>Node5&#45;&gt;Node13</title>
<path fill="none" stroke="midnightblue" d="M146.13,-378.24C156.05,-402.54 176.22,-444.19 206,-469 279.09,-529.87 398.48,-530.62 459.85,-526.23"/>
<polygon fill="midnightblue" stroke="midnightblue" points="149.3,-376.74 142.4,-368.7 142.78,-379.28 149.3,-376.74"/>
</g>
<!-- Node14 -->
<g id="node14" class="node">
<title>Node14</title>
<g id="a_node14"><a xlink:href="../../db/d28/classcocos2d_1_1_c_c_g_l_program.html" target="_top" xlink:title="CCGLProgram Class that implements a glProgram.">
<polygon fill="none" stroke="black" points="206,-440.5 206,-459.5 290,-459.5 290,-440.5 206,-440.5"/>
<text text-anchor="middle" x="248" y="-447.5" font-family="Helvetica,sans-Serif" font-size="10.00">CCGLProgram</text>
</a>
</g>
</g>
<!-- Node5&#45;&gt;Node14 -->
<g id="edge20" class="edge">
<title>Node5&#45;&gt;Node14</title>
<path fill="none" stroke="midnightblue" d="M158.43,-375.37C180.9,-394.3 217.15,-424.85 235.53,-440.33"/>
<polygon fill="midnightblue" stroke="midnightblue" points="160.46,-372.51 150.56,-368.74 155.95,-377.86 160.46,-372.51"/>
</g>
<!-- Node15 -->
<g id="node15" class="node">
<title>Node15</title>
<g id="a_node15"><a xlink:href="../../d3/d89/classcocos2d_1_1_c_c_grabber.html" target="_top" xlink:title="FBO class that grabs the the contents of the screen NA NA.">
<polygon fill="none" stroke="black" points="335.5,-673.5 335.5,-692.5 404.5,-692.5 404.5,-673.5 335.5,-673.5"/>
<text text-anchor="middle" x="370" y="-680.5" font-family="Helvetica,sans-Serif" font-size="10.00">CCGrabber</text>
</a>
</g>
</g>
<!-- Node5&#45;&gt;Node15 -->
<g id="edge23" class="edge">
<title>Node5&#45;&gt;Node15</title>
<path fill="none" stroke="midnightblue" d="M141.05,-378.83C147.4,-436.31 168.57,-601.28 206,-638 240.68,-672.02 298.65,-680.86 335.29,-682.86"/>
<polygon fill="midnightblue" stroke="midnightblue" points="144.5,-378.13 139.95,-368.56 137.53,-378.87 144.5,-378.13"/>
</g>
<!-- Node16 -->
<g id="node16" class="node">
<title>Node16</title>
<g id="a_node16"><a xlink:href="../../d9/d2e/classcocos2d_1_1_c_c_array.html" target="_top" xlink:title="NA.">
<polygon fill="none" stroke="black" points="220,-368.5 220,-387.5 276,-387.5 276,-368.5 220,-368.5"/>
<text text-anchor="middle" x="248" y="-375.5" font-family="Helvetica,sans-Serif" font-size="10.00">CCArray</text>
</a>
</g>
</g>
<!-- Node5&#45;&gt;Node16 -->
<g id="edge26" class="edge">
<title>Node5&#45;&gt;Node16</title>
<path fill="none" stroke="midnightblue" d="M179.11,-366.06C192.62,-368.43 207.37,-371.03 219.66,-373.19"/>
<polygon fill="midnightblue" stroke="midnightblue" points="179.54,-362.58 169.08,-364.29 178.33,-369.47 179.54,-362.58"/>
</g>
<!-- Node17 -->
<g id="node17" class="node">
<title>Node17</title>
<g id="a_node17"><a xlink:href="../../de/dee/classcocos2d_1_1_c_c_scheduler.html" target="_top" xlink:title="Scheduler is responsible for triggering the scheduled callbacks.">
<polygon fill="none" stroke="black" points="461,-351.5 461,-370.5 539,-370.5 539,-351.5 461,-351.5"/>
<text text-anchor="middle" x="500" y="-358.5" font-family="Helvetica,sans-Serif" font-size="10.00">CCScheduler</text>
</a>
</g>
</g>
<!-- Node5&#45;&gt;Node17 -->
<g id="edge31" class="edge">
<title>Node5&#45;&gt;Node17</title>
<path fill="none" stroke="midnightblue" d="M179.3,-358.9C209.71,-358.84 252.48,-358.82 290,-359 349.69,-359.29 418.97,-360.03 460.86,-360.53"/>
<polygon fill="midnightblue" stroke="midnightblue" points="179.08,-355.4 169.08,-358.92 179.09,-362.4 179.08,-355.4"/>
</g>
<!-- Node18 -->
<g id="node18" class="node">
<title>Node18</title>
<g id="a_node18"><a xlink:href="../../d5/dcb/classcocos2d_1_1_c_c_action_manager.html" target="_top" xlink:title="CCActionManager is a singleton that manages all the actions.">
<polygon fill="none" stroke="black" points="318,-268.5 318,-287.5 422,-287.5 422,-268.5 318,-268.5"/>
<text text-anchor="middle" x="370" y="-275.5" font-family="Helvetica,sans-Serif" font-size="10.00">CCActionManager</text>
</a>
</g>
</g>
<!-- Node5&#45;&gt;Node18 -->
<g id="edge34" class="edge">
<title>Node5&#45;&gt;Node18</title>
<path fill="none" stroke="midnightblue" d="M158.54,-343.29C166.91,-337.18 177.04,-330.57 187,-326 229.18,-306.65 280.56,-294 317.96,-286.57"/>
<polygon fill="midnightblue" stroke="midnightblue" points="156.39,-340.53 150.54,-349.37 160.62,-346.11 156.39,-340.53"/>
</g>
<!-- Node20 -->
<g id="node20" class="node">
<title>Node20</title>
<g id="a_node20"><a xlink:href="../../da/d0a/classcocos2d_1_1_c_c_point_array.html" target="_top" xlink:title="An Array that contain control points.">
<polygon fill="none" stroke="black" points="861.5,-1.5 861.5,-20.5 942.5,-20.5 942.5,-1.5 861.5,-1.5"/>
<text text-anchor="middle" x="902" y="-8.5" font-family="Helvetica,sans-Serif" font-size="10.00">CCPointArray</text>
</a>
</g>
</g>
<!-- Node5&#45;&gt;Node20 -->
<g id="edge37" class="edge">
<title>Node5&#45;&gt;Node20</title>
<path fill="none" stroke="midnightblue" d="M139.65,-339.05C141.77,-290.81 150.65,-164.63 187,-67 200.95,-29.54 207.03,0 247,0 247,0 247,0 619,0 705.48,0 806.76,-5.23 861.32,-8.48"/>
<polygon fill="midnightblue" stroke="midnightblue" points="136.14,-339.2 139.25,-349.33 143.13,-339.47 136.14,-339.2"/>
</g>
<!-- Node6 -->
<g id="node6" class="node">
<title>Node6</title>
<g id="a_node6"><a xlink:href="../../d5/d61/classcocos2d_1_1_c_c_copying.html" target="_top" xlink:title="NA NA.">
<polygon fill="none" stroke="black" points="0,-349.5 0,-368.5 70,-368.5 70,-349.5 0,-349.5"/>
<text text-anchor="middle" x="35" y="-356.5" font-family="Helvetica,sans-Serif" font-size="10.00">CCCopying</text>
</a>
</g>
</g>
<!-- Node6&#45;&gt;Node5 -->
<g id="edge5" class="edge">
<title>Node6&#45;&gt;Node5</title>
<path fill="none" stroke="midnightblue" d="M80.2,-359C89.22,-359 98.51,-359 106.9,-359"/>
<polygon fill="midnightblue" stroke="midnightblue" points="80.19,-355.5 70.19,-359 80.19,-362.5 80.19,-355.5"/>
</g>
<!-- Node7&#45;&gt;Node4 -->
<g id="edge6" class="edge">
<title>Node7&#45;&gt;Node4</title>
<path fill="none" stroke="#9a32cd" stroke-dasharray="5,2" d="M1050.19,-301C1089.75,-301 1151.53,-301 1187.91,-301"/>
<polygon fill="#9a32cd" stroke="#9a32cd" points="1050.16,-297.5 1040.16,-301 1050.16,-304.5 1050.16,-297.5"/>
<text text-anchor="middle" x="1104.5" y="-315" font-family="Helvetica,sans-Serif" font-size="10.00"> m_pOriginalTarget</text>
<text text-anchor="middle" x="1104.5" y="-304" font-family="Helvetica,sans-Serif" font-size="10.00">m_pTarget</text>
</g>
<!-- Node7&#45;&gt;Node7 -->
<g id="edge27" class="edge">
<title>Node7&#45;&gt;Node7</title>
<path fill="none" stroke="#9a32cd" stroke-dasharray="5,2" d="M994.96,-320.4C996.1,-325.31 1001.78,-329 1012,-329 1028.35,-329 1033.08,-319.57 1026.18,-310.76"/>
<polygon fill="#9a32cd" stroke="#9a32cd" points="998.34,-321.34 997.82,-310.76 991.62,-319.35 998.34,-321.34"/>
<text text-anchor="middle" x="1012" y="-332" font-family="Helvetica,sans-Serif" font-size="10.00"> m_pParent</text>
</g>
<!-- Node8 -->
<g id="node8" class="node">
<title>Node8</title>
<g id="a_node8"><a xlink:href="../../d2/df3/classcocos2d_1_1_c_c_point.html" target="_top" xlink:title="NA.">
<polygon fill="none" stroke="black" points="472.5,-311.5 472.5,-330.5 527.5,-330.5 527.5,-311.5 472.5,-311.5"/>
<text text-anchor="middle" x="500" y="-318.5" font-family="Helvetica,sans-Serif" font-size="10.00">CCPoint</text>
</a>
</g>
</g>
<!-- Node8&#45;&gt;Node1 -->
<g id="edge38" class="edge">
<title>Node8&#45;&gt;Node1</title>
<path fill="none" stroke="#9a32cd" stroke-dasharray="5,2" d="M537.69,-314.63C584.08,-306.25 659.03,-291.47 668,-282 699.65,-248.57 652.07,-211.11 686,-180 756.7,-115.17 805.07,-161 901,-161 901,-161 901,-161 1559,-161 1586.97,-161 1618.1,-161 1643.84,-161"/>
<polygon fill="#9a32cd" stroke="#9a32cd" points="536.92,-311.22 527.7,-316.42 538.16,-318.11 536.92,-311.22"/>
<text text-anchor="middle" x="1218.5" y="-175" font-family="Helvetica,sans-Serif" font-size="10.00"> m_accumulatedDiff</text>
<text text-anchor="middle" x="1218.5" y="-164" font-family="Helvetica,sans-Serif" font-size="10.00">m_previousPosition</text>
</g>
<!-- Node8&#45;&gt;Node7 -->
<g id="edge8" class="edge">
<title>Node8&#45;&gt;Node7</title>
<path fill="none" stroke="#9a32cd" stroke-dasharray="5,2" d="M537.97,-319.55C635.6,-315.72 898.71,-305.4 983.95,-302.06"/>
<polygon fill="#9a32cd" stroke="#9a32cd" points="537.56,-316.06 527.7,-319.95 537.83,-323.06 537.56,-316.06"/>
<text text-anchor="middle" x="753" y="-339" font-family="Helvetica,sans-Serif" font-size="10.00"> m_obAnchorPoint</text>
<text text-anchor="middle" x="753" y="-328" font-family="Helvetica,sans-Serif" font-size="10.00">m_obAnchorPointInPoints</text>
<text text-anchor="middle" x="753" y="-317" font-family="Helvetica,sans-Serif" font-size="10.00">m_obPosition</text>
</g>
<!-- Node8&#45;&gt;Node12 -->
<g id="edge21" class="edge">
<title>Node8&#45;&gt;Node12</title>
<path fill="none" stroke="#9a32cd" stroke-dasharray="5,2" d="M536.82,-331.68C541.76,-334.4 546.38,-337.79 550,-342 570.67,-366.02 545.27,-388.92 568,-411 600.71,-442.77 628.62,-411.01 668,-434 704.42,-455.26 734.1,-497.51 746.17,-516.44"/>
<polygon fill="#9a32cd" stroke="#9a32cd" points="538.25,-328.48 527.7,-327.46 535.31,-334.84 538.25,-328.48"/>
<text text-anchor="middle" x="618" y="-437" font-family="Helvetica,sans-Serif" font-size="10.00"> m_obStep</text>
</g>
<!-- Node9 -->
<g id="node9" class="node">
<title>Node9</title>
<g id="a_node9"><a xlink:href="../../d9/d24/classcocos2d_1_1_c_c_size.html" target="_top" xlink:title="NA.">
<polygon fill="none" stroke="black" points="223,-609.5 223,-628.5 273,-628.5 273,-609.5 223,-609.5"/>
<text text-anchor="middle" x="248" y="-616.5" font-family="Helvetica,sans-Serif" font-size="10.00">CCSize</text>
</a>
</g>
</g>
<!-- Node9&#45;&gt;Node7 -->
<g id="edge9" class="edge">
<title>Node9&#45;&gt;Node7</title>
<path fill="none" stroke="#9a32cd" stroke-dasharray="5,2" d="M282.99,-628.36C398.19,-657.81 777.18,-735.64 966,-543 999.28,-509.05 1008.7,-351.31 1010.6,-310.6"/>
<polygon fill="#9a32cd" stroke="#9a32cd" points="283.85,-624.97 273.29,-625.84 282.08,-631.74 283.85,-624.97"/>
<text text-anchor="middle" x="618" y="-671" font-family="Helvetica,sans-Serif" font-size="10.00"> m_obContentSize</text>
</g>
<!-- Node9&#45;&gt;Node12 -->
<g id="edge15" class="edge">
<title>Node9&#45;&gt;Node12</title>
<path fill="none" stroke="#9a32cd" stroke-dasharray="5,2" d="M283.41,-620.25C356.39,-621.86 531.21,-620.07 668,-574 695.06,-564.89 723.22,-546.71 739.09,-535.53"/>
<polygon fill="#9a32cd" stroke="#9a32cd" points="283.49,-616.76 273.4,-620 283.31,-623.75 283.49,-616.76"/>
<text text-anchor="middle" x="500" y="-617" font-family="Helvetica,sans-Serif" font-size="10.00"> m_sGridSize</text>
</g>
<!-- Node9&#45;&gt;Node13 -->
<g id="edge18" class="edge">
<title>Node9&#45;&gt;Node13</title>
<path fill="none" stroke="#9a32cd" stroke-dasharray="5,2" d="M280.32,-605.45C289.23,-601.67 298.97,-597.61 308,-594 366.4,-570.63 435.64,-545.05 472.61,-531.57"/>
<polygon fill="#9a32cd" stroke="#9a32cd" points="278.87,-602.27 271.05,-609.41 281.62,-608.7 278.87,-602.27"/>
<text text-anchor="middle" x="370" y="-597" font-family="Helvetica,sans-Serif" font-size="10.00"> m_tContentSize</text>
</g>
<!-- Node10 -->
<g id="node10" class="node">
<title>Node10</title>
<g id="a_node10"><a xlink:href="../../da/dbf/structcocos2d_1_1_c_c_affine_transform.html" target="_top" xlink:title=" ">
<polygon fill="none" stroke="black" points="699.5,-227.5 699.5,-246.5 806.5,-246.5 806.5,-227.5 699.5,-227.5"/>
<text text-anchor="middle" x="753" y="-234.5" font-family="Helvetica,sans-Serif" font-size="10.00">CCAffineTransform</text>
</a>
</g>
</g>
<!-- Node10&#45;&gt;Node7 -->
<g id="edge10" class="edge">
<title>Node10&#45;&gt;Node7</title>
<path fill="none" stroke="#9a32cd" stroke-dasharray="5,2" d="M798.65,-225.24C843.63,-215.94 913.67,-208.58 966,-236 988.37,-247.72 1001.83,-276.17 1007.63,-291.25"/>
<polygon fill="#9a32cd" stroke="#9a32cd" points="797.64,-221.88 788.62,-227.43 799.13,-228.72 797.64,-221.88"/>
<text text-anchor="middle" x="902" y="-261" font-family="Helvetica,sans-Serif" font-size="10.00"> m_sAdditionalTransform</text>
<text text-anchor="middle" x="902" y="-250" font-family="Helvetica,sans-Serif" font-size="10.00">m_sInverse</text>
<text text-anchor="middle" x="902" y="-239" font-family="Helvetica,sans-Serif" font-size="10.00">m_sTransform</text>
</g>
<!-- Node11&#45;&gt;Node7 -->
<g id="edge11" class="edge">
<title>Node11&#45;&gt;Node7</title>
<path fill="none" stroke="#9a32cd" stroke-dasharray="5,2" d="M662.27,-39.41C745.21,-35.4 922.28,-31.83 966,-71 999.56,-101.07 1008.73,-251.29 1010.6,-291.23"/>
<polygon fill="#9a32cd" stroke="#9a32cd" points="661.97,-35.92 652.16,-39.92 662.32,-42.91 661.97,-35.92"/>
<text text-anchor="middle" x="753" y="-42" font-family="Helvetica,sans-Serif" font-size="10.00"> m_pCamera</text>
</g>
<!-- Node12&#45;&gt;Node7 -->
<g id="edge13" class="edge">
<title>Node12&#45;&gt;Node7</title>
<path fill="none" stroke="#9a32cd" stroke-dasharray="5,2" d="M800.1,-529.36C847.95,-530.19 921.85,-523.59 966,-481 991.15,-456.73 1006,-344.27 1009.94,-310.57"/>
<polygon fill="#9a32cd" stroke="#9a32cd" points="800.11,-525.86 790.01,-529.07 799.9,-532.85 800.11,-525.86"/>
<text text-anchor="middle" x="902" y="-531" font-family="Helvetica,sans-Serif" font-size="10.00"> m_pGrid</text>
</g>
<!-- Node13&#45;&gt;Node12 -->
<g id="edge16" class="edge">
<title>Node13&#45;&gt;Node12</title>
<path fill="none" stroke="#9a32cd" stroke-dasharray="5,2" d="M550.22,-522.78C598.93,-523.56 672.36,-524.73 715.9,-525.42"/>
<polygon fill="#9a32cd" stroke="#9a32cd" points="550.27,-519.28 540.22,-522.62 550.16,-526.28 550.27,-519.28"/>
<text text-anchor="middle" x="618" y="-527" font-family="Helvetica,sans-Serif" font-size="10.00"> m_pTexture</text>
</g>
<!-- Node14&#45;&gt;Node7 -->
<g id="edge29" class="edge">
<title>Node14&#45;&gt;Node7</title>
<path fill="none" stroke="#9a32cd" stroke-dasharray="5,2" d="M300.02,-450.78C395.62,-452.02 598.33,-453.49 668,-445 803.05,-428.53 855.87,-454.89 966,-375 988.76,-358.49 1002.28,-326.61 1007.92,-310.63"/>
<polygon fill="#9a32cd" stroke="#9a32cd" points="300.06,-447.29 290.01,-450.65 299.96,-454.28 300.06,-447.29"/>
<text text-anchor="middle" x="618" y="-453" font-family="Helvetica,sans-Serif" font-size="10.00"> m_pShaderProgram</text>
</g>
<!-- Node14&#45;&gt;Node12 -->
<g id="edge24" class="edge">
<title>Node14&#45;&gt;Node12</title>
<path fill="none" stroke="#9a32cd" stroke-dasharray="5,2" d="M300.41,-456.73C360.39,-464.68 462.5,-478.53 550,-492 608.17,-500.95 675.55,-512.54 715.92,-519.61"/>
<polygon fill="#9a32cd" stroke="#9a32cd" points="300.81,-453.25 290.44,-455.41 299.89,-460.19 300.81,-453.25"/>
<text text-anchor="middle" x="500" y="-495" font-family="Helvetica,sans-Serif" font-size="10.00"> m_pShaderProgram</text>
</g>
<!-- Node14&#45;&gt;Node13 -->
<g id="edge19" class="edge">
<title>Node14&#45;&gt;Node13</title>
<path fill="none" stroke="#9a32cd" stroke-dasharray="5,2" d="M279.1,-463.62C288.25,-467.38 298.41,-471.19 308,-474 361.79,-489.75 377.98,-482.03 432,-497 447.08,-501.18 463.54,-507.3 476.38,-512.44"/>
<polygon fill="#9a32cd" stroke="#9a32cd" points="280.23,-460.29 269.66,-459.61 277.49,-466.74 280.23,-460.29"/>
<text text-anchor="middle" x="370" y="-500" font-family="Helvetica,sans-Serif" font-size="10.00"> m_pShaderProgram</text>
</g>
<!-- Node15&#45;&gt;Node12 -->
<g id="edge22" class="edge">
<title>Node15&#45;&gt;Node12</title>
<path fill="none" stroke="#9a32cd" stroke-dasharray="5,2" d="M414.78,-691.14C476.17,-700.14 589.15,-707.7 668,-660 716.63,-630.58 741.54,-561.13 749.29,-535.62"/>
<polygon fill="#9a32cd" stroke="#9a32cd" points="415.08,-687.64 404.66,-689.57 414.01,-694.56 415.08,-687.64"/>
<text text-anchor="middle" x="500" y="-700" font-family="Helvetica,sans-Serif" font-size="10.00"> m_pGrabber</text>
</g>
<!-- Node16&#45;&gt;Node7 -->
<g id="edge25" class="edge">
<title>Node16&#45;&gt;Node7</title>
<path fill="none" stroke="#9a32cd" stroke-dasharray="5,2" d="M286.44,-383.12C293.58,-383.9 301.01,-384.59 308,-385 363.02,-388.25 376.89,-385.71 432,-385 604.49,-382.78 648.38,-392.39 820,-375 885.57,-368.35 908.06,-380.42 966,-349 982.87,-339.85 996.98,-322.04 1004.68,-310.87"/>
<polygon fill="#9a32cd" stroke="#9a32cd" points="286.6,-379.61 276.26,-381.91 285.78,-386.56 286.6,-379.61"/>
<text text-anchor="middle" x="618" y="-388" font-family="Helvetica,sans-Serif" font-size="10.00"> m_pChildren</text>
</g>
<!-- Node16&#45;&gt;Node17 -->
<g id="edge32" class="edge">
<title>Node16&#45;&gt;Node17</title>
<path fill="none" stroke="#9a32cd" stroke-dasharray="5,2" d="M286.28,-375.46C333.23,-372.27 413.45,-366.82 460.82,-363.6"/>
<polygon fill="#9a32cd" stroke="#9a32cd" points="285.97,-371.98 276.23,-376.15 286.44,-378.96 285.97,-371.98"/>
<text text-anchor="middle" x="370" y="-376" font-family="Helvetica,sans-Serif" font-size="10.00"> m_pScriptHandlerEntries</text>
</g>
<!-- Node17&#45;&gt;Node7 -->
<g id="edge30" class="edge">
<title>Node17&#45;&gt;Node7</title>
<path fill="none" stroke="#9a32cd" stroke-dasharray="5,2" d="M549.85,-362.16C612.62,-363.03 724.84,-362.5 820,-351 885.86,-343.04 902.71,-339.88 966,-320 974.25,-317.41 983.07,-313.86 990.7,-310.54"/>
<polygon fill="#9a32cd" stroke="#9a32cd" points="549.52,-358.65 539.47,-361.99 549.41,-365.65 549.52,-358.65"/>
<text text-anchor="middle" x="753" y="-363" font-family="Helvetica,sans-Serif" font-size="10.00"> m_pScheduler</text>
</g>
<!-- Node18&#45;&gt;Node7 -->
<g id="edge33" class="edge">
<title>Node18&#45;&gt;Node7</title>
<path fill="none" stroke="#9a32cd" stroke-dasharray="5,2" d="M432.4,-279.98C540.34,-283.51 771.15,-291.23 966,-299 971.78,-299.23 977.98,-299.49 983.87,-299.75"/>
<polygon fill="#9a32cd" stroke="#9a32cd" points="432.45,-276.48 422.34,-279.65 432.22,-283.48 432.45,-276.48"/>
<text text-anchor="middle" x="618" y="-291" font-family="Helvetica,sans-Serif" font-size="10.00"> m_pActionManager</text>
</g>
<!-- Node19 -->
<g id="node19" class="node">
<title>Node19</title>
<g id="a_node19"><a xlink:href="../../d1/d65/classcocos2d_1_1_c_c_component_container.html" target="_top" xlink:title="NA NA.">
<polygon fill="none" stroke="black" points="686,-189.5 686,-208.5 820,-208.5 820,-189.5 686,-189.5"/>
<text text-anchor="middle" x="753" y="-196.5" font-family="Helvetica,sans-Serif" font-size="10.00">CCComponentContainer</text>
</a>
</g>
</g>
<!-- Node19&#45;&gt;Node7 -->
<g id="edge35" class="edge">
<title>Node19&#45;&gt;Node7</title>
<path fill="none" stroke="#9a32cd" stroke-dasharray="5,2" d="M796.42,-187.18C842.19,-177.08 915.31,-168.85 966,-202 997.29,-222.46 1007.1,-270.49 1009.93,-291.21"/>
<polygon fill="#9a32cd" stroke="#9a32cd" points="795.47,-183.81 786.53,-189.49 797.06,-190.63 795.47,-183.81"/>
<text text-anchor="middle" x="902" y="-205" font-family="Helvetica,sans-Serif" font-size="10.00"> m_pComponentContainer</text>
</g>
<!-- Node20&#45;&gt;Node1 -->
<g id="edge36" class="edge">
<title>Node20&#45;&gt;Node1</title>
<path fill="none" stroke="#9a32cd" stroke-dasharray="5,2" d="M939.11,-23.85C987.62,-40.66 1071.42,-68 1103.5,-68 1103.5,-68 1103.5,-68 1559,-68 1618.67,-68 1672.23,-127.64 1691.2,-151.4"/>
<polygon fill="#9a32cd" stroke="#9a32cd" points="940.21,-20.53 929.62,-20.54 937.91,-27.14 940.21,-20.53"/>
<text text-anchor="middle" x="1313.5" y="-71" font-family="Helvetica,sans-Serif" font-size="10.00"> m_pPoints</text>
</g>
</g>
</svg>
