<?xml version="1.0" encoding="UTF-8" standalone="no"?>
<!DOCTYPE svg PUBLIC "-//W3C//DTD SVG 1.1//EN"
 "http://www.w3.org/Graphics/SVG/1.1/DTD/svg11.dtd">
<!-- Generated by graphviz version 2.43.0 (0)
 -->
<!-- Title: CCFadeOutDownTiles Pages: 1 -->
<svg width="129pt" height="532pt"
 viewBox="0.00 0.00 129.00 532.00" xmlns="http://www.w3.org/2000/svg" xmlns:xlink="http://www.w3.org/1999/xlink">
<g id="graph0" class="graph" transform="scale(1 1) rotate(0) translate(4 528)">
<title>CCFadeOutDownTiles</title>
<!-- Node1 -->
<g id="node1" class="node">
<title>Node1</title>
<g id="a_node1"><a xlink:title="CCFadeOutDownTiles action.">
<polygon fill="#bfbfbf" stroke="black" points="0,-0.5 0,-19.5 121,-19.5 121,-0.5 0,-0.5"/>
<text text-anchor="middle" x="60.5" y="-7.5" font-family="Helvetica,sans-Serif" font-size="10.00">CCFadeOutDownTiles</text>
</a>
</g>
</g>
<!-- Node2 -->
<g id="node2" class="node">
<title>Node2</title>
<g id="a_node2"><a xlink:href="../../d1/d71/classcocos2d_1_1_c_c_fade_out_up_tiles.html" target="_top" xlink:title="CCFadeOutUpTiles action.">
<polygon fill="none" stroke="black" points="7,-56.5 7,-75.5 114,-75.5 114,-56.5 7,-56.5"/>
<text text-anchor="middle" x="60.5" y="-63.5" font-family="Helvetica,sans-Serif" font-size="10.00">CCFadeOutUpTiles</text>
</a>
</g>
</g>
<!-- Node2&#45;&gt;Node1 -->
<g id="edge1" class="edge">
<title>Node2&#45;&gt;Node1</title>
<path fill="none" stroke="midnightblue" d="M60.5,-45.8C60.5,-36.91 60.5,-26.78 60.5,-19.75"/>
<polygon fill="midnightblue" stroke="midnightblue" points="57,-46.08 60.5,-56.08 64,-46.08 57,-46.08"/>
</g>
<!-- Node3 -->
<g id="node3" class="node">
<title>Node3</title>
<g id="a_node3"><a xlink:href="../../da/d0c/classcocos2d_1_1_c_c_fade_out_t_r_tiles.html" target="_top" xlink:title="CCFadeOutTRTiles action Fades out the tiles in a Top&#45;Right direction.">
<polygon fill="none" stroke="black" points="8,-112.5 8,-131.5 113,-131.5 113,-112.5 8,-112.5"/>
<text text-anchor="middle" x="60.5" y="-119.5" font-family="Helvetica,sans-Serif" font-size="10.00">CCFadeOutTRTiles</text>
</a>
</g>
</g>
<!-- Node3&#45;&gt;Node2 -->
<g id="edge2" class="edge">
<title>Node3&#45;&gt;Node2</title>
<path fill="none" stroke="midnightblue" d="M60.5,-101.8C60.5,-92.91 60.5,-82.78 60.5,-75.75"/>
<polygon fill="midnightblue" stroke="midnightblue" points="57,-102.08 60.5,-112.08 64,-102.08 57,-102.08"/>
</g>
<!-- Node4 -->
<g id="node4" class="node">
<title>Node4</title>
<g id="a_node4"><a xlink:href="../../d0/d92/classcocos2d_1_1_c_c_tiled_grid3_d_action.html" target="_top" xlink:title="Base class for CCTiledGrid3D actions.">
<polygon fill="none" stroke="black" points="1,-168.5 1,-187.5 120,-187.5 120,-168.5 1,-168.5"/>
<text text-anchor="middle" x="60.5" y="-175.5" font-family="Helvetica,sans-Serif" font-size="10.00">CCTiledGrid3DAction</text>
</a>
</g>
</g>
<!-- Node4&#45;&gt;Node3 -->
<g id="edge3" class="edge">
<title>Node4&#45;&gt;Node3</title>
<path fill="none" stroke="midnightblue" d="M60.5,-157.8C60.5,-148.91 60.5,-138.78 60.5,-131.75"/>
<polygon fill="midnightblue" stroke="midnightblue" points="57,-158.08 60.5,-168.08 64,-158.08 57,-158.08"/>
</g>
<!-- Node5 -->
<g id="node5" class="node">
<title>Node5</title>
<g id="a_node5"><a xlink:href="../../d5/d1e/classcocos2d_1_1_c_c_grid_action.html" target="_top" xlink:title="Base class for Grid actions.">
<polygon fill="none" stroke="black" points="20,-224.5 20,-243.5 101,-243.5 101,-224.5 20,-224.5"/>
<text text-anchor="middle" x="60.5" y="-231.5" font-family="Helvetica,sans-Serif" font-size="10.00">CCGridAction</text>
</a>
</g>
</g>
<!-- Node5&#45;&gt;Node4 -->
<g id="edge4" class="edge">
<title>Node5&#45;&gt;Node4</title>
<path fill="none" stroke="midnightblue" d="M60.5,-213.8C60.5,-204.91 60.5,-194.78 60.5,-187.75"/>
<polygon fill="midnightblue" stroke="midnightblue" points="57,-214.08 60.5,-224.08 64,-214.08 57,-214.08"/>
</g>
<!-- Node6 -->
<g id="node6" class="node">
<title>Node6</title>
<g id="a_node6"><a xlink:href="../../dd/d8d/classcocos2d_1_1_c_c_action_interval.html" target="_top" xlink:title="An interval action is an action that takes place within a certain period of time.">
<polygon fill="none" stroke="black" points="11.5,-280.5 11.5,-299.5 109.5,-299.5 109.5,-280.5 11.5,-280.5"/>
<text text-anchor="middle" x="60.5" y="-287.5" font-family="Helvetica,sans-Serif" font-size="10.00">CCActionInterval</text>
</a>
</g>
</g>
<!-- Node6&#45;&gt;Node5 -->
<g id="edge5" class="edge">
<title>Node6&#45;&gt;Node5</title>
<path fill="none" stroke="midnightblue" d="M60.5,-269.8C60.5,-260.91 60.5,-250.78 60.5,-243.75"/>
<polygon fill="midnightblue" stroke="midnightblue" points="57,-270.08 60.5,-280.08 64,-270.08 57,-270.08"/>
</g>
<!-- Node7 -->
<g id="node7" class="node">
<title>Node7</title>
<g id="a_node7"><a xlink:href="../../dd/d89/classcocos2d_1_1_c_c_finite_time_action.html" target="_top" xlink:title="Base class actions that do have a finite time duration.">
<polygon fill="none" stroke="black" points="4,-336.5 4,-355.5 117,-355.5 117,-336.5 4,-336.5"/>
<text text-anchor="middle" x="60.5" y="-343.5" font-family="Helvetica,sans-Serif" font-size="10.00">CCFiniteTimeAction</text>
</a>
</g>
</g>
<!-- Node7&#45;&gt;Node6 -->
<g id="edge6" class="edge">
<title>Node7&#45;&gt;Node6</title>
<path fill="none" stroke="midnightblue" d="M60.5,-325.8C60.5,-316.91 60.5,-306.78 60.5,-299.75"/>
<polygon fill="midnightblue" stroke="midnightblue" points="57,-326.08 60.5,-336.08 64,-326.08 57,-326.08"/>
</g>
<!-- Node8 -->
<g id="node8" class="node">
<title>Node8</title>
<g id="a_node8"><a xlink:href="../../d7/d12/classcocos2d_1_1_c_c_action.html" target="_top" xlink:title="Base class for CCAction objects.">
<polygon fill="none" stroke="black" points="30,-392.5 30,-411.5 91,-411.5 91,-392.5 30,-392.5"/>
<text text-anchor="middle" x="60.5" y="-399.5" font-family="Helvetica,sans-Serif" font-size="10.00">CCAction</text>
</a>
</g>
</g>
<!-- Node8&#45;&gt;Node7 -->
<g id="edge7" class="edge">
<title>Node8&#45;&gt;Node7</title>
<path fill="none" stroke="midnightblue" d="M60.5,-381.8C60.5,-372.91 60.5,-362.78 60.5,-355.75"/>
<polygon fill="midnightblue" stroke="midnightblue" points="57,-382.08 60.5,-392.08 64,-382.08 57,-382.08"/>
</g>
<!-- Node9 -->
<g id="node9" class="node">
<title>Node9</title>
<g id="a_node9"><a xlink:href="../../d3/dbf/classcocos2d_1_1_c_c_object.html" target="_top" xlink:title="NA.">
<polygon fill="none" stroke="black" points="29.5,-448.5 29.5,-467.5 91.5,-467.5 91.5,-448.5 29.5,-448.5"/>
<text text-anchor="middle" x="60.5" y="-455.5" font-family="Helvetica,sans-Serif" font-size="10.00">CCObject</text>
</a>
</g>
</g>
<!-- Node9&#45;&gt;Node8 -->
<g id="edge8" class="edge">
<title>Node9&#45;&gt;Node8</title>
<path fill="none" stroke="midnightblue" d="M60.5,-437.8C60.5,-428.91 60.5,-418.78 60.5,-411.75"/>
<polygon fill="midnightblue" stroke="midnightblue" points="57,-438.08 60.5,-448.08 64,-438.08 57,-438.08"/>
</g>
<!-- Node10 -->
<g id="node10" class="node">
<title>Node10</title>
<g id="a_node10"><a xlink:href="../../d5/d61/classcocos2d_1_1_c_c_copying.html" target="_top" xlink:title="NA NA.">
<polygon fill="none" stroke="black" points="25.5,-504.5 25.5,-523.5 95.5,-523.5 95.5,-504.5 25.5,-504.5"/>
<text text-anchor="middle" x="60.5" y="-511.5" font-family="Helvetica,sans-Serif" font-size="10.00">CCCopying</text>
</a>
</g>
</g>
<!-- Node10&#45;&gt;Node9 -->
<g id="edge9" class="edge">
<title>Node10&#45;&gt;Node9</title>
<path fill="none" stroke="midnightblue" d="M60.5,-493.8C60.5,-484.91 60.5,-474.78 60.5,-467.75"/>
<polygon fill="midnightblue" stroke="midnightblue" points="57,-494.08 60.5,-504.08 64,-494.08 57,-494.08"/>
</g>
</g>
</svg>
