<?xml version="1.0" encoding="UTF-8" standalone="no"?>
<!DOCTYPE svg PUBLIC "-//W3C//DTD SVG 1.1//EN"
 "http://www.w3.org/Graphics/SVG/1.1/DTD/svg11.dtd">
<!-- Generated by graphviz version 2.43.0 (0)
 -->
<!-- Title: /home/runner/work/cocos&#45;headers/cocos&#45;headers/cocos2dx/sprite_nodes/CCAnimation.h Pages: 1 -->
<svg width="1786pt" height="742pt"
 viewBox="0.00 0.00 1785.50 742.00" xmlns="http://www.w3.org/2000/svg" xmlns:xlink="http://www.w3.org/1999/xlink">
<g id="graph0" class="graph" transform="scale(1 1) rotate(0) translate(4 738)">
<title>/home/runner/work/cocos&#45;headers/cocos&#45;headers/cocos2dx/sprite_nodes/CCAnimation.h</title>
<!-- Node1 -->
<g id="node1" class="node">
<title>Node1</title>
<g id="a_node1"><a xlink:title=" ">
<polygon fill="#999999" stroke="#666666" points="1257.5,-734 1117.5,-734 1117.5,-682 1257.5,-682 1257.5,-734"/>
<text text-anchor="start" x="1125.5" y="-722" font-family="Helvetica,sans-Serif" font-size="10.00">/home/runner/work/cocos</text>
<text text-anchor="start" x="1125.5" y="-711" font-family="Helvetica,sans-Serif" font-size="10.00">&#45;headers/cocos&#45;headers</text>
<text text-anchor="start" x="1125.5" y="-700" font-family="Helvetica,sans-Serif" font-size="10.00">/cocos2dx/sprite_nodes</text>
<text text-anchor="middle" x="1187.5" y="-689" font-family="Helvetica,sans-Serif" font-size="10.00">/CCAnimation.h</text>
</a>
</g>
</g>
<!-- Node2 -->
<g id="node2" class="node">
<title>Node2</title>
<g id="a_node2"><a xlink:href="../../dd/d96/_c_c_platform_config_8h.html" target="_top" xlink:title=" ">
<polygon fill="white" stroke="#666666" points="1075,-19 918,-19 918,0 1075,0 1075,-19"/>
<text text-anchor="middle" x="996.5" y="-7" font-family="Helvetica,sans-Serif" font-size="10.00">platform/CCPlatformConfig.h</text>
</a>
</g>
</g>
<!-- Node1&#45;&gt;Node2 -->
<g id="edge1" class="edge">
<title>Node1&#45;&gt;Node2</title>
<path fill="none" stroke="#63b8ff" d="M1257.79,-706.79C1414.23,-704.44 1777.5,-687.64 1777.5,-582.5 1777.5,-582.5 1777.5,-582.5 1777.5,-118.5 1777.5,-49.3 1290.22,-22.04 1085.45,-13.64"/>
<polygon fill="#63b8ff" stroke="#63b8ff" points="1085.46,-10.13 1075.32,-13.23 1085.17,-17.13 1085.46,-10.13"/>
</g>
<!-- Node3 -->
<g id="node3" class="node">
<title>Node3</title>
<g id="a_node3"><a xlink:href="../../dd/d69/_c_c_object_8h.html" target="_top" xlink:title=" ">
<polygon fill="white" stroke="#666666" points="1028.5,-294 926.5,-294 926.5,-275 1028.5,-275 1028.5,-294"/>
<text text-anchor="middle" x="977.5" y="-282" font-family="Helvetica,sans-Serif" font-size="10.00">cocoa/CCObject.h</text>
</a>
</g>
</g>
<!-- Node1&#45;&gt;Node3 -->
<g id="edge2" class="edge">
<title>Node1&#45;&gt;Node3</title>
<path fill="none" stroke="#63b8ff" d="M1187.5,-681.72C1187.5,-656.57 1187.5,-616.87 1187.5,-582.5 1187.5,-582.5 1187.5,-582.5 1187.5,-454 1187.5,-422.19 1188.49,-409.74 1168.5,-385 1130.57,-338.05 1064.53,-310.75 1020.91,-296.98"/>
<polygon fill="#63b8ff" stroke="#63b8ff" points="1021.74,-293.58 1011.15,-294.01 1019.7,-300.27 1021.74,-293.58"/>
</g>
<!-- Node8 -->
<g id="node8" class="node">
<title>Node8</title>
<g id="a_node8"><a xlink:title=" ">
<polygon fill="#e0e0e0" stroke="#999999" points="1511.5,-184 1467.5,-184 1467.5,-165 1511.5,-165 1511.5,-184"/>
<text text-anchor="middle" x="1489.5" y="-172" font-family="Helvetica,sans-Serif" font-size="10.00">string</text>
</a>
</g>
</g>
<!-- Node1&#45;&gt;Node8 -->
<g id="edge73" class="edge">
<title>Node1&#45;&gt;Node8</title>
<path fill="none" stroke="#63b8ff" d="M1257.69,-705.76C1406.37,-701.23 1739.5,-680.19 1739.5,-582.5 1739.5,-582.5 1739.5,-582.5 1739.5,-338.5 1739.5,-235.71 1589.36,-194.34 1521.79,-180.93"/>
<polygon fill="#63b8ff" stroke="#63b8ff" points="1522.16,-177.44 1511.69,-179.01 1520.86,-184.32 1522.16,-177.44"/>
</g>
<!-- Node12 -->
<g id="node12" class="node">
<title>Node12</title>
<g id="a_node12"><a xlink:href="../../da/d35/_c_c_array_8h.html" target="_top" xlink:title=" ">
<polygon fill="white" stroke="#666666" points="351,-530.5 256,-530.5 256,-511.5 351,-511.5 351,-530.5"/>
<text text-anchor="middle" x="303.5" y="-518.5" font-family="Helvetica,sans-Serif" font-size="10.00">cocoa/CCArray.h</text>
</a>
</g>
</g>
<!-- Node1&#45;&gt;Node12 -->
<g id="edge15" class="edge">
<title>Node1&#45;&gt;Node12</title>
<path fill="none" stroke="#63b8ff" d="M1117.46,-697.9C995.55,-681.37 736.85,-643.22 522.5,-591 455.63,-574.71 379.34,-549.01 336.76,-534"/>
<polygon fill="#63b8ff" stroke="#63b8ff" points="337.78,-530.65 327.19,-530.6 335.44,-537.25 337.78,-530.65"/>
</g>
<!-- Node14 -->
<g id="node14" class="node">
<title>Node14</title>
<g id="a_node14"><a xlink:href="../../d9/d8d/_c_c_dictionary_8h.html" target="_top" xlink:title=" ">
<polygon fill="white" stroke="#666666" points="269,-591 150,-591 150,-572 269,-572 269,-591"/>
<text text-anchor="middle" x="209.5" y="-579" font-family="Helvetica,sans-Serif" font-size="10.00">cocoa/CCDictionary.h</text>
</a>
</g>
</g>
<!-- Node1&#45;&gt;Node14 -->
<g id="edge17" class="edge">
<title>Node1&#45;&gt;Node14</title>
<path fill="none" stroke="#63b8ff" d="M1117.45,-706.56C981.21,-704.59 671.56,-694.6 416.5,-646 353.01,-633.9 281.44,-609.41 241.27,-594.63"/>
<polygon fill="#63b8ff" stroke="#63b8ff" points="242.35,-591.3 231.76,-591.1 239.91,-597.86 242.35,-591.3"/>
</g>
<!-- Node20 -->
<g id="node20" class="node">
<title>Node20</title>
<g id="a_node20"><a xlink:href="../../d6/d09/_c_c_geometry_8h.html" target="_top" xlink:title=" ">
<polygon fill="white" stroke="#666666" points="1673.5,-349 1555.5,-349 1555.5,-330 1673.5,-330 1673.5,-349"/>
<text text-anchor="middle" x="1614.5" y="-337" font-family="Helvetica,sans-Serif" font-size="10.00">cocoa/CCGeometry.h</text>
</a>
</g>
</g>
<!-- Node1&#45;&gt;Node20 -->
<g id="edge27" class="edge">
<title>Node1&#45;&gt;Node20</title>
<path fill="none" stroke="#63b8ff" d="M1257.74,-703.21C1390.14,-694.13 1663.5,-665.36 1663.5,-582.5 1663.5,-582.5 1663.5,-582.5 1663.5,-454 1663.5,-417.17 1641.48,-378.72 1626.96,-357.36"/>
<polygon fill="#63b8ff" stroke="#63b8ff" points="1629.74,-355.22 1621.11,-349.07 1624.02,-359.26 1629.74,-355.22"/>
</g>
<!-- Node22 -->
<g id="node22" class="node">
<title>Node22</title>
<g id="a_node22"><a xlink:href="../../dd/d89/_c_c_sprite_frame_8h.html" target="_top" xlink:title=" ">
<polygon fill="white" stroke="#666666" points="1159.5,-646 1061.5,-646 1061.5,-627 1159.5,-627 1159.5,-646"/>
<text text-anchor="middle" x="1110.5" y="-634" font-family="Helvetica,sans-Serif" font-size="10.00">CCSpriteFrame.h</text>
</a>
</g>
</g>
<!-- Node1&#45;&gt;Node22 -->
<g id="edge31" class="edge">
<title>Node1&#45;&gt;Node22</title>
<path fill="none" stroke="#63b8ff" d="M1159.7,-681.91C1149.04,-672.29 1137.19,-661.59 1127.79,-653.11"/>
<polygon fill="#63b8ff" stroke="#63b8ff" points="1130.02,-650.4 1120.25,-646.3 1125.33,-655.6 1130.02,-650.4"/>
</g>
<!-- Node4 -->
<g id="node4" class="node">
<title>Node4</title>
<g id="a_node4"><a xlink:href="../../d9/d2d/_c_c_data_visitor_8h.html" target="_top" xlink:title=" ">
<polygon fill="white" stroke="#666666" points="1043,-239 950,-239 950,-220 1043,-220 1043,-239"/>
<text text-anchor="middle" x="996.5" y="-227" font-family="Helvetica,sans-Serif" font-size="10.00">CCDataVisitor.h</text>
</a>
</g>
</g>
<!-- Node3&#45;&gt;Node4 -->
<g id="edge3" class="edge">
<title>Node3&#45;&gt;Node4</title>
<path fill="none" stroke="#63b8ff" d="M980.64,-274.75C983.18,-267.65 986.86,-257.4 990.03,-248.56"/>
<polygon fill="#63b8ff" stroke="#63b8ff" points="993.34,-249.68 993.42,-239.09 986.75,-247.32 993.34,-249.68"/>
</g>
<!-- Node9 -->
<g id="node9" class="node">
<title>Node9</title>
<g id="a_node9"><a xlink:href="../../d9/dc8/cc_macros_8h.html" target="_top" xlink:title=" ">
<polygon fill="white" stroke="#666666" points="515,-239 444,-239 444,-220 515,-220 515,-239"/>
<text text-anchor="middle" x="479.5" y="-227" font-family="Helvetica,sans-Serif" font-size="10.00">ccMacros.h</text>
</a>
</g>
</g>
<!-- Node3&#45;&gt;Node9 -->
<g id="edge10" class="edge">
<title>Node3&#45;&gt;Node9</title>
<path fill="none" stroke="#63b8ff" d="M926.08,-278.03C828.57,-267.65 618.23,-245.26 525.27,-235.37"/>
<polygon fill="#63b8ff" stroke="#63b8ff" points="525.37,-231.86 515.06,-234.28 524.63,-238.82 525.37,-231.86"/>
</g>
<!-- Node5 -->
<g id="node5" class="node">
<title>Node5</title>
<g id="a_node5"><a xlink:href="../../d3/d41/_c_c_platform_macros_8h.html" target="_top" xlink:title=" ">
<polygon fill="white" stroke="#666666" points="1077,-129 916,-129 916,-110 1077,-110 1077,-129"/>
<text text-anchor="middle" x="996.5" y="-117" font-family="Helvetica,sans-Serif" font-size="10.00">platform/CCPlatformMacros.h</text>
</a>
</g>
</g>
<!-- Node4&#45;&gt;Node5 -->
<g id="edge4" class="edge">
<title>Node4&#45;&gt;Node5</title>
<path fill="none" stroke="#63b8ff" d="M996.5,-219.66C996.5,-202.17 996.5,-162.8 996.5,-139.27"/>
<polygon fill="#63b8ff" stroke="#63b8ff" points="1000,-139.16 996.5,-129.16 993,-139.16 1000,-139.16"/>
</g>
<!-- Node4&#45;&gt;Node8 -->
<g id="edge9" class="edge">
<title>Node4&#45;&gt;Node8</title>
<path fill="none" stroke="#63b8ff" d="M1043.32,-223.47C1142.67,-212.79 1372.38,-188.09 1457.24,-178.97"/>
<polygon fill="#63b8ff" stroke="#63b8ff" points="1457.74,-182.43 1467.31,-177.89 1456.99,-175.47 1457.74,-182.43"/>
</g>
<!-- Node5&#45;&gt;Node2 -->
<g id="edge7" class="edge">
<title>Node5&#45;&gt;Node2</title>
<path fill="none" stroke="#63b8ff" d="M996.5,-109.66C996.5,-92.17 996.5,-52.8 996.5,-29.27"/>
<polygon fill="#63b8ff" stroke="#63b8ff" points="1000,-29.16 996.5,-19.16 993,-29.16 1000,-29.16"/>
</g>
<!-- Node6 -->
<g id="node6" class="node">
<title>Node6</title>
<g id="a_node6"><a xlink:href="../../db/d9f/cc_config_8h.html" target="_top" xlink:title="cocos2d (cc) configuration file">
<polygon fill="white" stroke="#666666" points="968,-74 901,-74 901,-55 968,-55 968,-74"/>
<text text-anchor="middle" x="934.5" y="-62" font-family="Helvetica,sans-Serif" font-size="10.00">ccConfig.h</text>
</a>
</g>
</g>
<!-- Node5&#45;&gt;Node6 -->
<g id="edge5" class="edge">
<title>Node5&#45;&gt;Node6</title>
<path fill="none" stroke="#63b8ff" d="M986.54,-109.98C977.37,-102.15 963.56,-90.34 952.47,-80.86"/>
<polygon fill="#63b8ff" stroke="#63b8ff" points="954.52,-78.01 944.64,-74.17 949.97,-83.33 954.52,-78.01"/>
</g>
<!-- Node7 -->
<g id="node7" class="node">
<title>Node7</title>
<g id="a_node7"><a xlink:title=" ">
<polygon fill="#e0e0e0" stroke="#999999" points="1138,-74 1025,-74 1025,-55 1138,-55 1138,-74"/>
<text text-anchor="middle" x="1081.5" y="-62" font-family="Helvetica,sans-Serif" font-size="10.00">CCPlatformDefine.h</text>
</a>
</g>
</g>
<!-- Node5&#45;&gt;Node7 -->
<g id="edge8" class="edge">
<title>Node5&#45;&gt;Node7</title>
<path fill="none" stroke="#63b8ff" d="M1010.16,-109.98C1023.34,-101.77 1043.53,-89.18 1059.07,-79.49"/>
<polygon fill="#63b8ff" stroke="#63b8ff" points="1060.96,-82.43 1067.59,-74.17 1057.26,-76.49 1060.96,-82.43"/>
</g>
<!-- Node6&#45;&gt;Node2 -->
<g id="edge6" class="edge">
<title>Node6&#45;&gt;Node2</title>
<path fill="none" stroke="#63b8ff" d="M944.46,-54.98C953.63,-47.15 967.44,-35.34 978.53,-25.86"/>
<polygon fill="#63b8ff" stroke="#63b8ff" points="981.03,-28.33 986.36,-19.17 976.48,-23.01 981.03,-28.33"/>
</g>
<!-- Node9&#45;&gt;Node6 -->
<g id="edge14" class="edge">
<title>Node9&#45;&gt;Node6</title>
<path fill="none" stroke="#63b8ff" d="M483.85,-219.57C491.11,-205.67 507.03,-178.98 528.5,-165 644.19,-89.7 812.1,-71.37 890.76,-66.92"/>
<polygon fill="#63b8ff" stroke="#63b8ff" points="891,-70.41 900.8,-66.4 890.64,-63.42 891,-70.41"/>
</g>
<!-- Node10 -->
<g id="node10" class="node">
<title>Node10</title>
<g id="a_node10"><a xlink:href="../../d5/d22/_c_c_common_8h.html" target="_top" xlink:title=" ">
<polygon fill="white" stroke="#666666" points="665.5,-184 537.5,-184 537.5,-165 665.5,-165 665.5,-184"/>
<text text-anchor="middle" x="601.5" y="-172" font-family="Helvetica,sans-Serif" font-size="10.00">platform/CCCommon.h</text>
</a>
</g>
</g>
<!-- Node9&#45;&gt;Node10 -->
<g id="edge11" class="edge">
<title>Node9&#45;&gt;Node10</title>
<path fill="none" stroke="#63b8ff" d="M499.1,-219.98C518.82,-211.42 549.45,-198.11 572.08,-188.28"/>
<polygon fill="#63b8ff" stroke="#63b8ff" points="573.76,-191.37 581.54,-184.17 570.98,-184.94 573.76,-191.37"/>
</g>
<!-- Node11 -->
<g id="node11" class="node">
<title>Node11</title>
<g id="a_node11"><a xlink:title=" ">
<polygon fill="#e0e0e0" stroke="#999999" points="481.5,-184 419.5,-184 419.5,-165 481.5,-165 481.5,-184"/>
<text text-anchor="middle" x="450.5" y="-172" font-family="Helvetica,sans-Serif" font-size="10.00">CCStdC.h</text>
</a>
</g>
</g>
<!-- Node9&#45;&gt;Node11 -->
<g id="edge13" class="edge">
<title>Node9&#45;&gt;Node11</title>
<path fill="none" stroke="#63b8ff" d="M474.71,-219.75C470.74,-212.49 464.97,-201.95 460.07,-192.98"/>
<polygon fill="#63b8ff" stroke="#63b8ff" points="463.07,-191.18 455.2,-184.09 456.93,-194.54 463.07,-191.18"/>
</g>
<!-- Node10&#45;&gt;Node5 -->
<g id="edge12" class="edge">
<title>Node10&#45;&gt;Node5</title>
<path fill="none" stroke="#63b8ff" d="M664.96,-164.98C735.26,-155.55 848.45,-140.36 922.66,-130.41"/>
<polygon fill="#63b8ff" stroke="#63b8ff" points="923.42,-133.84 932.87,-129.04 922.49,-126.9 923.42,-133.84"/>
</g>
<!-- Node13 -->
<g id="node13" class="node">
<title>Node13</title>
<g id="a_node13"><a xlink:title=" ">
<polygon fill="#e0e0e0" stroke="#999999" points="357.5,-470 237.5,-470 237.5,-440 357.5,-440 357.5,-470"/>
<text text-anchor="start" x="245.5" y="-458" font-family="Helvetica,sans-Serif" font-size="10.00">support/data_support</text>
<text text-anchor="middle" x="297.5" y="-447" font-family="Helvetica,sans-Serif" font-size="10.00">/ccCArray.h</text>
</a>
</g>
</g>
<!-- Node12&#45;&gt;Node13 -->
<g id="edge16" class="edge">
<title>Node12&#45;&gt;Node13</title>
<path fill="none" stroke="#63b8ff" d="M302.69,-511.37C301.95,-503.49 300.82,-491.45 299.81,-480.6"/>
<polygon fill="#63b8ff" stroke="#63b8ff" points="303.26,-479.99 298.85,-470.36 296.3,-480.64 303.26,-479.99"/>
</g>
<!-- Node14&#45;&gt;Node3 -->
<g id="edge19" class="edge">
<title>Node14&#45;&gt;Node3</title>
<path fill="none" stroke="#63b8ff" d="M209.5,-571.75C209.5,-551.42 209.5,-499.45 209.5,-456 209.5,-456 209.5,-456 209.5,-393.5 209.5,-322.3 733.8,-295.03 916,-287.7"/>
<polygon fill="#63b8ff" stroke="#63b8ff" points="916.36,-291.19 926.22,-287.3 916.09,-284.19 916.36,-291.19"/>
</g>
<!-- Node14&#45;&gt;Node12 -->
<g id="edge20" class="edge">
<title>Node14&#45;&gt;Node12</title>
<path fill="none" stroke="#63b8ff" d="M223.37,-571.87C238.5,-562.45 262.96,-547.23 280.88,-536.08"/>
<polygon fill="#63b8ff" stroke="#63b8ff" points="282.93,-538.92 289.57,-530.67 279.23,-532.98 282.93,-538.92"/>
</g>
<!-- Node15 -->
<g id="node15" class="node">
<title>Node15</title>
<g id="a_node15"><a xlink:title=" ">
<polygon fill="#e0e0e0" stroke="#999999" points="181.5,-536 61.5,-536 61.5,-506 181.5,-506 181.5,-536"/>
<text text-anchor="start" x="69.5" y="-524" font-family="Helvetica,sans-Serif" font-size="10.00">support/data_support</text>
<text text-anchor="middle" x="121.5" y="-513" font-family="Helvetica,sans-Serif" font-size="10.00">/uthash.h</text>
</a>
</g>
</g>
<!-- Node14&#45;&gt;Node15 -->
<g id="edge18" class="edge">
<title>Node14&#45;&gt;Node15</title>
<path fill="none" stroke="#63b8ff" d="M196.52,-571.87C184.69,-564 166.77,-552.09 151.41,-541.89"/>
<polygon fill="#63b8ff" stroke="#63b8ff" points="153,-538.74 142.73,-536.11 149.12,-544.57 153,-538.74"/>
</g>
<!-- Node16 -->
<g id="node16" class="node">
<title>Node16</title>
<g id="a_node16"><a xlink:href="../../d0/d8a/_c_c_string_8h.html" target="_top" xlink:title=" ">
<polygon fill="white" stroke="#666666" points="143.5,-349 75.5,-349 75.5,-330 143.5,-330 143.5,-349"/>
<text text-anchor="middle" x="109.5" y="-337" font-family="Helvetica,sans-Serif" font-size="10.00">CCString.h</text>
</a>
</g>
</g>
<!-- Node14&#45;&gt;Node16 -->
<g id="edge21" class="edge">
<title>Node14&#45;&gt;Node16</title>
<path fill="none" stroke="#63b8ff" d="M153.95,-571.97C113.95,-564.57 64.93,-552.44 52.5,-536 10.24,-480.1 67.59,-393.57 95.63,-357.35"/>
<polygon fill="#63b8ff" stroke="#63b8ff" points="98.57,-359.28 102.05,-349.27 93.09,-354.92 98.57,-359.28"/>
</g>
<!-- Node16&#45;&gt;Node3 -->
<g id="edge26" class="edge">
<title>Node16&#45;&gt;Node3</title>
<path fill="none" stroke="#63b8ff" d="M143.79,-334.78C159.53,-333.16 178.45,-331.33 195.5,-330 463.46,-309.14 783.79,-293.97 915.9,-288.13"/>
<polygon fill="#63b8ff" stroke="#63b8ff" points="916.38,-291.61 926.21,-287.68 916.07,-284.62 916.38,-291.61"/>
</g>
<!-- Node16&#45;&gt;Node8 -->
<g id="edge24" class="edge">
<title>Node16&#45;&gt;Node8</title>
<path fill="none" stroke="#63b8ff" d="M143.88,-335.05C291.29,-320.26 870.57,-261.81 1052.5,-239 1204.08,-220 1384.46,-192.1 1456.96,-180.67"/>
<polygon fill="#63b8ff" stroke="#63b8ff" points="1457.93,-184.06 1467.26,-179.05 1456.83,-177.15 1457.93,-184.06"/>
</g>
<!-- Node17 -->
<g id="node17" class="node">
<title>Node17</title>
<g id="a_node17"><a xlink:title=" ">
<polygon fill="#e0e0e0" stroke="#999999" points="136,-294 83,-294 83,-275 136,-275 136,-294"/>
<text text-anchor="middle" x="109.5" y="-282" font-family="Helvetica,sans-Serif" font-size="10.00">string.h</text>
</a>
</g>
</g>
<!-- Node16&#45;&gt;Node17 -->
<g id="edge22" class="edge">
<title>Node16&#45;&gt;Node17</title>
<path fill="none" stroke="#63b8ff" d="M109.5,-329.75C109.5,-322.8 109.5,-312.85 109.5,-304.13"/>
<polygon fill="#63b8ff" stroke="#63b8ff" points="113,-304.09 109.5,-294.09 106,-304.09 113,-304.09"/>
</g>
<!-- Node18 -->
<g id="node18" class="node">
<title>Node18</title>
<g id="a_node18"><a xlink:title=" ">
<polygon fill="#e0e0e0" stroke="#999999" points="210.5,-294 154.5,-294 154.5,-275 210.5,-275 210.5,-294"/>
<text text-anchor="middle" x="182.5" y="-282" font-family="Helvetica,sans-Serif" font-size="10.00">stdarg.h</text>
</a>
</g>
</g>
<!-- Node16&#45;&gt;Node18 -->
<g id="edge23" class="edge">
<title>Node16&#45;&gt;Node18</title>
<path fill="none" stroke="#63b8ff" d="M121.23,-329.98C132.23,-322 148.92,-309.88 162.1,-300.31"/>
<polygon fill="#63b8ff" stroke="#63b8ff" points="164.52,-302.88 170.56,-294.17 160.41,-297.21 164.52,-302.88"/>
</g>
<!-- Node19 -->
<g id="node19" class="node">
<title>Node19</title>
<g id="a_node19"><a xlink:title=" ">
<polygon fill="#e0e0e0" stroke="#999999" points="65,-294 0,-294 0,-275 65,-275 65,-294"/>
<text text-anchor="middle" x="32.5" y="-282" font-family="Helvetica,sans-Serif" font-size="10.00">functional</text>
</a>
</g>
</g>
<!-- Node16&#45;&gt;Node19 -->
<g id="edge25" class="edge">
<title>Node16&#45;&gt;Node19</title>
<path fill="none" stroke="#63b8ff" d="M97.13,-329.98C85.41,-321.92 67.58,-309.65 53.61,-300.03"/>
<polygon fill="#63b8ff" stroke="#63b8ff" points="55.32,-296.96 45.1,-294.17 51.35,-302.72 55.32,-296.96"/>
</g>
<!-- Node20&#45;&gt;Node3 -->
<g id="edge29" class="edge">
<title>Node20&#45;&gt;Node3</title>
<path fill="none" stroke="#63b8ff" d="M1555.43,-333.59C1434.83,-323.55 1161.37,-300.8 1038.86,-290.61"/>
<polygon fill="#63b8ff" stroke="#63b8ff" points="1039.15,-287.12 1028.9,-289.78 1038.57,-294.09 1039.15,-287.12"/>
</g>
<!-- Node20&#45;&gt;Node5 -->
<g id="edge28" class="edge">
<title>Node20&#45;&gt;Node5</title>
<path fill="none" stroke="#63b8ff" d="M1623.64,-329.92C1635.42,-317.76 1653.4,-294.79 1644.5,-275 1614.29,-207.81 1588.21,-194.04 1520.5,-165 1444.93,-132.59 1216.29,-123.76 1087.4,-121.37"/>
<polygon fill="#63b8ff" stroke="#63b8ff" points="1087.21,-117.86 1077.15,-121.19 1087.09,-124.86 1087.21,-117.86"/>
</g>
<!-- Node21 -->
<g id="node21" class="node">
<title>Node21</title>
<g id="a_node21"><a xlink:title=" ">
<polygon fill="#e0e0e0" stroke="#999999" points="1635,-294 1584,-294 1584,-275 1635,-275 1635,-294"/>
<text text-anchor="middle" x="1609.5" y="-282" font-family="Helvetica,sans-Serif" font-size="10.00">math.h</text>
</a>
</g>
</g>
<!-- Node20&#45;&gt;Node21 -->
<g id="edge30" class="edge">
<title>Node20&#45;&gt;Node21</title>
<path fill="none" stroke="#63b8ff" d="M1613.67,-329.75C1613.02,-322.8 1612.08,-312.85 1611.26,-304.13"/>
<polygon fill="#63b8ff" stroke="#63b8ff" points="1614.73,-303.72 1610.31,-294.09 1607.77,-304.37 1614.73,-303.72"/>
</g>
<!-- Node22&#45;&gt;Node3 -->
<g id="edge71" class="edge">
<title>Node22&#45;&gt;Node3</title>
<path fill="none" stroke="#63b8ff" d="M1104.99,-626.63C1086.62,-596.61 1026.89,-495.55 997.5,-404 986.48,-369.69 981.23,-327.73 978.97,-304.06"/>
<polygon fill="#63b8ff" stroke="#63b8ff" points="982.46,-303.69 978.1,-294.03 975.48,-304.3 982.46,-303.69"/>
</g>
<!-- Node22&#45;&gt;Node20 -->
<g id="edge72" class="edge">
<title>Node22&#45;&gt;Node20</title>
<path fill="none" stroke="#63b8ff" d="M1159.88,-635.03C1288.78,-632.48 1625.5,-616.76 1625.5,-522 1625.5,-522 1625.5,-522 1625.5,-454 1625.5,-420.45 1620.68,-381.58 1617.42,-359.14"/>
<polygon fill="#63b8ff" stroke="#63b8ff" points="1620.85,-358.38 1615.89,-349.02 1613.92,-359.43 1620.85,-358.38"/>
</g>
<!-- Node23 -->
<g id="node23" class="node">
<title>Node23</title>
<g id="a_node23"><a xlink:href="../../db/d7f/_c_c_node_8h.html" target="_top" xlink:title=" ">
<polygon fill="white" stroke="#666666" points="657,-591 532,-591 532,-572 657,-572 657,-591"/>
<text text-anchor="middle" x="594.5" y="-579" font-family="Helvetica,sans-Serif" font-size="10.00">base_nodes/CCNode.h</text>
</a>
</g>
</g>
<!-- Node22&#45;&gt;Node23 -->
<g id="edge32" class="edge">
<title>Node22&#45;&gt;Node23</title>
<path fill="none" stroke="#63b8ff" d="M1061.49,-630.47C970.22,-621.09 773.82,-600.92 667.11,-589.96"/>
<polygon fill="#63b8ff" stroke="#63b8ff" points="667.37,-586.47 657.07,-588.93 666.66,-593.43 667.37,-586.47"/>
</g>
<!-- Node36 -->
<g id="node36" class="node">
<title>Node36</title>
<g id="a_node36"><a xlink:href="../../d8/d76/_c_c_protocols_8h.html" target="_top" xlink:title=" ">
<polygon fill="white" stroke="#666666" points="1439.5,-530.5 1355.5,-530.5 1355.5,-511.5 1439.5,-511.5 1439.5,-530.5"/>
<text text-anchor="middle" x="1397.5" y="-518.5" font-family="Helvetica,sans-Serif" font-size="10.00">CCProtocols.h</text>
</a>
</g>
</g>
<!-- Node22&#45;&gt;Node36 -->
<g id="edge70" class="edge">
<title>Node22&#45;&gt;Node36</title>
<path fill="none" stroke="#63b8ff" d="M1132.07,-626.97C1182.35,-607.09 1307.5,-557.59 1366.19,-534.38"/>
<polygon fill="#63b8ff" stroke="#63b8ff" points="1367.67,-537.56 1375.68,-530.63 1365.09,-531.05 1367.67,-537.56"/>
</g>
<!-- Node23&#45;&gt;Node9 -->
<g id="edge33" class="edge">
<title>Node23&#45;&gt;Node9</title>
<path fill="none" stroke="#63b8ff" d="M531.72,-575.83C496.96,-570.55 454.64,-559.42 423.5,-536 383.84,-506.18 406.15,-469.84 366.5,-440 315.85,-401.89 267.25,-454.16 228.5,-404 165.04,-321.86 345.78,-263.81 434.07,-241.1"/>
<polygon fill="#63b8ff" stroke="#63b8ff" points="435.01,-244.48 443.85,-238.63 433.29,-237.69 435.01,-244.48"/>
</g>
<!-- Node23&#45;&gt;Node12 -->
<g id="edge37" class="edge">
<title>Node23&#45;&gt;Node12</title>
<path fill="none" stroke="#63b8ff" d="M551.32,-571.96C506.38,-563.06 433.99,-548.67 371.5,-536 366.11,-534.91 360.48,-533.76 354.87,-532.61"/>
<polygon fill="#63b8ff" stroke="#63b8ff" points="355.35,-529.14 344.85,-530.55 353.94,-535.99 355.35,-529.14"/>
</g>
<!-- Node24 -->
<g id="node24" class="node">
<title>Node24</title>
<g id="a_node24"><a xlink:href="../../d3/d15/_c_c_affine_transform_8h.html" target="_top" xlink:title=" ">
<polygon fill="white" stroke="#666666" points="1439.5,-404 1291.5,-404 1291.5,-385 1439.5,-385 1439.5,-404"/>
<text text-anchor="middle" x="1365.5" y="-392" font-family="Helvetica,sans-Serif" font-size="10.00">cocoa/CCAffineTransform.h</text>
</a>
</g>
</g>
<!-- Node23&#45;&gt;Node24 -->
<g id="edge34" class="edge">
<title>Node23&#45;&gt;Node24</title>
<path fill="none" stroke="#63b8ff" d="M630.14,-571.95C755.97,-541.76 1179.34,-440.17 1319.79,-406.47"/>
<polygon fill="#63b8ff" stroke="#63b8ff" points="1320.89,-409.8 1329.79,-404.07 1319.25,-403 1320.89,-409.8"/>
</g>
<!-- Node25 -->
<g id="node25" class="node">
<title>Node25</title>
<g id="a_node25"><a xlink:title=" ">
<polygon fill="#e0e0e0" stroke="#999999" points="520.5,-349 468.5,-349 468.5,-330 520.5,-330 520.5,-349"/>
<text text-anchor="middle" x="494.5" y="-337" font-family="Helvetica,sans-Serif" font-size="10.00">CCGL.h</text>
</a>
</g>
</g>
<!-- Node23&#45;&gt;Node25 -->
<g id="edge38" class="edge">
<title>Node23&#45;&gt;Node25</title>
<path fill="none" stroke="#63b8ff" d="M551.57,-571.95C528.2,-565.44 500.13,-554.36 480.5,-536 433.16,-491.73 432.62,-467.26 418.5,-404 416.66,-395.76 414.3,-392.33 418.5,-385 427.32,-369.62 443.73,-359.04 459.06,-352.08"/>
<polygon fill="#63b8ff" stroke="#63b8ff" points="460.5,-355.27 468.39,-348.19 457.81,-348.81 460.5,-355.27"/>
</g>
<!-- Node26 -->
<g id="node26" class="node">
<title>Node26</title>
<g id="a_node26"><a xlink:href="../../da/d2f/cc_g_l_state_cache_8h.html" target="_top" xlink:title=" ">
<polygon fill="white" stroke="#666666" points="573.5,-404 427.5,-404 427.5,-385 573.5,-385 573.5,-404"/>
<text text-anchor="middle" x="500.5" y="-392" font-family="Helvetica,sans-Serif" font-size="10.00">shaders/ccGLStateCache.h</text>
</a>
</g>
</g>
<!-- Node23&#45;&gt;Node26 -->
<g id="edge39" class="edge">
<title>Node23&#45;&gt;Node26</title>
<path fill="none" stroke="#63b8ff" d="M599.74,-571.95C607.7,-557.79 620.97,-528.79 611.5,-506 593.69,-463.14 550.28,-428.3 523.32,-409.85"/>
<polygon fill="#63b8ff" stroke="#63b8ff" points="525.14,-406.86 514.88,-404.23 521.27,-412.69 525.14,-406.86"/>
</g>
<!-- Node27 -->
<g id="node27" class="node">
<title>Node27</title>
<g id="a_node27"><a xlink:href="../../de/d32/_c_c_g_l_program_8h.html" target="_top" xlink:title=" ">
<polygon fill="white" stroke="#666666" points="371.5,-404 237.5,-404 237.5,-385 371.5,-385 371.5,-404"/>
<text text-anchor="middle" x="304.5" y="-392" font-family="Helvetica,sans-Serif" font-size="10.00">shaders/CCGLProgram.h</text>
</a>
</g>
</g>
<!-- Node23&#45;&gt;Node27 -->
<g id="edge42" class="edge">
<title>Node23&#45;&gt;Node27</title>
<path fill="none" stroke="#63b8ff" d="M531.91,-573.02C503.55,-566.95 471.15,-555.94 447.5,-536 411.03,-505.25 433.66,-473.3 399.5,-440 384.35,-425.24 363.4,-414.71 345.03,-407.62"/>
<polygon fill="#63b8ff" stroke="#63b8ff" points="346.01,-404.25 335.42,-404.12 343.62,-410.83 346.01,-404.25"/>
</g>
<!-- Node28 -->
<g id="node28" class="node">
<title>Node28</title>
<g id="a_node28"><a xlink:title=" ">
<polygon fill="#e0e0e0" stroke="#999999" points="603,-530.5 490,-530.5 490,-511.5 603,-511.5 603,-530.5"/>
<text text-anchor="middle" x="546.5" y="-518.5" font-family="Helvetica,sans-Serif" font-size="10.00">kazmath/kazmath.h</text>
</a>
</g>
</g>
<!-- Node23&#45;&gt;Node28 -->
<g id="edge46" class="edge">
<title>Node23&#45;&gt;Node28</title>
<path fill="none" stroke="#63b8ff" d="M587.42,-571.87C580.26,-563.14 569.01,-549.43 560.11,-538.59"/>
<polygon fill="#63b8ff" stroke="#63b8ff" points="562.66,-536.18 553.61,-530.67 557.25,-540.62 562.66,-536.18"/>
</g>
<!-- Node29 -->
<g id="node29" class="node">
<title>Node29</title>
<g id="a_node29"><a xlink:href="../../dc/dbc/_c_c_script_support_8h.html" target="_top" xlink:title=" ">
<polygon fill="white" stroke="#666666" points="882.5,-464.5 706.5,-464.5 706.5,-445.5 882.5,-445.5 882.5,-464.5"/>
<text text-anchor="middle" x="794.5" y="-452.5" font-family="Helvetica,sans-Serif" font-size="10.00">script_support/CCScriptSupport.h</text>
</a>
</g>
</g>
<!-- Node23&#45;&gt;Node29 -->
<g id="edge47" class="edge">
<title>Node23&#45;&gt;Node29</title>
<path fill="none" stroke="#63b8ff" d="M608.25,-571.94C642.21,-550.8 730.37,-495.92 772.04,-469.98"/>
<polygon fill="#63b8ff" stroke="#63b8ff" points="774.02,-472.87 780.66,-464.62 770.32,-466.93 774.02,-472.87"/>
</g>
<!-- Node23&#45;&gt;Node36 -->
<g id="edge59" class="edge">
<title>Node23&#45;&gt;Node36</title>
<path fill="none" stroke="#63b8ff" d="M657.18,-575.93C810.58,-564.76 1202.73,-536.19 1344.96,-525.83"/>
<polygon fill="#63b8ff" stroke="#63b8ff" points="1345.45,-529.3 1355.16,-525.08 1344.94,-522.32 1345.45,-529.3"/>
</g>
<!-- Node24&#45;&gt;Node5 -->
<g id="edge36" class="edge">
<title>Node24&#45;&gt;Node5</title>
<path fill="none" stroke="#63b8ff" d="M1353.64,-384.73C1300.4,-345.33 1083.12,-184.58 1016.21,-135.08"/>
<polygon fill="#63b8ff" stroke="#63b8ff" points="1018.25,-132.24 1008.13,-129.11 1014.09,-137.87 1018.25,-132.24"/>
</g>
<!-- Node24&#45;&gt;Node20 -->
<g id="edge35" class="edge">
<title>Node24&#45;&gt;Node20</title>
<path fill="none" stroke="#63b8ff" d="M1405.51,-384.98C1448.67,-375.8 1517.48,-361.15 1564.26,-351.19"/>
<polygon fill="#63b8ff" stroke="#63b8ff" points="1565.13,-354.59 1574.18,-349.08 1563.67,-347.74 1565.13,-354.59"/>
</g>
<!-- Node26&#45;&gt;Node5 -->
<g id="edge41" class="edge">
<title>Node26&#45;&gt;Node5</title>
<path fill="none" stroke="#63b8ff" d="M562.9,-384.97C619.28,-373.34 693.5,-346.45 693.5,-285.5 693.5,-285.5 693.5,-285.5 693.5,-228.5 693.5,-178.89 839.42,-146.13 928.73,-130.72"/>
<polygon fill="#63b8ff" stroke="#63b8ff" points="929.52,-134.13 938.79,-129.01 928.35,-127.23 929.52,-134.13"/>
</g>
<!-- Node26&#45;&gt;Node25 -->
<g id="edge40" class="edge">
<title>Node26&#45;&gt;Node25</title>
<path fill="none" stroke="#63b8ff" d="M499.51,-384.75C498.72,-377.8 497.6,-367.85 496.61,-359.13"/>
<polygon fill="#63b8ff" stroke="#63b8ff" points="500.08,-358.63 495.47,-349.09 493.12,-359.42 500.08,-358.63"/>
</g>
<!-- Node27&#45;&gt;Node3 -->
<g id="edge44" class="edge">
<title>Node27&#45;&gt;Node3</title>
<path fill="none" stroke="#63b8ff" d="M320.69,-384.93C348.3,-370.77 406.64,-342.78 459.5,-330 621.13,-290.92 818.4,-285.04 916.3,-284.82"/>
<polygon fill="#63b8ff" stroke="#63b8ff" points="916.32,-288.32 926.31,-284.81 916.31,-281.32 916.32,-288.32"/>
</g>
<!-- Node27&#45;&gt;Node9 -->
<g id="edge43" class="edge">
<title>Node27&#45;&gt;Node9</title>
<path fill="none" stroke="#63b8ff" d="M313.91,-384.74C342.16,-358.42 426.51,-279.85 462.7,-246.14"/>
<polygon fill="#63b8ff" stroke="#63b8ff" points="465.11,-248.68 470.04,-239.31 460.34,-243.56 465.11,-248.68"/>
</g>
<!-- Node27&#45;&gt;Node25 -->
<g id="edge45" class="edge">
<title>Node27&#45;&gt;Node25</title>
<path fill="none" stroke="#63b8ff" d="M335.03,-384.98C368.63,-375.61 422.62,-360.55 458.33,-350.59"/>
<polygon fill="#63b8ff" stroke="#63b8ff" points="459.64,-353.86 468.33,-347.8 457.76,-347.12 459.64,-353.86"/>
</g>
<!-- Node29&#45;&gt;Node8 -->
<g id="edge57" class="edge">
<title>Node29&#45;&gt;Node8</title>
<path fill="none" stroke="#63b8ff" d="M882.51,-454.08C960.26,-451.42 1075.42,-440.72 1168.5,-404 1300.89,-351.77 1430.11,-233.52 1473.87,-191.05"/>
<polygon fill="#63b8ff" stroke="#63b8ff" points="1476.33,-193.53 1481.03,-184.03 1471.43,-188.53 1476.33,-193.53"/>
</g>
<!-- Node29&#45;&gt;Node10 -->
<g id="edge48" class="edge">
<title>Node29&#45;&gt;Node10</title>
<path fill="none" stroke="#63b8ff" d="M706.1,-445.96C675.55,-439.06 643.29,-426.55 620.5,-404 599.56,-383.28 601.5,-369.96 601.5,-340.5 601.5,-340.5 601.5,-340.5 601.5,-283.5 601.5,-252.19 601.5,-215.77 601.5,-194.23"/>
<polygon fill="#63b8ff" stroke="#63b8ff" points="605,-194.18 601.5,-184.18 598,-194.18 605,-194.18"/>
</g>
<!-- Node30 -->
<g id="node30" class="node">
<title>Node30</title>
<g id="a_node30"><a xlink:title=" ">
<polygon fill="#e0e0e0" stroke="#999999" points="893.5,-404 783.5,-404 783.5,-385 893.5,-385 893.5,-404"/>
<text text-anchor="middle" x="838.5" y="-392" font-family="Helvetica,sans-Serif" font-size="10.00">CCAccelerometer.h</text>
</a>
</g>
</g>
<!-- Node29&#45;&gt;Node30 -->
<g id="edge49" class="edge">
<title>Node29&#45;&gt;Node30</title>
<path fill="none" stroke="#63b8ff" d="M800.99,-445.37C807.49,-436.73 817.66,-423.2 825.78,-412.42"/>
<polygon fill="#63b8ff" stroke="#63b8ff" points="828.77,-414.26 831.98,-404.17 823.17,-410.06 828.77,-414.26"/>
</g>
<!-- Node31 -->
<g id="node31" class="node">
<title>Node31</title>
<g id="a_node31"><a xlink:href="../../d3/dff/_c_c_touch_8h.html" target="_top" xlink:title=" ">
<polygon fill="white" stroke="#666666" points="1159,-404 1006,-404 1006,-385 1159,-385 1159,-404"/>
<text text-anchor="middle" x="1082.5" y="-392" font-family="Helvetica,sans-Serif" font-size="10.00">touch_dispatcher/CCTouch.h</text>
</a>
</g>
</g>
<!-- Node29&#45;&gt;Node31 -->
<g id="edge50" class="edge">
<title>Node29&#45;&gt;Node31</title>
<path fill="none" stroke="#63b8ff" d="M836.38,-445.49C887.78,-435.05 974.95,-417.35 1030.57,-406.05"/>
<polygon fill="#63b8ff" stroke="#63b8ff" points="1031.47,-409.44 1040.57,-404.02 1030.08,-402.58 1031.47,-409.44"/>
</g>
<!-- Node32 -->
<g id="node32" class="node">
<title>Node32</title>
<g id="a_node32"><a xlink:href="../../da/ddc/_c_c_set_8h.html" target="_top" xlink:title=" ">
<polygon fill="white" stroke="#666666" points="715.5,-404 629.5,-404 629.5,-385 715.5,-385 715.5,-404"/>
<text text-anchor="middle" x="672.5" y="-392" font-family="Helvetica,sans-Serif" font-size="10.00">cocoa/CCSet.h</text>
</a>
</g>
</g>
<!-- Node29&#45;&gt;Node32 -->
<g id="edge53" class="edge">
<title>Node29&#45;&gt;Node32</title>
<path fill="none" stroke="#63b8ff" d="M776.76,-445.49C756.43,-435.75 722.89,-419.66 699.36,-408.38"/>
<polygon fill="#63b8ff" stroke="#63b8ff" points="700.79,-405.18 690.26,-404.02 697.76,-411.5 700.79,-405.18"/>
</g>
<!-- Node34 -->
<g id="node34" class="node">
<title>Node34</title>
<g id="a_node34"><a xlink:title=" ">
<polygon fill="#e0e0e0" stroke="#999999" points="949.5,-404 911.5,-404 911.5,-385 949.5,-385 949.5,-404"/>
<text text-anchor="middle" x="930.5" y="-392" font-family="Helvetica,sans-Serif" font-size="10.00">map</text>
</a>
</g>
</g>
<!-- Node29&#45;&gt;Node34 -->
<g id="edge56" class="edge">
<title>Node29&#45;&gt;Node34</title>
<path fill="none" stroke="#63b8ff" d="M814.28,-445.49C837.27,-435.6 875.42,-419.19 901.71,-407.89"/>
<polygon fill="#63b8ff" stroke="#63b8ff" points="903.34,-410.99 911.14,-403.83 900.57,-404.56 903.34,-410.99"/>
</g>
<!-- Node35 -->
<g id="node35" class="node">
<title>Node35</title>
<g id="a_node35"><a xlink:title=" ">
<polygon fill="#e0e0e0" stroke="#999999" points="765.5,-404 733.5,-404 733.5,-385 765.5,-385 765.5,-404"/>
<text text-anchor="middle" x="749.5" y="-392" font-family="Helvetica,sans-Serif" font-size="10.00">list</text>
</a>
</g>
</g>
<!-- Node29&#45;&gt;Node35 -->
<g id="edge58" class="edge">
<title>Node29&#45;&gt;Node35</title>
<path fill="none" stroke="#63b8ff" d="M787.86,-445.37C781.21,-436.73 770.81,-423.2 762.51,-412.42"/>
<polygon fill="#63b8ff" stroke="#63b8ff" points="765.04,-409.96 756.17,-404.17 759.49,-414.23 765.04,-409.96"/>
</g>
<!-- Node31&#45;&gt;Node3 -->
<g id="edge51" class="edge">
<title>Node31&#45;&gt;Node3</title>
<path fill="none" stroke="#63b8ff" d="M1073.91,-384.66C1056.21,-366.46 1015.46,-324.55 993.02,-301.47"/>
<polygon fill="#63b8ff" stroke="#63b8ff" points="995.4,-298.89 985.92,-294.16 990.38,-303.77 995.4,-298.89"/>
</g>
<!-- Node31&#45;&gt;Node20 -->
<g id="edge52" class="edge">
<title>Node31&#45;&gt;Node20</title>
<path fill="none" stroke="#63b8ff" d="M1159.01,-385.88C1262.55,-375.56 1445.79,-357.31 1545.38,-347.39"/>
<polygon fill="#63b8ff" stroke="#63b8ff" points="1545.73,-350.87 1555.34,-346.39 1545.04,-343.9 1545.73,-350.87"/>
</g>
<!-- Node32&#45;&gt;Node3 -->
<g id="edge55" class="edge">
<title>Node32&#45;&gt;Node3</title>
<path fill="none" stroke="#63b8ff" d="M680.21,-384.95C693.24,-371.06 721.09,-343.79 750.5,-330 803.18,-305.3 868.93,-294.31 916.09,-289.41"/>
<polygon fill="#63b8ff" stroke="#63b8ff" points="916.54,-292.89 926.16,-288.43 915.86,-285.92 916.54,-292.89"/>
</g>
<!-- Node33 -->
<g id="node33" class="node">
<title>Node33</title>
<g id="a_node33"><a xlink:title=" ">
<polygon fill="#e0e0e0" stroke="#999999" points="791.5,-349 759.5,-349 759.5,-330 791.5,-330 791.5,-349"/>
<text text-anchor="middle" x="775.5" y="-337" font-family="Helvetica,sans-Serif" font-size="10.00">set</text>
</a>
</g>
</g>
<!-- Node32&#45;&gt;Node33 -->
<g id="edge54" class="edge">
<title>Node32&#45;&gt;Node33</title>
<path fill="none" stroke="#63b8ff" d="M689.05,-384.98C705.59,-376.47 731.24,-363.28 750.31,-353.46"/>
<polygon fill="#63b8ff" stroke="#63b8ff" points="752.04,-356.51 759.33,-348.82 748.84,-350.28 752.04,-356.51"/>
</g>
<!-- Node36&#45;&gt;Node8 -->
<g id="edge69" class="edge">
<title>Node36&#45;&gt;Node8</title>
<path fill="none" stroke="#63b8ff" d="M1439.56,-513.8C1475.33,-507.11 1527.04,-494.03 1566.5,-470 1630.13,-431.25 1654.72,-418.12 1682.5,-349 1715.51,-266.86 1584.15,-208.6 1521.29,-185.95"/>
<polygon fill="#63b8ff" stroke="#63b8ff" points="1522.42,-182.64 1511.83,-182.62 1520.1,-189.24 1522.42,-182.64"/>
</g>
<!-- Node37 -->
<g id="node37" class="node">
<title>Node37</title>
<g id="a_node37"><a xlink:href="../../df/de6/cc_types_8h.html" target="_top" xlink:title=" ">
<polygon fill="white" stroke="#666666" points="1521.5,-404 1457.5,-404 1457.5,-385 1521.5,-385 1521.5,-404"/>
<text text-anchor="middle" x="1489.5" y="-392" font-family="Helvetica,sans-Serif" font-size="10.00">ccTypes.h</text>
</a>
</g>
</g>
<!-- Node36&#45;&gt;Node37 -->
<g id="edge60" class="edge">
<title>Node36&#45;&gt;Node37</title>
<path fill="none" stroke="#63b8ff" d="M1397.45,-511.41C1397.79,-495.73 1400.47,-462.06 1416.5,-440 1426.59,-426.11 1442.46,-415.69 1456.84,-408.43"/>
<polygon fill="#63b8ff" stroke="#63b8ff" points="1458.43,-411.55 1465.99,-404.12 1455.45,-405.22 1458.43,-411.55"/>
</g>
<!-- Node38 -->
<g id="node38" class="node">
<title>Node38</title>
<g id="a_node38"><a xlink:href="../../d5/d70/_c_c_texture2_d_8h.html" target="_top" xlink:title=" ">
<polygon fill="white" stroke="#666666" points="1557.5,-464.5 1425.5,-464.5 1425.5,-445.5 1557.5,-445.5 1557.5,-464.5"/>
<text text-anchor="middle" x="1491.5" y="-452.5" font-family="Helvetica,sans-Serif" font-size="10.00">textures/CCTexture2D.h</text>
</a>
</g>
</g>
<!-- Node36&#45;&gt;Node38 -->
<g id="edge64" class="edge">
<title>Node36&#45;&gt;Node38</title>
<path fill="none" stroke="#63b8ff" d="M1410.18,-511.37C1425.59,-500.87 1451.85,-483 1470.35,-470.4"/>
<polygon fill="#63b8ff" stroke="#63b8ff" points="1472.43,-473.22 1478.72,-464.7 1468.49,-467.43 1472.43,-473.22"/>
</g>
<!-- Node37&#45;&gt;Node8 -->
<g id="edge61" class="edge">
<title>Node37&#45;&gt;Node8</title>
<path fill="none" stroke="#63b8ff" d="M1489.5,-384.95C1489.5,-352.95 1489.5,-239.68 1489.5,-194.4"/>
<polygon fill="#63b8ff" stroke="#63b8ff" points="1493,-194.22 1489.5,-184.22 1486,-194.22 1493,-194.22"/>
</g>
<!-- Node37&#45;&gt;Node20 -->
<g id="edge62" class="edge">
<title>Node37&#45;&gt;Node20</title>
<path fill="none" stroke="#63b8ff" d="M1509.58,-384.98C1529.87,-376.38 1561.46,-362.99 1584.67,-353.15"/>
<polygon fill="#63b8ff" stroke="#63b8ff" points="1586.21,-356.3 1594.05,-349.17 1583.48,-349.85 1586.21,-356.3"/>
</g>
<!-- Node37&#45;&gt;Node25 -->
<g id="edge63" class="edge">
<title>Node37&#45;&gt;Node25</title>
<path fill="none" stroke="#63b8ff" d="M1457.35,-386.34C1454.37,-385.82 1451.38,-385.36 1448.5,-385 1356.35,-373.37 694.59,-348.01 531,-341.86"/>
<polygon fill="#63b8ff" stroke="#63b8ff" points="531.08,-338.36 520.95,-341.48 530.82,-345.36 531.08,-338.36"/>
</g>
<!-- Node38&#45;&gt;Node3 -->
<g id="edge66" class="edge">
<title>Node38&#45;&gt;Node3</title>
<path fill="none" stroke="#63b8ff" d="M1432.59,-445.43C1389.75,-437.9 1331.01,-424.81 1282.5,-404 1226.99,-380.18 1224.08,-353.65 1168.5,-330 1126.94,-312.32 1077.17,-301.01 1038.86,-294.22"/>
<polygon fill="#63b8ff" stroke="#63b8ff" points="1039.32,-290.75 1028.87,-292.51 1038.14,-297.65 1039.32,-290.75"/>
</g>
<!-- Node38&#45;&gt;Node8 -->
<g id="edge65" class="edge">
<title>Node38&#45;&gt;Node8</title>
<path fill="none" stroke="#63b8ff" d="M1501.42,-445.21C1510.97,-436.02 1524.77,-420.66 1530.5,-404 1556.61,-328.08 1517.26,-231.96 1498.52,-193.04"/>
<polygon fill="#63b8ff" stroke="#63b8ff" points="1501.63,-191.44 1494.04,-184.04 1495.36,-194.55 1501.63,-191.44"/>
</g>
<!-- Node38&#45;&gt;Node20 -->
<g id="edge67" class="edge">
<title>Node38&#45;&gt;Node20</title>
<path fill="none" stroke="#63b8ff" d="M1506.48,-445.36C1521.72,-436.18 1545.58,-420.71 1563.5,-404 1578.62,-389.9 1593.11,-371.18 1602.76,-357.73"/>
<polygon fill="#63b8ff" stroke="#63b8ff" points="1605.73,-359.58 1608.61,-349.38 1600,-355.56 1605.73,-359.58"/>
</g>
<!-- Node38&#45;&gt;Node37 -->
<g id="edge68" class="edge">
<title>Node38&#45;&gt;Node37</title>
<path fill="none" stroke="#63b8ff" d="M1491.2,-445.37C1490.93,-437.25 1490.5,-424.81 1490.15,-414.39"/>
<polygon fill="#63b8ff" stroke="#63b8ff" points="1493.64,-414.04 1489.8,-404.17 1486.64,-414.28 1493.64,-414.04"/>
</g>
</g>
</svg>
