<?xml version="1.0" encoding="UTF-8" standalone="no"?>
<!DOCTYPE svg PUBLIC "-//W3C//DTD SVG 1.1//EN"
 "http://www.w3.org/Graphics/SVG/1.1/DTD/svg11.dtd">
<!-- Generated by graphviz version 2.43.0 (0)
 -->
<!-- Title: /home/runner/work/cocos&#45;headers/cocos&#45;headers/cocos2dx/script_support/CCScriptSupport.h Pages: 1 -->
<svg width="692pt" height="509pt"
 viewBox="0.00 0.00 691.50 509.00" xmlns="http://www.w3.org/2000/svg" xmlns:xlink="http://www.w3.org/1999/xlink">
<g id="graph0" class="graph" transform="scale(1 1) rotate(0) translate(4 505)">
<title>/home/runner/work/cocos&#45;headers/cocos&#45;headers/cocos2dx/script_support/CCScriptSupport.h</title>
<!-- Node1 -->
<g id="node1" class="node">
<title>Node1</title>
<g id="a_node1"><a xlink:title=" ">
<polygon fill="#bfbfbf" stroke="black" points="369.5,-448.5 369.5,-500.5 509.5,-500.5 509.5,-448.5 369.5,-448.5"/>
<text text-anchor="start" x="377.5" y="-488.5" font-family="Helvetica,sans-Serif" font-size="10.00">/home/runner/work/cocos</text>
<text text-anchor="start" x="377.5" y="-477.5" font-family="Helvetica,sans-Serif" font-size="10.00">&#45;headers/cocos&#45;headers</text>
<text text-anchor="start" x="377.5" y="-466.5" font-family="Helvetica,sans-Serif" font-size="10.00">/cocos2dx/script_support</text>
<text text-anchor="middle" x="439.5" y="-455.5" font-family="Helvetica,sans-Serif" font-size="10.00">/CCScriptSupport.h</text>
</a>
</g>
</g>
<!-- Node2 -->
<g id="node2" class="node">
<title>Node2</title>
<g id="a_node2"><a xlink:href="../../d5/d22/_c_c_common_8h.html" target="_top" xlink:title=" ">
<polygon fill="none" stroke="black" points="225.5,-168.5 225.5,-187.5 353.5,-187.5 353.5,-168.5 225.5,-168.5"/>
<text text-anchor="middle" x="289.5" y="-175.5" font-family="Helvetica,sans-Serif" font-size="10.00">platform/CCCommon.h</text>
</a>
</g>
</g>
<!-- Node1&#45;&gt;Node2 -->
<g id="edge1" class="edge">
<title>Node1&#45;&gt;Node2</title>
<path fill="none" stroke="midnightblue" d="M422.79,-448.29C395.99,-407.01 343.03,-321.8 309.5,-244 302.93,-228.75 297.54,-210.64 294.02,-197.42"/>
<polygon fill="midnightblue" stroke="midnightblue" points="297.39,-196.45 291.52,-187.62 290.6,-198.18 297.39,-196.45"/>
</g>
<!-- Node7 -->
<g id="node7" class="node">
<title>Node7</title>
<g id="a_node7"><a xlink:title=" ">
<polygon fill="none" stroke="#bfbfbf" points="467.5,-392.5 467.5,-411.5 577.5,-411.5 577.5,-392.5 467.5,-392.5"/>
<text text-anchor="middle" x="522.5" y="-399.5" font-family="Helvetica,sans-Serif" font-size="10.00">CCAccelerometer.h</text>
</a>
</g>
</g>
<!-- Node1&#45;&gt;Node7 -->
<g id="edge7" class="edge">
<title>Node1&#45;&gt;Node7</title>
<path fill="none" stroke="midnightblue" d="M469,-448.45C480.79,-438.43 494,-427.21 504.34,-418.42"/>
<polygon fill="midnightblue" stroke="midnightblue" points="506.91,-420.84 512.26,-411.7 502.38,-415.5 506.91,-420.84"/>
</g>
<!-- Node8 -->
<g id="node8" class="node">
<title>Node8</title>
<g id="a_node8"><a xlink:href="../../d3/dff/_c_c_touch_8h.html" target="_top" xlink:title=" ">
<polygon fill="none" stroke="black" points="6,-392.5 6,-411.5 159,-411.5 159,-392.5 6,-392.5"/>
<text text-anchor="middle" x="82.5" y="-399.5" font-family="Helvetica,sans-Serif" font-size="10.00">touch_dispatcher/CCTouch.h</text>
</a>
</g>
</g>
<!-- Node1&#45;&gt;Node8 -->
<g id="edge8" class="edge">
<title>Node1&#45;&gt;Node8</title>
<path fill="none" stroke="midnightblue" d="M369.39,-459.66C300.82,-446.11 197.9,-425.79 135.77,-413.52"/>
<polygon fill="midnightblue" stroke="midnightblue" points="136.27,-410.05 125.78,-411.55 134.92,-416.92 136.27,-410.05"/>
</g>
<!-- Node11 -->
<g id="node11" class="node">
<title>Node11</title>
<g id="a_node11"><a xlink:title=" ">
<polygon fill="none" stroke="#bfbfbf" points="413.5,-168.5 413.5,-187.5 457.5,-187.5 457.5,-168.5 413.5,-168.5"/>
<text text-anchor="middle" x="435.5" y="-175.5" font-family="Helvetica,sans-Serif" font-size="10.00">string</text>
</a>
</g>
</g>
<!-- Node1&#45;&gt;Node11 -->
<g id="edge25" class="edge">
<title>Node1&#45;&gt;Node11</title>
<path fill="none" stroke="midnightblue" d="M439.5,-448.3C439.5,-422.77 439.5,-382.14 439.5,-347 439.5,-347 439.5,-347 439.5,-289 439.5,-256.93 437.78,-219.63 436.6,-197.74"/>
<polygon fill="midnightblue" stroke="midnightblue" points="440.08,-197.34 436.02,-187.55 433.09,-197.73 440.08,-197.34"/>
</g>
<!-- Node16 -->
<g id="node16" class="node">
<title>Node16</title>
<g id="a_node16"><a xlink:href="../../da/ddc/_c_c_set_8h.html" target="_top" xlink:title=" ">
<polygon fill="none" stroke="black" points="177.5,-392.5 177.5,-411.5 263.5,-411.5 263.5,-392.5 177.5,-392.5"/>
<text text-anchor="middle" x="220.5" y="-399.5" font-family="Helvetica,sans-Serif" font-size="10.00">cocoa/CCSet.h</text>
</a>
</g>
</g>
<!-- Node1&#45;&gt;Node16 -->
<g id="edge21" class="edge">
<title>Node1&#45;&gt;Node16</title>
<path fill="none" stroke="midnightblue" d="M369.3,-450.9C331.87,-438.85 287.38,-424.53 256.85,-414.7"/>
<polygon fill="midnightblue" stroke="midnightblue" points="257.66,-411.29 247.07,-411.55 255.52,-417.95 257.66,-411.29"/>
</g>
<!-- Node18 -->
<g id="node18" class="node">
<title>Node18</title>
<g id="a_node18"><a xlink:title=" ">
<polygon fill="none" stroke="#bfbfbf" points="595.5,-392.5 595.5,-411.5 633.5,-411.5 633.5,-392.5 595.5,-392.5"/>
<text text-anchor="middle" x="614.5" y="-399.5" font-family="Helvetica,sans-Serif" font-size="10.00">map</text>
</a>
</g>
</g>
<!-- Node1&#45;&gt;Node18 -->
<g id="edge24" class="edge">
<title>Node1&#45;&gt;Node18</title>
<path fill="none" stroke="midnightblue" d="M501.69,-448.45C530.45,-436.86 563.19,-423.67 585.97,-414.5"/>
<polygon fill="midnightblue" stroke="midnightblue" points="587.41,-417.69 595.38,-410.7 584.79,-411.19 587.41,-417.69"/>
</g>
<!-- Node19 -->
<g id="node19" class="node">
<title>Node19</title>
<g id="a_node19"><a xlink:title=" ">
<polygon fill="none" stroke="#bfbfbf" points="651.5,-392.5 651.5,-411.5 683.5,-411.5 683.5,-392.5 651.5,-392.5"/>
<text text-anchor="middle" x="667.5" y="-399.5" font-family="Helvetica,sans-Serif" font-size="10.00">list</text>
</a>
</g>
</g>
<!-- Node1&#45;&gt;Node19 -->
<g id="edge26" class="edge">
<title>Node1&#45;&gt;Node19</title>
<path fill="none" stroke="midnightblue" d="M509.77,-453.18C546.61,-442.3 592.66,-428.34 641.85,-412.1"/>
<polygon fill="midnightblue" stroke="midnightblue" points="643.02,-415.4 651.4,-408.93 640.81,-408.76 643.02,-415.4"/>
</g>
<!-- Node3 -->
<g id="node3" class="node">
<title>Node3</title>
<g id="a_node3"><a xlink:href="../../d3/d41/_c_c_platform_macros_8h.html" target="_top" xlink:title=" ">
<polygon fill="none" stroke="black" points="181.5,-112.5 181.5,-131.5 297.5,-131.5 297.5,-112.5 181.5,-112.5"/>
<text text-anchor="middle" x="239.5" y="-119.5" font-family="Helvetica,sans-Serif" font-size="10.00">CCPlatformMacros.h</text>
</a>
</g>
</g>
<!-- Node2&#45;&gt;Node3 -->
<g id="edge2" class="edge">
<title>Node2&#45;&gt;Node3</title>
<path fill="none" stroke="midnightblue" d="M281.24,-168.08C274.04,-160.3 263.39,-148.8 254.65,-139.37"/>
<polygon fill="midnightblue" stroke="midnightblue" points="256.97,-136.71 247.6,-131.75 251.83,-141.47 256.97,-136.71"/>
</g>
<!-- Node4 -->
<g id="node4" class="node">
<title>Node4</title>
<g id="a_node4"><a xlink:href="../../db/d9f/cc_config_8h.html" target="_top" xlink:title="cocos2d (cc) configuration file">
<polygon fill="none" stroke="black" points="96,-56.5 96,-75.5 163,-75.5 163,-56.5 96,-56.5"/>
<text text-anchor="middle" x="129.5" y="-63.5" font-family="Helvetica,sans-Serif" font-size="10.00">ccConfig.h</text>
</a>
</g>
</g>
<!-- Node3&#45;&gt;Node4 -->
<g id="edge3" class="edge">
<title>Node3&#45;&gt;Node4</title>
<path fill="none" stroke="midnightblue" d="M221.83,-112.32C204.11,-103.62 176.6,-90.12 156.21,-80.11"/>
<polygon fill="midnightblue" stroke="midnightblue" points="157.65,-76.92 147.13,-75.65 154.56,-83.2 157.65,-76.92"/>
</g>
<!-- Node5 -->
<g id="node5" class="node">
<title>Node5</title>
<g id="a_node5"><a xlink:href="../../dd/d96/_c_c_platform_config_8h.html" target="_top" xlink:title=" ">
<polygon fill="none" stroke="black" points="82,-0.5 82,-19.5 239,-19.5 239,-0.5 82,-0.5"/>
<text text-anchor="middle" x="160.5" y="-7.5" font-family="Helvetica,sans-Serif" font-size="10.00">platform/CCPlatformConfig.h</text>
</a>
</g>
</g>
<!-- Node3&#45;&gt;Node5 -->
<g id="edge5" class="edge">
<title>Node3&#45;&gt;Node5</title>
<path fill="none" stroke="midnightblue" d="M233.3,-112.37C220.26,-94.22 189.8,-51.8 172.7,-27.99"/>
<polygon fill="midnightblue" stroke="midnightblue" points="175.35,-25.67 166.67,-19.59 169.66,-29.76 175.35,-25.67"/>
</g>
<!-- Node6 -->
<g id="node6" class="node">
<title>Node6</title>
<g id="a_node6"><a xlink:title=" ">
<polygon fill="none" stroke="#bfbfbf" points="220,-56.5 220,-75.5 333,-75.5 333,-56.5 220,-56.5"/>
<text text-anchor="middle" x="276.5" y="-63.5" font-family="Helvetica,sans-Serif" font-size="10.00">CCPlatformDefine.h</text>
</a>
</g>
</g>
<!-- Node3&#45;&gt;Node6 -->
<g id="edge6" class="edge">
<title>Node3&#45;&gt;Node6</title>
<path fill="none" stroke="midnightblue" d="M245.61,-112.08C250.78,-104.53 258.35,-93.49 264.69,-84.23"/>
<polygon fill="midnightblue" stroke="midnightblue" points="267.74,-85.98 270.5,-75.75 261.96,-82.02 267.74,-85.98"/>
</g>
<!-- Node4&#45;&gt;Node5 -->
<g id="edge4" class="edge">
<title>Node4&#45;&gt;Node5</title>
<path fill="none" stroke="midnightblue" d="M134.62,-56.08C138.91,-48.61 145.16,-37.72 150.44,-28.52"/>
<polygon fill="midnightblue" stroke="midnightblue" points="153.53,-30.17 155.48,-19.75 147.46,-26.68 153.53,-30.17"/>
</g>
<!-- Node9 -->
<g id="node9" class="node">
<title>Node9</title>
<g id="a_node9"><a xlink:href="../../dd/d69/_c_c_object_8h.html" target="_top" xlink:title=" ">
<polygon fill="none" stroke="black" points="125.5,-280.5 125.5,-299.5 227.5,-299.5 227.5,-280.5 125.5,-280.5"/>
<text text-anchor="middle" x="176.5" y="-287.5" font-family="Helvetica,sans-Serif" font-size="10.00">cocoa/CCObject.h</text>
</a>
</g>
</g>
<!-- Node8&#45;&gt;Node9 -->
<g id="edge9" class="edge">
<title>Node8&#45;&gt;Node9</title>
<path fill="none" stroke="midnightblue" d="M99.34,-392.45C113.46,-384.58 133.36,-371.75 146.5,-356 157.93,-342.29 165.98,-323.51 170.84,-309.66"/>
<polygon fill="midnightblue" stroke="midnightblue" points="174.28,-310.39 174.06,-299.8 167.63,-308.22 174.28,-310.39"/>
</g>
<!-- Node14 -->
<g id="node14" class="node">
<title>Node14</title>
<g id="a_node14"><a xlink:href="../../d6/d09/_c_c_geometry_8h.html" target="_top" xlink:title=" ">
<polygon fill="none" stroke="black" points="19.5,-336.5 19.5,-355.5 137.5,-355.5 137.5,-336.5 19.5,-336.5"/>
<text text-anchor="middle" x="78.5" y="-343.5" font-family="Helvetica,sans-Serif" font-size="10.00">cocoa/CCGeometry.h</text>
</a>
</g>
</g>
<!-- Node8&#45;&gt;Node14 -->
<g id="edge17" class="edge">
<title>Node8&#45;&gt;Node14</title>
<path fill="none" stroke="midnightblue" d="M81.84,-392.08C81.32,-385.01 80.56,-374.86 79.91,-365.99"/>
<polygon fill="midnightblue" stroke="midnightblue" points="83.38,-365.47 79.15,-355.75 76.4,-365.98 83.38,-365.47"/>
</g>
<!-- Node10 -->
<g id="node10" class="node">
<title>Node10</title>
<g id="a_node10"><a xlink:href="../../d9/d2d/_c_c_data_visitor_8h.html" target="_top" xlink:title=" ">
<polygon fill="none" stroke="black" points="318,-224.5 318,-243.5 411,-243.5 411,-224.5 318,-224.5"/>
<text text-anchor="middle" x="364.5" y="-231.5" font-family="Helvetica,sans-Serif" font-size="10.00">CCDataVisitor.h</text>
</a>
</g>
</g>
<!-- Node9&#45;&gt;Node10 -->
<g id="edge10" class="edge">
<title>Node9&#45;&gt;Node10</title>
<path fill="none" stroke="midnightblue" d="M206.29,-280.44C238.33,-271.24 289.43,-256.56 324.85,-246.39"/>
<polygon fill="midnightblue" stroke="midnightblue" points="326.21,-249.64 334.85,-243.52 324.27,-242.91 326.21,-249.64"/>
</g>
<!-- Node12 -->
<g id="node12" class="node">
<title>Node12</title>
<g id="a_node12"><a xlink:href="../../d9/dc8/cc_macros_8h.html" target="_top" xlink:title=" ">
<polygon fill="none" stroke="black" points="141,-224.5 141,-243.5 212,-243.5 212,-224.5 141,-224.5"/>
<text text-anchor="middle" x="176.5" y="-231.5" font-family="Helvetica,sans-Serif" font-size="10.00">ccMacros.h</text>
</a>
</g>
</g>
<!-- Node9&#45;&gt;Node12 -->
<g id="edge13" class="edge">
<title>Node9&#45;&gt;Node12</title>
<path fill="none" stroke="midnightblue" d="M176.5,-280.08C176.5,-273.01 176.5,-262.86 176.5,-253.99"/>
<polygon fill="midnightblue" stroke="midnightblue" points="180,-253.75 176.5,-243.75 173,-253.75 180,-253.75"/>
</g>
<!-- Node10&#45;&gt;Node3 -->
<g id="edge11" class="edge">
<title>Node10&#45;&gt;Node3</title>
<path fill="none" stroke="midnightblue" d="M367,-224.46C370.37,-211.05 374.66,-184.84 362.5,-168 349.46,-149.94 328.38,-139.11 307.32,-132.62"/>
<polygon fill="midnightblue" stroke="midnightblue" points="308.25,-129.25 297.68,-129.94 306.38,-135.99 308.25,-129.25"/>
</g>
<!-- Node10&#45;&gt;Node11 -->
<g id="edge12" class="edge">
<title>Node10&#45;&gt;Node11</title>
<path fill="none" stroke="midnightblue" d="M375.91,-224.32C386.61,-216.18 402.84,-203.84 415.66,-194.09"/>
<polygon fill="midnightblue" stroke="midnightblue" points="418.04,-196.67 423.89,-187.83 413.81,-191.1 418.04,-196.67"/>
</g>
<!-- Node12&#45;&gt;Node2 -->
<g id="edge14" class="edge">
<title>Node12&#45;&gt;Node2</title>
<path fill="none" stroke="midnightblue" d="M194.41,-224.44C212.75,-215.68 241.51,-201.94 262.59,-191.86"/>
<polygon fill="midnightblue" stroke="midnightblue" points="264.17,-194.99 271.68,-187.52 261.15,-188.67 264.17,-194.99"/>
</g>
<!-- Node12&#45;&gt;Node4 -->
<g id="edge16" class="edge">
<title>Node12&#45;&gt;Node4</title>
<path fill="none" stroke="midnightblue" d="M165.44,-224.35C155.88,-216.14 142.65,-202.87 136.5,-188 122.47,-154.09 124.31,-110.23 126.9,-85.72"/>
<polygon fill="midnightblue" stroke="midnightblue" points="130.4,-85.99 128.13,-75.64 123.45,-85.14 130.4,-85.99"/>
</g>
<!-- Node13 -->
<g id="node13" class="node">
<title>Node13</title>
<g id="a_node13"><a xlink:title=" ">
<polygon fill="none" stroke="#bfbfbf" points="145.5,-168.5 145.5,-187.5 207.5,-187.5 207.5,-168.5 145.5,-168.5"/>
<text text-anchor="middle" x="176.5" y="-175.5" font-family="Helvetica,sans-Serif" font-size="10.00">CCStdC.h</text>
</a>
</g>
</g>
<!-- Node12&#45;&gt;Node13 -->
<g id="edge15" class="edge">
<title>Node12&#45;&gt;Node13</title>
<path fill="none" stroke="midnightblue" d="M176.5,-224.08C176.5,-217.01 176.5,-206.86 176.5,-197.99"/>
<polygon fill="midnightblue" stroke="midnightblue" points="180,-197.75 176.5,-187.75 173,-197.75 180,-197.75"/>
</g>
<!-- Node14&#45;&gt;Node3 -->
<g id="edge18" class="edge">
<title>Node14&#45;&gt;Node3</title>
<path fill="none" stroke="midnightblue" d="M78.91,-336.41C80.7,-308.49 89.95,-219.21 136.5,-168 150.93,-152.13 171.96,-141.59 191.26,-134.73"/>
<polygon fill="midnightblue" stroke="midnightblue" points="192.46,-138.02 200.85,-131.56 190.26,-131.37 192.46,-138.02"/>
</g>
<!-- Node14&#45;&gt;Node9 -->
<g id="edge19" class="edge">
<title>Node14&#45;&gt;Node9</title>
<path fill="none" stroke="midnightblue" d="M94.25,-336.32C109.82,-327.74 133.88,-314.49 151.96,-304.52"/>
<polygon fill="midnightblue" stroke="midnightblue" points="153.72,-307.55 160.79,-299.65 150.35,-301.42 153.72,-307.55"/>
</g>
<!-- Node15 -->
<g id="node15" class="node">
<title>Node15</title>
<g id="a_node15"><a xlink:title=" ">
<polygon fill="none" stroke="#bfbfbf" points="0,-280.5 0,-299.5 51,-299.5 51,-280.5 0,-280.5"/>
<text text-anchor="middle" x="25.5" y="-287.5" font-family="Helvetica,sans-Serif" font-size="10.00">math.h</text>
</a>
</g>
</g>
<!-- Node14&#45;&gt;Node15 -->
<g id="edge20" class="edge">
<title>Node14&#45;&gt;Node15</title>
<path fill="none" stroke="midnightblue" d="M69.75,-336.08C62.03,-328.22 50.6,-316.57 41.28,-307.08"/>
<polygon fill="midnightblue" stroke="midnightblue" points="43.59,-304.44 34.09,-299.75 38.6,-309.34 43.59,-304.44"/>
</g>
<!-- Node16&#45;&gt;Node9 -->
<g id="edge23" class="edge">
<title>Node16&#45;&gt;Node9</title>
<path fill="none" stroke="midnightblue" d="M217.05,-392.37C209.88,-374.46 193.27,-332.92 183.68,-308.95"/>
<polygon fill="midnightblue" stroke="midnightblue" points="186.9,-307.58 179.94,-299.59 180.4,-310.18 186.9,-307.58"/>
</g>
<!-- Node17 -->
<g id="node17" class="node">
<title>Node17</title>
<g id="a_node17"><a xlink:title=" ">
<polygon fill="none" stroke="#bfbfbf" points="231.5,-336.5 231.5,-355.5 263.5,-355.5 263.5,-336.5 231.5,-336.5"/>
<text text-anchor="middle" x="247.5" y="-343.5" font-family="Helvetica,sans-Serif" font-size="10.00">set</text>
</a>
</g>
</g>
<!-- Node16&#45;&gt;Node17 -->
<g id="edge22" class="edge">
<title>Node16&#45;&gt;Node17</title>
<path fill="none" stroke="midnightblue" d="M224.96,-392.08C228.65,-384.69 234.02,-373.95 238.59,-364.81"/>
<polygon fill="midnightblue" stroke="midnightblue" points="241.78,-366.26 243.12,-355.75 235.52,-363.13 241.78,-366.26"/>
</g>
</g>
</svg>
