<?xml version="1.0" encoding="UTF-8" standalone="no"?>
<!DOCTYPE svg PUBLIC "-//W3C//DTD SVG 1.1//EN"
 "http://www.w3.org/Graphics/SVG/1.1/DTD/svg11.dtd">
<!-- Generated by graphviz version 2.43.0 (0)
 -->
<!-- Title: CCMenuItemLabel Pages: 1 -->
<svg width="252pt" height="357pt"
 viewBox="0.00 0.00 252.00 357.00" xmlns="http://www.w3.org/2000/svg" xmlns:xlink="http://www.w3.org/1999/xlink">
<g id="graph0" class="graph" transform="scale(1 1) rotate(0) translate(4 353)">
<title>CCMenuItemLabel</title>
<!-- Node1 -->
<g id="node1" class="node">
<title>Node1</title>
<g id="a_node1"><a xlink:title="An abstract class for &quot;label&quot; CCMenuItemLabel items Any CCNode that supports the CCLabelProtocol prot...">
<polygon fill="#999999" stroke="#666666" points="180.5,-74 74.5,-74 74.5,-55 180.5,-55 180.5,-74"/>
<text text-anchor="middle" x="127.5" y="-62" font-family="Helvetica,sans-Serif" font-size="10.00">CCMenuItemLabel</text>
</a>
</g>
</g>
<!-- Node8 -->
<g id="node8" class="node">
<title>Node8</title>
<g id="a_node8"><a xlink:href="../../d4/dc6/classcocos2d_1_1_c_c_menu_item_atlas_font.html" target="_top" xlink:title="A CCMenuItemAtlasFont Helper class that creates a MenuItemLabel class with a LabelAtlas.">
<polygon fill="white" stroke="#666666" points="125,-19 0,-19 0,0 125,0 125,-19"/>
<text text-anchor="middle" x="62.5" y="-7" font-family="Helvetica,sans-Serif" font-size="10.00">CCMenuItemAtlasFont</text>
</a>
</g>
</g>
<!-- Node1&#45;&gt;Node8 -->
<g id="edge7" class="edge">
<title>Node1&#45;&gt;Node8</title>
<path fill="none" stroke="#63b8ff" d="M109.23,-48.6C97.58,-39.11 82.9,-27.13 73.13,-19.17"/>
<polygon fill="#63b8ff" stroke="#63b8ff" points="107.09,-51.38 117.06,-54.98 111.52,-45.95 107.09,-51.38"/>
</g>
<!-- Node9 -->
<g id="node9" class="node">
<title>Node9</title>
<g id="a_node9"><a xlink:href="../../d0/d45/classcocos2d_1_1_c_c_menu_item_font.html" target="_top" xlink:title="A CCMenuItemFont Helper class that creates a CCMenuItemLabel class with a Label.">
<polygon fill="white" stroke="#666666" points="244,-19 143,-19 143,0 244,0 244,-19"/>
<text text-anchor="middle" x="193.5" y="-7" font-family="Helvetica,sans-Serif" font-size="10.00">CCMenuItemFont</text>
</a>
</g>
</g>
<!-- Node1&#45;&gt;Node9 -->
<g id="edge8" class="edge">
<title>Node1&#45;&gt;Node9</title>
<path fill="none" stroke="#63b8ff" d="M146.05,-48.6C157.88,-39.11 172.79,-27.13 182.7,-19.17"/>
<polygon fill="#63b8ff" stroke="#63b8ff" points="143.71,-45.99 138.1,-54.98 148.09,-51.45 143.71,-45.99"/>
</g>
<!-- Node2 -->
<g id="node2" class="node">
<title>Node2</title>
<g id="a_node2"><a xlink:href="../../d3/ddc/classcocos2d_1_1_c_c_menu_item.html" target="_top" xlink:title="CCMenuItem base class.">
<polygon fill="white" stroke="#666666" points="167.5,-129 87.5,-129 87.5,-110 167.5,-110 167.5,-129"/>
<text text-anchor="middle" x="127.5" y="-117" font-family="Helvetica,sans-Serif" font-size="10.00">CCMenuItem</text>
</a>
</g>
</g>
<!-- Node2&#45;&gt;Node1 -->
<g id="edge1" class="edge">
<title>Node2&#45;&gt;Node1</title>
<path fill="none" stroke="#63b8ff" d="M127.5,-99.66C127.5,-90.93 127.5,-80.99 127.5,-74.09"/>
<polygon fill="#63b8ff" stroke="#63b8ff" points="124,-99.75 127.5,-109.75 131,-99.75 124,-99.75"/>
</g>
<!-- Node3 -->
<g id="node3" class="node">
<title>Node3</title>
<g id="a_node3"><a xlink:href="../../de/d2e/classcocos2d_1_1_c_c_node_r_g_b_a.html" target="_top" xlink:title="CCNodeRGBA is a subclass of CCNode that implements the CCRGBAProtocol protocol.">
<polygon fill="white" stroke="#666666" points="169,-184 86,-184 86,-165 169,-165 169,-184"/>
<text text-anchor="middle" x="127.5" y="-172" font-family="Helvetica,sans-Serif" font-size="10.00">CCNodeRGBA</text>
</a>
</g>
</g>
<!-- Node3&#45;&gt;Node2 -->
<g id="edge2" class="edge">
<title>Node3&#45;&gt;Node2</title>
<path fill="none" stroke="#63b8ff" d="M127.5,-154.66C127.5,-145.93 127.5,-135.99 127.5,-129.09"/>
<polygon fill="#63b8ff" stroke="#63b8ff" points="124,-154.75 127.5,-164.75 131,-154.75 124,-154.75"/>
</g>
<!-- Node4 -->
<g id="node4" class="node">
<title>Node4</title>
<g id="a_node4"><a xlink:href="../../d0/ded/classcocos2d_1_1_c_c_node.html" target="_top" xlink:title="CCNode is the main element.">
<polygon fill="white" stroke="#666666" points="108.5,-239 52.5,-239 52.5,-220 108.5,-220 108.5,-239"/>
<text text-anchor="middle" x="80.5" y="-227" font-family="Helvetica,sans-Serif" font-size="10.00">CCNode</text>
</a>
</g>
</g>
<!-- Node4&#45;&gt;Node3 -->
<g id="edge3" class="edge">
<title>Node4&#45;&gt;Node3</title>
<path fill="none" stroke="#63b8ff" d="M94.92,-212.24C103.16,-202.95 113.15,-191.68 119.88,-184.09"/>
<polygon fill="#63b8ff" stroke="#63b8ff" points="92.28,-209.94 88.26,-219.75 97.51,-214.59 92.28,-209.94"/>
</g>
<!-- Node5 -->
<g id="node5" class="node">
<title>Node5</title>
<g id="a_node5"><a xlink:href="../../d3/dbf/classcocos2d_1_1_c_c_object.html" target="_top" xlink:title="NA.">
<polygon fill="white" stroke="#666666" points="111.5,-294 49.5,-294 49.5,-275 111.5,-275 111.5,-294"/>
<text text-anchor="middle" x="80.5" y="-282" font-family="Helvetica,sans-Serif" font-size="10.00">CCObject</text>
</a>
</g>
</g>
<!-- Node5&#45;&gt;Node4 -->
<g id="edge4" class="edge">
<title>Node5&#45;&gt;Node4</title>
<path fill="none" stroke="#63b8ff" d="M80.5,-264.66C80.5,-255.93 80.5,-245.99 80.5,-239.09"/>
<polygon fill="#63b8ff" stroke="#63b8ff" points="77,-264.75 80.5,-274.75 84,-264.75 77,-264.75"/>
</g>
<!-- Node6 -->
<g id="node6" class="node">
<title>Node6</title>
<g id="a_node6"><a xlink:href="../../d5/d61/classcocos2d_1_1_c_c_copying.html" target="_top" xlink:title="NA NA.">
<polygon fill="white" stroke="#666666" points="115.5,-349 45.5,-349 45.5,-330 115.5,-330 115.5,-349"/>
<text text-anchor="middle" x="80.5" y="-337" font-family="Helvetica,sans-Serif" font-size="10.00">CCCopying</text>
</a>
</g>
</g>
<!-- Node6&#45;&gt;Node5 -->
<g id="edge5" class="edge">
<title>Node6&#45;&gt;Node5</title>
<path fill="none" stroke="#63b8ff" d="M80.5,-319.66C80.5,-310.93 80.5,-300.99 80.5,-294.09"/>
<polygon fill="#63b8ff" stroke="#63b8ff" points="77,-319.75 80.5,-329.75 84,-319.75 77,-319.75"/>
</g>
<!-- Node7 -->
<g id="node7" class="node">
<title>Node7</title>
<g id="a_node7"><a xlink:href="../../d8/dda/classcocos2d_1_1_c_c_r_g_b_a_protocol.html" target="_top" xlink:title="RGBA protocol that affects CCNode&#39;s color and opacity NA.">
<polygon fill="white" stroke="#666666" points="224.5,-239 126.5,-239 126.5,-220 224.5,-220 224.5,-239"/>
<text text-anchor="middle" x="175.5" y="-227" font-family="Helvetica,sans-Serif" font-size="10.00">CCRGBAProtocol</text>
</a>
</g>
</g>
<!-- Node7&#45;&gt;Node3 -->
<g id="edge6" class="edge">
<title>Node7&#45;&gt;Node3</title>
<path fill="none" stroke="#63b8ff" d="M160.77,-212.24C152.36,-202.95 142.15,-191.68 135.28,-184.09"/>
<polygon fill="#63b8ff" stroke="#63b8ff" points="158.27,-214.69 167.57,-219.75 163.46,-209.99 158.27,-214.69"/>
</g>
</g>
</svg>
