<?xml version="1.0" encoding="UTF-8" standalone="no"?>
<!DOCTYPE svg PUBLIC "-//W3C//DTD SVG 1.1//EN"
 "http://www.w3.org/Graphics/SVG/1.1/DTD/svg11.dtd">
<!-- Generated by graphviz version 2.43.0 (0)
 -->
<!-- Title: /home/runner/work/cocos&#45;headers/cocos&#45;headers/cocos2dx/CCDirector.h Pages: 1 -->
<svg width="1695pt" height="789pt"
 viewBox="0.00 0.00 1694.50 789.00" xmlns="http://www.w3.org/2000/svg" xmlns:xlink="http://www.w3.org/1999/xlink">
<g id="graph0" class="graph" transform="scale(1 1) rotate(0) translate(4 785)">
<title>/home/runner/work/cocos&#45;headers/cocos&#45;headers/cocos2dx/CCDirector.h</title>
<!-- Node1 -->
<g id="node1" class="node">
<title>Node1</title>
<g id="a_node1"><a xlink:title=" ">
<polygon fill="#bfbfbf" stroke="black" points="1144,-739.5 1144,-780.5 1284,-780.5 1284,-739.5 1144,-739.5"/>
<text text-anchor="start" x="1152" y="-768.5" font-family="Helvetica,sans-Serif" font-size="10.00">/home/runner/work/cocos</text>
<text text-anchor="start" x="1152" y="-757.5" font-family="Helvetica,sans-Serif" font-size="10.00">&#45;headers/cocos&#45;headers</text>
<text text-anchor="middle" x="1214" y="-746.5" font-family="Helvetica,sans-Serif" font-size="10.00">/cocos2dx/CCDirector.h</text>
</a>
</g>
</g>
<!-- Node2 -->
<g id="node2" class="node">
<title>Node2</title>
<g id="a_node2"><a xlink:href="../../d3/d41/_c_c_platform_macros_8h.html" target="_top" xlink:title=" ">
<polygon fill="none" stroke="black" points="769.5,-112.5 769.5,-131.5 930.5,-131.5 930.5,-112.5 769.5,-112.5"/>
<text text-anchor="middle" x="850" y="-119.5" font-family="Helvetica,sans-Serif" font-size="10.00">platform/CCPlatformMacros.h</text>
</a>
</g>
</g>
<!-- Node1&#45;&gt;Node2 -->
<g id="edge1" class="edge">
<title>Node1&#45;&gt;Node2</title>
<path fill="none" stroke="midnightblue" d="M1143.72,-758.21C910.87,-755.21 173.82,-742.65 75,-703 34.06,-686.57 0,-682.11 0,-638 0,-638 0,-638 0,-233 0,-154.18 88.09,-185.23 165,-168 275.53,-143.23 599.56,-130.44 759.11,-125.49"/>
<polygon fill="midnightblue" stroke="midnightblue" points="759.49,-128.98 769.38,-125.17 759.27,-121.98 759.49,-128.98"/>
</g>
<!-- Node6 -->
<g id="node6" class="node">
<title>Node6</title>
<g id="a_node6"><a xlink:href="../../dd/d69/_c_c_object_8h.html" target="_top" xlink:title=" ">
<polygon fill="none" stroke="black" points="646,-280.5 646,-299.5 748,-299.5 748,-280.5 646,-280.5"/>
<text text-anchor="middle" x="697" y="-287.5" font-family="Helvetica,sans-Serif" font-size="10.00">cocoa/CCObject.h</text>
</a>
</g>
</g>
<!-- Node1&#45;&gt;Node6 -->
<g id="edge6" class="edge">
<title>Node1&#45;&gt;Node6</title>
<path fill="none" stroke="midnightblue" d="M1214,-739.3C1214,-715.35 1214,-673.71 1214,-638 1214,-638 1214,-638 1214,-580 1214,-455.06 1113.13,-454.59 1005,-392 922.94,-344.5 815.48,-315.78 751.6,-301.69"/>
<polygon fill="midnightblue" stroke="midnightblue" points="752.25,-298.25 741.74,-299.55 750.77,-305.09 752.25,-298.25"/>
</g>
<!-- Node12 -->
<g id="node12" class="node">
<title>Node12</title>
<g id="a_node12"><a xlink:href="../../df/de6/cc_types_8h.html" target="_top" xlink:title=" ">
<polygon fill="none" stroke="black" points="104,-392.5 104,-411.5 168,-411.5 168,-392.5 104,-392.5"/>
<text text-anchor="middle" x="136" y="-399.5" font-family="Helvetica,sans-Serif" font-size="10.00">ccTypes.h</text>
</a>
</g>
</g>
<!-- Node1&#45;&gt;Node12 -->
<g id="edge15" class="edge">
<title>Node1&#45;&gt;Node12</title>
<path fill="none" stroke="midnightblue" d="M1143.73,-743.63C984.83,-707.68 587.27,-611.07 273,-479 230.38,-461.09 183.97,-433.46 157.58,-416.91"/>
<polygon fill="midnightblue" stroke="midnightblue" points="159.44,-413.95 149.12,-411.56 155.7,-419.86 159.44,-413.95"/>
</g>
<!-- Node13 -->
<g id="node13" class="node">
<title>Node13</title>
<g id="a_node13"><a xlink:href="../../d6/d09/_c_c_geometry_8h.html" target="_top" xlink:title=" ">
<polygon fill="none" stroke="black" points="277,-336.5 277,-355.5 395,-355.5 395,-336.5 277,-336.5"/>
<text text-anchor="middle" x="336" y="-343.5" font-family="Helvetica,sans-Serif" font-size="10.00">cocoa/CCGeometry.h</text>
</a>
</g>
</g>
<!-- Node1&#45;&gt;Node13 -->
<g id="edge22" class="edge">
<title>Node1&#45;&gt;Node13</title>
<path fill="none" stroke="midnightblue" d="M1143.6,-757.71C904.51,-753.04 136.22,-735.54 95,-703 71.38,-684.35 76,-668.1 76,-638 76,-638 76,-638 76,-462.5 76,-430.05 71.17,-414.03 95,-392 119.54,-369.32 204.63,-357.53 266.77,-351.81"/>
<polygon fill="midnightblue" stroke="midnightblue" points="267.27,-355.28 276.92,-350.91 266.65,-348.31 267.27,-355.28"/>
</g>
<!-- Node15 -->
<g id="node15" class="node">
<title>Node15</title>
<g id="a_node15"><a xlink:title=" ">
<polygon fill="none" stroke="#bfbfbf" points="1112,-336.5 1112,-355.5 1164,-355.5 1164,-336.5 1112,-336.5"/>
<text text-anchor="middle" x="1138" y="-343.5" font-family="Helvetica,sans-Serif" font-size="10.00">CCGL.h</text>
</a>
</g>
</g>
<!-- Node1&#45;&gt;Node15 -->
<g id="edge25" class="edge">
<title>Node1&#45;&gt;Node15</title>
<path fill="none" stroke="midnightblue" d="M1224.18,-739.47C1235.44,-716.02 1252,-675.21 1252,-638 1252,-638 1252,-638 1252,-580 1252,-494.22 1193.84,-489.46 1157,-412 1149.9,-397.07 1144.87,-378.93 1141.77,-365.61"/>
<polygon fill="midnightblue" stroke="midnightblue" points="1145.17,-364.76 1139.63,-355.73 1138.33,-366.25 1145.17,-364.76"/>
</g>
<!-- Node16 -->
<g id="node16" class="node">
<title>Node16</title>
<g id="a_node16"><a xlink:href="../../da/d35/_c_c_array_8h.html" target="_top" xlink:title=" ">
<polygon fill="none" stroke="black" points="1280.5,-515.5 1280.5,-534.5 1375.5,-534.5 1375.5,-515.5 1280.5,-515.5"/>
<text text-anchor="middle" x="1328" y="-522.5" font-family="Helvetica,sans-Serif" font-size="10.00">cocoa/CCArray.h</text>
</a>
</g>
</g>
<!-- Node1&#45;&gt;Node16 -->
<g id="edge23" class="edge">
<title>Node1&#45;&gt;Node16</title>
<path fill="none" stroke="midnightblue" d="M1235.99,-739.41C1246.24,-729.35 1257.92,-716.41 1266,-703 1297.89,-650.12 1316.55,-578.46 1324.09,-544.85"/>
<polygon fill="midnightblue" stroke="midnightblue" points="1327.6,-545.16 1326.29,-534.65 1320.76,-543.69 1327.6,-545.16"/>
</g>
<!-- Node18 -->
<g id="node18" class="node">
<title>Node18</title>
<g id="a_node18"><a xlink:title=" ">
<polygon fill="none" stroke="#bfbfbf" points="1559,-683.5 1559,-702.5 1655,-702.5 1655,-683.5 1559,-683.5"/>
<text text-anchor="middle" x="1607" y="-690.5" font-family="Helvetica,sans-Serif" font-size="10.00">kazmath/mat4.h</text>
</a>
</g>
</g>
<!-- Node1&#45;&gt;Node18 -->
<g id="edge26" class="edge">
<title>Node1&#45;&gt;Node18</title>
<path fill="none" stroke="midnightblue" d="M1284.26,-747.38C1359.81,-734.88 1478.52,-715.25 1548.97,-703.6"/>
<polygon fill="midnightblue" stroke="midnightblue" points="1549.7,-707.02 1559,-701.94 1548.56,-700.12 1549.7,-707.02"/>
</g>
<!-- Node19 -->
<g id="node19" class="node">
<title>Node19</title>
<g id="a_node19"><a xlink:href="../../df/d80/_c_c_label_atlas_8h.html" target="_top" xlink:title=" ">
<polygon fill="none" stroke="black" points="104,-683.5 104,-702.5 256,-702.5 256,-683.5 104,-683.5"/>
<text text-anchor="middle" x="180" y="-690.5" font-family="Helvetica,sans-Serif" font-size="10.00">label_nodes/CCLabelAtlas.h</text>
</a>
</g>
</g>
<!-- Node1&#45;&gt;Node19 -->
<g id="edge27" class="edge">
<title>Node1&#45;&gt;Node19</title>
<path fill="none" stroke="midnightblue" d="M1143.77,-755.81C986.92,-748.46 596.3,-728.98 270,-703 268.72,-702.9 267.44,-702.79 266.14,-702.69"/>
<polygon fill="midnightblue" stroke="midnightblue" points="266.35,-699.19 256.09,-701.83 265.75,-706.17 266.35,-699.19"/>
</g>
<!-- Node35 -->
<g id="node35" class="node">
<title>Node35</title>
<g id="a_node35"><a xlink:href="../../d7/d80/cc_type_info_8h.html" target="_top" xlink:title=" ">
<polygon fill="none" stroke="black" points="1463.5,-683.5 1463.5,-702.5 1540.5,-702.5 1540.5,-683.5 1463.5,-683.5"/>
<text text-anchor="middle" x="1502" y="-690.5" font-family="Helvetica,sans-Serif" font-size="10.00">ccTypeInfo.h</text>
</a>
</g>
</g>
<!-- Node1&#45;&gt;Node35 -->
<g id="edge66" class="edge">
<title>Node1&#45;&gt;Node35</title>
<path fill="none" stroke="midnightblue" d="M1284.08,-743.18C1336.98,-731.24 1408.13,-715.19 1454.52,-704.72"/>
<polygon fill="midnightblue" stroke="midnightblue" points="1455.33,-708.12 1464.31,-702.51 1453.79,-701.29 1455.33,-708.12"/>
</g>
<!-- Node3 -->
<g id="node3" class="node">
<title>Node3</title>
<g id="a_node3"><a xlink:href="../../db/d9f/cc_config_8h.html" target="_top" xlink:title="cocos2d (cc) configuration file">
<polygon fill="none" stroke="black" points="967.5,-56.5 967.5,-75.5 1034.5,-75.5 1034.5,-56.5 967.5,-56.5"/>
<text text-anchor="middle" x="1001" y="-63.5" font-family="Helvetica,sans-Serif" font-size="10.00">ccConfig.h</text>
</a>
</g>
</g>
<!-- Node2&#45;&gt;Node3 -->
<g id="edge2" class="edge">
<title>Node2&#45;&gt;Node3</title>
<path fill="none" stroke="midnightblue" d="M873.93,-112.44C899.22,-103.4 939.3,-89.06 967.68,-78.92"/>
<polygon fill="midnightblue" stroke="midnightblue" points="968.95,-82.18 977.19,-75.52 966.59,-75.59 968.95,-82.18"/>
</g>
<!-- Node4 -->
<g id="node4" class="node">
<title>Node4</title>
<g id="a_node4"><a xlink:href="../../dd/d96/_c_c_platform_config_8h.html" target="_top" xlink:title=" ">
<polygon fill="none" stroke="black" points="825.5,-0.5 825.5,-19.5 982.5,-19.5 982.5,-0.5 825.5,-0.5"/>
<text text-anchor="middle" x="904" y="-7.5" font-family="Helvetica,sans-Serif" font-size="10.00">platform/CCPlatformConfig.h</text>
</a>
</g>
</g>
<!-- Node2&#45;&gt;Node4 -->
<g id="edge4" class="edge">
<title>Node2&#45;&gt;Node4</title>
<path fill="none" stroke="midnightblue" d="M842.29,-112.16C832,-99.23 816.28,-74.69 827,-56 835.62,-40.99 851.39,-30.5 866.43,-23.46"/>
<polygon fill="midnightblue" stroke="midnightblue" points="867.82,-26.67 875.63,-19.51 865.06,-20.24 867.82,-26.67"/>
</g>
<!-- Node5 -->
<g id="node5" class="node">
<title>Node5</title>
<g id="a_node5"><a xlink:title=" ">
<polygon fill="none" stroke="#bfbfbf" points="836.5,-56.5 836.5,-75.5 949.5,-75.5 949.5,-56.5 836.5,-56.5"/>
<text text-anchor="middle" x="893" y="-63.5" font-family="Helvetica,sans-Serif" font-size="10.00">CCPlatformDefine.h</text>
</a>
</g>
</g>
<!-- Node2&#45;&gt;Node5 -->
<g id="edge5" class="edge">
<title>Node2&#45;&gt;Node5</title>
<path fill="none" stroke="midnightblue" d="M857.1,-112.08C863.24,-104.38 872.27,-93.03 879.74,-83.65"/>
<polygon fill="midnightblue" stroke="midnightblue" points="882.54,-85.75 886.03,-75.75 877.06,-81.39 882.54,-85.75"/>
</g>
<!-- Node3&#45;&gt;Node4 -->
<g id="edge3" class="edge">
<title>Node3&#45;&gt;Node4</title>
<path fill="none" stroke="midnightblue" d="M985.42,-56.32C970,-47.74 946.19,-34.49 928.29,-24.52"/>
<polygon fill="midnightblue" stroke="midnightblue" points="929.99,-21.46 919.55,-19.65 926.58,-27.58 929.99,-21.46"/>
</g>
<!-- Node7 -->
<g id="node7" class="node">
<title>Node7</title>
<g id="a_node7"><a xlink:href="../../d9/d2d/_c_c_data_visitor_8h.html" target="_top" xlink:title=" ">
<polygon fill="none" stroke="black" points="650.5,-224.5 650.5,-243.5 743.5,-243.5 743.5,-224.5 650.5,-224.5"/>
<text text-anchor="middle" x="697" y="-231.5" font-family="Helvetica,sans-Serif" font-size="10.00">CCDataVisitor.h</text>
</a>
</g>
</g>
<!-- Node6&#45;&gt;Node7 -->
<g id="edge7" class="edge">
<title>Node6&#45;&gt;Node7</title>
<path fill="none" stroke="midnightblue" d="M697,-280.08C697,-273.01 697,-262.86 697,-253.99"/>
<polygon fill="midnightblue" stroke="midnightblue" points="700.5,-253.75 697,-243.75 693.5,-253.75 700.5,-253.75"/>
</g>
<!-- Node9 -->
<g id="node9" class="node">
<title>Node9</title>
<g id="a_node9"><a xlink:href="../../d9/dc8/cc_macros_8h.html" target="_top" xlink:title=" ">
<polygon fill="none" stroke="black" points="1197.5,-224.5 1197.5,-243.5 1268.5,-243.5 1268.5,-224.5 1197.5,-224.5"/>
<text text-anchor="middle" x="1233" y="-231.5" font-family="Helvetica,sans-Serif" font-size="10.00">ccMacros.h</text>
</a>
</g>
</g>
<!-- Node6&#45;&gt;Node9 -->
<g id="edge10" class="edge">
<title>Node6&#45;&gt;Node9</title>
<path fill="none" stroke="midnightblue" d="M748.39,-283.82C852.78,-273.31 1088.14,-249.59 1187.43,-239.59"/>
<polygon fill="midnightblue" stroke="midnightblue" points="1187.86,-243.07 1197.45,-238.58 1187.15,-236.1 1187.86,-243.07"/>
</g>
<!-- Node7&#45;&gt;Node2 -->
<g id="edge8" class="edge">
<title>Node7&#45;&gt;Node2</title>
<path fill="none" stroke="midnightblue" d="M709.01,-224.37C735.15,-205.57 797.47,-160.77 829.79,-137.53"/>
<polygon fill="midnightblue" stroke="midnightblue" points="831.97,-140.27 838.05,-131.59 827.89,-134.59 831.97,-140.27"/>
</g>
<!-- Node8 -->
<g id="node8" class="node">
<title>Node8</title>
<g id="a_node8"><a xlink:title=" ">
<polygon fill="none" stroke="#bfbfbf" points="174,-168.5 174,-187.5 218,-187.5 218,-168.5 174,-168.5"/>
<text text-anchor="middle" x="196" y="-175.5" font-family="Helvetica,sans-Serif" font-size="10.00">string</text>
</a>
</g>
</g>
<!-- Node7&#45;&gt;Node8 -->
<g id="edge9" class="edge">
<title>Node7&#45;&gt;Node8</title>
<path fill="none" stroke="midnightblue" d="M650.32,-227.97C549.58,-217.11 313.98,-191.72 228.07,-182.46"/>
<polygon fill="midnightblue" stroke="midnightblue" points="228.44,-178.98 218.12,-181.38 227.69,-185.94 228.44,-178.98"/>
</g>
<!-- Node9&#45;&gt;Node3 -->
<g id="edge14" class="edge">
<title>Node9&#45;&gt;Node3</title>
<path fill="none" stroke="midnightblue" d="M1245.08,-224.39C1261.31,-211.76 1286.62,-187.58 1273,-168 1221.1,-93.37 1107.22,-73.77 1044.52,-68.7"/>
<polygon fill="midnightblue" stroke="midnightblue" points="1044.77,-65.21 1034.55,-67.98 1044.27,-72.19 1044.77,-65.21"/>
</g>
<!-- Node10 -->
<g id="node10" class="node">
<title>Node10</title>
<g id="a_node10"><a xlink:href="../../d5/d22/_c_c_common_8h.html" target="_top" xlink:title=" ">
<polygon fill="none" stroke="black" points="960,-168.5 960,-187.5 1088,-187.5 1088,-168.5 960,-168.5"/>
<text text-anchor="middle" x="1024" y="-175.5" font-family="Helvetica,sans-Serif" font-size="10.00">platform/CCCommon.h</text>
</a>
</g>
</g>
<!-- Node9&#45;&gt;Node10 -->
<g id="edge11" class="edge">
<title>Node9&#45;&gt;Node10</title>
<path fill="none" stroke="midnightblue" d="M1199.88,-224.44C1163.88,-215.14 1106.23,-200.25 1066.81,-190.06"/>
<polygon fill="midnightblue" stroke="midnightblue" points="1067.52,-186.63 1056.96,-187.52 1065.77,-193.41 1067.52,-186.63"/>
</g>
<!-- Node11 -->
<g id="node11" class="node">
<title>Node11</title>
<g id="a_node11"><a xlink:title=" ">
<polygon fill="none" stroke="#bfbfbf" points="1202,-168.5 1202,-187.5 1264,-187.5 1264,-168.5 1202,-168.5"/>
<text text-anchor="middle" x="1233" y="-175.5" font-family="Helvetica,sans-Serif" font-size="10.00">CCStdC.h</text>
</a>
</g>
</g>
<!-- Node9&#45;&gt;Node11 -->
<g id="edge13" class="edge">
<title>Node9&#45;&gt;Node11</title>
<path fill="none" stroke="midnightblue" d="M1233,-224.08C1233,-217.01 1233,-206.86 1233,-197.99"/>
<polygon fill="midnightblue" stroke="midnightblue" points="1236.5,-197.75 1233,-187.75 1229.5,-197.75 1236.5,-197.75"/>
</g>
<!-- Node10&#45;&gt;Node2 -->
<g id="edge12" class="edge">
<title>Node10&#45;&gt;Node2</title>
<path fill="none" stroke="midnightblue" d="M996.43,-168.44C966.9,-159.28 919.88,-144.69 887.12,-134.52"/>
<polygon fill="midnightblue" stroke="midnightblue" points="888.03,-131.14 877.44,-131.52 885.96,-137.82 888.03,-131.14"/>
</g>
<!-- Node12&#45;&gt;Node8 -->
<g id="edge16" class="edge">
<title>Node12&#45;&gt;Node8</title>
<path fill="none" stroke="midnightblue" d="M138.06,-392.49C144.29,-366.89 163.62,-288.42 182,-224 184.53,-215.14 187.54,-205.36 190.13,-197.19"/>
<polygon fill="midnightblue" stroke="midnightblue" points="193.48,-198.18 193.19,-187.59 186.82,-196.05 193.48,-198.18"/>
</g>
<!-- Node12&#45;&gt;Node13 -->
<g id="edge17" class="edge">
<title>Node12&#45;&gt;Node13</title>
<path fill="none" stroke="midnightblue" d="M167.69,-392.44C202.07,-383.16 257.08,-368.31 294.79,-358.13"/>
<polygon fill="midnightblue" stroke="midnightblue" points="295.72,-361.5 304.46,-355.52 293.89,-354.74 295.72,-361.5"/>
</g>
<!-- Node12&#45;&gt;Node15 -->
<g id="edge21" class="edge">
<title>Node12&#45;&gt;Node15</title>
<path fill="none" stroke="midnightblue" d="M168.26,-398.29C191.75,-396.38 224.33,-393.83 253,-392 582.36,-370.96 981.19,-353.58 1101.77,-348.5"/>
<polygon fill="midnightblue" stroke="midnightblue" points="1102.08,-351.99 1111.92,-348.08 1101.78,-345 1102.08,-351.99"/>
</g>
<!-- Node13&#45;&gt;Node2 -->
<g id="edge18" class="edge">
<title>Node13&#45;&gt;Node2</title>
<path fill="none" stroke="midnightblue" d="M342.47,-336.47C365.21,-307.15 445.11,-210.06 536,-168 574.56,-150.15 680.74,-137.47 759,-130.21"/>
<polygon fill="midnightblue" stroke="midnightblue" points="759.72,-133.66 769.36,-129.27 759.08,-126.69 759.72,-133.66"/>
</g>
<!-- Node13&#45;&gt;Node6 -->
<g id="edge19" class="edge">
<title>Node13&#45;&gt;Node6</title>
<path fill="none" stroke="midnightblue" d="M393.2,-336.44C459.39,-326.54 567.94,-310.3 635.79,-300.16"/>
<polygon fill="midnightblue" stroke="midnightblue" points="636.53,-303.58 645.9,-298.64 635.5,-296.66 636.53,-303.58"/>
</g>
<!-- Node14 -->
<g id="node14" class="node">
<title>Node14</title>
<g id="a_node14"><a xlink:title=" ">
<polygon fill="none" stroke="#bfbfbf" points="310.5,-280.5 310.5,-299.5 361.5,-299.5 361.5,-280.5 310.5,-280.5"/>
<text text-anchor="middle" x="336" y="-287.5" font-family="Helvetica,sans-Serif" font-size="10.00">math.h</text>
</a>
</g>
</g>
<!-- Node13&#45;&gt;Node14 -->
<g id="edge20" class="edge">
<title>Node13&#45;&gt;Node14</title>
<path fill="none" stroke="midnightblue" d="M336,-336.08C336,-329.01 336,-318.86 336,-309.99"/>
<polygon fill="midnightblue" stroke="midnightblue" points="339.5,-309.75 336,-299.75 332.5,-309.75 339.5,-309.75"/>
</g>
<!-- Node17 -->
<g id="node17" class="node">
<title>Node17</title>
<g id="a_node17"><a xlink:title=" ">
<polygon fill="none" stroke="#bfbfbf" points="1280,-448.5 1280,-478.5 1400,-478.5 1400,-448.5 1280,-448.5"/>
<text text-anchor="start" x="1288" y="-466.5" font-family="Helvetica,sans-Serif" font-size="10.00">support/data_support</text>
<text text-anchor="middle" x="1340" y="-455.5" font-family="Helvetica,sans-Serif" font-size="10.00">/ccCArray.h</text>
</a>
</g>
</g>
<!-- Node16&#45;&gt;Node17 -->
<g id="edge24" class="edge">
<title>Node16&#45;&gt;Node17</title>
<path fill="none" stroke="midnightblue" d="M1329.72,-515.48C1331.15,-508.4 1333.25,-497.97 1335.18,-488.39"/>
<polygon fill="midnightblue" stroke="midnightblue" points="1338.63,-489.02 1337.17,-478.52 1331.76,-487.63 1338.63,-489.02"/>
</g>
<!-- Node20 -->
<g id="node20" class="node">
<title>Node20</title>
<g id="a_node20"><a xlink:href="../../df/de5/_c_c_atlas_node_8h.html" target="_top" xlink:title=" ">
<polygon fill="none" stroke="black" points="105,-627.5 105,-646.5 255,-646.5 255,-627.5 105,-627.5"/>
<text text-anchor="middle" x="180" y="-634.5" font-family="Helvetica,sans-Serif" font-size="10.00">base_nodes/CCAtlasNode.h</text>
</a>
</g>
</g>
<!-- Node19&#45;&gt;Node20 -->
<g id="edge28" class="edge">
<title>Node19&#45;&gt;Node20</title>
<path fill="none" stroke="midnightblue" d="M180,-683.08C180,-676.01 180,-665.86 180,-656.99"/>
<polygon fill="midnightblue" stroke="midnightblue" points="183.5,-656.75 180,-646.75 176.5,-656.75 183.5,-656.75"/>
</g>
<!-- Node20&#45;&gt;Node12 -->
<g id="edge65" class="edge">
<title>Node20&#45;&gt;Node12</title>
<path fill="none" stroke="midnightblue" d="M177.57,-627.42C172.72,-610.08 161.75,-569.57 155,-535 147.19,-495 141.14,-447.59 138.12,-421.88"/>
<polygon fill="midnightblue" stroke="midnightblue" points="141.57,-421.23 136.95,-411.7 134.61,-422.03 141.57,-421.23"/>
</g>
<!-- Node21 -->
<g id="node21" class="node">
<title>Node21</title>
<g id="a_node21"><a xlink:href="../../db/d7f/_c_c_node_8h.html" target="_top" xlink:title=" ">
<polygon fill="none" stroke="black" points="987.5,-571.5 987.5,-590.5 1052.5,-590.5 1052.5,-571.5 987.5,-571.5"/>
<text text-anchor="middle" x="1020" y="-578.5" font-family="Helvetica,sans-Serif" font-size="10.00">CCNode.h</text>
</a>
</g>
</g>
<!-- Node20&#45;&gt;Node21 -->
<g id="edge29" class="edge">
<title>Node20&#45;&gt;Node21</title>
<path fill="none" stroke="midnightblue" d="M255.28,-631.16C426.82,-620.13 842.24,-593.43 977.01,-584.76"/>
<polygon fill="midnightblue" stroke="midnightblue" points="977.57,-588.23 987.33,-584.1 977.13,-581.25 977.57,-588.23"/>
</g>
<!-- Node33 -->
<g id="node33" class="node">
<title>Node33</title>
<g id="a_node33"><a xlink:href="../../d8/d76/_c_c_protocols_8h.html" target="_top" xlink:title=" ">
<polygon fill="none" stroke="black" points="164,-515.5 164,-534.5 248,-534.5 248,-515.5 164,-515.5"/>
<text text-anchor="middle" x="206" y="-522.5" font-family="Helvetica,sans-Serif" font-size="10.00">CCProtocols.h</text>
</a>
</g>
</g>
<!-- Node20&#45;&gt;Node33 -->
<g id="edge64" class="edge">
<title>Node20&#45;&gt;Node33</title>
<path fill="none" stroke="midnightblue" d="M182.04,-627.37C186.24,-609.62 195.92,-568.67 201.6,-544.6"/>
<polygon fill="midnightblue" stroke="midnightblue" points="205.08,-545.13 203.97,-534.59 198.26,-543.52 205.08,-545.13"/>
</g>
<!-- Node21&#45;&gt;Node9 -->
<g id="edge30" class="edge">
<title>Node21&#45;&gt;Node9</title>
<path fill="none" stroke="midnightblue" d="M1036.78,-571.43C1053.41,-562.77 1079.43,-548.74 1101,-535 1156.56,-499.61 1163.44,-480.03 1221,-448 1257.92,-427.45 1285.45,-447.08 1309,-412 1345.43,-357.74 1281.94,-283.17 1249.86,-250.92"/>
<polygon fill="midnightblue" stroke="midnightblue" points="1252.06,-248.17 1242.47,-243.67 1247.16,-253.17 1252.06,-248.17"/>
</g>
<!-- Node21&#45;&gt;Node15 -->
<g id="edge35" class="edge">
<title>Node21&#45;&gt;Node15</title>
<path fill="none" stroke="midnightblue" d="M1024.34,-571.43C1041.54,-537.47 1105.14,-411.89 1128.93,-364.9"/>
<polygon fill="midnightblue" stroke="midnightblue" points="1132.1,-366.4 1133.49,-355.9 1125.85,-363.24 1132.1,-366.4"/>
</g>
<!-- Node21&#45;&gt;Node16 -->
<g id="edge34" class="edge">
<title>Node21&#45;&gt;Node16</title>
<path fill="none" stroke="midnightblue" d="M1052.67,-574.27C1104.47,-565.19 1206.16,-547.36 1270.4,-536.1"/>
<polygon fill="midnightblue" stroke="midnightblue" points="1271.13,-539.52 1280.38,-534.35 1269.92,-532.63 1271.13,-539.52"/>
</g>
<!-- Node22 -->
<g id="node22" class="node">
<title>Node22</title>
<g id="a_node22"><a xlink:href="../../d3/d15/_c_c_affine_transform_8h.html" target="_top" xlink:title=" ">
<polygon fill="none" stroke="black" points="262,-392.5 262,-411.5 410,-411.5 410,-392.5 262,-392.5"/>
<text text-anchor="middle" x="336" y="-399.5" font-family="Helvetica,sans-Serif" font-size="10.00">cocoa/CCAffineTransform.h</text>
</a>
</g>
</g>
<!-- Node21&#45;&gt;Node22 -->
<g id="edge31" class="edge">
<title>Node21&#45;&gt;Node22</title>
<path fill="none" stroke="midnightblue" d="M987.47,-571.58C875.41,-542.58 505.39,-446.83 378.86,-414.09"/>
<polygon fill="midnightblue" stroke="midnightblue" points="379.69,-410.69 369.13,-411.57 377.93,-417.47 379.69,-410.69"/>
</g>
<!-- Node23 -->
<g id="node23" class="node">
<title>Node23</title>
<g id="a_node23"><a xlink:href="../../da/d2f/cc_g_l_state_cache_8h.html" target="_top" xlink:title=" ">
<polygon fill="none" stroke="black" points="1356,-392.5 1356,-411.5 1502,-411.5 1502,-392.5 1356,-392.5"/>
<text text-anchor="middle" x="1429" y="-399.5" font-family="Helvetica,sans-Serif" font-size="10.00">shaders/ccGLStateCache.h</text>
</a>
</g>
</g>
<!-- Node21&#45;&gt;Node23 -->
<g id="edge36" class="edge">
<title>Node21&#45;&gt;Node23</title>
<path fill="none" stroke="midnightblue" d="M1052.58,-571.87C1080,-564.34 1119.79,-551.77 1152,-535 1210.11,-504.75 1212.13,-476.76 1271,-448 1303.37,-432.19 1342.27,-421.02 1373.37,-413.77"/>
<polygon fill="midnightblue" stroke="midnightblue" points="1374.2,-417.17 1383.18,-411.55 1372.65,-410.34 1374.2,-417.17"/>
</g>
<!-- Node24 -->
<g id="node24" class="node">
<title>Node24</title>
<g id="a_node24"><a xlink:href="../../de/d32/_c_c_g_l_program_8h.html" target="_top" xlink:title=" ">
<polygon fill="none" stroke="black" points="1166,-392.5 1166,-411.5 1300,-411.5 1300,-392.5 1166,-392.5"/>
<text text-anchor="middle" x="1233" y="-399.5" font-family="Helvetica,sans-Serif" font-size="10.00">shaders/CCGLProgram.h</text>
</a>
</g>
</g>
<!-- Node21&#45;&gt;Node24 -->
<g id="edge39" class="edge">
<title>Node21&#45;&gt;Node24</title>
<path fill="none" stroke="midnightblue" d="M1031.47,-571.4C1043.01,-562.6 1061.18,-548.37 1076,-535 1116.37,-498.58 1119.66,-482.1 1162,-448 1176.64,-436.21 1194.52,-424.89 1208.67,-416.56"/>
<polygon fill="midnightblue" stroke="midnightblue" points="1210.46,-419.57 1217.36,-411.54 1206.95,-413.51 1210.46,-419.57"/>
</g>
<!-- Node25 -->
<g id="node25" class="node">
<title>Node25</title>
<g id="a_node25"><a xlink:title=" ">
<polygon fill="none" stroke="#bfbfbf" points="920.5,-515.5 920.5,-534.5 1033.5,-534.5 1033.5,-515.5 920.5,-515.5"/>
<text text-anchor="middle" x="977" y="-522.5" font-family="Helvetica,sans-Serif" font-size="10.00">kazmath/kazmath.h</text>
</a>
</g>
</g>
<!-- Node21&#45;&gt;Node25 -->
<g id="edge43" class="edge">
<title>Node21&#45;&gt;Node25</title>
<path fill="none" stroke="midnightblue" d="M1012.9,-571.08C1006.76,-563.38 997.73,-552.03 990.26,-542.65"/>
<polygon fill="midnightblue" stroke="midnightblue" points="992.94,-540.39 983.97,-534.75 987.46,-544.75 992.94,-540.39"/>
</g>
<!-- Node26 -->
<g id="node26" class="node">
<title>Node26</title>
<g id="a_node26"><a xlink:href="../../dc/dbc/_c_c_script_support_8h.html" target="_top" xlink:title=" ">
<polygon fill="none" stroke="black" points="761,-454 761,-473 937,-473 937,-454 761,-454"/>
<text text-anchor="middle" x="849" y="-461" font-family="Helvetica,sans-Serif" font-size="10.00">script_support/CCScriptSupport.h</text>
</a>
</g>
</g>
<!-- Node21&#45;&gt;Node26 -->
<g id="edge44" class="edge">
<title>Node21&#45;&gt;Node26</title>
<path fill="none" stroke="midnightblue" d="M988.96,-571.39C966.04,-564.07 934.82,-552.02 911,-535 890.16,-520.11 871.54,-496.93 860.27,-481.25"/>
<polygon fill="midnightblue" stroke="midnightblue" points="863.11,-479.21 854.52,-473.01 857.37,-483.21 863.11,-479.21"/>
</g>
<!-- Node21&#45;&gt;Node33 -->
<g id="edge56" class="edge">
<title>Node21&#45;&gt;Node33</title>
<path fill="none" stroke="midnightblue" d="M987.34,-577.83C862.17,-569.53 412.44,-539.69 258.28,-529.47"/>
<polygon fill="midnightblue" stroke="midnightblue" points="258.34,-525.96 248.13,-528.79 257.88,-532.95 258.34,-525.96"/>
</g>
<!-- Node22&#45;&gt;Node2 -->
<g id="edge33" class="edge">
<title>Node22&#45;&gt;Node2</title>
<path fill="none" stroke="midnightblue" d="M350.08,-392.33C393.09,-365.98 526.72,-284.88 641,-224 691.17,-197.27 704.81,-192.72 756,-168 778.48,-157.15 804.03,-144.92 822.81,-135.96"/>
<polygon fill="midnightblue" stroke="midnightblue" points="824.44,-139.06 831.96,-131.59 821.43,-132.74 824.44,-139.06"/>
</g>
<!-- Node22&#45;&gt;Node13 -->
<g id="edge32" class="edge">
<title>Node22&#45;&gt;Node13</title>
<path fill="none" stroke="midnightblue" d="M336,-392.08C336,-385.01 336,-374.86 336,-365.99"/>
<polygon fill="midnightblue" stroke="midnightblue" points="339.5,-365.75 336,-355.75 332.5,-365.75 339.5,-365.75"/>
</g>
<!-- Node23&#45;&gt;Node2 -->
<g id="edge38" class="edge">
<title>Node23&#45;&gt;Node2</title>
<path fill="none" stroke="midnightblue" d="M1424.82,-392.39C1416.36,-374.16 1398,-330.09 1398,-291 1398,-291 1398,-291 1398,-233 1398,-140.84 1096.28,-124.88 940.6,-122.78"/>
<polygon fill="midnightblue" stroke="midnightblue" points="940.61,-119.28 930.56,-122.67 940.52,-126.28 940.61,-119.28"/>
</g>
<!-- Node23&#45;&gt;Node15 -->
<g id="edge37" class="edge">
<title>Node23&#45;&gt;Node15</title>
<path fill="none" stroke="midnightblue" d="M1382.89,-392.44C1325.05,-381.71 1227.06,-363.53 1174.27,-353.73"/>
<polygon fill="midnightblue" stroke="midnightblue" points="1174.81,-350.27 1164.34,-351.89 1173.53,-357.15 1174.81,-350.27"/>
</g>
<!-- Node24&#45;&gt;Node6 -->
<g id="edge41" class="edge">
<title>Node24&#45;&gt;Node6</title>
<path fill="none" stroke="midnightblue" d="M1228.03,-392.39C1219.1,-377.86 1198.87,-348.81 1173,-336 1101.68,-300.68 870.12,-293.02 758.4,-291.41"/>
<polygon fill="midnightblue" stroke="midnightblue" points="758.34,-287.91 748.29,-291.27 758.25,-294.9 758.34,-287.91"/>
</g>
<!-- Node24&#45;&gt;Node9 -->
<g id="edge40" class="edge">
<title>Node24&#45;&gt;Node9</title>
<path fill="none" stroke="midnightblue" d="M1233,-392.08C1233,-365.95 1233,-289.21 1233,-253.58"/>
<polygon fill="midnightblue" stroke="midnightblue" points="1236.5,-253.57 1233,-243.57 1229.5,-253.57 1236.5,-253.57"/>
</g>
<!-- Node24&#45;&gt;Node15 -->
<g id="edge42" class="edge">
<title>Node24&#45;&gt;Node15</title>
<path fill="none" stroke="midnightblue" d="M1217.74,-392.32C1202.78,-383.82 1179.75,-370.73 1162.27,-360.8"/>
<polygon fill="midnightblue" stroke="midnightblue" points="1163.65,-357.55 1153.23,-355.65 1160.19,-363.64 1163.65,-357.55"/>
</g>
<!-- Node26&#45;&gt;Node8 -->
<g id="edge54" class="edge">
<title>Node26&#45;&gt;Node8</title>
<path fill="none" stroke="midnightblue" d="M809.2,-453.92C771.81,-445.29 714.65,-430.61 667,-412 648.85,-404.91 645.4,-400.75 628,-392 475.27,-315.19 290.96,-225.22 222.92,-192.09"/>
<polygon fill="midnightblue" stroke="midnightblue" points="224.27,-188.85 213.74,-187.62 221.2,-195.15 224.27,-188.85"/>
</g>
<!-- Node26&#45;&gt;Node10 -->
<g id="edge45" class="edge">
<title>Node26&#45;&gt;Node10</title>
<path fill="none" stroke="midnightblue" d="M921.65,-453.97C951.02,-447.05 983.08,-434.56 1005,-412 1025.97,-390.41 1024,-377.1 1024,-347 1024,-347 1024,-347 1024,-289 1024,-256.95 1024,-219.64 1024,-197.75"/>
<polygon fill="midnightblue" stroke="midnightblue" points="1027.5,-197.56 1024,-187.56 1020.5,-197.56 1027.5,-197.56"/>
</g>
<!-- Node27 -->
<g id="node27" class="node">
<title>Node27</title>
<g id="a_node27"><a xlink:title=" ">
<polygon fill="none" stroke="#bfbfbf" points="780,-392.5 780,-411.5 890,-411.5 890,-392.5 780,-392.5"/>
<text text-anchor="middle" x="835" y="-399.5" font-family="Helvetica,sans-Serif" font-size="10.00">CCAccelerometer.h</text>
</a>
</g>
</g>
<!-- Node26&#45;&gt;Node27 -->
<g id="edge46" class="edge">
<title>Node26&#45;&gt;Node27</title>
<path fill="none" stroke="midnightblue" d="M846.99,-453.98C845,-445.49 841.87,-432.2 839.31,-421.32"/>
<polygon fill="midnightblue" stroke="midnightblue" points="842.7,-420.44 837,-411.51 835.89,-422.04 842.7,-420.44"/>
</g>
<!-- Node28 -->
<g id="node28" class="node">
<title>Node28</title>
<g id="a_node28"><a xlink:href="../../d3/dff/_c_c_touch_8h.html" target="_top" xlink:title=" ">
<polygon fill="none" stroke="black" points="466.5,-392.5 466.5,-411.5 619.5,-411.5 619.5,-392.5 466.5,-392.5"/>
<text text-anchor="middle" x="543" y="-399.5" font-family="Helvetica,sans-Serif" font-size="10.00">touch_dispatcher/CCTouch.h</text>
</a>
</g>
</g>
<!-- Node26&#45;&gt;Node28 -->
<g id="edge47" class="edge">
<title>Node26&#45;&gt;Node28</title>
<path fill="none" stroke="midnightblue" d="M805.16,-453.98C750.17,-443.28 655.93,-424.96 596.68,-413.44"/>
<polygon fill="midnightblue" stroke="midnightblue" points="597.25,-409.98 586.76,-411.51 595.91,-416.85 597.25,-409.98"/>
</g>
<!-- Node29 -->
<g id="node29" class="node">
<title>Node29</title>
<g id="a_node29"><a xlink:href="../../da/ddc/_c_c_set_8h.html" target="_top" xlink:title=" ">
<polygon fill="none" stroke="black" points="676,-392.5 676,-411.5 762,-411.5 762,-392.5 676,-392.5"/>
<text text-anchor="middle" x="719" y="-399.5" font-family="Helvetica,sans-Serif" font-size="10.00">cocoa/CCSet.h</text>
</a>
</g>
</g>
<!-- Node26&#45;&gt;Node29 -->
<g id="edge50" class="edge">
<title>Node26&#45;&gt;Node29</title>
<path fill="none" stroke="midnightblue" d="M830.37,-453.98C808.56,-443.99 772.2,-427.35 746.98,-415.81"/>
<polygon fill="midnightblue" stroke="midnightblue" points="748.14,-412.49 737.59,-411.51 745.23,-418.85 748.14,-412.49"/>
</g>
<!-- Node31 -->
<g id="node31" class="node">
<title>Node31</title>
<g id="a_node31"><a xlink:title=" ">
<polygon fill="none" stroke="#bfbfbf" points="908,-392.5 908,-411.5 946,-411.5 946,-392.5 908,-392.5"/>
<text text-anchor="middle" x="927" y="-399.5" font-family="Helvetica,sans-Serif" font-size="10.00">map</text>
</a>
</g>
</g>
<!-- Node26&#45;&gt;Node31 -->
<g id="edge53" class="edge">
<title>Node26&#45;&gt;Node31</title>
<path fill="none" stroke="midnightblue" d="M860.18,-453.98C872.57,-444.52 892.79,-429.1 907.75,-417.69"/>
<polygon fill="midnightblue" stroke="midnightblue" points="910.02,-420.36 915.85,-411.51 905.77,-414.79 910.02,-420.36"/>
</g>
<!-- Node32 -->
<g id="node32" class="node">
<title>Node32</title>
<g id="a_node32"><a xlink:title=" ">
<polygon fill="none" stroke="#bfbfbf" points="964,-392.5 964,-411.5 996,-411.5 996,-392.5 964,-392.5"/>
<text text-anchor="middle" x="980" y="-399.5" font-family="Helvetica,sans-Serif" font-size="10.00">list</text>
</a>
</g>
</g>
<!-- Node26&#45;&gt;Node32 -->
<g id="edge55" class="edge">
<title>Node26&#45;&gt;Node32</title>
<path fill="none" stroke="midnightblue" d="M867.77,-453.98C890.5,-443.65 928.91,-426.21 954.36,-414.65"/>
<polygon fill="midnightblue" stroke="midnightblue" points="956.09,-417.71 963.74,-410.38 953.19,-411.33 956.09,-417.71"/>
</g>
<!-- Node28&#45;&gt;Node6 -->
<g id="edge48" class="edge">
<title>Node28&#45;&gt;Node6</title>
<path fill="none" stroke="midnightblue" d="M555.08,-392.37C581.4,-373.57 644.12,-328.77 676.65,-305.53"/>
<polygon fill="midnightblue" stroke="midnightblue" points="678.87,-308.25 684.97,-299.59 674.8,-302.56 678.87,-308.25"/>
</g>
<!-- Node28&#45;&gt;Node13 -->
<g id="edge49" class="edge">
<title>Node28&#45;&gt;Node13</title>
<path fill="none" stroke="midnightblue" d="M510.2,-392.44C474.62,-383.16 417.69,-368.31 378.65,-358.13"/>
<polygon fill="midnightblue" stroke="midnightblue" points="379.21,-354.65 368.65,-355.52 377.44,-361.43 379.21,-354.65"/>
</g>
<!-- Node29&#45;&gt;Node6 -->
<g id="edge52" class="edge">
<title>Node29&#45;&gt;Node6</title>
<path fill="none" stroke="midnightblue" d="M717.27,-392.37C713.72,-374.62 705.53,-333.67 700.72,-309.6"/>
<polygon fill="midnightblue" stroke="midnightblue" points="704.11,-308.71 698.72,-299.59 697.25,-310.08 704.11,-308.71"/>
</g>
<!-- Node30 -->
<g id="node30" class="node">
<title>Node30</title>
<g id="a_node30"><a xlink:title=" ">
<polygon fill="none" stroke="#bfbfbf" points="725,-336.5 725,-355.5 757,-355.5 757,-336.5 725,-336.5"/>
<text text-anchor="middle" x="741" y="-343.5" font-family="Helvetica,sans-Serif" font-size="10.00">set</text>
</a>
</g>
</g>
<!-- Node29&#45;&gt;Node30 -->
<g id="edge51" class="edge">
<title>Node29&#45;&gt;Node30</title>
<path fill="none" stroke="midnightblue" d="M722.63,-392.08C725.61,-384.77 729.93,-374.18 733.62,-365.1"/>
<polygon fill="midnightblue" stroke="midnightblue" points="736.9,-366.33 737.43,-355.75 730.42,-363.69 736.9,-366.33"/>
</g>
<!-- Node33&#45;&gt;Node8 -->
<g id="edge63" class="edge">
<title>Node33&#45;&gt;Node8</title>
<path fill="none" stroke="midnightblue" d="M170.37,-515.45C121.06,-501.24 38,-467.7 38,-403 38,-403 38,-403 38,-289 38,-228.25 117.64,-198.32 163.84,-186.06"/>
<polygon fill="midnightblue" stroke="midnightblue" points="164.86,-189.41 173.7,-183.58 163.15,-182.63 164.86,-189.41"/>
</g>
<!-- Node33&#45;&gt;Node12 -->
<g id="edge57" class="edge">
<title>Node33&#45;&gt;Node12</title>
<path fill="none" stroke="midnightblue" d="M200.97,-515.3C189.51,-495.5 161.33,-446.78 146.12,-420.49"/>
<polygon fill="midnightblue" stroke="midnightblue" points="149.03,-418.53 140.99,-411.62 142.97,-422.03 149.03,-418.53"/>
</g>
<!-- Node34 -->
<g id="node34" class="node">
<title>Node34</title>
<g id="a_node34"><a xlink:href="../../d5/d70/_c_c_texture2_d_8h.html" target="_top" xlink:title=" ">
<polygon fill="none" stroke="black" points="282,-454 282,-473 414,-473 414,-454 282,-454"/>
<text text-anchor="middle" x="348" y="-461" font-family="Helvetica,sans-Serif" font-size="10.00">textures/CCTexture2D.h</text>
</a>
</g>
</g>
<!-- Node33&#45;&gt;Node34 -->
<g id="edge58" class="edge">
<title>Node33&#45;&gt;Node34</title>
<path fill="none" stroke="midnightblue" d="M226.35,-515.48C250.39,-505.4 290.6,-488.55 318.16,-477"/>
<polygon fill="midnightblue" stroke="midnightblue" points="319.82,-480.1 327.69,-473.01 317.12,-473.65 319.82,-480.1"/>
</g>
<!-- Node34&#45;&gt;Node6 -->
<g id="edge60" class="edge">
<title>Node34&#45;&gt;Node6</title>
<path fill="none" stroke="midnightblue" d="M359.68,-453.96C379.19,-439.93 419.94,-411.59 457,-392 528.08,-354.43 616.23,-320.31 663.43,-302.99"/>
<polygon fill="midnightblue" stroke="midnightblue" points="664.66,-306.26 672.86,-299.55 662.26,-299.69 664.66,-306.26"/>
</g>
<!-- Node34&#45;&gt;Node8 -->
<g id="edge59" class="edge">
<title>Node34&#45;&gt;Node8</title>
<path fill="none" stroke="midnightblue" d="M316.14,-453.9C271.56,-439.71 196,-406.82 196,-347 196,-347 196,-347 196,-289 196,-256.95 196,-219.64 196,-197.75"/>
<polygon fill="midnightblue" stroke="midnightblue" points="199.5,-197.56 196,-187.56 192.5,-197.56 199.5,-197.56"/>
</g>
<!-- Node34&#45;&gt;Node12 -->
<g id="edge62" class="edge">
<title>Node34&#45;&gt;Node12</title>
<path fill="none" stroke="midnightblue" d="M317.63,-453.98C280.39,-443.53 217.19,-425.79 176.02,-414.23"/>
<polygon fill="midnightblue" stroke="midnightblue" points="176.89,-410.84 166.32,-411.51 175,-417.58 176.89,-410.84"/>
</g>
<!-- Node34&#45;&gt;Node13 -->
<g id="edge61" class="edge">
<title>Node34&#45;&gt;Node13</title>
<path fill="none" stroke="midnightblue" d="M313.57,-453.97C292.08,-446.67 266.08,-433.77 253,-412 238.87,-388.49 269.72,-370.24 297.73,-359.14"/>
<polygon fill="midnightblue" stroke="midnightblue" points="299.29,-362.29 307.44,-355.51 296.85,-355.73 299.29,-362.29"/>
</g>
<!-- Node35&#45;&gt;Node2 -->
<g id="edge67" class="edge">
<title>Node35&#45;&gt;Node2</title>
<path fill="none" stroke="midnightblue" d="M1505.78,-683.35C1513.42,-665.03 1530,-620.82 1530,-582 1530,-582 1530,-582 1530,-233 1530,-152.11 1438.82,-186.17 1360,-168 1215.83,-134.76 1043.52,-125.72 940.62,-123.46"/>
<polygon fill="midnightblue" stroke="midnightblue" points="940.64,-119.96 930.58,-123.26 940.5,-126.96 940.64,-119.96"/>
</g>
<!-- Node36 -->
<g id="node36" class="node">
<title>Node36</title>
<g id="a_node36"><a xlink:title=" ">
<polygon fill="none" stroke="#bfbfbf" points="1558.5,-627.5 1558.5,-646.5 1615.5,-646.5 1615.5,-627.5 1558.5,-627.5"/>
<text text-anchor="middle" x="1587" y="-634.5" font-family="Helvetica,sans-Serif" font-size="10.00">typeinfo</text>
</a>
</g>
</g>
<!-- Node35&#45;&gt;Node36 -->
<g id="edge68" class="edge">
<title>Node35&#45;&gt;Node36</title>
<path fill="none" stroke="midnightblue" d="M1515.66,-683.32C1528.92,-674.9 1549.27,-661.97 1564.85,-652.07"/>
<polygon fill="midnightblue" stroke="midnightblue" points="1566.81,-654.97 1573.38,-646.65 1563.06,-649.06 1566.81,-654.97"/>
</g>
<!-- Node37 -->
<g id="node37" class="node">
<title>Node37</title>
<g id="a_node37"><a xlink:title=" ">
<polygon fill="none" stroke="#bfbfbf" points="1633.5,-627.5 1633.5,-646.5 1686.5,-646.5 1686.5,-627.5 1633.5,-627.5"/>
<text text-anchor="middle" x="1660" y="-634.5" font-family="Helvetica,sans-Serif" font-size="10.00">ctype.h</text>
</a>
</g>
</g>
<!-- Node35&#45;&gt;Node37 -->
<g id="edge69" class="edge">
<title>Node35&#45;&gt;Node37</title>
<path fill="none" stroke="midnightblue" d="M1527.04,-683.44C1553.62,-674.36 1595.81,-659.94 1625.52,-649.78"/>
<polygon fill="midnightblue" stroke="midnightblue" points="1626.75,-653.06 1635.08,-646.52 1624.49,-646.44 1626.75,-653.06"/>
</g>
<!-- Node38 -->
<g id="node38" class="node">
<title>Node38</title>
<g id="a_node38"><a xlink:title=" ">
<polygon fill="none" stroke="#bfbfbf" points="1448.5,-627.5 1448.5,-646.5 1501.5,-646.5 1501.5,-627.5 1448.5,-627.5"/>
<text text-anchor="middle" x="1475" y="-634.5" font-family="Helvetica,sans-Serif" font-size="10.00">string.h</text>
</a>
</g>
</g>
<!-- Node35&#45;&gt;Node38 -->
<g id="edge70" class="edge">
<title>Node35&#45;&gt;Node38</title>
<path fill="none" stroke="midnightblue" d="M1497.54,-683.08C1493.85,-675.69 1488.48,-664.95 1483.91,-655.81"/>
<polygon fill="midnightblue" stroke="midnightblue" points="1486.98,-654.13 1479.38,-646.75 1480.72,-657.26 1486.98,-654.13"/>
</g>
</g>
</svg>
