<?xml version="1.0" encoding="UTF-8" standalone="no"?>
<!DOCTYPE svg PUBLIC "-//W3C//DTD SVG 1.1//EN"
 "http://www.w3.org/Graphics/SVG/1.1/DTD/svg11.dtd">
<!-- Generated by graphviz version 2.43.0 (0)
 -->
<!-- Title: CCTiledGrid3DAction Pages: 1 -->
<svg width="1278pt" height="351pt"
 viewBox="0.00 0.00 1278.00 351.00" xmlns="http://www.w3.org/2000/svg" xmlns:xlink="http://www.w3.org/1999/xlink">
<g id="graph0" class="graph" transform="scale(1 1) rotate(0) translate(4 347)">
<title>CCTiledGrid3DAction</title>
<!-- Node1 -->
<g id="node1" class="node">
<title>Node1</title>
<g id="a_node1"><a xlink:title="Base class for CCTiledGrid3D actions.">
<polygon fill="#bfbfbf" stroke="black" points="701,-152.5 701,-171.5 820,-171.5 820,-152.5 701,-152.5"/>
<text text-anchor="middle" x="760.5" y="-159.5" font-family="Helvetica,sans-Serif" font-size="10.00">CCTiledGrid3DAction</text>
</a>
</g>
</g>
<!-- Node8 -->
<g id="node8" class="node">
<title>Node8</title>
<g id="a_node8"><a xlink:href="../../da/d0c/classcocos2d_1_1_c_c_fade_out_t_r_tiles.html" target="_top" xlink:title="CCFadeOutTRTiles action Fades out the tiles in a Top&#45;Right direction.">
<polygon fill="none" stroke="black" points="860.5,-304.5 860.5,-323.5 965.5,-323.5 965.5,-304.5 860.5,-304.5"/>
<text text-anchor="middle" x="913" y="-311.5" font-family="Helvetica,sans-Serif" font-size="10.00">CCFadeOutTRTiles</text>
</a>
</g>
</g>
<!-- Node1&#45;&gt;Node8 -->
<g id="edge7" class="edge">
<title>Node1&#45;&gt;Node8</title>
<path fill="none" stroke="midnightblue" d="M770.13,-180.92C784.14,-209.63 814.52,-264.11 856,-295 861.19,-298.86 867.21,-301.98 873.35,-304.47"/>
<polygon fill="midnightblue" stroke="midnightblue" points="773.16,-179.14 765.71,-171.6 766.83,-182.14 773.16,-179.14"/>
</g>
<!-- Node12 -->
<g id="node12" class="node">
<title>Node12</title>
<g id="a_node12"><a xlink:href="../../da/d0d/classcocos2d_1_1_c_c_jump_tiles3_d.html" target="_top" xlink:title="CCJumpTiles3D action.">
<polygon fill="none" stroke="black" points="867,-266.5 867,-285.5 959,-285.5 959,-266.5 867,-266.5"/>
<text text-anchor="middle" x="913" y="-273.5" font-family="Helvetica,sans-Serif" font-size="10.00">CCJumpTiles3D</text>
</a>
</g>
</g>
<!-- Node1&#45;&gt;Node12 -->
<g id="edge11" class="edge">
<title>Node1&#45;&gt;Node12</title>
<path fill="none" stroke="midnightblue" d="M774.78,-179.64C791.56,-200.79 822.32,-236 856,-257 862.01,-260.75 868.85,-263.86 875.63,-266.4"/>
<polygon fill="midnightblue" stroke="midnightblue" points="777.38,-177.28 768.48,-171.52 771.85,-181.57 777.38,-177.28"/>
</g>
<!-- Node13 -->
<g id="node13" class="node">
<title>Node13</title>
<g id="a_node13"><a xlink:href="../../dd/d21/classcocos2d_1_1_c_c_shaky_tiles3_d.html" target="_top" xlink:title="CCShakyTiles3D action.">
<polygon fill="none" stroke="black" points="865,-228.5 865,-247.5 961,-247.5 961,-228.5 865,-228.5"/>
<text text-anchor="middle" x="913" y="-235.5" font-family="Helvetica,sans-Serif" font-size="10.00">CCShakyTiles3D</text>
</a>
</g>
</g>
<!-- Node1&#45;&gt;Node13 -->
<g id="edge12" class="edge">
<title>Node1&#45;&gt;Node13</title>
<path fill="none" stroke="midnightblue" d="M783.78,-177.33C802.47,-189.71 830.17,-207 856,-219 863.54,-222.5 871.92,-225.69 879.84,-228.41"/>
<polygon fill="midnightblue" stroke="midnightblue" points="785.63,-174.35 775.38,-171.69 781.73,-180.17 785.63,-174.35"/>
</g>
<!-- Node14 -->
<g id="node14" class="node">
<title>Node14</title>
<g id="a_node14"><a xlink:href="../../d5/d4f/classcocos2d_1_1_c_c_shattered_tiles3_d.html" target="_top" xlink:title="CCShatteredTiles3D action.">
<polygon fill="none" stroke="black" points="856,-190.5 856,-209.5 970,-209.5 970,-190.5 856,-190.5"/>
<text text-anchor="middle" x="913" y="-197.5" font-family="Helvetica,sans-Serif" font-size="10.00">CCShatteredTiles3D</text>
</a>
</g>
</g>
<!-- Node1&#45;&gt;Node14 -->
<g id="edge13" class="edge">
<title>Node1&#45;&gt;Node14</title>
<path fill="none" stroke="midnightblue" d="M809.18,-174.04C830.21,-179.35 854.57,-185.5 874.3,-190.48"/>
<polygon fill="midnightblue" stroke="midnightblue" points="810.03,-170.64 799.48,-171.59 808.32,-177.43 810.03,-170.64"/>
</g>
<!-- Node15 -->
<g id="node15" class="node">
<title>Node15</title>
<g id="a_node15"><a xlink:href="../../d5/d76/classcocos2d_1_1_c_c_shuffle_tiles.html" target="_top" xlink:title="CCShuffleTiles action Shuffle the tiles in random order.">
<polygon fill="none" stroke="black" points="869.5,-152.5 869.5,-171.5 956.5,-171.5 956.5,-152.5 869.5,-152.5"/>
<text text-anchor="middle" x="913" y="-159.5" font-family="Helvetica,sans-Serif" font-size="10.00">CCShuffleTiles</text>
</a>
</g>
</g>
<!-- Node1&#45;&gt;Node15 -->
<g id="edge14" class="edge">
<title>Node1&#45;&gt;Node15</title>
<path fill="none" stroke="midnightblue" d="M830.19,-162C843.46,-162 857,-162 869.15,-162"/>
<polygon fill="midnightblue" stroke="midnightblue" points="830.12,-158.5 820.12,-162 830.12,-165.5 830.12,-158.5"/>
</g>
<!-- Node16 -->
<g id="node16" class="node">
<title>Node16</title>
<g id="a_node16"><a xlink:href="../../d1/d37/classcocos2d_1_1_c_c_split_cols.html" target="_top" xlink:title="CCSplitCols action.">
<polygon fill="none" stroke="black" points="876.5,-114.5 876.5,-133.5 949.5,-133.5 949.5,-114.5 876.5,-114.5"/>
<text text-anchor="middle" x="913" y="-121.5" font-family="Helvetica,sans-Serif" font-size="10.00">CCSplitCols</text>
</a>
</g>
</g>
<!-- Node1&#45;&gt;Node16 -->
<g id="edge15" class="edge">
<title>Node1&#45;&gt;Node16</title>
<path fill="none" stroke="midnightblue" d="M809.19,-149.96C830.96,-144.46 856.29,-138.07 876.36,-133"/>
<polygon fill="midnightblue" stroke="midnightblue" points="808.32,-146.57 799.48,-152.41 810.03,-153.36 808.32,-146.57"/>
</g>
<!-- Node17 -->
<g id="node17" class="node">
<title>Node17</title>
<g id="a_node17"><a xlink:href="../../d4/d47/classcocos2d_1_1_c_c_split_rows.html" target="_top" xlink:title="CCSplitRows action.">
<polygon fill="none" stroke="black" points="874,-76.5 874,-95.5 952,-95.5 952,-76.5 874,-76.5"/>
<text text-anchor="middle" x="913" y="-83.5" font-family="Helvetica,sans-Serif" font-size="10.00">CCSplitRows</text>
</a>
</g>
</g>
<!-- Node1&#45;&gt;Node17 -->
<g id="edge16" class="edge">
<title>Node1&#45;&gt;Node17</title>
<path fill="none" stroke="midnightblue" d="M783.78,-146.67C802.47,-134.29 830.17,-117 856,-105 863.54,-101.5 871.92,-98.31 879.84,-95.59"/>
<polygon fill="midnightblue" stroke="midnightblue" points="781.73,-143.83 775.38,-152.31 785.63,-149.65 781.73,-143.83"/>
</g>
<!-- Node18 -->
<g id="node18" class="node">
<title>Node18</title>
<g id="a_node18"><a xlink:href="../../d2/d9a/classcocos2d_1_1_c_c_turn_off_tiles.html" target="_top" xlink:title="CCTurnOffTiles action.">
<polygon fill="none" stroke="black" points="869,-38.5 869,-57.5 957,-57.5 957,-38.5 869,-38.5"/>
<text text-anchor="middle" x="913" y="-45.5" font-family="Helvetica,sans-Serif" font-size="10.00">CCTurnOffTiles</text>
</a>
</g>
</g>
<!-- Node1&#45;&gt;Node18 -->
<g id="edge17" class="edge">
<title>Node1&#45;&gt;Node18</title>
<path fill="none" stroke="midnightblue" d="M774.78,-144.36C791.56,-123.21 822.32,-88 856,-67 862.01,-63.25 868.85,-60.14 875.63,-57.6"/>
<polygon fill="midnightblue" stroke="midnightblue" points="771.85,-142.43 768.48,-152.48 777.38,-146.72 771.85,-142.43"/>
</g>
<!-- Node19 -->
<g id="node19" class="node">
<title>Node19</title>
<g id="a_node19"><a xlink:href="../../d4/d4e/classcocos2d_1_1_c_c_waves_tiles3_d.html" target="_top" xlink:title="CCWavesTiles3D action.">
<polygon fill="none" stroke="black" points="863.5,-0.5 863.5,-19.5 962.5,-19.5 962.5,-0.5 863.5,-0.5"/>
<text text-anchor="middle" x="913" y="-7.5" font-family="Helvetica,sans-Serif" font-size="10.00">CCWavesTiles3D</text>
</a>
</g>
</g>
<!-- Node1&#45;&gt;Node19 -->
<g id="edge18" class="edge">
<title>Node1&#45;&gt;Node19</title>
<path fill="none" stroke="midnightblue" d="M770.13,-143.08C784.14,-114.37 814.52,-59.89 856,-29 861.19,-25.14 867.21,-22.02 873.35,-19.53"/>
<polygon fill="midnightblue" stroke="midnightblue" points="766.83,-141.86 765.71,-152.4 773.16,-144.86 766.83,-141.86"/>
</g>
<!-- Node2 -->
<g id="node2" class="node">
<title>Node2</title>
<g id="a_node2"><a xlink:href="../../d5/d1e/classcocos2d_1_1_c_c_grid_action.html" target="_top" xlink:title="Base class for Grid actions.">
<polygon fill="none" stroke="black" points="584,-152.5 584,-171.5 665,-171.5 665,-152.5 584,-152.5"/>
<text text-anchor="middle" x="624.5" y="-159.5" font-family="Helvetica,sans-Serif" font-size="10.00">CCGridAction</text>
</a>
</g>
</g>
<!-- Node2&#45;&gt;Node1 -->
<g id="edge1" class="edge">
<title>Node2&#45;&gt;Node1</title>
<path fill="none" stroke="midnightblue" d="M675.51,-162C683.73,-162 692.31,-162 700.71,-162"/>
<polygon fill="midnightblue" stroke="midnightblue" points="675.34,-158.5 665.34,-162 675.34,-165.5 675.34,-158.5"/>
</g>
<!-- Node3 -->
<g id="node3" class="node">
<title>Node3</title>
<g id="a_node3"><a xlink:href="../../dd/d8d/classcocos2d_1_1_c_c_action_interval.html" target="_top" xlink:title="An interval action is an action that takes place within a certain period of time.">
<polygon fill="none" stroke="black" points="450,-152.5 450,-171.5 548,-171.5 548,-152.5 450,-152.5"/>
<text text-anchor="middle" x="499" y="-159.5" font-family="Helvetica,sans-Serif" font-size="10.00">CCActionInterval</text>
</a>
</g>
</g>
<!-- Node3&#45;&gt;Node2 -->
<g id="edge2" class="edge">
<title>Node3&#45;&gt;Node2</title>
<path fill="none" stroke="midnightblue" d="M558.17,-162C566.82,-162 575.56,-162 583.71,-162"/>
<polygon fill="midnightblue" stroke="midnightblue" points="558.1,-158.5 548.1,-162 558.1,-165.5 558.1,-158.5"/>
</g>
<!-- Node4 -->
<g id="node4" class="node">
<title>Node4</title>
<g id="a_node4"><a xlink:href="../../dd/d89/classcocos2d_1_1_c_c_finite_time_action.html" target="_top" xlink:title="Base class actions that do have a finite time duration.">
<polygon fill="none" stroke="black" points="301,-152.5 301,-171.5 414,-171.5 414,-152.5 301,-152.5"/>
<text text-anchor="middle" x="357.5" y="-159.5" font-family="Helvetica,sans-Serif" font-size="10.00">CCFiniteTimeAction</text>
</a>
</g>
</g>
<!-- Node4&#45;&gt;Node3 -->
<g id="edge3" class="edge">
<title>Node4&#45;&gt;Node3</title>
<path fill="none" stroke="midnightblue" d="M424.14,-162C432.81,-162 441.56,-162 449.86,-162"/>
<polygon fill="midnightblue" stroke="midnightblue" points="424.03,-158.5 414.03,-162 424.03,-165.5 424.03,-158.5"/>
</g>
<!-- Node5 -->
<g id="node5" class="node">
<title>Node5</title>
<g id="a_node5"><a xlink:href="../../d7/d12/classcocos2d_1_1_c_c_action.html" target="_top" xlink:title="Base class for CCAction objects.">
<polygon fill="none" stroke="black" points="204,-152.5 204,-171.5 265,-171.5 265,-152.5 204,-152.5"/>
<text text-anchor="middle" x="234.5" y="-159.5" font-family="Helvetica,sans-Serif" font-size="10.00">CCAction</text>
</a>
</g>
</g>
<!-- Node5&#45;&gt;Node4 -->
<g id="edge4" class="edge">
<title>Node5&#45;&gt;Node4</title>
<path fill="none" stroke="midnightblue" d="M275.11,-162C283.31,-162 292.09,-162 300.74,-162"/>
<polygon fill="midnightblue" stroke="midnightblue" points="275.1,-158.5 265.1,-162 275.1,-165.5 275.1,-158.5"/>
</g>
<!-- Node6 -->
<g id="node6" class="node">
<title>Node6</title>
<g id="a_node6"><a xlink:href="../../d3/dbf/classcocos2d_1_1_c_c_object.html" target="_top" xlink:title="NA.">
<polygon fill="none" stroke="black" points="106,-152.5 106,-171.5 168,-171.5 168,-152.5 106,-152.5"/>
<text text-anchor="middle" x="137" y="-159.5" font-family="Helvetica,sans-Serif" font-size="10.00">CCObject</text>
</a>
</g>
</g>
<!-- Node6&#45;&gt;Node5 -->
<g id="edge5" class="edge">
<title>Node6&#45;&gt;Node5</title>
<path fill="none" stroke="midnightblue" d="M178.38,-162C186.91,-162 195.76,-162 203.81,-162"/>
<polygon fill="midnightblue" stroke="midnightblue" points="178.22,-158.5 168.22,-162 178.22,-165.5 178.22,-158.5"/>
</g>
<!-- Node7 -->
<g id="node7" class="node">
<title>Node7</title>
<g id="a_node7"><a xlink:href="../../d5/d61/classcocos2d_1_1_c_c_copying.html" target="_top" xlink:title="NA NA.">
<polygon fill="none" stroke="black" points="0,-152.5 0,-171.5 70,-171.5 70,-152.5 0,-152.5"/>
<text text-anchor="middle" x="35" y="-159.5" font-family="Helvetica,sans-Serif" font-size="10.00">CCCopying</text>
</a>
</g>
</g>
<!-- Node7&#45;&gt;Node6 -->
<g id="edge6" class="edge">
<title>Node7&#45;&gt;Node6</title>
<path fill="none" stroke="midnightblue" d="M80.39,-162C88.95,-162 97.72,-162 105.7,-162"/>
<polygon fill="midnightblue" stroke="midnightblue" points="80.13,-158.5 70.13,-162 80.13,-165.5 80.13,-158.5"/>
</g>
<!-- Node9 -->
<g id="node9" class="node">
<title>Node9</title>
<g id="a_node9"><a xlink:href="../../d1/d7b/classcocos2d_1_1_c_c_fade_out_b_l_tiles.html" target="_top" xlink:title="CCFadeOutBLTiles action.">
<polygon fill="none" stroke="black" points="1007.5,-323.5 1007.5,-342.5 1111.5,-342.5 1111.5,-323.5 1007.5,-323.5"/>
<text text-anchor="middle" x="1059.5" y="-330.5" font-family="Helvetica,sans-Serif" font-size="10.00">CCFadeOutBLTiles</text>
</a>
</g>
</g>
<!-- Node8&#45;&gt;Node9 -->
<g id="edge8" class="edge">
<title>Node8&#45;&gt;Node9</title>
<path fill="none" stroke="midnightblue" d="M975.68,-322.11C986.15,-323.49 996.93,-324.9 1007.1,-326.24"/>
<polygon fill="midnightblue" stroke="midnightblue" points="976.13,-318.64 965.76,-320.81 975.22,-325.58 976.13,-318.64"/>
</g>
<!-- Node10 -->
<g id="node10" class="node">
<title>Node10</title>
<g id="a_node10"><a xlink:href="../../d1/d71/classcocos2d_1_1_c_c_fade_out_up_tiles.html" target="_top" xlink:title="CCFadeOutUpTiles action.">
<polygon fill="none" stroke="black" points="1006,-285.5 1006,-304.5 1113,-304.5 1113,-285.5 1006,-285.5"/>
<text text-anchor="middle" x="1059.5" y="-292.5" font-family="Helvetica,sans-Serif" font-size="10.00">CCFadeOutUpTiles</text>
</a>
</g>
</g>
<!-- Node8&#45;&gt;Node10 -->
<g id="edge9" class="edge">
<title>Node8&#45;&gt;Node10</title>
<path fill="none" stroke="midnightblue" d="M975.94,-305.86C985.83,-304.55 995.99,-303.22 1005.64,-301.95"/>
<polygon fill="midnightblue" stroke="midnightblue" points="975.22,-302.42 965.76,-307.19 976.13,-309.36 975.22,-302.42"/>
</g>
<!-- Node11 -->
<g id="node11" class="node">
<title>Node11</title>
<g id="a_node11"><a xlink:href="../../d6/d08/classcocos2d_1_1_c_c_fade_out_down_tiles.html" target="_top" xlink:title="CCFadeOutDownTiles action.">
<polygon fill="none" stroke="black" points="1149,-285.5 1149,-304.5 1270,-304.5 1270,-285.5 1149,-285.5"/>
<text text-anchor="middle" x="1209.5" y="-292.5" font-family="Helvetica,sans-Serif" font-size="10.00">CCFadeOutDownTiles</text>
</a>
</g>
</g>
<!-- Node10&#45;&gt;Node11 -->
<g id="edge10" class="edge">
<title>Node10&#45;&gt;Node11</title>
<path fill="none" stroke="midnightblue" d="M1123.27,-295C1131.72,-295 1140.37,-295 1148.76,-295"/>
<polygon fill="midnightblue" stroke="midnightblue" points="1123.1,-291.5 1113.1,-295 1123.1,-298.5 1123.1,-291.5"/>
</g>
</g>
</svg>
