<?xml version="1.0" encoding="UTF-8" standalone="no"?>
<!DOCTYPE svg PUBLIC "-//W3C//DTD SVG 1.1//EN"
 "http://www.w3.org/Graphics/SVG/1.1/DTD/svg11.dtd">
<!-- Generated by graphviz version 2.43.0 (0)
 -->
<!-- Title: CCHttpRequest Pages: 1 -->
<svg width="197pt" height="209pt"
 viewBox="0.00 0.00 196.50 209.00" xmlns="http://www.w3.org/2000/svg" xmlns:xlink="http://www.w3.org/1999/xlink">
<g id="graph0" class="graph" transform="scale(1 1) rotate(0) translate(4 205)">
<title>CCHttpRequest</title>
<!-- Node1 -->
<g id="node1" class="node">
<title>Node1</title>
<g id="a_node1"><a xlink:title="defines the object which users must packed for CCHttpClient::send(HttpRequest*) method.">
<polygon fill="#bfbfbf" stroke="black" points="0,-0.5 0,-19.5 91,-19.5 91,-0.5 0,-0.5"/>
<text text-anchor="middle" x="45.5" y="-7.5" font-family="Helvetica,sans-Serif" font-size="10.00">CCHttpRequest</text>
</a>
</g>
</g>
<!-- Node2 -->
<g id="node2" class="node">
<title>Node2</title>
<g id="a_node2"><a xlink:href="../../d3/dbf/classcocos2d_1_1_c_c_object.html" target="_top" xlink:title="NA.">
<polygon fill="none" stroke="black" points="14.5,-124.5 14.5,-143.5 76.5,-143.5 76.5,-124.5 14.5,-124.5"/>
<text text-anchor="middle" x="45.5" y="-131.5" font-family="Helvetica,sans-Serif" font-size="10.00">CCObject</text>
</a>
</g>
</g>
<!-- Node2&#45;&gt;Node1 -->
<g id="edge1" class="edge">
<title>Node2&#45;&gt;Node1</title>
<path fill="none" stroke="midnightblue" d="M34.66,-115.59C30.16,-107.28 25.52,-96.98 23.5,-87 18.5,-62.23 32.05,-33.8 40.07,-19.77"/>
<polygon fill="midnightblue" stroke="midnightblue" points="31.67,-117.41 39.72,-124.3 37.73,-113.9 31.67,-117.41"/>
</g>
<!-- Node2&#45;&gt;Node1 -->
<g id="edge3" class="edge">
<title>Node2&#45;&gt;Node1</title>
<path fill="none" stroke="#9a32cd" stroke-dasharray="5,2" d="M45.5,-114.19C45.5,-87.4 45.5,-39.31 45.5,-19.69"/>
<polygon fill="#9a32cd" stroke="#9a32cd" points="42,-114.23 45.5,-124.23 49,-114.23 42,-114.23"/>
<text text-anchor="middle" x="68" y="-74.5" font-family="Helvetica,sans-Serif" font-size="10.00"> _pTarget</text>
</g>
<!-- Node4 -->
<g id="node4" class="node">
<title>Node4</title>
<g id="a_node4"><a xlink:href="../../d6/d9f/classcocos2d_1_1extension_1_1_c_c_http_client.html" target="_top" xlink:title="Singleton that handles asynchrounous http requests Once the request completed, a callback will issued...">
<polygon fill="none" stroke="black" points="108.5,-67.5 108.5,-86.5 188.5,-86.5 188.5,-67.5 108.5,-67.5"/>
<text text-anchor="middle" x="148.5" y="-74.5" font-family="Helvetica,sans-Serif" font-size="10.00">CCHttpClient</text>
</a>
</g>
</g>
<!-- Node2&#45;&gt;Node4 -->
<g id="edge5" class="edge">
<title>Node2&#45;&gt;Node4</title>
<path fill="none" stroke="midnightblue" d="M70.45,-119.68C89.76,-109.36 115.93,-95.39 132.52,-86.53"/>
<polygon fill="midnightblue" stroke="midnightblue" points="68.77,-116.61 61.59,-124.41 72.06,-122.78 68.77,-116.61"/>
</g>
<!-- Node3 -->
<g id="node3" class="node">
<title>Node3</title>
<g id="a_node3"><a xlink:href="../../d5/d61/classcocos2d_1_1_c_c_copying.html" target="_top" xlink:title="NA NA.">
<polygon fill="none" stroke="black" points="10.5,-181.5 10.5,-200.5 80.5,-200.5 80.5,-181.5 10.5,-181.5"/>
<text text-anchor="middle" x="45.5" y="-188.5" font-family="Helvetica,sans-Serif" font-size="10.00">CCCopying</text>
</a>
</g>
</g>
<!-- Node3&#45;&gt;Node2 -->
<g id="edge2" class="edge">
<title>Node3&#45;&gt;Node2</title>
<path fill="none" stroke="midnightblue" d="M45.5,-171.12C45.5,-161.82 45.5,-151.06 45.5,-143.71"/>
<polygon fill="midnightblue" stroke="midnightblue" points="42,-171.41 45.5,-181.41 49,-171.41 42,-171.41"/>
</g>
<!-- Node4&#45;&gt;Node1 -->
<g id="edge4" class="edge">
<title>Node4&#45;&gt;Node1</title>
<path fill="none" stroke="#9a32cd" stroke-dasharray="5,2" d="M125.95,-61.77C105.56,-48.9 76.21,-30.38 59.17,-19.63"/>
<polygon fill="#9a32cd" stroke="#9a32cd" points="124.28,-64.86 134.61,-67.23 128.02,-58.94 124.28,-64.86"/>
<text text-anchor="middle" x="130" y="-41" font-family="Helvetica,sans-Serif" font-size="10.00"> _pSelector</text>
</g>
</g>
</svg>
