<?xml version="1.0" encoding="UTF-8" standalone="no"?>
<!DOCTYPE svg PUBLIC "-//W3C//DTD SVG 1.1//EN"
 "http://www.w3.org/Graphics/SVG/1.1/DTD/svg11.dtd">
<!-- Generated by graphviz version 2.43.0 (0)
 -->
<!-- Title: CCHttpRequest Pages: 1 -->
<svg width="197pt" height="205pt"
 viewBox="0.00 0.00 196.50 205.00" xmlns="http://www.w3.org/2000/svg" xmlns:xlink="http://www.w3.org/1999/xlink">
<g id="graph0" class="graph" transform="scale(1 1) rotate(0) translate(4 201)">
<title>CCHttpRequest</title>
<!-- Node1 -->
<g id="node1" class="node">
<title>Node1</title>
<g id="a_node1"><a xlink:title="defines the object which users must packed for CCHttpClient::send(HttpRequest*) method.">
<polygon fill="#999999" stroke="#666666" points="91,-19 0,-19 0,0 91,0 91,-19"/>
<text text-anchor="middle" x="45.5" y="-7" font-family="Helvetica,sans-Serif" font-size="10.00">CCHttpRequest</text>
</a>
</g>
</g>
<!-- Node2 -->
<g id="node2" class="node">
<title>Node2</title>
<g id="a_node2"><a xlink:href="../../d3/dbf/classcocos2d_1_1_c_c_object.html" target="_top" xlink:title="NA.">
<polygon fill="white" stroke="#666666" points="76.5,-141 14.5,-141 14.5,-122 76.5,-122 76.5,-141"/>
<text text-anchor="middle" x="45.5" y="-129" font-family="Helvetica,sans-Serif" font-size="10.00">CCObject</text>
</a>
</g>
</g>
<!-- Node2&#45;&gt;Node1 -->
<g id="edge1" class="edge">
<title>Node2&#45;&gt;Node1</title>
<path fill="none" stroke="#63b8ff" d="M34.5,-113.03C30.04,-104.86 25.48,-94.78 23.5,-85 18.59,-60.68 32.1,-32.83 40.09,-19.09"/>
<polygon fill="#63b8ff" stroke="#63b8ff" points="31.63,-115.06 39.71,-121.91 37.67,-111.51 31.63,-115.06"/>
</g>
<!-- Node2&#45;&gt;Node1 -->
<g id="edge3" class="edge">
<title>Node2&#45;&gt;Node1</title>
<path fill="none" stroke="#9a32cd" stroke-dasharray="5,2" d="M45.5,-111.65C45.5,-85.22 45.5,-38.26 45.5,-19.05"/>
<polygon fill="#9a32cd" stroke="#9a32cd" points="42,-111.87 45.5,-121.87 49,-111.87 42,-111.87"/>
<text text-anchor="middle" x="68" y="-73" font-family="Helvetica,sans-Serif" font-size="10.00"> _pTarget</text>
</g>
<!-- Node4 -->
<g id="node4" class="node">
<title>Node4</title>
<g id="a_node4"><a xlink:href="../../d6/d9f/classcocos2d_1_1extension_1_1_c_c_http_client.html" target="_top" xlink:title="Singleton that handles asynchrounous http requests Once the request completed, a callback will issued...">
<polygon fill="white" stroke="#666666" points="188.5,-85 108.5,-85 108.5,-66 188.5,-66 188.5,-85"/>
<text text-anchor="middle" x="148.5" y="-73" font-family="Helvetica,sans-Serif" font-size="10.00">CCHttpClient</text>
</a>
</g>
</g>
<!-- Node2&#45;&gt;Node4 -->
<g id="edge5" class="edge">
<title>Node2&#45;&gt;Node4</title>
<path fill="none" stroke="#63b8ff" d="M71.08,-117.09C90.12,-107.11 115.56,-93.77 131.99,-85.15"/>
<polygon fill="#63b8ff" stroke="#63b8ff" points="69.28,-114.08 62.05,-121.82 72.53,-120.28 69.28,-114.08"/>
</g>
<!-- Node3 -->
<g id="node3" class="node">
<title>Node3</title>
<g id="a_node3"><a xlink:href="../../d5/d61/classcocos2d_1_1_c_c_copying.html" target="_top" xlink:title="NA NA.">
<polygon fill="white" stroke="#666666" points="80.5,-197 10.5,-197 10.5,-178 80.5,-178 80.5,-197"/>
<text text-anchor="middle" x="45.5" y="-185" font-family="Helvetica,sans-Serif" font-size="10.00">CCCopying</text>
</a>
</g>
</g>
<!-- Node3&#45;&gt;Node2 -->
<g id="edge2" class="edge">
<title>Node3&#45;&gt;Node2</title>
<path fill="none" stroke="#63b8ff" d="M45.5,-167.3C45.5,-158.41 45.5,-148.28 45.5,-141.25"/>
<polygon fill="#63b8ff" stroke="#63b8ff" points="42,-167.58 45.5,-177.58 49,-167.58 42,-167.58"/>
</g>
<!-- Node4&#45;&gt;Node1 -->
<g id="edge4" class="edge">
<title>Node4&#45;&gt;Node1</title>
<path fill="none" stroke="#9a32cd" stroke-dasharray="5,2" d="M126,-60.52C105.74,-47.93 76.6,-29.82 59.5,-19.2"/>
<polygon fill="#9a32cd" stroke="#9a32cd" points="124.27,-63.56 134.61,-65.87 127.96,-57.62 124.27,-63.56"/>
<text text-anchor="middle" x="130" y="-40" font-family="Helvetica,sans-Serif" font-size="10.00"> _pSelector</text>
</g>
</g>
</svg>
