<?xml version="1.0" encoding="UTF-8" standalone="no"?>
<!DOCTYPE svg PUBLIC "-//W3C//DTD SVG 1.1//EN"
 "http://www.w3.org/Graphics/SVG/1.1/DTD/svg11.dtd">
<!-- Generated by graphviz version 2.43.0 (0)
 -->
<!-- Title: CCMenu Pages: 1 -->
<svg width="621pt" height="302pt"
 viewBox="0.00 0.00 621.00 302.00" xmlns="http://www.w3.org/2000/svg" xmlns:xlink="http://www.w3.org/1999/xlink">
<g id="graph0" class="graph" transform="scale(1 1) rotate(0) translate(4 298)">
<title>CCMenu</title>
<!-- Node1 -->
<g id="node1" class="node">
<title>Node1</title>
<g id="a_node1"><a xlink:title="A CCMenu.">
<polygon fill="#999999" stroke="#666666" points="350.5,-19 293.5,-19 293.5,0 350.5,0 350.5,-19"/>
<text text-anchor="middle" x="322" y="-7" font-family="Helvetica,sans-Serif" font-size="10.00">CCMenu</text>
</a>
</g>
</g>
<!-- Node2 -->
<g id="node2" class="node">
<title>Node2</title>
<g id="a_node2"><a xlink:href="../../dd/d1e/classcocos2d_1_1_c_c_layer_r_g_b_a.html" target="_top" xlink:title="CCLayerRGBA is a subclass of CCLayer that implements the CCRGBAProtocol protocol using a solid color ...">
<polygon fill="white" stroke="#666666" points="364.5,-74 279.5,-74 279.5,-55 364.5,-55 364.5,-74"/>
<text text-anchor="middle" x="322" y="-62" font-family="Helvetica,sans-Serif" font-size="10.00">CCLayerRGBA</text>
</a>
</g>
</g>
<!-- Node2&#45;&gt;Node1 -->
<g id="edge1" class="edge">
<title>Node2&#45;&gt;Node1</title>
<path fill="none" stroke="#63b8ff" d="M322,-44.66C322,-35.93 322,-25.99 322,-19.09"/>
<polygon fill="#63b8ff" stroke="#63b8ff" points="318.5,-44.75 322,-54.75 325.5,-44.75 318.5,-44.75"/>
</g>
<!-- Node3 -->
<g id="node3" class="node">
<title>Node3</title>
<g id="a_node3"><a xlink:href="../../d0/d45/class_c_c_layer.html" target="_top" xlink:title="CCLayer is a subclass of CCNode that implements the TouchEventsDelegate protocol.">
<polygon fill="white" stroke="#666666" points="302.5,-129 245.5,-129 245.5,-110 302.5,-110 302.5,-129"/>
<text text-anchor="middle" x="274" y="-117" font-family="Helvetica,sans-Serif" font-size="10.00">CCLayer</text>
</a>
</g>
</g>
<!-- Node3&#45;&gt;Node2 -->
<g id="edge2" class="edge">
<title>Node3&#45;&gt;Node2</title>
<path fill="none" stroke="#63b8ff" d="M288.73,-102.24C297.14,-92.95 307.35,-81.68 314.22,-74.09"/>
<polygon fill="#63b8ff" stroke="#63b8ff" points="286.04,-99.99 281.93,-109.75 291.23,-104.69 286.04,-99.99"/>
</g>
<!-- Node4 -->
<g id="node4" class="node">
<title>Node4</title>
<g id="a_node4"><a xlink:href="../../d0/ded/classcocos2d_1_1_c_c_node.html" target="_top" xlink:title="CCNode is the main element.">
<polygon fill="white" stroke="#666666" points="63,-184 7,-184 7,-165 63,-165 63,-184"/>
<text text-anchor="middle" x="35" y="-172" font-family="Helvetica,sans-Serif" font-size="10.00">CCNode</text>
</a>
</g>
</g>
<!-- Node4&#45;&gt;Node3 -->
<g id="edge3" class="edge">
<title>Node4&#45;&gt;Node3</title>
<path fill="none" stroke="#63b8ff" d="M73.18,-164.75C140.37,-149.66 207.85,-134.9 245.21,-126.76"/>
<polygon fill="#63b8ff" stroke="#63b8ff" points="72.26,-161.37 63.28,-166.98 73.8,-168.2 72.26,-161.37"/>
</g>
<!-- Node5 -->
<g id="node5" class="node">
<title>Node5</title>
<g id="a_node5"><a xlink:href="../../d3/dbf/classcocos2d_1_1_c_c_object.html" target="_top" xlink:title="NA.">
<polygon fill="white" stroke="#666666" points="66,-239 4,-239 4,-220 66,-220 66,-239"/>
<text text-anchor="middle" x="35" y="-227" font-family="Helvetica,sans-Serif" font-size="10.00">CCObject</text>
</a>
</g>
</g>
<!-- Node5&#45;&gt;Node4 -->
<g id="edge4" class="edge">
<title>Node5&#45;&gt;Node4</title>
<path fill="none" stroke="#63b8ff" d="M35,-209.66C35,-200.93 35,-190.99 35,-184.09"/>
<polygon fill="#63b8ff" stroke="#63b8ff" points="31.5,-209.75 35,-219.75 38.5,-209.75 31.5,-209.75"/>
</g>
<!-- Node6 -->
<g id="node6" class="node">
<title>Node6</title>
<g id="a_node6"><a xlink:href="../../d5/d61/classcocos2d_1_1_c_c_copying.html" target="_top" xlink:title="NA NA.">
<polygon fill="white" stroke="#666666" points="70,-294 0,-294 0,-275 70,-275 70,-294"/>
<text text-anchor="middle" x="35" y="-282" font-family="Helvetica,sans-Serif" font-size="10.00">CCCopying</text>
</a>
</g>
</g>
<!-- Node6&#45;&gt;Node5 -->
<g id="edge5" class="edge">
<title>Node6&#45;&gt;Node5</title>
<path fill="none" stroke="#63b8ff" d="M35,-264.66C35,-255.93 35,-245.99 35,-239.09"/>
<polygon fill="#63b8ff" stroke="#63b8ff" points="31.5,-264.75 35,-274.75 38.5,-264.75 31.5,-264.75"/>
</g>
<!-- Node7 -->
<g id="node7" class="node">
<title>Node7</title>
<g id="a_node7"><a xlink:href="../../d0/d38/classcocos2d_1_1_c_c_touch_delegate.html" target="_top" xlink:title=" ">
<polygon fill="white" stroke="#666666" points="183,-184 81,-184 81,-165 183,-165 183,-184"/>
<text text-anchor="middle" x="132" y="-172" font-family="Helvetica,sans-Serif" font-size="10.00">CCTouchDelegate</text>
</a>
</g>
</g>
<!-- Node7&#45;&gt;Node3 -->
<g id="edge6" class="edge">
<title>Node7&#45;&gt;Node3</title>
<path fill="none" stroke="#63b8ff" d="M164.36,-161.42C190.71,-151.59 227.26,-137.95 250.77,-129.17"/>
<polygon fill="#63b8ff" stroke="#63b8ff" points="162.96,-158.21 154.81,-164.98 165.41,-164.77 162.96,-158.21"/>
</g>
<!-- Node8 -->
<g id="node8" class="node">
<title>Node8</title>
<g id="a_node8"><a xlink:href="../../da/d55/classcocos2d_1_1_c_c_accelerometer_delegate.html" target="_top" xlink:title="The CCAccelerometerDelegate defines a single method for receiving acceleration&#45;related data from the ...">
<polygon fill="white" stroke="#666666" points="347,-184 201,-184 201,-165 347,-165 347,-184"/>
<text text-anchor="middle" x="274" y="-172" font-family="Helvetica,sans-Serif" font-size="10.00">CCAccelerometerDelegate</text>
</a>
</g>
</g>
<!-- Node8&#45;&gt;Node3 -->
<g id="edge7" class="edge">
<title>Node8&#45;&gt;Node3</title>
<path fill="none" stroke="#63b8ff" d="M274,-154.66C274,-145.93 274,-135.99 274,-129.09"/>
<polygon fill="#63b8ff" stroke="#63b8ff" points="270.5,-154.75 274,-164.75 277.5,-154.75 270.5,-154.75"/>
</g>
<!-- Node9 -->
<g id="node9" class="node">
<title>Node9</title>
<g id="a_node9"><a xlink:href="../../d2/d2d/classcocos2d_1_1_c_c_keypad_delegate.html" target="_top" xlink:title=" ">
<polygon fill="white" stroke="#666666" points="475,-184 365,-184 365,-165 475,-165 475,-184"/>
<text text-anchor="middle" x="420" y="-172" font-family="Helvetica,sans-Serif" font-size="10.00">CCKeypadDelegate</text>
</a>
</g>
</g>
<!-- Node9&#45;&gt;Node3 -->
<g id="edge8" class="edge">
<title>Node9&#45;&gt;Node3</title>
<path fill="none" stroke="#63b8ff" d="M387.08,-161.55C359.97,-151.71 322.17,-137.98 297.88,-129.17"/>
<polygon fill="#63b8ff" stroke="#63b8ff" points="385.95,-164.86 396.54,-164.98 388.34,-158.28 385.95,-164.86"/>
</g>
<!-- Node10 -->
<g id="node10" class="node">
<title>Node10</title>
<g id="a_node10"><a xlink:href="../../d2/d91/classcocos2d_1_1_c_c_keyboard_delegate.html" target="_top" xlink:title=" ">
<polygon fill="white" stroke="#666666" points="613,-184 493,-184 493,-165 613,-165 613,-184"/>
<text text-anchor="middle" x="553" y="-172" font-family="Helvetica,sans-Serif" font-size="10.00">CCKeyboardDelegate</text>
</a>
</g>
</g>
<!-- Node10&#45;&gt;Node3 -->
<g id="edge9" class="edge">
<title>Node10&#45;&gt;Node3</title>
<path fill="none" stroke="#63b8ff" d="M493.43,-163.14C444.58,-154.49 373.69,-141.59 312,-129 308.95,-128.38 305.77,-127.71 302.61,-127.02"/>
<polygon fill="#63b8ff" stroke="#63b8ff" points="493.05,-166.63 503.51,-164.92 494.27,-159.74 493.05,-166.63"/>
</g>
<!-- Node11 -->
<g id="node11" class="node">
<title>Node11</title>
<g id="a_node11"><a xlink:href="../../d8/dda/classcocos2d_1_1_c_c_r_g_b_a_protocol.html" target="_top" xlink:title="RGBA protocol that affects CCNode&#39;s color and opacity NA.">
<polygon fill="white" stroke="#666666" points="419,-129 321,-129 321,-110 419,-110 419,-129"/>
<text text-anchor="middle" x="370" y="-117" font-family="Helvetica,sans-Serif" font-size="10.00">CCRGBAProtocol</text>
</a>
</g>
</g>
<!-- Node11&#45;&gt;Node2 -->
<g id="edge10" class="edge">
<title>Node11&#45;&gt;Node2</title>
<path fill="none" stroke="#63b8ff" d="M355.27,-102.24C346.86,-92.95 336.65,-81.68 329.78,-74.09"/>
<polygon fill="#63b8ff" stroke="#63b8ff" points="352.77,-104.69 362.07,-109.75 357.96,-99.99 352.77,-104.69"/>
</g>
</g>
</svg>
