<?xml version="1.0" encoding="UTF-8" standalone="no"?>
<!DOCTYPE svg PUBLIC "-//W3C//DTD SVG 1.1//EN"
 "http://www.w3.org/Graphics/SVG/1.1/DTD/svg11.dtd">
<!-- Generated by graphviz version 2.43.0 (0)
 -->
<!-- Title: /home/runner/work/cocos&#45;headers/cocos&#45;headers/cocos2dx/sprite_nodes/CCSpriteFrame.h Pages: 1 -->
<svg width="1424pt" height="688pt"
 viewBox="0.00 0.00 1424.00 688.00" xmlns="http://www.w3.org/2000/svg" xmlns:xlink="http://www.w3.org/1999/xlink">
<g id="graph0" class="graph" transform="scale(1 1) rotate(0) translate(4 684)">
<title>/home/runner/work/cocos&#45;headers/cocos&#45;headers/cocos2dx/sprite_nodes/CCSpriteFrame.h</title>
<!-- Node1 -->
<g id="node1" class="node">
<title>Node1</title>
<g id="a_node1"><a xlink:title=" ">
<polygon fill="#bfbfbf" stroke="black" points="316,-627.5 316,-679.5 456,-679.5 456,-627.5 316,-627.5"/>
<text text-anchor="start" x="324" y="-667.5" font-family="Helvetica,sans-Serif" font-size="10.00">/home/runner/work/cocos</text>
<text text-anchor="start" x="324" y="-656.5" font-family="Helvetica,sans-Serif" font-size="10.00">&#45;headers/cocos&#45;headers</text>
<text text-anchor="start" x="324" y="-645.5" font-family="Helvetica,sans-Serif" font-size="10.00">/cocos2dx/sprite_nodes</text>
<text text-anchor="middle" x="386" y="-634.5" font-family="Helvetica,sans-Serif" font-size="10.00">/CCSpriteFrame.h</text>
</a>
</g>
</g>
<!-- Node2 -->
<g id="node2" class="node">
<title>Node2</title>
<g id="a_node2"><a xlink:href="../../db/d7f/_c_c_node_8h.html" target="_top" xlink:title=" ">
<polygon fill="none" stroke="black" points="797.5,-571.5 797.5,-590.5 922.5,-590.5 922.5,-571.5 797.5,-571.5"/>
<text text-anchor="middle" x="860" y="-578.5" font-family="Helvetica,sans-Serif" font-size="10.00">base_nodes/CCNode.h</text>
</a>
</g>
</g>
<!-- Node1&#45;&gt;Node2 -->
<g id="edge1" class="edge">
<title>Node1&#45;&gt;Node2</title>
<path fill="none" stroke="midnightblue" d="M456.2,-642.06C546.77,-628.59 703.27,-605.31 792.51,-592.04"/>
<polygon fill="midnightblue" stroke="midnightblue" points="793.14,-595.48 802.52,-590.55 792.11,-588.56 793.14,-595.48"/>
</g>
<!-- Node11 -->
<g id="node11" class="node">
<title>Node11</title>
<g id="a_node11"><a xlink:href="../../d6/d09/_c_c_geometry_8h.html" target="_top" xlink:title=" ">
<polygon fill="none" stroke="black" points="248,-336.5 248,-355.5 334,-355.5 334,-336.5 248,-336.5"/>
<text text-anchor="middle" x="291" y="-343.5" font-family="Helvetica,sans-Serif" font-size="10.00">CCGeometry.h</text>
</a>
</g>
</g>
<!-- Node1&#45;&gt;Node11 -->
<g id="edge57" class="edge">
<title>Node1&#45;&gt;Node11</title>
<path fill="none" stroke="midnightblue" d="M325.65,-627.4C251.08,-592.25 129.78,-520.27 95,-412 92.28,-403.54 89.46,-398.95 95,-392 112.54,-369.98 185.74,-357.85 237.53,-351.88"/>
<polygon fill="midnightblue" stroke="midnightblue" points="238.03,-355.35 247.58,-350.77 237.26,-348.39 238.03,-355.35"/>
</g>
<!-- Node12 -->
<g id="node12" class="node">
<title>Node12</title>
<g id="a_node12"><a xlink:href="../../dd/d69/_c_c_object_8h.html" target="_top" xlink:title=" ">
<polygon fill="none" stroke="black" points="507.5,-280.5 507.5,-299.5 578.5,-299.5 578.5,-280.5 507.5,-280.5"/>
<text text-anchor="middle" x="543" y="-287.5" font-family="Helvetica,sans-Serif" font-size="10.00">CCObject.h</text>
</a>
</g>
</g>
<!-- Node1&#45;&gt;Node12 -->
<g id="edge56" class="edge">
<title>Node1&#45;&gt;Node12</title>
<path fill="none" stroke="midnightblue" d="M403.32,-627.1C418.44,-602.41 438,-563.28 438,-526 438,-526 438,-526 438,-401 438,-356.02 484.51,-322.19 515.62,-304.59"/>
<polygon fill="midnightblue" stroke="midnightblue" points="517.59,-307.5 524.71,-299.65 514.25,-301.35 517.59,-307.5"/>
</g>
<!-- Node29 -->
<g id="node29" class="node">
<title>Node29</title>
<g id="a_node29"><a xlink:href="../../d8/d76/_c_c_protocols_8h.html" target="_top" xlink:title=" ">
<polygon fill="none" stroke="black" points="196,-515.5 196,-534.5 280,-534.5 280,-515.5 196,-515.5"/>
<text text-anchor="middle" x="238" y="-522.5" font-family="Helvetica,sans-Serif" font-size="10.00">CCProtocols.h</text>
</a>
</g>
</g>
<!-- Node1&#45;&gt;Node29 -->
<g id="edge55" class="edge">
<title>Node1&#45;&gt;Node29</title>
<path fill="none" stroke="midnightblue" d="M356.41,-627.2C326.37,-601.54 280.86,-562.63 255.91,-541.31"/>
<polygon fill="midnightblue" stroke="midnightblue" points="257.88,-538.39 248,-534.55 253.33,-543.71 257.88,-538.39"/>
</g>
<!-- Node3 -->
<g id="node3" class="node">
<title>Node3</title>
<g id="a_node3"><a xlink:href="../../d9/dc8/cc_macros_8h.html" target="_top" xlink:title=" ">
<polygon fill="none" stroke="black" points="1330.5,-224.5 1330.5,-243.5 1401.5,-243.5 1401.5,-224.5 1330.5,-224.5"/>
<text text-anchor="middle" x="1366" y="-231.5" font-family="Helvetica,sans-Serif" font-size="10.00">ccMacros.h</text>
</a>
</g>
</g>
<!-- Node2&#45;&gt;Node3 -->
<g id="edge2" class="edge">
<title>Node2&#45;&gt;Node3</title>
<path fill="none" stroke="midnightblue" d="M922.7,-580.05C1068.11,-578.49 1416,-564.32 1416,-464.5 1416,-464.5 1416,-464.5 1416,-345 1416,-309.18 1393.76,-272.21 1378.95,-251.56"/>
<polygon fill="midnightblue" stroke="midnightblue" points="1381.73,-249.45 1372.95,-243.52 1376.12,-253.63 1381.73,-249.45"/>
</g>
<!-- Node10 -->
<g id="node10" class="node">
<title>Node10</title>
<g id="a_node10"><a xlink:href="../../d3/d15/_c_c_affine_transform_8h.html" target="_top" xlink:title=" ">
<polygon fill="none" stroke="black" points="224,-392.5 224,-411.5 372,-411.5 372,-392.5 224,-392.5"/>
<text text-anchor="middle" x="298" y="-399.5" font-family="Helvetica,sans-Serif" font-size="10.00">cocoa/CCAffineTransform.h</text>
</a>
</g>
</g>
<!-- Node2&#45;&gt;Node10 -->
<g id="edge11" class="edge">
<title>Node2&#45;&gt;Node10</title>
<path fill="none" stroke="midnightblue" d="M818.97,-571.47C780.66,-563.21 722.05,-549.78 672,-535 542.87,-496.87 392.8,-439.98 329.12,-415.23"/>
<polygon fill="midnightblue" stroke="midnightblue" points="330.25,-411.91 319.66,-411.54 327.71,-418.43 330.25,-411.91"/>
</g>
<!-- Node16 -->
<g id="node16" class="node">
<title>Node16</title>
<g id="a_node16"><a xlink:href="../../da/d35/_c_c_array_8h.html" target="_top" xlink:title=" ">
<polygon fill="none" stroke="black" points="850.5,-515.5 850.5,-534.5 945.5,-534.5 945.5,-515.5 850.5,-515.5"/>
<text text-anchor="middle" x="898" y="-522.5" font-family="Helvetica,sans-Serif" font-size="10.00">cocoa/CCArray.h</text>
</a>
</g>
</g>
<!-- Node2&#45;&gt;Node16 -->
<g id="edge21" class="edge">
<title>Node2&#45;&gt;Node16</title>
<path fill="none" stroke="midnightblue" d="M866.27,-571.08C871.64,-563.46 879.52,-552.26 886.08,-542.94"/>
<polygon fill="midnightblue" stroke="midnightblue" points="888.95,-544.94 891.84,-534.75 883.22,-540.91 888.95,-544.94"/>
</g>
<!-- Node18 -->
<g id="node18" class="node">
<title>Node18</title>
<g id="a_node18"><a xlink:title=" ">
<polygon fill="none" stroke="#bfbfbf" points="783,-336.5 783,-355.5 835,-355.5 835,-336.5 783,-336.5"/>
<text text-anchor="middle" x="809" y="-343.5" font-family="Helvetica,sans-Serif" font-size="10.00">CCGL.h</text>
</a>
</g>
</g>
<!-- Node2&#45;&gt;Node18 -->
<g id="edge23" class="edge">
<title>Node2&#45;&gt;Node18</title>
<path fill="none" stroke="midnightblue" d="M842.23,-571.49C813.3,-556.73 756.16,-523.65 725,-479 707.22,-453.52 709.49,-442.75 705,-412 703.72,-403.2 700.12,-399.43 705,-392 719.96,-369.23 749.17,-357.92 772.84,-352.34"/>
<polygon fill="midnightblue" stroke="midnightblue" points="773.85,-355.71 782.92,-350.23 772.41,-348.86 773.85,-355.71"/>
</g>
<!-- Node19 -->
<g id="node19" class="node">
<title>Node19</title>
<g id="a_node19"><a xlink:href="../../da/d2f/cc_g_l_state_cache_8h.html" target="_top" xlink:title=" ">
<polygon fill="none" stroke="black" points="1052,-392.5 1052,-411.5 1198,-411.5 1198,-392.5 1052,-392.5"/>
<text text-anchor="middle" x="1125" y="-399.5" font-family="Helvetica,sans-Serif" font-size="10.00">shaders/ccGLStateCache.h</text>
</a>
</g>
</g>
<!-- Node2&#45;&gt;Node19 -->
<g id="edge24" class="edge">
<title>Node2&#45;&gt;Node19</title>
<path fill="none" stroke="midnightblue" d="M922.64,-574.75C981.02,-568.61 1062.51,-556.45 1086,-535 1118.26,-505.54 1124.33,-450.84 1125.17,-421.97"/>
<polygon fill="midnightblue" stroke="midnightblue" points="1128.67,-421.68 1125.27,-411.65 1121.67,-421.61 1128.67,-421.68"/>
</g>
<!-- Node20 -->
<g id="node20" class="node">
<title>Node20</title>
<g id="a_node20"><a xlink:href="../../de/d32/_c_c_g_l_program_8h.html" target="_top" xlink:title=" ">
<polygon fill="none" stroke="black" points="1216,-392.5 1216,-411.5 1350,-411.5 1350,-392.5 1216,-392.5"/>
<text text-anchor="middle" x="1283" y="-399.5" font-family="Helvetica,sans-Serif" font-size="10.00">shaders/CCGLProgram.h</text>
</a>
</g>
</g>
<!-- Node2&#45;&gt;Node20 -->
<g id="edge27" class="edge">
<title>Node2&#45;&gt;Node20</title>
<path fill="none" stroke="midnightblue" d="M922.71,-576.57C974.07,-571.9 1047.68,-560.91 1107,-535 1173.54,-505.93 1238.32,-447.23 1267.25,-418.95"/>
<polygon fill="midnightblue" stroke="midnightblue" points="1269.8,-421.35 1274.44,-411.83 1264.87,-416.38 1269.8,-421.35"/>
</g>
<!-- Node21 -->
<g id="node21" class="node">
<title>Node21</title>
<g id="a_node21"><a xlink:title=" ">
<polygon fill="none" stroke="#bfbfbf" points="963.5,-515.5 963.5,-534.5 1076.5,-534.5 1076.5,-515.5 963.5,-515.5"/>
<text text-anchor="middle" x="1020" y="-522.5" font-family="Helvetica,sans-Serif" font-size="10.00">kazmath/kazmath.h</text>
</a>
</g>
</g>
<!-- Node2&#45;&gt;Node21 -->
<g id="edge31" class="edge">
<title>Node2&#45;&gt;Node21</title>
<path fill="none" stroke="midnightblue" d="M885.35,-571.44C912.27,-562.36 955,-547.94 985.09,-537.78"/>
<polygon fill="midnightblue" stroke="midnightblue" points="986.41,-541.03 994.77,-534.52 984.17,-534.4 986.41,-541.03"/>
</g>
<!-- Node22 -->
<g id="node22" class="node">
<title>Node22</title>
<g id="a_node22"><a xlink:href="../../dc/dbc/_c_c_script_support_8h.html" target="_top" xlink:title=" ">
<polygon fill="none" stroke="black" points="734,-454 734,-473 910,-473 910,-454 734,-454"/>
<text text-anchor="middle" x="822" y="-461" font-family="Helvetica,sans-Serif" font-size="10.00">script_support/CCScriptSupport.h</text>
</a>
</g>
</g>
<!-- Node2&#45;&gt;Node22 -->
<g id="edge32" class="edge">
<title>Node2&#45;&gt;Node22</title>
<path fill="none" stroke="midnightblue" d="M856.28,-571.47C852.44,-562.5 846.4,-547.9 842,-535 836.11,-517.71 830.53,-497.63 826.77,-483.33"/>
<polygon fill="midnightblue" stroke="midnightblue" points="830.06,-482.08 824.17,-473.27 823.29,-483.83 830.06,-482.08"/>
</g>
<!-- Node2&#45;&gt;Node29 -->
<g id="edge44" class="edge">
<title>Node2&#45;&gt;Node29</title>
<path fill="none" stroke="midnightblue" d="M797.22,-574.55C674.44,-563.89 404.54,-540.46 290.5,-530.56"/>
<polygon fill="midnightblue" stroke="midnightblue" points="290.56,-527.05 280.29,-529.67 289.95,-534.02 290.56,-527.05"/>
</g>
<!-- Node4 -->
<g id="node4" class="node">
<title>Node4</title>
<g id="a_node4"><a xlink:href="../../d5/d22/_c_c_common_8h.html" target="_top" xlink:title=" ">
<polygon fill="none" stroke="black" points="1159,-168.5 1159,-187.5 1287,-187.5 1287,-168.5 1159,-168.5"/>
<text text-anchor="middle" x="1223" y="-175.5" font-family="Helvetica,sans-Serif" font-size="10.00">platform/CCCommon.h</text>
</a>
</g>
</g>
<!-- Node3&#45;&gt;Node4 -->
<g id="edge3" class="edge">
<title>Node3&#45;&gt;Node4</title>
<path fill="none" stroke="midnightblue" d="M1343.34,-224.44C1319.6,-215.48 1282.09,-201.31 1255.26,-191.18"/>
<polygon fill="midnightblue" stroke="midnightblue" points="1256.14,-187.77 1245.55,-187.52 1253.67,-194.32 1256.14,-187.77"/>
</g>
<!-- Node6 -->
<g id="node6" class="node">
<title>Node6</title>
<g id="a_node6"><a xlink:href="../../db/d9f/cc_config_8h.html" target="_top" xlink:title="cocos2d (cc) configuration file">
<polygon fill="none" stroke="black" points="877.5,-56.5 877.5,-75.5 944.5,-75.5 944.5,-56.5 877.5,-56.5"/>
<text text-anchor="middle" x="911" y="-63.5" font-family="Helvetica,sans-Serif" font-size="10.00">ccConfig.h</text>
</a>
</g>
</g>
<!-- Node3&#45;&gt;Node6 -->
<g id="edge10" class="edge">
<title>Node3&#45;&gt;Node6</title>
<path fill="none" stroke="midnightblue" d="M1371.06,-224.35C1378.25,-210.78 1389.18,-184.36 1376,-168 1323.19,-102.49 1059.97,-77.28 954.66,-69.72"/>
<polygon fill="midnightblue" stroke="midnightblue" points="954.89,-66.23 944.67,-69.02 954.41,-73.21 954.89,-66.23"/>
</g>
<!-- Node9 -->
<g id="node9" class="node">
<title>Node9</title>
<g id="a_node9"><a xlink:title=" ">
<polygon fill="none" stroke="#bfbfbf" points="1305,-168.5 1305,-187.5 1367,-187.5 1367,-168.5 1305,-168.5"/>
<text text-anchor="middle" x="1336" y="-175.5" font-family="Helvetica,sans-Serif" font-size="10.00">CCStdC.h</text>
</a>
</g>
</g>
<!-- Node3&#45;&gt;Node9 -->
<g id="edge9" class="edge">
<title>Node3&#45;&gt;Node9</title>
<path fill="none" stroke="midnightblue" d="M1361.05,-224.08C1356.9,-216.61 1350.85,-205.72 1345.73,-196.52"/>
<polygon fill="midnightblue" stroke="midnightblue" points="1348.78,-194.79 1340.86,-187.75 1342.66,-198.19 1348.78,-194.79"/>
</g>
<!-- Node5 -->
<g id="node5" class="node">
<title>Node5</title>
<g id="a_node5"><a xlink:href="../../d3/d41/_c_c_platform_macros_8h.html" target="_top" xlink:title=" ">
<polygon fill="none" stroke="black" points="748,-112.5 748,-131.5 864,-131.5 864,-112.5 748,-112.5"/>
<text text-anchor="middle" x="806" y="-119.5" font-family="Helvetica,sans-Serif" font-size="10.00">CCPlatformMacros.h</text>
</a>
</g>
</g>
<!-- Node4&#45;&gt;Node5 -->
<g id="edge4" class="edge">
<title>Node4&#45;&gt;Node5</title>
<path fill="none" stroke="midnightblue" d="M1158.76,-168.68C1081.79,-158.71 953.4,-142.09 874.57,-131.88"/>
<polygon fill="midnightblue" stroke="midnightblue" points="874.62,-128.36 864.26,-130.54 873.72,-135.3 874.62,-128.36"/>
</g>
<!-- Node5&#45;&gt;Node6 -->
<g id="edge5" class="edge">
<title>Node5&#45;&gt;Node6</title>
<path fill="none" stroke="midnightblue" d="M822.87,-112.32C839.71,-103.66 865.81,-90.24 885.24,-80.25"/>
<polygon fill="midnightblue" stroke="midnightblue" points="886.88,-83.34 894.17,-75.65 883.68,-77.12 886.88,-83.34"/>
</g>
<!-- Node7 -->
<g id="node7" class="node">
<title>Node7</title>
<g id="a_node7"><a xlink:href="../../dd/d96/_c_c_platform_config_8h.html" target="_top" xlink:title=" ">
<polygon fill="none" stroke="black" points="801.5,-0.5 801.5,-19.5 958.5,-19.5 958.5,-0.5 801.5,-0.5"/>
<text text-anchor="middle" x="880" y="-7.5" font-family="Helvetica,sans-Serif" font-size="10.00">platform/CCPlatformConfig.h</text>
</a>
</g>
</g>
<!-- Node5&#45;&gt;Node7 -->
<g id="edge7" class="edge">
<title>Node5&#45;&gt;Node7</title>
<path fill="none" stroke="midnightblue" d="M811.81,-112.37C824.02,-94.22 852.55,-51.8 868.57,-27.99"/>
<polygon fill="midnightblue" stroke="midnightblue" points="871.54,-29.84 874.22,-19.59 865.73,-25.94 871.54,-29.84"/>
</g>
<!-- Node8 -->
<g id="node8" class="node">
<title>Node8</title>
<g id="a_node8"><a xlink:title=" ">
<polygon fill="none" stroke="#bfbfbf" points="707.5,-56.5 707.5,-75.5 820.5,-75.5 820.5,-56.5 707.5,-56.5"/>
<text text-anchor="middle" x="764" y="-63.5" font-family="Helvetica,sans-Serif" font-size="10.00">CCPlatformDefine.h</text>
</a>
</g>
</g>
<!-- Node5&#45;&gt;Node8 -->
<g id="edge8" class="edge">
<title>Node5&#45;&gt;Node8</title>
<path fill="none" stroke="midnightblue" d="M799.06,-112.08C793.07,-104.38 784.25,-93.03 776.95,-83.65"/>
<polygon fill="midnightblue" stroke="midnightblue" points="779.71,-81.5 770.81,-75.75 774.18,-85.79 779.71,-81.5"/>
</g>
<!-- Node6&#45;&gt;Node7 -->
<g id="edge6" class="edge">
<title>Node6&#45;&gt;Node7</title>
<path fill="none" stroke="midnightblue" d="M905.88,-56.08C901.59,-48.61 895.34,-37.72 890.06,-28.52"/>
<polygon fill="midnightblue" stroke="midnightblue" points="893.04,-26.68 885.02,-19.75 886.97,-30.17 893.04,-26.68"/>
</g>
<!-- Node10&#45;&gt;Node5 -->
<g id="edge20" class="edge">
<title>Node10&#45;&gt;Node5</title>
<path fill="none" stroke="midnightblue" d="M306.91,-392.24C341.47,-358.32 465.85,-236.81 487,-224 568.76,-174.47 677.21,-146.89 744.26,-133.5"/>
<polygon fill="midnightblue" stroke="midnightblue" points="745.11,-136.9 754.25,-131.55 743.77,-130.03 745.11,-136.9"/>
</g>
<!-- Node10&#45;&gt;Node11 -->
<g id="edge12" class="edge">
<title>Node10&#45;&gt;Node11</title>
<path fill="none" stroke="midnightblue" d="M296.84,-392.08C295.92,-384.93 294.58,-374.64 293.42,-365.69"/>
<polygon fill="midnightblue" stroke="midnightblue" points="296.89,-365.22 292.13,-355.75 289.95,-366.12 296.89,-365.22"/>
</g>
<!-- Node11&#45;&gt;Node5 -->
<g id="edge13" class="edge">
<title>Node11&#45;&gt;Node5</title>
<path fill="none" stroke="midnightblue" d="M297.96,-336.11C324.98,-301.68 422.44,-178.53 442,-168 491.6,-141.3 646.51,-130.01 737.47,-125.59"/>
<polygon fill="midnightblue" stroke="midnightblue" points="737.87,-129.07 747.7,-125.1 737.54,-122.08 737.87,-129.07"/>
</g>
<!-- Node11&#45;&gt;Node12 -->
<g id="edge14" class="edge">
<title>Node11&#45;&gt;Node12</title>
<path fill="none" stroke="midnightblue" d="M330.93,-336.44C376.18,-326.75 449.81,-310.97 497.32,-300.79"/>
<polygon fill="midnightblue" stroke="midnightblue" points="498.29,-304.16 507.33,-298.64 496.82,-297.32 498.29,-304.16"/>
</g>
<!-- Node15 -->
<g id="node15" class="node">
<title>Node15</title>
<g id="a_node15"><a xlink:title=" ">
<polygon fill="none" stroke="#bfbfbf" points="265.5,-280.5 265.5,-299.5 316.5,-299.5 316.5,-280.5 265.5,-280.5"/>
<text text-anchor="middle" x="291" y="-287.5" font-family="Helvetica,sans-Serif" font-size="10.00">math.h</text>
</a>
</g>
</g>
<!-- Node11&#45;&gt;Node15 -->
<g id="edge19" class="edge">
<title>Node11&#45;&gt;Node15</title>
<path fill="none" stroke="midnightblue" d="M291,-336.08C291,-329.01 291,-318.86 291,-309.99"/>
<polygon fill="midnightblue" stroke="midnightblue" points="294.5,-309.75 291,-299.75 287.5,-309.75 294.5,-309.75"/>
</g>
<!-- Node12&#45;&gt;Node3 -->
<g id="edge18" class="edge">
<title>Node12&#45;&gt;Node3</title>
<path fill="none" stroke="midnightblue" d="M578.63,-286.66C710.75,-277.99 1172.65,-247.69 1320.27,-238"/>
<polygon fill="midnightblue" stroke="midnightblue" points="1320.6,-241.49 1330.34,-237.34 1320.14,-234.5 1320.6,-241.49"/>
</g>
<!-- Node13 -->
<g id="node13" class="node">
<title>Node13</title>
<g id="a_node13"><a xlink:href="../../d9/d2d/_c_c_data_visitor_8h.html" target="_top" xlink:title=" ">
<polygon fill="none" stroke="black" points="496.5,-224.5 496.5,-243.5 589.5,-243.5 589.5,-224.5 496.5,-224.5"/>
<text text-anchor="middle" x="543" y="-231.5" font-family="Helvetica,sans-Serif" font-size="10.00">CCDataVisitor.h</text>
</a>
</g>
</g>
<!-- Node12&#45;&gt;Node13 -->
<g id="edge15" class="edge">
<title>Node12&#45;&gt;Node13</title>
<path fill="none" stroke="midnightblue" d="M543,-280.08C543,-273.01 543,-262.86 543,-253.99"/>
<polygon fill="midnightblue" stroke="midnightblue" points="546.5,-253.75 543,-243.75 539.5,-253.75 546.5,-253.75"/>
</g>
<!-- Node13&#45;&gt;Node5 -->
<g id="edge16" class="edge">
<title>Node13&#45;&gt;Node5</title>
<path fill="none" stroke="midnightblue" d="M563.64,-224.37C609.92,-205.01 722.16,-158.06 776.1,-135.51"/>
<polygon fill="midnightblue" stroke="midnightblue" points="777.58,-138.68 785.46,-131.59 774.88,-132.22 777.58,-138.68"/>
</g>
<!-- Node14 -->
<g id="node14" class="node">
<title>Node14</title>
<g id="a_node14"><a xlink:title=" ">
<polygon fill="none" stroke="#bfbfbf" points="114,-168.5 114,-187.5 158,-187.5 158,-168.5 114,-168.5"/>
<text text-anchor="middle" x="136" y="-175.5" font-family="Helvetica,sans-Serif" font-size="10.00">string</text>
</a>
</g>
</g>
<!-- Node13&#45;&gt;Node14 -->
<g id="edge17" class="edge">
<title>Node13&#45;&gt;Node14</title>
<path fill="none" stroke="midnightblue" d="M496.31,-226.81C412.9,-215.74 240.29,-192.84 168.47,-183.31"/>
<polygon fill="midnightblue" stroke="midnightblue" points="168.6,-179.79 158.23,-181.95 167.68,-186.73 168.6,-179.79"/>
</g>
<!-- Node17 -->
<g id="node17" class="node">
<title>Node17</title>
<g id="a_node17"><a xlink:title=" ">
<polygon fill="none" stroke="#bfbfbf" points="928,-448.5 928,-478.5 1048,-478.5 1048,-448.5 928,-448.5"/>
<text text-anchor="start" x="936" y="-466.5" font-family="Helvetica,sans-Serif" font-size="10.00">support/data_support</text>
<text text-anchor="middle" x="988" y="-455.5" font-family="Helvetica,sans-Serif" font-size="10.00">/ccCArray.h</text>
</a>
</g>
</g>
<!-- Node16&#45;&gt;Node17 -->
<g id="edge22" class="edge">
<title>Node16&#45;&gt;Node17</title>
<path fill="none" stroke="midnightblue" d="M910.89,-515.48C923.2,-507.34 942.18,-494.79 958.23,-484.18"/>
<polygon fill="midnightblue" stroke="midnightblue" points="960.38,-486.96 966.79,-478.52 956.52,-481.12 960.38,-486.96"/>
</g>
<!-- Node19&#45;&gt;Node5 -->
<g id="edge26" class="edge">
<title>Node19&#45;&gt;Node5</title>
<path fill="none" stroke="midnightblue" d="M1116.83,-392.38C1101.07,-374.81 1068,-332.94 1068,-291 1068,-291 1068,-291 1068,-233 1068,-148.96 951.99,-128.06 874.36,-123.48"/>
<polygon fill="midnightblue" stroke="midnightblue" points="874.31,-119.97 864.15,-122.96 873.95,-126.96 874.31,-119.97"/>
</g>
<!-- Node19&#45;&gt;Node18 -->
<g id="edge25" class="edge">
<title>Node19&#45;&gt;Node18</title>
<path fill="none" stroke="midnightblue" d="M1074.93,-392.44C1010.87,-381.5 901.47,-362.8 845.03,-353.16"/>
<polygon fill="midnightblue" stroke="midnightblue" points="845.58,-349.7 835.14,-351.47 844.4,-356.6 845.58,-349.7"/>
</g>
<!-- Node20&#45;&gt;Node3 -->
<g id="edge28" class="edge">
<title>Node20&#45;&gt;Node3</title>
<path fill="none" stroke="midnightblue" d="M1287.46,-392.08C1300.64,-365.72 1339.56,-287.88 1357.17,-252.66"/>
<polygon fill="midnightblue" stroke="midnightblue" points="1360.37,-254.08 1361.72,-243.57 1354.11,-250.95 1360.37,-254.08"/>
</g>
<!-- Node20&#45;&gt;Node12 -->
<g id="edge29" class="edge">
<title>Node20&#45;&gt;Node12</title>
<path fill="none" stroke="midnightblue" d="M1254.05,-392.5C1205.35,-378.52 1103.74,-350.77 1016,-336 860.41,-309.8 673.27,-297.63 588.58,-293.15"/>
<polygon fill="midnightblue" stroke="midnightblue" points="588.7,-289.65 578.53,-292.63 588.34,-296.64 588.7,-289.65"/>
</g>
<!-- Node20&#45;&gt;Node18 -->
<g id="edge30" class="edge">
<title>Node20&#45;&gt;Node18</title>
<path fill="none" stroke="midnightblue" d="M1215.87,-393.03C1212.87,-392.68 1209.9,-392.34 1207,-392 1073.62,-376.56 915.03,-358.81 845.13,-351.02"/>
<polygon fill="midnightblue" stroke="midnightblue" points="845.41,-347.53 835.08,-349.9 844.63,-354.49 845.41,-347.53"/>
</g>
<!-- Node22&#45;&gt;Node4 -->
<g id="edge33" class="edge">
<title>Node22&#45;&gt;Node4</title>
<path fill="none" stroke="midnightblue" d="M874.52,-454C888.92,-451.84 904.54,-449.67 919,-448 967.73,-442.37 1325.76,-448.07 1359,-412 1424.56,-340.86 1295.79,-232.84 1243.6,-193.76"/>
<polygon fill="midnightblue" stroke="midnightblue" points="1245.49,-190.8 1235.36,-187.69 1241.34,-196.44 1245.49,-190.8"/>
</g>
<!-- Node22&#45;&gt;Node14 -->
<g id="edge42" class="edge">
<title>Node22&#45;&gt;Node14</title>
<path fill="none" stroke="midnightblue" d="M801.09,-453.86C702.36,-413.06 282.72,-239.63 166.15,-191.46"/>
<polygon fill="midnightblue" stroke="midnightblue" points="167.32,-188.16 156.74,-187.57 164.65,-194.63 167.32,-188.16"/>
</g>
<!-- Node23 -->
<g id="node23" class="node">
<title>Node23</title>
<g id="a_node23"><a xlink:title=" ">
<polygon fill="none" stroke="#bfbfbf" points="714,-392.5 714,-411.5 824,-411.5 824,-392.5 714,-392.5"/>
<text text-anchor="middle" x="769" y="-399.5" font-family="Helvetica,sans-Serif" font-size="10.00">CCAccelerometer.h</text>
</a>
</g>
</g>
<!-- Node22&#45;&gt;Node23 -->
<g id="edge34" class="edge">
<title>Node22&#45;&gt;Node23</title>
<path fill="none" stroke="midnightblue" d="M814.41,-453.98C806.3,-444.87 793.27,-430.24 783.24,-418.98"/>
<polygon fill="midnightblue" stroke="midnightblue" points="785.84,-416.65 776.58,-411.51 780.62,-421.3 785.84,-416.65"/>
</g>
<!-- Node24 -->
<g id="node24" class="node">
<title>Node24</title>
<g id="a_node24"><a xlink:href="../../d3/dff/_c_c_touch_8h.html" target="_top" xlink:title=" ">
<polygon fill="none" stroke="black" points="466.5,-392.5 466.5,-411.5 619.5,-411.5 619.5,-392.5 466.5,-392.5"/>
<text text-anchor="middle" x="543" y="-399.5" font-family="Helvetica,sans-Serif" font-size="10.00">touch_dispatcher/CCTouch.h</text>
</a>
</g>
</g>
<!-- Node22&#45;&gt;Node24 -->
<g id="edge35" class="edge">
<title>Node22&#45;&gt;Node24</title>
<path fill="none" stroke="midnightblue" d="M782.03,-453.98C732.2,-443.35 647.03,-425.18 592.95,-413.65"/>
<polygon fill="midnightblue" stroke="midnightblue" points="593.41,-410.17 582.9,-411.51 591.95,-417.02 593.41,-410.17"/>
</g>
<!-- Node25 -->
<g id="node25" class="node">
<title>Node25</title>
<g id="a_node25"><a xlink:href="../../da/ddc/_c_c_set_8h.html" target="_top" xlink:title=" ">
<polygon fill="none" stroke="black" points="948,-392.5 948,-411.5 1034,-411.5 1034,-392.5 948,-392.5"/>
<text text-anchor="middle" x="991" y="-399.5" font-family="Helvetica,sans-Serif" font-size="10.00">cocoa/CCSet.h</text>
</a>
</g>
</g>
<!-- Node22&#45;&gt;Node25 -->
<g id="edge38" class="edge">
<title>Node22&#45;&gt;Node25</title>
<path fill="none" stroke="midnightblue" d="M846.21,-453.98C875.33,-443.72 924.37,-426.46 957.2,-414.9"/>
<polygon fill="midnightblue" stroke="midnightblue" points="958.56,-418.13 966.83,-411.51 956.24,-411.53 958.56,-418.13"/>
</g>
<!-- Node27 -->
<g id="node27" class="node">
<title>Node27</title>
<g id="a_node27"><a xlink:title=" ">
<polygon fill="none" stroke="#bfbfbf" points="842,-392.5 842,-411.5 880,-411.5 880,-392.5 842,-392.5"/>
<text text-anchor="middle" x="861" y="-399.5" font-family="Helvetica,sans-Serif" font-size="10.00">map</text>
</a>
</g>
</g>
<!-- Node22&#45;&gt;Node27 -->
<g id="edge41" class="edge">
<title>Node22&#45;&gt;Node27</title>
<path fill="none" stroke="midnightblue" d="M827.59,-453.98C833.38,-445.14 842.59,-431.09 849.87,-419.98"/>
<polygon fill="midnightblue" stroke="midnightblue" points="852.87,-421.79 855.42,-411.51 847.01,-417.95 852.87,-421.79"/>
</g>
<!-- Node28 -->
<g id="node28" class="node">
<title>Node28</title>
<g id="a_node28"><a xlink:title=" ">
<polygon fill="none" stroke="#bfbfbf" points="898,-392.5 898,-411.5 930,-411.5 930,-392.5 898,-392.5"/>
<text text-anchor="middle" x="914" y="-399.5" font-family="Helvetica,sans-Serif" font-size="10.00">list</text>
</a>
</g>
</g>
<!-- Node22&#45;&gt;Node28 -->
<g id="edge43" class="edge">
<title>Node22&#45;&gt;Node28</title>
<path fill="none" stroke="midnightblue" d="M835.18,-453.98C850.07,-444.34 874.54,-428.52 892.27,-417.05"/>
<polygon fill="midnightblue" stroke="midnightblue" points="894.35,-419.88 900.84,-411.51 890.55,-414 894.35,-419.88"/>
</g>
<!-- Node24&#45;&gt;Node11 -->
<g id="edge37" class="edge">
<title>Node24&#45;&gt;Node11</title>
<path fill="none" stroke="midnightblue" d="M503.07,-392.44C459.11,-383.02 388.37,-367.87 340.82,-357.68"/>
<polygon fill="midnightblue" stroke="midnightblue" points="341.25,-354.19 330.74,-355.52 339.79,-361.03 341.25,-354.19"/>
</g>
<!-- Node24&#45;&gt;Node12 -->
<g id="edge36" class="edge">
<title>Node24&#45;&gt;Node12</title>
<path fill="none" stroke="midnightblue" d="M543,-392.37C543,-374.62 543,-333.67 543,-309.6"/>
<polygon fill="midnightblue" stroke="midnightblue" points="546.5,-309.59 543,-299.59 539.5,-309.59 546.5,-309.59"/>
</g>
<!-- Node25&#45;&gt;Node12 -->
<g id="edge40" class="edge">
<title>Node25&#45;&gt;Node12</title>
<path fill="none" stroke="midnightblue" d="M947.98,-393C904.06,-384.61 833.99,-370.64 774,-356 705.33,-339.24 626.22,-316.14 580.66,-302.47"/>
<polygon fill="midnightblue" stroke="midnightblue" points="581.51,-299.07 570.92,-299.54 579.49,-305.77 581.51,-299.07"/>
</g>
<!-- Node26 -->
<g id="node26" class="node">
<title>Node26</title>
<g id="a_node26"><a xlink:title=" ">
<polygon fill="none" stroke="#bfbfbf" points="975,-336.5 975,-355.5 1007,-355.5 1007,-336.5 975,-336.5"/>
<text text-anchor="middle" x="991" y="-343.5" font-family="Helvetica,sans-Serif" font-size="10.00">set</text>
</a>
</g>
</g>
<!-- Node25&#45;&gt;Node26 -->
<g id="edge39" class="edge">
<title>Node25&#45;&gt;Node26</title>
<path fill="none" stroke="midnightblue" d="M991,-392.08C991,-385.01 991,-374.86 991,-365.99"/>
<polygon fill="midnightblue" stroke="midnightblue" points="994.5,-365.75 991,-355.75 987.5,-365.75 994.5,-365.75"/>
</g>
<!-- Node29&#45;&gt;Node14 -->
<g id="edge54" class="edge">
<title>Node29&#45;&gt;Node14</title>
<path fill="none" stroke="midnightblue" d="M202.88,-515.46C136.68,-497.04 0,-446.9 0,-347 0,-347 0,-347 0,-289 0,-235.67 64,-203.74 104.19,-188.95"/>
<polygon fill="midnightblue" stroke="midnightblue" points="105.57,-192.18 113.85,-185.56 103.25,-185.57 105.57,-192.18"/>
</g>
<!-- Node30 -->
<g id="node30" class="node">
<title>Node30</title>
<g id="a_node30"><a xlink:href="../../df/de6/cc_types_8h.html" target="_top" xlink:title=" ">
<polygon fill="none" stroke="black" points="104,-392.5 104,-411.5 168,-411.5 168,-392.5 104,-392.5"/>
<text text-anchor="middle" x="136" y="-399.5" font-family="Helvetica,sans-Serif" font-size="10.00">ccTypes.h</text>
</a>
</g>
</g>
<!-- Node29&#45;&gt;Node30 -->
<g id="edge45" class="edge">
<title>Node29&#45;&gt;Node30</title>
<path fill="none" stroke="midnightblue" d="M215.45,-515.41C198.85,-508.04 176.85,-495.92 163,-479 149.45,-462.45 142.46,-438.59 139.02,-422.04"/>
<polygon fill="midnightblue" stroke="midnightblue" points="142.42,-421.13 137.17,-411.93 135.53,-422.39 142.42,-421.13"/>
</g>
<!-- Node31 -->
<g id="node31" class="node">
<title>Node31</title>
<g id="a_node31"><a xlink:href="../../d5/d70/_c_c_texture2_d_8h.html" target="_top" xlink:title=" ">
<polygon fill="none" stroke="black" points="172,-454 172,-473 304,-473 304,-454 172,-454"/>
<text text-anchor="middle" x="238" y="-461" font-family="Helvetica,sans-Serif" font-size="10.00">textures/CCTexture2D.h</text>
</a>
</g>
</g>
<!-- Node29&#45;&gt;Node31 -->
<g id="edge49" class="edge">
<title>Node29&#45;&gt;Node31</title>
<path fill="none" stroke="midnightblue" d="M238,-515.48C238,-507.08 238,-493.98 238,-483.16"/>
<polygon fill="midnightblue" stroke="midnightblue" points="241.5,-483.01 238,-473.01 234.5,-483.01 241.5,-483.01"/>
</g>
<!-- Node30&#45;&gt;Node11 -->
<g id="edge47" class="edge">
<title>Node30&#45;&gt;Node11</title>
<path fill="none" stroke="midnightblue" d="M160.56,-392.44C186.52,-383.4 227.67,-369.06 256.8,-358.92"/>
<polygon fill="midnightblue" stroke="midnightblue" points="258.26,-362.11 266.55,-355.52 255.96,-355.5 258.26,-362.11"/>
</g>
<!-- Node30&#45;&gt;Node14 -->
<g id="edge46" class="edge">
<title>Node30&#45;&gt;Node14</title>
<path fill="none" stroke="midnightblue" d="M136,-392.3C136,-359.63 136,-243.87 136,-197.96"/>
<polygon fill="midnightblue" stroke="midnightblue" points="139.5,-197.88 136,-187.88 132.5,-197.88 139.5,-197.88"/>
</g>
<!-- Node30&#45;&gt;Node18 -->
<g id="edge48" class="edge">
<title>Node30&#45;&gt;Node18</title>
<path fill="none" stroke="midnightblue" d="M168.26,-397.05C182.56,-395.36 199.61,-393.46 215,-392 426.16,-371.98 680.24,-355.16 772.93,-349.26"/>
<polygon fill="midnightblue" stroke="midnightblue" points="773.16,-352.75 782.92,-348.62 772.71,-345.76 773.16,-352.75"/>
</g>
<!-- Node31&#45;&gt;Node11 -->
<g id="edge52" class="edge">
<title>Node31&#45;&gt;Node11</title>
<path fill="none" stroke="midnightblue" d="M230.78,-453.79C220.28,-440 203.27,-412.58 215,-392 223.41,-377.25 238.77,-366.84 253.48,-359.77"/>
<polygon fill="midnightblue" stroke="midnightblue" points="255.24,-362.83 262.98,-355.6 252.42,-356.42 255.24,-362.83"/>
</g>
<!-- Node31&#45;&gt;Node12 -->
<g id="edge51" class="edge">
<title>Node31&#45;&gt;Node12</title>
<path fill="none" stroke="midnightblue" d="M288.08,-453.99C317.74,-446.86 354.57,-434.16 381,-412 410.74,-387.07 394.54,-361.26 424,-336 444.84,-318.14 473.48,-307.01 497.44,-300.3"/>
<polygon fill="midnightblue" stroke="midnightblue" points="498.61,-303.61 507.39,-297.68 496.83,-296.84 498.61,-303.61"/>
</g>
<!-- Node31&#45;&gt;Node14 -->
<g id="edge50" class="edge">
<title>Node31&#45;&gt;Node14</title>
<path fill="none" stroke="midnightblue" d="M179.08,-453.95C120.08,-441.66 38,-412.76 38,-347 38,-347 38,-347 38,-289 38,-245.38 81.49,-211.06 110.53,-193.01"/>
<polygon fill="midnightblue" stroke="midnightblue" points="112.58,-195.86 119.38,-187.73 109,-189.85 112.58,-195.86"/>
</g>
<!-- Node31&#45;&gt;Node30 -->
<g id="edge53" class="edge">
<title>Node31&#45;&gt;Node30</title>
<path fill="none" stroke="midnightblue" d="M223.39,-453.98C206.65,-444.21 179,-428.08 159.28,-416.58"/>
<polygon fill="midnightblue" stroke="midnightblue" points="160.99,-413.52 150.59,-411.51 157.46,-419.57 160.99,-413.52"/>
</g>
</g>
</svg>
