<?xml version="1.0" encoding="UTF-8" standalone="no"?>
<!DOCTYPE svg PUBLIC "-//W3C//DTD SVG 1.1//EN"
 "http://www.w3.org/Graphics/SVG/1.1/DTD/svg11.dtd">
<!-- Generated by graphviz version 2.43.0 (0)
 -->
<!-- Title: /home/runner/work/cocos&#45;headers/cocos&#45;headers/cocos2dx/sprite_nodes/CCSpriteFrame.h Pages: 1 -->
<svg width="1424pt" height="676pt"
 viewBox="0.00 0.00 1424.00 676.00" xmlns="http://www.w3.org/2000/svg" xmlns:xlink="http://www.w3.org/1999/xlink">
<g id="graph0" class="graph" transform="scale(1 1) rotate(0) translate(4 672)">
<title>/home/runner/work/cocos&#45;headers/cocos&#45;headers/cocos2dx/sprite_nodes/CCSpriteFrame.h</title>
<!-- Node1 -->
<g id="node1" class="node">
<title>Node1</title>
<g id="a_node1"><a xlink:title=" ">
<polygon fill="#999999" stroke="#666666" points="456,-668 316,-668 316,-616 456,-616 456,-668"/>
<text text-anchor="start" x="324" y="-656" font-family="Helvetica,sans-Serif" font-size="10.00">/home/runner/work/cocos</text>
<text text-anchor="start" x="324" y="-645" font-family="Helvetica,sans-Serif" font-size="10.00">&#45;headers/cocos&#45;headers</text>
<text text-anchor="start" x="324" y="-634" font-family="Helvetica,sans-Serif" font-size="10.00">/cocos2dx/sprite_nodes</text>
<text text-anchor="middle" x="386" y="-623" font-family="Helvetica,sans-Serif" font-size="10.00">/CCSpriteFrame.h</text>
</a>
</g>
</g>
<!-- Node2 -->
<g id="node2" class="node">
<title>Node2</title>
<g id="a_node2"><a xlink:href="../../db/d7f/_c_c_node_8h.html" target="_top" xlink:title=" ">
<polygon fill="white" stroke="#666666" points="922.5,-580 797.5,-580 797.5,-561 922.5,-561 922.5,-580"/>
<text text-anchor="middle" x="860" y="-568" font-family="Helvetica,sans-Serif" font-size="10.00">base_nodes/CCNode.h</text>
</a>
</g>
</g>
<!-- Node1&#45;&gt;Node2 -->
<g id="edge1" class="edge">
<title>Node1&#45;&gt;Node2</title>
<path fill="none" stroke="#63b8ff" d="M456.2,-630.71C546.52,-617.46 702.41,-594.61 791.77,-581.5"/>
<polygon fill="#63b8ff" stroke="#63b8ff" points="792.41,-584.95 801.8,-580.03 791.4,-578.02 792.41,-584.95"/>
</g>
<!-- Node11 -->
<g id="node11" class="node">
<title>Node11</title>
<g id="a_node11"><a xlink:href="../../d6/d09/_c_c_geometry_8h.html" target="_top" xlink:title=" ">
<polygon fill="white" stroke="#666666" points="334,-349 248,-349 248,-330 334,-330 334,-349"/>
<text text-anchor="middle" x="291" y="-337" font-family="Helvetica,sans-Serif" font-size="10.00">CCGeometry.h</text>
</a>
</g>
</g>
<!-- Node1&#45;&gt;Node11 -->
<g id="edge57" class="edge">
<title>Node1&#45;&gt;Node11</title>
<path fill="none" stroke="#63b8ff" d="M324.58,-615.87C250.14,-581.22 130.28,-510.71 95,-404 92.35,-395.98 89.73,-391.6 95,-385 112.55,-363.01 185.76,-351.07 237.54,-345.24"/>
<polygon fill="#63b8ff" stroke="#63b8ff" points="238.02,-348.71 247.59,-344.15 237.27,-341.75 238.02,-348.71"/>
</g>
<!-- Node12 -->
<g id="node12" class="node">
<title>Node12</title>
<g id="a_node12"><a xlink:href="../../dd/d69/_c_c_object_8h.html" target="_top" xlink:title=" ">
<polygon fill="white" stroke="#666666" points="578.5,-294 507.5,-294 507.5,-275 578.5,-275 578.5,-294"/>
<text text-anchor="middle" x="543" y="-282" font-family="Helvetica,sans-Serif" font-size="10.00">CCObject.h</text>
</a>
</g>
</g>
<!-- Node1&#45;&gt;Node12 -->
<g id="edge56" class="edge">
<title>Node1&#45;&gt;Node12</title>
<path fill="none" stroke="#63b8ff" d="M403.6,-615.58C418.69,-591.28 438,-553.04 438,-516.5 438,-516.5 438,-516.5 438,-393.5 438,-349.18 484.01,-316.21 515.12,-298.99"/>
<polygon fill="#63b8ff" stroke="#63b8ff" points="517.04,-301.93 524.23,-294.15 513.75,-295.75 517.04,-301.93"/>
</g>
<!-- Node29 -->
<g id="node29" class="node">
<title>Node29</title>
<g id="a_node29"><a xlink:href="../../d8/d76/_c_c_protocols_8h.html" target="_top" xlink:title=" ">
<polygon fill="white" stroke="#666666" points="280,-525 196,-525 196,-506 280,-506 280,-525"/>
<text text-anchor="middle" x="238" y="-513" font-family="Helvetica,sans-Serif" font-size="10.00">CCProtocols.h</text>
</a>
</g>
</g>
<!-- Node1&#45;&gt;Node29 -->
<g id="edge55" class="edge">
<title>Node1&#45;&gt;Node29</title>
<path fill="none" stroke="#63b8ff" d="M356.05,-615.81C326.13,-590.64 281.1,-552.76 256.2,-531.81"/>
<polygon fill="#63b8ff" stroke="#63b8ff" points="258.19,-528.91 248.28,-525.15 253.68,-534.27 258.19,-528.91"/>
</g>
<!-- Node3 -->
<g id="node3" class="node">
<title>Node3</title>
<g id="a_node3"><a xlink:href="../../d9/dc8/cc_macros_8h.html" target="_top" xlink:title=" ">
<polygon fill="white" stroke="#666666" points="1401.5,-239 1330.5,-239 1330.5,-220 1401.5,-220 1401.5,-239"/>
<text text-anchor="middle" x="1366" y="-227" font-family="Helvetica,sans-Serif" font-size="10.00">ccMacros.h</text>
</a>
</g>
</g>
<!-- Node2&#45;&gt;Node3 -->
<g id="edge2" class="edge">
<title>Node2&#45;&gt;Node3</title>
<path fill="none" stroke="#63b8ff" d="M922.7,-569.77C1068.11,-568.71 1416,-555.75 1416,-456 1416,-456 1416,-456 1416,-338.5 1416,-303.56 1394.18,-267.66 1379.37,-247.31"/>
<polygon fill="#63b8ff" stroke="#63b8ff" points="1381.99,-244.97 1373.16,-239.11 1376.41,-249.2 1381.99,-244.97"/>
</g>
<!-- Node10 -->
<g id="node10" class="node">
<title>Node10</title>
<g id="a_node10"><a xlink:href="../../d3/d15/_c_c_affine_transform_8h.html" target="_top" xlink:title=" ">
<polygon fill="white" stroke="#666666" points="372,-404 224,-404 224,-385 372,-385 372,-404"/>
<text text-anchor="middle" x="298" y="-392" font-family="Helvetica,sans-Serif" font-size="10.00">cocoa/CCAffineTransform.h</text>
</a>
</g>
</g>
<!-- Node2&#45;&gt;Node10 -->
<g id="edge11" class="edge">
<title>Node2&#45;&gt;Node10</title>
<path fill="none" stroke="#63b8ff" d="M818.61,-560.96C780.31,-552.76 721.92,-539.51 672,-525 543.29,-487.59 393.58,-432 329.61,-407.66"/>
<polygon fill="#63b8ff" stroke="#63b8ff" points="330.68,-404.32 320.09,-404.03 328.19,-410.86 330.68,-404.32"/>
</g>
<!-- Node16 -->
<g id="node16" class="node">
<title>Node16</title>
<g id="a_node16"><a xlink:href="../../da/d35/_c_c_array_8h.html" target="_top" xlink:title=" ">
<polygon fill="white" stroke="#666666" points="945.5,-525 850.5,-525 850.5,-506 945.5,-506 945.5,-525"/>
<text text-anchor="middle" x="898" y="-513" font-family="Helvetica,sans-Serif" font-size="10.00">cocoa/CCArray.h</text>
</a>
</g>
</g>
<!-- Node2&#45;&gt;Node16 -->
<g id="edge21" class="edge">
<title>Node2&#45;&gt;Node16</title>
<path fill="none" stroke="#63b8ff" d="M866.27,-560.75C871.59,-553.34 879.36,-542.5 885.88,-533.41"/>
<polygon fill="#63b8ff" stroke="#63b8ff" points="888.86,-535.26 891.84,-525.09 883.17,-531.18 888.86,-535.26"/>
</g>
<!-- Node18 -->
<g id="node18" class="node">
<title>Node18</title>
<g id="a_node18"><a xlink:title=" ">
<polygon fill="#e0e0e0" stroke="#999999" points="835,-349 783,-349 783,-330 835,-330 835,-349"/>
<text text-anchor="middle" x="809" y="-337" font-family="Helvetica,sans-Serif" font-size="10.00">CCGL.h</text>
</a>
</g>
</g>
<!-- Node2&#45;&gt;Node18 -->
<g id="edge23" class="edge">
<title>Node2&#45;&gt;Node18</title>
<path fill="none" stroke="#63b8ff" d="M841.78,-560.94C812.74,-546.37 756.07,-514 725,-470 707.32,-444.96 709.49,-434.32 705,-404 703.76,-395.65 700.35,-392.05 705,-385 719.98,-362.3 749.19,-351.13 772.85,-345.67"/>
<polygon fill="#63b8ff" stroke="#63b8ff" points="773.84,-349.04 782.93,-343.6 772.43,-342.18 773.84,-349.04"/>
</g>
<!-- Node19 -->
<g id="node19" class="node">
<title>Node19</title>
<g id="a_node19"><a xlink:href="../../da/d2f/cc_g_l_state_cache_8h.html" target="_top" xlink:title=" ">
<polygon fill="white" stroke="#666666" points="1198,-404 1052,-404 1052,-385 1198,-385 1198,-404"/>
<text text-anchor="middle" x="1125" y="-392" font-family="Helvetica,sans-Serif" font-size="10.00">shaders/ccGLStateCache.h</text>
</a>
</g>
</g>
<!-- Node2&#45;&gt;Node19 -->
<g id="edge24" class="edge">
<title>Node2&#45;&gt;Node19</title>
<path fill="none" stroke="#63b8ff" d="M922.61,-564.37C980.97,-558.35 1062.44,-546.35 1086,-525 1117.65,-496.31 1124.01,-442.99 1125.04,-414.54"/>
<polygon fill="#63b8ff" stroke="#63b8ff" points="1128.55,-414.39 1125.22,-404.33 1121.55,-414.27 1128.55,-414.39"/>
</g>
<!-- Node20 -->
<g id="node20" class="node">
<title>Node20</title>
<g id="a_node20"><a xlink:href="../../de/d32/_c_c_g_l_program_8h.html" target="_top" xlink:title=" ">
<polygon fill="white" stroke="#666666" points="1350,-404 1216,-404 1216,-385 1350,-385 1350,-404"/>
<text text-anchor="middle" x="1283" y="-392" font-family="Helvetica,sans-Serif" font-size="10.00">shaders/CCGLProgram.h</text>
</a>
</g>
</g>
<!-- Node2&#45;&gt;Node20 -->
<g id="edge27" class="edge">
<title>Node2&#45;&gt;Node20</title>
<path fill="none" stroke="#63b8ff" d="M922.64,-566.08C973.97,-561.45 1047.56,-550.57 1107,-525 1173.25,-496.5 1238.17,-438.9 1267.2,-411.15"/>
<polygon fill="#63b8ff" stroke="#63b8ff" points="1269.66,-413.64 1274.4,-404.16 1264.79,-408.61 1269.66,-413.64"/>
</g>
<!-- Node21 -->
<g id="node21" class="node">
<title>Node21</title>
<g id="a_node21"><a xlink:title=" ">
<polygon fill="#e0e0e0" stroke="#999999" points="1076.5,-525 963.5,-525 963.5,-506 1076.5,-506 1076.5,-525"/>
<text text-anchor="middle" x="1020" y="-513" font-family="Helvetica,sans-Serif" font-size="10.00">kazmath/kazmath.h</text>
</a>
</g>
</g>
<!-- Node2&#45;&gt;Node21 -->
<g id="edge31" class="edge">
<title>Node2&#45;&gt;Node21</title>
<path fill="none" stroke="#63b8ff" d="M885.71,-560.98C912.45,-552.13 954.53,-538.19 984.45,-528.28"/>
<polygon fill="#63b8ff" stroke="#63b8ff" points="985.7,-531.55 994.09,-525.08 983.5,-524.9 985.7,-531.55"/>
</g>
<!-- Node22 -->
<g id="node22" class="node">
<title>Node22</title>
<g id="a_node22"><a xlink:href="../../dc/dbc/_c_c_script_support_8h.html" target="_top" xlink:title=" ">
<polygon fill="white" stroke="#666666" points="910,-464.5 734,-464.5 734,-445.5 910,-445.5 910,-464.5"/>
<text text-anchor="middle" x="822" y="-452.5" font-family="Helvetica,sans-Serif" font-size="10.00">script_support/CCScriptSupport.h</text>
</a>
</g>
</g>
<!-- Node2&#45;&gt;Node22 -->
<g id="edge32" class="edge">
<title>Node2&#45;&gt;Node22</title>
<path fill="none" stroke="#63b8ff" d="M856.14,-560.74C852.3,-551.83 846.36,-537.6 842,-525 836.14,-508.07 830.56,-488.42 826.79,-474.43"/>
<polygon fill="#63b8ff" stroke="#63b8ff" points="830.13,-473.36 824.19,-464.59 823.36,-475.15 830.13,-473.36"/>
</g>
<!-- Node2&#45;&gt;Node29 -->
<g id="edge44" class="edge">
<title>Node2&#45;&gt;Node29</title>
<path fill="none" stroke="#63b8ff" d="M797.22,-564.15C674.44,-553.69 404.54,-530.69 290.5,-520.97"/>
<polygon fill="#63b8ff" stroke="#63b8ff" points="290.55,-517.47 280.29,-520.1 289.96,-524.44 290.55,-517.47"/>
</g>
<!-- Node4 -->
<g id="node4" class="node">
<title>Node4</title>
<g id="a_node4"><a xlink:href="../../d5/d22/_c_c_common_8h.html" target="_top" xlink:title=" ">
<polygon fill="white" stroke="#666666" points="1287,-184 1159,-184 1159,-165 1287,-165 1287,-184"/>
<text text-anchor="middle" x="1223" y="-172" font-family="Helvetica,sans-Serif" font-size="10.00">platform/CCCommon.h</text>
</a>
</g>
</g>
<!-- Node3&#45;&gt;Node4 -->
<g id="edge3" class="edge">
<title>Node3&#45;&gt;Node4</title>
<path fill="none" stroke="#63b8ff" d="M1343.02,-219.98C1319.5,-211.27 1282.71,-197.63 1256.06,-187.75"/>
<polygon fill="#63b8ff" stroke="#63b8ff" points="1256.99,-184.36 1246.39,-184.17 1254.55,-190.93 1256.99,-184.36"/>
</g>
<!-- Node6 -->
<g id="node6" class="node">
<title>Node6</title>
<g id="a_node6"><a xlink:href="../../db/d9f/cc_config_8h.html" target="_top" xlink:title="cocos2d (cc) configuration file">
<polygon fill="white" stroke="#666666" points="944.5,-74 877.5,-74 877.5,-55 944.5,-55 944.5,-74"/>
<text text-anchor="middle" x="911" y="-62" font-family="Helvetica,sans-Serif" font-size="10.00">ccConfig.h</text>
</a>
</g>
</g>
<!-- Node3&#45;&gt;Node6 -->
<g id="edge10" class="edge">
<title>Node3&#45;&gt;Node6</title>
<path fill="none" stroke="#63b8ff" d="M1371.23,-219.61C1378.33,-206.23 1388.77,-180.79 1376,-165 1323.12,-99.61 1059.94,-75.28 954.65,-68.07"/>
<polygon fill="#63b8ff" stroke="#63b8ff" points="954.88,-64.58 944.67,-67.41 954.41,-71.57 954.88,-64.58"/>
</g>
<!-- Node9 -->
<g id="node9" class="node">
<title>Node9</title>
<g id="a_node9"><a xlink:title=" ">
<polygon fill="#e0e0e0" stroke="#999999" points="1367,-184 1305,-184 1305,-165 1367,-165 1367,-184"/>
<text text-anchor="middle" x="1336" y="-172" font-family="Helvetica,sans-Serif" font-size="10.00">CCStdC.h</text>
</a>
</g>
</g>
<!-- Node3&#45;&gt;Node9 -->
<g id="edge9" class="edge">
<title>Node3&#45;&gt;Node9</title>
<path fill="none" stroke="#63b8ff" d="M1361.05,-219.75C1356.94,-212.49 1350.97,-201.95 1345.9,-192.98"/>
<polygon fill="#63b8ff" stroke="#63b8ff" points="1348.83,-191.07 1340.86,-184.09 1342.74,-194.52 1348.83,-191.07"/>
</g>
<!-- Node5 -->
<g id="node5" class="node">
<title>Node5</title>
<g id="a_node5"><a xlink:href="../../d3/d41/_c_c_platform_macros_8h.html" target="_top" xlink:title=" ">
<polygon fill="white" stroke="#666666" points="864,-129 748,-129 748,-110 864,-110 864,-129"/>
<text text-anchor="middle" x="806" y="-117" font-family="Helvetica,sans-Serif" font-size="10.00">CCPlatformMacros.h</text>
</a>
</g>
</g>
<!-- Node4&#45;&gt;Node5 -->
<g id="edge4" class="edge">
<title>Node4&#45;&gt;Node5</title>
<path fill="none" stroke="#63b8ff" d="M1158.76,-165.33C1081.79,-155.55 953.4,-139.23 874.57,-129.21"/>
<polygon fill="#63b8ff" stroke="#63b8ff" points="874.62,-125.69 864.26,-127.9 873.74,-132.64 874.62,-125.69"/>
</g>
<!-- Node5&#45;&gt;Node6 -->
<g id="edge5" class="edge">
<title>Node5&#45;&gt;Node6</title>
<path fill="none" stroke="#63b8ff" d="M822.87,-109.98C839.61,-101.54 865.5,-88.47 884.89,-78.68"/>
<polygon fill="#63b8ff" stroke="#63b8ff" points="886.47,-81.8 893.82,-74.17 883.32,-75.55 886.47,-81.8"/>
</g>
<!-- Node7 -->
<g id="node7" class="node">
<title>Node7</title>
<g id="a_node7"><a xlink:href="../../dd/d96/_c_c_platform_config_8h.html" target="_top" xlink:title=" ">
<polygon fill="white" stroke="#666666" points="958.5,-19 801.5,-19 801.5,0 958.5,0 958.5,-19"/>
<text text-anchor="middle" x="880" y="-7" font-family="Helvetica,sans-Serif" font-size="10.00">platform/CCPlatformConfig.h</text>
</a>
</g>
</g>
<!-- Node5&#45;&gt;Node7 -->
<g id="edge7" class="edge">
<title>Node5&#45;&gt;Node7</title>
<path fill="none" stroke="#63b8ff" d="M812.06,-109.66C824.31,-91.77 852.25,-51 868.22,-27.69"/>
<polygon fill="#63b8ff" stroke="#63b8ff" points="871.3,-29.39 874.07,-19.16 865.53,-25.43 871.3,-29.39"/>
</g>
<!-- Node8 -->
<g id="node8" class="node">
<title>Node8</title>
<g id="a_node8"><a xlink:title=" ">
<polygon fill="#e0e0e0" stroke="#999999" points="820.5,-74 707.5,-74 707.5,-55 820.5,-55 820.5,-74"/>
<text text-anchor="middle" x="764" y="-62" font-family="Helvetica,sans-Serif" font-size="10.00">CCPlatformDefine.h</text>
</a>
</g>
</g>
<!-- Node5&#45;&gt;Node8 -->
<g id="edge8" class="edge">
<title>Node5&#45;&gt;Node8</title>
<path fill="none" stroke="#63b8ff" d="M799.06,-109.75C793.13,-102.26 784.43,-91.28 777.18,-82.13"/>
<polygon fill="#63b8ff" stroke="#63b8ff" points="779.76,-79.75 770.81,-74.09 774.27,-84.1 779.76,-79.75"/>
</g>
<!-- Node6&#45;&gt;Node7 -->
<g id="edge6" class="edge">
<title>Node6&#45;&gt;Node7</title>
<path fill="none" stroke="#63b8ff" d="M905.88,-54.75C901.64,-47.49 895.47,-36.95 890.22,-27.98"/>
<polygon fill="#63b8ff" stroke="#63b8ff" points="893.09,-25.95 885.02,-19.09 887.05,-29.49 893.09,-25.95"/>
</g>
<!-- Node10&#45;&gt;Node5 -->
<g id="edge20" class="edge">
<title>Node10&#45;&gt;Node5</title>
<path fill="none" stroke="#63b8ff" d="M306.91,-384.91C341.47,-351.61 465.86,-232.37 487,-220 569.51,-171.71 677.98,-144.36 744.79,-131"/>
<polygon fill="#63b8ff" stroke="#63b8ff" points="745.6,-134.41 754.75,-129.05 744.26,-127.54 745.6,-134.41"/>
</g>
<!-- Node10&#45;&gt;Node11 -->
<g id="edge12" class="edge">
<title>Node10&#45;&gt;Node11</title>
<path fill="none" stroke="#63b8ff" d="M296.84,-384.75C295.93,-377.8 294.61,-367.85 293.46,-359.13"/>
<polygon fill="#63b8ff" stroke="#63b8ff" points="296.91,-358.54 292.13,-349.09 289.97,-359.46 296.91,-358.54"/>
</g>
<!-- Node11&#45;&gt;Node5 -->
<g id="edge13" class="edge">
<title>Node11&#45;&gt;Node5</title>
<path fill="none" stroke="#63b8ff" d="M297.97,-329.78C325.03,-296.03 422.6,-175.3 442,-165 491.74,-138.59 646.6,-127.43 737.51,-123.05"/>
<polygon fill="#63b8ff" stroke="#63b8ff" points="737.9,-126.54 747.73,-122.58 737.58,-119.55 737.9,-126.54"/>
</g>
<!-- Node11&#45;&gt;Node12 -->
<g id="edge14" class="edge">
<title>Node11&#45;&gt;Node12</title>
<path fill="none" stroke="#63b8ff" d="M331.49,-329.98C376.85,-320.44 450.22,-305.01 497.53,-295.06"/>
<polygon fill="#63b8ff" stroke="#63b8ff" points="498.43,-298.45 507.5,-292.97 496.99,-291.6 498.43,-298.45"/>
</g>
<!-- Node15 -->
<g id="node15" class="node">
<title>Node15</title>
<g id="a_node15"><a xlink:title=" ">
<polygon fill="#e0e0e0" stroke="#999999" points="316.5,-294 265.5,-294 265.5,-275 316.5,-275 316.5,-294"/>
<text text-anchor="middle" x="291" y="-282" font-family="Helvetica,sans-Serif" font-size="10.00">math.h</text>
</a>
</g>
</g>
<!-- Node11&#45;&gt;Node15 -->
<g id="edge19" class="edge">
<title>Node11&#45;&gt;Node15</title>
<path fill="none" stroke="#63b8ff" d="M291,-329.75C291,-322.8 291,-312.85 291,-304.13"/>
<polygon fill="#63b8ff" stroke="#63b8ff" points="294.5,-304.09 291,-294.09 287.5,-304.09 294.5,-304.09"/>
</g>
<!-- Node12&#45;&gt;Node3 -->
<g id="edge18" class="edge">
<title>Node12&#45;&gt;Node3</title>
<path fill="none" stroke="#63b8ff" d="M578.63,-281.21C710.75,-272.7 1172.65,-242.95 1320.27,-233.45"/>
<polygon fill="#63b8ff" stroke="#63b8ff" points="1320.59,-236.93 1330.34,-232.8 1320.14,-229.95 1320.59,-236.93"/>
</g>
<!-- Node13 -->
<g id="node13" class="node">
<title>Node13</title>
<g id="a_node13"><a xlink:href="../../d9/d2d/_c_c_data_visitor_8h.html" target="_top" xlink:title=" ">
<polygon fill="white" stroke="#666666" points="589.5,-239 496.5,-239 496.5,-220 589.5,-220 589.5,-239"/>
<text text-anchor="middle" x="543" y="-227" font-family="Helvetica,sans-Serif" font-size="10.00">CCDataVisitor.h</text>
</a>
</g>
</g>
<!-- Node12&#45;&gt;Node13 -->
<g id="edge15" class="edge">
<title>Node12&#45;&gt;Node13</title>
<path fill="none" stroke="#63b8ff" d="M543,-274.75C543,-267.8 543,-257.85 543,-249.13"/>
<polygon fill="#63b8ff" stroke="#63b8ff" points="546.5,-249.09 543,-239.09 539.5,-249.09 546.5,-249.09"/>
</g>
<!-- Node13&#45;&gt;Node5 -->
<g id="edge16" class="edge">
<title>Node13&#45;&gt;Node5</title>
<path fill="none" stroke="#63b8ff" d="M564.08,-219.84C610.55,-200.76 721.96,-155.01 775.83,-132.89"/>
<polygon fill="#63b8ff" stroke="#63b8ff" points="777.27,-136.08 785.19,-129.05 774.61,-129.61 777.27,-136.08"/>
</g>
<!-- Node14 -->
<g id="node14" class="node">
<title>Node14</title>
<g id="a_node14"><a xlink:title=" ">
<polygon fill="#e0e0e0" stroke="#999999" points="158,-184 114,-184 114,-165 158,-165 158,-184"/>
<text text-anchor="middle" x="136" y="-172" font-family="Helvetica,sans-Serif" font-size="10.00">string</text>
</a>
</g>
</g>
<!-- Node13&#45;&gt;Node14 -->
<g id="edge17" class="edge">
<title>Node13&#45;&gt;Node14</title>
<path fill="none" stroke="#63b8ff" d="M496.31,-222.42C412.9,-211.56 240.29,-189.08 168.47,-179.73"/>
<polygon fill="#63b8ff" stroke="#63b8ff" points="168.59,-176.21 158.23,-178.39 167.69,-183.16 168.59,-176.21"/>
</g>
<!-- Node17 -->
<g id="node17" class="node">
<title>Node17</title>
<g id="a_node17"><a xlink:title=" ">
<polygon fill="#e0e0e0" stroke="#999999" points="1048,-470 928,-470 928,-440 1048,-440 1048,-470"/>
<text text-anchor="start" x="936" y="-458" font-family="Helvetica,sans-Serif" font-size="10.00">support/data_support</text>
<text text-anchor="middle" x="988" y="-447" font-family="Helvetica,sans-Serif" font-size="10.00">/ccCArray.h</text>
</a>
</g>
</g>
<!-- Node16&#45;&gt;Node17 -->
<g id="edge22" class="edge">
<title>Node16&#45;&gt;Node17</title>
<path fill="none" stroke="#63b8ff" d="M911.28,-505.87C923.49,-497.93 942.04,-485.87 957.85,-475.6"/>
<polygon fill="#63b8ff" stroke="#63b8ff" points="959.81,-478.5 966.29,-470.11 955.99,-472.63 959.81,-478.5"/>
</g>
<!-- Node19&#45;&gt;Node5 -->
<g id="edge26" class="edge">
<title>Node19&#45;&gt;Node5</title>
<path fill="none" stroke="#63b8ff" d="M1116.59,-384.8C1100.73,-367.44 1068,-326.63 1068,-285.5 1068,-285.5 1068,-285.5 1068,-228.5 1068,-144.69 951.99,-124.6 874.36,-120.53"/>
<polygon fill="#63b8ff" stroke="#63b8ff" points="874.29,-117.03 864.15,-120.08 873.98,-124.02 874.29,-117.03"/>
</g>
<!-- Node19&#45;&gt;Node18 -->
<g id="edge25" class="edge">
<title>Node19&#45;&gt;Node18</title>
<path fill="none" stroke="#63b8ff" d="M1074.23,-384.98C1010.14,-374.24 901.5,-356.01 845.21,-346.57"/>
<polygon fill="#63b8ff" stroke="#63b8ff" points="845.45,-343.06 835.01,-344.86 844.29,-349.97 845.45,-343.06"/>
</g>
<!-- Node20&#45;&gt;Node3 -->
<g id="edge28" class="edge">
<title>Node20&#45;&gt;Node3</title>
<path fill="none" stroke="#63b8ff" d="M1287.46,-384.74C1300.58,-358.98 1339.2,-283.13 1356.92,-248.33"/>
<polygon fill="#63b8ff" stroke="#63b8ff" points="1360.1,-249.81 1361.52,-239.31 1353.86,-246.63 1360.1,-249.81"/>
</g>
<!-- Node20&#45;&gt;Node12 -->
<g id="edge29" class="edge">
<title>Node20&#45;&gt;Node12</title>
<path fill="none" stroke="#63b8ff" d="M1253.25,-384.98C1204.22,-371.27 1103.2,-344.4 1016,-330 860.35,-304.3 673.24,-292.16 588.57,-287.67"/>
<polygon fill="#63b8ff" stroke="#63b8ff" points="588.69,-284.17 578.52,-287.14 588.33,-291.16 588.69,-284.17"/>
</g>
<!-- Node20&#45;&gt;Node18 -->
<g id="edge30" class="edge">
<title>Node20&#45;&gt;Node18</title>
<path fill="none" stroke="#63b8ff" d="M1215.84,-385.99C1114.04,-374.61 924.16,-353.38 845.05,-344.53"/>
<polygon fill="#63b8ff" stroke="#63b8ff" points="845.41,-341.05 835.08,-343.42 844.63,-348.01 845.41,-341.05"/>
</g>
<!-- Node22&#45;&gt;Node4 -->
<g id="edge33" class="edge">
<title>Node22&#45;&gt;Node4</title>
<path fill="none" stroke="#63b8ff" d="M876.81,-445.49C890.57,-443.52 905.31,-441.55 919,-440 967.74,-434.49 1325.76,-440.07 1359,-404 1423.47,-334.04 1296.01,-228.64 1243.85,-190.2"/>
<polygon fill="#63b8ff" stroke="#63b8ff" points="1245.76,-187.26 1235.61,-184.22 1241.65,-192.92 1245.76,-187.26"/>
</g>
<!-- Node22&#45;&gt;Node14 -->
<g id="edge42" class="edge">
<title>Node22&#45;&gt;Node14</title>
<path fill="none" stroke="#63b8ff" d="M800.72,-445.36C701.39,-405.04 283.35,-235.32 166.47,-187.87"/>
<polygon fill="#63b8ff" stroke="#63b8ff" points="167.62,-184.56 157.03,-184.04 164.98,-191.04 167.62,-184.56"/>
</g>
<!-- Node23 -->
<g id="node23" class="node">
<title>Node23</title>
<g id="a_node23"><a xlink:title=" ">
<polygon fill="#e0e0e0" stroke="#999999" points="824,-404 714,-404 714,-385 824,-385 824,-404"/>
<text text-anchor="middle" x="769" y="-392" font-family="Helvetica,sans-Serif" font-size="10.00">CCAccelerometer.h</text>
</a>
</g>
</g>
<!-- Node22&#45;&gt;Node23 -->
<g id="edge34" class="edge">
<title>Node22&#45;&gt;Node23</title>
<path fill="none" stroke="#63b8ff" d="M814.18,-445.37C806.19,-436.55 793.61,-422.66 783.74,-411.77"/>
<polygon fill="#63b8ff" stroke="#63b8ff" points="786.16,-409.23 776.85,-404.17 780.97,-413.93 786.16,-409.23"/>
</g>
<!-- Node24 -->
<g id="node24" class="node">
<title>Node24</title>
<g id="a_node24"><a xlink:href="../../d3/dff/_c_c_touch_8h.html" target="_top" xlink:title=" ">
<polygon fill="white" stroke="#666666" points="619.5,-404 466.5,-404 466.5,-385 619.5,-385 619.5,-404"/>
<text text-anchor="middle" x="543" y="-392" font-family="Helvetica,sans-Serif" font-size="10.00">touch_dispatcher/CCTouch.h</text>
</a>
</g>
</g>
<!-- Node22&#45;&gt;Node24 -->
<g id="edge35" class="edge">
<title>Node22&#45;&gt;Node24</title>
<path fill="none" stroke="#63b8ff" d="M781.43,-445.49C731.74,-435.07 647.54,-417.42 593.64,-406.12"/>
<polygon fill="#63b8ff" stroke="#63b8ff" points="594.12,-402.64 583.62,-404.02 592.69,-409.49 594.12,-402.64"/>
</g>
<!-- Node25 -->
<g id="node25" class="node">
<title>Node25</title>
<g id="a_node25"><a xlink:href="../../da/ddc/_c_c_set_8h.html" target="_top" xlink:title=" ">
<polygon fill="white" stroke="#666666" points="1034,-404 948,-404 948,-385 1034,-385 1034,-404"/>
<text text-anchor="middle" x="991" y="-392" font-family="Helvetica,sans-Serif" font-size="10.00">cocoa/CCSet.h</text>
</a>
</g>
</g>
<!-- Node22&#45;&gt;Node25 -->
<g id="edge38" class="edge">
<title>Node22&#45;&gt;Node25</title>
<path fill="none" stroke="#63b8ff" d="M846.57,-445.49C875.61,-435.44 924.1,-418.66 956.8,-407.34"/>
<polygon fill="#63b8ff" stroke="#63b8ff" points="958.09,-410.6 966.4,-404.02 955.8,-403.98 958.09,-410.6"/>
</g>
<!-- Node27 -->
<g id="node27" class="node">
<title>Node27</title>
<g id="a_node27"><a xlink:title=" ">
<polygon fill="#e0e0e0" stroke="#999999" points="880,-404 842,-404 842,-385 880,-385 880,-404"/>
<text text-anchor="middle" x="861" y="-392" font-family="Helvetica,sans-Serif" font-size="10.00">map</text>
</a>
</g>
</g>
<!-- Node22&#45;&gt;Node27 -->
<g id="edge41" class="edge">
<title>Node22&#45;&gt;Node27</title>
<path fill="none" stroke="#63b8ff" d="M827.75,-445.37C833.46,-436.81 842.35,-423.47 849.51,-412.74"/>
<polygon fill="#63b8ff" stroke="#63b8ff" points="852.59,-414.43 855.22,-404.17 846.76,-410.55 852.59,-414.43"/>
</g>
<!-- Node28 -->
<g id="node28" class="node">
<title>Node28</title>
<g id="a_node28"><a xlink:title=" ">
<polygon fill="#e0e0e0" stroke="#999999" points="930,-404 898,-404 898,-385 930,-385 930,-404"/>
<text text-anchor="middle" x="914" y="-392" font-family="Helvetica,sans-Serif" font-size="10.00">list</text>
</a>
</g>
</g>
<!-- Node22&#45;&gt;Node28 -->
<g id="edge43" class="edge">
<title>Node22&#45;&gt;Node28</title>
<path fill="none" stroke="#63b8ff" d="M835.57,-445.37C850.39,-435.95 874.33,-420.73 891.86,-409.58"/>
<polygon fill="#63b8ff" stroke="#63b8ff" points="893.81,-412.49 900.37,-404.17 890.05,-406.58 893.81,-412.49"/>
</g>
<!-- Node24&#45;&gt;Node11 -->
<g id="edge37" class="edge">
<title>Node24&#45;&gt;Node11</title>
<path fill="none" stroke="#63b8ff" d="M502.51,-384.98C458.83,-375.8 389.19,-361.15 341.85,-351.19"/>
<polygon fill="#63b8ff" stroke="#63b8ff" points="342.31,-347.72 331.81,-349.08 340.87,-354.57 342.31,-347.72"/>
</g>
<!-- Node24&#45;&gt;Node12 -->
<g id="edge36" class="edge">
<title>Node24&#45;&gt;Node12</title>
<path fill="none" stroke="#63b8ff" d="M543,-384.66C543,-367.17 543,-327.8 543,-304.27"/>
<polygon fill="#63b8ff" stroke="#63b8ff" points="546.5,-304.16 543,-294.16 539.5,-304.16 546.5,-304.16"/>
</g>
<!-- Node25&#45;&gt;Node12 -->
<g id="edge40" class="edge">
<title>Node25&#45;&gt;Node12</title>
<path fill="none" stroke="#63b8ff" d="M947.99,-385.55C904.08,-377.23 834.02,-363.39 774,-349 705.75,-332.64 627.11,-310.26 581.43,-296.9"/>
<polygon fill="#63b8ff" stroke="#63b8ff" points="582.23,-293.49 571.65,-294.03 580.26,-300.21 582.23,-293.49"/>
</g>
<!-- Node26 -->
<g id="node26" class="node">
<title>Node26</title>
<g id="a_node26"><a xlink:title=" ">
<polygon fill="#e0e0e0" stroke="#999999" points="1007,-349 975,-349 975,-330 1007,-330 1007,-349"/>
<text text-anchor="middle" x="991" y="-337" font-family="Helvetica,sans-Serif" font-size="10.00">set</text>
</a>
</g>
</g>
<!-- Node25&#45;&gt;Node26 -->
<g id="edge39" class="edge">
<title>Node25&#45;&gt;Node26</title>
<path fill="none" stroke="#63b8ff" d="M991,-384.75C991,-377.8 991,-367.85 991,-359.13"/>
<polygon fill="#63b8ff" stroke="#63b8ff" points="994.5,-359.09 991,-349.09 987.5,-359.09 994.5,-359.09"/>
</g>
<!-- Node29&#45;&gt;Node14 -->
<g id="edge54" class="edge">
<title>Node29&#45;&gt;Node14</title>
<path fill="none" stroke="#63b8ff" d="M201.59,-505.95C134.92,-487.89 0,-439.16 0,-340.5 0,-340.5 0,-340.5 0,-283.5 0,-230.55 64,-199.42 104.19,-185.1"/>
<polygon fill="#63b8ff" stroke="#63b8ff" points="105.51,-188.35 113.85,-181.81 103.25,-181.72 105.51,-188.35"/>
</g>
<!-- Node30 -->
<g id="node30" class="node">
<title>Node30</title>
<g id="a_node30"><a xlink:href="../../df/de6/cc_types_8h.html" target="_top" xlink:title=" ">
<polygon fill="white" stroke="#666666" points="168,-404 104,-404 104,-385 168,-385 168,-404"/>
<text text-anchor="middle" x="136" y="-392" font-family="Helvetica,sans-Serif" font-size="10.00">ccTypes.h</text>
</a>
</g>
</g>
<!-- Node29&#45;&gt;Node30 -->
<g id="edge45" class="edge">
<title>Node29&#45;&gt;Node30</title>
<path fill="none" stroke="#63b8ff" d="M215.13,-505.89C198.59,-498.61 176.81,-486.68 163,-470 149.6,-453.81 142.58,-430.42 139.09,-414.18"/>
<polygon fill="#63b8ff" stroke="#63b8ff" points="142.51,-413.43 137.21,-404.26 135.64,-414.74 142.51,-413.43"/>
</g>
<!-- Node31 -->
<g id="node31" class="node">
<title>Node31</title>
<g id="a_node31"><a xlink:href="../../d5/d70/_c_c_texture2_d_8h.html" target="_top" xlink:title=" ">
<polygon fill="white" stroke="#666666" points="304,-464.5 172,-464.5 172,-445.5 304,-445.5 304,-464.5"/>
<text text-anchor="middle" x="238" y="-452.5" font-family="Helvetica,sans-Serif" font-size="10.00">textures/CCTexture2D.h</text>
</a>
</g>
</g>
<!-- Node29&#45;&gt;Node31 -->
<g id="edge49" class="edge">
<title>Node29&#45;&gt;Node31</title>
<path fill="none" stroke="#63b8ff" d="M238,-505.87C238,-497.75 238,-485.31 238,-474.89"/>
<polygon fill="#63b8ff" stroke="#63b8ff" points="241.5,-474.67 238,-464.67 234.5,-474.67 241.5,-474.67"/>
</g>
<!-- Node30&#45;&gt;Node11 -->
<g id="edge47" class="edge">
<title>Node30&#45;&gt;Node11</title>
<path fill="none" stroke="#63b8ff" d="M160.9,-384.98C186.7,-376.16 227.22,-362.31 256.18,-352.41"/>
<polygon fill="#63b8ff" stroke="#63b8ff" points="257.57,-355.63 265.9,-349.08 255.31,-349.01 257.57,-355.63"/>
</g>
<!-- Node30&#45;&gt;Node14 -->
<g id="edge46" class="edge">
<title>Node30&#45;&gt;Node14</title>
<path fill="none" stroke="#63b8ff" d="M136,-384.95C136,-352.95 136,-239.68 136,-194.4"/>
<polygon fill="#63b8ff" stroke="#63b8ff" points="139.5,-194.22 136,-184.22 132.5,-194.22 139.5,-194.22"/>
</g>
<!-- Node30&#45;&gt;Node18 -->
<g id="edge48" class="edge">
<title>Node30&#45;&gt;Node18</title>
<path fill="none" stroke="#63b8ff" d="M168.26,-389.79C182.57,-388.21 199.61,-386.4 215,-385 426.22,-365.73 680.26,-348.77 772.94,-342.79"/>
<polygon fill="#63b8ff" stroke="#63b8ff" points="773.17,-346.29 782.92,-342.15 772.72,-339.3 773.17,-346.29"/>
</g>
<!-- Node31&#45;&gt;Node11 -->
<g id="edge52" class="edge">
<title>Node31&#45;&gt;Node11</title>
<path fill="none" stroke="#63b8ff" d="M230.82,-445.48C220.38,-431.98 203.44,-405.16 215,-385 223.36,-370.42 238.55,-360.16 253.17,-353.19"/>
<polygon fill="#63b8ff" stroke="#63b8ff" points="254.84,-356.28 262.61,-349.08 252.05,-349.86 254.84,-356.28"/>
</g>
<!-- Node31&#45;&gt;Node12 -->
<g id="edge51" class="edge">
<title>Node31&#45;&gt;Node12</title>
<path fill="none" stroke="#63b8ff" d="M288.33,-445.49C317.89,-438.42 354.54,-425.86 381,-404 410.33,-379.78 394.93,-354.54 424,-330 444.94,-312.32 473.59,-301.32 497.53,-294.68"/>
<polygon fill="#63b8ff" stroke="#63b8ff" points="498.66,-298 507.46,-292.09 496.9,-291.23 498.66,-298"/>
</g>
<!-- Node31&#45;&gt;Node14 -->
<g id="edge50" class="edge">
<title>Node31&#45;&gt;Node14</title>
<path fill="none" stroke="#63b8ff" d="M176.91,-445.49C118.09,-433.45 38,-405.18 38,-340.5 38,-340.5 38,-340.5 38,-283.5 38,-240.55 81.03,-207.1 110.07,-189.42"/>
<polygon fill="#63b8ff" stroke="#63b8ff" points="112.06,-192.3 118.93,-184.24 108.53,-186.26 112.06,-192.3"/>
</g>
<!-- Node31&#45;&gt;Node30 -->
<g id="edge53" class="edge">
<title>Node31&#45;&gt;Node30</title>
<path fill="none" stroke="#63b8ff" d="M222.95,-445.37C206.38,-435.86 179.5,-420.45 160.01,-409.27"/>
<polygon fill="#63b8ff" stroke="#63b8ff" points="161.53,-406.11 151.11,-404.17 158.05,-412.18 161.53,-406.11"/>
</g>
</g>
</svg>
