<?xml version="1.0" encoding="UTF-8" standalone="no"?>
<!DOCTYPE svg PUBLIC "-//W3C//DTD SVG 1.1//EN"
 "http://www.w3.org/Graphics/SVG/1.1/DTD/svg11.dtd">
<!-- Generated by graphviz version 2.43.0 (0)
 -->
<!-- Title: CCTMXMapInfo Pages: 1 -->
<svg width="190pt" height="137pt"
 viewBox="0.00 0.00 190.00 137.00" xmlns="http://www.w3.org/2000/svg" xmlns:xlink="http://www.w3.org/1999/xlink">
<g id="graph0" class="graph" transform="scale(1 1) rotate(0) translate(4 133)">
<title>CCTMXMapInfo</title>
<!-- Node1 -->
<g id="node1" class="node">
<title>Node1</title>
<g id="a_node1"><a xlink:title="CCTMXMapInfo contains the information about the map like:">
<polygon fill="#999999" stroke="#666666" points="130,-19 38,-19 38,0 130,0 130,-19"/>
<text text-anchor="middle" x="84" y="-7" font-family="Helvetica,sans-Serif" font-size="10.00">CCTMXMapInfo</text>
</a>
</g>
</g>
<!-- Node2 -->
<g id="node2" class="node">
<title>Node2</title>
<g id="a_node2"><a xlink:href="../../d3/dbf/classcocos2d_1_1_c_c_object.html" target="_top" xlink:title="NA.">
<polygon fill="white" stroke="#666666" points="66,-74 4,-74 4,-55 66,-55 66,-74"/>
<text text-anchor="middle" x="35" y="-62" font-family="Helvetica,sans-Serif" font-size="10.00">CCObject</text>
</a>
</g>
</g>
<!-- Node2&#45;&gt;Node1 -->
<g id="edge1" class="edge">
<title>Node2&#45;&gt;Node1</title>
<path fill="none" stroke="#63b8ff" d="M50.03,-47.24C58.62,-37.95 69.04,-26.68 76.06,-19.09"/>
<polygon fill="#63b8ff" stroke="#63b8ff" points="47.31,-45.03 43.09,-54.75 52.45,-49.78 47.31,-45.03"/>
</g>
<!-- Node3 -->
<g id="node3" class="node">
<title>Node3</title>
<g id="a_node3"><a xlink:href="../../d5/d61/classcocos2d_1_1_c_c_copying.html" target="_top" xlink:title="NA NA.">
<polygon fill="white" stroke="#666666" points="70,-129 0,-129 0,-110 70,-110 70,-129"/>
<text text-anchor="middle" x="35" y="-117" font-family="Helvetica,sans-Serif" font-size="10.00">CCCopying</text>
</a>
</g>
</g>
<!-- Node3&#45;&gt;Node2 -->
<g id="edge2" class="edge">
<title>Node3&#45;&gt;Node2</title>
<path fill="none" stroke="#63b8ff" d="M35,-99.66C35,-90.93 35,-80.99 35,-74.09"/>
<polygon fill="#63b8ff" stroke="#63b8ff" points="31.5,-99.75 35,-109.75 38.5,-99.75 31.5,-99.75"/>
</g>
<!-- Node4 -->
<g id="node4" class="node">
<title>Node4</title>
<g id="a_node4"><a xlink:href="../../d8/d6a/classcocos2d_1_1_c_c_s_a_x_delegator.html" target="_top" xlink:title="NA NA.">
<polygon fill="white" stroke="#666666" points="182,-74 84,-74 84,-55 182,-55 182,-74"/>
<text text-anchor="middle" x="133" y="-62" font-family="Helvetica,sans-Serif" font-size="10.00">CCSAXDelegator</text>
</a>
</g>
</g>
<!-- Node4&#45;&gt;Node1 -->
<g id="edge3" class="edge">
<title>Node4&#45;&gt;Node1</title>
<path fill="none" stroke="#63b8ff" d="M117.97,-47.24C109.38,-37.95 98.96,-26.68 91.94,-19.09"/>
<polygon fill="#63b8ff" stroke="#63b8ff" points="115.55,-49.78 124.91,-54.75 120.69,-45.03 115.55,-49.78"/>
</g>
</g>
</svg>
