<?xml version="1.0" encoding="UTF-8" standalone="no"?>
<!DOCTYPE svg PUBLIC "-//W3C//DTD SVG 1.1//EN"
 "http://www.w3.org/Graphics/SVG/1.1/DTD/svg11.dtd">
<!-- Generated by graphviz version 2.43.0 (0)
 -->
<!-- Title: /home/runner/work/cocos&#45;headers/cocos&#45;headers/extensions/GUI/CCControlExtension/CCControl.h Pages: 1 -->
<svg width="1254pt" height="588pt"
 viewBox="0.00 0.00 1254.00 588.00" xmlns="http://www.w3.org/2000/svg" xmlns:xlink="http://www.w3.org/1999/xlink">
<g id="graph0" class="graph" transform="scale(1 1) rotate(0) translate(4 584)">
<title>/home/runner/work/cocos&#45;headers/cocos&#45;headers/extensions/GUI/CCControlExtension/CCControl.h</title>
<!-- Node1 -->
<g id="node1" class="node">
<title>Node1</title>
<g id="a_node1"><a xlink:title=" ">
<polygon fill="#999999" stroke="#666666" points="810,-580 616,-580 616,-528 810,-528 810,-580"/>
<text text-anchor="start" x="624" y="-568" font-family="Helvetica,sans-Serif" font-size="10.00">/home/runner/work/cocos</text>
<text text-anchor="start" x="624" y="-557" font-family="Helvetica,sans-Serif" font-size="10.00">&#45;headers/cocos&#45;headers</text>
<text text-anchor="start" x="624" y="-546" font-family="Helvetica,sans-Serif" font-size="10.00">/extensions/GUI/CCControlExtension</text>
<text text-anchor="middle" x="713" y="-535" font-family="Helvetica,sans-Serif" font-size="10.00">/CCControl.h</text>
</a>
</g>
</g>
<!-- Node2 -->
<g id="node2" class="node">
<title>Node2</title>
<g id="a_node2"><a xlink:href="../../d0/d7e/_c_c_control_button_8h.html" target="_top" xlink:title=" ">
<polygon fill="white" stroke="#666666" points="194,-404 0,-404 0,-352 194,-352 194,-404"/>
<text text-anchor="start" x="8" y="-392" font-family="Helvetica,sans-Serif" font-size="10.00">/home/runner/work/cocos</text>
<text text-anchor="start" x="8" y="-381" font-family="Helvetica,sans-Serif" font-size="10.00">&#45;headers/cocos&#45;headers</text>
<text text-anchor="start" x="8" y="-370" font-family="Helvetica,sans-Serif" font-size="10.00">/extensions/GUI/CCControlExtension</text>
<text text-anchor="middle" x="97" y="-359" font-family="Helvetica,sans-Serif" font-size="10.00">/CCControlButton.h</text>
</a>
</g>
</g>
<!-- Node1&#45;&gt;Node2 -->
<g id="edge1" class="edge">
<title>Node1&#45;&gt;Node2</title>
<path fill="none" stroke="#63b8ff" d="M605.62,-548.33C478.59,-541.38 275.79,-525.36 208,-492 167.29,-471.97 132.94,-430.82 113.67,-404.09"/>
<polygon fill="#63b8ff" stroke="#63b8ff" points="605.59,-551.83 615.76,-548.88 605.97,-544.84 605.59,-551.83"/>
</g>
<!-- Node3 -->
<g id="node3" class="node">
<title>Node3</title>
<g id="a_node3"><a xlink:href="../../d6/d86/_c_c_control_extensions_8h.html" target="_top" xlink:title=" ">
<polygon fill="white" stroke="#666666" points="697,-316 503,-316 503,-264 697,-264 697,-316"/>
<text text-anchor="start" x="511" y="-304" font-family="Helvetica,sans-Serif" font-size="10.00">/home/runner/work/cocos</text>
<text text-anchor="start" x="511" y="-293" font-family="Helvetica,sans-Serif" font-size="10.00">&#45;headers/cocos&#45;headers</text>
<text text-anchor="start" x="511" y="-282" font-family="Helvetica,sans-Serif" font-size="10.00">/extensions/GUI/CCControlExtension</text>
<text text-anchor="middle" x="600" y="-271" font-family="Helvetica,sans-Serif" font-size="10.00">/CCControlExtensions.h</text>
</a>
</g>
</g>
<!-- Node1&#45;&gt;Node3 -->
<g id="edge15" class="edge">
<title>Node1&#45;&gt;Node3</title>
<path fill="none" stroke="#63b8ff" d="M605.75,-545.75C480.11,-536.14 286.18,-517.4 264,-492 243.09,-468.06 274.52,-359.39 282,-352 312.69,-321.68 420.91,-305.79 502.65,-297.92"/>
<polygon fill="#63b8ff" stroke="#63b8ff" points="605.56,-549.25 615.8,-546.51 606.09,-542.27 605.56,-549.25"/>
</g>
<!-- Node13 -->
<g id="node13" class="node">
<title>Node13</title>
<g id="a_node13"><a xlink:href="../../d3/db7/_c_c_control_colour_picker_8h.html" target="_top" xlink:title=" ">
<polygon fill="white" stroke="#666666" points="485,-404 291,-404 291,-352 485,-352 485,-404"/>
<text text-anchor="start" x="299" y="-392" font-family="Helvetica,sans-Serif" font-size="10.00">/home/runner/work/cocos</text>
<text text-anchor="start" x="299" y="-381" font-family="Helvetica,sans-Serif" font-size="10.00">&#45;headers/cocos&#45;headers</text>
<text text-anchor="start" x="299" y="-370" font-family="Helvetica,sans-Serif" font-size="10.00">/extensions/GUI/CCControlExtension</text>
<text text-anchor="middle" x="388" y="-359" font-family="Helvetica,sans-Serif" font-size="10.00">/CCControlColourPicker.h</text>
</a>
</g>
</g>
<!-- Node1&#45;&gt;Node13 -->
<g id="edge13" class="edge">
<title>Node1&#45;&gt;Node13</title>
<path fill="none" stroke="#63b8ff" d="M605.64,-553.36C491.09,-551.19 320.49,-539.73 279,-492 263.84,-474.56 267.31,-459.94 279,-440 287.94,-424.75 302.23,-413.03 317.57,-404.14"/>
<polygon fill="#63b8ff" stroke="#63b8ff" points="605.79,-556.87 615.85,-553.54 605.91,-549.87 605.79,-556.87"/>
</g>
<!-- Node14 -->
<g id="node14" class="node">
<title>Node14</title>
<g id="a_node14"><a xlink:href="../../dd/d5a/_c_c_control_hue_picker_8h.html" target="_top" xlink:title=" ">
<polygon fill="white" stroke="#666666" points="482,-492 288,-492 288,-440 482,-440 482,-492"/>
<text text-anchor="start" x="296" y="-480" font-family="Helvetica,sans-Serif" font-size="10.00">/home/runner/work/cocos</text>
<text text-anchor="start" x="296" y="-469" font-family="Helvetica,sans-Serif" font-size="10.00">&#45;headers/cocos&#45;headers</text>
<text text-anchor="start" x="296" y="-458" font-family="Helvetica,sans-Serif" font-size="10.00">/extensions/GUI/CCControlExtension</text>
<text text-anchor="middle" x="385" y="-447" font-family="Helvetica,sans-Serif" font-size="10.00">/CCControlHuePicker.h</text>
</a>
</g>
</g>
<!-- Node1&#45;&gt;Node14 -->
<g id="edge16" class="edge">
<title>Node1&#45;&gt;Node14</title>
<path fill="none" stroke="#63b8ff" d="M607.55,-525.35C566.75,-514.66 520.4,-502.5 480.59,-492.06"/>
<polygon fill="#63b8ff" stroke="#63b8ff" points="606.69,-528.74 617.25,-527.89 608.46,-521.97 606.69,-528.74"/>
</g>
<!-- Node15 -->
<g id="node15" class="node">
<title>Node15</title>
<g id="a_node15"><a xlink:href="../../d2/d29/_c_c_control_potentiometer_8h.html" target="_top" xlink:title=" ">
<polygon fill="white" stroke="#666666" points="697,-404 503,-404 503,-352 697,-352 697,-404"/>
<text text-anchor="start" x="511" y="-392" font-family="Helvetica,sans-Serif" font-size="10.00">/home/runner/work/cocos</text>
<text text-anchor="start" x="511" y="-381" font-family="Helvetica,sans-Serif" font-size="10.00">&#45;headers/cocos&#45;headers</text>
<text text-anchor="start" x="511" y="-370" font-family="Helvetica,sans-Serif" font-size="10.00">/extensions/GUI/CCControlExtension</text>
<text text-anchor="middle" x="600" y="-359" font-family="Helvetica,sans-Serif" font-size="10.00">/CCControlPotentiometer.h</text>
</a>
</g>
</g>
<!-- Node1&#45;&gt;Node15 -->
<g id="edge18" class="edge">
<title>Node1&#45;&gt;Node15</title>
<path fill="none" stroke="#63b8ff" d="M820.04,-535.24C867.14,-525.03 914.98,-510.53 929,-492 942.95,-473.57 943.98,-457.6 929,-440 896.46,-401.78 755.24,-413.77 706,-404 703.13,-403.43 700.21,-402.84 697.27,-402.23"/>
<polygon fill="#63b8ff" stroke="#63b8ff" points="819.07,-531.87 810.01,-537.35 820.51,-538.72 819.07,-531.87"/>
</g>
<!-- Node16 -->
<g id="node16" class="node">
<title>Node16</title>
<g id="a_node16"><a xlink:href="../../de/d08/_c_c_control_saturation_brightness_picker_8h.html" target="_top" xlink:title=" ">
<polygon fill="white" stroke="#666666" points="708,-492 500,-492 500,-440 708,-440 708,-492"/>
<text text-anchor="start" x="508" y="-480" font-family="Helvetica,sans-Serif" font-size="10.00">/home/runner/work/cocos</text>
<text text-anchor="start" x="508" y="-469" font-family="Helvetica,sans-Serif" font-size="10.00">&#45;headers/cocos&#45;headers</text>
<text text-anchor="start" x="508" y="-458" font-family="Helvetica,sans-Serif" font-size="10.00">/extensions/GUI/CCControlExtension</text>
<text text-anchor="middle" x="604" y="-447" font-family="Helvetica,sans-Serif" font-size="10.00">/CCControlSaturationBrightnessPicker.h</text>
</a>
</g>
</g>
<!-- Node1&#45;&gt;Node16 -->
<g id="edge20" class="edge">
<title>Node1&#45;&gt;Node16</title>
<path fill="none" stroke="#63b8ff" d="M673.31,-521.69C661.06,-512.02 647.72,-501.49 636.05,-492.29"/>
<polygon fill="#63b8ff" stroke="#63b8ff" points="671.16,-524.45 681.18,-527.89 675.5,-518.95 671.16,-524.45"/>
</g>
<!-- Node17 -->
<g id="node17" class="node">
<title>Node17</title>
<g id="a_node17"><a xlink:href="../../d6/d7e/_c_c_control_slider_8h.html" target="_top" xlink:title=" ">
<polygon fill="white" stroke="#666666" points="909,-404 715,-404 715,-352 909,-352 909,-404"/>
<text text-anchor="start" x="723" y="-392" font-family="Helvetica,sans-Serif" font-size="10.00">/home/runner/work/cocos</text>
<text text-anchor="start" x="723" y="-381" font-family="Helvetica,sans-Serif" font-size="10.00">&#45;headers/cocos&#45;headers</text>
<text text-anchor="start" x="723" y="-370" font-family="Helvetica,sans-Serif" font-size="10.00">/extensions/GUI/CCControlExtension</text>
<text text-anchor="middle" x="812" y="-359" font-family="Helvetica,sans-Serif" font-size="10.00">/CCControlSlider.h</text>
</a>
</g>
</g>
<!-- Node1&#45;&gt;Node17 -->
<g id="edge22" class="edge">
<title>Node1&#45;&gt;Node17</title>
<path fill="none" stroke="#63b8ff" d="M820.35,-539.96C879.3,-530.35 944.02,-514.92 962,-492 976.27,-473.82 974.9,-459.17 962,-440 953.56,-427.46 925.76,-414.7 896.35,-404.11"/>
<polygon fill="#63b8ff" stroke="#63b8ff" points="819.52,-536.55 810.19,-541.57 820.62,-543.46 819.52,-536.55"/>
</g>
<!-- Node18 -->
<g id="node18" class="node">
<title>Node18</title>
<g id="a_node18"><a xlink:href="../../de/dba/_c_c_control_stepper_8h.html" target="_top" xlink:title=" ">
<polygon fill="white" stroke="#666666" points="1121,-404 927,-404 927,-352 1121,-352 1121,-404"/>
<text text-anchor="start" x="935" y="-392" font-family="Helvetica,sans-Serif" font-size="10.00">/home/runner/work/cocos</text>
<text text-anchor="start" x="935" y="-381" font-family="Helvetica,sans-Serif" font-size="10.00">&#45;headers/cocos&#45;headers</text>
<text text-anchor="start" x="935" y="-370" font-family="Helvetica,sans-Serif" font-size="10.00">/extensions/GUI/CCControlExtension</text>
<text text-anchor="middle" x="1024" y="-359" font-family="Helvetica,sans-Serif" font-size="10.00">/CCControlStepper.h</text>
</a>
</g>
</g>
<!-- Node1&#45;&gt;Node18 -->
<g id="edge24" class="edge">
<title>Node1&#45;&gt;Node18</title>
<path fill="none" stroke="#63b8ff" d="M820.36,-539.06C883.98,-528.83 956.77,-513.06 981,-492 1006.82,-469.56 1017.2,-429.88 1021.32,-404.02"/>
<polygon fill="#63b8ff" stroke="#63b8ff" points="819.57,-535.64 810.24,-540.65 820.66,-542.55 819.57,-535.64"/>
</g>
<!-- Node19 -->
<g id="node19" class="node">
<title>Node19</title>
<g id="a_node19"><a xlink:href="../../de/dc7/_c_c_control_switch_8h.html" target="_top" xlink:title=" ">
<polygon fill="white" stroke="#666666" points="1246,-492 1052,-492 1052,-440 1246,-440 1246,-492"/>
<text text-anchor="start" x="1060" y="-480" font-family="Helvetica,sans-Serif" font-size="10.00">/home/runner/work/cocos</text>
<text text-anchor="start" x="1060" y="-469" font-family="Helvetica,sans-Serif" font-size="10.00">&#45;headers/cocos&#45;headers</text>
<text text-anchor="start" x="1060" y="-458" font-family="Helvetica,sans-Serif" font-size="10.00">/extensions/GUI/CCControlExtension</text>
<text text-anchor="middle" x="1149" y="-447" font-family="Helvetica,sans-Serif" font-size="10.00">/CCControlSwitch.h</text>
</a>
</g>
</g>
<!-- Node1&#45;&gt;Node19 -->
<g id="edge26" class="edge">
<title>Node1&#45;&gt;Node19</title>
<path fill="none" stroke="#63b8ff" d="M820.26,-533.87C883.7,-522.31 965.55,-506.95 1038,-492 1042.55,-491.06 1047.19,-490.08 1051.88,-489.08"/>
<polygon fill="#63b8ff" stroke="#63b8ff" points="819.45,-530.46 810.24,-535.69 820.7,-537.35 819.45,-530.46"/>
</g>
<!-- Node20 -->
<g id="node20" class="node">
<title>Node20</title>
<g id="a_node20"><a xlink:href="../../d8/dec/_color_picker_delegate_8h.html" target="_top" xlink:title=" ">
<polygon fill="white" stroke="#666666" points="920,-492 726,-492 726,-440 920,-440 920,-492"/>
<text text-anchor="start" x="734" y="-480" font-family="Helvetica,sans-Serif" font-size="10.00">/home/runner/work/cocos</text>
<text text-anchor="start" x="734" y="-469" font-family="Helvetica,sans-Serif" font-size="10.00">&#45;headers/cocos&#45;headers</text>
<text text-anchor="start" x="734" y="-458" font-family="Helvetica,sans-Serif" font-size="10.00">/extensions/GUI/CCControlExtension</text>
<text text-anchor="middle" x="823" y="-447" font-family="Helvetica,sans-Serif" font-size="10.00">/ColorPickerDelegate.h</text>
</a>
</g>
</g>
<!-- Node1&#45;&gt;Node20 -->
<g id="edge28" class="edge">
<title>Node1&#45;&gt;Node20</title>
<path fill="none" stroke="#63b8ff" d="M753.05,-521.69C765.42,-512.02 778.88,-501.49 790.66,-492.29"/>
<polygon fill="#63b8ff" stroke="#63b8ff" points="750.83,-518.98 745.11,-527.89 755.15,-524.49 750.83,-518.98"/>
</g>
<!-- Node2&#45;&gt;Node3 -->
<g id="edge2" class="edge">
<title>Node2&#45;&gt;Node3</title>
<path fill="none" stroke="#63b8ff" d="M204.13,-352.74C205.43,-352.49 206.72,-352.24 208,-352 307.97,-332.99 423.12,-315.6 502.63,-304.3"/>
<polygon fill="#63b8ff" stroke="#63b8ff" points="203.21,-349.36 194.08,-354.74 204.57,-356.22 203.21,-349.36"/>
</g>
<!-- Node4 -->
<g id="node4" class="node">
<title>Node4</title>
<g id="a_node4"><a xlink:href="../../dc/d4a/_c_c_edit_box_8h.html" target="_top" xlink:title=" ">
<polygon fill="white" stroke="#666666" points="623,-228 475,-228 475,-176 623,-176 623,-228"/>
<text text-anchor="start" x="483" y="-216" font-family="Helvetica,sans-Serif" font-size="10.00">/home/runner/work/cocos</text>
<text text-anchor="start" x="483" y="-205" font-family="Helvetica,sans-Serif" font-size="10.00">&#45;headers/cocos&#45;headers</text>
<text text-anchor="start" x="483" y="-194" font-family="Helvetica,sans-Serif" font-size="10.00">/extensions/GUI/CCEditBox</text>
<text text-anchor="middle" x="549" y="-183" font-family="Helvetica,sans-Serif" font-size="10.00">/CCEditBox.h</text>
</a>
</g>
</g>
<!-- Node3&#45;&gt;Node4 -->
<g id="edge3" class="edge">
<title>Node3&#45;&gt;Node4</title>
<path fill="none" stroke="#63b8ff" d="M579.81,-254.96C574.51,-246.02 568.89,-236.54 563.92,-228.16"/>
<polygon fill="#63b8ff" stroke="#63b8ff" points="576.86,-256.85 584.97,-263.66 582.88,-253.28 576.86,-256.85"/>
</g>
<!-- Node12 -->
<g id="node12" class="node">
<title>Node12</title>
<g id="a_node12"><a xlink:href="../../d3/d58/cocos-ext_8h.html" target="_top" xlink:title=" ">
<polygon fill="white" stroke="#666666" points="721,-134.5 581,-134.5 581,-93.5 721,-93.5 721,-134.5"/>
<text text-anchor="start" x="589" y="-122.5" font-family="Helvetica,sans-Serif" font-size="10.00">/home/runner/work/cocos</text>
<text text-anchor="start" x="589" y="-111.5" font-family="Helvetica,sans-Serif" font-size="10.00">&#45;headers/cocos&#45;headers</text>
<text text-anchor="middle" x="651" y="-100.5" font-family="Helvetica,sans-Serif" font-size="10.00">/extensions/cocos&#45;ext.h</text>
</a>
</g>
</g>
<!-- Node3&#45;&gt;Node12 -->
<g id="edge12" class="edge">
<title>Node3&#45;&gt;Node12</title>
<path fill="none" stroke="#63b8ff" d="M620.24,-255.02C624.67,-246.43 628.94,-237.07 632,-228 642.67,-196.33 647.52,-157.56 649.59,-134.65"/>
<polygon fill="#63b8ff" stroke="#63b8ff" points="617.08,-253.51 615.42,-263.98 623.24,-256.83 617.08,-253.51"/>
</g>
<!-- Node5 -->
<g id="node5" class="node">
<title>Node5</title>
<g id="a_node5"><a xlink:href="../../db/da9/_c_c_edit_box_impl_8h.html" target="_top" xlink:title=" ">
<polygon fill="white" stroke="#666666" points="563,-140 415,-140 415,-88 563,-88 563,-140"/>
<text text-anchor="start" x="423" y="-128" font-family="Helvetica,sans-Serif" font-size="10.00">/home/runner/work/cocos</text>
<text text-anchor="start" x="423" y="-117" font-family="Helvetica,sans-Serif" font-size="10.00">&#45;headers/cocos&#45;headers</text>
<text text-anchor="start" x="423" y="-106" font-family="Helvetica,sans-Serif" font-size="10.00">/extensions/GUI/CCEditBox</text>
<text text-anchor="middle" x="489" y="-95" font-family="Helvetica,sans-Serif" font-size="10.00">/CCEditBoxImpl.h</text>
</a>
</g>
</g>
<!-- Node4&#45;&gt;Node5 -->
<g id="edge4" class="edge">
<title>Node4&#45;&gt;Node5</title>
<path fill="none" stroke="#63b8ff" d="M525.45,-167.24C519.15,-158.22 512.46,-148.63 506.55,-140.16"/>
<polygon fill="#63b8ff" stroke="#63b8ff" points="522.73,-169.46 531.32,-175.66 528.47,-165.46 522.73,-169.46"/>
</g>
<!-- Node4&#45;&gt;Node12 -->
<g id="edge11" class="edge">
<title>Node4&#45;&gt;Node12</title>
<path fill="none" stroke="#63b8ff" d="M586.7,-169.21C600.5,-157.58 615.69,-144.77 627.84,-134.53"/>
<polygon fill="#63b8ff" stroke="#63b8ff" points="584.17,-166.77 578.78,-175.89 588.68,-172.12 584.17,-166.77"/>
</g>
<!-- Node6 -->
<g id="node6" class="node">
<title>Node6</title>
<g id="a_node6"><a xlink:href="../../d4/dd3/_c_c_edit_box_impl_android_8h.html" target="_top" xlink:title=" ">
<polygon fill="white" stroke="#666666" points="148,-52 0,-52 0,0 148,0 148,-52"/>
<text text-anchor="start" x="8" y="-40" font-family="Helvetica,sans-Serif" font-size="10.00">/home/runner/work/cocos</text>
<text text-anchor="start" x="8" y="-29" font-family="Helvetica,sans-Serif" font-size="10.00">&#45;headers/cocos&#45;headers</text>
<text text-anchor="start" x="8" y="-18" font-family="Helvetica,sans-Serif" font-size="10.00">/extensions/GUI/CCEditBox</text>
<text text-anchor="middle" x="74" y="-7" font-family="Helvetica,sans-Serif" font-size="10.00">/CCEditBoxImplAndroid.h</text>
</a>
</g>
</g>
<!-- Node5&#45;&gt;Node6 -->
<g id="edge5" class="edge">
<title>Node5&#45;&gt;Node6</title>
<path fill="none" stroke="#63b8ff" d="M404.84,-100.19C337.4,-89.28 240.58,-72.2 157,-52 154.07,-51.29 151.1,-50.54 148.1,-49.76"/>
<polygon fill="#63b8ff" stroke="#63b8ff" points="404.56,-103.68 414.99,-101.81 405.67,-96.77 404.56,-103.68"/>
</g>
<!-- Node7 -->
<g id="node7" class="node">
<title>Node7</title>
<g id="a_node7"><a xlink:href="../../dd/dfd/_c_c_edit_box_impl_i_o_s_8h.html" target="_top" xlink:title=" ">
<polygon fill="white" stroke="#666666" points="314,-52 166,-52 166,0 314,0 314,-52"/>
<text text-anchor="start" x="174" y="-40" font-family="Helvetica,sans-Serif" font-size="10.00">/home/runner/work/cocos</text>
<text text-anchor="start" x="174" y="-29" font-family="Helvetica,sans-Serif" font-size="10.00">&#45;headers/cocos&#45;headers</text>
<text text-anchor="start" x="174" y="-18" font-family="Helvetica,sans-Serif" font-size="10.00">/extensions/GUI/CCEditBox</text>
<text text-anchor="middle" x="240" y="-7" font-family="Helvetica,sans-Serif" font-size="10.00">/CCEditBoxImplIOS.h</text>
</a>
</g>
</g>
<!-- Node5&#45;&gt;Node7 -->
<g id="edge6" class="edge">
<title>Node5&#45;&gt;Node7</title>
<path fill="none" stroke="#63b8ff" d="M406.61,-84.54C376.29,-74.07 342.19,-62.3 312.78,-52.14"/>
<polygon fill="#63b8ff" stroke="#63b8ff" points="405.71,-87.94 416.31,-87.89 408,-81.32 405.71,-87.94"/>
</g>
<!-- Node8 -->
<g id="node8" class="node">
<title>Node8</title>
<g id="a_node8"><a xlink:href="../../d7/d4d/_c_c_edit_box_impl_mac_8h.html" target="_top" xlink:title=" ">
<polygon fill="white" stroke="#666666" points="480,-52 332,-52 332,0 480,0 480,-52"/>
<text text-anchor="start" x="340" y="-40" font-family="Helvetica,sans-Serif" font-size="10.00">/home/runner/work/cocos</text>
<text text-anchor="start" x="340" y="-29" font-family="Helvetica,sans-Serif" font-size="10.00">&#45;headers/cocos&#45;headers</text>
<text text-anchor="start" x="340" y="-18" font-family="Helvetica,sans-Serif" font-size="10.00">/extensions/GUI/CCEditBox</text>
<text text-anchor="middle" x="406" y="-7" font-family="Helvetica,sans-Serif" font-size="10.00">/CCEditBoxImplMac.h</text>
</a>
</g>
</g>
<!-- Node5&#45;&gt;Node8 -->
<g id="edge7" class="edge">
<title>Node5&#45;&gt;Node8</title>
<path fill="none" stroke="#63b8ff" d="M457.49,-80.35C448.48,-71.01 438.79,-60.98 430.28,-52.16"/>
<polygon fill="#63b8ff" stroke="#63b8ff" points="455.08,-82.9 464.55,-87.66 460.12,-78.04 455.08,-82.9"/>
</g>
<!-- Node9 -->
<g id="node9" class="node">
<title>Node9</title>
<g id="a_node9"><a xlink:href="../../de/dac/_c_c_edit_box_impl_tizen_8h.html" target="_top" xlink:title=" ">
<polygon fill="white" stroke="#666666" points="646,-52 498,-52 498,0 646,0 646,-52"/>
<text text-anchor="start" x="506" y="-40" font-family="Helvetica,sans-Serif" font-size="10.00">/home/runner/work/cocos</text>
<text text-anchor="start" x="506" y="-29" font-family="Helvetica,sans-Serif" font-size="10.00">&#45;headers/cocos&#45;headers</text>
<text text-anchor="start" x="506" y="-18" font-family="Helvetica,sans-Serif" font-size="10.00">/extensions/GUI/CCEditBox</text>
<text text-anchor="middle" x="572" y="-7" font-family="Helvetica,sans-Serif" font-size="10.00">/CCEditBoxImplTizen.h</text>
</a>
</g>
</g>
<!-- Node5&#45;&gt;Node9 -->
<g id="edge8" class="edge">
<title>Node5&#45;&gt;Node9</title>
<path fill="none" stroke="#63b8ff" d="M520.51,-80.35C529.52,-71.01 539.21,-60.98 547.72,-52.16"/>
<polygon fill="#63b8ff" stroke="#63b8ff" points="517.88,-78.04 513.45,-87.66 522.92,-82.9 517.88,-78.04"/>
</g>
<!-- Node10 -->
<g id="node10" class="node">
<title>Node10</title>
<g id="a_node10"><a xlink:href="../../dd/d41/_c_c_edit_box_impl_win_8h.html" target="_top" xlink:title=" ">
<polygon fill="white" stroke="#666666" points="812,-52 664,-52 664,0 812,0 812,-52"/>
<text text-anchor="start" x="672" y="-40" font-family="Helvetica,sans-Serif" font-size="10.00">/home/runner/work/cocos</text>
<text text-anchor="start" x="672" y="-29" font-family="Helvetica,sans-Serif" font-size="10.00">&#45;headers/cocos&#45;headers</text>
<text text-anchor="start" x="672" y="-18" font-family="Helvetica,sans-Serif" font-size="10.00">/extensions/GUI/CCEditBox</text>
<text text-anchor="middle" x="738" y="-7" font-family="Helvetica,sans-Serif" font-size="10.00">/CCEditBoxImplWin.h</text>
</a>
</g>
</g>
<!-- Node5&#45;&gt;Node10 -->
<g id="edge9" class="edge">
<title>Node5&#45;&gt;Node10</title>
<path fill="none" stroke="#63b8ff" d="M571.39,-84.54C601.71,-74.07 635.81,-62.3 665.22,-52.14"/>
<polygon fill="#63b8ff" stroke="#63b8ff" points="570,-81.32 561.69,-87.89 572.29,-87.94 570,-81.32"/>
</g>
<!-- Node11 -->
<g id="node11" class="node">
<title>Node11</title>
<g id="a_node11"><a xlink:href="../../d4/d91/_c_c_edit_box_impl_wp8_8h.html" target="_top" xlink:title=" ">
<polygon fill="white" stroke="#666666" points="978,-52 830,-52 830,0 978,0 978,-52"/>
<text text-anchor="start" x="838" y="-40" font-family="Helvetica,sans-Serif" font-size="10.00">/home/runner/work/cocos</text>
<text text-anchor="start" x="838" y="-29" font-family="Helvetica,sans-Serif" font-size="10.00">&#45;headers/cocos&#45;headers</text>
<text text-anchor="start" x="838" y="-18" font-family="Helvetica,sans-Serif" font-size="10.00">/extensions/GUI/CCEditBox</text>
<text text-anchor="middle" x="904" y="-7" font-family="Helvetica,sans-Serif" font-size="10.00">/CCEditBoxImplWp8.h</text>
</a>
</g>
</g>
<!-- Node5&#45;&gt;Node11 -->
<g id="edge10" class="edge">
<title>Node5&#45;&gt;Node11</title>
<path fill="none" stroke="#63b8ff" d="M572.89,-87.95C682.97,-64.48 714.92,-75.51 821,-52 823.94,-51.35 826.92,-50.65 829.93,-49.91"/>
<polygon fill="#63b8ff" stroke="#63b8ff" points="572.09,-84.54 563.07,-90.09 573.58,-91.38 572.09,-84.54"/>
</g>
<!-- Node13&#45;&gt;Node3 -->
<g id="edge14" class="edge">
<title>Node13&#45;&gt;Node3</title>
<path fill="none" stroke="#63b8ff" d="M459.49,-348C484.97,-337.66 513.43,-326.12 538.03,-316.14"/>
<polygon fill="#63b8ff" stroke="#63b8ff" points="457.84,-344.89 449.89,-351.89 460.47,-351.38 457.84,-344.89"/>
</g>
<!-- Node14&#45;&gt;Node13 -->
<g id="edge17" class="edge">
<title>Node14&#45;&gt;Node13</title>
<path fill="none" stroke="#63b8ff" d="M386.24,-429.56C386.53,-421.04 386.85,-412.1 387.12,-404.16"/>
<polygon fill="#63b8ff" stroke="#63b8ff" points="382.73,-429.55 385.88,-439.66 389.73,-429.79 382.73,-429.55"/>
</g>
<!-- Node15&#45;&gt;Node3 -->
<g id="edge19" class="edge">
<title>Node15&#45;&gt;Node3</title>
<path fill="none" stroke="#63b8ff" d="M600,-341.56C600,-333.04 600,-324.1 600,-316.16"/>
<polygon fill="#63b8ff" stroke="#63b8ff" points="596.5,-341.66 600,-351.66 603.5,-341.66 596.5,-341.66"/>
</g>
<!-- Node16&#45;&gt;Node13 -->
<g id="edge21" class="edge">
<title>Node16&#45;&gt;Node13</title>
<path fill="none" stroke="#63b8ff" d="M531.5,-436.14C505.46,-425.77 476.32,-414.16 451.14,-404.14"/>
<polygon fill="#63b8ff" stroke="#63b8ff" points="530.36,-439.45 540.94,-439.89 532.95,-432.94 530.36,-439.45"/>
</g>
<!-- Node17&#45;&gt;Node3 -->
<g id="edge23" class="edge">
<title>Node17&#45;&gt;Node3</title>
<path fill="none" stroke="#63b8ff" d="M740.51,-348C715.03,-337.66 686.57,-326.12 661.97,-316.14"/>
<polygon fill="#63b8ff" stroke="#63b8ff" points="739.53,-351.38 750.11,-351.89 742.16,-344.89 739.53,-351.38"/>
</g>
<!-- Node18&#45;&gt;Node3 -->
<g id="edge25" class="edge">
<title>Node18&#45;&gt;Node3</title>
<path fill="none" stroke="#63b8ff" d="M916.8,-351.78C837.36,-334.92 757.76,-319.74 697.29,-308.56"/>
<polygon fill="#63b8ff" stroke="#63b8ff" points="916.48,-355.29 926.99,-353.95 917.94,-348.44 916.48,-355.29"/>
</g>
<!-- Node19&#45;&gt;Node3 -->
<g id="edge27" class="edge">
<title>Node19&#45;&gt;Node3</title>
<path fill="none" stroke="#63b8ff" d="M1153.23,-429.64C1154.12,-404.38 1150.58,-371.53 1130,-352 1099.27,-322.83 841.64,-304.19 697.21,-295.93"/>
<polygon fill="#63b8ff" stroke="#63b8ff" points="1149.72,-429.74 1152.61,-439.94 1156.7,-430.16 1149.72,-429.74"/>
</g>
<!-- Node20&#45;&gt;Node13 -->
<g id="edge29" class="edge">
<title>Node20&#45;&gt;Node13</title>
<path fill="none" stroke="#63b8ff" d="M715.91,-439.85C616.83,-420.63 589.4,-422.92 494,-404 491.13,-403.43 488.21,-402.84 485.27,-402.23"/>
<polygon fill="#63b8ff" stroke="#63b8ff" points="715.24,-443.28 725.73,-441.77 716.59,-436.41 715.24,-443.28"/>
</g>
</g>
</svg>
