<?xml version="1.0" encoding="UTF-8" standalone="no"?>
<!DOCTYPE svg PUBLIC "-//W3C//DTD SVG 1.1//EN"
 "http://www.w3.org/Graphics/SVG/1.1/DTD/svg11.dtd">
<!-- Generated by graphviz version 2.43.0 (0)
 -->
<!-- Title: /home/runner/work/cocos&#45;headers/cocos&#45;headers/cocos2dx/effects/CCGrabber.h Pages: 1 -->
<svg width="568pt" height="498pt"
 viewBox="0.00 0.00 567.50 498.00" xmlns="http://www.w3.org/2000/svg" xmlns:xlink="http://www.w3.org/1999/xlink">
<g id="graph0" class="graph" transform="scale(1 1) rotate(0) translate(4 494)">
<title>/home/runner/work/cocos&#45;headers/cocos&#45;headers/cocos2dx/effects/CCGrabber.h</title>
<!-- Node1 -->
<g id="node1" class="node">
<title>Node1</title>
<g id="a_node1"><a xlink:title=" ">
<polygon fill="#bfbfbf" stroke="black" points="280,-448.5 280,-489.5 445,-489.5 445,-448.5 280,-448.5"/>
<text text-anchor="start" x="288" y="-477.5" font-family="Helvetica,sans-Serif" font-size="10.00">/home/runner/work/cocos</text>
<text text-anchor="start" x="288" y="-466.5" font-family="Helvetica,sans-Serif" font-size="10.00">&#45;headers/cocos&#45;headers</text>
<text text-anchor="middle" x="362.5" y="-455.5" font-family="Helvetica,sans-Serif" font-size="10.00">/cocos2dx/effects/CCGrabber.h</text>
</a>
</g>
</g>
<!-- Node2 -->
<g id="node2" class="node">
<title>Node2</title>
<g id="a_node2"><a xlink:href="../../df/df2/_c_c_configuration_8h.html" target="_top" xlink:title=" ">
<polygon fill="none" stroke="black" points="310.5,-392.5 310.5,-411.5 414.5,-411.5 414.5,-392.5 310.5,-392.5"/>
<text text-anchor="middle" x="362.5" y="-399.5" font-family="Helvetica,sans-Serif" font-size="10.00">CCConfiguration.h</text>
</a>
</g>
</g>
<!-- Node1&#45;&gt;Node2 -->
<g id="edge1" class="edge">
<title>Node1&#45;&gt;Node2</title>
<path fill="none" stroke="midnightblue" d="M362.5,-448.5C362.5,-440.07 362.5,-430.24 362.5,-421.87"/>
<polygon fill="midnightblue" stroke="midnightblue" points="366,-421.65 362.5,-411.65 359,-421.65 366,-421.65"/>
</g>
<!-- Node3 -->
<g id="node3" class="node">
<title>Node3</title>
<g id="a_node3"><a xlink:href="../../dd/d69/_c_c_object_8h.html" target="_top" xlink:title=" ">
<polygon fill="none" stroke="black" points="81.5,-280.5 81.5,-299.5 183.5,-299.5 183.5,-280.5 81.5,-280.5"/>
<text text-anchor="middle" x="132.5" y="-287.5" font-family="Helvetica,sans-Serif" font-size="10.00">cocoa/CCObject.h</text>
</a>
</g>
</g>
<!-- Node1&#45;&gt;Node3 -->
<g id="edge23" class="edge">
<title>Node1&#45;&gt;Node3</title>
<path fill="none" stroke="midnightblue" d="M337.01,-448.38C290.59,-412.66 193.25,-337.75 151.83,-305.87"/>
<polygon fill="midnightblue" stroke="midnightblue" points="153.71,-302.91 143.65,-299.58 149.44,-308.46 153.71,-302.91"/>
</g>
<!-- Node13 -->
<g id="node13" class="node">
<title>Node13</title>
<g id="a_node13"><a xlink:title=" ">
<polygon fill="none" stroke="#bfbfbf" points="507.5,-336.5 507.5,-355.5 559.5,-355.5 559.5,-336.5 507.5,-336.5"/>
<text text-anchor="middle" x="533.5" y="-343.5" font-family="Helvetica,sans-Serif" font-size="10.00">CCGL.h</text>
</a>
</g>
</g>
<!-- Node1&#45;&gt;Node13 -->
<g id="edge24" class="edge">
<title>Node1&#45;&gt;Node13</title>
<path fill="none" stroke="midnightblue" d="M390.35,-448.29C424.81,-423.91 482.64,-382.99 513.18,-361.38"/>
<polygon fill="midnightblue" stroke="midnightblue" points="515.24,-364.21 521.38,-355.57 511.2,-358.49 515.24,-364.21"/>
</g>
<!-- Node2&#45;&gt;Node3 -->
<g id="edge2" class="edge">
<title>Node2&#45;&gt;Node3</title>
<path fill="none" stroke="midnightblue" d="M344.27,-392.41C325.13,-383.38 294.18,-368.74 267.5,-356 230.08,-338.13 186.91,-317.31 159.67,-304.14"/>
<polygon fill="midnightblue" stroke="midnightblue" points="160.92,-300.86 150.39,-299.66 157.87,-307.16 160.92,-300.86"/>
</g>
<!-- Node9 -->
<g id="node9" class="node">
<title>Node9</title>
<g id="a_node9"><a xlink:title=" ">
<polygon fill="none" stroke="#bfbfbf" points="347.5,-168.5 347.5,-187.5 391.5,-187.5 391.5,-168.5 347.5,-168.5"/>
<text text-anchor="middle" x="369.5" y="-175.5" font-family="Helvetica,sans-Serif" font-size="10.00">string</text>
</a>
</g>
</g>
<!-- Node2&#45;&gt;Node9 -->
<g id="edge22" class="edge">
<title>Node2&#45;&gt;Node9</title>
<path fill="none" stroke="midnightblue" d="M375.92,-392.42C398.48,-377.08 443.24,-342.57 460.5,-300 478.28,-256.14 426.02,-214.11 393.46,-193.04"/>
<polygon fill="midnightblue" stroke="midnightblue" points="395.21,-190.01 384.87,-187.67 391.5,-195.94 395.21,-190.01"/>
</g>
<!-- Node2&#45;&gt;Node13 -->
<g id="edge15" class="edge">
<title>Node2&#45;&gt;Node13</title>
<path fill="none" stroke="midnightblue" d="M389.6,-392.44C418.74,-383.24 465.24,-368.56 497.45,-358.38"/>
<polygon fill="midnightblue" stroke="midnightblue" points="498.89,-361.6 507.37,-355.25 496.78,-354.92 498.89,-361.6"/>
</g>
<!-- Node14 -->
<g id="node14" class="node">
<title>Node14</title>
<g id="a_node14"><a xlink:href="../../d0/d8a/_c_c_string_8h.html" target="_top" xlink:title=" ">
<polygon fill="none" stroke="black" points="277,-336.5 277,-355.5 376,-355.5 376,-336.5 277,-336.5"/>
<text text-anchor="middle" x="326.5" y="-343.5" font-family="Helvetica,sans-Serif" font-size="10.00">cocoa/CCString.h</text>
</a>
</g>
</g>
<!-- Node2&#45;&gt;Node14 -->
<g id="edge16" class="edge">
<title>Node2&#45;&gt;Node14</title>
<path fill="none" stroke="midnightblue" d="M356.56,-392.08C351.52,-384.53 344.16,-373.49 337.99,-364.23"/>
<polygon fill="midnightblue" stroke="midnightblue" points="340.79,-362.13 332.33,-355.75 334.97,-366.01 340.79,-362.13"/>
</g>
<!-- Node4 -->
<g id="node4" class="node">
<title>Node4</title>
<g id="a_node4"><a xlink:href="../../d9/d2d/_c_c_data_visitor_8h.html" target="_top" xlink:title=" ">
<polygon fill="none" stroke="black" points="248,-224.5 248,-243.5 341,-243.5 341,-224.5 248,-224.5"/>
<text text-anchor="middle" x="294.5" y="-231.5" font-family="Helvetica,sans-Serif" font-size="10.00">CCDataVisitor.h</text>
</a>
</g>
</g>
<!-- Node3&#45;&gt;Node4 -->
<g id="edge3" class="edge">
<title>Node3&#45;&gt;Node4</title>
<path fill="none" stroke="midnightblue" d="M158.17,-280.44C185.42,-271.36 228.68,-256.94 259.15,-246.78"/>
<polygon fill="midnightblue" stroke="midnightblue" points="260.57,-250 268.95,-243.52 258.36,-243.36 260.57,-250"/>
</g>
<!-- Node10 -->
<g id="node10" class="node">
<title>Node10</title>
<g id="a_node10"><a xlink:href="../../d9/dc8/cc_macros_8h.html" target="_top" xlink:title=" ">
<polygon fill="none" stroke="black" points="92,-224.5 92,-243.5 163,-243.5 163,-224.5 92,-224.5"/>
<text text-anchor="middle" x="127.5" y="-231.5" font-family="Helvetica,sans-Serif" font-size="10.00">ccMacros.h</text>
</a>
</g>
</g>
<!-- Node3&#45;&gt;Node10 -->
<g id="edge10" class="edge">
<title>Node3&#45;&gt;Node10</title>
<path fill="none" stroke="midnightblue" d="M131.67,-280.08C131.02,-273.01 130.08,-262.86 129.26,-253.99"/>
<polygon fill="midnightblue" stroke="midnightblue" points="132.72,-253.39 128.31,-243.75 125.75,-254.03 132.72,-253.39"/>
</g>
<!-- Node5 -->
<g id="node5" class="node">
<title>Node5</title>
<g id="a_node5"><a xlink:href="../../d3/d41/_c_c_platform_macros_8h.html" target="_top" xlink:title=" ">
<polygon fill="none" stroke="black" points="62,-112.5 62,-131.5 223,-131.5 223,-112.5 62,-112.5"/>
<text text-anchor="middle" x="142.5" y="-119.5" font-family="Helvetica,sans-Serif" font-size="10.00">platform/CCPlatformMacros.h</text>
</a>
</g>
</g>
<!-- Node4&#45;&gt;Node5 -->
<g id="edge4" class="edge">
<title>Node4&#45;&gt;Node5</title>
<path fill="none" stroke="midnightblue" d="M294.86,-224.19C294.93,-210.41 293.02,-183.7 278.5,-168 263.2,-151.45 241.69,-140.98 220.28,-134.36"/>
<polygon fill="midnightblue" stroke="midnightblue" points="221.05,-130.94 210.48,-131.58 219.14,-137.67 221.05,-130.94"/>
</g>
<!-- Node4&#45;&gt;Node9 -->
<g id="edge9" class="edge">
<title>Node4&#45;&gt;Node9</title>
<path fill="none" stroke="midnightblue" d="M306.55,-224.32C317.96,-216.11 335.33,-203.6 348.93,-193.81"/>
<polygon fill="midnightblue" stroke="midnightblue" points="351.16,-196.52 357.23,-187.83 347.07,-190.84 351.16,-196.52"/>
</g>
<!-- Node6 -->
<g id="node6" class="node">
<title>Node6</title>
<g id="a_node6"><a xlink:href="../../db/d9f/cc_config_8h.html" target="_top" xlink:title="cocos2d (cc) configuration file">
<polygon fill="none" stroke="black" points="0,-56.5 0,-75.5 67,-75.5 67,-56.5 0,-56.5"/>
<text text-anchor="middle" x="33.5" y="-63.5" font-family="Helvetica,sans-Serif" font-size="10.00">ccConfig.h</text>
</a>
</g>
</g>
<!-- Node5&#45;&gt;Node6 -->
<g id="edge5" class="edge">
<title>Node5&#45;&gt;Node6</title>
<path fill="none" stroke="midnightblue" d="M124.99,-112.32C107.43,-103.62 80.17,-90.12 59.97,-80.11"/>
<polygon fill="midnightblue" stroke="midnightblue" points="61.48,-76.96 50.97,-75.65 58.38,-83.23 61.48,-76.96"/>
</g>
<!-- Node7 -->
<g id="node7" class="node">
<title>Node7</title>
<g id="a_node7"><a xlink:href="../../dd/d96/_c_c_platform_config_8h.html" target="_top" xlink:title=" ">
<polygon fill="none" stroke="black" points="51,-0.5 51,-19.5 208,-19.5 208,-0.5 51,-0.5"/>
<text text-anchor="middle" x="129.5" y="-7.5" font-family="Helvetica,sans-Serif" font-size="10.00">platform/CCPlatformConfig.h</text>
</a>
</g>
</g>
<!-- Node5&#45;&gt;Node7 -->
<g id="edge7" class="edge">
<title>Node5&#45;&gt;Node7</title>
<path fill="none" stroke="midnightblue" d="M162.62,-112.43C186.11,-101.09 220.14,-79.76 206.5,-56 197.88,-40.99 182.11,-30.5 167.07,-23.46"/>
<polygon fill="midnightblue" stroke="midnightblue" points="168.44,-20.24 157.87,-19.51 165.68,-26.67 168.44,-20.24"/>
</g>
<!-- Node8 -->
<g id="node8" class="node">
<title>Node8</title>
<g id="a_node8"><a xlink:title=" ">
<polygon fill="none" stroke="#bfbfbf" points="85,-56.5 85,-75.5 198,-75.5 198,-56.5 85,-56.5"/>
<text text-anchor="middle" x="141.5" y="-63.5" font-family="Helvetica,sans-Serif" font-size="10.00">CCPlatformDefine.h</text>
</a>
</g>
</g>
<!-- Node5&#45;&gt;Node8 -->
<g id="edge8" class="edge">
<title>Node5&#45;&gt;Node8</title>
<path fill="none" stroke="midnightblue" d="M142.33,-112.08C142.2,-105.01 142.02,-94.86 141.85,-85.99"/>
<polygon fill="midnightblue" stroke="midnightblue" points="145.35,-85.68 141.66,-75.75 138.35,-85.81 145.35,-85.68"/>
</g>
<!-- Node6&#45;&gt;Node7 -->
<g id="edge6" class="edge">
<title>Node6&#45;&gt;Node7</title>
<path fill="none" stroke="midnightblue" d="M48.92,-56.32C64.04,-47.82 87.32,-34.73 104.97,-24.8"/>
<polygon fill="midnightblue" stroke="midnightblue" points="107.11,-27.61 114.11,-19.65 103.68,-21.51 107.11,-27.61"/>
</g>
<!-- Node10&#45;&gt;Node6 -->
<g id="edge14" class="edge">
<title>Node10&#45;&gt;Node6</title>
<path fill="none" stroke="midnightblue" d="M102.21,-224.36C85.39,-217.27 64.3,-205.5 52.5,-188 31.58,-156.96 30.45,-111.39 31.78,-85.95"/>
<polygon fill="midnightblue" stroke="midnightblue" points="35.28,-86.03 32.5,-75.81 28.3,-85.53 35.28,-86.03"/>
</g>
<!-- Node11 -->
<g id="node11" class="node">
<title>Node11</title>
<g id="a_node11"><a xlink:href="../../d5/d22/_c_c_common_8h.html" target="_top" xlink:title=" ">
<polygon fill="none" stroke="black" points="61.5,-168.5 61.5,-187.5 189.5,-187.5 189.5,-168.5 61.5,-168.5"/>
<text text-anchor="middle" x="125.5" y="-175.5" font-family="Helvetica,sans-Serif" font-size="10.00">platform/CCCommon.h</text>
</a>
</g>
</g>
<!-- Node10&#45;&gt;Node11 -->
<g id="edge11" class="edge">
<title>Node10&#45;&gt;Node11</title>
<path fill="none" stroke="midnightblue" d="M127.17,-224.08C126.91,-217.01 126.53,-206.86 126.2,-197.99"/>
<polygon fill="midnightblue" stroke="midnightblue" points="129.69,-197.61 125.82,-187.75 122.7,-197.87 129.69,-197.61"/>
</g>
<!-- Node12 -->
<g id="node12" class="node">
<title>Node12</title>
<g id="a_node12"><a xlink:title=" ">
<polygon fill="none" stroke="#bfbfbf" points="207.5,-168.5 207.5,-187.5 269.5,-187.5 269.5,-168.5 207.5,-168.5"/>
<text text-anchor="middle" x="238.5" y="-175.5" font-family="Helvetica,sans-Serif" font-size="10.00">CCStdC.h</text>
</a>
</g>
</g>
<!-- Node10&#45;&gt;Node12 -->
<g id="edge13" class="edge">
<title>Node10&#45;&gt;Node12</title>
<path fill="none" stroke="midnightblue" d="M145.33,-224.32C163.22,-215.62 190.98,-202.12 211.55,-192.11"/>
<polygon fill="midnightblue" stroke="midnightblue" points="213.25,-195.18 220.71,-187.65 210.19,-188.88 213.25,-195.18"/>
</g>
<!-- Node11&#45;&gt;Node5 -->
<g id="edge12" class="edge">
<title>Node11&#45;&gt;Node5</title>
<path fill="none" stroke="midnightblue" d="M128.31,-168.08C130.58,-160.85 133.87,-150.41 136.71,-141.4"/>
<polygon fill="midnightblue" stroke="midnightblue" points="140.08,-142.34 139.75,-131.75 133.4,-140.24 140.08,-142.34"/>
</g>
<!-- Node14&#45;&gt;Node3 -->
<g id="edge21" class="edge">
<title>Node14&#45;&gt;Node3</title>
<path fill="none" stroke="midnightblue" d="M295.76,-336.44C262.56,-327.2 209.51,-312.44 172.94,-302.26"/>
<polygon fill="midnightblue" stroke="midnightblue" points="173.67,-298.83 163.1,-299.52 171.79,-305.57 173.67,-298.83"/>
</g>
<!-- Node14&#45;&gt;Node9 -->
<g id="edge19" class="edge">
<title>Node14&#45;&gt;Node9</title>
<path fill="none" stroke="midnightblue" d="M331.92,-336.39C337.22,-327.58 345.11,-313.33 349.5,-300 361,-265.07 366.09,-222.19 368.18,-197.99"/>
<polygon fill="midnightblue" stroke="midnightblue" points="371.69,-197.97 368.98,-187.73 364.71,-197.42 371.69,-197.97"/>
</g>
<!-- Node15 -->
<g id="node15" class="node">
<title>Node15</title>
<g id="a_node15"><a xlink:title=" ">
<polygon fill="none" stroke="#bfbfbf" points="398,-280.5 398,-299.5 451,-299.5 451,-280.5 398,-280.5"/>
<text text-anchor="middle" x="424.5" y="-287.5" font-family="Helvetica,sans-Serif" font-size="10.00">string.h</text>
</a>
</g>
</g>
<!-- Node14&#45;&gt;Node15 -->
<g id="edge17" class="edge">
<title>Node14&#45;&gt;Node15</title>
<path fill="none" stroke="midnightblue" d="M342.25,-336.32C357.82,-327.74 381.88,-314.49 399.96,-304.52"/>
<polygon fill="midnightblue" stroke="midnightblue" points="401.72,-307.55 408.79,-299.65 398.35,-301.42 401.72,-307.55"/>
</g>
<!-- Node16 -->
<g id="node16" class="node">
<title>Node16</title>
<g id="a_node16"><a xlink:title=" ">
<polygon fill="none" stroke="#bfbfbf" points="201.5,-280.5 201.5,-299.5 257.5,-299.5 257.5,-280.5 201.5,-280.5"/>
<text text-anchor="middle" x="229.5" y="-287.5" font-family="Helvetica,sans-Serif" font-size="10.00">stdarg.h</text>
</a>
</g>
</g>
<!-- Node14&#45;&gt;Node16 -->
<g id="edge18" class="edge">
<title>Node14&#45;&gt;Node16</title>
<path fill="none" stroke="midnightblue" d="M310.92,-336.32C295.5,-327.74 271.69,-314.49 253.79,-304.52"/>
<polygon fill="midnightblue" stroke="midnightblue" points="255.49,-301.46 245.05,-299.65 252.08,-307.58 255.49,-301.46"/>
</g>
<!-- Node17 -->
<g id="node17" class="node">
<title>Node17</title>
<g id="a_node17"><a xlink:title=" ">
<polygon fill="none" stroke="#bfbfbf" points="276,-280.5 276,-299.5 341,-299.5 341,-280.5 276,-280.5"/>
<text text-anchor="middle" x="308.5" y="-287.5" font-family="Helvetica,sans-Serif" font-size="10.00">functional</text>
</a>
</g>
</g>
<!-- Node14&#45;&gt;Node17 -->
<g id="edge20" class="edge">
<title>Node14&#45;&gt;Node17</title>
<path fill="none" stroke="midnightblue" d="M323.53,-336.08C321.12,-328.85 317.64,-318.41 314.63,-309.4"/>
<polygon fill="midnightblue" stroke="midnightblue" points="317.9,-308.13 311.42,-299.75 311.26,-310.34 317.9,-308.13"/>
</g>
</g>
</svg>
