<?xml version="1.0" encoding="UTF-8" standalone="no"?>
<!DOCTYPE svg PUBLIC "-//W3C//DTD SVG 1.1//EN"
 "http://www.w3.org/Graphics/SVG/1.1/DTD/svg11.dtd">
<!-- Generated by graphviz version 2.43.0 (0)
 -->
<!-- Title: CCTouchHandler Pages: 1 -->
<svg width="200pt" height="152pt"
 viewBox="0.00 0.00 200.00 152.00" xmlns="http://www.w3.org/2000/svg" xmlns:xlink="http://www.w3.org/1999/xlink">
<g id="graph0" class="graph" transform="scale(1 1) rotate(0) translate(4 148)">
<title>CCTouchHandler</title>
<!-- Node1 -->
<g id="node1" class="node">
<title>Node1</title>
<g id="a_node1"><a xlink:title="CCTouchHandler Object than contains the delegate and priority of the event handler.">
<polygon fill="#bfbfbf" stroke="black" points="62,-0.5 62,-19.5 158,-19.5 158,-0.5 62,-0.5"/>
<text text-anchor="middle" x="110" y="-7.5" font-family="Helvetica,sans-Serif" font-size="10.00">CCTouchHandler</text>
</a>
</g>
</g>
<!-- Node2 -->
<g id="node2" class="node">
<title>Node2</title>
<g id="a_node2"><a xlink:href="../../d3/dbf/classcocos2d_1_1_c_c_object.html" target="_top" xlink:title="NA.">
<polygon fill="none" stroke="black" points="4,-67.5 4,-86.5 66,-86.5 66,-67.5 4,-67.5"/>
<text text-anchor="middle" x="35" y="-74.5" font-family="Helvetica,sans-Serif" font-size="10.00">CCObject</text>
</a>
</g>
</g>
<!-- Node2&#45;&gt;Node1 -->
<g id="edge1" class="edge">
<title>Node2&#45;&gt;Node1</title>
<path fill="none" stroke="midnightblue" d="M53.05,-60.36C67.79,-47.58 88.09,-29.99 100.05,-19.63"/>
<polygon fill="midnightblue" stroke="midnightblue" points="50.38,-58.04 45.11,-67.23 54.96,-63.33 50.38,-58.04"/>
</g>
<!-- Node3 -->
<g id="node3" class="node">
<title>Node3</title>
<g id="a_node3"><a xlink:href="../../d5/d61/classcocos2d_1_1_c_c_copying.html" target="_top" xlink:title="NA NA.">
<polygon fill="none" stroke="black" points="0,-124.5 0,-143.5 70,-143.5 70,-124.5 0,-124.5"/>
<text text-anchor="middle" x="35" y="-131.5" font-family="Helvetica,sans-Serif" font-size="10.00">CCCopying</text>
</a>
</g>
</g>
<!-- Node3&#45;&gt;Node2 -->
<g id="edge2" class="edge">
<title>Node3&#45;&gt;Node2</title>
<path fill="none" stroke="midnightblue" d="M35,-114.12C35,-104.82 35,-94.06 35,-86.71"/>
<polygon fill="midnightblue" stroke="midnightblue" points="31.5,-114.41 35,-124.41 38.5,-114.41 31.5,-114.41"/>
</g>
<!-- Node4 -->
<g id="node4" class="node">
<title>Node4</title>
<g id="a_node4"><a xlink:href="../../d0/d38/classcocos2d_1_1_c_c_touch_delegate.html" target="_top" xlink:title=" ">
<polygon fill="none" stroke="black" points="84,-67.5 84,-86.5 186,-86.5 186,-67.5 84,-67.5"/>
<text text-anchor="middle" x="135" y="-74.5" font-family="Helvetica,sans-Serif" font-size="10.00">CCTouchDelegate</text>
</a>
</g>
</g>
<!-- Node4&#45;&gt;Node1 -->
<g id="edge3" class="edge">
<title>Node4&#45;&gt;Node1</title>
<path fill="none" stroke="#9a32cd" stroke-dasharray="5,2" d="M128,-57.79C123.2,-45.31 117.04,-29.31 113.32,-19.63"/>
<polygon fill="#9a32cd" stroke="#9a32cd" points="124.77,-59.16 131.63,-67.23 131.31,-56.64 124.77,-59.16"/>
<text text-anchor="middle" x="157.5" y="-41" font-family="Helvetica,sans-Serif" font-size="10.00"> m_pDelegate</text>
</g>
</g>
</svg>
