<?xml version="1.0" encoding="UTF-8" standalone="no"?>
<!DOCTYPE svg PUBLIC "-//W3C//DTD SVG 1.1//EN"
 "http://www.w3.org/Graphics/SVG/1.1/DTD/svg11.dtd">
<!-- Generated by graphviz version 2.43.0 (0)
 -->
<!-- Title: XMLComment Pages: 1 -->
<svg width="225pt" height="195pt"
 viewBox="0.00 0.00 224.50 195.00" xmlns="http://www.w3.org/2000/svg" xmlns:xlink="http://www.w3.org/1999/xlink">
<g id="graph0" class="graph" transform="scale(1 1) rotate(0) translate(4 191)">
<title>XMLComment</title>
<!-- Node1 -->
<g id="node1" class="node">
<title>Node1</title>
<g id="a_node1"><a xlink:title="An XML Comment.">
<polygon fill="#999999" stroke="#666666" points="86,-19 0,-19 0,0 86,0 86,-19"/>
<text text-anchor="middle" x="43" y="-7" font-family="Helvetica,sans-Serif" font-size="10.00">XMLComment</text>
</a>
</g>
</g>
<!-- Node2 -->
<g id="node2" class="node">
<title>Node2</title>
<g id="a_node2"><a xlink:href="../../de/d13/classtinyxml2_1_1_x_m_l_node.html" target="_top" xlink:title="XMLNode is a base class for every object that is in the XML Document Object Model (DOM),...">
<polygon fill="white" stroke="#666666" points="146.5,-103 83.5,-103 83.5,-84 146.5,-84 146.5,-103"/>
<text text-anchor="middle" x="115" y="-91" font-family="Helvetica,sans-Serif" font-size="10.00">XMLNode</text>
</a>
</g>
</g>
<!-- Node2&#45;&gt;Node1 -->
<g id="edge1" class="edge">
<title>Node2&#45;&gt;Node1</title>
<path fill="none" stroke="#63b8ff" d="M100.64,-76.14C85.59,-59 62.52,-32.74 50.65,-19.21"/>
<polygon fill="#63b8ff" stroke="#63b8ff" points="98.07,-78.52 107.29,-83.72 103.33,-73.9 98.07,-78.52"/>
</g>
<!-- Node2&#45;&gt;Node2 -->
<g id="edge4" class="edge">
<title>Node2&#45;&gt;Node2</title>
<path fill="none" stroke="#9a32cd" stroke-dasharray="5,2" d="M156.8,-101.42C161.48,-99.92 164.5,-97.28 164.5,-93.5 164.5,-87.45 156.76,-84.32 146.9,-84.13"/>
<polygon fill="#9a32cd" stroke="#9a32cd" points="156.29,-97.95 146.9,-102.87 157.3,-104.88 156.29,-97.95"/>
<text text-anchor="middle" x="190.5" y="-113" font-family="Helvetica,sans-Serif" font-size="10.00"> _firstChild</text>
<text text-anchor="middle" x="190.5" y="-102" font-family="Helvetica,sans-Serif" font-size="10.00">_lastChild</text>
<text text-anchor="middle" x="190.5" y="-91" font-family="Helvetica,sans-Serif" font-size="10.00">_next</text>
<text text-anchor="middle" x="190.5" y="-80" font-family="Helvetica,sans-Serif" font-size="10.00">_parent</text>
<text text-anchor="middle" x="190.5" y="-69" font-family="Helvetica,sans-Serif" font-size="10.00">_prev</text>
</g>
<!-- Node3 -->
<g id="node3" class="node">
<title>Node3</title>
<g id="a_node3"><a xlink:href="../../dc/d59/classtinyxml2_1_1_x_m_l_document.html" target="_top" xlink:title="A Document binds together all the functionality.">
<polygon fill="white" stroke="#666666" points="192,-19 104,-19 104,0 192,0 192,-19"/>
<text text-anchor="middle" x="148" y="-7" font-family="Helvetica,sans-Serif" font-size="10.00">XMLDocument</text>
</a>
</g>
</g>
<!-- Node2&#45;&gt;Node3 -->
<g id="edge3" class="edge">
<title>Node2&#45;&gt;Node3</title>
<path fill="none" stroke="#63b8ff" d="M117.93,-73.7C120.08,-62.66 123.6,-48.64 129,-37 131.96,-30.63 136.51,-24.22 140.41,-19.29"/>
<polygon fill="#63b8ff" stroke="#63b8ff" points="114.42,-73.44 116.15,-83.89 121.31,-74.64 114.42,-73.44"/>
</g>
<!-- Node3&#45;&gt;Node2 -->
<g id="edge2" class="edge">
<title>Node3&#45;&gt;Node2</title>
<path fill="none" stroke="#9a32cd" stroke-dasharray="5,2" d="M140.68,-28.68C133.8,-45.78 123.79,-70.65 118.53,-83.72"/>
<polygon fill="#9a32cd" stroke="#9a32cd" points="144.01,-29.8 144.49,-19.21 137.51,-27.18 144.01,-29.8"/>
<text text-anchor="middle" x="166" y="-40" font-family="Helvetica,sans-Serif" font-size="10.00"> _document</text>
</g>
<!-- Node4 -->
<g id="node4" class="node">
<title>Node4</title>
<g id="a_node4"><a xlink:href="../../de/dc1/classtinyxml2_1_1_str_pair.html" target="_top" xlink:title=" ">
<polygon fill="white" stroke="#666666" points="139,-187 91,-187 91,-168 139,-168 139,-187"/>
<text text-anchor="middle" x="115" y="-175" font-family="Helvetica,sans-Serif" font-size="10.00">StrPair</text>
</a>
</g>
</g>
<!-- Node4&#45;&gt;Node2 -->
<g id="edge5" class="edge">
<title>Node4&#45;&gt;Node2</title>
<path fill="none" stroke="#9a32cd" stroke-dasharray="5,2" d="M115,-157.26C115,-140.18 115,-116 115,-103.21"/>
<polygon fill="#9a32cd" stroke="#9a32cd" points="111.5,-157.72 115,-167.72 118.5,-157.72 111.5,-157.72"/>
<text text-anchor="middle" x="133" y="-142" font-family="Helvetica,sans-Serif" font-size="10.00"> _value</text>
</g>
</g>
</svg>
