<?xml version="1.0" encoding="UTF-8" standalone="no"?>
<!DOCTYPE svg PUBLIC "-//W3C//DTD SVG 1.1//EN"
 "http://www.w3.org/Graphics/SVG/1.1/DTD/svg11.dtd">
<!-- Generated by graphviz version 2.43.0 (0)
 -->
<!-- Title: CCTMXTiledMap Pages: 1 -->
<svg width="1279pt" height="720pt"
 viewBox="0.00 0.00 1279.00 719.50" xmlns="http://www.w3.org/2000/svg" xmlns:xlink="http://www.w3.org/1999/xlink">
<g id="graph0" class="graph" transform="scale(1 1) rotate(0) translate(4 715.5)">
<title>CCTMXTiledMap</title>
<!-- Node1 -->
<g id="node1" class="node">
<title>Node1</title>
<g id="a_node1"><a xlink:title="CCTMXTiledMap knows how to parse and render a TMX map.">
<polygon fill="#999999" stroke="#666666" points="1271,-282 1174,-282 1174,-263 1271,-263 1271,-282"/>
<text text-anchor="middle" x="1222.5" y="-270" font-family="Helvetica,sans-Serif" font-size="10.00">CCTMXTiledMap</text>
</a>
</g>
</g>
<!-- Node2 -->
<g id="node2" class="node">
<title>Node2</title>
<g id="a_node2"><a xlink:href="../../d0/ded/classcocos2d_1_1_c_c_node.html" target="_top" xlink:title="CCNode is the main element.">
<polygon fill="white" stroke="#666666" points="1137,-397 1081,-397 1081,-378 1137,-378 1137,-397"/>
<text text-anchor="middle" x="1109" y="-385" font-family="Helvetica,sans-Serif" font-size="10.00">CCNode</text>
</a>
</g>
</g>
<!-- Node2&#45;&gt;Node1 -->
<g id="edge1" class="edge">
<title>Node2&#45;&gt;Node1</title>
<path fill="none" stroke="#63b8ff" d="M1126.77,-370.2C1150.51,-345.72 1193.11,-301.78 1212.02,-282.28"/>
<polygon fill="#63b8ff" stroke="#63b8ff" points="1123.95,-368.08 1119.51,-377.7 1128.98,-372.95 1123.95,-368.08"/>
</g>
<!-- Node2&#45;&gt;Node2 -->
<g id="edge23" class="edge">
<title>Node2&#45;&gt;Node2</title>
<path fill="none" stroke="#9a32cd" stroke-dasharray="5,2" d="M1100.58,-407.27C1101.34,-411.73 1104.15,-415 1109,-415 1117.18,-415 1119.54,-405.73 1116.09,-397.08"/>
<polygon fill="#9a32cd" stroke="#9a32cd" points="1104.09,-407.45 1101.91,-397.08 1097.15,-406.55 1104.09,-407.45"/>
<text text-anchor="middle" x="1109" y="-418" font-family="Helvetica,sans-Serif" font-size="10.00"> m_pParent</text>
</g>
<!-- Node3 -->
<g id="node3" class="node">
<title>Node3</title>
<g id="a_node3"><a xlink:href="../../d3/dbf/classcocos2d_1_1_c_c_object.html" target="_top" xlink:title="NA.">
<polygon fill="white" stroke="#666666" points="183,-438 121,-438 121,-419 183,-419 183,-438"/>
<text text-anchor="middle" x="152" y="-426" font-family="Helvetica,sans-Serif" font-size="10.00">CCObject</text>
</a>
</g>
</g>
<!-- Node3&#45;&gt;Node2 -->
<g id="edge2" class="edge">
<title>Node3&#45;&gt;Node2</title>
<path fill="none" stroke="#63b8ff" d="M158.77,-447.59C167.01,-471.01 184.59,-509.69 215,-526.5 283.04,-564.11 1025.64,-553.74 1063,-526.5 1105.63,-495.42 1108.69,-423.08 1108.34,-397.05"/>
<polygon fill="#63b8ff" stroke="#63b8ff" points="162.08,-446.44 155.64,-438.03 155.43,-448.62 162.08,-446.44"/>
</g>
<!-- Node3&#45;&gt;Node2 -->
<g id="edge24" class="edge">
<title>Node3&#45;&gt;Node2</title>
<path fill="none" stroke="#9a32cd" stroke-dasharray="5,2" d="M173.23,-444.13C206.76,-468.43 276.83,-512.5 344,-512.5 344,-512.5 344,-512.5 851,-512.5 946.65,-512.5 986.02,-532.27 1063,-475.5 1089.79,-455.74 1101.82,-415.39 1106.07,-397.01"/>
<polygon fill="#9a32cd" stroke="#9a32cd" points="175.26,-441.28 165.14,-438.14 171.09,-446.9 175.26,-441.28"/>
<text text-anchor="middle" x="573" y="-515.5" font-family="Helvetica,sans-Serif" font-size="10.00"> m_pUserObject</text>
</g>
<!-- Node8 -->
<g id="node8" class="node">
<title>Node8</title>
<g id="a_node8"><a xlink:href="../../d2/d51/classcocos2d_1_1_c_c_camera.html" target="_top" xlink:title="A CCCamera is used in every CCNode.">
<polygon fill="white" stroke="#666666" points="489,-476 421,-476 421,-457 489,-457 489,-476"/>
<text text-anchor="middle" x="455" y="-464" font-family="Helvetica,sans-Serif" font-size="10.00">CCCamera</text>
</a>
</g>
</g>
<!-- Node3&#45;&gt;Node8 -->
<g id="edge8" class="edge">
<title>Node3&#45;&gt;Node8</title>
<path fill="none" stroke="#63b8ff" d="M193.13,-438.31C200.38,-439.87 207.89,-441.35 215,-442.5 288.06,-454.37 374.71,-461.32 420.97,-464.46"/>
<polygon fill="#63b8ff" stroke="#63b8ff" points="193.65,-434.84 183.13,-436.08 192.13,-441.67 193.65,-434.84"/>
</g>
<!-- Node9 -->
<g id="node9" class="node">
<title>Node9</title>
<g id="a_node9"><a xlink:href="../../d6/d70/classcocos2d_1_1_c_c_grid_base.html" target="_top" xlink:title="Base class for other.">
<polygon fill="white" stroke="#666666" points="887,-254 813,-254 813,-235 887,-235 887,-254"/>
<text text-anchor="middle" x="850" y="-242" font-family="Helvetica,sans-Serif" font-size="10.00">CCGridBase</text>
</a>
</g>
</g>
<!-- Node3&#45;&gt;Node9 -->
<g id="edge10" class="edge">
<title>Node3&#45;&gt;Node9</title>
<path fill="none" stroke="#63b8ff" d="M163.52,-410.28C193.43,-360.75 284.66,-224.82 405,-187.5 481.27,-163.85 721.2,-214.9 812.89,-235.96"/>
<polygon fill="#63b8ff" stroke="#63b8ff" points="160.45,-408.6 158.36,-418.98 166.47,-412.16 160.45,-408.6"/>
</g>
<!-- Node10 -->
<g id="node10" class="node">
<title>Node10</title>
<g id="a_node10"><a xlink:href="../../d7/dfd/classcocos2d_1_1_c_c_texture2_d.html" target="_top" xlink:title="CCTexture2D class.">
<polygon fill="white" stroke="#666666" points="613,-306 533,-306 533,-287 613,-287 613,-306"/>
<text text-anchor="middle" x="573" y="-294" font-family="Helvetica,sans-Serif" font-size="10.00">CCTexture2D</text>
</a>
</g>
</g>
<!-- Node3&#45;&gt;Node10 -->
<g id="edge13" class="edge">
<title>Node3&#45;&gt;Node10</title>
<path fill="none" stroke="#63b8ff" d="M192.74,-415.98C275.99,-389.75 467.16,-329.53 541.58,-306.08"/>
<polygon fill="#63b8ff" stroke="#63b8ff" points="191.62,-412.66 183.13,-419.01 193.72,-419.34 191.62,-412.66"/>
</g>
<!-- Node11 -->
<g id="node11" class="node">
<title>Node11</title>
<g id="a_node11"><a xlink:href="../../db/d28/classcocos2d_1_1_c_c_g_l_program.html" target="_top" xlink:title="CCGLProgram Class that implements a glProgram.">
<polygon fill="white" stroke="#666666" points="387,-145 303,-145 303,-126 387,-126 387,-145"/>
<text text-anchor="middle" x="345" y="-133" font-family="Helvetica,sans-Serif" font-size="10.00">CCGLProgram</text>
</a>
</g>
</g>
<!-- Node3&#45;&gt;Node11 -->
<g id="edge16" class="edge">
<title>Node3&#45;&gt;Node11</title>
<path fill="none" stroke="#63b8ff" d="M154.76,-408.96C160.22,-353.07 178.66,-194.32 215,-159.5 238.03,-137.43 274.45,-132.33 302.73,-132.23"/>
<polygon fill="#63b8ff" stroke="#63b8ff" points="151.27,-408.69 153.82,-418.97 158.24,-409.35 151.27,-408.69"/>
</g>
<!-- Node12 -->
<g id="node12" class="node">
<title>Node12</title>
<g id="a_node12"><a xlink:href="../../d3/d89/classcocos2d_1_1_c_c_grabber.html" target="_top" xlink:title="FBO class that grabs the the contents of the screen NA NA.">
<polygon fill="white" stroke="#666666" points="489.5,-66 420.5,-66 420.5,-47 489.5,-47 489.5,-66"/>
<text text-anchor="middle" x="455" y="-54" font-family="Helvetica,sans-Serif" font-size="10.00">CCGrabber</text>
</a>
</g>
</g>
<!-- Node3&#45;&gt;Node12 -->
<g id="edge19" class="edge">
<title>Node3&#45;&gt;Node12</title>
<path fill="none" stroke="#63b8ff" d="M154.49,-408.99C159.41,-349.36 177.08,-171.08 215,-129.5 268.65,-70.68 368.18,-58.68 420.26,-56.59"/>
<polygon fill="#63b8ff" stroke="#63b8ff" points="151,-408.72 153.69,-418.97 157.97,-409.28 151,-408.72"/>
</g>
<!-- Node13 -->
<g id="node13" class="node">
<title>Node13</title>
<g id="a_node13"><a xlink:href="../../d9/d2e/classcocos2d_1_1_c_c_array.html" target="_top" xlink:title="NA.">
<polygon fill="white" stroke="#666666" points="601,-627 545,-627 545,-608 601,-608 601,-627"/>
<text text-anchor="middle" x="573" y="-615" font-family="Helvetica,sans-Serif" font-size="10.00">CCArray</text>
</a>
</g>
</g>
<!-- Node3&#45;&gt;Node13 -->
<g id="edge22" class="edge">
<title>Node3&#45;&gt;Node13</title>
<path fill="none" stroke="#63b8ff" d="M155.89,-448.28C161.46,-478.76 176.71,-536.68 215,-565.5 316.08,-641.59 479.92,-629.98 544.54,-621.69"/>
<polygon fill="#63b8ff" stroke="#63b8ff" points="159.28,-447.36 154.2,-438.06 152.38,-448.5 159.28,-447.36"/>
</g>
<!-- Node14 -->
<g id="node14" class="node">
<title>Node14</title>
<g id="a_node14"><a xlink:href="../../de/dee/classcocos2d_1_1_c_c_scheduler.html" target="_top" xlink:title="Scheduler is responsible for triggering the scheduled callbacks.">
<polygon fill="white" stroke="#666666" points="889,-645 811,-645 811,-626 889,-626 889,-645"/>
<text text-anchor="middle" x="850" y="-633" font-family="Helvetica,sans-Serif" font-size="10.00">CCScheduler</text>
</a>
</g>
</g>
<!-- Node3&#45;&gt;Node14 -->
<g id="edge27" class="edge">
<title>Node3&#45;&gt;Node14</title>
<path fill="none" stroke="#63b8ff" d="M155.07,-448.58C159.67,-483.27 173.84,-554.71 215,-596.5 244.42,-626.37 262.21,-620.81 303,-630.5 489.07,-674.7 720.97,-652.34 810.9,-640.88"/>
<polygon fill="#63b8ff" stroke="#63b8ff" points="158.5,-447.83 153.85,-438.32 151.55,-448.66 158.5,-447.83"/>
</g>
<!-- Node15 -->
<g id="node15" class="node">
<title>Node15</title>
<g id="a_node15"><a xlink:href="../../d5/dcb/classcocos2d_1_1_c_c_action_manager.html" target="_top" xlink:title="CCActionManager is a singleton that manages all the actions.">
<polygon fill="white" stroke="#666666" points="755,-441 651,-441 651,-422 755,-422 755,-441"/>
<text text-anchor="middle" x="703" y="-429" font-family="Helvetica,sans-Serif" font-size="10.00">CCActionManager</text>
</a>
</g>
</g>
<!-- Node3&#45;&gt;Node15 -->
<g id="edge30" class="edge">
<title>Node3&#45;&gt;Node15</title>
<path fill="none" stroke="#63b8ff" d="M193.41,-428.72C291.58,-429.26 542.51,-430.63 650.88,-431.22"/>
<polygon fill="#63b8ff" stroke="#63b8ff" points="193.32,-425.22 183.3,-428.67 193.28,-432.22 193.32,-425.22"/>
</g>
<!-- Node17 -->
<g id="node17" class="node">
<title>Node17</title>
<g id="a_node17"><a xlink:href="../../d7/d5f/classcocos2d_1_1_c_c_dictionary.html" target="_top" xlink:title="CCDictionary is a class like NSDictionary in Obj&#45;C .">
<polygon fill="white" stroke="#666666" points="385,-19 305,-19 305,0 385,0 385,-19"/>
<text text-anchor="middle" x="345" y="-7" font-family="Helvetica,sans-Serif" font-size="10.00">CCDictionary</text>
</a>
</g>
</g>
<!-- Node3&#45;&gt;Node17 -->
<g id="edge35" class="edge">
<title>Node3&#45;&gt;Node17</title>
<path fill="none" stroke="#63b8ff" d="M153.91,-408.54C157.37,-340.34 171.82,-117.86 215,-63.5 227.5,-47.77 277.75,-29.81 311.72,-19.08"/>
<polygon fill="#63b8ff" stroke="#63b8ff" points="150.4,-408.6 153.41,-418.76 157.39,-408.94 150.4,-408.6"/>
</g>
<!-- Node4 -->
<g id="node4" class="node">
<title>Node4</title>
<g id="a_node4"><a xlink:href="../../d5/d61/classcocos2d_1_1_c_c_copying.html" target="_top" xlink:title="NA NA.">
<polygon fill="white" stroke="#666666" points="70,-438 0,-438 0,-419 70,-419 70,-438"/>
<text text-anchor="middle" x="35" y="-426" font-family="Helvetica,sans-Serif" font-size="10.00">CCCopying</text>
</a>
</g>
</g>
<!-- Node4&#45;&gt;Node3 -->
<g id="edge3" class="edge">
<title>Node4&#45;&gt;Node3</title>
<path fill="none" stroke="#63b8ff" d="M80.26,-428.5C93.76,-428.5 108.29,-428.5 120.65,-428.5"/>
<polygon fill="#63b8ff" stroke="#63b8ff" points="80.19,-425 70.19,-428.5 80.19,-432 80.19,-425"/>
</g>
<!-- Node5 -->
<g id="node5" class="node">
<title>Node5</title>
<g id="a_node5"><a xlink:href="../../d2/df3/classcocos2d_1_1_c_c_point.html" target="_top" xlink:title="NA.">
<polygon fill="white" stroke="#666666" points="600.5,-343 545.5,-343 545.5,-324 600.5,-324 600.5,-343"/>
<text text-anchor="middle" x="573" y="-331" font-family="Helvetica,sans-Serif" font-size="10.00">CCPoint</text>
</a>
</g>
</g>
<!-- Node5&#45;&gt;Node2 -->
<g id="edge4" class="edge">
<title>Node5&#45;&gt;Node2</title>
<path fill="none" stroke="#9a32cd" stroke-dasharray="5,2" d="M610.57,-337.82C650.24,-340.99 714.64,-341.63 765,-320.5 774.87,-316.36 773,-308.3 783,-304.5 838.67,-283.34 857.81,-297.89 917,-304.5 983.12,-311.88 1005.61,-303.86 1063,-337.5 1080.13,-347.54 1094.35,-366.29 1101.98,-377.76"/>
<polygon fill="#9a32cd" stroke="#9a32cd" points="610.83,-334.33 600.55,-336.93 610.2,-341.3 610.83,-334.33"/>
<text text-anchor="middle" x="850" y="-329.5" font-family="Helvetica,sans-Serif" font-size="10.00"> m_obAnchorPoint</text>
<text text-anchor="middle" x="850" y="-318.5" font-family="Helvetica,sans-Serif" font-size="10.00">m_obAnchorPointInPoints</text>
<text text-anchor="middle" x="850" y="-307.5" font-family="Helvetica,sans-Serif" font-size="10.00">m_obPosition</text>
</g>
<!-- Node5&#45;&gt;Node9 -->
<g id="edge17" class="edge">
<title>Node5&#45;&gt;Node9</title>
<path fill="none" stroke="#9a32cd" stroke-dasharray="5,2" d="M609.93,-320.35C624,-315.26 637.61,-310.42 641,-309.5 695.11,-294.89 715.4,-312.6 765,-286.5 775.01,-281.23 773.46,-274.58 783,-268.5 792.46,-262.47 803.65,-257.68 814.09,-254.01"/>
<polygon fill="#9a32cd" stroke="#9a32cd" points="608.43,-317.17 600.23,-323.88 610.83,-323.75 608.43,-317.17"/>
<text text-anchor="middle" x="703" y="-312.5" font-family="Helvetica,sans-Serif" font-size="10.00"> m_obStep</text>
</g>
<!-- Node6 -->
<g id="node6" class="node">
<title>Node6</title>
<g id="a_node6"><a xlink:href="../../d9/d24/classcocos2d_1_1_c_c_size.html" target="_top" xlink:title="NA.">
<polygon fill="white" stroke="#666666" points="370,-285 320,-285 320,-266 370,-266 370,-285"/>
<text text-anchor="middle" x="345" y="-273" font-family="Helvetica,sans-Serif" font-size="10.00">CCSize</text>
</a>
</g>
</g>
<!-- Node6&#45;&gt;Node1 -->
<g id="edge32" class="edge">
<title>Node6&#45;&gt;Node1</title>
<path fill="none" stroke="#9a32cd" stroke-dasharray="5,2" d="M379.09,-262.27C466.33,-228.91 710.11,-145.46 917,-166.5 982.9,-173.2 1000.22,-175.35 1063,-196.5 1117.08,-214.72 1176.73,-246.87 1204.95,-262.88"/>
<polygon fill="#9a32cd" stroke="#9a32cd" points="377.78,-259.03 369.71,-265.9 380.3,-265.56 377.78,-259.03"/>
<text text-anchor="middle" x="850" y="-180.5" font-family="Helvetica,sans-Serif" font-size="10.00"> m_tMapSize</text>
<text text-anchor="middle" x="850" y="-169.5" font-family="Helvetica,sans-Serif" font-size="10.00">m_tTileSize</text>
</g>
<!-- Node6&#45;&gt;Node2 -->
<g id="edge5" class="edge">
<title>Node6&#45;&gt;Node2</title>
<path fill="none" stroke="#9a32cd" stroke-dasharray="5,2" d="M371.41,-290.32C404.87,-308.93 466.11,-339.94 523,-352.5 694.19,-390.29 742.06,-360.1 917,-371.5 975.44,-375.31 1043.8,-381.44 1080.82,-384.91"/>
<polygon fill="#9a32cd" stroke="#9a32cd" points="372.78,-287.07 362.35,-285.2 369.34,-293.17 372.78,-287.07"/>
<text text-anchor="middle" x="703" y="-374.5" font-family="Helvetica,sans-Serif" font-size="10.00"> m_obContentSize</text>
</g>
<!-- Node6&#45;&gt;Node9 -->
<g id="edge11" class="edge">
<title>Node6&#45;&gt;Node9</title>
<path fill="none" stroke="#9a32cd" stroke-dasharray="5,2" d="M380.31,-273.01C435.31,-269.05 546.61,-261.2 641,-255.5 701.28,-251.86 771.43,-248.29 812.92,-246.25"/>
<polygon fill="#9a32cd" stroke="#9a32cd" points="379.81,-269.54 370.08,-273.75 380.31,-276.52 379.81,-269.54"/>
<text text-anchor="middle" x="573" y="-265.5" font-family="Helvetica,sans-Serif" font-size="10.00"> m_sGridSize</text>
</g>
<!-- Node6&#45;&gt;Node10 -->
<g id="edge14" class="edge">
<title>Node6&#45;&gt;Node10</title>
<path fill="none" stroke="#9a32cd" stroke-dasharray="5,2" d="M380.24,-278.68C421.26,-282.49 489.84,-288.87 532.91,-292.87"/>
<polygon fill="#9a32cd" stroke="#9a32cd" points="380.47,-275.19 370.19,-277.75 379.82,-282.16 380.47,-275.19"/>
<text text-anchor="middle" x="455" y="-292.5" font-family="Helvetica,sans-Serif" font-size="10.00"> m_tContentSize</text>
</g>
<!-- Node7 -->
<g id="node7" class="node">
<title>Node7</title>
<g id="a_node7"><a xlink:href="../../da/dbf/structcocos2d_1_1_c_c_affine_transform.html" target="_top" xlink:title=" ">
<polygon fill="white" stroke="#666666" points="903.5,-399 796.5,-399 796.5,-380 903.5,-380 903.5,-399"/>
<text text-anchor="middle" x="850" y="-387" font-family="Helvetica,sans-Serif" font-size="10.00">CCAffineTransform</text>
</a>
</g>
</g>
<!-- Node7&#45;&gt;Node2 -->
<g id="edge6" class="edge">
<title>Node7&#45;&gt;Node2</title>
<path fill="none" stroke="#9a32cd" stroke-dasharray="5,2" d="M914.13,-388.71C921.17,-388.63 928.24,-388.56 935,-388.5 986.51,-388.04 1046.65,-387.75 1080.73,-387.61"/>
<polygon fill="#9a32cd" stroke="#9a32cd" points="913.83,-385.21 903.87,-388.82 913.91,-392.21 913.83,-385.21"/>
<text text-anchor="middle" x="999" y="-413.5" font-family="Helvetica,sans-Serif" font-size="10.00"> m_sAdditionalTransform</text>
<text text-anchor="middle" x="999" y="-402.5" font-family="Helvetica,sans-Serif" font-size="10.00">m_sInverse</text>
<text text-anchor="middle" x="999" y="-391.5" font-family="Helvetica,sans-Serif" font-size="10.00">m_sTransform</text>
</g>
<!-- Node8&#45;&gt;Node2 -->
<g id="edge7" class="edge">
<title>Node8&#45;&gt;Node2</title>
<path fill="none" stroke="#9a32cd" stroke-dasharray="5,2" d="M499.44,-470.18C621.77,-479.76 966.56,-501.2 1063,-447.5 1083.48,-436.1 1097.41,-411.07 1103.87,-397.21"/>
<polygon fill="#9a32cd" stroke="#9a32cd" points="499.56,-466.68 489.32,-469.37 499.01,-473.66 499.56,-466.68"/>
<text text-anchor="middle" x="703" y="-484.5" font-family="Helvetica,sans-Serif" font-size="10.00"> m_pCamera</text>
</g>
<!-- Node9&#45;&gt;Node2 -->
<g id="edge9" class="edge">
<title>Node9&#45;&gt;Node2</title>
<path fill="none" stroke="#9a32cd" stroke-dasharray="5,2" d="M897.19,-236.02C943.92,-230.17 1015.8,-229.01 1063,-265.5 1099.44,-293.67 1106.38,-354.41 1107.69,-377.93"/>
<polygon fill="#9a32cd" stroke="#9a32cd" points="896.47,-232.58 887.04,-237.41 897.43,-239.52 896.47,-232.58"/>
<text text-anchor="middle" x="999" y="-268.5" font-family="Helvetica,sans-Serif" font-size="10.00"> m_pGrid</text>
</g>
<!-- Node10&#45;&gt;Node9 -->
<g id="edge12" class="edge">
<title>Node10&#45;&gt;Node9</title>
<path fill="none" stroke="#9a32cd" stroke-dasharray="5,2" d="M610.88,-283.81C620.6,-280.78 631.12,-277.77 641,-275.5 700.6,-261.81 771.25,-252.76 812.98,-248.14"/>
<polygon fill="#9a32cd" stroke="#9a32cd" points="609.57,-280.55 601.12,-286.94 611.71,-287.22 609.57,-280.55"/>
<text text-anchor="middle" x="703" y="-278.5" font-family="Helvetica,sans-Serif" font-size="10.00"> m_pTexture</text>
</g>
<!-- Node11&#45;&gt;Node2 -->
<g id="edge25" class="edge">
<title>Node11&#45;&gt;Node2</title>
<path fill="none" stroke="#9a32cd" stroke-dasharray="5,2" d="M367.9,-120.34C378.58,-113.83 391.92,-106.94 405,-103.5 625.51,-45.56 700.16,-65.04 917,-135.5 983.88,-157.23 1017.52,-142.86 1063,-196.5 1109.92,-251.85 1109.92,-347.32 1108.59,-377.83"/>
<polygon fill="#9a32cd" stroke="#9a32cd" points="365.81,-117.53 359.27,-125.87 369.58,-123.42 365.81,-117.53"/>
<text text-anchor="middle" x="703" y="-92.5" font-family="Helvetica,sans-Serif" font-size="10.00"> m_pShaderProgram</text>
</g>
<!-- Node11&#45;&gt;Node9 -->
<g id="edge20" class="edge">
<title>Node11&#45;&gt;Node9</title>
<path fill="none" stroke="#9a32cd" stroke-dasharray="5,2" d="M392.19,-123.75C477.03,-105.16 658.71,-79.74 765,-170.5 784.88,-187.48 764.11,-208.43 783,-226.5 791.07,-234.22 802.11,-238.69 812.85,-241.27"/>
<polygon fill="#9a32cd" stroke="#9a32cd" points="391.32,-120.36 382.34,-125.97 392.86,-127.19 391.32,-120.36"/>
<text text-anchor="middle" x="573" y="-113.5" font-family="Helvetica,sans-Serif" font-size="10.00"> m_pShaderProgram</text>
</g>
<!-- Node11&#45;&gt;Node10 -->
<g id="edge15" class="edge">
<title>Node11&#45;&gt;Node10</title>
<path fill="none" stroke="#9a32cd" stroke-dasharray="5,2" d="M364.93,-152.25C396.33,-179.54 461.8,-234.38 523,-272.5 531.52,-277.81 541.39,-282.84 550.02,-286.9"/>
<polygon fill="#9a32cd" stroke="#9a32cd" points="366.84,-149.27 357.01,-145.32 362.23,-154.54 366.84,-149.27"/>
<text text-anchor="middle" x="455" y="-261.5" font-family="Helvetica,sans-Serif" font-size="10.00"> m_pShaderProgram</text>
</g>
<!-- Node12&#45;&gt;Node9 -->
<g id="edge18" class="edge">
<title>Node12&#45;&gt;Node9</title>
<path fill="none" stroke="#9a32cd" stroke-dasharray="5,2" d="M497.86,-44.38C564.1,-28.05 692.92,-8.27 765,-76.5 813.76,-122.66 739.13,-175.67 783,-226.5 790.53,-235.22 801.83,-239.92 812.96,-242.39"/>
<polygon fill="#9a32cd" stroke="#9a32cd" points="496.6,-41.09 487.78,-46.96 498.34,-47.87 496.6,-41.09"/>
<text text-anchor="middle" x="573" y="-41.5" font-family="Helvetica,sans-Serif" font-size="10.00"> m_pGrabber</text>
</g>
<!-- Node13&#45;&gt;Node1 -->
<g id="edge33" class="edge">
<title>Node13&#45;&gt;Node1</title>
<path fill="none" stroke="#9a32cd" stroke-dasharray="5,2" d="M602.93,-631.39C683.7,-667.94 915.4,-757.45 1063,-658.5 1200.19,-566.53 1218.74,-332.2 1221.15,-282.04"/>
<polygon fill="#9a32cd" stroke="#9a32cd" points="603.96,-628.01 593.41,-627 601.03,-634.36 603.96,-628.01"/>
<text text-anchor="middle" x="999" y="-703.5" font-family="Helvetica,sans-Serif" font-size="10.00"> m_pObjectGroups</text>
</g>
<!-- Node13&#45;&gt;Node2 -->
<g id="edge21" class="edge">
<title>Node13&#45;&gt;Node2</title>
<path fill="none" stroke="#9a32cd" stroke-dasharray="5,2" d="M611.28,-615.88C719.63,-610.84 1029.03,-593.99 1063,-564.5 1088.98,-541.95 1103.25,-430.45 1106.99,-397"/>
<polygon fill="#9a32cd" stroke="#9a32cd" points="610.97,-612.39 601.14,-616.34 611.29,-619.38 610.97,-612.39"/>
<text text-anchor="middle" x="850" y="-608.5" font-family="Helvetica,sans-Serif" font-size="10.00"> m_pChildren</text>
</g>
<!-- Node13&#45;&gt;Node14 -->
<g id="edge28" class="edge">
<title>Node13&#45;&gt;Node14</title>
<path fill="none" stroke="#9a32cd" stroke-dasharray="5,2" d="M611.29,-619.94C663.52,-623.36 757.98,-629.54 810.74,-633"/>
<polygon fill="#9a32cd" stroke="#9a32cd" points="611.33,-616.44 601.12,-619.28 610.87,-623.42 611.33,-616.44"/>
<text text-anchor="middle" x="703" y="-632.5" font-family="Helvetica,sans-Serif" font-size="10.00"> m_pScriptHandlerEntries</text>
</g>
<!-- Node14&#45;&gt;Node2 -->
<g id="edge26" class="edge">
<title>Node14&#45;&gt;Node2</title>
<path fill="none" stroke="#9a32cd" stroke-dasharray="5,2" d="M899.46,-644.51C947.26,-650.4 1019.33,-650.74 1063,-610.5 1095.1,-580.93 1105.31,-436.22 1107.51,-397.21"/>
<polygon fill="#9a32cd" stroke="#9a32cd" points="899.73,-641.02 889.36,-643.14 898.79,-647.96 899.73,-641.02"/>
<text text-anchor="middle" x="999" y="-649.5" font-family="Helvetica,sans-Serif" font-size="10.00"> m_pScheduler</text>
</g>
<!-- Node15&#45;&gt;Node2 -->
<g id="edge29" class="edge">
<title>Node15&#45;&gt;Node2</title>
<path fill="none" stroke="#9a32cd" stroke-dasharray="5,2" d="M765.07,-440.83C838.19,-449.53 963.26,-456.5 1063,-421.5 1077.23,-416.51 1090.62,-405.22 1099.04,-397.01"/>
<polygon fill="#9a32cd" stroke="#9a32cd" points="765.46,-437.35 755.11,-439.59 764.6,-444.3 765.46,-437.35"/>
<text text-anchor="middle" x="850" y="-450.5" font-family="Helvetica,sans-Serif" font-size="10.00"> m_pActionManager</text>
</g>
<!-- Node16 -->
<g id="node16" class="node">
<title>Node16</title>
<g id="a_node16"><a xlink:href="../../d1/d65/classcocos2d_1_1_c_c_component_container.html" target="_top" xlink:title="NA NA.">
<polygon fill="white" stroke="#666666" points="917,-217 783,-217 783,-198 917,-198 917,-217"/>
<text text-anchor="middle" x="850" y="-205" font-family="Helvetica,sans-Serif" font-size="10.00">CCComponentContainer</text>
</a>
</g>
</g>
<!-- Node16&#45;&gt;Node2 -->
<g id="edge31" class="edge">
<title>Node16&#45;&gt;Node2</title>
<path fill="none" stroke="#9a32cd" stroke-dasharray="5,2" d="M927.28,-201.91C979.41,-199.78 1042.61,-201.03 1063,-217.5 1088.65,-238.22 1103.05,-345 1106.93,-377.86"/>
<polygon fill="#9a32cd" stroke="#9a32cd" points="926.85,-198.43 917.02,-202.38 927.17,-205.42 926.85,-198.43"/>
<text text-anchor="middle" x="999" y="-220.5" font-family="Helvetica,sans-Serif" font-size="10.00"> m_pComponentContainer</text>
</g>
<!-- Node17&#45;&gt;Node1 -->
<g id="edge34" class="edge">
<title>Node17&#45;&gt;Node1</title>
<path fill="none" stroke="#9a32cd" stroke-dasharray="5,2" d="M395.43,-7.43C441.21,-5.7 511.19,-3.5 572,-3.5 572,-3.5 572,-3.5 1110,-3.5 1224.76,-3.5 1223.67,-215.01 1221.95,-262.93"/>
<polygon fill="#9a32cd" stroke="#9a32cd" points="395.04,-3.94 385.19,-7.83 395.31,-10.94 395.04,-3.94"/>
<text text-anchor="middle" x="850" y="-17.5" font-family="Helvetica,sans-Serif" font-size="10.00"> m_pProperties</text>
<text text-anchor="middle" x="850" y="-6.5" font-family="Helvetica,sans-Serif" font-size="10.00">m_pTileProperties</text>
</g>
<!-- Node18 -->
<g id="node18" class="node">
<title>Node18</title>
<g id="a_node18"><a xlink:href="../../d0/da2/classcocos2d_1_1_c_c_dict_element.html" target="_top" xlink:title="CCDictElement is used for traversing CCDictionary.">
<polygon fill="white" stroke="#666666" points="197,-19 107,-19 107,0 197,0 197,-19"/>
<text text-anchor="middle" x="152" y="-7" font-family="Helvetica,sans-Serif" font-size="10.00">CCDictElement</text>
</a>
</g>
</g>
<!-- Node18&#45;&gt;Node17 -->
<g id="edge36" class="edge">
<title>Node18&#45;&gt;Node17</title>
<path fill="none" stroke="#9a32cd" stroke-dasharray="5,2" d="M207.53,-9.5C238.57,-9.5 276.73,-9.5 304.8,-9.5"/>
<polygon fill="#9a32cd" stroke="#9a32cd" points="207.3,-6 197.3,-9.5 207.3,-13 207.3,-6"/>
<text text-anchor="middle" x="250" y="-12.5" font-family="Helvetica,sans-Serif" font-size="10.00"> m_pElements</text>
</g>
</g>
</svg>
