<?xml version="1.0" encoding="UTF-8" standalone="no"?>
<!DOCTYPE svg PUBLIC "-//W3C//DTD SVG 1.1//EN"
 "http://www.w3.org/Graphics/SVG/1.1/DTD/svg11.dtd">
<!-- Generated by graphviz version 2.43.0 (0)
 -->
<!-- Title: CCTransitionSceneOriented Pages: 1 -->
<svg width="888pt" height="218pt"
 viewBox="0.00 0.00 888.00 218.00" xmlns="http://www.w3.org/2000/svg" xmlns:xlink="http://www.w3.org/1999/xlink">
<g id="graph0" class="graph" transform="scale(1 1) rotate(0) translate(4 214)">
<title>CCTransitionSceneOriented</title>
<!-- Node1 -->
<g id="node1" class="node">
<title>Node1</title>
<g id="a_node1"><a xlink:title="A CCTransition that supports orientation like.">
<polygon fill="#bfbfbf" stroke="black" points="534,-95.5 534,-114.5 683,-114.5 683,-95.5 534,-95.5"/>
<text text-anchor="middle" x="608.5" y="-102.5" font-family="Helvetica,sans-Serif" font-size="10.00">CCTransitionSceneOriented</text>
</a>
</g>
</g>
<!-- Node7 -->
<g id="node7" class="node">
<title>Node7</title>
<g id="a_node7"><a xlink:href="../../de/d08/classcocos2d_1_1_c_c_transition_flip_angular.html" target="_top" xlink:title="CCTransitionFlipAngular: Flips the screen half horizontally and half vertically.">
<polygon fill="none" stroke="black" points="733,-190.5 733,-209.5 866,-209.5 866,-190.5 733,-190.5"/>
<text text-anchor="middle" x="799.5" y="-197.5" font-family="Helvetica,sans-Serif" font-size="10.00">CCTransitionFlipAngular</text>
</a>
</g>
</g>
<!-- Node1&#45;&gt;Node7 -->
<g id="edge6" class="edge">
<title>Node1&#45;&gt;Node7</title>
<path fill="none" stroke="midnightblue" d="M628.2,-121.27C649.01,-138.55 684.28,-165.47 719,-181 727.55,-184.82 736.97,-187.94 746.26,-190.46"/>
<polygon fill="midnightblue" stroke="midnightblue" points="630.36,-118.52 620.47,-114.74 625.85,-123.86 630.36,-118.52"/>
</g>
<!-- Node8 -->
<g id="node8" class="node">
<title>Node8</title>
<g id="a_node8"><a xlink:href="../../d9/d4a/classcocos2d_1_1_c_c_transition_flip_x.html" target="_top" xlink:title="CCTransitionFlipX: Flips the screen horizontally.">
<polygon fill="none" stroke="black" points="748.5,-152.5 748.5,-171.5 850.5,-171.5 850.5,-152.5 748.5,-152.5"/>
<text text-anchor="middle" x="799.5" y="-159.5" font-family="Helvetica,sans-Serif" font-size="10.00">CCTransitionFlipX</text>
</a>
</g>
</g>
<!-- Node1&#45;&gt;Node8 -->
<g id="edge7" class="edge">
<title>Node1&#45;&gt;Node8</title>
<path fill="none" stroke="midnightblue" d="M644.54,-118.16C665.89,-125.92 693.82,-135.64 719,-143 730.58,-146.38 743.23,-149.61 754.97,-152.42"/>
<polygon fill="midnightblue" stroke="midnightblue" points="645.53,-114.79 634.93,-114.63 643.12,-121.36 645.53,-114.79"/>
</g>
<!-- Node9 -->
<g id="node9" class="node">
<title>Node9</title>
<g id="a_node9"><a xlink:href="../../d4/dfa/classcocos2d_1_1_c_c_transition_flip_y.html" target="_top" xlink:title="CCTransitionFlipY: Flips the screen vertically.">
<polygon fill="none" stroke="black" points="749,-114.5 749,-133.5 850,-133.5 850,-114.5 749,-114.5"/>
<text text-anchor="middle" x="799.5" y="-121.5" font-family="Helvetica,sans-Serif" font-size="10.00">CCTransitionFlipY</text>
</a>
</g>
</g>
<!-- Node1&#45;&gt;Node9 -->
<g id="edge8" class="edge">
<title>Node1&#45;&gt;Node9</title>
<path fill="none" stroke="midnightblue" d="M693.3,-113.42C712.32,-115.34 731.93,-117.31 748.99,-119.02"/>
<polygon fill="midnightblue" stroke="midnightblue" points="693.41,-109.92 683.11,-112.4 692.71,-116.88 693.41,-109.92"/>
</g>
<!-- Node10 -->
<g id="node10" class="node">
<title>Node10</title>
<g id="a_node10"><a xlink:href="../../d1/d91/classcocos2d_1_1_c_c_transition_zoom_flip_angular.html" target="_top" xlink:title="CCTransitionZoomFlipAngular: Flips the screen half horizontally and half vertically doing a little zo...">
<polygon fill="none" stroke="black" points="719,-76.5 719,-95.5 880,-95.5 880,-76.5 719,-76.5"/>
<text text-anchor="middle" x="799.5" y="-83.5" font-family="Helvetica,sans-Serif" font-size="10.00">CCTransitionZoomFlipAngular</text>
</a>
</g>
</g>
<!-- Node1&#45;&gt;Node10 -->
<g id="edge9" class="edge">
<title>Node1&#45;&gt;Node10</title>
<path fill="none" stroke="midnightblue" d="M693.09,-96.6C701.64,-95.74 710.32,-94.86 718.83,-94.01"/>
<polygon fill="midnightblue" stroke="midnightblue" points="692.71,-93.12 683.11,-97.6 693.41,-100.08 692.71,-93.12"/>
</g>
<!-- Node11 -->
<g id="node11" class="node">
<title>Node11</title>
<g id="a_node11"><a xlink:href="../../da/df6/classcocos2d_1_1_c_c_transition_zoom_flip_x.html" target="_top" xlink:title="CCTransitionZoomFlipX: Flips the screen horizontally doing a zoom out/in The front face is the outgoi...">
<polygon fill="none" stroke="black" points="734,-38.5 734,-57.5 865,-57.5 865,-38.5 734,-38.5"/>
<text text-anchor="middle" x="799.5" y="-45.5" font-family="Helvetica,sans-Serif" font-size="10.00">CCTransitionZoomFlipX</text>
</a>
</g>
</g>
<!-- Node1&#45;&gt;Node11 -->
<g id="edge10" class="edge">
<title>Node1&#45;&gt;Node11</title>
<path fill="none" stroke="midnightblue" d="M644.54,-91.84C665.89,-84.08 693.82,-74.36 719,-67 730.58,-63.62 743.23,-60.39 754.97,-57.58"/>
<polygon fill="midnightblue" stroke="midnightblue" points="643.12,-88.64 634.93,-95.37 645.53,-95.21 643.12,-88.64"/>
</g>
<!-- Node12 -->
<g id="node12" class="node">
<title>Node12</title>
<g id="a_node12"><a xlink:href="../../de/d5d/classcocos2d_1_1_c_c_transition_zoom_flip_y.html" target="_top" xlink:title="CCTransitionZoomFlipY: Flips the screen vertically doing a little zooming out/in The front face is th...">
<polygon fill="none" stroke="black" points="734.5,-0.5 734.5,-19.5 864.5,-19.5 864.5,-0.5 734.5,-0.5"/>
<text text-anchor="middle" x="799.5" y="-7.5" font-family="Helvetica,sans-Serif" font-size="10.00">CCTransitionZoomFlipY</text>
</a>
</g>
</g>
<!-- Node1&#45;&gt;Node12 -->
<g id="edge11" class="edge">
<title>Node1&#45;&gt;Node12</title>
<path fill="none" stroke="midnightblue" d="M628.2,-88.73C649.01,-71.45 684.28,-44.53 719,-29 727.55,-25.18 736.97,-22.06 746.26,-19.54"/>
<polygon fill="midnightblue" stroke="midnightblue" points="625.85,-86.14 620.47,-95.26 630.36,-91.48 625.85,-86.14"/>
</g>
<!-- Node2 -->
<g id="node2" class="node">
<title>Node2</title>
<g id="a_node2"><a xlink:href="../../d1/dc8/classcocos2d_1_1_c_c_transition_scene.html" target="_top" xlink:title="Base class for CCTransition scenes.">
<polygon fill="none" stroke="black" points="391,-95.5 391,-114.5 498,-114.5 498,-95.5 391,-95.5"/>
<text text-anchor="middle" x="444.5" y="-102.5" font-family="Helvetica,sans-Serif" font-size="10.00">CCTransitionScene</text>
</a>
</g>
</g>
<!-- Node2&#45;&gt;Node1 -->
<g id="edge1" class="edge">
<title>Node2&#45;&gt;Node1</title>
<path fill="none" stroke="midnightblue" d="M508.22,-105C516.66,-105 525.37,-105 533.98,-105"/>
<polygon fill="midnightblue" stroke="midnightblue" points="508.1,-101.5 498.1,-105 508.1,-108.5 508.1,-101.5"/>
</g>
<!-- Node3 -->
<g id="node3" class="node">
<title>Node3</title>
<g id="a_node3"><a xlink:href="../../d1/da4/classcocos2d_1_1_c_c_scene.html" target="_top" xlink:title="CCScene is a subclass of CCNode that is used only as an abstract concept.">
<polygon fill="none" stroke="black" points="296,-95.5 296,-114.5 355,-114.5 355,-95.5 296,-95.5"/>
<text text-anchor="middle" x="325.5" y="-102.5" font-family="Helvetica,sans-Serif" font-size="10.00">CCScene</text>
</a>
</g>
</g>
<!-- Node3&#45;&gt;Node2 -->
<g id="edge2" class="edge">
<title>Node3&#45;&gt;Node2</title>
<path fill="none" stroke="midnightblue" d="M365.2,-105C373.45,-105 382.3,-105 390.97,-105"/>
<polygon fill="midnightblue" stroke="midnightblue" points="365.12,-101.5 355.12,-105 365.12,-108.5 365.12,-101.5"/>
</g>
<!-- Node4 -->
<g id="node4" class="node">
<title>Node4</title>
<g id="a_node4"><a xlink:href="../../d0/ded/classcocos2d_1_1_c_c_node.html" target="_top" xlink:title="CCNode is the main element.">
<polygon fill="none" stroke="black" points="204,-95.5 204,-114.5 260,-114.5 260,-95.5 204,-95.5"/>
<text text-anchor="middle" x="232" y="-102.5" font-family="Helvetica,sans-Serif" font-size="10.00">CCNode</text>
</a>
</g>
</g>
<!-- Node4&#45;&gt;Node3 -->
<g id="edge3" class="edge">
<title>Node4&#45;&gt;Node3</title>
<path fill="none" stroke="midnightblue" d="M270.49,-105C278.94,-105 287.77,-105 295.8,-105"/>
<polygon fill="midnightblue" stroke="midnightblue" points="270.45,-101.5 260.45,-105 270.45,-108.5 270.45,-101.5"/>
</g>
<!-- Node5 -->
<g id="node5" class="node">
<title>Node5</title>
<g id="a_node5"><a xlink:href="../../d3/dbf/classcocos2d_1_1_c_c_object.html" target="_top" xlink:title="NA.">
<polygon fill="none" stroke="black" points="106,-95.5 106,-114.5 168,-114.5 168,-95.5 106,-95.5"/>
<text text-anchor="middle" x="137" y="-102.5" font-family="Helvetica,sans-Serif" font-size="10.00">CCObject</text>
</a>
</g>
</g>
<!-- Node5&#45;&gt;Node4 -->
<g id="edge4" class="edge">
<title>Node5&#45;&gt;Node4</title>
<path fill="none" stroke="midnightblue" d="M178.43,-105C187,-105 195.85,-105 203.78,-105"/>
<polygon fill="midnightblue" stroke="midnightblue" points="178.19,-101.5 168.19,-105 178.19,-108.5 178.19,-101.5"/>
</g>
<!-- Node6 -->
<g id="node6" class="node">
<title>Node6</title>
<g id="a_node6"><a xlink:href="../../d5/d61/classcocos2d_1_1_c_c_copying.html" target="_top" xlink:title="NA NA.">
<polygon fill="none" stroke="black" points="0,-95.5 0,-114.5 70,-114.5 70,-95.5 0,-95.5"/>
<text text-anchor="middle" x="35" y="-102.5" font-family="Helvetica,sans-Serif" font-size="10.00">CCCopying</text>
</a>
</g>
</g>
<!-- Node6&#45;&gt;Node5 -->
<g id="edge5" class="edge">
<title>Node6&#45;&gt;Node5</title>
<path fill="none" stroke="midnightblue" d="M80.39,-105C88.95,-105 97.72,-105 105.7,-105"/>
<polygon fill="midnightblue" stroke="midnightblue" points="80.13,-101.5 70.13,-105 80.13,-108.5 80.13,-101.5"/>
</g>
</g>
</svg>
