<?xml version="1.0" encoding="UTF-8" standalone="no"?>
<!DOCTYPE svg PUBLIC "-//W3C//DTD SVG 1.1//EN"
 "http://www.w3.org/Graphics/SVG/1.1/DTD/svg11.dtd">
<!-- Generated by graphviz version 2.43.0 (0)
 -->
<!-- Title: CCTileMapAtlas Pages: 1 -->
<svg width="1779pt" height="794pt"
 viewBox="0.00 0.00 1779.00 793.98" xmlns="http://www.w3.org/2000/svg" xmlns:xlink="http://www.w3.org/1999/xlink">
<g id="graph0" class="graph" transform="scale(1 1) rotate(0) translate(4 789.98)">
<title>CCTileMapAtlas</title>
<!-- Node1 -->
<g id="node1" class="node">
<title>Node1</title>
<g id="a_node1"><a xlink:title="CCTileMapAtlas is a subclass of CCAtlasNode.">
<polygon fill="#bfbfbf" stroke="black" points="1677,-75.5 1677,-94.5 1771,-94.5 1771,-75.5 1677,-75.5"/>
<text text-anchor="middle" x="1724" y="-82.5" font-family="Helvetica,sans-Serif" font-size="10.00">CCTileMapAtlas</text>
</a>
</g>
</g>
<!-- Node2 -->
<g id="node2" class="node">
<title>Node2</title>
<g id="a_node2"><a xlink:href="../../d7/d70/classcocos2d_1_1_c_c_atlas_node.html" target="_top" xlink:title="CCAtlasNode is a subclass of CCNode that implements the CCRGBAProtocol and CCTextureProtocol protocol...">
<polygon fill="none" stroke="black" points="1560,-190.5 1560,-209.5 1640,-209.5 1640,-190.5 1560,-190.5"/>
<text text-anchor="middle" x="1600" y="-197.5" font-family="Helvetica,sans-Serif" font-size="10.00">CCAtlasNode</text>
</a>
</g>
</g>
<!-- Node2&#45;&gt;Node1 -->
<g id="edge1" class="edge">
<title>Node2&#45;&gt;Node1</title>
<path fill="none" stroke="midnightblue" d="M1619.01,-183.02C1644.92,-158.6 1691.85,-114.36 1712.62,-94.78"/>
<polygon fill="midnightblue" stroke="midnightblue" points="1616.28,-180.79 1611.4,-190.2 1621.08,-185.88 1616.28,-180.79"/>
</g>
<!-- Node3 -->
<g id="node3" class="node">
<title>Node3</title>
<g id="a_node3"><a xlink:href="../../de/d2e/classcocos2d_1_1_c_c_node_r_g_b_a.html" target="_top" xlink:title="CCNodeRGBA is a subclass of CCNode that implements the CCRGBAProtocol protocol.">
<polygon fill="none" stroke="black" points="1356.5,-242.5 1356.5,-261.5 1439.5,-261.5 1439.5,-242.5 1356.5,-242.5"/>
<text text-anchor="middle" x="1398" y="-249.5" font-family="Helvetica,sans-Serif" font-size="10.00">CCNodeRGBA</text>
</a>
</g>
</g>
<!-- Node3&#45;&gt;Node2 -->
<g id="edge2" class="edge">
<title>Node3&#45;&gt;Node2</title>
<path fill="none" stroke="midnightblue" d="M1450,-246.48C1477.66,-242.64 1512.18,-236.48 1542,-227 1555.98,-222.56 1570.95,-215.37 1582.03,-209.52"/>
<polygon fill="midnightblue" stroke="midnightblue" points="1449.21,-243.05 1439.76,-247.84 1450.14,-249.99 1449.21,-243.05"/>
</g>
<!-- Node4 -->
<g id="node4" class="node">
<title>Node4</title>
<g id="a_node4"><a xlink:href="../../d0/ded/classcocos2d_1_1_c_c_node.html" target="_top" xlink:title="CCNode is the main element.">
<polygon fill="none" stroke="black" points="1144,-478.5 1144,-497.5 1200,-497.5 1200,-478.5 1144,-478.5"/>
<text text-anchor="middle" x="1172" y="-485.5" font-family="Helvetica,sans-Serif" font-size="10.00">CCNode</text>
</a>
</g>
</g>
<!-- Node4&#45;&gt;Node3 -->
<g id="edge3" class="edge">
<title>Node4&#45;&gt;Node3</title>
<path fill="none" stroke="midnightblue" d="M1186.21,-470.22C1222.89,-421.02 1324.64,-285.7 1345,-271 1350.22,-267.23 1356.27,-264.13 1362.36,-261.61"/>
<polygon fill="midnightblue" stroke="midnightblue" points="1183.32,-468.25 1180.15,-478.36 1188.93,-472.43 1183.32,-468.25"/>
</g>
<!-- Node4&#45;&gt;Node4 -->
<g id="edge25" class="edge">
<title>Node4&#45;&gt;Node4</title>
<path fill="none" stroke="#9a32cd" stroke-dasharray="5,2" d="M1151.26,-507.4C1152.65,-512.31 1159.56,-516 1172,-516 1191.91,-516 1197.66,-506.57 1189.26,-497.76"/>
<polygon fill="#9a32cd" stroke="#9a32cd" points="1154.64,-508.35 1154.74,-497.76 1148.05,-505.98 1154.64,-508.35"/>
<text text-anchor="middle" x="1172" y="-519" font-family="Helvetica,sans-Serif" font-size="10.00"> m_pParent</text>
</g>
<!-- Node5 -->
<g id="node5" class="node">
<title>Node5</title>
<g id="a_node5"><a xlink:href="../../d3/dbf/classcocos2d_1_1_c_c_object.html" target="_top" xlink:title="NA.">
<polygon fill="none" stroke="black" points="121,-491.5 121,-510.5 183,-510.5 183,-491.5 121,-491.5"/>
<text text-anchor="middle" x="152" y="-498.5" font-family="Helvetica,sans-Serif" font-size="10.00">CCObject</text>
</a>
</g>
</g>
<!-- Node5&#45;&gt;Node4 -->
<g id="edge4" class="edge">
<title>Node5&#45;&gt;Node4</title>
<path fill="none" stroke="midnightblue" d="M157.04,-520.62C164.03,-549.98 181.01,-605.47 215,-639 261.2,-684.57 284.11,-697 349,-697 349,-697 349,-697 890,-697 985.8,-697 1027.72,-718.51 1102,-658 1154.35,-615.35 1167.32,-526.76 1170.23,-497.56"/>
<polygon fill="midnightblue" stroke="midnightblue" points="160.43,-519.74 154.84,-510.75 153.6,-521.27 160.43,-519.74"/>
</g>
<!-- Node5&#45;&gt;Node4 -->
<g id="edge26" class="edge">
<title>Node5&#45;&gt;Node4</title>
<path fill="none" stroke="#9a32cd" stroke-dasharray="5,2" d="M173.19,-516.77C184.83,-525.13 200.07,-534.91 215,-541 251.96,-556.08 263.67,-552.17 303,-559 589.72,-608.76 666.21,-633.57 956,-607 1021.71,-600.97 1045.92,-614.78 1102,-580 1135.09,-559.48 1157.8,-516.84 1166.75,-497.69"/>
<polygon fill="#9a32cd" stroke="#9a32cd" points="175.18,-513.89 165.06,-510.74 171.01,-519.51 175.18,-513.89"/>
<text text-anchor="middle" x="619.5" y="-618" font-family="Helvetica,sans-Serif" font-size="10.00"> m_pUserObject</text>
</g>
<!-- Node10 -->
<g id="node10" class="node">
<title>Node10</title>
<g id="a_node10"><a xlink:href="../../d2/d51/classcocos2d_1_1_c_c_camera.html" target="_top" xlink:title="A CCCamera is used in every CCNode.">
<polygon fill="none" stroke="black" points="443,-514.5 443,-533.5 511,-533.5 511,-514.5 443,-514.5"/>
<text text-anchor="middle" x="477" y="-521.5" font-family="Helvetica,sans-Serif" font-size="10.00">CCCamera</text>
</a>
</g>
</g>
<!-- Node5&#45;&gt;Node10 -->
<g id="edge10" class="edge">
<title>Node5&#45;&gt;Node10</title>
<path fill="none" stroke="midnightblue" d="M193.3,-503.87C257.88,-508.47 383.35,-517.4 442.99,-521.65"/>
<polygon fill="midnightblue" stroke="midnightblue" points="193.32,-500.36 183.1,-503.14 192.82,-507.34 193.32,-500.36"/>
</g>
<!-- Node11 -->
<g id="node11" class="node">
<title>Node11</title>
<g id="a_node11"><a xlink:href="../../d6/d70/classcocos2d_1_1_c_c_grid_base.html" target="_top" xlink:title="Base class for other.">
<polygon fill="none" stroke="black" points="852,-381.5 852,-400.5 926,-400.5 926,-381.5 852,-381.5"/>
<text text-anchor="middle" x="889" y="-388.5" font-family="Helvetica,sans-Serif" font-size="10.00">CCGridBase</text>
</a>
</g>
</g>
<!-- Node5&#45;&gt;Node11 -->
<g id="edge12" class="edge">
<title>Node5&#45;&gt;Node11</title>
<path fill="none" stroke="midnightblue" d="M189.94,-488.25C198.14,-485.66 206.82,-483.09 215,-481 302.67,-458.62 325.52,-456.4 415,-443 499.56,-430.34 756.63,-404.15 851.94,-394.59"/>
<polygon fill="midnightblue" stroke="midnightblue" points="188.69,-484.98 180.26,-491.4 190.85,-491.64 188.69,-484.98"/>
</g>
<!-- Node12 -->
<g id="node12" class="node">
<title>Node12</title>
<g id="a_node12"><a xlink:href="../../d7/dfd/classcocos2d_1_1_c_c_texture2_d.html" target="_top" xlink:title="CCTexture2D class.">
<polygon fill="none" stroke="black" points="579.5,-233.5 579.5,-252.5 659.5,-252.5 659.5,-233.5 579.5,-233.5"/>
<text text-anchor="middle" x="619.5" y="-240.5" font-family="Helvetica,sans-Serif" font-size="10.00">CCTexture2D</text>
</a>
</g>
</g>
<!-- Node5&#45;&gt;Node12 -->
<g id="edge15" class="edge">
<title>Node5&#45;&gt;Node12</title>
<path fill="none" stroke="midnightblue" d="M156.07,-481.45C162.22,-447.47 178.69,-376.62 215,-329 244.01,-290.96 259.09,-285.99 303,-267 395.65,-226.94 517.84,-232.02 579.43,-238.08"/>
<polygon fill="midnightblue" stroke="midnightblue" points="152.6,-481.02 154.37,-491.47 159.5,-482.2 152.6,-481.02"/>
</g>
<!-- Node13 -->
<g id="node13" class="node">
<title>Node13</title>
<g id="a_node13"><a xlink:href="../../db/d28/classcocos2d_1_1_c_c_g_l_program.html" target="_top" xlink:title="CCGLProgram Class that implements a glProgram.">
<polygon fill="none" stroke="black" points="308,-276.5 308,-295.5 392,-295.5 392,-276.5 308,-276.5"/>
<text text-anchor="middle" x="350" y="-283.5" font-family="Helvetica,sans-Serif" font-size="10.00">CCGLProgram</text>
</a>
</g>
</g>
<!-- Node5&#45;&gt;Node13 -->
<g id="edge18" class="edge">
<title>Node5&#45;&gt;Node13</title>
<path fill="none" stroke="midnightblue" d="M162.02,-482.3C172.85,-460.89 192.42,-425.36 215,-399 252.81,-354.85 308.79,-313.68 334.78,-295.62"/>
<polygon fill="midnightblue" stroke="midnightblue" points="158.85,-480.81 157.55,-491.32 165.12,-483.92 158.85,-480.81"/>
</g>
<!-- Node14 -->
<g id="node14" class="node">
<title>Node14</title>
<g id="a_node14"><a xlink:href="../../d3/d89/classcocos2d_1_1_c_c_grabber.html" target="_top" xlink:title="FBO class that grabs the the contents of the screen NA NA.">
<polygon fill="none" stroke="black" points="442.5,-452.5 442.5,-471.5 511.5,-471.5 511.5,-452.5 442.5,-452.5"/>
<text text-anchor="middle" x="477" y="-459.5" font-family="Helvetica,sans-Serif" font-size="10.00">CCGrabber</text>
</a>
</g>
</g>
<!-- Node5&#45;&gt;Node14 -->
<g id="edge21" class="edge">
<title>Node5&#45;&gt;Node14</title>
<path fill="none" stroke="midnightblue" d="M193.27,-496.14C257.67,-488.36 382.66,-473.27 442.5,-466.05"/>
<polygon fill="midnightblue" stroke="midnightblue" points="192.61,-492.69 183.1,-497.37 193.44,-499.64 192.61,-492.69"/>
</g>
<!-- Node15 -->
<g id="node15" class="node">
<title>Node15</title>
<g id="a_node15"><a xlink:href="../../d9/d2e/classcocos2d_1_1_c_c_array.html" target="_top" xlink:title="NA.">
<polygon fill="none" stroke="black" points="322,-628.5 322,-647.5 378,-647.5 378,-628.5 322,-628.5"/>
<text text-anchor="middle" x="350" y="-635.5" font-family="Helvetica,sans-Serif" font-size="10.00">CCArray</text>
</a>
</g>
</g>
<!-- Node5&#45;&gt;Node15 -->
<g id="edge24" class="edge">
<title>Node5&#45;&gt;Node15</title>
<path fill="none" stroke="midnightblue" d="M158.03,-520.53C165.73,-546.29 183.04,-591.03 215,-614 246.57,-636.69 292.9,-640.13 321.98,-639.69"/>
<polygon fill="midnightblue" stroke="midnightblue" points="161.36,-519.46 155.3,-510.77 154.62,-521.34 161.36,-519.46"/>
</g>
<!-- Node16 -->
<g id="node16" class="node">
<title>Node16</title>
<g id="a_node16"><a xlink:href="../../de/dee/classcocos2d_1_1_c_c_scheduler.html" target="_top" xlink:title="Scheduler is responsible for triggering the scheduled callbacks.">
<polygon fill="none" stroke="black" points="580.5,-564.5 580.5,-583.5 658.5,-583.5 658.5,-564.5 580.5,-564.5"/>
<text text-anchor="middle" x="619.5" y="-571.5" font-family="Helvetica,sans-Serif" font-size="10.00">CCScheduler</text>
</a>
</g>
</g>
<!-- Node5&#45;&gt;Node16 -->
<g id="edge29" class="edge">
<title>Node5&#45;&gt;Node16</title>
<path fill="none" stroke="midnightblue" d="M188.64,-513.72C197.2,-516.43 206.36,-519.05 215,-521 347.35,-550.78 508.14,-565.7 580.27,-571.3"/>
<polygon fill="midnightblue" stroke="midnightblue" points="189.55,-510.33 178.95,-510.53 187.36,-516.98 189.55,-510.33"/>
</g>
<!-- Node17 -->
<g id="node17" class="node">
<title>Node17</title>
<g id="a_node17"><a xlink:href="../../d5/dcb/classcocos2d_1_1_c_c_action_manager.html" target="_top" xlink:title="CCActionManager is a singleton that manages all the actions.">
<polygon fill="none" stroke="black" points="700,-731.5 700,-750.5 804,-750.5 804,-731.5 700,-731.5"/>
<text text-anchor="middle" x="752" y="-738.5" font-family="Helvetica,sans-Serif" font-size="10.00">CCActionManager</text>
</a>
</g>
</g>
<!-- Node5&#45;&gt;Node17 -->
<g id="edge32" class="edge">
<title>Node5&#45;&gt;Node17</title>
<path fill="none" stroke="midnightblue" d="M155.91,-520.72C163.35,-568.25 184.65,-686.97 215,-711 367.7,-831.93 628.33,-775.4 718.87,-750.57"/>
<polygon fill="midnightblue" stroke="midnightblue" points="159.36,-520.11 154.39,-510.75 152.44,-521.16 159.36,-520.11"/>
</g>
<!-- Node23 -->
<g id="node23" class="node">
<title>Node23</title>
<g id="a_node23"><a xlink:href="../../df/d3a/classcocos2d_1_1_c_c_texture_atlas.html" target="_top" xlink:title="A class that implements a Texture Atlas.">
<polygon fill="none" stroke="black" points="843.5,-119.5 843.5,-138.5 934.5,-138.5 934.5,-119.5 843.5,-119.5"/>
<text text-anchor="middle" x="889" y="-126.5" font-family="Helvetica,sans-Serif" font-size="10.00">CCTextureAtlas</text>
</a>
</g>
</g>
<!-- Node5&#45;&gt;Node23 -->
<g id="edge40" class="edge">
<title>Node5&#45;&gt;Node23</title>
<path fill="none" stroke="midnightblue" d="M152.69,-481.19C153.09,-437.71 160.09,-332.96 215,-272 243.06,-240.85 262.81,-249.95 303,-238 413.62,-205.1 443.6,-205.46 557,-184 611.16,-173.75 766.14,-148.6 843.27,-136.18"/>
<polygon fill="midnightblue" stroke="midnightblue" points="149.19,-481.31 152.71,-491.3 156.19,-481.29 149.19,-481.31"/>
</g>
<!-- Node30 -->
<g id="node30" class="node">
<title>Node30</title>
<g id="a_node30"><a xlink:href="../../d7/d5f/classcocos2d_1_1_c_c_dictionary.html" target="_top" xlink:title="CCDictionary is a class like NSDictionary in Obj&#45;C .">
<polygon fill="none" stroke="black" points="310,-60.5 310,-79.5 390,-79.5 390,-60.5 310,-60.5"/>
<text text-anchor="middle" x="350" y="-67.5" font-family="Helvetica,sans-Serif" font-size="10.00">CCDictionary</text>
</a>
</g>
</g>
<!-- Node5&#45;&gt;Node30 -->
<g id="edge49" class="edge">
<title>Node5&#45;&gt;Node30</title>
<path fill="none" stroke="midnightblue" d="M155.47,-481.09C165.32,-402.34 201.89,-116.21 215,-102 238.84,-76.16 279.49,-69.45 309.78,-68.41"/>
<polygon fill="midnightblue" stroke="midnightblue" points="151.98,-480.79 154.22,-491.15 158.93,-481.66 151.98,-480.79"/>
</g>
<!-- Node6 -->
<g id="node6" class="node">
<title>Node6</title>
<g id="a_node6"><a xlink:href="../../d5/d61/classcocos2d_1_1_c_c_copying.html" target="_top" xlink:title="NA NA.">
<polygon fill="none" stroke="black" points="0,-491.5 0,-510.5 70,-510.5 70,-491.5 0,-491.5"/>
<text text-anchor="middle" x="35" y="-498.5" font-family="Helvetica,sans-Serif" font-size="10.00">CCCopying</text>
</a>
</g>
</g>
<!-- Node6&#45;&gt;Node5 -->
<g id="edge5" class="edge">
<title>Node6&#45;&gt;Node5</title>
<path fill="none" stroke="midnightblue" d="M80.26,-501C93.76,-501 108.29,-501 120.65,-501"/>
<polygon fill="midnightblue" stroke="midnightblue" points="80.19,-497.5 70.19,-501 80.19,-504.5 80.19,-497.5"/>
</g>
<!-- Node7 -->
<g id="node7" class="node">
<title>Node7</title>
<g id="a_node7"><a xlink:href="../../d2/df3/classcocos2d_1_1_c_c_point.html" target="_top" xlink:title="NA.">
<polygon fill="none" stroke="black" points="592,-488.5 592,-507.5 647,-507.5 647,-488.5 592,-488.5"/>
<text text-anchor="middle" x="619.5" y="-495.5" font-family="Helvetica,sans-Serif" font-size="10.00">CCPoint</text>
</a>
</g>
</g>
<!-- Node7&#45;&gt;Node4 -->
<g id="edge6" class="edge">
<title>Node7&#45;&gt;Node4</title>
<path fill="none" stroke="#9a32cd" stroke-dasharray="5,2" d="M657.24,-504.97C696.99,-510.4 760.52,-512.73 804,-483 819.1,-472.68 806.5,-455.7 822,-446 872.49,-414.41 896.72,-440.26 956,-446 1024.33,-452.61 1103.19,-470.78 1143.76,-480.92"/>
<polygon fill="#9a32cd" stroke="#9a32cd" points="657.59,-501.48 647.18,-503.46 656.55,-508.4 657.59,-501.48"/>
<text text-anchor="middle" x="889" y="-471" font-family="Helvetica,sans-Serif" font-size="10.00"> m_obAnchorPoint</text>
<text text-anchor="middle" x="889" y="-460" font-family="Helvetica,sans-Serif" font-size="10.00">m_obAnchorPointInPoints</text>
<text text-anchor="middle" x="889" y="-449" font-family="Helvetica,sans-Serif" font-size="10.00">m_obPosition</text>
</g>
<!-- Node7&#45;&gt;Node11 -->
<g id="edge19" class="edge">
<title>Node7&#45;&gt;Node11</title>
<path fill="none" stroke="#9a32cd" stroke-dasharray="5,2" d="M657,-485.23C670.43,-480.75 685.82,-475.88 700,-472 745.66,-459.52 766.34,-477.68 804,-449 817.6,-438.64 809.1,-426.23 822,-415 830.46,-407.63 841.36,-402.46 851.86,-398.86"/>
<polygon fill="#9a32cd" stroke="#9a32cd" points="655.52,-482.04 647.16,-488.55 657.76,-488.67 655.52,-482.04"/>
<text text-anchor="middle" x="752" y="-475" font-family="Helvetica,sans-Serif" font-size="10.00"> m_obStep</text>
</g>
<!-- Node8 -->
<g id="node8" class="node">
<title>Node8</title>
<g id="a_node8"><a xlink:href="../../d9/d24/classcocos2d_1_1_c_c_size.html" target="_top" xlink:title="NA.">
<polygon fill="none" stroke="black" points="325,-338.5 325,-357.5 375,-357.5 375,-338.5 325,-338.5"/>
<text text-anchor="middle" x="350" y="-345.5" font-family="Helvetica,sans-Serif" font-size="10.00">CCSize</text>
</a>
</g>
</g>
<!-- Node8&#45;&gt;Node4 -->
<g id="edge7" class="edge">
<title>Node8&#45;&gt;Node4</title>
<path fill="none" stroke="#9a32cd" stroke-dasharray="5,2" d="M385,-348C422.93,-347.42 485.92,-344.7 539,-334 612.98,-319.08 625.51,-292.16 700,-280 745.62,-272.55 758.39,-272.48 804,-280 941.98,-302.75 991.73,-294.99 1102,-381 1136.68,-408.05 1159.14,-457.7 1167.42,-478.47"/>
<polygon fill="#9a32cd" stroke="#9a32cd" points="384.96,-344.5 375,-348.11 385.04,-351.5 384.96,-344.5"/>
<text text-anchor="middle" x="752" y="-283" font-family="Helvetica,sans-Serif" font-size="10.00"> m_obContentSize</text>
</g>
<!-- Node8&#45;&gt;Node11 -->
<g id="edge13" class="edge">
<title>Node8&#45;&gt;Node11</title>
<path fill="none" stroke="#9a32cd" stroke-dasharray="5,2" d="M385.21,-355.2C394.81,-357 405.28,-358.77 415,-360 577.28,-380.46 772.68,-387.83 851.96,-390.11"/>
<polygon fill="#9a32cd" stroke="#9a32cd" points="385.69,-351.73 375.2,-353.25 384.35,-358.6 385.69,-351.73"/>
<text text-anchor="middle" x="619.5" y="-385" font-family="Helvetica,sans-Serif" font-size="10.00"> m_sGridSize</text>
</g>
<!-- Node8&#45;&gt;Node12 -->
<g id="edge16" class="edge">
<title>Node8&#45;&gt;Node12</title>
<path fill="none" stroke="#9a32cd" stroke-dasharray="5,2" d="M384.46,-334.91C394.29,-331.07 405.08,-326.86 415,-323 470.08,-301.58 484.43,-297.67 539,-275 547.08,-271.64 548.92,-270.37 557,-267 568.85,-262.06 582.1,-256.85 593.26,-252.55"/>
<polygon fill="#9a32cd" stroke="#9a32cd" points="383.04,-331.7 375,-338.6 385.59,-338.22 383.04,-331.7"/>
<text text-anchor="middle" x="477" y="-326" font-family="Helvetica,sans-Serif" font-size="10.00"> m_tContentSize</text>
</g>
<!-- Node9 -->
<g id="node9" class="node">
<title>Node9</title>
<g id="a_node9"><a xlink:href="../../da/dbf/structcocos2d_1_1_c_c_affine_transform.html" target="_top" xlink:title=" ">
<polygon fill="none" stroke="black" points="835.5,-488.5 835.5,-507.5 942.5,-507.5 942.5,-488.5 835.5,-488.5"/>
<text text-anchor="middle" x="889" y="-495.5" font-family="Helvetica,sans-Serif" font-size="10.00">CCAffineTransform</text>
</a>
</g>
</g>
<!-- Node9&#45;&gt;Node4 -->
<g id="edge8" class="edge">
<title>Node9&#45;&gt;Node4</title>
<path fill="none" stroke="#9a32cd" stroke-dasharray="5,2" d="M953.08,-490.54C960.13,-489.92 967.21,-489.38 974,-489 1034.61,-485.61 1105.88,-486.44 1143.89,-487.27"/>
<polygon fill="#9a32cd" stroke="#9a32cd" points="952.43,-487.09 942.81,-491.51 953.09,-494.06 952.43,-487.09"/>
<text text-anchor="middle" x="1038" y="-514" font-family="Helvetica,sans-Serif" font-size="10.00"> m_sAdditionalTransform</text>
<text text-anchor="middle" x="1038" y="-503" font-family="Helvetica,sans-Serif" font-size="10.00">m_sInverse</text>
<text text-anchor="middle" x="1038" y="-492" font-family="Helvetica,sans-Serif" font-size="10.00">m_sTransform</text>
</g>
<!-- Node10&#45;&gt;Node4 -->
<g id="edge9" class="edge">
<title>Node10&#45;&gt;Node4</title>
<path fill="none" stroke="#9a32cd" stroke-dasharray="5,2" d="M521.05,-530.43C623.45,-544.32 888.89,-572.01 1102,-522 1122.02,-517.3 1142.92,-505.95 1156.4,-497.65"/>
<polygon fill="#9a32cd" stroke="#9a32cd" points="521.47,-526.96 511.09,-529.05 520.51,-533.89 521.47,-526.96"/>
<text text-anchor="middle" x="752" y="-553" font-family="Helvetica,sans-Serif" font-size="10.00"> m_pCamera</text>
</g>
<!-- Node11&#45;&gt;Node4 -->
<g id="edge11" class="edge">
<title>Node11&#45;&gt;Node4</title>
<path fill="none" stroke="#9a32cd" stroke-dasharray="5,2" d="M936.32,-386.34C981.12,-383.89 1049.74,-385.7 1102,-412 1132.25,-427.22 1155.6,-461.71 1165.64,-478.48"/>
<polygon fill="#9a32cd" stroke="#9a32cd" points="936.05,-382.85 926.3,-386.98 936.5,-389.83 936.05,-382.85"/>
<text text-anchor="middle" x="1038" y="-415" font-family="Helvetica,sans-Serif" font-size="10.00"> m_pGrid</text>
</g>
<!-- Node12&#45;&gt;Node11 -->
<g id="edge14" class="edge">
<title>Node12&#45;&gt;Node11</title>
<path fill="none" stroke="#9a32cd" stroke-dasharray="5,2" d="M640.98,-258.66C656.43,-269.76 678.57,-284.2 700,-293 743.79,-310.98 761.86,-294.42 804,-316 836.71,-332.75 866.68,-365.35 880.29,-381.48"/>
<polygon fill="#9a32cd" stroke="#9a32cd" points="642.84,-255.68 632.71,-252.57 638.69,-261.32 642.84,-255.68"/>
<text text-anchor="middle" x="752" y="-319" font-family="Helvetica,sans-Serif" font-size="10.00"> m_pTexture</text>
</g>
<!-- Node12&#45;&gt;Node23 -->
<g id="edge41" class="edge">
<title>Node12&#45;&gt;Node23</title>
<path fill="none" stroke="#9a32cd" stroke-dasharray="5,2" d="M669.82,-242.63C717.31,-241.22 784.7,-236.14 804,-219 828.34,-197.38 799.35,-171.38 822,-148 827.81,-142 835.37,-137.87 843.3,-135.02"/>
<polygon fill="#9a32cd" stroke="#9a32cd" points="669.63,-239.13 659.72,-242.88 669.8,-246.13 669.63,-239.13"/>
<text text-anchor="middle" x="752" y="-245" font-family="Helvetica,sans-Serif" font-size="10.00"> m_pTexture</text>
</g>
<!-- Node13&#45;&gt;Node4 -->
<g id="edge27" class="edge">
<title>Node13&#45;&gt;Node4</title>
<path fill="none" stroke="#9a32cd" stroke-dasharray="5,2" d="M370.4,-269.99C382.49,-260.89 398.79,-250.11 415,-244 577.64,-182.72 632.56,-175.47 804,-204 942.09,-226.98 1001.41,-208.64 1102,-306 1153.47,-355.82 1167.01,-447.94 1170.15,-478.13"/>
<polygon fill="#9a32cd" stroke="#9a32cd" points="368.13,-267.33 362.4,-276.24 372.44,-272.85 368.13,-267.33"/>
<text text-anchor="middle" x="752" y="-207" font-family="Helvetica,sans-Serif" font-size="10.00"> m_pShaderProgram</text>
</g>
<!-- Node13&#45;&gt;Node11 -->
<g id="edge22" class="edge">
<title>Node13&#45;&gt;Node11</title>
<path fill="none" stroke="#9a32cd" stroke-dasharray="5,2" d="M383.87,-299.05C393.77,-302.64 404.73,-306.29 415,-309 498.4,-331.04 756.18,-371.05 851.81,-385.56"/>
<polygon fill="#9a32cd" stroke="#9a32cd" points="384.99,-295.73 374.4,-295.51 382.54,-302.29 384.99,-295.73"/>
<text text-anchor="middle" x="619.5" y="-360" font-family="Helvetica,sans-Serif" font-size="10.00"> m_pShaderProgram</text>
</g>
<!-- Node13&#45;&gt;Node12 -->
<g id="edge17" class="edge">
<title>Node13&#45;&gt;Node12</title>
<path fill="none" stroke="#9a32cd" stroke-dasharray="5,2" d="M384.05,-273.03C393.88,-269.61 404.76,-266.26 415,-264 471.36,-251.58 538.17,-246.46 579.45,-244.39"/>
<polygon fill="#9a32cd" stroke="#9a32cd" points="382.86,-269.74 374.64,-276.43 385.23,-276.33 382.86,-269.74"/>
<text text-anchor="middle" x="477" y="-267" font-family="Helvetica,sans-Serif" font-size="10.00"> m_pShaderProgram</text>
</g>
<!-- Node14&#45;&gt;Node11 -->
<g id="edge20" class="edge">
<title>Node14&#45;&gt;Node11</title>
<path fill="none" stroke="#9a32cd" stroke-dasharray="5,2" d="M521.67,-461.68C585.14,-460.15 705.98,-453.23 804,-424 812.57,-421.44 813.78,-418.53 822,-415 834.1,-409.8 847.73,-404.71 859.46,-400.57"/>
<polygon fill="#9a32cd" stroke="#9a32cd" points="521.54,-458.18 511.62,-461.89 521.69,-465.18 521.54,-458.18"/>
<text text-anchor="middle" x="619.5" y="-463" font-family="Helvetica,sans-Serif" font-size="10.00"> m_pGrabber</text>
</g>
<!-- Node15&#45;&gt;Node4 -->
<g id="edge23" class="edge">
<title>Node15&#45;&gt;Node4</title>
<path fill="none" stroke="#9a32cd" stroke-dasharray="5,2" d="M388.28,-640.15C531.52,-648.12 1041.62,-673.53 1102,-635 1151.67,-603.3 1166.23,-525.38 1169.9,-497.84"/>
<polygon fill="#9a32cd" stroke="#9a32cd" points="388.4,-636.66 378.22,-639.59 388.01,-643.65 388.4,-636.66"/>
<text text-anchor="middle" x="752" y="-658" font-family="Helvetica,sans-Serif" font-size="10.00"> m_pChildren</text>
</g>
<!-- Node15&#45;&gt;Node16 -->
<g id="edge30" class="edge">
<title>Node15&#45;&gt;Node16</title>
<path fill="none" stroke="#9a32cd" stroke-dasharray="5,2" d="M387.98,-629.15C438.57,-617.05 528.89,-595.44 580.16,-583.17"/>
<polygon fill="#9a32cd" stroke="#9a32cd" points="387.03,-625.78 378.12,-631.51 388.66,-632.59 387.03,-625.78"/>
<text text-anchor="middle" x="477" y="-625" font-family="Helvetica,sans-Serif" font-size="10.00"> m_pScriptHandlerEntries</text>
</g>
<!-- Node16&#45;&gt;Node4 -->
<g id="edge28" class="edge">
<title>Node16&#45;&gt;Node4</title>
<path fill="none" stroke="#9a32cd" stroke-dasharray="5,2" d="M668.68,-581.84C758.05,-594.22 953.87,-611.05 1102,-550 1129.1,-538.83 1152.54,-512.21 1163.83,-497.75"/>
<polygon fill="#9a32cd" stroke="#9a32cd" points="668.97,-578.35 658.58,-580.4 667.98,-585.28 668.97,-578.35"/>
<text text-anchor="middle" x="889" y="-596" font-family="Helvetica,sans-Serif" font-size="10.00"> m_pScheduler</text>
</g>
<!-- Node17&#45;&gt;Node4 -->
<g id="edge31" class="edge">
<title>Node17&#45;&gt;Node4</title>
<path fill="none" stroke="#9a32cd" stroke-dasharray="5,2" d="M802.67,-752.46C876.6,-766.39 1016.07,-780.24 1102,-711 1170.79,-655.57 1172.46,-532.83 1171.44,-497.62"/>
<polygon fill="#9a32cd" stroke="#9a32cd" points="803.18,-748.99 792.69,-750.5 801.83,-755.86 803.18,-748.99"/>
<text text-anchor="middle" x="889" y="-766" font-family="Helvetica,sans-Serif" font-size="10.00"> m_pActionManager</text>
</g>
<!-- Node18 -->
<g id="node18" class="node">
<title>Node18</title>
<g id="a_node18"><a xlink:href="../../d1/d65/classcocos2d_1_1_c_c_component_container.html" target="_top" xlink:title="NA NA.">
<polygon fill="none" stroke="black" points="822,-157.5 822,-176.5 956,-176.5 956,-157.5 822,-157.5"/>
<text text-anchor="middle" x="889" y="-164.5" font-family="Helvetica,sans-Serif" font-size="10.00">CCComponentContainer</text>
</a>
</g>
</g>
<!-- Node18&#45;&gt;Node4 -->
<g id="edge33" class="edge">
<title>Node18&#45;&gt;Node4</title>
<path fill="none" stroke="#9a32cd" stroke-dasharray="5,2" d="M934.01,-155.23C981.74,-145.37 1057.08,-138.76 1102,-180 1122.19,-198.53 1114.37,-275.18 1120,-302 1134.39,-370.49 1159.27,-451.12 1167.93,-478.42"/>
<polygon fill="#9a32cd" stroke="#9a32cd" points="932.99,-151.87 923.98,-157.43 934.5,-158.7 932.99,-151.87"/>
<text text-anchor="middle" x="1038" y="-183" font-family="Helvetica,sans-Serif" font-size="10.00"> m_pComponentContainer</text>
</g>
<!-- Node19 -->
<g id="node19" class="node">
<title>Node19</title>
<g id="a_node19"><a xlink:href="../../d8/dda/classcocos2d_1_1_c_c_r_g_b_a_protocol.html" target="_top" xlink:title="RGBA protocol that affects CCNode&#39;s color and opacity NA.">
<polygon fill="none" stroke="black" points="1123,-273.5 1123,-292.5 1221,-292.5 1221,-273.5 1123,-273.5"/>
<text text-anchor="middle" x="1172" y="-280.5" font-family="Helvetica,sans-Serif" font-size="10.00">CCRGBAProtocol</text>
</a>
</g>
</g>
<!-- Node19&#45;&gt;Node3 -->
<g id="edge34" class="edge">
<title>Node19&#45;&gt;Node3</title>
<path fill="none" stroke="midnightblue" d="M1231.43,-279.73C1260.32,-277.59 1295.63,-274.21 1327,-269 1338.47,-267.1 1350.85,-264.33 1361.96,-261.58"/>
<polygon fill="midnightblue" stroke="midnightblue" points="1230.82,-276.26 1221.1,-280.46 1231.32,-283.24 1230.82,-276.26"/>
</g>
<!-- Node20 -->
<g id="node20" class="node">
<title>Node20</title>
<g id="a_node20"><a xlink:href="../../d7/d39/structcc_color3_b.html" target="_top" xlink:title="RGB color composed of bytes 3 bytes.">
<polygon fill="none" stroke="black" points="1139.5,-219.5 1139.5,-238.5 1204.5,-238.5 1204.5,-219.5 1139.5,-219.5"/>
<text text-anchor="middle" x="1172" y="-226.5" font-family="Helvetica,sans-Serif" font-size="10.00">ccColor3B</text>
</a>
</g>
</g>
<!-- Node20&#45;&gt;Node2 -->
<g id="edge38" class="edge">
<title>Node20&#45;&gt;Node2</title>
<path fill="none" stroke="#9a32cd" stroke-dasharray="5,2" d="M1214.67,-226.16C1297.03,-220.56 1479.58,-208.13 1559.84,-202.67"/>
<polygon fill="#9a32cd" stroke="#9a32cd" points="1214.41,-222.67 1204.67,-226.84 1214.89,-229.66 1214.41,-222.67"/>
<text text-anchor="middle" x="1398" y="-220" font-family="Helvetica,sans-Serif" font-size="10.00"> m_tColorUnmodified</text>
</g>
<!-- Node20&#45;&gt;Node3 -->
<g id="edge35" class="edge">
<title>Node20&#45;&gt;Node3</title>
<path fill="none" stroke="#9a32cd" stroke-dasharray="5,2" d="M1214.7,-233.28C1255.21,-237.44 1316.32,-243.72 1356.44,-247.84"/>
<polygon fill="#9a32cd" stroke="#9a32cd" points="1214.92,-229.79 1204.62,-232.25 1214.21,-236.75 1214.92,-229.79"/>
<text text-anchor="middle" x="1284.5" y="-259" font-family="Helvetica,sans-Serif" font-size="10.00"> _displayedColor</text>
<text text-anchor="middle" x="1284.5" y="-248" font-family="Helvetica,sans-Serif" font-size="10.00">_realColor</text>
</g>
<!-- Node21 -->
<g id="node21" class="node">
<title>Node21</title>
<g id="a_node21"><a xlink:href="../../db/d1b/classcocos2d_1_1_c_c_texture_protocol.html" target="_top" xlink:title="CCNode objects that uses a CCTexture2D to render the images.">
<polygon fill="none" stroke="black" points="1345,-157.5 1345,-176.5 1451,-176.5 1451,-157.5 1345,-157.5"/>
<text text-anchor="middle" x="1398" y="-164.5" font-family="Helvetica,sans-Serif" font-size="10.00">CCTextureProtocol</text>
</a>
</g>
</g>
<!-- Node21&#45;&gt;Node2 -->
<g id="edge36" class="edge">
<title>Node21&#45;&gt;Node2</title>
<path fill="none" stroke="midnightblue" d="M1461.25,-177.27C1493.48,-182.59 1531.83,-188.92 1559.87,-193.54"/>
<polygon fill="midnightblue" stroke="midnightblue" points="1461.46,-173.76 1451.03,-175.58 1460.32,-180.67 1461.46,-173.76"/>
</g>
<!-- Node22 -->
<g id="node22" class="node">
<title>Node22</title>
<g id="a_node22"><a xlink:href="../../d6/d82/classcocos2d_1_1_c_c_blend_protocol.html" target="_top" xlink:title="Specify the blending function according glBlendFunc Please refer to glBlendFunc in OpenGL ES Manual h...">
<polygon fill="none" stroke="black" points="1123,-157.5 1123,-176.5 1221,-176.5 1221,-157.5 1123,-157.5"/>
<text text-anchor="middle" x="1172" y="-164.5" font-family="Helvetica,sans-Serif" font-size="10.00">CCBlendProtocol</text>
</a>
</g>
</g>
<!-- Node22&#45;&gt;Node21 -->
<g id="edge37" class="edge">
<title>Node22&#45;&gt;Node21</title>
<path fill="none" stroke="midnightblue" d="M1231.17,-167C1266.3,-167 1310.71,-167 1344.73,-167"/>
<polygon fill="midnightblue" stroke="midnightblue" points="1231.05,-163.5 1221.05,-167 1231.05,-170.5 1231.05,-163.5"/>
</g>
<!-- Node23&#45;&gt;Node2 -->
<g id="edge39" class="edge">
<title>Node23&#45;&gt;Node2</title>
<path fill="none" stroke="#9a32cd" stroke-dasharray="5,2" d="M945,-126.26C1046,-122.25 1267.52,-118.17 1451,-148 1498.58,-155.73 1551.12,-177.63 1579.01,-190.41"/>
<polygon fill="#9a32cd" stroke="#9a32cd" points="944.58,-122.78 934.74,-126.69 944.87,-129.77 944.58,-122.78"/>
<text text-anchor="middle" x="1284.5" y="-136" font-family="Helvetica,sans-Serif" font-size="10.00"> m_pTextureAtlas</text>
</g>
<!-- Node24 -->
<g id="node24" class="node">
<title>Node24</title>
<g id="a_node24"><a xlink:href="../../dd/d60/structcc_v3_f___c4_b___t2_f___quad.html" target="_top" xlink:title="4 ccVertex3FTex2FColor4B">
<polygon fill="none" stroke="black" points="557,-110.5 557,-129.5 682,-129.5 682,-110.5 557,-110.5"/>
<text text-anchor="middle" x="619.5" y="-117.5" font-family="Helvetica,sans-Serif" font-size="10.00">ccV3F_C4B_T2F_Quad</text>
</a>
</g>
</g>
<!-- Node24&#45;&gt;Node23 -->
<g id="edge42" class="edge">
<title>Node24&#45;&gt;Node23</title>
<path fill="none" stroke="#9a32cd" stroke-dasharray="5,2" d="M692.24,-122.41C740.32,-124.03 802.13,-126.11 843.3,-127.5"/>
<polygon fill="#9a32cd" stroke="#9a32cd" points="692.32,-118.91 682.21,-122.08 692.08,-125.91 692.32,-118.91"/>
<text text-anchor="middle" x="752" y="-130" font-family="Helvetica,sans-Serif" font-size="10.00"> m_pQuads</text>
</g>
<!-- Node25 -->
<g id="node25" class="node">
<title>Node25</title>
<g id="a_node25"><a xlink:href="../../d7/de4/structcc_v3_f___c4_b___t2_f.html" target="_top" xlink:title="a Point with a vertex point, a tex coord point and a color 4B">
<polygon fill="none" stroke="black" points="303,-98.5 303,-117.5 397,-117.5 397,-98.5 303,-98.5"/>
<text text-anchor="middle" x="350" y="-105.5" font-family="Helvetica,sans-Serif" font-size="10.00">ccV3F_C4B_T2F</text>
</a>
</g>
</g>
<!-- Node25&#45;&gt;Node24 -->
<g id="edge43" class="edge">
<title>Node25&#45;&gt;Node24</title>
<path fill="none" stroke="#9a32cd" stroke-dasharray="5,2" d="M407.23,-106.36C444.63,-105.75 494.81,-105.84 539,-109 544.84,-109.42 550.9,-109.99 556.95,-110.67"/>
<polygon fill="#9a32cd" stroke="#9a32cd" points="406.97,-102.87 397.04,-106.55 407.1,-109.86 406.97,-102.87"/>
<text text-anchor="middle" x="477" y="-145" font-family="Helvetica,sans-Serif" font-size="10.00"> bl</text>
<text text-anchor="middle" x="477" y="-134" font-family="Helvetica,sans-Serif" font-size="10.00">br</text>
<text text-anchor="middle" x="477" y="-123" font-family="Helvetica,sans-Serif" font-size="10.00">tl</text>
<text text-anchor="middle" x="477" y="-112" font-family="Helvetica,sans-Serif" font-size="10.00">tr</text>
</g>
<!-- Node26 -->
<g id="node26" class="node">
<title>Node26</title>
<g id="a_node26"><a xlink:href="../../d3/d87/structcc_vertex3_f.html" target="_top" xlink:title="A vertex composed of 2 floats: x, y.">
<polygon fill="none" stroke="black" points="116.5,-95.5 116.5,-114.5 187.5,-114.5 187.5,-95.5 116.5,-95.5"/>
<text text-anchor="middle" x="152" y="-102.5" font-family="Helvetica,sans-Serif" font-size="10.00">ccVertex3F</text>
</a>
</g>
</g>
<!-- Node26&#45;&gt;Node25 -->
<g id="edge44" class="edge">
<title>Node26&#45;&gt;Node25</title>
<path fill="none" stroke="#9a32cd" stroke-dasharray="5,2" d="M197.83,-105.69C229.3,-106.17 271.25,-106.81 302.98,-107.3"/>
<polygon fill="#9a32cd" stroke="#9a32cd" points="197.64,-102.18 187.59,-105.53 197.53,-109.18 197.64,-102.18"/>
<text text-anchor="middle" x="250" y="-110" font-family="Helvetica,sans-Serif" font-size="10.00"> vertices</text>
</g>
<!-- Node27 -->
<g id="node27" class="node">
<title>Node27</title>
<g id="a_node27"><a xlink:href="../../d2/dd4/structcc_color4_b.html" target="_top" xlink:title="RGBA color composed of 4 bytes.">
<polygon fill="none" stroke="black" points="119.5,-38.5 119.5,-57.5 184.5,-57.5 184.5,-38.5 119.5,-38.5"/>
<text text-anchor="middle" x="152" y="-45.5" font-family="Helvetica,sans-Serif" font-size="10.00">ccColor4B</text>
</a>
</g>
</g>
<!-- Node27&#45;&gt;Node25 -->
<g id="edge45" class="edge">
<title>Node27&#45;&gt;Node25</title>
<path fill="none" stroke="#9a32cd" stroke-dasharray="5,2" d="M193.99,-60.55C230.86,-71.84 284.25,-88.18 317.76,-98.44"/>
<polygon fill="#9a32cd" stroke="#9a32cd" points="194.64,-57.09 184.06,-57.51 192.59,-63.78 194.64,-57.09"/>
<text text-anchor="middle" x="250" y="-90" font-family="Helvetica,sans-Serif" font-size="10.00"> colors</text>
</g>
<!-- Node28 -->
<g id="node28" class="node">
<title>Node28</title>
<g id="a_node28"><a xlink:href="../../d0/d46/structcc_tex2_f.html" target="_top" xlink:title="A texcoord composed of 2 floats: u, y.">
<polygon fill="none" stroke="black" points="124,-133.5 124,-152.5 180,-152.5 180,-133.5 124,-133.5"/>
<text text-anchor="middle" x="152" y="-140.5" font-family="Helvetica,sans-Serif" font-size="10.00">ccTex2F</text>
</a>
</g>
</g>
<!-- Node28&#45;&gt;Node25 -->
<g id="edge46" class="edge">
<title>Node28&#45;&gt;Node25</title>
<path fill="none" stroke="#9a32cd" stroke-dasharray="5,2" d="M190.1,-136.38C222.08,-130.66 268.39,-122.39 302.78,-116.25"/>
<polygon fill="#9a32cd" stroke="#9a32cd" points="189.48,-132.93 180.25,-138.13 190.71,-139.82 189.48,-132.93"/>
<text text-anchor="middle" x="250" y="-135" font-family="Helvetica,sans-Serif" font-size="10.00"> texCoords</text>
</g>
<!-- Node29 -->
<g id="node29" class="node">
<title>Node29</title>
<g id="a_node29"><a xlink:href="../../d6/d45/structcc_blend_func.html" target="_top" xlink:title="Blend Function used for textures.">
<polygon fill="none" stroke="black" points="1359.5,-280.5 1359.5,-299.5 1436.5,-299.5 1436.5,-280.5 1359.5,-280.5"/>
<text text-anchor="middle" x="1398" y="-287.5" font-family="Helvetica,sans-Serif" font-size="10.00">ccBlendFunc</text>
</a>
</g>
</g>
<!-- Node29&#45;&gt;Node2 -->
<g id="edge47" class="edge">
<title>Node29&#45;&gt;Node2</title>
<path fill="none" stroke="#9a32cd" stroke-dasharray="5,2" d="M1446.42,-282.28C1475.28,-276.26 1512.19,-266.15 1542,-250 1561.68,-239.34 1580.36,-220.79 1590.69,-209.53"/>
<polygon fill="#9a32cd" stroke="#9a32cd" points="1445.7,-278.85 1436.57,-284.24 1447.07,-285.72 1445.7,-278.85"/>
<text text-anchor="middle" x="1505.5" y="-280" font-family="Helvetica,sans-Serif" font-size="10.00"> m_tBlendFunc</text>
</g>
<!-- Node30&#45;&gt;Node1 -->
<g id="edge48" class="edge">
<title>Node30&#45;&gt;Node1</title>
<path fill="none" stroke="#9a32cd" stroke-dasharray="5,2" d="M400.7,-70.89C454.41,-71.77 542.52,-73 618.5,-73 618.5,-73 618.5,-73 1601,-73 1626.11,-73 1654,-75.55 1676.76,-78.3"/>
<polygon fill="#9a32cd" stroke="#9a32cd" points="400.49,-67.39 390.43,-70.72 400.37,-74.39 400.49,-67.39"/>
<text text-anchor="middle" x="1172" y="-76" font-family="Helvetica,sans-Serif" font-size="10.00"> m_pPosToAtlasIndex</text>
</g>
<!-- Node31 -->
<g id="node31" class="node">
<title>Node31</title>
<g id="a_node31"><a xlink:href="../../d0/da2/classcocos2d_1_1_c_c_dict_element.html" target="_top" xlink:title="CCDictElement is used for traversing CCDictionary.">
<polygon fill="none" stroke="black" points="107,-0.5 107,-19.5 197,-19.5 197,-0.5 107,-0.5"/>
<text text-anchor="middle" x="152" y="-7.5" font-family="Helvetica,sans-Serif" font-size="10.00">CCDictElement</text>
</a>
</g>
</g>
<!-- Node31&#45;&gt;Node30 -->
<g id="edge50" class="edge">
<title>Node31&#45;&gt;Node30</title>
<path fill="none" stroke="#9a32cd" stroke-dasharray="5,2" d="M193.99,-22.55C230.86,-33.84 284.25,-50.18 317.76,-60.44"/>
<polygon fill="#9a32cd" stroke="#9a32cd" points="194.64,-19.09 184.06,-19.51 192.59,-25.78 194.64,-19.09"/>
<text text-anchor="middle" x="250" y="-52" font-family="Helvetica,sans-Serif" font-size="10.00"> m_pElements</text>
</g>
</g>
</svg>
