<?xml version="1.0" encoding="UTF-8" standalone="no"?>
<!DOCTYPE svg PUBLIC "-//W3C//DTD SVG 1.1//EN"
 "http://www.w3.org/Graphics/SVG/1.1/DTD/svg11.dtd">
<!-- Generated by graphviz version 2.43.0 (0)
 -->
<!-- Title: CCJumpBy Pages: 1 -->
<svg width="1644pt" height="621pt"
 viewBox="0.00 0.00 1644.00 620.50" xmlns="http://www.w3.org/2000/svg" xmlns:xlink="http://www.w3.org/1999/xlink">
<g id="graph0" class="graph" transform="scale(1 1) rotate(0) translate(4 616.5)">
<title>CCJumpBy</title>
<!-- Node1 -->
<g id="node1" class="node">
<title>Node1</title>
<g id="a_node1"><a xlink:title="Moves a CCNode object simulating a parabolic jump movement by modifying it&#39;s position attribute.">
<polygon fill="#999999" stroke="#666666" points="1636,-63 1568,-63 1568,-44 1636,-44 1636,-63"/>
<text text-anchor="middle" x="1602" y="-51" font-family="Helvetica,sans-Serif" font-size="10.00">CCJumpBy</text>
</a>
</g>
</g>
<!-- Node2 -->
<g id="node2" class="node">
<title>Node2</title>
<g id="a_node2"><a xlink:href="../../dd/d8d/classcocos2d_1_1_c_c_action_interval.html" target="_top" xlink:title="An interval action is an action that takes place within a certain period of time.">
<polygon fill="white" stroke="#666666" points="1531,-137 1433,-137 1433,-118 1531,-118 1531,-137"/>
<text text-anchor="middle" x="1482" y="-125" font-family="Helvetica,sans-Serif" font-size="10.00">CCActionInterval</text>
</a>
</g>
</g>
<!-- Node2&#45;&gt;Node1 -->
<g id="edge1" class="edge">
<title>Node2&#45;&gt;Node1</title>
<path fill="none" stroke="#63b8ff" d="M1507.11,-112.38C1530.6,-97.65 1565.6,-75.7 1585.57,-63.18"/>
<polygon fill="#63b8ff" stroke="#63b8ff" points="1505.04,-109.55 1498.43,-117.83 1508.76,-115.48 1505.04,-109.55"/>
</g>
<!-- Node3 -->
<g id="node3" class="node">
<title>Node3</title>
<g id="a_node3"><a xlink:href="../../dd/d89/classcocos2d_1_1_c_c_finite_time_action.html" target="_top" xlink:title="Base class actions that do have a finite time duration.">
<polygon fill="white" stroke="#666666" points="1396,-206 1283,-206 1283,-187 1396,-187 1396,-206"/>
<text text-anchor="middle" x="1339.5" y="-194" font-family="Helvetica,sans-Serif" font-size="10.00">CCFiniteTimeAction</text>
</a>
</g>
</g>
<!-- Node3&#45;&gt;Node2 -->
<g id="edge2" class="edge">
<title>Node3&#45;&gt;Node2</title>
<path fill="none" stroke="#63b8ff" d="M1369.19,-182.41C1396.77,-168.87 1437.7,-148.77 1461.63,-137.01"/>
<polygon fill="#63b8ff" stroke="#63b8ff" points="1367.47,-179.36 1360.04,-186.91 1370.55,-185.64 1367.47,-179.36"/>
</g>
<!-- Node4 -->
<g id="node4" class="node">
<title>Node4</title>
<g id="a_node4"><a xlink:href="../../d7/d12/classcocos2d_1_1_c_c_action.html" target="_top" xlink:title="Base class for CCAction objects.">
<polygon fill="white" stroke="#666666" points="1238,-363 1177,-363 1177,-344 1238,-344 1238,-363"/>
<text text-anchor="middle" x="1207.5" y="-351" font-family="Helvetica,sans-Serif" font-size="10.00">CCAction</text>
</a>
</g>
</g>
<!-- Node4&#45;&gt;Node3 -->
<g id="edge3" class="edge">
<title>Node4&#45;&gt;Node3</title>
<path fill="none" stroke="#63b8ff" d="M1223.21,-335.73C1250.68,-302.55 1308.94,-232.2 1330.37,-206.32"/>
<polygon fill="#63b8ff" stroke="#63b8ff" points="1220.31,-333.74 1216.63,-343.68 1225.71,-338.21 1220.31,-333.74"/>
</g>
<!-- Node5 -->
<g id="node5" class="node">
<title>Node5</title>
<g id="a_node5"><a xlink:href="../../d3/dbf/classcocos2d_1_1_c_c_object.html" target="_top" xlink:title="NA.">
<polygon fill="white" stroke="#666666" points="169,-376 107,-376 107,-357 169,-357 169,-376"/>
<text text-anchor="middle" x="138" y="-364" font-family="Helvetica,sans-Serif" font-size="10.00">CCObject</text>
</a>
</g>
</g>
<!-- Node5&#45;&gt;Node4 -->
<g id="edge4" class="edge">
<title>Node5&#45;&gt;Node4</title>
<path fill="none" stroke="#63b8ff" d="M138.71,-386.29C139,-444.74 148.39,-612.5 247,-612.5 247,-612.5 247,-612.5 1013,-612.5 1140.13,-612.5 1193.77,-409.75 1204.45,-363.03"/>
<polygon fill="#63b8ff" stroke="#63b8ff" points="142.21,-386.16 138.75,-376.14 135.21,-386.13 142.21,-386.16"/>
</g>
<!-- Node7 -->
<g id="node7" class="node">
<title>Node7</title>
<g id="a_node7"><a xlink:href="../../d0/ded/classcocos2d_1_1_c_c_node.html" target="_top" xlink:title="CCNode is the main element.">
<polygon fill="white" stroke="#666666" points="1040,-363 984,-363 984,-344 1040,-344 1040,-363"/>
<text text-anchor="middle" x="1012" y="-351" font-family="Helvetica,sans-Serif" font-size="10.00">CCNode</text>
</a>
</g>
</g>
<!-- Node5&#45;&gt;Node7 -->
<g id="edge7" class="edge">
<title>Node5&#45;&gt;Node7</title>
<path fill="none" stroke="#63b8ff" d="M143.31,-386.04C149.36,-409.26 162.49,-447.81 187,-471.5 207.77,-491.58 218.11,-496.5 247,-496.5 247,-496.5 247,-496.5 619,-496.5 696.3,-496.5 903.96,-518.61 966,-472.5 1001.99,-445.75 1009.2,-386.6 1010.64,-363.25"/>
<polygon fill="#63b8ff" stroke="#63b8ff" points="146.7,-385.18 140.95,-376.29 139.9,-386.83 146.7,-385.18"/>
</g>
<!-- Node5&#45;&gt;Node7 -->
<g id="edge28" class="edge">
<title>Node5&#45;&gt;Node7</title>
<path fill="none" stroke="#9a32cd" stroke-dasharray="5,2" d="M162.44,-381.31C170.16,-386.01 178.86,-391.13 187,-395.5 235.15,-421.37 253.59,-412.31 308,-417.5 534.7,-439.11 592.85,-453.75 820,-437.5 885.39,-432.82 910,-450.58 966,-416.5 986.9,-403.78 1000.83,-377.31 1007.13,-363.06"/>
<polygon fill="#9a32cd" stroke="#9a32cd" points="164.25,-378.32 153.91,-376.04 160.58,-384.27 164.25,-378.32"/>
<text text-anchor="middle" x="500" y="-444.5" font-family="Helvetica,sans-Serif" font-size="10.00"> m_pUserObject</text>
</g>
<!-- Node11 -->
<g id="node11" class="node">
<title>Node11</title>
<g id="a_node11"><a xlink:href="../../d2/d51/classcocos2d_1_1_c_c_camera.html" target="_top" xlink:title="A CCCamera is used in every CCNode.">
<polygon fill="white" stroke="#666666" points="652,-425 584,-425 584,-406 652,-406 652,-425"/>
<text text-anchor="middle" x="618" y="-413" font-family="Helvetica,sans-Serif" font-size="10.00">CCCamera</text>
</a>
</g>
</g>
<!-- Node5&#45;&gt;Node11 -->
<g id="edge12" class="edge">
<title>Node5&#45;&gt;Node11</title>
<path fill="none" stroke="#63b8ff" d="M178.8,-378.66C187.68,-380.96 197.1,-383.09 206,-384.5 345.22,-406.61 513.56,-413.05 583.76,-414.84"/>
<polygon fill="#63b8ff" stroke="#63b8ff" points="179.63,-375.26 169.06,-376.02 177.79,-382.02 179.63,-375.26"/>
</g>
<!-- Node12 -->
<g id="node12" class="node">
<title>Node12</title>
<g id="a_node12"><a xlink:href="../../d6/d70/classcocos2d_1_1_c_c_grid_base.html" target="_top" xlink:title="Base class for other.">
<polygon fill="white" stroke="#666666" points="790,-140 716,-140 716,-121 790,-121 790,-140"/>
<text text-anchor="middle" x="753" y="-128" font-family="Helvetica,sans-Serif" font-size="10.00">CCGridBase</text>
</a>
</g>
</g>
<!-- Node5&#45;&gt;Node12 -->
<g id="edge14" class="edge">
<title>Node5&#45;&gt;Node12</title>
<path fill="none" stroke="#63b8ff" d="M138.5,-346.44C138.59,-302.62 145.51,-198.14 206,-146.5 362.43,-12.95 462.75,-106.12 668,-119.5 683.7,-120.52 700.96,-122.61 715.72,-124.7"/>
<polygon fill="#63b8ff" stroke="#63b8ff" points="135,-346.69 138.6,-356.65 142,-346.62 135,-346.69"/>
</g>
<!-- Node13 -->
<g id="node13" class="node">
<title>Node13</title>
<g id="a_node13"><a xlink:href="../../d7/dfd/classcocos2d_1_1_c_c_texture2_d.html" target="_top" xlink:title="CCTexture2D class.">
<polygon fill="white" stroke="#666666" points="540,-221 460,-221 460,-202 540,-202 540,-221"/>
<text text-anchor="middle" x="500" y="-209" font-family="Helvetica,sans-Serif" font-size="10.00">CCTexture2D</text>
</a>
</g>
</g>
<!-- Node5&#45;&gt;Node13 -->
<g id="edge17" class="edge">
<title>Node5&#45;&gt;Node13</title>
<path fill="none" stroke="#63b8ff" d="M145.14,-347.28C154.28,-321.88 173.89,-277.54 206,-253.5 281.49,-196.99 399.3,-199.91 459.97,-206.1"/>
<polygon fill="#63b8ff" stroke="#63b8ff" points="141.78,-346.3 141.87,-356.9 148.41,-348.56 141.78,-346.3"/>
</g>
<!-- Node14 -->
<g id="node14" class="node">
<title>Node14</title>
<g id="a_node14"><a xlink:href="../../db/d28/classcocos2d_1_1_c_c_g_l_program.html" target="_top" xlink:title="CCGLProgram Class that implements a glProgram.">
<polygon fill="white" stroke="#666666" points="290,-175 206,-175 206,-156 290,-156 290,-175"/>
<text text-anchor="middle" x="248" y="-163" font-family="Helvetica,sans-Serif" font-size="10.00">CCGLProgram</text>
</a>
</g>
</g>
<!-- Node5&#45;&gt;Node14 -->
<g id="edge20" class="edge">
<title>Node5&#45;&gt;Node14</title>
<path fill="none" stroke="#63b8ff" d="M139.97,-346.28C142.57,-312.46 152.08,-243.79 187,-199.5 195.6,-188.59 208.72,-180.59 220.51,-175.1"/>
<polygon fill="#63b8ff" stroke="#63b8ff" points="136.45,-346.49 139.31,-356.69 143.44,-346.93 136.45,-346.49"/>
</g>
<!-- Node15 -->
<g id="node15" class="node">
<title>Node15</title>
<g id="a_node15"><a xlink:href="../../d3/d89/classcocos2d_1_1_c_c_grabber.html" target="_top" xlink:title="FBO class that grabs the the contents of the screen NA NA.">
<polygon fill="white" stroke="#666666" points="404.5,-19 335.5,-19 335.5,0 404.5,0 404.5,-19"/>
<text text-anchor="middle" x="370" y="-7" font-family="Helvetica,sans-Serif" font-size="10.00">CCGrabber</text>
</a>
</g>
</g>
<!-- Node5&#45;&gt;Node15 -->
<g id="edge23" class="edge">
<title>Node5&#45;&gt;Node15</title>
<path fill="none" stroke="#63b8ff" d="M139.62,-346.5C141.86,-286.97 151.38,-112.44 187,-70.5 224.21,-26.68 293.91,-14.22 335.42,-10.75"/>
<polygon fill="#63b8ff" stroke="#63b8ff" points="136.11,-346.69 139.26,-356.8 143.11,-346.93 136.11,-346.69"/>
</g>
<!-- Node16 -->
<g id="node16" class="node">
<title>Node16</title>
<g id="a_node16"><a xlink:href="../../d9/d2e/classcocos2d_1_1_c_c_array.html" target="_top" xlink:title="NA.">
<polygon fill="white" stroke="#666666" points="276,-376 220,-376 220,-357 276,-357 276,-376"/>
<text text-anchor="middle" x="248" y="-364" font-family="Helvetica,sans-Serif" font-size="10.00">CCArray</text>
</a>
</g>
</g>
<!-- Node5&#45;&gt;Node16 -->
<g id="edge26" class="edge">
<title>Node5&#45;&gt;Node16</title>
<path fill="none" stroke="#63b8ff" d="M179.11,-366.5C192.62,-366.5 207.37,-366.5 219.66,-366.5"/>
<polygon fill="#63b8ff" stroke="#63b8ff" points="179.08,-363 169.08,-366.5 179.08,-370 179.08,-363"/>
</g>
<!-- Node17 -->
<g id="node17" class="node">
<title>Node17</title>
<g id="a_node17"><a xlink:href="../../de/dee/classcocos2d_1_1_c_c_scheduler.html" target="_top" xlink:title="Scheduler is responsible for triggering the scheduled callbacks.">
<polygon fill="white" stroke="#666666" points="539,-345 461,-345 461,-326 539,-326 539,-345"/>
<text text-anchor="middle" x="500" y="-333" font-family="Helvetica,sans-Serif" font-size="10.00">CCScheduler</text>
</a>
</g>
</g>
<!-- Node5&#45;&gt;Node17 -->
<g id="edge31" class="edge">
<title>Node5&#45;&gt;Node17</title>
<path fill="none" stroke="#63b8ff" d="M177.73,-354.18C186.92,-351.63 196.74,-349.21 206,-347.5 296.12,-330.9 404.37,-331.71 460.69,-333.66"/>
<polygon fill="#63b8ff" stroke="#63b8ff" points="176.71,-350.83 168.07,-356.97 178.65,-357.56 176.71,-350.83"/>
</g>
<!-- Node18 -->
<g id="node18" class="node">
<title>Node18</title>
<g id="a_node18"><a xlink:href="../../d5/dcb/classcocos2d_1_1_c_c_action_manager.html" target="_top" xlink:title="CCActionManager is a singleton that manages all the actions.">
<polygon fill="white" stroke="#666666" points="422,-584 318,-584 318,-565 422,-565 422,-584"/>
<text text-anchor="middle" x="370" y="-572" font-family="Helvetica,sans-Serif" font-size="10.00">CCActionManager</text>
</a>
</g>
</g>
<!-- Node5&#45;&gt;Node18 -->
<g id="edge34" class="edge">
<title>Node5&#45;&gt;Node18</title>
<path fill="none" stroke="#63b8ff" d="M140.21,-386.29C143.12,-416.96 153.08,-476.02 187,-510.5 221.76,-545.84 277.16,-561.71 317.72,-568.81"/>
<polygon fill="#63b8ff" stroke="#63b8ff" points="143.67,-385.73 139.4,-376.03 136.7,-386.28 143.67,-385.73"/>
</g>
<!-- Node6 -->
<g id="node6" class="node">
<title>Node6</title>
<g id="a_node6"><a xlink:href="../../d5/d61/classcocos2d_1_1_c_c_copying.html" target="_top" xlink:title="NA NA.">
<polygon fill="white" stroke="#666666" points="70,-376 0,-376 0,-357 70,-357 70,-376"/>
<text text-anchor="middle" x="35" y="-364" font-family="Helvetica,sans-Serif" font-size="10.00">CCCopying</text>
</a>
</g>
</g>
<!-- Node6&#45;&gt;Node5 -->
<g id="edge5" class="edge">
<title>Node6&#45;&gt;Node5</title>
<path fill="none" stroke="#63b8ff" d="M80.2,-366.5C89.22,-366.5 98.51,-366.5 106.9,-366.5"/>
<polygon fill="#63b8ff" stroke="#63b8ff" points="80.19,-363 70.19,-366.5 80.19,-370 80.19,-363"/>
</g>
<!-- Node7&#45;&gt;Node4 -->
<g id="edge6" class="edge">
<title>Node7&#45;&gt;Node4</title>
<path fill="none" stroke="#9a32cd" stroke-dasharray="5,2" d="M1050.65,-353.5C1087.51,-353.5 1142.92,-353.5 1176.79,-353.5"/>
<polygon fill="#9a32cd" stroke="#9a32cd" points="1050.31,-350 1040.31,-353.5 1050.31,-357 1050.31,-350"/>
<text text-anchor="middle" x="1104.5" y="-367.5" font-family="Helvetica,sans-Serif" font-size="10.00"> m_pOriginalTarget</text>
<text text-anchor="middle" x="1104.5" y="-356.5" font-family="Helvetica,sans-Serif" font-size="10.00">m_pTarget</text>
</g>
<!-- Node7&#45;&gt;Node7 -->
<g id="edge27" class="edge">
<title>Node7&#45;&gt;Node7</title>
<path fill="none" stroke="#9a32cd" stroke-dasharray="5,2" d="M995.06,-372.91C996.39,-377.56 1002.04,-381 1012,-381 1028.35,-381 1033.08,-371.73 1026.18,-363.08"/>
<polygon fill="#9a32cd" stroke="#9a32cd" points="998.48,-373.66 997.82,-363.08 991.75,-371.76 998.48,-373.66"/>
<text text-anchor="middle" x="1012" y="-384" font-family="Helvetica,sans-Serif" font-size="10.00"> m_pParent</text>
</g>
<!-- Node8 -->
<g id="node8" class="node">
<title>Node8</title>
<g id="a_node8"><a xlink:href="../../d2/df3/classcocos2d_1_1_c_c_point.html" target="_top" xlink:title="NA.">
<polygon fill="white" stroke="#666666" points="527.5,-56 472.5,-56 472.5,-37 527.5,-37 527.5,-56"/>
<text text-anchor="middle" x="500" y="-44" font-family="Helvetica,sans-Serif" font-size="10.00">CCPoint</text>
</a>
</g>
</g>
<!-- Node8&#45;&gt;Node1 -->
<g id="edge36" class="edge">
<title>Node8&#45;&gt;Node1</title>
<path fill="none" stroke="#9a32cd" stroke-dasharray="5,2" d="M537.73,-40.54C586.53,-33.14 675.5,-21.5 752,-21.5 752,-21.5 752,-21.5 1483,-21.5 1517.6,-21.5 1555.98,-34.47 1579.29,-43.9"/>
<polygon fill="#9a32cd" stroke="#9a32cd" points="537.01,-37.11 527.66,-42.09 538.08,-44.02 537.01,-37.11"/>
<text text-anchor="middle" x="1207.5" y="-46.5" font-family="Helvetica,sans-Serif" font-size="10.00"> m_delta</text>
<text text-anchor="middle" x="1207.5" y="-35.5" font-family="Helvetica,sans-Serif" font-size="10.00">m_previousPos</text>
<text text-anchor="middle" x="1207.5" y="-24.5" font-family="Helvetica,sans-Serif" font-size="10.00">m_startPosition</text>
</g>
<!-- Node8&#45;&gt;Node7 -->
<g id="edge8" class="edge">
<title>Node8&#45;&gt;Node7</title>
<path fill="none" stroke="#9a32cd" stroke-dasharray="5,2" d="M538.02,-46.93C637.88,-48.95 909.11,-60.25 966,-123.5 996.13,-157 1007.81,-304.72 1010.41,-343.92"/>
<polygon fill="#9a32cd" stroke="#9a32cd" points="537.87,-43.43 527.8,-46.75 537.74,-50.43 537.87,-43.43"/>
<text text-anchor="middle" x="753" y="-94.5" font-family="Helvetica,sans-Serif" font-size="10.00"> m_obAnchorPoint</text>
<text text-anchor="middle" x="753" y="-83.5" font-family="Helvetica,sans-Serif" font-size="10.00">m_obAnchorPointInPoints</text>
<text text-anchor="middle" x="753" y="-72.5" font-family="Helvetica,sans-Serif" font-size="10.00">m_obPosition</text>
</g>
<!-- Node8&#45;&gt;Node12 -->
<g id="edge21" class="edge">
<title>Node8&#45;&gt;Node12</title>
<path fill="none" stroke="#9a32cd" stroke-dasharray="5,2" d="M537.75,-52.56C583.53,-60.32 657.1,-73.6 668,-80.5 679.27,-87.63 675.4,-96.42 686,-104.5 695.3,-111.59 706.79,-117 717.56,-121"/>
<polygon fill="#9a32cd" stroke="#9a32cd" points="538.04,-49.06 527.6,-50.85 536.88,-55.96 538.04,-49.06"/>
<text text-anchor="middle" x="618" y="-83.5" font-family="Helvetica,sans-Serif" font-size="10.00"> m_obStep</text>
</g>
<!-- Node9 -->
<g id="node9" class="node">
<title>Node9</title>
<g id="a_node9"><a xlink:href="../../d9/d24/classcocos2d_1_1_c_c_size.html" target="_top" xlink:title="NA.">
<polygon fill="white" stroke="#666666" points="273,-282 223,-282 223,-263 273,-263 273,-282"/>
<text text-anchor="middle" x="248" y="-270" font-family="Helvetica,sans-Serif" font-size="10.00">CCSize</text>
</a>
</g>
</g>
<!-- Node9&#45;&gt;Node7 -->
<g id="edge9" class="edge">
<title>Node9&#45;&gt;Node7</title>
<path fill="none" stroke="#9a32cd" stroke-dasharray="5,2" d="M283.15,-279.97C291.26,-281.44 299.9,-282.75 308,-283.5 415.1,-293.4 442.59,-289.01 550,-283.5 610.68,-280.38 625.32,-272.62 686,-269.5 745.48,-266.45 760.49,-267.26 820,-269.5 885.03,-271.95 910.41,-246.67 966,-280.5 989.91,-295.05 1002.97,-327.6 1008.22,-343.86"/>
<polygon fill="#9a32cd" stroke="#9a32cd" points="283.74,-276.52 273.26,-278.06 282.42,-283.39 283.74,-276.52"/>
<text text-anchor="middle" x="618" y="-285.5" font-family="Helvetica,sans-Serif" font-size="10.00"> m_obContentSize</text>
</g>
<!-- Node9&#45;&gt;Node12 -->
<g id="edge15" class="edge">
<title>Node9&#45;&gt;Node12</title>
<path fill="none" stroke="#9a32cd" stroke-dasharray="5,2" d="M283.65,-275.05C358.51,-279.01 538.98,-280.15 668,-212.5 702.47,-194.42 732.27,-157.68 745.17,-140.18"/>
<polygon fill="#9a32cd" stroke="#9a32cd" points="283.58,-271.54 273.39,-274.45 283.17,-278.52 283.58,-271.54"/>
<text text-anchor="middle" x="500" y="-274.5" font-family="Helvetica,sans-Serif" font-size="10.00"> m_sGridSize</text>
</g>
<!-- Node9&#45;&gt;Node13 -->
<g id="edge18" class="edge">
<title>Node9&#45;&gt;Node13</title>
<path fill="none" stroke="#9a32cd" stroke-dasharray="5,2" d="M277.87,-258.79C287.31,-254.7 297.96,-250.52 308,-247.5 361.68,-231.36 376.93,-234.95 432,-224.5 440.96,-222.8 450.6,-220.95 459.69,-219.18"/>
<polygon fill="#9a32cd" stroke="#9a32cd" points="276.24,-255.68 268.54,-262.95 279.1,-262.07 276.24,-255.68"/>
<text text-anchor="middle" x="370" y="-250.5" font-family="Helvetica,sans-Serif" font-size="10.00"> m_tContentSize</text>
</g>
<!-- Node10 -->
<g id="node10" class="node">
<title>Node10</title>
<g id="a_node10"><a xlink:href="../../da/dbf/structcocos2d_1_1_c_c_affine_transform.html" target="_top" xlink:title=" ">
<polygon fill="white" stroke="#666666" points="806.5,-544 699.5,-544 699.5,-525 806.5,-525 806.5,-544"/>
<text text-anchor="middle" x="753" y="-532" font-family="Helvetica,sans-Serif" font-size="10.00">CCAffineTransform</text>
</a>
</g>
</g>
<!-- Node10&#45;&gt;Node7 -->
<g id="edge10" class="edge">
<title>Node10&#45;&gt;Node7</title>
<path fill="none" stroke="#9a32cd" stroke-dasharray="5,2" d="M816.95,-529.04C875.31,-523.43 954.77,-514.17 966,-504.5 1009.32,-467.2 1011.9,-390.16 1011.39,-363.13"/>
<polygon fill="#9a32cd" stroke="#9a32cd" points="816.31,-525.59 806.69,-530.01 816.97,-532.55 816.31,-525.59"/>
<text text-anchor="middle" x="902" y="-552.5" font-family="Helvetica,sans-Serif" font-size="10.00"> m_sAdditionalTransform</text>
<text text-anchor="middle" x="902" y="-541.5" font-family="Helvetica,sans-Serif" font-size="10.00">m_sInverse</text>
<text text-anchor="middle" x="902" y="-530.5" font-family="Helvetica,sans-Serif" font-size="10.00">m_sTransform</text>
</g>
<!-- Node11&#45;&gt;Node7 -->
<g id="edge11" class="edge">
<title>Node11&#45;&gt;Node7</title>
<path fill="none" stroke="#9a32cd" stroke-dasharray="5,2" d="M662.65,-419.59C730.13,-424.26 862.79,-426.79 966,-387.5 979.91,-382.2 993.17,-371.21 1001.64,-363.15"/>
<polygon fill="#9a32cd" stroke="#9a32cd" points="662.62,-416.08 652.39,-418.83 662.1,-423.06 662.62,-416.08"/>
<text text-anchor="middle" x="753" y="-425.5" font-family="Helvetica,sans-Serif" font-size="10.00"> m_pCamera</text>
</g>
<!-- Node12&#45;&gt;Node7 -->
<g id="edge13" class="edge">
<title>Node12&#45;&gt;Node7</title>
<path fill="none" stroke="#9a32cd" stroke-dasharray="5,2" d="M800.46,-126.38C848.27,-124.85 921.84,-130.42 966,-172.5 991.43,-196.74 1006.08,-309.94 1009.96,-343.87"/>
<polygon fill="#9a32cd" stroke="#9a32cd" points="800.21,-122.89 790.37,-126.83 800.51,-129.88 800.21,-122.89"/>
<text text-anchor="middle" x="902" y="-175.5" font-family="Helvetica,sans-Serif" font-size="10.00"> m_pGrid</text>
</g>
<!-- Node13&#45;&gt;Node12 -->
<g id="edge16" class="edge">
<title>Node13&#45;&gt;Node12</title>
<path fill="none" stroke="#9a32cd" stroke-dasharray="5,2" d="M519.48,-195.24C532.25,-184.87 550.12,-172 568,-164.5 594.14,-153.54 670.13,-141.72 715.87,-135.31"/>
<polygon fill="#9a32cd" stroke="#9a32cd" points="516.92,-192.82 511.51,-201.93 521.42,-198.18 516.92,-192.82"/>
<text text-anchor="middle" x="618" y="-167.5" font-family="Helvetica,sans-Serif" font-size="10.00"> m_pTexture</text>
</g>
<!-- Node14&#45;&gt;Node7 -->
<g id="edge29" class="edge">
<title>Node14&#45;&gt;Node7</title>
<path fill="none" stroke="#9a32cd" stroke-dasharray="5,2" d="M300.62,-164.25C337.34,-163.88 387.8,-164.4 432,-168.5 551.86,-179.63 869.92,-186.98 966,-259.5 994.3,-280.86 1005.65,-324.62 1009.41,-343.95"/>
<polygon fill="#9a32cd" stroke="#9a32cd" points="300.12,-160.76 290.16,-164.39 300.21,-167.76 300.12,-160.76"/>
<text text-anchor="middle" x="618" y="-189.5" font-family="Helvetica,sans-Serif" font-size="10.00"> m_pShaderProgram</text>
</g>
<!-- Node14&#45;&gt;Node12 -->
<g id="edge24" class="edge">
<title>Node14&#45;&gt;Node12</title>
<path fill="none" stroke="#9a32cd" stroke-dasharray="5,2" d="M278.97,-152.16C288.11,-148.69 298.31,-145.39 308,-143.5 457.1,-114.35 639.65,-122.36 715.88,-127.61"/>
<polygon fill="#9a32cd" stroke="#9a32cd" points="277.52,-148.98 269.54,-155.95 280.13,-155.47 277.52,-148.98"/>
<text text-anchor="middle" x="500" y="-129.5" font-family="Helvetica,sans-Serif" font-size="10.00"> m_pShaderProgram</text>
</g>
<!-- Node14&#45;&gt;Node13 -->
<g id="edge19" class="edge">
<title>Node14&#45;&gt;Node13</title>
<path fill="none" stroke="#9a32cd" stroke-dasharray="5,2" d="M300.17,-169.1C337.14,-172.38 388.09,-178.32 432,-188.5 446.62,-191.89 462.52,-197.27 475.16,-201.98"/>
<polygon fill="#9a32cd" stroke="#9a32cd" points="300.39,-165.6 290.13,-168.24 299.79,-172.58 300.39,-165.6"/>
<text text-anchor="middle" x="370" y="-191.5" font-family="Helvetica,sans-Serif" font-size="10.00"> m_pShaderProgram</text>
</g>
<!-- Node15&#45;&gt;Node12 -->
<g id="edge22" class="edge">
<title>Node15&#45;&gt;Node12</title>
<path fill="none" stroke="#9a32cd" stroke-dasharray="5,2" d="M414.9,-7.91C451.35,-7.37 504.43,-8.43 550,-16.5 604.25,-26.11 628.38,-16.21 668,-54.5 684.98,-70.91 669.55,-87.55 686,-104.5 694.06,-112.81 705.1,-118.52 715.85,-122.42"/>
<polygon fill="#9a32cd" stroke="#9a32cd" points="414.54,-4.41 404.61,-8.11 414.68,-11.41 414.54,-4.41"/>
<text text-anchor="middle" x="500" y="-19.5" font-family="Helvetica,sans-Serif" font-size="10.00"> m_pGrabber</text>
</g>
<!-- Node16&#45;&gt;Node7 -->
<g id="edge25" class="edge">
<title>Node16&#45;&gt;Node7</title>
<path fill="none" stroke="#9a32cd" stroke-dasharray="5,2" d="M286.03,-367.22C293.32,-367.34 300.9,-367.44 308,-367.5 363.11,-367.97 376.89,-367.91 432,-367.5 669.35,-365.72 729.29,-376.99 966,-359.5 971.82,-359.07 978.03,-358.39 983.93,-357.63"/>
<polygon fill="#9a32cd" stroke="#9a32cd" points="286.08,-363.72 276.02,-367.05 285.96,-370.72 286.08,-363.72"/>
<text text-anchor="middle" x="618" y="-372.5" font-family="Helvetica,sans-Serif" font-size="10.00"> m_pChildren</text>
</g>
<!-- Node16&#45;&gt;Node17 -->
<g id="edge32" class="edge">
<title>Node16&#45;&gt;Node17</title>
<path fill="none" stroke="#9a32cd" stroke-dasharray="5,2" d="M286.45,-359.81C293.59,-358.64 301.02,-357.47 308,-356.5 360.86,-349.12 422.26,-342.76 460.87,-339.03"/>
<polygon fill="#9a32cd" stroke="#9a32cd" points="285.54,-356.42 276.27,-361.54 286.71,-363.32 285.54,-356.42"/>
<text text-anchor="middle" x="370" y="-359.5" font-family="Helvetica,sans-Serif" font-size="10.00"> m_pScriptHandlerEntries</text>
</g>
<!-- Node17&#45;&gt;Node7 -->
<g id="edge30" class="edge">
<title>Node17&#45;&gt;Node7</title>
<path fill="none" stroke="#9a32cd" stroke-dasharray="5,2" d="M549.37,-337.21C654.66,-340.92 901.74,-349.64 983.9,-352.54"/>
<polygon fill="#9a32cd" stroke="#9a32cd" points="549.45,-333.71 539.33,-336.85 549.2,-340.7 549.45,-333.71"/>
<text text-anchor="middle" x="753" y="-350.5" font-family="Helvetica,sans-Serif" font-size="10.00"> m_pScheduler</text>
</g>
<!-- Node18&#45;&gt;Node7 -->
<g id="edge33" class="edge">
<title>Node18&#45;&gt;Node7</title>
<path fill="none" stroke="#9a32cd" stroke-dasharray="5,2" d="M432.43,-577.27C576.23,-583.16 925.63,-593.83 966,-560.5 997.2,-534.75 1008.01,-400.38 1010.43,-363.1"/>
<polygon fill="#9a32cd" stroke="#9a32cd" points="432.17,-573.76 422.03,-576.84 431.88,-580.75 432.17,-573.76"/>
<text text-anchor="middle" x="618" y="-585.5" font-family="Helvetica,sans-Serif" font-size="10.00"> m_pActionManager</text>
</g>
<!-- Node19 -->
<g id="node19" class="node">
<title>Node19</title>
<g id="a_node19"><a xlink:href="../../d1/d65/classcocos2d_1_1_c_c_component_container.html" target="_top" xlink:title="NA NA.">
<polygon fill="white" stroke="#666666" points="820,-298 686,-298 686,-279 820,-279 820,-298"/>
<text text-anchor="middle" x="753" y="-286" font-family="Helvetica,sans-Serif" font-size="10.00">CCComponentContainer</text>
</a>
</g>
</g>
<!-- Node19&#45;&gt;Node7 -->
<g id="edge35" class="edge">
<title>Node19&#45;&gt;Node7</title>
<path fill="none" stroke="#9a32cd" stroke-dasharray="5,2" d="M830.17,-284.01C872.05,-284.44 923.89,-289.86 966,-309.5 982.44,-317.17 996.48,-333.39 1004.32,-343.85"/>
<polygon fill="#9a32cd" stroke="#9a32cd" points="830.03,-280.51 820.03,-284 830.02,-287.51 830.03,-280.51"/>
<text text-anchor="middle" x="902" y="-312.5" font-family="Helvetica,sans-Serif" font-size="10.00"> m_pComponentContainer</text>
</g>
</g>
</svg>
