<?xml version="1.0" encoding="UTF-8" standalone="no"?>
<!DOCTYPE svg PUBLIC "-//W3C//DTD SVG 1.1//EN"
 "http://www.w3.org/Graphics/SVG/1.1/DTD/svg11.dtd">
<!-- Generated by graphviz version 2.43.0 (0)
 -->
<!-- Title: CCMenuItemToggle Pages: 1 -->
<svg width="1556pt" height="683pt"
 viewBox="0.00 0.00 1556.00 683.00" xmlns="http://www.w3.org/2000/svg" xmlns:xlink="http://www.w3.org/1999/xlink">
<g id="graph0" class="graph" transform="scale(1 1) rotate(0) translate(4 679)">
<title>CCMenuItemToggle</title>
<!-- Node1 -->
<g id="node1" class="node">
<title>Node1</title>
<g id="a_node1"><a xlink:title="A CCMenuItemToggle A simple container class that &quot;toggles&quot; it&#39;s inner items The inner items can be an...">
<polygon fill="#999999" stroke="#666666" points="1548,-564.5 1437,-564.5 1437,-545.5 1548,-545.5 1548,-564.5"/>
<text text-anchor="middle" x="1492.5" y="-552.5" font-family="Helvetica,sans-Serif" font-size="10.00">CCMenuItemToggle</text>
</a>
</g>
</g>
<!-- Node2 -->
<g id="node2" class="node">
<title>Node2</title>
<g id="a_node2"><a xlink:href="../../d3/ddc/classcocos2d_1_1_c_c_menu_item.html" target="_top" xlink:title="CCMenuItem base class.">
<polygon fill="white" stroke="#666666" points="1400,-474.5 1320,-474.5 1320,-455.5 1400,-455.5 1400,-474.5"/>
<text text-anchor="middle" x="1360" y="-462.5" font-family="Helvetica,sans-Serif" font-size="10.00">CCMenuItem</text>
</a>
</g>
</g>
<!-- Node2&#45;&gt;Node1 -->
<g id="edge1" class="edge">
<title>Node2&#45;&gt;Node1</title>
<path fill="none" stroke="#63b8ff" d="M1383.41,-480.45C1410.47,-499.11 1455.13,-529.92 1477.63,-545.44"/>
<polygon fill="#63b8ff" stroke="#63b8ff" points="1385.19,-477.43 1374.97,-474.63 1381.21,-483.19 1385.19,-477.43"/>
</g>
<!-- Node3 -->
<g id="node3" class="node">
<title>Node3</title>
<g id="a_node3"><a xlink:href="../../de/d2e/classcocos2d_1_1_c_c_node_r_g_b_a.html" target="_top" xlink:title="CCNodeRGBA is a subclass of CCNode that implements the CCRGBAProtocol protocol.">
<polygon fill="white" stroke="#666666" points="1283,-474.5 1200,-474.5 1200,-455.5 1283,-455.5 1283,-474.5"/>
<text text-anchor="middle" x="1241.5" y="-462.5" font-family="Helvetica,sans-Serif" font-size="10.00">CCNodeRGBA</text>
</a>
</g>
</g>
<!-- Node3&#45;&gt;Node2 -->
<g id="edge2" class="edge">
<title>Node3&#45;&gt;Node2</title>
<path fill="none" stroke="#63b8ff" d="M1293.41,-465C1302.21,-465 1311.22,-465 1319.65,-465"/>
<polygon fill="#63b8ff" stroke="#63b8ff" points="1293.25,-461.5 1283.25,-465 1293.25,-468.5 1293.25,-461.5"/>
</g>
<!-- Node4 -->
<g id="node4" class="node">
<title>Node4</title>
<g id="a_node4"><a xlink:href="../../d0/ded/classcocos2d_1_1_c_c_node.html" target="_top" xlink:title="CCNode is the main element.">
<polygon fill="white" stroke="#666666" points="1061,-408.5 1005,-408.5 1005,-389.5 1061,-389.5 1061,-408.5"/>
<text text-anchor="middle" x="1033" y="-396.5" font-family="Helvetica,sans-Serif" font-size="10.00">CCNode</text>
</a>
</g>
</g>
<!-- Node4&#45;&gt;Node3 -->
<g id="edge3" class="edge">
<title>Node4&#45;&gt;Node3</title>
<path fill="none" stroke="#63b8ff" d="M1071.05,-410.84C1110.97,-423.6 1173.73,-443.66 1210.62,-455.45"/>
<polygon fill="#63b8ff" stroke="#63b8ff" points="1072.01,-407.47 1061.42,-407.76 1069.88,-414.14 1072.01,-407.47"/>
</g>
<!-- Node4&#45;&gt;Node4 -->
<g id="edge25" class="edge">
<title>Node4&#45;&gt;Node4</title>
<path fill="none" stroke="#9a32cd" stroke-dasharray="5,2" d="M1013,-418.05C1014.34,-422.88 1021,-426.5 1033,-426.5 1052.2,-426.5 1057.74,-417.23 1049.65,-408.58"/>
<polygon fill="#9a32cd" stroke="#9a32cd" points="1016.32,-419.18 1016.35,-408.58 1009.72,-416.84 1016.32,-419.18"/>
<text text-anchor="middle" x="1033" y="-429.5" font-family="Helvetica,sans-Serif" font-size="10.00"> m_pParent</text>
</g>
<!-- Node5 -->
<g id="node5" class="node">
<title>Node5</title>
<g id="a_node5"><a xlink:href="../../d3/dbf/classcocos2d_1_1_c_c_object.html" target="_top" xlink:title="NA.">
<polygon fill="white" stroke="#666666" points="169,-397.5 107,-397.5 107,-378.5 169,-378.5 169,-397.5"/>
<text text-anchor="middle" x="138" y="-385.5" font-family="Helvetica,sans-Serif" font-size="10.00">CCObject</text>
</a>
</g>
</g>
<!-- Node5&#45;&gt;Node2 -->
<g id="edge36" class="edge">
<title>Node5&#45;&gt;Node2</title>
<path fill="none" stroke="#9a32cd" stroke-dasharray="5,2" d="M140.16,-368.36C145.36,-289.49 169.69,0 247,0 247,0 247,0 1242.5,0 1339.87,0 1356.57,-388.51 1358.72,-455.29"/>
<polygon fill="#9a32cd" stroke="#9a32cd" points="136.67,-368.21 139.53,-378.41 143.65,-368.65 136.67,-368.21"/>
<text text-anchor="middle" x="753" y="-14" font-family="Helvetica,sans-Serif" font-size="10.00"> m_pListener</text>
<text text-anchor="middle" x="753" y="-3" font-family="Helvetica,sans-Serif" font-size="10.00">m_pfnSelector</text>
</g>
<!-- Node5&#45;&gt;Node4 -->
<g id="edge4" class="edge">
<title>Node5&#45;&gt;Node4</title>
<path fill="none" stroke="#63b8ff" d="M149.89,-406.02C158.33,-418.11 171.23,-433.06 187,-440 284.22,-482.81 319.78,-440.78 426,-441 666.03,-441.5 732.96,-489.53 966,-432 984.9,-427.33 1004.63,-416.57 1017.53,-408.6"/>
<polygon fill="#63b8ff" stroke="#63b8ff" points="152.73,-403.97 144.34,-397.51 146.87,-407.79 152.73,-403.97"/>
</g>
<!-- Node5&#45;&gt;Node4 -->
<g id="edge26" class="edge">
<title>Node5&#45;&gt;Node4</title>
<path fill="none" stroke="#9a32cd" stroke-dasharray="5,2" d="M176.59,-400.01C180.08,-400.81 183.59,-401.49 187,-402 358.23,-427.44 793.03,-411.12 966,-404 978.74,-403.48 992.85,-402.47 1004.73,-401.49"/>
<polygon fill="#9a32cd" stroke="#9a32cd" points="177.44,-396.61 166.89,-397.52 175.71,-403.39 177.44,-396.61"/>
<text text-anchor="middle" x="476" y="-419" font-family="Helvetica,sans-Serif" font-size="10.00"> m_pUserObject</text>
</g>
<!-- Node10 -->
<g id="node10" class="node">
<title>Node10</title>
<g id="a_node10"><a xlink:href="../../d2/d51/classcocos2d_1_1_c_c_camera.html" target="_top" xlink:title="A CCCamera is used in every CCNode.">
<polygon fill="white" stroke="#666666" points="392,-393.5 324,-393.5 324,-374.5 392,-374.5 392,-393.5"/>
<text text-anchor="middle" x="358" y="-381.5" font-family="Helvetica,sans-Serif" font-size="10.00">CCCamera</text>
</a>
</g>
</g>
<!-- Node5&#45;&gt;Node10 -->
<g id="edge10" class="edge">
<title>Node5&#45;&gt;Node10</title>
<path fill="none" stroke="#63b8ff" d="M179.37,-387.26C220.94,-386.5 284.97,-385.32 323.73,-384.61"/>
<polygon fill="#63b8ff" stroke="#63b8ff" points="179.25,-383.76 169.31,-387.44 179.37,-390.76 179.25,-383.76"/>
</g>
<!-- Node11 -->
<g id="node11" class="node">
<title>Node11</title>
<g id="a_node11"><a xlink:href="../../d6/d70/classcocos2d_1_1_c_c_grid_base.html" target="_top" xlink:title="Base class for other.">
<polygon fill="white" stroke="#666666" points="790,-205.5 716,-205.5 716,-186.5 790,-186.5 790,-205.5"/>
<text text-anchor="middle" x="753" y="-193.5" font-family="Helvetica,sans-Serif" font-size="10.00">CCGridBase</text>
</a>
</g>
</g>
<!-- Node5&#45;&gt;Node11 -->
<g id="edge12" class="edge">
<title>Node5&#45;&gt;Node11</title>
<path fill="none" stroke="#63b8ff" d="M146.16,-368.8C156.12,-344.54 176.32,-302.93 206,-278 243.28,-246.68 261.19,-251.41 308,-238 410.2,-208.72 438.02,-207.36 544,-199 604.12,-194.26 674.32,-194.42 715.86,-195.12"/>
<polygon fill="#63b8ff" stroke="#63b8ff" points="142.82,-367.74 142.42,-378.33 149.33,-370.3 142.82,-367.74"/>
</g>
<!-- Node12 -->
<g id="node12" class="node">
<title>Node12</title>
<g id="a_node12"><a xlink:href="../../d7/dfd/classcocos2d_1_1_c_c_texture2_d.html" target="_top" xlink:title="CCTexture2D class.">
<polygon fill="white" stroke="#666666" points="516,-276.5 436,-276.5 436,-257.5 516,-257.5 516,-276.5"/>
<text text-anchor="middle" x="476" y="-264.5" font-family="Helvetica,sans-Serif" font-size="10.00">CCTexture2D</text>
</a>
</g>
</g>
<!-- Node5&#45;&gt;Node12 -->
<g id="edge15" class="edge">
<title>Node5&#45;&gt;Node12</title>
<path fill="none" stroke="#63b8ff" d="M179.4,-381.97C234.49,-372.34 334.68,-349.72 408,-304 417.87,-297.85 416.28,-291.4 426,-285 431,-281.71 436.67,-278.92 442.35,-276.59"/>
<polygon fill="#63b8ff" stroke="#63b8ff" points="178.61,-378.55 169.34,-383.67 179.78,-385.45 178.61,-378.55"/>
</g>
<!-- Node13 -->
<g id="node13" class="node">
<title>Node13</title>
<g id="a_node13"><a xlink:href="../../db/d28/classcocos2d_1_1_c_c_g_l_program.html" target="_top" xlink:title="CCGLProgram Class that implements a glProgram.">
<polygon fill="white" stroke="#666666" points="290,-306.5 206,-306.5 206,-287.5 290,-287.5 290,-306.5"/>
<text text-anchor="middle" x="248" y="-294.5" font-family="Helvetica,sans-Serif" font-size="10.00">CCGLProgram</text>
</a>
</g>
</g>
<!-- Node5&#45;&gt;Node13 -->
<g id="edge18" class="edge">
<title>Node5&#45;&gt;Node13</title>
<path fill="none" stroke="#63b8ff" d="M153.36,-370.33C162.42,-359.75 174.7,-346.38 187,-336 200.48,-324.62 217.47,-313.87 229.92,-306.55"/>
<polygon fill="#63b8ff" stroke="#63b8ff" points="150.58,-368.2 146.85,-378.11 155.95,-372.69 150.58,-368.2"/>
</g>
<!-- Node14 -->
<g id="node14" class="node">
<title>Node14</title>
<g id="a_node14"><a xlink:href="../../d3/d89/classcocos2d_1_1_c_c_grabber.html" target="_top" xlink:title="FBO class that grabs the the contents of the screen NA NA.">
<polygon fill="white" stroke="#666666" points="392.5,-164.5 323.5,-164.5 323.5,-145.5 392.5,-145.5 392.5,-164.5"/>
<text text-anchor="middle" x="358" y="-152.5" font-family="Helvetica,sans-Serif" font-size="10.00">CCGrabber</text>
</a>
</g>
</g>
<!-- Node5&#45;&gt;Node14 -->
<g id="edge21" class="edge">
<title>Node5&#45;&gt;Node14</title>
<path fill="none" stroke="#63b8ff" d="M140.38,-368.13C144.23,-319.07 156.83,-194.25 187,-168 224.29,-135.55 285.27,-139.9 323.17,-146.85"/>
<polygon fill="#63b8ff" stroke="#63b8ff" points="136.87,-368.15 139.62,-378.38 143.85,-368.66 136.87,-368.15"/>
</g>
<!-- Node15 -->
<g id="node15" class="node">
<title>Node15</title>
<g id="a_node15"><a xlink:href="../../d9/d2e/classcocos2d_1_1_c_c_array.html" target="_top" xlink:title="NA.">
<polygon fill="white" stroke="#666666" points="504,-621.5 448,-621.5 448,-602.5 504,-602.5 504,-621.5"/>
<text text-anchor="middle" x="476" y="-609.5" font-family="Helvetica,sans-Serif" font-size="10.00">CCArray</text>
</a>
</g>
</g>
<!-- Node5&#45;&gt;Node15 -->
<g id="edge24" class="edge">
<title>Node5&#45;&gt;Node15</title>
<path fill="none" stroke="#63b8ff" d="M140.26,-407.75C143.24,-437.77 153.28,-494.78 187,-527 261.25,-597.95 391.77,-610.04 447.99,-611.84"/>
<polygon fill="#63b8ff" stroke="#63b8ff" points="143.74,-407.36 139.43,-397.68 136.76,-407.93 143.74,-407.36"/>
</g>
<!-- Node16 -->
<g id="node16" class="node">
<title>Node16</title>
<g id="a_node16"><a xlink:href="../../de/dee/classcocos2d_1_1_c_c_scheduler.html" target="_top" xlink:title="Scheduler is responsible for triggering the scheduled callbacks.">
<polygon fill="white" stroke="#666666" points="792,-635.5 714,-635.5 714,-616.5 792,-616.5 792,-635.5"/>
<text text-anchor="middle" x="753" y="-623.5" font-family="Helvetica,sans-Serif" font-size="10.00">CCScheduler</text>
</a>
</g>
</g>
<!-- Node5&#45;&gt;Node16 -->
<g id="edge29" class="edge">
<title>Node5&#45;&gt;Node16</title>
<path fill="none" stroke="#63b8ff" d="M139.86,-407.72C142.67,-446.58 154.69,-533.19 206,-578 354.55,-707.72 620.43,-658.86 716.3,-635.55"/>
<polygon fill="#63b8ff" stroke="#63b8ff" points="143.35,-407.46 139.27,-397.69 136.36,-407.88 143.35,-407.46"/>
</g>
<!-- Node17 -->
<g id="node17" class="node">
<title>Node17</title>
<g id="a_node17"><a xlink:href="../../d5/dcb/classcocos2d_1_1_c_c_action_manager.html" target="_top" xlink:title="CCActionManager is a singleton that manages all the actions.">
<polygon fill="white" stroke="#666666" points="658,-531.5 554,-531.5 554,-512.5 658,-512.5 658,-531.5"/>
<text text-anchor="middle" x="606" y="-519.5" font-family="Helvetica,sans-Serif" font-size="10.00">CCActionManager</text>
</a>
</g>
</g>
<!-- Node5&#45;&gt;Node17 -->
<g id="edge32" class="edge">
<title>Node5&#45;&gt;Node17</title>
<path fill="none" stroke="#63b8ff" d="M143.51,-407.66C149.53,-429.05 162.42,-462.4 187,-479 299.6,-555.04 469.61,-543.2 553.9,-531.1"/>
<polygon fill="#63b8ff" stroke="#63b8ff" points="146.83,-406.54 140.96,-397.72 140.05,-408.27 146.83,-406.54"/>
</g>
<!-- Node6 -->
<g id="node6" class="node">
<title>Node6</title>
<g id="a_node6"><a xlink:href="../../d5/d61/classcocos2d_1_1_c_c_copying.html" target="_top" xlink:title="NA NA.">
<polygon fill="white" stroke="#666666" points="70,-397.5 0,-397.5 0,-378.5 70,-378.5 70,-397.5"/>
<text text-anchor="middle" x="35" y="-385.5" font-family="Helvetica,sans-Serif" font-size="10.00">CCCopying</text>
</a>
</g>
</g>
<!-- Node6&#45;&gt;Node5 -->
<g id="edge5" class="edge">
<title>Node6&#45;&gt;Node5</title>
<path fill="none" stroke="#63b8ff" d="M80.2,-388C89.22,-388 98.51,-388 106.9,-388"/>
<polygon fill="#63b8ff" stroke="#63b8ff" points="80.19,-384.5 70.19,-388 80.19,-391.5 80.19,-384.5"/>
</g>
<!-- Node7 -->
<g id="node7" class="node">
<title>Node7</title>
<g id="a_node7"><a xlink:href="../../d2/df3/classcocos2d_1_1_c_c_point.html" target="_top" xlink:title="NA.">
<polygon fill="white" stroke="#666666" points="503.5,-313.5 448.5,-313.5 448.5,-294.5 503.5,-294.5 503.5,-313.5"/>
<text text-anchor="middle" x="476" y="-301.5" font-family="Helvetica,sans-Serif" font-size="10.00">CCPoint</text>
</a>
</g>
</g>
<!-- Node7&#45;&gt;Node4 -->
<g id="edge6" class="edge">
<title>Node7&#45;&gt;Node4</title>
<path fill="none" stroke="#9a32cd" stroke-dasharray="5,2" d="M513.95,-301.93C555.7,-299.7 625.71,-296.3 686,-295 811.28,-292.3 857.39,-265.51 966,-328 993.13,-343.61 1015.68,-374.02 1025.98,-389.48"/>
<polygon fill="#9a32cd" stroke="#9a32cd" points="513.51,-298.45 503.71,-302.48 513.89,-305.44 513.51,-298.45"/>
<text text-anchor="middle" x="753" y="-320" font-family="Helvetica,sans-Serif" font-size="10.00"> m_obAnchorPoint</text>
<text text-anchor="middle" x="753" y="-309" font-family="Helvetica,sans-Serif" font-size="10.00">m_obAnchorPointInPoints</text>
<text text-anchor="middle" x="753" y="-298" font-family="Helvetica,sans-Serif" font-size="10.00">m_obPosition</text>
</g>
<!-- Node7&#45;&gt;Node11 -->
<g id="edge19" class="edge">
<title>Node7&#45;&gt;Node11</title>
<path fill="none" stroke="#9a32cd" stroke-dasharray="5,2" d="M511.87,-290.72C516.63,-288.83 521.45,-286.89 526,-285 534.08,-281.64 535.64,-279.59 544,-277 597.53,-260.39 623.92,-288.62 668,-254 683.33,-241.96 671.18,-226.66 686,-214 694.31,-206.9 705.17,-202.58 715.67,-199.96"/>
<polygon fill="#9a32cd" stroke="#9a32cd" points="510.31,-287.57 502.27,-294.47 512.86,-294.09 510.31,-287.57"/>
<text text-anchor="middle" x="606" y="-280" font-family="Helvetica,sans-Serif" font-size="10.00"> m_obStep</text>
</g>
<!-- Node8 -->
<g id="node8" class="node">
<title>Node8</title>
<g id="a_node8"><a xlink:href="../../d9/d24/classcocos2d_1_1_c_c_size.html" target="_top" xlink:title="NA.">
<polygon fill="white" stroke="#666666" points="273,-105.5 223,-105.5 223,-86.5 273,-86.5 273,-105.5"/>
<text text-anchor="middle" x="248" y="-93.5" font-family="Helvetica,sans-Serif" font-size="10.00">CCSize</text>
</a>
</g>
</g>
<!-- Node8&#45;&gt;Node4 -->
<g id="edge7" class="edge">
<title>Node8&#45;&gt;Node4</title>
<path fill="none" stroke="#9a32cd" stroke-dasharray="5,2" d="M283.15,-87.23C397.39,-60.14 770.05,9.72 966,-175 1030.02,-235.35 1032.93,-354.34 1032.33,-389.19"/>
<polygon fill="#9a32cd" stroke="#9a32cd" points="282.11,-83.88 273.22,-89.63 283.76,-90.68 282.11,-83.88"/>
<text text-anchor="middle" x="606" y="-59" font-family="Helvetica,sans-Serif" font-size="10.00"> m_obContentSize</text>
</g>
<!-- Node8&#45;&gt;Node11 -->
<g id="edge13" class="edge">
<title>Node8&#45;&gt;Node11</title>
<path fill="none" stroke="#9a32cd" stroke-dasharray="5,2" d="M283.37,-95.89C356.28,-96.62 530.95,-103.54 668,-150 694.3,-158.91 722.03,-175.77 738.14,-186.42"/>
<polygon fill="#9a32cd" stroke="#9a32cd" points="283.4,-92.39 273.37,-95.82 283.35,-99.39 283.4,-92.39"/>
<text text-anchor="middle" x="476" y="-119" font-family="Helvetica,sans-Serif" font-size="10.00"> m_sGridSize</text>
</g>
<!-- Node8&#45;&gt;Node12 -->
<g id="edge16" class="edge">
<title>Node8&#45;&gt;Node12</title>
<path fill="none" stroke="#9a32cd" stroke-dasharray="5,2" d="M282.94,-102.33C328.98,-110.99 405.82,-125.73 408,-128 443.78,-165.37 395.3,-201.36 426,-243 430.61,-249.25 437.29,-253.96 444.25,-257.47"/>
<polygon fill="#9a32cd" stroke="#9a32cd" points="283.54,-98.88 273.06,-100.48 282.25,-105.76 283.54,-98.88"/>
<text text-anchor="middle" x="358" y="-131" font-family="Helvetica,sans-Serif" font-size="10.00"> m_tContentSize</text>
</g>
<!-- Node9 -->
<g id="node9" class="node">
<title>Node9</title>
<g id="a_node9"><a xlink:href="../../da/dbf/structcocos2d_1_1_c_c_affine_transform.html" target="_top" xlink:title=" ">
<polygon fill="white" stroke="#666666" points="806.5,-242.5 699.5,-242.5 699.5,-223.5 806.5,-223.5 806.5,-242.5"/>
<text text-anchor="middle" x="753" y="-230.5" font-family="Helvetica,sans-Serif" font-size="10.00">CCAffineTransform</text>
</a>
</g>
</g>
<!-- Node9&#45;&gt;Node4 -->
<g id="edge8" class="edge">
<title>Node9&#45;&gt;Node4</title>
<path fill="none" stroke="#9a32cd" stroke-dasharray="5,2" d="M816.91,-225.76C870.55,-220.94 942.56,-218.05 966,-234 1020.08,-270.8 1029.85,-359.8 1031.61,-389.31"/>
<polygon fill="#9a32cd" stroke="#9a32cd" points="816.42,-222.29 806.79,-226.72 817.08,-229.26 816.42,-222.29"/>
<text text-anchor="middle" x="902" y="-259" font-family="Helvetica,sans-Serif" font-size="10.00"> m_sAdditionalTransform</text>
<text text-anchor="middle" x="902" y="-248" font-family="Helvetica,sans-Serif" font-size="10.00">m_sInverse</text>
<text text-anchor="middle" x="902" y="-237" font-family="Helvetica,sans-Serif" font-size="10.00">m_sTransform</text>
</g>
<!-- Node10&#45;&gt;Node4 -->
<g id="edge9" class="edge">
<title>Node10&#45;&gt;Node4</title>
<path fill="none" stroke="#9a32cd" stroke-dasharray="5,2" d="M402.56,-384.97C530.28,-387.82 901.37,-396.09 1004.9,-398.4"/>
<polygon fill="#9a32cd" stroke="#9a32cd" points="402.45,-381.47 392.37,-384.74 402.29,-388.47 402.45,-381.47"/>
<text text-anchor="middle" x="606" y="-394" font-family="Helvetica,sans-Serif" font-size="10.00"> m_pCamera</text>
</g>
<!-- Node11&#45;&gt;Node4 -->
<g id="edge11" class="edge">
<title>Node11&#45;&gt;Node4</title>
<path fill="none" stroke="#9a32cd" stroke-dasharray="5,2" d="M800.19,-184.7C846.82,-176.16 918.56,-171.25 966,-207 1026.52,-252.61 1031.94,-357.03 1032.12,-389.31"/>
<polygon fill="#9a32cd" stroke="#9a32cd" points="799.49,-181.27 790.35,-186.62 800.83,-188.14 799.49,-181.27"/>
<text text-anchor="middle" x="902" y="-210" font-family="Helvetica,sans-Serif" font-size="10.00"> m_pGrid</text>
</g>
<!-- Node12&#45;&gt;Node11 -->
<g id="edge14" class="edge">
<title>Node12&#45;&gt;Node11</title>
<path fill="none" stroke="#9a32cd" stroke-dasharray="5,2" d="M510.27,-253.89C520.93,-250.02 532.86,-246.01 544,-243 598.11,-228.39 613.73,-234.01 668,-220 676.17,-217.89 677.93,-216.44 686,-214 695.66,-211.07 706.18,-208.11 715.93,-205.45"/>
<polygon fill="#9a32cd" stroke="#9a32cd" points="509.04,-250.62 500.89,-257.39 511.48,-257.18 509.04,-250.62"/>
<text text-anchor="middle" x="606" y="-246" font-family="Helvetica,sans-Serif" font-size="10.00"> m_pTexture</text>
</g>
<!-- Node13&#45;&gt;Node4 -->
<g id="edge27" class="edge">
<title>Node13&#45;&gt;Node4</title>
<path fill="none" stroke="#9a32cd" stroke-dasharray="5,2" d="M300.18,-304.42C335.51,-309.5 383.59,-316.31 426,-322 649.36,-351.96 919.46,-385.24 1004.8,-395.68"/>
<polygon fill="#9a32cd" stroke="#9a32cd" points="300.5,-300.93 290.11,-302.97 299.51,-307.86 300.5,-300.93"/>
<text text-anchor="middle" x="606" y="-356" font-family="Helvetica,sans-Serif" font-size="10.00"> m_pShaderProgram</text>
</g>
<!-- Node13&#45;&gt;Node11 -->
<g id="edge22" class="edge">
<title>Node13&#45;&gt;Node11</title>
<path fill="none" stroke="#9a32cd" stroke-dasharray="5,2" d="M280.72,-283.48C289.5,-279.91 299.07,-276.17 308,-273 359.67,-254.65 372.38,-248.46 426,-237 530.03,-214.76 655.51,-203.16 715.97,-198.51"/>
<polygon fill="#9a32cd" stroke="#9a32cd" points="279.14,-280.35 271.23,-287.4 281.81,-286.82 279.14,-280.35"/>
<text text-anchor="middle" x="476" y="-240" font-family="Helvetica,sans-Serif" font-size="10.00"> m_pShaderProgram</text>
</g>
<!-- Node13&#45;&gt;Node12 -->
<g id="edge17" class="edge">
<title>Node13&#45;&gt;Node12</title>
<path fill="none" stroke="#9a32cd" stroke-dasharray="5,2" d="M300.3,-290.19C341.49,-284.72 398.45,-277.16 435.98,-272.18"/>
<polygon fill="#9a32cd" stroke="#9a32cd" points="299.64,-286.75 290.19,-291.53 300.56,-293.69 299.64,-286.75"/>
<text text-anchor="middle" x="358" y="-292" font-family="Helvetica,sans-Serif" font-size="10.00"> m_pShaderProgram</text>
</g>
<!-- Node14&#45;&gt;Node11 -->
<g id="edge20" class="edge">
<title>Node14&#45;&gt;Node11</title>
<path fill="none" stroke="#9a32cd" stroke-dasharray="5,2" d="M403.11,-152.54C463.54,-150.15 575.16,-149.23 668,-168 688.94,-172.24 711.91,-180.13 728.52,-186.45"/>
<polygon fill="#9a32cd" stroke="#9a32cd" points="402.64,-149.06 392.79,-152.99 402.94,-156.05 402.64,-149.06"/>
<text text-anchor="middle" x="476" y="-156" font-family="Helvetica,sans-Serif" font-size="10.00"> m_pGrabber</text>
</g>
<!-- Node15&#45;&gt;Node1 -->
<g id="edge37" class="edge">
<title>Node15&#45;&gt;Node1</title>
<path fill="none" stroke="#9a32cd" stroke-dasharray="5,2" d="M509.4,-625.15C520.25,-629.14 532.51,-633.2 544,-636 634.63,-658.07 658.72,-664 752,-664 752,-664 752,-664 1361,-664 1422.7,-664 1470.63,-591.35 1486.16,-564.67"/>
<polygon fill="#9a32cd" stroke="#9a32cd" points="510.48,-621.82 499.89,-621.55 508,-628.37 510.48,-621.82"/>
<text text-anchor="middle" x="1141" y="-667" font-family="Helvetica,sans-Serif" font-size="10.00"> m_pSubItems</text>
</g>
<!-- Node15&#45;&gt;Node4 -->
<g id="edge23" class="edge">
<title>Node15&#45;&gt;Node4</title>
<path fill="none" stroke="#9a32cd" stroke-dasharray="5,2" d="M514.4,-608.97C623.09,-599.84 933.32,-571.24 966,-540 996.43,-510.91 964.25,-484.18 984,-447 992.29,-431.39 1007.35,-417.59 1018.39,-408.84"/>
<polygon fill="#9a32cd" stroke="#9a32cd" points="513.9,-605.5 504.23,-609.82 514.48,-612.48 513.9,-605.5"/>
<text text-anchor="middle" x="753" y="-594" font-family="Helvetica,sans-Serif" font-size="10.00"> m_pChildren</text>
</g>
<!-- Node15&#45;&gt;Node16 -->
<g id="edge30" class="edge">
<title>Node15&#45;&gt;Node16</title>
<path fill="none" stroke="#9a32cd" stroke-dasharray="5,2" d="M514.29,-613.9C566.52,-616.56 660.98,-621.37 713.74,-624.05"/>
<polygon fill="#9a32cd" stroke="#9a32cd" points="514.29,-610.39 504.12,-613.38 513.93,-617.38 514.29,-610.39"/>
<text text-anchor="middle" x="606" y="-624" font-family="Helvetica,sans-Serif" font-size="10.00"> m_pScriptHandlerEntries</text>
</g>
<!-- Node16&#45;&gt;Node4 -->
<g id="edge28" class="edge">
<title>Node16&#45;&gt;Node4</title>
<path fill="none" stroke="#9a32cd" stroke-dasharray="5,2" d="M802.58,-626.98C857.99,-626.98 943.79,-623.23 966,-601 990.35,-576.62 968.99,-478.01 984,-447 991.7,-431.09 1006.86,-417.34 1018.09,-408.69"/>
<polygon fill="#9a32cd" stroke="#9a32cd" points="802.29,-623.48 792.27,-626.93 802.26,-630.48 802.29,-623.48"/>
<text text-anchor="middle" x="902" y="-629" font-family="Helvetica,sans-Serif" font-size="10.00"> m_pScheduler</text>
</g>
<!-- Node17&#45;&gt;Node4 -->
<g id="edge31" class="edge">
<title>Node17&#45;&gt;Node4</title>
<path fill="none" stroke="#9a32cd" stroke-dasharray="5,2" d="M668.12,-529.13C758.34,-538.26 921.31,-549.06 966,-514 990.26,-494.97 968.57,-473.7 984,-447 992.96,-431.49 1008.2,-417.48 1019.11,-408.65"/>
<polygon fill="#9a32cd" stroke="#9a32cd" points="668.34,-525.63 658.03,-528.08 667.61,-532.59 668.34,-525.63"/>
<text text-anchor="middle" x="753" y="-541" font-family="Helvetica,sans-Serif" font-size="10.00"> m_pActionManager</text>
</g>
<!-- Node18 -->
<g id="node18" class="node">
<title>Node18</title>
<g id="a_node18"><a xlink:href="../../d1/d65/classcocos2d_1_1_c_c_component_container.html" target="_top" xlink:title="NA NA.">
<polygon fill="white" stroke="#666666" points="820,-503.5 686,-503.5 686,-484.5 820,-484.5 820,-503.5"/>
<text text-anchor="middle" x="753" y="-491.5" font-family="Helvetica,sans-Serif" font-size="10.00">CCComponentContainer</text>
</a>
</g>
</g>
<!-- Node18&#45;&gt;Node4 -->
<g id="edge33" class="edge">
<title>Node18&#45;&gt;Node4</title>
<path fill="none" stroke="#9a32cd" stroke-dasharray="5,2" d="M830.13,-499.34C872.58,-499.02 924.99,-492.92 966,-470 977.33,-463.67 975.39,-456.72 984,-447 996.34,-433.06 1011.74,-418.04 1021.71,-408.59"/>
<polygon fill="#9a32cd" stroke="#9a32cd" points="830.14,-495.84 820.13,-499.31 830.12,-502.84 830.14,-495.84"/>
<text text-anchor="middle" x="902" y="-502" font-family="Helvetica,sans-Serif" font-size="10.00"> m_pComponentContainer</text>
</g>
<!-- Node19 -->
<g id="node19" class="node">
<title>Node19</title>
<g id="a_node19"><a xlink:href="../../d8/dda/classcocos2d_1_1_c_c_r_g_b_a_protocol.html" target="_top" xlink:title="RGBA protocol that affects CCNode&#39;s color and opacity NA.">
<polygon fill="white" stroke="#666666" points="1082,-511.5 984,-511.5 984,-492.5 1082,-492.5 1082,-511.5"/>
<text text-anchor="middle" x="1033" y="-499.5" font-family="Helvetica,sans-Serif" font-size="10.00">CCRGBAProtocol</text>
</a>
</g>
</g>
<!-- Node19&#45;&gt;Node3 -->
<g id="edge34" class="edge">
<title>Node19&#45;&gt;Node3</title>
<path fill="none" stroke="#63b8ff" d="M1092.45,-500.25C1119.92,-498.46 1152.95,-494.94 1182,-488 1195.16,-484.86 1209.3,-479.36 1220.38,-474.53"/>
<polygon fill="#63b8ff" stroke="#63b8ff" points="1091.99,-496.77 1082.21,-500.85 1092.4,-503.75 1091.99,-496.77"/>
</g>
<!-- Node20 -->
<g id="node20" class="node">
<title>Node20</title>
<g id="a_node20"><a xlink:href="../../d7/d39/structcc_color3_b.html" target="_top" xlink:title="RGB color composed of bytes 3 bytes.">
<polygon fill="white" stroke="#666666" points="1065.5,-474.5 1000.5,-474.5 1000.5,-455.5 1065.5,-455.5 1065.5,-474.5"/>
<text text-anchor="middle" x="1033" y="-462.5" font-family="Helvetica,sans-Serif" font-size="10.00">ccColor3B</text>
</a>
</g>
</g>
<!-- Node20&#45;&gt;Node3 -->
<g id="edge35" class="edge">
<title>Node20&#45;&gt;Node3</title>
<path fill="none" stroke="#9a32cd" stroke-dasharray="5,2" d="M1076.03,-465C1112.18,-465 1163.99,-465 1199.76,-465"/>
<polygon fill="#9a32cd" stroke="#9a32cd" points="1075.81,-461.5 1065.81,-465 1075.81,-468.5 1075.81,-461.5"/>
<text text-anchor="middle" x="1141" y="-479" font-family="Helvetica,sans-Serif" font-size="10.00"> _displayedColor</text>
<text text-anchor="middle" x="1141" y="-468" font-family="Helvetica,sans-Serif" font-size="10.00">_realColor</text>
</g>
</g>
</svg>
