<?xml version="1.0" encoding="UTF-8" standalone="no"?>
<!DOCTYPE svg PUBLIC "-//W3C//DTD SVG 1.1//EN"
 "http://www.w3.org/Graphics/SVG/1.1/DTD/svg11.dtd">
<!-- Generated by graphviz version 2.43.0 (0)
 -->
<!-- Title: XMLNode Pages: 1 -->
<svg width="585pt" height="84pt"
 viewBox="0.00 0.00 584.50 84.00" xmlns="http://www.w3.org/2000/svg" xmlns:xlink="http://www.w3.org/1999/xlink">
<g id="graph0" class="graph" transform="scale(1 1) rotate(0) translate(4 80)">
<title>XMLNode</title>
<!-- Node1 -->
<g id="node1" class="node">
<title>Node1</title>
<g id="a_node1"><a xlink:title="XMLNode is a base class for every object that is in the XML Document Object Model (DOM),...">
<polygon fill="#bfbfbf" stroke="black" points="278.5,-56.5 278.5,-75.5 341.5,-75.5 341.5,-56.5 278.5,-56.5"/>
<text text-anchor="middle" x="310" y="-63.5" font-family="Helvetica,sans-Serif" font-size="10.00">XMLNode</text>
</a>
</g>
</g>
<!-- Node2 -->
<g id="node2" class="node">
<title>Node2</title>
<g id="a_node2"><a xlink:href="../../d2/d6d/classtinyxml2_1_1_x_m_l_comment.html" target="_top" xlink:title="An XML Comment.">
<polygon fill="none" stroke="black" points="0,-0.5 0,-19.5 86,-19.5 86,-0.5 0,-0.5"/>
<text text-anchor="middle" x="43" y="-7.5" font-family="Helvetica,sans-Serif" font-size="10.00">XMLComment</text>
</a>
</g>
</g>
<!-- Node1&#45;&gt;Node2 -->
<g id="edge1" class="edge">
<title>Node1&#45;&gt;Node2</title>
<path fill="none" stroke="midnightblue" d="M268.51,-56.61C218.62,-46.52 135.36,-29.68 85.17,-19.53"/>
<polygon fill="midnightblue" stroke="midnightblue" points="267.83,-60.04 278.32,-58.59 269.22,-53.18 267.83,-60.04"/>
</g>
<!-- Node3 -->
<g id="node3" class="node">
<title>Node3</title>
<g id="a_node3"><a xlink:href="../../d2/d89/classtinyxml2_1_1_x_m_l_declaration.html" target="_top" xlink:title="In correct XML the declaration is the first entry in the file.">
<polygon fill="none" stroke="black" points="104,-0.5 104,-19.5 198,-19.5 198,-0.5 104,-0.5"/>
<text text-anchor="middle" x="151" y="-7.5" font-family="Helvetica,sans-Serif" font-size="10.00">XMLDeclaration</text>
</a>
</g>
</g>
<!-- Node1&#45;&gt;Node3 -->
<g id="edge2" class="edge">
<title>Node1&#45;&gt;Node3</title>
<path fill="none" stroke="midnightblue" d="M275.17,-53.17C245.23,-43 202.78,-28.59 176.08,-19.52"/>
<polygon fill="midnightblue" stroke="midnightblue" points="274.21,-56.54 284.81,-56.44 276.46,-49.91 274.21,-56.54"/>
</g>
<!-- Node4 -->
<g id="node4" class="node">
<title>Node4</title>
<g id="a_node4"><a xlink:href="../../dc/d59/classtinyxml2_1_1_x_m_l_document.html" target="_top" xlink:title="A Document binds together all the functionality.">
<polygon fill="none" stroke="black" points="216,-0.5 216,-19.5 304,-19.5 304,-0.5 216,-0.5"/>
<text text-anchor="middle" x="260" y="-7.5" font-family="Helvetica,sans-Serif" font-size="10.00">XMLDocument</text>
</a>
</g>
</g>
<!-- Node1&#45;&gt;Node4 -->
<g id="edge3" class="edge">
<title>Node1&#45;&gt;Node4</title>
<path fill="none" stroke="midnightblue" d="M294.92,-48.72C286.11,-39.2 275.33,-27.56 268.1,-19.75"/>
<polygon fill="midnightblue" stroke="midnightblue" points="292.38,-51.12 301.74,-56.08 297.52,-46.37 292.38,-51.12"/>
</g>
<!-- Node5 -->
<g id="node5" class="node">
<title>Node5</title>
<g id="a_node5"><a xlink:href="../../d3/da8/classtinyxml2_1_1_x_m_l_element.html" target="_top" xlink:title="The element is a container class.">
<polygon fill="none" stroke="black" points="322,-0.5 322,-19.5 400,-19.5 400,-0.5 322,-0.5"/>
<text text-anchor="middle" x="361" y="-7.5" font-family="Helvetica,sans-Serif" font-size="10.00">XMLElement</text>
</a>
</g>
</g>
<!-- Node1&#45;&gt;Node5 -->
<g id="edge4" class="edge">
<title>Node1&#45;&gt;Node5</title>
<path fill="none" stroke="midnightblue" d="M325.38,-48.72C334.37,-39.2 345.36,-27.56 352.74,-19.75"/>
<polygon fill="midnightblue" stroke="midnightblue" points="322.74,-46.41 318.42,-56.08 327.83,-51.22 322.74,-46.41"/>
</g>
<!-- Node6 -->
<g id="node6" class="node">
<title>Node6</title>
<g id="a_node6"><a xlink:href="../../d3/d66/classtinyxml2_1_1_x_m_l_text.html" target="_top" xlink:title="XML text.">
<polygon fill="none" stroke="black" points="418.5,-0.5 418.5,-19.5 475.5,-19.5 475.5,-0.5 418.5,-0.5"/>
<text text-anchor="middle" x="447" y="-7.5" font-family="Helvetica,sans-Serif" font-size="10.00">XMLText</text>
</a>
</g>
</g>
<!-- Node1&#45;&gt;Node6 -->
<g id="edge5" class="edge">
<title>Node1&#45;&gt;Node6</title>
<path fill="none" stroke="midnightblue" d="M341.02,-52.77C366.76,-42.63 402.69,-28.47 425.39,-19.52"/>
<polygon fill="midnightblue" stroke="midnightblue" points="339.73,-49.52 331.71,-56.44 342.29,-56.03 339.73,-49.52"/>
</g>
<!-- Node7 -->
<g id="node7" class="node">
<title>Node7</title>
<g id="a_node7"><a xlink:href="../../d4/d65/classtinyxml2_1_1_x_m_l_unknown.html" target="_top" xlink:title="Any tag that tinyXml doesn&#39;t recognize is saved as an unknown.">
<polygon fill="none" stroke="black" points="493.5,-0.5 493.5,-19.5 576.5,-19.5 576.5,-0.5 493.5,-0.5"/>
<text text-anchor="middle" x="535" y="-7.5" font-family="Helvetica,sans-Serif" font-size="10.00">XMLUnknown</text>
</a>
</g>
</g>
<!-- Node1&#45;&gt;Node7 -->
<g id="edge6" class="edge">
<title>Node1&#45;&gt;Node7</title>
<path fill="none" stroke="midnightblue" d="M351.5,-55.04C393.93,-44.86 459.14,-29.21 499.32,-19.56"/>
<polygon fill="midnightblue" stroke="midnightblue" points="350.67,-51.64 341.76,-57.38 352.3,-58.45 350.67,-51.64"/>
</g>
</g>
</svg>
