<?xml version="1.0" encoding="UTF-8" standalone="no"?>
<!DOCTYPE svg PUBLIC "-//W3C//DTD SVG 1.1//EN"
 "http://www.w3.org/Graphics/SVG/1.1/DTD/svg11.dtd">
<!-- Generated by graphviz version 2.43.0 (0)
 -->
<!-- Title: CCHttpRequest::_prxy Pages: 1 -->
<svg width="132pt" height="205pt"
 viewBox="0.00 0.00 132.00 205.00" xmlns="http://www.w3.org/2000/svg" xmlns:xlink="http://www.w3.org/1999/xlink">
<g id="graph0" class="graph" transform="scale(1 1) rotate(0) translate(4 201)">
<title>CCHttpRequest::_prxy</title>
<!-- Node1 -->
<g id="node1" class="node">
<title>Node1</title>
<g id="a_node1"><a xlink:title=" ">
<polygon fill="#999999" stroke="#666666" points="124,-19 0,-19 0,0 124,0 124,-19"/>
<text text-anchor="middle" x="62" y="-7" font-family="Helvetica,sans-Serif" font-size="10.00">CCHttpRequest::_prxy</text>
</a>
</g>
</g>
<!-- Node2 -->
<g id="node2" class="node">
<title>Node2</title>
<g id="a_node2"><a xlink:href="../../d6/d9f/classcocos2d_1_1extension_1_1_c_c_http_client.html" target="_top" xlink:title="Singleton that handles asynchrounous http requests Once the request completed, a callback will issued...">
<polygon fill="white" stroke="#666666" points="102,-85 22,-85 22,-66 102,-66 102,-85"/>
<text text-anchor="middle" x="62" y="-73" font-family="Helvetica,sans-Serif" font-size="10.00">CCHttpClient</text>
</a>
</g>
</g>
<!-- Node2&#45;&gt;Node1 -->
<g id="edge1" class="edge">
<title>Node2&#45;&gt;Node1</title>
<path fill="none" stroke="#9a32cd" stroke-dasharray="5,2" d="M62,-55.58C62,-43.63 62,-28.72 62,-19.41"/>
<polygon fill="#9a32cd" stroke="#9a32cd" points="58.5,-55.87 62,-65.87 65.5,-55.87 58.5,-55.87"/>
<text text-anchor="middle" x="72" y="-40" font-family="Helvetica,sans-Serif" font-size="10.00"> _cb</text>
</g>
<!-- Node3 -->
<g id="node3" class="node">
<title>Node3</title>
<g id="a_node3"><a xlink:href="../../d3/dbf/classcocos2d_1_1_c_c_object.html" target="_top" xlink:title="NA.">
<polygon fill="white" stroke="#666666" points="93,-141 31,-141 31,-122 93,-122 93,-141"/>
<text text-anchor="middle" x="62" y="-129" font-family="Helvetica,sans-Serif" font-size="10.00">CCObject</text>
</a>
</g>
</g>
<!-- Node3&#45;&gt;Node2 -->
<g id="edge2" class="edge">
<title>Node3&#45;&gt;Node2</title>
<path fill="none" stroke="#63b8ff" d="M62,-111.3C62,-102.41 62,-92.28 62,-85.25"/>
<polygon fill="#63b8ff" stroke="#63b8ff" points="58.5,-111.58 62,-121.58 65.5,-111.58 58.5,-111.58"/>
</g>
<!-- Node4 -->
<g id="node4" class="node">
<title>Node4</title>
<g id="a_node4"><a xlink:href="../../d5/d61/classcocos2d_1_1_c_c_copying.html" target="_top" xlink:title="NA NA.">
<polygon fill="white" stroke="#666666" points="97,-197 27,-197 27,-178 97,-178 97,-197"/>
<text text-anchor="middle" x="62" y="-185" font-family="Helvetica,sans-Serif" font-size="10.00">CCCopying</text>
</a>
</g>
</g>
<!-- Node4&#45;&gt;Node3 -->
<g id="edge3" class="edge">
<title>Node4&#45;&gt;Node3</title>
<path fill="none" stroke="#63b8ff" d="M62,-167.3C62,-158.41 62,-148.28 62,-141.25"/>
<polygon fill="#63b8ff" stroke="#63b8ff" points="58.5,-167.58 62,-177.58 65.5,-167.58 58.5,-167.58"/>
</g>
</g>
</svg>
