<?xml version="1.0" encoding="UTF-8" standalone="no"?>
<!DOCTYPE svg PUBLIC "-//W3C//DTD SVG 1.1//EN"
 "http://www.w3.org/Graphics/SVG/1.1/DTD/svg11.dtd">
<!-- Generated by graphviz version 2.43.0 (0)
 -->
<!-- Title: /home/runner/work/cocos&#45;headers/cocos&#45;headers/cocos2dx/platform/win32/CCEGLView.h Pages: 1 -->
<svg width="1134pt" height="555pt"
 viewBox="0.00 0.00 1134.11 555.00" xmlns="http://www.w3.org/2000/svg" xmlns:xlink="http://www.w3.org/1999/xlink">
<g id="graph0" class="graph" transform="scale(1 1) rotate(0) translate(4 551)">
<title>/home/runner/work/cocos&#45;headers/cocos&#45;headers/cocos2dx/platform/win32/CCEGLView.h</title>
<!-- Node1 -->
<g id="node1" class="node">
<title>Node1</title>
<g id="a_node1"><a xlink:title=" ">
<polygon fill="#999999" stroke="#666666" points="875.61,-547 732.61,-547 732.61,-495 875.61,-495 875.61,-547"/>
<text text-anchor="start" x="740.61" y="-535" font-family="Helvetica,sans-Serif" font-size="10.00">/home/runner/work/cocos</text>
<text text-anchor="start" x="740.61" y="-524" font-family="Helvetica,sans-Serif" font-size="10.00">&#45;headers/cocos&#45;headers</text>
<text text-anchor="start" x="740.61" y="-513" font-family="Helvetica,sans-Serif" font-size="10.00">/cocos2dx/platform/win32</text>
<text text-anchor="middle" x="804.11" y="-502" font-family="Helvetica,sans-Serif" font-size="10.00">/CCEGLView.h</text>
</a>
</g>
</g>
<!-- Node2 -->
<g id="node2" class="node">
<title>Node2</title>
<g id="a_node2"><a xlink:href="../../dc/d7b/win32_2_c_c_std_c_8h.html" target="_top" xlink:title=" ">
<polygon fill="white" stroke="#666666" points="350.11,-349 288.11,-349 288.11,-330 350.11,-330 350.11,-349"/>
<text text-anchor="middle" x="319.11" y="-337" font-family="Helvetica,sans-Serif" font-size="10.00">CCStdC.h</text>
</a>
</g>
</g>
<!-- Node1&#45;&gt;Node2 -->
<g id="edge1" class="edge">
<title>Node1&#45;&gt;Node2</title>
<path fill="none" stroke="#63b8ff" d="M736.42,-494.95C630.84,-455.87 430.91,-381.88 352.17,-352.74"/>
<polygon fill="#63b8ff" stroke="#63b8ff" points="352.91,-349.28 342.32,-349.09 350.48,-355.84 352.91,-349.28"/>
</g>
<!-- Node18 -->
<g id="node18" class="node">
<title>Node18</title>
<g id="a_node18"><a xlink:href="../../d5/d22/_c_c_common_8h.html" target="_top" xlink:title=" ">
<polygon fill="white" stroke="#666666" points="870.11,-184 742.11,-184 742.11,-165 870.11,-165 870.11,-184"/>
<text text-anchor="middle" x="806.11" y="-172" font-family="Helvetica,sans-Serif" font-size="10.00">platform/CCCommon.h</text>
</a>
</g>
</g>
<!-- Node1&#45;&gt;Node18 -->
<g id="edge18" class="edge">
<title>Node1&#45;&gt;Node18</title>
<path fill="none" stroke="#63b8ff" d="M804.11,-494.72C804.11,-469.57 804.11,-429.87 804.11,-395.5 804.11,-395.5 804.11,-395.5 804.11,-283.5 804.11,-252.18 804.96,-215.77 805.56,-194.23"/>
<polygon fill="#63b8ff" stroke="#63b8ff" points="809.06,-194.27 805.84,-184.18 802.06,-194.07 809.06,-194.27"/>
</g>
<!-- Node19 -->
<g id="node19" class="node">
<title>Node19</title>
<g id="a_node19"><a xlink:href="../../d6/d09/_c_c_geometry_8h.html" target="_top" xlink:title=" ">
<polygon fill="white" stroke="#666666" points="776.11,-349 658.11,-349 658.11,-330 776.11,-330 776.11,-349"/>
<text text-anchor="middle" x="717.11" y="-337" font-family="Helvetica,sans-Serif" font-size="10.00">cocoa/CCGeometry.h</text>
</a>
</g>
</g>
<!-- Node1&#45;&gt;Node19 -->
<g id="edge20" class="edge">
<title>Node1&#45;&gt;Node19</title>
<path fill="none" stroke="#63b8ff" d="M791.83,-494.66C774,-457.86 741.36,-390.53 725.81,-358.43"/>
<polygon fill="#63b8ff" stroke="#63b8ff" points="728.91,-356.81 721.4,-349.34 722.61,-359.86 728.91,-356.81"/>
</g>
<!-- Node25 -->
<g id="node25" class="node">
<title>Node25</title>
<g id="a_node25"><a xlink:href="../../df/da9/_c_c_e_g_l_view_protocol_8h.html" target="_top" xlink:title=" ">
<polygon fill="white" stroke="#666666" points="998.11,-459 832.11,-459 832.11,-440 998.11,-440 998.11,-459"/>
<text text-anchor="middle" x="915.11" y="-447" font-family="Helvetica,sans-Serif" font-size="10.00">platform/CCEGLViewProtocol.h</text>
</a>
</g>
</g>
<!-- Node1&#45;&gt;Node25 -->
<g id="edge31" class="edge">
<title>Node1&#45;&gt;Node25</title>
<path fill="none" stroke="#63b8ff" d="M844.19,-494.91C860.43,-484.74 878.6,-473.36 892.47,-464.68"/>
<polygon fill="#63b8ff" stroke="#63b8ff" points="894.7,-467.41 901.32,-459.14 890.99,-461.48 894.7,-467.41"/>
</g>
<!-- Node28 -->
<g id="node28" class="node">
<title>Node28</title>
<g id="a_node28"><a xlink:title=" ">
<polygon fill="#e0e0e0" stroke="#999999" points="1126.11,-459 1016.11,-459 1016.11,-440 1126.11,-440 1126.11,-459"/>
<text text-anchor="middle" x="1071.11" y="-447" font-family="Helvetica,sans-Serif" font-size="10.00">robtop/glfw/glfw3.h</text>
</a>
</g>
</g>
<!-- Node1&#45;&gt;Node28 -->
<g id="edge36" class="edge">
<title>Node1&#45;&gt;Node28</title>
<path fill="none" stroke="#63b8ff" d="M875.66,-501.38C924.47,-488.67 987.47,-472.27 1028.56,-461.58"/>
<polygon fill="#63b8ff" stroke="#63b8ff" points="1029.46,-464.96 1038.25,-459.05 1027.69,-458.19 1029.46,-464.96"/>
</g>
<!-- Node3 -->
<g id="node3" class="node">
<title>Node3</title>
<g id="a_node3"><a xlink:href="../../d3/d41/_c_c_platform_macros_8h.html" target="_top" xlink:title=" ">
<polygon fill="white" stroke="#666666" points="886.61,-129 725.61,-129 725.61,-110 886.61,-110 886.61,-129"/>
<text text-anchor="middle" x="806.11" y="-117" font-family="Helvetica,sans-Serif" font-size="10.00">platform/CCPlatformMacros.h</text>
</a>
</g>
</g>
<!-- Node2&#45;&gt;Node3 -->
<g id="edge2" class="edge">
<title>Node2&#45;&gt;Node3</title>
<path fill="none" stroke="#63b8ff" d="M287.86,-339.02C215.67,-339.47 40.69,-336.11 4.11,-294 -1.42,-287.62 -1.26,-281.51 4.11,-275 93.54,-166.7 524.83,-133.49 715.33,-124.01"/>
<polygon fill="#63b8ff" stroke="#63b8ff" points="715.78,-127.5 725.6,-123.51 715.44,-120.5 715.78,-127.5"/>
</g>
<!-- Node7 -->
<g id="node7" class="node">
<title>Node7</title>
<g id="a_node7"><a xlink:title=" ">
<polygon fill="#e0e0e0" stroke="#999999" points="60.61,-294 13.61,-294 13.61,-275 60.61,-275 60.61,-294"/>
<text text-anchor="middle" x="37.11" y="-282" font-family="Helvetica,sans-Serif" font-size="10.00">float.h</text>
</a>
</g>
</g>
<!-- Node2&#45;&gt;Node7 -->
<g id="edge7" class="edge">
<title>Node2&#45;&gt;Node7</title>
<path fill="none" stroke="#63b8ff" d="M287.77,-333.78C242.06,-326.72 154.25,-312.44 70.72,-294.22"/>
<polygon fill="#63b8ff" stroke="#63b8ff" points="71.34,-290.77 60.82,-292.03 69.84,-297.61 71.34,-290.77"/>
</g>
<!-- Node8 -->
<g id="node8" class="node">
<title>Node8</title>
<g id="a_node8"><a xlink:title=" ">
<polygon fill="#e0e0e0" stroke="#999999" points="687.61,-294 636.61,-294 636.61,-275 687.61,-275 687.61,-294"/>
<text text-anchor="middle" x="662.11" y="-282" font-family="Helvetica,sans-Serif" font-size="10.00">math.h</text>
</a>
</g>
</g>
<!-- Node2&#45;&gt;Node8 -->
<g id="edge8" class="edge">
<title>Node2&#45;&gt;Node8</title>
<path fill="none" stroke="#63b8ff" d="M350.32,-334.98C404.43,-328.67 519.36,-314.33 626.55,-293.93"/>
<polygon fill="#63b8ff" stroke="#63b8ff" points="627.4,-297.33 636.56,-292 626.08,-290.46 627.4,-297.33"/>
</g>
<!-- Node9 -->
<g id="node9" class="node">
<title>Node9</title>
<g id="a_node9"><a xlink:title=" ">
<polygon fill="#e0e0e0" stroke="#999999" points="131.61,-294 78.61,-294 78.61,-275 131.61,-275 131.61,-294"/>
<text text-anchor="middle" x="105.11" y="-282" font-family="Helvetica,sans-Serif" font-size="10.00">string.h</text>
</a>
</g>
</g>
<!-- Node2&#45;&gt;Node9 -->
<g id="edge9" class="edge">
<title>Node2&#45;&gt;Node9</title>
<path fill="none" stroke="#63b8ff" d="M288,-330.79C249.2,-321.19 182.99,-304.79 141.78,-294.58"/>
<polygon fill="#63b8ff" stroke="#63b8ff" points="142.42,-291.13 131.87,-292.13 140.74,-297.93 142.42,-291.13"/>
</g>
<!-- Node10 -->
<g id="node10" class="node">
<title>Node10</title>
<g id="a_node10"><a xlink:title=" ">
<polygon fill="#e0e0e0" stroke="#999999" points="206.11,-294 150.11,-294 150.11,-275 206.11,-275 206.11,-294"/>
<text text-anchor="middle" x="178.11" y="-282" font-family="Helvetica,sans-Serif" font-size="10.00">stdarg.h</text>
</a>
</g>
</g>
<!-- Node2&#45;&gt;Node10 -->
<g id="edge10" class="edge">
<title>Node2&#45;&gt;Node10</title>
<path fill="none" stroke="#63b8ff" d="M296.46,-329.98C273.27,-321.27 236.99,-307.63 210.71,-297.75"/>
<polygon fill="#63b8ff" stroke="#63b8ff" points="211.77,-294.41 201.18,-294.17 209.31,-300.97 211.77,-294.41"/>
</g>
<!-- Node11 -->
<g id="node11" class="node">
<title>Node11</title>
<g id="a_node11"><a xlink:title=" ">
<polygon fill="#e0e0e0" stroke="#999999" points="274.11,-294 224.11,-294 224.11,-275 274.11,-275 274.11,-294"/>
<text text-anchor="middle" x="249.11" y="-282" font-family="Helvetica,sans-Serif" font-size="10.00">stdio.h</text>
</a>
</g>
</g>
<!-- Node2&#45;&gt;Node11 -->
<g id="edge11" class="edge">
<title>Node2&#45;&gt;Node11</title>
<path fill="none" stroke="#63b8ff" d="M307.87,-329.98C297.32,-322 281.31,-309.88 268.67,-300.31"/>
<polygon fill="#63b8ff" stroke="#63b8ff" points="270.65,-297.42 260.56,-294.17 266.42,-303 270.65,-297.42"/>
</g>
<!-- Node12 -->
<g id="node12" class="node">
<title>Node12</title>
<g id="a_node12"><a xlink:title=" ">
<polygon fill="#e0e0e0" stroke="#999999" points="345.61,-294 292.61,-294 292.61,-275 345.61,-275 345.61,-294"/>
<text text-anchor="middle" x="319.11" y="-282" font-family="Helvetica,sans-Serif" font-size="10.00">stdlib.h</text>
</a>
</g>
</g>
<!-- Node2&#45;&gt;Node12 -->
<g id="edge12" class="edge">
<title>Node2&#45;&gt;Node12</title>
<path fill="none" stroke="#63b8ff" d="M319.11,-329.75C319.11,-322.8 319.11,-312.85 319.11,-304.13"/>
<polygon fill="#63b8ff" stroke="#63b8ff" points="322.61,-304.09 319.11,-294.09 315.61,-304.09 322.61,-304.09"/>
</g>
<!-- Node13 -->
<g id="node13" class="node">
<title>Node13</title>
<g id="a_node13"><a xlink:title=" ">
<polygon fill="#e0e0e0" stroke="#999999" points="412.11,-294 364.11,-294 364.11,-275 412.11,-275 412.11,-294"/>
<text text-anchor="middle" x="388.11" y="-282" font-family="Helvetica,sans-Serif" font-size="10.00">time.h</text>
</a>
</g>
</g>
<!-- Node2&#45;&gt;Node13 -->
<g id="edge13" class="edge">
<title>Node2&#45;&gt;Node13</title>
<path fill="none" stroke="#63b8ff" d="M330.2,-329.98C340.6,-322 356.37,-309.88 368.83,-300.31"/>
<polygon fill="#63b8ff" stroke="#63b8ff" points="371.03,-303.04 376.83,-294.17 366.76,-297.49 371.03,-303.04"/>
</g>
<!-- Node14 -->
<g id="node14" class="node">
<title>Node14</title>
<g id="a_node14"><a xlink:href="../../d1/d71/win32_2compat_2stdint_8h.html" target="_top" xlink:title=" ">
<polygon fill="white" stroke="#666666" points="529.61,-294 430.61,-294 430.61,-275 529.61,-275 529.61,-294"/>
<text text-anchor="middle" x="480.11" y="-282" font-family="Helvetica,sans-Serif" font-size="10.00">./compat/stdint.h</text>
</a>
</g>
</g>
<!-- Node2&#45;&gt;Node14 -->
<g id="edge14" class="edge">
<title>Node2&#45;&gt;Node14</title>
<path fill="none" stroke="#63b8ff" d="M344.98,-329.98C371.89,-321.13 414.23,-307.19 444.34,-297.28"/>
<polygon fill="#63b8ff" stroke="#63b8ff" points="445.64,-300.53 454.04,-294.08 443.45,-293.88 445.64,-300.53"/>
</g>
<!-- Node17 -->
<g id="node17" class="node">
<title>Node17</title>
<g id="a_node17"><a xlink:title=" ">
<polygon fill="#e0e0e0" stroke="#999999" points="618.11,-294 548.11,-294 548.11,-275 618.11,-275 618.11,-294"/>
<text text-anchor="middle" x="583.11" y="-282" font-family="Helvetica,sans-Serif" font-size="10.00">Windows.h</text>
</a>
</g>
</g>
<!-- Node2&#45;&gt;Node17 -->
<g id="edge17" class="edge">
<title>Node2&#45;&gt;Node17</title>
<path fill="none" stroke="#63b8ff" d="M350.17,-332.26C396.66,-322.93 484.56,-305.29 538.08,-294.54"/>
<polygon fill="#63b8ff" stroke="#63b8ff" points="538.87,-297.95 547.98,-292.55 537.49,-291.09 538.87,-297.95"/>
</g>
<!-- Node4 -->
<g id="node4" class="node">
<title>Node4</title>
<g id="a_node4"><a xlink:href="../../db/d9f/cc_config_8h.html" target="_top" xlink:title="cocos2d (cc) configuration file">
<polygon fill="white" stroke="#666666" points="944.61,-74 877.61,-74 877.61,-55 944.61,-55 944.61,-74"/>
<text text-anchor="middle" x="911.11" y="-62" font-family="Helvetica,sans-Serif" font-size="10.00">ccConfig.h</text>
</a>
</g>
</g>
<!-- Node3&#45;&gt;Node4 -->
<g id="edge3" class="edge">
<title>Node3&#45;&gt;Node4</title>
<path fill="none" stroke="#63b8ff" d="M822.98,-109.98C839.72,-101.54 865.61,-88.47 885.01,-78.68"/>
<polygon fill="#63b8ff" stroke="#63b8ff" points="886.59,-81.8 893.94,-74.17 883.43,-75.55 886.59,-81.8"/>
</g>
<!-- Node5 -->
<g id="node5" class="node">
<title>Node5</title>
<g id="a_node5"><a xlink:href="../../dd/d96/_c_c_platform_config_8h.html" target="_top" xlink:title=" ">
<polygon fill="white" stroke="#666666" points="958.61,-19 801.61,-19 801.61,0 958.61,0 958.61,-19"/>
<text text-anchor="middle" x="880.11" y="-7" font-family="Helvetica,sans-Serif" font-size="10.00">platform/CCPlatformConfig.h</text>
</a>
</g>
</g>
<!-- Node3&#45;&gt;Node5 -->
<g id="edge5" class="edge">
<title>Node3&#45;&gt;Node5</title>
<path fill="none" stroke="#63b8ff" d="M812.17,-109.66C824.43,-91.77 852.36,-51 868.33,-27.69"/>
<polygon fill="#63b8ff" stroke="#63b8ff" points="871.42,-29.39 874.18,-19.16 865.64,-25.43 871.42,-29.39"/>
</g>
<!-- Node6 -->
<g id="node6" class="node">
<title>Node6</title>
<g id="a_node6"><a xlink:title=" ">
<polygon fill="#e0e0e0" stroke="#999999" points="820.61,-74 707.61,-74 707.61,-55 820.61,-55 820.61,-74"/>
<text text-anchor="middle" x="764.11" y="-62" font-family="Helvetica,sans-Serif" font-size="10.00">CCPlatformDefine.h</text>
</a>
</g>
</g>
<!-- Node3&#45;&gt;Node6 -->
<g id="edge6" class="edge">
<title>Node3&#45;&gt;Node6</title>
<path fill="none" stroke="#63b8ff" d="M799.18,-109.75C793.25,-102.26 784.54,-91.28 777.29,-82.13"/>
<polygon fill="#63b8ff" stroke="#63b8ff" points="779.87,-79.75 770.92,-74.09 774.39,-84.1 779.87,-79.75"/>
</g>
<!-- Node4&#45;&gt;Node5 -->
<g id="edge4" class="edge">
<title>Node4&#45;&gt;Node5</title>
<path fill="none" stroke="#63b8ff" d="M905.99,-54.75C901.75,-47.49 895.59,-36.95 890.34,-27.98"/>
<polygon fill="#63b8ff" stroke="#63b8ff" points="893.21,-25.95 885.14,-19.09 887.16,-29.49 893.21,-25.95"/>
</g>
<!-- Node15 -->
<g id="node15" class="node">
<title>Node15</title>
<g id="a_node15"><a xlink:title=" ">
<polygon fill="#e0e0e0" stroke="#999999" points="542.61,-239 489.61,-239 489.61,-220 542.61,-220 542.61,-239"/>
<text text-anchor="middle" x="516.11" y="-227" font-family="Helvetica,sans-Serif" font-size="10.00">limits.h</text>
</a>
</g>
</g>
<!-- Node14&#45;&gt;Node15 -->
<g id="edge15" class="edge">
<title>Node14&#45;&gt;Node15</title>
<path fill="none" stroke="#63b8ff" d="M486.06,-274.75C491.09,-267.34 498.45,-256.5 504.63,-247.41"/>
<polygon fill="#63b8ff" stroke="#63b8ff" points="507.56,-249.33 510.28,-239.09 501.76,-245.39 507.56,-249.33"/>
</g>
<!-- Node16 -->
<g id="node16" class="node">
<title>Node16</title>
<g id="a_node16"><a xlink:title=" ">
<polygon fill="#e0e0e0" stroke="#999999" points="471.11,-239 417.11,-239 417.11,-220 471.11,-220 471.11,-239"/>
<text text-anchor="middle" x="444.11" y="-227" font-family="Helvetica,sans-Serif" font-size="10.00">wchar.h</text>
</a>
</g>
</g>
<!-- Node14&#45;&gt;Node16 -->
<g id="edge16" class="edge">
<title>Node14&#45;&gt;Node16</title>
<path fill="none" stroke="#63b8ff" d="M474.17,-274.75C469.14,-267.34 461.78,-256.5 455.6,-247.41"/>
<polygon fill="#63b8ff" stroke="#63b8ff" points="458.46,-245.39 449.95,-239.09 452.67,-249.33 458.46,-245.39"/>
</g>
<!-- Node18&#45;&gt;Node3 -->
<g id="edge19" class="edge">
<title>Node18&#45;&gt;Node3</title>
<path fill="none" stroke="#63b8ff" d="M806.11,-164.75C806.11,-157.8 806.11,-147.85 806.11,-139.13"/>
<polygon fill="#63b8ff" stroke="#63b8ff" points="809.61,-139.09 806.11,-129.09 802.61,-139.09 809.61,-139.09"/>
</g>
<!-- Node19&#45;&gt;Node3 -->
<g id="edge21" class="edge">
<title>Node19&#45;&gt;Node3</title>
<path fill="none" stroke="#63b8ff" d="M715.36,-329.71C710.47,-302.69 699.18,-219.41 733.11,-165 742,-150.74 757.31,-140.39 771.61,-133.28"/>
<polygon fill="#63b8ff" stroke="#63b8ff" points="773.16,-136.42 780.79,-129.07 770.24,-130.06 773.16,-136.42"/>
</g>
<!-- Node19&#45;&gt;Node8 -->
<g id="edge30" class="edge">
<title>Node19&#45;&gt;Node8</title>
<path fill="none" stroke="#63b8ff" d="M708.03,-329.75C700.02,-322.03 688.16,-310.6 678.49,-301.28"/>
<polygon fill="#63b8ff" stroke="#63b8ff" points="680.66,-298.51 671.03,-294.09 675.8,-303.55 680.66,-298.51"/>
</g>
<!-- Node20 -->
<g id="node20" class="node">
<title>Node20</title>
<g id="a_node20"><a xlink:href="../../dd/d69/_c_c_object_8h.html" target="_top" xlink:title=" ">
<polygon fill="white" stroke="#666666" points="917.61,-294 846.61,-294 846.61,-275 917.61,-275 917.61,-294"/>
<text text-anchor="middle" x="882.11" y="-282" font-family="Helvetica,sans-Serif" font-size="10.00">CCObject.h</text>
</a>
</g>
</g>
<!-- Node19&#45;&gt;Node20 -->
<g id="edge22" class="edge">
<title>Node19&#45;&gt;Node20</title>
<path fill="none" stroke="#63b8ff" d="M743.62,-329.98C771.32,-321.09 814.97,-307.07 845.85,-297.15"/>
<polygon fill="#63b8ff" stroke="#63b8ff" points="846.94,-300.47 855.4,-294.08 844.8,-293.81 846.94,-300.47"/>
</g>
<!-- Node21 -->
<g id="node21" class="node">
<title>Node21</title>
<g id="a_node21"><a xlink:href="../../d9/d2d/_c_c_data_visitor_8h.html" target="_top" xlink:title=" ">
<polygon fill="white" stroke="#666666" points="1028.61,-239 935.61,-239 935.61,-220 1028.61,-220 1028.61,-239"/>
<text text-anchor="middle" x="982.11" y="-227" font-family="Helvetica,sans-Serif" font-size="10.00">CCDataVisitor.h</text>
</a>
</g>
</g>
<!-- Node20&#45;&gt;Node21 -->
<g id="edge23" class="edge">
<title>Node20&#45;&gt;Node21</title>
<path fill="none" stroke="#63b8ff" d="M898.18,-274.98C913.98,-266.61 938.33,-253.7 956.74,-243.95"/>
<polygon fill="#63b8ff" stroke="#63b8ff" points="958.56,-246.95 965.75,-239.17 955.28,-240.76 958.56,-246.95"/>
</g>
<!-- Node23 -->
<g id="node23" class="node">
<title>Node23</title>
<g id="a_node23"><a xlink:href="../../d9/dc8/cc_macros_8h.html" target="_top" xlink:title=" ">
<polygon fill="white" stroke="#666666" points="917.61,-239 846.61,-239 846.61,-220 917.61,-220 917.61,-239"/>
<text text-anchor="middle" x="882.11" y="-227" font-family="Helvetica,sans-Serif" font-size="10.00">ccMacros.h</text>
</a>
</g>
</g>
<!-- Node20&#45;&gt;Node23 -->
<g id="edge26" class="edge">
<title>Node20&#45;&gt;Node23</title>
<path fill="none" stroke="#63b8ff" d="M882.11,-274.75C882.11,-267.8 882.11,-257.85 882.11,-249.13"/>
<polygon fill="#63b8ff" stroke="#63b8ff" points="885.61,-249.09 882.11,-239.09 878.61,-249.09 885.61,-249.09"/>
</g>
<!-- Node21&#45;&gt;Node3 -->
<g id="edge24" class="edge">
<title>Node21&#45;&gt;Node3</title>
<path fill="none" stroke="#63b8ff" d="M981.41,-219.76C979.85,-206.1 974.85,-179.76 959.11,-165 941.63,-148.61 918.46,-138.22 895.46,-131.64"/>
<polygon fill="#63b8ff" stroke="#63b8ff" points="896.18,-128.21 885.62,-129.05 894.4,-134.98 896.18,-128.21"/>
</g>
<!-- Node22 -->
<g id="node22" class="node">
<title>Node22</title>
<g id="a_node22"><a xlink:title=" ">
<polygon fill="#e0e0e0" stroke="#999999" points="1088.11,-184 1044.11,-184 1044.11,-165 1088.11,-165 1088.11,-184"/>
<text text-anchor="middle" x="1066.11" y="-172" font-family="Helvetica,sans-Serif" font-size="10.00">string</text>
</a>
</g>
</g>
<!-- Node21&#45;&gt;Node22 -->
<g id="edge25" class="edge">
<title>Node21&#45;&gt;Node22</title>
<path fill="none" stroke="#63b8ff" d="M995.61,-219.98C1008.51,-211.84 1028.21,-199.41 1043.51,-189.76"/>
<polygon fill="#63b8ff" stroke="#63b8ff" points="1045.78,-192.47 1052.37,-184.17 1042.05,-186.55 1045.78,-192.47"/>
</g>
<!-- Node23&#45;&gt;Node4 -->
<g id="edge29" class="edge">
<title>Node23&#45;&gt;Node4</title>
<path fill="none" stroke="#63b8ff" d="M911.25,-219.87C928.47,-213.1 948.85,-201.79 959.11,-184 978.97,-149.58 947.59,-105.36 926.91,-81.87"/>
<polygon fill="#63b8ff" stroke="#63b8ff" points="929.23,-79.22 919.9,-74.21 924.07,-83.95 929.23,-79.22"/>
</g>
<!-- Node23&#45;&gt;Node18 -->
<g id="edge27" class="edge">
<title>Node23&#45;&gt;Node18</title>
<path fill="none" stroke="#63b8ff" d="M869.9,-219.98C858.34,-211.92 840.74,-199.65 826.95,-190.03"/>
<polygon fill="#63b8ff" stroke="#63b8ff" points="828.75,-187.02 818.55,-184.17 824.75,-192.76 828.75,-187.02"/>
</g>
<!-- Node24 -->
<g id="node24" class="node">
<title>Node24</title>
<g id="a_node24"><a xlink:title=" ">
<polygon fill="#e0e0e0" stroke="#999999" points="950.11,-184 888.11,-184 888.11,-165 950.11,-165 950.11,-184"/>
<text text-anchor="middle" x="919.11" y="-172" font-family="Helvetica,sans-Serif" font-size="10.00">CCStdC.h</text>
</a>
</g>
</g>
<!-- Node23&#45;&gt;Node24 -->
<g id="edge28" class="edge">
<title>Node23&#45;&gt;Node24</title>
<path fill="none" stroke="#63b8ff" d="M888.22,-219.75C893.4,-212.34 900.96,-201.5 907.31,-192.41"/>
<polygon fill="#63b8ff" stroke="#63b8ff" points="910.26,-194.29 913.12,-184.09 904.52,-190.29 910.26,-194.29"/>
</g>
<!-- Node26 -->
<g id="node26" class="node">
<title>Node26</title>
<g id="a_node26"><a xlink:href="../../df/de6/cc_types_8h.html" target="_top" xlink:title=" ">
<polygon fill="white" stroke="#666666" points="947.11,-404 883.11,-404 883.11,-385 947.11,-385 947.11,-404"/>
<text text-anchor="middle" x="915.11" y="-392" font-family="Helvetica,sans-Serif" font-size="10.00">ccTypes.h</text>
</a>
</g>
</g>
<!-- Node25&#45;&gt;Node26 -->
<g id="edge32" class="edge">
<title>Node25&#45;&gt;Node26</title>
<path fill="none" stroke="#63b8ff" d="M915.11,-439.75C915.11,-432.8 915.11,-422.85 915.11,-414.13"/>
<polygon fill="#63b8ff" stroke="#63b8ff" points="918.61,-414.09 915.11,-404.09 911.61,-414.09 918.61,-414.09"/>
</g>
<!-- Node26&#45;&gt;Node19 -->
<g id="edge34" class="edge">
<title>Node26&#45;&gt;Node19</title>
<path fill="none" stroke="#63b8ff" d="M883.3,-384.98C849.63,-375.97 796.32,-361.7 759.19,-351.76"/>
<polygon fill="#63b8ff" stroke="#63b8ff" points="759.74,-348.29 749.17,-349.08 757.93,-355.05 759.74,-348.29"/>
</g>
<!-- Node26&#45;&gt;Node22 -->
<g id="edge33" class="edge">
<title>Node26&#45;&gt;Node22</title>
<path fill="none" stroke="#63b8ff" d="M923.48,-384.71C944.75,-362.04 1001.75,-299.14 1038.11,-239 1046.88,-224.5 1054.46,-206.77 1059.52,-193.73"/>
<polygon fill="#63b8ff" stroke="#63b8ff" points="1062.91,-194.65 1063.14,-184.06 1056.36,-192.2 1062.91,-194.65"/>
</g>
<!-- Node27 -->
<g id="node27" class="node">
<title>Node27</title>
<g id="a_node27"><a xlink:title=" ">
<polygon fill="#e0e0e0" stroke="#999999" points="941.11,-349 889.11,-349 889.11,-330 941.11,-330 941.11,-349"/>
<text text-anchor="middle" x="915.11" y="-337" font-family="Helvetica,sans-Serif" font-size="10.00">CCGL.h</text>
</a>
</g>
</g>
<!-- Node26&#45;&gt;Node27 -->
<g id="edge35" class="edge">
<title>Node26&#45;&gt;Node27</title>
<path fill="none" stroke="#63b8ff" d="M915.11,-384.75C915.11,-377.8 915.11,-367.85 915.11,-359.13"/>
<polygon fill="#63b8ff" stroke="#63b8ff" points="918.61,-359.09 915.11,-349.09 911.61,-359.09 918.61,-359.09"/>
</g>
</g>
</svg>
