<?xml version="1.0" encoding="UTF-8" standalone="no"?>
<!DOCTYPE svg PUBLIC "-//W3C//DTD SVG 1.1//EN"
 "http://www.w3.org/Graphics/SVG/1.1/DTD/svg11.dtd">
<!-- Generated by graphviz version 2.43.0 (0)
 -->
<!-- Title: /home/runner/work/cocos&#45;headers/cocos&#45;headers/cocos2dx/platform/win32/CCEGLView.h Pages: 1 -->
<svg width="1134pt" height="565pt"
 viewBox="0.00 0.00 1134.32 565.00" xmlns="http://www.w3.org/2000/svg" xmlns:xlink="http://www.w3.org/1999/xlink">
<g id="graph0" class="graph" transform="scale(1 1) rotate(0) translate(4 561)">
<title>/home/runner/work/cocos&#45;headers/cocos&#45;headers/cocos2dx/platform/win32/CCEGLView.h</title>
<!-- Node1 -->
<g id="node1" class="node">
<title>Node1</title>
<g id="a_node1"><a xlink:title=" ">
<polygon fill="#bfbfbf" stroke="black" points="732.82,-504.5 732.82,-556.5 875.82,-556.5 875.82,-504.5 732.82,-504.5"/>
<text text-anchor="start" x="740.82" y="-544.5" font-family="Helvetica,sans-Serif" font-size="10.00">/home/runner/work/cocos</text>
<text text-anchor="start" x="740.82" y="-533.5" font-family="Helvetica,sans-Serif" font-size="10.00">&#45;headers/cocos&#45;headers</text>
<text text-anchor="start" x="740.82" y="-522.5" font-family="Helvetica,sans-Serif" font-size="10.00">/cocos2dx/platform/win32</text>
<text text-anchor="middle" x="804.32" y="-511.5" font-family="Helvetica,sans-Serif" font-size="10.00">/CCEGLView.h</text>
</a>
</g>
</g>
<!-- Node2 -->
<g id="node2" class="node">
<title>Node2</title>
<g id="a_node2"><a xlink:href="../../dc/d7b/win32_2_c_c_std_c_8h.html" target="_top" xlink:title=" ">
<polygon fill="none" stroke="black" points="288.32,-336.5 288.32,-355.5 350.32,-355.5 350.32,-336.5 288.32,-336.5"/>
<text text-anchor="middle" x="319.32" y="-343.5" font-family="Helvetica,sans-Serif" font-size="10.00">CCStdC.h</text>
</a>
</g>
</g>
<!-- Node1&#45;&gt;Node2 -->
<g id="edge1" class="edge">
<title>Node1&#45;&gt;Node2</title>
<path fill="none" stroke="midnightblue" d="M737.65,-504.41C632.08,-464.68 430.35,-388.78 351.78,-359.21"/>
<polygon fill="midnightblue" stroke="midnightblue" points="352.99,-355.93 342.39,-355.68 350.52,-362.48 352.99,-355.93"/>
</g>
<!-- Node18 -->
<g id="node18" class="node">
<title>Node18</title>
<g id="a_node18"><a xlink:href="../../d5/d22/_c_c_common_8h.html" target="_top" xlink:title=" ">
<polygon fill="none" stroke="black" points="742.32,-168.5 742.32,-187.5 870.32,-187.5 870.32,-168.5 742.32,-168.5"/>
<text text-anchor="middle" x="806.32" y="-175.5" font-family="Helvetica,sans-Serif" font-size="10.00">platform/CCCommon.h</text>
</a>
</g>
</g>
<!-- Node1&#45;&gt;Node18 -->
<g id="edge18" class="edge">
<title>Node1&#45;&gt;Node18</title>
<path fill="none" stroke="midnightblue" d="M804.32,-504.3C804.32,-478.77 804.32,-438.14 804.32,-403 804.32,-403 804.32,-403 804.32,-289 804.32,-256.94 805.18,-219.64 805.78,-197.75"/>
<polygon fill="midnightblue" stroke="midnightblue" points="809.28,-197.65 806.06,-187.56 802.28,-197.45 809.28,-197.65"/>
</g>
<!-- Node19 -->
<g id="node19" class="node">
<title>Node19</title>
<g id="a_node19"><a xlink:href="../../d6/d09/_c_c_geometry_8h.html" target="_top" xlink:title=" ">
<polygon fill="none" stroke="black" points="658.32,-336.5 658.32,-355.5 776.32,-355.5 776.32,-336.5 658.32,-336.5"/>
<text text-anchor="middle" x="717.32" y="-343.5" font-family="Helvetica,sans-Serif" font-size="10.00">cocoa/CCGeometry.h</text>
</a>
</g>
</g>
<!-- Node1&#45;&gt;Node19 -->
<g id="edge20" class="edge">
<title>Node1&#45;&gt;Node19</title>
<path fill="none" stroke="midnightblue" d="M792.23,-504.12C774.36,-466.65 741.37,-397.45 725.84,-364.86"/>
<polygon fill="midnightblue" stroke="midnightblue" points="728.91,-363.17 721.45,-355.65 722.59,-366.18 728.91,-363.17"/>
</g>
<!-- Node25 -->
<g id="node25" class="node">
<title>Node25</title>
<g id="a_node25"><a xlink:href="../../df/da9/_c_c_e_g_l_view_protocol_8h.html" target="_top" xlink:title=" ">
<polygon fill="none" stroke="black" points="832.32,-448.5 832.32,-467.5 998.32,-467.5 998.32,-448.5 832.32,-448.5"/>
<text text-anchor="middle" x="915.32" y="-455.5" font-family="Helvetica,sans-Serif" font-size="10.00">platform/CCEGLViewProtocol.h</text>
</a>
</g>
</g>
<!-- Node1&#45;&gt;Node25 -->
<g id="edge31" class="edge">
<title>Node1&#45;&gt;Node25</title>
<path fill="none" stroke="midnightblue" d="M843.77,-504.45C860.44,-493.86 879.21,-481.94 893.35,-472.96"/>
<polygon fill="midnightblue" stroke="midnightblue" points="895.33,-475.84 901.9,-467.53 891.58,-469.93 895.33,-475.84"/>
</g>
<!-- Node28 -->
<g id="node28" class="node">
<title>Node28</title>
<g id="a_node28"><a xlink:title=" ">
<polygon fill="none" stroke="#bfbfbf" points="1016.32,-448.5 1016.32,-467.5 1126.32,-467.5 1126.32,-448.5 1016.32,-448.5"/>
<text text-anchor="middle" x="1071.32" y="-455.5" font-family="Helvetica,sans-Serif" font-size="10.00">robtop/glfw/glfw3.h</text>
</a>
</g>
</g>
<!-- Node1&#45;&gt;Node28 -->
<g id="edge36" class="edge">
<title>Node1&#45;&gt;Node28</title>
<path fill="none" stroke="midnightblue" d="M875.88,-510.61C924.82,-497.68 988.05,-480.99 1029.13,-470.14"/>
<polygon fill="midnightblue" stroke="midnightblue" points="1030.04,-473.52 1038.82,-467.58 1028.25,-466.75 1030.04,-473.52"/>
</g>
<!-- Node3 -->
<g id="node3" class="node">
<title>Node3</title>
<g id="a_node3"><a xlink:href="../../d3/d41/_c_c_platform_macros_8h.html" target="_top" xlink:title=" ">
<polygon fill="none" stroke="black" points="725.82,-112.5 725.82,-131.5 886.82,-131.5 886.82,-112.5 725.82,-112.5"/>
<text text-anchor="middle" x="806.32" y="-119.5" font-family="Helvetica,sans-Serif" font-size="10.00">platform/CCPlatformMacros.h</text>
</a>
</g>
</g>
<!-- Node2&#45;&gt;Node3 -->
<g id="edge2" class="edge">
<title>Node2&#45;&gt;Node3</title>
<path fill="none" stroke="midnightblue" d="M288.07,-345.46C215.87,-345.8 40.88,-342.15 4.32,-300 -1.5,-293.28 -1.33,-286.86 4.32,-280 93.64,-171.5 524.99,-136.91 715.53,-126.81"/>
<polygon fill="midnightblue" stroke="midnightblue" points="715.99,-130.29 725.8,-126.28 715.63,-123.3 715.99,-130.29"/>
</g>
<!-- Node7 -->
<g id="node7" class="node">
<title>Node7</title>
<g id="a_node7"><a xlink:title=" ">
<polygon fill="none" stroke="#bfbfbf" points="13.82,-280.5 13.82,-299.5 60.82,-299.5 60.82,-280.5 13.82,-280.5"/>
<text text-anchor="middle" x="37.32" y="-287.5" font-family="Helvetica,sans-Serif" font-size="10.00">float.h</text>
</a>
</g>
</g>
<!-- Node2&#45;&gt;Node7 -->
<g id="edge7" class="edge">
<title>Node2&#45;&gt;Node7</title>
<path fill="none" stroke="midnightblue" d="M287.95,-340.34C242.2,-333.34 154.35,-319.09 70.91,-300.2"/>
<polygon fill="midnightblue" stroke="midnightblue" points="71.55,-296.76 61.02,-297.94 69.99,-303.58 71.55,-296.76"/>
</g>
<!-- Node8 -->
<g id="node8" class="node">
<title>Node8</title>
<g id="a_node8"><a xlink:title=" ">
<polygon fill="none" stroke="#bfbfbf" points="636.82,-280.5 636.82,-299.5 687.82,-299.5 687.82,-280.5 636.82,-280.5"/>
<text text-anchor="middle" x="662.32" y="-287.5" font-family="Helvetica,sans-Serif" font-size="10.00">math.h</text>
</a>
</g>
</g>
<!-- Node2&#45;&gt;Node8 -->
<g id="edge8" class="edge">
<title>Node2&#45;&gt;Node8</title>
<path fill="none" stroke="midnightblue" d="M350.55,-341.55C404.71,-335.34 519.69,-321.08 626.78,-299.91"/>
<polygon fill="midnightblue" stroke="midnightblue" points="627.66,-303.3 636.78,-297.9 626.29,-296.43 627.66,-303.3"/>
</g>
<!-- Node9 -->
<g id="node9" class="node">
<title>Node9</title>
<g id="a_node9"><a xlink:title=" ">
<polygon fill="none" stroke="#bfbfbf" points="78.82,-280.5 78.82,-299.5 131.82,-299.5 131.82,-280.5 78.82,-280.5"/>
<text text-anchor="middle" x="105.32" y="-287.5" font-family="Helvetica,sans-Serif" font-size="10.00">string.h</text>
</a>
</g>
</g>
<!-- Node2&#45;&gt;Node9 -->
<g id="edge9" class="edge">
<title>Node2&#45;&gt;Node9</title>
<path fill="none" stroke="midnightblue" d="M288.21,-337.15C249.41,-327.36 183.21,-310.65 141.99,-300.25"/>
<polygon fill="midnightblue" stroke="midnightblue" points="142.64,-296.81 132.08,-297.75 140.92,-303.59 142.64,-296.81"/>
</g>
<!-- Node10 -->
<g id="node10" class="node">
<title>Node10</title>
<g id="a_node10"><a xlink:title=" ">
<polygon fill="none" stroke="#bfbfbf" points="150.32,-280.5 150.32,-299.5 206.32,-299.5 206.32,-280.5 150.32,-280.5"/>
<text text-anchor="middle" x="178.32" y="-287.5" font-family="Helvetica,sans-Serif" font-size="10.00">stdarg.h</text>
</a>
</g>
</g>
<!-- Node2&#45;&gt;Node10 -->
<g id="edge10" class="edge">
<title>Node2&#45;&gt;Node10</title>
<path fill="none" stroke="midnightblue" d="M296.98,-336.44C273.57,-327.48 236.59,-313.31 210.13,-303.18"/>
<polygon fill="midnightblue" stroke="midnightblue" points="211.15,-299.82 200.56,-299.52 208.65,-306.36 211.15,-299.82"/>
</g>
<!-- Node11 -->
<g id="node11" class="node">
<title>Node11</title>
<g id="a_node11"><a xlink:title=" ">
<polygon fill="none" stroke="#bfbfbf" points="224.32,-280.5 224.32,-299.5 274.32,-299.5 274.32,-280.5 224.32,-280.5"/>
<text text-anchor="middle" x="249.32" y="-287.5" font-family="Helvetica,sans-Serif" font-size="10.00">stdio.h</text>
</a>
</g>
</g>
<!-- Node2&#45;&gt;Node11 -->
<g id="edge11" class="edge">
<title>Node2&#45;&gt;Node11</title>
<path fill="none" stroke="midnightblue" d="M308.08,-336.32C297.53,-328.18 281.52,-315.84 268.88,-306.09"/>
<polygon fill="midnightblue" stroke="midnightblue" points="270.83,-303.17 260.78,-299.83 266.56,-308.71 270.83,-303.17"/>
</g>
<!-- Node12 -->
<g id="node12" class="node">
<title>Node12</title>
<g id="a_node12"><a xlink:title=" ">
<polygon fill="none" stroke="#bfbfbf" points="292.82,-280.5 292.82,-299.5 345.82,-299.5 345.82,-280.5 292.82,-280.5"/>
<text text-anchor="middle" x="319.32" y="-287.5" font-family="Helvetica,sans-Serif" font-size="10.00">stdlib.h</text>
</a>
</g>
</g>
<!-- Node2&#45;&gt;Node12 -->
<g id="edge12" class="edge">
<title>Node2&#45;&gt;Node12</title>
<path fill="none" stroke="midnightblue" d="M319.32,-336.08C319.32,-329.01 319.32,-318.86 319.32,-309.99"/>
<polygon fill="midnightblue" stroke="midnightblue" points="322.82,-309.75 319.32,-299.75 315.82,-309.75 322.82,-309.75"/>
</g>
<!-- Node13 -->
<g id="node13" class="node">
<title>Node13</title>
<g id="a_node13"><a xlink:title=" ">
<polygon fill="none" stroke="#bfbfbf" points="364.32,-280.5 364.32,-299.5 412.32,-299.5 412.32,-280.5 364.32,-280.5"/>
<text text-anchor="middle" x="388.32" y="-287.5" font-family="Helvetica,sans-Serif" font-size="10.00">time.h</text>
</a>
</g>
</g>
<!-- Node2&#45;&gt;Node13 -->
<g id="edge13" class="edge">
<title>Node2&#45;&gt;Node13</title>
<path fill="none" stroke="midnightblue" d="M330.41,-336.32C340.81,-328.18 356.59,-315.84 369.05,-306.09"/>
<polygon fill="midnightblue" stroke="midnightblue" points="371.32,-308.75 377.04,-299.83 367,-303.24 371.32,-308.75"/>
</g>
<!-- Node14 -->
<g id="node14" class="node">
<title>Node14</title>
<g id="a_node14"><a xlink:href="../../d1/d71/win32_2compat_2stdint_8h.html" target="_top" xlink:title=" ">
<polygon fill="none" stroke="black" points="430.82,-280.5 430.82,-299.5 529.82,-299.5 529.82,-280.5 430.82,-280.5"/>
<text text-anchor="middle" x="480.32" y="-287.5" font-family="Helvetica,sans-Serif" font-size="10.00">./compat/stdint.h</text>
</a>
</g>
</g>
<!-- Node2&#45;&gt;Node14 -->
<g id="edge14" class="edge">
<title>Node2&#45;&gt;Node14</title>
<path fill="none" stroke="midnightblue" d="M344.84,-336.44C371.92,-327.36 414.91,-312.94 445.19,-302.78"/>
<polygon fill="midnightblue" stroke="midnightblue" points="446.56,-306.01 454.93,-299.52 444.34,-299.38 446.56,-306.01"/>
</g>
<!-- Node17 -->
<g id="node17" class="node">
<title>Node17</title>
<g id="a_node17"><a xlink:title=" ">
<polygon fill="none" stroke="#bfbfbf" points="548.32,-280.5 548.32,-299.5 618.32,-299.5 618.32,-280.5 548.32,-280.5"/>
<text text-anchor="middle" x="583.32" y="-287.5" font-family="Helvetica,sans-Serif" font-size="10.00">Windows.h</text>
</a>
</g>
</g>
<!-- Node2&#45;&gt;Node17 -->
<g id="edge17" class="edge">
<title>Node2&#45;&gt;Node17</title>
<path fill="none" stroke="midnightblue" d="M350.38,-338.65C396.87,-329.14 484.77,-311.16 538.29,-300.21"/>
<polygon fill="midnightblue" stroke="midnightblue" points="539.1,-303.62 548.19,-298.19 537.7,-296.76 539.1,-303.62"/>
</g>
<!-- Node4 -->
<g id="node4" class="node">
<title>Node4</title>
<g id="a_node4"><a xlink:href="../../db/d9f/cc_config_8h.html" target="_top" xlink:title="cocos2d (cc) configuration file">
<polygon fill="none" stroke="black" points="877.82,-56.5 877.82,-75.5 944.82,-75.5 944.82,-56.5 877.82,-56.5"/>
<text text-anchor="middle" x="911.32" y="-63.5" font-family="Helvetica,sans-Serif" font-size="10.00">ccConfig.h</text>
</a>
</g>
</g>
<!-- Node3&#45;&gt;Node4 -->
<g id="edge3" class="edge">
<title>Node3&#45;&gt;Node4</title>
<path fill="none" stroke="midnightblue" d="M823.19,-112.32C840.03,-103.66 866.13,-90.24 885.56,-80.25"/>
<polygon fill="midnightblue" stroke="midnightblue" points="887.2,-83.34 894.5,-75.65 884,-77.12 887.2,-83.34"/>
</g>
<!-- Node5 -->
<g id="node5" class="node">
<title>Node5</title>
<g id="a_node5"><a xlink:href="../../dd/d96/_c_c_platform_config_8h.html" target="_top" xlink:title=" ">
<polygon fill="none" stroke="black" points="801.82,-0.5 801.82,-19.5 958.82,-19.5 958.82,-0.5 801.82,-0.5"/>
<text text-anchor="middle" x="880.32" y="-7.5" font-family="Helvetica,sans-Serif" font-size="10.00">platform/CCPlatformConfig.h</text>
</a>
</g>
</g>
<!-- Node3&#45;&gt;Node5 -->
<g id="edge5" class="edge">
<title>Node3&#45;&gt;Node5</title>
<path fill="none" stroke="midnightblue" d="M812.13,-112.37C824.34,-94.22 852.88,-51.8 868.89,-27.99"/>
<polygon fill="midnightblue" stroke="midnightblue" points="871.87,-29.84 874.54,-19.59 866.06,-25.94 871.87,-29.84"/>
</g>
<!-- Node6 -->
<g id="node6" class="node">
<title>Node6</title>
<g id="a_node6"><a xlink:title=" ">
<polygon fill="none" stroke="#bfbfbf" points="707.82,-56.5 707.82,-75.5 820.82,-75.5 820.82,-56.5 707.82,-56.5"/>
<text text-anchor="middle" x="764.32" y="-63.5" font-family="Helvetica,sans-Serif" font-size="10.00">CCPlatformDefine.h</text>
</a>
</g>
</g>
<!-- Node3&#45;&gt;Node6 -->
<g id="edge6" class="edge">
<title>Node3&#45;&gt;Node6</title>
<path fill="none" stroke="midnightblue" d="M799.39,-112.08C793.4,-104.38 784.57,-93.03 777.28,-83.65"/>
<polygon fill="midnightblue" stroke="midnightblue" points="780.03,-81.5 771.13,-75.75 774.51,-85.79 780.03,-81.5"/>
</g>
<!-- Node4&#45;&gt;Node5 -->
<g id="edge4" class="edge">
<title>Node4&#45;&gt;Node5</title>
<path fill="none" stroke="midnightblue" d="M906.21,-56.08C901.92,-48.61 895.67,-37.72 890.38,-28.52"/>
<polygon fill="midnightblue" stroke="midnightblue" points="893.36,-26.68 885.35,-19.75 887.29,-30.17 893.36,-26.68"/>
</g>
<!-- Node15 -->
<g id="node15" class="node">
<title>Node15</title>
<g id="a_node15"><a xlink:title=" ">
<polygon fill="none" stroke="#bfbfbf" points="489.82,-224.5 489.82,-243.5 542.82,-243.5 542.82,-224.5 489.82,-224.5"/>
<text text-anchor="middle" x="516.32" y="-231.5" font-family="Helvetica,sans-Serif" font-size="10.00">limits.h</text>
</a>
</g>
</g>
<!-- Node14&#45;&gt;Node15 -->
<g id="edge15" class="edge">
<title>Node14&#45;&gt;Node15</title>
<path fill="none" stroke="midnightblue" d="M486.27,-280.08C491.3,-272.53 498.66,-261.49 504.84,-252.23"/>
<polygon fill="midnightblue" stroke="midnightblue" points="507.86,-254.01 510.49,-243.75 502.03,-250.13 507.86,-254.01"/>
</g>
<!-- Node16 -->
<g id="node16" class="node">
<title>Node16</title>
<g id="a_node16"><a xlink:title=" ">
<polygon fill="none" stroke="#bfbfbf" points="417.32,-224.5 417.32,-243.5 471.32,-243.5 471.32,-224.5 417.32,-224.5"/>
<text text-anchor="middle" x="444.32" y="-231.5" font-family="Helvetica,sans-Serif" font-size="10.00">wchar.h</text>
</a>
</g>
</g>
<!-- Node14&#45;&gt;Node16 -->
<g id="edge16" class="edge">
<title>Node14&#45;&gt;Node16</title>
<path fill="none" stroke="midnightblue" d="M474.38,-280.08C469.35,-272.53 461.99,-261.49 455.81,-252.23"/>
<polygon fill="midnightblue" stroke="midnightblue" points="458.62,-250.13 450.16,-243.75 452.79,-254.01 458.62,-250.13"/>
</g>
<!-- Node18&#45;&gt;Node3 -->
<g id="edge19" class="edge">
<title>Node18&#45;&gt;Node3</title>
<path fill="none" stroke="midnightblue" d="M806.32,-168.08C806.32,-161.01 806.32,-150.86 806.32,-141.99"/>
<polygon fill="midnightblue" stroke="midnightblue" points="809.82,-141.75 806.32,-131.75 802.82,-141.75 809.82,-141.75"/>
</g>
<!-- Node19&#45;&gt;Node3 -->
<g id="edge21" class="edge">
<title>Node19&#45;&gt;Node3</title>
<path fill="none" stroke="midnightblue" d="M715.6,-336.43C710.63,-309.31 698.73,-223.88 733.32,-168 742.26,-153.57 757.72,-143.06 772.11,-135.85"/>
<polygon fill="midnightblue" stroke="midnightblue" points="773.74,-138.96 781.34,-131.58 770.8,-132.6 773.74,-138.96"/>
</g>
<!-- Node19&#45;&gt;Node8 -->
<g id="edge30" class="edge">
<title>Node19&#45;&gt;Node8</title>
<path fill="none" stroke="midnightblue" d="M708.24,-336.08C700.15,-328.14 688.13,-316.34 678.41,-306.8"/>
<polygon fill="midnightblue" stroke="midnightblue" points="680.83,-304.26 671.24,-299.75 675.92,-309.25 680.83,-304.26"/>
</g>
<!-- Node20 -->
<g id="node20" class="node">
<title>Node20</title>
<g id="a_node20"><a xlink:href="../../dd/d69/_c_c_object_8h.html" target="_top" xlink:title=" ">
<polygon fill="none" stroke="black" points="846.82,-280.5 846.82,-299.5 917.82,-299.5 917.82,-280.5 846.82,-280.5"/>
<text text-anchor="middle" x="882.32" y="-287.5" font-family="Helvetica,sans-Serif" font-size="10.00">CCObject.h</text>
</a>
</g>
</g>
<!-- Node19&#45;&gt;Node20 -->
<g id="edge22" class="edge">
<title>Node19&#45;&gt;Node20</title>
<path fill="none" stroke="midnightblue" d="M743.47,-336.44C771.35,-327.32 815.67,-312.81 846.72,-302.65"/>
<polygon fill="midnightblue" stroke="midnightblue" points="847.89,-305.95 856.3,-299.52 845.71,-299.3 847.89,-305.95"/>
</g>
<!-- Node21 -->
<g id="node21" class="node">
<title>Node21</title>
<g id="a_node21"><a xlink:href="../../d9/d2d/_c_c_data_visitor_8h.html" target="_top" xlink:title=" ">
<polygon fill="none" stroke="black" points="935.82,-224.5 935.82,-243.5 1028.82,-243.5 1028.82,-224.5 935.82,-224.5"/>
<text text-anchor="middle" x="982.32" y="-231.5" font-family="Helvetica,sans-Serif" font-size="10.00">CCDataVisitor.h</text>
</a>
</g>
</g>
<!-- Node20&#45;&gt;Node21 -->
<g id="edge23" class="edge">
<title>Node20&#45;&gt;Node21</title>
<path fill="none" stroke="midnightblue" d="M898.39,-280.32C914.28,-271.74 938.83,-258.49 957.28,-248.52"/>
<polygon fill="midnightblue" stroke="midnightblue" points="959.16,-251.49 966.3,-243.65 955.84,-245.33 959.16,-251.49"/>
</g>
<!-- Node23 -->
<g id="node23" class="node">
<title>Node23</title>
<g id="a_node23"><a xlink:href="../../d9/dc8/cc_macros_8h.html" target="_top" xlink:title=" ">
<polygon fill="none" stroke="black" points="846.82,-224.5 846.82,-243.5 917.82,-243.5 917.82,-224.5 846.82,-224.5"/>
<text text-anchor="middle" x="882.32" y="-231.5" font-family="Helvetica,sans-Serif" font-size="10.00">ccMacros.h</text>
</a>
</g>
</g>
<!-- Node20&#45;&gt;Node23 -->
<g id="edge26" class="edge">
<title>Node20&#45;&gt;Node23</title>
<path fill="none" stroke="midnightblue" d="M882.32,-280.08C882.32,-273.01 882.32,-262.86 882.32,-253.99"/>
<polygon fill="midnightblue" stroke="midnightblue" points="885.82,-253.75 882.32,-243.75 878.82,-253.75 885.82,-253.75"/>
</g>
<!-- Node21&#45;&gt;Node3 -->
<g id="edge24" class="edge">
<title>Node21&#45;&gt;Node3</title>
<path fill="none" stroke="midnightblue" d="M981.68,-224.06C980.2,-210.1 975.31,-183.15 959.32,-168 941.74,-151.34 918.3,-140.81 895.06,-134.17"/>
<polygon fill="midnightblue" stroke="midnightblue" points="895.7,-130.71 885.13,-131.55 893.91,-137.48 895.7,-130.71"/>
</g>
<!-- Node22 -->
<g id="node22" class="node">
<title>Node22</title>
<g id="a_node22"><a xlink:title=" ">
<polygon fill="none" stroke="#bfbfbf" points="1044.32,-168.5 1044.32,-187.5 1088.32,-187.5 1088.32,-168.5 1044.32,-168.5"/>
<text text-anchor="middle" x="1066.32" y="-175.5" font-family="Helvetica,sans-Serif" font-size="10.00">string</text>
</a>
</g>
</g>
<!-- Node21&#45;&gt;Node22 -->
<g id="edge25" class="edge">
<title>Node21&#45;&gt;Node22</title>
<path fill="none" stroke="midnightblue" d="M995.82,-224.32C1008.92,-215.9 1029.04,-202.97 1044.43,-193.07"/>
<polygon fill="midnightblue" stroke="midnightblue" points="1046.34,-196.01 1052.86,-187.65 1042.56,-190.12 1046.34,-196.01"/>
</g>
<!-- Node23&#45;&gt;Node4 -->
<g id="edge29" class="edge">
<title>Node23&#45;&gt;Node4</title>
<path fill="none" stroke="midnightblue" d="M910.7,-224.49C928.08,-217.65 948.92,-206.13 959.32,-188 979.65,-152.58 947.37,-106.88 926.62,-83.06"/>
<polygon fill="midnightblue" stroke="midnightblue" points="929.17,-80.66 919.86,-75.59 923.98,-85.36 929.17,-80.66"/>
</g>
<!-- Node23&#45;&gt;Node18 -->
<g id="edge27" class="edge">
<title>Node23&#45;&gt;Node18</title>
<path fill="none" stroke="midnightblue" d="M870.11,-224.32C858.55,-216.11 840.95,-203.6 827.16,-193.81"/>
<polygon fill="midnightblue" stroke="midnightblue" points="828.94,-190.77 818.76,-187.83 824.88,-196.48 828.94,-190.77"/>
</g>
<!-- Node24 -->
<g id="node24" class="node">
<title>Node24</title>
<g id="a_node24"><a xlink:title=" ">
<polygon fill="none" stroke="#bfbfbf" points="888.32,-168.5 888.32,-187.5 950.32,-187.5 950.32,-168.5 888.32,-168.5"/>
<text text-anchor="middle" x="919.32" y="-175.5" font-family="Helvetica,sans-Serif" font-size="10.00">CCStdC.h</text>
</a>
</g>
</g>
<!-- Node23&#45;&gt;Node24 -->
<g id="edge28" class="edge">
<title>Node23&#45;&gt;Node24</title>
<path fill="none" stroke="midnightblue" d="M888.43,-224.08C893.61,-216.53 901.17,-205.49 907.52,-196.23"/>
<polygon fill="midnightblue" stroke="midnightblue" points="910.56,-197.98 913.33,-187.75 904.79,-194.02 910.56,-197.98"/>
</g>
<!-- Node26 -->
<g id="node26" class="node">
<title>Node26</title>
<g id="a_node26"><a xlink:href="../../df/de6/cc_types_8h.html" target="_top" xlink:title=" ">
<polygon fill="none" stroke="black" points="883.32,-392.5 883.32,-411.5 947.32,-411.5 947.32,-392.5 883.32,-392.5"/>
<text text-anchor="middle" x="915.32" y="-399.5" font-family="Helvetica,sans-Serif" font-size="10.00">ccTypes.h</text>
</a>
</g>
</g>
<!-- Node25&#45;&gt;Node26 -->
<g id="edge32" class="edge">
<title>Node25&#45;&gt;Node26</title>
<path fill="none" stroke="midnightblue" d="M915.32,-448.08C915.32,-441.01 915.32,-430.86 915.32,-421.99"/>
<polygon fill="midnightblue" stroke="midnightblue" points="918.82,-421.75 915.32,-411.75 911.82,-421.75 918.82,-421.75"/>
</g>
<!-- Node26&#45;&gt;Node19 -->
<g id="edge34" class="edge">
<title>Node26&#45;&gt;Node19</title>
<path fill="none" stroke="midnightblue" d="M883.95,-392.44C850.06,-383.2 795.92,-368.44 758.6,-358.26"/>
<polygon fill="midnightblue" stroke="midnightblue" points="759.12,-354.77 748.55,-355.52 757.28,-361.52 759.12,-354.77"/>
</g>
<!-- Node26&#45;&gt;Node22 -->
<g id="edge33" class="edge">
<title>Node26&#45;&gt;Node22</title>
<path fill="none" stroke="midnightblue" d="M923.4,-392.39C944.46,-369.62 1001.92,-305.34 1038.32,-244 1047.23,-228.99 1054.87,-210.63 1059.91,-197.25"/>
<polygon fill="midnightblue" stroke="midnightblue" points="1063.24,-198.35 1063.37,-187.76 1056.66,-195.96 1063.24,-198.35"/>
</g>
<!-- Node27 -->
<g id="node27" class="node">
<title>Node27</title>
<g id="a_node27"><a xlink:title=" ">
<polygon fill="none" stroke="#bfbfbf" points="889.32,-336.5 889.32,-355.5 941.32,-355.5 941.32,-336.5 889.32,-336.5"/>
<text text-anchor="middle" x="915.32" y="-343.5" font-family="Helvetica,sans-Serif" font-size="10.00">CCGL.h</text>
</a>
</g>
</g>
<!-- Node26&#45;&gt;Node27 -->
<g id="edge35" class="edge">
<title>Node26&#45;&gt;Node27</title>
<path fill="none" stroke="midnightblue" d="M915.32,-392.08C915.32,-385.01 915.32,-374.86 915.32,-365.99"/>
<polygon fill="midnightblue" stroke="midnightblue" points="918.82,-365.75 915.32,-355.75 911.82,-365.75 918.82,-365.75"/>
</g>
</g>
</svg>
