<?xml version="1.0" encoding="UTF-8" standalone="no"?>
<!DOCTYPE svg PUBLIC "-//W3C//DTD SVG 1.1//EN"
 "http://www.w3.org/Graphics/SVG/1.1/DTD/svg11.dtd">
<!-- Generated by graphviz version 2.43.0 (0)
 -->
<!-- Title: CCSprite Pages: 1 -->
<svg width="1572pt" height="906pt"
 viewBox="0.00 0.00 1572.00 905.77" xmlns="http://www.w3.org/2000/svg" xmlns:xlink="http://www.w3.org/1999/xlink">
<g id="graph0" class="graph" transform="scale(1 1) rotate(0) translate(4 901.77)">
<title>CCSprite</title>
<!-- Node1 -->
<g id="node1" class="node">
<title>Node1</title>
<g id="a_node1"><a xlink:title="CCSprite is a 2d image ( http://en.wikipedia.org/wiki/Sprite_(computer_graphics) )">
<polygon fill="#bfbfbf" stroke="black" points="1505,-553.27 1505,-572.27 1564,-572.27 1564,-553.27 1505,-553.27"/>
<text text-anchor="middle" x="1534.5" y="-560.27" font-family="Helvetica,sans-Serif" font-size="10.00">CCSprite</text>
</a>
</g>
</g>
<!-- Node2 -->
<g id="node2" class="node">
<title>Node2</title>
<g id="a_node2"><a xlink:href="../../de/d2e/classcocos2d_1_1_c_c_node_r_g_b_a.html" target="_top" xlink:title="CCNodeRGBA is a subclass of CCNode that implements the CCRGBAProtocol protocol.">
<polygon fill="none" stroke="black" points="1281.5,-51.27 1281.5,-70.27 1364.5,-70.27 1364.5,-51.27 1281.5,-51.27"/>
<text text-anchor="middle" x="1323" y="-58.27" font-family="Helvetica,sans-Serif" font-size="10.00">CCNodeRGBA</text>
</a>
</g>
</g>
<!-- Node2&#45;&gt;Node1 -->
<g id="edge1" class="edge">
<title>Node2&#45;&gt;Node1</title>
<path fill="none" stroke="midnightblue" d="M1374.7,-56.82C1411.41,-56.97 1459.27,-63.91 1487,-94.77 1518.79,-130.14 1531.23,-488.81 1533.21,-552.97"/>
<polygon fill="midnightblue" stroke="midnightblue" points="1374.62,-53.32 1364.67,-56.95 1374.71,-60.32 1374.62,-53.32"/>
</g>
<!-- Node3 -->
<g id="node3" class="node">
<title>Node3</title>
<g id="a_node3"><a xlink:href="../../d0/ded/classcocos2d_1_1_c_c_node.html" target="_top" xlink:title="CCNode is the main element.">
<polygon fill="none" stroke="black" points="1027,-335.27 1027,-354.27 1083,-354.27 1083,-335.27 1027,-335.27"/>
<text text-anchor="middle" x="1055" y="-342.27" font-family="Helvetica,sans-Serif" font-size="10.00">CCNode</text>
</a>
</g>
</g>
<!-- Node3&#45;&gt;Node2 -->
<g id="edge2" class="edge">
<title>Node3&#45;&gt;Node2</title>
<path fill="none" stroke="midnightblue" d="M1066.51,-325.97C1081.86,-297.71 1110.3,-242.19 1126,-191.77 1139.69,-147.82 1111.24,-122.11 1144,-89.77 1162.89,-71.13 1234.8,-64.46 1281.24,-62.08"/>
<polygon fill="midnightblue" stroke="midnightblue" points="1063.24,-324.64 1061.49,-335.09 1069.38,-328.02 1063.24,-324.64"/>
</g>
<!-- Node3&#45;&gt;Node3 -->
<g id="edge24" class="edge">
<title>Node3&#45;&gt;Node3</title>
<path fill="none" stroke="#9a32cd" stroke-dasharray="5,2" d="M1028.96,-363.8C1030.38,-368.9 1039.06,-372.77 1055,-372.77 1079.88,-372.77 1087.08,-363.34 1076.58,-354.53"/>
<polygon fill="#9a32cd" stroke="#9a32cd" points="1032.24,-365.06 1033.42,-354.53 1025.93,-362.02 1032.24,-365.06"/>
<text text-anchor="middle" x="1055" y="-375.77" font-family="Helvetica,sans-Serif" font-size="10.00"> m_pParent</text>
</g>
<!-- Node28 -->
<g id="node28" class="node">
<title>Node28</title>
<g id="a_node28"><a xlink:href="../../dd/d95/classcocos2d_1_1_c_c_sprite_batch_node.html" target="_top" xlink:title="CCSpriteBatchNode is like a batch node: if it contains children, it will draw them in 1 single OpenGL...">
<polygon fill="none" stroke="black" points="1267,-632.27 1267,-651.27 1379,-651.27 1379,-632.27 1267,-632.27"/>
<text text-anchor="middle" x="1323" y="-639.27" font-family="Helvetica,sans-Serif" font-size="10.00">CCSpriteBatchNode</text>
</a>
</g>
</g>
<!-- Node3&#45;&gt;Node28 -->
<g id="edge46" class="edge">
<title>Node3&#45;&gt;Node28</title>
<path fill="none" stroke="midnightblue" d="M1062.29,-363.85C1074.11,-397.61 1102.29,-468.81 1144,-516.77 1191.33,-571.2 1267.12,-613.99 1302.55,-632.21"/>
<polygon fill="midnightblue" stroke="midnightblue" points="1065.57,-362.62 1059.03,-354.29 1058.94,-364.88 1065.57,-362.62"/>
</g>
<!-- Node4 -->
<g id="node4" class="node">
<title>Node4</title>
<g id="a_node4"><a xlink:href="../../d3/dbf/classcocos2d_1_1_c_c_object.html" target="_top" xlink:title="NA.">
<polygon fill="none" stroke="black" points="107,-520.27 107,-539.27 169,-539.27 169,-520.27 107,-520.27"/>
<text text-anchor="middle" x="138" y="-527.27" font-family="Helvetica,sans-Serif" font-size="10.00">CCObject</text>
</a>
</g>
</g>
<!-- Node4&#45;&gt;Node3 -->
<g id="edge3" class="edge">
<title>Node4&#45;&gt;Node3</title>
<path fill="none" stroke="midnightblue" d="M139.43,-509.77C141.84,-422.43 157.04,-78.77 247,-78.77 247,-78.77 247,-78.77 607,-78.77 702.04,-78.77 740.51,-45.67 820,-97.77 833.97,-106.93 826.47,-118.68 838,-130.77 883.96,-178.99 918.26,-162.3 966,-208.77 1007.11,-248.79 1038.58,-311.39 1049.67,-335.17"/>
<polygon fill="midnightblue" stroke="midnightblue" points="135.93,-509.85 139.18,-519.93 142.93,-510.02 135.93,-509.85"/>
</g>
<!-- Node4&#45;&gt;Node3 -->
<g id="edge25" class="edge">
<title>Node4&#45;&gt;Node3</title>
<path fill="none" stroke="#9a32cd" stroke-dasharray="5,2" d="M142.11,-549.4C150.35,-593.73 177.15,-697.77 247,-697.77 247,-697.77 247,-697.77 754,-697.77 850.81,-697.77 900.88,-719.4 966,-647.77 985.77,-626.03 976.4,-545.16 984,-516.77 1001.17,-452.62 1036.03,-380.34 1049,-354.55"/>
<polygon fill="#9a32cd" stroke="#9a32cd" points="145.51,-548.54 140.36,-539.28 138.61,-549.73 145.51,-548.54"/>
<text text-anchor="middle" x="476" y="-700.77" font-family="Helvetica,sans-Serif" font-size="10.00"> m_pUserObject</text>
</g>
<!-- Node9 -->
<g id="node9" class="node">
<title>Node9</title>
<g id="a_node9"><a xlink:href="../../d2/d51/classcocos2d_1_1_c_c_camera.html" target="_top" xlink:title="A CCCamera is used in every CCNode.">
<polygon fill="none" stroke="black" points="324,-638.27 324,-657.27 392,-657.27 392,-638.27 324,-638.27"/>
<text text-anchor="middle" x="358" y="-645.27" font-family="Helvetica,sans-Serif" font-size="10.00">CCCamera</text>
</a>
</g>
</g>
<!-- Node4&#45;&gt;Node9 -->
<g id="edge9" class="edge">
<title>Node4&#45;&gt;Node9</title>
<path fill="none" stroke="midnightblue" d="M143.86,-549.27C150.15,-570.2 163.22,-602.72 187,-619.77 227.35,-648.7 286.85,-651.89 323.7,-650.55"/>
<polygon fill="midnightblue" stroke="midnightblue" points="147.2,-548.24 141.17,-539.53 140.46,-550.1 147.2,-548.24"/>
</g>
<!-- Node10 -->
<g id="node10" class="node">
<title>Node10</title>
<g id="a_node10"><a xlink:href="../../d6/d70/classcocos2d_1_1_c_c_grid_base.html" target="_top" xlink:title="Base class for other.">
<polygon fill="none" stroke="black" points="716,-366.27 716,-385.27 790,-385.27 790,-366.27 716,-366.27"/>
<text text-anchor="middle" x="753" y="-373.27" font-family="Helvetica,sans-Serif" font-size="10.00">CCGridBase</text>
</a>
</g>
</g>
<!-- Node4&#45;&gt;Node10 -->
<g id="edge11" class="edge">
<title>Node4&#45;&gt;Node10</title>
<path fill="none" stroke="midnightblue" d="M179.01,-519.81C187.87,-517.72 197.24,-515.6 206,-513.77 295.28,-495.17 318.72,-496.35 408,-477.77 422.54,-474.74 655.5,-423.79 668,-415.77 678.93,-408.76 675.14,-399.88 686,-392.77 694.91,-386.94 705.71,-383.11 715.98,-380.59"/>
<polygon fill="midnightblue" stroke="midnightblue" points="178.18,-516.41 169.27,-522.15 179.81,-523.22 178.18,-516.41"/>
</g>
<!-- Node11 -->
<g id="node11" class="node">
<title>Node11</title>
<g id="a_node11"><a xlink:href="../../d7/dfd/classcocos2d_1_1_c_c_texture2_d.html" target="_top" xlink:title="CCTexture2D class.">
<polygon fill="none" stroke="black" points="436,-494.27 436,-513.27 516,-513.27 516,-494.27 436,-494.27"/>
<text text-anchor="middle" x="476" y="-501.27" font-family="Helvetica,sans-Serif" font-size="10.00">CCTexture2D</text>
</a>
</g>
</g>
<!-- Node4&#45;&gt;Node11 -->
<g id="edge14" class="edge">
<title>Node4&#45;&gt;Node11</title>
<path fill="none" stroke="midnightblue" d="M179.38,-526.65C244.44,-521.61 371.65,-511.77 435.89,-506.8"/>
<polygon fill="midnightblue" stroke="midnightblue" points="178.81,-523.18 169.11,-527.44 179.35,-530.16 178.81,-523.18"/>
</g>
<!-- Node12 -->
<g id="node12" class="node">
<title>Node12</title>
<g id="a_node12"><a xlink:href="../../db/d28/classcocos2d_1_1_c_c_g_l_program.html" target="_top" xlink:title="CCGLProgram Class that implements a glProgram.">
<polygon fill="none" stroke="black" points="206,-375.27 206,-394.27 290,-394.27 290,-375.27 206,-375.27"/>
<text text-anchor="middle" x="248" y="-382.27" font-family="Helvetica,sans-Serif" font-size="10.00">CCGLProgram</text>
</a>
</g>
</g>
<!-- Node4&#45;&gt;Node12 -->
<g id="edge17" class="edge">
<title>Node4&#45;&gt;Node12</title>
<path fill="none" stroke="midnightblue" d="M145.11,-510.53C152.56,-489.17 166.72,-454.47 187,-429.77 199.06,-415.08 216.88,-402.51 229.97,-394.42"/>
<polygon fill="midnightblue" stroke="midnightblue" points="141.76,-509.5 141.91,-520.1 148.4,-511.72 141.76,-509.5"/>
</g>
<!-- Node13 -->
<g id="node13" class="node">
<title>Node13</title>
<g id="a_node13"><a xlink:href="../../d3/d89/classcocos2d_1_1_c_c_grabber.html" target="_top" xlink:title="FBO class that grabs the the contents of the screen NA NA.">
<polygon fill="none" stroke="black" points="323.5,-423.27 323.5,-442.27 392.5,-442.27 392.5,-423.27 323.5,-423.27"/>
<text text-anchor="middle" x="358" y="-430.27" font-family="Helvetica,sans-Serif" font-size="10.00">CCGrabber</text>
</a>
</g>
</g>
<!-- Node4&#45;&gt;Node13 -->
<g id="edge20" class="edge">
<title>Node4&#45;&gt;Node13</title>
<path fill="none" stroke="midnightblue" d="M151.37,-511.82C160.09,-500.47 172.72,-486.37 187,-477.77 229.76,-452.02 287.24,-440.8 323.2,-436.06"/>
<polygon fill="midnightblue" stroke="midnightblue" points="148.34,-510.03 145.27,-520.17 153.99,-514.16 148.34,-510.03"/>
</g>
<!-- Node14 -->
<g id="node14" class="node">
<title>Node14</title>
<g id="a_node14"><a xlink:href="../../d9/d2e/classcocos2d_1_1_c_c_array.html" target="_top" xlink:title="NA.">
<polygon fill="none" stroke="black" points="448,-596.27 448,-615.27 504,-615.27 504,-596.27 448,-596.27"/>
<text text-anchor="middle" x="476" y="-603.27" font-family="Helvetica,sans-Serif" font-size="10.00">CCArray</text>
</a>
</g>
</g>
<!-- Node4&#45;&gt;Node14 -->
<g id="edge23" class="edge">
<title>Node4&#45;&gt;Node14</title>
<path fill="none" stroke="midnightblue" d="M150.36,-547.82C158.89,-559.66 171.69,-574.3 187,-581.77 274.47,-624.48 394.76,-616.24 447.9,-609.74"/>
<polygon fill="midnightblue" stroke="midnightblue" points="153.21,-545.79 144.71,-539.47 147.42,-549.71 153.21,-545.79"/>
</g>
<!-- Node15 -->
<g id="node15" class="node">
<title>Node15</title>
<g id="a_node15"><a xlink:href="../../de/dee/classcocos2d_1_1_c_c_scheduler.html" target="_top" xlink:title="Scheduler is responsible for triggering the scheduled callbacks.">
<polygon fill="none" stroke="black" points="714,-574.27 714,-593.27 792,-593.27 792,-574.27 714,-574.27"/>
<text text-anchor="middle" x="753" y="-581.27" font-family="Helvetica,sans-Serif" font-size="10.00">CCScheduler</text>
</a>
</g>
</g>
<!-- Node4&#45;&gt;Node15 -->
<g id="edge28" class="edge">
<title>Node4&#45;&gt;Node15</title>
<path fill="none" stroke="midnightblue" d="M179.22,-538.54C181.84,-538.99 184.46,-539.41 187,-539.77 384,-567.84 622.38,-579.02 713.79,-582.48"/>
<polygon fill="midnightblue" stroke="midnightblue" points="179.58,-535.05 169.11,-536.66 178.3,-541.93 179.58,-535.05"/>
</g>
<!-- Node16 -->
<g id="node16" class="node">
<title>Node16</title>
<g id="a_node16"><a xlink:href="../../d5/dcb/classcocos2d_1_1_c_c_action_manager.html" target="_top" xlink:title="CCActionManager is a singleton that manages all the actions.">
<polygon fill="none" stroke="black" points="554,-30.27 554,-49.27 658,-49.27 658,-30.27 554,-30.27"/>
<text text-anchor="middle" x="606" y="-37.27" font-family="Helvetica,sans-Serif" font-size="10.00">CCActionManager</text>
</a>
</g>
</g>
<!-- Node4&#45;&gt;Node16 -->
<g id="edge31" class="edge">
<title>Node4&#45;&gt;Node16</title>
<path fill="none" stroke="midnightblue" d="M139.57,-509.87C142.18,-424.98 154.36,-96.03 187,-64.77 294.89,38.57 498.92,-7.89 575.22,-30.24"/>
<polygon fill="midnightblue" stroke="midnightblue" points="136.06,-509.88 139.27,-519.98 143.06,-510.08 136.06,-509.88"/>
</g>
<!-- Node22 -->
<g id="node22" class="node">
<title>Node22</title>
<g id="a_node22"><a xlink:href="../../df/d3a/classcocos2d_1_1_c_c_texture_atlas.html" target="_top" xlink:title="A class that implements a Texture Atlas.">
<polygon fill="none" stroke="black" points="1009.5,-764.27 1009.5,-783.27 1100.5,-783.27 1100.5,-764.27 1009.5,-764.27"/>
<text text-anchor="middle" x="1055" y="-771.27" font-family="Helvetica,sans-Serif" font-size="10.00">CCTextureAtlas</text>
</a>
</g>
</g>
<!-- Node4&#45;&gt;Node22 -->
<g id="edge38" class="edge">
<title>Node4&#45;&gt;Node22</title>
<path fill="none" stroke="midnightblue" d="M138.77,-549.4C139.23,-607.37 149.07,-773.77 247,-773.77 247,-773.77 247,-773.77 754,-773.77 844.62,-773.77 950.65,-773.77 1009.27,-773.77"/>
<polygon fill="midnightblue" stroke="midnightblue" points="142.27,-549.34 138.79,-539.34 135.27,-549.33 142.27,-549.34"/>
</g>
<!-- Node5 -->
<g id="node5" class="node">
<title>Node5</title>
<g id="a_node5"><a xlink:href="../../d5/d61/classcocos2d_1_1_c_c_copying.html" target="_top" xlink:title="NA NA.">
<polygon fill="none" stroke="black" points="0,-520.27 0,-539.27 70,-539.27 70,-520.27 0,-520.27"/>
<text text-anchor="middle" x="35" y="-527.27" font-family="Helvetica,sans-Serif" font-size="10.00">CCCopying</text>
</a>
</g>
</g>
<!-- Node5&#45;&gt;Node4 -->
<g id="edge4" class="edge">
<title>Node5&#45;&gt;Node4</title>
<path fill="none" stroke="midnightblue" d="M80.2,-529.77C89.22,-529.77 98.51,-529.77 106.9,-529.77"/>
<polygon fill="midnightblue" stroke="midnightblue" points="80.19,-526.27 70.19,-529.77 80.19,-533.27 80.19,-526.27"/>
</g>
<!-- Node6 -->
<g id="node6" class="node">
<title>Node6</title>
<g id="a_node6"><a xlink:href="../../d2/df3/classcocos2d_1_1_c_c_point.html" target="_top" xlink:title="NA.">
<polygon fill="none" stroke="black" points="448.5,-179.27 448.5,-198.27 503.5,-198.27 503.5,-179.27 448.5,-179.27"/>
<text text-anchor="middle" x="476" y="-186.27" font-family="Helvetica,sans-Serif" font-size="10.00">CCPoint</text>
</a>
</g>
</g>
<!-- Node6&#45;&gt;Node1 -->
<g id="edge57" class="edge">
<title>Node6&#45;&gt;Node1</title>
<path fill="none" stroke="#9a32cd" stroke-dasharray="5,2" d="M513.69,-184.09C596.54,-174.85 803.51,-159.17 966,-208.77 1064.95,-238.98 1405.21,-418.65 1487,-493.77 1506.36,-511.55 1521.7,-538.93 1528.94,-553.26"/>
<polygon fill="#9a32cd" stroke="#9a32cd" points="513.29,-180.62 503.76,-185.24 514.09,-187.57 513.29,-180.62"/>
<text text-anchor="middle" x="1055" y="-302.77" font-family="Helvetica,sans-Serif" font-size="10.00"> m_obOffsetPosition</text>
<text text-anchor="start" x="984" y="-291.77" font-family="Helvetica,sans-Serif" font-size="10.00">m_obUnflippedOffsetPosition</text>
<text text-anchor="middle" x="1055" y="-280.77" font-family="Helvetica,sans-Serif" font-size="10.00">FromCenter</text>
</g>
<!-- Node6&#45;&gt;Node3 -->
<g id="edge5" class="edge">
<title>Node6&#45;&gt;Node3</title>
<path fill="none" stroke="#9a32cd" stroke-dasharray="5,2" d="M513.79,-189.48C613.94,-192 889.12,-202.92 966,-247.77 1004.49,-270.23 1035.63,-315.16 1048.11,-334.98"/>
<polygon fill="#9a32cd" stroke="#9a32cd" points="513.63,-185.98 503.55,-189.24 513.47,-192.98 513.63,-185.98"/>
<text text-anchor="middle" x="753" y="-234.77" font-family="Helvetica,sans-Serif" font-size="10.00"> m_obAnchorPoint</text>
<text text-anchor="middle" x="753" y="-223.77" font-family="Helvetica,sans-Serif" font-size="10.00">m_obAnchorPointInPoints</text>
<text text-anchor="middle" x="753" y="-212.77" font-family="Helvetica,sans-Serif" font-size="10.00">m_obPosition</text>
</g>
<!-- Node6&#45;&gt;Node10 -->
<g id="edge18" class="edge">
<title>Node6&#45;&gt;Node10</title>
<path fill="none" stroke="#9a32cd" stroke-dasharray="5,2" d="M488.59,-206.7C500.43,-223.47 520.39,-247.8 544,-260.77 593.13,-287.76 623.03,-250.31 668,-283.77 682.03,-294.21 675.18,-305.02 686,-318.77 701.17,-338.04 723.57,-355.75 737.97,-366.15"/>
<polygon fill="#9a32cd" stroke="#9a32cd" points="491.39,-204.6 482.88,-198.29 485.6,-208.53 491.39,-204.6"/>
<text text-anchor="middle" x="606" y="-286.77" font-family="Helvetica,sans-Serif" font-size="10.00"> m_obStep</text>
</g>
<!-- Node30 -->
<g id="node30" class="node">
<title>Node30</title>
<g id="a_node30"><a xlink:href="../../da/d4d/classcocos2d_1_1_c_c_rect.html" target="_top" xlink:title="NA.">
<polygon fill="none" stroke="black" points="727,-107.27 727,-126.27 779,-126.27 779,-107.27 727,-107.27"/>
<text text-anchor="middle" x="753" y="-114.27" font-family="Helvetica,sans-Serif" font-size="10.00">CCRect</text>
</a>
</g>
</g>
<!-- Node6&#45;&gt;Node30 -->
<g id="edge55" class="edge">
<title>Node6&#45;&gt;Node30</title>
<path fill="none" stroke="#9a32cd" stroke-dasharray="5,2" d="M499.13,-173.57C511.75,-165.6 528.17,-156.35 544,-150.77 561,-144.78 675.01,-127.87 726.66,-120.4"/>
<polygon fill="#9a32cd" stroke="#9a32cd" points="497.14,-170.69 490.68,-179.08 500.97,-176.55 497.14,-170.69"/>
<text text-anchor="middle" x="606" y="-153.77" font-family="Helvetica,sans-Serif" font-size="10.00"> origin</text>
</g>
<!-- Node7 -->
<g id="node7" class="node">
<title>Node7</title>
<g id="a_node7"><a xlink:href="../../d9/d24/classcocos2d_1_1_c_c_size.html" target="_top" xlink:title="NA.">
<polygon fill="none" stroke="black" points="223,-281.27 223,-300.27 273,-300.27 273,-281.27 223,-281.27"/>
<text text-anchor="middle" x="248" y="-288.27" font-family="Helvetica,sans-Serif" font-size="10.00">CCSize</text>
</a>
</g>
</g>
<!-- Node7&#45;&gt;Node3 -->
<g id="edge6" class="edge">
<title>Node7&#45;&gt;Node3</title>
<path fill="none" stroke="#9a32cd" stroke-dasharray="5,2" d="M283.22,-284.14C338.01,-273.89 448.95,-254.66 544,-247.77 637.95,-240.96 877.65,-255.11 966,-287.77 996.39,-299.01 1027.06,-322.17 1042.93,-335.25"/>
<polygon fill="#9a32cd" stroke="#9a32cd" points="282.52,-280.71 273.34,-286 283.82,-287.58 282.52,-280.71"/>
<text text-anchor="middle" x="606" y="-250.77" font-family="Helvetica,sans-Serif" font-size="10.00"> m_obContentSize</text>
</g>
<!-- Node7&#45;&gt;Node10 -->
<g id="edge12" class="edge">
<title>Node7&#45;&gt;Node10</title>
<path fill="none" stroke="#9a32cd" stroke-dasharray="5,2" d="M283.34,-296.57C374.56,-311.99 622.34,-353.86 715.73,-369.64"/>
<polygon fill="#9a32cd" stroke="#9a32cd" points="283.7,-293.09 273.26,-294.87 282.54,-299.99 283.7,-293.09"/>
<text text-anchor="middle" x="476" y="-339.77" font-family="Helvetica,sans-Serif" font-size="10.00"> m_sGridSize</text>
</g>
<!-- Node7&#45;&gt;Node11 -->
<g id="edge15" class="edge">
<title>Node7&#45;&gt;Node11</title>
<path fill="none" stroke="#9a32cd" stroke-dasharray="5,2" d="M265.1,-307.98C276.48,-319.65 292.43,-335.02 308,-346.77 349.2,-377.84 372.8,-368.04 408,-405.77 420.2,-418.85 416.4,-426.67 426,-441.77 438.51,-461.45 456.01,-482.34 466.36,-494.14"/>
<polygon fill="#9a32cd" stroke="#9a32cd" points="267.46,-305.39 258.01,-300.59 262.41,-310.23 267.46,-305.39"/>
<text text-anchor="middle" x="358" y="-408.77" font-family="Helvetica,sans-Serif" font-size="10.00"> m_tContentSize</text>
</g>
<!-- Node7&#45;&gt;Node30 -->
<g id="edge56" class="edge">
<title>Node7&#45;&gt;Node30</title>
<path fill="none" stroke="#9a32cd" stroke-dasharray="5,2" d="M265.25,-273.75C276.7,-262.17 292.66,-246.82 308,-234.77 357.06,-196.24 368.61,-183.21 426,-158.77 530.74,-114.17 670.22,-113.57 726.68,-115.49"/>
<polygon fill="#9a32cd" stroke="#9a32cd" points="262.58,-271.47 258.11,-281.08 267.59,-276.36 262.58,-271.47"/>
<text text-anchor="middle" x="476" y="-161.77" font-family="Helvetica,sans-Serif" font-size="10.00"> size</text>
</g>
<!-- Node8 -->
<g id="node8" class="node">
<title>Node8</title>
<g id="a_node8"><a xlink:href="../../da/dbf/structcocos2d_1_1_c_c_affine_transform.html" target="_top" xlink:title=" ">
<polygon fill="none" stroke="black" points="699.5,-451.27 699.5,-470.27 806.5,-470.27 806.5,-451.27 699.5,-451.27"/>
<text text-anchor="middle" x="753" y="-458.27" font-family="Helvetica,sans-Serif" font-size="10.00">CCAffineTransform</text>
</a>
</g>
</g>
<!-- Node8&#45;&gt;Node1 -->
<g id="edge51" class="edge">
<title>Node8&#45;&gt;Node1</title>
<path fill="none" stroke="#9a32cd" stroke-dasharray="5,2" d="M787.67,-473.74C802.83,-479.02 821.08,-484.61 838,-487.77 1122.02,-540.85 1217.13,-422.55 1487,-525.77 1502.22,-531.59 1516.37,-544.32 1524.97,-553.21"/>
<polygon fill="#9a32cd" stroke="#9a32cd" points="788.8,-470.43 778.21,-470.35 786.44,-477.02 788.8,-470.43"/>
<text text-anchor="middle" x="1196.5" y="-492.77" font-family="Helvetica,sans-Serif" font-size="10.00"> m_transformToBatch</text>
</g>
<!-- Node8&#45;&gt;Node3 -->
<g id="edge7" class="edge">
<title>Node8&#45;&gt;Node3</title>
<path fill="none" stroke="#9a32cd" stroke-dasharray="5,2" d="M797.39,-447.66C805.16,-444.57 813,-440.94 820,-436.77 829.19,-431.29 828.37,-425.45 838,-420.77 889.99,-395.51 911.9,-418.13 966,-397.77 994.88,-386.9 1024.91,-366.52 1041.35,-354.44"/>
<polygon fill="#9a32cd" stroke="#9a32cd" points="796.16,-444.38 788.01,-451.15 798.61,-450.94 796.16,-444.38"/>
<text text-anchor="middle" x="902" y="-445.77" font-family="Helvetica,sans-Serif" font-size="10.00"> m_sAdditionalTransform</text>
<text text-anchor="middle" x="902" y="-434.77" font-family="Helvetica,sans-Serif" font-size="10.00">m_sInverse</text>
<text text-anchor="middle" x="902" y="-423.77" font-family="Helvetica,sans-Serif" font-size="10.00">m_sTransform</text>
</g>
<!-- Node9&#45;&gt;Node3 -->
<g id="edge8" class="edge">
<title>Node9&#45;&gt;Node3</title>
<path fill="none" stroke="#9a32cd" stroke-dasharray="5,2" d="M402.3,-649.94C485.6,-652.73 672.92,-652.31 820,-602.77 892.24,-578.44 914.02,-568.52 966,-512.77 1012.93,-462.44 1041.89,-382.31 1050.94,-354.59"/>
<polygon fill="#9a32cd" stroke="#9a32cd" points="402.32,-646.43 392.19,-649.56 402.06,-653.43 402.32,-646.43"/>
<text text-anchor="middle" x="606" y="-650.77" font-family="Helvetica,sans-Serif" font-size="10.00"> m_pCamera</text>
</g>
<!-- Node10&#45;&gt;Node3 -->
<g id="edge10" class="edge">
<title>Node10&#45;&gt;Node3</title>
<path fill="none" stroke="#9a32cd" stroke-dasharray="5,2" d="M800.29,-367.32C812.52,-365.29 825.73,-363.27 838,-361.77 905.77,-353.47 986.02,-348.4 1026.99,-346.14"/>
<polygon fill="#9a32cd" stroke="#9a32cd" points="799.56,-363.89 790.29,-369.02 800.73,-370.79 799.56,-363.89"/>
<text text-anchor="middle" x="902" y="-364.77" font-family="Helvetica,sans-Serif" font-size="10.00"> m_pGrid</text>
</g>
<!-- Node11&#45;&gt;Node1 -->
<g id="edge53" class="edge">
<title>Node11&#45;&gt;Node1</title>
<path fill="none" stroke="#9a32cd" stroke-dasharray="5,2" d="M526.57,-504.23C565.13,-504.66 619.97,-505.45 668,-506.77 997.26,-515.85 1395.77,-550.3 1504.77,-560.14"/>
<polygon fill="#9a32cd" stroke="#9a32cd" points="526.18,-500.72 516.15,-504.11 526.11,-507.72 526.18,-500.72"/>
<text text-anchor="middle" x="1055" y="-531.77" font-family="Helvetica,sans-Serif" font-size="10.00"> m_pobTexture</text>
</g>
<!-- Node11&#45;&gt;Node10 -->
<g id="edge13" class="edge">
<title>Node11&#45;&gt;Node10</title>
<path fill="none" stroke="#9a32cd" stroke-dasharray="5,2" d="M507.68,-489.52C513.83,-486.45 520.18,-483.12 526,-479.77 534.34,-474.98 535.09,-471.39 544,-467.77 595.93,-446.68 624.66,-480.31 668,-444.77 684.66,-431.11 670.53,-414.76 686,-399.77 694.14,-391.88 705.08,-386.56 715.71,-382.97"/>
<polygon fill="#9a32cd" stroke="#9a32cd" points="505.76,-486.56 498.3,-494.09 508.82,-492.86 505.76,-486.56"/>
<text text-anchor="middle" x="606" y="-470.77" font-family="Helvetica,sans-Serif" font-size="10.00"> m_pTexture</text>
</g>
<!-- Node11&#45;&gt;Node22 -->
<g id="edge39" class="edge">
<title>Node11&#45;&gt;Node22</title>
<path fill="none" stroke="#9a32cd" stroke-dasharray="5,2" d="M526.14,-504.3C610.58,-506.26 778.2,-515.05 820,-553.77 846.74,-578.54 818.76,-602.82 838,-633.77 882.05,-704.63 910.47,-712.35 984,-751.77 993.43,-756.83 1004.21,-760.93 1014.44,-764.17"/>
<polygon fill="#9a32cd" stroke="#9a32cd" points="526.09,-500.8 516.02,-504.09 525.95,-507.8 526.09,-500.8"/>
<text text-anchor="middle" x="753" y="-556.77" font-family="Helvetica,sans-Serif" font-size="10.00"> m_pTexture</text>
</g>
<!-- Node12&#45;&gt;Node3 -->
<g id="edge26" class="edge">
<title>Node12&#45;&gt;Node3</title>
<path fill="none" stroke="#9a32cd" stroke-dasharray="5,2" d="M276.19,-370.48C310.14,-353.51 370.54,-326.2 426,-315.77 485.53,-304.58 914.08,-334.61 1026.86,-342.78"/>
<polygon fill="#9a32cd" stroke="#9a32cd" points="274.27,-367.53 266.93,-375.18 277.43,-373.77 274.27,-367.53"/>
<text text-anchor="middle" x="606" y="-321.77" font-family="Helvetica,sans-Serif" font-size="10.00"> m_pShaderProgram</text>
</g>
<!-- Node12&#45;&gt;Node10 -->
<g id="edge21" class="edge">
<title>Node12&#45;&gt;Node10</title>
<path fill="none" stroke="#9a32cd" stroke-dasharray="5,2" d="M300.2,-383.85C402.02,-382.03 627.67,-377.99 715.77,-376.42"/>
<polygon fill="#9a32cd" stroke="#9a32cd" points="300.1,-380.36 290.16,-384.03 300.22,-387.35 300.1,-380.36"/>
<text text-anchor="middle" x="476" y="-383.77" font-family="Helvetica,sans-Serif" font-size="10.00"> m_pShaderProgram</text>
</g>
<!-- Node12&#45;&gt;Node11 -->
<g id="edge16" class="edge">
<title>Node12&#45;&gt;Node11</title>
<path fill="none" stroke="#9a32cd" stroke-dasharray="5,2" d="M262.8,-402.25C273.83,-415.24 290.34,-432.57 308,-443.77 348.07,-469.18 400.36,-485.73 435.67,-494.89"/>
<polygon fill="#9a32cd" stroke="#9a32cd" points="265.43,-399.95 256.38,-394.45 260.03,-404.4 265.43,-399.95"/>
<text text-anchor="middle" x="358" y="-488.77" font-family="Helvetica,sans-Serif" font-size="10.00"> m_pShaderProgram</text>
</g>
<!-- Node13&#45;&gt;Node10 -->
<g id="edge19" class="edge">
<title>Node13&#45;&gt;Node10</title>
<path fill="none" stroke="#9a32cd" stroke-dasharray="5,2" d="M402.76,-428.44C462.8,-422.23 573.96,-409.75 668,-393.77 683.73,-391.1 700.99,-387.51 715.75,-384.25"/>
<polygon fill="#9a32cd" stroke="#9a32cd" points="402.11,-424.99 392.52,-429.49 402.82,-431.95 402.11,-424.99"/>
<text text-anchor="middle" x="476" y="-427.77" font-family="Helvetica,sans-Serif" font-size="10.00"> m_pGrabber</text>
</g>
<!-- Node14&#45;&gt;Node3 -->
<g id="edge22" class="edge">
<title>Node14&#45;&gt;Node3</title>
<path fill="none" stroke="#9a32cd" stroke-dasharray="5,2" d="M511.25,-592.14C553.81,-573.54 625.95,-536.29 668,-482.77 683.11,-463.54 667.63,-446.91 686,-430.77 709.87,-409.8 935.27,-380.82 966,-372.77 986.63,-367.37 1009.57,-360.02 1026.86,-354.21"/>
<polygon fill="#9a32cd" stroke="#9a32cd" points="509.69,-589 501.87,-596.15 512.44,-595.44 509.69,-589"/>
<text text-anchor="middle" x="753" y="-433.77" font-family="Helvetica,sans-Serif" font-size="10.00"> m_pChildren</text>
</g>
<!-- Node14&#45;&gt;Node15 -->
<g id="edge29" class="edge">
<title>Node14&#45;&gt;Node15</title>
<path fill="none" stroke="#9a32cd" stroke-dasharray="5,2" d="M514.29,-602.79C566.52,-598.61 660.98,-591.05 713.74,-586.83"/>
<polygon fill="#9a32cd" stroke="#9a32cd" points="513.81,-599.31 504.12,-603.6 514.37,-606.29 513.81,-599.31"/>
<text text-anchor="middle" x="606" y="-602.77" font-family="Helvetica,sans-Serif" font-size="10.00"> m_pScriptHandlerEntries</text>
</g>
<!-- Node14&#45;&gt;Node28 -->
<g id="edge50" class="edge">
<title>Node14&#45;&gt;Node28</title>
<path fill="none" stroke="#9a32cd" stroke-dasharray="5,2" d="M514.18,-610.1C523.87,-611.11 534.32,-612.08 544,-612.77 814.66,-631.93 1139.25,-638.87 1266.75,-640.98"/>
<polygon fill="#9a32cd" stroke="#9a32cd" points="514.34,-606.6 504.02,-609.01 513.59,-613.56 514.34,-606.6"/>
<text text-anchor="middle" x="902" y="-635.77" font-family="Helvetica,sans-Serif" font-size="10.00"> m_pobDescendants</text>
</g>
<!-- Node15&#45;&gt;Node3 -->
<g id="edge27" class="edge">
<title>Node15&#45;&gt;Node3</title>
<path fill="none" stroke="#9a32cd" stroke-dasharray="5,2" d="M801.55,-572.61C808.4,-569.36 814.85,-565.17 820,-559.77 838.62,-540.23 819.47,-521.4 838,-501.77 879.7,-457.58 916.73,-489.33 966,-453.77 1005.24,-425.44 1036.65,-375.29 1048.69,-354.36"/>
<polygon fill="#9a32cd" stroke="#9a32cd" points="799.99,-569.46 792.06,-576.48 802.64,-575.94 799.99,-569.46"/>
<text text-anchor="middle" x="902" y="-504.77" font-family="Helvetica,sans-Serif" font-size="10.00"> m_pScheduler</text>
</g>
<!-- Node16&#45;&gt;Node3 -->
<g id="edge30" class="edge">
<title>Node16&#45;&gt;Node3</title>
<path fill="none" stroke="#9a32cd" stroke-dasharray="5,2" d="M668.59,-34.1C712.33,-32.36 771.63,-34.74 820,-53.77 897.9,-84.41 913.37,-107.67 966,-172.77 1010.08,-227.28 1040.84,-307.43 1050.65,-335.02"/>
<polygon fill="#9a32cd" stroke="#9a32cd" points="668.2,-30.61 658.38,-34.59 668.54,-37.61 668.2,-30.61"/>
<text text-anchor="middle" x="753" y="-56.77" font-family="Helvetica,sans-Serif" font-size="10.00"> m_pActionManager</text>
</g>
<!-- Node17 -->
<g id="node17" class="node">
<title>Node17</title>
<g id="a_node17"><a xlink:href="../../d1/d65/classcocos2d_1_1_c_c_component_container.html" target="_top" xlink:title="NA NA.">
<polygon fill="none" stroke="black" points="686,-290.27 686,-309.27 820,-309.27 820,-290.27 686,-290.27"/>
<text text-anchor="middle" x="753" y="-297.27" font-family="Helvetica,sans-Serif" font-size="10.00">CCComponentContainer</text>
</a>
</g>
</g>
<!-- Node17&#45;&gt;Node3 -->
<g id="edge32" class="edge">
<title>Node17&#45;&gt;Node3</title>
<path fill="none" stroke="#9a32cd" stroke-dasharray="5,2" d="M830.44,-293.01C871.19,-291.36 921.89,-292.45 966,-302.77 993.36,-309.17 1022.24,-324.93 1039.16,-335.22"/>
<polygon fill="#9a32cd" stroke="#9a32cd" points="830.13,-289.52 820.3,-293.49 830.46,-296.52 830.13,-289.52"/>
<text text-anchor="middle" x="902" y="-305.77" font-family="Helvetica,sans-Serif" font-size="10.00"> m_pComponentContainer</text>
</g>
<!-- Node18 -->
<g id="node18" class="node">
<title>Node18</title>
<g id="a_node18"><a xlink:href="../../d8/dda/classcocos2d_1_1_c_c_r_g_b_a_protocol.html" target="_top" xlink:title="RGBA protocol that affects CCNode&#39;s color and opacity NA.">
<polygon fill="none" stroke="black" points="1006,-41.27 1006,-60.27 1104,-60.27 1104,-41.27 1006,-41.27"/>
<text text-anchor="middle" x="1055" y="-48.27" font-family="Helvetica,sans-Serif" font-size="10.00">CCRGBAProtocol</text>
</a>
</g>
</g>
<!-- Node18&#45;&gt;Node2 -->
<g id="edge33" class="edge">
<title>Node18&#45;&gt;Node2</title>
<path fill="none" stroke="midnightblue" d="M1114.29,-52.96C1164.79,-54.86 1236.57,-57.56 1281.16,-59.23"/>
<polygon fill="midnightblue" stroke="midnightblue" points="1114.3,-49.46 1104.17,-52.58 1114.03,-56.45 1114.3,-49.46"/>
</g>
<!-- Node19 -->
<g id="node19" class="node">
<title>Node19</title>
<g id="a_node19"><a xlink:href="../../d7/d39/structcc_color3_b.html" target="_top" xlink:title="RGB color composed of bytes 3 bytes.">
<polygon fill="none" stroke="black" points="1022.5,-3.27 1022.5,-22.27 1087.5,-22.27 1087.5,-3.27 1022.5,-3.27"/>
<text text-anchor="middle" x="1055" y="-10.27" font-family="Helvetica,sans-Serif" font-size="10.00">ccColor3B</text>
</a>
</g>
</g>
<!-- Node19&#45;&gt;Node2 -->
<g id="edge34" class="edge">
<title>Node19&#45;&gt;Node2</title>
<path fill="none" stroke="#9a32cd" stroke-dasharray="5,2" d="M1097.7,-11.88C1137.26,-12.01 1198.05,-14.7 1249,-27.77 1269.21,-32.95 1290.8,-43.39 1305.21,-51.15"/>
<polygon fill="#9a32cd" stroke="#9a32cd" points="1097.62,-8.38 1087.63,-11.91 1097.64,-15.38 1097.62,-8.38"/>
<text text-anchor="middle" x="1196.5" y="-41.77" font-family="Helvetica,sans-Serif" font-size="10.00"> _displayedColor</text>
<text text-anchor="middle" x="1196.5" y="-30.77" font-family="Helvetica,sans-Serif" font-size="10.00">_realColor</text>
</g>
<!-- Node20 -->
<g id="node20" class="node">
<title>Node20</title>
<g id="a_node20"><a xlink:href="../../db/d1b/classcocos2d_1_1_c_c_texture_protocol.html" target="_top" xlink:title="CCNode objects that uses a CCTexture2D to render the images.">
<polygon fill="none" stroke="black" points="1002,-723.27 1002,-742.27 1108,-742.27 1108,-723.27 1002,-723.27"/>
<text text-anchor="middle" x="1055" y="-730.27" font-family="Helvetica,sans-Serif" font-size="10.00">CCTextureProtocol</text>
</a>
</g>
</g>
<!-- Node20&#45;&gt;Node1 -->
<g id="edge35" class="edge">
<title>Node20&#45;&gt;Node1</title>
<path fill="none" stroke="midnightblue" d="M1118.25,-736.67C1209.27,-739.01 1379.52,-730.24 1487,-643.77 1511,-624.46 1524.99,-589.19 1530.61,-572.29"/>
<polygon fill="midnightblue" stroke="midnightblue" points="1118.19,-733.16 1108.09,-736.35 1117.97,-740.16 1118.19,-733.16"/>
</g>
<!-- Node20&#45;&gt;Node28 -->
<g id="edge47" class="edge">
<title>Node20&#45;&gt;Node28</title>
<path fill="none" stroke="midnightblue" d="M1080.92,-718.16C1098.18,-708.51 1121.94,-696.15 1144,-687.77 1157.02,-682.83 1234.99,-663.25 1283.32,-651.29"/>
<polygon fill="midnightblue" stroke="midnightblue" points="1079.02,-715.22 1072.05,-723.2 1082.47,-721.3 1079.02,-715.22"/>
</g>
<!-- Node21 -->
<g id="node21" class="node">
<title>Node21</title>
<g id="a_node21"><a xlink:href="../../d6/d82/classcocos2d_1_1_c_c_blend_protocol.html" target="_top" xlink:title="Specify the blending function according glBlendFunc Please refer to glBlendFunc in OpenGL ES Manual h...">
<polygon fill="none" stroke="black" points="704,-726.27 704,-745.27 802,-745.27 802,-726.27 704,-726.27"/>
<text text-anchor="middle" x="753" y="-733.27" font-family="Helvetica,sans-Serif" font-size="10.00">CCBlendProtocol</text>
</a>
</g>
</g>
<!-- Node21&#45;&gt;Node20 -->
<g id="edge36" class="edge">
<title>Node21&#45;&gt;Node20</title>
<path fill="none" stroke="midnightblue" d="M812.49,-735.19C867.49,-734.64 949.07,-733.82 1001.89,-733.29"/>
<polygon fill="midnightblue" stroke="midnightblue" points="812.16,-731.69 802.2,-735.29 812.23,-738.69 812.16,-731.69"/>
</g>
<!-- Node22&#45;&gt;Node1 -->
<g id="edge37" class="edge">
<title>Node22&#45;&gt;Node1</title>
<path fill="none" stroke="#9a32cd" stroke-dasharray="5,2" d="M1111.01,-779.76C1202.98,-786.43 1387.62,-785 1487,-681.77 1517.92,-649.65 1528.95,-594.61 1532.27,-572.44"/>
<polygon fill="#9a32cd" stroke="#9a32cd" points="1111.04,-776.25 1100.8,-778.95 1110.5,-783.23 1111.04,-776.25"/>
<text text-anchor="middle" x="1323" y="-778.77" font-family="Helvetica,sans-Serif" font-size="10.00"> m_pobTextureAtlas</text>
</g>
<!-- Node22&#45;&gt;Node28 -->
<g id="edge48" class="edge">
<title>Node22&#45;&gt;Node28</title>
<path fill="none" stroke="#9a32cd" stroke-dasharray="5,2" d="M1100.8,-761.12C1109.28,-758.32 1117.99,-755.17 1126,-751.77 1197.11,-721.57 1275.47,-672.28 1307.33,-651.5"/>
<polygon fill="#9a32cd" stroke="#9a32cd" points="1099.49,-757.86 1091.02,-764.22 1101.61,-764.53 1099.49,-757.86"/>
<text text-anchor="middle" x="1196.5" y="-744.77" font-family="Helvetica,sans-Serif" font-size="10.00"> m_pobTextureAtlas</text>
</g>
<!-- Node23 -->
<g id="node23" class="node">
<title>Node23</title>
<g id="a_node23"><a xlink:href="../../dd/d60/structcc_v3_f___c4_b___t2_f___quad.html" target="_top" xlink:title="4 ccVertex3FTex2FColor4B">
<polygon fill="none" stroke="black" points="690.5,-823.27 690.5,-842.27 815.5,-842.27 815.5,-823.27 690.5,-823.27"/>
<text text-anchor="middle" x="753" y="-830.27" font-family="Helvetica,sans-Serif" font-size="10.00">ccV3F_C4B_T2F_Quad</text>
</a>
</g>
</g>
<!-- Node23&#45;&gt;Node1 -->
<g id="edge58" class="edge">
<title>Node23&#45;&gt;Node1</title>
<path fill="none" stroke="#9a32cd" stroke-dasharray="5,2" d="M825.72,-838.85C944.09,-846.5 1186.42,-852.06 1379,-790.77 1432.6,-773.71 1452.92,-769.52 1487,-724.77 1523.88,-676.35 1531.53,-599.67 1533.1,-572.61"/>
<polygon fill="#9a32cd" stroke="#9a32cd" points="825.9,-835.35 815.69,-838.17 825.43,-842.34 825.9,-835.35"/>
<text text-anchor="middle" x="1196.5" y="-837.77" font-family="Helvetica,sans-Serif" font-size="10.00"> m_sQuad</text>
</g>
<!-- Node23&#45;&gt;Node22 -->
<g id="edge40" class="edge">
<title>Node23&#45;&gt;Node22</title>
<path fill="none" stroke="#9a32cd" stroke-dasharray="5,2" d="M792.44,-820.16C806.65,-815.81 822.95,-811.18 838,-807.77 896.68,-794.48 965.5,-784.61 1009.41,-779.03"/>
<polygon fill="#9a32cd" stroke="#9a32cd" points="791.02,-816.93 782.52,-823.25 793.11,-823.62 791.02,-816.93"/>
<text text-anchor="middle" x="902" y="-810.77" font-family="Helvetica,sans-Serif" font-size="10.00"> m_pQuads</text>
</g>
<!-- Node24 -->
<g id="node24" class="node">
<title>Node24</title>
<g id="a_node24"><a xlink:href="../../d7/de4/structcc_v3_f___c4_b___t2_f.html" target="_top" xlink:title="a Point with a vertex point, a tex coord point and a color 4B">
<polygon fill="none" stroke="black" points="429,-836.27 429,-855.27 523,-855.27 523,-836.27 429,-836.27"/>
<text text-anchor="middle" x="476" y="-843.27" font-family="Helvetica,sans-Serif" font-size="10.00">ccV3F_C4B_T2F</text>
</a>
</g>
</g>
<!-- Node24&#45;&gt;Node23 -->
<g id="edge41" class="edge">
<title>Node24&#45;&gt;Node23</title>
<path fill="none" stroke="#9a32cd" stroke-dasharray="5,2" d="M533.06,-843.12C578.75,-840.96 643.19,-837.91 690.33,-835.69"/>
<polygon fill="#9a32cd" stroke="#9a32cd" points="532.85,-839.63 523.03,-843.59 533.18,-846.62 532.85,-839.63"/>
<text text-anchor="middle" x="606" y="-877.77" font-family="Helvetica,sans-Serif" font-size="10.00"> bl</text>
<text text-anchor="middle" x="606" y="-866.77" font-family="Helvetica,sans-Serif" font-size="10.00">br</text>
<text text-anchor="middle" x="606" y="-855.77" font-family="Helvetica,sans-Serif" font-size="10.00">tl</text>
<text text-anchor="middle" x="606" y="-844.77" font-family="Helvetica,sans-Serif" font-size="10.00">tr</text>
</g>
<!-- Node25 -->
<g id="node25" class="node">
<title>Node25</title>
<g id="a_node25"><a xlink:href="../../d3/d87/structcc_vertex3_f.html" target="_top" xlink:title="A vertex composed of 2 floats: x, y.">
<polygon fill="none" stroke="black" points="212.5,-802.27 212.5,-821.27 283.5,-821.27 283.5,-802.27 212.5,-802.27"/>
<text text-anchor="middle" x="248" y="-809.27" font-family="Helvetica,sans-Serif" font-size="10.00">ccVertex3F</text>
</a>
</g>
</g>
<!-- Node25&#45;&gt;Node24 -->
<g id="edge42" class="edge">
<title>Node25&#45;&gt;Node24</title>
<path fill="none" stroke="#9a32cd" stroke-dasharray="5,2" d="M293.89,-816.44C325.82,-819.99 369.66,-825.36 408,-831.77 415.74,-833.06 423.94,-834.62 431.85,-836.22"/>
<polygon fill="#9a32cd" stroke="#9a32cd" points="293.87,-812.91 283.54,-815.3 293.1,-819.87 293.87,-812.91"/>
<text text-anchor="middle" x="358" y="-834.77" font-family="Helvetica,sans-Serif" font-size="10.00"> vertices</text>
</g>
<!-- Node26 -->
<g id="node26" class="node">
<title>Node26</title>
<g id="a_node26"><a xlink:href="../../d2/dd4/structcc_color4_b.html" target="_top" xlink:title="RGBA color composed of 4 bytes.">
<polygon fill="none" stroke="black" points="215.5,-878.27 215.5,-897.27 280.5,-897.27 280.5,-878.27 215.5,-878.27"/>
<text text-anchor="middle" x="248" y="-885.27" font-family="Helvetica,sans-Serif" font-size="10.00">ccColor4B</text>
</a>
</g>
</g>
<!-- Node26&#45;&gt;Node24 -->
<g id="edge43" class="edge">
<title>Node26&#45;&gt;Node24</title>
<path fill="none" stroke="#9a32cd" stroke-dasharray="5,2" d="M290.48,-882.32C322.68,-877.83 368.36,-870.9 408,-862.77 418.46,-860.62 429.75,-857.92 440.02,-855.3"/>
<polygon fill="#9a32cd" stroke="#9a32cd" points="289.96,-878.86 280.53,-883.69 290.91,-885.79 289.96,-878.86"/>
<text text-anchor="middle" x="358" y="-881.77" font-family="Helvetica,sans-Serif" font-size="10.00"> colors</text>
</g>
<!-- Node27 -->
<g id="node27" class="node">
<title>Node27</title>
<g id="a_node27"><a xlink:href="../../d0/d46/structcc_tex2_f.html" target="_top" xlink:title="A texcoord composed of 2 floats: u, y.">
<polygon fill="none" stroke="black" points="220,-840.27 220,-859.27 276,-859.27 276,-840.27 220,-840.27"/>
<text text-anchor="middle" x="248" y="-847.27" font-family="Helvetica,sans-Serif" font-size="10.00">ccTex2F</text>
</a>
</g>
</g>
<!-- Node27&#45;&gt;Node24 -->
<g id="edge44" class="edge">
<title>Node27&#45;&gt;Node24</title>
<path fill="none" stroke="#9a32cd" stroke-dasharray="5,2" d="M286.66,-849.1C325.73,-848.41 386.87,-847.33 428.82,-846.59"/>
<polygon fill="#9a32cd" stroke="#9a32cd" points="286.2,-845.61 276.26,-849.29 286.32,-852.61 286.2,-845.61"/>
<text text-anchor="middle" x="358" y="-850.77" font-family="Helvetica,sans-Serif" font-size="10.00"> texCoords</text>
</g>
<!-- Node28&#45;&gt;Node1 -->
<g id="edge45" class="edge">
<title>Node28&#45;&gt;Node1</title>
<path fill="none" stroke="#9a32cd" stroke-dasharray="5,2" d="M1389.43,-631.44C1420.13,-624.99 1456.57,-614.93 1487,-599.77 1501.22,-592.69 1515.16,-580.74 1524.01,-572.34"/>
<polygon fill="#9a32cd" stroke="#9a32cd" points="1388.36,-628.09 1379.25,-633.5 1389.75,-634.95 1388.36,-628.09"/>
<text text-anchor="middle" x="1442" y="-631.77" font-family="Helvetica,sans-Serif" font-size="10.00"> m_pobBatchNode</text>
</g>
<!-- Node29 -->
<g id="node29" class="node">
<title>Node29</title>
<g id="a_node29"><a xlink:href="../../d6/d45/structcc_blend_func.html" target="_top" xlink:title="Blend Function used for textures.">
<polygon fill="none" stroke="black" points="1016.5,-590.27 1016.5,-609.27 1093.5,-609.27 1093.5,-590.27 1016.5,-590.27"/>
<text text-anchor="middle" x="1055" y="-597.27" font-family="Helvetica,sans-Serif" font-size="10.00">ccBlendFunc</text>
</a>
</g>
</g>
<!-- Node29&#45;&gt;Node1 -->
<g id="edge52" class="edge">
<title>Node29&#45;&gt;Node1</title>
<path fill="none" stroke="#9a32cd" stroke-dasharray="5,2" d="M1103.86,-596.06C1202.5,-588.42 1425.8,-571.12 1504.99,-564.98"/>
<polygon fill="#9a32cd" stroke="#9a32cd" points="1103.57,-592.57 1093.87,-596.84 1104.11,-599.55 1103.57,-592.57"/>
<text text-anchor="middle" x="1323" y="-585.77" font-family="Helvetica,sans-Serif" font-size="10.00"> m_sBlendFunc</text>
</g>
<!-- Node29&#45;&gt;Node28 -->
<g id="edge49" class="edge">
<title>Node29&#45;&gt;Node28</title>
<path fill="none" stroke="#9a32cd" stroke-dasharray="5,2" d="M1103.63,-604.11C1142.84,-608.06 1199.78,-614.67 1249,-623.77 1261.45,-626.07 1274.95,-629.21 1286.91,-632.23"/>
<polygon fill="#9a32cd" stroke="#9a32cd" points="1103.86,-600.62 1093.56,-603.12 1103.17,-607.58 1103.86,-600.62"/>
<text text-anchor="middle" x="1196.5" y="-626.77" font-family="Helvetica,sans-Serif" font-size="10.00"> m_blendFunc</text>
</g>
<!-- Node30&#45;&gt;Node1 -->
<g id="edge54" class="edge">
<title>Node30&#45;&gt;Node1</title>
<path fill="none" stroke="#9a32cd" stroke-dasharray="5,2" d="M789.02,-112.17C920.9,-95.66 1385.3,-45.34 1487,-140.77 1518.17,-170.02 1531.04,-492.84 1533.17,-553.11"/>
<polygon fill="#9a32cd" stroke="#9a32cd" points="788.53,-108.7 779.05,-113.43 789.41,-115.64 788.53,-108.7"/>
<text text-anchor="middle" x="1196.5" y="-87.77" font-family="Helvetica,sans-Serif" font-size="10.00"> m_obRect</text>
</g>
</g>
</svg>
