<?xml version="1.0" encoding="UTF-8" standalone="no"?>
<!DOCTYPE svg PUBLIC "-//W3C//DTD SVG 1.1//EN"
 "http://www.w3.org/Graphics/SVG/1.1/DTD/svg11.dtd">
<!-- Generated by graphviz version 2.43.0 (0)
 -->
<!-- Title: /home/runner/work/cocos&#45;headers/cocos&#45;headers/cocos2dx/particle_nodes/CCParticleSystem.h Pages: 1 -->
<svg width="1664pt" height="687pt"
 viewBox="0.00 0.00 1663.50 687.00" xmlns="http://www.w3.org/2000/svg" xmlns:xlink="http://www.w3.org/1999/xlink">
<g id="graph0" class="graph" transform="scale(1 1) rotate(0) translate(4 683)">
<title>/home/runner/work/cocos&#45;headers/cocos&#45;headers/cocos2dx/particle_nodes/CCParticleSystem.h</title>
<!-- Node1 -->
<g id="node1" class="node">
<title>Node1</title>
<g id="a_node1"><a xlink:title=" ">
<polygon fill="#999999" stroke="#666666" points="1212,-679 1072,-679 1072,-627 1212,-627 1212,-679"/>
<text text-anchor="start" x="1080" y="-667" font-family="Helvetica,sans-Serif" font-size="10.00">/home/runner/work/cocos</text>
<text text-anchor="start" x="1080" y="-656" font-family="Helvetica,sans-Serif" font-size="10.00">&#45;headers/cocos&#45;headers</text>
<text text-anchor="start" x="1080" y="-645" font-family="Helvetica,sans-Serif" font-size="10.00">/cocos2dx/particle_nodes</text>
<text text-anchor="middle" x="1142" y="-634" font-family="Helvetica,sans-Serif" font-size="10.00">/CCParticleSystem.h</text>
</a>
</g>
</g>
<!-- Node2 -->
<g id="node2" class="node">
<title>Node2</title>
<g id="a_node2"><a xlink:href="../../d8/d76/_c_c_protocols_8h.html" target="_top" xlink:title=" ">
<polygon fill="white" stroke="#666666" points="240,-530.5 156,-530.5 156,-511.5 240,-511.5 240,-530.5"/>
<text text-anchor="middle" x="198" y="-518.5" font-family="Helvetica,sans-Serif" font-size="10.00">CCProtocols.h</text>
</a>
</g>
</g>
<!-- Node1&#45;&gt;Node2 -->
<g id="edge1" class="edge">
<title>Node1&#45;&gt;Node2</title>
<path fill="none" stroke="#63b8ff" d="M1071.82,-642.34C890.46,-617.36 409.31,-551.1 250.02,-529.16"/>
<polygon fill="#63b8ff" stroke="#63b8ff" points="250.39,-525.68 240.01,-527.78 249.43,-532.62 250.39,-525.68"/>
</g>
<!-- Node18 -->
<g id="node18" class="node">
<title>Node18</title>
<g id="a_node18"><a xlink:href="../../db/d7f/_c_c_node_8h.html" target="_top" xlink:title=" ">
<polygon fill="white" stroke="#666666" points="1061.5,-591 936.5,-591 936.5,-572 1061.5,-572 1061.5,-591"/>
<text text-anchor="middle" x="999" y="-579" font-family="Helvetica,sans-Serif" font-size="10.00">base_nodes/CCNode.h</text>
</a>
</g>
</g>
<!-- Node1&#45;&gt;Node18 -->
<g id="edge27" class="edge">
<title>Node1&#45;&gt;Node18</title>
<path fill="none" stroke="#63b8ff" d="M1090.37,-626.91C1068.64,-616.35 1044.24,-604.49 1026.13,-595.68"/>
<polygon fill="#63b8ff" stroke="#63b8ff" points="1027.29,-592.36 1016.77,-591.14 1024.23,-598.65 1027.29,-592.36"/>
</g>
<!-- Node32 -->
<g id="node32" class="node">
<title>Node32</title>
<g id="a_node32"><a xlink:href="../../d9/d8d/_c_c_dictionary_8h.html" target="_top" xlink:title=" ">
<polygon fill="white" stroke="#666666" points="1393.5,-591 1274.5,-591 1274.5,-572 1393.5,-572 1393.5,-591"/>
<text text-anchor="middle" x="1334" y="-579" font-family="Helvetica,sans-Serif" font-size="10.00">cocoa/CCDictionary.h</text>
</a>
</g>
</g>
<!-- Node1&#45;&gt;Node32 -->
<g id="edge56" class="edge">
<title>Node1&#45;&gt;Node32</title>
<path fill="none" stroke="#63b8ff" d="M1211.32,-626.91C1241.72,-615.91 1275.99,-603.5 1300.57,-594.6"/>
<polygon fill="#63b8ff" stroke="#63b8ff" points="1301.93,-597.83 1310.14,-591.14 1299.55,-591.25 1301.93,-597.83"/>
</g>
<!-- Node34 -->
<g id="node34" class="node">
<title>Node34</title>
<g id="a_node34"><a xlink:href="../../d0/d8a/_c_c_string_8h.html" target="_top" xlink:title=" ">
<polygon fill="white" stroke="#666666" points="1568,-530.5 1500,-530.5 1500,-511.5 1568,-511.5 1568,-530.5"/>
<text text-anchor="middle" x="1534" y="-518.5" font-family="Helvetica,sans-Serif" font-size="10.00">CCString.h</text>
</a>
</g>
</g>
<!-- Node1&#45;&gt;Node34 -->
<g id="edge66" class="edge">
<title>Node1&#45;&gt;Node34</title>
<path fill="none" stroke="#63b8ff" d="M1212.11,-640.64C1265.49,-630.8 1340.22,-614.43 1403,-591 1442.93,-576.1 1486.09,-551.55 1511.55,-536.11"/>
<polygon fill="#63b8ff" stroke="#63b8ff" points="1513.71,-538.89 1520.39,-530.67 1510.04,-532.93 1513.71,-538.89"/>
</g>
<!-- Node3 -->
<g id="node3" class="node">
<title>Node3</title>
<g id="a_node3"><a xlink:href="../../df/de6/cc_types_8h.html" target="_top" xlink:title=" ">
<polygon fill="white" stroke="#666666" points="206,-404 142,-404 142,-385 206,-385 206,-404"/>
<text text-anchor="middle" x="174" y="-392" font-family="Helvetica,sans-Serif" font-size="10.00">ccTypes.h</text>
</a>
</g>
</g>
<!-- Node2&#45;&gt;Node3 -->
<g id="edge2" class="edge">
<title>Node2&#45;&gt;Node3</title>
<path fill="none" stroke="#63b8ff" d="M196.35,-511.44C192.5,-491.45 182.83,-441.32 177.56,-413.98"/>
<polygon fill="#63b8ff" stroke="#63b8ff" points="180.99,-413.27 175.66,-404.12 174.12,-414.6 180.99,-413.27"/>
</g>
<!-- Node4 -->
<g id="node4" class="node">
<title>Node4</title>
<g id="a_node4"><a xlink:title=" ">
<polygon fill="#e0e0e0" stroke="#999999" points="226,-184 182,-184 182,-165 226,-165 226,-184"/>
<text text-anchor="middle" x="204" y="-172" font-family="Helvetica,sans-Serif" font-size="10.00">string</text>
</a>
</g>
</g>
<!-- Node2&#45;&gt;Node4 -->
<g id="edge26" class="edge">
<title>Node2&#45;&gt;Node4</title>
<path fill="none" stroke="#63b8ff" d="M155.78,-517.74C118.15,-513.59 63.79,-502 29,-470 2.85,-445.95 0,-431.03 0,-395.5 0,-395.5 0,-395.5 0,-283.5 0,-206.73 114.24,-184.38 171.74,-177.99"/>
<polygon fill="#63b8ff" stroke="#63b8ff" points="172.18,-181.46 181.78,-176.97 171.48,-174.5 172.18,-181.46"/>
</g>
<!-- Node17 -->
<g id="node17" class="node">
<title>Node17</title>
<g id="a_node17"><a xlink:href="../../d5/d70/_c_c_texture2_d_8h.html" target="_top" xlink:title=" ">
<polygon fill="white" stroke="#666666" points="170,-464.5 38,-464.5 38,-445.5 170,-445.5 170,-464.5"/>
<text text-anchor="middle" x="104" y="-452.5" font-family="Helvetica,sans-Serif" font-size="10.00">textures/CCTexture2D.h</text>
</a>
</g>
</g>
<!-- Node2&#45;&gt;Node17 -->
<g id="edge21" class="edge">
<title>Node2&#45;&gt;Node17</title>
<path fill="none" stroke="#63b8ff" d="M185.32,-511.37C169.91,-500.87 143.65,-483 125.15,-470.4"/>
<polygon fill="#63b8ff" stroke="#63b8ff" points="127.01,-467.43 116.78,-464.7 123.07,-473.22 127.01,-467.43"/>
</g>
<!-- Node3&#45;&gt;Node4 -->
<g id="edge3" class="edge">
<title>Node3&#45;&gt;Node4</title>
<path fill="none" stroke="#63b8ff" d="M175.18,-384.95C179.58,-352.95 195.17,-239.68 201.4,-194.4"/>
<polygon fill="#63b8ff" stroke="#63b8ff" points="204.9,-194.61 202.8,-184.22 197.97,-193.65 204.9,-194.61"/>
</g>
<!-- Node5 -->
<g id="node5" class="node">
<title>Node5</title>
<g id="a_node5"><a xlink:href="../../d6/d09/_c_c_geometry_8h.html" target="_top" xlink:title=" ">
<polygon fill="white" stroke="#666666" points="670,-349 552,-349 552,-330 670,-330 670,-349"/>
<text text-anchor="middle" x="611" y="-337" font-family="Helvetica,sans-Serif" font-size="10.00">cocoa/CCGeometry.h</text>
</a>
</g>
</g>
<!-- Node3&#45;&gt;Node5 -->
<g id="edge4" class="edge">
<title>Node3&#45;&gt;Node5</title>
<path fill="none" stroke="#63b8ff" d="M206.13,-389.6C276.5,-381.07 445.57,-360.56 541.49,-348.93"/>
<polygon fill="#63b8ff" stroke="#63b8ff" points="542.17,-352.37 551.68,-347.69 541.33,-345.42 542.17,-352.37"/>
</g>
<!-- Node16 -->
<g id="node16" class="node">
<title>Node16</title>
<g id="a_node16"><a xlink:title=" ">
<polygon fill="#e0e0e0" stroke="#999999" points="1007,-349 955,-349 955,-330 1007,-330 1007,-349"/>
<text text-anchor="middle" x="981" y="-337" font-family="Helvetica,sans-Serif" font-size="10.00">CCGL.h</text>
</a>
</g>
</g>
<!-- Node3&#45;&gt;Node16 -->
<g id="edge20" class="edge">
<title>Node3&#45;&gt;Node16</title>
<path fill="none" stroke="#63b8ff" d="M206.27,-391.08C229.77,-389.34 262.35,-386.96 291,-385 541.13,-367.85 842.4,-349.06 944.87,-342.73"/>
<polygon fill="#63b8ff" stroke="#63b8ff" points="945.23,-346.21 954.99,-342.1 944.79,-339.22 945.23,-346.21"/>
</g>
<!-- Node6 -->
<g id="node6" class="node">
<title>Node6</title>
<g id="a_node6"><a xlink:href="../../d3/d41/_c_c_platform_macros_8h.html" target="_top" xlink:title=" ">
<polygon fill="white" stroke="#666666" points="961.5,-129 800.5,-129 800.5,-110 961.5,-110 961.5,-129"/>
<text text-anchor="middle" x="881" y="-117" font-family="Helvetica,sans-Serif" font-size="10.00">platform/CCPlatformMacros.h</text>
</a>
</g>
</g>
<!-- Node5&#45;&gt;Node6 -->
<g id="edge5" class="edge">
<title>Node5&#45;&gt;Node6</title>
<path fill="none" stroke="#63b8ff" d="M616.05,-329.67C621.15,-320.72 629.22,-306.45 636,-294 653.77,-261.35 651.29,-248.64 675,-220 700.01,-189.79 709.46,-183.58 744,-165 771.83,-150.03 805.56,-139 832.59,-131.66"/>
<polygon fill="#63b8ff" stroke="#63b8ff" points="833.82,-134.96 842.6,-129.03 832.04,-128.19 833.82,-134.96"/>
</g>
<!-- Node10 -->
<g id="node10" class="node">
<title>Node10</title>
<g id="a_node10"><a xlink:href="../../dd/d69/_c_c_object_8h.html" target="_top" xlink:title=" ">
<polygon fill="white" stroke="#666666" points="826.5,-294 755.5,-294 755.5,-275 826.5,-275 826.5,-294"/>
<text text-anchor="middle" x="791" y="-282" font-family="Helvetica,sans-Serif" font-size="10.00">CCObject.h</text>
</a>
</g>
</g>
<!-- Node5&#45;&gt;Node10 -->
<g id="edge10" class="edge">
<title>Node5&#45;&gt;Node10</title>
<path fill="none" stroke="#63b8ff" d="M639.92,-329.98C670.27,-321.05 718.17,-306.94 751.88,-297.02"/>
<polygon fill="#63b8ff" stroke="#63b8ff" points="753.25,-300.26 761.85,-294.08 751.27,-293.55 753.25,-300.26"/>
</g>
<!-- Node15 -->
<g id="node15" class="node">
<title>Node15</title>
<g id="a_node15"><a xlink:title=" ">
<polygon fill="#e0e0e0" stroke="#999999" points="627.5,-294 576.5,-294 576.5,-275 627.5,-275 627.5,-294"/>
<text text-anchor="middle" x="602" y="-282" font-family="Helvetica,sans-Serif" font-size="10.00">math.h</text>
</a>
</g>
</g>
<!-- Node5&#45;&gt;Node15 -->
<g id="edge19" class="edge">
<title>Node5&#45;&gt;Node15</title>
<path fill="none" stroke="#63b8ff" d="M609.51,-329.75C608.33,-322.8 606.64,-312.85 605.16,-304.13"/>
<polygon fill="#63b8ff" stroke="#63b8ff" points="608.58,-303.36 603.46,-294.09 601.68,-304.53 608.58,-303.36"/>
</g>
<!-- Node7 -->
<g id="node7" class="node">
<title>Node7</title>
<g id="a_node7"><a xlink:href="../../db/d9f/cc_config_8h.html" target="_top" xlink:title="cocos2d (cc) configuration file">
<polygon fill="white" stroke="#666666" points="1019.5,-74 952.5,-74 952.5,-55 1019.5,-55 1019.5,-74"/>
<text text-anchor="middle" x="986" y="-62" font-family="Helvetica,sans-Serif" font-size="10.00">ccConfig.h</text>
</a>
</g>
</g>
<!-- Node6&#45;&gt;Node7 -->
<g id="edge6" class="edge">
<title>Node6&#45;&gt;Node7</title>
<path fill="none" stroke="#63b8ff" d="M897.87,-109.98C914.61,-101.54 940.5,-88.47 959.89,-78.68"/>
<polygon fill="#63b8ff" stroke="#63b8ff" points="961.47,-81.8 968.82,-74.17 958.32,-75.55 961.47,-81.8"/>
</g>
<!-- Node8 -->
<g id="node8" class="node">
<title>Node8</title>
<g id="a_node8"><a xlink:href="../../dd/d96/_c_c_platform_config_8h.html" target="_top" xlink:title=" ">
<polygon fill="white" stroke="#666666" points="1033.5,-19 876.5,-19 876.5,0 1033.5,0 1033.5,-19"/>
<text text-anchor="middle" x="955" y="-7" font-family="Helvetica,sans-Serif" font-size="10.00">platform/CCPlatformConfig.h</text>
</a>
</g>
</g>
<!-- Node6&#45;&gt;Node8 -->
<g id="edge8" class="edge">
<title>Node6&#45;&gt;Node8</title>
<path fill="none" stroke="#63b8ff" d="M887.06,-109.66C899.31,-91.77 927.25,-51 943.22,-27.69"/>
<polygon fill="#63b8ff" stroke="#63b8ff" points="946.3,-29.39 949.07,-19.16 940.53,-25.43 946.3,-29.39"/>
</g>
<!-- Node9 -->
<g id="node9" class="node">
<title>Node9</title>
<g id="a_node9"><a xlink:title=" ">
<polygon fill="#e0e0e0" stroke="#999999" points="895.5,-74 782.5,-74 782.5,-55 895.5,-55 895.5,-74"/>
<text text-anchor="middle" x="839" y="-62" font-family="Helvetica,sans-Serif" font-size="10.00">CCPlatformDefine.h</text>
</a>
</g>
</g>
<!-- Node6&#45;&gt;Node9 -->
<g id="edge9" class="edge">
<title>Node6&#45;&gt;Node9</title>
<path fill="none" stroke="#63b8ff" d="M874.06,-109.75C868.13,-102.26 859.43,-91.28 852.18,-82.13"/>
<polygon fill="#63b8ff" stroke="#63b8ff" points="854.76,-79.75 845.81,-74.09 849.27,-84.1 854.76,-79.75"/>
</g>
<!-- Node7&#45;&gt;Node8 -->
<g id="edge7" class="edge">
<title>Node7&#45;&gt;Node8</title>
<path fill="none" stroke="#63b8ff" d="M980.88,-54.75C976.64,-47.49 970.47,-36.95 965.22,-27.98"/>
<polygon fill="#63b8ff" stroke="#63b8ff" points="968.09,-25.95 960.02,-19.09 962.05,-29.49 968.09,-25.95"/>
</g>
<!-- Node11 -->
<g id="node11" class="node">
<title>Node11</title>
<g id="a_node11"><a xlink:href="../../d9/d2d/_c_c_data_visitor_8h.html" target="_top" xlink:title=" ">
<polygon fill="white" stroke="#666666" points="777.5,-239 684.5,-239 684.5,-220 777.5,-220 777.5,-239"/>
<text text-anchor="middle" x="731" y="-227" font-family="Helvetica,sans-Serif" font-size="10.00">CCDataVisitor.h</text>
</a>
</g>
</g>
<!-- Node10&#45;&gt;Node11 -->
<g id="edge11" class="edge">
<title>Node10&#45;&gt;Node11</title>
<path fill="none" stroke="#63b8ff" d="M781.36,-274.98C772.49,-267.15 759.13,-255.34 748.39,-245.86"/>
<polygon fill="#63b8ff" stroke="#63b8ff" points="750.63,-243.17 740.82,-239.17 745.99,-248.41 750.63,-243.17"/>
</g>
<!-- Node12 -->
<g id="node12" class="node">
<title>Node12</title>
<g id="a_node12"><a xlink:href="../../d9/dc8/cc_macros_8h.html" target="_top" xlink:title=" ">
<polygon fill="white" stroke="#666666" points="1189.5,-239 1118.5,-239 1118.5,-220 1189.5,-220 1189.5,-239"/>
<text text-anchor="middle" x="1154" y="-227" font-family="Helvetica,sans-Serif" font-size="10.00">ccMacros.h</text>
</a>
</g>
</g>
<!-- Node10&#45;&gt;Node12 -->
<g id="edge14" class="edge">
<title>Node10&#45;&gt;Node12</title>
<path fill="none" stroke="#63b8ff" d="M826.8,-278.27C893.12,-268.59 1034.97,-247.88 1108.18,-237.19"/>
<polygon fill="#63b8ff" stroke="#63b8ff" points="1109.08,-240.6 1118.47,-235.69 1108.07,-233.67 1109.08,-240.6"/>
</g>
<!-- Node11&#45;&gt;Node4 -->
<g id="edge13" class="edge">
<title>Node11&#45;&gt;Node4</title>
<path fill="none" stroke="#63b8ff" d="M684.23,-223.8C579.05,-213.22 326.06,-187.78 236.27,-178.75"/>
<polygon fill="#63b8ff" stroke="#63b8ff" points="236.45,-175.25 226.15,-177.73 235.75,-182.21 236.45,-175.25"/>
</g>
<!-- Node11&#45;&gt;Node6 -->
<g id="edge12" class="edge">
<title>Node11&#45;&gt;Node6</title>
<path fill="none" stroke="#63b8ff" d="M733.01,-219.86C736.59,-206.34 745.29,-180.17 762,-165 779.63,-148.99 803.56,-138.57 825.33,-131.87"/>
<polygon fill="#63b8ff" stroke="#63b8ff" points="826.51,-135.17 835.15,-129.05 824.58,-128.45 826.51,-135.17"/>
</g>
<!-- Node12&#45;&gt;Node7 -->
<g id="edge18" class="edge">
<title>Node12&#45;&gt;Node7</title>
<path fill="none" stroke="#63b8ff" d="M1144.97,-219.74C1117.96,-193.53 1037.55,-115.51 1002.56,-81.57"/>
<polygon fill="#63b8ff" stroke="#63b8ff" points="1004.69,-78.76 995.08,-74.31 999.82,-83.78 1004.69,-78.76"/>
</g>
<!-- Node13 -->
<g id="node13" class="node">
<title>Node13</title>
<g id="a_node13"><a xlink:href="../../d5/d22/_c_c_common_8h.html" target="_top" xlink:title=" ">
<polygon fill="white" stroke="#666666" points="899,-184 771,-184 771,-165 899,-165 899,-184"/>
<text text-anchor="middle" x="835" y="-172" font-family="Helvetica,sans-Serif" font-size="10.00">platform/CCCommon.h</text>
</a>
</g>
</g>
<!-- Node12&#45;&gt;Node13 -->
<g id="edge15" class="edge">
<title>Node12&#45;&gt;Node13</title>
<path fill="none" stroke="#63b8ff" d="M1118.34,-222.57C1064.63,-213.65 962.29,-196.65 896.42,-185.7"/>
<polygon fill="#63b8ff" stroke="#63b8ff" points="896.61,-182.19 886.17,-184 895.46,-189.09 896.61,-182.19"/>
</g>
<!-- Node14 -->
<g id="node14" class="node">
<title>Node14</title>
<g id="a_node14"><a xlink:title=" ">
<polygon fill="#e0e0e0" stroke="#999999" points="1201,-184 1139,-184 1139,-165 1201,-165 1201,-184"/>
<text text-anchor="middle" x="1170" y="-172" font-family="Helvetica,sans-Serif" font-size="10.00">CCStdC.h</text>
</a>
</g>
</g>
<!-- Node12&#45;&gt;Node14 -->
<g id="edge17" class="edge">
<title>Node12&#45;&gt;Node14</title>
<path fill="none" stroke="#63b8ff" d="M1156.64,-219.75C1158.76,-212.72 1161.81,-202.62 1164.46,-193.84"/>
<polygon fill="#63b8ff" stroke="#63b8ff" points="1167.87,-194.67 1167.41,-184.09 1161.17,-192.65 1167.87,-194.67"/>
</g>
<!-- Node13&#45;&gt;Node6 -->
<g id="edge16" class="edge">
<title>Node13&#45;&gt;Node6</title>
<path fill="none" stroke="#63b8ff" d="M842.6,-164.75C849.16,-157.18 858.82,-146.05 866.81,-136.84"/>
<polygon fill="#63b8ff" stroke="#63b8ff" points="869.63,-138.94 873.55,-129.09 864.35,-134.35 869.63,-138.94"/>
</g>
<!-- Node17&#45;&gt;Node3 -->
<g id="edge25" class="edge">
<title>Node17&#45;&gt;Node3</title>
<path fill="none" stroke="#63b8ff" d="M114.33,-445.37C125.19,-436.3 142.49,-421.84 155.67,-410.82"/>
<polygon fill="#63b8ff" stroke="#63b8ff" points="158.2,-413.27 163.63,-404.17 153.71,-407.89 158.2,-413.27"/>
</g>
<!-- Node17&#45;&gt;Node4 -->
<g id="edge22" class="edge">
<title>Node17&#45;&gt;Node4</title>
<path fill="none" stroke="#63b8ff" d="M94.54,-445.31C76.29,-427.54 38,-384.95 38,-340.5 38,-340.5 38,-340.5 38,-283.5 38,-220.24 123.75,-192.12 171.99,-181.31"/>
<polygon fill="#63b8ff" stroke="#63b8ff" points="172.9,-184.7 181.96,-179.2 171.45,-177.85 172.9,-184.7"/>
</g>
<!-- Node17&#45;&gt;Node5 -->
<g id="edge24" class="edge">
<title>Node17&#45;&gt;Node5</title>
<path fill="none" stroke="#63b8ff" d="M104.88,-445.04C106.9,-429.89 113.3,-399.45 133,-385 165.19,-361.39 416.99,-348.19 541.61,-343.05"/>
<polygon fill="#63b8ff" stroke="#63b8ff" points="541.96,-346.54 551.81,-342.63 541.67,-339.54 541.96,-346.54"/>
</g>
<!-- Node17&#45;&gt;Node10 -->
<g id="edge23" class="edge">
<title>Node17&#45;&gt;Node10</title>
<path fill="none" stroke="#63b8ff" d="M102.34,-445.39C100.07,-430.77 97.93,-401.11 114,-385 158.77,-340.14 599.37,-300.93 744.74,-289.12"/>
<polygon fill="#63b8ff" stroke="#63b8ff" points="745.4,-292.58 755.08,-288.29 744.84,-285.6 745.4,-292.58"/>
</g>
<!-- Node18&#45;&gt;Node2 -->
<g id="edge55" class="edge">
<title>Node18&#45;&gt;Node2</title>
<path fill="none" stroke="#63b8ff" d="M936.48,-575.93C783.46,-564.76 392.28,-536.19 250.41,-525.83"/>
<polygon fill="#63b8ff" stroke="#63b8ff" points="250.46,-522.32 240.23,-525.08 249.95,-529.3 250.46,-522.32"/>
</g>
<!-- Node18&#45;&gt;Node12 -->
<g id="edge28" class="edge">
<title>Node18&#45;&gt;Node12</title>
<path fill="none" stroke="#63b8ff" d="M1050.18,-571.99C1076.06,-565.6 1106.63,-554.62 1129,-536 1166.63,-504.68 1144.23,-469.89 1183,-440 1233.2,-401.3 1282.25,-454.16 1321,-404 1371.48,-338.66 1244.67,-270.87 1184.08,-243.3"/>
<polygon fill="#63b8ff" stroke="#63b8ff" points="1185.18,-239.96 1174.62,-239.08 1182.32,-246.35 1185.18,-239.96"/>
</g>
<!-- Node18&#45;&gt;Node16 -->
<g id="edge34" class="edge">
<title>Node18&#45;&gt;Node16</title>
<path fill="none" stroke="#63b8ff" d="M990.79,-571.8C983.46,-563.38 973.25,-549.9 969,-536 949.9,-473.5 966.24,-394.65 975.58,-359.23"/>
<polygon fill="#63b8ff" stroke="#63b8ff" points="979.02,-359.9 978.31,-349.33 972.27,-358.04 979.02,-359.9"/>
</g>
<!-- Node19 -->
<g id="node19" class="node">
<title>Node19</title>
<g id="a_node19"><a xlink:href="../../d3/d15/_c_c_affine_transform_8h.html" target="_top" xlink:title=" ">
<polygon fill="white" stroke="#666666" points="1160,-404 1012,-404 1012,-385 1160,-385 1160,-404"/>
<text text-anchor="middle" x="1086" y="-392" font-family="Helvetica,sans-Serif" font-size="10.00">cocoa/CCAffineTransform.h</text>
</a>
</g>
</g>
<!-- Node18&#45;&gt;Node19 -->
<g id="edge29" class="edge">
<title>Node18&#45;&gt;Node19</title>
<path fill="none" stroke="#63b8ff" d="M992.31,-571.6C982.54,-557.44 966.49,-529.02 976,-506 993.73,-463.06 1037.11,-428.04 1063.8,-409.61"/>
<polygon fill="#63b8ff" stroke="#63b8ff" points="1065.79,-412.49 1072.14,-404.01 1061.89,-406.68 1065.79,-412.49"/>
</g>
<!-- Node20 -->
<g id="node20" class="node">
<title>Node20</title>
<g id="a_node20"><a xlink:href="../../da/d35/_c_c_array_8h.html" target="_top" xlink:title=" ">
<polygon fill="white" stroke="#666666" points="1299.5,-530.5 1204.5,-530.5 1204.5,-511.5 1299.5,-511.5 1299.5,-530.5"/>
<text text-anchor="middle" x="1252" y="-518.5" font-family="Helvetica,sans-Serif" font-size="10.00">cocoa/CCArray.h</text>
</a>
</g>
</g>
<!-- Node18&#45;&gt;Node20 -->
<g id="edge32" class="edge">
<title>Node18&#45;&gt;Node20</title>
<path fill="none" stroke="#63b8ff" d="M1035.79,-571.99C1080.57,-561.64 1156.26,-544.14 1205.16,-532.83"/>
<polygon fill="#63b8ff" stroke="#63b8ff" points="1206.21,-536.18 1215.17,-530.52 1204.64,-529.36 1206.21,-536.18"/>
</g>
<!-- Node22 -->
<g id="node22" class="node">
<title>Node22</title>
<g id="a_node22"><a xlink:href="../../da/d2f/cc_g_l_state_cache_8h.html" target="_top" xlink:title=" ">
<polygon fill="white" stroke="#666666" points="956,-404 810,-404 810,-385 956,-385 956,-404"/>
<text text-anchor="middle" x="883" y="-392" font-family="Helvetica,sans-Serif" font-size="10.00">shaders/ccGLStateCache.h</text>
</a>
</g>
</g>
<!-- Node18&#45;&gt;Node22 -->
<g id="edge35" class="edge">
<title>Node18&#45;&gt;Node22</title>
<path fill="none" stroke="#63b8ff" d="M961,-571.96C940.94,-565.47 917.71,-554.4 904,-536 876.93,-499.69 877.89,-443.18 880.6,-414.13"/>
<polygon fill="#63b8ff" stroke="#63b8ff" points="884.08,-414.45 881.7,-404.13 877.12,-413.68 884.08,-414.45"/>
</g>
<!-- Node23 -->
<g id="node23" class="node">
<title>Node23</title>
<g id="a_node23"><a xlink:href="../../de/d32/_c_c_g_l_program_8h.html" target="_top" xlink:title=" ">
<polygon fill="white" stroke="#666666" points="1312,-404 1178,-404 1178,-385 1312,-385 1312,-404"/>
<text text-anchor="middle" x="1245" y="-392" font-family="Helvetica,sans-Serif" font-size="10.00">shaders/CCGLProgram.h</text>
</a>
</g>
</g>
<!-- Node18&#45;&gt;Node23 -->
<g id="edge38" class="edge">
<title>Node18&#45;&gt;Node23</title>
<path fill="none" stroke="#63b8ff" d="M1038.5,-571.96C1060.95,-565.37 1088.22,-554.22 1107,-536 1140.55,-503.45 1117.22,-473.34 1150,-440 1164.72,-425.03 1185.45,-414.52 1203.79,-407.48"/>
<polygon fill="#63b8ff" stroke="#63b8ff" points="1205.17,-410.71 1213.39,-404.02 1202.8,-404.12 1205.17,-410.71"/>
</g>
<!-- Node24 -->
<g id="node24" class="node">
<title>Node24</title>
<g id="a_node24"><a xlink:title=" ">
<polygon fill="#e0e0e0" stroke="#999999" points="1097.5,-530.5 984.5,-530.5 984.5,-511.5 1097.5,-511.5 1097.5,-530.5"/>
<text text-anchor="middle" x="1041" y="-518.5" font-family="Helvetica,sans-Serif" font-size="10.00">kazmath/kazmath.h</text>
</a>
</g>
</g>
<!-- Node18&#45;&gt;Node24 -->
<g id="edge42" class="edge">
<title>Node18&#45;&gt;Node24</title>
<path fill="none" stroke="#63b8ff" d="M1005.2,-571.87C1011.4,-563.23 1021.11,-549.7 1028.86,-538.92"/>
<polygon fill="#63b8ff" stroke="#63b8ff" points="1031.79,-540.83 1034.78,-530.67 1026.1,-536.75 1031.79,-540.83"/>
</g>
<!-- Node25 -->
<g id="node25" class="node">
<title>Node25</title>
<g id="a_node25"><a xlink:href="../../dc/dbc/_c_c_script_support_8h.html" target="_top" xlink:title=" ">
<polygon fill="white" stroke="#666666" points="561,-464.5 385,-464.5 385,-445.5 561,-445.5 561,-464.5"/>
<text text-anchor="middle" x="473" y="-452.5" font-family="Helvetica,sans-Serif" font-size="10.00">script_support/CCScriptSupport.h</text>
</a>
</g>
</g>
<!-- Node18&#45;&gt;Node25 -->
<g id="edge43" class="edge">
<title>Node18&#45;&gt;Node25</title>
<path fill="none" stroke="#63b8ff" d="M962.85,-571.94C869.74,-549.9 621.84,-491.23 518.85,-466.85"/>
<polygon fill="#63b8ff" stroke="#63b8ff" points="519.6,-463.43 509.06,-464.53 517.98,-470.24 519.6,-463.43"/>
</g>
<!-- Node19&#45;&gt;Node5 -->
<g id="edge30" class="edge">
<title>Node19&#45;&gt;Node5</title>
<path fill="none" stroke="#63b8ff" d="M1011.78,-385.22C921.05,-375.09 768.7,-358.1 680.27,-348.23"/>
<polygon fill="#63b8ff" stroke="#63b8ff" points="680.41,-344.72 670.08,-347.09 679.63,-351.68 680.41,-344.72"/>
</g>
<!-- Node19&#45;&gt;Node6 -->
<g id="edge31" class="edge">
<title>Node19&#45;&gt;Node6</title>
<path fill="none" stroke="#63b8ff" d="M1084.25,-384.86C1080.7,-366.6 1073,-322.7 1073,-285.5 1073,-285.5 1073,-285.5 1073,-228.5 1073,-171.16 1007.15,-143.94 952.58,-131.23"/>
<polygon fill="#63b8ff" stroke="#63b8ff" points="953.06,-127.75 942.54,-129.02 951.56,-134.59 953.06,-127.75"/>
</g>
<!-- Node21 -->
<g id="node21" class="node">
<title>Node21</title>
<g id="a_node21"><a xlink:title=" ">
<polygon fill="#e0e0e0" stroke="#999999" points="1312,-470 1192,-470 1192,-440 1312,-440 1312,-470"/>
<text text-anchor="start" x="1200" y="-458" font-family="Helvetica,sans-Serif" font-size="10.00">support/data_support</text>
<text text-anchor="middle" x="1252" y="-447" font-family="Helvetica,sans-Serif" font-size="10.00">/ccCArray.h</text>
</a>
</g>
</g>
<!-- Node20&#45;&gt;Node21 -->
<g id="edge33" class="edge">
<title>Node20&#45;&gt;Node21</title>
<path fill="none" stroke="#63b8ff" d="M1252,-511.37C1252,-503.49 1252,-491.45 1252,-480.6"/>
<polygon fill="#63b8ff" stroke="#63b8ff" points="1255.5,-480.36 1252,-470.36 1248.5,-480.36 1255.5,-480.36"/>
</g>
<!-- Node22&#45;&gt;Node6 -->
<g id="edge37" class="edge">
<title>Node22&#45;&gt;Node6</title>
<path fill="none" stroke="#63b8ff" d="M889.3,-384.75C901.47,-366.98 927,-324.98 927,-285.5 927,-285.5 927,-285.5 927,-228.5 927,-194.04 906.93,-157.98 893.3,-137.47"/>
<polygon fill="#63b8ff" stroke="#63b8ff" points="896.15,-135.44 887.59,-129.2 890.4,-139.42 896.15,-135.44"/>
</g>
<!-- Node22&#45;&gt;Node16 -->
<g id="edge36" class="edge">
<title>Node22&#45;&gt;Node16</title>
<path fill="none" stroke="#63b8ff" d="M898.75,-384.98C914.23,-376.61 938.09,-363.7 956.14,-353.95"/>
<polygon fill="#63b8ff" stroke="#63b8ff" points="957.84,-357.01 964.97,-349.17 954.51,-350.85 957.84,-357.01"/>
</g>
<!-- Node23&#45;&gt;Node10 -->
<g id="edge40" class="edge">
<title>Node23&#45;&gt;Node10</title>
<path fill="none" stroke="#63b8ff" d="M1216.97,-384.99C1173.98,-372.11 1089.06,-347.33 1016,-330 954.23,-315.35 882.12,-301.69 836.52,-293.46"/>
<polygon fill="#63b8ff" stroke="#63b8ff" points="837.1,-290.01 826.64,-291.69 835.87,-296.9 837.1,-290.01"/>
</g>
<!-- Node23&#45;&gt;Node12 -->
<g id="edge39" class="edge">
<title>Node23&#45;&gt;Node12</title>
<path fill="none" stroke="#63b8ff" d="M1240.11,-384.74C1225.73,-358.98 1183.38,-283.13 1163.95,-248.33"/>
<polygon fill="#63b8ff" stroke="#63b8ff" points="1166.85,-246.33 1158.92,-239.31 1160.74,-249.74 1166.85,-246.33"/>
</g>
<!-- Node23&#45;&gt;Node16 -->
<g id="edge41" class="edge">
<title>Node23&#45;&gt;Node16</title>
<path fill="none" stroke="#63b8ff" d="M1201.18,-384.97C1156,-376.14 1083.53,-361.85 1021,-349 1019.75,-348.74 1018.47,-348.48 1017.19,-348.21"/>
<polygon fill="#63b8ff" stroke="#63b8ff" points="1017.74,-344.75 1007.24,-346.13 1016.31,-351.6 1017.74,-344.75"/>
</g>
<!-- Node25&#45;&gt;Node4 -->
<g id="edge53" class="edge">
<title>Node25&#45;&gt;Node4</title>
<path fill="none" stroke="#63b8ff" d="M406.5,-445.49C351.84,-437.26 279.95,-423.21 258,-404 235.3,-384.13 234,-370.67 234,-340.5 234,-340.5 234,-340.5 234,-283.5 234,-250.87 221.13,-214.65 212.25,-193.55"/>
<polygon fill="#63b8ff" stroke="#63b8ff" points="215.39,-191.99 208.17,-184.23 208.98,-194.8 215.39,-191.99"/>
</g>
<!-- Node25&#45;&gt;Node13 -->
<g id="edge44" class="edge">
<title>Node25&#45;&gt;Node13</title>
<path fill="none" stroke="#63b8ff" d="M384.82,-449.24C325.76,-442.36 263.46,-425.63 291,-385 365.1,-275.7 439.77,-310.36 567,-275 662.04,-248.59 701.31,-289.57 786,-239 804.07,-228.21 817.88,-208.03 826.16,-193.31"/>
<polygon fill="#63b8ff" stroke="#63b8ff" points="829.42,-194.64 831,-184.17 823.23,-191.37 829.42,-194.64"/>
</g>
<!-- Node26 -->
<g id="node26" class="node">
<title>Node26</title>
<g id="a_node26"><a xlink:title=" ">
<polygon fill="#e0e0e0" stroke="#999999" points="410,-404 300,-404 300,-385 410,-385 410,-404"/>
<text text-anchor="middle" x="355" y="-392" font-family="Helvetica,sans-Serif" font-size="10.00">CCAccelerometer.h</text>
</a>
</g>
</g>
<!-- Node25&#45;&gt;Node26 -->
<g id="edge45" class="edge">
<title>Node25&#45;&gt;Node26</title>
<path fill="none" stroke="#63b8ff" d="M455.84,-445.49C436.27,-435.79 404.03,-419.81 381.28,-408.53"/>
<polygon fill="#63b8ff" stroke="#63b8ff" points="382.69,-405.32 372.18,-404.02 379.58,-411.59 382.69,-405.32"/>
</g>
<!-- Node27 -->
<g id="node27" class="node">
<title>Node27</title>
<g id="a_node27"><a xlink:href="../../d3/dff/_c_c_touch_8h.html" target="_top" xlink:title=" ">
<polygon fill="white" stroke="#666666" points="687.5,-404 534.5,-404 534.5,-385 687.5,-385 687.5,-404"/>
<text text-anchor="middle" x="611" y="-392" font-family="Helvetica,sans-Serif" font-size="10.00">touch_dispatcher/CCTouch.h</text>
</a>
</g>
</g>
<!-- Node25&#45;&gt;Node27 -->
<g id="edge46" class="edge">
<title>Node25&#45;&gt;Node27</title>
<path fill="none" stroke="#63b8ff" d="M493.07,-445.49C516.37,-435.62 555.01,-419.23 581.68,-407.93"/>
<polygon fill="#63b8ff" stroke="#63b8ff" points="583.07,-411.14 590.91,-404.02 580.34,-404.7 583.07,-411.14"/>
</g>
<!-- Node28 -->
<g id="node28" class="node">
<title>Node28</title>
<g id="a_node28"><a xlink:href="../../da/ddc/_c_c_set_8h.html" target="_top" xlink:title=" ">
<polygon fill="white" stroke="#666666" points="792,-404 706,-404 706,-385 792,-385 792,-404"/>
<text text-anchor="middle" x="749" y="-392" font-family="Helvetica,sans-Serif" font-size="10.00">cocoa/CCSet.h</text>
</a>
</g>
</g>
<!-- Node25&#45;&gt;Node28 -->
<g id="edge49" class="edge">
<title>Node25&#45;&gt;Node28</title>
<path fill="none" stroke="#63b8ff" d="M513.13,-445.49C562.29,-435.07 645.59,-417.42 698.9,-406.12"/>
<polygon fill="#63b8ff" stroke="#63b8ff" points="699.76,-409.51 708.82,-404.02 698.31,-402.67 699.76,-409.51"/>
</g>
<!-- Node30 -->
<g id="node30" class="node">
<title>Node30</title>
<g id="a_node30"><a xlink:title=" ">
<polygon fill="#e0e0e0" stroke="#999999" points="466,-404 428,-404 428,-385 466,-385 466,-404"/>
<text text-anchor="middle" x="447" y="-392" font-family="Helvetica,sans-Serif" font-size="10.00">map</text>
</a>
</g>
</g>
<!-- Node25&#45;&gt;Node30 -->
<g id="edge52" class="edge">
<title>Node25&#45;&gt;Node30</title>
<path fill="none" stroke="#63b8ff" d="M469.16,-445.37C465.44,-436.99 459.67,-424.01 454.95,-413.39"/>
<polygon fill="#63b8ff" stroke="#63b8ff" points="458.11,-411.88 450.85,-404.17 451.72,-414.73 458.11,-411.88"/>
</g>
<!-- Node31 -->
<g id="node31" class="node">
<title>Node31</title>
<g id="a_node31"><a xlink:title=" ">
<polygon fill="#e0e0e0" stroke="#999999" points="516,-404 484,-404 484,-385 516,-385 516,-404"/>
<text text-anchor="middle" x="500" y="-392" font-family="Helvetica,sans-Serif" font-size="10.00">list</text>
</a>
</g>
</g>
<!-- Node25&#45;&gt;Node31 -->
<g id="edge54" class="edge">
<title>Node25&#45;&gt;Node31</title>
<path fill="none" stroke="#63b8ff" d="M476.98,-445.37C480.85,-436.99 486.84,-424.01 491.74,-413.39"/>
<polygon fill="#63b8ff" stroke="#63b8ff" points="494.99,-414.71 496,-404.17 488.63,-411.78 494.99,-414.71"/>
</g>
<!-- Node27&#45;&gt;Node5 -->
<g id="edge48" class="edge">
<title>Node27&#45;&gt;Node5</title>
<path fill="none" stroke="#63b8ff" d="M611,-384.75C611,-377.8 611,-367.85 611,-359.13"/>
<polygon fill="#63b8ff" stroke="#63b8ff" points="614.5,-359.09 611,-349.09 607.5,-359.09 614.5,-359.09"/>
</g>
<!-- Node27&#45;&gt;Node10 -->
<g id="edge47" class="edge">
<title>Node27&#45;&gt;Node10</title>
<path fill="none" stroke="#63b8ff" d="M625.43,-384.84C656.5,-366.2 729.98,-322.11 767.73,-299.46"/>
<polygon fill="#63b8ff" stroke="#63b8ff" points="769.73,-302.34 776.51,-294.2 766.13,-296.34 769.73,-302.34"/>
</g>
<!-- Node28&#45;&gt;Node10 -->
<g id="edge51" class="edge">
<title>Node28&#45;&gt;Node10</title>
<path fill="none" stroke="#63b8ff" d="M754.08,-384.86C759.11,-376.06 766.79,-361.9 772,-349 777.93,-334.31 782.98,-317.06 786.38,-304.24"/>
<polygon fill="#63b8ff" stroke="#63b8ff" points="789.83,-304.86 788.92,-294.3 783.05,-303.12 789.83,-304.86"/>
</g>
<!-- Node29 -->
<g id="node29" class="node">
<title>Node29</title>
<g id="a_node29"><a xlink:title=" ">
<polygon fill="#e0e0e0" stroke="#999999" points="763,-349 731,-349 731,-330 763,-330 763,-349"/>
<text text-anchor="middle" x="747" y="-337" font-family="Helvetica,sans-Serif" font-size="10.00">set</text>
</a>
</g>
</g>
<!-- Node28&#45;&gt;Node29 -->
<g id="edge50" class="edge">
<title>Node28&#45;&gt;Node29</title>
<path fill="none" stroke="#63b8ff" d="M748.67,-384.75C748.41,-377.8 748.03,-367.85 747.7,-359.13"/>
<polygon fill="#63b8ff" stroke="#63b8ff" points="751.2,-358.95 747.32,-349.09 744.2,-359.21 751.2,-358.95"/>
</g>
<!-- Node32&#45;&gt;Node10 -->
<g id="edge58" class="edge">
<title>Node32&#45;&gt;Node10</title>
<path fill="none" stroke="#63b8ff" d="M1336.67,-571.74C1345.28,-541.54 1369.07,-440.57 1321,-385 1257.98,-312.15 953.79,-292.12 836.9,-287.07"/>
<polygon fill="#63b8ff" stroke="#63b8ff" points="836.97,-283.57 826.83,-286.66 836.68,-290.57 836.97,-283.57"/>
</g>
<!-- Node32&#45;&gt;Node20 -->
<g id="edge59" class="edge">
<title>Node32&#45;&gt;Node20</title>
<path fill="none" stroke="#63b8ff" d="M1321.9,-571.87C1308.94,-562.62 1288.14,-547.78 1272.6,-536.69"/>
<polygon fill="#63b8ff" stroke="#63b8ff" points="1274.32,-533.63 1264.15,-530.67 1270.26,-539.32 1274.32,-533.63"/>
</g>
<!-- Node33 -->
<g id="node33" class="node">
<title>Node33</title>
<g id="a_node33"><a xlink:title=" ">
<polygon fill="#e0e0e0" stroke="#999999" points="1482,-536 1362,-536 1362,-506 1482,-506 1482,-536"/>
<text text-anchor="start" x="1370" y="-524" font-family="Helvetica,sans-Serif" font-size="10.00">support/data_support</text>
<text text-anchor="middle" x="1422" y="-513" font-family="Helvetica,sans-Serif" font-size="10.00">/uthash.h</text>
</a>
</g>
</g>
<!-- Node32&#45;&gt;Node33 -->
<g id="edge57" class="edge">
<title>Node32&#45;&gt;Node33</title>
<path fill="none" stroke="#63b8ff" d="M1346.98,-571.87C1358.81,-564 1376.73,-552.09 1392.09,-541.89"/>
<polygon fill="#63b8ff" stroke="#63b8ff" points="1394.38,-544.57 1400.77,-536.11 1390.5,-538.74 1394.38,-544.57"/>
</g>
<!-- Node32&#45;&gt;Node34 -->
<g id="edge60" class="edge">
<title>Node32&#45;&gt;Node34</title>
<path fill="none" stroke="#63b8ff" d="M1365.38,-571.99C1397.15,-563.28 1447.64,-549.2 1491,-536 1493.43,-535.26 1495.94,-534.48 1498.46,-533.69"/>
<polygon fill="#63b8ff" stroke="#63b8ff" points="1499.67,-536.98 1508.13,-530.6 1497.54,-530.31 1499.67,-536.98"/>
</g>
<!-- Node34&#45;&gt;Node4 -->
<g id="edge63" class="edge">
<title>Node34&#45;&gt;Node4</title>
<path fill="none" stroke="#63b8ff" d="M1509.4,-511.46C1488.23,-503.24 1457.77,-489.21 1436,-470 1379.63,-420.24 1403.69,-371.53 1341,-330 1288.59,-295.28 848.29,-228.52 786,-220 577.58,-191.48 324.47,-179.95 236.2,-176.61"/>
<polygon fill="#63b8ff" stroke="#63b8ff" points="236.16,-173.11 226.03,-176.24 235.9,-180.1 236.16,-173.11"/>
</g>
<!-- Node34&#45;&gt;Node10 -->
<g id="edge65" class="edge">
<title>Node34&#45;&gt;Node10</title>
<path fill="none" stroke="#63b8ff" d="M1508.82,-511.5C1472.92,-499.23 1410.41,-477.22 1402,-470 1346.59,-422.43 1379.18,-366.62 1316,-330 1275.05,-306.26 957.06,-291.82 836.83,-287.16"/>
<polygon fill="#63b8ff" stroke="#63b8ff" points="836.63,-283.65 826.5,-286.76 836.36,-290.64 836.63,-283.65"/>
</g>
<!-- Node35 -->
<g id="node35" class="node">
<title>Node35</title>
<g id="a_node35"><a xlink:title=" ">
<polygon fill="#e0e0e0" stroke="#999999" points="1497.5,-464.5 1444.5,-464.5 1444.5,-445.5 1497.5,-445.5 1497.5,-464.5"/>
<text text-anchor="middle" x="1471" y="-452.5" font-family="Helvetica,sans-Serif" font-size="10.00">string.h</text>
</a>
</g>
</g>
<!-- Node34&#45;&gt;Node35 -->
<g id="edge61" class="edge">
<title>Node34&#45;&gt;Node35</title>
<path fill="none" stroke="#63b8ff" d="M1525.5,-511.37C1515.7,-501.4 1499.34,-484.79 1487.11,-472.36"/>
<polygon fill="#63b8ff" stroke="#63b8ff" points="1489.28,-469.58 1479.77,-464.91 1484.29,-474.49 1489.28,-469.58"/>
</g>
<!-- Node36 -->
<g id="node36" class="node">
<title>Node36</title>
<g id="a_node36"><a xlink:title=" ">
<polygon fill="#e0e0e0" stroke="#999999" points="1572,-464.5 1516,-464.5 1516,-445.5 1572,-445.5 1572,-464.5"/>
<text text-anchor="middle" x="1544" y="-452.5" font-family="Helvetica,sans-Serif" font-size="10.00">stdarg.h</text>
</a>
</g>
</g>
<!-- Node34&#45;&gt;Node36 -->
<g id="edge62" class="edge">
<title>Node34&#45;&gt;Node36</title>
<path fill="none" stroke="#63b8ff" d="M1535.35,-511.37C1536.8,-502.07 1539.16,-486.98 1541.05,-474.9"/>
<polygon fill="#63b8ff" stroke="#63b8ff" points="1544.52,-475.33 1542.61,-464.91 1537.61,-474.25 1544.52,-475.33"/>
</g>
<!-- Node37 -->
<g id="node37" class="node">
<title>Node37</title>
<g id="a_node37"><a xlink:title=" ">
<polygon fill="#e0e0e0" stroke="#999999" points="1655.5,-464.5 1590.5,-464.5 1590.5,-445.5 1655.5,-445.5 1655.5,-464.5"/>
<text text-anchor="middle" x="1623" y="-452.5" font-family="Helvetica,sans-Serif" font-size="10.00">functional</text>
</a>
</g>
</g>
<!-- Node34&#45;&gt;Node37 -->
<g id="edge64" class="edge">
<title>Node34&#45;&gt;Node37</title>
<path fill="none" stroke="#63b8ff" d="M1546,-511.37C1560.47,-500.97 1585.01,-483.32 1602.49,-470.75"/>
<polygon fill="#63b8ff" stroke="#63b8ff" points="1604.83,-473.38 1610.9,-464.7 1600.74,-467.7 1604.83,-473.38"/>
</g>
</g>
</svg>
