<?xml version="1.0" encoding="UTF-8" standalone="no"?>
<!DOCTYPE svg PUBLIC "-//W3C//DTD SVG 1.1//EN"
 "http://www.w3.org/Graphics/SVG/1.1/DTD/svg11.dtd">
<!-- Generated by graphviz version 2.43.0 (0)
 -->
<!-- Title: CCLayer Pages: 1 -->
<svg width="1236pt" height="619pt"
 viewBox="0.00 0.00 1236.00 619.42" xmlns="http://www.w3.org/2000/svg" xmlns:xlink="http://www.w3.org/1999/xlink">
<g id="graph0" class="graph" transform="scale(1 1) rotate(0) translate(4 615.42)">
<title>CCLayer</title>
<!-- Node1 -->
<g id="node1" class="node">
<title>Node1</title>
<g id="a_node1"><a xlink:title="CCLayer is a subclass of CCNode that implements the TouchEventsDelegate protocol.">
<polygon fill="#bfbfbf" stroke="black" points="1171,-276.78 1171,-295.78 1228,-295.78 1228,-276.78 1171,-276.78"/>
<text text-anchor="middle" x="1199.5" y="-283.78" font-family="Helvetica,sans-Serif" font-size="10.00">CCLayer</text>
</a>
</g>
</g>
<!-- Node2 -->
<g id="node2" class="node">
<title>Node2</title>
<g id="a_node2"><a xlink:href="../../d0/ded/classcocos2d_1_1_c_c_node.html" target="_top" xlink:title="CCNode is the main element.">
<polygon fill="none" stroke="black" points="1033,-352.78 1033,-371.78 1089,-371.78 1089,-352.78 1033,-352.78"/>
<text text-anchor="middle" x="1061" y="-359.78" font-family="Helvetica,sans-Serif" font-size="10.00">CCNode</text>
</a>
</g>
</g>
<!-- Node2&#45;&gt;Node1 -->
<g id="edge1" class="edge">
<title>Node2&#45;&gt;Node1</title>
<path fill="none" stroke="midnightblue" d="M1099,-356C1110.63,-353.13 1123.24,-349.03 1134,-343.28 1157.2,-330.89 1178.98,-308.59 1190.34,-295.87"/>
<polygon fill="midnightblue" stroke="midnightblue" points="1098.09,-352.62 1089.1,-358.23 1099.62,-359.45 1098.09,-352.62"/>
</g>
<!-- Node2&#45;&gt;Node2 -->
<g id="edge23" class="edge">
<title>Node2&#45;&gt;Node2</title>
<path fill="none" stroke="#9a32cd" stroke-dasharray="5,2" d="M1044.33,-381.68C1045.45,-386.6 1051,-390.28 1061,-390.28 1077,-390.28 1081.62,-380.85 1074.87,-372.04"/>
<polygon fill="#9a32cd" stroke="#9a32cd" points="1047.71,-382.62 1047.13,-372.04 1040.98,-380.67 1047.71,-382.62"/>
<text text-anchor="middle" x="1061" y="-393.28" font-family="Helvetica,sans-Serif" font-size="10.00"> m_pParent</text>
</g>
<!-- Node3 -->
<g id="node3" class="node">
<title>Node3</title>
<g id="a_node3"><a xlink:href="../../d3/dbf/classcocos2d_1_1_c_c_object.html" target="_top" xlink:title="NA.">
<polygon fill="none" stroke="black" points="107,-254.78 107,-273.78 169,-273.78 169,-254.78 107,-254.78"/>
<text text-anchor="middle" x="138" y="-261.78" font-family="Helvetica,sans-Serif" font-size="10.00">CCObject</text>
</a>
</g>
</g>
<!-- Node3&#45;&gt;Node2 -->
<g id="edge2" class="edge">
<title>Node3&#45;&gt;Node2</title>
<path fill="none" stroke="midnightblue" d="M139.56,-284.09C141.67,-345.49 150.95,-531.22 187,-577.28 204.81,-600.03 218.11,-602.28 247,-602.28 247,-602.28 247,-602.28 758,-602.28 852.88,-602.28 894.23,-634.39 970,-577.28 1040.12,-524.43 1056.03,-406.7 1059.25,-372.05"/>
<polygon fill="midnightblue" stroke="midnightblue" points="143.05,-283.73 139.24,-273.84 136.05,-283.95 143.05,-283.73"/>
</g>
<!-- Node3&#45;&gt;Node2 -->
<g id="edge24" class="edge">
<title>Node3&#45;&gt;Node2</title>
<path fill="none" stroke="#9a32cd" stroke-dasharray="5,2" d="M141.72,-283.9C151.48,-350.41 187.39,-563.28 247,-563.28 247,-563.28 247,-563.28 758,-563.28 854.05,-563.28 892.14,-577.54 970,-521.28 1023.99,-482.27 1049.97,-400.27 1057.56,-372.06"/>
<polygon fill="#9a32cd" stroke="#9a32cd" points="145.17,-283.3 140.29,-273.89 138.24,-284.29 145.17,-283.3"/>
<text text-anchor="middle" x="500" y="-566.28" font-family="Helvetica,sans-Serif" font-size="10.00"> m_pUserObject</text>
</g>
<!-- Node8 -->
<g id="node8" class="node">
<title>Node8</title>
<g id="a_node8"><a xlink:href="../../d2/d51/classcocos2d_1_1_c_c_camera.html" target="_top" xlink:title="A CCCamera is used in every CCNode.">
<polygon fill="none" stroke="black" points="336,-501.78 336,-520.78 404,-520.78 404,-501.78 336,-501.78"/>
<text text-anchor="middle" x="370" y="-508.78" font-family="Helvetica,sans-Serif" font-size="10.00">CCCamera</text>
</a>
</g>
</g>
<!-- Node3&#45;&gt;Node8 -->
<g id="edge8" class="edge">
<title>Node3&#45;&gt;Node8</title>
<path fill="none" stroke="midnightblue" d="M142.43,-283.82C149.23,-317.7 167.26,-388.06 206,-433.28 240.08,-473.07 299.06,-494.14 335.95,-503.98"/>
<polygon fill="midnightblue" stroke="midnightblue" points="145.83,-282.99 140.54,-273.82 138.95,-284.29 145.83,-282.99"/>
</g>
<!-- Node9 -->
<g id="node9" class="node">
<title>Node9</title>
<g id="a_node9"><a xlink:href="../../d6/d70/classcocos2d_1_1_c_c_grid_base.html" target="_top" xlink:title="Base class for other.">
<polygon fill="none" stroke="black" points="720,-324.78 720,-343.78 794,-343.78 794,-324.78 720,-324.78"/>
<text text-anchor="middle" x="757" y="-331.78" font-family="Helvetica,sans-Serif" font-size="10.00">CCGridBase</text>
</a>
</g>
</g>
<!-- Node3&#45;&gt;Node9 -->
<g id="edge10" class="edge">
<title>Node3&#45;&gt;Node9</title>
<path fill="none" stroke="midnightblue" d="M179.46,-258.9C288,-245.14 583.34,-212.25 672,-249.28 709.33,-264.88 738.53,-306.03 750.32,-324.76"/>
<polygon fill="midnightblue" stroke="midnightblue" points="178.73,-255.47 169.26,-260.21 179.62,-262.41 178.73,-255.47"/>
</g>
<!-- Node10 -->
<g id="node10" class="node">
<title>Node10</title>
<g id="a_node10"><a xlink:href="../../d7/dfd/classcocos2d_1_1_c_c_texture2_d.html" target="_top" xlink:title="CCTexture2D class.">
<polygon fill="none" stroke="black" points="460,-346.78 460,-365.78 540,-365.78 540,-346.78 460,-346.78"/>
<text text-anchor="middle" x="500" y="-353.78" font-family="Helvetica,sans-Serif" font-size="10.00">CCTexture2D</text>
</a>
</g>
</g>
<!-- Node3&#45;&gt;Node10 -->
<g id="edge13" class="edge">
<title>Node3&#45;&gt;Node10</title>
<path fill="none" stroke="midnightblue" d="M162.31,-279.17C174.95,-286.91 191.02,-296.2 206,-303.28 249.73,-323.97 260.76,-330.84 308,-341.28 359.64,-352.7 420.81,-355.72 459.76,-356.37"/>
<polygon fill="midnightblue" stroke="midnightblue" points="164.11,-276.17 153.77,-273.87 160.42,-282.12 164.11,-276.17"/>
</g>
<!-- Node11 -->
<g id="node11" class="node">
<title>Node11</title>
<g id="a_node11"><a xlink:href="../../db/d28/classcocos2d_1_1_c_c_g_l_program.html" target="_top" xlink:title="CCGLProgram Class that implements a glProgram.">
<polygon fill="none" stroke="black" points="206,-274.78 206,-293.78 290,-293.78 290,-274.78 206,-274.78"/>
<text text-anchor="middle" x="248" y="-281.78" font-family="Helvetica,sans-Serif" font-size="10.00">CCGLProgram</text>
</a>
</g>
</g>
<!-- Node3&#45;&gt;Node11 -->
<g id="edge16" class="edge">
<title>Node3&#45;&gt;Node11</title>
<path fill="none" stroke="midnightblue" d="M179.03,-271.7C187.76,-273.31 197.01,-275.03 205.78,-276.65"/>
<polygon fill="midnightblue" stroke="midnightblue" points="179.55,-268.23 169.08,-269.85 178.28,-275.12 179.55,-268.23"/>
</g>
<!-- Node12 -->
<g id="node12" class="node">
<title>Node12</title>
<g id="a_node12"><a xlink:href="../../d3/d89/classcocos2d_1_1_c_c_grabber.html" target="_top" xlink:title="FBO class that grabs the the contents of the screen NA NA.">
<polygon fill="none" stroke="black" points="335.5,-185.78 335.5,-204.78 404.5,-204.78 404.5,-185.78 335.5,-185.78"/>
<text text-anchor="middle" x="370" y="-192.78" font-family="Helvetica,sans-Serif" font-size="10.00">CCGrabber</text>
</a>
</g>
</g>
<!-- Node3&#45;&gt;Node12 -->
<g id="edge19" class="edge">
<title>Node3&#45;&gt;Node12</title>
<path fill="none" stroke="midnightblue" d="M152.75,-246.86C161.47,-237.09 173.61,-225.62 187,-219.28 234.96,-196.58 297.52,-193.26 335.41,-193.71"/>
<polygon fill="midnightblue" stroke="midnightblue" points="150.05,-244.62 146.27,-254.52 155.4,-249.14 150.05,-244.62"/>
</g>
<!-- Node13 -->
<g id="node13" class="node">
<title>Node13</title>
<g id="a_node13"><a xlink:href="../../d9/d2e/classcocos2d_1_1_c_c_array.html" target="_top" xlink:title="NA.">
<polygon fill="none" stroke="black" points="220,-143.78 220,-162.78 276,-162.78 276,-143.78 220,-143.78"/>
<text text-anchor="middle" x="248" y="-150.78" font-family="Helvetica,sans-Serif" font-size="10.00">CCArray</text>
</a>
</g>
</g>
<!-- Node3&#45;&gt;Node13 -->
<g id="edge22" class="edge">
<title>Node3&#45;&gt;Node13</title>
<path fill="none" stroke="midnightblue" d="M146.08,-245.17C153.74,-226.75 167.52,-199.13 187,-181.28 196.32,-172.74 208.71,-166.37 219.81,-161.88"/>
<polygon fill="midnightblue" stroke="midnightblue" points="142.79,-243.98 142.38,-254.57 149.3,-246.55 142.79,-243.98"/>
</g>
<!-- Node14 -->
<g id="node14" class="node">
<title>Node14</title>
<g id="a_node14"><a xlink:href="../../de/dee/classcocos2d_1_1_c_c_scheduler.html" target="_top" xlink:title="Scheduler is responsible for triggering the scheduled callbacks.">
<polygon fill="none" stroke="black" points="461,-99.78 461,-118.78 539,-118.78 539,-99.78 461,-99.78"/>
<text text-anchor="middle" x="500" y="-106.78" font-family="Helvetica,sans-Serif" font-size="10.00">CCScheduler</text>
</a>
</g>
</g>
<!-- Node3&#45;&gt;Node14 -->
<g id="edge27" class="edge">
<title>Node3&#45;&gt;Node14</title>
<path fill="none" stroke="midnightblue" d="M143.63,-244.71C151.44,-216.03 170.05,-162.9 206,-134.28 279.9,-75.47 400,-88.6 460.94,-100.41"/>
<polygon fill="midnightblue" stroke="midnightblue" points="140.15,-244.17 141.07,-254.72 146.93,-245.9 140.15,-244.17"/>
</g>
<!-- Node15 -->
<g id="node15" class="node">
<title>Node15</title>
<g id="a_node15"><a xlink:href="../../d5/dcb/classcocos2d_1_1_c_c_action_manager.html" target="_top" xlink:title="CCActionManager is a singleton that manages all the actions.">
<polygon fill="none" stroke="black" points="568,-47.78 568,-66.78 672,-66.78 672,-47.78 568,-47.78"/>
<text text-anchor="middle" x="620" y="-54.78" font-family="Helvetica,sans-Serif" font-size="10.00">CCActionManager</text>
</a>
</g>
</g>
<!-- Node3&#45;&gt;Node15 -->
<g id="edge30" class="edge">
<title>Node3&#45;&gt;Node15</title>
<path fill="none" stroke="midnightblue" d="M140.36,-244.16C144.03,-207.59 157.41,-130.64 206,-94.28 317.25,-11.05 495.49,-32.29 576.49,-47.78"/>
<polygon fill="midnightblue" stroke="midnightblue" points="136.84,-244.25 139.49,-254.51 143.82,-244.85 136.84,-244.25"/>
</g>
<!-- Node4 -->
<g id="node4" class="node">
<title>Node4</title>
<g id="a_node4"><a xlink:href="../../d5/d61/classcocos2d_1_1_c_c_copying.html" target="_top" xlink:title="NA NA.">
<polygon fill="none" stroke="black" points="0,-254.78 0,-273.78 70,-273.78 70,-254.78 0,-254.78"/>
<text text-anchor="middle" x="35" y="-261.78" font-family="Helvetica,sans-Serif" font-size="10.00">CCCopying</text>
</a>
</g>
</g>
<!-- Node4&#45;&gt;Node3 -->
<g id="edge3" class="edge">
<title>Node4&#45;&gt;Node3</title>
<path fill="none" stroke="midnightblue" d="M80.2,-264.28C89.22,-264.28 98.51,-264.28 106.9,-264.28"/>
<polygon fill="midnightblue" stroke="midnightblue" points="80.19,-260.78 70.19,-264.28 80.19,-267.78 80.19,-260.78"/>
</g>
<!-- Node5 -->
<g id="node5" class="node">
<title>Node5</title>
<g id="a_node5"><a xlink:href="../../d2/df3/classcocos2d_1_1_c_c_point.html" target="_top" xlink:title="NA.">
<polygon fill="none" stroke="black" points="472.5,-431.78 472.5,-450.78 527.5,-450.78 527.5,-431.78 472.5,-431.78"/>
<text text-anchor="middle" x="500" y="-438.78" font-family="Helvetica,sans-Serif" font-size="10.00">CCPoint</text>
</a>
</g>
</g>
<!-- Node5&#45;&gt;Node2 -->
<g id="edge4" class="edge">
<title>Node5&#45;&gt;Node2</title>
<path fill="none" stroke="#9a32cd" stroke-dasharray="5,2" d="M538.01,-447.19C575.15,-451.06 632.38,-451.24 672,-424.28 686.46,-414.44 675.41,-398.93 690,-389.28 704.27,-379.85 949.79,-367.47 1032.82,-363.54"/>
<polygon fill="#9a32cd" stroke="#9a32cd" points="537.98,-443.66 527.64,-445.95 537.15,-450.61 537.98,-443.66"/>
<text text-anchor="middle" x="757" y="-414.28" font-family="Helvetica,sans-Serif" font-size="10.00"> m_obAnchorPoint</text>
<text text-anchor="middle" x="757" y="-403.28" font-family="Helvetica,sans-Serif" font-size="10.00">m_obAnchorPointInPoints</text>
<text text-anchor="middle" x="757" y="-392.28" font-family="Helvetica,sans-Serif" font-size="10.00">m_obPosition</text>
</g>
<!-- Node5&#45;&gt;Node9 -->
<g id="edge17" class="edge">
<title>Node5&#45;&gt;Node9</title>
<path fill="none" stroke="#9a32cd" stroke-dasharray="5,2" d="M530.36,-427.68C541.92,-422.68 555.42,-417.27 568,-413.28 613.13,-398.99 633.97,-418.48 672,-390.28 685.11,-380.56 677.56,-368.84 690,-358.28 698.55,-351.03 709.48,-345.89 719.98,-342.28"/>
<polygon fill="#9a32cd" stroke="#9a32cd" points="528.9,-424.5 521.17,-431.74 531.73,-430.9 528.9,-424.5"/>
<text text-anchor="middle" x="620" y="-416.28" font-family="Helvetica,sans-Serif" font-size="10.00"> m_obStep</text>
</g>
<!-- Node6 -->
<g id="node6" class="node">
<title>Node6</title>
<g id="a_node6"><a xlink:href="../../d9/d24/classcocos2d_1_1_c_c_size.html" target="_top" xlink:title="NA.">
<polygon fill="none" stroke="black" points="223,-404.78 223,-423.78 273,-423.78 273,-404.78 223,-404.78"/>
<text text-anchor="middle" x="248" y="-411.78" font-family="Helvetica,sans-Serif" font-size="10.00">CCSize</text>
</a>
</g>
</g>
<!-- Node6&#45;&gt;Node2 -->
<g id="edge5" class="edge">
<title>Node6&#45;&gt;Node2</title>
<path fill="none" stroke="#9a32cd" stroke-dasharray="5,2" d="M282.82,-424.46C322.45,-435.8 390.29,-453.46 450,-460.28 564.81,-473.4 864.32,-508.03 970,-461.28 1012.27,-442.58 1043.21,-393.13 1054.89,-372.04"/>
<polygon fill="#9a32cd" stroke="#9a32cd" points="283.72,-421.07 273.14,-421.65 281.77,-427.8 283.72,-421.07"/>
<text text-anchor="middle" x="620" y="-483.28" font-family="Helvetica,sans-Serif" font-size="10.00"> m_obContentSize</text>
</g>
<!-- Node6&#45;&gt;Node9 -->
<g id="edge11" class="edge">
<title>Node6&#45;&gt;Node9</title>
<path fill="none" stroke="#9a32cd" stroke-dasharray="5,2" d="M283.68,-413.39C356.64,-410.84 530.94,-401.18 672,-365.28 693.54,-359.8 717.23,-350.77 733.94,-343.87"/>
<polygon fill="#9a32cd" stroke="#9a32cd" points="283.14,-409.91 273.26,-413.73 283.37,-416.91 283.14,-409.91"/>
<text text-anchor="middle" x="500" y="-404.28" font-family="Helvetica,sans-Serif" font-size="10.00"> m_sGridSize</text>
</g>
<!-- Node6&#45;&gt;Node10 -->
<g id="edge14" class="edge">
<title>Node6&#45;&gt;Node10</title>
<path fill="none" stroke="#9a32cd" stroke-dasharray="5,2" d="M277.85,-400.5C287.29,-396.41 297.94,-392.24 308,-389.28 322.29,-385.08 408.12,-370.92 459.74,-362.57"/>
<polygon fill="#9a32cd" stroke="#9a32cd" points="276.22,-397.39 268.52,-404.67 279.08,-403.78 276.22,-397.39"/>
<text text-anchor="middle" x="370" y="-392.28" font-family="Helvetica,sans-Serif" font-size="10.00"> m_tContentSize</text>
</g>
<!-- Node7 -->
<g id="node7" class="node">
<title>Node7</title>
<g id="a_node7"><a xlink:href="../../da/dbf/structcocos2d_1_1_c_c_affine_transform.html" target="_top" xlink:title=" ">
<polygon fill="none" stroke="black" points="703.5,-431.78 703.5,-450.78 810.5,-450.78 810.5,-431.78 703.5,-431.78"/>
<text text-anchor="middle" x="757" y="-438.78" font-family="Helvetica,sans-Serif" font-size="10.00">CCAffineTransform</text>
</a>
</g>
</g>
<!-- Node7&#45;&gt;Node2 -->
<g id="edge6" class="edge">
<title>Node7&#45;&gt;Node2</title>
<path fill="none" stroke="#9a32cd" stroke-dasharray="5,2" d="M819.36,-429.77C861.96,-421.26 919.85,-408.7 970,-394.28 992.63,-387.78 1017.85,-378.64 1035.82,-371.8"/>
<polygon fill="#9a32cd" stroke="#9a32cd" points="818.55,-426.36 809.42,-431.73 819.91,-433.23 818.55,-426.36"/>
<text text-anchor="middle" x="906" y="-449.28" font-family="Helvetica,sans-Serif" font-size="10.00"> m_sAdditionalTransform</text>
<text text-anchor="middle" x="906" y="-438.28" font-family="Helvetica,sans-Serif" font-size="10.00">m_sInverse</text>
<text text-anchor="middle" x="906" y="-427.28" font-family="Helvetica,sans-Serif" font-size="10.00">m_sTransform</text>
</g>
<!-- Node8&#45;&gt;Node2 -->
<g id="edge7" class="edge">
<title>Node8&#45;&gt;Node2</title>
<path fill="none" stroke="#9a32cd" stroke-dasharray="5,2" d="M414.24,-514.93C535.21,-524.37 874.49,-545.39 970,-493.28 1020.14,-465.93 1048.04,-397.16 1056.88,-371.84"/>
<polygon fill="#9a32cd" stroke="#9a32cd" points="414.47,-511.44 404.23,-514.14 413.92,-518.42 414.47,-511.44"/>
<text text-anchor="middle" x="620" y="-529.28" font-family="Helvetica,sans-Serif" font-size="10.00"> m_pCamera</text>
</g>
<!-- Node9&#45;&gt;Node2 -->
<g id="edge9" class="edge">
<title>Node9&#45;&gt;Node2</title>
<path fill="none" stroke="#9a32cd" stroke-dasharray="5,2" d="M804.31,-338.58C868.1,-344.49 981,-354.96 1032.73,-359.76"/>
<polygon fill="#9a32cd" stroke="#9a32cd" points="804.41,-335.07 794.13,-337.63 803.76,-342.04 804.41,-335.07"/>
<text text-anchor="middle" x="906" y="-355.28" font-family="Helvetica,sans-Serif" font-size="10.00"> m_pGrid</text>
</g>
<!-- Node10&#45;&gt;Node9 -->
<g id="edge12" class="edge">
<title>Node10&#45;&gt;Node9</title>
<path fill="none" stroke="#9a32cd" stroke-dasharray="5,2" d="M550.2,-352.04C599.89,-347.75 675.47,-341.23 719.89,-337.4"/>
<polygon fill="#9a32cd" stroke="#9a32cd" points="549.67,-348.57 540.01,-352.92 550.27,-355.55 549.67,-348.57"/>
<text text-anchor="middle" x="620" y="-353.28" font-family="Helvetica,sans-Serif" font-size="10.00"> m_pTexture</text>
</g>
<!-- Node11&#45;&gt;Node2 -->
<g id="edge25" class="edge">
<title>Node11&#45;&gt;Node2</title>
<path fill="none" stroke="#9a32cd" stroke-dasharray="5,2" d="M300.52,-284.2C337.19,-284.29 387.64,-284.75 432,-286.28 672.08,-294.59 735.23,-287.36 970,-338.28 978.11,-340.04 979.99,-341.11 988,-343.28 1002.85,-347.31 1019.45,-351.69 1032.97,-355.24"/>
<polygon fill="#9a32cd" stroke="#9a32cd" points="300.08,-280.7 290.08,-284.18 300.07,-287.7 300.08,-280.7"/>
<text text-anchor="middle" x="620" y="-296.28" font-family="Helvetica,sans-Serif" font-size="10.00"> m_pShaderProgram</text>
</g>
<!-- Node11&#45;&gt;Node9 -->
<g id="edge20" class="edge">
<title>Node11&#45;&gt;Node9</title>
<path fill="none" stroke="#9a32cd" stroke-dasharray="5,2" d="M300.17,-289.33C402.68,-299.44 630.99,-321.96 719.74,-330.71"/>
<polygon fill="#9a32cd" stroke="#9a32cd" points="300.36,-285.83 290.06,-288.33 299.67,-292.8 300.36,-285.83"/>
<text text-anchor="middle" x="500" y="-316.28" font-family="Helvetica,sans-Serif" font-size="10.00"> m_pShaderProgram</text>
</g>
<!-- Node11&#45;&gt;Node10 -->
<g id="edge15" class="edge">
<title>Node11&#45;&gt;Node10</title>
<path fill="none" stroke="#9a32cd" stroke-dasharray="5,2" d="M279.82,-297.56C288.79,-301.08 298.68,-304.63 308,-307.28 361.91,-322.64 378.08,-314.97 432,-330.28 447.48,-334.68 464.37,-341.25 477.32,-346.68"/>
<polygon fill="#9a32cd" stroke="#9a32cd" points="281.1,-294.3 270.52,-293.8 278.48,-300.79 281.1,-294.3"/>
<text text-anchor="middle" x="370" y="-333.28" font-family="Helvetica,sans-Serif" font-size="10.00"> m_pShaderProgram</text>
</g>
<!-- Node12&#45;&gt;Node9 -->
<g id="edge18" class="edge">
<title>Node12&#45;&gt;Node9</title>
<path fill="none" stroke="#9a32cd" stroke-dasharray="5,2" d="M414.98,-187.84C476.75,-179.69 590.7,-173.28 672,-219.28 715.68,-244 742.91,-301.83 752.31,-324.72"/>
<polygon fill="#9a32cd" stroke="#9a32cd" points="414.23,-184.41 404.81,-189.26 415.19,-191.34 414.23,-184.41"/>
<text text-anchor="middle" x="500" y="-188.28" font-family="Helvetica,sans-Serif" font-size="10.00"> m_pGrabber</text>
</g>
<!-- Node13&#45;&gt;Node2 -->
<g id="edge21" class="edge">
<title>Node13&#45;&gt;Node2</title>
<path fill="none" stroke="#9a32cd" stroke-dasharray="5,2" d="M286.52,-150.21C361.17,-145.12 533.09,-138.6 672,-172.28 813.66,-206.64 864.08,-209.13 970,-309.28 982.42,-321.03 974.61,-332.65 988,-343.28 1000.66,-353.33 1018.12,-358.1 1032.68,-360.34"/>
<polygon fill="#9a32cd" stroke="#9a32cd" points="285.95,-146.74 276.23,-150.94 286.45,-153.72 285.95,-146.74"/>
<text text-anchor="middle" x="620" y="-175.28" font-family="Helvetica,sans-Serif" font-size="10.00"> m_pChildren</text>
</g>
<!-- Node13&#45;&gt;Node14 -->
<g id="edge28" class="edge">
<title>Node13&#45;&gt;Node14</title>
<path fill="none" stroke="#9a32cd" stroke-dasharray="5,2" d="M276.76,-139.49C286.43,-135.23 297.49,-130.97 308,-128.28 359.82,-115.05 421.74,-110.94 460.73,-109.72"/>
<polygon fill="#9a32cd" stroke="#9a32cd" points="275.25,-136.33 267.63,-143.68 278.17,-142.69 275.25,-136.33"/>
<text text-anchor="middle" x="370" y="-131.28" font-family="Helvetica,sans-Serif" font-size="10.00"> m_pScriptHandlerEntries</text>
</g>
<!-- Node14&#45;&gt;Node2 -->
<g id="edge26" class="edge">
<title>Node14&#45;&gt;Node2</title>
<path fill="none" stroke="#9a32cd" stroke-dasharray="5,2" d="M549.26,-104.2C656.94,-94.03 911.87,-76.77 970,-134.28 1003.14,-167.07 957.99,-307.61 988,-343.28 998.82,-356.14 1017.22,-360.84 1032.71,-362.35"/>
<polygon fill="#9a32cd" stroke="#9a32cd" points="548.63,-100.75 539.01,-105.19 549.3,-107.72 548.63,-100.75"/>
<text text-anchor="middle" x="757" y="-99.28" font-family="Helvetica,sans-Serif" font-size="10.00"> m_pScheduler</text>
</g>
<!-- Node15&#45;&gt;Node2 -->
<g id="edge29" class="edge">
<title>Node15&#45;&gt;Node2</title>
<path fill="none" stroke="#9a32cd" stroke-dasharray="5,2" d="M682.1,-54.87C771.61,-52.77 931.92,-54.97 970,-95.28 1007.94,-135.45 952.72,-300.76 988,-343.28 998.73,-356.22 1017.13,-360.91 1032.64,-362.41"/>
<polygon fill="#9a32cd" stroke="#9a32cd" points="681.98,-51.37 672.08,-55.13 682.16,-58.37 681.98,-51.37"/>
<text text-anchor="middle" x="757" y="-60.28" font-family="Helvetica,sans-Serif" font-size="10.00"> m_pActionManager</text>
</g>
<!-- Node16 -->
<g id="node16" class="node">
<title>Node16</title>
<g id="a_node16"><a xlink:href="../../d1/d65/classcocos2d_1_1_c_c_component_container.html" target="_top" xlink:title="NA NA.">
<polygon fill="none" stroke="black" points="690,-6.78 690,-25.78 824,-25.78 824,-6.78 690,-6.78"/>
<text text-anchor="middle" x="757" y="-13.78" font-family="Helvetica,sans-Serif" font-size="10.00">CCComponentContainer</text>
</a>
</g>
</g>
<!-- Node16&#45;&gt;Node2 -->
<g id="edge31" class="edge">
<title>Node16&#45;&gt;Node2</title>
<path fill="none" stroke="#9a32cd" stroke-dasharray="5,2" d="M807.25,-5.01C855.91,2.91 928.85,5.54 970,-37.28 1017.19,-86.4 944.86,-290.57 988,-343.28 998.72,-356.39 1017.33,-361.06 1032.94,-362.49"/>
<polygon fill="#9a32cd" stroke="#9a32cd" points="806.5,-1.59 797.26,-6.77 807.72,-8.48 806.5,-1.59"/>
<text text-anchor="middle" x="906" y="-40.28" font-family="Helvetica,sans-Serif" font-size="10.00"> m_pComponentContainer</text>
</g>
<!-- Node17 -->
<g id="node17" class="node">
<title>Node17</title>
<g id="a_node17"><a xlink:href="../../d0/d38/classcocos2d_1_1_c_c_touch_delegate.html" target="_top" xlink:title=" ">
<polygon fill="none" stroke="black" points="1010,-314.78 1010,-333.78 1112,-333.78 1112,-314.78 1010,-314.78"/>
<text text-anchor="middle" x="1061" y="-321.78" font-family="Helvetica,sans-Serif" font-size="10.00">CCTouchDelegate</text>
</a>
</g>
</g>
<!-- Node17&#45;&gt;Node1 -->
<g id="edge32" class="edge">
<title>Node17&#45;&gt;Node1</title>
<path fill="none" stroke="midnightblue" d="M1109.65,-312.11C1123.65,-308.42 1138.97,-304.29 1153,-300.28 1158.72,-298.65 1164.82,-296.83 1170.64,-295.05"/>
<polygon fill="midnightblue" stroke="midnightblue" points="1108.52,-308.79 1099.73,-314.7 1110.29,-315.56 1108.52,-308.79"/>
</g>
<!-- Node18 -->
<g id="node18" class="node">
<title>Node18</title>
<g id="a_node18"><a xlink:href="../../da/d55/classcocos2d_1_1_c_c_accelerometer_delegate.html" target="_top" xlink:title="The CCAccelerometerDelegate defines a single method for receiving acceleration&#45;related data from the ...">
<polygon fill="none" stroke="black" points="988,-276.78 988,-295.78 1134,-295.78 1134,-276.78 988,-276.78"/>
<text text-anchor="middle" x="1061" y="-283.78" font-family="Helvetica,sans-Serif" font-size="10.00">CCAccelerometerDelegate</text>
</a>
</g>
</g>
<!-- Node18&#45;&gt;Node1 -->
<g id="edge33" class="edge">
<title>Node18&#45;&gt;Node1</title>
<path fill="none" stroke="midnightblue" d="M1144.27,-286.28C1153.78,-286.28 1162.91,-286.28 1170.88,-286.28"/>
<polygon fill="midnightblue" stroke="midnightblue" points="1144.25,-282.78 1134.25,-286.28 1144.25,-289.78 1144.25,-282.78"/>
</g>
<!-- Node19 -->
<g id="node19" class="node">
<title>Node19</title>
<g id="a_node19"><a xlink:href="../../d2/d2d/classcocos2d_1_1_c_c_keypad_delegate.html" target="_top" xlink:title=" ">
<polygon fill="none" stroke="black" points="1006,-238.78 1006,-257.78 1116,-257.78 1116,-238.78 1006,-238.78"/>
<text text-anchor="middle" x="1061" y="-245.78" font-family="Helvetica,sans-Serif" font-size="10.00">CCKeypadDelegate</text>
</a>
</g>
</g>
<!-- Node19&#45;&gt;Node1 -->
<g id="edge34" class="edge">
<title>Node19&#45;&gt;Node1</title>
<path fill="none" stroke="midnightblue" d="M1108.76,-260.42C1117.17,-262.66 1125.86,-265.01 1134,-267.28 1146.14,-270.67 1159.52,-274.59 1170.93,-277.97"/>
<polygon fill="midnightblue" stroke="midnightblue" points="1109.62,-257.02 1099.05,-257.85 1107.82,-263.79 1109.62,-257.02"/>
</g>
<!-- Node20 -->
<g id="node20" class="node">
<title>Node20</title>
<g id="a_node20"><a xlink:href="../../d2/d91/classcocos2d_1_1_c_c_keyboard_delegate.html" target="_top" xlink:title=" ">
<polygon fill="none" stroke="black" points="1001,-200.78 1001,-219.78 1121,-219.78 1121,-200.78 1001,-200.78"/>
<text text-anchor="middle" x="1061" y="-207.78" font-family="Helvetica,sans-Serif" font-size="10.00">CCKeyboardDelegate</text>
</a>
</g>
</g>
<!-- Node20&#45;&gt;Node1 -->
<g id="edge35" class="edge">
<title>Node20&#45;&gt;Node1</title>
<path fill="none" stroke="midnightblue" d="M1120.51,-223.2C1125.18,-224.98 1129.74,-227 1134,-229.28 1157.2,-241.68 1178.98,-263.97 1190.34,-276.7"/>
<polygon fill="midnightblue" stroke="midnightblue" points="1121.41,-219.81 1110.82,-219.85 1119.13,-226.42 1121.41,-219.81"/>
</g>
</g>
</svg>
