<?xml version="1.0" encoding="UTF-8" standalone="no"?>
<!DOCTYPE svg PUBLIC "-//W3C//DTD SVG 1.1//EN"
 "http://www.w3.org/Graphics/SVG/1.1/DTD/svg11.dtd">
<!-- Generated by graphviz version 2.43.0 (0)
 -->
<!-- Title: /home/runner/work/cocos&#45;headers/cocos&#45;headers/cocos2dx/platform/winrt/CCStdC.h Pages: 1 -->
<svg width="894pt" height="229pt"
 viewBox="0.00 0.00 893.50 229.00" xmlns="http://www.w3.org/2000/svg" xmlns:xlink="http://www.w3.org/1999/xlink">
<g id="graph0" class="graph" transform="scale(1 1) rotate(0) translate(4 225)">
<title>/home/runner/work/cocos&#45;headers/cocos&#45;headers/cocos2dx/platform/winrt/CCStdC.h</title>
<!-- Node1 -->
<g id="node1" class="node">
<title>Node1</title>
<g id="a_node1"><a xlink:title=" ">
<polygon fill="#bfbfbf" stroke="black" points="406.5,-168.5 406.5,-220.5 546.5,-220.5 546.5,-168.5 406.5,-168.5"/>
<text text-anchor="start" x="414.5" y="-208.5" font-family="Helvetica,sans-Serif" font-size="10.00">/home/runner/work/cocos</text>
<text text-anchor="start" x="414.5" y="-197.5" font-family="Helvetica,sans-Serif" font-size="10.00">&#45;headers/cocos&#45;headers</text>
<text text-anchor="start" x="414.5" y="-186.5" font-family="Helvetica,sans-Serif" font-size="10.00">/cocos2dx/platform/winrt</text>
<text text-anchor="middle" x="476.5" y="-175.5" font-family="Helvetica,sans-Serif" font-size="10.00">/CCStdC.h</text>
</a>
</g>
</g>
<!-- Node2 -->
<g id="node2" class="node">
<title>Node2</title>
<g id="a_node2"><a xlink:href="../../d3/d41/_c_c_platform_macros_8h.html" target="_top" xlink:title=" ">
<polygon fill="none" stroke="black" points="29,-112.5 29,-131.5 190,-131.5 190,-112.5 29,-112.5"/>
<text text-anchor="middle" x="109.5" y="-119.5" font-family="Helvetica,sans-Serif" font-size="10.00">platform/CCPlatformMacros.h</text>
</a>
</g>
</g>
<!-- Node1&#45;&gt;Node2 -->
<g id="edge1" class="edge">
<title>Node1&#45;&gt;Node2</title>
<path fill="none" stroke="midnightblue" d="M406.17,-179.99C335.54,-166.42 228.21,-145.8 163.86,-133.44"/>
<polygon fill="midnightblue" stroke="midnightblue" points="164.39,-129.98 153.91,-131.53 163.07,-136.86 164.39,-129.98"/>
</g>
<!-- Node6 -->
<g id="node6" class="node">
<title>Node6</title>
<g id="a_node6"><a xlink:title=" ">
<polygon fill="none" stroke="#bfbfbf" points="208,-112.5 208,-131.5 255,-131.5 255,-112.5 208,-112.5"/>
<text text-anchor="middle" x="231.5" y="-119.5" font-family="Helvetica,sans-Serif" font-size="10.00">float.h</text>
</a>
</g>
</g>
<!-- Node1&#45;&gt;Node6 -->
<g id="edge6" class="edge">
<title>Node1&#45;&gt;Node6</title>
<path fill="none" stroke="midnightblue" d="M406.29,-173.3C359.96,-159.97 301.35,-143.1 265.14,-132.68"/>
<polygon fill="midnightblue" stroke="midnightblue" points="265.69,-129.2 255.11,-129.79 263.75,-135.92 265.69,-129.2"/>
</g>
<!-- Node7 -->
<g id="node7" class="node">
<title>Node7</title>
<g id="a_node7"><a xlink:title=" ">
<polygon fill="none" stroke="#bfbfbf" points="273,-112.5 273,-131.5 324,-131.5 324,-112.5 273,-112.5"/>
<text text-anchor="middle" x="298.5" y="-119.5" font-family="Helvetica,sans-Serif" font-size="10.00">math.h</text>
</a>
</g>
</g>
<!-- Node1&#45;&gt;Node7 -->
<g id="edge7" class="edge">
<title>Node1&#45;&gt;Node7</title>
<path fill="none" stroke="midnightblue" d="M413.24,-168.45C384.87,-157.21 352.67,-144.45 329.62,-135.33"/>
<polygon fill="midnightblue" stroke="midnightblue" points="330.62,-131.96 320.03,-131.53 328.04,-138.46 330.62,-131.96"/>
</g>
<!-- Node8 -->
<g id="node8" class="node">
<title>Node8</title>
<g id="a_node8"><a xlink:title=" ">
<polygon fill="none" stroke="#bfbfbf" points="342,-112.5 342,-131.5 395,-131.5 395,-112.5 342,-112.5"/>
<text text-anchor="middle" x="368.5" y="-119.5" font-family="Helvetica,sans-Serif" font-size="10.00">string.h</text>
</a>
</g>
</g>
<!-- Node1&#45;&gt;Node8 -->
<g id="edge8" class="edge">
<title>Node1&#45;&gt;Node8</title>
<path fill="none" stroke="midnightblue" d="M438.12,-168.45C422.06,-157.96 403.98,-146.16 390.28,-137.22"/>
<polygon fill="midnightblue" stroke="midnightblue" points="391.85,-134.06 381.56,-131.53 388.02,-139.92 391.85,-134.06"/>
</g>
<!-- Node9 -->
<g id="node9" class="node">
<title>Node9</title>
<g id="a_node9"><a xlink:title=" ">
<polygon fill="none" stroke="#bfbfbf" points="413.5,-112.5 413.5,-131.5 469.5,-131.5 469.5,-112.5 413.5,-112.5"/>
<text text-anchor="middle" x="441.5" y="-119.5" font-family="Helvetica,sans-Serif" font-size="10.00">stdarg.h</text>
</a>
</g>
</g>
<!-- Node1&#45;&gt;Node9 -->
<g id="edge9" class="edge">
<title>Node1&#45;&gt;Node9</title>
<path fill="none" stroke="midnightblue" d="M464.06,-168.45C459.54,-159.33 454.52,-149.22 450.36,-140.85"/>
<polygon fill="midnightblue" stroke="midnightblue" points="453.4,-139.1 445.82,-131.7 447.13,-142.21 453.4,-139.1"/>
</g>
<!-- Node10 -->
<g id="node10" class="node">
<title>Node10</title>
<g id="a_node10"><a xlink:title=" ">
<polygon fill="none" stroke="#bfbfbf" points="487.5,-112.5 487.5,-131.5 537.5,-131.5 537.5,-112.5 487.5,-112.5"/>
<text text-anchor="middle" x="512.5" y="-119.5" font-family="Helvetica,sans-Serif" font-size="10.00">stdio.h</text>
</a>
</g>
</g>
<!-- Node1&#45;&gt;Node10 -->
<g id="edge10" class="edge">
<title>Node1&#45;&gt;Node10</title>
<path fill="none" stroke="midnightblue" d="M489.29,-168.45C493.95,-159.33 499.11,-149.22 503.38,-140.85"/>
<polygon fill="midnightblue" stroke="midnightblue" points="506.63,-142.19 508.06,-131.7 500.39,-139.01 506.63,-142.19"/>
</g>
<!-- Node11 -->
<g id="node11" class="node">
<title>Node11</title>
<g id="a_node11"><a xlink:title=" ">
<polygon fill="none" stroke="#bfbfbf" points="556,-112.5 556,-131.5 609,-131.5 609,-112.5 556,-112.5"/>
<text text-anchor="middle" x="582.5" y="-119.5" font-family="Helvetica,sans-Serif" font-size="10.00">stdlib.h</text>
</a>
</g>
</g>
<!-- Node1&#45;&gt;Node11 -->
<g id="edge11" class="edge">
<title>Node1&#45;&gt;Node11</title>
<path fill="none" stroke="midnightblue" d="M514.17,-168.45C529.93,-157.96 547.67,-146.16 561.13,-137.22"/>
<polygon fill="midnightblue" stroke="midnightblue" points="563.29,-139.98 569.68,-131.53 559.41,-134.15 563.29,-139.98"/>
</g>
<!-- Node12 -->
<g id="node12" class="node">
<title>Node12</title>
<g id="a_node12"><a xlink:title=" ">
<polygon fill="none" stroke="#bfbfbf" points="627.5,-112.5 627.5,-131.5 675.5,-131.5 675.5,-112.5 627.5,-112.5"/>
<text text-anchor="middle" x="651.5" y="-119.5" font-family="Helvetica,sans-Serif" font-size="10.00">time.h</text>
</a>
</g>
</g>
<!-- Node1&#45;&gt;Node12 -->
<g id="edge12" class="edge">
<title>Node1&#45;&gt;Node12</title>
<path fill="none" stroke="midnightblue" d="M538.69,-168.45C566.59,-157.21 598.24,-144.45 620.91,-135.33"/>
<polygon fill="midnightblue" stroke="midnightblue" points="622.37,-138.51 630.33,-131.53 619.75,-132.02 622.37,-138.51"/>
</g>
<!-- Node13 -->
<g id="node13" class="node">
<title>Node13</title>
<g id="a_node13"><a xlink:href="../../db/de0/winrt_2compat_2stdint_8h.html" target="_top" xlink:title=" ">
<polygon fill="none" stroke="black" points="694,-112.5 694,-131.5 793,-131.5 793,-112.5 694,-112.5"/>
<text text-anchor="middle" x="743.5" y="-119.5" font-family="Helvetica,sans-Serif" font-size="10.00">./compat/stdint.h</text>
</a>
</g>
</g>
<!-- Node1&#45;&gt;Node13 -->
<g id="edge13" class="edge">
<title>Node1&#45;&gt;Node13</title>
<path fill="none" stroke="midnightblue" d="M546.65,-174.98C595.75,-162.01 659.74,-145.12 701.21,-134.17"/>
<polygon fill="midnightblue" stroke="midnightblue" points="702.22,-137.52 710.99,-131.58 700.43,-130.75 702.22,-137.52"/>
</g>
<!-- Node16 -->
<g id="node16" class="node">
<title>Node16</title>
<g id="a_node16"><a xlink:title=" ">
<polygon fill="none" stroke="#bfbfbf" points="811.5,-112.5 811.5,-131.5 885.5,-131.5 885.5,-112.5 811.5,-112.5"/>
<text text-anchor="middle" x="848.5" y="-119.5" font-family="Helvetica,sans-Serif" font-size="10.00">WinSock2.h</text>
</a>
</g>
</g>
<!-- Node1&#45;&gt;Node16 -->
<g id="edge16" class="edge">
<title>Node1&#45;&gt;Node16</title>
<path fill="none" stroke="midnightblue" d="M546.8,-180.38C610.58,-168.44 707.5,-150.22 801.39,-132.2"/>
<polygon fill="midnightblue" stroke="midnightblue" points="802.19,-135.62 811.35,-130.29 800.87,-128.74 802.19,-135.62"/>
</g>
<!-- Node3 -->
<g id="node3" class="node">
<title>Node3</title>
<g id="a_node3"><a xlink:href="../../db/d9f/cc_config_8h.html" target="_top" xlink:title="cocos2d (cc) configuration file">
<polygon fill="none" stroke="black" points="14,-56.5 14,-75.5 81,-75.5 81,-56.5 14,-56.5"/>
<text text-anchor="middle" x="47.5" y="-63.5" font-family="Helvetica,sans-Serif" font-size="10.00">ccConfig.h</text>
</a>
</g>
</g>
<!-- Node2&#45;&gt;Node3 -->
<g id="edge2" class="edge">
<title>Node2&#45;&gt;Node3</title>
<path fill="none" stroke="midnightblue" d="M99.54,-112.32C90.37,-104.34 76.56,-92.31 65.47,-82.65"/>
<polygon fill="midnightblue" stroke="midnightblue" points="67.48,-79.76 57.64,-75.83 62.88,-85.04 67.48,-79.76"/>
</g>
<!-- Node4 -->
<g id="node4" class="node">
<title>Node4</title>
<g id="a_node4"><a xlink:href="../../dd/d96/_c_c_platform_config_8h.html" target="_top" xlink:title=" ">
<polygon fill="none" stroke="black" points="0,-0.5 0,-19.5 157,-19.5 157,-0.5 0,-0.5"/>
<text text-anchor="middle" x="78.5" y="-7.5" font-family="Helvetica,sans-Serif" font-size="10.00">platform/CCPlatformConfig.h</text>
</a>
</g>
</g>
<!-- Node2&#45;&gt;Node4 -->
<g id="edge4" class="edge">
<title>Node2&#45;&gt;Node4</title>
<path fill="none" stroke="midnightblue" d="M107.07,-112.37C102.04,-94.54 90.42,-53.3 83.65,-29.27"/>
<polygon fill="midnightblue" stroke="midnightblue" points="87,-28.27 80.92,-19.59 80.27,-30.17 87,-28.27"/>
</g>
<!-- Node5 -->
<g id="node5" class="node">
<title>Node5</title>
<g id="a_node5"><a xlink:title=" ">
<polygon fill="none" stroke="#bfbfbf" points="138,-56.5 138,-75.5 251,-75.5 251,-56.5 138,-56.5"/>
<text text-anchor="middle" x="194.5" y="-63.5" font-family="Helvetica,sans-Serif" font-size="10.00">CCPlatformDefine.h</text>
</a>
</g>
</g>
<!-- Node2&#45;&gt;Node5 -->
<g id="edge5" class="edge">
<title>Node2&#45;&gt;Node5</title>
<path fill="none" stroke="midnightblue" d="M123.16,-112.32C136.42,-103.9 156.77,-90.97 172.35,-81.07"/>
<polygon fill="midnightblue" stroke="midnightblue" points="174.31,-83.97 180.88,-75.65 170.56,-78.06 174.31,-83.97"/>
</g>
<!-- Node3&#45;&gt;Node4 -->
<g id="edge3" class="edge">
<title>Node3&#45;&gt;Node4</title>
<path fill="none" stroke="midnightblue" d="M52.62,-56.08C56.91,-48.61 63.16,-37.72 68.44,-28.52"/>
<polygon fill="midnightblue" stroke="midnightblue" points="71.53,-30.17 73.48,-19.75 65.46,-26.68 71.53,-30.17"/>
</g>
<!-- Node14 -->
<g id="node14" class="node">
<title>Node14</title>
<g id="a_node14"><a xlink:title=" ">
<polygon fill="none" stroke="#bfbfbf" points="681,-56.5 681,-75.5 734,-75.5 734,-56.5 681,-56.5"/>
<text text-anchor="middle" x="707.5" y="-63.5" font-family="Helvetica,sans-Serif" font-size="10.00">limits.h</text>
</a>
</g>
</g>
<!-- Node13&#45;&gt;Node14 -->
<g id="edge14" class="edge">
<title>Node13&#45;&gt;Node14</title>
<path fill="none" stroke="midnightblue" d="M737.56,-112.08C732.52,-104.53 725.16,-93.49 718.99,-84.23"/>
<polygon fill="midnightblue" stroke="midnightblue" points="721.79,-82.13 713.33,-75.75 715.97,-86.01 721.79,-82.13"/>
</g>
<!-- Node15 -->
<g id="node15" class="node">
<title>Node15</title>
<g id="a_node15"><a xlink:title=" ">
<polygon fill="none" stroke="#bfbfbf" points="752.5,-56.5 752.5,-75.5 806.5,-75.5 806.5,-56.5 752.5,-56.5"/>
<text text-anchor="middle" x="779.5" y="-63.5" font-family="Helvetica,sans-Serif" font-size="10.00">wchar.h</text>
</a>
</g>
</g>
<!-- Node13&#45;&gt;Node15 -->
<g id="edge15" class="edge">
<title>Node13&#45;&gt;Node15</title>
<path fill="none" stroke="midnightblue" d="M749.44,-112.08C754.48,-104.53 761.84,-93.49 768.01,-84.23"/>
<polygon fill="midnightblue" stroke="midnightblue" points="771.03,-86.01 773.67,-75.75 765.21,-82.13 771.03,-86.01"/>
</g>
</g>
</svg>
