<?xml version="1.0" encoding="UTF-8" standalone="no"?>
<!DOCTYPE svg PUBLIC "-//W3C//DTD SVG 1.1//EN"
 "http://www.w3.org/Graphics/SVG/1.1/DTD/svg11.dtd">
<!-- Generated by graphviz version 2.43.0 (0)
 -->
<!-- Title: CCAccelDeccelAmplitude Pages: 1 -->
<svg width="148pt" height="302pt"
 viewBox="0.00 0.00 148.00 302.00" xmlns="http://www.w3.org/2000/svg" xmlns:xlink="http://www.w3.org/1999/xlink">
<g id="graph0" class="graph" transform="scale(1 1) rotate(0) translate(4 298)">
<title>CCAccelDeccelAmplitude</title>
<!-- Node1 -->
<g id="node1" class="node">
<title>Node1</title>
<g id="a_node1"><a xlink:title="CCAccelDeccelAmplitude action.">
<polygon fill="#999999" stroke="#666666" points="140,-19 0,-19 0,0 140,0 140,-19"/>
<text text-anchor="middle" x="70" y="-7" font-family="Helvetica,sans-Serif" font-size="10.00">CCAccelDeccelAmplitude</text>
</a>
</g>
</g>
<!-- Node2 -->
<g id="node2" class="node">
<title>Node2</title>
<g id="a_node2"><a xlink:href="../../dd/d8d/classcocos2d_1_1_c_c_action_interval.html" target="_top" xlink:title="An interval action is an action that takes place within a certain period of time.">
<polygon fill="white" stroke="#666666" points="119,-74 21,-74 21,-55 119,-55 119,-74"/>
<text text-anchor="middle" x="70" y="-62" font-family="Helvetica,sans-Serif" font-size="10.00">CCActionInterval</text>
</a>
</g>
</g>
<!-- Node2&#45;&gt;Node1 -->
<g id="edge1" class="edge">
<title>Node2&#45;&gt;Node1</title>
<path fill="none" stroke="#63b8ff" d="M70,-44.66C70,-35.93 70,-25.99 70,-19.09"/>
<polygon fill="#63b8ff" stroke="#63b8ff" points="66.5,-44.75 70,-54.75 73.5,-44.75 66.5,-44.75"/>
</g>
<!-- Node3 -->
<g id="node3" class="node">
<title>Node3</title>
<g id="a_node3"><a xlink:href="../../dd/d89/classcocos2d_1_1_c_c_finite_time_action.html" target="_top" xlink:title="Base class actions that do have a finite time duration.">
<polygon fill="white" stroke="#666666" points="126.5,-129 13.5,-129 13.5,-110 126.5,-110 126.5,-129"/>
<text text-anchor="middle" x="70" y="-117" font-family="Helvetica,sans-Serif" font-size="10.00">CCFiniteTimeAction</text>
</a>
</g>
</g>
<!-- Node3&#45;&gt;Node2 -->
<g id="edge2" class="edge">
<title>Node3&#45;&gt;Node2</title>
<path fill="none" stroke="#63b8ff" d="M70,-99.66C70,-90.93 70,-80.99 70,-74.09"/>
<polygon fill="#63b8ff" stroke="#63b8ff" points="66.5,-99.75 70,-109.75 73.5,-99.75 66.5,-99.75"/>
</g>
<!-- Node4 -->
<g id="node4" class="node">
<title>Node4</title>
<g id="a_node4"><a xlink:href="../../d7/d12/classcocos2d_1_1_c_c_action.html" target="_top" xlink:title="Base class for CCAction objects.">
<polygon fill="white" stroke="#666666" points="100.5,-184 39.5,-184 39.5,-165 100.5,-165 100.5,-184"/>
<text text-anchor="middle" x="70" y="-172" font-family="Helvetica,sans-Serif" font-size="10.00">CCAction</text>
</a>
</g>
</g>
<!-- Node4&#45;&gt;Node3 -->
<g id="edge3" class="edge">
<title>Node4&#45;&gt;Node3</title>
<path fill="none" stroke="#63b8ff" d="M70,-154.66C70,-145.93 70,-135.99 70,-129.09"/>
<polygon fill="#63b8ff" stroke="#63b8ff" points="66.5,-154.75 70,-164.75 73.5,-154.75 66.5,-154.75"/>
</g>
<!-- Node5 -->
<g id="node5" class="node">
<title>Node5</title>
<g id="a_node5"><a xlink:href="../../d3/dbf/classcocos2d_1_1_c_c_object.html" target="_top" xlink:title="NA.">
<polygon fill="white" stroke="#666666" points="101,-239 39,-239 39,-220 101,-220 101,-239"/>
<text text-anchor="middle" x="70" y="-227" font-family="Helvetica,sans-Serif" font-size="10.00">CCObject</text>
</a>
</g>
</g>
<!-- Node5&#45;&gt;Node4 -->
<g id="edge4" class="edge">
<title>Node5&#45;&gt;Node4</title>
<path fill="none" stroke="#63b8ff" d="M70,-209.66C70,-200.93 70,-190.99 70,-184.09"/>
<polygon fill="#63b8ff" stroke="#63b8ff" points="66.5,-209.75 70,-219.75 73.5,-209.75 66.5,-209.75"/>
</g>
<!-- Node6 -->
<g id="node6" class="node">
<title>Node6</title>
<g id="a_node6"><a xlink:href="../../d5/d61/classcocos2d_1_1_c_c_copying.html" target="_top" xlink:title="NA NA.">
<polygon fill="white" stroke="#666666" points="105,-294 35,-294 35,-275 105,-275 105,-294"/>
<text text-anchor="middle" x="70" y="-282" font-family="Helvetica,sans-Serif" font-size="10.00">CCCopying</text>
</a>
</g>
</g>
<!-- Node6&#45;&gt;Node5 -->
<g id="edge5" class="edge">
<title>Node6&#45;&gt;Node5</title>
<path fill="none" stroke="#63b8ff" d="M70,-264.66C70,-255.93 70,-245.99 70,-239.09"/>
<polygon fill="#63b8ff" stroke="#63b8ff" points="66.5,-264.75 70,-274.75 73.5,-264.75 66.5,-264.75"/>
</g>
</g>
</svg>
