<?xml version="1.0" encoding="UTF-8" standalone="no"?>
<!DOCTYPE svg PUBLIC "-//W3C//DTD SVG 1.1//EN"
 "http://www.w3.org/Graphics/SVG/1.1/DTD/svg11.dtd">
<!-- Generated by graphviz version 2.43.0 (0)
 -->
<!-- Title: /home/runner/work/cocos&#45;headers/cocos&#45;headers/cocos2dx/platform/winrt/CCGL_Angle.h Pages: 1 -->
<svg width="425pt" height="137pt"
 viewBox="0.00 0.00 425.00 137.00" xmlns="http://www.w3.org/2000/svg" xmlns:xlink="http://www.w3.org/1999/xlink">
<g id="graph0" class="graph" transform="scale(1 1) rotate(0) translate(4 133)">
<title>/home/runner/work/cocos&#45;headers/cocos&#45;headers/cocos2dx/platform/winrt/CCGL_Angle.h</title>
<!-- Node1 -->
<g id="node1" class="node">
<title>Node1</title>
<g id="a_node1"><a xlink:title=" ">
<polygon fill="#999999" stroke="#666666" points="266.5,-129 126.5,-129 126.5,-77 266.5,-77 266.5,-129"/>
<text text-anchor="start" x="134.5" y="-117" font-family="Helvetica,sans-Serif" font-size="10.00">/home/runner/work/cocos</text>
<text text-anchor="start" x="134.5" y="-106" font-family="Helvetica,sans-Serif" font-size="10.00">&#45;headers/cocos&#45;headers</text>
<text text-anchor="start" x="134.5" y="-95" font-family="Helvetica,sans-Serif" font-size="10.00">/cocos2dx/platform/winrt</text>
<text text-anchor="middle" x="196.5" y="-84" font-family="Helvetica,sans-Serif" font-size="10.00">/CCGL_Angle.h</text>
</a>
</g>
</g>
<!-- Node2 -->
<g id="node2" class="node">
<title>Node2</title>
<g id="a_node2"><a xlink:title=" ">
<polygon fill="#e0e0e0" stroke="#999999" points="119,-41 0,-41 0,0 119,0 119,-41"/>
<text text-anchor="start" x="8" y="-29" font-family="Helvetica,sans-Serif" font-size="10.00">../third_party/winrt</text>
<text text-anchor="start" x="8" y="-18" font-family="Helvetica,sans-Serif" font-size="10.00">/angleproject/include</text>
<text text-anchor="middle" x="59.5" y="-7" font-family="Helvetica,sans-Serif" font-size="10.00">/GLES2/gl2.h</text>
</a>
</g>
</g>
<!-- Node1&#45;&gt;Node2 -->
<g id="edge1" class="edge">
<title>Node1&#45;&gt;Node2</title>
<path fill="none" stroke="#63b8ff" d="M153.9,-76.97C137.33,-67.23 118.39,-56.11 101.85,-46.38"/>
<polygon fill="#63b8ff" stroke="#63b8ff" points="103.33,-43.19 92.93,-41.15 99.78,-49.23 103.33,-43.19"/>
</g>
<!-- Node3 -->
<g id="node3" class="node">
<title>Node3</title>
<g id="a_node3"><a xlink:title=" ">
<polygon fill="#e0e0e0" stroke="#999999" points="256,-41 137,-41 137,0 256,0 256,-41"/>
<text text-anchor="start" x="145" y="-29" font-family="Helvetica,sans-Serif" font-size="10.00">../third_party/winrt</text>
<text text-anchor="start" x="145" y="-18" font-family="Helvetica,sans-Serif" font-size="10.00">/angleproject/include</text>
<text text-anchor="middle" x="196.5" y="-7" font-family="Helvetica,sans-Serif" font-size="10.00">/GLES2/gl2ext.h</text>
</a>
</g>
</g>
<!-- Node1&#45;&gt;Node3 -->
<g id="edge2" class="edge">
<title>Node1&#45;&gt;Node3</title>
<path fill="none" stroke="#63b8ff" d="M196.5,-76.97C196.5,-68.86 196.5,-59.78 196.5,-51.35"/>
<polygon fill="#63b8ff" stroke="#63b8ff" points="200,-51.15 196.5,-41.15 193,-51.15 200,-51.15"/>
</g>
<!-- Node4 -->
<g id="node4" class="node">
<title>Node4</title>
<g id="a_node4"><a xlink:title=" ">
<polygon fill="#e0e0e0" stroke="#999999" points="417,-41 274,-41 274,0 417,0 417,-41"/>
<text text-anchor="start" x="282" y="-29" font-family="Helvetica,sans-Serif" font-size="10.00">../third_party/winrt</text>
<text text-anchor="start" x="282" y="-18" font-family="Helvetica,sans-Serif" font-size="10.00">/angleproject/src/common</text>
<text text-anchor="middle" x="345.5" y="-7" font-family="Helvetica,sans-Serif" font-size="10.00">/winrtangle.h</text>
</a>
</g>
</g>
<!-- Node1&#45;&gt;Node4 -->
<g id="edge3" class="edge">
<title>Node1&#45;&gt;Node4</title>
<path fill="none" stroke="#63b8ff" d="M242.83,-76.97C261.01,-67.14 281.83,-55.9 299.94,-46.11"/>
<polygon fill="#63b8ff" stroke="#63b8ff" points="302,-48.98 309.14,-41.15 298.68,-42.82 302,-48.98"/>
</g>
</g>
</svg>
