<?xml version="1.0" encoding="UTF-8" standalone="no"?>
<!DOCTYPE svg PUBLIC "-//W3C//DTD SVG 1.1//EN"
 "http://www.w3.org/Graphics/SVG/1.1/DTD/svg11.dtd">
<!-- Generated by graphviz version 2.43.0 (0)
 -->
<!-- Title: CCBMFontConfiguration Pages: 1 -->
<svg width="504pt" height="162pt"
 viewBox="0.00 0.00 504.00 162.00" xmlns="http://www.w3.org/2000/svg" xmlns:xlink="http://www.w3.org/1999/xlink">
<g id="graph0" class="graph" transform="scale(1 1) rotate(0) translate(4 158)">
<title>CCBMFontConfiguration</title>
<!-- Node1 -->
<g id="node1" class="node">
<title>Node1</title>
<g id="a_node1"><a xlink:title="CCBMFontConfiguration has parsed configuration of the the .fnt file.">
<polygon fill="#bfbfbf" stroke="black" points="157,-0.5 157,-19.5 289,-19.5 289,-0.5 157,-0.5"/>
<text text-anchor="middle" x="223" y="-7.5" font-family="Helvetica,sans-Serif" font-size="10.00">CCBMFontConfiguration</text>
</a>
</g>
</g>
<!-- Node2 -->
<g id="node2" class="node">
<title>Node2</title>
<g id="a_node2"><a xlink:href="../../d3/dbf/classcocos2d_1_1_c_c_object.html" target="_top" xlink:title="NA.">
<polygon fill="none" stroke="black" points="4,-67.5 4,-86.5 66,-86.5 66,-67.5 4,-67.5"/>
<text text-anchor="middle" x="35" y="-74.5" font-family="Helvetica,sans-Serif" font-size="10.00">CCObject</text>
</a>
</g>
</g>
<!-- Node2&#45;&gt;Node1 -->
<g id="edge1" class="edge">
<title>Node2&#45;&gt;Node1</title>
<path fill="none" stroke="midnightblue" d="M69.89,-63.94C107.19,-51.04 165.37,-30.92 198.23,-19.56"/>
<polygon fill="midnightblue" stroke="midnightblue" points="68.27,-60.79 59.96,-67.37 70.56,-67.41 68.27,-60.79"/>
</g>
<!-- Node3 -->
<g id="node3" class="node">
<title>Node3</title>
<g id="a_node3"><a xlink:href="../../d5/d61/classcocos2d_1_1_c_c_copying.html" target="_top" xlink:title="NA NA.">
<polygon fill="none" stroke="black" points="0,-134.5 0,-153.5 70,-153.5 70,-134.5 0,-134.5"/>
<text text-anchor="middle" x="35" y="-141.5" font-family="Helvetica,sans-Serif" font-size="10.00">CCCopying</text>
</a>
</g>
</g>
<!-- Node3&#45;&gt;Node2 -->
<g id="edge2" class="edge">
<title>Node3&#45;&gt;Node2</title>
<path fill="none" stroke="midnightblue" d="M35,-124.04C35,-111.67 35,-96.12 35,-86.63"/>
<polygon fill="midnightblue" stroke="midnightblue" points="31.5,-124.23 35,-134.23 38.5,-124.23 31.5,-124.23"/>
</g>
<!-- Node4 -->
<g id="node4" class="node">
<title>Node4</title>
<g id="a_node4"><a xlink:href="../../dd/db5/structt_c_c_font_def_hash_element.html" target="_top" xlink:title=" ">
<polygon fill="none" stroke="black" points="84.5,-67.5 84.5,-86.5 221.5,-86.5 221.5,-67.5 84.5,-67.5"/>
<text text-anchor="middle" x="153" y="-74.5" font-family="Helvetica,sans-Serif" font-size="10.00">tCCFontDefHashElement</text>
</a>
</g>
</g>
<!-- Node4&#45;&gt;Node1 -->
<g id="edge3" class="edge">
<title>Node4&#45;&gt;Node1</title>
<path fill="none" stroke="#9a32cd" stroke-dasharray="5,2" d="M148.19,-57.15C147.57,-50.59 148.21,-43.5 152,-38 157.91,-29.42 166.94,-23.57 176.59,-19.57"/>
<polygon fill="#9a32cd" stroke="#9a32cd" points="144.81,-58.14 150.07,-67.33 151.69,-56.86 144.81,-58.14"/>
<text text-anchor="middle" x="208.5" y="-41" font-family="Helvetica,sans-Serif" font-size="10.00"> m_pFontDefDictionary</text>
</g>
<!-- Node5 -->
<g id="node5" class="node">
<title>Node5</title>
<g id="a_node5"><a xlink:href="../../df/dba/structcc_b_m_font_def.html" target="_top" xlink:title="BMFont definition.">
<polygon fill="none" stroke="black" points="112.5,-134.5 112.5,-153.5 193.5,-153.5 193.5,-134.5 112.5,-134.5"/>
<text text-anchor="middle" x="153" y="-141.5" font-family="Helvetica,sans-Serif" font-size="10.00">ccBMFontDef</text>
</a>
</g>
</g>
<!-- Node5&#45;&gt;Node4 -->
<g id="edge4" class="edge">
<title>Node5&#45;&gt;Node4</title>
<path fill="none" stroke="#9a32cd" stroke-dasharray="5,2" d="M153,-124.04C153,-111.67 153,-96.12 153,-86.63"/>
<polygon fill="#9a32cd" stroke="#9a32cd" points="149.5,-124.23 153,-134.23 156.5,-124.23 149.5,-124.23"/>
<text text-anchor="middle" x="173" y="-108" font-family="Helvetica,sans-Serif" font-size="10.00"> fontDef</text>
</g>
<!-- Node6 -->
<g id="node6" class="node">
<title>Node6</title>
<g id="a_node6"><a xlink:href="../../d0/d46/structcc_b_m_font_padding.html" target="_top" xlink:title="BMFont padding.">
<polygon fill="none" stroke="black" points="240,-67.5 240,-86.5 342,-86.5 342,-67.5 240,-67.5"/>
<text text-anchor="middle" x="291" y="-74.5" font-family="Helvetica,sans-Serif" font-size="10.00">ccBMFontPadding</text>
</a>
</g>
</g>
<!-- Node6&#45;&gt;Node1 -->
<g id="edge5" class="edge">
<title>Node6&#45;&gt;Node1</title>
<path fill="none" stroke="#9a32cd" stroke-dasharray="5,2" d="M283.08,-58.08C279.46,-51.25 274.71,-43.74 269,-38 261.43,-30.38 251.27,-24.12 242.43,-19.56"/>
<polygon fill="#9a32cd" stroke="#9a32cd" points="280.03,-59.83 287.53,-67.31 286.34,-56.79 280.03,-59.83"/>
<text text-anchor="middle" x="307.5" y="-41" font-family="Helvetica,sans-Serif" font-size="10.00"> m_tPadding</text>
</g>
<!-- Node7 -->
<g id="node7" class="node">
<title>Node7</title>
<g id="a_node7"><a xlink:href="../../d3/d10/structt_c_c_kerning_hash_element.html" target="_top" xlink:title=" ">
<polygon fill="none" stroke="black" points="360,-67.5 360,-86.5 496,-86.5 496,-67.5 360,-67.5"/>
<text text-anchor="middle" x="428" y="-74.5" font-family="Helvetica,sans-Serif" font-size="10.00">tCCKerningHashElement</text>
</a>
</g>
</g>
<!-- Node7&#45;&gt;Node1 -->
<g id="edge6" class="edge">
<title>Node7&#45;&gt;Node1</title>
<path fill="none" stroke="#9a32cd" stroke-dasharray="5,2" d="M402.08,-62.97C385.27,-54.92 362.73,-44.86 342,-38 318.77,-30.31 292.28,-24.07 270.2,-19.52"/>
<polygon fill="#9a32cd" stroke="#9a32cd" points="400.73,-66.21 411.25,-67.44 403.79,-59.91 400.73,-66.21"/>
<text text-anchor="middle" x="426" y="-41" font-family="Helvetica,sans-Serif" font-size="10.00"> m_pKerningDictionary</text>
</g>
</g>
</svg>
