<?xml version="1.0" encoding="UTF-8" standalone="no"?>
<!DOCTYPE svg PUBLIC "-//W3C//DTD SVG 1.1//EN"
 "http://www.w3.org/Graphics/SVG/1.1/DTD/svg11.dtd">
<!-- Generated by graphviz version 2.43.0 (0)
 -->
<!-- Title: /home/runner/work/cocos&#45;headers/cocos&#45;headers/cocos2dx/shaders/ccShaders.h Pages: 1 -->
<svg width="301pt" height="214pt"
 viewBox="0.00 0.00 300.50 214.00" xmlns="http://www.w3.org/2000/svg" xmlns:xlink="http://www.w3.org/1999/xlink">
<g id="graph0" class="graph" transform="scale(1 1) rotate(0) translate(4 210)">
<title>/home/runner/work/cocos&#45;headers/cocos&#45;headers/cocos2dx/shaders/ccShaders.h</title>
<!-- Node1 -->
<g id="node1" class="node">
<title>Node1</title>
<g id="a_node1"><a xlink:title=" ">
<polygon fill="#999999" stroke="#666666" points="172,-206 4,-206 4,-165 172,-165 172,-206"/>
<text text-anchor="start" x="12" y="-194" font-family="Helvetica,sans-Serif" font-size="10.00">/home/runner/work/cocos</text>
<text text-anchor="start" x="12" y="-183" font-family="Helvetica,sans-Serif" font-size="10.00">&#45;headers/cocos&#45;headers</text>
<text text-anchor="middle" x="88" y="-172" font-family="Helvetica,sans-Serif" font-size="10.00">/cocos2dx/shaders/ccShaders.h</text>
</a>
</g>
</g>
<!-- Node2 -->
<g id="node2" class="node">
<title>Node2</title>
<g id="a_node2"><a xlink:title=" ">
<polygon fill="#e0e0e0" stroke="#999999" points="52,-129 0,-129 0,-110 52,-110 52,-129"/>
<text text-anchor="middle" x="26" y="-117" font-family="Helvetica,sans-Serif" font-size="10.00">CCGL.h</text>
</a>
</g>
</g>
<!-- Node1&#45;&gt;Node2 -->
<g id="edge1" class="edge">
<title>Node1&#45;&gt;Node2</title>
<path fill="none" stroke="#63b8ff" d="M69.06,-164.95C60.23,-155.83 49.85,-145.11 41.49,-136.49"/>
<polygon fill="#63b8ff" stroke="#63b8ff" points="43.96,-134.01 34.49,-129.26 38.93,-138.88 43.96,-134.01"/>
</g>
<!-- Node3 -->
<g id="node3" class="node">
<title>Node3</title>
<g id="a_node3"><a xlink:href="../../d3/d41/_c_c_platform_macros_8h.html" target="_top" xlink:title=" ">
<polygon fill="white" stroke="#666666" points="231.5,-129 70.5,-129 70.5,-110 231.5,-110 231.5,-129"/>
<text text-anchor="middle" x="151" y="-117" font-family="Helvetica,sans-Serif" font-size="10.00">platform/CCPlatformMacros.h</text>
</a>
</g>
</g>
<!-- Node1&#45;&gt;Node3 -->
<g id="edge2" class="edge">
<title>Node1&#45;&gt;Node3</title>
<path fill="none" stroke="#63b8ff" d="M107.24,-164.95C116.22,-155.83 126.77,-145.11 135.26,-136.49"/>
<polygon fill="#63b8ff" stroke="#63b8ff" points="137.86,-138.84 142.38,-129.26 132.87,-133.93 137.86,-138.84"/>
</g>
<!-- Node4 -->
<g id="node4" class="node">
<title>Node4</title>
<g id="a_node4"><a xlink:href="../../db/d9f/cc_config_8h.html" target="_top" xlink:title="cocos2d (cc) configuration file">
<polygon fill="white" stroke="#666666" points="122.5,-74 55.5,-74 55.5,-55 122.5,-55 122.5,-74"/>
<text text-anchor="middle" x="89" y="-62" font-family="Helvetica,sans-Serif" font-size="10.00">ccConfig.h</text>
</a>
</g>
</g>
<!-- Node3&#45;&gt;Node4 -->
<g id="edge3" class="edge">
<title>Node3&#45;&gt;Node4</title>
<path fill="none" stroke="#63b8ff" d="M141.04,-109.98C131.87,-102.15 118.06,-90.34 106.97,-80.86"/>
<polygon fill="#63b8ff" stroke="#63b8ff" points="109.02,-78.01 99.14,-74.17 104.47,-83.33 109.02,-78.01"/>
</g>
<!-- Node5 -->
<g id="node5" class="node">
<title>Node5</title>
<g id="a_node5"><a xlink:href="../../dd/d96/_c_c_platform_config_8h.html" target="_top" xlink:title=" ">
<polygon fill="white" stroke="#666666" points="198.5,-19 41.5,-19 41.5,0 198.5,0 198.5,-19"/>
<text text-anchor="middle" x="120" y="-7" font-family="Helvetica,sans-Serif" font-size="10.00">platform/CCPlatformConfig.h</text>
</a>
</g>
</g>
<!-- Node3&#45;&gt;Node5 -->
<g id="edge5" class="edge">
<title>Node3&#45;&gt;Node5</title>
<path fill="none" stroke="#63b8ff" d="M148.46,-109.66C143.42,-92.09 132.04,-52.45 125.3,-28.95"/>
<polygon fill="#63b8ff" stroke="#63b8ff" points="128.61,-27.8 122.49,-19.16 121.88,-29.74 128.61,-27.8"/>
</g>
<!-- Node6 -->
<g id="node6" class="node">
<title>Node6</title>
<g id="a_node6"><a xlink:title=" ">
<polygon fill="#e0e0e0" stroke="#999999" points="292.5,-74 179.5,-74 179.5,-55 292.5,-55 292.5,-74"/>
<text text-anchor="middle" x="236" y="-62" font-family="Helvetica,sans-Serif" font-size="10.00">CCPlatformDefine.h</text>
</a>
</g>
</g>
<!-- Node3&#45;&gt;Node6 -->
<g id="edge6" class="edge">
<title>Node3&#45;&gt;Node6</title>
<path fill="none" stroke="#63b8ff" d="M164.66,-109.98C177.84,-101.77 198.03,-89.18 213.57,-79.49"/>
<polygon fill="#63b8ff" stroke="#63b8ff" points="215.46,-82.43 222.09,-74.17 211.76,-76.49 215.46,-82.43"/>
</g>
<!-- Node4&#45;&gt;Node5 -->
<g id="edge4" class="edge">
<title>Node4&#45;&gt;Node5</title>
<path fill="none" stroke="#63b8ff" d="M94.12,-54.75C98.36,-47.49 104.53,-36.95 109.78,-27.98"/>
<polygon fill="#63b8ff" stroke="#63b8ff" points="112.95,-29.49 114.98,-19.09 106.91,-25.95 112.95,-29.49"/>
</g>
</g>
</svg>
