<?xml version="1.0" encoding="UTF-8" standalone="no"?>
<!DOCTYPE svg PUBLIC "-//W3C//DTD SVG 1.1//EN"
 "http://www.w3.org/Graphics/SVG/1.1/DTD/svg11.dtd">
<!-- Generated by graphviz version 2.43.0 (0)
 -->
<!-- Title: /home/runner/work/cocos&#45;headers/cocos&#45;headers/cocos2dx/cocoa/CCDouble.h Pages: 1 -->
<svg width="341pt" height="379pt"
 viewBox="0.00 0.00 340.50 379.00" xmlns="http://www.w3.org/2000/svg" xmlns:xlink="http://www.w3.org/1999/xlink">
<g id="graph0" class="graph" transform="scale(1 1) rotate(0) translate(4 375)">
<title>/home/runner/work/cocos&#45;headers/cocos&#45;headers/cocos2dx/cocoa/CCDouble.h</title>
<!-- Node1 -->
<g id="node1" class="node">
<title>Node1</title>
<g id="a_node1"><a xlink:title=" ">
<polygon fill="#999999" stroke="#666666" points="177,-371 20,-371 20,-330 177,-330 177,-371"/>
<text text-anchor="start" x="28" y="-359" font-family="Helvetica,sans-Serif" font-size="10.00">/home/runner/work/cocos</text>
<text text-anchor="start" x="28" y="-348" font-family="Helvetica,sans-Serif" font-size="10.00">&#45;headers/cocos&#45;headers</text>
<text text-anchor="middle" x="98.5" y="-337" font-family="Helvetica,sans-Serif" font-size="10.00">/cocos2dx/cocoa/CCDouble.h</text>
</a>
</g>
</g>
<!-- Node2 -->
<g id="node2" class="node">
<title>Node2</title>
<g id="a_node2"><a xlink:href="../../dd/d69/_c_c_object_8h.html" target="_top" xlink:title=" ">
<polygon fill="white" stroke="#666666" points="134,-294 63,-294 63,-275 134,-275 134,-294"/>
<text text-anchor="middle" x="98.5" y="-282" font-family="Helvetica,sans-Serif" font-size="10.00">CCObject.h</text>
</a>
</g>
</g>
<!-- Node1&#45;&gt;Node2 -->
<g id="edge1" class="edge">
<title>Node1&#45;&gt;Node2</title>
<path fill="none" stroke="#63b8ff" d="M98.5,-329.95C98.5,-321.85 98.5,-312.5 98.5,-304.47"/>
<polygon fill="#63b8ff" stroke="#63b8ff" points="102,-304.26 98.5,-294.26 95,-304.26 102,-304.26"/>
</g>
<!-- Node3 -->
<g id="node3" class="node">
<title>Node3</title>
<g id="a_node3"><a xlink:href="../../d9/d2d/_c_c_data_visitor_8h.html" target="_top" xlink:title=" ">
<polygon fill="white" stroke="#666666" points="93,-239 0,-239 0,-220 93,-220 93,-239"/>
<text text-anchor="middle" x="46.5" y="-227" font-family="Helvetica,sans-Serif" font-size="10.00">CCDataVisitor.h</text>
</a>
</g>
</g>
<!-- Node2&#45;&gt;Node3 -->
<g id="edge2" class="edge">
<title>Node2&#45;&gt;Node3</title>
<path fill="none" stroke="#63b8ff" d="M89.91,-274.75C82.34,-267.03 71.12,-255.6 61.99,-246.28"/>
<polygon fill="#63b8ff" stroke="#63b8ff" points="64.43,-243.78 54.93,-239.09 59.43,-248.68 64.43,-243.78"/>
</g>
<!-- Node9 -->
<g id="node9" class="node">
<title>Node9</title>
<g id="a_node9"><a xlink:href="../../d9/dc8/cc_macros_8h.html" target="_top" xlink:title=" ">
<polygon fill="white" stroke="#666666" points="232,-239 161,-239 161,-220 232,-220 232,-239"/>
<text text-anchor="middle" x="196.5" y="-227" font-family="Helvetica,sans-Serif" font-size="10.00">ccMacros.h</text>
</a>
</g>
</g>
<!-- Node2&#45;&gt;Node9 -->
<g id="edge9" class="edge">
<title>Node2&#45;&gt;Node9</title>
<path fill="none" stroke="#63b8ff" d="M114.25,-274.98C129.73,-266.61 153.59,-253.7 171.64,-243.95"/>
<polygon fill="#63b8ff" stroke="#63b8ff" points="173.34,-247.01 180.47,-239.17 170.01,-240.85 173.34,-247.01"/>
</g>
<!-- Node4 -->
<g id="node4" class="node">
<title>Node4</title>
<g id="a_node4"><a xlink:href="../../d3/d41/_c_c_platform_macros_8h.html" target="_top" xlink:title=" ">
<polygon fill="white" stroke="#666666" points="214,-129 53,-129 53,-110 214,-110 214,-129"/>
<text text-anchor="middle" x="133.5" y="-117" font-family="Helvetica,sans-Serif" font-size="10.00">platform/CCPlatformMacros.h</text>
</a>
</g>
</g>
<!-- Node3&#45;&gt;Node4 -->
<g id="edge3" class="edge">
<title>Node3&#45;&gt;Node4</title>
<path fill="none" stroke="#63b8ff" d="M36.6,-219.84C23.37,-207.18 2.94,-183.16 15.5,-165 26.58,-148.98 44.22,-138.71 62.51,-132.15"/>
<polygon fill="#63b8ff" stroke="#63b8ff" points="63.67,-135.45 72.11,-129.04 61.52,-128.79 63.67,-135.45"/>
</g>
<!-- Node8 -->
<g id="node8" class="node">
<title>Node8</title>
<g id="a_node8"><a xlink:title=" ">
<polygon fill="#e0e0e0" stroke="#999999" points="68.5,-184 24.5,-184 24.5,-165 68.5,-165 68.5,-184"/>
<text text-anchor="middle" x="46.5" y="-172" font-family="Helvetica,sans-Serif" font-size="10.00">string</text>
</a>
</g>
</g>
<!-- Node3&#45;&gt;Node8 -->
<g id="edge8" class="edge">
<title>Node3&#45;&gt;Node8</title>
<path fill="none" stroke="#63b8ff" d="M46.5,-219.75C46.5,-212.8 46.5,-202.85 46.5,-194.13"/>
<polygon fill="#63b8ff" stroke="#63b8ff" points="50,-194.09 46.5,-184.09 43,-194.09 50,-194.09"/>
</g>
<!-- Node5 -->
<g id="node5" class="node">
<title>Node5</title>
<g id="a_node5"><a xlink:href="../../db/d9f/cc_config_8h.html" target="_top" xlink:title="cocos2d (cc) configuration file">
<polygon fill="white" stroke="#666666" points="276,-74 209,-74 209,-55 276,-55 276,-74"/>
<text text-anchor="middle" x="242.5" y="-62" font-family="Helvetica,sans-Serif" font-size="10.00">ccConfig.h</text>
</a>
</g>
</g>
<!-- Node4&#45;&gt;Node5 -->
<g id="edge4" class="edge">
<title>Node4&#45;&gt;Node5</title>
<path fill="none" stroke="#63b8ff" d="M151.01,-109.98C168.47,-101.5 195.51,-88.35 215.67,-78.54"/>
<polygon fill="#63b8ff" stroke="#63b8ff" points="217.21,-81.69 224.67,-74.17 214.14,-75.4 217.21,-81.69"/>
</g>
<!-- Node6 -->
<g id="node6" class="node">
<title>Node6</title>
<g id="a_node6"><a xlink:href="../../dd/d96/_c_c_platform_config_8h.html" target="_top" xlink:title=" ">
<polygon fill="white" stroke="#666666" points="224,-19 67,-19 67,0 224,0 224,-19"/>
<text text-anchor="middle" x="145.5" y="-7" font-family="Helvetica,sans-Serif" font-size="10.00">platform/CCPlatformConfig.h</text>
</a>
</g>
</g>
<!-- Node4&#45;&gt;Node6 -->
<g id="edge6" class="edge">
<title>Node4&#45;&gt;Node6</title>
<path fill="none" stroke="#63b8ff" d="M112.3,-109.87C88.55,-98.85 55.02,-78.37 68.5,-55 76.92,-40.41 92.15,-30.17 106.85,-23.23"/>
<polygon fill="#63b8ff" stroke="#63b8ff" points="108.57,-26.3 116.36,-19.13 105.79,-19.87 108.57,-26.3"/>
</g>
<!-- Node7 -->
<g id="node7" class="node">
<title>Node7</title>
<g id="a_node7"><a xlink:title=" ">
<polygon fill="#e0e0e0" stroke="#999999" points="191,-74 78,-74 78,-55 191,-55 191,-74"/>
<text text-anchor="middle" x="134.5" y="-62" font-family="Helvetica,sans-Serif" font-size="10.00">CCPlatformDefine.h</text>
</a>
</g>
</g>
<!-- Node4&#45;&gt;Node7 -->
<g id="edge7" class="edge">
<title>Node4&#45;&gt;Node7</title>
<path fill="none" stroke="#63b8ff" d="M133.67,-109.75C133.8,-102.8 133.98,-92.85 134.15,-84.13"/>
<polygon fill="#63b8ff" stroke="#63b8ff" points="137.65,-84.15 134.34,-74.09 130.65,-84.02 137.65,-84.15"/>
</g>
<!-- Node5&#45;&gt;Node6 -->
<g id="edge5" class="edge">
<title>Node5&#45;&gt;Node6</title>
<path fill="none" stroke="#63b8ff" d="M226.92,-54.98C211.73,-46.69 188.4,-33.94 170.6,-24.22"/>
<polygon fill="#63b8ff" stroke="#63b8ff" points="171.82,-20.89 161.37,-19.17 168.47,-27.04 171.82,-20.89"/>
</g>
<!-- Node9&#45;&gt;Node5 -->
<g id="edge13" class="edge">
<title>Node9&#45;&gt;Node5</title>
<path fill="none" stroke="#63b8ff" d="M203.18,-219.82C209.44,-211.21 218.58,-197.4 223.5,-184 235.91,-150.22 240.23,-108.07 241.72,-84.23"/>
<polygon fill="#63b8ff" stroke="#63b8ff" points="245.22,-84.28 242.25,-74.12 238.23,-83.92 245.22,-84.28"/>
</g>
<!-- Node10 -->
<g id="node10" class="node">
<title>Node10</title>
<g id="a_node10"><a xlink:href="../../d5/d22/_c_c_common_8h.html" target="_top" xlink:title=" ">
<polygon fill="white" stroke="#666666" points="214.5,-184 86.5,-184 86.5,-165 214.5,-165 214.5,-184"/>
<text text-anchor="middle" x="150.5" y="-172" font-family="Helvetica,sans-Serif" font-size="10.00">platform/CCCommon.h</text>
</a>
</g>
</g>
<!-- Node9&#45;&gt;Node10 -->
<g id="edge10" class="edge">
<title>Node9&#45;&gt;Node10</title>
<path fill="none" stroke="#63b8ff" d="M188.9,-219.75C182.34,-212.18 172.68,-201.05 164.69,-191.84"/>
<polygon fill="#63b8ff" stroke="#63b8ff" points="167.15,-189.35 157.95,-184.09 161.87,-193.94 167.15,-189.35"/>
</g>
<!-- Node11 -->
<g id="node11" class="node">
<title>Node11</title>
<g id="a_node11"><a xlink:title=" ">
<polygon fill="#e0e0e0" stroke="#999999" points="332.5,-184 270.5,-184 270.5,-165 332.5,-165 332.5,-184"/>
<text text-anchor="middle" x="301.5" y="-172" font-family="Helvetica,sans-Serif" font-size="10.00">CCStdC.h</text>
</a>
</g>
</g>
<!-- Node9&#45;&gt;Node11 -->
<g id="edge12" class="edge">
<title>Node9&#45;&gt;Node11</title>
<path fill="none" stroke="#63b8ff" d="M213.37,-219.98C230.11,-211.54 256,-198.47 275.39,-188.68"/>
<polygon fill="#63b8ff" stroke="#63b8ff" points="276.97,-191.8 284.32,-184.17 273.82,-185.55 276.97,-191.8"/>
</g>
<!-- Node10&#45;&gt;Node4 -->
<g id="edge11" class="edge">
<title>Node10&#45;&gt;Node4</title>
<path fill="none" stroke="#63b8ff" d="M147.69,-164.75C145.44,-157.72 142.2,-147.62 139.38,-138.84"/>
<polygon fill="#63b8ff" stroke="#63b8ff" points="142.64,-137.54 136.25,-129.09 135.98,-139.68 142.64,-137.54"/>
</g>
</g>
</svg>
