<?xml version="1.0" encoding="UTF-8" standalone="no"?>
<!DOCTYPE svg PUBLIC "-//W3C//DTD SVG 1.1//EN"
 "http://www.w3.org/Graphics/SVG/1.1/DTD/svg11.dtd">
<!-- Generated by graphviz version 2.43.0 (0)
 -->
<!-- Title: /home/runner/work/cocos&#45;headers/cocos&#45;headers/cocos2dx/cocoa/CCDictionary.h Pages: 1 -->
<svg width="542pt" height="464pt"
 viewBox="0.00 0.00 541.50 464.00" xmlns="http://www.w3.org/2000/svg" xmlns:xlink="http://www.w3.org/1999/xlink">
<g id="graph0" class="graph" transform="scale(1 1) rotate(0) translate(4 460)">
<title>/home/runner/work/cocos&#45;headers/cocos&#45;headers/cocos2dx/cocoa/CCDictionary.h</title>
<!-- Node1 -->
<g id="node1" class="node">
<title>Node1</title>
<g id="a_node1"><a xlink:title=" ">
<polygon fill="#bfbfbf" stroke="black" points="114.5,-414.5 114.5,-455.5 285.5,-455.5 285.5,-414.5 114.5,-414.5"/>
<text text-anchor="start" x="122.5" y="-443.5" font-family="Helvetica,sans-Serif" font-size="10.00">/home/runner/work/cocos</text>
<text text-anchor="start" x="122.5" y="-432.5" font-family="Helvetica,sans-Serif" font-size="10.00">&#45;headers/cocos&#45;headers</text>
<text text-anchor="middle" x="200" y="-421.5" font-family="Helvetica,sans-Serif" font-size="10.00">/cocos2dx/cocoa/CCDictionary.h</text>
</a>
</g>
</g>
<!-- Node2 -->
<g id="node2" class="node">
<title>Node2</title>
<g id="a_node2"><a xlink:title=" ">
<polygon fill="none" stroke="#bfbfbf" points="0,-347.5 0,-377.5 120,-377.5 120,-347.5 0,-347.5"/>
<text text-anchor="start" x="8" y="-365.5" font-family="Helvetica,sans-Serif" font-size="10.00">support/data_support</text>
<text text-anchor="middle" x="60" y="-354.5" font-family="Helvetica,sans-Serif" font-size="10.00">/uthash.h</text>
</a>
</g>
</g>
<!-- Node1&#45;&gt;Node2 -->
<g id="edge1" class="edge">
<title>Node1&#45;&gt;Node2</title>
<path fill="none" stroke="midnightblue" d="M161,-414.36C141.03,-404.3 116.83,-392.12 97.13,-382.2"/>
<polygon fill="midnightblue" stroke="midnightblue" points="98.64,-379.04 88.14,-377.67 95.5,-385.29 98.64,-379.04"/>
</g>
<!-- Node3 -->
<g id="node3" class="node">
<title>Node3</title>
<g id="a_node3"><a xlink:href="../../dd/d69/_c_c_object_8h.html" target="_top" xlink:title=" ">
<polygon fill="none" stroke="black" points="194.5,-286 194.5,-305 265.5,-305 265.5,-286 194.5,-286"/>
<text text-anchor="middle" x="230" y="-293" font-family="Helvetica,sans-Serif" font-size="10.00">CCObject.h</text>
</a>
</g>
</g>
<!-- Node1&#45;&gt;Node3 -->
<g id="edge2" class="edge">
<title>Node1&#45;&gt;Node3</title>
<path fill="none" stroke="midnightblue" d="M204.3,-414.3C210.08,-387.78 220.3,-340.94 225.96,-315.03"/>
<polygon fill="midnightblue" stroke="midnightblue" points="229.42,-315.55 228.14,-305.04 222.59,-314.06 229.42,-315.55"/>
</g>
<!-- Node13 -->
<g id="node13" class="node">
<title>Node13</title>
<g id="a_node13"><a xlink:href="../../da/d35/_c_c_array_8h.html" target="_top" xlink:title=" ">
<polygon fill="none" stroke="black" points="138,-353 138,-372 202,-372 202,-353 138,-353"/>
<text text-anchor="middle" x="170" y="-360" font-family="Helvetica,sans-Serif" font-size="10.00">CCArray.h</text>
</a>
</g>
</g>
<!-- Node1&#45;&gt;Node13 -->
<g id="edge15" class="edge">
<title>Node1&#45;&gt;Node13</title>
<path fill="none" stroke="midnightblue" d="M191.64,-414.36C187.27,-404.08 181.95,-391.58 177.68,-381.54"/>
<polygon fill="midnightblue" stroke="midnightblue" points="180.83,-380 173.69,-372.17 174.39,-382.75 180.83,-380"/>
</g>
<!-- Node15 -->
<g id="node15" class="node">
<title>Node15</title>
<g id="a_node15"><a xlink:href="../../d0/d8a/_c_c_string_8h.html" target="_top" xlink:title=" ">
<polygon fill="none" stroke="black" points="317,-353 317,-372 385,-372 385,-353 317,-353"/>
<text text-anchor="middle" x="351" y="-360" font-family="Helvetica,sans-Serif" font-size="10.00">CCString.h</text>
</a>
</g>
</g>
<!-- Node1&#45;&gt;Node15 -->
<g id="edge17" class="edge">
<title>Node1&#45;&gt;Node15</title>
<path fill="none" stroke="midnightblue" d="M242.06,-414.36C268.02,-402.24 300.59,-387.03 323.33,-376.42"/>
<polygon fill="midnightblue" stroke="midnightblue" points="324.84,-379.58 332.42,-372.17 321.88,-373.23 324.84,-379.58"/>
</g>
<!-- Node4 -->
<g id="node4" class="node">
<title>Node4</title>
<g id="a_node4"><a xlink:href="../../d9/d2d/_c_c_data_visitor_8h.html" target="_top" xlink:title=" ">
<polygon fill="none" stroke="black" points="330.5,-224.5 330.5,-243.5 423.5,-243.5 423.5,-224.5 330.5,-224.5"/>
<text text-anchor="middle" x="377" y="-231.5" font-family="Helvetica,sans-Serif" font-size="10.00">CCDataVisitor.h</text>
</a>
</g>
</g>
<!-- Node3&#45;&gt;Node4 -->
<g id="edge3" class="edge">
<title>Node3&#45;&gt;Node4</title>
<path fill="none" stroke="midnightblue" d="M251.06,-285.98C276.06,-275.86 317.94,-258.9 346.49,-247.35"/>
<polygon fill="midnightblue" stroke="midnightblue" points="348.02,-250.51 355.98,-243.51 345.39,-244.02 348.02,-250.51"/>
</g>
<!-- Node10 -->
<g id="node10" class="node">
<title>Node10</title>
<g id="a_node10"><a xlink:href="../../d9/dc8/cc_macros_8h.html" target="_top" xlink:title=" ">
<polygon fill="none" stroke="black" points="188.5,-224.5 188.5,-243.5 259.5,-243.5 259.5,-224.5 188.5,-224.5"/>
<text text-anchor="middle" x="224" y="-231.5" font-family="Helvetica,sans-Serif" font-size="10.00">ccMacros.h</text>
</a>
</g>
</g>
<!-- Node3&#45;&gt;Node10 -->
<g id="edge10" class="edge">
<title>Node3&#45;&gt;Node10</title>
<path fill="none" stroke="midnightblue" d="M229.14,-285.98C228.29,-277.58 226.97,-264.48 225.88,-253.66"/>
<polygon fill="midnightblue" stroke="midnightblue" points="229.34,-253.11 224.86,-243.51 222.38,-253.81 229.34,-253.11"/>
</g>
<!-- Node5 -->
<g id="node5" class="node">
<title>Node5</title>
<g id="a_node5"><a xlink:href="../../d3/d41/_c_c_platform_macros_8h.html" target="_top" xlink:title=" ">
<polygon fill="none" stroke="black" points="148.5,-112.5 148.5,-131.5 309.5,-131.5 309.5,-112.5 148.5,-112.5"/>
<text text-anchor="middle" x="229" y="-119.5" font-family="Helvetica,sans-Serif" font-size="10.00">platform/CCPlatformMacros.h</text>
</a>
</g>
</g>
<!-- Node4&#45;&gt;Node5 -->
<g id="edge4" class="edge">
<title>Node4&#45;&gt;Node5</title>
<path fill="none" stroke="midnightblue" d="M377.98,-224.24C379,-210.53 378.87,-183.92 365,-168 350.61,-151.49 330.03,-141.02 309.22,-134.38"/>
<polygon fill="midnightblue" stroke="midnightblue" points="309.92,-130.93 299.34,-131.5 307.96,-137.65 309.92,-130.93"/>
</g>
<!-- Node9 -->
<g id="node9" class="node">
<title>Node9</title>
<g id="a_node9"><a xlink:title=" ">
<polygon fill="none" stroke="#bfbfbf" points="424,-168.5 424,-187.5 468,-187.5 468,-168.5 424,-168.5"/>
<text text-anchor="middle" x="446" y="-175.5" font-family="Helvetica,sans-Serif" font-size="10.00">string</text>
</a>
</g>
</g>
<!-- Node4&#45;&gt;Node9 -->
<g id="edge9" class="edge">
<title>Node4&#45;&gt;Node9</title>
<path fill="none" stroke="midnightblue" d="M388.09,-224.32C398.49,-216.18 414.26,-203.84 426.72,-194.09"/>
<polygon fill="midnightblue" stroke="midnightblue" points="428.99,-196.75 434.71,-187.83 424.68,-191.24 428.99,-196.75"/>
</g>
<!-- Node6 -->
<g id="node6" class="node">
<title>Node6</title>
<g id="a_node6"><a xlink:href="../../db/d9f/cc_config_8h.html" target="_top" xlink:title="cocos2d (cc) configuration file">
<polygon fill="none" stroke="black" points="86.5,-56.5 86.5,-75.5 153.5,-75.5 153.5,-56.5 86.5,-56.5"/>
<text text-anchor="middle" x="120" y="-63.5" font-family="Helvetica,sans-Serif" font-size="10.00">ccConfig.h</text>
</a>
</g>
</g>
<!-- Node5&#45;&gt;Node6 -->
<g id="edge5" class="edge">
<title>Node5&#45;&gt;Node6</title>
<path fill="none" stroke="midnightblue" d="M211.49,-112.32C193.93,-103.62 166.67,-90.12 146.47,-80.11"/>
<polygon fill="midnightblue" stroke="midnightblue" points="147.98,-76.96 137.47,-75.65 144.88,-83.23 147.98,-76.96"/>
</g>
<!-- Node7 -->
<g id="node7" class="node">
<title>Node7</title>
<g id="a_node7"><a xlink:href="../../dd/d96/_c_c_platform_config_8h.html" target="_top" xlink:title=" ">
<polygon fill="none" stroke="black" points="137.5,-0.5 137.5,-19.5 294.5,-19.5 294.5,-0.5 137.5,-0.5"/>
<text text-anchor="middle" x="216" y="-7.5" font-family="Helvetica,sans-Serif" font-size="10.00">platform/CCPlatformConfig.h</text>
</a>
</g>
</g>
<!-- Node5&#45;&gt;Node7 -->
<g id="edge7" class="edge">
<title>Node5&#45;&gt;Node7</title>
<path fill="none" stroke="midnightblue" d="M249.42,-112.47C273.27,-101.19 307.81,-79.91 294,-56 285.32,-40.98 269.51,-30.52 254.38,-23.5"/>
<polygon fill="midnightblue" stroke="midnightblue" points="255.69,-20.25 245.12,-19.56 252.95,-26.69 255.69,-20.25"/>
</g>
<!-- Node8 -->
<g id="node8" class="node">
<title>Node8</title>
<g id="a_node8"><a xlink:title=" ">
<polygon fill="none" stroke="#bfbfbf" points="171.5,-56.5 171.5,-75.5 284.5,-75.5 284.5,-56.5 171.5,-56.5"/>
<text text-anchor="middle" x="228" y="-63.5" font-family="Helvetica,sans-Serif" font-size="10.00">CCPlatformDefine.h</text>
</a>
</g>
</g>
<!-- Node5&#45;&gt;Node8 -->
<g id="edge8" class="edge">
<title>Node5&#45;&gt;Node8</title>
<path fill="none" stroke="midnightblue" d="M228.83,-112.08C228.7,-105.01 228.52,-94.86 228.35,-85.99"/>
<polygon fill="midnightblue" stroke="midnightblue" points="231.85,-85.68 228.16,-75.75 224.85,-85.81 231.85,-85.68"/>
</g>
<!-- Node6&#45;&gt;Node7 -->
<g id="edge6" class="edge">
<title>Node6&#45;&gt;Node7</title>
<path fill="none" stroke="midnightblue" d="M135.42,-56.32C150.54,-47.82 173.82,-34.73 191.47,-24.8"/>
<polygon fill="midnightblue" stroke="midnightblue" points="193.61,-27.61 200.61,-19.65 190.18,-21.51 193.61,-27.61"/>
</g>
<!-- Node10&#45;&gt;Node6 -->
<g id="edge14" class="edge">
<title>Node10&#45;&gt;Node6</title>
<path fill="none" stroke="midnightblue" d="M193.34,-224.49C174.68,-217.69 152,-206.21 139,-188 117.15,-157.38 116.42,-111.3 118.06,-85.74"/>
<polygon fill="midnightblue" stroke="midnightblue" points="121.57,-85.84 118.91,-75.58 114.59,-85.25 121.57,-85.84"/>
</g>
<!-- Node11 -->
<g id="node11" class="node">
<title>Node11</title>
<g id="a_node11"><a xlink:href="../../d5/d22/_c_c_common_8h.html" target="_top" xlink:title=" ">
<polygon fill="none" stroke="black" points="148,-168.5 148,-187.5 276,-187.5 276,-168.5 148,-168.5"/>
<text text-anchor="middle" x="212" y="-175.5" font-family="Helvetica,sans-Serif" font-size="10.00">platform/CCCommon.h</text>
</a>
</g>
</g>
<!-- Node10&#45;&gt;Node11 -->
<g id="edge11" class="edge">
<title>Node10&#45;&gt;Node11</title>
<path fill="none" stroke="midnightblue" d="M222.02,-224.08C220.43,-216.93 218.14,-206.64 216.15,-197.69"/>
<polygon fill="midnightblue" stroke="midnightblue" points="219.53,-196.75 213.94,-187.75 212.7,-198.27 219.53,-196.75"/>
</g>
<!-- Node12 -->
<g id="node12" class="node">
<title>Node12</title>
<g id="a_node12"><a xlink:title=" ">
<polygon fill="none" stroke="#bfbfbf" points="294,-168.5 294,-187.5 356,-187.5 356,-168.5 294,-168.5"/>
<text text-anchor="middle" x="325" y="-175.5" font-family="Helvetica,sans-Serif" font-size="10.00">CCStdC.h</text>
</a>
</g>
</g>
<!-- Node10&#45;&gt;Node12 -->
<g id="edge13" class="edge">
<title>Node10&#45;&gt;Node12</title>
<path fill="none" stroke="midnightblue" d="M240.23,-224.32C256.35,-215.7 281.3,-202.36 299.96,-192.39"/>
<polygon fill="midnightblue" stroke="midnightblue" points="301.64,-195.46 308.81,-187.65 298.34,-189.28 301.64,-195.46"/>
</g>
<!-- Node11&#45;&gt;Node5 -->
<g id="edge12" class="edge">
<title>Node11&#45;&gt;Node5</title>
<path fill="none" stroke="midnightblue" d="M214.81,-168.08C217.08,-160.85 220.37,-150.41 223.21,-141.4"/>
<polygon fill="midnightblue" stroke="midnightblue" points="226.58,-142.34 226.25,-131.75 219.9,-140.24 226.58,-142.34"/>
</g>
<!-- Node14 -->
<g id="node14" class="node">
<title>Node14</title>
<g id="a_node14"><a xlink:title=" ">
<polygon fill="none" stroke="#bfbfbf" points="56,-280.5 56,-310.5 176,-310.5 176,-280.5 56,-280.5"/>
<text text-anchor="start" x="64" y="-298.5" font-family="Helvetica,sans-Serif" font-size="10.00">support/data_support</text>
<text text-anchor="middle" x="116" y="-287.5" font-family="Helvetica,sans-Serif" font-size="10.00">/ccCArray.h</text>
</a>
</g>
</g>
<!-- Node13&#45;&gt;Node14 -->
<g id="edge16" class="edge">
<title>Node13&#45;&gt;Node14</title>
<path fill="none" stroke="midnightblue" d="M162.72,-352.73C155.42,-343.95 143.9,-330.08 134.12,-318.31"/>
<polygon fill="midnightblue" stroke="midnightblue" points="136.79,-316.04 127.7,-310.59 131.4,-320.52 136.79,-316.04"/>
</g>
<!-- Node15&#45;&gt;Node3 -->
<g id="edge22" class="edge">
<title>Node15&#45;&gt;Node3</title>
<path fill="none" stroke="midnightblue" d="M334.68,-352.73C314.18,-341.72 278.8,-322.71 254.91,-309.88"/>
<polygon fill="midnightblue" stroke="midnightblue" points="256.53,-306.78 246.06,-305.13 253.21,-312.94 256.53,-306.78"/>
</g>
<!-- Node15&#45;&gt;Node9 -->
<g id="edge20" class="edge">
<title>Node15&#45;&gt;Node9</title>
<path fill="none" stroke="midnightblue" d="M376.63,-352.85C395.55,-345.03 420.15,-331.56 433,-311 454.99,-275.8 452.46,-224.73 449.04,-197.59"/>
<polygon fill="midnightblue" stroke="midnightblue" points="452.48,-196.93 447.58,-187.54 445.55,-197.93 452.48,-196.93"/>
</g>
<!-- Node16 -->
<g id="node16" class="node">
<title>Node16</title>
<g id="a_node16"><a xlink:title=" ">
<polygon fill="none" stroke="#bfbfbf" points="480.5,-286 480.5,-305 533.5,-305 533.5,-286 480.5,-286"/>
<text text-anchor="middle" x="507" y="-293" font-family="Helvetica,sans-Serif" font-size="10.00">string.h</text>
</a>
</g>
</g>
<!-- Node15&#45;&gt;Node16 -->
<g id="edge18" class="edge">
<title>Node15&#45;&gt;Node16</title>
<path fill="none" stroke="midnightblue" d="M371.72,-352.87C398.64,-341.65 445.86,-321.98 476.78,-309.09"/>
<polygon fill="midnightblue" stroke="midnightblue" points="478.31,-312.24 486.2,-305.17 475.62,-305.78 478.31,-312.24"/>
</g>
<!-- Node17 -->
<g id="node17" class="node">
<title>Node17</title>
<g id="a_node17"><a xlink:title=" ">
<polygon fill="none" stroke="#bfbfbf" points="284,-286 284,-305 340,-305 340,-286 284,-286"/>
<text text-anchor="middle" x="312" y="-293" font-family="Helvetica,sans-Serif" font-size="10.00">stdarg.h</text>
</a>
</g>
</g>
<!-- Node15&#45;&gt;Node17 -->
<g id="edge19" class="edge">
<title>Node15&#45;&gt;Node17</title>
<path fill="none" stroke="midnightblue" d="M345.74,-352.73C339.78,-342.79 329.9,-326.34 322.37,-313.79"/>
<polygon fill="midnightblue" stroke="midnightblue" points="325.32,-311.9 317.18,-305.13 319.32,-315.5 325.32,-311.9"/>
</g>
<!-- Node18 -->
<g id="node18" class="node">
<title>Node18</title>
<g id="a_node18"><a xlink:title=" ">
<polygon fill="none" stroke="#bfbfbf" points="358.5,-286 358.5,-305 423.5,-305 423.5,-286 358.5,-286"/>
<text text-anchor="middle" x="391" y="-293" font-family="Helvetica,sans-Serif" font-size="10.00">functional</text>
</a>
</g>
</g>
<!-- Node15&#45;&gt;Node18 -->
<g id="edge21" class="edge">
<title>Node15&#45;&gt;Node18</title>
<path fill="none" stroke="midnightblue" d="M356.39,-352.73C362.51,-342.79 372.64,-326.34 380.36,-313.79"/>
<polygon fill="midnightblue" stroke="midnightblue" points="383.43,-315.48 385.69,-305.13 377.47,-311.81 383.43,-315.48"/>
</g>
</g>
</svg>
