<?xml version="1.0" encoding="UTF-8" standalone="no"?>
<!DOCTYPE svg PUBLIC "-//W3C//DTD SVG 1.1//EN"
 "http://www.w3.org/Graphics/SVG/1.1/DTD/svg11.dtd">
<!-- Generated by graphviz version 2.43.0 (0)
 -->
<!-- Title: CCTMXTilesetInfo Pages: 1 -->
<svg width="182pt" height="160pt"
 viewBox="0.00 0.00 182.00 160.00" xmlns="http://www.w3.org/2000/svg" xmlns:xlink="http://www.w3.org/1999/xlink">
<g id="graph0" class="graph" transform="scale(1 1) rotate(0) translate(4 156)">
<title>CCTMXTilesetInfo</title>
<!-- Node1 -->
<g id="node1" class="node">
<title>Node1</title>
<g id="a_node1"><a xlink:title="CCTMXTilesetInfo contains the information about the tilesets like:">
<polygon fill="#999999" stroke="#666666" points="142,-19 38,-19 38,0 142,0 142,-19"/>
<text text-anchor="middle" x="90" y="-7" font-family="Helvetica,sans-Serif" font-size="10.00">CCTMXTilesetInfo</text>
</a>
</g>
</g>
<!-- Node2 -->
<g id="node2" class="node">
<title>Node2</title>
<g id="a_node2"><a xlink:href="../../d3/dbf/classcocos2d_1_1_c_c_object.html" target="_top" xlink:title="NA.">
<polygon fill="white" stroke="#666666" points="66,-96 4,-96 4,-77 66,-77 66,-96"/>
<text text-anchor="middle" x="35" y="-84" font-family="Helvetica,sans-Serif" font-size="10.00">CCObject</text>
</a>
</g>
</g>
<!-- Node2&#45;&gt;Node1 -->
<g id="edge1" class="edge">
<title>Node2&#45;&gt;Node1</title>
<path fill="none" stroke="#63b8ff" d="M47.3,-68.73C58.61,-53.3 74.94,-31.04 83.76,-19"/>
<polygon fill="#63b8ff" stroke="#63b8ff" points="44.4,-66.76 41.31,-76.9 50.05,-70.9 44.4,-66.76"/>
</g>
<!-- Node3 -->
<g id="node3" class="node">
<title>Node3</title>
<g id="a_node3"><a xlink:href="../../d5/d61/classcocos2d_1_1_c_c_copying.html" target="_top" xlink:title="NA NA.">
<polygon fill="white" stroke="#666666" points="70,-152 0,-152 0,-133 70,-133 70,-152"/>
<text text-anchor="middle" x="35" y="-140" font-family="Helvetica,sans-Serif" font-size="10.00">CCCopying</text>
</a>
</g>
</g>
<!-- Node3&#45;&gt;Node2 -->
<g id="edge2" class="edge">
<title>Node3&#45;&gt;Node2</title>
<path fill="none" stroke="#63b8ff" d="M35,-122.3C35,-113.41 35,-103.28 35,-96.25"/>
<polygon fill="#63b8ff" stroke="#63b8ff" points="31.5,-122.58 35,-132.58 38.5,-122.58 31.5,-122.58"/>
</g>
<!-- Node4 -->
<g id="node4" class="node">
<title>Node4</title>
<g id="a_node4"><a xlink:href="../../d9/d24/classcocos2d_1_1_c_c_size.html" target="_top" xlink:title="NA.">
<polygon fill="white" stroke="#666666" points="134,-96 84,-96 84,-77 134,-77 134,-96"/>
<text text-anchor="middle" x="109" y="-84" font-family="Helvetica,sans-Serif" font-size="10.00">CCSize</text>
</a>
</g>
</g>
<!-- Node4&#45;&gt;Node1 -->
<g id="edge3" class="edge">
<title>Node4&#45;&gt;Node1</title>
<path fill="none" stroke="#9a32cd" stroke-dasharray="5,2" d="M104.31,-66.97C100.42,-51.65 95.09,-30.59 92.15,-19"/>
<polygon fill="#9a32cd" stroke="#9a32cd" points="100.97,-68.06 106.82,-76.9 107.76,-66.34 100.97,-68.06"/>
<text text-anchor="middle" x="137.5" y="-51" font-family="Helvetica,sans-Serif" font-size="10.00"> m_tImageSize</text>
<text text-anchor="middle" x="137.5" y="-40" font-family="Helvetica,sans-Serif" font-size="10.00">m_tTileSize</text>
</g>
</g>
</svg>
