<?xml version="1.0" encoding="UTF-8" standalone="no"?>
<!DOCTYPE svg PUBLIC "-//W3C//DTD SVG 1.1//EN"
 "http://www.w3.org/Graphics/SVG/1.1/DTD/svg11.dtd">
<!-- Generated by graphviz version 2.43.0 (0)
 -->
<!-- Title: CCTMXTilesetInfo Pages: 1 -->
<svg width="182pt" height="163pt"
 viewBox="0.00 0.00 182.00 163.00" xmlns="http://www.w3.org/2000/svg" xmlns:xlink="http://www.w3.org/1999/xlink">
<g id="graph0" class="graph" transform="scale(1 1) rotate(0) translate(4 159)">
<title>CCTMXTilesetInfo</title>
<!-- Node1 -->
<g id="node1" class="node">
<title>Node1</title>
<g id="a_node1"><a xlink:title="CCTMXTilesetInfo contains the information about the tilesets like:">
<polygon fill="#bfbfbf" stroke="black" points="38,-0.5 38,-19.5 142,-19.5 142,-0.5 38,-0.5"/>
<text text-anchor="middle" x="90" y="-7.5" font-family="Helvetica,sans-Serif" font-size="10.00">CCTMXTilesetInfo</text>
</a>
</g>
</g>
<!-- Node2 -->
<g id="node2" class="node">
<title>Node2</title>
<g id="a_node2"><a xlink:href="../../d3/dbf/classcocos2d_1_1_c_c_object.html" target="_top" xlink:title="NA.">
<polygon fill="none" stroke="black" points="4,-78.5 4,-97.5 66,-97.5 66,-78.5 4,-78.5"/>
<text text-anchor="middle" x="35" y="-85.5" font-family="Helvetica,sans-Serif" font-size="10.00">CCObject</text>
</a>
</g>
</g>
<!-- Node2&#45;&gt;Node1 -->
<g id="edge1" class="edge">
<title>Node2&#45;&gt;Node1</title>
<path fill="none" stroke="midnightblue" d="M47.3,-70.01C58.61,-54.37 74.94,-31.81 83.76,-19.62"/>
<polygon fill="midnightblue" stroke="midnightblue" points="44.34,-68.13 41.31,-78.28 50.01,-72.23 44.34,-68.13"/>
</g>
<!-- Node3 -->
<g id="node3" class="node">
<title>Node3</title>
<g id="a_node3"><a xlink:href="../../d5/d61/classcocos2d_1_1_c_c_copying.html" target="_top" xlink:title="NA NA.">
<polygon fill="none" stroke="black" points="0,-135.5 0,-154.5 70,-154.5 70,-135.5 0,-135.5"/>
<text text-anchor="middle" x="35" y="-142.5" font-family="Helvetica,sans-Serif" font-size="10.00">CCCopying</text>
</a>
</g>
</g>
<!-- Node3&#45;&gt;Node2 -->
<g id="edge2" class="edge">
<title>Node3&#45;&gt;Node2</title>
<path fill="none" stroke="midnightblue" d="M35,-125.12C35,-115.82 35,-105.06 35,-97.71"/>
<polygon fill="midnightblue" stroke="midnightblue" points="31.5,-125.41 35,-135.41 38.5,-125.41 31.5,-125.41"/>
</g>
<!-- Node4 -->
<g id="node4" class="node">
<title>Node4</title>
<g id="a_node4"><a xlink:href="../../d9/d24/classcocos2d_1_1_c_c_size.html" target="_top" xlink:title="NA.">
<polygon fill="none" stroke="black" points="84,-78.5 84,-97.5 134,-97.5 134,-78.5 84,-78.5"/>
<text text-anchor="middle" x="109" y="-85.5" font-family="Helvetica,sans-Serif" font-size="10.00">CCSize</text>
</a>
</g>
</g>
<!-- Node4&#45;&gt;Node1 -->
<g id="edge3" class="edge">
<title>Node4&#45;&gt;Node1</title>
<path fill="none" stroke="#9a32cd" stroke-dasharray="5,2" d="M104.31,-68.22C100.42,-52.7 95.09,-31.36 92.15,-19.62"/>
<polygon fill="#9a32cd" stroke="#9a32cd" points="101,-69.43 106.82,-78.28 107.79,-67.73 101,-69.43"/>
<text text-anchor="middle" x="137.5" y="-52" font-family="Helvetica,sans-Serif" font-size="10.00"> m_tImageSize</text>
<text text-anchor="middle" x="137.5" y="-41" font-family="Helvetica,sans-Serif" font-size="10.00">m_tTileSize</text>
</g>
</g>
</svg>
