<?xml version="1.0" encoding="UTF-8" standalone="no"?>
<!DOCTYPE svg PUBLIC "-//W3C//DTD SVG 1.1//EN"
 "http://www.w3.org/Graphics/SVG/1.1/DTD/svg11.dtd">
<!-- Generated by graphviz version 2.43.0 (0)
 -->
<!-- Title: CCDictionary Pages: 1 -->
<svg width="196pt" height="152pt"
 viewBox="0.00 0.00 196.00 152.00" xmlns="http://www.w3.org/2000/svg" xmlns:xlink="http://www.w3.org/1999/xlink">
<g id="graph0" class="graph" transform="scale(1 1) rotate(0) translate(4 148)">
<title>CCDictionary</title>
<!-- Node1 -->
<g id="node1" class="node">
<title>Node1</title>
<g id="a_node1"><a xlink:title="CCDictionary is a class like NSDictionary in Obj&#45;C .">
<polygon fill="#bfbfbf" stroke="black" points="65,-0.5 65,-19.5 145,-19.5 145,-0.5 65,-0.5"/>
<text text-anchor="middle" x="105" y="-7.5" font-family="Helvetica,sans-Serif" font-size="10.00">CCDictionary</text>
</a>
</g>
</g>
<!-- Node2 -->
<g id="node2" class="node">
<title>Node2</title>
<g id="a_node2"><a xlink:href="../../d3/dbf/classcocos2d_1_1_c_c_object.html" target="_top" xlink:title="NA.">
<polygon fill="none" stroke="black" points="4,-67.5 4,-86.5 66,-86.5 66,-67.5 4,-67.5"/>
<text text-anchor="middle" x="35" y="-74.5" font-family="Helvetica,sans-Serif" font-size="10.00">CCObject</text>
</a>
</g>
</g>
<!-- Node2&#45;&gt;Node1 -->
<g id="edge1" class="edge">
<title>Node2&#45;&gt;Node1</title>
<path fill="none" stroke="midnightblue" d="M51.85,-60.36C65.61,-47.58 84.55,-29.99 95.71,-19.63"/>
<polygon fill="midnightblue" stroke="midnightblue" points="49.39,-57.86 44.44,-67.23 54.15,-62.99 49.39,-57.86"/>
</g>
<!-- Node3 -->
<g id="node3" class="node">
<title>Node3</title>
<g id="a_node3"><a xlink:href="../../d5/d61/classcocos2d_1_1_c_c_copying.html" target="_top" xlink:title="NA NA.">
<polygon fill="none" stroke="black" points="0,-124.5 0,-143.5 70,-143.5 70,-124.5 0,-124.5"/>
<text text-anchor="middle" x="35" y="-131.5" font-family="Helvetica,sans-Serif" font-size="10.00">CCCopying</text>
</a>
</g>
</g>
<!-- Node3&#45;&gt;Node2 -->
<g id="edge2" class="edge">
<title>Node3&#45;&gt;Node2</title>
<path fill="none" stroke="midnightblue" d="M35,-114.12C35,-104.82 35,-94.06 35,-86.71"/>
<polygon fill="midnightblue" stroke="midnightblue" points="31.5,-114.41 35,-124.41 38.5,-114.41 31.5,-114.41"/>
</g>
<!-- Node4 -->
<g id="node4" class="node">
<title>Node4</title>
<g id="a_node4"><a xlink:href="../../d0/da2/classcocos2d_1_1_c_c_dict_element.html" target="_top" xlink:title="CCDictElement is used for traversing CCDictionary.">
<polygon fill="none" stroke="black" points="84,-67.5 84,-86.5 174,-86.5 174,-67.5 84,-67.5"/>
<text text-anchor="middle" x="129" y="-74.5" font-family="Helvetica,sans-Serif" font-size="10.00">CCDictElement</text>
</a>
</g>
</g>
<!-- Node4&#45;&gt;Node1 -->
<g id="edge3" class="edge">
<title>Node4&#45;&gt;Node1</title>
<path fill="none" stroke="#9a32cd" stroke-dasharray="5,2" d="M122.28,-57.79C117.67,-45.31 111.76,-29.31 108.19,-19.63"/>
<polygon fill="#9a32cd" stroke="#9a32cd" points="119.02,-59.07 125.76,-67.23 125.58,-56.64 119.02,-59.07"/>
<text text-anchor="middle" x="153" y="-41" font-family="Helvetica,sans-Serif" font-size="10.00"> m_pElements</text>
</g>
</g>
</svg>
