<?xml version="1.0" encoding="UTF-8" standalone="no"?>
<!DOCTYPE svg PUBLIC "-//W3C//DTD SVG 1.1//EN"
 "http://www.w3.org/Graphics/SVG/1.1/DTD/svg11.dtd">
<!-- Generated by graphviz version 2.43.0 (0)
 -->
<!-- Title: CCAtlasNode Pages: 1 -->
<svg width="1606pt" height="782pt"
 viewBox="0.00 0.00 1606.00 782.28" xmlns="http://www.w3.org/2000/svg" xmlns:xlink="http://www.w3.org/1999/xlink">
<g id="graph0" class="graph" transform="scale(1 1) rotate(0) translate(4 778.28)">
<title>CCAtlasNode</title>
<!-- Node1 -->
<g id="node1" class="node">
<title>Node1</title>
<g id="a_node1"><a xlink:title="CCAtlasNode is a subclass of CCNode that implements the CCRGBAProtocol and CCTextureProtocol protocol...">
<polygon fill="#999999" stroke="#666666" points="1598,-149 1518,-149 1518,-130 1598,-130 1598,-149"/>
<text text-anchor="middle" x="1558" y="-137" font-family="Helvetica,sans-Serif" font-size="10.00">CCAtlasNode</text>
</a>
</g>
</g>
<!-- Node2 -->
<g id="node2" class="node">
<title>Node2</title>
<g id="a_node2"><a xlink:href="../../de/d2e/classcocos2d_1_1_c_c_node_r_g_b_a.html" target="_top" xlink:title="CCNodeRGBA is a subclass of CCNode that implements the CCRGBAProtocol protocol.">
<polygon fill="white" stroke="#666666" points="1397.5,-249 1314.5,-249 1314.5,-230 1397.5,-230 1397.5,-249"/>
<text text-anchor="middle" x="1356" y="-237" font-family="Helvetica,sans-Serif" font-size="10.00">CCNodeRGBA</text>
</a>
</g>
</g>
<!-- Node2&#45;&gt;Node1 -->
<g id="edge1" class="edge">
<title>Node2&#45;&gt;Node1</title>
<path fill="none" stroke="#63b8ff" d="M1407.73,-232.18C1436.34,-226.42 1471.87,-216.43 1500,-199.5 1521.91,-186.31 1540.91,-162.45 1550.45,-149.14"/>
<polygon fill="#63b8ff" stroke="#63b8ff" points="1406.7,-228.81 1397.53,-234.11 1408.01,-235.69 1406.7,-228.81"/>
</g>
<!-- Node3 -->
<g id="node3" class="node">
<title>Node3</title>
<g id="a_node3"><a xlink:href="../../d0/ded/classcocos2d_1_1_c_c_node.html" target="_top" xlink:title="CCNode is the main element.">
<polygon fill="white" stroke="#666666" points="1161,-472 1105,-472 1105,-453 1161,-453 1161,-472"/>
<text text-anchor="middle" x="1133" y="-460" font-family="Helvetica,sans-Serif" font-size="10.00">CCNode</text>
</a>
</g>
</g>
<!-- Node3&#45;&gt;Node2 -->
<g id="edge2" class="edge">
<title>Node3&#45;&gt;Node2</title>
<path fill="none" stroke="#63b8ff" d="M1150.79,-445.55C1194.63,-401.32 1311.45,-283.44 1345.54,-249.05"/>
<polygon fill="#63b8ff" stroke="#63b8ff" points="1148.05,-443.35 1143.5,-452.92 1153.02,-448.28 1148.05,-443.35"/>
</g>
<!-- Node3&#45;&gt;Node3 -->
<g id="edge24" class="edge">
<title>Node3&#45;&gt;Node3</title>
<path fill="none" stroke="#9a32cd" stroke-dasharray="5,2" d="M1113,-481.55C1114.34,-486.38 1121,-490 1133,-490 1152.2,-490 1157.74,-480.73 1149.65,-472.08"/>
<polygon fill="#9a32cd" stroke="#9a32cd" points="1116.32,-482.68 1116.35,-472.08 1109.72,-480.34 1116.32,-482.68"/>
<text text-anchor="middle" x="1133" y="-493" font-family="Helvetica,sans-Serif" font-size="10.00"> m_pParent</text>
</g>
<!-- Node4 -->
<g id="node4" class="node">
<title>Node4</title>
<g id="a_node4"><a xlink:href="../../d3/dbf/classcocos2d_1_1_c_c_object.html" target="_top" xlink:title="NA.">
<polygon fill="white" stroke="#666666" points="173.5,-469 111.5,-469 111.5,-450 173.5,-450 173.5,-469"/>
<text text-anchor="middle" x="142.5" y="-457" font-family="Helvetica,sans-Serif" font-size="10.00">CCObject</text>
</a>
</g>
</g>
<!-- Node4&#45;&gt;Node3 -->
<g id="edge3" class="edge">
<title>Node4&#45;&gt;Node3</title>
<path fill="none" stroke="#63b8ff" d="M144.75,-479.04C147.88,-512.87 158.73,-582.92 196,-626.5 233.73,-670.61 254.96,-684.5 313,-684.5 313,-684.5 313,-684.5 854,-684.5 949.8,-684.5 992.93,-707.46 1066,-645.5 1120.87,-598.97 1130.12,-503.18 1131.68,-472.32"/>
<polygon fill="#63b8ff" stroke="#63b8ff" points="148.24,-478.73 143.96,-469.04 141.26,-479.29 148.24,-478.73"/>
</g>
<!-- Node4&#45;&gt;Node3 -->
<g id="edge25" class="edge">
<title>Node4&#45;&gt;Node3</title>
<path fill="none" stroke="#9a32cd" stroke-dasharray="5,2" d="M164.53,-475.01C173.84,-481.37 185.12,-488.41 196,-493.5 331.44,-556.86 372.73,-561.14 521,-580.5 641.14,-596.18 963.47,-630.04 1066,-565.5 1101.77,-542.99 1121.81,-493.23 1128.96,-472.2"/>
<polygon fill="#9a32cd" stroke="#9a32cd" points="166.49,-472.11 156.3,-469.22 162.46,-477.83 166.49,-472.11"/>
<text text-anchor="middle" x="583.5" y="-596.5" font-family="Helvetica,sans-Serif" font-size="10.00"> m_pUserObject</text>
</g>
<!-- Node9 -->
<g id="node9" class="node">
<title>Node9</title>
<g id="a_node9"><a xlink:href="../../d2/d51/classcocos2d_1_1_c_c_camera.html" target="_top" xlink:title="A CCCamera is used in every CCNode.">
<polygon fill="white" stroke="#666666" points="475,-469 407,-469 407,-450 475,-450 475,-469"/>
<text text-anchor="middle" x="441" y="-457" font-family="Helvetica,sans-Serif" font-size="10.00">CCCamera</text>
</a>
</g>
</g>
<!-- Node4&#45;&gt;Node9 -->
<g id="edge9" class="edge">
<title>Node4&#45;&gt;Node9</title>
<path fill="none" stroke="#63b8ff" d="M183.63,-459.5C242.67,-459.5 351.84,-459.5 406.7,-459.5"/>
<polygon fill="#63b8ff" stroke="#63b8ff" points="183.56,-456 173.56,-459.5 183.56,-463 183.56,-456"/>
</g>
<!-- Node10 -->
<g id="node10" class="node">
<title>Node10</title>
<g id="a_node10"><a xlink:href="../../d6/d70/classcocos2d_1_1_c_c_grid_base.html" target="_top" xlink:title="Base class for other.">
<polygon fill="white" stroke="#666666" points="890,-332 816,-332 816,-313 890,-313 890,-332"/>
<text text-anchor="middle" x="853" y="-320" font-family="Helvetica,sans-Serif" font-size="10.00">CCGridBase</text>
</a>
</g>
</g>
<!-- Node4&#45;&gt;Node10 -->
<g id="edge11" class="edge">
<title>Node4&#45;&gt;Node10</title>
<path fill="none" stroke="#63b8ff" d="M179.47,-446.68C184.98,-444.86 190.62,-443.07 196,-441.5 400.61,-381.69 452.55,-363.52 664,-336.5 716.59,-329.78 777.91,-325.96 815.85,-324.06"/>
<polygon fill="#63b8ff" stroke="#63b8ff" points="178.14,-443.44 169.79,-449.96 180.38,-450.07 178.14,-443.44"/>
</g>
<!-- Node11 -->
<g id="node11" class="node">
<title>Node11</title>
<g id="a_node11"><a xlink:href="../../d7/dfd/classcocos2d_1_1_c_c_texture2_d.html" target="_top" xlink:title="CCTexture2D class.">
<polygon fill="white" stroke="#666666" points="623.5,-214 543.5,-214 543.5,-195 623.5,-195 623.5,-214"/>
<text text-anchor="middle" x="583.5" y="-202" font-family="Helvetica,sans-Serif" font-size="10.00">CCTexture2D</text>
</a>
</g>
</g>
<!-- Node4&#45;&gt;Node11 -->
<g id="edge14" class="edge">
<title>Node4&#45;&gt;Node11</title>
<path fill="none" stroke="#63b8ff" d="M144.88,-439.73C148.29,-402.63 159.64,-321.2 196,-264.5 218.15,-229.96 228.67,-220.13 267,-205.5 360.78,-169.72 481.96,-184.65 543.26,-196.03"/>
<polygon fill="#63b8ff" stroke="#63b8ff" points="141.39,-439.49 144.06,-449.74 148.37,-440.06 141.39,-439.49"/>
</g>
<!-- Node12 -->
<g id="node12" class="node">
<title>Node12</title>
<g id="a_node12"><a xlink:href="../../db/d28/classcocos2d_1_1_c_c_g_l_program.html" target="_top" xlink:title="CCGLProgram Class that implements a glProgram.">
<polygon fill="white" stroke="#666666" points="356,-233 272,-233 272,-214 356,-214 356,-233"/>
<text text-anchor="middle" x="314" y="-221" font-family="Helvetica,sans-Serif" font-size="10.00">CCGLProgram</text>
</a>
</g>
</g>
<!-- Node4&#45;&gt;Node12 -->
<g id="edge17" class="edge">
<title>Node4&#45;&gt;Node12</title>
<path fill="none" stroke="#63b8ff" d="M147.71,-439.96C154.42,-411.97 169.58,-359.72 196,-322.5 224.34,-282.57 272.38,-248.9 297.17,-233.11"/>
<polygon fill="#63b8ff" stroke="#63b8ff" points="144.29,-439.21 145.47,-449.74 151.11,-440.77 144.29,-439.21"/>
</g>
<!-- Node13 -->
<g id="node13" class="node">
<title>Node13</title>
<g id="a_node13"><a xlink:href="../../d3/d89/classcocos2d_1_1_c_c_grabber.html" target="_top" xlink:title="FBO class that grabs the the contents of the screen NA NA.">
<polygon fill="white" stroke="#666666" points="475.5,-430 406.5,-430 406.5,-411 475.5,-411 475.5,-430"/>
<text text-anchor="middle" x="441" y="-418" font-family="Helvetica,sans-Serif" font-size="10.00">CCGrabber</text>
</a>
</g>
</g>
<!-- Node4&#45;&gt;Node13 -->
<g id="edge20" class="edge">
<title>Node4&#45;&gt;Node13</title>
<path fill="none" stroke="#63b8ff" d="M183.6,-454.23C242.47,-446.48 351.22,-432.18 406.24,-424.94"/>
<polygon fill="#63b8ff" stroke="#63b8ff" points="183.02,-450.77 173.56,-455.55 183.93,-457.71 183.02,-450.77"/>
</g>
<!-- Node14 -->
<g id="node14" class="node">
<title>Node14</title>
<g id="a_node14"><a xlink:href="../../d9/d2e/classcocos2d_1_1_c_c_array.html" target="_top" xlink:title="NA.">
<polygon fill="white" stroke="#666666" points="342,-635 286,-635 286,-616 342,-616 342,-635"/>
<text text-anchor="middle" x="314" y="-623" font-family="Helvetica,sans-Serif" font-size="10.00">CCArray</text>
</a>
</g>
</g>
<!-- Node4&#45;&gt;Node14 -->
<g id="edge23" class="edge">
<title>Node4&#45;&gt;Node14</title>
<path fill="none" stroke="#63b8ff" d="M144.9,-479.22C148.2,-510.19 159.24,-569.93 196,-601.5 220.86,-622.84 259.6,-626.98 285.62,-627.02"/>
<polygon fill="#63b8ff" stroke="#63b8ff" points="148.38,-478.87 144,-469.22 141.41,-479.49 148.38,-478.87"/>
</g>
<!-- Node15 -->
<g id="node15" class="node">
<title>Node15</title>
<g id="a_node15"><a xlink:href="../../de/dee/classcocos2d_1_1_c_c_scheduler.html" target="_top" xlink:title="Scheduler is responsible for triggering the scheduled callbacks.">
<polygon fill="white" stroke="#666666" points="622.5,-571 544.5,-571 544.5,-552 622.5,-552 622.5,-571"/>
<text text-anchor="middle" x="583.5" y="-559" font-family="Helvetica,sans-Serif" font-size="10.00">CCScheduler</text>
</a>
</g>
</g>
<!-- Node4&#45;&gt;Node15 -->
<g id="edge28" class="edge">
<title>Node4&#45;&gt;Node15</title>
<path fill="none" stroke="#63b8ff" d="M183.47,-470.32C187.69,-471.42 191.93,-472.49 196,-473.5 323.1,-504.91 474.75,-538.23 544.26,-553.28"/>
<polygon fill="#63b8ff" stroke="#63b8ff" points="184.27,-466.91 173.71,-467.76 182.49,-473.68 184.27,-466.91"/>
</g>
<!-- Node16 -->
<g id="node16" class="node">
<title>Node16</title>
<g id="a_node16"><a xlink:href="../../d5/dcb/classcocos2d_1_1_c_c_action_manager.html" target="_top" xlink:title="CCActionManager is a singleton that manages all the actions.">
<polygon fill="white" stroke="#666666" points="768,-738 664,-738 664,-719 768,-719 768,-738"/>
<text text-anchor="middle" x="716" y="-726" font-family="Helvetica,sans-Serif" font-size="10.00">CCActionManager</text>
</a>
</g>
</g>
<!-- Node4&#45;&gt;Node16 -->
<g id="edge31" class="edge">
<title>Node4&#45;&gt;Node16</title>
<path fill="none" stroke="#63b8ff" d="M144.87,-479.39C148.89,-531.51 162.57,-669.99 196,-698.5 339.87,-821.2 595.84,-763.17 684.09,-738.03"/>
<polygon fill="#63b8ff" stroke="#63b8ff" points="148.34,-478.85 144.11,-469.13 141.35,-479.36 148.34,-478.85"/>
</g>
<!-- Node22 -->
<g id="node22" class="node">
<title>Node22</title>
<g id="a_node22"><a xlink:href="../../df/d3a/classcocos2d_1_1_c_c_texture_atlas.html" target="_top" xlink:title="A class that implements a Texture Atlas.">
<polygon fill="white" stroke="#666666" points="898.5,-109 807.5,-109 807.5,-90 898.5,-90 898.5,-109"/>
<text text-anchor="middle" x="853" y="-97" font-family="Helvetica,sans-Serif" font-size="10.00">CCTextureAtlas</text>
</a>
</g>
</g>
<!-- Node4&#45;&gt;Node22 -->
<g id="edge39" class="edge">
<title>Node4&#45;&gt;Node22</title>
<path fill="none" stroke="#63b8ff" d="M145.21,-439.88C150.19,-387.13 166.18,-243.85 196,-208.5 274.81,-115.06 672.06,-101.62 807.04,-99.77"/>
<polygon fill="#63b8ff" stroke="#63b8ff" points="141.72,-439.68 144.3,-449.95 148.69,-440.31 141.72,-439.68"/>
</g>
<!-- Node5 -->
<g id="node5" class="node">
<title>Node5</title>
<g id="a_node5"><a xlink:href="../../d5/d61/classcocos2d_1_1_c_c_copying.html" target="_top" xlink:title="NA NA.">
<polygon fill="white" stroke="#666666" points="70,-469 0,-469 0,-450 70,-450 70,-469"/>
<text text-anchor="middle" x="35" y="-457" font-family="Helvetica,sans-Serif" font-size="10.00">CCCopying</text>
</a>
</g>
</g>
<!-- Node5&#45;&gt;Node4 -->
<g id="edge4" class="edge">
<title>Node5&#45;&gt;Node4</title>
<path fill="none" stroke="#63b8ff" d="M80.45,-459.5C90.86,-459.5 101.71,-459.5 111.33,-459.5"/>
<polygon fill="#63b8ff" stroke="#63b8ff" points="80.25,-456 70.25,-459.5 80.25,-463 80.25,-456"/>
</g>
<!-- Node6 -->
<g id="node6" class="node">
<title>Node6</title>
<g id="a_node6"><a xlink:href="../../d2/df3/classcocos2d_1_1_c_c_point.html" target="_top" xlink:title="NA.">
<polygon fill="white" stroke="#666666" points="611,-507 556,-507 556,-488 611,-488 611,-507"/>
<text text-anchor="middle" x="583.5" y="-495" font-family="Helvetica,sans-Serif" font-size="10.00">CCPoint</text>
</a>
</g>
</g>
<!-- Node6&#45;&gt;Node3 -->
<g id="edge5" class="edge">
<title>Node6&#45;&gt;Node3</title>
<path fill="none" stroke="#9a32cd" stroke-dasharray="5,2" d="M621.04,-491.91C661.33,-486 728.12,-476.92 786,-472.5 904.34,-463.47 1046.02,-462.42 1104.59,-462.41"/>
<polygon fill="#9a32cd" stroke="#9a32cd" points="620.52,-488.45 611.15,-493.38 621.55,-495.37 620.52,-488.45"/>
<text text-anchor="middle" x="853" y="-497.5" font-family="Helvetica,sans-Serif" font-size="10.00"> m_obAnchorPoint</text>
<text text-anchor="middle" x="853" y="-486.5" font-family="Helvetica,sans-Serif" font-size="10.00">m_obAnchorPointInPoints</text>
<text text-anchor="middle" x="853" y="-475.5" font-family="Helvetica,sans-Serif" font-size="10.00">m_obPosition</text>
</g>
<!-- Node6&#45;&gt;Node10 -->
<g id="edge18" class="edge">
<title>Node6&#45;&gt;Node10</title>
<path fill="none" stroke="#9a32cd" stroke-dasharray="5,2" d="M606.55,-482.26C622.01,-472.21 643.5,-459.48 664,-451.5 708.12,-434.33 727.87,-453.61 768,-428.5 807.61,-403.71 836.4,-353.41 847.25,-332.24"/>
<polygon fill="#9a32cd" stroke="#9a32cd" points="604.59,-479.36 598.2,-487.81 608.47,-485.19 604.59,-479.36"/>
<text text-anchor="middle" x="716" y="-454.5" font-family="Helvetica,sans-Serif" font-size="10.00"> m_obStep</text>
</g>
<!-- Node7 -->
<g id="node7" class="node">
<title>Node7</title>
<g id="a_node7"><a xlink:href="../../d9/d24/classcocos2d_1_1_c_c_size.html" target="_top" xlink:title="NA.">
<polygon fill="white" stroke="#666666" points="339,-307 289,-307 289,-288 339,-288 339,-307"/>
<text text-anchor="middle" x="314" y="-295" font-family="Helvetica,sans-Serif" font-size="10.00">CCSize</text>
</a>
</g>
</g>
<!-- Node7&#45;&gt;Node3 -->
<g id="edge6" class="edge">
<title>Node7&#45;&gt;Node3</title>
<path fill="none" stroke="#9a32cd" stroke-dasharray="5,2" d="M349.25,-305.37C358.85,-307.47 369.32,-309.67 379,-311.5 530.91,-340.25 921.15,-367.42 1066,-421.5 1086.22,-429.05 1106.95,-443.18 1119.65,-452.71"/>
<polygon fill="#9a32cd" stroke="#9a32cd" points="349.77,-301.9 339.25,-303.14 348.25,-308.73 349.77,-301.9"/>
<text text-anchor="middle" x="716" y="-364.5" font-family="Helvetica,sans-Serif" font-size="10.00"> m_obContentSize</text>
</g>
<!-- Node7&#45;&gt;Node10 -->
<g id="edge12" class="edge">
<title>Node7&#45;&gt;Node10</title>
<path fill="none" stroke="#9a32cd" stroke-dasharray="5,2" d="M349.47,-297.4C425.28,-297.43 612.14,-298.92 768,-311.5 783.69,-312.77 800.93,-314.9 815.7,-316.95"/>
<polygon fill="#9a32cd" stroke="#9a32cd" points="349.11,-293.9 339.11,-297.4 349.11,-300.9 349.11,-293.9"/>
<text text-anchor="middle" x="583.5" y="-306.5" font-family="Helvetica,sans-Serif" font-size="10.00"> m_sGridSize</text>
</g>
<!-- Node7&#45;&gt;Node11 -->
<g id="edge15" class="edge">
<title>Node7&#45;&gt;Node11</title>
<path fill="none" stroke="#9a32cd" stroke-dasharray="5,2" d="M348.1,-284.21C358,-280.33 368.91,-276.16 379,-272.5 440.12,-250.37 512.47,-226.81 552.34,-214.06"/>
<polygon fill="#9a32cd" stroke="#9a32cd" points="346.62,-281.03 338.6,-287.96 349.19,-287.54 346.62,-281.03"/>
<text text-anchor="middle" x="441" y="-275.5" font-family="Helvetica,sans-Serif" font-size="10.00"> m_tContentSize</text>
</g>
<!-- Node8 -->
<g id="node8" class="node">
<title>Node8</title>
<g id="a_node8"><a xlink:href="../../da/dbf/structcocos2d_1_1_c_c_affine_transform.html" target="_top" xlink:title=" ">
<polygon fill="white" stroke="#666666" points="906.5,-533 799.5,-533 799.5,-514 906.5,-514 906.5,-533"/>
<text text-anchor="middle" x="853" y="-521" font-family="Helvetica,sans-Serif" font-size="10.00">CCAffineTransform</text>
</a>
</g>
</g>
<!-- Node8&#45;&gt;Node3 -->
<g id="edge7" class="edge">
<title>Node8&#45;&gt;Node3</title>
<path fill="none" stroke="#9a32cd" stroke-dasharray="5,2" d="M907.33,-511.8C966.37,-498.84 1059.21,-478.47 1104.84,-468.46"/>
<polygon fill="#9a32cd" stroke="#9a32cd" points="906.45,-508.41 897.44,-513.97 907.96,-515.24 906.45,-508.41"/>
<text text-anchor="middle" x="1002" y="-528.5" font-family="Helvetica,sans-Serif" font-size="10.00"> m_sAdditionalTransform</text>
<text text-anchor="middle" x="1002" y="-517.5" font-family="Helvetica,sans-Serif" font-size="10.00">m_sInverse</text>
<text text-anchor="middle" x="1002" y="-506.5" font-family="Helvetica,sans-Serif" font-size="10.00">m_sTransform</text>
</g>
<!-- Node9&#45;&gt;Node3 -->
<g id="edge8" class="edge">
<title>Node9&#45;&gt;Node3</title>
<path fill="none" stroke="#9a32cd" stroke-dasharray="5,2" d="M485.05,-448.36C529.5,-437.48 601.06,-421.68 664,-415.5 831.62,-399.05 1032.92,-439.61 1104.84,-456"/>
<polygon fill="#9a32cd" stroke="#9a32cd" points="484.03,-445.01 475.17,-450.81 485.72,-451.8 484.03,-445.01"/>
<text text-anchor="middle" x="716" y="-418.5" font-family="Helvetica,sans-Serif" font-size="10.00"> m_pCamera</text>
</g>
<!-- Node10&#45;&gt;Node3 -->
<g id="edge10" class="edge">
<title>Node10&#45;&gt;Node3</title>
<path fill="none" stroke="#9a32cd" stroke-dasharray="5,2" d="M900.53,-318.41C946.37,-316.73 1016.54,-320.69 1066,-353.5 1103.05,-378.08 1122.61,-431.26 1129.3,-452.97"/>
<polygon fill="#9a32cd" stroke="#9a32cd" points="900.1,-314.93 890.28,-318.9 900.43,-321.92 900.1,-314.93"/>
<text text-anchor="middle" x="1002" y="-356.5" font-family="Helvetica,sans-Serif" font-size="10.00"> m_pGrid</text>
</g>
<!-- Node11&#45;&gt;Node10 -->
<g id="edge13" class="edge">
<title>Node11&#45;&gt;Node10</title>
<path fill="none" stroke="#9a32cd" stroke-dasharray="5,2" d="M633.8,-209.32C680.01,-214.47 745.28,-223.52 768,-235.5 803.85,-254.4 833.39,-294.25 845.75,-312.72"/>
<polygon fill="#9a32cd" stroke="#9a32cd" points="633.99,-205.82 623.67,-208.22 633.24,-212.78 633.99,-205.82"/>
<text text-anchor="middle" x="716" y="-238.5" font-family="Helvetica,sans-Serif" font-size="10.00"> m_pTexture</text>
</g>
<!-- Node11&#45;&gt;Node22 -->
<g id="edge40" class="edge">
<title>Node11&#45;&gt;Node22</title>
<path fill="none" stroke="#9a32cd" stroke-dasharray="5,2" d="M634.08,-200.23C684.92,-195.42 757.96,-187.13 768,-178.5 789.11,-160.35 766.2,-138.08 786,-118.5 791.85,-112.71 799.34,-108.67 807.16,-105.84"/>
<polygon fill="#9a32cd" stroke="#9a32cd" points="633.55,-196.76 623.91,-201.17 634.2,-203.73 633.55,-196.76"/>
<text text-anchor="middle" x="716" y="-199.5" font-family="Helvetica,sans-Serif" font-size="10.00"> m_pTexture</text>
</g>
<!-- Node12&#45;&gt;Node3 -->
<g id="edge26" class="edge">
<title>Node12&#45;&gt;Node3</title>
<path fill="none" stroke="#9a32cd" stroke-dasharray="5,2" d="M350.01,-210.6C426.67,-184.17 614.76,-129.32 768,-165.5 912.12,-199.52 963.63,-207.51 1066,-314.5 1106.26,-356.58 1124.56,-427.37 1130.1,-452.93"/>
<polygon fill="#9a32cd" stroke="#9a32cd" points="348.66,-207.36 340.38,-213.97 350.97,-213.97 348.66,-207.36"/>
<text text-anchor="middle" x="716" y="-168.5" font-family="Helvetica,sans-Serif" font-size="10.00"> m_pShaderProgram</text>
</g>
<!-- Node12&#45;&gt;Node10 -->
<g id="edge21" class="edge">
<title>Node12&#45;&gt;Node10</title>
<path fill="none" stroke="#9a32cd" stroke-dasharray="5,2" d="M366.25,-230.53C450.54,-242.47 623.5,-268.54 768,-300.5 784.49,-304.15 802.62,-308.81 817.81,-312.91"/>
<polygon fill="#9a32cd" stroke="#9a32cd" points="366.57,-227.04 356.18,-229.11 365.59,-233.97 366.57,-227.04"/>
<text text-anchor="middle" x="583.5" y="-278.5" font-family="Helvetica,sans-Serif" font-size="10.00"> m_pShaderProgram</text>
</g>
<!-- Node12&#45;&gt;Node11 -->
<g id="edge16" class="edge">
<title>Node12&#45;&gt;Node11</title>
<path fill="none" stroke="#9a32cd" stroke-dasharray="5,2" d="M366.24,-214.98C370.55,-214.42 374.85,-213.92 379,-213.5 436.01,-207.8 502.36,-205.71 543.4,-204.95"/>
<polygon fill="#9a32cd" stroke="#9a32cd" points="365.65,-211.53 356.23,-216.37 366.61,-218.46 365.65,-211.53"/>
<text text-anchor="middle" x="441" y="-216.5" font-family="Helvetica,sans-Serif" font-size="10.00"> m_pShaderProgram</text>
</g>
<!-- Node13&#45;&gt;Node10 -->
<g id="edge19" class="edge">
<title>Node13&#45;&gt;Node10</title>
<path fill="none" stroke="#9a32cd" stroke-dasharray="5,2" d="M485.35,-408.22C529.97,-395.76 601.58,-376.26 664,-361.5 716.55,-349.08 777.88,-336.76 815.83,-329.39"/>
<polygon fill="#9a32cd" stroke="#9a32cd" points="484.39,-404.85 475.7,-410.92 486.28,-411.59 484.39,-404.85"/>
<text text-anchor="middle" x="583.5" y="-400.5" font-family="Helvetica,sans-Serif" font-size="10.00"> m_pGrabber</text>
</g>
<!-- Node14&#45;&gt;Node3 -->
<g id="edge22" class="edge">
<title>Node14&#45;&gt;Node3</title>
<path fill="none" stroke="#9a32cd" stroke-dasharray="5,2" d="M352.33,-627.74C495.79,-636.03 1006.55,-662.46 1066,-622.5 1118.62,-587.13 1129.34,-501.37 1131.48,-472.31"/>
<polygon fill="#9a32cd" stroke="#9a32cd" points="352.45,-624.24 342.27,-627.15 352.05,-631.23 352.45,-624.24"/>
<text text-anchor="middle" x="716" y="-646.5" font-family="Helvetica,sans-Serif" font-size="10.00"> m_pChildren</text>
</g>
<!-- Node14&#45;&gt;Node15 -->
<g id="edge29" class="edge">
<title>Node14&#45;&gt;Node15</title>
<path fill="none" stroke="#9a32cd" stroke-dasharray="5,2" d="M351.98,-616.65C402.57,-604.55 492.89,-582.94 544.16,-570.67"/>
<polygon fill="#9a32cd" stroke="#9a32cd" points="351.03,-613.28 342.12,-619.01 352.66,-620.09 351.03,-613.28"/>
<text text-anchor="middle" x="441" y="-612.5" font-family="Helvetica,sans-Serif" font-size="10.00"> m_pScriptHandlerEntries</text>
</g>
<!-- Node15&#45;&gt;Node3 -->
<g id="edge27" class="edge">
<title>Node15&#45;&gt;Node3</title>
<path fill="none" stroke="#9a32cd" stroke-dasharray="5,2" d="M633,-564.23C739.64,-569.45 990.94,-577.32 1066,-540.5 1096.42,-525.58 1118.19,-489.5 1127.28,-472.15"/>
<polygon fill="#9a32cd" stroke="#9a32cd" points="633.01,-560.72 622.85,-563.72 632.66,-567.71 633.01,-560.72"/>
<text text-anchor="middle" x="853" y="-571.5" font-family="Helvetica,sans-Serif" font-size="10.00"> m_pScheduler</text>
</g>
<!-- Node16&#45;&gt;Node3 -->
<g id="edge30" class="edge">
<title>Node16&#45;&gt;Node3</title>
<path fill="none" stroke="#9a32cd" stroke-dasharray="5,2" d="M765.75,-740.03C839.68,-754.42 980.58,-769.28 1066,-698.5 1102.45,-668.3 1125.4,-512.32 1130.78,-472.01"/>
<polygon fill="#9a32cd" stroke="#9a32cd" points="766.27,-736.57 755.77,-738.01 764.88,-743.43 766.27,-736.57"/>
<text text-anchor="middle" x="853" y="-754.5" font-family="Helvetica,sans-Serif" font-size="10.00"> m_pActionManager</text>
</g>
<!-- Node17 -->
<g id="node17" class="node">
<title>Node17</title>
<g id="a_node17"><a xlink:href="../../d1/d65/classcocos2d_1_1_c_c_component_container.html" target="_top" xlink:title="NA NA.">
<polygon fill="white" stroke="#666666" points="920,-146 786,-146 786,-127 920,-127 920,-146"/>
<text text-anchor="middle" x="853" y="-134" font-family="Helvetica,sans-Serif" font-size="10.00">CCComponentContainer</text>
</a>
</g>
</g>
<!-- Node17&#45;&gt;Node3 -->
<g id="edge32" class="edge">
<title>Node17&#45;&gt;Node3</title>
<path fill="none" stroke="#9a32cd" stroke-dasharray="5,2" d="M897.64,-124.78C945.36,-114.86 1021.03,-108.06 1066,-149.5 1086.64,-168.52 1078.52,-246.98 1084,-274.5 1097.75,-343.55 1121.04,-425.16 1129.13,-452.8"/>
<polygon fill="#9a32cd" stroke="#9a32cd" points="896.61,-121.42 887.61,-127 898.13,-128.26 896.61,-121.42"/>
<text text-anchor="middle" x="1002" y="-152.5" font-family="Helvetica,sans-Serif" font-size="10.00"> m_pComponentContainer</text>
</g>
<!-- Node18 -->
<g id="node18" class="node">
<title>Node18</title>
<g id="a_node18"><a xlink:href="../../d8/dda/classcocos2d_1_1_c_c_r_g_b_a_protocol.html" target="_top" xlink:title="RGBA protocol that affects CCNode&#39;s color and opacity NA.">
<polygon fill="white" stroke="#666666" points="1182,-265 1084,-265 1084,-246 1182,-246 1182,-265"/>
<text text-anchor="middle" x="1133" y="-253" font-family="Helvetica,sans-Serif" font-size="10.00">CCRGBAProtocol</text>
</a>
</g>
</g>
<!-- Node18&#45;&gt;Node2 -->
<g id="edge33" class="edge">
<title>Node18&#45;&gt;Node2</title>
<path fill="none" stroke="#63b8ff" d="M1192.25,-251.28C1230.67,-248.5 1280.05,-244.93 1314.29,-242.45"/>
<polygon fill="#63b8ff" stroke="#63b8ff" points="1191.95,-247.8 1182.23,-252.01 1192.45,-254.78 1191.95,-247.8"/>
</g>
<!-- Node19 -->
<g id="node19" class="node">
<title>Node19</title>
<g id="a_node19"><a xlink:href="../../d7/d39/structcc_color3_b.html" target="_top" xlink:title="RGB color composed of bytes 3 bytes.">
<polygon fill="white" stroke="#666666" points="1165.5,-212 1100.5,-212 1100.5,-193 1165.5,-193 1165.5,-212"/>
<text text-anchor="middle" x="1133" y="-200" font-family="Helvetica,sans-Serif" font-size="10.00">ccColor3B</text>
</a>
</g>
</g>
<!-- Node19&#45;&gt;Node1 -->
<g id="edge37" class="edge">
<title>Node19&#45;&gt;Node1</title>
<path fill="none" stroke="#9a32cd" stroke-dasharray="5,2" d="M1175.84,-198.38C1244.08,-191.33 1383.4,-175.56 1500,-153.5 1506.71,-152.23 1513.81,-150.67 1520.64,-149.05"/>
<polygon fill="#9a32cd" stroke="#9a32cd" points="1175.11,-194.94 1165.52,-199.44 1175.82,-201.9 1175.11,-194.94"/>
<text text-anchor="middle" x="1356" y="-185.5" font-family="Helvetica,sans-Serif" font-size="10.00"> m_tColorUnmodified</text>
</g>
<!-- Node19&#45;&gt;Node2 -->
<g id="edge34" class="edge">
<title>Node19&#45;&gt;Node2</title>
<path fill="none" stroke="#9a32cd" stroke-dasharray="5,2" d="M1176.05,-204.85C1206.52,-207.07 1248.59,-211.18 1285,-218.5 1299.18,-221.35 1314.61,-225.83 1327.37,-229.92"/>
<polygon fill="#9a32cd" stroke="#9a32cd" points="1176,-201.34 1165.78,-204.15 1175.52,-208.32 1176,-201.34"/>
<text text-anchor="middle" x="1242.5" y="-232.5" font-family="Helvetica,sans-Serif" font-size="10.00"> _displayedColor</text>
<text text-anchor="middle" x="1242.5" y="-221.5" font-family="Helvetica,sans-Serif" font-size="10.00">_realColor</text>
</g>
<!-- Node20 -->
<g id="node20" class="node">
<title>Node20</title>
<g id="a_node20"><a xlink:href="../../db/d1b/classcocos2d_1_1_c_c_texture_protocol.html" target="_top" xlink:title="CCNode objects that uses a CCTexture2D to render the images.">
<polygon fill="white" stroke="#666666" points="1409,-149 1303,-149 1303,-130 1409,-130 1409,-149"/>
<text text-anchor="middle" x="1356" y="-137" font-family="Helvetica,sans-Serif" font-size="10.00">CCTextureProtocol</text>
</a>
</g>
</g>
<!-- Node20&#45;&gt;Node1 -->
<g id="edge35" class="edge">
<title>Node20&#45;&gt;Node1</title>
<path fill="none" stroke="#63b8ff" d="M1419.25,-139.5C1451.48,-139.5 1489.83,-139.5 1517.87,-139.5"/>
<polygon fill="#63b8ff" stroke="#63b8ff" points="1419.03,-136 1409.03,-139.5 1419.03,-143 1419.03,-136"/>
</g>
<!-- Node21 -->
<g id="node21" class="node">
<title>Node21</title>
<g id="a_node21"><a xlink:href="../../d6/d82/classcocos2d_1_1_c_c_blend_protocol.html" target="_top" xlink:title="Specify the blending function according glBlendFunc Please refer to glBlendFunc in OpenGL ES Manual h...">
<polygon fill="white" stroke="#666666" points="1182,-149 1084,-149 1084,-130 1182,-130 1182,-149"/>
<text text-anchor="middle" x="1133" y="-137" font-family="Helvetica,sans-Serif" font-size="10.00">CCBlendProtocol</text>
</a>
</g>
</g>
<!-- Node21&#45;&gt;Node20 -->
<g id="edge36" class="edge">
<title>Node21&#45;&gt;Node20</title>
<path fill="none" stroke="#63b8ff" d="M1192.54,-139.5C1226.75,-139.5 1269.55,-139.5 1302.63,-139.5"/>
<polygon fill="#63b8ff" stroke="#63b8ff" points="1192.23,-136 1182.23,-139.5 1192.23,-143 1192.23,-136"/>
</g>
<!-- Node22&#45;&gt;Node1 -->
<g id="edge38" class="edge">
<title>Node22&#45;&gt;Node1</title>
<path fill="none" stroke="#9a32cd" stroke-dasharray="5,2" d="M908.81,-100.19C1008.51,-101.79 1226.12,-106.78 1409,-121.5 1446.02,-124.48 1488.04,-129.78 1517.83,-133.85"/>
<polygon fill="#9a32cd" stroke="#9a32cd" points="908.73,-96.69 898.68,-100.04 908.62,-103.69 908.73,-96.69"/>
<text text-anchor="middle" x="1242.5" y="-115.5" font-family="Helvetica,sans-Serif" font-size="10.00"> m_pTextureAtlas</text>
</g>
<!-- Node23 -->
<g id="node23" class="node">
<title>Node23</title>
<g id="a_node23"><a xlink:href="../../dd/d60/structcc_v3_f___c4_b___t2_f___quad.html" target="_top" xlink:title="4 ccVertex3FTex2FColor4B">
<polygon fill="white" stroke="#666666" points="646,-68 521,-68 521,-49 646,-49 646,-68"/>
<text text-anchor="middle" x="583.5" y="-56" font-family="Helvetica,sans-Serif" font-size="10.00">ccV3F_C4B_T2F_Quad</text>
</a>
</g>
</g>
<!-- Node23&#45;&gt;Node22 -->
<g id="edge41" class="edge">
<title>Node23&#45;&gt;Node22</title>
<path fill="none" stroke="#9a32cd" stroke-dasharray="5,2" d="M656.53,-66.74C690.43,-70.93 731.38,-76.41 768,-82.5 780.92,-84.65 794.88,-87.33 807.64,-89.92"/>
<polygon fill="#9a32cd" stroke="#9a32cd" points="656.59,-63.23 646.24,-65.49 655.75,-70.17 656.59,-63.23"/>
<text text-anchor="middle" x="716" y="-85.5" font-family="Helvetica,sans-Serif" font-size="10.00"> m_pQuads</text>
</g>
<!-- Node24 -->
<g id="node24" class="node">
<title>Node24</title>
<g id="a_node24"><a xlink:href="../../d7/de4/structcc_v3_f___c4_b___t2_f.html" target="_top" xlink:title="a Point with a vertex point, a tex coord point and a color 4B">
<polygon fill="white" stroke="#666666" points="361,-56 267,-56 267,-37 361,-37 361,-56"/>
<text text-anchor="middle" x="314" y="-44" font-family="Helvetica,sans-Serif" font-size="10.00">ccV3F_C4B_T2F</text>
</a>
</g>
</g>
<!-- Node24&#45;&gt;Node23 -->
<g id="edge42" class="edge">
<title>Node24&#45;&gt;Node23</title>
<path fill="none" stroke="#9a32cd" stroke-dasharray="5,2" d="M371.21,-45.98C408.6,-45.98 458.78,-46.65 503,-49.5 508.82,-49.88 514.87,-50.37 520.92,-50.93"/>
<polygon fill="#9a32cd" stroke="#9a32cd" points="371.02,-42.48 361.02,-45.99 371.03,-49.48 371.02,-42.48"/>
<text text-anchor="middle" x="441" y="-85.5" font-family="Helvetica,sans-Serif" font-size="10.00"> bl</text>
<text text-anchor="middle" x="441" y="-74.5" font-family="Helvetica,sans-Serif" font-size="10.00">br</text>
<text text-anchor="middle" x="441" y="-63.5" font-family="Helvetica,sans-Serif" font-size="10.00">tl</text>
<text text-anchor="middle" x="441" y="-52.5" font-family="Helvetica,sans-Serif" font-size="10.00">tr</text>
</g>
<!-- Node25 -->
<g id="node25" class="node">
<title>Node25</title>
<g id="a_node25"><a xlink:href="../../d3/d87/structcc_vertex3_f.html" target="_top" xlink:title="A vertex composed of 2 floats: x, y.">
<polygon fill="white" stroke="#666666" points="178,-19 107,-19 107,0 178,0 178,-19"/>
<text text-anchor="middle" x="142.5" y="-7" font-family="Helvetica,sans-Serif" font-size="10.00">ccVertex3F</text>
</a>
</g>
</g>
<!-- Node25&#45;&gt;Node24 -->
<g id="edge43" class="edge">
<title>Node25&#45;&gt;Node24</title>
<path fill="none" stroke="#9a32cd" stroke-dasharray="5,2" d="M188.03,-18.53C206.87,-22.42 229.02,-27.08 249,-31.5 256.8,-33.23 265.12,-35.13 273.09,-36.99"/>
<polygon fill="#9a32cd" stroke="#9a32cd" points="188.73,-15.1 178.23,-16.52 187.32,-21.96 188.73,-15.1"/>
<text text-anchor="middle" x="222.5" y="-34.5" font-family="Helvetica,sans-Serif" font-size="10.00"> vertices</text>
</g>
<!-- Node26 -->
<g id="node26" class="node">
<title>Node26</title>
<g id="a_node26"><a xlink:href="../../d2/dd4/structcc_color4_b.html" target="_top" xlink:title="RGBA color composed of 4 bytes.">
<polygon fill="white" stroke="#666666" points="175,-93 110,-93 110,-74 175,-74 175,-93"/>
<text text-anchor="middle" x="142.5" y="-81" font-family="Helvetica,sans-Serif" font-size="10.00">ccColor4B</text>
</a>
</g>
</g>
<!-- Node26&#45;&gt;Node24 -->
<g id="edge44" class="edge">
<title>Node26&#45;&gt;Node24</title>
<path fill="none" stroke="#9a32cd" stroke-dasharray="5,2" d="M185.16,-74.41C210.76,-68.82 243.49,-61.67 269.43,-56.01"/>
<polygon fill="#9a32cd" stroke="#9a32cd" points="184.41,-70.99 175.38,-76.54 185.9,-77.83 184.41,-70.99"/>
<text text-anchor="middle" x="222.5" y="-75.5" font-family="Helvetica,sans-Serif" font-size="10.00"> colors</text>
</g>
<!-- Node27 -->
<g id="node27" class="node">
<title>Node27</title>
<g id="a_node27"><a xlink:href="../../d0/d46/structcc_tex2_f.html" target="_top" xlink:title="A texcoord composed of 2 floats: u, y.">
<polygon fill="white" stroke="#666666" points="170.5,-56 114.5,-56 114.5,-37 170.5,-37 170.5,-56"/>
<text text-anchor="middle" x="142.5" y="-44" font-family="Helvetica,sans-Serif" font-size="10.00">ccTex2F</text>
</a>
</g>
</g>
<!-- Node27&#45;&gt;Node24 -->
<g id="edge45" class="edge">
<title>Node27&#45;&gt;Node24</title>
<path fill="none" stroke="#9a32cd" stroke-dasharray="5,2" d="M181.05,-46.5C206.4,-46.5 240.02,-46.5 266.98,-46.5"/>
<polygon fill="#9a32cd" stroke="#9a32cd" points="180.73,-43 170.73,-46.5 180.73,-50 180.73,-43"/>
<text text-anchor="middle" x="222.5" y="-49.5" font-family="Helvetica,sans-Serif" font-size="10.00"> texCoords</text>
</g>
<!-- Node28 -->
<g id="node28" class="node">
<title>Node28</title>
<g id="a_node28"><a xlink:href="../../d6/d45/structcc_blend_func.html" target="_top" xlink:title="Blend Function used for textures.">
<polygon fill="white" stroke="#666666" points="1394.5,-73 1317.5,-73 1317.5,-54 1394.5,-54 1394.5,-73"/>
<text text-anchor="middle" x="1356" y="-61" font-family="Helvetica,sans-Serif" font-size="10.00">ccBlendFunc</text>
</a>
</g>
</g>
<!-- Node28&#45;&gt;Node1 -->
<g id="edge46" class="edge">
<title>Node28&#45;&gt;Node1</title>
<path fill="none" stroke="#9a32cd" stroke-dasharray="5,2" d="M1404.85,-59.34C1433.81,-58.83 1470.7,-61.87 1500,-76.5 1524.02,-88.49 1542.7,-115.27 1551.49,-129.76"/>
<polygon fill="#9a32cd" stroke="#9a32cd" points="1404.44,-55.85 1394.56,-59.68 1404.67,-62.85 1404.44,-55.85"/>
<text text-anchor="middle" x="1463.5" y="-79.5" font-family="Helvetica,sans-Serif" font-size="10.00"> m_tBlendFunc</text>
</g>
</g>
</svg>
