<?xml version="1.0" encoding="UTF-8" standalone="no"?>
<!DOCTYPE svg PUBLIC "-//W3C//DTD SVG 1.1//EN"
 "http://www.w3.org/Graphics/SVG/1.1/DTD/svg11.dtd">
<!-- Generated by graphviz version 2.43.0 (0)
 -->
<!-- Title: CCAtlasNode Pages: 1 -->
<svg width="1606pt" height="785pt"
 viewBox="0.00 0.00 1606.00 784.78" xmlns="http://www.w3.org/2000/svg" xmlns:xlink="http://www.w3.org/1999/xlink">
<g id="graph0" class="graph" transform="scale(1 1) rotate(0) translate(4 780.78)">
<title>CCAtlasNode</title>
<!-- Node1 -->
<g id="node1" class="node">
<title>Node1</title>
<g id="a_node1"><a xlink:title="CCAtlasNode is a subclass of CCNode that implements the CCRGBAProtocol and CCTextureProtocol protocol...">
<polygon fill="#bfbfbf" stroke="black" points="1518,-133.5 1518,-152.5 1598,-152.5 1598,-133.5 1518,-133.5"/>
<text text-anchor="middle" x="1558" y="-140.5" font-family="Helvetica,sans-Serif" font-size="10.00">CCAtlasNode</text>
</a>
</g>
</g>
<!-- Node2 -->
<g id="node2" class="node">
<title>Node2</title>
<g id="a_node2"><a xlink:href="../../de/d2e/classcocos2d_1_1_c_c_node_r_g_b_a.html" target="_top" xlink:title="CCNodeRGBA is a subclass of CCNode that implements the CCRGBAProtocol protocol.">
<polygon fill="none" stroke="black" points="1314.5,-233.5 1314.5,-252.5 1397.5,-252.5 1397.5,-233.5 1314.5,-233.5"/>
<text text-anchor="middle" x="1356" y="-240.5" font-family="Helvetica,sans-Serif" font-size="10.00">CCNodeRGBA</text>
</a>
</g>
</g>
<!-- Node2&#45;&gt;Node1 -->
<g id="edge1" class="edge">
<title>Node2&#45;&gt;Node1</title>
<path fill="none" stroke="midnightblue" d="M1407.73,-235.68C1436.34,-229.92 1471.87,-219.93 1500,-203 1521.91,-189.81 1540.91,-165.95 1550.45,-152.64"/>
<polygon fill="midnightblue" stroke="midnightblue" points="1406.7,-232.31 1397.53,-237.61 1408.01,-239.19 1406.7,-232.31"/>
</g>
<!-- Node3 -->
<g id="node3" class="node">
<title>Node3</title>
<g id="a_node3"><a xlink:href="../../d0/ded/classcocos2d_1_1_c_c_node.html" target="_top" xlink:title="CCNode is the main element.">
<polygon fill="none" stroke="black" points="1105,-455.5 1105,-474.5 1161,-474.5 1161,-455.5 1105,-455.5"/>
<text text-anchor="middle" x="1133" y="-462.5" font-family="Helvetica,sans-Serif" font-size="10.00">CCNode</text>
</a>
</g>
</g>
<!-- Node3&#45;&gt;Node2 -->
<g id="edge2" class="edge">
<title>Node3&#45;&gt;Node2</title>
<path fill="none" stroke="midnightblue" d="M1150.79,-448.13C1194.63,-404.1 1311.45,-286.75 1345.54,-252.5"/>
<polygon fill="midnightblue" stroke="midnightblue" points="1148.07,-445.9 1143.5,-455.46 1153.03,-450.84 1148.07,-445.9"/>
</g>
<!-- Node3&#45;&gt;Node3 -->
<g id="edge24" class="edge">
<title>Node3&#45;&gt;Node3</title>
<path fill="none" stroke="#9a32cd" stroke-dasharray="5,2" d="M1113,-484.4C1114.34,-489.31 1121,-493 1133,-493 1152.2,-493 1157.74,-483.57 1149.65,-474.76"/>
<polygon fill="#9a32cd" stroke="#9a32cd" points="1116.38,-485.35 1116.35,-474.76 1109.76,-483.05 1116.38,-485.35"/>
<text text-anchor="middle" x="1133" y="-496" font-family="Helvetica,sans-Serif" font-size="10.00"> m_pParent</text>
</g>
<!-- Node4 -->
<g id="node4" class="node">
<title>Node4</title>
<g id="a_node4"><a xlink:href="../../d3/dbf/classcocos2d_1_1_c_c_object.html" target="_top" xlink:title="NA.">
<polygon fill="none" stroke="black" points="111.5,-452.5 111.5,-471.5 173.5,-471.5 173.5,-452.5 111.5,-452.5"/>
<text text-anchor="middle" x="142.5" y="-459.5" font-family="Helvetica,sans-Serif" font-size="10.00">CCObject</text>
</a>
</g>
</g>
<!-- Node4&#45;&gt;Node3 -->
<g id="edge3" class="edge">
<title>Node4&#45;&gt;Node3</title>
<path fill="none" stroke="midnightblue" d="M144.75,-481.54C147.88,-515.37 158.73,-585.42 196,-629 233.73,-673.11 254.96,-687 313,-687 313,-687 313,-687 854,-687 949.8,-687 992.93,-709.96 1066,-648 1120.87,-601.47 1130.12,-505.68 1131.68,-474.82"/>
<polygon fill="midnightblue" stroke="midnightblue" points="148.24,-481.23 143.96,-471.54 141.26,-481.79 148.24,-481.23"/>
</g>
<!-- Node4&#45;&gt;Node3 -->
<g id="edge25" class="edge">
<title>Node4&#45;&gt;Node3</title>
<path fill="none" stroke="#9a32cd" stroke-dasharray="5,2" d="M164.53,-477.51C173.84,-483.87 185.12,-490.91 196,-496 331.44,-559.36 372.73,-563.64 521,-583 641.14,-598.68 963.47,-632.54 1066,-568 1101.77,-545.49 1121.81,-495.73 1128.96,-474.7"/>
<polygon fill="#9a32cd" stroke="#9a32cd" points="166.49,-474.61 156.3,-471.72 162.46,-480.33 166.49,-474.61"/>
<text text-anchor="middle" x="583.5" y="-599" font-family="Helvetica,sans-Serif" font-size="10.00"> m_pUserObject</text>
</g>
<!-- Node9 -->
<g id="node9" class="node">
<title>Node9</title>
<g id="a_node9"><a xlink:href="../../d2/d51/classcocos2d_1_1_c_c_camera.html" target="_top" xlink:title="A CCCamera is used in every CCNode.">
<polygon fill="none" stroke="black" points="407,-452.5 407,-471.5 475,-471.5 475,-452.5 407,-452.5"/>
<text text-anchor="middle" x="441" y="-459.5" font-family="Helvetica,sans-Serif" font-size="10.00">CCCamera</text>
</a>
</g>
</g>
<!-- Node4&#45;&gt;Node9 -->
<g id="edge9" class="edge">
<title>Node4&#45;&gt;Node9</title>
<path fill="none" stroke="midnightblue" d="M183.63,-462C242.67,-462 351.84,-462 406.7,-462"/>
<polygon fill="midnightblue" stroke="midnightblue" points="183.56,-458.5 173.56,-462 183.56,-465.5 183.56,-458.5"/>
</g>
<!-- Node10 -->
<g id="node10" class="node">
<title>Node10</title>
<g id="a_node10"><a xlink:href="../../d6/d70/classcocos2d_1_1_c_c_grid_base.html" target="_top" xlink:title="Base class for other.">
<polygon fill="none" stroke="black" points="816,-315.5 816,-334.5 890,-334.5 890,-315.5 816,-315.5"/>
<text text-anchor="middle" x="853" y="-322.5" font-family="Helvetica,sans-Serif" font-size="10.00">CCGridBase</text>
</a>
</g>
</g>
<!-- Node4&#45;&gt;Node10 -->
<g id="edge11" class="edge">
<title>Node4&#45;&gt;Node10</title>
<path fill="none" stroke="midnightblue" d="M179.47,-449.18C184.98,-447.36 190.62,-445.57 196,-444 400.61,-384.19 452.55,-366.02 664,-339 716.59,-332.28 777.91,-328.46 815.85,-326.56"/>
<polygon fill="midnightblue" stroke="midnightblue" points="178.14,-445.94 169.79,-452.46 180.38,-452.57 178.14,-445.94"/>
</g>
<!-- Node11 -->
<g id="node11" class="node">
<title>Node11</title>
<g id="a_node11"><a xlink:href="../../d7/dfd/classcocos2d_1_1_c_c_texture2_d.html" target="_top" xlink:title="CCTexture2D class.">
<polygon fill="none" stroke="black" points="543.5,-197.5 543.5,-216.5 623.5,-216.5 623.5,-197.5 543.5,-197.5"/>
<text text-anchor="middle" x="583.5" y="-204.5" font-family="Helvetica,sans-Serif" font-size="10.00">CCTexture2D</text>
</a>
</g>
</g>
<!-- Node4&#45;&gt;Node11 -->
<g id="edge14" class="edge">
<title>Node4&#45;&gt;Node11</title>
<path fill="none" stroke="midnightblue" d="M144.95,-441.85C148.45,-404.72 159.93,-324.16 196,-268 218.17,-233.48 228.73,-223.8 267,-209 360.75,-172.75 482.2,-187.44 543.48,-198.67"/>
<polygon fill="midnightblue" stroke="midnightblue" points="141.43,-442.04 144.08,-452.29 148.4,-442.62 141.43,-442.04"/>
</g>
<!-- Node12 -->
<g id="node12" class="node">
<title>Node12</title>
<g id="a_node12"><a xlink:href="../../db/d28/classcocos2d_1_1_c_c_g_l_program.html" target="_top" xlink:title="CCGLProgram Class that implements a glProgram.">
<polygon fill="none" stroke="black" points="272,-218.5 272,-237.5 356,-237.5 356,-218.5 272,-218.5"/>
<text text-anchor="middle" x="314" y="-225.5" font-family="Helvetica,sans-Serif" font-size="10.00">CCGLProgram</text>
</a>
</g>
</g>
<!-- Node4&#45;&gt;Node12 -->
<g id="edge17" class="edge">
<title>Node4&#45;&gt;Node12</title>
<path fill="none" stroke="midnightblue" d="M147.66,-442.43C154.31,-414.39 169.39,-362.09 196,-325 224.14,-285.77 271.84,-253.06 296.75,-237.59"/>
<polygon fill="midnightblue" stroke="midnightblue" points="144.23,-441.69 145.44,-452.22 151.06,-443.23 144.23,-441.69"/>
</g>
<!-- Node13 -->
<g id="node13" class="node">
<title>Node13</title>
<g id="a_node13"><a xlink:href="../../d3/d89/classcocos2d_1_1_c_c_grabber.html" target="_top" xlink:title="FBO class that grabs the the contents of the screen NA NA.">
<polygon fill="none" stroke="black" points="406.5,-414.5 406.5,-433.5 475.5,-433.5 475.5,-414.5 406.5,-414.5"/>
<text text-anchor="middle" x="441" y="-421.5" font-family="Helvetica,sans-Serif" font-size="10.00">CCGrabber</text>
</a>
</g>
</g>
<!-- Node4&#45;&gt;Node13 -->
<g id="edge20" class="edge">
<title>Node4&#45;&gt;Node13</title>
<path fill="none" stroke="midnightblue" d="M183.6,-456.86C242.47,-449.32 351.22,-435.38 406.24,-428.33"/>
<polygon fill="midnightblue" stroke="midnightblue" points="183.04,-453.4 173.56,-458.15 183.93,-460.35 183.04,-453.4"/>
</g>
<!-- Node14 -->
<g id="node14" class="node">
<title>Node14</title>
<g id="a_node14"><a xlink:href="../../d9/d2e/classcocos2d_1_1_c_c_array.html" target="_top" xlink:title="NA.">
<polygon fill="none" stroke="black" points="286,-618.5 286,-637.5 342,-637.5 342,-618.5 286,-618.5"/>
<text text-anchor="middle" x="314" y="-625.5" font-family="Helvetica,sans-Serif" font-size="10.00">CCArray</text>
</a>
</g>
</g>
<!-- Node4&#45;&gt;Node14 -->
<g id="edge23" class="edge">
<title>Node4&#45;&gt;Node14</title>
<path fill="none" stroke="midnightblue" d="M144.9,-481.72C148.2,-512.69 159.24,-572.43 196,-604 220.86,-625.34 259.6,-629.48 285.62,-629.52"/>
<polygon fill="midnightblue" stroke="midnightblue" points="148.38,-481.37 144,-471.72 141.41,-481.99 148.38,-481.37"/>
</g>
<!-- Node15 -->
<g id="node15" class="node">
<title>Node15</title>
<g id="a_node15"><a xlink:href="../../de/dee/classcocos2d_1_1_c_c_scheduler.html" target="_top" xlink:title="Scheduler is responsible for triggering the scheduled callbacks.">
<polygon fill="none" stroke="black" points="544.5,-554.5 544.5,-573.5 622.5,-573.5 622.5,-554.5 544.5,-554.5"/>
<text text-anchor="middle" x="583.5" y="-561.5" font-family="Helvetica,sans-Serif" font-size="10.00">CCScheduler</text>
</a>
</g>
</g>
<!-- Node4&#45;&gt;Node15 -->
<g id="edge28" class="edge">
<title>Node4&#45;&gt;Node15</title>
<path fill="none" stroke="midnightblue" d="M183.47,-472.82C187.69,-473.92 191.93,-474.99 196,-476 323.1,-507.41 474.75,-540.73 544.26,-555.78"/>
<polygon fill="midnightblue" stroke="midnightblue" points="184.27,-469.41 173.71,-470.26 182.49,-476.18 184.27,-469.41"/>
</g>
<!-- Node16 -->
<g id="node16" class="node">
<title>Node16</title>
<g id="a_node16"><a xlink:href="../../d5/dcb/classcocos2d_1_1_c_c_action_manager.html" target="_top" xlink:title="CCActionManager is a singleton that manages all the actions.">
<polygon fill="none" stroke="black" points="664,-721.5 664,-740.5 768,-740.5 768,-721.5 664,-721.5"/>
<text text-anchor="middle" x="716" y="-728.5" font-family="Helvetica,sans-Serif" font-size="10.00">CCActionManager</text>
</a>
</g>
</g>
<!-- Node4&#45;&gt;Node16 -->
<g id="edge31" class="edge">
<title>Node4&#45;&gt;Node16</title>
<path fill="none" stroke="midnightblue" d="M144.87,-481.89C148.89,-534.01 162.57,-672.49 196,-701 339.87,-823.7 595.84,-765.67 684.09,-740.53"/>
<polygon fill="midnightblue" stroke="midnightblue" points="148.34,-481.35 144.11,-471.63 141.35,-481.86 148.34,-481.35"/>
</g>
<!-- Node22 -->
<g id="node22" class="node">
<title>Node22</title>
<g id="a_node22"><a xlink:href="../../df/d3a/classcocos2d_1_1_c_c_texture_atlas.html" target="_top" xlink:title="A class that implements a Texture Atlas.">
<polygon fill="none" stroke="black" points="807.5,-92.5 807.5,-111.5 898.5,-111.5 898.5,-92.5 807.5,-92.5"/>
<text text-anchor="middle" x="853" y="-99.5" font-family="Helvetica,sans-Serif" font-size="10.00">CCTextureAtlas</text>
</a>
</g>
</g>
<!-- Node4&#45;&gt;Node22 -->
<g id="edge39" class="edge">
<title>Node4&#45;&gt;Node22</title>
<path fill="none" stroke="midnightblue" d="M145.22,-442.46C150.22,-389.92 166.28,-247.2 196,-212 274.86,-118.57 672.08,-104.44 807.05,-102.35"/>
<polygon fill="midnightblue" stroke="midnightblue" points="141.73,-442.21 144.3,-452.49 148.7,-442.85 141.73,-442.21"/>
</g>
<!-- Node5 -->
<g id="node5" class="node">
<title>Node5</title>
<g id="a_node5"><a xlink:href="../../d5/d61/classcocos2d_1_1_c_c_copying.html" target="_top" xlink:title="NA NA.">
<polygon fill="none" stroke="black" points="0,-452.5 0,-471.5 70,-471.5 70,-452.5 0,-452.5"/>
<text text-anchor="middle" x="35" y="-459.5" font-family="Helvetica,sans-Serif" font-size="10.00">CCCopying</text>
</a>
</g>
</g>
<!-- Node5&#45;&gt;Node4 -->
<g id="edge4" class="edge">
<title>Node5&#45;&gt;Node4</title>
<path fill="none" stroke="midnightblue" d="M80.45,-462C90.86,-462 101.71,-462 111.33,-462"/>
<polygon fill="midnightblue" stroke="midnightblue" points="80.25,-458.5 70.25,-462 80.25,-465.5 80.25,-458.5"/>
</g>
<!-- Node6 -->
<g id="node6" class="node">
<title>Node6</title>
<g id="a_node6"><a xlink:href="../../d2/df3/classcocos2d_1_1_c_c_point.html" target="_top" xlink:title="NA.">
<polygon fill="none" stroke="black" points="556,-490.5 556,-509.5 611,-509.5 611,-490.5 556,-490.5"/>
<text text-anchor="middle" x="583.5" y="-497.5" font-family="Helvetica,sans-Serif" font-size="10.00">CCPoint</text>
</a>
</g>
</g>
<!-- Node6&#45;&gt;Node3 -->
<g id="edge5" class="edge">
<title>Node6&#45;&gt;Node3</title>
<path fill="none" stroke="#9a32cd" stroke-dasharray="5,2" d="M621.03,-494.14C661.31,-487.95 728.09,-478.48 786,-474 904.32,-464.85 1046.01,-464.46 1104.59,-464.76"/>
<polygon fill="#9a32cd" stroke="#9a32cd" points="620.48,-490.69 611.14,-495.68 621.56,-497.6 620.48,-490.69"/>
<text text-anchor="middle" x="853" y="-499" font-family="Helvetica,sans-Serif" font-size="10.00"> m_obAnchorPoint</text>
<text text-anchor="middle" x="853" y="-488" font-family="Helvetica,sans-Serif" font-size="10.00">m_obAnchorPointInPoints</text>
<text text-anchor="middle" x="853" y="-477" font-family="Helvetica,sans-Serif" font-size="10.00">m_obPosition</text>
</g>
<!-- Node6&#45;&gt;Node10 -->
<g id="edge18" class="edge">
<title>Node6&#45;&gt;Node10</title>
<path fill="none" stroke="#9a32cd" stroke-dasharray="5,2" d="M606.55,-484.76C622.01,-474.71 643.5,-461.98 664,-454 708.12,-436.83 727.87,-456.11 768,-431 807.61,-406.21 836.4,-355.91 847.25,-334.74"/>
<polygon fill="#9a32cd" stroke="#9a32cd" points="604.59,-481.86 598.2,-490.31 608.47,-487.69 604.59,-481.86"/>
<text text-anchor="middle" x="716" y="-457" font-family="Helvetica,sans-Serif" font-size="10.00"> m_obStep</text>
</g>
<!-- Node7 -->
<g id="node7" class="node">
<title>Node7</title>
<g id="a_node7"><a xlink:href="../../d9/d24/classcocos2d_1_1_c_c_size.html" target="_top" xlink:title="NA.">
<polygon fill="none" stroke="black" points="289,-290.5 289,-309.5 339,-309.5 339,-290.5 289,-290.5"/>
<text text-anchor="middle" x="314" y="-297.5" font-family="Helvetica,sans-Serif" font-size="10.00">CCSize</text>
</a>
</g>
</g>
<!-- Node7&#45;&gt;Node3 -->
<g id="edge6" class="edge">
<title>Node7&#45;&gt;Node3</title>
<path fill="none" stroke="#9a32cd" stroke-dasharray="5,2" d="M349.25,-307.87C358.85,-309.97 369.32,-312.17 379,-314 530.91,-342.75 921.15,-369.92 1066,-424 1086.22,-431.55 1106.95,-445.68 1119.65,-455.21"/>
<polygon fill="#9a32cd" stroke="#9a32cd" points="349.77,-304.4 339.25,-305.64 348.25,-311.23 349.77,-304.4"/>
<text text-anchor="middle" x="716" y="-367" font-family="Helvetica,sans-Serif" font-size="10.00"> m_obContentSize</text>
</g>
<!-- Node7&#45;&gt;Node10 -->
<g id="edge12" class="edge">
<title>Node7&#45;&gt;Node10</title>
<path fill="none" stroke="#9a32cd" stroke-dasharray="5,2" d="M349.47,-299.9C425.28,-299.93 612.14,-301.42 768,-314 783.69,-315.27 800.93,-317.4 815.7,-319.45"/>
<polygon fill="#9a32cd" stroke="#9a32cd" points="349.11,-296.4 339.11,-299.9 349.11,-303.4 349.11,-296.4"/>
<text text-anchor="middle" x="583.5" y="-309" font-family="Helvetica,sans-Serif" font-size="10.00"> m_sGridSize</text>
</g>
<!-- Node7&#45;&gt;Node11 -->
<g id="edge15" class="edge">
<title>Node7&#45;&gt;Node11</title>
<path fill="none" stroke="#9a32cd" stroke-dasharray="5,2" d="M348.1,-286.71C358,-282.83 368.91,-278.66 379,-275 440.12,-252.87 512.47,-229.31 552.34,-216.56"/>
<polygon fill="#9a32cd" stroke="#9a32cd" points="346.62,-283.53 338.6,-290.46 349.19,-290.04 346.62,-283.53"/>
<text text-anchor="middle" x="441" y="-278" font-family="Helvetica,sans-Serif" font-size="10.00"> m_tContentSize</text>
</g>
<!-- Node8 -->
<g id="node8" class="node">
<title>Node8</title>
<g id="a_node8"><a xlink:href="../../da/dbf/structcocos2d_1_1_c_c_affine_transform.html" target="_top" xlink:title=" ">
<polygon fill="none" stroke="black" points="799.5,-516.5 799.5,-535.5 906.5,-535.5 906.5,-516.5 799.5,-516.5"/>
<text text-anchor="middle" x="853" y="-523.5" font-family="Helvetica,sans-Serif" font-size="10.00">CCAffineTransform</text>
</a>
</g>
</g>
<!-- Node8&#45;&gt;Node3 -->
<g id="edge7" class="edge">
<title>Node8&#45;&gt;Node3</title>
<path fill="none" stroke="#9a32cd" stroke-dasharray="5,2" d="M907.33,-514.3C966.37,-501.34 1059.21,-480.97 1104.84,-470.96"/>
<polygon fill="#9a32cd" stroke="#9a32cd" points="906.45,-510.91 897.44,-516.47 907.96,-517.74 906.45,-510.91"/>
<text text-anchor="middle" x="1002" y="-531" font-family="Helvetica,sans-Serif" font-size="10.00"> m_sAdditionalTransform</text>
<text text-anchor="middle" x="1002" y="-520" font-family="Helvetica,sans-Serif" font-size="10.00">m_sInverse</text>
<text text-anchor="middle" x="1002" y="-509" font-family="Helvetica,sans-Serif" font-size="10.00">m_sTransform</text>
</g>
<!-- Node9&#45;&gt;Node3 -->
<g id="edge8" class="edge">
<title>Node9&#45;&gt;Node3</title>
<path fill="none" stroke="#9a32cd" stroke-dasharray="5,2" d="M485.05,-450.86C529.5,-439.98 601.06,-424.18 664,-418 831.62,-401.55 1032.92,-442.11 1104.84,-458.5"/>
<polygon fill="#9a32cd" stroke="#9a32cd" points="484.03,-447.51 475.17,-453.31 485.72,-454.3 484.03,-447.51"/>
<text text-anchor="middle" x="716" y="-421" font-family="Helvetica,sans-Serif" font-size="10.00"> m_pCamera</text>
</g>
<!-- Node10&#45;&gt;Node3 -->
<g id="edge10" class="edge">
<title>Node10&#45;&gt;Node3</title>
<path fill="none" stroke="#9a32cd" stroke-dasharray="5,2" d="M900.53,-320.91C946.37,-319.23 1016.54,-323.19 1066,-356 1103.05,-380.58 1122.61,-433.76 1129.3,-455.47"/>
<polygon fill="#9a32cd" stroke="#9a32cd" points="900.1,-317.43 890.28,-321.4 900.43,-324.42 900.1,-317.43"/>
<text text-anchor="middle" x="1002" y="-359" font-family="Helvetica,sans-Serif" font-size="10.00"> m_pGrid</text>
</g>
<!-- Node11&#45;&gt;Node10 -->
<g id="edge13" class="edge">
<title>Node11&#45;&gt;Node10</title>
<path fill="none" stroke="#9a32cd" stroke-dasharray="5,2" d="M633.8,-211.82C680.01,-216.97 745.28,-226.02 768,-238 803.85,-256.9 833.39,-296.75 845.75,-315.22"/>
<polygon fill="#9a32cd" stroke="#9a32cd" points="633.99,-208.32 623.67,-210.72 633.24,-215.28 633.99,-208.32"/>
<text text-anchor="middle" x="716" y="-241" font-family="Helvetica,sans-Serif" font-size="10.00"> m_pTexture</text>
</g>
<!-- Node11&#45;&gt;Node22 -->
<g id="edge40" class="edge">
<title>Node11&#45;&gt;Node22</title>
<path fill="none" stroke="#9a32cd" stroke-dasharray="5,2" d="M634.08,-202.73C684.92,-197.92 757.96,-189.63 768,-181 789.11,-162.85 766.2,-140.58 786,-121 791.85,-115.21 799.34,-111.17 807.16,-108.34"/>
<polygon fill="#9a32cd" stroke="#9a32cd" points="633.55,-199.26 623.91,-203.67 634.2,-206.23 633.55,-199.26"/>
<text text-anchor="middle" x="716" y="-202" font-family="Helvetica,sans-Serif" font-size="10.00"> m_pTexture</text>
</g>
<!-- Node12&#45;&gt;Node3 -->
<g id="edge26" class="edge">
<title>Node12&#45;&gt;Node3</title>
<path fill="none" stroke="#9a32cd" stroke-dasharray="5,2" d="M345.96,-214.73C356.3,-210.75 368,-206.72 379,-204 547.56,-162.36 599.02,-128.11 768,-168 912.12,-202.02 963.63,-210.01 1066,-317 1106.26,-359.08 1124.56,-429.87 1130.1,-455.43"/>
<polygon fill="#9a32cd" stroke="#9a32cd" points="344.51,-211.54 336.52,-218.49 347.11,-218.04 344.51,-211.54"/>
<text text-anchor="middle" x="716" y="-171" font-family="Helvetica,sans-Serif" font-size="10.00"> m_pShaderProgram</text>
</g>
<!-- Node12&#45;&gt;Node10 -->
<g id="edge21" class="edge">
<title>Node12&#45;&gt;Node10</title>
<path fill="none" stroke="#9a32cd" stroke-dasharray="5,2" d="M366.28,-234.66C450.6,-246.03 623.61,-271.06 768,-303 784.49,-306.65 802.62,-311.31 817.81,-315.41"/>
<polygon fill="#9a32cd" stroke="#9a32cd" points="366.57,-231.17 356.2,-233.31 365.64,-238.11 366.57,-231.17"/>
<text text-anchor="middle" x="583.5" y="-281" font-family="Helvetica,sans-Serif" font-size="10.00"> m_pShaderProgram</text>
</g>
<!-- Node12&#45;&gt;Node11 -->
<g id="edge16" class="edge">
<title>Node12&#45;&gt;Node11</title>
<path fill="none" stroke="#9a32cd" stroke-dasharray="5,2" d="M366.21,-217.74C370.52,-217.07 374.83,-216.48 379,-216 435.91,-209.44 502.29,-207.58 543.36,-207.1"/>
<polygon fill="#9a32cd" stroke="#9a32cd" points="365.48,-214.31 356.18,-219.39 366.62,-221.22 365.48,-214.31"/>
<text text-anchor="middle" x="441" y="-219" font-family="Helvetica,sans-Serif" font-size="10.00"> m_pShaderProgram</text>
</g>
<!-- Node13&#45;&gt;Node10 -->
<g id="edge19" class="edge">
<title>Node13&#45;&gt;Node10</title>
<path fill="none" stroke="#9a32cd" stroke-dasharray="5,2" d="M484.56,-411.69C529.11,-398.99 601.18,-378.99 664,-364 716.53,-351.47 777.86,-339.18 815.82,-331.84"/>
<polygon fill="#9a32cd" stroke="#9a32cd" points="483.59,-408.33 474.94,-414.44 485.52,-415.06 483.59,-408.33"/>
<text text-anchor="middle" x="583.5" y="-403" font-family="Helvetica,sans-Serif" font-size="10.00"> m_pGrabber</text>
</g>
<!-- Node14&#45;&gt;Node3 -->
<g id="edge22" class="edge">
<title>Node14&#45;&gt;Node3</title>
<path fill="none" stroke="#9a32cd" stroke-dasharray="5,2" d="M352.33,-630.24C495.79,-638.53 1006.55,-664.96 1066,-625 1118.62,-589.63 1129.34,-503.87 1131.48,-474.81"/>
<polygon fill="#9a32cd" stroke="#9a32cd" points="352.45,-626.74 342.27,-629.65 352.05,-633.73 352.45,-626.74"/>
<text text-anchor="middle" x="716" y="-649" font-family="Helvetica,sans-Serif" font-size="10.00"> m_pChildren</text>
</g>
<!-- Node14&#45;&gt;Node15 -->
<g id="edge29" class="edge">
<title>Node14&#45;&gt;Node15</title>
<path fill="none" stroke="#9a32cd" stroke-dasharray="5,2" d="M351.98,-619.15C402.57,-607.05 492.89,-585.44 544.16,-573.17"/>
<polygon fill="#9a32cd" stroke="#9a32cd" points="351.03,-615.78 342.12,-621.51 352.66,-622.59 351.03,-615.78"/>
<text text-anchor="middle" x="441" y="-615" font-family="Helvetica,sans-Serif" font-size="10.00"> m_pScriptHandlerEntries</text>
</g>
<!-- Node15&#45;&gt;Node3 -->
<g id="edge27" class="edge">
<title>Node15&#45;&gt;Node3</title>
<path fill="none" stroke="#9a32cd" stroke-dasharray="5,2" d="M633,-566.73C739.64,-571.95 990.94,-579.82 1066,-543 1096.42,-528.08 1118.19,-492 1127.28,-474.65"/>
<polygon fill="#9a32cd" stroke="#9a32cd" points="633.01,-563.22 622.85,-566.22 632.66,-570.21 633.01,-563.22"/>
<text text-anchor="middle" x="853" y="-574" font-family="Helvetica,sans-Serif" font-size="10.00"> m_pScheduler</text>
</g>
<!-- Node16&#45;&gt;Node3 -->
<g id="edge30" class="edge">
<title>Node16&#45;&gt;Node3</title>
<path fill="none" stroke="#9a32cd" stroke-dasharray="5,2" d="M765.75,-742.53C839.68,-756.92 980.58,-771.78 1066,-701 1102.45,-670.8 1125.4,-514.82 1130.78,-474.51"/>
<polygon fill="#9a32cd" stroke="#9a32cd" points="766.27,-739.07 755.77,-740.51 764.88,-745.93 766.27,-739.07"/>
<text text-anchor="middle" x="853" y="-757" font-family="Helvetica,sans-Serif" font-size="10.00"> m_pActionManager</text>
</g>
<!-- Node17 -->
<g id="node17" class="node">
<title>Node17</title>
<g id="a_node17"><a xlink:href="../../d1/d65/classcocos2d_1_1_c_c_component_container.html" target="_top" xlink:title="NA NA.">
<polygon fill="none" stroke="black" points="786,-130.5 786,-149.5 920,-149.5 920,-130.5 786,-130.5"/>
<text text-anchor="middle" x="853" y="-137.5" font-family="Helvetica,sans-Serif" font-size="10.00">CCComponentContainer</text>
</a>
</g>
</g>
<!-- Node17&#45;&gt;Node3 -->
<g id="edge32" class="edge">
<title>Node17&#45;&gt;Node3</title>
<path fill="none" stroke="#9a32cd" stroke-dasharray="5,2" d="M897.64,-128.28C945.36,-118.36 1021.03,-111.56 1066,-153 1086.64,-172.02 1078.5,-250.48 1084,-278 1097.72,-346.7 1121.03,-427.86 1129.13,-455.35"/>
<polygon fill="#9a32cd" stroke="#9a32cd" points="896.61,-124.92 887.61,-130.5 898.13,-131.76 896.61,-124.92"/>
<text text-anchor="middle" x="1002" y="-156" font-family="Helvetica,sans-Serif" font-size="10.00"> m_pComponentContainer</text>
</g>
<!-- Node18 -->
<g id="node18" class="node">
<title>Node18</title>
<g id="a_node18"><a xlink:href="../../d8/dda/classcocos2d_1_1_c_c_r_g_b_a_protocol.html" target="_top" xlink:title="RGBA protocol that affects CCNode&#39;s color and opacity NA.">
<polygon fill="none" stroke="black" points="1084,-249.5 1084,-268.5 1182,-268.5 1182,-249.5 1084,-249.5"/>
<text text-anchor="middle" x="1133" y="-256.5" font-family="Helvetica,sans-Serif" font-size="10.00">CCRGBAProtocol</text>
</a>
</g>
</g>
<!-- Node18&#45;&gt;Node2 -->
<g id="edge33" class="edge">
<title>Node18&#45;&gt;Node2</title>
<path fill="none" stroke="midnightblue" d="M1192.25,-254.78C1230.67,-252 1280.05,-248.43 1314.29,-245.95"/>
<polygon fill="midnightblue" stroke="midnightblue" points="1191.95,-251.3 1182.23,-255.51 1192.45,-258.28 1191.95,-251.3"/>
</g>
<!-- Node19 -->
<g id="node19" class="node">
<title>Node19</title>
<g id="a_node19"><a xlink:href="../../d7/d39/structcc_color3_b.html" target="_top" xlink:title="RGB color composed of bytes 3 bytes.">
<polygon fill="none" stroke="black" points="1100.5,-195.5 1100.5,-214.5 1165.5,-214.5 1165.5,-195.5 1100.5,-195.5"/>
<text text-anchor="middle" x="1133" y="-202.5" font-family="Helvetica,sans-Serif" font-size="10.00">ccColor3B</text>
</a>
</g>
</g>
<!-- Node19&#45;&gt;Node1 -->
<g id="edge37" class="edge">
<title>Node19&#45;&gt;Node1</title>
<path fill="none" stroke="#9a32cd" stroke-dasharray="5,2" d="M1175.85,-201.03C1244.08,-194.22 1383.42,-178.89 1500,-157 1506.71,-155.74 1513.81,-154.18 1520.64,-152.56"/>
<polygon fill="#9a32cd" stroke="#9a32cd" points="1175.13,-197.59 1165.52,-202.05 1175.81,-204.55 1175.13,-197.59"/>
<text text-anchor="middle" x="1356" y="-189" font-family="Helvetica,sans-Serif" font-size="10.00"> m_tColorUnmodified</text>
</g>
<!-- Node19&#45;&gt;Node2 -->
<g id="edge34" class="edge">
<title>Node19&#45;&gt;Node2</title>
<path fill="none" stroke="#9a32cd" stroke-dasharray="5,2" d="M1176.05,-207.7C1206.52,-210.15 1248.59,-214.55 1285,-222 1299.17,-224.9 1314.6,-229.38 1327.36,-233.46"/>
<polygon fill="#9a32cd" stroke="#9a32cd" points="1176.02,-204.19 1165.78,-206.92 1175.49,-211.17 1176.02,-204.19"/>
<text text-anchor="middle" x="1242.5" y="-236" font-family="Helvetica,sans-Serif" font-size="10.00"> _displayedColor</text>
<text text-anchor="middle" x="1242.5" y="-225" font-family="Helvetica,sans-Serif" font-size="10.00">_realColor</text>
</g>
<!-- Node20 -->
<g id="node20" class="node">
<title>Node20</title>
<g id="a_node20"><a xlink:href="../../db/d1b/classcocos2d_1_1_c_c_texture_protocol.html" target="_top" xlink:title="CCNode objects that uses a CCTexture2D to render the images.">
<polygon fill="none" stroke="black" points="1303,-133.5 1303,-152.5 1409,-152.5 1409,-133.5 1303,-133.5"/>
<text text-anchor="middle" x="1356" y="-140.5" font-family="Helvetica,sans-Serif" font-size="10.00">CCTextureProtocol</text>
</a>
</g>
</g>
<!-- Node20&#45;&gt;Node1 -->
<g id="edge35" class="edge">
<title>Node20&#45;&gt;Node1</title>
<path fill="none" stroke="midnightblue" d="M1419.25,-143C1451.48,-143 1489.83,-143 1517.87,-143"/>
<polygon fill="midnightblue" stroke="midnightblue" points="1419.03,-139.5 1409.03,-143 1419.03,-146.5 1419.03,-139.5"/>
</g>
<!-- Node21 -->
<g id="node21" class="node">
<title>Node21</title>
<g id="a_node21"><a xlink:href="../../d6/d82/classcocos2d_1_1_c_c_blend_protocol.html" target="_top" xlink:title="Specify the blending function according glBlendFunc Please refer to glBlendFunc in OpenGL ES Manual h...">
<polygon fill="none" stroke="black" points="1084,-133.5 1084,-152.5 1182,-152.5 1182,-133.5 1084,-133.5"/>
<text text-anchor="middle" x="1133" y="-140.5" font-family="Helvetica,sans-Serif" font-size="10.00">CCBlendProtocol</text>
</a>
</g>
</g>
<!-- Node21&#45;&gt;Node20 -->
<g id="edge36" class="edge">
<title>Node21&#45;&gt;Node20</title>
<path fill="none" stroke="midnightblue" d="M1192.54,-143C1226.75,-143 1269.55,-143 1302.63,-143"/>
<polygon fill="midnightblue" stroke="midnightblue" points="1192.23,-139.5 1182.23,-143 1192.23,-146.5 1192.23,-139.5"/>
</g>
<!-- Node22&#45;&gt;Node1 -->
<g id="edge38" class="edge">
<title>Node22&#45;&gt;Node1</title>
<path fill="none" stroke="#9a32cd" stroke-dasharray="5,2" d="M908.82,-102.57C1008.53,-103.98 1226.17,-108.67 1409,-124 1446.04,-127.11 1488.06,-132.7 1517.84,-137.02"/>
<polygon fill="#9a32cd" stroke="#9a32cd" points="908.73,-99.07 898.68,-102.44 908.64,-106.07 908.73,-99.07"/>
<text text-anchor="middle" x="1242.5" y="-118" font-family="Helvetica,sans-Serif" font-size="10.00"> m_pTextureAtlas</text>
</g>
<!-- Node23 -->
<g id="node23" class="node">
<title>Node23</title>
<g id="a_node23"><a xlink:href="../../dd/d60/structcc_v3_f___c4_b___t2_f___quad.html" target="_top" xlink:title="4 ccVertex3FTex2FColor4B">
<polygon fill="none" stroke="black" points="521,-50.5 521,-69.5 646,-69.5 646,-50.5 521,-50.5"/>
<text text-anchor="middle" x="583.5" y="-57.5" font-family="Helvetica,sans-Serif" font-size="10.00">ccV3F_C4B_T2F_Quad</text>
</a>
</g>
</g>
<!-- Node23&#45;&gt;Node22 -->
<g id="edge41" class="edge">
<title>Node23&#45;&gt;Node22</title>
<path fill="none" stroke="#9a32cd" stroke-dasharray="5,2" d="M656.52,-68.72C690.42,-73.11 731.37,-78.8 768,-85 780.91,-87.18 794.87,-89.87 807.63,-92.47"/>
<polygon fill="#9a32cd" stroke="#9a32cd" points="656.6,-65.21 646.24,-67.41 655.71,-72.15 656.6,-65.21"/>
<text text-anchor="middle" x="716" y="-88" font-family="Helvetica,sans-Serif" font-size="10.00"> m_pQuads</text>
</g>
<!-- Node24 -->
<g id="node24" class="node">
<title>Node24</title>
<g id="a_node24"><a xlink:href="../../d7/de4/structcc_v3_f___c4_b___t2_f.html" target="_top" xlink:title="a Point with a vertex point, a tex coord point and a color 4B">
<polygon fill="none" stroke="black" points="267,-39.5 267,-58.5 361,-58.5 361,-39.5 267,-39.5"/>
<text text-anchor="middle" x="314" y="-46.5" font-family="Helvetica,sans-Serif" font-size="10.00">ccV3F_C4B_T2F</text>
</a>
</g>
</g>
<!-- Node24&#45;&gt;Node23 -->
<g id="edge42" class="edge">
<title>Node24&#45;&gt;Node23</title>
<path fill="none" stroke="#9a32cd" stroke-dasharray="5,2" d="M371.2,-48.66C408.59,-48.74 458.77,-49.43 503,-52 508.82,-52.34 514.86,-52.78 520.91,-53.28"/>
<polygon fill="#9a32cd" stroke="#9a32cd" points="371.01,-45.16 361.01,-48.65 371.01,-52.16 371.01,-45.16"/>
<text text-anchor="middle" x="441" y="-88" font-family="Helvetica,sans-Serif" font-size="10.00"> bl</text>
<text text-anchor="middle" x="441" y="-77" font-family="Helvetica,sans-Serif" font-size="10.00">br</text>
<text text-anchor="middle" x="441" y="-66" font-family="Helvetica,sans-Serif" font-size="10.00">tl</text>
<text text-anchor="middle" x="441" y="-55" font-family="Helvetica,sans-Serif" font-size="10.00">tr</text>
</g>
<!-- Node25 -->
<g id="node25" class="node">
<title>Node25</title>
<g id="a_node25"><a xlink:href="../../d3/d87/structcc_vertex3_f.html" target="_top" xlink:title="A vertex composed of 2 floats: x, y.">
<polygon fill="none" stroke="black" points="107,-0.5 107,-19.5 178,-19.5 178,-0.5 107,-0.5"/>
<text text-anchor="middle" x="142.5" y="-7.5" font-family="Helvetica,sans-Serif" font-size="10.00">ccVertex3F</text>
</a>
</g>
</g>
<!-- Node25&#45;&gt;Node24 -->
<g id="edge43" class="edge">
<title>Node25&#45;&gt;Node24</title>
<path fill="none" stroke="#9a32cd" stroke-dasharray="5,2" d="M188,-20.05C206.82,-24.33 228.99,-29.38 249,-34 256.56,-35.75 264.62,-37.62 272.38,-39.44"/>
<polygon fill="#9a32cd" stroke="#9a32cd" points="188.73,-16.63 178.2,-17.83 187.18,-23.46 188.73,-16.63"/>
<text text-anchor="middle" x="222.5" y="-37" font-family="Helvetica,sans-Serif" font-size="10.00"> vertices</text>
</g>
<!-- Node26 -->
<g id="node26" class="node">
<title>Node26</title>
<g id="a_node26"><a xlink:href="../../d2/dd4/structcc_color4_b.html" target="_top" xlink:title="RGBA color composed of 4 bytes.">
<polygon fill="none" stroke="black" points="110,-76.5 110,-95.5 175,-95.5 175,-76.5 110,-76.5"/>
<text text-anchor="middle" x="142.5" y="-83.5" font-family="Helvetica,sans-Serif" font-size="10.00">ccColor4B</text>
</a>
</g>
</g>
<!-- Node26&#45;&gt;Node24 -->
<g id="edge44" class="edge">
<title>Node26&#45;&gt;Node24</title>
<path fill="none" stroke="#9a32cd" stroke-dasharray="5,2" d="M185.16,-76.91C210.76,-71.32 243.49,-64.17 269.43,-58.51"/>
<polygon fill="#9a32cd" stroke="#9a32cd" points="184.41,-73.49 175.38,-79.04 185.9,-80.33 184.41,-73.49"/>
<text text-anchor="middle" x="222.5" y="-78" font-family="Helvetica,sans-Serif" font-size="10.00"> colors</text>
</g>
<!-- Node27 -->
<g id="node27" class="node">
<title>Node27</title>
<g id="a_node27"><a xlink:href="../../d0/d46/structcc_tex2_f.html" target="_top" xlink:title="A texcoord composed of 2 floats: u, y.">
<polygon fill="none" stroke="black" points="114.5,-38.5 114.5,-57.5 170.5,-57.5 170.5,-38.5 114.5,-38.5"/>
<text text-anchor="middle" x="142.5" y="-45.5" font-family="Helvetica,sans-Serif" font-size="10.00">ccTex2F</text>
</a>
</g>
</g>
<!-- Node27&#45;&gt;Node24 -->
<g id="edge45" class="edge">
<title>Node27&#45;&gt;Node24</title>
<path fill="none" stroke="#9a32cd" stroke-dasharray="5,2" d="M181.05,-48.22C206.4,-48.37 240.02,-48.57 266.98,-48.73"/>
<polygon fill="#9a32cd" stroke="#9a32cd" points="180.75,-44.72 170.73,-48.16 180.71,-51.72 180.75,-44.72"/>
<text text-anchor="middle" x="222.5" y="-52" font-family="Helvetica,sans-Serif" font-size="10.00"> texCoords</text>
</g>
<!-- Node28 -->
<g id="node28" class="node">
<title>Node28</title>
<g id="a_node28"><a xlink:href="../../d6/d45/structcc_blend_func.html" target="_top" xlink:title="Blend Function used for textures.">
<polygon fill="none" stroke="black" points="1317.5,-57.5 1317.5,-76.5 1394.5,-76.5 1394.5,-57.5 1317.5,-57.5"/>
<text text-anchor="middle" x="1356" y="-64.5" font-family="Helvetica,sans-Serif" font-size="10.00">ccBlendFunc</text>
</a>
</g>
</g>
<!-- Node28&#45;&gt;Node1 -->
<g id="edge46" class="edge">
<title>Node28&#45;&gt;Node1</title>
<path fill="none" stroke="#9a32cd" stroke-dasharray="5,2" d="M1404.85,-62.84C1433.81,-62.33 1470.7,-65.37 1500,-80 1524.02,-91.99 1542.7,-118.77 1551.49,-133.26"/>
<polygon fill="#9a32cd" stroke="#9a32cd" points="1404.44,-59.35 1394.56,-63.18 1404.67,-66.35 1404.44,-59.35"/>
<text text-anchor="middle" x="1463.5" y="-83" font-family="Helvetica,sans-Serif" font-size="10.00"> m_tBlendFunc</text>
</g>
</g>
</svg>
