<?xml version="1.0" encoding="UTF-8" standalone="no"?>
<!DOCTYPE svg PUBLIC "-//W3C//DTD SVG 1.1//EN"
 "http://www.w3.org/Graphics/SVG/1.1/DTD/svg11.dtd">
<!-- Generated by graphviz version 2.43.0 (0)
 -->
<!-- Title: CCParticleSystem Pages: 1 -->
<svg width="1621pt" height="840pt"
 viewBox="0.00 0.00 1621.00 839.50" xmlns="http://www.w3.org/2000/svg" xmlns:xlink="http://www.w3.org/1999/xlink">
<g id="graph0" class="graph" transform="scale(1 1) rotate(0) translate(4 835.5)">
<title>CCParticleSystem</title>
<!-- Node1 -->
<g id="node1" class="node">
<title>Node1</title>
<g id="a_node1"><a xlink:title="Particle System base class.">
<polygon fill="#999999" stroke="#666666" points="1613,-196 1510,-196 1510,-177 1613,-177 1613,-196"/>
<text text-anchor="middle" x="1561.5" y="-184" font-family="Helvetica,sans-Serif" font-size="10.00">CCParticleSystem</text>
</a>
</g>
</g>
<!-- Node2 -->
<g id="node2" class="node">
<title>Node2</title>
<g id="a_node2"><a xlink:href="../../d0/ded/classcocos2d_1_1_c_c_node.html" target="_top" xlink:title="CCNode is the main element.">
<polygon fill="white" stroke="#666666" points="1165,-425 1109,-425 1109,-406 1165,-406 1165,-425"/>
<text text-anchor="middle" x="1137" y="-413" font-family="Helvetica,sans-Serif" font-size="10.00">CCNode</text>
</a>
</g>
</g>
<!-- Node2&#45;&gt;Node1 -->
<g id="edge1" class="edge">
<title>Node2&#45;&gt;Node1</title>
<path fill="none" stroke="#63b8ff" d="M1164.48,-401.15C1243.56,-358.29 1476.65,-231.95 1542.81,-196.09"/>
<polygon fill="#63b8ff" stroke="#63b8ff" points="1162.74,-398.11 1155.62,-405.95 1166.08,-404.26 1162.74,-398.11"/>
</g>
<!-- Node2&#45;&gt;Node2 -->
<g id="edge23" class="edge">
<title>Node2&#45;&gt;Node2</title>
<path fill="none" stroke="#9a32cd" stroke-dasharray="5,2" d="M1119.32,-434.91C1120.71,-439.56 1126.6,-443 1137,-443 1154.06,-443 1158.99,-433.73 1151.8,-425.08"/>
<polygon fill="#9a32cd" stroke="#9a32cd" points="1122.75,-435.66 1122.2,-425.08 1116.03,-433.69 1122.75,-435.66"/>
<text text-anchor="middle" x="1137" y="-446" font-family="Helvetica,sans-Serif" font-size="10.00"> m_pParent</text>
</g>
<!-- Node21 -->
<g id="node21" class="node">
<title>Node21</title>
<g id="a_node21"><a xlink:href="../../d0/d0a/classcocos2d_1_1_c_c_particle_batch_node.html" target="_top" xlink:title="CCParticleBatchNode is like a batch node: if it contains children, it will draw them in 1 single Open...">
<polygon fill="white" stroke="#666666" points="1396,-218 1277,-218 1277,-199 1396,-199 1396,-218"/>
<text text-anchor="middle" x="1336.5" y="-206" font-family="Helvetica,sans-Serif" font-size="10.00">CCParticleBatchNode</text>
</a>
</g>
</g>
<!-- Node2&#45;&gt;Node21 -->
<g id="edge38" class="edge">
<title>Node2&#45;&gt;Node21</title>
<path fill="none" stroke="#63b8ff" d="M1154.36,-398.36C1194.08,-356.72 1294.69,-251.27 1326.03,-218.43"/>
<polygon fill="#63b8ff" stroke="#63b8ff" points="1151.63,-396.14 1147.26,-405.79 1156.7,-400.97 1151.63,-396.14"/>
</g>
<!-- Node3 -->
<g id="node3" class="node">
<title>Node3</title>
<g id="a_node3"><a xlink:href="../../d3/dbf/classcocos2d_1_1_c_c_object.html" target="_top" xlink:title="NA.">
<polygon fill="white" stroke="#666666" points="173.5,-408 111.5,-408 111.5,-389 173.5,-389 173.5,-408"/>
<text text-anchor="middle" x="142.5" y="-396" font-family="Helvetica,sans-Serif" font-size="10.00">CCObject</text>
</a>
</g>
</g>
<!-- Node3&#45;&gt;Node2 -->
<g id="edge2" class="edge">
<title>Node3&#45;&gt;Node2</title>
<path fill="none" stroke="#63b8ff" d="M183.96,-399.19C349.26,-402.02 971.03,-412.67 1108.84,-415.03"/>
<polygon fill="#63b8ff" stroke="#63b8ff" points="183.8,-395.69 173.75,-399.02 183.68,-402.69 183.8,-395.69"/>
</g>
<!-- Node3&#45;&gt;Node2 -->
<g id="edge24" class="edge">
<title>Node3&#45;&gt;Node2</title>
<path fill="none" stroke="#9a32cd" stroke-dasharray="5,2" d="M183.84,-395.18C187.95,-394.91 192.05,-394.68 196,-394.5 340.31,-387.9 376.54,-390.61 521,-389.5 763.35,-387.64 824.39,-388.54 1066,-407.5 1080.15,-408.61 1095.84,-410.36 1108.78,-411.94"/>
<polygon fill="#9a32cd" stroke="#9a32cd" points="183.47,-391.69 173.74,-395.88 183.96,-398.68 183.47,-391.69"/>
<text text-anchor="middle" x="583.5" y="-392.5" font-family="Helvetica,sans-Serif" font-size="10.00"> m_pUserObject</text>
</g>
<!-- Node8 -->
<g id="node8" class="node">
<title>Node8</title>
<g id="a_node8"><a xlink:href="../../d2/d51/classcocos2d_1_1_c_c_camera.html" target="_top" xlink:title="A CCCamera is used in every CCNode.">
<polygon fill="white" stroke="#666666" points="475,-249 407,-249 407,-230 475,-230 475,-249"/>
<text text-anchor="middle" x="441" y="-237" font-family="Helvetica,sans-Serif" font-size="10.00">CCCamera</text>
</a>
</g>
</g>
<!-- Node3&#45;&gt;Node8 -->
<g id="edge8" class="edge">
<title>Node3&#45;&gt;Node8</title>
<path fill="none" stroke="#63b8ff" d="M147.03,-378.62C152.69,-352.73 166.33,-307.92 196,-283.5 256.81,-233.43 355.37,-232.46 406.63,-235.98"/>
<polygon fill="#63b8ff" stroke="#63b8ff" points="143.53,-378.25 145.01,-388.74 150.4,-379.61 143.53,-378.25"/>
</g>
<!-- Node9 -->
<g id="node9" class="node">
<title>Node9</title>
<g id="a_node9"><a xlink:href="../../d6/d70/classcocos2d_1_1_c_c_grid_base.html" target="_top" xlink:title="Base class for other.">
<polygon fill="white" stroke="#666666" points="890,-682 816,-682 816,-663 890,-663 890,-682"/>
<text text-anchor="middle" x="853" y="-670" font-family="Helvetica,sans-Serif" font-size="10.00">CCGridBase</text>
</a>
</g>
</g>
<!-- Node3&#45;&gt;Node9 -->
<g id="edge10" class="edge">
<title>Node3&#45;&gt;Node9</title>
<path fill="none" stroke="#63b8ff" d="M145.7,-418.21C150.38,-453.9 163.64,-530.68 196,-586.5 218.54,-625.38 229.4,-633.89 267,-658.5 446.79,-776.16 728.8,-708.96 821.41,-682.04"/>
<polygon fill="#63b8ff" stroke="#63b8ff" points="149.16,-417.65 144.47,-408.15 142.21,-418.5 149.16,-417.65"/>
</g>
<!-- Node10 -->
<g id="node10" class="node">
<title>Node10</title>
<g id="a_node10"><a xlink:href="../../d7/dfd/classcocos2d_1_1_c_c_texture2_d.html" target="_top" xlink:title="CCTexture2D class.">
<polygon fill="white" stroke="#666666" points="623.5,-525 543.5,-525 543.5,-506 623.5,-506 623.5,-525"/>
<text text-anchor="middle" x="583.5" y="-513" font-family="Helvetica,sans-Serif" font-size="10.00">CCTexture2D</text>
</a>
</g>
</g>
<!-- Node3&#45;&gt;Node10 -->
<g id="edge13" class="edge">
<title>Node3&#45;&gt;Node10</title>
<path fill="none" stroke="#63b8ff" d="M156.83,-416.55C166.41,-428.14 180.35,-442.48 196,-450.5 256.48,-481.5 457.89,-503.7 543.48,-511.95"/>
<polygon fill="#63b8ff" stroke="#63b8ff" points="159.34,-414.07 150.41,-408.37 153.83,-418.4 159.34,-414.07"/>
</g>
<!-- Node11 -->
<g id="node11" class="node">
<title>Node11</title>
<g id="a_node11"><a xlink:href="../../db/d28/classcocos2d_1_1_c_c_g_l_program.html" target="_top" xlink:title="CCGLProgram Class that implements a glProgram.">
<polygon fill="white" stroke="#666666" points="356,-525 272,-525 272,-506 356,-506 356,-525"/>
<text text-anchor="middle" x="314" y="-513" font-family="Helvetica,sans-Serif" font-size="10.00">CCGLProgram</text>
</a>
</g>
</g>
<!-- Node3&#45;&gt;Node11 -->
<g id="edge16" class="edge">
<title>Node3&#45;&gt;Node11</title>
<path fill="none" stroke="#63b8ff" d="M149.55,-417.75C157.07,-438.45 171.94,-470.78 196,-488.5 217.82,-504.57 247.65,-511.28 271.73,-514"/>
<polygon fill="#63b8ff" stroke="#63b8ff" points="152.81,-416.46 146.27,-408.12 146.18,-418.71 152.81,-416.46"/>
</g>
<!-- Node12 -->
<g id="node12" class="node">
<title>Node12</title>
<g id="a_node12"><a xlink:href="../../d3/d89/classcocos2d_1_1_c_c_grabber.html" target="_top" xlink:title="FBO class that grabs the the contents of the screen NA NA.">
<polygon fill="white" stroke="#666666" points="475.5,-692 406.5,-692 406.5,-673 475.5,-673 475.5,-692"/>
<text text-anchor="middle" x="441" y="-680" font-family="Helvetica,sans-Serif" font-size="10.00">CCGrabber</text>
</a>
</g>
</g>
<!-- Node3&#45;&gt;Node12 -->
<g id="edge19" class="edge">
<title>Node3&#45;&gt;Node12</title>
<path fill="none" stroke="#63b8ff" d="M148.57,-418.16C160.93,-462.06 196.86,-568.48 267,-623.5 308.45,-656.01 368.88,-671.17 406.26,-677.81"/>
<polygon fill="#63b8ff" stroke="#63b8ff" points="151.92,-417.16 145.93,-408.42 145.17,-418.99 151.92,-417.16"/>
</g>
<!-- Node13 -->
<g id="node13" class="node">
<title>Node13</title>
<g id="a_node13"><a xlink:href="../../d9/d2e/classcocos2d_1_1_c_c_array.html" target="_top" xlink:title="NA.">
<polygon fill="white" stroke="#666666" points="342,-294 286,-294 286,-275 342,-275 342,-294"/>
<text text-anchor="middle" x="314" y="-282" font-family="Helvetica,sans-Serif" font-size="10.00">CCArray</text>
</a>
</g>
</g>
<!-- Node3&#45;&gt;Node13 -->
<g id="edge22" class="edge">
<title>Node3&#45;&gt;Node13</title>
<path fill="none" stroke="#63b8ff" d="M149.47,-379.14C156.92,-358.34 171.72,-325.92 196,-308.5 222.45,-289.52 260.46,-284.79 285.91,-283.98"/>
<polygon fill="#63b8ff" stroke="#63b8ff" points="146.08,-378.23 146.23,-388.82 152.72,-380.45 146.08,-378.23"/>
</g>
<!-- Node14 -->
<g id="node14" class="node">
<title>Node14</title>
<g id="a_node14"><a xlink:href="../../de/dee/classcocos2d_1_1_c_c_scheduler.html" target="_top" xlink:title="Scheduler is responsible for triggering the scheduled callbacks.">
<polygon fill="white" stroke="#666666" points="622.5,-322 544.5,-322 544.5,-303 622.5,-303 622.5,-322"/>
<text text-anchor="middle" x="583.5" y="-310" font-family="Helvetica,sans-Serif" font-size="10.00">CCScheduler</text>
</a>
</g>
</g>
<!-- Node3&#45;&gt;Node14 -->
<g id="edge27" class="edge">
<title>Node3&#45;&gt;Node14</title>
<path fill="none" stroke="#63b8ff" d="M156.03,-380.8C165.53,-368.9 179.7,-354.06 196,-346.5 211.66,-339.24 450.08,-321.8 544.46,-315.15"/>
<polygon fill="#63b8ff" stroke="#63b8ff" points="153.22,-378.72 149.98,-388.8 158.8,-382.94 153.22,-378.72"/>
</g>
<!-- Node15 -->
<g id="node15" class="node">
<title>Node15</title>
<g id="a_node15"><a xlink:href="../../d5/dcb/classcocos2d_1_1_c_c_action_manager.html" target="_top" xlink:title="CCActionManager is a singleton that manages all the actions.">
<polygon fill="white" stroke="#666666" points="768,-450 664,-450 664,-431 768,-431 768,-450"/>
<text text-anchor="middle" x="716" y="-438" font-family="Helvetica,sans-Serif" font-size="10.00">CCActionManager</text>
</a>
</g>
</g>
<!-- Node3&#45;&gt;Node15 -->
<g id="edge30" class="edge">
<title>Node3&#45;&gt;Node15</title>
<path fill="none" stroke="#63b8ff" d="M183.32,-410.04C187.58,-410.99 191.86,-411.84 196,-412.5 365.78,-439.42 570.27,-441.78 663.8,-441.23"/>
<polygon fill="#63b8ff" stroke="#63b8ff" points="184.08,-406.62 173.53,-407.65 182.42,-413.42 184.08,-406.62"/>
</g>
<!-- Node22 -->
<g id="node22" class="node">
<title>Node22</title>
<g id="a_node22"><a xlink:href="../../df/d3a/classcocos2d_1_1_c_c_texture_atlas.html" target="_top" xlink:title="A class that implements a Texture Atlas.">
<polygon fill="white" stroke="#666666" points="898.5,-208 807.5,-208 807.5,-189 898.5,-189 898.5,-208"/>
<text text-anchor="middle" x="853" y="-196" font-family="Helvetica,sans-Serif" font-size="10.00">CCTextureAtlas</text>
</a>
</g>
</g>
<!-- Node3&#45;&gt;Node22 -->
<g id="edge41" class="edge">
<title>Node3&#45;&gt;Node22</title>
<path fill="none" stroke="#63b8ff" d="M144.86,-378.74C148.13,-347.07 159.12,-285.01 196,-250.5 219.94,-228.1 234.73,-236.28 267,-230.5 465.99,-194.83 708.61,-195.26 807.17,-197.23"/>
<polygon fill="#63b8ff" stroke="#63b8ff" points="141.36,-378.66 143.98,-388.93 148.33,-379.27 141.36,-378.66"/>
</g>
<!-- Node4 -->
<g id="node4" class="node">
<title>Node4</title>
<g id="a_node4"><a xlink:href="../../d5/d61/classcocos2d_1_1_c_c_copying.html" target="_top" xlink:title="NA NA.">
<polygon fill="white" stroke="#666666" points="70,-408 0,-408 0,-389 70,-389 70,-408"/>
<text text-anchor="middle" x="35" y="-396" font-family="Helvetica,sans-Serif" font-size="10.00">CCCopying</text>
</a>
</g>
</g>
<!-- Node4&#45;&gt;Node3 -->
<g id="edge3" class="edge">
<title>Node4&#45;&gt;Node3</title>
<path fill="none" stroke="#63b8ff" d="M80.45,-398.5C90.86,-398.5 101.71,-398.5 111.33,-398.5"/>
<polygon fill="#63b8ff" stroke="#63b8ff" points="80.25,-395 70.25,-398.5 80.25,-402 80.25,-395"/>
</g>
<!-- Node5 -->
<g id="node5" class="node">
<title>Node5</title>
<g id="a_node5"><a xlink:href="../../d2/df3/classcocos2d_1_1_c_c_point.html" target="_top" xlink:title="NA.">
<polygon fill="white" stroke="#666666" points="611,-783 556,-783 556,-764 611,-764 611,-783"/>
<text text-anchor="middle" x="583.5" y="-771" font-family="Helvetica,sans-Serif" font-size="10.00">CCPoint</text>
</a>
</g>
</g>
<!-- Node5&#45;&gt;Node1 -->
<g id="edge34" class="edge">
<title>Node5&#45;&gt;Node1</title>
<path fill="none" stroke="#9a32cd" stroke-dasharray="5,2" d="M620.96,-779.08C672.35,-786.45 769.09,-798.5 852,-798.5 852,-798.5 852,-798.5 1337.5,-798.5 1471.5,-798.5 1548.52,-273.97 1559.21,-196.11"/>
<polygon fill="#9a32cd" stroke="#9a32cd" points="621.4,-775.61 611,-777.63 620.39,-782.53 621.4,-775.61"/>
<text text-anchor="middle" x="1137" y="-823.5" font-family="Helvetica,sans-Serif" font-size="10.00"> gravity</text>
<text text-anchor="middle" x="1137" y="-812.5" font-family="Helvetica,sans-Serif" font-size="10.00">m_tPosVar</text>
<text text-anchor="middle" x="1137" y="-801.5" font-family="Helvetica,sans-Serif" font-size="10.00">m_tSourcePosition</text>
</g>
<!-- Node5&#45;&gt;Node2 -->
<g id="edge4" class="edge">
<title>Node5&#45;&gt;Node2</title>
<path fill="none" stroke="#9a32cd" stroke-dasharray="5,2" d="M621.52,-774.35C659.01,-774.36 718.38,-772.02 768,-759.5 776.49,-757.36 777.94,-754.93 786,-751.5 909.63,-698.88 974.93,-736.29 1066,-637.5 1125.17,-573.32 1134.32,-459.4 1135.74,-425.37"/>
<polygon fill="#9a32cd" stroke="#9a32cd" points="621.11,-770.84 611.09,-774.28 621.06,-777.84 621.11,-770.84"/>
<text text-anchor="middle" x="853" y="-776.5" font-family="Helvetica,sans-Serif" font-size="10.00"> m_obAnchorPoint</text>
<text text-anchor="middle" x="853" y="-765.5" font-family="Helvetica,sans-Serif" font-size="10.00">m_obAnchorPointInPoints</text>
<text text-anchor="middle" x="853" y="-754.5" font-family="Helvetica,sans-Serif" font-size="10.00">m_obPosition</text>
</g>
<!-- Node5&#45;&gt;Node9 -->
<g id="edge17" class="edge">
<title>Node5&#45;&gt;Node9</title>
<path fill="none" stroke="#9a32cd" stroke-dasharray="5,2" d="M621.03,-761.28C634.47,-756.98 649.85,-752.28 664,-748.5 709.73,-736.28 726.8,-748.82 768,-725.5 778.12,-719.77 776.7,-713.48 786,-706.5 799.19,-696.59 815.69,-688.09 828.89,-682.07"/>
<polygon fill="#9a32cd" stroke="#9a32cd" points="619.63,-758.06 611.19,-764.47 621.79,-764.71 619.63,-758.06"/>
<text text-anchor="middle" x="716" y="-751.5" font-family="Helvetica,sans-Serif" font-size="10.00"> m_obStep</text>
</g>
<!-- Node6 -->
<g id="node6" class="node">
<title>Node6</title>
<g id="a_node6"><a xlink:href="../../d9/d24/classcocos2d_1_1_c_c_size.html" target="_top" xlink:title="NA.">
<polygon fill="white" stroke="#666666" points="339,-614 289,-614 289,-595 339,-595 339,-614"/>
<text text-anchor="middle" x="314" y="-602" font-family="Helvetica,sans-Serif" font-size="10.00">CCSize</text>
</a>
</g>
</g>
<!-- Node6&#45;&gt;Node2 -->
<g id="edge5" class="edge">
<title>Node6&#45;&gt;Node2</title>
<path fill="none" stroke="#9a32cd" stroke-dasharray="5,2" d="M349.37,-602.33C488.33,-593.32 1004.2,-557.55 1066,-519.5 1102.88,-496.79 1124.72,-446.54 1132.62,-425.29"/>
<polygon fill="#9a32cd" stroke="#9a32cd" points="349.04,-598.84 339.29,-602.98 349.49,-605.83 349.04,-598.84"/>
<text text-anchor="middle" x="716" y="-580.5" font-family="Helvetica,sans-Serif" font-size="10.00"> m_obContentSize</text>
</g>
<!-- Node6&#45;&gt;Node9 -->
<g id="edge11" class="edge">
<title>Node6&#45;&gt;Node9</title>
<path fill="none" stroke="#9a32cd" stroke-dasharray="5,2" d="M349.2,-612.65C358.8,-614.76 369.28,-616.89 379,-618.5 541.05,-645.4 736.58,-663.08 815.93,-669.64"/>
<polygon fill="#9a32cd" stroke="#9a32cd" points="349.72,-609.18 339.2,-610.4 348.19,-616.01 349.72,-609.18"/>
<text text-anchor="middle" x="583.5" y="-655.5" font-family="Helvetica,sans-Serif" font-size="10.00"> m_sGridSize</text>
</g>
<!-- Node6&#45;&gt;Node10 -->
<g id="edge14" class="edge">
<title>Node6&#45;&gt;Node10</title>
<path fill="none" stroke="#9a32cd" stroke-dasharray="5,2" d="M347.81,-591.19C357.78,-587.28 368.79,-583.1 379,-579.5 438.74,-558.47 509.47,-536.98 549.85,-525.03"/>
<polygon fill="#9a32cd" stroke="#9a32cd" points="346.27,-588.04 338.26,-594.97 348.85,-594.54 346.27,-588.04"/>
<text text-anchor="middle" x="441" y="-582.5" font-family="Helvetica,sans-Serif" font-size="10.00"> m_tContentSize</text>
</g>
<!-- Node7 -->
<g id="node7" class="node">
<title>Node7</title>
<g id="a_node7"><a xlink:href="../../da/dbf/structcocos2d_1_1_c_c_affine_transform.html" target="_top" xlink:title=" ">
<polygon fill="white" stroke="#666666" points="906.5,-445 799.5,-445 799.5,-426 906.5,-426 906.5,-445"/>
<text text-anchor="middle" x="853" y="-433" font-family="Helvetica,sans-Serif" font-size="10.00">CCAffineTransform</text>
</a>
</g>
</g>
<!-- Node7&#45;&gt;Node2 -->
<g id="edge6" class="edge">
<title>Node7&#45;&gt;Node2</title>
<path fill="none" stroke="#9a32cd" stroke-dasharray="5,2" d="M916.85,-431.04C976.96,-426.78 1064.76,-420.55 1108.75,-417.43"/>
<polygon fill="#9a32cd" stroke="#9a32cd" points="916.44,-427.56 906.71,-431.76 916.93,-434.55 916.44,-427.56"/>
<text text-anchor="middle" x="1002" y="-453.5" font-family="Helvetica,sans-Serif" font-size="10.00"> m_sAdditionalTransform</text>
<text text-anchor="middle" x="1002" y="-442.5" font-family="Helvetica,sans-Serif" font-size="10.00">m_sInverse</text>
<text text-anchor="middle" x="1002" y="-431.5" font-family="Helvetica,sans-Serif" font-size="10.00">m_sTransform</text>
</g>
<!-- Node8&#45;&gt;Node2 -->
<g id="edge7" class="edge">
<title>Node8&#45;&gt;Node2</title>
<path fill="none" stroke="#9a32cd" stroke-dasharray="5,2" d="M485.09,-235.12C610.47,-223.25 972.14,-195.58 1066,-260.5 1117,-295.77 1131.43,-377.48 1134.97,-405.7"/>
<polygon fill="#9a32cd" stroke="#9a32cd" points="484.71,-231.64 475.09,-236.08 485.38,-238.61 484.71,-231.64"/>
<text text-anchor="middle" x="716" y="-224.5" font-family="Helvetica,sans-Serif" font-size="10.00"> m_pCamera</text>
</g>
<!-- Node9&#45;&gt;Node2 -->
<g id="edge9" class="edge">
<title>Node9&#45;&gt;Node2</title>
<path fill="none" stroke="#9a32cd" stroke-dasharray="5,2" d="M877.03,-657.23C893.39,-647.05 916.24,-634.18 938,-626.5 992.5,-607.26 1021.65,-640.56 1066,-603.5 1123.19,-555.71 1133.68,-456.45 1135.58,-425.16"/>
<polygon fill="#9a32cd" stroke="#9a32cd" points="874.75,-654.53 868.2,-662.85 878.51,-660.43 874.75,-654.53"/>
<text text-anchor="middle" x="1002" y="-629.5" font-family="Helvetica,sans-Serif" font-size="10.00"> m_pGrid</text>
</g>
<!-- Node10&#45;&gt;Node1 -->
<g id="edge49" class="edge">
<title>Node10&#45;&gt;Node1</title>
<path fill="none" stroke="#9a32cd" stroke-dasharray="5,2" d="M633.71,-509.27C681.11,-504.43 748.42,-501.01 768,-517.5 801.87,-546.03 754.5,-584.38 786,-615.5 830.46,-659.42 1007.67,-663.91 1066,-641.5 1317.02,-545.06 1516.9,-253.42 1554.23,-196.27"/>
<polygon fill="#9a32cd" stroke="#9a32cd" points="633.19,-505.8 623.62,-510.35 633.94,-512.76 633.19,-505.8"/>
<text text-anchor="middle" x="1137" y="-636.5" font-family="Helvetica,sans-Serif" font-size="10.00"> m_pTexture</text>
</g>
<!-- Node10&#45;&gt;Node9 -->
<g id="edge12" class="edge">
<title>Node10&#45;&gt;Node9</title>
<path fill="none" stroke="#9a32cd" stroke-dasharray="5,2" d="M633.7,-514.95C681.44,-515.52 749.34,-519.6 768,-537.5 804.06,-572.1 754.13,-610 786,-648.5 793.54,-657.61 804.84,-663.26 815.97,-666.77"/>
<polygon fill="#9a32cd" stroke="#9a32cd" points="633.57,-511.45 623.54,-514.88 633.52,-518.45 633.57,-511.45"/>
<text text-anchor="middle" x="716" y="-540.5" font-family="Helvetica,sans-Serif" font-size="10.00"> m_pTexture</text>
</g>
<!-- Node10&#45;&gt;Node22 -->
<g id="edge42" class="edge">
<title>Node10&#45;&gt;Node22</title>
<path fill="none" stroke="#9a32cd" stroke-dasharray="5,2" d="M597.6,-497.58C613.06,-476.62 639.74,-441.02 664,-411.5 730.39,-330.72 815.75,-237.66 843.13,-208.05"/>
<polygon fill="#9a32cd" stroke="#9a32cd" points="594.62,-495.73 591.51,-505.86 600.26,-499.88 594.62,-495.73"/>
<text text-anchor="middle" x="716" y="-414.5" font-family="Helvetica,sans-Serif" font-size="10.00"> m_pTexture</text>
</g>
<!-- Node11&#45;&gt;Node2 -->
<g id="edge25" class="edge">
<title>Node11&#45;&gt;Node2</title>
<path fill="none" stroke="#9a32cd" stroke-dasharray="5,2" d="M366.26,-508.35C434.18,-499.27 557.8,-484.11 664,-478.5 710.16,-476.06 724.54,-462.76 768,-478.5 777.79,-482.05 776.21,-489.95 786,-493.5 903.04,-535.87 952.36,-538.29 1066,-487.5 1095.92,-474.13 1119.65,-441.57 1130.14,-425.21"/>
<polygon fill="#9a32cd" stroke="#9a32cd" points="365.7,-504.89 356.25,-509.7 366.63,-511.83 365.7,-504.89"/>
<text text-anchor="middle" x="716" y="-481.5" font-family="Helvetica,sans-Serif" font-size="10.00"> m_pShaderProgram</text>
</g>
<!-- Node11&#45;&gt;Node9 -->
<g id="edge20" class="edge">
<title>Node11&#45;&gt;Node9</title>
<path fill="none" stroke="#9a32cd" stroke-dasharray="5,2" d="M332,-532.28C344.13,-543.33 361.37,-557.23 379,-565.5 488.94,-617.06 527.49,-597.03 646,-623.5 700.29,-635.63 713.9,-638.53 768,-651.5 783.64,-655.25 800.88,-659.53 815.65,-663.25"/>
<polygon fill="#9a32cd" stroke="#9a32cd" points="334.15,-529.5 324.47,-525.19 329.35,-534.59 334.15,-529.5"/>
<text text-anchor="middle" x="583.5" y="-626.5" font-family="Helvetica,sans-Serif" font-size="10.00"> m_pShaderProgram</text>
</g>
<!-- Node11&#45;&gt;Node10 -->
<g id="edge15" class="edge">
<title>Node11&#45;&gt;Node10</title>
<path fill="none" stroke="#9a32cd" stroke-dasharray="5,2" d="M366.49,-515.5C418.17,-515.5 496.65,-515.5 543.42,-515.5"/>
<polygon fill="#9a32cd" stroke="#9a32cd" points="366.21,-512 356.21,-515.5 366.21,-519 366.21,-512"/>
<text text-anchor="middle" x="441" y="-518.5" font-family="Helvetica,sans-Serif" font-size="10.00"> m_pShaderProgram</text>
</g>
<!-- Node12&#45;&gt;Node9 -->
<g id="edge18" class="edge">
<title>Node12&#45;&gt;Node9</title>
<path fill="none" stroke="#9a32cd" stroke-dasharray="5,2" d="M485.97,-681.43C567.52,-679.44 740.76,-675.21 815.94,-673.38"/>
<polygon fill="#9a32cd" stroke="#9a32cd" points="485.46,-677.94 475.55,-681.68 485.63,-684.94 485.46,-677.94"/>
<text text-anchor="middle" x="583.5" y="-683.5" font-family="Helvetica,sans-Serif" font-size="10.00"> m_pGrabber</text>
</g>
<!-- Node13&#45;&gt;Node2 -->
<g id="edge21" class="edge">
<title>Node13&#45;&gt;Node2</title>
<path fill="none" stroke="#9a32cd" stroke-dasharray="5,2" d="M352.46,-280.57C487.14,-267.16 945.21,-228.03 1066,-302.5 1105.68,-326.96 1126.32,-383.18 1133.27,-405.8"/>
<polygon fill="#9a32cd" stroke="#9a32cd" points="351.84,-277.11 342.24,-281.6 352.54,-284.08 351.84,-277.11"/>
<text text-anchor="middle" x="716" y="-262.5" font-family="Helvetica,sans-Serif" font-size="10.00"> m_pChildren</text>
</g>
<!-- Node13&#45;&gt;Node14 -->
<g id="edge28" class="edge">
<title>Node13&#45;&gt;Node14</title>
<path fill="none" stroke="#9a32cd" stroke-dasharray="5,2" d="M352.3,-288.4C402.95,-293.71 492.99,-303.13 544.16,-308.49"/>
<polygon fill="#9a32cd" stroke="#9a32cd" points="352.43,-284.9 342.12,-287.34 351.7,-291.86 352.43,-284.9"/>
<text text-anchor="middle" x="441" y="-305.5" font-family="Helvetica,sans-Serif" font-size="10.00"> m_pScriptHandlerEntries</text>
</g>
<!-- Node14&#45;&gt;Node2 -->
<g id="edge26" class="edge">
<title>Node14&#45;&gt;Node2</title>
<path fill="none" stroke="#9a32cd" stroke-dasharray="5,2" d="M632.7,-304.66C722.83,-292.32 920.87,-276.37 1066,-345.5 1095.02,-359.32 1118.99,-390.3 1129.81,-406"/>
<polygon fill="#9a32cd" stroke="#9a32cd" points="632.18,-301.2 622.77,-306.06 633.17,-308.13 632.18,-301.2"/>
<text text-anchor="middle" x="853" y="-305.5" font-family="Helvetica,sans-Serif" font-size="10.00"> m_pScheduler</text>
</g>
<!-- Node15&#45;&gt;Node2 -->
<g id="edge29" class="edge">
<title>Node15&#45;&gt;Node2</title>
<path fill="none" stroke="#9a32cd" stroke-dasharray="5,2" d="M769.48,-451.87C775.04,-452.86 780.63,-453.76 786,-454.5 909.39,-471.41 947.4,-503.51 1066,-465.5 1090.75,-457.57 1114.19,-437.32 1126.67,-425.16"/>
<polygon fill="#9a32cd" stroke="#9a32cd" points="770.02,-448.41 759.55,-450.02 768.74,-455.3 770.02,-448.41"/>
<text text-anchor="middle" x="853" y="-481.5" font-family="Helvetica,sans-Serif" font-size="10.00"> m_pActionManager</text>
</g>
<!-- Node16 -->
<g id="node16" class="node">
<title>Node16</title>
<g id="a_node16"><a xlink:href="../../d1/d65/classcocos2d_1_1_c_c_component_container.html" target="_top" xlink:title="NA NA.">
<polygon fill="white" stroke="#666666" points="920,-606 786,-606 786,-587 920,-587 920,-606"/>
<text text-anchor="middle" x="853" y="-594" font-family="Helvetica,sans-Serif" font-size="10.00">CCComponentContainer</text>
</a>
</g>
</g>
<!-- Node16&#45;&gt;Node2 -->
<g id="edge31" class="edge">
<title>Node16&#45;&gt;Node2</title>
<path fill="none" stroke="#9a32cd" stroke-dasharray="5,2" d="M930.15,-590.43C986.38,-585.34 1055,-577.61 1066,-569.5 1115.64,-532.9 1130.94,-452.72 1134.84,-425.08"/>
<polygon fill="#9a32cd" stroke="#9a32cd" points="929.82,-586.94 920.17,-591.31 930.44,-593.91 929.82,-586.94"/>
<text text-anchor="middle" x="1002" y="-591.5" font-family="Helvetica,sans-Serif" font-size="10.00"> m_pComponentContainer</text>
</g>
<!-- Node17 -->
<g id="node17" class="node">
<title>Node17</title>
<g id="a_node17"><a xlink:href="../../db/d1b/classcocos2d_1_1_c_c_texture_protocol.html" target="_top" xlink:title="CCNode objects that uses a CCTexture2D to render the images.">
<polygon fill="white" stroke="#666666" points="1190,-171 1084,-171 1084,-152 1190,-152 1190,-171"/>
<text text-anchor="middle" x="1137" y="-159" font-family="Helvetica,sans-Serif" font-size="10.00">CCTextureProtocol</text>
</a>
</g>
</g>
<!-- Node17&#45;&gt;Node1 -->
<g id="edge32" class="edge">
<title>Node17&#45;&gt;Node1</title>
<path fill="none" stroke="#63b8ff" d="M1200.4,-165.19C1284.37,-170.16 1432.14,-178.9 1509.71,-183.49"/>
<polygon fill="#63b8ff" stroke="#63b8ff" points="1200.42,-161.69 1190.23,-164.59 1200.01,-168.68 1200.42,-161.69"/>
</g>
<!-- Node17&#45;&gt;Node21 -->
<g id="edge39" class="edge">
<title>Node17&#45;&gt;Node21</title>
<path fill="none" stroke="#63b8ff" d="M1187.94,-173.38C1221.16,-181.29 1264.23,-191.54 1295.25,-198.92"/>
<polygon fill="#63b8ff" stroke="#63b8ff" points="1188.51,-169.92 1177.97,-171.01 1186.89,-176.73 1188.51,-169.92"/>
</g>
<!-- Node18 -->
<g id="node18" class="node">
<title>Node18</title>
<g id="a_node18"><a xlink:href="../../d6/d82/classcocos2d_1_1_c_c_blend_protocol.html" target="_top" xlink:title="Specify the blending function according glBlendFunc Please refer to glBlendFunc in OpenGL ES Manual h...">
<polygon fill="white" stroke="#666666" points="902,-171 804,-171 804,-152 902,-152 902,-171"/>
<text text-anchor="middle" x="853" y="-159" font-family="Helvetica,sans-Serif" font-size="10.00">CCBlendProtocol</text>
</a>
</g>
</g>
<!-- Node18&#45;&gt;Node17 -->
<g id="edge33" class="edge">
<title>Node18&#45;&gt;Node17</title>
<path fill="none" stroke="#63b8ff" d="M912.26,-161.5C962.74,-161.5 1035.1,-161.5 1083.73,-161.5"/>
<polygon fill="#63b8ff" stroke="#63b8ff" points="912.16,-158 902.16,-161.5 912.16,-165 912.16,-158"/>
</g>
<!-- Node19 -->
<g id="node19" class="node">
<title>Node19</title>
<g id="a_node19"><a xlink:href="../../d5/d61/structt_c_c_particle.html" target="_top" xlink:title="Structure that contains the values of each particle.">
<polygon fill="white" stroke="#666666" points="1371.5,-56 1301.5,-56 1301.5,-37 1371.5,-37 1371.5,-56"/>
<text text-anchor="middle" x="1336.5" y="-44" font-family="Helvetica,sans-Serif" font-size="10.00">tCCParticle</text>
</a>
</g>
</g>
<!-- Node19&#45;&gt;Node1 -->
<g id="edge35" class="edge">
<title>Node19&#45;&gt;Node1</title>
<path fill="none" stroke="#9a32cd" stroke-dasharray="5,2" d="M1381.82,-42.55C1414.86,-41.83 1459.67,-45.77 1492,-67.5 1532.16,-94.49 1551.7,-153.5 1558.07,-176.78"/>
<polygon fill="#9a32cd" stroke="#9a32cd" points="1381.4,-39.07 1371.53,-42.94 1381.66,-46.06 1381.4,-39.07"/>
<text text-anchor="middle" x="1453" y="-70.5" font-family="Helvetica,sans-Serif" font-size="10.00"> m_pParticles</text>
</g>
<!-- Node20 -->
<g id="node20" class="node">
<title>Node20</title>
<g id="a_node20"><a xlink:href="../../d7/d4d/structcc_color4_f.html" target="_top" xlink:title="RGBA color composed of 4 floats.">
<polygon fill="white" stroke="#666666" points="1169.5,-82 1104.5,-82 1104.5,-63 1169.5,-63 1169.5,-82"/>
<text text-anchor="middle" x="1137" y="-70" font-family="Helvetica,sans-Serif" font-size="10.00">ccColor4F</text>
</a>
</g>
</g>
<!-- Node20&#45;&gt;Node1 -->
<g id="edge48" class="edge">
<title>Node20&#45;&gt;Node1</title>
<path fill="none" stroke="#9a32cd" stroke-dasharray="5,2" d="M1179.91,-77.98C1231.43,-85.27 1321.23,-99.84 1396,-121.5 1449.24,-136.92 1509.18,-162.91 1539.91,-176.9"/>
<polygon fill="#9a32cd" stroke="#9a32cd" points="1180.21,-74.49 1169.83,-76.57 1179.25,-81.42 1180.21,-74.49"/>
<text text-anchor="middle" x="1336.5" y="-157.5" font-family="Helvetica,sans-Serif" font-size="10.00"> m_tEndColor</text>
<text text-anchor="middle" x="1336.5" y="-146.5" font-family="Helvetica,sans-Serif" font-size="10.00">m_tEndColorVar</text>
<text text-anchor="middle" x="1336.5" y="-135.5" font-family="Helvetica,sans-Serif" font-size="10.00">m_tStartColor</text>
<text text-anchor="middle" x="1336.5" y="-124.5" font-family="Helvetica,sans-Serif" font-size="10.00">m_tStartColorVar</text>
</g>
<!-- Node20&#45;&gt;Node19 -->
<g id="edge36" class="edge">
<title>Node20&#45;&gt;Node19</title>
<path fill="none" stroke="#9a32cd" stroke-dasharray="5,2" d="M1179.4,-61.98C1188.75,-59.9 1198.68,-57.92 1208,-56.5 1239.39,-51.71 1275.49,-49.15 1301.25,-47.82"/>
<polygon fill="#9a32cd" stroke="#9a32cd" points="1178.48,-58.6 1169.52,-64.26 1180.05,-65.42 1178.48,-58.6"/>
<text text-anchor="middle" x="1233.5" y="-70.5" font-family="Helvetica,sans-Serif" font-size="10.00"> color</text>
<text text-anchor="middle" x="1233.5" y="-59.5" font-family="Helvetica,sans-Serif" font-size="10.00">deltaColor</text>
</g>
<!-- Node21&#45;&gt;Node1 -->
<g id="edge37" class="edge">
<title>Node21&#45;&gt;Node1</title>
<path fill="none" stroke="#9a32cd" stroke-dasharray="5,2" d="M1406.26,-201.72C1439.72,-198.42 1479.22,-194.52 1509.87,-191.49"/>
<polygon fill="#9a32cd" stroke="#9a32cd" points="1405.7,-198.25 1396.09,-202.72 1406.39,-205.22 1405.7,-198.25"/>
<text text-anchor="middle" x="1453" y="-203.5" font-family="Helvetica,sans-Serif" font-size="10.00"> m_pBatchNode</text>
</g>
<!-- Node22&#45;&gt;Node21 -->
<g id="edge40" class="edge">
<title>Node22&#45;&gt;Node21</title>
<path fill="none" stroke="#9a32cd" stroke-dasharray="5,2" d="M909.03,-199.64C1000.5,-201.54 1183.05,-205.33 1276.86,-207.28"/>
<polygon fill="#9a32cd" stroke="#9a32cd" points="908.94,-196.14 898.87,-199.43 908.79,-203.14 908.94,-196.14"/>
<text text-anchor="middle" x="1137" y="-207.5" font-family="Helvetica,sans-Serif" font-size="10.00"> m_pTextureAtlas</text>
</g>
<!-- Node23 -->
<g id="node23" class="node">
<title>Node23</title>
<g id="a_node23"><a xlink:href="../../dd/d60/structcc_v3_f___c4_b___t2_f___quad.html" target="_top" xlink:title="4 ccVertex3FTex2FColor4B">
<polygon fill="white" stroke="#666666" points="646,-159 521,-159 521,-140 646,-140 646,-159"/>
<text text-anchor="middle" x="583.5" y="-147" font-family="Helvetica,sans-Serif" font-size="10.00">ccV3F_C4B_T2F_Quad</text>
</a>
</g>
</g>
<!-- Node23&#45;&gt;Node22 -->
<g id="edge43" class="edge">
<title>Node23&#45;&gt;Node22</title>
<path fill="none" stroke="#9a32cd" stroke-dasharray="5,2" d="M656.72,-154.89C690.83,-158.47 731.89,-164.26 768,-173.5 776.32,-175.63 777.85,-177.81 786,-180.5 795.14,-183.51 805.1,-186.42 814.45,-188.99"/>
<polygon fill="#9a32cd" stroke="#9a32cd" points="656.67,-151.37 646.37,-153.86 655.97,-158.34 656.67,-151.37"/>
<text text-anchor="middle" x="716" y="-176.5" font-family="Helvetica,sans-Serif" font-size="10.00"> m_pQuads</text>
</g>
<!-- Node24 -->
<g id="node24" class="node">
<title>Node24</title>
<g id="a_node24"><a xlink:href="../../d7/de4/structcc_v3_f___c4_b___t2_f.html" target="_top" xlink:title="a Point with a vertex point, a tex coord point and a color 4B">
<polygon fill="white" stroke="#666666" points="361,-149 267,-149 267,-130 361,-130 361,-149"/>
<text text-anchor="middle" x="314" y="-137" font-family="Helvetica,sans-Serif" font-size="10.00">ccV3F_C4B_T2F</text>
</a>
</g>
</g>
<!-- Node24&#45;&gt;Node23 -->
<g id="edge44" class="edge">
<title>Node24&#45;&gt;Node23</title>
<path fill="none" stroke="#9a32cd" stroke-dasharray="5,2" d="M371.21,-138.22C408.59,-137.76 458.77,-137.89 503,-140.5 508.82,-140.84 514.88,-141.32 520.93,-141.87"/>
<polygon fill="#9a32cd" stroke="#9a32cd" points="370.96,-134.73 361.02,-138.37 371.06,-141.73 370.96,-134.73"/>
<text text-anchor="middle" x="441" y="-176.5" font-family="Helvetica,sans-Serif" font-size="10.00"> bl</text>
<text text-anchor="middle" x="441" y="-165.5" font-family="Helvetica,sans-Serif" font-size="10.00">br</text>
<text text-anchor="middle" x="441" y="-154.5" font-family="Helvetica,sans-Serif" font-size="10.00">tl</text>
<text text-anchor="middle" x="441" y="-143.5" font-family="Helvetica,sans-Serif" font-size="10.00">tr</text>
</g>
<!-- Node25 -->
<g id="node25" class="node">
<title>Node25</title>
<g id="a_node25"><a xlink:href="../../d3/d87/structcc_vertex3_f.html" target="_top" xlink:title="A vertex composed of 2 floats: x, y.">
<polygon fill="white" stroke="#666666" points="178,-110 107,-110 107,-91 178,-91 178,-110"/>
<text text-anchor="middle" x="142.5" y="-98" font-family="Helvetica,sans-Serif" font-size="10.00">ccVertex3F</text>
</a>
</g>
</g>
<!-- Node25&#45;&gt;Node24 -->
<g id="edge45" class="edge">
<title>Node25&#45;&gt;Node24</title>
<path fill="none" stroke="#9a32cd" stroke-dasharray="5,2" d="M188.1,-109.24C206.94,-113.08 229.09,-117.78 249,-122.5 258.62,-124.78 269,-127.45 278.54,-129.98"/>
<polygon fill="#9a32cd" stroke="#9a32cd" points="188.79,-105.81 178.29,-107.26 187.4,-112.67 188.79,-105.81"/>
<text text-anchor="middle" x="222.5" y="-125.5" font-family="Helvetica,sans-Serif" font-size="10.00"> vertices</text>
</g>
<!-- Node26 -->
<g id="node26" class="node">
<title>Node26</title>
<g id="a_node26"><a xlink:href="../../d2/dd4/structcc_color4_b.html" target="_top" xlink:title="RGBA color composed of 4 bytes.">
<polygon fill="white" stroke="#666666" points="175,-184 110,-184 110,-165 175,-165 175,-184"/>
<text text-anchor="middle" x="142.5" y="-172" font-family="Helvetica,sans-Serif" font-size="10.00">ccColor4B</text>
</a>
</g>
</g>
<!-- Node26&#45;&gt;Node24 -->
<g id="edge46" class="edge">
<title>Node26&#45;&gt;Node24</title>
<path fill="none" stroke="#9a32cd" stroke-dasharray="5,2" d="M185.2,-165.89C209.95,-160.78 241.37,-154.29 266.86,-149.03"/>
<polygon fill="#9a32cd" stroke="#9a32cd" points="184.47,-162.47 175.38,-167.92 185.88,-169.32 184.47,-162.47"/>
<text text-anchor="middle" x="222.5" y="-165.5" font-family="Helvetica,sans-Serif" font-size="10.00"> colors</text>
</g>
<!-- Node27 -->
<g id="node27" class="node">
<title>Node27</title>
<g id="a_node27"><a xlink:href="../../d0/d46/structcc_tex2_f.html" target="_top" xlink:title="A texcoord composed of 2 floats: u, y.">
<polygon fill="white" stroke="#666666" points="170.5,-147 114.5,-147 114.5,-128 170.5,-128 170.5,-147"/>
<text text-anchor="middle" x="142.5" y="-135" font-family="Helvetica,sans-Serif" font-size="10.00">ccTex2F</text>
</a>
</g>
</g>
<!-- Node27&#45;&gt;Node24 -->
<g id="edge47" class="edge">
<title>Node27&#45;&gt;Node24</title>
<path fill="none" stroke="#9a32cd" stroke-dasharray="5,2" d="M181.05,-137.94C206.4,-138.24 240.02,-138.64 266.98,-138.96"/>
<polygon fill="#9a32cd" stroke="#9a32cd" points="180.77,-134.44 170.73,-137.82 180.69,-141.44 180.77,-134.44"/>
<text text-anchor="middle" x="222.5" y="-141.5" font-family="Helvetica,sans-Serif" font-size="10.00"> texCoords</text>
</g>
<!-- Node28 -->
<g id="node28" class="node">
<title>Node28</title>
<g id="a_node28"><a xlink:href="../../d6/d45/structcc_blend_func.html" target="_top" xlink:title="Blend Function used for textures.">
<polygon fill="white" stroke="#666666" points="1375,-19 1298,-19 1298,0 1375,0 1375,-19"/>
<text text-anchor="middle" x="1336.5" y="-7" font-family="Helvetica,sans-Serif" font-size="10.00">ccBlendFunc</text>
</a>
</g>
</g>
<!-- Node28&#45;&gt;Node1 -->
<g id="edge50" class="edge">
<title>Node28&#45;&gt;Node1</title>
<path fill="none" stroke="#9a32cd" stroke-dasharray="5,2" d="M1385.36,-4.09C1418.44,-2.92 1461.75,-6.79 1492,-29.5 1541.94,-67 1556.04,-148.62 1559.5,-176.75"/>
<polygon fill="#9a32cd" stroke="#9a32cd" points="1384.82,-0.61 1375.02,-4.63 1385.18,-7.6 1384.82,-0.61"/>
<text text-anchor="middle" x="1453" y="-32.5" font-family="Helvetica,sans-Serif" font-size="10.00"> m_tBlendFunc</text>
</g>
</g>
</svg>
