<?xml version="1.0" encoding="UTF-8" standalone="no"?>
<!DOCTYPE svg PUBLIC "-//W3C//DTD SVG 1.1//EN"
 "http://www.w3.org/Graphics/SVG/1.1/DTD/svg11.dtd">
<!-- Generated by graphviz version 2.43.0 (0)
 -->
<!-- Title: /home/runner/work/cocos&#45;headers/cocos&#45;headers/cocos2dx/include/ccTypeInfo.h Pages: 1 -->
<svg width="415pt" height="218pt"
 viewBox="0.00 0.00 415.00 218.00" xmlns="http://www.w3.org/2000/svg" xmlns:xlink="http://www.w3.org/1999/xlink">
<g id="graph0" class="graph" transform="scale(1 1) rotate(0) translate(4 214)">
<title>/home/runner/work/cocos&#45;headers/cocos&#45;headers/cocos2dx/include/ccTypeInfo.h</title>
<!-- Node1 -->
<g id="node1" class="node">
<title>Node1</title>
<g id="a_node1"><a xlink:title=" ">
<polygon fill="#bfbfbf" stroke="black" points="189,-168.5 189,-209.5 356,-209.5 356,-168.5 189,-168.5"/>
<text text-anchor="start" x="197" y="-197.5" font-family="Helvetica,sans-Serif" font-size="10.00">/home/runner/work/cocos</text>
<text text-anchor="start" x="197" y="-186.5" font-family="Helvetica,sans-Serif" font-size="10.00">&#45;headers/cocos&#45;headers</text>
<text text-anchor="middle" x="272.5" y="-175.5" font-family="Helvetica,sans-Serif" font-size="10.00">/cocos2dx/include/ccTypeInfo.h</text>
</a>
</g>
</g>
<!-- Node2 -->
<g id="node2" class="node">
<title>Node2</title>
<g id="a_node2"><a xlink:href="../../d3/d41/_c_c_platform_macros_8h.html" target="_top" xlink:title=" ">
<polygon fill="none" stroke="black" points="29,-112.5 29,-131.5 190,-131.5 190,-112.5 29,-112.5"/>
<text text-anchor="middle" x="109.5" y="-119.5" font-family="Helvetica,sans-Serif" font-size="10.00">platform/CCPlatformMacros.h</text>
</a>
</g>
</g>
<!-- Node1&#45;&gt;Node2 -->
<g id="edge1" class="edge">
<title>Node1&#45;&gt;Node2</title>
<path fill="none" stroke="midnightblue" d="M223.59,-168.5C196.68,-157.77 164.09,-144.77 140.64,-135.42"/>
<polygon fill="midnightblue" stroke="midnightblue" points="141.78,-132.11 131.2,-131.65 139.19,-138.61 141.78,-132.11"/>
</g>
<!-- Node6 -->
<g id="node6" class="node">
<title>Node6</title>
<g id="a_node6"><a xlink:title=" ">
<polygon fill="none" stroke="#bfbfbf" points="208,-112.5 208,-131.5 265,-131.5 265,-112.5 208,-112.5"/>
<text text-anchor="middle" x="236.5" y="-119.5" font-family="Helvetica,sans-Serif" font-size="10.00">typeinfo</text>
</a>
</g>
</g>
<!-- Node1&#45;&gt;Node6 -->
<g id="edge6" class="edge">
<title>Node1&#45;&gt;Node6</title>
<path fill="none" stroke="midnightblue" d="M261.7,-168.5C256.76,-159.59 250.96,-149.11 246.17,-140.46"/>
<polygon fill="midnightblue" stroke="midnightblue" points="249.2,-138.7 241.29,-131.65 243.08,-142.1 249.2,-138.7"/>
</g>
<!-- Node7 -->
<g id="node7" class="node">
<title>Node7</title>
<g id="a_node7"><a xlink:title=" ">
<polygon fill="none" stroke="#bfbfbf" points="283,-112.5 283,-131.5 336,-131.5 336,-112.5 283,-112.5"/>
<text text-anchor="middle" x="309.5" y="-119.5" font-family="Helvetica,sans-Serif" font-size="10.00">ctype.h</text>
</a>
</g>
</g>
<!-- Node1&#45;&gt;Node7 -->
<g id="edge7" class="edge">
<title>Node1&#45;&gt;Node7</title>
<path fill="none" stroke="midnightblue" d="M283.6,-168.5C288.67,-159.59 294.64,-149.11 299.56,-140.46"/>
<polygon fill="midnightblue" stroke="midnightblue" points="302.67,-142.07 304.57,-131.65 296.59,-138.61 302.67,-142.07"/>
</g>
<!-- Node8 -->
<g id="node8" class="node">
<title>Node8</title>
<g id="a_node8"><a xlink:title=" ">
<polygon fill="none" stroke="#bfbfbf" points="354,-112.5 354,-131.5 407,-131.5 407,-112.5 354,-112.5"/>
<text text-anchor="middle" x="380.5" y="-119.5" font-family="Helvetica,sans-Serif" font-size="10.00">string.h</text>
</a>
</g>
</g>
<!-- Node1&#45;&gt;Node8 -->
<g id="edge8" class="edge">
<title>Node1&#45;&gt;Node8</title>
<path fill="none" stroke="midnightblue" d="M304.9,-168.5C321.78,-158.34 342.03,-146.16 357.32,-136.95"/>
<polygon fill="midnightblue" stroke="midnightblue" points="359.36,-139.81 366.12,-131.65 355.75,-133.81 359.36,-139.81"/>
</g>
<!-- Node3 -->
<g id="node3" class="node">
<title>Node3</title>
<g id="a_node3"><a xlink:href="../../db/d9f/cc_config_8h.html" target="_top" xlink:title="cocos2d (cc) configuration file">
<polygon fill="none" stroke="black" points="14,-56.5 14,-75.5 81,-75.5 81,-56.5 14,-56.5"/>
<text text-anchor="middle" x="47.5" y="-63.5" font-family="Helvetica,sans-Serif" font-size="10.00">ccConfig.h</text>
</a>
</g>
</g>
<!-- Node2&#45;&gt;Node3 -->
<g id="edge2" class="edge">
<title>Node2&#45;&gt;Node3</title>
<path fill="none" stroke="midnightblue" d="M99.54,-112.32C90.37,-104.34 76.56,-92.31 65.47,-82.65"/>
<polygon fill="midnightblue" stroke="midnightblue" points="67.48,-79.76 57.64,-75.83 62.88,-85.04 67.48,-79.76"/>
</g>
<!-- Node4 -->
<g id="node4" class="node">
<title>Node4</title>
<g id="a_node4"><a xlink:href="../../dd/d96/_c_c_platform_config_8h.html" target="_top" xlink:title=" ">
<polygon fill="none" stroke="black" points="0,-0.5 0,-19.5 157,-19.5 157,-0.5 0,-0.5"/>
<text text-anchor="middle" x="78.5" y="-7.5" font-family="Helvetica,sans-Serif" font-size="10.00">platform/CCPlatformConfig.h</text>
</a>
</g>
</g>
<!-- Node2&#45;&gt;Node4 -->
<g id="edge4" class="edge">
<title>Node2&#45;&gt;Node4</title>
<path fill="none" stroke="midnightblue" d="M107.07,-112.37C102.04,-94.54 90.42,-53.3 83.65,-29.27"/>
<polygon fill="midnightblue" stroke="midnightblue" points="87,-28.27 80.92,-19.59 80.27,-30.17 87,-28.27"/>
</g>
<!-- Node5 -->
<g id="node5" class="node">
<title>Node5</title>
<g id="a_node5"><a xlink:title=" ">
<polygon fill="none" stroke="#bfbfbf" points="138,-56.5 138,-75.5 251,-75.5 251,-56.5 138,-56.5"/>
<text text-anchor="middle" x="194.5" y="-63.5" font-family="Helvetica,sans-Serif" font-size="10.00">CCPlatformDefine.h</text>
</a>
</g>
</g>
<!-- Node2&#45;&gt;Node5 -->
<g id="edge5" class="edge">
<title>Node2&#45;&gt;Node5</title>
<path fill="none" stroke="midnightblue" d="M123.16,-112.32C136.42,-103.9 156.77,-90.97 172.35,-81.07"/>
<polygon fill="midnightblue" stroke="midnightblue" points="174.31,-83.97 180.88,-75.65 170.56,-78.06 174.31,-83.97"/>
</g>
<!-- Node3&#45;&gt;Node4 -->
<g id="edge3" class="edge">
<title>Node3&#45;&gt;Node4</title>
<path fill="none" stroke="midnightblue" d="M52.62,-56.08C56.91,-48.61 63.16,-37.72 68.44,-28.52"/>
<polygon fill="midnightblue" stroke="midnightblue" points="71.53,-30.17 73.48,-19.75 65.46,-26.68 71.53,-30.17"/>
</g>
</g>
</svg>
