<?xml version="1.0" encoding="UTF-8" standalone="no"?>
<!DOCTYPE svg PUBLIC "-//W3C//DTD SVG 1.1//EN"
 "http://www.w3.org/Graphics/SVG/1.1/DTD/svg11.dtd">
<!-- Generated by graphviz version 2.43.0 (0)
 -->
<!-- Title: ccV3F_C4B_T2F_Quad Pages: 1 -->
<svg width="237pt" height="195pt"
 viewBox="0.00 0.00 236.50 195.00" xmlns="http://www.w3.org/2000/svg" xmlns:xlink="http://www.w3.org/1999/xlink">
<g id="graph0" class="graph" transform="scale(1 1) rotate(0) translate(4 191)">
<title>ccV3F_C4B_T2F_Quad</title>
<!-- Node1 -->
<g id="node1" class="node">
<title>Node1</title>
<g id="a_node1"><a xlink:title="4 ccVertex3FTex2FColor4B">
<polygon fill="#bfbfbf" stroke="black" points="59,-0.5 59,-19.5 184,-19.5 184,-0.5 59,-0.5"/>
<text text-anchor="middle" x="121.5" y="-7.5" font-family="Helvetica,sans-Serif" font-size="10.00">ccV3F_C4B_T2F_Quad</text>
</a>
</g>
</g>
<!-- Node2 -->
<g id="node2" class="node">
<title>Node2</title>
<g id="a_node2"><a xlink:href="../../d7/de4/structcc_v3_f___c4_b___t2_f.html" target="_top" xlink:title="a Point with a vertex point, a tex coord point and a color 4B">
<polygon fill="none" stroke="black" points="74.5,-100.5 74.5,-119.5 168.5,-119.5 168.5,-100.5 74.5,-100.5"/>
<text text-anchor="middle" x="121.5" y="-107.5" font-family="Helvetica,sans-Serif" font-size="10.00">ccV3F_C4B_T2F</text>
</a>
</g>
</g>
<!-- Node2&#45;&gt;Node1 -->
<g id="edge1" class="edge">
<title>Node2&#45;&gt;Node1</title>
<path fill="none" stroke="#9a32cd" stroke-dasharray="5,2" d="M121.5,-90.22C121.5,-68.95 121.5,-35.22 121.5,-19.54"/>
<polygon fill="#9a32cd" stroke="#9a32cd" points="118,-90.3 121.5,-100.3 125,-90.3 118,-90.3"/>
<text text-anchor="middle" x="128" y="-74" font-family="Helvetica,sans-Serif" font-size="10.00"> bl</text>
<text text-anchor="middle" x="128" y="-63" font-family="Helvetica,sans-Serif" font-size="10.00">br</text>
<text text-anchor="middle" x="128" y="-52" font-family="Helvetica,sans-Serif" font-size="10.00">tl</text>
<text text-anchor="middle" x="128" y="-41" font-family="Helvetica,sans-Serif" font-size="10.00">tr</text>
</g>
<!-- Node3 -->
<g id="node3" class="node">
<title>Node3</title>
<g id="a_node3"><a xlink:href="../../d3/d87/structcc_vertex3_f.html" target="_top" xlink:title="A vertex composed of 2 floats: x, y.">
<polygon fill="none" stroke="black" points="0,-167.5 0,-186.5 71,-186.5 71,-167.5 0,-167.5"/>
<text text-anchor="middle" x="35.5" y="-174.5" font-family="Helvetica,sans-Serif" font-size="10.00">ccVertex3F</text>
</a>
</g>
</g>
<!-- Node3&#45;&gt;Node2 -->
<g id="edge2" class="edge">
<title>Node3&#45;&gt;Node2</title>
<path fill="none" stroke="#9a32cd" stroke-dasharray="5,2" d="M50.59,-159.54C57.51,-152.47 66.04,-144.39 74.5,-138 83.81,-130.97 95.13,-124.41 104.33,-119.52"/>
<polygon fill="#9a32cd" stroke="#9a32cd" points="47.66,-157.54 43.32,-167.2 52.74,-162.36 47.66,-157.54"/>
<text text-anchor="middle" x="96" y="-141" font-family="Helvetica,sans-Serif" font-size="10.00"> vertices</text>
</g>
<!-- Node4 -->
<g id="node4" class="node">
<title>Node4</title>
<g id="a_node4"><a xlink:href="../../d2/dd4/structcc_color4_b.html" target="_top" xlink:title="RGBA color composed of 4 bytes.">
<polygon fill="none" stroke="black" points="89,-167.5 89,-186.5 154,-186.5 154,-167.5 89,-167.5"/>
<text text-anchor="middle" x="121.5" y="-174.5" font-family="Helvetica,sans-Serif" font-size="10.00">ccColor4B</text>
</a>
</g>
</g>
<!-- Node4&#45;&gt;Node2 -->
<g id="edge3" class="edge">
<title>Node4&#45;&gt;Node2</title>
<path fill="none" stroke="#9a32cd" stroke-dasharray="5,2" d="M121.5,-157.04C121.5,-144.67 121.5,-129.12 121.5,-119.63"/>
<polygon fill="#9a32cd" stroke="#9a32cd" points="118,-157.23 121.5,-167.23 125,-157.23 118,-157.23"/>
<text text-anchor="middle" x="138" y="-141" font-family="Helvetica,sans-Serif" font-size="10.00"> colors</text>
</g>
<!-- Node5 -->
<g id="node5" class="node">
<title>Node5</title>
<g id="a_node5"><a xlink:href="../../d0/d46/structcc_tex2_f.html" target="_top" xlink:title="A texcoord composed of 2 floats: u, y.">
<polygon fill="none" stroke="black" points="172.5,-167.5 172.5,-186.5 228.5,-186.5 228.5,-167.5 172.5,-167.5"/>
<text text-anchor="middle" x="200.5" y="-174.5" font-family="Helvetica,sans-Serif" font-size="10.00">ccTex2F</text>
</a>
</g>
</g>
<!-- Node5&#45;&gt;Node2 -->
<g id="edge4" class="edge">
<title>Node5&#45;&gt;Node2</title>
<path fill="none" stroke="#9a32cd" stroke-dasharray="5,2" d="M183.91,-160.26C176.33,-153.25 167.13,-145.02 158.5,-138 150.6,-131.58 141.35,-124.83 134.08,-119.68"/>
<polygon fill="#9a32cd" stroke="#9a32cd" points="181.71,-162.99 191.41,-167.26 186.49,-157.87 181.71,-162.99"/>
<text text-anchor="middle" x="196" y="-141" font-family="Helvetica,sans-Serif" font-size="10.00"> texCoords</text>
</g>
</g>
</svg>
