<?xml version="1.0" encoding="UTF-8" standalone="no"?>
<!DOCTYPE svg PUBLIC "-//W3C//DTD SVG 1.1//EN"
 "http://www.w3.org/Graphics/SVG/1.1/DTD/svg11.dtd">
<!-- Generated by graphviz version 2.43.0 (0)
 -->
<!-- Title: /home/runner/work/cocos&#45;headers/cocos&#45;headers/cocos2dx/robtop/xml/DS_Dictionary.h Pages: 1 -->
<svg width="2444pt" height="762pt"
 viewBox="0.00 0.00 2443.50 762.00" xmlns="http://www.w3.org/2000/svg" xmlns:xlink="http://www.w3.org/1999/xlink">
<g id="graph0" class="graph" transform="scale(1 1) rotate(0) translate(4 758)">
<title>/home/runner/work/cocos&#45;headers/cocos&#45;headers/cocos2dx/robtop/xml/DS_Dictionary.h</title>
<!-- Node1 -->
<g id="node1" class="node">
<title>Node1</title>
<g id="a_node1"><a xlink:title=" ">
<polygon fill="#bfbfbf" stroke="black" points="654,-701.5 654,-753.5 794,-753.5 794,-701.5 654,-701.5"/>
<text text-anchor="start" x="662" y="-741.5" font-family="Helvetica,sans-Serif" font-size="10.00">/home/runner/work/cocos</text>
<text text-anchor="start" x="662" y="-730.5" font-family="Helvetica,sans-Serif" font-size="10.00">&#45;headers/cocos&#45;headers</text>
<text text-anchor="start" x="662" y="-719.5" font-family="Helvetica,sans-Serif" font-size="10.00">/cocos2dx/robtop/xml/DS</text>
<text text-anchor="middle" x="724" y="-708.5" font-family="Helvetica,sans-Serif" font-size="10.00">_Dictionary.h</text>
</a>
</g>
</g>
<!-- Node2 -->
<g id="node2" class="node">
<title>Node2</title>
<g id="a_node2"><a xlink:href="../../dc/dfd/cocos2d_8h.html" target="_top" xlink:title=" ">
<polygon fill="none" stroke="black" points="646.5,-623.5 646.5,-664.5 801.5,-664.5 801.5,-623.5 646.5,-623.5"/>
<text text-anchor="start" x="654.5" y="-652.5" font-family="Helvetica,sans-Serif" font-size="10.00">/home/runner/work/cocos</text>
<text text-anchor="start" x="654.5" y="-641.5" font-family="Helvetica,sans-Serif" font-size="10.00">&#45;headers/cocos&#45;headers</text>
<text text-anchor="middle" x="724" y="-630.5" font-family="Helvetica,sans-Serif" font-size="10.00">/cocos2dx/include/cocos2d.h</text>
</a>
</g>
</g>
<!-- Node1&#45;&gt;Node2 -->
<g id="edge1" class="edge">
<title>Node1&#45;&gt;Node2</title>
<path fill="none" stroke="midnightblue" d="M717.3,-691.15C717.12,-682.05 717.4,-672.6 718.13,-664.63"/>
<polygon fill="midnightblue" stroke="midnightblue" points="713.81,-691.31 717.7,-701.16 720.8,-691.03 713.81,-691.31"/>
</g>
<!-- Node2&#45;&gt;Node1 -->
<g id="edge2" class="edge">
<title>Node2&#45;&gt;Node1</title>
<path fill="none" stroke="midnightblue" d="M730.53,-674.73C730.89,-683.4 730.81,-692.79 730.3,-701.16"/>
<polygon fill="midnightblue" stroke="midnightblue" points="734.01,-674.38 729.87,-664.63 727.03,-674.83 734.01,-674.38"/>
</g>
<!-- Node3 -->
<g id="node3" class="node">
<title>Node3</title>
<g id="a_node3"><a xlink:href="../../d3/db7/_assets_manager_8h.html" target="_top" xlink:title=" ">
<polygon fill="none" stroke="black" points="150.5,-534.5 150.5,-586.5 301.5,-586.5 301.5,-534.5 150.5,-534.5"/>
<text text-anchor="start" x="158.5" y="-574.5" font-family="Helvetica,sans-Serif" font-size="10.00">/home/runner/work/cocos</text>
<text text-anchor="start" x="158.5" y="-563.5" font-family="Helvetica,sans-Serif" font-size="10.00">&#45;headers/cocos&#45;headers</text>
<text text-anchor="start" x="158.5" y="-552.5" font-family="Helvetica,sans-Serif" font-size="10.00">/extensions/AssetsManager</text>
<text text-anchor="middle" x="226" y="-541.5" font-family="Helvetica,sans-Serif" font-size="10.00">/AssetsManager.h</text>
</a>
</g>
</g>
<!-- Node2&#45;&gt;Node3 -->
<g id="edge3" class="edge">
<title>Node2&#45;&gt;Node3</title>
<path fill="none" stroke="midnightblue" d="M636.22,-634.54C553.18,-625.69 425.34,-609.88 316,-587 311.39,-586.04 306.67,-584.96 301.92,-583.82"/>
<polygon fill="midnightblue" stroke="midnightblue" points="636.06,-638.04 646.37,-635.61 636.79,-631.08 636.06,-638.04"/>
</g>
<!-- Node4 -->
<g id="node4" class="node">
<title>Node4</title>
<g id="a_node4"><a xlink:href="../../de/d8b/_c_c_control_8h.html" target="_top" xlink:title=" ">
<polygon fill="none" stroke="black" points="1274,-534.5 1274,-586.5 1468,-586.5 1468,-534.5 1274,-534.5"/>
<text text-anchor="start" x="1282" y="-574.5" font-family="Helvetica,sans-Serif" font-size="10.00">/home/runner/work/cocos</text>
<text text-anchor="start" x="1282" y="-563.5" font-family="Helvetica,sans-Serif" font-size="10.00">&#45;headers/cocos&#45;headers</text>
<text text-anchor="start" x="1282" y="-552.5" font-family="Helvetica,sans-Serif" font-size="10.00">/extensions/GUI/CCControlExtension</text>
<text text-anchor="middle" x="1371" y="-541.5" font-family="Helvetica,sans-Serif" font-size="10.00">/CCControl.h</text>
</a>
</g>
</g>
<!-- Node2&#45;&gt;Node4 -->
<g id="edge4" class="edge">
<title>Node2&#45;&gt;Node4</title>
<path fill="none" stroke="midnightblue" d="M811.66,-631.96C932.23,-616.77 1148.51,-589.53 1273.87,-573.74"/>
<polygon fill="midnightblue" stroke="midnightblue" points="811.21,-628.49 801.72,-633.21 812.08,-635.43 811.21,-628.49"/>
</g>
<!-- Node7 -->
<g id="node7" class="node">
<title>Node7</title>
<g id="a_node7"><a xlink:href="../../dc/d4a/_c_c_edit_box_8h.html" target="_top" xlink:title=" ">
<polygon fill="none" stroke="black" points="1044,-178.5 1044,-230.5 1192,-230.5 1192,-178.5 1044,-178.5"/>
<text text-anchor="start" x="1052" y="-218.5" font-family="Helvetica,sans-Serif" font-size="10.00">/home/runner/work/cocos</text>
<text text-anchor="start" x="1052" y="-207.5" font-family="Helvetica,sans-Serif" font-size="10.00">&#45;headers/cocos&#45;headers</text>
<text text-anchor="start" x="1052" y="-196.5" font-family="Helvetica,sans-Serif" font-size="10.00">/extensions/GUI/CCEditBox</text>
<text text-anchor="middle" x="1118" y="-185.5" font-family="Helvetica,sans-Serif" font-size="10.00">/CCEditBox.h</text>
</a>
</g>
</g>
<!-- Node2&#45;&gt;Node7 -->
<g id="edge37" class="edge">
<title>Node2&#45;&gt;Node7</title>
<path fill="none" stroke="midnightblue" d="M713.36,-613.72C702.12,-580.1 686,-523.07 686,-472.5 686,-472.5 686,-472.5 686,-381.5 686,-305.17 920.22,-245.82 1043.74,-219.84"/>
<polygon fill="midnightblue" stroke="midnightblue" points="710.12,-615.04 716.67,-623.37 716.74,-612.77 710.12,-615.04"/>
</g>
<!-- Node8 -->
<g id="node8" class="node">
<title>Node8</title>
<g id="a_node8"><a xlink:href="../../db/da9/_c_c_edit_box_impl_8h.html" target="_top" xlink:title=" ">
<polygon fill="none" stroke="black" points="434,-89.5 434,-141.5 582,-141.5 582,-89.5 434,-89.5"/>
<text text-anchor="start" x="442" y="-129.5" font-family="Helvetica,sans-Serif" font-size="10.00">/home/runner/work/cocos</text>
<text text-anchor="start" x="442" y="-118.5" font-family="Helvetica,sans-Serif" font-size="10.00">&#45;headers/cocos&#45;headers</text>
<text text-anchor="start" x="442" y="-107.5" font-family="Helvetica,sans-Serif" font-size="10.00">/extensions/GUI/CCEditBox</text>
<text text-anchor="middle" x="508" y="-96.5" font-family="Helvetica,sans-Serif" font-size="10.00">/CCEditBoxImpl.h</text>
</a>
</g>
</g>
<!-- Node2&#45;&gt;Node8 -->
<g id="edge38" class="edge">
<title>Node2&#45;&gt;Node8</title>
<path fill="none" stroke="midnightblue" d="M646.44,-619.43C628.35,-611.28 610.24,-600.65 596,-587 555.1,-547.8 540,-529.15 540,-472.5 540,-472.5 540,-472.5 540,-292.5 540,-238 524.96,-175.51 515.5,-141.6"/>
<polygon fill="midnightblue" stroke="midnightblue" points="645.3,-622.75 655.87,-623.47 648.05,-616.31 645.3,-622.75"/>
</g>
<!-- Node9 -->
<g id="node9" class="node">
<title>Node9</title>
<g id="a_node9"><a xlink:href="../../d4/dd3/_c_c_edit_box_impl_android_8h.html" target="_top" xlink:title=" ">
<polygon fill="none" stroke="black" points="0,-0.5 0,-52.5 148,-52.5 148,-0.5 0,-0.5"/>
<text text-anchor="start" x="8" y="-40.5" font-family="Helvetica,sans-Serif" font-size="10.00">/home/runner/work/cocos</text>
<text text-anchor="start" x="8" y="-29.5" font-family="Helvetica,sans-Serif" font-size="10.00">&#45;headers/cocos&#45;headers</text>
<text text-anchor="start" x="8" y="-18.5" font-family="Helvetica,sans-Serif" font-size="10.00">/extensions/GUI/CCEditBox</text>
<text text-anchor="middle" x="74" y="-7.5" font-family="Helvetica,sans-Serif" font-size="10.00">/CCEditBoxImplAndroid.h</text>
</a>
</g>
</g>
<!-- Node2&#45;&gt;Node9 -->
<g id="edge39" class="edge">
<title>Node2&#45;&gt;Node9</title>
<path fill="none" stroke="midnightblue" d="M636.25,-638.72C546.29,-632.65 414.18,-618.54 375,-587 332.41,-552.72 330,-527.18 330,-472.5 330,-472.5 330,-472.5 330,-203.5 330,-155.23 204.84,-88.41 129.55,-52.59"/>
<polygon fill="midnightblue" stroke="midnightblue" points="636.25,-642.23 646.46,-639.38 636.71,-635.24 636.25,-642.23"/>
</g>
<!-- Node10 -->
<g id="node10" class="node">
<title>Node10</title>
<g id="a_node10"><a xlink:href="../../dd/dfd/_c_c_edit_box_impl_i_o_s_8h.html" target="_top" xlink:title=" ">
<polygon fill="none" stroke="black" points="166,-0.5 166,-52.5 314,-52.5 314,-0.5 166,-0.5"/>
<text text-anchor="start" x="174" y="-40.5" font-family="Helvetica,sans-Serif" font-size="10.00">/home/runner/work/cocos</text>
<text text-anchor="start" x="174" y="-29.5" font-family="Helvetica,sans-Serif" font-size="10.00">&#45;headers/cocos&#45;headers</text>
<text text-anchor="start" x="174" y="-18.5" font-family="Helvetica,sans-Serif" font-size="10.00">/extensions/GUI/CCEditBox</text>
<text text-anchor="middle" x="240" y="-7.5" font-family="Helvetica,sans-Serif" font-size="10.00">/CCEditBoxImplIOS.h</text>
</a>
</g>
</g>
<!-- Node2&#45;&gt;Node10 -->
<g id="edge40" class="edge">
<title>Node2&#45;&gt;Node10</title>
<path fill="none" stroke="midnightblue" d="M636.08,-635.34C559.82,-627.15 456.69,-611.86 424,-587 378.91,-552.71 368,-529.15 368,-472.5 368,-472.5 368,-472.5 368,-203.5 368,-151.51 374.28,-131.27 344,-89 333.19,-73.91 317.42,-61.9 301.42,-52.65"/>
<polygon fill="midnightblue" stroke="midnightblue" points="635.87,-638.84 646.18,-636.4 636.6,-631.88 635.87,-638.84"/>
</g>
<!-- Node11 -->
<g id="node11" class="node">
<title>Node11</title>
<g id="a_node11"><a xlink:href="../../d7/d4d/_c_c_edit_box_impl_mac_8h.html" target="_top" xlink:title=" ">
<polygon fill="none" stroke="black" points="332,-0.5 332,-52.5 480,-52.5 480,-0.5 332,-0.5"/>
<text text-anchor="start" x="340" y="-40.5" font-family="Helvetica,sans-Serif" font-size="10.00">/home/runner/work/cocos</text>
<text text-anchor="start" x="340" y="-29.5" font-family="Helvetica,sans-Serif" font-size="10.00">&#45;headers/cocos&#45;headers</text>
<text text-anchor="start" x="340" y="-18.5" font-family="Helvetica,sans-Serif" font-size="10.00">/extensions/GUI/CCEditBox</text>
<text text-anchor="middle" x="406" y="-7.5" font-family="Helvetica,sans-Serif" font-size="10.00">/CCEditBoxImplMac.h</text>
</a>
</g>
</g>
<!-- Node2&#45;&gt;Node11 -->
<g id="edge41" class="edge">
<title>Node2&#45;&gt;Node11</title>
<path fill="none" stroke="midnightblue" d="M636.1,-633.55C541.98,-617.99 406,-577.36 406,-472.5 406,-472.5 406,-472.5 406,-203.5 406,-149.72 406,-86.7 406,-52.57"/>
<polygon fill="midnightblue" stroke="midnightblue" points="635.78,-637.05 646.21,-635.15 636.88,-630.13 635.78,-637.05"/>
</g>
<!-- Node12 -->
<g id="node12" class="node">
<title>Node12</title>
<g id="a_node12"><a xlink:href="../../de/dac/_c_c_edit_box_impl_tizen_8h.html" target="_top" xlink:title=" ">
<polygon fill="none" stroke="black" points="664,-0.5 664,-52.5 812,-52.5 812,-0.5 664,-0.5"/>
<text text-anchor="start" x="672" y="-40.5" font-family="Helvetica,sans-Serif" font-size="10.00">/home/runner/work/cocos</text>
<text text-anchor="start" x="672" y="-29.5" font-family="Helvetica,sans-Serif" font-size="10.00">&#45;headers/cocos&#45;headers</text>
<text text-anchor="start" x="672" y="-18.5" font-family="Helvetica,sans-Serif" font-size="10.00">/extensions/GUI/CCEditBox</text>
<text text-anchor="middle" x="738" y="-7.5" font-family="Helvetica,sans-Serif" font-size="10.00">/CCEditBoxImplTizen.h</text>
</a>
</g>
</g>
<!-- Node2&#45;&gt;Node12 -->
<g id="edge42" class="edge">
<title>Node2&#45;&gt;Node12</title>
<path fill="none" stroke="midnightblue" d="M691.46,-616.36C657.77,-585.57 610,-531.51 610,-472.5 610,-472.5 610,-472.5 610,-203.5 610,-151.51 603.72,-131.27 634,-89 644.81,-73.91 660.58,-61.9 676.58,-52.65"/>
<polygon fill="midnightblue" stroke="midnightblue" points="689.47,-619.27 699.26,-623.3 694.12,-614.04 689.47,-619.27"/>
</g>
<!-- Node13 -->
<g id="node13" class="node">
<title>Node13</title>
<g id="a_node13"><a xlink:href="../../dd/d41/_c_c_edit_box_impl_win_8h.html" target="_top" xlink:title=" ">
<polygon fill="none" stroke="black" points="830,-0.5 830,-52.5 978,-52.5 978,-0.5 830,-0.5"/>
<text text-anchor="start" x="838" y="-40.5" font-family="Helvetica,sans-Serif" font-size="10.00">/home/runner/work/cocos</text>
<text text-anchor="start" x="838" y="-29.5" font-family="Helvetica,sans-Serif" font-size="10.00">&#45;headers/cocos&#45;headers</text>
<text text-anchor="start" x="838" y="-18.5" font-family="Helvetica,sans-Serif" font-size="10.00">/extensions/GUI/CCEditBox</text>
<text text-anchor="middle" x="904" y="-7.5" font-family="Helvetica,sans-Serif" font-size="10.00">/CCEditBoxImplWin.h</text>
</a>
</g>
</g>
<!-- Node2&#45;&gt;Node13 -->
<g id="edge43" class="edge">
<title>Node2&#45;&gt;Node13</title>
<path fill="none" stroke="midnightblue" d="M713.18,-613.83C692.19,-554.55 648,-415.38 648,-294.5 648,-294.5 648,-294.5 648,-203.5 648,-155.23 773.16,-88.41 848.45,-52.59"/>
<polygon fill="midnightblue" stroke="midnightblue" points="709.9,-615.06 716.57,-623.29 716.49,-612.7 709.9,-615.06"/>
</g>
<!-- Node24 -->
<g id="node24" class="node">
<title>Node24</title>
<g id="a_node24"><a xlink:href="../../db/d24/_c_c_scale9_sprite_8h.html" target="_top" xlink:title=" ">
<polygon fill="none" stroke="black" points="1638,-534.5 1638,-586.5 1832,-586.5 1832,-534.5 1638,-534.5"/>
<text text-anchor="start" x="1646" y="-574.5" font-family="Helvetica,sans-Serif" font-size="10.00">/home/runner/work/cocos</text>
<text text-anchor="start" x="1646" y="-563.5" font-family="Helvetica,sans-Serif" font-size="10.00">&#45;headers/cocos&#45;headers</text>
<text text-anchor="start" x="1646" y="-552.5" font-family="Helvetica,sans-Serif" font-size="10.00">/extensions/GUI/CCControlExtension</text>
<text text-anchor="middle" x="1735" y="-541.5" font-family="Helvetica,sans-Serif" font-size="10.00">/CCScale9Sprite.h</text>
</a>
</g>
</g>
<!-- Node2&#45;&gt;Node24 -->
<g id="edge34" class="edge">
<title>Node2&#45;&gt;Node24</title>
<path fill="none" stroke="midnightblue" d="M811.83,-637.16C952.39,-627.66 1236.51,-607.82 1477,-587 1530.25,-582.39 1589.61,-576.57 1637.96,-571.65"/>
<polygon fill="midnightblue" stroke="midnightblue" points="811.3,-633.69 801.56,-637.86 811.77,-640.67 811.3,-633.69"/>
</g>
<!-- Node25 -->
<g id="node25" class="node">
<title>Node25</title>
<g id="a_node25"><a xlink:href="../../de/d56/_c_c_scroll_view_8h.html" target="_top" xlink:title=" ">
<polygon fill="none" stroke="black" points="1766.5,-267.5 1766.5,-319.5 1927.5,-319.5 1927.5,-267.5 1766.5,-267.5"/>
<text text-anchor="start" x="1774.5" y="-307.5" font-family="Helvetica,sans-Serif" font-size="10.00">/home/runner/work/cocos</text>
<text text-anchor="start" x="1774.5" y="-296.5" font-family="Helvetica,sans-Serif" font-size="10.00">&#45;headers/cocos&#45;headers</text>
<text text-anchor="start" x="1774.5" y="-285.5" font-family="Helvetica,sans-Serif" font-size="10.00">/extensions/GUI/CCScrollView</text>
<text text-anchor="middle" x="1847" y="-274.5" font-family="Helvetica,sans-Serif" font-size="10.00">/CCScrollView.h</text>
</a>
</g>
</g>
<!-- Node2&#45;&gt;Node25 -->
<g id="edge44" class="edge">
<title>Node2&#45;&gt;Node25</title>
<path fill="none" stroke="midnightblue" d="M811.53,-641.42C1067.84,-636.43 1801.3,-619.37 1841,-587 1920.32,-522.33 1878.49,-378.25 1857.09,-319.83"/>
<polygon fill="midnightblue" stroke="midnightblue" points="811.44,-637.92 801.51,-641.61 811.58,-644.92 811.44,-637.92"/>
</g>
<!-- Node27 -->
<g id="node27" class="node">
<title>Node27</title>
<g id="a_node27"><a xlink:href="../../d8/d12/_http_client_8h.html" target="_top" xlink:title=" ">
<polygon fill="none" stroke="black" points="1983.5,-362 1983.5,-403 2160.5,-403 2160.5,-362 1983.5,-362"/>
<text text-anchor="start" x="1991.5" y="-391" font-family="Helvetica,sans-Serif" font-size="10.00">/home/runner/work/cocos</text>
<text text-anchor="start" x="1991.5" y="-380" font-family="Helvetica,sans-Serif" font-size="10.00">&#45;headers/cocos&#45;headers</text>
<text text-anchor="middle" x="2072" y="-369" font-family="Helvetica,sans-Serif" font-size="10.00">/extensions/network/HttpClient.h</text>
</a>
</g>
</g>
<!-- Node2&#45;&gt;Node27 -->
<g id="edge48" class="edge">
<title>Node2&#45;&gt;Node27</title>
<path fill="none" stroke="midnightblue" d="M811.79,-642.98C1121.6,-642.48 2147.84,-637.03 2196,-587 2251.81,-529.03 2151.24,-441.68 2099.69,-403.05"/>
<polygon fill="midnightblue" stroke="midnightblue" points="811.5,-639.48 801.51,-642.99 811.51,-646.48 811.5,-639.48"/>
</g>
<!-- Node28 -->
<g id="node28" class="node">
<title>Node28</title>
<g id="a_node28"><a xlink:href="../../d3/d95/_http_request_8h.html" target="_top" xlink:title=" ">
<polygon fill="none" stroke="black" points="1999,-540 1999,-581 2187,-581 2187,-540 1999,-540"/>
<text text-anchor="start" x="2007" y="-569" font-family="Helvetica,sans-Serif" font-size="10.00">/home/runner/work/cocos</text>
<text text-anchor="start" x="2007" y="-558" font-family="Helvetica,sans-Serif" font-size="10.00">&#45;headers/cocos&#45;headers</text>
<text text-anchor="middle" x="2093" y="-547" font-family="Helvetica,sans-Serif" font-size="10.00">/extensions/network/HttpRequest.h</text>
</a>
</g>
</g>
<!-- Node2&#45;&gt;Node28 -->
<g id="edge50" class="edge">
<title>Node2&#45;&gt;Node28</title>
<path fill="none" stroke="midnightblue" d="M811.84,-643.45C1015.03,-643.53 1532.89,-638.19 1962,-587 1974.88,-585.46 1988.4,-583.38 2001.65,-581.06"/>
<polygon fill="midnightblue" stroke="midnightblue" points="811.83,-639.95 801.82,-643.44 811.82,-646.95 811.83,-639.95"/>
</g>
<!-- Node29 -->
<g id="node29" class="node">
<title>Node29</title>
<g id="a_node29"><a xlink:href="../../d1/d33/_http_response_8h.html" target="_top" xlink:title=" ">
<polygon fill="none" stroke="black" points="1926,-451 1926,-492 2122,-492 2122,-451 1926,-451"/>
<text text-anchor="start" x="1934" y="-480" font-family="Helvetica,sans-Serif" font-size="10.00">/home/runner/work/cocos</text>
<text text-anchor="start" x="1934" y="-469" font-family="Helvetica,sans-Serif" font-size="10.00">&#45;headers/cocos&#45;headers</text>
<text text-anchor="middle" x="2024" y="-458" font-family="Helvetica,sans-Serif" font-size="10.00">/extensions/network/HttpResponse.h</text>
</a>
</g>
</g>
<!-- Node2&#45;&gt;Node29 -->
<g id="edge56" class="edge">
<title>Node2&#45;&gt;Node29</title>
<path fill="none" stroke="midnightblue" d="M811.8,-642.55C1069.62,-640.72 1812.6,-631.6 1912,-587 1957.16,-566.74 1993.67,-519.3 2011.72,-492.27"/>
<polygon fill="midnightblue" stroke="midnightblue" points="811.71,-639.05 801.73,-642.62 811.76,-646.05 811.71,-639.05"/>
</g>
<!-- Node30 -->
<g id="node30" class="node">
<title>Node30</title>
<g id="a_node30"><a xlink:href="../../da/d1e/_web_socket_8h.html" target="_top" xlink:title=" ">
<polygon fill="none" stroke="black" points="2254.5,-540 2254.5,-581 2435.5,-581 2435.5,-540 2254.5,-540"/>
<text text-anchor="start" x="2262.5" y="-569" font-family="Helvetica,sans-Serif" font-size="10.00">/home/runner/work/cocos</text>
<text text-anchor="start" x="2262.5" y="-558" font-family="Helvetica,sans-Serif" font-size="10.00">&#45;headers/cocos&#45;headers</text>
<text text-anchor="middle" x="2345" y="-547" font-family="Helvetica,sans-Serif" font-size="10.00">/extensions/network/WebSocket.h</text>
</a>
</g>
</g>
<!-- Node2&#45;&gt;Node30 -->
<g id="edge57" class="edge">
<title>Node2&#45;&gt;Node30</title>
<path fill="none" stroke="midnightblue" d="M812.01,-642.08C1092.21,-638.77 1961.36,-625.58 2240,-587 2250.68,-585.52 2261.87,-583.42 2272.78,-581.05"/>
<polygon fill="midnightblue" stroke="midnightblue" points="811.86,-638.58 801.9,-642.19 811.94,-645.58 811.86,-638.58"/>
</g>
<!-- Node5 -->
<g id="node5" class="node">
<title>Node5</title>
<g id="a_node5"><a xlink:href="../../d0/d7e/_c_c_control_button_8h.html" target="_top" xlink:title=" ">
<polygon fill="none" stroke="black" points="1638,-445.5 1638,-497.5 1832,-497.5 1832,-445.5 1638,-445.5"/>
<text text-anchor="start" x="1646" y="-485.5" font-family="Helvetica,sans-Serif" font-size="10.00">/home/runner/work/cocos</text>
<text text-anchor="start" x="1646" y="-474.5" font-family="Helvetica,sans-Serif" font-size="10.00">&#45;headers/cocos&#45;headers</text>
<text text-anchor="start" x="1646" y="-463.5" font-family="Helvetica,sans-Serif" font-size="10.00">/extensions/GUI/CCControlExtension</text>
<text text-anchor="middle" x="1735" y="-452.5" font-family="Helvetica,sans-Serif" font-size="10.00">/CCControlButton.h</text>
</a>
</g>
</g>
<!-- Node4&#45;&gt;Node5 -->
<g id="edge5" class="edge">
<title>Node4&#45;&gt;Node5</title>
<path fill="none" stroke="midnightblue" d="M1478.06,-533.91C1528.66,-521.82 1588.62,-507.49 1637.89,-495.71"/>
<polygon fill="midnightblue" stroke="midnightblue" points="1476.98,-530.57 1468.07,-536.3 1478.61,-537.38 1476.98,-530.57"/>
</g>
<!-- Node6 -->
<g id="node6" class="node">
<title>Node6</title>
<g id="a_node6"><a xlink:href="../../d6/d86/_c_c_control_extensions_8h.html" target="_top" xlink:title=" ">
<polygon fill="none" stroke="black" points="1282,-267.5 1282,-319.5 1476,-319.5 1476,-267.5 1282,-267.5"/>
<text text-anchor="start" x="1290" y="-307.5" font-family="Helvetica,sans-Serif" font-size="10.00">/home/runner/work/cocos</text>
<text text-anchor="start" x="1290" y="-296.5" font-family="Helvetica,sans-Serif" font-size="10.00">&#45;headers/cocos&#45;headers</text>
<text text-anchor="start" x="1290" y="-285.5" font-family="Helvetica,sans-Serif" font-size="10.00">/extensions/GUI/CCControlExtension</text>
<text text-anchor="middle" x="1379" y="-274.5" font-family="Helvetica,sans-Serif" font-size="10.00">/CCControlExtensions.h</text>
</a>
</g>
</g>
<!-- Node4&#45;&gt;Node6 -->
<g id="edge19" class="edge">
<title>Node4&#45;&gt;Node6</title>
<path fill="none" stroke="midnightblue" d="M1263.75,-554.92C1113.53,-547.39 855.53,-529.94 827,-498 811.31,-480.43 813.79,-464.51 827,-445 851.15,-409.33 883.09,-435.57 917,-409 939.81,-391.12 930.24,-371.06 955,-356 1008.3,-323.58 1173.81,-307.24 1281.58,-299.83"/>
<polygon fill="midnightblue" stroke="midnightblue" points="1263.77,-558.43 1273.93,-555.42 1264.12,-551.43 1263.77,-558.43"/>
</g>
<!-- Node16 -->
<g id="node16" class="node">
<title>Node16</title>
<g id="a_node16"><a xlink:href="../../d3/db7/_c_c_control_colour_picker_8h.html" target="_top" xlink:title=" ">
<polygon fill="none" stroke="black" points="964,-356.5 964,-408.5 1158,-408.5 1158,-356.5 964,-356.5"/>
<text text-anchor="start" x="972" y="-396.5" font-family="Helvetica,sans-Serif" font-size="10.00">/home/runner/work/cocos</text>
<text text-anchor="start" x="972" y="-385.5" font-family="Helvetica,sans-Serif" font-size="10.00">&#45;headers/cocos&#45;headers</text>
<text text-anchor="start" x="972" y="-374.5" font-family="Helvetica,sans-Serif" font-size="10.00">/extensions/GUI/CCControlExtension</text>
<text text-anchor="middle" x="1061" y="-363.5" font-family="Helvetica,sans-Serif" font-size="10.00">/CCControlColourPicker.h</text>
</a>
</g>
</g>
<!-- Node4&#45;&gt;Node16 -->
<g id="edge17" class="edge">
<title>Node4&#45;&gt;Node16</title>
<path fill="none" stroke="midnightblue" d="M1446.72,-529.09C1458.84,-520.83 1469.75,-510.58 1477,-498 1488.76,-477.59 1492.67,-462.59 1477,-445 1430.88,-393.21 1235.28,-421.13 1167,-409 1164.11,-408.49 1161.18,-407.94 1158.23,-407.37"/>
<polygon fill="midnightblue" stroke="midnightblue" points="1444.75,-526.19 1438.17,-534.49 1448.5,-532.11 1444.75,-526.19"/>
</g>
<!-- Node17 -->
<g id="node17" class="node">
<title>Node17</title>
<g id="a_node17"><a xlink:href="../../dd/d5a/_c_c_control_hue_picker_8h.html" target="_top" xlink:title=" ">
<polygon fill="none" stroke="black" points="836,-445.5 836,-497.5 1030,-497.5 1030,-445.5 836,-445.5"/>
<text text-anchor="start" x="844" y="-485.5" font-family="Helvetica,sans-Serif" font-size="10.00">/home/runner/work/cocos</text>
<text text-anchor="start" x="844" y="-474.5" font-family="Helvetica,sans-Serif" font-size="10.00">&#45;headers/cocos&#45;headers</text>
<text text-anchor="start" x="844" y="-463.5" font-family="Helvetica,sans-Serif" font-size="10.00">/extensions/GUI/CCControlExtension</text>
<text text-anchor="middle" x="933" y="-452.5" font-family="Helvetica,sans-Serif" font-size="10.00">/CCControlHuePicker.h</text>
</a>
</g>
</g>
<!-- Node4&#45;&gt;Node17 -->
<g id="edge20" class="edge">
<title>Node4&#45;&gt;Node17</title>
<path fill="none" stroke="midnightblue" d="M1263.88,-541.14C1198.7,-529.6 1113.85,-513.92 1039,-498 1036.13,-497.39 1033.22,-496.76 1030.28,-496.11"/>
<polygon fill="midnightblue" stroke="midnightblue" points="1263.31,-544.59 1273.76,-542.88 1264.52,-537.7 1263.31,-544.59"/>
</g>
<!-- Node18 -->
<g id="node18" class="node">
<title>Node18</title>
<g id="a_node18"><a xlink:href="../../d2/d29/_c_c_control_potentiometer_8h.html" target="_top" xlink:title=" ">
<polygon fill="none" stroke="black" points="1176,-356.5 1176,-408.5 1370,-408.5 1370,-356.5 1176,-356.5"/>
<text text-anchor="start" x="1184" y="-396.5" font-family="Helvetica,sans-Serif" font-size="10.00">/home/runner/work/cocos</text>
<text text-anchor="start" x="1184" y="-385.5" font-family="Helvetica,sans-Serif" font-size="10.00">&#45;headers/cocos&#45;headers</text>
<text text-anchor="start" x="1184" y="-374.5" font-family="Helvetica,sans-Serif" font-size="10.00">/extensions/GUI/CCControlExtension</text>
<text text-anchor="middle" x="1273" y="-363.5" font-family="Helvetica,sans-Serif" font-size="10.00">/CCControlPotentiometer.h</text>
</a>
</g>
</g>
<!-- Node4&#45;&gt;Node18 -->
<g id="edge22" class="edge">
<title>Node4&#45;&gt;Node18</title>
<path fill="none" stroke="midnightblue" d="M1476.4,-529.33C1489.68,-521.23 1501.56,-510.97 1510,-498 1522.85,-478.26 1524.41,-463.63 1510,-445 1507.68,-442.01 1434.51,-423.29 1370.08,-407.28"/>
<polygon fill="midnightblue" stroke="midnightblue" points="1474.48,-526.39 1467.49,-534.35 1477.92,-532.49 1474.48,-526.39"/>
</g>
<!-- Node19 -->
<g id="node19" class="node">
<title>Node19</title>
<g id="a_node19"><a xlink:href="../../de/d08/_c_c_control_saturation_brightness_picker_8h.html" target="_top" xlink:title=" ">
<polygon fill="none" stroke="black" points="1048,-445.5 1048,-497.5 1256,-497.5 1256,-445.5 1048,-445.5"/>
<text text-anchor="start" x="1056" y="-485.5" font-family="Helvetica,sans-Serif" font-size="10.00">/home/runner/work/cocos</text>
<text text-anchor="start" x="1056" y="-474.5" font-family="Helvetica,sans-Serif" font-size="10.00">&#45;headers/cocos&#45;headers</text>
<text text-anchor="start" x="1056" y="-463.5" font-family="Helvetica,sans-Serif" font-size="10.00">/extensions/GUI/CCControlExtension</text>
<text text-anchor="middle" x="1152" y="-452.5" font-family="Helvetica,sans-Serif" font-size="10.00">/CCControlSaturationBrightnessPicker.h</text>
</a>
</g>
</g>
<!-- Node4&#45;&gt;Node19 -->
<g id="edge24" class="edge">
<title>Node4&#45;&gt;Node19</title>
<path fill="none" stroke="midnightblue" d="M1298.55,-530.72C1271.52,-519.98 1241.09,-507.89 1214.98,-497.52"/>
<polygon fill="midnightblue" stroke="midnightblue" points="1297.36,-534.01 1307.95,-534.45 1299.95,-527.51 1297.36,-534.01"/>
</g>
<!-- Node20 -->
<g id="node20" class="node">
<title>Node20</title>
<g id="a_node20"><a xlink:href="../../d6/d7e/_c_c_control_slider_8h.html" target="_top" xlink:title=" ">
<polygon fill="none" stroke="black" points="1388,-356.5 1388,-408.5 1582,-408.5 1582,-356.5 1388,-356.5"/>
<text text-anchor="start" x="1396" y="-396.5" font-family="Helvetica,sans-Serif" font-size="10.00">/home/runner/work/cocos</text>
<text text-anchor="start" x="1396" y="-385.5" font-family="Helvetica,sans-Serif" font-size="10.00">&#45;headers/cocos&#45;headers</text>
<text text-anchor="start" x="1396" y="-374.5" font-family="Helvetica,sans-Serif" font-size="10.00">/extensions/GUI/CCControlExtension</text>
<text text-anchor="middle" x="1485" y="-363.5" font-family="Helvetica,sans-Serif" font-size="10.00">/CCControlSlider.h</text>
</a>
</g>
</g>
<!-- Node4&#45;&gt;Node20 -->
<g id="edge26" class="edge">
<title>Node4&#45;&gt;Node20</title>
<path fill="none" stroke="midnightblue" d="M1477.87,-538.36C1498.38,-529.32 1517.38,-516.42 1530,-498 1549.08,-470.16 1527.47,-433.07 1508.12,-408.75"/>
<polygon fill="midnightblue" stroke="midnightblue" points="1476.29,-535.23 1468.36,-542.25 1478.94,-541.71 1476.29,-535.23"/>
</g>
<!-- Node21 -->
<g id="node21" class="node">
<title>Node21</title>
<g id="a_node21"><a xlink:href="../../de/dba/_c_c_control_stepper_8h.html" target="_top" xlink:title=" ">
<polygon fill="none" stroke="black" points="1600,-356.5 1600,-408.5 1794,-408.5 1794,-356.5 1600,-356.5"/>
<text text-anchor="start" x="1608" y="-396.5" font-family="Helvetica,sans-Serif" font-size="10.00">/home/runner/work/cocos</text>
<text text-anchor="start" x="1608" y="-385.5" font-family="Helvetica,sans-Serif" font-size="10.00">&#45;headers/cocos&#45;headers</text>
<text text-anchor="start" x="1608" y="-374.5" font-family="Helvetica,sans-Serif" font-size="10.00">/extensions/GUI/CCControlExtension</text>
<text text-anchor="middle" x="1697" y="-363.5" font-family="Helvetica,sans-Serif" font-size="10.00">/CCControlStepper.h</text>
</a>
</g>
</g>
<!-- Node4&#45;&gt;Node21 -->
<g id="edge28" class="edge">
<title>Node4&#45;&gt;Node21</title>
<path fill="none" stroke="midnightblue" d="M1470.62,-531.14C1496.52,-522.1 1523.9,-511 1548,-498 1594.37,-472.98 1641.53,-433.96 1670.03,-408.56"/>
<polygon fill="midnightblue" stroke="midnightblue" points="1469.48,-527.84 1461.15,-534.38 1471.74,-534.46 1469.48,-527.84"/>
</g>
<!-- Node22 -->
<g id="node22" class="node">
<title>Node22</title>
<g id="a_node22"><a xlink:href="../../de/dc7/_c_c_control_switch_8h.html" target="_top" xlink:title=" ">
<polygon fill="none" stroke="black" points="714,-356.5 714,-408.5 908,-408.5 908,-356.5 714,-356.5"/>
<text text-anchor="start" x="722" y="-396.5" font-family="Helvetica,sans-Serif" font-size="10.00">/home/runner/work/cocos</text>
<text text-anchor="start" x="722" y="-385.5" font-family="Helvetica,sans-Serif" font-size="10.00">&#45;headers/cocos&#45;headers</text>
<text text-anchor="start" x="722" y="-374.5" font-family="Helvetica,sans-Serif" font-size="10.00">/extensions/GUI/CCControlExtension</text>
<text text-anchor="middle" x="811" y="-363.5" font-family="Helvetica,sans-Serif" font-size="10.00">/CCControlSwitch.h</text>
</a>
</g>
</g>
<!-- Node4&#45;&gt;Node22 -->
<g id="edge30" class="edge">
<title>Node4&#45;&gt;Node22</title>
<path fill="none" stroke="midnightblue" d="M1263.52,-555.67C1105.24,-548.9 824.75,-532.2 794,-498 772.23,-473.79 784.82,-434.37 797,-408.68"/>
<polygon fill="midnightblue" stroke="midnightblue" points="1263.63,-559.18 1273.77,-556.1 1263.92,-552.18 1263.63,-559.18"/>
</g>
<!-- Node23 -->
<g id="node23" class="node">
<title>Node23</title>
<g id="a_node23"><a xlink:href="../../d8/dec/_color_picker_delegate_8h.html" target="_top" xlink:title=" ">
<polygon fill="none" stroke="black" points="1274,-445.5 1274,-497.5 1468,-497.5 1468,-445.5 1274,-445.5"/>
<text text-anchor="start" x="1282" y="-485.5" font-family="Helvetica,sans-Serif" font-size="10.00">/home/runner/work/cocos</text>
<text text-anchor="start" x="1282" y="-474.5" font-family="Helvetica,sans-Serif" font-size="10.00">&#45;headers/cocos&#45;headers</text>
<text text-anchor="start" x="1282" y="-463.5" font-family="Helvetica,sans-Serif" font-size="10.00">/extensions/GUI/CCControlExtension</text>
<text text-anchor="middle" x="1371" y="-452.5" font-family="Helvetica,sans-Serif" font-size="10.00">/ColorPickerDelegate.h</text>
</a>
</g>
</g>
<!-- Node4&#45;&gt;Node23 -->
<g id="edge32" class="edge">
<title>Node4&#45;&gt;Node23</title>
<path fill="none" stroke="midnightblue" d="M1371,-524.19C1371,-515.28 1371,-505.9 1371,-497.61"/>
<polygon fill="midnightblue" stroke="midnightblue" points="1367.5,-524.34 1371,-534.34 1374.5,-524.34 1367.5,-524.34"/>
</g>
<!-- Node5&#45;&gt;Node6 -->
<g id="edge6" class="edge">
<title>Node5&#45;&gt;Node6</title>
<path fill="none" stroke="midnightblue" d="M1781.1,-438.63C1789.99,-430.12 1798.06,-420.14 1803,-409 1812.56,-387.47 1818.41,-373.81 1803,-356 1761.63,-308.19 1588.23,-296.76 1476.39,-294.47"/>
<polygon fill="midnightblue" stroke="midnightblue" points="1778.62,-436.15 1773.5,-445.43 1783.29,-441.37 1778.62,-436.15"/>
</g>
<!-- Node6&#45;&gt;Node7 -->
<g id="edge7" class="edge">
<title>Node6&#45;&gt;Node7</title>
<path fill="none" stroke="midnightblue" d="M1294.25,-264.25C1261.34,-253.28 1223.99,-240.83 1192.16,-230.22"/>
<polygon fill="midnightblue" stroke="midnightblue" points="1293.26,-267.61 1303.86,-267.45 1295.48,-260.97 1293.26,-267.61"/>
</g>
<!-- Node15 -->
<g id="node15" class="node">
<title>Node15</title>
<g id="a_node15"><a xlink:href="../../d3/d58/cocos-ext_8h.html" target="_top" xlink:title=" ">
<polygon fill="none" stroke="black" points="1848,-95 1848,-136 1988,-136 1988,-95 1848,-95"/>
<text text-anchor="start" x="1856" y="-124" font-family="Helvetica,sans-Serif" font-size="10.00">/home/runner/work/cocos</text>
<text text-anchor="start" x="1856" y="-113" font-family="Helvetica,sans-Serif" font-size="10.00">&#45;headers/cocos&#45;headers</text>
<text text-anchor="middle" x="1918" y="-102" font-family="Helvetica,sans-Serif" font-size="10.00">/extensions/cocos&#45;ext.h</text>
</a>
</g>
</g>
<!-- Node6&#45;&gt;Node15 -->
<g id="edge16" class="edge">
<title>Node6&#45;&gt;Node15</title>
<path fill="none" stroke="midnightblue" d="M1461.26,-264.15C1530.01,-240.62 1630.69,-206.51 1719,-178 1763.74,-163.56 1814.35,-147.92 1853.34,-136.03"/>
<polygon fill="midnightblue" stroke="midnightblue" points="1460.11,-260.85 1451.78,-267.4 1462.38,-267.47 1460.11,-260.85"/>
</g>
<!-- Node7&#45;&gt;Node8 -->
<g id="edge8" class="edge">
<title>Node7&#45;&gt;Node8</title>
<path fill="none" stroke="midnightblue" d="M1033.59,-191.46C913.72,-174.36 696.12,-143.33 582.15,-127.08"/>
<polygon fill="midnightblue" stroke="midnightblue" points="1033.42,-194.97 1043.81,-192.92 1034.41,-188.04 1033.42,-194.97"/>
</g>
<!-- Node7&#45;&gt;Node15 -->
<g id="edge15" class="edge">
<title>Node7&#45;&gt;Node15</title>
<path fill="none" stroke="midnightblue" d="M1202.37,-194.33C1360.98,-177.08 1700.88,-140.11 1847.87,-124.13"/>
<polygon fill="midnightblue" stroke="midnightblue" points="1201.75,-190.87 1192.19,-195.43 1202.51,-197.83 1201.75,-190.87"/>
</g>
<!-- Node8&#45;&gt;Node9 -->
<g id="edge9" class="edge">
<title>Node8&#45;&gt;Node9</title>
<path fill="none" stroke="midnightblue" d="M423.97,-101.02C336.78,-86.8 206.38,-64.86 157,-53 154.07,-52.3 151.09,-51.55 148.09,-50.76"/>
<polygon fill="midnightblue" stroke="midnightblue" points="423.42,-104.47 433.86,-102.62 424.55,-97.56 423.42,-104.47"/>
</g>
<!-- Node8&#45;&gt;Node10 -->
<g id="edge10" class="edge">
<title>Node8&#45;&gt;Node10</title>
<path fill="none" stroke="midnightblue" d="M423.96,-87.22C388.87,-75.83 348.44,-62.7 314.44,-51.67"/>
<polygon fill="midnightblue" stroke="midnightblue" points="423.11,-90.62 433.7,-90.38 425.27,-83.96 423.11,-90.62"/>
</g>
<!-- Node8&#45;&gt;Node11 -->
<g id="edge11" class="edge">
<title>Node8&#45;&gt;Node11</title>
<path fill="none" stroke="midnightblue" d="M470.66,-82.65C459.05,-72.75 446.42,-61.98 435.44,-52.61"/>
<polygon fill="midnightblue" stroke="midnightblue" points="468.62,-85.51 478.5,-89.34 473.16,-80.18 468.62,-85.51"/>
</g>
<!-- Node8&#45;&gt;Node12 -->
<g id="edge12" class="edge">
<title>Node8&#45;&gt;Node12</title>
<path fill="none" stroke="midnightblue" d="M583.72,-85.86C612.19,-75.09 644.32,-62.94 671.85,-52.52"/>
<polygon fill="midnightblue" stroke="midnightblue" points="582.33,-82.64 574.22,-89.45 584.81,-89.19 582.33,-82.64"/>
</g>
<!-- Node8&#45;&gt;Node13 -->
<g id="edge13" class="edge">
<title>Node8&#45;&gt;Node13</title>
<path fill="none" stroke="midnightblue" d="M592.32,-97.32C606.24,-94.52 620.52,-91.66 634,-89 717.03,-72.61 738.87,-73.46 821,-53 823.93,-52.27 826.9,-51.5 829.9,-50.7"/>
<polygon fill="midnightblue" stroke="midnightblue" points="591.37,-93.94 582.26,-99.35 592.76,-100.8 591.37,-93.94"/>
</g>
<!-- Node14 -->
<g id="node14" class="node">
<title>Node14</title>
<g id="a_node14"><a xlink:href="../../d4/d91/_c_c_edit_box_impl_wp8_8h.html" target="_top" xlink:title=" ">
<polygon fill="none" stroke="black" points="498,-0.5 498,-52.5 646,-52.5 646,-0.5 498,-0.5"/>
<text text-anchor="start" x="506" y="-40.5" font-family="Helvetica,sans-Serif" font-size="10.00">/home/runner/work/cocos</text>
<text text-anchor="start" x="506" y="-29.5" font-family="Helvetica,sans-Serif" font-size="10.00">&#45;headers/cocos&#45;headers</text>
<text text-anchor="start" x="506" y="-18.5" font-family="Helvetica,sans-Serif" font-size="10.00">/extensions/GUI/CCEditBox</text>
<text text-anchor="middle" x="572" y="-7.5" font-family="Helvetica,sans-Serif" font-size="10.00">/CCEditBoxImplWp8.h</text>
</a>
</g>
</g>
<!-- Node8&#45;&gt;Node14 -->
<g id="edge14" class="edge">
<title>Node8&#45;&gt;Node14</title>
<path fill="none" stroke="midnightblue" d="M532.49,-81.22C539.47,-71.72 546.97,-61.53 553.53,-52.61"/>
<polygon fill="midnightblue" stroke="midnightblue" points="529.62,-79.21 526.51,-89.34 535.26,-83.35 529.62,-79.21"/>
</g>
<!-- Node16&#45;&gt;Node6 -->
<g id="edge18" class="edge">
<title>Node16&#45;&gt;Node6</title>
<path fill="none" stroke="midnightblue" d="M1162.37,-353.77C1202.54,-342.78 1248.4,-330.23 1287.54,-319.52"/>
<polygon fill="midnightblue" stroke="midnightblue" points="1161.27,-350.44 1152.55,-356.45 1163.12,-357.19 1161.27,-350.44"/>
</g>
<!-- Node17&#45;&gt;Node16 -->
<g id="edge21" class="edge">
<title>Node17&#45;&gt;Node16</title>
<path fill="none" stroke="midnightblue" d="M978.6,-439.5C993.51,-429.37 1009.87,-418.25 1024.06,-408.61"/>
<polygon fill="midnightblue" stroke="midnightblue" points="976.33,-436.82 970.02,-445.34 980.26,-442.61 976.33,-436.82"/>
</g>
<!-- Node18&#45;&gt;Node6 -->
<g id="edge23" class="edge">
<title>Node18&#45;&gt;Node6</title>
<path fill="none" stroke="midnightblue" d="M1311.46,-349.93C1323.62,-339.96 1336.88,-329.07 1348.41,-319.61"/>
<polygon fill="midnightblue" stroke="midnightblue" points="1309.17,-347.29 1303.66,-356.34 1313.61,-352.7 1309.17,-347.29"/>
</g>
<!-- Node19&#45;&gt;Node16 -->
<g id="edge25" class="edge">
<title>Node19&#45;&gt;Node16</title>
<path fill="none" stroke="midnightblue" d="M1118.39,-438.36C1108.11,-428.54 1096.97,-417.89 1087.26,-408.61"/>
<polygon fill="midnightblue" stroke="midnightblue" points="1116.03,-440.96 1125.68,-445.34 1120.87,-435.9 1116.03,-440.96"/>
</g>
<!-- Node20&#45;&gt;Node6 -->
<g id="edge27" class="edge">
<title>Node20&#45;&gt;Node6</title>
<path fill="none" stroke="midnightblue" d="M1446.54,-349.93C1434.38,-339.96 1421.12,-329.07 1409.59,-319.61"/>
<polygon fill="midnightblue" stroke="midnightblue" points="1444.39,-352.7 1454.34,-356.34 1448.83,-347.29 1444.39,-352.7"/>
</g>
<!-- Node21&#45;&gt;Node6 -->
<g id="edge29" class="edge">
<title>Node21&#45;&gt;Node6</title>
<path fill="none" stroke="midnightblue" d="M1595.63,-353.77C1555.46,-342.78 1509.6,-330.23 1470.46,-319.52"/>
<polygon fill="midnightblue" stroke="midnightblue" points="1594.88,-357.19 1605.45,-356.45 1596.73,-350.44 1594.88,-357.19"/>
</g>
<!-- Node22&#45;&gt;Node6 -->
<g id="edge31" class="edge">
<title>Node22&#45;&gt;Node6</title>
<path fill="none" stroke="midnightblue" d="M918.12,-356.72C919.42,-356.47 920.71,-356.23 922,-356 1045.46,-333.56 1189.07,-315.54 1281.86,-304.95"/>
<polygon fill="midnightblue" stroke="midnightblue" points="917.21,-353.33 908.05,-358.66 918.54,-360.2 917.21,-353.33"/>
</g>
<!-- Node23&#45;&gt;Node16 -->
<g id="edge33" class="edge">
<title>Node23&#45;&gt;Node16</title>
<path fill="none" stroke="midnightblue" d="M1271.93,-442.7C1232.83,-431.72 1188.24,-419.21 1150.16,-408.52"/>
<polygon fill="midnightblue" stroke="midnightblue" points="1271.18,-446.12 1281.75,-445.45 1273.07,-439.38 1271.18,-446.12"/>
</g>
<!-- Node24&#45;&gt;Node5 -->
<g id="edge35" class="edge">
<title>Node24&#45;&gt;Node5</title>
<path fill="none" stroke="midnightblue" d="M1735,-524.19C1735,-515.28 1735,-505.9 1735,-497.61"/>
<polygon fill="midnightblue" stroke="midnightblue" points="1731.5,-524.34 1735,-534.34 1738.5,-524.34 1731.5,-524.34"/>
</g>
<!-- Node24&#45;&gt;Node6 -->
<g id="edge36" class="edge">
<title>Node24&#45;&gt;Node6</title>
<path fill="none" stroke="midnightblue" d="M1810.72,-529.09C1822.84,-520.83 1833.75,-510.58 1841,-498 1872.81,-442.77 1867.89,-399.16 1821,-356 1772.19,-311.07 1590.89,-298.73 1476.2,-295.49"/>
<polygon fill="midnightblue" stroke="midnightblue" points="1808.75,-526.19 1802.17,-534.49 1812.5,-532.11 1808.75,-526.19"/>
</g>
<!-- Node25&#45;&gt;Node15 -->
<g id="edge47" class="edge">
<title>Node25&#45;&gt;Node15</title>
<path fill="none" stroke="midnightblue" d="M1880.18,-259.79C1887.4,-251.06 1894.28,-241.2 1899,-231 1913.38,-199.91 1917.04,-159.62 1917.88,-136.06"/>
<polygon fill="midnightblue" stroke="midnightblue" points="1877.42,-257.62 1873.5,-267.46 1882.71,-262.21 1877.42,-257.62"/>
</g>
<!-- Node26 -->
<g id="node26" class="node">
<title>Node26</title>
<g id="a_node26"><a xlink:href="../../d8/dbb/_c_c_table_view_8h.html" target="_top" xlink:title=" ">
<polygon fill="none" stroke="black" points="1728.5,-178.5 1728.5,-230.5 1889.5,-230.5 1889.5,-178.5 1728.5,-178.5"/>
<text text-anchor="start" x="1736.5" y="-218.5" font-family="Helvetica,sans-Serif" font-size="10.00">/home/runner/work/cocos</text>
<text text-anchor="start" x="1736.5" y="-207.5" font-family="Helvetica,sans-Serif" font-size="10.00">&#45;headers/cocos&#45;headers</text>
<text text-anchor="start" x="1736.5" y="-196.5" font-family="Helvetica,sans-Serif" font-size="10.00">/extensions/GUI/CCScrollView</text>
<text text-anchor="middle" x="1809" y="-185.5" font-family="Helvetica,sans-Serif" font-size="10.00">/CCTableView.h</text>
</a>
</g>
</g>
<!-- Node25&#45;&gt;Node26 -->
<g id="edge45" class="edge">
<title>Node25&#45;&gt;Node26</title>
<path fill="none" stroke="midnightblue" d="M1831.96,-258.06C1827.95,-248.9 1823.71,-239.17 1819.97,-230.61"/>
<polygon fill="midnightblue" stroke="midnightblue" points="1828.8,-259.57 1836.01,-267.34 1835.21,-256.77 1828.8,-259.57"/>
</g>
<!-- Node26&#45;&gt;Node15 -->
<g id="edge46" class="edge">
<title>Node26&#45;&gt;Node15</title>
<path fill="none" stroke="midnightblue" d="M1848.66,-171.85C1863.65,-159.88 1880.26,-146.62 1893.47,-136.08"/>
<polygon fill="midnightblue" stroke="midnightblue" points="1846.16,-169.36 1840.53,-178.34 1850.53,-174.83 1846.16,-169.36"/>
</g>
<!-- Node27&#45;&gt;Node15 -->
<g id="edge49" class="edge">
<title>Node27&#45;&gt;Node15</title>
<path fill="none" stroke="midnightblue" d="M2060.11,-352.58C2042.86,-312.02 2008.71,-236.66 1970,-178 1960.14,-163.06 1947.14,-147.69 1936.61,-136.05"/>
<polygon fill="midnightblue" stroke="midnightblue" points="2056.91,-354.01 2064.02,-361.87 2063.36,-351.3 2056.91,-354.01"/>
</g>
<!-- Node28&#45;&gt;Node15 -->
<g id="edge51" class="edge">
<title>Node28&#45;&gt;Node15</title>
<path fill="none" stroke="midnightblue" d="M2120.57,-532.58C2129.89,-522.4 2139.76,-510.29 2147,-498 2174.43,-451.42 2188,-437.55 2188,-383.5 2188,-383.5 2188,-383.5 2188,-292.5 2188,-197.1 2068.23,-150.7 1988.23,-130.36"/>
<polygon fill="midnightblue" stroke="midnightblue" points="2117.93,-530.29 2113.6,-539.96 2123.01,-535.1 2117.93,-530.29"/>
</g>
<!-- Node28&#45;&gt;Node27 -->
<g id="edge52" class="edge">
<title>Node28&#45;&gt;Node27</title>
<path fill="none" stroke="midnightblue" d="M2114.83,-531.49C2121.35,-521.49 2127.66,-509.77 2131,-498 2137.44,-475.34 2139.79,-466.85 2131,-445 2124.38,-428.53 2111,-413.98 2098.65,-403.18"/>
<polygon fill="midnightblue" stroke="midnightblue" points="2111.89,-529.58 2109.1,-539.8 2117.66,-533.55 2111.89,-529.58"/>
</g>
<!-- Node28&#45;&gt;Node29 -->
<g id="edge53" class="edge">
<title>Node28&#45;&gt;Node29</title>
<path fill="none" stroke="midnightblue" d="M2070.92,-531.67C2060.72,-518.8 2048.85,-503.83 2039.6,-492.16"/>
<polygon fill="midnightblue" stroke="midnightblue" points="2068.39,-534.1 2077.34,-539.76 2073.87,-529.75 2068.39,-534.1"/>
</g>
<!-- Node29&#45;&gt;Node15 -->
<g id="edge54" class="edge">
<title>Node29&#45;&gt;Node15</title>
<path fill="none" stroke="midnightblue" d="M1997.62,-443.21C1989.21,-433.16 1980.65,-421.22 1975,-409 1952.17,-359.56 1928.35,-193.66 1920.6,-136.25"/>
<polygon fill="midnightblue" stroke="midnightblue" points="1995.05,-445.6 2004.26,-450.84 2000.33,-441 1995.05,-445.6"/>
</g>
<!-- Node29&#45;&gt;Node27 -->
<g id="edge55" class="edge">
<title>Node29&#45;&gt;Node27</title>
<path fill="none" stroke="midnightblue" d="M2039.76,-441.93C2046.77,-429.23 2054.84,-414.61 2061.15,-403.16"/>
<polygon fill="midnightblue" stroke="midnightblue" points="2036.66,-440.31 2034.89,-450.76 2042.79,-443.69 2036.66,-440.31"/>
</g>
</g>
</svg>
