<?xml version="1.0" encoding="UTF-8" standalone="no"?>
<!DOCTYPE svg PUBLIC "-//W3C//DTD SVG 1.1//EN"
 "http://www.w3.org/Graphics/SVG/1.1/DTD/svg11.dtd">
<!-- Generated by graphviz version 2.43.0 (0)
 -->
<!-- Title: /home/runner/work/cocos&#45;headers/cocos&#45;headers/extensions/GUI/CCControlExtension/CCInvocation.h Pages: 1 -->
<svg width="1382pt" height="684pt"
 viewBox="0.00 0.00 1382.00 684.00" xmlns="http://www.w3.org/2000/svg" xmlns:xlink="http://www.w3.org/1999/xlink">
<g id="graph0" class="graph" transform="scale(1 1) rotate(0) translate(4 680)">
<title>/home/runner/work/cocos&#45;headers/cocos&#45;headers/extensions/GUI/CCControlExtension/CCInvocation.h</title>
<!-- Node1 -->
<g id="node1" class="node">
<title>Node1</title>
<g id="a_node1"><a xlink:title=" ">
<polygon fill="#bfbfbf" stroke="black" points="742,-623.5 742,-675.5 936,-675.5 936,-623.5 742,-623.5"/>
<text text-anchor="start" x="750" y="-663.5" font-family="Helvetica,sans-Serif" font-size="10.00">/home/runner/work/cocos</text>
<text text-anchor="start" x="750" y="-652.5" font-family="Helvetica,sans-Serif" font-size="10.00">&#45;headers/cocos&#45;headers</text>
<text text-anchor="start" x="750" y="-641.5" font-family="Helvetica,sans-Serif" font-size="10.00">/extensions/GUI/CCControlExtension</text>
<text text-anchor="middle" x="839" y="-630.5" font-family="Helvetica,sans-Serif" font-size="10.00">/CCInvocation.h</text>
</a>
</g>
</g>
<!-- Node2 -->
<g id="node2" class="node">
<title>Node2</title>
<g id="a_node2"><a xlink:href="../../de/d8b/_c_c_control_8h.html" target="_top" xlink:title=" ">
<polygon fill="none" stroke="black" points="405,-534.5 405,-586.5 599,-586.5 599,-534.5 405,-534.5"/>
<text text-anchor="start" x="413" y="-574.5" font-family="Helvetica,sans-Serif" font-size="10.00">/home/runner/work/cocos</text>
<text text-anchor="start" x="413" y="-563.5" font-family="Helvetica,sans-Serif" font-size="10.00">&#45;headers/cocos&#45;headers</text>
<text text-anchor="start" x="413" y="-552.5" font-family="Helvetica,sans-Serif" font-size="10.00">/extensions/GUI/CCControlExtension</text>
<text text-anchor="middle" x="502" y="-541.5" font-family="Helvetica,sans-Serif" font-size="10.00">/CCControl.h</text>
</a>
</g>
</g>
<!-- Node1&#45;&gt;Node2 -->
<g id="edge1" class="edge">
<title>Node1&#45;&gt;Node2</title>
<path fill="none" stroke="midnightblue" d="M732.12,-620.91C689.41,-609.88 640.58,-597.28 598.92,-586.52"/>
<polygon fill="midnightblue" stroke="midnightblue" points="731.42,-624.34 741.98,-623.45 733.17,-617.56 731.42,-624.34"/>
</g>
<!-- Node3 -->
<g id="node3" class="node">
<title>Node3</title>
<g id="a_node3"><a xlink:href="../../d0/d7e/_c_c_control_button_8h.html" target="_top" xlink:title=" ">
<polygon fill="none" stroke="black" points="85,-445.5 85,-497.5 279,-497.5 279,-445.5 85,-445.5"/>
<text text-anchor="start" x="93" y="-485.5" font-family="Helvetica,sans-Serif" font-size="10.00">/home/runner/work/cocos</text>
<text text-anchor="start" x="93" y="-474.5" font-family="Helvetica,sans-Serif" font-size="10.00">&#45;headers/cocos&#45;headers</text>
<text text-anchor="start" x="93" y="-463.5" font-family="Helvetica,sans-Serif" font-size="10.00">/extensions/GUI/CCControlExtension</text>
<text text-anchor="middle" x="182" y="-452.5" font-family="Helvetica,sans-Serif" font-size="10.00">/CCControlButton.h</text>
</a>
</g>
</g>
<!-- Node1&#45;&gt;Node3 -->
<g id="edge31" class="edge">
<title>Node1&#45;&gt;Node3</title>
<path fill="none" stroke="midnightblue" d="M731.67,-644.18C640.45,-638.03 507.02,-623.13 396,-587 330.09,-565.55 260.52,-524.39 219.21,-497.71"/>
<polygon fill="midnightblue" stroke="midnightblue" points="731.54,-647.68 741.75,-644.84 732,-640.7 731.54,-647.68"/>
</g>
<!-- Node15 -->
<g id="node15" class="node">
<title>Node15</title>
<g id="a_node15"><a xlink:href="../../dd/d5a/_c_c_control_hue_picker_8h.html" target="_top" xlink:title=" ">
<polygon fill="none" stroke="black" points="742,-445.5 742,-497.5 936,-497.5 936,-445.5 742,-445.5"/>
<text text-anchor="start" x="750" y="-485.5" font-family="Helvetica,sans-Serif" font-size="10.00">/home/runner/work/cocos</text>
<text text-anchor="start" x="750" y="-474.5" font-family="Helvetica,sans-Serif" font-size="10.00">&#45;headers/cocos&#45;headers</text>
<text text-anchor="start" x="750" y="-463.5" font-family="Helvetica,sans-Serif" font-size="10.00">/extensions/GUI/CCControlExtension</text>
<text text-anchor="middle" x="839" y="-452.5" font-family="Helvetica,sans-Serif" font-size="10.00">/CCControlHuePicker.h</text>
</a>
</g>
</g>
<!-- Node1&#45;&gt;Node15 -->
<g id="edge32" class="edge">
<title>Node1&#45;&gt;Node15</title>
<path fill="none" stroke="midnightblue" d="M839,-613.25C839,-579.04 839,-527.97 839,-497.67"/>
<polygon fill="midnightblue" stroke="midnightblue" points="835.5,-613.28 839,-623.28 842.5,-613.28 835.5,-613.28"/>
</g>
<!-- Node17 -->
<g id="node17" class="node">
<title>Node17</title>
<g id="a_node17"><a xlink:href="../../de/d08/_c_c_control_saturation_brightness_picker_8h.html" target="_top" xlink:title=" ">
<polygon fill="none" stroke="black" points="954,-445.5 954,-497.5 1162,-497.5 1162,-445.5 954,-445.5"/>
<text text-anchor="start" x="962" y="-485.5" font-family="Helvetica,sans-Serif" font-size="10.00">/home/runner/work/cocos</text>
<text text-anchor="start" x="962" y="-474.5" font-family="Helvetica,sans-Serif" font-size="10.00">&#45;headers/cocos&#45;headers</text>
<text text-anchor="start" x="962" y="-463.5" font-family="Helvetica,sans-Serif" font-size="10.00">/extensions/GUI/CCControlExtension</text>
<text text-anchor="middle" x="1058" y="-452.5" font-family="Helvetica,sans-Serif" font-size="10.00">/CCControlSaturationBrightnessPicker.h</text>
</a>
</g>
</g>
<!-- Node1&#45;&gt;Node17 -->
<g id="edge33" class="edge">
<title>Node1&#45;&gt;Node17</title>
<path fill="none" stroke="midnightblue" d="M878.27,-616.94C920.74,-582.81 987.6,-529.08 1026.68,-497.67"/>
<polygon fill="midnightblue" stroke="midnightblue" points="875.98,-614.29 870.38,-623.28 880.36,-619.75 875.98,-614.29"/>
</g>
<!-- Node18 -->
<g id="node18" class="node">
<title>Node18</title>
<g id="a_node18"><a xlink:href="../../d6/d7e/_c_c_control_slider_8h.html" target="_top" xlink:title=" ">
<polygon fill="none" stroke="black" points="1180,-445.5 1180,-497.5 1374,-497.5 1374,-445.5 1180,-445.5"/>
<text text-anchor="start" x="1188" y="-485.5" font-family="Helvetica,sans-Serif" font-size="10.00">/home/runner/work/cocos</text>
<text text-anchor="start" x="1188" y="-474.5" font-family="Helvetica,sans-Serif" font-size="10.00">&#45;headers/cocos&#45;headers</text>
<text text-anchor="start" x="1188" y="-463.5" font-family="Helvetica,sans-Serif" font-size="10.00">/extensions/GUI/CCControlExtension</text>
<text text-anchor="middle" x="1277" y="-452.5" font-family="Helvetica,sans-Serif" font-size="10.00">/CCControlSlider.h</text>
</a>
</g>
</g>
<!-- Node1&#45;&gt;Node18 -->
<g id="edge34" class="edge">
<title>Node1&#45;&gt;Node18</title>
<path fill="none" stroke="midnightblue" d="M910.81,-619.64C995.34,-585.68 1134.34,-529.82 1214.57,-497.59"/>
<polygon fill="midnightblue" stroke="midnightblue" points="909.26,-616.49 901.29,-623.47 911.87,-622.99 909.26,-616.49"/>
</g>
<!-- Node2&#45;&gt;Node3 -->
<g id="edge2" class="edge">
<title>Node2&#45;&gt;Node3</title>
<path fill="none" stroke="midnightblue" d="M400,-531.77C359.57,-520.78 313.42,-508.23 274.03,-497.52"/>
<polygon fill="midnightblue" stroke="midnightblue" points="399.3,-535.21 409.87,-534.45 401.14,-528.45 399.3,-535.21"/>
</g>
<!-- Node4 -->
<g id="node4" class="node">
<title>Node4</title>
<g id="a_node4"><a xlink:href="../../d6/d86/_c_c_control_extensions_8h.html" target="_top" xlink:title=" ">
<polygon fill="none" stroke="black" points="503,-267.5 503,-319.5 697,-319.5 697,-267.5 503,-267.5"/>
<text text-anchor="start" x="511" y="-307.5" font-family="Helvetica,sans-Serif" font-size="10.00">/home/runner/work/cocos</text>
<text text-anchor="start" x="511" y="-296.5" font-family="Helvetica,sans-Serif" font-size="10.00">&#45;headers/cocos&#45;headers</text>
<text text-anchor="start" x="511" y="-285.5" font-family="Helvetica,sans-Serif" font-size="10.00">/extensions/GUI/CCControlExtension</text>
<text text-anchor="middle" x="600" y="-274.5" font-family="Helvetica,sans-Serif" font-size="10.00">/CCControlExtensions.h</text>
</a>
</g>
</g>
<!-- Node2&#45;&gt;Node4 -->
<g id="edge16" class="edge">
<title>Node2&#45;&gt;Node4</title>
<path fill="none" stroke="midnightblue" d="M427.81,-530.32C343.67,-493.01 225.11,-424.95 282,-356 309.65,-322.49 419.75,-307.03 502.71,-300.04"/>
<polygon fill="midnightblue" stroke="midnightblue" points="426.55,-533.59 437.11,-534.38 429.35,-527.17 426.55,-533.59"/>
</g>
<!-- Node14 -->
<g id="node14" class="node">
<title>Node14</title>
<g id="a_node14"><a xlink:href="../../d3/db7/_c_c_control_colour_picker_8h.html" target="_top" xlink:title=" ">
<polygon fill="none" stroke="black" points="927,-356.5 927,-408.5 1121,-408.5 1121,-356.5 927,-356.5"/>
<text text-anchor="start" x="935" y="-396.5" font-family="Helvetica,sans-Serif" font-size="10.00">/home/runner/work/cocos</text>
<text text-anchor="start" x="935" y="-385.5" font-family="Helvetica,sans-Serif" font-size="10.00">&#45;headers/cocos&#45;headers</text>
<text text-anchor="start" x="935" y="-374.5" font-family="Helvetica,sans-Serif" font-size="10.00">/extensions/GUI/CCControlExtension</text>
<text text-anchor="middle" x="1024" y="-363.5" font-family="Helvetica,sans-Serif" font-size="10.00">/CCControlColourPicker.h</text>
</a>
</g>
</g>
<!-- Node2&#45;&gt;Node14 -->
<g id="edge14" class="edge">
<title>Node2&#45;&gt;Node14</title>
<path fill="none" stroke="midnightblue" d="M497.52,-524.34C496.38,-498.57 499.72,-464.76 521,-445 585.91,-384.72 830.59,-423.4 918,-409 920.89,-408.52 923.83,-408.01 926.78,-407.47"/>
<polygon fill="midnightblue" stroke="midnightblue" points="494.04,-524.74 498.22,-534.48 501.02,-524.26 494.04,-524.74"/>
</g>
<!-- Node2&#45;&gt;Node15 -->
<g id="edge17" class="edge">
<title>Node2&#45;&gt;Node15</title>
<path fill="none" stroke="midnightblue" d="M608.88,-531.91C651.59,-520.88 700.42,-508.28 742.08,-497.52"/>
<polygon fill="midnightblue" stroke="midnightblue" points="607.83,-528.56 599.02,-534.45 609.58,-535.34 607.83,-528.56"/>
</g>
<!-- Node16 -->
<g id="node16" class="node">
<title>Node16</title>
<g id="a_node16"><a xlink:href="../../d2/d29/_c_c_control_potentiometer_8h.html" target="_top" xlink:title=" ">
<polygon fill="none" stroke="black" points="715,-356.5 715,-408.5 909,-408.5 909,-356.5 715,-356.5"/>
<text text-anchor="start" x="723" y="-396.5" font-family="Helvetica,sans-Serif" font-size="10.00">/home/runner/work/cocos</text>
<text text-anchor="start" x="723" y="-385.5" font-family="Helvetica,sans-Serif" font-size="10.00">&#45;headers/cocos&#45;headers</text>
<text text-anchor="start" x="723" y="-374.5" font-family="Helvetica,sans-Serif" font-size="10.00">/extensions/GUI/CCControlExtension</text>
<text text-anchor="middle" x="812" y="-363.5" font-family="Helvetica,sans-Serif" font-size="10.00">/CCControlPotentiometer.h</text>
</a>
</g>
</g>
<!-- Node2&#45;&gt;Node16 -->
<g id="edge19" class="edge">
<title>Node2&#45;&gt;Node16</title>
<path fill="none" stroke="midnightblue" d="M485.23,-524.58C475.93,-499.6 469.59,-466.71 488,-445 519.77,-407.56 657.88,-418.75 706,-409 708.88,-408.42 711.79,-407.81 714.73,-407.19"/>
<polygon fill="midnightblue" stroke="midnightblue" points="482.06,-526.08 489.03,-534.06 488.55,-523.47 482.06,-526.08"/>
</g>
<!-- Node2&#45;&gt;Node17 -->
<g id="edge21" class="edge">
<title>Node2&#45;&gt;Node17</title>
<path fill="none" stroke="midnightblue" d="M609.1,-547.19C699.07,-536.24 830.87,-518.76 945,-498 947.87,-497.48 950.78,-496.93 953.71,-496.37"/>
<polygon fill="midnightblue" stroke="midnightblue" points="608.67,-543.72 599.16,-548.39 609.51,-550.67 608.67,-543.72"/>
</g>
<!-- Node2&#45;&gt;Node18 -->
<g id="edge23" class="edge">
<title>Node2&#45;&gt;Node18</title>
<path fill="none" stroke="midnightblue" d="M609.39,-554.41C742.05,-547.03 974.31,-530.52 1171,-498 1173.89,-497.52 1176.83,-497.01 1179.78,-496.46"/>
<polygon fill="midnightblue" stroke="midnightblue" points="609.02,-550.93 599.22,-554.97 609.4,-557.92 609.02,-550.93"/>
</g>
<!-- Node19 -->
<g id="node19" class="node">
<title>Node19</title>
<g id="a_node19"><a xlink:href="../../de/dba/_c_c_control_stepper_8h.html" target="_top" xlink:title=" ">
<polygon fill="none" stroke="black" points="291,-356.5 291,-408.5 485,-408.5 485,-356.5 291,-356.5"/>
<text text-anchor="start" x="299" y="-396.5" font-family="Helvetica,sans-Serif" font-size="10.00">/home/runner/work/cocos</text>
<text text-anchor="start" x="299" y="-385.5" font-family="Helvetica,sans-Serif" font-size="10.00">&#45;headers/cocos&#45;headers</text>
<text text-anchor="start" x="299" y="-374.5" font-family="Helvetica,sans-Serif" font-size="10.00">/extensions/GUI/CCControlExtension</text>
<text text-anchor="middle" x="388" y="-363.5" font-family="Helvetica,sans-Serif" font-size="10.00">/CCControlStepper.h</text>
</a>
</g>
</g>
<!-- Node2&#45;&gt;Node19 -->
<g id="edge25" class="edge">
<title>Node2&#45;&gt;Node19</title>
<path fill="none" stroke="midnightblue" d="M462.85,-527.39C453.59,-518.53 444.29,-508.46 437,-498 417.47,-469.97 403.38,-432.93 395.46,-408.67"/>
<polygon fill="midnightblue" stroke="midnightblue" points="460.52,-530 470.24,-534.22 465.27,-524.86 460.52,-530"/>
</g>
<!-- Node20 -->
<g id="node20" class="node">
<title>Node20</title>
<g id="a_node20"><a xlink:href="../../de/dc7/_c_c_control_switch_8h.html" target="_top" xlink:title=" ">
<polygon fill="none" stroke="black" points="503,-356.5 503,-408.5 697,-408.5 697,-356.5 503,-356.5"/>
<text text-anchor="start" x="511" y="-396.5" font-family="Helvetica,sans-Serif" font-size="10.00">/home/runner/work/cocos</text>
<text text-anchor="start" x="511" y="-385.5" font-family="Helvetica,sans-Serif" font-size="10.00">&#45;headers/cocos&#45;headers</text>
<text text-anchor="start" x="511" y="-374.5" font-family="Helvetica,sans-Serif" font-size="10.00">/extensions/GUI/CCControlExtension</text>
<text text-anchor="middle" x="600" y="-363.5" font-family="Helvetica,sans-Serif" font-size="10.00">/CCControlSwitch.h</text>
</a>
</g>
</g>
<!-- Node2&#45;&gt;Node20 -->
<g id="edge27" class="edge">
<title>Node2&#45;&gt;Node20</title>
<path fill="none" stroke="midnightblue" d="M467.21,-526.78C460.18,-518.17 453.79,-508.35 450,-498 441.9,-475.88 436.88,-464.56 450,-445 458.51,-432.32 486.75,-419.34 516.47,-408.59"/>
<polygon fill="midnightblue" stroke="midnightblue" points="464.58,-529.1 473.79,-534.35 469.86,-524.51 464.58,-529.1"/>
</g>
<!-- Node21 -->
<g id="node21" class="node">
<title>Node21</title>
<g id="a_node21"><a xlink:href="../../d8/dec/_color_picker_delegate_8h.html" target="_top" xlink:title=" ">
<polygon fill="none" stroke="black" points="530,-445.5 530,-497.5 724,-497.5 724,-445.5 530,-445.5"/>
<text text-anchor="start" x="538" y="-485.5" font-family="Helvetica,sans-Serif" font-size="10.00">/home/runner/work/cocos</text>
<text text-anchor="start" x="538" y="-474.5" font-family="Helvetica,sans-Serif" font-size="10.00">&#45;headers/cocos&#45;headers</text>
<text text-anchor="start" x="538" y="-463.5" font-family="Helvetica,sans-Serif" font-size="10.00">/extensions/GUI/CCControlExtension</text>
<text text-anchor="middle" x="627" y="-452.5" font-family="Helvetica,sans-Serif" font-size="10.00">/ColorPickerDelegate.h</text>
</a>
</g>
</g>
<!-- Node2&#45;&gt;Node21 -->
<g id="edge29" class="edge">
<title>Node2&#45;&gt;Node21</title>
<path fill="none" stroke="midnightblue" d="M546.54,-528.5C561.09,-518.37 577.07,-507.25 590.93,-497.61"/>
<polygon fill="midnightblue" stroke="midnightblue" points="544.36,-525.75 538.16,-534.34 548.36,-531.5 544.36,-525.75"/>
</g>
<!-- Node3&#45;&gt;Node4 -->
<g id="edge3" class="edge">
<title>Node3&#45;&gt;Node4</title>
<path fill="none" stroke="midnightblue" d="M193.31,-435.57C203.62,-409.46 221.5,-375.12 249,-356 289.13,-328.11 413.43,-311.22 502.71,-302.37"/>
<polygon fill="midnightblue" stroke="midnightblue" points="189.96,-434.53 189.72,-445.12 196.51,-436.99 189.96,-434.53"/>
</g>
<!-- Node5 -->
<g id="node5" class="node">
<title>Node5</title>
<g id="a_node5"><a xlink:href="../../dc/d4a/_c_c_edit_box_8h.html" target="_top" xlink:title=" ">
<polygon fill="none" stroke="black" points="475,-178.5 475,-230.5 623,-230.5 623,-178.5 475,-178.5"/>
<text text-anchor="start" x="483" y="-218.5" font-family="Helvetica,sans-Serif" font-size="10.00">/home/runner/work/cocos</text>
<text text-anchor="start" x="483" y="-207.5" font-family="Helvetica,sans-Serif" font-size="10.00">&#45;headers/cocos&#45;headers</text>
<text text-anchor="start" x="483" y="-196.5" font-family="Helvetica,sans-Serif" font-size="10.00">/extensions/GUI/CCEditBox</text>
<text text-anchor="middle" x="549" y="-185.5" font-family="Helvetica,sans-Serif" font-size="10.00">/CCEditBox.h</text>
</a>
</g>
</g>
<!-- Node4&#45;&gt;Node5 -->
<g id="edge4" class="edge">
<title>Node4&#45;&gt;Node5</title>
<path fill="none" stroke="midnightblue" d="M580.15,-258.64C574.68,-249.31 568.84,-239.35 563.72,-230.61"/>
<polygon fill="midnightblue" stroke="midnightblue" points="577.17,-260.48 585.25,-267.34 583.21,-256.94 577.17,-260.48"/>
</g>
<!-- Node13 -->
<g id="node13" class="node">
<title>Node13</title>
<g id="a_node13"><a xlink:href="../../d3/d58/cocos-ext_8h.html" target="_top" xlink:title=" ">
<polygon fill="none" stroke="black" points="581,-95 581,-136 721,-136 721,-95 581,-95"/>
<text text-anchor="start" x="589" y="-124" font-family="Helvetica,sans-Serif" font-size="10.00">/home/runner/work/cocos</text>
<text text-anchor="start" x="589" y="-113" font-family="Helvetica,sans-Serif" font-size="10.00">&#45;headers/cocos&#45;headers</text>
<text text-anchor="middle" x="651" y="-102" font-family="Helvetica,sans-Serif" font-size="10.00">/extensions/cocos&#45;ext.h</text>
</a>
</g>
</g>
<!-- Node4&#45;&gt;Node13 -->
<g id="edge13" class="edge">
<title>Node4&#45;&gt;Node13</title>
<path fill="none" stroke="midnightblue" d="M620.25,-258.23C624.68,-249.58 628.95,-240.14 632,-231 642.72,-198.89 647.55,-159.61 649.61,-136.4"/>
<polygon fill="midnightblue" stroke="midnightblue" points="617.05,-256.79 615.43,-267.26 623.22,-260.09 617.05,-256.79"/>
</g>
<!-- Node6 -->
<g id="node6" class="node">
<title>Node6</title>
<g id="a_node6"><a xlink:href="../../db/da9/_c_c_edit_box_impl_8h.html" target="_top" xlink:title=" ">
<polygon fill="none" stroke="black" points="415,-89.5 415,-141.5 563,-141.5 563,-89.5 415,-89.5"/>
<text text-anchor="start" x="423" y="-129.5" font-family="Helvetica,sans-Serif" font-size="10.00">/home/runner/work/cocos</text>
<text text-anchor="start" x="423" y="-118.5" font-family="Helvetica,sans-Serif" font-size="10.00">&#45;headers/cocos&#45;headers</text>
<text text-anchor="start" x="423" y="-107.5" font-family="Helvetica,sans-Serif" font-size="10.00">/extensions/GUI/CCEditBox</text>
<text text-anchor="middle" x="489" y="-96.5" font-family="Helvetica,sans-Serif" font-size="10.00">/CCEditBoxImpl.h</text>
</a>
</g>
</g>
<!-- Node5&#45;&gt;Node6 -->
<g id="edge5" class="edge">
<title>Node5&#45;&gt;Node6</title>
<path fill="none" stroke="midnightblue" d="M525.85,-169.93C519.35,-160.51 512.41,-150.44 506.32,-141.61"/>
<polygon fill="midnightblue" stroke="midnightblue" points="523.09,-172.09 531.65,-178.34 528.85,-168.12 523.09,-172.09"/>
</g>
<!-- Node5&#45;&gt;Node13 -->
<g id="edge12" class="edge">
<title>Node5&#45;&gt;Node13</title>
<path fill="none" stroke="midnightblue" d="M586.5,-171.51C600.43,-159.64 615.8,-146.53 628.04,-136.08"/>
<polygon fill="midnightblue" stroke="midnightblue" points="583.84,-169.18 578.5,-178.34 588.38,-174.51 583.84,-169.18"/>
</g>
<!-- Node7 -->
<g id="node7" class="node">
<title>Node7</title>
<g id="a_node7"><a xlink:href="../../d4/dd3/_c_c_edit_box_impl_android_8h.html" target="_top" xlink:title=" ">
<polygon fill="none" stroke="black" points="0,-0.5 0,-52.5 148,-52.5 148,-0.5 0,-0.5"/>
<text text-anchor="start" x="8" y="-40.5" font-family="Helvetica,sans-Serif" font-size="10.00">/home/runner/work/cocos</text>
<text text-anchor="start" x="8" y="-29.5" font-family="Helvetica,sans-Serif" font-size="10.00">&#45;headers/cocos&#45;headers</text>
<text text-anchor="start" x="8" y="-18.5" font-family="Helvetica,sans-Serif" font-size="10.00">/extensions/GUI/CCEditBox</text>
<text text-anchor="middle" x="74" y="-7.5" font-family="Helvetica,sans-Serif" font-size="10.00">/CCEditBoxImplAndroid.h</text>
</a>
</g>
</g>
<!-- Node6&#45;&gt;Node7 -->
<g id="edge6" class="edge">
<title>Node6&#45;&gt;Node7</title>
<path fill="none" stroke="midnightblue" d="M404.82,-101.65C337.36,-90.7 240.53,-73.5 157,-53 154.07,-52.28 151.09,-51.52 148.09,-50.73"/>
<polygon fill="midnightblue" stroke="midnightblue" points="404.54,-105.15 414.97,-103.29 405.65,-98.24 404.54,-105.15"/>
</g>
<!-- Node8 -->
<g id="node8" class="node">
<title>Node8</title>
<g id="a_node8"><a xlink:href="../../dd/dfd/_c_c_edit_box_impl_i_o_s_8h.html" target="_top" xlink:title=" ">
<polygon fill="none" stroke="black" points="166,-0.5 166,-52.5 314,-52.5 314,-0.5 166,-0.5"/>
<text text-anchor="start" x="174" y="-40.5" font-family="Helvetica,sans-Serif" font-size="10.00">/home/runner/work/cocos</text>
<text text-anchor="start" x="174" y="-29.5" font-family="Helvetica,sans-Serif" font-size="10.00">&#45;headers/cocos&#45;headers</text>
<text text-anchor="start" x="174" y="-18.5" font-family="Helvetica,sans-Serif" font-size="10.00">/extensions/GUI/CCEditBox</text>
<text text-anchor="middle" x="240" y="-7.5" font-family="Helvetica,sans-Serif" font-size="10.00">/CCEditBoxImplIOS.h</text>
</a>
</g>
</g>
<!-- Node6&#45;&gt;Node8 -->
<g id="edge7" class="edge">
<title>Node6&#45;&gt;Node8</title>
<path fill="none" stroke="midnightblue" d="M407.83,-86.14C376.8,-75.3 341.68,-63.03 311.61,-52.52"/>
<polygon fill="midnightblue" stroke="midnightblue" points="406.72,-89.46 417.31,-89.45 409.03,-82.85 406.72,-89.46"/>
</g>
<!-- Node9 -->
<g id="node9" class="node">
<title>Node9</title>
<g id="a_node9"><a xlink:href="../../d7/d4d/_c_c_edit_box_impl_mac_8h.html" target="_top" xlink:title=" ">
<polygon fill="none" stroke="black" points="332,-0.5 332,-52.5 480,-52.5 480,-0.5 332,-0.5"/>
<text text-anchor="start" x="340" y="-40.5" font-family="Helvetica,sans-Serif" font-size="10.00">/home/runner/work/cocos</text>
<text text-anchor="start" x="340" y="-29.5" font-family="Helvetica,sans-Serif" font-size="10.00">&#45;headers/cocos&#45;headers</text>
<text text-anchor="start" x="340" y="-18.5" font-family="Helvetica,sans-Serif" font-size="10.00">/extensions/GUI/CCEditBox</text>
<text text-anchor="middle" x="406" y="-7.5" font-family="Helvetica,sans-Serif" font-size="10.00">/CCEditBoxImplMac.h</text>
</a>
</g>
</g>
<!-- Node6&#45;&gt;Node9 -->
<g id="edge8" class="edge">
<title>Node6&#45;&gt;Node9</title>
<path fill="none" stroke="midnightblue" d="M458.07,-82.08C448.77,-72.34 438.72,-61.8 429.95,-52.61"/>
<polygon fill="midnightblue" stroke="midnightblue" points="455.56,-84.52 464.99,-89.34 460.62,-79.68 455.56,-84.52"/>
</g>
<!-- Node10 -->
<g id="node10" class="node">
<title>Node10</title>
<g id="a_node10"><a xlink:href="../../de/dac/_c_c_edit_box_impl_tizen_8h.html" target="_top" xlink:title=" ">
<polygon fill="none" stroke="black" points="498,-0.5 498,-52.5 646,-52.5 646,-0.5 498,-0.5"/>
<text text-anchor="start" x="506" y="-40.5" font-family="Helvetica,sans-Serif" font-size="10.00">/home/runner/work/cocos</text>
<text text-anchor="start" x="506" y="-29.5" font-family="Helvetica,sans-Serif" font-size="10.00">&#45;headers/cocos&#45;headers</text>
<text text-anchor="start" x="506" y="-18.5" font-family="Helvetica,sans-Serif" font-size="10.00">/extensions/GUI/CCEditBox</text>
<text text-anchor="middle" x="572" y="-7.5" font-family="Helvetica,sans-Serif" font-size="10.00">/CCEditBoxImplTizen.h</text>
</a>
</g>
</g>
<!-- Node6&#45;&gt;Node10 -->
<g id="edge9" class="edge">
<title>Node6&#45;&gt;Node10</title>
<path fill="none" stroke="midnightblue" d="M519.93,-82.08C529.23,-72.34 539.28,-61.8 548.05,-52.61"/>
<polygon fill="midnightblue" stroke="midnightblue" points="517.38,-79.68 513.01,-89.34 522.44,-84.52 517.38,-79.68"/>
</g>
<!-- Node11 -->
<g id="node11" class="node">
<title>Node11</title>
<g id="a_node11"><a xlink:href="../../dd/d41/_c_c_edit_box_impl_win_8h.html" target="_top" xlink:title=" ">
<polygon fill="none" stroke="black" points="664,-0.5 664,-52.5 812,-52.5 812,-0.5 664,-0.5"/>
<text text-anchor="start" x="672" y="-40.5" font-family="Helvetica,sans-Serif" font-size="10.00">/home/runner/work/cocos</text>
<text text-anchor="start" x="672" y="-29.5" font-family="Helvetica,sans-Serif" font-size="10.00">&#45;headers/cocos&#45;headers</text>
<text text-anchor="start" x="672" y="-18.5" font-family="Helvetica,sans-Serif" font-size="10.00">/extensions/GUI/CCEditBox</text>
<text text-anchor="middle" x="738" y="-7.5" font-family="Helvetica,sans-Serif" font-size="10.00">/CCEditBoxImplWin.h</text>
</a>
</g>
</g>
<!-- Node6&#45;&gt;Node11 -->
<g id="edge10" class="edge">
<title>Node6&#45;&gt;Node11</title>
<path fill="none" stroke="midnightblue" d="M570.17,-86.14C601.2,-75.3 636.32,-63.03 666.39,-52.52"/>
<polygon fill="midnightblue" stroke="midnightblue" points="568.97,-82.85 560.69,-89.45 571.28,-89.46 568.97,-82.85"/>
</g>
<!-- Node12 -->
<g id="node12" class="node">
<title>Node12</title>
<g id="a_node12"><a xlink:href="../../d4/d91/_c_c_edit_box_impl_wp8_8h.html" target="_top" xlink:title=" ">
<polygon fill="none" stroke="black" points="830,-0.5 830,-52.5 978,-52.5 978,-0.5 830,-0.5"/>
<text text-anchor="start" x="838" y="-40.5" font-family="Helvetica,sans-Serif" font-size="10.00">/home/runner/work/cocos</text>
<text text-anchor="start" x="838" y="-29.5" font-family="Helvetica,sans-Serif" font-size="10.00">&#45;headers/cocos&#45;headers</text>
<text text-anchor="start" x="838" y="-18.5" font-family="Helvetica,sans-Serif" font-size="10.00">/extensions/GUI/CCEditBox</text>
<text text-anchor="middle" x="904" y="-7.5" font-family="Helvetica,sans-Serif" font-size="10.00">/CCEditBoxImplWp8.h</text>
</a>
</g>
</g>
<!-- Node6&#45;&gt;Node12 -->
<g id="edge11" class="edge">
<title>Node6&#45;&gt;Node12</title>
<path fill="none" stroke="midnightblue" d="M572.88,-88.96C682.91,-65.21 714.99,-76.8 821,-53 823.94,-52.34 826.93,-51.63 829.94,-50.87"/>
<polygon fill="midnightblue" stroke="midnightblue" points="572.07,-85.55 563.06,-91.13 573.58,-92.39 572.07,-85.55"/>
</g>
<!-- Node14&#45;&gt;Node4 -->
<g id="edge15" class="edge">
<title>Node14&#45;&gt;Node4</title>
<path fill="none" stroke="midnightblue" d="M916.81,-355.78C837.38,-338.68 757.79,-323.39 697.3,-312.14"/>
<polygon fill="midnightblue" stroke="midnightblue" points="916.48,-359.29 926.99,-357.98 917.96,-352.44 916.48,-359.29"/>
</g>
<!-- Node15&#45;&gt;Node14 -->
<g id="edge18" class="edge">
<title>Node15&#45;&gt;Node14</title>
<path fill="none" stroke="midnightblue" d="M901.61,-441.06C924.02,-430.52 949.05,-418.75 970.61,-408.61"/>
<polygon fill="midnightblue" stroke="midnightblue" points="900.07,-437.91 892.51,-445.34 903.05,-444.25 900.07,-437.91"/>
</g>
<!-- Node16&#45;&gt;Node4 -->
<g id="edge20" class="edge">
<title>Node16&#45;&gt;Node4</title>
<path fill="none" stroke="midnightblue" d="M741.52,-352.58C715.45,-341.88 686.13,-329.85 660.97,-319.52"/>
<polygon fill="midnightblue" stroke="midnightblue" points="740.39,-355.89 750.97,-356.45 743.04,-349.42 740.39,-355.89"/>
</g>
<!-- Node17&#45;&gt;Node14 -->
<g id="edge22" class="edge">
<title>Node17&#45;&gt;Node14</title>
<path fill="none" stroke="midnightblue" d="M1044.43,-435.77C1040.88,-426.69 1037.12,-417.08 1033.81,-408.61"/>
<polygon fill="midnightblue" stroke="midnightblue" points="1041.27,-437.3 1048.17,-445.34 1047.79,-434.75 1041.27,-437.3"/>
</g>
<!-- Node18&#45;&gt;Node4 -->
<g id="edge24" class="edge">
<title>Node18&#45;&gt;Node4</title>
<path fill="none" stroke="midnightblue" d="M1245.81,-437.76C1218.12,-410.93 1175.15,-374.49 1130,-356 1053.87,-324.83 828.23,-307.3 697.2,-299.5"/>
<polygon fill="midnightblue" stroke="midnightblue" points="1243.63,-440.52 1253.21,-445.05 1248.54,-435.54 1243.63,-440.52"/>
</g>
<!-- Node19&#45;&gt;Node4 -->
<g id="edge26" class="edge">
<title>Node19&#45;&gt;Node4</title>
<path fill="none" stroke="midnightblue" d="M458.48,-352.58C484.55,-341.88 513.87,-329.85 539.03,-319.52"/>
<polygon fill="midnightblue" stroke="midnightblue" points="456.96,-349.42 449.03,-356.45 459.61,-355.89 456.96,-349.42"/>
</g>
<!-- Node20&#45;&gt;Node4 -->
<g id="edge28" class="edge">
<title>Node20&#45;&gt;Node4</title>
<path fill="none" stroke="midnightblue" d="M600,-346.19C600,-337.28 600,-327.9 600,-319.61"/>
<polygon fill="midnightblue" stroke="midnightblue" points="596.5,-346.34 600,-356.34 603.5,-346.34 596.5,-346.34"/>
</g>
<!-- Node21&#45;&gt;Node14 -->
<g id="edge30" class="edge">
<title>Node21&#45;&gt;Node14</title>
<path fill="none" stroke="midnightblue" d="M733.84,-444.86C816.52,-427.15 839.19,-426.14 918,-409 920.96,-408.36 923.96,-407.69 926.99,-407.02"/>
<polygon fill="midnightblue" stroke="midnightblue" points="733.04,-441.45 724.01,-446.98 734.52,-448.29 733.04,-441.45"/>
</g>
</g>
</svg>
