<?xml version="1.0" encoding="UTF-8" standalone="no"?>
<!DOCTYPE svg PUBLIC "-//W3C//DTD SVG 1.1//EN"
 "http://www.w3.org/Graphics/SVG/1.1/DTD/svg11.dtd">
<!-- Generated by graphviz version 2.43.0 (0)
 -->
<!-- Title: CCMouseDispatcher Pages: 1 -->
<svg width="162pt" height="209pt"
 viewBox="0.00 0.00 161.50 209.00" xmlns="http://www.w3.org/2000/svg" xmlns:xlink="http://www.w3.org/1999/xlink">
<g id="graph0" class="graph" transform="scale(1 1) rotate(0) translate(4 205)">
<title>CCMouseDispatcher</title>
<!-- Node1 -->
<g id="node1" class="node">
<title>Node1</title>
<g id="a_node1"><a xlink:title=" ">
<polygon fill="#bfbfbf" stroke="black" points="0,-0.5 0,-19.5 115,-19.5 115,-0.5 0,-0.5"/>
<text text-anchor="middle" x="57.5" y="-7.5" font-family="Helvetica,sans-Serif" font-size="10.00">CCMouseDispatcher</text>
</a>
</g>
</g>
<!-- Node2 -->
<g id="node2" class="node">
<title>Node2</title>
<g id="a_node2"><a xlink:href="../../d3/dbf/classcocos2d_1_1_c_c_object.html" target="_top" xlink:title="NA.">
<polygon fill="none" stroke="black" points="22.5,-124.5 22.5,-143.5 84.5,-143.5 84.5,-124.5 22.5,-124.5"/>
<text text-anchor="middle" x="53.5" y="-131.5" font-family="Helvetica,sans-Serif" font-size="10.00">CCObject</text>
</a>
</g>
</g>
<!-- Node2&#45;&gt;Node1 -->
<g id="edge1" class="edge">
<title>Node2&#45;&gt;Node1</title>
<path fill="none" stroke="midnightblue" d="M54.12,-114.19C55,-87.4 56.57,-39.31 57.21,-19.69"/>
<polygon fill="midnightblue" stroke="midnightblue" points="50.62,-114.12 53.79,-124.23 57.61,-114.35 50.62,-114.12"/>
</g>
<!-- Node4 -->
<g id="node4" class="node">
<title>Node4</title>
<g id="a_node4"><a xlink:href="../../d9/d2e/classcocos2d_1_1_c_c_array.html" target="_top" xlink:title="NA.">
<polygon fill="none" stroke="black" points="69.5,-67.5 69.5,-86.5 125.5,-86.5 125.5,-67.5 69.5,-67.5"/>
<text text-anchor="middle" x="97.5" y="-74.5" font-family="Helvetica,sans-Serif" font-size="10.00">CCArray</text>
</a>
</g>
</g>
<!-- Node2&#45;&gt;Node4 -->
<g id="edge4" class="edge">
<title>Node2&#45;&gt;Node4</title>
<path fill="none" stroke="midnightblue" d="M66.67,-116.53C74.51,-106.74 84.14,-94.7 90.53,-86.71"/>
<polygon fill="midnightblue" stroke="midnightblue" points="63.89,-114.41 60.37,-124.41 69.36,-118.78 63.89,-114.41"/>
</g>
<!-- Node3 -->
<g id="node3" class="node">
<title>Node3</title>
<g id="a_node3"><a xlink:href="../../d5/d61/classcocos2d_1_1_c_c_copying.html" target="_top" xlink:title="NA NA.">
<polygon fill="none" stroke="black" points="18.5,-181.5 18.5,-200.5 88.5,-200.5 88.5,-181.5 18.5,-181.5"/>
<text text-anchor="middle" x="53.5" y="-188.5" font-family="Helvetica,sans-Serif" font-size="10.00">CCCopying</text>
</a>
</g>
</g>
<!-- Node3&#45;&gt;Node2 -->
<g id="edge2" class="edge">
<title>Node3&#45;&gt;Node2</title>
<path fill="none" stroke="midnightblue" d="M53.5,-171.12C53.5,-161.82 53.5,-151.06 53.5,-143.71"/>
<polygon fill="midnightblue" stroke="midnightblue" points="50,-171.41 53.5,-181.41 57,-171.41 50,-171.41"/>
</g>
<!-- Node4&#45;&gt;Node1 -->
<g id="edge3" class="edge">
<title>Node4&#45;&gt;Node1</title>
<path fill="none" stroke="#9a32cd" stroke-dasharray="5,2" d="M86.75,-58.53C79.01,-45.95 68.89,-29.51 62.81,-19.63"/>
<polygon fill="#9a32cd" stroke="#9a32cd" points="83.88,-60.55 92.11,-67.23 89.85,-56.88 83.88,-60.55"/>
<text text-anchor="middle" x="116.5" y="-41" font-family="Helvetica,sans-Serif" font-size="10.00"> m_pDelegates</text>
</g>
</g>
</svg>
