<?xml version="1.0" encoding="UTF-8" standalone="no"?>
<!DOCTYPE svg PUBLIC "-//W3C//DTD SVG 1.1//EN"
 "http://www.w3.org/Graphics/SVG/1.1/DTD/svg11.dtd">
<!-- Generated by graphviz version 2.43.0 (0)
 -->
<!-- Title: /home/runner/work/cocos&#45;headers/cocos&#45;headers/cocos2dx/draw_nodes/CCDrawingPrimitives.h Pages: 1 -->
<svg width="440pt" height="509pt"
 viewBox="0.00 0.00 440.42 509.00" xmlns="http://www.w3.org/2000/svg" xmlns:xlink="http://www.w3.org/1999/xlink">
<g id="graph0" class="graph" transform="scale(1 1) rotate(0) translate(4 505)">
<title>/home/runner/work/cocos&#45;headers/cocos&#45;headers/cocos2dx/draw_nodes/CCDrawingPrimitives.h</title>
<!-- Node1 -->
<g id="node1" class="node">
<title>Node1</title>
<g id="a_node1"><a xlink:title="Drawing OpenGL ES primitives.">
<polygon fill="#bfbfbf" stroke="black" points="88.5,-448.5 88.5,-500.5 272.5,-500.5 272.5,-448.5 88.5,-448.5"/>
<text text-anchor="start" x="96.5" y="-488.5" font-family="Helvetica,sans-Serif" font-size="10.00">/home/runner/work/cocos</text>
<text text-anchor="start" x="96.5" y="-477.5" font-family="Helvetica,sans-Serif" font-size="10.00">&#45;headers/cocos&#45;headers</text>
<text text-anchor="start" x="96.5" y="-466.5" font-family="Helvetica,sans-Serif" font-size="10.00">/cocos2dx/draw_nodes/CCDrawing</text>
<text text-anchor="middle" x="180.5" y="-455.5" font-family="Helvetica,sans-Serif" font-size="10.00">Primitives.h</text>
</a>
</g>
</g>
<!-- Node2 -->
<g id="node2" class="node">
<title>Node2</title>
<g id="a_node2"><a xlink:href="../../df/de6/cc_types_8h.html" target="_top" xlink:title=" ">
<polygon fill="none" stroke="black" points="148.5,-392.5 148.5,-411.5 212.5,-411.5 212.5,-392.5 148.5,-392.5"/>
<text text-anchor="middle" x="180.5" y="-399.5" font-family="Helvetica,sans-Serif" font-size="10.00">ccTypes.h</text>
</a>
</g>
</g>
<!-- Node1&#45;&gt;Node2 -->
<g id="edge1" class="edge">
<title>Node1&#45;&gt;Node2</title>
<path fill="none" stroke="midnightblue" d="M180.5,-448.45C180.5,-439.73 180.5,-430.1 180.5,-421.96"/>
<polygon fill="midnightblue" stroke="midnightblue" points="184,-421.7 180.5,-411.7 177,-421.7 184,-421.7"/>
</g>
<!-- Node4 -->
<g id="node4" class="node">
<title>Node4</title>
<g id="a_node4"><a xlink:href="../../d6/d09/_c_c_geometry_8h.html" target="_top" xlink:title=" ">
<polygon fill="none" stroke="black" points="18.5,-336.5 18.5,-355.5 136.5,-355.5 136.5,-336.5 18.5,-336.5"/>
<text text-anchor="middle" x="77.5" y="-343.5" font-family="Helvetica,sans-Serif" font-size="10.00">cocoa/CCGeometry.h</text>
</a>
</g>
</g>
<!-- Node1&#45;&gt;Node4 -->
<g id="edge21" class="edge">
<title>Node1&#45;&gt;Node4</title>
<path fill="none" stroke="midnightblue" d="M159.9,-448.2C139.37,-422.98 108.43,-384.98 90.89,-363.44"/>
<polygon fill="midnightblue" stroke="midnightblue" points="93.49,-361.09 84.46,-355.55 88.06,-365.51 93.49,-361.09"/>
</g>
<!-- Node11 -->
<g id="node11" class="node">
<title>Node11</title>
<g id="a_node11"><a xlink:href="../../d9/dc8/cc_macros_8h.html" target="_top" xlink:title=" ">
<polygon fill="none" stroke="black" points="263,-224.5 263,-243.5 334,-243.5 334,-224.5 263,-224.5"/>
<text text-anchor="middle" x="298.5" y="-231.5" font-family="Helvetica,sans-Serif" font-size="10.00">ccMacros.h</text>
</a>
</g>
</g>
<!-- Node1&#45;&gt;Node11 -->
<g id="edge20" class="edge">
<title>Node1&#45;&gt;Node11</title>
<path fill="none" stroke="midnightblue" d="M198.7,-448.4C206.22,-437.49 214.74,-424.39 221.5,-412 251.91,-356.22 279.51,-285.99 291.78,-253.3"/>
<polygon fill="midnightblue" stroke="midnightblue" points="295.13,-254.32 295.34,-243.73 288.57,-251.88 295.13,-254.32"/>
</g>
<!-- Node3 -->
<g id="node3" class="node">
<title>Node3</title>
<g id="a_node3"><a xlink:title=" ">
<polygon fill="none" stroke="#bfbfbf" points="145.5,-168.5 145.5,-187.5 189.5,-187.5 189.5,-168.5 145.5,-168.5"/>
<text text-anchor="middle" x="167.5" y="-175.5" font-family="Helvetica,sans-Serif" font-size="10.00">string</text>
</a>
</g>
</g>
<!-- Node2&#45;&gt;Node3 -->
<g id="edge2" class="edge">
<title>Node2&#45;&gt;Node3</title>
<path fill="none" stroke="midnightblue" d="M190.06,-392.45C198.59,-384.12 210.49,-370.6 215.5,-356 224.93,-328.5 263.51,-339.98 213.5,-224 208.3,-211.94 198.17,-201.47 188.74,-193.67"/>
<polygon fill="midnightblue" stroke="midnightblue" points="190.84,-190.86 180.78,-187.53 186.56,-196.4 190.84,-190.86"/>
</g>
<!-- Node2&#45;&gt;Node4 -->
<g id="edge3" class="edge">
<title>Node2&#45;&gt;Node4</title>
<path fill="none" stroke="midnightblue" d="M163.95,-392.32C147.51,-383.7 122.07,-370.36 103.03,-360.39"/>
<polygon fill="midnightblue" stroke="midnightblue" points="104.49,-357.2 94.01,-355.65 101.24,-363.4 104.49,-357.2"/>
</g>
<!-- Node15 -->
<g id="node15" class="node">
<title>Node15</title>
<g id="a_node15"><a xlink:title=" ">
<polygon fill="none" stroke="#bfbfbf" points="154.5,-336.5 154.5,-355.5 206.5,-355.5 206.5,-336.5 154.5,-336.5"/>
<text text-anchor="middle" x="180.5" y="-343.5" font-family="Helvetica,sans-Serif" font-size="10.00">CCGL.h</text>
</a>
</g>
</g>
<!-- Node2&#45;&gt;Node15 -->
<g id="edge19" class="edge">
<title>Node2&#45;&gt;Node15</title>
<path fill="none" stroke="midnightblue" d="M180.5,-392.08C180.5,-385.01 180.5,-374.86 180.5,-365.99"/>
<polygon fill="midnightblue" stroke="midnightblue" points="184,-365.75 180.5,-355.75 177,-365.75 184,-365.75"/>
</g>
<!-- Node5 -->
<g id="node5" class="node">
<title>Node5</title>
<g id="a_node5"><a xlink:href="../../d3/d41/_c_c_platform_macros_8h.html" target="_top" xlink:title=" ">
<polygon fill="none" stroke="black" points="114,-112.5 114,-131.5 275,-131.5 275,-112.5 114,-112.5"/>
<text text-anchor="middle" x="194.5" y="-119.5" font-family="Helvetica,sans-Serif" font-size="10.00">platform/CCPlatformMacros.h</text>
</a>
</g>
</g>
<!-- Node4&#45;&gt;Node5 -->
<g id="edge4" class="edge">
<title>Node4&#45;&gt;Node5</title>
<path fill="none" stroke="midnightblue" d="M77.59,-336.48C78.33,-308.81 84.23,-220.19 128.5,-168 139.33,-155.24 154.62,-144.5 167.76,-136.73"/>
<polygon fill="midnightblue" stroke="midnightblue" points="169.86,-139.56 176.85,-131.6 166.42,-133.46 169.86,-139.56"/>
</g>
<!-- Node9 -->
<g id="node9" class="node">
<title>Node9</title>
<g id="a_node9"><a xlink:href="../../dd/d69/_c_c_object_8h.html" target="_top" xlink:title=" ">
<polygon fill="none" stroke="black" points="122,-280.5 122,-299.5 193,-299.5 193,-280.5 122,-280.5"/>
<text text-anchor="middle" x="157.5" y="-287.5" font-family="Helvetica,sans-Serif" font-size="10.00">CCObject.h</text>
</a>
</g>
</g>
<!-- Node4&#45;&gt;Node9 -->
<g id="edge9" class="edge">
<title>Node4&#45;&gt;Node9</title>
<path fill="none" stroke="midnightblue" d="M90.35,-336.32C102.72,-327.98 121.63,-315.21 136.24,-305.35"/>
<polygon fill="midnightblue" stroke="midnightblue" points="138.35,-308.15 144.68,-299.65 134.43,-302.35 138.35,-308.15"/>
</g>
<!-- Node14 -->
<g id="node14" class="node">
<title>Node14</title>
<g id="a_node14"><a xlink:title=" ">
<polygon fill="none" stroke="#bfbfbf" points="0,-280.5 0,-299.5 51,-299.5 51,-280.5 0,-280.5"/>
<text text-anchor="middle" x="25.5" y="-287.5" font-family="Helvetica,sans-Serif" font-size="10.00">math.h</text>
</a>
</g>
</g>
<!-- Node4&#45;&gt;Node14 -->
<g id="edge18" class="edge">
<title>Node4&#45;&gt;Node14</title>
<path fill="none" stroke="midnightblue" d="M68.91,-336.08C61.34,-328.22 50.12,-316.57 40.99,-307.08"/>
<polygon fill="midnightblue" stroke="midnightblue" points="43.38,-304.53 33.93,-299.75 38.34,-309.38 43.38,-304.53"/>
</g>
<!-- Node6 -->
<g id="node6" class="node">
<title>Node6</title>
<g id="a_node6"><a xlink:href="../../db/d9f/cc_config_8h.html" target="_top" xlink:title="cocos2d (cc) configuration file">
<polygon fill="none" stroke="black" points="266,-56.5 266,-75.5 333,-75.5 333,-56.5 266,-56.5"/>
<text text-anchor="middle" x="299.5" y="-63.5" font-family="Helvetica,sans-Serif" font-size="10.00">ccConfig.h</text>
</a>
</g>
</g>
<!-- Node5&#45;&gt;Node6 -->
<g id="edge5" class="edge">
<title>Node5&#45;&gt;Node6</title>
<path fill="none" stroke="midnightblue" d="M211.37,-112.32C228.21,-103.66 254.31,-90.24 273.74,-80.25"/>
<polygon fill="midnightblue" stroke="midnightblue" points="275.38,-83.34 282.67,-75.65 272.18,-77.12 275.38,-83.34"/>
</g>
<!-- Node7 -->
<g id="node7" class="node">
<title>Node7</title>
<g id="a_node7"><a xlink:href="../../dd/d96/_c_c_platform_config_8h.html" target="_top" xlink:title=" ">
<polygon fill="none" stroke="black" points="190,-0.5 190,-19.5 347,-19.5 347,-0.5 190,-0.5"/>
<text text-anchor="middle" x="268.5" y="-7.5" font-family="Helvetica,sans-Serif" font-size="10.00">platform/CCPlatformConfig.h</text>
</a>
</g>
</g>
<!-- Node5&#45;&gt;Node7 -->
<g id="edge7" class="edge">
<title>Node5&#45;&gt;Node7</title>
<path fill="none" stroke="midnightblue" d="M200.31,-112.37C212.52,-94.22 241.05,-51.8 257.07,-27.99"/>
<polygon fill="midnightblue" stroke="midnightblue" points="260.04,-29.84 262.72,-19.59 254.23,-25.94 260.04,-29.84"/>
</g>
<!-- Node8 -->
<g id="node8" class="node">
<title>Node8</title>
<g id="a_node8"><a xlink:title=" ">
<polygon fill="none" stroke="#bfbfbf" points="96,-56.5 96,-75.5 209,-75.5 209,-56.5 96,-56.5"/>
<text text-anchor="middle" x="152.5" y="-63.5" font-family="Helvetica,sans-Serif" font-size="10.00">CCPlatformDefine.h</text>
</a>
</g>
</g>
<!-- Node5&#45;&gt;Node8 -->
<g id="edge8" class="edge">
<title>Node5&#45;&gt;Node8</title>
<path fill="none" stroke="midnightblue" d="M187.56,-112.08C181.57,-104.38 172.75,-93.03 165.45,-83.65"/>
<polygon fill="midnightblue" stroke="midnightblue" points="168.21,-81.5 159.31,-75.75 162.68,-85.79 168.21,-81.5"/>
</g>
<!-- Node6&#45;&gt;Node7 -->
<g id="edge6" class="edge">
<title>Node6&#45;&gt;Node7</title>
<path fill="none" stroke="midnightblue" d="M294.38,-56.08C290.09,-48.61 283.84,-37.72 278.56,-28.52"/>
<polygon fill="midnightblue" stroke="midnightblue" points="281.54,-26.68 273.52,-19.75 275.47,-30.17 281.54,-26.68"/>
</g>
<!-- Node10 -->
<g id="node10" class="node">
<title>Node10</title>
<g id="a_node10"><a xlink:href="../../d9/d2d/_c_c_data_visitor_8h.html" target="_top" xlink:title=" ">
<polygon fill="none" stroke="black" points="111,-224.5 111,-243.5 204,-243.5 204,-224.5 111,-224.5"/>
<text text-anchor="middle" x="157.5" y="-231.5" font-family="Helvetica,sans-Serif" font-size="10.00">CCDataVisitor.h</text>
</a>
</g>
</g>
<!-- Node9&#45;&gt;Node10 -->
<g id="edge10" class="edge">
<title>Node9&#45;&gt;Node10</title>
<path fill="none" stroke="midnightblue" d="M157.5,-280.08C157.5,-273.01 157.5,-262.86 157.5,-253.99"/>
<polygon fill="midnightblue" stroke="midnightblue" points="161,-253.75 157.5,-243.75 154,-253.75 161,-253.75"/>
</g>
<!-- Node9&#45;&gt;Node11 -->
<g id="edge13" class="edge">
<title>Node9&#45;&gt;Node11</title>
<path fill="none" stroke="midnightblue" d="M179.84,-280.44C203.25,-271.48 240.24,-257.31 266.69,-247.18"/>
<polygon fill="midnightblue" stroke="midnightblue" points="268.18,-250.36 276.26,-243.52 265.67,-243.82 268.18,-250.36"/>
</g>
<!-- Node10&#45;&gt;Node3 -->
<g id="edge12" class="edge">
<title>Node10&#45;&gt;Node3</title>
<path fill="none" stroke="midnightblue" d="M159.15,-224.08C160.48,-216.93 162.38,-206.64 164.04,-197.69"/>
<polygon fill="midnightblue" stroke="midnightblue" points="167.5,-198.22 165.88,-187.75 160.62,-196.95 167.5,-198.22"/>
</g>
<!-- Node10&#45;&gt;Node5 -->
<g id="edge11" class="edge">
<title>Node10&#45;&gt;Node5</title>
<path fill="none" stroke="midnightblue" d="M150.56,-224.28C141.31,-211.52 127.11,-187.17 136.5,-168 143.02,-154.68 155.6,-144.18 167.37,-136.68"/>
<polygon fill="midnightblue" stroke="midnightblue" points="169.27,-139.62 176.11,-131.53 165.72,-133.59 169.27,-139.62"/>
</g>
<!-- Node11&#45;&gt;Node6 -->
<g id="edge17" class="edge">
<title>Node11&#45;&gt;Node6</title>
<path fill="none" stroke="midnightblue" d="M334.21,-231.01C363.82,-227.24 404.23,-216.77 424.5,-188 456.5,-142.59 378,-99.98 331.26,-79.58"/>
<polygon fill="midnightblue" stroke="midnightblue" points="332.39,-76.26 321.82,-75.57 329.66,-82.7 332.39,-76.26"/>
</g>
<!-- Node12 -->
<g id="node12" class="node">
<title>Node12</title>
<g id="a_node12"><a xlink:href="../../d5/d22/_c_c_common_8h.html" target="_top" xlink:title=" ">
<polygon fill="none" stroke="black" points="207.5,-168.5 207.5,-187.5 335.5,-187.5 335.5,-168.5 207.5,-168.5"/>
<text text-anchor="middle" x="271.5" y="-175.5" font-family="Helvetica,sans-Serif" font-size="10.00">platform/CCCommon.h</text>
</a>
</g>
</g>
<!-- Node11&#45;&gt;Node12 -->
<g id="edge14" class="edge">
<title>Node11&#45;&gt;Node12</title>
<path fill="none" stroke="midnightblue" d="M294.04,-224.08C290.35,-216.69 284.98,-205.95 280.41,-196.81"/>
<polygon fill="midnightblue" stroke="midnightblue" points="283.48,-195.13 275.88,-187.75 277.22,-198.26 283.48,-195.13"/>
</g>
<!-- Node13 -->
<g id="node13" class="node">
<title>Node13</title>
<g id="a_node13"><a xlink:title=" ">
<polygon fill="none" stroke="#bfbfbf" points="353.5,-168.5 353.5,-187.5 415.5,-187.5 415.5,-168.5 353.5,-168.5"/>
<text text-anchor="middle" x="384.5" y="-175.5" font-family="Helvetica,sans-Serif" font-size="10.00">CCStdC.h</text>
</a>
</g>
</g>
<!-- Node11&#45;&gt;Node13 -->
<g id="edge16" class="edge">
<title>Node11&#45;&gt;Node13</title>
<path fill="none" stroke="midnightblue" d="M312.32,-224.32C325.73,-215.9 346.32,-202.97 362.09,-193.07"/>
<polygon fill="midnightblue" stroke="midnightblue" points="364.11,-195.94 370.72,-187.65 360.39,-190.01 364.11,-195.94"/>
</g>
<!-- Node12&#45;&gt;Node5 -->
<g id="edge15" class="edge">
<title>Node12&#45;&gt;Node5</title>
<path fill="none" stroke="midnightblue" d="M259.13,-168.32C247.34,-160.06 229.37,-147.45 215.36,-137.63"/>
<polygon fill="midnightblue" stroke="midnightblue" points="217.04,-134.53 206.84,-131.65 213.02,-140.26 217.04,-134.53"/>
</g>
</g>
</svg>
