<?xml version="1.0" encoding="UTF-8" standalone="no"?>
<!DOCTYPE svg PUBLIC "-//W3C//DTD SVG 1.1//EN"
 "http://www.w3.org/Graphics/SVG/1.1/DTD/svg11.dtd">
<!-- Generated by graphviz version 2.43.0 (0)
 -->
<!-- Title: /home/runner/work/cocos&#45;headers/cocos&#45;headers/cocos2dx/platform/winrt/CCFreeTypeFont.h Pages: 1 -->
<svg width="1084pt" height="445pt"
 viewBox="0.00 0.00 1083.50 445.00" xmlns="http://www.w3.org/2000/svg" xmlns:xlink="http://www.w3.org/1999/xlink">
<g id="graph0" class="graph" transform="scale(1 1) rotate(0) translate(4 441)">
<title>/home/runner/work/cocos&#45;headers/cocos&#45;headers/cocos2dx/platform/winrt/CCFreeTypeFont.h</title>
<!-- Node1 -->
<g id="node1" class="node">
<title>Node1</title>
<g id="a_node1"><a xlink:title=" ">
<polygon fill="#999999" stroke="#666666" points="581,-437 441,-437 441,-385 581,-385 581,-437"/>
<text text-anchor="start" x="449" y="-425" font-family="Helvetica,sans-Serif" font-size="10.00">/home/runner/work/cocos</text>
<text text-anchor="start" x="449" y="-414" font-family="Helvetica,sans-Serif" font-size="10.00">&#45;headers/cocos&#45;headers</text>
<text text-anchor="start" x="449" y="-403" font-family="Helvetica,sans-Serif" font-size="10.00">/cocos2dx/platform/winrt</text>
<text text-anchor="middle" x="511" y="-392" font-family="Helvetica,sans-Serif" font-size="10.00">/CCFreeTypeFont.h</text>
</a>
</g>
</g>
<!-- Node2 -->
<g id="node2" class="node">
<title>Node2</title>
<g id="a_node2"><a xlink:href="../../d5/d22/_c_c_common_8h.html" target="_top" xlink:title=" ">
<polygon fill="white" stroke="#666666" points="128,-184 0,-184 0,-165 128,-165 128,-184"/>
<text text-anchor="middle" x="64" y="-172" font-family="Helvetica,sans-Serif" font-size="10.00">platform/CCCommon.h</text>
</a>
</g>
</g>
<!-- Node1&#45;&gt;Node2 -->
<g id="edge1" class="edge">
<title>Node1&#45;&gt;Node2</title>
<path fill="none" stroke="#63b8ff" d="M440.79,-402.3C360.82,-392.52 236.04,-373.87 196,-349 133.09,-309.92 89.23,-229.21 72.05,-193.35"/>
<polygon fill="#63b8ff" stroke="#63b8ff" points="75.15,-191.71 67.75,-184.12 68.8,-194.66 75.15,-191.71"/>
</g>
<!-- Node7 -->
<g id="node7" class="node">
<title>Node7</title>
<g id="a_node7"><a xlink:href="../../d8/dce/_c_c_image_8h.html" target="_top" xlink:title=" ">
<polygon fill="white" stroke="#666666" points="320.5,-349 205.5,-349 205.5,-330 320.5,-330 320.5,-349"/>
<text text-anchor="middle" x="263" y="-337" font-family="Helvetica,sans-Serif" font-size="10.00">platform/CCImage.h</text>
</a>
</g>
</g>
<!-- Node1&#45;&gt;Node7 -->
<g id="edge7" class="edge">
<title>Node1&#45;&gt;Node7</title>
<path fill="none" stroke="#63b8ff" d="M440.93,-390.36C396.54,-377.92 340.71,-362.28 303.55,-351.86"/>
<polygon fill="#63b8ff" stroke="#63b8ff" points="304.16,-348.4 293.58,-349.07 302.27,-355.14 304.16,-348.4"/>
</g>
<!-- Node10 -->
<g id="node10" class="node">
<title>Node10</title>
<g id="a_node10"><a xlink:title=" ">
<polygon fill="#e0e0e0" stroke="#999999" points="359,-184 315,-184 315,-165 359,-165 359,-184"/>
<text text-anchor="middle" x="337" y="-172" font-family="Helvetica,sans-Serif" font-size="10.00">string</text>
</a>
</g>
</g>
<!-- Node1&#45;&gt;Node10 -->
<g id="edge16" class="edge">
<title>Node1&#45;&gt;Node10</title>
<path fill="none" stroke="#63b8ff" d="M440.89,-394.86C414.66,-385.77 386.91,-371.44 369,-349 332.43,-303.19 332.65,-228.92 335.1,-194.33"/>
<polygon fill="#63b8ff" stroke="#63b8ff" points="338.6,-194.49 335.96,-184.23 331.62,-193.89 338.6,-194.49"/>
</g>
<!-- Node13 -->
<g id="node13" class="node">
<title>Node13</title>
<g id="a_node13"><a xlink:title=" ">
<polygon fill="#e0e0e0" stroke="#999999" points="424.5,-349 377.5,-349 377.5,-330 424.5,-330 424.5,-349"/>
<text text-anchor="middle" x="401" y="-337" font-family="Helvetica,sans-Serif" font-size="10.00">vector</text>
</a>
</g>
</g>
<!-- Node1&#45;&gt;Node13 -->
<g id="edge17" class="edge">
<title>Node1&#45;&gt;Node13</title>
<path fill="none" stroke="#63b8ff" d="M471.29,-384.91C455.19,-374.74 437.19,-363.36 423.44,-354.68"/>
<polygon fill="#63b8ff" stroke="#63b8ff" points="424.99,-351.52 414.67,-349.14 421.25,-357.44 424.99,-351.52"/>
</g>
<!-- Node14 -->
<g id="node14" class="node">
<title>Node14</title>
<g id="a_node14"><a xlink:title=" ">
<polygon fill="#e0e0e0" stroke="#999999" points="501,-349 443,-349 443,-330 501,-330 501,-349"/>
<text text-anchor="middle" x="472" y="-337" font-family="Helvetica,sans-Serif" font-size="10.00">memory</text>
</a>
</g>
</g>
<!-- Node1&#45;&gt;Node14 -->
<g id="edge18" class="edge">
<title>Node1&#45;&gt;Node14</title>
<path fill="none" stroke="#63b8ff" d="M496.92,-384.91C491.96,-376.06 486.48,-366.31 481.93,-358.2"/>
<polygon fill="#63b8ff" stroke="#63b8ff" points="484.89,-356.31 476.94,-349.3 478.78,-359.74 484.89,-356.31"/>
</g>
<!-- Node15 -->
<g id="node15" class="node">
<title>Node15</title>
<g id="a_node15"><a xlink:title=" ">
<polygon fill="#e0e0e0" stroke="#999999" points="581,-349 519,-349 519,-330 581,-330 581,-349"/>
<text text-anchor="middle" x="550" y="-337" font-family="Helvetica,sans-Serif" font-size="10.00">ft2build.h</text>
</a>
</g>
</g>
<!-- Node1&#45;&gt;Node15 -->
<g id="edge19" class="edge">
<title>Node1&#45;&gt;Node15</title>
<path fill="none" stroke="#63b8ff" d="M525.08,-384.91C530.04,-376.06 535.52,-366.31 540.07,-358.2"/>
<polygon fill="#63b8ff" stroke="#63b8ff" points="543.22,-359.74 545.06,-349.3 537.11,-356.31 543.22,-359.74"/>
</g>
<!-- Node16 -->
<g id="node16" class="node">
<title>Node16</title>
<g id="a_node16"><a xlink:title=" ">
<polygon fill="#e0e0e0" stroke="#999999" points="710.5,-349 599.5,-349 599.5,-330 710.5,-330 710.5,-349"/>
<text text-anchor="middle" x="655" y="-337" font-family="Helvetica,sans-Serif" font-size="10.00">freetype/freetype.h</text>
</a>
</g>
</g>
<!-- Node1&#45;&gt;Node16 -->
<g id="edge20" class="edge">
<title>Node1&#45;&gt;Node16</title>
<path fill="none" stroke="#63b8ff" d="M562.99,-384.91C584.98,-374.3 609.67,-362.38 627.94,-353.56"/>
<polygon fill="#63b8ff" stroke="#63b8ff" points="629.62,-356.63 637.11,-349.14 626.58,-350.33 629.62,-356.63"/>
</g>
<!-- Node17 -->
<g id="node17" class="node">
<title>Node17</title>
<g id="a_node17"><a xlink:title=" ">
<polygon fill="#e0e0e0" stroke="#999999" points="833,-349 729,-349 729,-330 833,-330 833,-349"/>
<text text-anchor="middle" x="781" y="-337" font-family="Helvetica,sans-Serif" font-size="10.00">freetype/ftglyph.h</text>
</a>
</g>
</g>
<!-- Node1&#45;&gt;Node17 -->
<g id="edge21" class="edge">
<title>Node1&#45;&gt;Node17</title>
<path fill="none" stroke="#63b8ff" d="M581.23,-391.92C630.89,-379.14 695.87,-362.41 738.01,-351.57"/>
<polygon fill="#63b8ff" stroke="#63b8ff" points="739.14,-354.89 747.95,-349.01 737.39,-348.11 739.14,-354.89"/>
</g>
<!-- Node18 -->
<g id="node18" class="node">
<title>Node18</title>
<g id="a_node18"><a xlink:title=" ">
<polygon fill="#e0e0e0" stroke="#999999" points="952.5,-349 851.5,-349 851.5,-330 952.5,-330 952.5,-349"/>
<text text-anchor="middle" x="902" y="-337" font-family="Helvetica,sans-Serif" font-size="10.00">freetype/ftoutln.h</text>
</a>
</g>
</g>
<!-- Node1&#45;&gt;Node18 -->
<g id="edge22" class="edge">
<title>Node1&#45;&gt;Node18</title>
<path fill="none" stroke="#63b8ff" d="M581.35,-397.49C656.48,-384.14 774.14,-363.23 844.11,-350.79"/>
<polygon fill="#63b8ff" stroke="#63b8ff" points="844.84,-354.21 854.07,-349.02 843.62,-347.32 844.84,-354.21"/>
</g>
<!-- Node19 -->
<g id="node19" class="node">
<title>Node19</title>
<g id="a_node19"><a xlink:title=" ">
<polygon fill="#e0e0e0" stroke="#999999" points="1075.5,-349 970.5,-349 970.5,-330 1075.5,-330 1075.5,-349"/>
<text text-anchor="middle" x="1023" y="-337" font-family="Helvetica,sans-Serif" font-size="10.00">freetype/fttrigon.h</text>
</a>
</g>
</g>
<!-- Node1&#45;&gt;Node19 -->
<g id="edge23" class="edge">
<title>Node1&#45;&gt;Node19</title>
<path fill="none" stroke="#63b8ff" d="M581.32,-400.58C667.98,-388.95 820.03,-368.47 960.35,-349.22"/>
<polygon fill="#63b8ff" stroke="#63b8ff" points="961,-352.67 970.43,-347.84 960.05,-345.73 961,-352.67"/>
</g>
<!-- Node3 -->
<g id="node3" class="node">
<title>Node3</title>
<g id="a_node3"><a xlink:href="../../d3/d41/_c_c_platform_macros_8h.html" target="_top" xlink:title=" ">
<polygon fill="white" stroke="#666666" points="186,-129 70,-129 70,-110 186,-110 186,-129"/>
<text text-anchor="middle" x="128" y="-117" font-family="Helvetica,sans-Serif" font-size="10.00">CCPlatformMacros.h</text>
</a>
</g>
</g>
<!-- Node2&#45;&gt;Node3 -->
<g id="edge2" class="edge">
<title>Node2&#45;&gt;Node3</title>
<path fill="none" stroke="#63b8ff" d="M74.28,-164.98C83.84,-157.07 98.28,-145.11 109.78,-135.58"/>
<polygon fill="#63b8ff" stroke="#63b8ff" points="112.06,-138.24 117.53,-129.17 107.6,-132.85 112.06,-138.24"/>
</g>
<!-- Node4 -->
<g id="node4" class="node">
<title>Node4</title>
<g id="a_node4"><a xlink:href="../../db/d9f/cc_config_8h.html" target="_top" xlink:title="cocos2d (cc) configuration file">
<polygon fill="white" stroke="#666666" points="269.5,-74 202.5,-74 202.5,-55 269.5,-55 269.5,-74"/>
<text text-anchor="middle" x="236" y="-62" font-family="Helvetica,sans-Serif" font-size="10.00">ccConfig.h</text>
</a>
</g>
</g>
<!-- Node3&#45;&gt;Node4 -->
<g id="edge3" class="edge">
<title>Node3&#45;&gt;Node4</title>
<path fill="none" stroke="#63b8ff" d="M145.35,-109.98C162.57,-101.54 189.2,-88.47 209.15,-78.68"/>
<polygon fill="#63b8ff" stroke="#63b8ff" points="210.9,-81.72 218.33,-74.17 207.81,-75.43 210.9,-81.72"/>
</g>
<!-- Node5 -->
<g id="node5" class="node">
<title>Node5</title>
<g id="a_node5"><a xlink:href="../../dd/d96/_c_c_platform_config_8h.html" target="_top" xlink:title=" ">
<polygon fill="white" stroke="#666666" points="217.5,-19 60.5,-19 60.5,0 217.5,0 217.5,-19"/>
<text text-anchor="middle" x="139" y="-7" font-family="Helvetica,sans-Serif" font-size="10.00">platform/CCPlatformConfig.h</text>
</a>
</g>
</g>
<!-- Node3&#45;&gt;Node5 -->
<g id="edge5" class="edge">
<title>Node3&#45;&gt;Node5</title>
<path fill="none" stroke="#63b8ff" d="M106.51,-109.94C82.42,-98.97 48.41,-78.55 62,-55 70.42,-40.41 85.65,-30.17 100.35,-23.23"/>
<polygon fill="#63b8ff" stroke="#63b8ff" points="102.07,-26.3 109.86,-19.13 99.29,-19.87 102.07,-26.3"/>
</g>
<!-- Node6 -->
<g id="node6" class="node">
<title>Node6</title>
<g id="a_node6"><a xlink:title=" ">
<polygon fill="#e0e0e0" stroke="#999999" points="184.5,-74 71.5,-74 71.5,-55 184.5,-55 184.5,-74"/>
<text text-anchor="middle" x="128" y="-62" font-family="Helvetica,sans-Serif" font-size="10.00">CCPlatformDefine.h</text>
</a>
</g>
</g>
<!-- Node3&#45;&gt;Node6 -->
<g id="edge6" class="edge">
<title>Node3&#45;&gt;Node6</title>
<path fill="none" stroke="#63b8ff" d="M128,-109.75C128,-102.8 128,-92.85 128,-84.13"/>
<polygon fill="#63b8ff" stroke="#63b8ff" points="131.5,-84.09 128,-74.09 124.5,-84.09 131.5,-84.09"/>
</g>
<!-- Node4&#45;&gt;Node5 -->
<g id="edge4" class="edge">
<title>Node4&#45;&gt;Node5</title>
<path fill="none" stroke="#63b8ff" d="M220.42,-54.98C205.23,-46.69 181.9,-33.94 164.1,-24.22"/>
<polygon fill="#63b8ff" stroke="#63b8ff" points="165.32,-20.89 154.87,-19.17 161.97,-27.04 165.32,-20.89"/>
</g>
<!-- Node8 -->
<g id="node8" class="node">
<title>Node8</title>
<g id="a_node8"><a xlink:href="../../dd/d69/_c_c_object_8h.html" target="_top" xlink:title=" ">
<polygon fill="white" stroke="#666666" points="314,-294 212,-294 212,-275 314,-275 314,-294"/>
<text text-anchor="middle" x="263" y="-282" font-family="Helvetica,sans-Serif" font-size="10.00">cocoa/CCObject.h</text>
</a>
</g>
</g>
<!-- Node7&#45;&gt;Node8 -->
<g id="edge8" class="edge">
<title>Node7&#45;&gt;Node8</title>
<path fill="none" stroke="#63b8ff" d="M263,-329.75C263,-322.8 263,-312.85 263,-304.13"/>
<polygon fill="#63b8ff" stroke="#63b8ff" points="266.5,-304.09 263,-294.09 259.5,-304.09 266.5,-304.09"/>
</g>
<!-- Node9 -->
<g id="node9" class="node">
<title>Node9</title>
<g id="a_node9"><a xlink:href="../../d9/d2d/_c_c_data_visitor_8h.html" target="_top" xlink:title=" ">
<polygon fill="white" stroke="#666666" points="320.5,-239 227.5,-239 227.5,-220 320.5,-220 320.5,-239"/>
<text text-anchor="middle" x="274" y="-227" font-family="Helvetica,sans-Serif" font-size="10.00">CCDataVisitor.h</text>
</a>
</g>
</g>
<!-- Node8&#45;&gt;Node9 -->
<g id="edge9" class="edge">
<title>Node8&#45;&gt;Node9</title>
<path fill="none" stroke="#63b8ff" d="M264.82,-274.75C266.26,-267.8 268.32,-257.85 270.13,-249.13"/>
<polygon fill="#63b8ff" stroke="#63b8ff" points="273.61,-249.59 272.22,-239.09 266.76,-248.17 273.61,-249.59"/>
</g>
<!-- Node11 -->
<g id="node11" class="node">
<title>Node11</title>
<g id="a_node11"><a xlink:href="../../d9/dc8/cc_macros_8h.html" target="_top" xlink:title=" ">
<polygon fill="white" stroke="#666666" points="209.5,-239 138.5,-239 138.5,-220 209.5,-220 209.5,-239"/>
<text text-anchor="middle" x="174" y="-227" font-family="Helvetica,sans-Serif" font-size="10.00">ccMacros.h</text>
</a>
</g>
</g>
<!-- Node8&#45;&gt;Node11 -->
<g id="edge12" class="edge">
<title>Node8&#45;&gt;Node11</title>
<path fill="none" stroke="#63b8ff" d="M248.7,-274.98C234.9,-266.77 213.76,-254.18 197.49,-244.49"/>
<polygon fill="#63b8ff" stroke="#63b8ff" points="198.94,-241.28 188.56,-239.17 195.36,-247.29 198.94,-241.28"/>
</g>
<!-- Node9&#45;&gt;Node3 -->
<g id="edge10" class="edge">
<title>Node9&#45;&gt;Node3</title>
<path fill="none" stroke="#63b8ff" d="M267.84,-219.75C258.2,-206.55 238.44,-181.35 217,-165 199.73,-151.83 177.96,-140.86 160.27,-133.11"/>
<polygon fill="#63b8ff" stroke="#63b8ff" points="161.49,-129.83 150.92,-129.14 158.76,-136.27 161.49,-129.83"/>
</g>
<!-- Node9&#45;&gt;Node10 -->
<g id="edge11" class="edge">
<title>Node9&#45;&gt;Node10</title>
<path fill="none" stroke="#63b8ff" d="M284.12,-219.98C293.44,-212.15 307.47,-200.34 318.74,-190.86"/>
<polygon fill="#63b8ff" stroke="#63b8ff" points="321.29,-193.29 326.69,-184.17 316.79,-187.93 321.29,-193.29"/>
</g>
<!-- Node11&#45;&gt;Node2 -->
<g id="edge13" class="edge">
<title>Node11&#45;&gt;Node2</title>
<path fill="none" stroke="#63b8ff" d="M156.33,-219.98C138.71,-211.5 111.42,-198.35 91.07,-188.54"/>
<polygon fill="#63b8ff" stroke="#63b8ff" points="92.52,-185.36 81.99,-184.17 89.48,-191.66 92.52,-185.36"/>
</g>
<!-- Node11&#45;&gt;Node4 -->
<g id="edge15" class="edge">
<title>Node11&#45;&gt;Node4</title>
<path fill="none" stroke="#63b8ff" d="M185.52,-219.98C195.54,-211.9 209.6,-198.8 217,-184 233.17,-151.65 236.15,-108.68 236.39,-84.37"/>
<polygon fill="#63b8ff" stroke="#63b8ff" points="239.89,-84.05 236.33,-74.07 232.89,-84.09 239.89,-84.05"/>
</g>
<!-- Node12 -->
<g id="node12" class="node">
<title>Node12</title>
<g id="a_node12"><a xlink:title=" ">
<polygon fill="#e0e0e0" stroke="#999999" points="208,-184 146,-184 146,-165 208,-165 208,-184"/>
<text text-anchor="middle" x="177" y="-172" font-family="Helvetica,sans-Serif" font-size="10.00">CCStdC.h</text>
</a>
</g>
</g>
<!-- Node11&#45;&gt;Node12 -->
<g id="edge14" class="edge">
<title>Node11&#45;&gt;Node12</title>
<path fill="none" stroke="#63b8ff" d="M174.5,-219.75C174.89,-212.8 175.45,-202.85 175.95,-194.13"/>
<polygon fill="#63b8ff" stroke="#63b8ff" points="179.44,-194.27 176.51,-184.09 172.45,-193.88 179.44,-194.27"/>
</g>
</g>
</svg>
