<?xml version="1.0" encoding="UTF-8" standalone="no"?>
<!DOCTYPE svg PUBLIC "-//W3C//DTD SVG 1.1//EN"
 "http://www.w3.org/Graphics/SVG/1.1/DTD/svg11.dtd">
<!-- Generated by graphviz version 2.43.0 (0)
 -->
<!-- Title: CCGridBase Pages: 1 -->
<svg width="548pt" height="279pt"
 viewBox="0.00 0.00 547.51 279.00" xmlns="http://www.w3.org/2000/svg" xmlns:xlink="http://www.w3.org/1999/xlink">
<g id="graph0" class="graph" transform="scale(1 1) rotate(0) translate(4 275)">
<title>CCGridBase</title>
<!-- Node1 -->
<g id="node1" class="node">
<title>Node1</title>
<g id="a_node1"><a xlink:title="Base class for other.">
<polygon fill="#999999" stroke="#666666" points="265.01,-19 191.01,-19 191.01,0 265.01,0 265.01,-19"/>
<text text-anchor="middle" x="228.01" y="-7" font-family="Helvetica,sans-Serif" font-size="10.00">CCGridBase</text>
</a>
</g>
</g>
<!-- Node2 -->
<g id="node2" class="node">
<title>Node2</title>
<g id="a_node2"><a xlink:href="../../d3/dbf/classcocos2d_1_1_c_c_object.html" target="_top" xlink:title="NA.">
<polygon fill="white" stroke="#666666" points="212.01,-215 150.01,-215 150.01,-196 212.01,-196 212.01,-215"/>
<text text-anchor="middle" x="181.01" y="-203" font-family="Helvetica,sans-Serif" font-size="10.00">CCObject</text>
</a>
</g>
</g>
<!-- Node2&#45;&gt;Node1 -->
<g id="edge1" class="edge">
<title>Node2&#45;&gt;Node1</title>
<path fill="none" stroke="#63b8ff" d="M139.89,-199.8C92.69,-193.46 19.64,-180.42 3.01,-159 -2.17,-152.33 1.34,-148.28 3.01,-140 13.77,-86.46 20.19,-59.38 70.01,-37 108.82,-19.56 157.68,-13.5 190.71,-11.45"/>
<polygon fill="#63b8ff" stroke="#63b8ff" points="139.46,-203.27 149.83,-201.09 140.36,-196.33 139.46,-203.27"/>
</g>
<!-- Node5 -->
<g id="node5" class="node">
<title>Node5</title>
<g id="a_node5"><a xlink:href="../../d7/dfd/classcocos2d_1_1_c_c_texture2_d.html" target="_top" xlink:title="CCTexture2D class.">
<polygon fill="white" stroke="#666666" points="202.01,-85 122.01,-85 122.01,-66 202.01,-66 202.01,-85"/>
<text text-anchor="middle" x="162.01" y="-73" font-family="Helvetica,sans-Serif" font-size="10.00">CCTexture2D</text>
</a>
</g>
</g>
<!-- Node2&#45;&gt;Node5 -->
<g id="edge5" class="edge">
<title>Node2&#45;&gt;Node5</title>
<path fill="none" stroke="#63b8ff" d="M173.33,-186.67C170.14,-178.41 166.78,-168.37 165.01,-159 159.99,-132.53 160.72,-100.44 161.47,-85.27"/>
<polygon fill="#63b8ff" stroke="#63b8ff" points="170.12,-188.06 177.14,-195.99 176.6,-185.41 170.12,-188.06"/>
</g>
<!-- Node6 -->
<g id="node6" class="node">
<title>Node6</title>
<g id="a_node6"><a xlink:href="../../db/d28/classcocos2d_1_1_c_c_g_l_program.html" target="_top" xlink:title="CCGLProgram Class that implements a glProgram.">
<polygon fill="white" stroke="#666666" points="258.01,-159 174.01,-159 174.01,-140 258.01,-140 258.01,-159"/>
<text text-anchor="middle" x="216.01" y="-147" font-family="Helvetica,sans-Serif" font-size="10.00">CCGLProgram</text>
</a>
</g>
</g>
<!-- Node2&#45;&gt;Node6 -->
<g id="edge8" class="edge">
<title>Node2&#45;&gt;Node6</title>
<path fill="none" stroke="#63b8ff" d="M192.31,-187.07C198.33,-177.77 205.47,-166.75 210.33,-159.25"/>
<polygon fill="#63b8ff" stroke="#63b8ff" points="189.29,-185.29 186.79,-195.58 195.16,-189.1 189.29,-185.29"/>
</g>
<!-- Node8 -->
<g id="node8" class="node">
<title>Node8</title>
<g id="a_node8"><a xlink:href="../../d3/d89/classcocos2d_1_1_c_c_grabber.html" target="_top" xlink:title="FBO class that grabs the the contents of the screen NA NA.">
<polygon fill="white" stroke="#666666" points="393.51,-122 324.51,-122 324.51,-103 393.51,-103 393.51,-122"/>
<text text-anchor="middle" x="359.01" y="-110" font-family="Helvetica,sans-Serif" font-size="10.00">CCGrabber</text>
</a>
</g>
</g>
<!-- Node2&#45;&gt;Node8 -->
<g id="edge11" class="edge">
<title>Node2&#45;&gt;Node8</title>
<path fill="none" stroke="#63b8ff" d="M206.91,-191.26C243.94,-172.32 310.97,-138.06 342.17,-122.1"/>
<polygon fill="#63b8ff" stroke="#63b8ff" points="205.06,-188.27 197.75,-195.94 208.25,-194.5 205.06,-188.27"/>
</g>
<!-- Node3 -->
<g id="node3" class="node">
<title>Node3</title>
<g id="a_node3"><a xlink:href="../../d5/d61/classcocos2d_1_1_c_c_copying.html" target="_top" xlink:title="NA NA.">
<polygon fill="white" stroke="#666666" points="216.01,-271 146.01,-271 146.01,-252 216.01,-252 216.01,-271"/>
<text text-anchor="middle" x="181.01" y="-259" font-family="Helvetica,sans-Serif" font-size="10.00">CCCopying</text>
</a>
</g>
</g>
<!-- Node3&#45;&gt;Node2 -->
<g id="edge2" class="edge">
<title>Node3&#45;&gt;Node2</title>
<path fill="none" stroke="#63b8ff" d="M181.01,-241.3C181.01,-232.41 181.01,-222.28 181.01,-215.25"/>
<polygon fill="#63b8ff" stroke="#63b8ff" points="177.51,-241.58 181.01,-251.58 184.51,-241.58 177.51,-241.58"/>
</g>
<!-- Node4 -->
<g id="node4" class="node">
<title>Node4</title>
<g id="a_node4"><a xlink:href="../../d9/d24/classcocos2d_1_1_c_c_size.html" target="_top" xlink:title="NA.">
<polygon fill="white" stroke="#666666" points="62.01,-159 12.01,-159 12.01,-140 62.01,-140 62.01,-159"/>
<text text-anchor="middle" x="37.01" y="-147" font-family="Helvetica,sans-Serif" font-size="10.00">CCSize</text>
</a>
</g>
</g>
<!-- Node4&#45;&gt;Node1 -->
<g id="edge3" class="edge">
<title>Node4&#45;&gt;Node1</title>
<path fill="none" stroke="#9a32cd" stroke-dasharray="5,2" d="M33.9,-129.76C31.95,-110.93 32.38,-82.41 49.01,-66 87.21,-28.29 150.53,-16.13 190.71,-12.26"/>
<polygon fill="#9a32cd" stroke="#9a32cd" points="30.45,-130.36 35.26,-139.8 37.39,-129.42 30.45,-130.36"/>
<text text-anchor="middle" x="81.01" y="-73" font-family="Helvetica,sans-Serif" font-size="10.00"> m_sGridSize</text>
</g>
<!-- Node4&#45;&gt;Node5 -->
<g id="edge6" class="edge">
<title>Node4&#45;&gt;Node5</title>
<path fill="none" stroke="#9a32cd" stroke-dasharray="5,2" d="M38.44,-129.86C40.12,-120.59 43.64,-109.91 51.01,-103 61.3,-93.34 94.53,-86.23 121.97,-81.81"/>
<polygon fill="#9a32cd" stroke="#9a32cd" points="34.97,-129.45 37.21,-139.8 41.92,-130.31 34.97,-129.45"/>
<text text-anchor="middle" x="91.51" y="-110" font-family="Helvetica,sans-Serif" font-size="10.00"> m_tContentSize</text>
</g>
<!-- Node5&#45;&gt;Node1 -->
<g id="edge4" class="edge">
<title>Node5&#45;&gt;Node1</title>
<path fill="none" stroke="#9a32cd" stroke-dasharray="5,2" d="M173.56,-57.44C178.53,-50.7 184.65,-43.13 191.01,-37 197.95,-30.31 206.67,-23.98 213.91,-19.18"/>
<polygon fill="#9a32cd" stroke="#9a32cd" points="170.51,-55.7 167.59,-65.88 176.22,-59.74 170.51,-55.7"/>
<text text-anchor="middle" x="221.51" y="-40" font-family="Helvetica,sans-Serif" font-size="10.00"> m_pTexture</text>
</g>
<!-- Node6&#45;&gt;Node1 -->
<g id="edge12" class="edge">
<title>Node6&#45;&gt;Node1</title>
<path fill="none" stroke="#9a32cd" stroke-dasharray="5,2" d="M265.78,-135.21C271.38,-131.77 276.37,-127.45 280.01,-122 284.7,-114.98 282.75,-110.99 280.01,-103 276.72,-93.41 270.62,-94.02 266.01,-85 255.89,-65.21 262.85,-56.4 252.01,-37 248.25,-30.28 242.5,-23.85 237.57,-19.01"/>
<polygon fill="#9a32cd" stroke="#9a32cd" points="263.89,-132.25 256.59,-139.92 267.08,-138.48 263.89,-132.25"/>
<text text-anchor="middle" x="316.01" y="-73" font-family="Helvetica,sans-Serif" font-size="10.00"> m_pShaderProgram</text>
</g>
<!-- Node6&#45;&gt;Node5 -->
<g id="edge7" class="edge">
<title>Node6&#45;&gt;Node5</title>
<path fill="none" stroke="#9a32cd" stroke-dasharray="5,2" d="M191.99,-133.78C187.6,-130.31 183.35,-126.35 180.01,-122 171.4,-110.83 166.39,-95.01 163.92,-85.27"/>
<polygon fill="#9a32cd" stroke="#9a32cd" points="190.24,-136.83 200.41,-139.79 194.31,-131.13 190.24,-136.83"/>
<text text-anchor="middle" x="230.01" y="-110" font-family="Helvetica,sans-Serif" font-size="10.00"> m_pShaderProgram</text>
</g>
<!-- Node7 -->
<g id="node7" class="node">
<title>Node7</title>
<g id="a_node7"><a xlink:href="../../d2/df3/classcocos2d_1_1_c_c_point.html" target="_top" xlink:title="NA.">
<polygon fill="white" stroke="#666666" points="539.51,-85 484.51,-85 484.51,-66 539.51,-66 539.51,-85"/>
<text text-anchor="middle" x="512.01" y="-73" font-family="Helvetica,sans-Serif" font-size="10.00">CCPoint</text>
</a>
</g>
</g>
<!-- Node7&#45;&gt;Node1 -->
<g id="edge9" class="edge">
<title>Node7&#45;&gt;Node1</title>
<path fill="none" stroke="#9a32cd" stroke-dasharray="5,2" d="M484.47,-61.77C465.58,-53.53 439.74,-43.22 416.01,-37 364.67,-23.55 303.55,-16.54 265.25,-13.18"/>
<polygon fill="#9a32cd" stroke="#9a32cd" points="483.11,-64.99 493.67,-65.86 485.95,-58.6 483.11,-64.99"/>
<text text-anchor="middle" x="474.01" y="-40" font-family="Helvetica,sans-Serif" font-size="10.00"> m_obStep</text>
</g>
<!-- Node8&#45;&gt;Node1 -->
<g id="edge10" class="edge">
<title>Node8&#45;&gt;Node1</title>
<path fill="none" stroke="#9a32cd" stroke-dasharray="5,2" d="M369.62,-93.57C373.41,-84.66 375.53,-74.09 370.01,-66 346.65,-31.79 298.78,-18.67 265.1,-13.63"/>
<polygon fill="#9a32cd" stroke="#9a32cd" points="366.38,-92.22 364.95,-102.71 372.62,-95.4 366.38,-92.22"/>
<text text-anchor="middle" x="405.01" y="-73" font-family="Helvetica,sans-Serif" font-size="10.00"> m_pGrabber</text>
</g>
</g>
</svg>
