<?xml version="1.0" encoding="UTF-8" standalone="no"?>
<!DOCTYPE svg PUBLIC "-//W3C//DTD SVG 1.1//EN"
 "http://www.w3.org/Graphics/SVG/1.1/DTD/svg11.dtd">
<!-- Generated by graphviz version 2.43.0 (0)
 -->
<!-- Title: CCParticleFlower Pages: 1 -->
<svg width="195pt" height="302pt"
 viewBox="0.00 0.00 195.00 302.00" xmlns="http://www.w3.org/2000/svg" xmlns:xlink="http://www.w3.org/1999/xlink">
<g id="graph0" class="graph" transform="scale(1 1) rotate(0) translate(4 298)">
<title>CCParticleFlower</title>
<!-- Node1 -->
<g id="node1" class="node">
<title>Node1</title>
<g id="a_node1"><a xlink:title="A flower particle system.">
<polygon fill="#999999" stroke="#666666" points="133.5,-19 34.5,-19 34.5,0 133.5,0 133.5,-19"/>
<text text-anchor="middle" x="84" y="-7" font-family="Helvetica,sans-Serif" font-size="10.00">CCParticleFlower</text>
</a>
</g>
</g>
<!-- Node2 -->
<g id="node2" class="node">
<title>Node2</title>
<g id="a_node2"><a xlink:href="../../d9/df5/classcocos2d_1_1_c_c_particle_system_quad.html" target="_top" xlink:title="CCParticleSystemQuad is a subclass of CCParticleSystem.">
<polygon fill="white" stroke="#666666" points="148,-74 20,-74 20,-55 148,-55 148,-74"/>
<text text-anchor="middle" x="84" y="-62" font-family="Helvetica,sans-Serif" font-size="10.00">CCParticleSystemQuad</text>
</a>
</g>
</g>
<!-- Node2&#45;&gt;Node1 -->
<g id="edge1" class="edge">
<title>Node2&#45;&gt;Node1</title>
<path fill="none" stroke="#63b8ff" d="M84,-44.66C84,-35.93 84,-25.99 84,-19.09"/>
<polygon fill="#63b8ff" stroke="#63b8ff" points="80.5,-44.75 84,-54.75 87.5,-44.75 80.5,-44.75"/>
</g>
<!-- Node3 -->
<g id="node3" class="node">
<title>Node3</title>
<g id="a_node3"><a xlink:href="../../dd/dd8/classcocos2d_1_1_c_c_particle_system.html" target="_top" xlink:title="Particle System base class.">
<polygon fill="white" stroke="#666666" points="135.5,-129 32.5,-129 32.5,-110 135.5,-110 135.5,-129"/>
<text text-anchor="middle" x="84" y="-117" font-family="Helvetica,sans-Serif" font-size="10.00">CCParticleSystem</text>
</a>
</g>
</g>
<!-- Node3&#45;&gt;Node2 -->
<g id="edge2" class="edge">
<title>Node3&#45;&gt;Node2</title>
<path fill="none" stroke="#63b8ff" d="M84,-99.66C84,-90.93 84,-80.99 84,-74.09"/>
<polygon fill="#63b8ff" stroke="#63b8ff" points="80.5,-99.75 84,-109.75 87.5,-99.75 80.5,-99.75"/>
</g>
<!-- Node4 -->
<g id="node4" class="node">
<title>Node4</title>
<g id="a_node4"><a xlink:href="../../d0/ded/classcocos2d_1_1_c_c_node.html" target="_top" xlink:title="CCNode is the main element.">
<polygon fill="white" stroke="#666666" points="63,-184 7,-184 7,-165 63,-165 63,-184"/>
<text text-anchor="middle" x="35" y="-172" font-family="Helvetica,sans-Serif" font-size="10.00">CCNode</text>
</a>
</g>
</g>
<!-- Node4&#45;&gt;Node3 -->
<g id="edge3" class="edge">
<title>Node4&#45;&gt;Node3</title>
<path fill="none" stroke="#63b8ff" d="M50.03,-157.24C58.62,-147.95 69.04,-136.68 76.06,-129.09"/>
<polygon fill="#63b8ff" stroke="#63b8ff" points="47.31,-155.03 43.09,-164.75 52.45,-159.78 47.31,-155.03"/>
</g>
<!-- Node5 -->
<g id="node5" class="node">
<title>Node5</title>
<g id="a_node5"><a xlink:href="../../d3/dbf/classcocos2d_1_1_c_c_object.html" target="_top" xlink:title="NA.">
<polygon fill="white" stroke="#666666" points="66,-239 4,-239 4,-220 66,-220 66,-239"/>
<text text-anchor="middle" x="35" y="-227" font-family="Helvetica,sans-Serif" font-size="10.00">CCObject</text>
</a>
</g>
</g>
<!-- Node5&#45;&gt;Node4 -->
<g id="edge4" class="edge">
<title>Node5&#45;&gt;Node4</title>
<path fill="none" stroke="#63b8ff" d="M35,-209.66C35,-200.93 35,-190.99 35,-184.09"/>
<polygon fill="#63b8ff" stroke="#63b8ff" points="31.5,-209.75 35,-219.75 38.5,-209.75 31.5,-209.75"/>
</g>
<!-- Node6 -->
<g id="node6" class="node">
<title>Node6</title>
<g id="a_node6"><a xlink:href="../../d5/d61/classcocos2d_1_1_c_c_copying.html" target="_top" xlink:title="NA NA.">
<polygon fill="white" stroke="#666666" points="70,-294 0,-294 0,-275 70,-275 70,-294"/>
<text text-anchor="middle" x="35" y="-282" font-family="Helvetica,sans-Serif" font-size="10.00">CCCopying</text>
</a>
</g>
</g>
<!-- Node6&#45;&gt;Node5 -->
<g id="edge5" class="edge">
<title>Node6&#45;&gt;Node5</title>
<path fill="none" stroke="#63b8ff" d="M35,-264.66C35,-255.93 35,-245.99 35,-239.09"/>
<polygon fill="#63b8ff" stroke="#63b8ff" points="31.5,-264.75 35,-274.75 38.5,-264.75 31.5,-264.75"/>
</g>
<!-- Node7 -->
<g id="node7" class="node">
<title>Node7</title>
<g id="a_node7"><a xlink:href="../../db/d1b/classcocos2d_1_1_c_c_texture_protocol.html" target="_top" xlink:title="CCNode objects that uses a CCTexture2D to render the images.">
<polygon fill="white" stroke="#666666" points="187,-184 81,-184 81,-165 187,-165 187,-184"/>
<text text-anchor="middle" x="134" y="-172" font-family="Helvetica,sans-Serif" font-size="10.00">CCTextureProtocol</text>
</a>
</g>
</g>
<!-- Node7&#45;&gt;Node3 -->
<g id="edge6" class="edge">
<title>Node7&#45;&gt;Node3</title>
<path fill="none" stroke="#63b8ff" d="M118.66,-157.24C109.9,-147.95 99.26,-136.68 92.1,-129.09"/>
<polygon fill="#63b8ff" stroke="#63b8ff" points="116.34,-159.88 125.74,-164.75 121.43,-155.07 116.34,-159.88"/>
</g>
<!-- Node8 -->
<g id="node8" class="node">
<title>Node8</title>
<g id="a_node8"><a xlink:href="../../d6/d82/classcocos2d_1_1_c_c_blend_protocol.html" target="_top" xlink:title="Specify the blending function according glBlendFunc Please refer to glBlendFunc in OpenGL ES Manual h...">
<polygon fill="white" stroke="#666666" points="183,-239 85,-239 85,-220 183,-220 183,-239"/>
<text text-anchor="middle" x="134" y="-227" font-family="Helvetica,sans-Serif" font-size="10.00">CCBlendProtocol</text>
</a>
</g>
</g>
<!-- Node8&#45;&gt;Node7 -->
<g id="edge7" class="edge">
<title>Node8&#45;&gt;Node7</title>
<path fill="none" stroke="#63b8ff" d="M134,-209.66C134,-200.93 134,-190.99 134,-184.09"/>
<polygon fill="#63b8ff" stroke="#63b8ff" points="130.5,-209.75 134,-219.75 137.5,-209.75 130.5,-209.75"/>
</g>
</g>
</svg>
