<?xml version="1.0" encoding="UTF-8" standalone="no"?>
<!DOCTYPE svg PUBLIC "-//W3C//DTD SVG 1.1//EN"
 "http://www.w3.org/Graphics/SVG/1.1/DTD/svg11.dtd">
<!-- Generated by graphviz version 2.43.0 (0)
 -->
<!-- Title: CCDrawNode Pages: 1 -->
<svg width="1281pt" height="705pt"
 viewBox="0.00 0.00 1281.00 705.08" xmlns="http://www.w3.org/2000/svg" xmlns:xlink="http://www.w3.org/1999/xlink">
<g id="graph0" class="graph" transform="scale(1 1) rotate(0) translate(4 701.08)">
<title>CCDrawNode</title>
<!-- Node1 -->
<g id="node1" class="node">
<title>Node1</title>
<g id="a_node1"><a xlink:title="CCDrawNode Node that draws dots, segments and polygons.">
<polygon fill="#bfbfbf" stroke="black" points="1192,-57.5 1192,-76.5 1273,-76.5 1273,-57.5 1192,-57.5"/>
<text text-anchor="middle" x="1232.5" y="-64.5" font-family="Helvetica,sans-Serif" font-size="10.00">CCDrawNode</text>
</a>
</g>
</g>
<!-- Node2 -->
<g id="node2" class="node">
<title>Node2</title>
<g id="a_node2"><a xlink:href="../../d0/ded/classcocos2d_1_1_c_c_node.html" target="_top" xlink:title="CCNode is the main element.">
<polygon fill="none" stroke="black" points="1007,-330.5 1007,-349.5 1063,-349.5 1063,-330.5 1007,-330.5"/>
<text text-anchor="middle" x="1035" y="-337.5" font-family="Helvetica,sans-Serif" font-size="10.00">CCNode</text>
</a>
</g>
</g>
<!-- Node2&#45;&gt;Node1 -->
<g id="edge1" class="edge">
<title>Node2&#45;&gt;Node1</title>
<path fill="none" stroke="midnightblue" d="M1048.96,-321.9C1086.78,-269.09 1196.1,-116.43 1224.63,-76.6"/>
<polygon fill="midnightblue" stroke="midnightblue" points="1045.93,-320.12 1042.96,-330.28 1051.63,-324.19 1045.93,-320.12"/>
</g>
<!-- Node2&#45;&gt;Node2 -->
<g id="edge23" class="edge">
<title>Node2&#45;&gt;Node2</title>
<path fill="none" stroke="#9a32cd" stroke-dasharray="5,2" d="M1016.11,-359.4C1017.37,-364.31 1023.67,-368 1035,-368 1053.13,-368 1058.37,-358.57 1050.72,-349.76"/>
<polygon fill="#9a32cd" stroke="#9a32cd" points="1019.48,-360.35 1019.28,-349.76 1012.83,-358.17 1019.48,-360.35"/>
<text text-anchor="middle" x="1035" y="-371" font-family="Helvetica,sans-Serif" font-size="10.00"> m_pParent</text>
</g>
<!-- Node3 -->
<g id="node3" class="node">
<title>Node3</title>
<g id="a_node3"><a xlink:href="../../d3/dbf/classcocos2d_1_1_c_c_object.html" target="_top" xlink:title="NA.">
<polygon fill="none" stroke="black" points="107,-426.5 107,-445.5 169,-445.5 169,-426.5 107,-426.5"/>
<text text-anchor="middle" x="138" y="-433.5" font-family="Helvetica,sans-Serif" font-size="10.00">CCObject</text>
</a>
</g>
</g>
<!-- Node3&#45;&gt;Node2 -->
<g id="edge2" class="edge">
<title>Node3&#45;&gt;Node2</title>
<path fill="none" stroke="midnightblue" d="M140.88,-455.68C145.9,-504.36 160.99,-628.71 187,-660 205.47,-682.22 218.11,-685 247,-685 247,-685 247,-685 758,-685 852.88,-685 900.28,-724.35 970,-660 1017.25,-616.38 1031.03,-398.51 1033.54,-349.71"/>
<polygon fill="midnightblue" stroke="midnightblue" points="144.34,-455.13 139.87,-445.52 137.38,-455.82 144.34,-455.13"/>
</g>
<!-- Node3&#45;&gt;Node2 -->
<g id="edge24" class="edge">
<title>Node3&#45;&gt;Node2</title>
<path fill="none" stroke="#9a32cd" stroke-dasharray="5,2" d="M139.99,-455.56C143.77,-507.69 161.83,-646 247,-646 247,-646 247,-646 758,-646 853.72,-646 900.41,-673.73 970,-608 1008.95,-571.21 1028.74,-393.62 1033.08,-349.79"/>
<polygon fill="#9a32cd" stroke="#9a32cd" points="143.48,-455.33 139.36,-445.57 136.49,-455.77 143.48,-455.33"/>
<text text-anchor="middle" x="500" y="-649" font-family="Helvetica,sans-Serif" font-size="10.00"> m_pUserObject</text>
</g>
<!-- Node8 -->
<g id="node8" class="node">
<title>Node8</title>
<g id="a_node8"><a xlink:href="../../d2/d51/classcocos2d_1_1_c_c_camera.html" target="_top" xlink:title="A CCCamera is used in every CCNode.">
<polygon fill="none" stroke="black" points="336,-584.5 336,-603.5 404,-603.5 404,-584.5 336,-584.5"/>
<text text-anchor="middle" x="370" y="-591.5" font-family="Helvetica,sans-Serif" font-size="10.00">CCCamera</text>
</a>
</g>
</g>
<!-- Node3&#45;&gt;Node8 -->
<g id="edge8" class="edge">
<title>Node3&#45;&gt;Node8</title>
<path fill="none" stroke="midnightblue" d="M145.69,-455.24C155.23,-479.89 175.11,-522.27 206,-546 244.37,-575.47 300.47,-586.88 335.84,-591.28"/>
<polygon fill="midnightblue" stroke="midnightblue" points="148.87,-453.75 142.12,-445.58 142.3,-456.17 148.87,-453.75"/>
</g>
<!-- Node9 -->
<g id="node9" class="node">
<title>Node9</title>
<g id="a_node9"><a xlink:href="../../d6/d70/classcocos2d_1_1_c_c_grid_base.html" target="_top" xlink:title="Base class for other.">
<polygon fill="none" stroke="black" points="720,-391.5 720,-410.5 794,-410.5 794,-391.5 720,-391.5"/>
<text text-anchor="middle" x="757" y="-398.5" font-family="Helvetica,sans-Serif" font-size="10.00">CCGridBase</text>
</a>
</g>
</g>
<!-- Node3&#45;&gt;Node9 -->
<g id="edge10" class="edge">
<title>Node3&#45;&gt;Node9</title>
<path fill="none" stroke="midnightblue" d="M153.03,-418.23C165.49,-403.59 184.94,-383.29 206,-371 246.81,-347.19 261.23,-347.74 308,-341 468.47,-317.89 518.31,-313.37 672,-365 680.89,-367.99 681.58,-371.88 690,-376 701.88,-381.82 715.49,-387.18 727.25,-391.43"/>
<polygon fill="midnightblue" stroke="midnightblue" points="150.21,-416.16 146.55,-426.1 155.61,-420.61 150.21,-416.16"/>
</g>
<!-- Node10 -->
<g id="node10" class="node">
<title>Node10</title>
<g id="a_node10"><a xlink:href="../../d7/dfd/classcocos2d_1_1_c_c_texture2_d.html" target="_top" xlink:title="CCTexture2D class.">
<polygon fill="none" stroke="black" points="460,-467.5 460,-486.5 540,-486.5 540,-467.5 460,-467.5"/>
<text text-anchor="middle" x="500" y="-474.5" font-family="Helvetica,sans-Serif" font-size="10.00">CCTexture2D</text>
</a>
</g>
</g>
<!-- Node3&#45;&gt;Node10 -->
<g id="edge13" class="edge">
<title>Node3&#45;&gt;Node10</title>
<path fill="none" stroke="midnightblue" d="M179.15,-443.77C213.29,-450.11 263.69,-458.83 308,-464 360.33,-470.1 421.07,-473.63 459.76,-475.43"/>
<polygon fill="midnightblue" stroke="midnightblue" points="179.57,-440.29 169.1,-441.89 178.28,-447.17 179.57,-440.29"/>
</g>
<!-- Node11 -->
<g id="node11" class="node">
<title>Node11</title>
<g id="a_node11"><a xlink:href="../../db/d28/classcocos2d_1_1_c_c_g_l_program.html" target="_top" xlink:title="CCGLProgram Class that implements a glProgram.">
<polygon fill="none" stroke="black" points="206,-517.5 206,-536.5 290,-536.5 290,-517.5 206,-517.5"/>
<text text-anchor="middle" x="248" y="-524.5" font-family="Helvetica,sans-Serif" font-size="10.00">CCGLProgram</text>
</a>
</g>
</g>
<!-- Node3&#45;&gt;Node11 -->
<g id="edge16" class="edge">
<title>Node3&#45;&gt;Node11</title>
<path fill="none" stroke="midnightblue" d="M151.73,-453.75C160.72,-465.5 173.52,-480.76 187,-492 199.22,-502.2 214.8,-511.18 227.01,-517.5"/>
<polygon fill="midnightblue" stroke="midnightblue" points="154.42,-451.51 145.65,-445.57 148.81,-455.69 154.42,-451.51"/>
</g>
<!-- Node12 -->
<g id="node12" class="node">
<title>Node12</title>
<g id="a_node12"><a xlink:href="../../d3/d89/classcocos2d_1_1_c_c_grabber.html" target="_top" xlink:title="FBO class that grabs the the contents of the screen NA NA.">
<polygon fill="none" stroke="black" points="335.5,-350.5 335.5,-369.5 404.5,-369.5 404.5,-350.5 335.5,-350.5"/>
<text text-anchor="middle" x="370" y="-357.5" font-family="Helvetica,sans-Serif" font-size="10.00">CCGrabber</text>
</a>
</g>
</g>
<!-- Node3&#45;&gt;Node12 -->
<g id="edge19" class="edge">
<title>Node3&#45;&gt;Node12</title>
<path fill="none" stroke="midnightblue" d="M163.01,-421.19C175.48,-413.99 191.17,-405.7 206,-400 249.38,-383.33 301.98,-371.91 335.47,-365.66"/>
<polygon fill="midnightblue" stroke="midnightblue" points="161,-418.31 154.17,-426.41 164.56,-424.33 161,-418.31"/>
</g>
<!-- Node13 -->
<g id="node13" class="node">
<title>Node13</title>
<g id="a_node13"><a xlink:href="../../d9/d2e/classcocos2d_1_1_c_c_array.html" target="_top" xlink:title="NA.">
<polygon fill="none" stroke="black" points="220,-213.5 220,-232.5 276,-232.5 276,-213.5 220,-213.5"/>
<text text-anchor="middle" x="248" y="-220.5" font-family="Helvetica,sans-Serif" font-size="10.00">CCArray</text>
</a>
</g>
</g>
<!-- Node3&#45;&gt;Node13 -->
<g id="edge22" class="edge">
<title>Node3&#45;&gt;Node13</title>
<path fill="none" stroke="midnightblue" d="M143.02,-416.56C149.44,-388.09 163.72,-334.02 187,-293 200.59,-269.06 223,-245.69 236.25,-232.93"/>
<polygon fill="midnightblue" stroke="midnightblue" points="139.57,-415.93 140.87,-426.45 146.41,-417.42 139.57,-415.93"/>
</g>
<!-- Node14 -->
<g id="node14" class="node">
<title>Node14</title>
<g id="a_node14"><a xlink:href="../../de/dee/classcocos2d_1_1_c_c_scheduler.html" target="_top" xlink:title="Scheduler is responsible for triggering the scheduled callbacks.">
<polygon fill="none" stroke="black" points="461,-169.5 461,-188.5 539,-188.5 539,-169.5 461,-169.5"/>
<text text-anchor="middle" x="500" y="-176.5" font-family="Helvetica,sans-Serif" font-size="10.00">CCScheduler</text>
</a>
</g>
</g>
<!-- Node3&#45;&gt;Node14 -->
<g id="edge27" class="edge">
<title>Node3&#45;&gt;Node14</title>
<path fill="none" stroke="midnightblue" d="M138.57,-416.29C138.72,-371.72 145.62,-262.5 206,-204 275.3,-136.86 401.97,-155.23 463.54,-169.44"/>
<polygon fill="midnightblue" stroke="midnightblue" points="135.07,-416.41 138.65,-426.39 142.07,-416.36 135.07,-416.41"/>
</g>
<!-- Node15 -->
<g id="node15" class="node">
<title>Node15</title>
<g id="a_node15"><a xlink:href="../../d5/dcb/classcocos2d_1_1_c_c_action_manager.html" target="_top" xlink:title="CCActionManager is a singleton that manages all the actions.">
<polygon fill="none" stroke="black" points="568,-121.5 568,-140.5 672,-140.5 672,-121.5 568,-121.5"/>
<text text-anchor="middle" x="620" y="-128.5" font-family="Helvetica,sans-Serif" font-size="10.00">CCActionManager</text>
</a>
</g>
</g>
<!-- Node3&#45;&gt;Node15 -->
<g id="edge30" class="edge">
<title>Node3&#45;&gt;Node15</title>
<path fill="none" stroke="midnightblue" d="M140.69,-416.23C146.1,-358.24 165.06,-190.65 206,-158 318.36,-68.4 507.23,-102.32 584.49,-121.45"/>
<polygon fill="midnightblue" stroke="midnightblue" points="137.2,-416.02 139.79,-426.29 144.17,-416.64 137.2,-416.02"/>
</g>
<!-- Node4 -->
<g id="node4" class="node">
<title>Node4</title>
<g id="a_node4"><a xlink:href="../../d5/d61/classcocos2d_1_1_c_c_copying.html" target="_top" xlink:title="NA NA.">
<polygon fill="none" stroke="black" points="0,-426.5 0,-445.5 70,-445.5 70,-426.5 0,-426.5"/>
<text text-anchor="middle" x="35" y="-433.5" font-family="Helvetica,sans-Serif" font-size="10.00">CCCopying</text>
</a>
</g>
</g>
<!-- Node4&#45;&gt;Node3 -->
<g id="edge3" class="edge">
<title>Node4&#45;&gt;Node3</title>
<path fill="none" stroke="midnightblue" d="M80.2,-436C89.22,-436 98.51,-436 106.9,-436"/>
<polygon fill="midnightblue" stroke="midnightblue" points="80.19,-432.5 70.19,-436 80.19,-439.5 80.19,-432.5"/>
</g>
<!-- Node5 -->
<g id="node5" class="node">
<title>Node5</title>
<g id="a_node5"><a xlink:href="../../d2/df3/classcocos2d_1_1_c_c_point.html" target="_top" xlink:title="NA.">
<polygon fill="none" stroke="black" points="472.5,-259.5 472.5,-278.5 527.5,-278.5 527.5,-259.5 472.5,-259.5"/>
<text text-anchor="middle" x="500" y="-266.5" font-family="Helvetica,sans-Serif" font-size="10.00">CCPoint</text>
</a>
</g>
</g>
<!-- Node5&#45;&gt;Node2 -->
<g id="edge4" class="edge">
<title>Node5&#45;&gt;Node2</title>
<path fill="none" stroke="#9a32cd" stroke-dasharray="5,2" d="M537.9,-262.83C574.71,-258.67 631.47,-257.82 672,-283 685.21,-291.21 676.81,-304.77 690,-313 742.6,-345.82 935.05,-343.22 1006.8,-341.02"/>
<polygon fill="#9a32cd" stroke="#9a32cd" points="537.09,-259.41 527.62,-264.14 537.98,-266.35 537.09,-259.41"/>
<text text-anchor="middle" x="757" y="-364" font-family="Helvetica,sans-Serif" font-size="10.00"> m_obAnchorPoint</text>
<text text-anchor="middle" x="757" y="-353" font-family="Helvetica,sans-Serif" font-size="10.00">m_obAnchorPointInPoints</text>
<text text-anchor="middle" x="757" y="-342" font-family="Helvetica,sans-Serif" font-size="10.00">m_obPosition</text>
</g>
<!-- Node5&#45;&gt;Node9 -->
<g id="edge17" class="edge">
<title>Node5&#45;&gt;Node9</title>
<path fill="none" stroke="#9a32cd" stroke-dasharray="5,2" d="M537.72,-275.27C586.5,-283.75 667.14,-298.34 672,-303 696.44,-326.42 667.42,-351.78 690,-377 697.73,-385.63 708.81,-391.16 719.69,-394.7"/>
<polygon fill="#9a32cd" stroke="#9a32cd" points="538.28,-271.81 527.83,-273.56 537.09,-278.71 538.28,-271.81"/>
<text text-anchor="middle" x="620" y="-306" font-family="Helvetica,sans-Serif" font-size="10.00"> m_obStep</text>
</g>
<!-- Node6 -->
<g id="node6" class="node">
<title>Node6</title>
<g id="a_node6"><a xlink:href="../../d9/d24/classcocos2d_1_1_c_c_size.html" target="_top" xlink:title="NA.">
<polygon fill="none" stroke="black" points="223,-409.5 223,-428.5 273,-428.5 273,-409.5 223,-409.5"/>
<text text-anchor="middle" x="248" y="-416.5" font-family="Helvetica,sans-Serif" font-size="10.00">CCSize</text>
</a>
</g>
</g>
<!-- Node6&#45;&gt;Node2 -->
<g id="edge5" class="edge">
<title>Node6&#45;&gt;Node2</title>
<path fill="none" stroke="#9a32cd" stroke-dasharray="5,2" d="M283.25,-421.04C372.48,-425.93 619.4,-436.7 824,-420 889.54,-414.65 910.53,-424.06 970,-396 993.5,-384.91 1014.94,-362.6 1026.04,-349.74"/>
<polygon fill="#9a32cd" stroke="#9a32cd" points="283.34,-417.54 273.16,-420.48 282.95,-424.53 283.34,-417.54"/>
<text text-anchor="middle" x="620" y="-431" font-family="Helvetica,sans-Serif" font-size="10.00"> m_obContentSize</text>
</g>
<!-- Node6&#45;&gt;Node9 -->
<g id="edge11" class="edge">
<title>Node6&#45;&gt;Node9</title>
<path fill="none" stroke="#9a32cd" stroke-dasharray="5,2" d="M283.16,-411.62C291.27,-410.15 299.91,-408.81 308,-408 460.48,-392.71 643.58,-396.8 719.88,-399.51"/>
<polygon fill="#9a32cd" stroke="#9a32cd" points="282.43,-408.2 273.27,-413.52 283.75,-415.07 282.43,-408.2"/>
<text text-anchor="middle" x="500" y="-401" font-family="Helvetica,sans-Serif" font-size="10.00"> m_sGridSize</text>
</g>
<!-- Node6&#45;&gt;Node10 -->
<g id="edge14" class="edge">
<title>Node6&#45;&gt;Node10</title>
<path fill="none" stroke="#9a32cd" stroke-dasharray="5,2" d="M283.08,-425.36C291.25,-426.88 299.93,-428.5 308,-430 363.11,-440.25 377.89,-438.39 432,-453 446.55,-456.93 462.45,-462.56 475.11,-467.39"/>
<polygon fill="#9a32cd" stroke="#9a32cd" points="283.58,-421.89 273.11,-423.5 282.3,-428.77 283.58,-421.89"/>
<text text-anchor="middle" x="370" y="-456" font-family="Helvetica,sans-Serif" font-size="10.00"> m_tContentSize</text>
</g>
<!-- Node7 -->
<g id="node7" class="node">
<title>Node7</title>
<g id="a_node7"><a xlink:href="../../da/dbf/structcocos2d_1_1_c_c_affine_transform.html" target="_top" xlink:title=" ">
<polygon fill="none" stroke="black" points="703.5,-284.5 703.5,-303.5 810.5,-303.5 810.5,-284.5 703.5,-284.5"/>
<text text-anchor="middle" x="757" y="-291.5" font-family="Helvetica,sans-Serif" font-size="10.00">CCAffineTransform</text>
</a>
</g>
</g>
<!-- Node7&#45;&gt;Node2 -->
<g id="edge6" class="edge">
<title>Node7&#45;&gt;Node2</title>
<path fill="none" stroke="#9a32cd" stroke-dasharray="5,2" d="M820.89,-283.47C863.95,-278.71 921.75,-277.19 970,-293 992.27,-300.3 1013.19,-318.63 1024.72,-330.12"/>
<polygon fill="#9a32cd" stroke="#9a32cd" points="820.35,-280.01 810.84,-284.67 821.18,-286.96 820.35,-280.01"/>
<text text-anchor="middle" x="906" y="-318" font-family="Helvetica,sans-Serif" font-size="10.00"> m_sAdditionalTransform</text>
<text text-anchor="middle" x="906" y="-307" font-family="Helvetica,sans-Serif" font-size="10.00">m_sInverse</text>
<text text-anchor="middle" x="906" y="-296" font-family="Helvetica,sans-Serif" font-size="10.00">m_sTransform</text>
</g>
<!-- Node8&#45;&gt;Node2 -->
<g id="edge7" class="edge">
<title>Node8&#45;&gt;Node2</title>
<path fill="none" stroke="#9a32cd" stroke-dasharray="5,2" d="M414.39,-599.09C537.3,-612.54 884.39,-643.55 970,-576 1007.08,-546.75 1028.05,-390.07 1032.9,-349.56"/>
<polygon fill="#9a32cd" stroke="#9a32cd" points="414.56,-595.59 404.23,-597.96 413.78,-602.54 414.56,-595.59"/>
<text text-anchor="middle" x="620" y="-620" font-family="Helvetica,sans-Serif" font-size="10.00"> m_pCamera</text>
</g>
<!-- Node9&#45;&gt;Node2 -->
<g id="edge9" class="edge">
<title>Node9&#45;&gt;Node2</title>
<path fill="none" stroke="#9a32cd" stroke-dasharray="5,2" d="M804.06,-390.82C861.93,-378.03 959.37,-356.49 1006.64,-346.05"/>
<polygon fill="#9a32cd" stroke="#9a32cd" points="803.09,-387.45 794.08,-393.03 804.6,-394.28 803.09,-387.45"/>
<text text-anchor="middle" x="906" y="-384" font-family="Helvetica,sans-Serif" font-size="10.00"> m_pGrid</text>
</g>
<!-- Node10&#45;&gt;Node9 -->
<g id="edge12" class="edge">
<title>Node10&#45;&gt;Node9</title>
<path fill="none" stroke="#9a32cd" stroke-dasharray="5,2" d="M550.53,-475.45C585.39,-473.07 632.65,-467.22 672,-453 699.9,-442.91 728.46,-422.71 744.04,-410.67"/>
<polygon fill="#9a32cd" stroke="#9a32cd" points="549.9,-471.98 540.13,-476.08 550.32,-478.97 549.9,-471.98"/>
<text text-anchor="middle" x="620" y="-476" font-family="Helvetica,sans-Serif" font-size="10.00"> m_pTexture</text>
</g>
<!-- Node11&#45;&gt;Node2 -->
<g id="edge25" class="edge">
<title>Node11&#45;&gt;Node2</title>
<path fill="none" stroke="#9a32cd" stroke-dasharray="5,2" d="M300.23,-538.06C302.85,-538.43 305.45,-538.74 308,-539 415.02,-549.77 443.04,-548.34 550,-537 742.58,-516.59 810.25,-530.47 970,-421 998.09,-401.75 1019.74,-366.46 1029.03,-349.54"/>
<polygon fill="#9a32cd" stroke="#9a32cd" points="300.53,-534.57 290.1,-536.46 299.43,-541.48 300.53,-534.57"/>
<text text-anchor="middle" x="620" y="-537" font-family="Helvetica,sans-Serif" font-size="10.00"> m_pShaderProgram</text>
</g>
<!-- Node11&#45;&gt;Node9 -->
<g id="edge20" class="edge">
<title>Node11&#45;&gt;Node9</title>
<path fill="none" stroke="#9a32cd" stroke-dasharray="5,2" d="M300.32,-526.99C398.39,-526.21 608.37,-520.63 672,-488 708.24,-469.41 737.79,-429.03 749.98,-410.57"/>
<polygon fill="#9a32cd" stroke="#9a32cd" points="300.03,-523.49 290.05,-527.06 300.08,-530.49 300.03,-523.49"/>
<text text-anchor="middle" x="500" y="-525" font-family="Helvetica,sans-Serif" font-size="10.00"> m_pShaderProgram</text>
</g>
<!-- Node11&#45;&gt;Node10 -->
<g id="edge15" class="edge">
<title>Node11&#45;&gt;Node10</title>
<path fill="none" stroke="#9a32cd" stroke-dasharray="5,2" d="M294.6,-515.08C299.12,-514 303.64,-512.95 308,-512 322.57,-508.82 408.3,-493.3 459.82,-484.03"/>
<polygon fill="#9a32cd" stroke="#9a32cd" points="293.67,-511.71 284.79,-517.49 295.33,-518.5 293.67,-511.71"/>
<text text-anchor="middle" x="370" y="-515" font-family="Helvetica,sans-Serif" font-size="10.00"> m_pShaderProgram</text>
</g>
<!-- Node12&#45;&gt;Node9 -->
<g id="edge18" class="edge">
<title>Node12&#45;&gt;Node9</title>
<path fill="none" stroke="#9a32cd" stroke-dasharray="5,2" d="M414.97,-360.31C451.27,-360.9 504.08,-362.54 550,-367 604.62,-372.3 617.87,-376.95 672,-386 687.63,-388.61 704.87,-391.66 719.65,-394.33"/>
<polygon fill="#9a32cd" stroke="#9a32cd" points="414.78,-356.8 404.73,-360.16 414.68,-363.8 414.78,-356.8"/>
<text text-anchor="middle" x="500" y="-370" font-family="Helvetica,sans-Serif" font-size="10.00"> m_pGrabber</text>
</g>
<!-- Node13&#45;&gt;Node2 -->
<g id="edge21" class="edge">
<title>Node13&#45;&gt;Node2</title>
<path fill="none" stroke="#9a32cd" stroke-dasharray="5,2" d="M286.47,-221.78C425.99,-217.52 910.37,-205.32 970,-239 1005.97,-259.31 1024.69,-309.08 1031.24,-330.23"/>
<polygon fill="#9a32cd" stroke="#9a32cd" points="286.17,-218.29 276.28,-222.1 286.39,-225.29 286.17,-218.29"/>
<text text-anchor="middle" x="620" y="-219" font-family="Helvetica,sans-Serif" font-size="10.00"> m_pChildren</text>
</g>
<!-- Node13&#45;&gt;Node14 -->
<g id="edge28" class="edge">
<title>Node13&#45;&gt;Node14</title>
<path fill="none" stroke="#9a32cd" stroke-dasharray="5,2" d="M276.76,-209.2C286.43,-204.95 297.49,-200.68 308,-198 359.82,-184.77 421.74,-180.66 460.73,-179.44"/>
<polygon fill="#9a32cd" stroke="#9a32cd" points="275.25,-206.04 267.63,-213.39 278.17,-212.4 275.25,-206.04"/>
<text text-anchor="middle" x="370" y="-201" font-family="Helvetica,sans-Serif" font-size="10.00"> m_pScriptHandlerEntries</text>
</g>
<!-- Node14&#45;&gt;Node2 -->
<g id="edge26" class="edge">
<title>Node14&#45;&gt;Node2</title>
<path fill="none" stroke="#9a32cd" stroke-dasharray="5,2" d="M549.11,-175.41C654.75,-168.49 902.9,-157.79 970,-204 1014.49,-234.64 1028.88,-304.65 1032.75,-330.33"/>
<polygon fill="#9a32cd" stroke="#9a32cd" points="548.79,-171.92 539.05,-176.09 549.26,-178.91 548.79,-171.92"/>
<text text-anchor="middle" x="757" y="-175" font-family="Helvetica,sans-Serif" font-size="10.00"> m_pScheduler</text>
</g>
<!-- Node15&#45;&gt;Node2 -->
<g id="edge29" class="edge">
<title>Node15&#45;&gt;Node2</title>
<path fill="none" stroke="#9a32cd" stroke-dasharray="5,2" d="M674.74,-119.72C749.53,-107.32 885.33,-97.26 970,-165 1023.8,-208.05 1032.38,-300.61 1033.74,-330.49"/>
<polygon fill="#9a32cd" stroke="#9a32cd" points="673.85,-116.32 664.6,-121.47 675.05,-123.21 673.85,-116.32"/>
<text text-anchor="middle" x="757" y="-119" font-family="Helvetica,sans-Serif" font-size="10.00"> m_pActionManager</text>
</g>
<!-- Node16 -->
<g id="node16" class="node">
<title>Node16</title>
<g id="a_node16"><a xlink:href="../../d1/d65/classcocos2d_1_1_c_c_component_container.html" target="_top" xlink:title="NA NA.">
<polygon fill="none" stroke="black" points="690,-246.5 690,-265.5 824,-265.5 824,-246.5 690,-246.5"/>
<text text-anchor="middle" x="757" y="-253.5" font-family="Helvetica,sans-Serif" font-size="10.00">CCComponentContainer</text>
</a>
</g>
</g>
<!-- Node16&#45;&gt;Node2 -->
<g id="edge31" class="edge">
<title>Node16&#45;&gt;Node2</title>
<path fill="none" stroke="#9a32cd" stroke-dasharray="5,2" d="M825.64,-245.51C869.03,-241.91 925.39,-243.26 970,-265 999.24,-279.25 1020.33,-313.66 1029.26,-330.46"/>
<polygon fill="#9a32cd" stroke="#9a32cd" points="825.09,-242.04 815.46,-246.46 825.75,-249.01 825.09,-242.04"/>
<text text-anchor="middle" x="906" y="-268" font-family="Helvetica,sans-Serif" font-size="10.00"> m_pComponentContainer</text>
</g>
<!-- Node17 -->
<g id="node17" class="node">
<title>Node17</title>
<g id="a_node17"><a xlink:href="../../d6/da5/structcc_v2_f___c4_b___t2_f.html" target="_top" xlink:title="a Point with a vertex point, a tex coord point and a color 4B">
<polygon fill="none" stroke="black" points="988,-57.5 988,-76.5 1082,-76.5 1082,-57.5 988,-57.5"/>
<text text-anchor="middle" x="1035" y="-64.5" font-family="Helvetica,sans-Serif" font-size="10.00">ccV2F_C4B_T2F</text>
</a>
</g>
</g>
<!-- Node17&#45;&gt;Node1 -->
<g id="edge32" class="edge">
<title>Node17&#45;&gt;Node1</title>
<path fill="none" stroke="#9a32cd" stroke-dasharray="5,2" d="M1092.39,-67C1124.2,-67 1163.18,-67 1191.78,-67"/>
<polygon fill="#9a32cd" stroke="#9a32cd" points="1092.33,-63.5 1082.33,-67 1092.33,-70.5 1092.33,-63.5"/>
<text text-anchor="middle" x="1137" y="-70" font-family="Helvetica,sans-Serif" font-size="10.00"> m_pBuffer</text>
</g>
<!-- Node18 -->
<g id="node18" class="node">
<title>Node18</title>
<g id="a_node18"><a xlink:href="../../d4/d38/structcc_vertex2_f.html" target="_top" xlink:title="A vertex composed of 2 floats: x, y.">
<polygon fill="none" stroke="black" points="721.5,-76.5 721.5,-95.5 792.5,-95.5 792.5,-76.5 721.5,-76.5"/>
<text text-anchor="middle" x="757" y="-83.5" font-family="Helvetica,sans-Serif" font-size="10.00">ccVertex2F</text>
</a>
</g>
</g>
<!-- Node18&#45;&gt;Node17 -->
<g id="edge33" class="edge">
<title>Node18&#45;&gt;Node17</title>
<path fill="none" stroke="#9a32cd" stroke-dasharray="5,2" d="M802.72,-82.92C853.58,-79.42 936.25,-73.73 987.75,-70.18"/>
<polygon fill="#9a32cd" stroke="#9a32cd" points="802.41,-79.43 792.68,-83.61 802.89,-86.42 802.41,-79.43"/>
<text text-anchor="middle" x="906" y="-82" font-family="Helvetica,sans-Serif" font-size="10.00"> vertices</text>
</g>
<!-- Node19 -->
<g id="node19" class="node">
<title>Node19</title>
<g id="a_node19"><a xlink:href="../../d2/dd4/structcc_color4_b.html" target="_top" xlink:title="RGBA color composed of 4 bytes.">
<polygon fill="none" stroke="black" points="724.5,-38.5 724.5,-57.5 789.5,-57.5 789.5,-38.5 724.5,-38.5"/>
<text text-anchor="middle" x="757" y="-45.5" font-family="Helvetica,sans-Serif" font-size="10.00">ccColor4B</text>
</a>
</g>
</g>
<!-- Node19&#45;&gt;Node17 -->
<g id="edge34" class="edge">
<title>Node19&#45;&gt;Node17</title>
<path fill="none" stroke="#9a32cd" stroke-dasharray="5,2" d="M799.75,-47.95C842.59,-48.27 911.11,-49.86 970,-56 975.83,-56.61 981.93,-57.42 987.96,-58.34"/>
<polygon fill="#9a32cd" stroke="#9a32cd" points="799.72,-44.45 789.7,-47.89 799.68,-51.45 799.72,-44.45"/>
<text text-anchor="middle" x="906" y="-59" font-family="Helvetica,sans-Serif" font-size="10.00"> colors</text>
</g>
<!-- Node20 -->
<g id="node20" class="node">
<title>Node20</title>
<g id="a_node20"><a xlink:href="../../d0/d46/structcc_tex2_f.html" target="_top" xlink:title="A texcoord composed of 2 floats: u, y.">
<polygon fill="none" stroke="black" points="729,-0.5 729,-19.5 785,-19.5 785,-0.5 729,-0.5"/>
<text text-anchor="middle" x="757" y="-7.5" font-family="Helvetica,sans-Serif" font-size="10.00">ccTex2F</text>
</a>
</g>
</g>
<!-- Node20&#45;&gt;Node17 -->
<g id="edge35" class="edge">
<title>Node20&#45;&gt;Node17</title>
<path fill="none" stroke="#9a32cd" stroke-dasharray="5,2" d="M795.17,-7.68C838.81,-6.37 912.54,-8.61 970,-33 979.59,-37.07 979.09,-42.62 988,-48 993.92,-51.57 1000.63,-54.77 1007.06,-57.47"/>
<polygon fill="#9a32cd" stroke="#9a32cd" points="794.87,-4.19 785.01,-8.07 795.14,-11.19 794.87,-4.19"/>
<text text-anchor="middle" x="906" y="-36" font-family="Helvetica,sans-Serif" font-size="10.00"> texCoords</text>
</g>
<!-- Node21 -->
<g id="node21" class="node">
<title>Node21</title>
<g id="a_node21"><a xlink:href="../../d6/d45/structcc_blend_func.html" target="_top" xlink:title="Blend Function used for textures.">
<polygon fill="none" stroke="black" points="996.5,-19.5 996.5,-38.5 1073.5,-38.5 1073.5,-19.5 996.5,-19.5"/>
<text text-anchor="middle" x="1035" y="-26.5" font-family="Helvetica,sans-Serif" font-size="10.00">ccBlendFunc</text>
</a>
</g>
</g>
<!-- Node21&#45;&gt;Node1 -->
<g id="edge36" class="edge">
<title>Node21&#45;&gt;Node1</title>
<path fill="none" stroke="#9a32cd" stroke-dasharray="5,2" d="M1083.87,-35.89C1110.52,-40 1144.22,-45.65 1174,-52 1181.47,-53.59 1189.42,-55.52 1196.96,-57.45"/>
<polygon fill="#9a32cd" stroke="#9a32cd" points="1084.07,-32.38 1073.66,-34.34 1083.02,-39.3 1084.07,-32.38"/>
<text text-anchor="middle" x="1137" y="-55" font-family="Helvetica,sans-Serif" font-size="10.00"> m_sBlendFunc</text>
</g>
</g>
</svg>
