<?xml version="1.0" encoding="UTF-8" standalone="no"?>
<!DOCTYPE svg PUBLIC "-//W3C//DTD SVG 1.1//EN"
 "http://www.w3.org/Graphics/SVG/1.1/DTD/svg11.dtd">
<!-- Generated by graphviz version 2.43.0 (0)
 -->
<!-- Title: CCDrawNode Pages: 1 -->
<svg width="1281pt" height="702pt"
 viewBox="0.00 0.00 1281.00 701.58" xmlns="http://www.w3.org/2000/svg" xmlns:xlink="http://www.w3.org/1999/xlink">
<g id="graph0" class="graph" transform="scale(1 1) rotate(0) translate(4 697.58)">
<title>CCDrawNode</title>
<!-- Node1 -->
<g id="node1" class="node">
<title>Node1</title>
<g id="a_node1"><a xlink:title="CCDrawNode Node that draws dots, segments and polygons.">
<polygon fill="#999999" stroke="#666666" points="1273,-75 1192,-75 1192,-56 1273,-56 1273,-75"/>
<text text-anchor="middle" x="1232.5" y="-63" font-family="Helvetica,sans-Serif" font-size="10.00">CCDrawNode</text>
</a>
</g>
</g>
<!-- Node2 -->
<g id="node2" class="node">
<title>Node2</title>
<g id="a_node2"><a xlink:href="../../d0/ded/classcocos2d_1_1_c_c_node.html" target="_top" xlink:title="CCNode is the main element.">
<polygon fill="white" stroke="#666666" points="1063,-346 1007,-346 1007,-327 1063,-327 1063,-346"/>
<text text-anchor="middle" x="1035" y="-334" font-family="Helvetica,sans-Serif" font-size="10.00">CCNode</text>
</a>
</g>
</g>
<!-- Node2&#45;&gt;Node1 -->
<g id="edge1" class="edge">
<title>Node2&#45;&gt;Node1</title>
<path fill="none" stroke="#63b8ff" d="M1048.96,-318.53C1086.78,-266.11 1196.1,-114.57 1224.63,-75.03"/>
<polygon fill="#63b8ff" stroke="#63b8ff" points="1045.97,-316.7 1042.96,-326.85 1051.65,-320.79 1045.97,-316.7"/>
</g>
<!-- Node2&#45;&gt;Node2 -->
<g id="edge23" class="edge">
<title>Node2&#45;&gt;Node2</title>
<path fill="none" stroke="#9a32cd" stroke-dasharray="5,2" d="M1016.22,-355.91C1017.69,-360.56 1023.95,-364 1035,-364 1053.13,-364 1058.37,-354.73 1050.72,-346.08"/>
<polygon fill="#9a32cd" stroke="#9a32cd" points="1019.65,-356.67 1019.28,-346.08 1012.96,-354.59 1019.65,-356.67"/>
<text text-anchor="middle" x="1035" y="-367" font-family="Helvetica,sans-Serif" font-size="10.00"> m_pParent</text>
</g>
<!-- Node3 -->
<g id="node3" class="node">
<title>Node3</title>
<g id="a_node3"><a xlink:href="../../d3/dbf/classcocos2d_1_1_c_c_object.html" target="_top" xlink:title="NA.">
<polygon fill="white" stroke="#666666" points="169,-442 107,-442 107,-423 169,-423 169,-442"/>
<text text-anchor="middle" x="138" y="-430" font-family="Helvetica,sans-Serif" font-size="10.00">CCObject</text>
</a>
</g>
</g>
<!-- Node3&#45;&gt;Node2 -->
<g id="edge2" class="edge">
<title>Node3&#45;&gt;Node2</title>
<path fill="none" stroke="#63b8ff" d="M140.88,-452.18C145.9,-500.86 160.99,-625.21 187,-656.5 205.47,-678.72 218.11,-681.5 247,-681.5 247,-681.5 247,-681.5 758,-681.5 852.88,-681.5 900.28,-720.85 970,-656.5 1017.25,-612.88 1031.03,-395.01 1033.54,-346.21"/>
<polygon fill="#63b8ff" stroke="#63b8ff" points="144.34,-451.63 139.87,-442.02 137.38,-452.32 144.34,-451.63"/>
</g>
<!-- Node3&#45;&gt;Node2 -->
<g id="edge24" class="edge">
<title>Node3&#45;&gt;Node2</title>
<path fill="none" stroke="#9a32cd" stroke-dasharray="5,2" d="M139.99,-452.06C143.77,-504.19 161.83,-642.5 247,-642.5 247,-642.5 247,-642.5 758,-642.5 853.72,-642.5 900.41,-670.23 970,-604.5 1008.95,-567.71 1028.74,-390.12 1033.08,-346.29"/>
<polygon fill="#9a32cd" stroke="#9a32cd" points="143.48,-451.83 139.36,-442.07 136.49,-452.27 143.48,-451.83"/>
<text text-anchor="middle" x="500" y="-645.5" font-family="Helvetica,sans-Serif" font-size="10.00"> m_pUserObject</text>
</g>
<!-- Node8 -->
<g id="node8" class="node">
<title>Node8</title>
<g id="a_node8"><a xlink:href="../../d2/d51/classcocos2d_1_1_c_c_camera.html" target="_top" xlink:title="A CCCamera is used in every CCNode.">
<polygon fill="white" stroke="#666666" points="404,-600 336,-600 336,-581 404,-581 404,-600"/>
<text text-anchor="middle" x="370" y="-588" font-family="Helvetica,sans-Serif" font-size="10.00">CCCamera</text>
</a>
</g>
</g>
<!-- Node3&#45;&gt;Node8 -->
<g id="edge8" class="edge">
<title>Node3&#45;&gt;Node8</title>
<path fill="none" stroke="#63b8ff" d="M145.69,-451.74C155.23,-476.39 175.11,-518.77 206,-542.5 244.37,-571.97 300.47,-583.38 335.84,-587.78"/>
<polygon fill="#63b8ff" stroke="#63b8ff" points="148.87,-450.25 142.12,-442.08 142.3,-452.67 148.87,-450.25"/>
</g>
<!-- Node9 -->
<g id="node9" class="node">
<title>Node9</title>
<g id="a_node9"><a xlink:href="../../d6/d70/classcocos2d_1_1_c_c_grid_base.html" target="_top" xlink:title="Base class for other.">
<polygon fill="white" stroke="#666666" points="794,-407 720,-407 720,-388 794,-388 794,-407"/>
<text text-anchor="middle" x="757" y="-395" font-family="Helvetica,sans-Serif" font-size="10.00">CCGridBase</text>
</a>
</g>
</g>
<!-- Node3&#45;&gt;Node9 -->
<g id="edge10" class="edge">
<title>Node3&#45;&gt;Node9</title>
<path fill="none" stroke="#63b8ff" d="M153.09,-415.02C165.58,-400.6 185.05,-380.62 206,-368.5 246.91,-344.85 261.23,-345.24 308,-338.5 468.45,-315.39 518.23,-310.19 672,-361.5 680.89,-364.47 681.58,-368.38 690,-372.5 701.88,-378.32 715.49,-383.68 727.25,-387.93"/>
<polygon fill="#63b8ff" stroke="#63b8ff" points="150.33,-412.85 146.58,-422.76 155.69,-417.35 150.33,-412.85"/>
</g>
<!-- Node10 -->
<g id="node10" class="node">
<title>Node10</title>
<g id="a_node10"><a xlink:href="../../d7/dfd/classcocos2d_1_1_c_c_texture2_d.html" target="_top" xlink:title="CCTexture2D class.">
<polygon fill="white" stroke="#666666" points="540,-483 460,-483 460,-464 540,-464 540,-483"/>
<text text-anchor="middle" x="500" y="-471" font-family="Helvetica,sans-Serif" font-size="10.00">CCTexture2D</text>
</a>
</g>
</g>
<!-- Node3&#45;&gt;Node10 -->
<g id="edge13" class="edge">
<title>Node3&#45;&gt;Node10</title>
<path fill="none" stroke="#63b8ff" d="M179.15,-440.27C213.29,-446.61 263.69,-455.33 308,-460.5 360.33,-466.6 421.07,-470.13 459.76,-471.93"/>
<polygon fill="#63b8ff" stroke="#63b8ff" points="179.57,-436.79 169.1,-438.39 178.28,-443.67 179.57,-436.79"/>
</g>
<!-- Node11 -->
<g id="node11" class="node">
<title>Node11</title>
<g id="a_node11"><a xlink:href="../../db/d28/classcocos2d_1_1_c_c_g_l_program.html" target="_top" xlink:title="CCGLProgram Class that implements a glProgram.">
<polygon fill="white" stroke="#666666" points="290,-533 206,-533 206,-514 290,-514 290,-533"/>
<text text-anchor="middle" x="248" y="-521" font-family="Helvetica,sans-Serif" font-size="10.00">CCGLProgram</text>
</a>
</g>
</g>
<!-- Node3&#45;&gt;Node11 -->
<g id="edge16" class="edge">
<title>Node3&#45;&gt;Node11</title>
<path fill="none" stroke="#63b8ff" d="M151.73,-450.25C160.72,-462 173.52,-477.26 187,-488.5 199.22,-498.7 214.8,-507.68 227.01,-514"/>
<polygon fill="#63b8ff" stroke="#63b8ff" points="154.42,-448.01 145.65,-442.07 148.81,-452.19 154.42,-448.01"/>
</g>
<!-- Node12 -->
<g id="node12" class="node">
<title>Node12</title>
<g id="a_node12"><a xlink:href="../../d3/d89/classcocos2d_1_1_c_c_grabber.html" target="_top" xlink:title="FBO class that grabs the the contents of the screen NA NA.">
<polygon fill="white" stroke="#666666" points="404.5,-366 335.5,-366 335.5,-347 404.5,-347 404.5,-366"/>
<text text-anchor="middle" x="370" y="-354" font-family="Helvetica,sans-Serif" font-size="10.00">CCGrabber</text>
</a>
</g>
</g>
<!-- Node3&#45;&gt;Node12 -->
<g id="edge19" class="edge">
<title>Node3&#45;&gt;Node12</title>
<path fill="none" stroke="#63b8ff" d="M163.57,-417.89C175.97,-410.98 191.44,-403.05 206,-397.5 249.36,-380.99 301.74,-369.17 335.2,-362.59"/>
<polygon fill="#63b8ff" stroke="#63b8ff" points="161.71,-414.92 154.75,-422.92 165.17,-421 161.71,-414.92"/>
</g>
<!-- Node13 -->
<g id="node13" class="node">
<title>Node13</title>
<g id="a_node13"><a xlink:href="../../d9/d2e/classcocos2d_1_1_c_c_array.html" target="_top" xlink:title="NA.">
<polygon fill="white" stroke="#666666" points="276,-228 220,-228 220,-209 276,-209 276,-228"/>
<text text-anchor="middle" x="248" y="-216" font-family="Helvetica,sans-Serif" font-size="10.00">CCArray</text>
</a>
</g>
</g>
<!-- Node3&#45;&gt;Node13 -->
<g id="edge22" class="edge">
<title>Node3&#45;&gt;Node13</title>
<path fill="none" stroke="#63b8ff" d="M143.06,-413.08C149.52,-384.64 163.86,-330.6 187,-289.5 200.78,-265.03 223.54,-241.02 236.72,-228.16"/>
<polygon fill="#63b8ff" stroke="#63b8ff" points="139.61,-412.44 140.89,-422.96 146.45,-413.94 139.61,-412.44"/>
</g>
<!-- Node14 -->
<g id="node14" class="node">
<title>Node14</title>
<g id="a_node14"><a xlink:href="../../de/dee/classcocos2d_1_1_c_c_scheduler.html" target="_top" xlink:title="Scheduler is responsible for triggering the scheduled callbacks.">
<polygon fill="white" stroke="#666666" points="539,-186 461,-186 461,-167 539,-167 539,-186"/>
<text text-anchor="middle" x="500" y="-174" font-family="Helvetica,sans-Serif" font-size="10.00">CCScheduler</text>
</a>
</g>
</g>
<!-- Node3&#45;&gt;Node14 -->
<g id="edge27" class="edge">
<title>Node3&#45;&gt;Node14</title>
<path fill="none" stroke="#63b8ff" d="M138.61,-412.83C138.84,-368.34 145.89,-259.28 206,-200.5 275.33,-132.7 403.15,-152.32 464.44,-166.94"/>
<polygon fill="#63b8ff" stroke="#63b8ff" points="135.11,-412.93 138.67,-422.91 142.11,-412.88 135.11,-412.93"/>
</g>
<!-- Node15 -->
<g id="node15" class="node">
<title>Node15</title>
<g id="a_node15"><a xlink:href="../../d5/dcb/classcocos2d_1_1_c_c_action_manager.html" target="_top" xlink:title="CCActionManager is a singleton that manages all the actions.">
<polygon fill="white" stroke="#666666" points="672,-134 568,-134 568,-115 672,-115 672,-134"/>
<text text-anchor="middle" x="620" y="-122" font-family="Helvetica,sans-Serif" font-size="10.00">CCActionManager</text>
</a>
</g>
</g>
<!-- Node3&#45;&gt;Node15 -->
<g id="edge30" class="edge">
<title>Node3&#45;&gt;Node15</title>
<path fill="none" stroke="#63b8ff" d="M140.7,-412.73C146.12,-354.77 165.13,-187.23 206,-154.5 317.53,-65.19 504.82,-96.47 583.01,-114.93"/>
<polygon fill="#63b8ff" stroke="#63b8ff" points="137.2,-412.52 139.79,-422.79 144.17,-413.15 137.2,-412.52"/>
</g>
<!-- Node4 -->
<g id="node4" class="node">
<title>Node4</title>
<g id="a_node4"><a xlink:href="../../d5/d61/classcocos2d_1_1_c_c_copying.html" target="_top" xlink:title="NA NA.">
<polygon fill="white" stroke="#666666" points="70,-442 0,-442 0,-423 70,-423 70,-442"/>
<text text-anchor="middle" x="35" y="-430" font-family="Helvetica,sans-Serif" font-size="10.00">CCCopying</text>
</a>
</g>
</g>
<!-- Node4&#45;&gt;Node3 -->
<g id="edge3" class="edge">
<title>Node4&#45;&gt;Node3</title>
<path fill="none" stroke="#63b8ff" d="M80.2,-432.5C89.22,-432.5 98.51,-432.5 106.9,-432.5"/>
<polygon fill="#63b8ff" stroke="#63b8ff" points="80.19,-429 70.19,-432.5 80.19,-436 80.19,-429"/>
</g>
<!-- Node5 -->
<g id="node5" class="node">
<title>Node5</title>
<g id="a_node5"><a xlink:href="../../d2/df3/classcocos2d_1_1_c_c_point.html" target="_top" xlink:title="NA.">
<polygon fill="white" stroke="#666666" points="527.5,-275 472.5,-275 472.5,-256 527.5,-256 527.5,-275"/>
<text text-anchor="middle" x="500" y="-263" font-family="Helvetica,sans-Serif" font-size="10.00">CCPoint</text>
</a>
</g>
</g>
<!-- Node5&#45;&gt;Node2 -->
<g id="edge4" class="edge">
<title>Node5&#45;&gt;Node2</title>
<path fill="none" stroke="#9a32cd" stroke-dasharray="5,2" d="M537.9,-259.33C574.71,-255.17 631.47,-254.32 672,-279.5 685.21,-287.71 676.81,-301.27 690,-309.5 742.6,-342.32 935.05,-339.72 1006.8,-337.52"/>
<polygon fill="#9a32cd" stroke="#9a32cd" points="537.09,-255.91 527.62,-260.64 537.98,-262.85 537.09,-255.91"/>
<text text-anchor="middle" x="757" y="-360.5" font-family="Helvetica,sans-Serif" font-size="10.00"> m_obAnchorPoint</text>
<text text-anchor="middle" x="757" y="-349.5" font-family="Helvetica,sans-Serif" font-size="10.00">m_obAnchorPointInPoints</text>
<text text-anchor="middle" x="757" y="-338.5" font-family="Helvetica,sans-Serif" font-size="10.00">m_obPosition</text>
</g>
<!-- Node5&#45;&gt;Node9 -->
<g id="edge17" class="edge">
<title>Node5&#45;&gt;Node9</title>
<path fill="none" stroke="#9a32cd" stroke-dasharray="5,2" d="M537.72,-271.77C586.5,-280.25 667.14,-294.84 672,-299.5 696.44,-322.92 667.42,-348.28 690,-373.5 697.73,-382.13 708.81,-387.66 719.69,-391.2"/>
<polygon fill="#9a32cd" stroke="#9a32cd" points="538.28,-268.31 527.83,-270.06 537.09,-275.21 538.28,-268.31"/>
<text text-anchor="middle" x="620" y="-302.5" font-family="Helvetica,sans-Serif" font-size="10.00"> m_obStep</text>
</g>
<!-- Node6 -->
<g id="node6" class="node">
<title>Node6</title>
<g id="a_node6"><a xlink:href="../../d9/d24/classcocos2d_1_1_c_c_size.html" target="_top" xlink:title="NA.">
<polygon fill="white" stroke="#666666" points="273,-425 223,-425 223,-406 273,-406 273,-425"/>
<text text-anchor="middle" x="248" y="-413" font-family="Helvetica,sans-Serif" font-size="10.00">CCSize</text>
</a>
</g>
</g>
<!-- Node6&#45;&gt;Node2 -->
<g id="edge5" class="edge">
<title>Node6&#45;&gt;Node2</title>
<path fill="none" stroke="#9a32cd" stroke-dasharray="5,2" d="M283.25,-417.54C372.48,-422.43 619.4,-433.2 824,-416.5 889.54,-411.15 910.53,-420.56 970,-392.5 993.5,-381.41 1014.94,-359.1 1026.04,-346.24"/>
<polygon fill="#9a32cd" stroke="#9a32cd" points="283.34,-414.04 273.16,-416.98 282.95,-421.03 283.34,-414.04"/>
<text text-anchor="middle" x="620" y="-427.5" font-family="Helvetica,sans-Serif" font-size="10.00"> m_obContentSize</text>
</g>
<!-- Node6&#45;&gt;Node9 -->
<g id="edge11" class="edge">
<title>Node6&#45;&gt;Node9</title>
<path fill="none" stroke="#9a32cd" stroke-dasharray="5,2" d="M283.16,-408.12C291.27,-406.65 299.91,-405.31 308,-404.5 460.48,-389.21 643.58,-393.3 719.88,-396.01"/>
<polygon fill="#9a32cd" stroke="#9a32cd" points="282.43,-404.7 273.27,-410.02 283.75,-411.57 282.43,-404.7"/>
<text text-anchor="middle" x="500" y="-397.5" font-family="Helvetica,sans-Serif" font-size="10.00"> m_sGridSize</text>
</g>
<!-- Node6&#45;&gt;Node10 -->
<g id="edge14" class="edge">
<title>Node6&#45;&gt;Node10</title>
<path fill="none" stroke="#9a32cd" stroke-dasharray="5,2" d="M283.08,-421.86C291.25,-423.38 299.93,-425 308,-426.5 363.11,-436.75 377.89,-434.89 432,-449.5 446.55,-453.43 462.45,-459.06 475.11,-463.89"/>
<polygon fill="#9a32cd" stroke="#9a32cd" points="283.58,-418.39 273.11,-420 282.3,-425.27 283.58,-418.39"/>
<text text-anchor="middle" x="370" y="-452.5" font-family="Helvetica,sans-Serif" font-size="10.00"> m_tContentSize</text>
</g>
<!-- Node7 -->
<g id="node7" class="node">
<title>Node7</title>
<g id="a_node7"><a xlink:href="../../da/dbf/structcocos2d_1_1_c_c_affine_transform.html" target="_top" xlink:title=" ">
<polygon fill="white" stroke="#666666" points="810.5,-300 703.5,-300 703.5,-281 810.5,-281 810.5,-300"/>
<text text-anchor="middle" x="757" y="-288" font-family="Helvetica,sans-Serif" font-size="10.00">CCAffineTransform</text>
</a>
</g>
</g>
<!-- Node7&#45;&gt;Node2 -->
<g id="edge6" class="edge">
<title>Node7&#45;&gt;Node2</title>
<path fill="none" stroke="#9a32cd" stroke-dasharray="5,2" d="M820.89,-279.97C863.95,-275.21 921.75,-273.69 970,-289.5 992.27,-296.8 1013.19,-315.13 1024.72,-326.62"/>
<polygon fill="#9a32cd" stroke="#9a32cd" points="820.35,-276.51 810.84,-281.17 821.18,-283.46 820.35,-276.51"/>
<text text-anchor="middle" x="906" y="-314.5" font-family="Helvetica,sans-Serif" font-size="10.00"> m_sAdditionalTransform</text>
<text text-anchor="middle" x="906" y="-303.5" font-family="Helvetica,sans-Serif" font-size="10.00">m_sInverse</text>
<text text-anchor="middle" x="906" y="-292.5" font-family="Helvetica,sans-Serif" font-size="10.00">m_sTransform</text>
</g>
<!-- Node8&#45;&gt;Node2 -->
<g id="edge7" class="edge">
<title>Node8&#45;&gt;Node2</title>
<path fill="none" stroke="#9a32cd" stroke-dasharray="5,2" d="M414.39,-595.59C537.3,-609.04 884.39,-640.05 970,-572.5 1007.08,-543.25 1028.05,-386.57 1032.9,-346.06"/>
<polygon fill="#9a32cd" stroke="#9a32cd" points="414.56,-592.09 404.23,-594.46 413.78,-599.04 414.56,-592.09"/>
<text text-anchor="middle" x="620" y="-616.5" font-family="Helvetica,sans-Serif" font-size="10.00"> m_pCamera</text>
</g>
<!-- Node9&#45;&gt;Node2 -->
<g id="edge9" class="edge">
<title>Node9&#45;&gt;Node2</title>
<path fill="none" stroke="#9a32cd" stroke-dasharray="5,2" d="M804.06,-387.32C861.93,-374.53 959.37,-352.99 1006.64,-342.55"/>
<polygon fill="#9a32cd" stroke="#9a32cd" points="803.09,-383.95 794.08,-389.53 804.6,-390.78 803.09,-383.95"/>
<text text-anchor="middle" x="906" y="-380.5" font-family="Helvetica,sans-Serif" font-size="10.00"> m_pGrid</text>
</g>
<!-- Node10&#45;&gt;Node9 -->
<g id="edge12" class="edge">
<title>Node10&#45;&gt;Node9</title>
<path fill="none" stroke="#9a32cd" stroke-dasharray="5,2" d="M550.53,-471.95C585.39,-469.57 632.65,-463.72 672,-449.5 699.9,-439.41 728.46,-419.21 744.04,-407.17"/>
<polygon fill="#9a32cd" stroke="#9a32cd" points="549.9,-468.48 540.13,-472.58 550.32,-475.47 549.9,-468.48"/>
<text text-anchor="middle" x="620" y="-472.5" font-family="Helvetica,sans-Serif" font-size="10.00"> m_pTexture</text>
</g>
<!-- Node11&#45;&gt;Node2 -->
<g id="edge25" class="edge">
<title>Node11&#45;&gt;Node2</title>
<path fill="none" stroke="#9a32cd" stroke-dasharray="5,2" d="M300.23,-534.56C302.85,-534.93 305.45,-535.24 308,-535.5 415.02,-546.27 443.04,-544.84 550,-533.5 742.58,-513.09 810.25,-526.97 970,-417.5 998.09,-398.25 1019.74,-362.96 1029.03,-346.04"/>
<polygon fill="#9a32cd" stroke="#9a32cd" points="300.53,-531.07 290.1,-532.96 299.43,-537.98 300.53,-531.07"/>
<text text-anchor="middle" x="620" y="-533.5" font-family="Helvetica,sans-Serif" font-size="10.00"> m_pShaderProgram</text>
</g>
<!-- Node11&#45;&gt;Node9 -->
<g id="edge20" class="edge">
<title>Node11&#45;&gt;Node9</title>
<path fill="none" stroke="#9a32cd" stroke-dasharray="5,2" d="M300.32,-523.49C398.39,-522.71 608.37,-517.13 672,-484.5 708.24,-465.91 737.79,-425.53 749.98,-407.07"/>
<polygon fill="#9a32cd" stroke="#9a32cd" points="300.03,-519.99 290.05,-523.56 300.08,-526.99 300.03,-519.99"/>
<text text-anchor="middle" x="500" y="-521.5" font-family="Helvetica,sans-Serif" font-size="10.00"> m_pShaderProgram</text>
</g>
<!-- Node11&#45;&gt;Node10 -->
<g id="edge15" class="edge">
<title>Node11&#45;&gt;Node10</title>
<path fill="none" stroke="#9a32cd" stroke-dasharray="5,2" d="M294.6,-511.58C299.12,-510.5 303.64,-509.45 308,-508.5 322.57,-505.32 408.3,-489.8 459.82,-480.53"/>
<polygon fill="#9a32cd" stroke="#9a32cd" points="293.67,-508.21 284.79,-513.99 295.33,-515 293.67,-508.21"/>
<text text-anchor="middle" x="370" y="-511.5" font-family="Helvetica,sans-Serif" font-size="10.00"> m_pShaderProgram</text>
</g>
<!-- Node12&#45;&gt;Node9 -->
<g id="edge18" class="edge">
<title>Node12&#45;&gt;Node9</title>
<path fill="none" stroke="#9a32cd" stroke-dasharray="5,2" d="M414.97,-356.81C451.27,-357.4 504.08,-359.04 550,-363.5 604.62,-368.8 617.87,-373.45 672,-382.5 687.63,-385.11 704.87,-388.16 719.65,-390.83"/>
<polygon fill="#9a32cd" stroke="#9a32cd" points="414.78,-353.3 404.73,-356.66 414.68,-360.3 414.78,-353.3"/>
<text text-anchor="middle" x="500" y="-366.5" font-family="Helvetica,sans-Serif" font-size="10.00"> m_pGrabber</text>
</g>
<!-- Node13&#45;&gt;Node2 -->
<g id="edge21" class="edge">
<title>Node13&#45;&gt;Node2</title>
<path fill="none" stroke="#9a32cd" stroke-dasharray="5,2" d="M286.47,-217.4C425.98,-213.58 910.33,-202.87 970,-236.5 1005.73,-256.64 1024.59,-305.89 1031.21,-326.83"/>
<polygon fill="#9a32cd" stroke="#9a32cd" points="286.18,-213.91 276.28,-217.68 286.38,-220.9 286.18,-213.91"/>
<text text-anchor="middle" x="620" y="-215.5" font-family="Helvetica,sans-Serif" font-size="10.00"> m_pChildren</text>
</g>
<!-- Node13&#45;&gt;Node14 -->
<g id="edge28" class="edge">
<title>Node13&#45;&gt;Node14</title>
<path fill="none" stroke="#9a32cd" stroke-dasharray="5,2" d="M276.52,-204.74C286.24,-200.45 297.4,-196.15 308,-193.5 359.84,-180.55 421.75,-177.16 460.73,-176.43"/>
<polygon fill="#9a32cd" stroke="#9a32cd" points="274.97,-201.6 267.35,-208.97 277.9,-207.96 274.97,-201.6"/>
<text text-anchor="middle" x="370" y="-196.5" font-family="Helvetica,sans-Serif" font-size="10.00"> m_pScriptHandlerEntries</text>
</g>
<!-- Node14&#45;&gt;Node2 -->
<g id="edge26" class="edge">
<title>Node14&#45;&gt;Node2</title>
<path fill="none" stroke="#9a32cd" stroke-dasharray="5,2" d="M546.22,-164.67C635.94,-144.02 839.09,-111.62 970,-201.5 1014.26,-231.89 1028.79,-301.4 1032.73,-326.9"/>
<polygon fill="#9a32cd" stroke="#9a32cd" points="545.29,-161.29 536.36,-167 546.9,-168.11 545.29,-161.29"/>
<text text-anchor="middle" x="757" y="-149.5" font-family="Helvetica,sans-Serif" font-size="10.00"> m_pScheduler</text>
</g>
<!-- Node15&#45;&gt;Node2 -->
<g id="edge29" class="edge">
<title>Node15&#45;&gt;Node2</title>
<path fill="none" stroke="#9a32cd" stroke-dasharray="5,2" d="M679.27,-113.43C754.87,-102.59 886.87,-96.12 970,-162.5 1023.32,-205.08 1032.22,-296.46 1033.7,-326.62"/>
<polygon fill="#9a32cd" stroke="#9a32cd" points="678.36,-110.03 668.99,-114.98 679.4,-116.95 678.36,-110.03"/>
<text text-anchor="middle" x="757" y="-114.5" font-family="Helvetica,sans-Serif" font-size="10.00"> m_pActionManager</text>
</g>
<!-- Node16 -->
<g id="node16" class="node">
<title>Node16</title>
<g id="a_node16"><a xlink:href="../../d1/d65/classcocos2d_1_1_c_c_component_container.html" target="_top" xlink:title="NA NA.">
<polygon fill="white" stroke="#666666" points="824,-263 690,-263 690,-244 824,-244 824,-263"/>
<text text-anchor="middle" x="757" y="-251" font-family="Helvetica,sans-Serif" font-size="10.00">CCComponentContainer</text>
</a>
</g>
</g>
<!-- Node16&#45;&gt;Node2 -->
<g id="edge31" class="edge">
<title>Node16&#45;&gt;Node2</title>
<path fill="none" stroke="#9a32cd" stroke-dasharray="5,2" d="M822.23,-242.93C866.03,-238.75 924.18,-239.31 970,-261.5 999.27,-275.68 1020.35,-310.12 1029.27,-326.94"/>
<polygon fill="#9a32cd" stroke="#9a32cd" points="821.84,-239.45 812.26,-243.99 822.58,-246.41 821.84,-239.45"/>
<text text-anchor="middle" x="906" y="-264.5" font-family="Helvetica,sans-Serif" font-size="10.00"> m_pComponentContainer</text>
</g>
<!-- Node17 -->
<g id="node17" class="node">
<title>Node17</title>
<g id="a_node17"><a xlink:href="../../d6/da5/structcc_v2_f___c4_b___t2_f.html" target="_top" xlink:title="a Point with a vertex point, a tex coord point and a color 4B">
<polygon fill="white" stroke="#666666" points="1082,-75 988,-75 988,-56 1082,-56 1082,-75"/>
<text text-anchor="middle" x="1035" y="-63" font-family="Helvetica,sans-Serif" font-size="10.00">ccV2F_C4B_T2F</text>
</a>
</g>
</g>
<!-- Node17&#45;&gt;Node1 -->
<g id="edge32" class="edge">
<title>Node17&#45;&gt;Node1</title>
<path fill="none" stroke="#9a32cd" stroke-dasharray="5,2" d="M1092.39,-65.5C1124.2,-65.5 1163.18,-65.5 1191.78,-65.5"/>
<polygon fill="#9a32cd" stroke="#9a32cd" points="1092.33,-62 1082.33,-65.5 1092.33,-69 1092.33,-62"/>
<text text-anchor="middle" x="1137" y="-68.5" font-family="Helvetica,sans-Serif" font-size="10.00"> m_pBuffer</text>
</g>
<!-- Node18 -->
<g id="node18" class="node">
<title>Node18</title>
<g id="a_node18"><a xlink:href="../../d4/d38/structcc_vertex2_f.html" target="_top" xlink:title="A vertex composed of 2 floats: x, y.">
<polygon fill="white" stroke="#666666" points="792.5,-93 721.5,-93 721.5,-74 792.5,-74 792.5,-93"/>
<text text-anchor="middle" x="757" y="-81" font-family="Helvetica,sans-Serif" font-size="10.00">ccVertex2F</text>
</a>
</g>
</g>
<!-- Node18&#45;&gt;Node17 -->
<g id="edge33" class="edge">
<title>Node18&#45;&gt;Node17</title>
<path fill="none" stroke="#9a32cd" stroke-dasharray="5,2" d="M802.72,-80.58C853.58,-77.27 936.25,-71.88 987.75,-68.52"/>
<polygon fill="#9a32cd" stroke="#9a32cd" points="802.43,-77.1 792.68,-81.24 802.88,-84.08 802.43,-77.1"/>
<text text-anchor="middle" x="906" y="-80.5" font-family="Helvetica,sans-Serif" font-size="10.00"> vertices</text>
</g>
<!-- Node19 -->
<g id="node19" class="node">
<title>Node19</title>
<g id="a_node19"><a xlink:href="../../d2/dd4/structcc_color4_b.html" target="_top" xlink:title="RGBA color composed of 4 bytes.">
<polygon fill="white" stroke="#666666" points="789.5,-56 724.5,-56 724.5,-37 789.5,-37 789.5,-56"/>
<text text-anchor="middle" x="757" y="-44" font-family="Helvetica,sans-Serif" font-size="10.00">ccColor4B</text>
</a>
</g>
</g>
<!-- Node19&#45;&gt;Node17 -->
<g id="edge34" class="edge">
<title>Node19&#45;&gt;Node17</title>
<path fill="none" stroke="#9a32cd" stroke-dasharray="5,2" d="M799.75,-46.45C842.59,-46.77 911.11,-48.36 970,-54.5 975.83,-55.11 981.93,-55.92 987.96,-56.84"/>
<polygon fill="#9a32cd" stroke="#9a32cd" points="799.72,-42.95 789.7,-46.39 799.68,-49.95 799.72,-42.95"/>
<text text-anchor="middle" x="906" y="-57.5" font-family="Helvetica,sans-Serif" font-size="10.00"> colors</text>
</g>
<!-- Node20 -->
<g id="node20" class="node">
<title>Node20</title>
<g id="a_node20"><a xlink:href="../../d0/d46/structcc_tex2_f.html" target="_top" xlink:title="A texcoord composed of 2 floats: u, y.">
<polygon fill="white" stroke="#666666" points="785,-19 729,-19 729,0 785,0 785,-19"/>
<text text-anchor="middle" x="757" y="-7" font-family="Helvetica,sans-Serif" font-size="10.00">ccTex2F</text>
</a>
</g>
</g>
<!-- Node20&#45;&gt;Node17 -->
<g id="edge35" class="edge">
<title>Node20&#45;&gt;Node17</title>
<path fill="none" stroke="#9a32cd" stroke-dasharray="5,2" d="M795.3,-6.65C839.06,-4.78 912.91,-6.34 970,-31.5 979.79,-35.82 978.87,-41.91 988,-47.5 993.26,-50.73 999.21,-53.56 1005.03,-55.97"/>
<polygon fill="#9a32cd" stroke="#9a32cd" points="794.92,-3.16 785.11,-7.17 795.27,-10.15 794.92,-3.16"/>
<text text-anchor="middle" x="906" y="-34.5" font-family="Helvetica,sans-Serif" font-size="10.00"> texCoords</text>
</g>
<!-- Node21 -->
<g id="node21" class="node">
<title>Node21</title>
<g id="a_node21"><a xlink:href="../../d6/d45/structcc_blend_func.html" target="_top" xlink:title="Blend Function used for textures.">
<polygon fill="white" stroke="#666666" points="1073.5,-38 996.5,-38 996.5,-19 1073.5,-19 1073.5,-38"/>
<text text-anchor="middle" x="1035" y="-26" font-family="Helvetica,sans-Serif" font-size="10.00">ccBlendFunc</text>
</a>
</g>
</g>
<!-- Node21&#45;&gt;Node1 -->
<g id="edge36" class="edge">
<title>Node21&#45;&gt;Node1</title>
<path fill="none" stroke="#9a32cd" stroke-dasharray="5,2" d="M1083.88,-34.97C1110.53,-38.86 1144.23,-44.26 1174,-50.5 1181.57,-52.09 1189.64,-54.03 1197.27,-55.99"/>
<polygon fill="#9a32cd" stroke="#9a32cd" points="1084.06,-31.46 1073.67,-33.5 1083.07,-38.38 1084.06,-31.46"/>
<text text-anchor="middle" x="1137" y="-53.5" font-family="Helvetica,sans-Serif" font-size="10.00"> m_sBlendFunc</text>
</g>
</g>
</svg>
