<?xml version="1.0" encoding="UTF-8" standalone="no"?>
<!DOCTYPE svg PUBLIC "-//W3C//DTD SVG 1.1//EN"
 "http://www.w3.org/Graphics/SVG/1.1/DTD/svg11.dtd">
<!-- Generated by graphviz version 2.43.0 (0)
 -->
<!-- Title: /home/runner/work/cocos&#45;headers/cocos&#45;headers/extensions/network/HttpResponse.h Pages: 1 -->
<svg width="253pt" height="206pt"
 viewBox="0.00 0.00 252.50 206.00" xmlns="http://www.w3.org/2000/svg" xmlns:xlink="http://www.w3.org/1999/xlink">
<g id="graph0" class="graph" transform="scale(1 1) rotate(0) translate(4 202)">
<title>/home/runner/work/cocos&#45;headers/cocos&#45;headers/extensions/network/HttpResponse.h</title>
<!-- Node1 -->
<g id="node1" class="node">
<title>Node1</title>
<g id="a_node1"><a xlink:title=" ">
<polygon fill="#bfbfbf" stroke="black" points="0,-156.5 0,-197.5 196,-197.5 196,-156.5 0,-156.5"/>
<text text-anchor="start" x="8" y="-185.5" font-family="Helvetica,sans-Serif" font-size="10.00">/home/runner/work/cocos</text>
<text text-anchor="start" x="8" y="-174.5" font-family="Helvetica,sans-Serif" font-size="10.00">&#45;headers/cocos&#45;headers</text>
<text text-anchor="middle" x="98" y="-163.5" font-family="Helvetica,sans-Serif" font-size="10.00">/extensions/network/HttpResponse.h</text>
</a>
</g>
</g>
<!-- Node2 -->
<g id="node2" class="node">
<title>Node2</title>
<g id="a_node2"><a xlink:href="../../d3/d58/cocos-ext_8h.html" target="_top" xlink:title=" ">
<polygon fill="none" stroke="black" points="28,-0.5 28,-41.5 168,-41.5 168,-0.5 28,-0.5"/>
<text text-anchor="start" x="36" y="-29.5" font-family="Helvetica,sans-Serif" font-size="10.00">/home/runner/work/cocos</text>
<text text-anchor="start" x="36" y="-18.5" font-family="Helvetica,sans-Serif" font-size="10.00">&#45;headers/cocos&#45;headers</text>
<text text-anchor="middle" x="98" y="-7.5" font-family="Helvetica,sans-Serif" font-size="10.00">/extensions/cocos&#45;ext.h</text>
</a>
</g>
</g>
<!-- Node1&#45;&gt;Node2 -->
<g id="edge1" class="edge">
<title>Node1&#45;&gt;Node2</title>
<path fill="none" stroke="midnightblue" d="M73.79,-148.3C67.77,-139.78 62.14,-130 59,-120 53.41,-102.19 53.41,-95.81 59,-78 63.19,-64.66 71.8,-51.72 79.87,-41.65"/>
<polygon fill="midnightblue" stroke="midnightblue" points="71.05,-150.48 79.87,-156.35 76.64,-146.26 71.05,-150.48"/>
</g>
<!-- Node3 -->
<g id="node3" class="node">
<title>Node3</title>
<g id="a_node3"><a xlink:href="../../d8/d12/_http_client_8h.html" target="_top" xlink:title=" ">
<polygon fill="none" stroke="black" points="67.5,-78.5 67.5,-119.5 244.5,-119.5 244.5,-78.5 67.5,-78.5"/>
<text text-anchor="start" x="75.5" y="-107.5" font-family="Helvetica,sans-Serif" font-size="10.00">/home/runner/work/cocos</text>
<text text-anchor="start" x="75.5" y="-96.5" font-family="Helvetica,sans-Serif" font-size="10.00">&#45;headers/cocos&#45;headers</text>
<text text-anchor="middle" x="156" y="-85.5" font-family="Helvetica,sans-Serif" font-size="10.00">/extensions/network/HttpClient.h</text>
</a>
</g>
</g>
<!-- Node1&#45;&gt;Node3 -->
<g id="edge2" class="edge">
<title>Node1&#45;&gt;Node3</title>
<path fill="none" stroke="midnightblue" d="M119.11,-148.34C126.41,-138.78 134.42,-128.27 141.11,-119.51"/>
<polygon fill="midnightblue" stroke="midnightblue" points="116.22,-146.36 112.94,-156.43 121.79,-150.6 116.22,-146.36"/>
</g>
<!-- Node3&#45;&gt;Node2 -->
<g id="edge3" class="edge">
<title>Node3&#45;&gt;Node2</title>
<path fill="none" stroke="midnightblue" d="M134.89,-70.34C127.59,-60.78 119.58,-50.27 112.89,-41.51"/>
<polygon fill="midnightblue" stroke="midnightblue" points="132.21,-72.6 141.06,-78.43 137.78,-68.36 132.21,-72.6"/>
</g>
</g>
</svg>
