<?xml version="1.0" encoding="UTF-8" standalone="no"?>
<!DOCTYPE svg PUBLIC "-//W3C//DTD SVG 1.1//EN"
 "http://www.w3.org/Graphics/SVG/1.1/DTD/svg11.dtd">
<!-- Generated by graphviz version 2.43.0 (0)
 -->
<!-- Title: ccFontDefinition Pages: 1 -->
<svg width="305pt" height="159pt"
 viewBox="0.00 0.00 304.50 159.00" xmlns="http://www.w3.org/2000/svg" xmlns:xlink="http://www.w3.org/1999/xlink">
<g id="graph0" class="graph" transform="scale(1 1) rotate(0) translate(4 155)">
<title>ccFontDefinition</title>
<!-- Node1 -->
<g id="node1" class="node">
<title>Node1</title>
<g id="a_node1"><a xlink:title="NA NA.">
<polygon fill="#999999" stroke="#666666" points="200,-19 105,-19 105,0 200,0 200,-19"/>
<text text-anchor="middle" x="152.5" y="-7" font-family="Helvetica,sans-Serif" font-size="10.00">ccFontDefinition</text>
</a>
</g>
</g>
<!-- Node2 -->
<g id="node2" class="node">
<title>Node2</title>
<g id="a_node2"><a xlink:href="../../d7/d39/structcc_color3_b.html" target="_top" xlink:title="RGB color composed of bytes 3 bytes.">
<polygon fill="white" stroke="#666666" points="65,-151 0,-151 0,-132 65,-132 65,-151"/>
<text text-anchor="middle" x="32.5" y="-139" font-family="Helvetica,sans-Serif" font-size="10.00">ccColor3B</text>
</a>
</g>
</g>
<!-- Node2&#45;&gt;Node1 -->
<g id="edge1" class="edge">
<title>Node2&#45;&gt;Node1</title>
<path fill="none" stroke="#9a32cd" stroke-dasharray="5,2" d="M25.08,-122.02C19.9,-105.92 15.67,-82.6 26.5,-66 43.8,-39.47 76.95,-25.54 104.9,-18.27"/>
<polygon fill="#9a32cd" stroke="#9a32cd" points="21.94,-123.64 28.63,-131.85 28.52,-121.25 21.94,-123.64"/>
<text text-anchor="middle" x="65.5" y="-73" font-family="Helvetica,sans-Serif" font-size="10.00"> m_fontFillColor</text>
</g>
<!-- Node4 -->
<g id="node4" class="node">
<title>Node4</title>
<g id="a_node4"><a xlink:href="../../d3/d29/structcc_font_stroke.html" target="_top" xlink:title=" ">
<polygon fill="white" stroke="#666666" points="192,-85 113,-85 113,-66 192,-66 192,-85"/>
<text text-anchor="middle" x="152.5" y="-73" font-family="Helvetica,sans-Serif" font-size="10.00">ccFontStroke</text>
</a>
</g>
</g>
<!-- Node2&#45;&gt;Node4 -->
<g id="edge4" class="edge">
<title>Node2&#45;&gt;Node4</title>
<path fill="none" stroke="#9a32cd" stroke-dasharray="5,2" d="M57.76,-127.03C81.4,-114.42 116,-95.97 136.19,-85.2"/>
<polygon fill="#9a32cd" stroke="#9a32cd" points="55.86,-124.07 48.68,-131.87 59.15,-130.25 55.86,-124.07"/>
<text text-anchor="middle" x="137.5" y="-106" font-family="Helvetica,sans-Serif" font-size="10.00"> m_strokeColor</text>
</g>
<!-- Node3 -->
<g id="node3" class="node">
<title>Node3</title>
<g id="a_node3"><a xlink:href="../../d7/d9c/structcc_font_shadow.html" target="_top" xlink:title="types used for defining fonts properties (i.e.">
<polygon fill="white" stroke="#666666" points="296.5,-85 210.5,-85 210.5,-66 296.5,-66 296.5,-85"/>
<text text-anchor="middle" x="253.5" y="-73" font-family="Helvetica,sans-Serif" font-size="10.00">ccFontShadow</text>
</a>
</g>
</g>
<!-- Node3&#45;&gt;Node1 -->
<g id="edge2" class="edge">
<title>Node3&#45;&gt;Node1</title>
<path fill="none" stroke="#9a32cd" stroke-dasharray="5,2" d="M235.94,-59.41C227.11,-52.18 216.07,-43.68 205.5,-37 194.8,-30.24 182.15,-23.86 171.89,-19.05"/>
<polygon fill="#9a32cd" stroke="#9a32cd" points="233.72,-62.11 243.63,-65.84 238.2,-56.74 233.72,-62.11"/>
<text text-anchor="middle" x="248.5" y="-40" font-family="Helvetica,sans-Serif" font-size="10.00"> m_shadow</text>
</g>
<!-- Node4&#45;&gt;Node1 -->
<g id="edge3" class="edge">
<title>Node4&#45;&gt;Node1</title>
<path fill="none" stroke="#9a32cd" stroke-dasharray="5,2" d="M152.5,-55.58C152.5,-43.63 152.5,-28.72 152.5,-19.41"/>
<polygon fill="#9a32cd" stroke="#9a32cd" points="149,-55.87 152.5,-65.87 156,-55.87 149,-55.87"/>
<text text-anchor="middle" x="177" y="-40" font-family="Helvetica,sans-Serif" font-size="10.00"> m_stroke</text>
</g>
</g>
</svg>
