<?xml version="1.0" encoding="UTF-8" standalone="no"?>
<!DOCTYPE svg PUBLIC "-//W3C//DTD SVG 1.1//EN"
 "http://www.w3.org/Graphics/SVG/1.1/DTD/svg11.dtd">
<!-- Generated by graphviz version 2.43.0 (0)
 -->
<!-- Title: ccFontDefinition Pages: 1 -->
<svg width="305pt" height="162pt"
 viewBox="0.00 0.00 304.50 162.00" xmlns="http://www.w3.org/2000/svg" xmlns:xlink="http://www.w3.org/1999/xlink">
<g id="graph0" class="graph" transform="scale(1 1) rotate(0) translate(4 158)">
<title>ccFontDefinition</title>
<!-- Node1 -->
<g id="node1" class="node">
<title>Node1</title>
<g id="a_node1"><a xlink:title="NA NA.">
<polygon fill="#bfbfbf" stroke="black" points="105,-0.5 105,-19.5 200,-19.5 200,-0.5 105,-0.5"/>
<text text-anchor="middle" x="152.5" y="-7.5" font-family="Helvetica,sans-Serif" font-size="10.00">ccFontDefinition</text>
</a>
</g>
</g>
<!-- Node2 -->
<g id="node2" class="node">
<title>Node2</title>
<g id="a_node2"><a xlink:href="../../d7/d39/structcc_color3_b.html" target="_top" xlink:title="RGB color composed of bytes 3 bytes.">
<polygon fill="none" stroke="black" points="0,-134.5 0,-153.5 65,-153.5 65,-134.5 0,-134.5"/>
<text text-anchor="middle" x="32.5" y="-141.5" font-family="Helvetica,sans-Serif" font-size="10.00">ccColor3B</text>
</a>
</g>
</g>
<!-- Node2&#45;&gt;Node1 -->
<g id="edge1" class="edge">
<title>Node2&#45;&gt;Node1</title>
<path fill="none" stroke="#9a32cd" stroke-dasharray="5,2" d="M25.13,-124.63C19.83,-108.19 15.38,-84.11 26.5,-67 43.78,-40.4 76.93,-26.34 104.89,-18.96"/>
<polygon fill="#9a32cd" stroke="#9a32cd" points="21.89,-125.96 28.58,-134.18 28.48,-123.58 21.89,-125.96"/>
<text text-anchor="middle" x="65.5" y="-74.5" font-family="Helvetica,sans-Serif" font-size="10.00"> m_fontFillColor</text>
</g>
<!-- Node4 -->
<g id="node4" class="node">
<title>Node4</title>
<g id="a_node4"><a xlink:href="../../d3/d29/structcc_font_stroke.html" target="_top" xlink:title=" ">
<polygon fill="none" stroke="black" points="113,-67.5 113,-86.5 192,-86.5 192,-67.5 113,-67.5"/>
<text text-anchor="middle" x="152.5" y="-74.5" font-family="Helvetica,sans-Serif" font-size="10.00">ccFontStroke</text>
</a>
</g>
</g>
<!-- Node2&#45;&gt;Node4 -->
<g id="edge4" class="edge">
<title>Node2&#45;&gt;Node4</title>
<path fill="none" stroke="#9a32cd" stroke-dasharray="5,2" d="M57.5,-129.46C81.29,-116.57 116.37,-97.57 136.57,-86.63"/>
<polygon fill="#9a32cd" stroke="#9a32cd" points="55.81,-126.39 48.68,-134.23 59.14,-132.55 55.81,-126.39"/>
<text text-anchor="middle" x="137.5" y="-108" font-family="Helvetica,sans-Serif" font-size="10.00"> m_strokeColor</text>
</g>
<!-- Node3 -->
<g id="node3" class="node">
<title>Node3</title>
<g id="a_node3"><a xlink:href="../../d7/d9c/structcc_font_shadow.html" target="_top" xlink:title="types used for defining fonts properties (i.e.">
<polygon fill="none" stroke="black" points="210.5,-67.5 210.5,-86.5 296.5,-86.5 296.5,-67.5 210.5,-67.5"/>
<text text-anchor="middle" x="253.5" y="-74.5" font-family="Helvetica,sans-Serif" font-size="10.00">ccFontShadow</text>
</a>
</g>
</g>
<!-- Node3&#45;&gt;Node1 -->
<g id="edge2" class="edge">
<title>Node3&#45;&gt;Node1</title>
<path fill="none" stroke="#9a32cd" stroke-dasharray="5,2" d="M235.94,-60.72C227.12,-53.41 216.08,-44.78 205.5,-38 194.72,-31.09 181.95,-24.53 171.65,-19.62"/>
<polygon fill="#9a32cd" stroke="#9a32cd" points="233.74,-63.44 243.64,-67.23 238.27,-58.1 233.74,-63.44"/>
<text text-anchor="middle" x="248.5" y="-41" font-family="Helvetica,sans-Serif" font-size="10.00"> m_shadow</text>
</g>
<!-- Node4&#45;&gt;Node1 -->
<g id="edge3" class="edge">
<title>Node4&#45;&gt;Node1</title>
<path fill="none" stroke="#9a32cd" stroke-dasharray="5,2" d="M152.5,-57.04C152.5,-44.67 152.5,-29.12 152.5,-19.63"/>
<polygon fill="#9a32cd" stroke="#9a32cd" points="149,-57.23 152.5,-67.23 156,-57.23 149,-57.23"/>
<text text-anchor="middle" x="177" y="-41" font-family="Helvetica,sans-Serif" font-size="10.00"> m_stroke</text>
</g>
</g>
</svg>
