<?xml version="1.0" encoding="UTF-8" standalone="no"?>
<!DOCTYPE svg PUBLIC "-//W3C//DTD SVG 1.1//EN"
 "http://www.w3.org/Graphics/SVG/1.1/DTD/svg11.dtd">
<!-- Generated by graphviz version 2.43.0 (0)
 -->
<!-- Title: /home/runner/work/cocos&#45;headers/cocos&#45;headers/extensions/GUI/CCScrollView/CCTableViewCell.h Pages: 1 -->
<svg width="1629pt" height="676pt"
 viewBox="0.00 0.00 1628.50 676.00" xmlns="http://www.w3.org/2000/svg" xmlns:xlink="http://www.w3.org/1999/xlink">
<g id="graph0" class="graph" transform="scale(1 1) rotate(0) translate(4 672)">
<title>/home/runner/work/cocos&#45;headers/cocos&#45;headers/extensions/GUI/CCScrollView/CCTableViewCell.h</title>
<!-- Node1 -->
<g id="node1" class="node">
<title>Node1</title>
<g id="a_node1"><a xlink:title=" ">
<polygon fill="#999999" stroke="#666666" points="1341.5,-668 1180.5,-668 1180.5,-616 1341.5,-616 1341.5,-668"/>
<text text-anchor="start" x="1188.5" y="-656" font-family="Helvetica,sans-Serif" font-size="10.00">/home/runner/work/cocos</text>
<text text-anchor="start" x="1188.5" y="-645" font-family="Helvetica,sans-Serif" font-size="10.00">&#45;headers/cocos&#45;headers</text>
<text text-anchor="start" x="1188.5" y="-634" font-family="Helvetica,sans-Serif" font-size="10.00">/extensions/GUI/CCScrollView</text>
<text text-anchor="middle" x="1261" y="-623" font-family="Helvetica,sans-Serif" font-size="10.00">/CCTableViewCell.h</text>
</a>
</g>
</g>
<!-- Node2 -->
<g id="node2" class="node">
<title>Node2</title>
<g id="a_node2"><a xlink:href="../../db/d7f/_c_c_node_8h.html" target="_top" xlink:title=" ">
<polygon fill="white" stroke="#666666" points="1181.5,-580 1056.5,-580 1056.5,-561 1181.5,-561 1181.5,-580"/>
<text text-anchor="middle" x="1119" y="-568" font-family="Helvetica,sans-Serif" font-size="10.00">base_nodes/CCNode.h</text>
</a>
</g>
</g>
<!-- Node1&#45;&gt;Node2 -->
<g id="edge1" class="edge">
<title>Node1&#45;&gt;Node2</title>
<path fill="none" stroke="#63b8ff" d="M1209.73,-615.91C1188.15,-605.35 1163.93,-593.49 1145.94,-584.68"/>
<polygon fill="#63b8ff" stroke="#63b8ff" points="1147.16,-581.39 1136.64,-580.14 1144.09,-587.68 1147.16,-581.39"/>
</g>
<!-- Node32 -->
<g id="node32" class="node">
<title>Node32</title>
<g id="a_node32"><a xlink:href="../../dc/d52/_c_c_sorting_8h.html" target="_top" xlink:title=" ">
<polygon fill="white" stroke="#666666" points="1483,-580 1409,-580 1409,-561 1483,-561 1483,-580"/>
<text text-anchor="middle" x="1446" y="-568" font-family="Helvetica,sans-Serif" font-size="10.00">CCSorting.h</text>
</a>
</g>
</g>
<!-- Node1&#45;&gt;Node32 -->
<g id="edge55" class="edge">
<title>Node1&#45;&gt;Node32</title>
<path fill="none" stroke="#63b8ff" d="M1327.79,-615.91C1356.95,-604.95 1389.81,-592.61 1413.47,-583.72"/>
<polygon fill="#63b8ff" stroke="#63b8ff" points="1414.88,-586.93 1423.01,-580.14 1412.42,-580.38 1414.88,-586.93"/>
</g>
<!-- Node3 -->
<g id="node3" class="node">
<title>Node3</title>
<g id="a_node3"><a xlink:href="../../d9/dc8/cc_macros_8h.html" target="_top" xlink:title=" ">
<polygon fill="white" stroke="#666666" points="924.5,-239 853.5,-239 853.5,-220 924.5,-220 924.5,-239"/>
<text text-anchor="middle" x="889" y="-227" font-family="Helvetica,sans-Serif" font-size="10.00">ccMacros.h</text>
</a>
</g>
</g>
<!-- Node2&#45;&gt;Node3 -->
<g id="edge2" class="edge">
<title>Node2&#45;&gt;Node3</title>
<path fill="none" stroke="#63b8ff" d="M1181.69,-567.48C1256.03,-561.35 1370,-538.5 1370,-456 1370,-456 1370,-456 1370,-338.5 1370,-249.92 1055.5,-233.98 935.12,-231.12"/>
<polygon fill="#63b8ff" stroke="#63b8ff" points="934.83,-227.61 924.76,-230.89 934.68,-234.61 934.83,-227.61"/>
</g>
<!-- Node10 -->
<g id="node10" class="node">
<title>Node10</title>
<g id="a_node10"><a xlink:href="../../d3/d15/_c_c_affine_transform_8h.html" target="_top" xlink:title=" ">
<polygon fill="white" stroke="#666666" points="148,-404 0,-404 0,-385 148,-385 148,-404"/>
<text text-anchor="middle" x="74" y="-392" font-family="Helvetica,sans-Serif" font-size="10.00">cocoa/CCAffineTransform.h</text>
</a>
</g>
</g>
<!-- Node2&#45;&gt;Node10 -->
<g id="edge11" class="edge">
<title>Node2&#45;&gt;Node10</title>
<path fill="none" stroke="#63b8ff" d="M1056.43,-569.65C886.03,-569.52 416.56,-565.39 268,-525 192.31,-504.42 120.1,-440.85 89.43,-411.12"/>
<polygon fill="#63b8ff" stroke="#63b8ff" points="91.81,-408.55 82.23,-404.02 86.89,-413.53 91.81,-408.55"/>
</g>
<!-- Node16 -->
<g id="node16" class="node">
<title>Node16</title>
<g id="a_node16"><a xlink:href="../../da/d35/_c_c_array_8h.html" target="_top" xlink:title=" ">
<polygon fill="white" stroke="#666666" points="1493.5,-525 1398.5,-525 1398.5,-506 1493.5,-506 1493.5,-525"/>
<text text-anchor="middle" x="1446" y="-513" font-family="Helvetica,sans-Serif" font-size="10.00">cocoa/CCArray.h</text>
</a>
</g>
</g>
<!-- Node2&#45;&gt;Node16 -->
<g id="edge21" class="edge">
<title>Node2&#45;&gt;Node16</title>
<path fill="none" stroke="#63b8ff" d="M1171.54,-560.98C1230.88,-551.37 1327.15,-535.76 1388.47,-525.82"/>
<polygon fill="#63b8ff" stroke="#63b8ff" points="1389.07,-529.27 1398.38,-524.22 1387.95,-522.36 1389.07,-529.27"/>
</g>
<!-- Node18 -->
<g id="node18" class="node">
<title>Node18</title>
<g id="a_node18"><a xlink:title=" ">
<polygon fill="#e0e0e0" stroke="#999999" points="752,-349 700,-349 700,-330 752,-330 752,-349"/>
<text text-anchor="middle" x="726" y="-337" font-family="Helvetica,sans-Serif" font-size="10.00">CCGL.h</text>
</a>
</g>
</g>
<!-- Node2&#45;&gt;Node18 -->
<g id="edge23" class="edge">
<title>Node2&#45;&gt;Node18</title>
<path fill="none" stroke="#63b8ff" d="M1113.6,-560.92C1108.28,-552.17 1100.21,-538.04 1095,-525 1071.1,-465.12 1105.48,-427.5 1057,-385 1013.74,-347.08 838.7,-341.21 762.14,-340.49"/>
<polygon fill="#63b8ff" stroke="#63b8ff" points="762.04,-336.99 752.02,-340.42 761.99,-343.99 762.04,-336.99"/>
</g>
<!-- Node19 -->
<g id="node19" class="node">
<title>Node19</title>
<g id="a_node19"><a xlink:href="../../da/d2f/cc_g_l_state_cache_8h.html" target="_top" xlink:title=" ">
<polygon fill="white" stroke="#666666" points="776,-404 630,-404 630,-385 776,-385 776,-404"/>
<text text-anchor="middle" x="703" y="-392" font-family="Helvetica,sans-Serif" font-size="10.00">shaders/ccGLStateCache.h</text>
</a>
</g>
</g>
<!-- Node2&#45;&gt;Node19 -->
<g id="edge24" class="edge">
<title>Node2&#45;&gt;Node19</title>
<path fill="none" stroke="#63b8ff" d="M1087.16,-560.97C1032.72,-545.88 918.85,-512.05 828,-470 789.58,-452.22 747.89,-425.79 723.68,-409.66"/>
<polygon fill="#63b8ff" stroke="#63b8ff" points="725.55,-406.7 715.3,-404.02 721.64,-412.5 725.55,-406.7"/>
</g>
<!-- Node20 -->
<g id="node20" class="node">
<title>Node20</title>
<g id="a_node20"><a xlink:href="../../de/d32/_c_c_g_l_program_8h.html" target="_top" xlink:title=" ">
<polygon fill="white" stroke="#666666" points="1342,-404 1208,-404 1208,-385 1342,-385 1342,-404"/>
<text text-anchor="middle" x="1275" y="-392" font-family="Helvetica,sans-Serif" font-size="10.00">shaders/CCGLProgram.h</text>
</a>
</g>
</g>
<!-- Node2&#45;&gt;Node20 -->
<g id="edge27" class="edge">
<title>Node2&#45;&gt;Node20</title>
<path fill="none" stroke="#63b8ff" d="M1159.59,-560.97C1181.76,-554.45 1208.23,-543.36 1226,-525 1256.27,-493.73 1268.23,-441.92 1272.64,-414.26"/>
<polygon fill="#63b8ff" stroke="#63b8ff" points="1276.11,-414.71 1274.06,-404.32 1269.18,-413.72 1276.11,-414.71"/>
</g>
<!-- Node21 -->
<g id="node21" class="node">
<title>Node21</title>
<g id="a_node21"><a xlink:title=" ">
<polygon fill="#e0e0e0" stroke="#999999" points="1217.5,-525 1104.5,-525 1104.5,-506 1217.5,-506 1217.5,-525"/>
<text text-anchor="middle" x="1161" y="-513" font-family="Helvetica,sans-Serif" font-size="10.00">kazmath/kazmath.h</text>
</a>
</g>
</g>
<!-- Node2&#45;&gt;Node21 -->
<g id="edge31" class="edge">
<title>Node2&#45;&gt;Node21</title>
<path fill="none" stroke="#63b8ff" d="M1125.94,-560.75C1131.87,-553.26 1140.57,-542.28 1147.82,-533.13"/>
<polygon fill="#63b8ff" stroke="#63b8ff" points="1150.73,-535.1 1154.19,-525.09 1145.24,-530.75 1150.73,-535.1"/>
</g>
<!-- Node22 -->
<g id="node22" class="node">
<title>Node22</title>
<g id="a_node22"><a xlink:href="../../dc/dbc/_c_c_script_support_8h.html" target="_top" xlink:title=" ">
<polygon fill="white" stroke="#666666" points="1013,-464.5 837,-464.5 837,-445.5 1013,-445.5 1013,-464.5"/>
<text text-anchor="middle" x="925" y="-452.5" font-family="Helvetica,sans-Serif" font-size="10.00">script_support/CCScriptSupport.h</text>
</a>
</g>
</g>
<!-- Node2&#45;&gt;Node22 -->
<g id="edge32" class="edge">
<title>Node2&#45;&gt;Node22</title>
<path fill="none" stroke="#63b8ff" d="M1104.42,-560.97C1071.06,-541.46 988.97,-493.42 948.43,-469.71"/>
<polygon fill="#63b8ff" stroke="#63b8ff" points="950.15,-466.66 939.75,-464.63 946.61,-472.7 950.15,-466.66"/>
</g>
<!-- Node29 -->
<g id="node29" class="node">
<title>Node29</title>
<g id="a_node29"><a xlink:href="../../d8/d76/_c_c_protocols_8h.html" target="_top" xlink:title=" ">
<polygon fill="white" stroke="#666666" points="361,-525 277,-525 277,-506 361,-506 361,-525"/>
<text text-anchor="middle" x="319" y="-513" font-family="Helvetica,sans-Serif" font-size="10.00">CCProtocols.h</text>
</a>
</g>
</g>
<!-- Node2&#45;&gt;Node29 -->
<g id="edge44" class="edge">
<title>Node2&#45;&gt;Node29</title>
<path fill="none" stroke="#63b8ff" d="M1056.23,-565.34C903.14,-555.2 512.83,-529.34 371.28,-519.96"/>
<polygon fill="#63b8ff" stroke="#63b8ff" points="371.34,-516.46 361.13,-519.29 370.88,-523.44 371.34,-516.46"/>
</g>
<!-- Node4 -->
<g id="node4" class="node">
<title>Node4</title>
<g id="a_node4"><a xlink:href="../../d5/d22/_c_c_common_8h.html" target="_top" xlink:title=" ">
<polygon fill="white" stroke="#666666" points="830,-184 702,-184 702,-165 830,-165 830,-184"/>
<text text-anchor="middle" x="766" y="-172" font-family="Helvetica,sans-Serif" font-size="10.00">platform/CCCommon.h</text>
</a>
</g>
</g>
<!-- Node3&#45;&gt;Node4 -->
<g id="edge3" class="edge">
<title>Node3&#45;&gt;Node4</title>
<path fill="none" stroke="#63b8ff" d="M869.24,-219.98C849.27,-211.38 818.2,-197.99 795.35,-188.15"/>
<polygon fill="#63b8ff" stroke="#63b8ff" points="796.69,-184.91 786.12,-184.17 793.92,-191.34 796.69,-184.91"/>
</g>
<!-- Node6 -->
<g id="node6" class="node">
<title>Node6</title>
<g id="a_node6"><a xlink:href="../../db/d9f/cc_config_8h.html" target="_top" xlink:title="cocos2d (cc) configuration file">
<polygon fill="white" stroke="#666666" points="804.5,-74 737.5,-74 737.5,-55 804.5,-55 804.5,-74"/>
<text text-anchor="middle" x="771" y="-62" font-family="Helvetica,sans-Serif" font-size="10.00">ccConfig.h</text>
</a>
</g>
</g>
<!-- Node3&#45;&gt;Node6 -->
<g id="edge10" class="edge">
<title>Node3&#45;&gt;Node6</title>
<path fill="none" stroke="#63b8ff" d="M898.5,-219.74C910.71,-207.37 929.2,-184.15 919,-165 895.32,-120.54 841.96,-92.4 806.21,-77.8"/>
<polygon fill="#63b8ff" stroke="#63b8ff" points="807.22,-74.43 796.63,-74.04 804.66,-80.95 807.22,-74.43"/>
</g>
<!-- Node9 -->
<g id="node9" class="node">
<title>Node9</title>
<g id="a_node9"><a xlink:title=" ">
<polygon fill="#e0e0e0" stroke="#999999" points="910,-184 848,-184 848,-165 910,-165 910,-184"/>
<text text-anchor="middle" x="879" y="-172" font-family="Helvetica,sans-Serif" font-size="10.00">CCStdC.h</text>
</a>
</g>
</g>
<!-- Node3&#45;&gt;Node9 -->
<g id="edge9" class="edge">
<title>Node3&#45;&gt;Node9</title>
<path fill="none" stroke="#63b8ff" d="M887.35,-219.75C886.04,-212.8 884.16,-202.85 882.52,-194.13"/>
<polygon fill="#63b8ff" stroke="#63b8ff" points="885.91,-193.27 880.62,-184.09 879.04,-194.56 885.91,-193.27"/>
</g>
<!-- Node5 -->
<g id="node5" class="node">
<title>Node5</title>
<g id="a_node5"><a xlink:href="../../d3/d41/_c_c_platform_macros_8h.html" target="_top" xlink:title=" ">
<polygon fill="white" stroke="#666666" points="678,-129 562,-129 562,-110 678,-110 678,-129"/>
<text text-anchor="middle" x="620" y="-117" font-family="Helvetica,sans-Serif" font-size="10.00">CCPlatformMacros.h</text>
</a>
</g>
</g>
<!-- Node4&#45;&gt;Node5 -->
<g id="edge4" class="edge">
<title>Node4&#45;&gt;Node5</title>
<path fill="none" stroke="#63b8ff" d="M742.54,-164.98C718.42,-156.23 680.63,-142.51 653.4,-132.62"/>
<polygon fill="#63b8ff" stroke="#63b8ff" points="654.48,-129.29 643.88,-129.17 652.09,-135.87 654.48,-129.29"/>
</g>
<!-- Node5&#45;&gt;Node6 -->
<g id="edge5" class="edge">
<title>Node5&#45;&gt;Node6</title>
<path fill="none" stroke="#63b8ff" d="M644.26,-109.98C669.32,-101.19 708.63,-87.39 736.83,-77.49"/>
<polygon fill="#63b8ff" stroke="#63b8ff" points="738.02,-80.78 746.3,-74.17 735.7,-74.18 738.02,-80.78"/>
</g>
<!-- Node7 -->
<g id="node7" class="node">
<title>Node7</title>
<g id="a_node7"><a xlink:href="../../dd/d96/_c_c_platform_config_8h.html" target="_top" xlink:title=" ">
<polygon fill="white" stroke="#666666" points="752.5,-19 595.5,-19 595.5,0 752.5,0 752.5,-19"/>
<text text-anchor="middle" x="674" y="-7" font-family="Helvetica,sans-Serif" font-size="10.00">platform/CCPlatformConfig.h</text>
</a>
</g>
</g>
<!-- Node5&#45;&gt;Node7 -->
<g id="edge7" class="edge">
<title>Node5&#45;&gt;Node7</title>
<path fill="none" stroke="#63b8ff" d="M612.33,-109.87C602.11,-97.25 586.45,-73.28 597,-55 605.42,-40.41 620.65,-30.17 635.35,-23.23"/>
<polygon fill="#63b8ff" stroke="#63b8ff" points="637.07,-26.3 644.86,-19.13 634.29,-19.87 637.07,-26.3"/>
</g>
<!-- Node8 -->
<g id="node8" class="node">
<title>Node8</title>
<g id="a_node8"><a xlink:title=" ">
<polygon fill="#e0e0e0" stroke="#999999" points="719.5,-74 606.5,-74 606.5,-55 719.5,-55 719.5,-74"/>
<text text-anchor="middle" x="663" y="-62" font-family="Helvetica,sans-Serif" font-size="10.00">CCPlatformDefine.h</text>
</a>
</g>
</g>
<!-- Node5&#45;&gt;Node8 -->
<g id="edge8" class="edge">
<title>Node5&#45;&gt;Node8</title>
<path fill="none" stroke="#63b8ff" d="M627.1,-109.75C633.17,-102.26 642.09,-91.28 649.51,-82.13"/>
<polygon fill="#63b8ff" stroke="#63b8ff" points="652.45,-84.06 656.03,-74.09 647.01,-79.65 652.45,-84.06"/>
</g>
<!-- Node6&#45;&gt;Node7 -->
<g id="edge6" class="edge">
<title>Node6&#45;&gt;Node7</title>
<path fill="none" stroke="#63b8ff" d="M755.42,-54.98C740.23,-46.69 716.9,-33.94 699.1,-24.22"/>
<polygon fill="#63b8ff" stroke="#63b8ff" points="700.32,-20.89 689.87,-19.17 696.97,-27.04 700.32,-20.89"/>
</g>
<!-- Node10&#45;&gt;Node5 -->
<g id="edge20" class="edge">
<title>Node10&#45;&gt;Node5</title>
<path fill="none" stroke="#63b8ff" d="M75.75,-384.86C79.3,-366.6 87,-322.7 87,-285.5 87,-285.5 87,-285.5 87,-228.5 87,-134.68 408.2,-121.44 551.91,-120.21"/>
<polygon fill="#63b8ff" stroke="#63b8ff" points="551.97,-123.71 561.95,-120.14 551.92,-116.71 551.97,-123.71"/>
</g>
<!-- Node11 -->
<g id="node11" class="node">
<title>Node11</title>
<g id="a_node11"><a xlink:href="../../d6/d09/_c_c_geometry_8h.html" target="_top" xlink:title=" ">
<polygon fill="white" stroke="#666666" points="288,-349 202,-349 202,-330 288,-330 288,-349"/>
<text text-anchor="middle" x="245" y="-337" font-family="Helvetica,sans-Serif" font-size="10.00">CCGeometry.h</text>
</a>
</g>
</g>
<!-- Node10&#45;&gt;Node11 -->
<g id="edge12" class="edge">
<title>Node10&#45;&gt;Node11</title>
<path fill="none" stroke="#63b8ff" d="M101.47,-384.98C130.18,-376.09 175.42,-362.07 207.42,-352.15"/>
<polygon fill="#63b8ff" stroke="#63b8ff" points="208.8,-355.39 217.31,-349.08 206.72,-348.7 208.8,-355.39"/>
</g>
<!-- Node11&#45;&gt;Node5 -->
<g id="edge13" class="edge">
<title>Node11&#45;&gt;Node5</title>
<path fill="none" stroke="#63b8ff" d="M234.36,-329.75C221.16,-317.77 201.38,-295.41 210,-275 237.26,-210.43 260.21,-196.14 323,-165 362.04,-145.64 476.7,-132.59 551.6,-125.87"/>
<polygon fill="#63b8ff" stroke="#63b8ff" points="552.24,-129.32 561.89,-124.96 551.62,-122.35 552.24,-129.32"/>
</g>
<!-- Node12 -->
<g id="node12" class="node">
<title>Node12</title>
<g id="a_node12"><a xlink:href="../../dd/d69/_c_c_object_8h.html" target="_top" xlink:title=" ">
<polygon fill="white" stroke="#666666" points="711.5,-294 640.5,-294 640.5,-275 711.5,-275 711.5,-294"/>
<text text-anchor="middle" x="676" y="-282" font-family="Helvetica,sans-Serif" font-size="10.00">CCObject.h</text>
</a>
</g>
</g>
<!-- Node11&#45;&gt;Node12 -->
<g id="edge14" class="edge">
<title>Node11&#45;&gt;Node12</title>
<path fill="none" stroke="#63b8ff" d="M288.3,-333.18C370.17,-323.11 546.91,-301.37 630.47,-291.1"/>
<polygon fill="#63b8ff" stroke="#63b8ff" points="630.93,-294.57 640.42,-289.87 630.07,-287.62 630.93,-294.57"/>
</g>
<!-- Node15 -->
<g id="node15" class="node">
<title>Node15</title>
<g id="a_node15"><a xlink:title=" ">
<polygon fill="#e0e0e0" stroke="#999999" points="270.5,-294 219.5,-294 219.5,-275 270.5,-275 270.5,-294"/>
<text text-anchor="middle" x="245" y="-282" font-family="Helvetica,sans-Serif" font-size="10.00">math.h</text>
</a>
</g>
</g>
<!-- Node11&#45;&gt;Node15 -->
<g id="edge19" class="edge">
<title>Node11&#45;&gt;Node15</title>
<path fill="none" stroke="#63b8ff" d="M245,-329.75C245,-322.8 245,-312.85 245,-304.13"/>
<polygon fill="#63b8ff" stroke="#63b8ff" points="248.5,-304.09 245,-294.09 241.5,-304.09 248.5,-304.09"/>
</g>
<!-- Node12&#45;&gt;Node3 -->
<g id="edge18" class="edge">
<title>Node12&#45;&gt;Node3</title>
<path fill="none" stroke="#63b8ff" d="M710.22,-274.98C746.76,-265.89 804.78,-251.46 844.76,-241.51"/>
<polygon fill="#63b8ff" stroke="#63b8ff" points="845.65,-244.89 854.51,-239.08 843.96,-238.1 845.65,-244.89"/>
</g>
<!-- Node13 -->
<g id="node13" class="node">
<title>Node13</title>
<g id="a_node13"><a xlink:href="../../d9/d2d/_c_c_data_visitor_8h.html" target="_top" xlink:title=" ">
<polygon fill="white" stroke="#666666" points="722.5,-239 629.5,-239 629.5,-220 722.5,-220 722.5,-239"/>
<text text-anchor="middle" x="676" y="-227" font-family="Helvetica,sans-Serif" font-size="10.00">CCDataVisitor.h</text>
</a>
</g>
</g>
<!-- Node12&#45;&gt;Node13 -->
<g id="edge15" class="edge">
<title>Node12&#45;&gt;Node13</title>
<path fill="none" stroke="#63b8ff" d="M676,-274.75C676,-267.8 676,-257.85 676,-249.13"/>
<polygon fill="#63b8ff" stroke="#63b8ff" points="679.5,-249.09 676,-239.09 672.5,-249.09 679.5,-249.09"/>
</g>
<!-- Node13&#45;&gt;Node5 -->
<g id="edge16" class="edge">
<title>Node13&#45;&gt;Node5</title>
<path fill="none" stroke="#63b8ff" d="M671.42,-219.66C662.22,-201.93 641.38,-161.73 629.24,-138.32"/>
<polygon fill="#63b8ff" stroke="#63b8ff" points="632.2,-136.42 624.49,-129.16 625.99,-139.65 632.2,-136.42"/>
</g>
<!-- Node14 -->
<g id="node14" class="node">
<title>Node14</title>
<g id="a_node14"><a xlink:title=" ">
<polygon fill="#e0e0e0" stroke="#999999" points="376,-184 332,-184 332,-165 376,-165 376,-184"/>
<text text-anchor="middle" x="354" y="-172" font-family="Helvetica,sans-Serif" font-size="10.00">string</text>
</a>
</g>
</g>
<!-- Node13&#45;&gt;Node14 -->
<g id="edge17" class="edge">
<title>Node13&#45;&gt;Node14</title>
<path fill="none" stroke="#63b8ff" d="M629.18,-220.79C562.84,-209.87 443.22,-190.18 386.08,-180.78"/>
<polygon fill="#63b8ff" stroke="#63b8ff" points="386.6,-177.32 376.16,-179.15 385.46,-184.23 386.6,-177.32"/>
</g>
<!-- Node17 -->
<g id="node17" class="node">
<title>Node17</title>
<g id="a_node17"><a xlink:title=" ">
<polygon fill="#e0e0e0" stroke="#999999" points="1518,-470 1398,-470 1398,-440 1518,-440 1518,-470"/>
<text text-anchor="start" x="1406" y="-458" font-family="Helvetica,sans-Serif" font-size="10.00">support/data_support</text>
<text text-anchor="middle" x="1458" y="-447" font-family="Helvetica,sans-Serif" font-size="10.00">/ccCArray.h</text>
</a>
</g>
</g>
<!-- Node16&#45;&gt;Node17 -->
<g id="edge22" class="edge">
<title>Node16&#45;&gt;Node17</title>
<path fill="none" stroke="#63b8ff" d="M1447.77,-505.87C1449.17,-499.03 1451.2,-489.14 1453.08,-479.97"/>
<polygon fill="#63b8ff" stroke="#63b8ff" points="1456.52,-480.61 1455.1,-470.11 1449.67,-479.21 1456.52,-480.61"/>
</g>
<!-- Node19&#45;&gt;Node5 -->
<g id="edge26" class="edge">
<title>Node19&#45;&gt;Node5</title>
<path fill="none" stroke="#63b8ff" d="M685.23,-384.95C656.01,-369.5 601,-333.99 601,-285.5 601,-285.5 601,-285.5 601,-228.5 601,-196.56 609.16,-160.1 614.78,-138.77"/>
<polygon fill="#63b8ff" stroke="#63b8ff" points="618.17,-139.66 617.44,-129.09 611.42,-137.81 618.17,-139.66"/>
</g>
<!-- Node19&#45;&gt;Node18 -->
<g id="edge25" class="edge">
<title>Node19&#45;&gt;Node18</title>
<path fill="none" stroke="#63b8ff" d="M706.8,-384.75C709.91,-377.57 714.42,-367.18 718.29,-358.27"/>
<polygon fill="#63b8ff" stroke="#63b8ff" points="721.5,-359.66 722.27,-349.09 715.08,-356.87 721.5,-359.66"/>
</g>
<!-- Node20&#45;&gt;Node3 -->
<g id="edge28" class="edge">
<title>Node20&#45;&gt;Node3</title>
<path fill="none" stroke="#63b8ff" d="M1265.1,-384.79C1249.47,-371.42 1217.68,-345.73 1187,-330 1102.34,-286.61 994.72,-256.16 934.72,-241.16"/>
<polygon fill="#63b8ff" stroke="#63b8ff" points="935.34,-237.7 924.8,-238.71 933.67,-244.5 935.34,-237.7"/>
</g>
<!-- Node20&#45;&gt;Node12 -->
<g id="edge29" class="edge">
<title>Node20&#45;&gt;Node12</title>
<path fill="none" stroke="#63b8ff" d="M1262.07,-384.91C1239.96,-370.71 1193.02,-342.67 1149,-330 1069.5,-307.11 824.14,-292.77 721.68,-287.63"/>
<polygon fill="#63b8ff" stroke="#63b8ff" points="721.8,-284.14 711.64,-287.14 721.46,-291.13 721.8,-284.14"/>
</g>
<!-- Node20&#45;&gt;Node18 -->
<g id="edge30" class="edge">
<title>Node20&#45;&gt;Node18</title>
<path fill="none" stroke="#63b8ff" d="M1207.87,-385.93C1204.87,-385.61 1201.91,-385.3 1199,-385 1036.4,-368.26 842.09,-350.77 762.6,-343.72"/>
<polygon fill="#63b8ff" stroke="#63b8ff" points="762.44,-340.19 752.17,-342.8 761.82,-347.17 762.44,-340.19"/>
</g>
<!-- Node22&#45;&gt;Node4 -->
<g id="edge33" class="edge">
<title>Node22&#45;&gt;Node4</title>
<path fill="none" stroke="#63b8ff" d="M892.14,-445.48C869.68,-438.04 840.85,-425.07 823,-404 803.96,-381.52 804,-369.96 804,-340.5 804,-340.5 804,-340.5 804,-283.5 804,-250.02 787.55,-213.84 776.3,-193.01"/>
<polygon fill="#63b8ff" stroke="#63b8ff" points="779.24,-191.1 771.28,-184.1 773.13,-194.53 779.24,-191.1"/>
</g>
<!-- Node22&#45;&gt;Node14 -->
<g id="edge42" class="edge">
<title>Node22&#45;&gt;Node14</title>
<path fill="none" stroke="#63b8ff" d="M836.95,-452.24C718.4,-448.62 514.73,-437.55 449,-404 415.22,-386.76 392,-378.42 392,-340.5 392,-340.5 392,-340.5 392,-283.5 392,-250.02 375.55,-213.84 364.3,-193.01"/>
<polygon fill="#63b8ff" stroke="#63b8ff" points="367.24,-191.1 359.28,-184.1 361.13,-194.53 367.24,-191.1"/>
</g>
<!-- Node23 -->
<g id="node23" class="node">
<title>Node23</title>
<g id="a_node23"><a xlink:title=" ">
<polygon fill="#e0e0e0" stroke="#999999" points="942,-404 832,-404 832,-385 942,-385 942,-404"/>
<text text-anchor="middle" x="887" y="-392" font-family="Helvetica,sans-Serif" font-size="10.00">CCAccelerometer.h</text>
</a>
</g>
</g>
<!-- Node22&#45;&gt;Node23 -->
<g id="edge34" class="edge">
<title>Node22&#45;&gt;Node23</title>
<path fill="none" stroke="#63b8ff" d="M919.39,-445.37C913.84,-436.81 905.17,-423.47 898.2,-412.74"/>
<polygon fill="#63b8ff" stroke="#63b8ff" points="901.01,-410.65 892.63,-404.17 895.14,-414.46 901.01,-410.65"/>
</g>
<!-- Node24 -->
<g id="node24" class="node">
<title>Node24</title>
<g id="a_node24"><a xlink:href="../../d3/dff/_c_c_touch_8h.html" target="_top" xlink:title=" ">
<polygon fill="white" stroke="#666666" points="611.5,-404 458.5,-404 458.5,-385 611.5,-385 611.5,-404"/>
<text text-anchor="middle" x="535" y="-392" font-family="Helvetica,sans-Serif" font-size="10.00">touch_dispatcher/CCTouch.h</text>
</a>
</g>
</g>
<!-- Node22&#45;&gt;Node24 -->
<g id="edge35" class="edge">
<title>Node22&#45;&gt;Node24</title>
<path fill="none" stroke="#63b8ff" d="M868.29,-445.49C797.67,-434.9 677.2,-416.83 602.07,-405.56"/>
<polygon fill="#63b8ff" stroke="#63b8ff" points="602.19,-402.04 591.78,-404.02 601.15,-408.96 602.19,-402.04"/>
</g>
<!-- Node25 -->
<g id="node25" class="node">
<title>Node25</title>
<g id="a_node25"><a xlink:href="../../da/ddc/_c_c_set_8h.html" target="_top" xlink:title=" ">
<polygon fill="white" stroke="#666666" points="1190,-404 1104,-404 1104,-385 1190,-385 1190,-404"/>
<text text-anchor="middle" x="1147" y="-392" font-family="Helvetica,sans-Serif" font-size="10.00">cocoa/CCSet.h</text>
</a>
</g>
</g>
<!-- Node22&#45;&gt;Node25 -->
<g id="edge38" class="edge">
<title>Node22&#45;&gt;Node25</title>
<path fill="none" stroke="#63b8ff" d="M957.28,-445.49C996.25,-435.23 1061.88,-417.93 1104.82,-406.62"/>
<polygon fill="#63b8ff" stroke="#63b8ff" points="1105.9,-409.95 1114.68,-404.02 1104.12,-403.18 1105.9,-409.95"/>
</g>
<!-- Node27 -->
<g id="node27" class="node">
<title>Node27</title>
<g id="a_node27"><a xlink:title=" ">
<polygon fill="#e0e0e0" stroke="#999999" points="998,-404 960,-404 960,-385 998,-385 998,-404"/>
<text text-anchor="middle" x="979" y="-392" font-family="Helvetica,sans-Serif" font-size="10.00">map</text>
</a>
</g>
</g>
<!-- Node22&#45;&gt;Node27 -->
<g id="edge41" class="edge">
<title>Node22&#45;&gt;Node27</title>
<path fill="none" stroke="#63b8ff" d="M932.97,-445.37C941.1,-436.55 953.93,-422.66 963.98,-411.77"/>
<polygon fill="#63b8ff" stroke="#63b8ff" points="966.79,-413.89 971,-404.17 961.64,-409.14 966.79,-413.89"/>
</g>
<!-- Node28 -->
<g id="node28" class="node">
<title>Node28</title>
<g id="a_node28"><a xlink:title=" ">
<polygon fill="#e0e0e0" stroke="#999999" points="1048,-404 1016,-404 1016,-385 1048,-385 1048,-404"/>
<text text-anchor="middle" x="1032" y="-392" font-family="Helvetica,sans-Serif" font-size="10.00">list</text>
</a>
</g>
</g>
<!-- Node22&#45;&gt;Node28 -->
<g id="edge43" class="edge">
<title>Node22&#45;&gt;Node28</title>
<path fill="none" stroke="#63b8ff" d="M940.79,-445.37C958.33,-435.78 986.88,-420.17 1007.37,-408.97"/>
<polygon fill="#63b8ff" stroke="#63b8ff" points="1009.05,-412.04 1016.15,-404.17 1005.69,-405.89 1009.05,-412.04"/>
</g>
<!-- Node24&#45;&gt;Node11 -->
<g id="edge37" class="edge">
<title>Node24&#45;&gt;Node11</title>
<path fill="none" stroke="#63b8ff" d="M488.41,-384.98C436.51,-375.5 352.78,-360.2 298.31,-350.24"/>
<polygon fill="#63b8ff" stroke="#63b8ff" points="298.63,-346.74 288.16,-348.39 297.37,-353.63 298.63,-346.74"/>
</g>
<!-- Node24&#45;&gt;Node12 -->
<g id="edge36" class="edge">
<title>Node24&#45;&gt;Node12</title>
<path fill="none" stroke="#63b8ff" d="M546.54,-384.66C570.72,-366.14 626.94,-323.08 656.71,-300.28"/>
<polygon fill="#63b8ff" stroke="#63b8ff" points="658.89,-303.02 664.7,-294.16 654.63,-297.46 658.89,-303.02"/>
</g>
<!-- Node25&#45;&gt;Node12 -->
<g id="edge40" class="edge">
<title>Node25&#45;&gt;Node12</title>
<path fill="none" stroke="#63b8ff" d="M1147.22,-384.91C1147.06,-370.96 1144.52,-343.61 1128,-330 1097.08,-304.53 830.48,-291.46 721.81,-287.15"/>
<polygon fill="#63b8ff" stroke="#63b8ff" points="721.93,-283.65 711.8,-286.76 721.66,-290.64 721.93,-283.65"/>
</g>
<!-- Node26 -->
<g id="node26" class="node">
<title>Node26</title>
<g id="a_node26"><a xlink:title=" ">
<polygon fill="#e0e0e0" stroke="#999999" points="1119,-349 1087,-349 1087,-330 1119,-330 1119,-349"/>
<text text-anchor="middle" x="1103" y="-337" font-family="Helvetica,sans-Serif" font-size="10.00">set</text>
</a>
</g>
</g>
<!-- Node25&#45;&gt;Node26 -->
<g id="edge39" class="edge">
<title>Node25&#45;&gt;Node26</title>
<path fill="none" stroke="#63b8ff" d="M1139.73,-384.75C1133.46,-377.18 1124.21,-366.05 1116.57,-356.84"/>
<polygon fill="#63b8ff" stroke="#63b8ff" points="1119.21,-354.55 1110.13,-349.09 1113.83,-359.02 1119.21,-354.55"/>
</g>
<!-- Node29&#45;&gt;Node14 -->
<g id="edge54" class="edge">
<title>Node29&#45;&gt;Node14</title>
<path fill="none" stroke="#63b8ff" d="M282.42,-505.95C250.36,-497.65 207.32,-484.24 197,-470 160.48,-419.59 183.7,-391.55 193,-330 196.82,-304.7 194.87,-295.63 210,-275 240.02,-234.08 292.16,-204.2 324.78,-188.38"/>
<polygon fill="#63b8ff" stroke="#63b8ff" points="326.28,-191.54 333.83,-184.1 323.29,-185.21 326.28,-191.54"/>
</g>
<!-- Node30 -->
<g id="node30" class="node">
<title>Node30</title>
<g id="a_node30"><a xlink:href="../../df/de6/cc_types_8h.html" target="_top" xlink:title=" ">
<polygon fill="white" stroke="#666666" points="364,-404 300,-404 300,-385 364,-385 364,-404"/>
<text text-anchor="middle" x="332" y="-392" font-family="Helvetica,sans-Serif" font-size="10.00">ccTypes.h</text>
</a>
</g>
</g>
<!-- Node29&#45;&gt;Node30 -->
<g id="edge45" class="edge">
<title>Node29&#45;&gt;Node30</title>
<path fill="none" stroke="#63b8ff" d="M326.67,-505.7C333.52,-497.21 343.05,-483.68 347,-470 352.47,-451.05 346.43,-428.82 340.47,-413.61"/>
<polygon fill="#63b8ff" stroke="#63b8ff" points="343.64,-412.14 336.49,-404.33 337.21,-414.9 343.64,-412.14"/>
</g>
<!-- Node31 -->
<g id="node31" class="node">
<title>Node31</title>
<g id="a_node31"><a xlink:href="../../d5/d70/_c_c_texture2_d_8h.html" target="_top" xlink:title=" ">
<polygon fill="white" stroke="#666666" points="338,-464.5 206,-464.5 206,-445.5 338,-445.5 338,-464.5"/>
<text text-anchor="middle" x="272" y="-452.5" font-family="Helvetica,sans-Serif" font-size="10.00">textures/CCTexture2D.h</text>
</a>
</g>
</g>
<!-- Node29&#45;&gt;Node31 -->
<g id="edge49" class="edge">
<title>Node29&#45;&gt;Node31</title>
<path fill="none" stroke="#63b8ff" d="M312.06,-505.87C305.05,-497.14 294.04,-483.43 285.33,-472.59"/>
<polygon fill="#63b8ff" stroke="#63b8ff" points="287.96,-470.27 278.96,-464.67 282.5,-474.66 287.96,-470.27"/>
</g>
<!-- Node30&#45;&gt;Node11 -->
<g id="edge47" class="edge">
<title>Node30&#45;&gt;Node11</title>
<path fill="none" stroke="#63b8ff" d="M318.02,-384.98C304.53,-376.77 283.87,-364.18 267.96,-354.49"/>
<polygon fill="#63b8ff" stroke="#63b8ff" points="269.59,-351.38 259.23,-349.17 265.95,-357.36 269.59,-351.38"/>
</g>
<!-- Node30&#45;&gt;Node14 -->
<g id="edge46" class="edge">
<title>Node30&#45;&gt;Node14</title>
<path fill="none" stroke="#63b8ff" d="M332.86,-384.95C336.09,-352.95 347.52,-239.68 352.09,-194.4"/>
<polygon fill="#63b8ff" stroke="#63b8ff" points="355.6,-194.52 353.12,-184.22 348.63,-193.82 355.6,-194.52"/>
</g>
<!-- Node30&#45;&gt;Node18 -->
<g id="edge48" class="edge">
<title>Node30&#45;&gt;Node18</title>
<path fill="none" stroke="#63b8ff" d="M364.24,-389.16C437,-379.38 613.52,-355.63 689.84,-345.36"/>
<polygon fill="#63b8ff" stroke="#63b8ff" points="690.48,-348.81 699.93,-344.01 689.55,-341.87 690.48,-348.81"/>
</g>
<!-- Node31&#45;&gt;Node11 -->
<g id="edge52" class="edge">
<title>Node31&#45;&gt;Node11</title>
<path fill="none" stroke="#63b8ff" d="M269.33,-445.2C266.36,-435.25 261.52,-418.54 258,-404 254.36,-388.94 250.87,-371.72 248.43,-359.01"/>
<polygon fill="#63b8ff" stroke="#63b8ff" points="251.87,-358.35 246.57,-349.17 244.99,-359.65 251.87,-358.35"/>
</g>
<!-- Node31&#45;&gt;Node12 -->
<g id="edge51" class="edge">
<title>Node31&#45;&gt;Node12</title>
<path fill="none" stroke="#63b8ff" d="M292.59,-445.41C359.05,-417.69 568.07,-330.52 646.17,-297.94"/>
<polygon fill="#63b8ff" stroke="#63b8ff" points="647.57,-301.15 655.45,-294.07 644.87,-294.69 647.57,-301.15"/>
</g>
<!-- Node31&#45;&gt;Node14 -->
<g id="edge50" class="edge">
<title>Node31&#45;&gt;Node14</title>
<path fill="none" stroke="#63b8ff" d="M274.28,-445.48C277.78,-432.44 284.74,-406.73 291,-385 311.38,-314.22 337.04,-230.45 348.28,-193.99"/>
<polygon fill="#63b8ff" stroke="#63b8ff" points="351.68,-194.85 351.29,-184.26 344.99,-192.78 351.68,-194.85"/>
</g>
<!-- Node31&#45;&gt;Node30 -->
<g id="edge53" class="edge">
<title>Node31&#45;&gt;Node30</title>
<path fill="none" stroke="#63b8ff" d="M280.85,-445.37C289.98,-436.47 304.42,-422.39 315.64,-411.45"/>
<polygon fill="#63b8ff" stroke="#63b8ff" points="318.39,-413.65 323.11,-404.17 313.51,-408.64 318.39,-413.65"/>
</g>
<!-- Node32&#45;&gt;Node16 -->
<g id="edge56" class="edge">
<title>Node32&#45;&gt;Node16</title>
<path fill="none" stroke="#63b8ff" d="M1446,-560.75C1446,-553.8 1446,-543.85 1446,-535.13"/>
<polygon fill="#63b8ff" stroke="#63b8ff" points="1449.5,-535.09 1446,-525.09 1442.5,-535.09 1449.5,-535.09"/>
</g>
<!-- Node33 -->
<g id="node33" class="node">
<title>Node33</title>
<g id="a_node33"><a xlink:href="../../d9/d9b/_extension_macros_8h.html" target="_top" xlink:title=" ">
<polygon fill="white" stroke="#666666" points="1620.5,-525 1511.5,-525 1511.5,-506 1620.5,-506 1620.5,-525"/>
<text text-anchor="middle" x="1566" y="-513" font-family="Helvetica,sans-Serif" font-size="10.00">ExtensionMacros.h</text>
</a>
</g>
</g>
<!-- Node32&#45;&gt;Node33 -->
<g id="edge57" class="edge">
<title>Node32&#45;&gt;Node33</title>
<path fill="none" stroke="#63b8ff" d="M1465.28,-560.98C1484.67,-552.42 1514.81,-539.11 1537.07,-529.28"/>
<polygon fill="#63b8ff" stroke="#63b8ff" points="1538.64,-532.41 1546.37,-525.17 1535.81,-526.01 1538.64,-532.41"/>
</g>
</g>
</svg>
