<?xml version="1.0" encoding="UTF-8" standalone="no"?>
<!DOCTYPE svg PUBLIC "-//W3C//DTD SVG 1.1//EN"
 "http://www.w3.org/Graphics/SVG/1.1/DTD/svg11.dtd">
<!-- Generated by graphviz version 2.43.0 (0)
 -->
<!-- Title: /home/runner/work/cocos&#45;headers/cocos&#45;headers/extensions/GUI/CCScrollView/CCTableViewCell.h Pages: 1 -->
<svg width="1629pt" height="688pt"
 viewBox="0.00 0.00 1628.50 688.00" xmlns="http://www.w3.org/2000/svg" xmlns:xlink="http://www.w3.org/1999/xlink">
<g id="graph0" class="graph" transform="scale(1 1) rotate(0) translate(4 684)">
<title>/home/runner/work/cocos&#45;headers/cocos&#45;headers/extensions/GUI/CCScrollView/CCTableViewCell.h</title>
<!-- Node1 -->
<g id="node1" class="node">
<title>Node1</title>
<g id="a_node1"><a xlink:title=" ">
<polygon fill="#bfbfbf" stroke="black" points="1180.5,-627.5 1180.5,-679.5 1341.5,-679.5 1341.5,-627.5 1180.5,-627.5"/>
<text text-anchor="start" x="1188.5" y="-667.5" font-family="Helvetica,sans-Serif" font-size="10.00">/home/runner/work/cocos</text>
<text text-anchor="start" x="1188.5" y="-656.5" font-family="Helvetica,sans-Serif" font-size="10.00">&#45;headers/cocos&#45;headers</text>
<text text-anchor="start" x="1188.5" y="-645.5" font-family="Helvetica,sans-Serif" font-size="10.00">/extensions/GUI/CCScrollView</text>
<text text-anchor="middle" x="1261" y="-634.5" font-family="Helvetica,sans-Serif" font-size="10.00">/CCTableViewCell.h</text>
</a>
</g>
</g>
<!-- Node2 -->
<g id="node2" class="node">
<title>Node2</title>
<g id="a_node2"><a xlink:href="../../db/d7f/_c_c_node_8h.html" target="_top" xlink:title=" ">
<polygon fill="none" stroke="black" points="1056.5,-571.5 1056.5,-590.5 1181.5,-590.5 1181.5,-571.5 1056.5,-571.5"/>
<text text-anchor="middle" x="1119" y="-578.5" font-family="Helvetica,sans-Serif" font-size="10.00">base_nodes/CCNode.h</text>
</a>
</g>
</g>
<!-- Node1&#45;&gt;Node2 -->
<g id="edge1" class="edge">
<title>Node1&#45;&gt;Node2</title>
<path fill="none" stroke="midnightblue" d="M1210.54,-627.45C1188.51,-616.51 1163.59,-604.14 1145.33,-595.07"/>
<polygon fill="midnightblue" stroke="midnightblue" points="1146.69,-591.84 1136.17,-590.53 1143.58,-598.11 1146.69,-591.84"/>
</g>
<!-- Node32 -->
<g id="node32" class="node">
<title>Node32</title>
<g id="a_node32"><a xlink:href="../../dc/d52/_c_c_sorting_8h.html" target="_top" xlink:title=" ">
<polygon fill="none" stroke="black" points="1409,-571.5 1409,-590.5 1483,-590.5 1483,-571.5 1409,-571.5"/>
<text text-anchor="middle" x="1446" y="-578.5" font-family="Helvetica,sans-Serif" font-size="10.00">CCSorting.h</text>
</a>
</g>
</g>
<!-- Node1&#45;&gt;Node32 -->
<g id="edge55" class="edge">
<title>Node1&#45;&gt;Node32</title>
<path fill="none" stroke="midnightblue" d="M1326.74,-627.45C1356.37,-616.16 1390,-603.34 1413.98,-594.2"/>
<polygon fill="midnightblue" stroke="midnightblue" points="1415.53,-597.36 1423.62,-590.53 1413.03,-590.82 1415.53,-597.36"/>
</g>
<!-- Node3 -->
<g id="node3" class="node">
<title>Node3</title>
<g id="a_node3"><a xlink:href="../../d9/dc8/cc_macros_8h.html" target="_top" xlink:title=" ">
<polygon fill="none" stroke="black" points="853.5,-224.5 853.5,-243.5 924.5,-243.5 924.5,-224.5 853.5,-224.5"/>
<text text-anchor="middle" x="889" y="-231.5" font-family="Helvetica,sans-Serif" font-size="10.00">ccMacros.h</text>
</a>
</g>
</g>
<!-- Node2&#45;&gt;Node3 -->
<g id="edge2" class="edge">
<title>Node2&#45;&gt;Node3</title>
<path fill="none" stroke="midnightblue" d="M1181.69,-577.56C1256.03,-570.92 1370,-547.25 1370,-464.5 1370,-464.5 1370,-464.5 1370,-345 1370,-256.34 1055.5,-239.14 935.12,-235.8"/>
<polygon fill="midnightblue" stroke="midnightblue" points="934.85,-232.29 924.76,-235.54 934.67,-239.29 934.85,-232.29"/>
</g>
<!-- Node10 -->
<g id="node10" class="node">
<title>Node10</title>
<g id="a_node10"><a xlink:href="../../d3/d15/_c_c_affine_transform_8h.html" target="_top" xlink:title=" ">
<polygon fill="none" stroke="black" points="0,-392.5 0,-411.5 148,-411.5 148,-392.5 0,-392.5"/>
<text text-anchor="middle" x="74" y="-399.5" font-family="Helvetica,sans-Serif" font-size="10.00">cocoa/CCAffineTransform.h</text>
</a>
</g>
</g>
<!-- Node2&#45;&gt;Node10 -->
<g id="edge11" class="edge">
<title>Node2&#45;&gt;Node10</title>
<path fill="none" stroke="midnightblue" d="M1056.42,-580.17C885.98,-580.07 416.41,-575.98 268,-535 191.94,-514 119.92,-449.21 89.37,-418.92"/>
<polygon fill="midnightblue" stroke="midnightblue" points="91.72,-416.32 82.2,-411.68 86.75,-421.25 91.72,-416.32"/>
</g>
<!-- Node16 -->
<g id="node16" class="node">
<title>Node16</title>
<g id="a_node16"><a xlink:href="../../da/d35/_c_c_array_8h.html" target="_top" xlink:title=" ">
<polygon fill="none" stroke="black" points="1398.5,-515.5 1398.5,-534.5 1493.5,-534.5 1493.5,-515.5 1398.5,-515.5"/>
<text text-anchor="middle" x="1446" y="-522.5" font-family="Helvetica,sans-Serif" font-size="10.00">cocoa/CCArray.h</text>
</a>
</g>
</g>
<!-- Node2&#45;&gt;Node16 -->
<g id="edge21" class="edge">
<title>Node2&#45;&gt;Node16</title>
<path fill="none" stroke="midnightblue" d="M1170.81,-571.44C1230.09,-561.65 1326.9,-545.67 1388.47,-535.5"/>
<polygon fill="midnightblue" stroke="midnightblue" points="1389.12,-538.94 1398.41,-533.86 1387.98,-532.03 1389.12,-538.94"/>
</g>
<!-- Node18 -->
<g id="node18" class="node">
<title>Node18</title>
<g id="a_node18"><a xlink:title=" ">
<polygon fill="none" stroke="#bfbfbf" points="700,-336.5 700,-355.5 752,-355.5 752,-336.5 700,-336.5"/>
<text text-anchor="middle" x="726" y="-343.5" font-family="Helvetica,sans-Serif" font-size="10.00">CCGL.h</text>
</a>
</g>
</g>
<!-- Node2&#45;&gt;Node18 -->
<g id="edge23" class="edge">
<title>Node2&#45;&gt;Node18</title>
<path fill="none" stroke="midnightblue" d="M1113.59,-571.32C1108.27,-562.47 1100.19,-548.18 1095,-535 1070.92,-473.8 1106.31,-435.51 1057,-392 1013.86,-353.93 838.75,-347.84 762.16,-347.03"/>
<polygon fill="midnightblue" stroke="midnightblue" points="762.06,-343.53 752.03,-346.94 762,-350.53 762.06,-343.53"/>
</g>
<!-- Node19 -->
<g id="node19" class="node">
<title>Node19</title>
<g id="a_node19"><a xlink:href="../../da/d2f/cc_g_l_state_cache_8h.html" target="_top" xlink:title=" ">
<polygon fill="none" stroke="black" points="630,-392.5 630,-411.5 776,-411.5 776,-392.5 630,-392.5"/>
<text text-anchor="middle" x="703" y="-399.5" font-family="Helvetica,sans-Serif" font-size="10.00">shaders/ccGLStateCache.h</text>
</a>
</g>
</g>
<!-- Node2&#45;&gt;Node19 -->
<g id="edge24" class="edge">
<title>Node2&#45;&gt;Node19</title>
<path fill="none" stroke="midnightblue" d="M1087.56,-571.47C1033.26,-556.23 918.95,-521.84 828,-479 789.49,-460.86 747.83,-433.9 723.65,-417.44"/>
<polygon fill="midnightblue" stroke="midnightblue" points="725.5,-414.47 715.28,-411.69 721.54,-420.24 725.5,-414.47"/>
</g>
<!-- Node20 -->
<g id="node20" class="node">
<title>Node20</title>
<g id="a_node20"><a xlink:href="../../de/d32/_c_c_g_l_program_8h.html" target="_top" xlink:title=" ">
<polygon fill="none" stroke="black" points="1208,-392.5 1208,-411.5 1342,-411.5 1342,-392.5 1208,-392.5"/>
<text text-anchor="middle" x="1275" y="-399.5" font-family="Helvetica,sans-Serif" font-size="10.00">shaders/CCGLProgram.h</text>
</a>
</g>
</g>
<!-- Node2&#45;&gt;Node20 -->
<g id="edge27" class="edge">
<title>Node2&#45;&gt;Node20</title>
<path fill="none" stroke="midnightblue" d="M1159.12,-571.47C1181.4,-564.87 1208.15,-553.62 1226,-535 1256.77,-502.89 1268.55,-449.75 1272.8,-421.69"/>
<polygon fill="midnightblue" stroke="midnightblue" points="1276.28,-422.02 1274.15,-411.64 1269.35,-421.08 1276.28,-422.02"/>
</g>
<!-- Node21 -->
<g id="node21" class="node">
<title>Node21</title>
<g id="a_node21"><a xlink:title=" ">
<polygon fill="none" stroke="#bfbfbf" points="1104.5,-515.5 1104.5,-534.5 1217.5,-534.5 1217.5,-515.5 1104.5,-515.5"/>
<text text-anchor="middle" x="1161" y="-522.5" font-family="Helvetica,sans-Serif" font-size="10.00">kazmath/kazmath.h</text>
</a>
</g>
</g>
<!-- Node2&#45;&gt;Node21 -->
<g id="edge31" class="edge">
<title>Node2&#45;&gt;Node21</title>
<path fill="none" stroke="midnightblue" d="M1125.94,-571.08C1131.93,-563.38 1140.75,-552.03 1148.05,-542.65"/>
<polygon fill="midnightblue" stroke="midnightblue" points="1150.82,-544.79 1154.19,-534.75 1145.29,-540.5 1150.82,-544.79"/>
</g>
<!-- Node22 -->
<g id="node22" class="node">
<title>Node22</title>
<g id="a_node22"><a xlink:href="../../dc/dbc/_c_c_script_support_8h.html" target="_top" xlink:title=" ">
<polygon fill="none" stroke="black" points="837,-454 837,-473 1013,-473 1013,-454 837,-454"/>
<text text-anchor="middle" x="925" y="-461" font-family="Helvetica,sans-Serif" font-size="10.00">script_support/CCScriptSupport.h</text>
</a>
</g>
</g>
<!-- Node2&#45;&gt;Node22 -->
<g id="edge32" class="edge">
<title>Node2&#45;&gt;Node22</title>
<path fill="none" stroke="midnightblue" d="M1104.42,-571.32C1070.98,-551.41 988.56,-502.34 948.13,-478.27"/>
<polygon fill="midnightblue" stroke="midnightblue" points="949.87,-475.23 939.49,-473.12 946.29,-481.25 949.87,-475.23"/>
</g>
<!-- Node29 -->
<g id="node29" class="node">
<title>Node29</title>
<g id="a_node29"><a xlink:href="../../d8/d76/_c_c_protocols_8h.html" target="_top" xlink:title=" ">
<polygon fill="none" stroke="black" points="277,-515.5 277,-534.5 361,-534.5 361,-515.5 277,-515.5"/>
<text text-anchor="middle" x="319" y="-522.5" font-family="Helvetica,sans-Serif" font-size="10.00">CCProtocols.h</text>
</a>
</g>
</g>
<!-- Node2&#45;&gt;Node29 -->
<g id="edge44" class="edge">
<title>Node2&#45;&gt;Node29</title>
<path fill="none" stroke="midnightblue" d="M1056.23,-575.76C903.14,-565.43 512.83,-539.08 371.28,-529.53"/>
<polygon fill="midnightblue" stroke="midnightblue" points="371.34,-526.03 361.13,-528.84 370.87,-533.01 371.34,-526.03"/>
</g>
<!-- Node4 -->
<g id="node4" class="node">
<title>Node4</title>
<g id="a_node4"><a xlink:href="../../d5/d22/_c_c_common_8h.html" target="_top" xlink:title=" ">
<polygon fill="none" stroke="black" points="702,-168.5 702,-187.5 830,-187.5 830,-168.5 702,-168.5"/>
<text text-anchor="middle" x="766" y="-175.5" font-family="Helvetica,sans-Serif" font-size="10.00">platform/CCCommon.h</text>
</a>
</g>
</g>
<!-- Node3&#45;&gt;Node4 -->
<g id="edge3" class="edge">
<title>Node3&#45;&gt;Node4</title>
<path fill="none" stroke="midnightblue" d="M869.51,-224.44C849.36,-215.6 817.68,-201.69 794.67,-191.59"/>
<polygon fill="midnightblue" stroke="midnightblue" points="795.96,-188.33 785.4,-187.52 793.15,-194.74 795.96,-188.33"/>
</g>
<!-- Node6 -->
<g id="node6" class="node">
<title>Node6</title>
<g id="a_node6"><a xlink:href="../../db/d9f/cc_config_8h.html" target="_top" xlink:title="cocos2d (cc) configuration file">
<polygon fill="none" stroke="black" points="737.5,-56.5 737.5,-75.5 804.5,-75.5 804.5,-56.5 737.5,-56.5"/>
<text text-anchor="middle" x="771" y="-63.5" font-family="Helvetica,sans-Serif" font-size="10.00">ccConfig.h</text>
</a>
</g>
</g>
<!-- Node3&#45;&gt;Node6 -->
<g id="edge10" class="edge">
<title>Node3&#45;&gt;Node6</title>
<path fill="none" stroke="midnightblue" d="M898.13,-224.45C910.37,-211.88 929.45,-187.78 919,-168 895.23,-123 841.39,-94.26 805.62,-79.38"/>
<polygon fill="midnightblue" stroke="midnightblue" points="806.64,-76.02 796.06,-75.55 804.04,-82.52 806.64,-76.02"/>
</g>
<!-- Node9 -->
<g id="node9" class="node">
<title>Node9</title>
<g id="a_node9"><a xlink:title=" ">
<polygon fill="none" stroke="#bfbfbf" points="848,-168.5 848,-187.5 910,-187.5 910,-168.5 848,-168.5"/>
<text text-anchor="middle" x="879" y="-175.5" font-family="Helvetica,sans-Serif" font-size="10.00">CCStdC.h</text>
</a>
</g>
</g>
<!-- Node3&#45;&gt;Node9 -->
<g id="edge9" class="edge">
<title>Node3&#45;&gt;Node9</title>
<path fill="none" stroke="midnightblue" d="M887.35,-224.08C886.02,-216.93 884.12,-206.64 882.46,-197.69"/>
<polygon fill="midnightblue" stroke="midnightblue" points="885.88,-196.95 880.62,-187.75 879,-198.22 885.88,-196.95"/>
</g>
<!-- Node5 -->
<g id="node5" class="node">
<title>Node5</title>
<g id="a_node5"><a xlink:href="../../d3/d41/_c_c_platform_macros_8h.html" target="_top" xlink:title=" ">
<polygon fill="none" stroke="black" points="562,-112.5 562,-131.5 678,-131.5 678,-112.5 562,-112.5"/>
<text text-anchor="middle" x="620" y="-119.5" font-family="Helvetica,sans-Serif" font-size="10.00">CCPlatformMacros.h</text>
</a>
</g>
</g>
<!-- Node4&#45;&gt;Node5 -->
<g id="edge4" class="edge">
<title>Node4&#45;&gt;Node5</title>
<path fill="none" stroke="midnightblue" d="M742.87,-168.44C718.52,-159.44 679.99,-145.19 652.58,-135.05"/>
<polygon fill="midnightblue" stroke="midnightblue" points="653.62,-131.7 643.03,-131.52 651.19,-138.27 653.62,-131.7"/>
</g>
<!-- Node5&#45;&gt;Node6 -->
<g id="edge5" class="edge">
<title>Node5&#45;&gt;Node6</title>
<path fill="none" stroke="midnightblue" d="M643.93,-112.44C669.22,-103.4 709.3,-89.06 737.68,-78.92"/>
<polygon fill="midnightblue" stroke="midnightblue" points="738.95,-82.18 747.19,-75.52 736.59,-75.59 738.95,-82.18"/>
</g>
<!-- Node7 -->
<g id="node7" class="node">
<title>Node7</title>
<g id="a_node7"><a xlink:href="../../dd/d96/_c_c_platform_config_8h.html" target="_top" xlink:title=" ">
<polygon fill="none" stroke="black" points="595.5,-0.5 595.5,-19.5 752.5,-19.5 752.5,-0.5 595.5,-0.5"/>
<text text-anchor="middle" x="674" y="-7.5" font-family="Helvetica,sans-Serif" font-size="10.00">platform/CCPlatformConfig.h</text>
</a>
</g>
</g>
<!-- Node5&#45;&gt;Node7 -->
<g id="edge7" class="edge">
<title>Node5&#45;&gt;Node7</title>
<path fill="none" stroke="midnightblue" d="M612.29,-112.16C602,-99.23 586.28,-74.69 597,-56 605.62,-40.99 621.39,-30.5 636.43,-23.46"/>
<polygon fill="midnightblue" stroke="midnightblue" points="637.82,-26.67 645.63,-19.51 635.06,-20.24 637.82,-26.67"/>
</g>
<!-- Node8 -->
<g id="node8" class="node">
<title>Node8</title>
<g id="a_node8"><a xlink:title=" ">
<polygon fill="none" stroke="#bfbfbf" points="606.5,-56.5 606.5,-75.5 719.5,-75.5 719.5,-56.5 606.5,-56.5"/>
<text text-anchor="middle" x="663" y="-63.5" font-family="Helvetica,sans-Serif" font-size="10.00">CCPlatformDefine.h</text>
</a>
</g>
</g>
<!-- Node5&#45;&gt;Node8 -->
<g id="edge8" class="edge">
<title>Node5&#45;&gt;Node8</title>
<path fill="none" stroke="midnightblue" d="M627.1,-112.08C633.24,-104.38 642.27,-93.03 649.74,-83.65"/>
<polygon fill="midnightblue" stroke="midnightblue" points="652.54,-85.75 656.03,-75.75 647.06,-81.39 652.54,-85.75"/>
</g>
<!-- Node6&#45;&gt;Node7 -->
<g id="edge6" class="edge">
<title>Node6&#45;&gt;Node7</title>
<path fill="none" stroke="midnightblue" d="M755.42,-56.32C740,-47.74 716.19,-34.49 698.29,-24.52"/>
<polygon fill="midnightblue" stroke="midnightblue" points="699.99,-21.46 689.55,-19.65 696.58,-27.58 699.99,-21.46"/>
</g>
<!-- Node10&#45;&gt;Node5 -->
<g id="edge20" class="edge">
<title>Node10&#45;&gt;Node5</title>
<path fill="none" stroke="midnightblue" d="M75.7,-392.48C79.22,-374.06 87,-329.08 87,-291 87,-291 87,-291 87,-233 87,-139.11 408.2,-124.71 551.91,-122.96"/>
<polygon fill="midnightblue" stroke="midnightblue" points="551.98,-126.46 561.95,-122.85 551.91,-119.46 551.98,-126.46"/>
</g>
<!-- Node11 -->
<g id="node11" class="node">
<title>Node11</title>
<g id="a_node11"><a xlink:href="../../d6/d09/_c_c_geometry_8h.html" target="_top" xlink:title=" ">
<polygon fill="none" stroke="black" points="202,-336.5 202,-355.5 288,-355.5 288,-336.5 202,-336.5"/>
<text text-anchor="middle" x="245" y="-343.5" font-family="Helvetica,sans-Serif" font-size="10.00">CCGeometry.h</text>
</a>
</g>
</g>
<!-- Node10&#45;&gt;Node11 -->
<g id="edge12" class="edge">
<title>Node10&#45;&gt;Node11</title>
<path fill="none" stroke="midnightblue" d="M101.1,-392.44C129.99,-383.32 175.92,-368.81 208.11,-358.65"/>
<polygon fill="midnightblue" stroke="midnightblue" points="209.55,-361.87 218.03,-355.52 207.44,-355.19 209.55,-361.87"/>
</g>
<!-- Node11&#45;&gt;Node5 -->
<g id="edge13" class="edge">
<title>Node11&#45;&gt;Node5</title>
<path fill="none" stroke="midnightblue" d="M234.79,-336.44C221.57,-324.26 201.22,-301.06 210,-280 237.21,-214.73 259.82,-199.75 323,-168 361.94,-148.43 476.63,-135.23 551.56,-128.43"/>
<polygon fill="midnightblue" stroke="midnightblue" points="552.21,-131.88 561.86,-127.51 551.59,-124.91 552.21,-131.88"/>
</g>
<!-- Node12 -->
<g id="node12" class="node">
<title>Node12</title>
<g id="a_node12"><a xlink:href="../../dd/d69/_c_c_object_8h.html" target="_top" xlink:title=" ">
<polygon fill="none" stroke="black" points="640.5,-280.5 640.5,-299.5 711.5,-299.5 711.5,-280.5 640.5,-280.5"/>
<text text-anchor="middle" x="676" y="-287.5" font-family="Helvetica,sans-Serif" font-size="10.00">CCObject.h</text>
</a>
</g>
</g>
<!-- Node11&#45;&gt;Node12 -->
<g id="edge14" class="edge">
<title>Node11&#45;&gt;Node12</title>
<path fill="none" stroke="midnightblue" d="M288.3,-339.58C370.17,-329.32 546.91,-307.17 630.47,-296.7"/>
<polygon fill="midnightblue" stroke="midnightblue" points="630.94,-300.17 640.42,-295.46 630.07,-293.23 630.94,-300.17"/>
</g>
<!-- Node15 -->
<g id="node15" class="node">
<title>Node15</title>
<g id="a_node15"><a xlink:title=" ">
<polygon fill="none" stroke="#bfbfbf" points="219.5,-280.5 219.5,-299.5 270.5,-299.5 270.5,-280.5 219.5,-280.5"/>
<text text-anchor="middle" x="245" y="-287.5" font-family="Helvetica,sans-Serif" font-size="10.00">math.h</text>
</a>
</g>
</g>
<!-- Node11&#45;&gt;Node15 -->
<g id="edge19" class="edge">
<title>Node11&#45;&gt;Node15</title>
<path fill="none" stroke="midnightblue" d="M245,-336.08C245,-329.01 245,-318.86 245,-309.99"/>
<polygon fill="midnightblue" stroke="midnightblue" points="248.5,-309.75 245,-299.75 241.5,-309.75 248.5,-309.75"/>
</g>
<!-- Node12&#45;&gt;Node3 -->
<g id="edge18" class="edge">
<title>Node12&#45;&gt;Node3</title>
<path fill="none" stroke="midnightblue" d="M709.75,-280.44C746.52,-271.12 805.45,-256.18 845.62,-246"/>
<polygon fill="midnightblue" stroke="midnightblue" points="846.57,-249.37 855.41,-243.52 844.85,-242.58 846.57,-249.37"/>
</g>
<!-- Node13 -->
<g id="node13" class="node">
<title>Node13</title>
<g id="a_node13"><a xlink:href="../../d9/d2d/_c_c_data_visitor_8h.html" target="_top" xlink:title=" ">
<polygon fill="none" stroke="black" points="629.5,-224.5 629.5,-243.5 722.5,-243.5 722.5,-224.5 629.5,-224.5"/>
<text text-anchor="middle" x="676" y="-231.5" font-family="Helvetica,sans-Serif" font-size="10.00">CCDataVisitor.h</text>
</a>
</g>
</g>
<!-- Node12&#45;&gt;Node13 -->
<g id="edge15" class="edge">
<title>Node12&#45;&gt;Node13</title>
<path fill="none" stroke="midnightblue" d="M676,-280.08C676,-273.01 676,-262.86 676,-253.99"/>
<polygon fill="midnightblue" stroke="midnightblue" points="679.5,-253.75 676,-243.75 672.5,-253.75 679.5,-253.75"/>
</g>
<!-- Node13&#45;&gt;Node5 -->
<g id="edge16" class="edge">
<title>Node13&#45;&gt;Node5</title>
<path fill="none" stroke="midnightblue" d="M671.61,-224.37C662.45,-206.38 641.15,-164.55 628.97,-140.63"/>
<polygon fill="midnightblue" stroke="midnightblue" points="632.03,-138.92 624.37,-131.59 625.79,-142.09 632.03,-138.92"/>
</g>
<!-- Node14 -->
<g id="node14" class="node">
<title>Node14</title>
<g id="a_node14"><a xlink:title=" ">
<polygon fill="none" stroke="#bfbfbf" points="332,-168.5 332,-187.5 376,-187.5 376,-168.5 332,-168.5"/>
<text text-anchor="middle" x="354" y="-175.5" font-family="Helvetica,sans-Serif" font-size="10.00">string</text>
</a>
</g>
</g>
<!-- Node13&#45;&gt;Node14 -->
<g id="edge17" class="edge">
<title>Node13&#45;&gt;Node14</title>
<path fill="none" stroke="midnightblue" d="M629.18,-225.15C562.84,-214.02 443.22,-193.96 386.08,-184.38"/>
<polygon fill="midnightblue" stroke="midnightblue" points="386.6,-180.92 376.16,-182.72 385.44,-187.82 386.6,-180.92"/>
</g>
<!-- Node17 -->
<g id="node17" class="node">
<title>Node17</title>
<g id="a_node17"><a xlink:title=" ">
<polygon fill="none" stroke="#bfbfbf" points="1398,-448.5 1398,-478.5 1518,-478.5 1518,-448.5 1398,-448.5"/>
<text text-anchor="start" x="1406" y="-466.5" font-family="Helvetica,sans-Serif" font-size="10.00">support/data_support</text>
<text text-anchor="middle" x="1458" y="-455.5" font-family="Helvetica,sans-Serif" font-size="10.00">/ccCArray.h</text>
</a>
</g>
</g>
<!-- Node16&#45;&gt;Node17 -->
<g id="edge22" class="edge">
<title>Node16&#45;&gt;Node17</title>
<path fill="none" stroke="midnightblue" d="M1447.72,-515.48C1449.15,-508.4 1451.25,-497.97 1453.18,-488.39"/>
<polygon fill="midnightblue" stroke="midnightblue" points="1456.63,-489.02 1455.17,-478.52 1449.76,-487.63 1456.63,-489.02"/>
</g>
<!-- Node19&#45;&gt;Node5 -->
<g id="edge26" class="edge">
<title>Node19&#45;&gt;Node5</title>
<path fill="none" stroke="midnightblue" d="M685.7,-392.45C656.6,-376.72 601,-340.22 601,-291 601,-291 601,-291 601,-233 601,-200.49 609.16,-163.35 614.78,-141.61"/>
<polygon fill="midnightblue" stroke="midnightblue" points="618.22,-142.32 617.44,-131.75 611.46,-140.5 618.22,-142.32"/>
</g>
<!-- Node19&#45;&gt;Node18 -->
<g id="edge25" class="edge">
<title>Node19&#45;&gt;Node18</title>
<path fill="none" stroke="midnightblue" d="M706.8,-392.08C709.91,-384.77 714.42,-374.18 718.29,-365.1"/>
<polygon fill="midnightblue" stroke="midnightblue" points="721.57,-366.32 722.27,-355.75 715.13,-363.58 721.57,-366.32"/>
</g>
<!-- Node20&#45;&gt;Node3 -->
<g id="edge28" class="edge">
<title>Node20&#45;&gt;Node3</title>
<path fill="none" stroke="midnightblue" d="M1265.38,-392.31C1249.88,-378.68 1217.97,-352.18 1187,-336 1102.56,-291.88 994.86,-261 934.78,-245.79"/>
<polygon fill="midnightblue" stroke="midnightblue" points="935.4,-242.34 924.85,-243.31 933.7,-249.13 935.4,-242.34"/>
</g>
<!-- Node20&#45;&gt;Node12 -->
<g id="edge29" class="edge">
<title>Node20&#45;&gt;Node12</title>
<path fill="none" stroke="midnightblue" d="M1262.45,-392.44C1240.54,-377.98 1193.4,-349.04 1149,-336 1069.61,-312.69 824.18,-298.28 721.7,-293.13"/>
<polygon fill="midnightblue" stroke="midnightblue" points="721.82,-289.64 711.66,-292.64 721.47,-296.63 721.82,-289.64"/>
</g>
<!-- Node20&#45;&gt;Node18 -->
<g id="edge30" class="edge">
<title>Node20&#45;&gt;Node18</title>
<path fill="none" stroke="midnightblue" d="M1207.87,-392.97C1204.87,-392.63 1201.91,-392.31 1199,-392 1036.45,-374.65 842.11,-357.19 762.61,-350.19"/>
<polygon fill="midnightblue" stroke="midnightblue" points="762.44,-346.67 752.17,-349.28 761.83,-353.64 762.44,-346.67"/>
</g>
<!-- Node22&#45;&gt;Node4 -->
<g id="edge33" class="edge">
<title>Node22&#45;&gt;Node4</title>
<path fill="none" stroke="midnightblue" d="M892.1,-453.85C869.61,-446.31 840.77,-433.2 823,-412 803.66,-388.94 804,-377.1 804,-347 804,-347 804,-347 804,-289 804,-254.81 787.4,-217.76 776.14,-196.57"/>
<polygon fill="midnightblue" stroke="midnightblue" points="779.18,-194.83 771.28,-187.77 773.05,-198.22 779.18,-194.83"/>
</g>
<!-- Node22&#45;&gt;Node14 -->
<g id="edge42" class="edge">
<title>Node22&#45;&gt;Node14</title>
<path fill="none" stroke="midnightblue" d="M836.9,-460.75C718.28,-457.11 514.52,-445.97 449,-412 414.89,-394.32 392,-385.42 392,-347 392,-347 392,-347 392,-289 392,-254.81 375.4,-217.76 364.14,-196.57"/>
<polygon fill="midnightblue" stroke="midnightblue" points="367.18,-194.83 359.28,-187.77 361.05,-198.22 367.18,-194.83"/>
</g>
<!-- Node23 -->
<g id="node23" class="node">
<title>Node23</title>
<g id="a_node23"><a xlink:title=" ">
<polygon fill="none" stroke="#bfbfbf" points="832,-392.5 832,-411.5 942,-411.5 942,-392.5 832,-392.5"/>
<text text-anchor="middle" x="887" y="-399.5" font-family="Helvetica,sans-Serif" font-size="10.00">CCAccelerometer.h</text>
</a>
</g>
</g>
<!-- Node22&#45;&gt;Node23 -->
<g id="edge34" class="edge">
<title>Node22&#45;&gt;Node23</title>
<path fill="none" stroke="midnightblue" d="M919.56,-453.98C913.91,-445.14 904.94,-431.09 897.84,-419.98"/>
<polygon fill="midnightblue" stroke="midnightblue" points="900.77,-418.05 892.43,-411.51 894.87,-421.82 900.77,-418.05"/>
</g>
<!-- Node24 -->
<g id="node24" class="node">
<title>Node24</title>
<g id="a_node24"><a xlink:href="../../d3/dff/_c_c_touch_8h.html" target="_top" xlink:title=" ">
<polygon fill="none" stroke="black" points="458.5,-392.5 458.5,-411.5 611.5,-411.5 611.5,-392.5 458.5,-392.5"/>
<text text-anchor="middle" x="535" y="-399.5" font-family="Helvetica,sans-Serif" font-size="10.00">touch_dispatcher/CCTouch.h</text>
</a>
</g>
</g>
<!-- Node22&#45;&gt;Node24 -->
<g id="edge35" class="edge">
<title>Node22&#45;&gt;Node24</title>
<path fill="none" stroke="midnightblue" d="M869.12,-453.98C798.31,-443.17 676.44,-424.58 601.09,-413.08"/>
<polygon fill="midnightblue" stroke="midnightblue" points="601.19,-409.56 590.77,-411.51 600.13,-416.48 601.19,-409.56"/>
</g>
<!-- Node25 -->
<g id="node25" class="node">
<title>Node25</title>
<g id="a_node25"><a xlink:href="../../da/ddc/_c_c_set_8h.html" target="_top" xlink:title=" ">
<polygon fill="none" stroke="black" points="1104,-392.5 1104,-411.5 1190,-411.5 1190,-392.5 1104,-392.5"/>
<text text-anchor="middle" x="1147" y="-399.5" font-family="Helvetica,sans-Serif" font-size="10.00">cocoa/CCSet.h</text>
</a>
</g>
</g>
<!-- Node22&#45;&gt;Node25 -->
<g id="edge38" class="edge">
<title>Node22&#45;&gt;Node25</title>
<path fill="none" stroke="midnightblue" d="M956.81,-453.98C995.88,-443.5 1062.26,-425.71 1105.36,-414.16"/>
<polygon fill="midnightblue" stroke="midnightblue" points="1106.5,-417.48 1115.25,-411.51 1104.69,-410.72 1106.5,-417.48"/>
</g>
<!-- Node27 -->
<g id="node27" class="node">
<title>Node27</title>
<g id="a_node27"><a xlink:title=" ">
<polygon fill="none" stroke="#bfbfbf" points="960,-392.5 960,-411.5 998,-411.5 998,-392.5 960,-392.5"/>
<text text-anchor="middle" x="979" y="-399.5" font-family="Helvetica,sans-Serif" font-size="10.00">map</text>
</a>
</g>
</g>
<!-- Node22&#45;&gt;Node27 -->
<g id="edge41" class="edge">
<title>Node22&#45;&gt;Node27</title>
<path fill="none" stroke="midnightblue" d="M932.74,-453.98C941,-444.87 954.28,-430.24 964.49,-418.98"/>
<polygon fill="midnightblue" stroke="midnightblue" points="967.15,-421.27 971.28,-411.51 961.97,-416.56 967.15,-421.27"/>
</g>
<!-- Node28 -->
<g id="node28" class="node">
<title>Node28</title>
<g id="a_node28"><a xlink:title=" ">
<polygon fill="none" stroke="#bfbfbf" points="1016,-392.5 1016,-411.5 1048,-411.5 1048,-392.5 1016,-392.5"/>
<text text-anchor="middle" x="1032" y="-399.5" font-family="Helvetica,sans-Serif" font-size="10.00">list</text>
</a>
</g>
</g>
<!-- Node22&#45;&gt;Node28 -->
<g id="edge43" class="edge">
<title>Node22&#45;&gt;Node28</title>
<path fill="none" stroke="midnightblue" d="M940.33,-453.98C957.97,-444.17 987.16,-427.93 1007.86,-416.42"/>
<polygon fill="midnightblue" stroke="midnightblue" points="1009.66,-419.43 1016.7,-411.51 1006.26,-413.31 1009.66,-419.43"/>
</g>
<!-- Node24&#45;&gt;Node11 -->
<g id="edge37" class="edge">
<title>Node24&#45;&gt;Node11</title>
<path fill="none" stroke="midnightblue" d="M489.05,-392.44C437.18,-382.78 352.91,-367.09 298.22,-356.91"/>
<polygon fill="midnightblue" stroke="midnightblue" points="298.84,-353.47 288.37,-355.08 297.56,-360.35 298.84,-353.47"/>
</g>
<!-- Node24&#45;&gt;Node12 -->
<g id="edge36" class="edge">
<title>Node24&#45;&gt;Node12</title>
<path fill="none" stroke="midnightblue" d="M546.06,-392.37C570.05,-373.65 627.1,-329.15 656.99,-305.83"/>
<polygon fill="midnightblue" stroke="midnightblue" points="659.26,-308.5 664.99,-299.59 654.95,-302.98 659.26,-308.5"/>
</g>
<!-- Node25&#45;&gt;Node12 -->
<g id="edge40" class="edge">
<title>Node25&#45;&gt;Node12</title>
<path fill="none" stroke="midnightblue" d="M1147.29,-392.21C1147.23,-377.95 1144.83,-349.97 1128,-336 1097.18,-310.41 830.52,-297.09 721.83,-292.69"/>
<polygon fill="midnightblue" stroke="midnightblue" points="721.94,-289.19 711.81,-292.29 721.67,-296.18 721.94,-289.19"/>
</g>
<!-- Node26 -->
<g id="node26" class="node">
<title>Node26</title>
<g id="a_node26"><a xlink:title=" ">
<polygon fill="none" stroke="#bfbfbf" points="1087,-336.5 1087,-355.5 1119,-355.5 1119,-336.5 1087,-336.5"/>
<text text-anchor="middle" x="1103" y="-343.5" font-family="Helvetica,sans-Serif" font-size="10.00">set</text>
</a>
</g>
</g>
<!-- Node25&#45;&gt;Node26 -->
<g id="edge39" class="edge">
<title>Node25&#45;&gt;Node26</title>
<path fill="none" stroke="midnightblue" d="M1139.73,-392.08C1133.46,-384.38 1124.21,-373.03 1116.57,-363.65"/>
<polygon fill="midnightblue" stroke="midnightblue" points="1119.16,-361.29 1110.13,-355.75 1113.73,-365.71 1119.16,-361.29"/>
</g>
<!-- Node29&#45;&gt;Node14 -->
<g id="edge54" class="edge">
<title>Node29&#45;&gt;Node14</title>
<path fill="none" stroke="midnightblue" d="M283.03,-515.46C250.91,-507.04 207.37,-493.37 197,-479 159.8,-427.44 183.66,-398.89 193,-336 196.82,-310.27 194.74,-301.06 210,-280 240,-238.59 292.37,-208.13 325.01,-192.02"/>
<polygon fill="midnightblue" stroke="midnightblue" points="326.56,-195.16 334.06,-187.68 323.53,-188.85 326.56,-195.16"/>
</g>
<!-- Node30 -->
<g id="node30" class="node">
<title>Node30</title>
<g id="a_node30"><a xlink:href="../../df/de6/cc_types_8h.html" target="_top" xlink:title=" ">
<polygon fill="none" stroke="black" points="300,-392.5 300,-411.5 364,-411.5 364,-392.5 300,-392.5"/>
<text text-anchor="middle" x="332" y="-399.5" font-family="Helvetica,sans-Serif" font-size="10.00">ccTypes.h</text>
</a>
</g>
</g>
<!-- Node29&#45;&gt;Node30 -->
<g id="edge45" class="edge">
<title>Node29&#45;&gt;Node30</title>
<path fill="none" stroke="midnightblue" d="M326.41,-515.41C333.28,-506.84 343.01,-492.98 347,-479 352.58,-459.46 346.35,-436.5 340.3,-420.97"/>
<polygon fill="midnightblue" stroke="midnightblue" points="343.43,-419.38 336.29,-411.54 336.98,-422.12 343.43,-419.38"/>
</g>
<!-- Node31 -->
<g id="node31" class="node">
<title>Node31</title>
<g id="a_node31"><a xlink:href="../../d5/d70/_c_c_texture2_d_8h.html" target="_top" xlink:title=" ">
<polygon fill="none" stroke="black" points="206,-454 206,-473 338,-473 338,-454 206,-454"/>
<text text-anchor="middle" x="272" y="-461" font-family="Helvetica,sans-Serif" font-size="10.00">textures/CCTexture2D.h</text>
</a>
</g>
</g>
<!-- Node29&#45;&gt;Node31 -->
<g id="edge49" class="edge">
<title>Node29&#45;&gt;Node31</title>
<path fill="none" stroke="midnightblue" d="M312.27,-515.48C305.22,-506.55 293.97,-492.31 285.15,-481.14"/>
<polygon fill="midnightblue" stroke="midnightblue" points="287.67,-478.69 278.72,-473.01 282.17,-483.03 287.67,-478.69"/>
</g>
<!-- Node30&#45;&gt;Node11 -->
<g id="edge47" class="edge">
<title>Node30&#45;&gt;Node11</title>
<path fill="none" stroke="midnightblue" d="M318.02,-392.32C304.45,-383.9 283.62,-370.97 267.68,-361.07"/>
<polygon fill="midnightblue" stroke="midnightblue" points="269.29,-357.95 258.94,-355.65 265.59,-363.9 269.29,-357.95"/>
</g>
<!-- Node30&#45;&gt;Node14 -->
<g id="edge46" class="edge">
<title>Node30&#45;&gt;Node14</title>
<path fill="none" stroke="midnightblue" d="M332.86,-392.3C336.1,-359.63 347.57,-243.87 352.12,-197.96"/>
<polygon fill="midnightblue" stroke="midnightblue" points="355.62,-198.18 353.12,-187.88 348.65,-197.49 355.62,-198.18"/>
</g>
<!-- Node30&#45;&gt;Node18 -->
<g id="edge48" class="edge">
<title>Node30&#45;&gt;Node18</title>
<path fill="none" stroke="midnightblue" d="M364.24,-396.58C437,-386.61 613.52,-362.42 689.84,-351.96"/>
<polygon fill="midnightblue" stroke="midnightblue" points="690.5,-355.4 699.93,-350.57 689.55,-348.46 690.5,-355.4"/>
</g>
<!-- Node31&#45;&gt;Node11 -->
<g id="edge52" class="edge">
<title>Node31&#45;&gt;Node11</title>
<path fill="none" stroke="midnightblue" d="M269.43,-453.97C266.46,-443.97 261.54,-426.87 258,-412 254.33,-396.59 250.85,-378.95 248.41,-365.95"/>
<polygon fill="midnightblue" stroke="midnightblue" points="251.81,-365.08 246.56,-355.88 244.93,-366.34 251.81,-365.08"/>
</g>
<!-- Node31&#45;&gt;Node12 -->
<g id="edge51" class="edge">
<title>Node31&#45;&gt;Node12</title>
<path fill="none" stroke="midnightblue" d="M292.03,-454C357.99,-425.99 568.6,-336.59 646.59,-303.49"/>
<polygon fill="midnightblue" stroke="midnightblue" points="648.01,-306.69 655.84,-299.56 645.27,-300.24 648.01,-306.69"/>
</g>
<!-- Node31&#45;&gt;Node14 -->
<g id="edge50" class="edge">
<title>Node31&#45;&gt;Node14</title>
<path fill="none" stroke="midnightblue" d="M274.27,-453.8C277.77,-440.47 284.73,-414.2 291,-392 311.43,-319.69 337.26,-234.07 348.43,-197.28"/>
<polygon fill="midnightblue" stroke="midnightblue" points="351.84,-198.09 351.4,-187.5 345.15,-196.05 351.84,-198.09"/>
</g>
<!-- Node31&#45;&gt;Node30 -->
<g id="edge53" class="edge">
<title>Node31&#45;&gt;Node30</title>
<path fill="none" stroke="midnightblue" d="M280.6,-453.98C289.86,-444.78 304.82,-429.96 316.21,-418.66"/>
<polygon fill="midnightblue" stroke="midnightblue" points="318.78,-421.04 323.42,-411.51 313.85,-416.07 318.78,-421.04"/>
</g>
<!-- Node32&#45;&gt;Node16 -->
<g id="edge56" class="edge">
<title>Node32&#45;&gt;Node16</title>
<path fill="none" stroke="midnightblue" d="M1446,-571.08C1446,-564.01 1446,-553.86 1446,-544.99"/>
<polygon fill="midnightblue" stroke="midnightblue" points="1449.5,-544.75 1446,-534.75 1442.5,-544.75 1449.5,-544.75"/>
</g>
<!-- Node33 -->
<g id="node33" class="node">
<title>Node33</title>
<g id="a_node33"><a xlink:href="../../d9/d9b/_extension_macros_8h.html" target="_top" xlink:title=" ">
<polygon fill="none" stroke="black" points="1511.5,-515.5 1511.5,-534.5 1620.5,-534.5 1620.5,-515.5 1511.5,-515.5"/>
<text text-anchor="middle" x="1566" y="-522.5" font-family="Helvetica,sans-Serif" font-size="10.00">ExtensionMacros.h</text>
</a>
</g>
</g>
<!-- Node32&#45;&gt;Node33 -->
<g id="edge57" class="edge">
<title>Node32&#45;&gt;Node33</title>
<path fill="none" stroke="midnightblue" d="M1465.01,-571.44C1484.59,-562.64 1515.31,-548.81 1537.73,-538.72"/>
<polygon fill="midnightblue" stroke="midnightblue" points="1539.39,-541.81 1547.07,-534.52 1536.52,-535.43 1539.39,-541.81"/>
</g>
</g>
</svg>
