<?xml version="1.0" encoding="UTF-8" standalone="no"?>
<!DOCTYPE svg PUBLIC "-//W3C//DTD SVG 1.1//EN"
 "http://www.w3.org/Graphics/SVG/1.1/DTD/svg11.dtd">
<!-- Generated by graphviz version 2.43.0 (0)
 -->
<!-- Title: /home/runner/work/cocos&#45;headers/cocos&#45;headers/cocos2dx/shaders/CCGLProgram.h Pages: 1 -->
<svg width="377pt" height="386pt"
 viewBox="0.00 0.00 376.50 386.00" xmlns="http://www.w3.org/2000/svg" xmlns:xlink="http://www.w3.org/1999/xlink">
<g id="graph0" class="graph" transform="scale(1 1) rotate(0) translate(4 382)">
<title>/home/runner/work/cocos&#45;headers/cocos&#45;headers/cocos2dx/shaders/CCGLProgram.h</title>
<!-- Node1 -->
<g id="node1" class="node">
<title>Node1</title>
<g id="a_node1"><a xlink:title=" ">
<polygon fill="#bfbfbf" stroke="black" points="146.5,-336.5 146.5,-377.5 332.5,-377.5 332.5,-336.5 146.5,-336.5"/>
<text text-anchor="start" x="154.5" y="-365.5" font-family="Helvetica,sans-Serif" font-size="10.00">/home/runner/work/cocos</text>
<text text-anchor="start" x="154.5" y="-354.5" font-family="Helvetica,sans-Serif" font-size="10.00">&#45;headers/cocos&#45;headers</text>
<text text-anchor="middle" x="239.5" y="-343.5" font-family="Helvetica,sans-Serif" font-size="10.00">/cocos2dx/shaders/CCGLProgram.h</text>
</a>
</g>
</g>
<!-- Node2 -->
<g id="node2" class="node">
<title>Node2</title>
<g id="a_node2"><a xlink:href="../../d9/dc8/cc_macros_8h.html" target="_top" xlink:title=" ">
<polygon fill="none" stroke="black" points="125,-224.5 125,-243.5 196,-243.5 196,-224.5 125,-224.5"/>
<text text-anchor="middle" x="160.5" y="-231.5" font-family="Helvetica,sans-Serif" font-size="10.00">ccMacros.h</text>
</a>
</g>
</g>
<!-- Node1&#45;&gt;Node2 -->
<g id="edge1" class="edge">
<title>Node1&#45;&gt;Node2</title>
<path fill="none" stroke="midnightblue" d="M212.77,-336.45C201.08,-326.67 188.09,-313.95 179.5,-300 170.73,-285.77 165.84,-267.29 163.23,-253.68"/>
<polygon fill="midnightblue" stroke="midnightblue" points="166.64,-252.87 161.53,-243.59 159.74,-254.03 166.64,-252.87"/>
</g>
<!-- Node9 -->
<g id="node9" class="node">
<title>Node9</title>
<g id="a_node9"><a xlink:href="../../dd/d69/_c_c_object_8h.html" target="_top" xlink:title=" ">
<polygon fill="none" stroke="black" points="188.5,-280.5 188.5,-299.5 290.5,-299.5 290.5,-280.5 188.5,-280.5"/>
<text text-anchor="middle" x="239.5" y="-287.5" font-family="Helvetica,sans-Serif" font-size="10.00">cocoa/CCObject.h</text>
</a>
</g>
</g>
<!-- Node1&#45;&gt;Node9 -->
<g id="edge10" class="edge">
<title>Node1&#45;&gt;Node9</title>
<path fill="none" stroke="midnightblue" d="M239.5,-336.5C239.5,-328.07 239.5,-318.24 239.5,-309.87"/>
<polygon fill="midnightblue" stroke="midnightblue" points="243,-309.65 239.5,-299.65 236,-309.65 243,-309.65"/>
</g>
<!-- Node12 -->
<g id="node12" class="node">
<title>Node12</title>
<g id="a_node12"><a xlink:title=" ">
<polygon fill="none" stroke="#bfbfbf" points="308.5,-280.5 308.5,-299.5 360.5,-299.5 360.5,-280.5 308.5,-280.5"/>
<text text-anchor="middle" x="334.5" y="-287.5" font-family="Helvetica,sans-Serif" font-size="10.00">CCGL.h</text>
</a>
</g>
</g>
<!-- Node1&#45;&gt;Node12 -->
<g id="edge15" class="edge">
<title>Node1&#45;&gt;Node12</title>
<path fill="none" stroke="midnightblue" d="M268,-336.5C282.57,-326.53 299.99,-314.61 313.34,-305.48"/>
<polygon fill="midnightblue" stroke="midnightblue" points="315.58,-308.19 321.85,-299.65 311.62,-302.41 315.58,-308.19"/>
</g>
<!-- Node3 -->
<g id="node3" class="node">
<title>Node3</title>
<g id="a_node3"><a xlink:href="../../d5/d22/_c_c_common_8h.html" target="_top" xlink:title=" ">
<polygon fill="none" stroke="black" points="60.5,-168.5 60.5,-187.5 188.5,-187.5 188.5,-168.5 60.5,-168.5"/>
<text text-anchor="middle" x="124.5" y="-175.5" font-family="Helvetica,sans-Serif" font-size="10.00">platform/CCCommon.h</text>
</a>
</g>
</g>
<!-- Node2&#45;&gt;Node3 -->
<g id="edge2" class="edge">
<title>Node2&#45;&gt;Node3</title>
<path fill="none" stroke="midnightblue" d="M154.56,-224.08C149.52,-216.53 142.16,-205.49 135.99,-196.23"/>
<polygon fill="midnightblue" stroke="midnightblue" points="138.79,-194.13 130.33,-187.75 132.97,-198.01 138.79,-194.13"/>
</g>
<!-- Node5 -->
<g id="node5" class="node">
<title>Node5</title>
<g id="a_node5"><a xlink:href="../../db/d9f/cc_config_8h.html" target="_top" xlink:title="cocos2d (cc) configuration file">
<polygon fill="none" stroke="black" points="14,-56.5 14,-75.5 81,-75.5 81,-56.5 14,-56.5"/>
<text text-anchor="middle" x="47.5" y="-63.5" font-family="Helvetica,sans-Serif" font-size="10.00">ccConfig.h</text>
</a>
</g>
</g>
<!-- Node2&#45;&gt;Node5 -->
<g id="edge9" class="edge">
<title>Node2&#45;&gt;Node5</title>
<path fill="none" stroke="midnightblue" d="M124.76,-228.39C99.79,-223.12 68.06,-211.89 51.5,-188 30.22,-157.3 36.56,-110.92 42.42,-85.42"/>
<polygon fill="midnightblue" stroke="midnightblue" points="45.85,-86.14 44.9,-75.59 39.06,-84.43 45.85,-86.14"/>
</g>
<!-- Node8 -->
<g id="node8" class="node">
<title>Node8</title>
<g id="a_node8"><a xlink:title=" ">
<polygon fill="none" stroke="#bfbfbf" points="206.5,-168.5 206.5,-187.5 268.5,-187.5 268.5,-168.5 206.5,-168.5"/>
<text text-anchor="middle" x="237.5" y="-175.5" font-family="Helvetica,sans-Serif" font-size="10.00">CCStdC.h</text>
</a>
</g>
</g>
<!-- Node2&#45;&gt;Node8 -->
<g id="edge8" class="edge">
<title>Node2&#45;&gt;Node8</title>
<path fill="none" stroke="midnightblue" d="M172.87,-224.32C184.66,-216.06 202.63,-203.45 216.64,-193.63"/>
<polygon fill="midnightblue" stroke="midnightblue" points="218.98,-196.26 225.16,-187.65 214.96,-190.53 218.98,-196.26"/>
</g>
<!-- Node4 -->
<g id="node4" class="node">
<title>Node4</title>
<g id="a_node4"><a xlink:href="../../d3/d41/_c_c_platform_macros_8h.html" target="_top" xlink:title=" ">
<polygon fill="none" stroke="black" points="66.5,-112.5 66.5,-131.5 182.5,-131.5 182.5,-112.5 66.5,-112.5"/>
<text text-anchor="middle" x="124.5" y="-119.5" font-family="Helvetica,sans-Serif" font-size="10.00">CCPlatformMacros.h</text>
</a>
</g>
</g>
<!-- Node3&#45;&gt;Node4 -->
<g id="edge3" class="edge">
<title>Node3&#45;&gt;Node4</title>
<path fill="none" stroke="midnightblue" d="M124.5,-168.08C124.5,-161.01 124.5,-150.86 124.5,-141.99"/>
<polygon fill="midnightblue" stroke="midnightblue" points="128,-141.75 124.5,-131.75 121,-141.75 128,-141.75"/>
</g>
<!-- Node4&#45;&gt;Node5 -->
<g id="edge4" class="edge">
<title>Node4&#45;&gt;Node5</title>
<path fill="none" stroke="midnightblue" d="M112.13,-112.32C100.34,-104.06 82.37,-91.45 68.36,-81.63"/>
<polygon fill="midnightblue" stroke="midnightblue" points="70.04,-78.53 59.84,-75.65 66.02,-84.26 70.04,-78.53"/>
</g>
<!-- Node6 -->
<g id="node6" class="node">
<title>Node6</title>
<g id="a_node6"><a xlink:href="../../dd/d96/_c_c_platform_config_8h.html" target="_top" xlink:title=" ">
<polygon fill="none" stroke="black" points="0,-0.5 0,-19.5 157,-19.5 157,-0.5 0,-0.5"/>
<text text-anchor="middle" x="78.5" y="-7.5" font-family="Helvetica,sans-Serif" font-size="10.00">platform/CCPlatformConfig.h</text>
</a>
</g>
</g>
<!-- Node4&#45;&gt;Node6 -->
<g id="edge6" class="edge">
<title>Node4&#45;&gt;Node6</title>
<path fill="none" stroke="midnightblue" d="M120.89,-112.37C113.4,-94.46 96.03,-52.92 86.01,-28.95"/>
<polygon fill="midnightblue" stroke="midnightblue" points="89.18,-27.47 82.09,-19.59 82.72,-30.17 89.18,-27.47"/>
</g>
<!-- Node7 -->
<g id="node7" class="node">
<title>Node7</title>
<g id="a_node7"><a xlink:title=" ">
<polygon fill="none" stroke="#bfbfbf" points="138,-56.5 138,-75.5 251,-75.5 251,-56.5 138,-56.5"/>
<text text-anchor="middle" x="194.5" y="-63.5" font-family="Helvetica,sans-Serif" font-size="10.00">CCPlatformDefine.h</text>
</a>
</g>
</g>
<!-- Node4&#45;&gt;Node7 -->
<g id="edge7" class="edge">
<title>Node4&#45;&gt;Node7</title>
<path fill="none" stroke="midnightblue" d="M135.75,-112.32C146.3,-104.18 162.3,-91.84 174.94,-82.09"/>
<polygon fill="midnightblue" stroke="midnightblue" points="177.27,-84.71 183.05,-75.83 172.99,-79.17 177.27,-84.71"/>
</g>
<!-- Node5&#45;&gt;Node6 -->
<g id="edge5" class="edge">
<title>Node5&#45;&gt;Node6</title>
<path fill="none" stroke="midnightblue" d="M52.62,-56.08C56.91,-48.61 63.16,-37.72 68.44,-28.52"/>
<polygon fill="midnightblue" stroke="midnightblue" points="71.53,-30.17 73.48,-19.75 65.46,-26.68 71.53,-30.17"/>
</g>
<!-- Node9&#45;&gt;Node2 -->
<g id="edge14" class="edge">
<title>Node9&#45;&gt;Node2</title>
<path fill="none" stroke="midnightblue" d="M226.81,-280.32C214.6,-271.98 195.92,-259.21 181.5,-249.35"/>
<polygon fill="midnightblue" stroke="midnightblue" points="183.39,-246.41 173.16,-243.65 179.44,-252.19 183.39,-246.41"/>
</g>
<!-- Node10 -->
<g id="node10" class="node">
<title>Node10</title>
<g id="a_node10"><a xlink:href="../../d9/d2d/_c_c_data_visitor_8h.html" target="_top" xlink:title=" ">
<polygon fill="none" stroke="black" points="250,-224.5 250,-243.5 343,-243.5 343,-224.5 250,-224.5"/>
<text text-anchor="middle" x="296.5" y="-231.5" font-family="Helvetica,sans-Serif" font-size="10.00">CCDataVisitor.h</text>
</a>
</g>
</g>
<!-- Node9&#45;&gt;Node10 -->
<g id="edge11" class="edge">
<title>Node9&#45;&gt;Node10</title>
<path fill="none" stroke="midnightblue" d="M248.66,-280.32C257,-272.42 269.53,-260.55 279.68,-250.94"/>
<polygon fill="midnightblue" stroke="midnightblue" points="282.32,-253.25 287.18,-243.83 277.51,-248.17 282.32,-253.25"/>
</g>
<!-- Node10&#45;&gt;Node4 -->
<g id="edge12" class="edge">
<title>Node10&#45;&gt;Node4</title>
<path fill="none" stroke="midnightblue" d="M296.46,-224.1C295.91,-210.19 292.78,-183.31 277.5,-168 255.09,-145.55 222.1,-134.19 192.49,-128.48"/>
<polygon fill="midnightblue" stroke="midnightblue" points="193.05,-125.02 182.6,-126.75 191.84,-131.92 193.05,-125.02"/>
</g>
<!-- Node11 -->
<g id="node11" class="node">
<title>Node11</title>
<g id="a_node11"><a xlink:title=" ">
<polygon fill="none" stroke="#bfbfbf" points="324.5,-168.5 324.5,-187.5 368.5,-187.5 368.5,-168.5 324.5,-168.5"/>
<text text-anchor="middle" x="346.5" y="-175.5" font-family="Helvetica,sans-Serif" font-size="10.00">string</text>
</a>
</g>
</g>
<!-- Node10&#45;&gt;Node11 -->
<g id="edge13" class="edge">
<title>Node10&#45;&gt;Node11</title>
<path fill="none" stroke="midnightblue" d="M304.76,-224.08C311.96,-216.3 322.61,-204.8 331.35,-195.37"/>
<polygon fill="midnightblue" stroke="midnightblue" points="334.17,-197.47 338.4,-187.75 329.03,-192.71 334.17,-197.47"/>
</g>
</g>
</svg>
