<?xml version="1.0" encoding="UTF-8" standalone="no"?>
<!DOCTYPE svg PUBLIC "-//W3C//DTD SVG 1.1//EN"
 "http://www.w3.org/Graphics/SVG/1.1/DTD/svg11.dtd">
<!-- Generated by graphviz version 2.43.0 (0)
 -->
<!-- Title: CCKeyboardDispatcher Pages: 1 -->
<svg width="168pt" height="205pt"
 viewBox="0.00 0.00 168.00 205.00" xmlns="http://www.w3.org/2000/svg" xmlns:xlink="http://www.w3.org/1999/xlink">
<g id="graph0" class="graph" transform="scale(1 1) rotate(0) translate(4 201)">
<title>CCKeyboardDispatcher</title>
<!-- Node1 -->
<g id="node1" class="node">
<title>Node1</title>
<g id="a_node1"><a xlink:title=" ">
<polygon fill="#999999" stroke="#666666" points="128,-19 0,-19 0,0 128,0 128,-19"/>
<text text-anchor="middle" x="64" y="-7" font-family="Helvetica,sans-Serif" font-size="10.00">CCKeyboardDispatcher</text>
</a>
</g>
</g>
<!-- Node2 -->
<g id="node2" class="node">
<title>Node2</title>
<g id="a_node2"><a xlink:href="../../d3/dbf/classcocos2d_1_1_c_c_object.html" target="_top" xlink:title="NA.">
<polygon fill="white" stroke="#666666" points="91,-141 29,-141 29,-122 91,-122 91,-141"/>
<text text-anchor="middle" x="60" y="-129" font-family="Helvetica,sans-Serif" font-size="10.00">CCObject</text>
</a>
</g>
</g>
<!-- Node2&#45;&gt;Node1 -->
<g id="edge1" class="edge">
<title>Node2&#45;&gt;Node1</title>
<path fill="none" stroke="#63b8ff" d="M60.63,-111.65C61.51,-85.22 63.07,-38.26 63.71,-19.05"/>
<polygon fill="#63b8ff" stroke="#63b8ff" points="57.12,-111.76 60.29,-121.87 64.12,-111.99 57.12,-111.76"/>
</g>
<!-- Node4 -->
<g id="node4" class="node">
<title>Node4</title>
<g id="a_node4"><a xlink:href="../../d9/d2e/classcocos2d_1_1_c_c_array.html" target="_top" xlink:title="NA.">
<polygon fill="white" stroke="#666666" points="132,-85 76,-85 76,-66 132,-66 132,-85"/>
<text text-anchor="middle" x="104" y="-73" font-family="Helvetica,sans-Serif" font-size="10.00">CCArray</text>
</a>
</g>
</g>
<!-- Node2&#45;&gt;Node4 -->
<g id="edge4" class="edge">
<title>Node2&#45;&gt;Node4</title>
<path fill="none" stroke="#63b8ff" d="M73.73,-113.64C81.4,-104.24 90.63,-92.9 96.87,-85.25"/>
<polygon fill="#63b8ff" stroke="#63b8ff" points="70.87,-111.62 67.27,-121.58 76.3,-116.04 70.87,-111.62"/>
</g>
<!-- Node3 -->
<g id="node3" class="node">
<title>Node3</title>
<g id="a_node3"><a xlink:href="../../d5/d61/classcocos2d_1_1_c_c_copying.html" target="_top" xlink:title="NA NA.">
<polygon fill="white" stroke="#666666" points="95,-197 25,-197 25,-178 95,-178 95,-197"/>
<text text-anchor="middle" x="60" y="-185" font-family="Helvetica,sans-Serif" font-size="10.00">CCCopying</text>
</a>
</g>
</g>
<!-- Node3&#45;&gt;Node2 -->
<g id="edge2" class="edge">
<title>Node3&#45;&gt;Node2</title>
<path fill="none" stroke="#63b8ff" d="M60,-167.3C60,-158.41 60,-148.28 60,-141.25"/>
<polygon fill="#63b8ff" stroke="#63b8ff" points="56.5,-167.58 60,-177.58 63.5,-167.58 56.5,-167.58"/>
</g>
<!-- Node4&#45;&gt;Node1 -->
<g id="edge3" class="edge">
<title>Node4&#45;&gt;Node1</title>
<path fill="none" stroke="#9a32cd" stroke-dasharray="5,2" d="M93.09,-57.05C85.48,-44.86 75.63,-29.11 69.57,-19.41"/>
<polygon fill="#9a32cd" stroke="#9a32cd" points="90.34,-59.24 98.61,-65.87 96.27,-55.53 90.34,-59.24"/>
<text text-anchor="middle" x="123" y="-40" font-family="Helvetica,sans-Serif" font-size="10.00"> m_pDelegates</text>
</g>
</g>
</svg>
