<?xml version="1.0" encoding="UTF-8" standalone="no"?>
<!DOCTYPE svg PUBLIC "-//W3C//DTD SVG 1.1//EN"
 "http://www.w3.org/Graphics/SVG/1.1/DTD/svg11.dtd">
<!-- Generated by graphviz version 2.43.0 (0)
 -->
<!-- Title: CCApplication Pages: 1 -->
<svg width="309pt" height="152pt"
 viewBox="0.00 0.00 309.00 152.00" xmlns="http://www.w3.org/2000/svg" xmlns:xlink="http://www.w3.org/1999/xlink">
<g id="graph0" class="graph" transform="scale(1 1) rotate(0) translate(4 148)">
<title>CCApplication</title>
<!-- Node1 -->
<g id="node1" class="node">
<title>Node1</title>
<g id="a_node1"><a xlink:title=" ">
<polygon fill="#bfbfbf" stroke="black" points="0,-0.5 0,-19.5 85,-19.5 85,-0.5 0,-0.5"/>
<text text-anchor="middle" x="42.5" y="-7.5" font-family="Helvetica,sans-Serif" font-size="10.00">CCApplication</text>
</a>
</g>
</g>
<!-- Node2 -->
<g id="node2" class="node">
<title>Node2</title>
<g id="a_node2"><a xlink:href="../../d3/d8b/classcocos2d_1_1_c_c_application_protocol.html" target="_top" xlink:title=" ">
<polygon fill="none" stroke="black" points="1,-124.5 1,-143.5 126,-143.5 126,-124.5 1,-124.5"/>
<text text-anchor="middle" x="63.5" y="-131.5" font-family="Helvetica,sans-Serif" font-size="10.00">CCApplicationProtocol</text>
</a>
</g>
</g>
<!-- Node2&#45;&gt;Node1 -->
<g id="edge1" class="edge">
<title>Node2&#45;&gt;Node1</title>
<path fill="none" stroke="midnightblue" d="M55.32,-114.55C48.01,-87.83 40.12,-39.4 40.31,-19.69"/>
<polygon fill="midnightblue" stroke="midnightblue" points="52.01,-115.69 58.29,-124.23 58.7,-113.64 52.01,-115.69"/>
</g>
<!-- Node2&#45;&gt;Node1 -->
<g id="edge2" class="edge">
<title>Node2&#45;&gt;Node1</title>
<path fill="none" stroke="midnightblue" d="M65.3,-114.19C63.36,-87.4 54.63,-39.31 47.69,-19.69"/>
<polygon fill="midnightblue" stroke="midnightblue" points="61.8,-114.37 65.69,-124.23 68.8,-114.1 61.8,-114.37"/>
</g>
<!-- Node3 -->
<g id="node3" class="node">
<title>Node3</title>
<g id="a_node3"><a xlink:href="../../dd/de9/classcocos2d_1_1_c_c_application.html" target="_top" xlink:title=" ">
<polygon fill="none" stroke="black" points="80,-67.5 80,-86.5 165,-86.5 165,-67.5 80,-67.5"/>
<text text-anchor="middle" x="122.5" y="-74.5" font-family="Helvetica,sans-Serif" font-size="10.00">CCApplication</text>
</a>
</g>
</g>
<!-- Node2&#45;&gt;Node3 -->
<g id="edge4" class="edge">
<title>Node2&#45;&gt;Node3</title>
<path fill="none" stroke="midnightblue" d="M74.64,-116.83C84.21,-106.98 97.67,-94.78 108.06,-86.71"/>
<polygon fill="midnightblue" stroke="midnightblue" points="71.86,-114.68 67.66,-124.41 77.01,-119.42 71.86,-114.68"/>
</g>
<!-- Node2&#45;&gt;Node3 -->
<g id="edge5" class="edge">
<title>Node2&#45;&gt;Node3</title>
<path fill="none" stroke="midnightblue" d="M85.68,-118C97.59,-107.96 111.05,-95.1 118.24,-86.71"/>
<polygon fill="midnightblue" stroke="midnightblue" points="83.34,-115.39 77.78,-124.41 87.75,-120.82 83.34,-115.39"/>
</g>
<!-- Node3&#45;&gt;Node1 -->
<g id="edge3" class="edge">
<title>Node3&#45;&gt;Node1</title>
<path fill="none" stroke="#9a32cd" stroke-dasharray="5,2" d="M103.69,-60.71C87.92,-47.91 65.99,-30.09 53.12,-19.63"/>
<polygon fill="#9a32cd" stroke="#9a32cd" points="101.74,-63.64 111.71,-67.23 106.16,-58.21 101.74,-63.64"/>
<text text-anchor="middle" x="145.5" y="-41" font-family="Helvetica,sans-Serif" font-size="10.00"> sm_pSharedApplication</text>
</g>
<!-- Node3&#45;&gt;Node3 -->
<g id="edge6" class="edge">
<title>Node3&#45;&gt;Node3</title>
<path fill="none" stroke="#9a32cd" stroke-dasharray="5,2" d="M175.32,-81.15C180.04,-80.28 183,-78.9 183,-77 183,-73.96 175.42,-72.25 165.18,-71.84"/>
<polygon fill="#9a32cd" stroke="#9a32cd" points="174.79,-77.68 165.18,-82.16 175.48,-84.65 174.79,-77.68"/>
<text text-anchor="middle" x="242" y="-74.5" font-family="Helvetica,sans-Serif" font-size="10.00"> sm_pSharedApplication</text>
</g>
</g>
</svg>
