<?xml version="1.0" encoding="UTF-8" standalone="no"?>
<!DOCTYPE svg PUBLIC "-//W3C//DTD SVG 1.1//EN"
 "http://www.w3.org/Graphics/SVG/1.1/DTD/svg11.dtd">
<!-- Generated by graphviz version 2.43.0 (0)
 -->
<!-- Title: CCRipple3D Pages: 1 -->
<svg width="1884pt" height="727pt"
 viewBox="0.00 0.00 1884.00 727.00" xmlns="http://www.w3.org/2000/svg" xmlns:xlink="http://www.w3.org/1999/xlink">
<g id="graph0" class="graph" transform="scale(1 1) rotate(0) translate(4 723)">
<title>CCRipple3D</title>
<!-- Node1 -->
<g id="node1" class="node">
<title>Node1</title>
<g id="a_node1"><a xlink:title="CCRipple3D action.">
<polygon fill="#999999" stroke="#666666" points="1876,-659.5 1802,-659.5 1802,-640.5 1876,-640.5 1876,-659.5"/>
<text text-anchor="middle" x="1839" y="-647.5" font-family="Helvetica,sans-Serif" font-size="10.00">CCRipple3D</text>
</a>
</g>
</g>
<!-- Node2 -->
<g id="node2" class="node">
<title>Node2</title>
<g id="a_node2"><a xlink:href="../../d7/dce/classcocos2d_1_1_c_c_grid3_d_action.html" target="_top" xlink:title="Base class for CCGrid3D actions.">
<polygon fill="white" stroke="#666666" points="1765,-640.5 1670,-640.5 1670,-621.5 1765,-621.5 1765,-640.5"/>
<text text-anchor="middle" x="1717.5" y="-628.5" font-family="Helvetica,sans-Serif" font-size="10.00">CCGrid3DAction</text>
</a>
</g>
</g>
<!-- Node2&#45;&gt;Node1 -->
<g id="edge1" class="edge">
<title>Node2&#45;&gt;Node1</title>
<path fill="none" stroke="#63b8ff" d="M1775.17,-640.01C1784.22,-641.45 1793.36,-642.9 1801.76,-644.24"/>
<polygon fill="#63b8ff" stroke="#63b8ff" points="1775.47,-636.51 1765.04,-638.4 1774.37,-643.43 1775.47,-636.51"/>
</g>
<!-- Node3 -->
<g id="node3" class="node">
<title>Node3</title>
<g id="a_node3"><a xlink:href="../../d5/d1e/classcocos2d_1_1_c_c_grid_action.html" target="_top" xlink:title="Base class for Grid actions.">
<polygon fill="white" stroke="#666666" points="1633,-640.5 1552,-640.5 1552,-621.5 1633,-621.5 1633,-640.5"/>
<text text-anchor="middle" x="1592.5" y="-628.5" font-family="Helvetica,sans-Serif" font-size="10.00">CCGridAction</text>
</a>
</g>
</g>
<!-- Node3&#45;&gt;Node2 -->
<g id="edge2" class="edge">
<title>Node3&#45;&gt;Node2</title>
<path fill="none" stroke="#63b8ff" d="M1643.17,-631C1651.93,-631 1661.01,-631 1669.68,-631"/>
<polygon fill="#63b8ff" stroke="#63b8ff" points="1643.1,-627.5 1633.1,-631 1643.09,-634.5 1643.1,-627.5"/>
</g>
<!-- Node4 -->
<g id="node4" class="node">
<title>Node4</title>
<g id="a_node4"><a xlink:href="../../dd/d8d/classcocos2d_1_1_c_c_action_interval.html" target="_top" xlink:title="An interval action is an action that takes place within a certain period of time.">
<polygon fill="white" stroke="#666666" points="1515,-593.5 1417,-593.5 1417,-574.5 1515,-574.5 1515,-593.5"/>
<text text-anchor="middle" x="1466" y="-581.5" font-family="Helvetica,sans-Serif" font-size="10.00">CCActionInterval</text>
</a>
</g>
</g>
<!-- Node4&#45;&gt;Node3 -->
<g id="edge3" class="edge">
<title>Node4&#45;&gt;Node3</title>
<path fill="none" stroke="#63b8ff" d="M1501.74,-597.12C1522.1,-604.8 1547.38,-614.34 1565.92,-621.34"/>
<polygon fill="#63b8ff" stroke="#63b8ff" points="1502.79,-593.77 1492.19,-593.51 1500.31,-600.32 1502.79,-593.77"/>
</g>
<!-- Node5 -->
<g id="node5" class="node">
<title>Node5</title>
<g id="a_node5"><a xlink:href="../../dd/d89/classcocos2d_1_1_c_c_finite_time_action.html" target="_top" xlink:title="Base class actions that do have a finite time duration.">
<polygon fill="white" stroke="#666666" points="1380,-538.5 1267,-538.5 1267,-519.5 1380,-519.5 1380,-538.5"/>
<text text-anchor="middle" x="1323.5" y="-526.5" font-family="Helvetica,sans-Serif" font-size="10.00">CCFiniteTimeAction</text>
</a>
</g>
</g>
<!-- Node5&#45;&gt;Node4 -->
<g id="edge4" class="edge">
<title>Node5&#45;&gt;Node4</title>
<path fill="none" stroke="#63b8ff" d="M1358.53,-542.32C1383.79,-552.21 1417.65,-565.46 1440.34,-574.34"/>
<polygon fill="#63b8ff" stroke="#63b8ff" points="1359.56,-538.97 1348.97,-538.58 1357.01,-545.48 1359.56,-538.97"/>
</g>
<!-- Node6 -->
<g id="node6" class="node">
<title>Node6</title>
<g id="a_node6"><a xlink:href="../../d7/d12/classcocos2d_1_1_c_c_action.html" target="_top" xlink:title="Base class for CCAction objects.">
<polygon fill="white" stroke="#666666" points="1230,-261.5 1169,-261.5 1169,-242.5 1230,-242.5 1230,-261.5"/>
<text text-anchor="middle" x="1199.5" y="-249.5" font-family="Helvetica,sans-Serif" font-size="10.00">CCAction</text>
</a>
</g>
</g>
<!-- Node6&#45;&gt;Node5 -->
<g id="edge5" class="edge">
<title>Node6&#45;&gt;Node5</title>
<path fill="none" stroke="#63b8ff" d="M1208.85,-270.96C1232.68,-325.07 1300.43,-478.89 1318.19,-519.22"/>
<polygon fill="#63b8ff" stroke="#63b8ff" points="1211.93,-269.28 1204.7,-261.53 1205.53,-272.1 1211.93,-269.28"/>
</g>
<!-- Node7 -->
<g id="node7" class="node">
<title>Node7</title>
<g id="a_node7"><a xlink:href="../../d3/dbf/classcocos2d_1_1_c_c_object.html" target="_top" xlink:title="NA.">
<polygon fill="white" stroke="#666666" points="169,-271.5 107,-271.5 107,-252.5 169,-252.5 169,-271.5"/>
<text text-anchor="middle" x="138" y="-259.5" font-family="Helvetica,sans-Serif" font-size="10.00">CCObject</text>
</a>
</g>
</g>
<!-- Node7&#45;&gt;Node6 -->
<g id="edge6" class="edge">
<title>Node7&#45;&gt;Node6</title>
<path fill="none" stroke="#63b8ff" d="M138.24,-242.12C137.04,-181.01 142.31,0 247,0 247,0 247,0 1013,0 1135.77,0 1186.35,-196.4 1196.51,-242.43"/>
<polygon fill="#63b8ff" stroke="#63b8ff" points="134.75,-242.47 138.53,-252.36 141.75,-242.27 134.75,-242.47"/>
</g>
<!-- Node9 -->
<g id="node9" class="node">
<title>Node9</title>
<g id="a_node9"><a xlink:href="../../d0/ded/classcocos2d_1_1_c_c_node.html" target="_top" xlink:title="CCNode is the main element.">
<polygon fill="white" stroke="#666666" points="1040,-261.5 984,-261.5 984,-242.5 1040,-242.5 1040,-261.5"/>
<text text-anchor="middle" x="1012" y="-249.5" font-family="Helvetica,sans-Serif" font-size="10.00">CCNode</text>
</a>
</g>
</g>
<!-- Node7&#45;&gt;Node9 -->
<g id="edge9" class="edge">
<title>Node7&#45;&gt;Node9</title>
<path fill="none" stroke="#63b8ff" d="M165.77,-247.82C177.8,-241.92 192.34,-235.43 206,-231 249.95,-216.75 262.61,-219.59 308,-211 475.8,-179.24 516.14,-159.63 686,-142 753.22,-135.02 770.43,-138.89 838,-138 894.88,-137.25 918.96,-106 966,-138 1001.71,-162.3 1009.08,-219.74 1010.6,-242.49"/>
<polygon fill="#63b8ff" stroke="#63b8ff" points="164.08,-244.75 156.73,-252.37 167.23,-251 164.08,-244.75"/>
</g>
<!-- Node7&#45;&gt;Node9 -->
<g id="edge30" class="edge">
<title>Node7&#45;&gt;Node9</title>
<path fill="none" stroke="#9a32cd" stroke-dasharray="5,2" d="M141.55,-242.55C148.77,-196.56 173.84,-85 247,-85 247,-85 247,-85 754,-85 849.5,-85 893.14,-58.26 966,-120 1003.87,-152.09 1009.94,-217.43 1010.86,-242.19"/>
<polygon fill="#9a32cd" stroke="#9a32cd" points="138.08,-242.09 140.11,-252.48 145.01,-243.09 138.08,-242.09"/>
<text text-anchor="middle" x="500" y="-88" font-family="Helvetica,sans-Serif" font-size="10.00"> m_pUserObject</text>
</g>
<!-- Node13 -->
<g id="node13" class="node">
<title>Node13</title>
<g id="a_node13"><a xlink:href="../../d2/d51/classcocos2d_1_1_c_c_camera.html" target="_top" xlink:title="A CCCamera is used in every CCNode.">
<polygon fill="white" stroke="#666666" points="652,-51.5 584,-51.5 584,-32.5 652,-32.5 652,-51.5"/>
<text text-anchor="middle" x="618" y="-39.5" font-family="Helvetica,sans-Serif" font-size="10.00">CCCamera</text>
</a>
</g>
</g>
<!-- Node7&#45;&gt;Node13 -->
<g id="edge14" class="edge">
<title>Node7&#45;&gt;Node13</title>
<path fill="none" stroke="#63b8ff" d="M141.08,-242.09C146.14,-197.73 160.69,-92.98 187,-71 246.79,-21.05 493.85,-33.18 583.94,-39.44"/>
<polygon fill="#63b8ff" stroke="#63b8ff" points="137.58,-241.88 139.97,-252.2 144.54,-242.64 137.58,-241.88"/>
</g>
<!-- Node14 -->
<g id="node14" class="node">
<title>Node14</title>
<g id="a_node14"><a xlink:href="../../d6/d70/classcocos2d_1_1_c_c_grid_base.html" target="_top" xlink:title="Base class for other.">
<polygon fill="white" stroke="#666666" points="790,-538.5 716,-538.5 716,-519.5 790,-519.5 790,-538.5"/>
<text text-anchor="middle" x="753" y="-526.5" font-family="Helvetica,sans-Serif" font-size="10.00">CCGridBase</text>
</a>
</g>
</g>
<!-- Node7&#45;&gt;Node14 -->
<g id="edge16" class="edge">
<title>Node7&#45;&gt;Node14</title>
<path fill="none" stroke="#63b8ff" d="M140.48,-281.82C145.38,-341.55 163.29,-517.75 206,-552 284.37,-614.84 606.65,-557.99 715.72,-536.46"/>
<polygon fill="#63b8ff" stroke="#63b8ff" points="143.94,-281.2 139.67,-271.51 136.96,-281.75 143.94,-281.2"/>
</g>
<!-- Node15 -->
<g id="node15" class="node">
<title>Node15</title>
<g id="a_node15"><a xlink:href="../../d7/dfd/classcocos2d_1_1_c_c_texture2_d.html" target="_top" xlink:title="CCTexture2D class.">
<polygon fill="white" stroke="#666666" points="540,-538.5 460,-538.5 460,-519.5 540,-519.5 540,-538.5"/>
<text text-anchor="middle" x="500" y="-526.5" font-family="Helvetica,sans-Serif" font-size="10.00">CCTexture2D</text>
</a>
</g>
</g>
<!-- Node7&#45;&gt;Node15 -->
<g id="edge19" class="edge">
<title>Node7&#45;&gt;Node15</title>
<path fill="none" stroke="#63b8ff" d="M141.34,-281.9C148.2,-336.67 170.07,-487.75 206,-520 280.43,-586.79 413.23,-556.35 470.94,-538.59"/>
<polygon fill="#63b8ff" stroke="#63b8ff" points="144.79,-281.25 140.1,-271.75 137.84,-282.1 144.79,-281.25"/>
</g>
<!-- Node16 -->
<g id="node16" class="node">
<title>Node16</title>
<g id="a_node16"><a xlink:href="../../db/d28/classcocos2d_1_1_c_c_g_l_program.html" target="_top" xlink:title="CCGLProgram Class that implements a glProgram.">
<polygon fill="white" stroke="#666666" points="290,-393.5 206,-393.5 206,-374.5 290,-374.5 290,-393.5"/>
<text text-anchor="middle" x="248" y="-381.5" font-family="Helvetica,sans-Serif" font-size="10.00">CCGLProgram</text>
</a>
</g>
</g>
<!-- Node7&#45;&gt;Node16 -->
<g id="edge22" class="edge">
<title>Node7&#45;&gt;Node16</title>
<path fill="none" stroke="#63b8ff" d="M154.21,-279.18C177.28,-305.25 220.38,-353.93 238.56,-374.47"/>
<polygon fill="#63b8ff" stroke="#63b8ff" points="156.72,-276.74 147.47,-271.57 151.48,-281.38 156.72,-276.74"/>
</g>
<!-- Node17 -->
<g id="node17" class="node">
<title>Node17</title>
<g id="a_node17"><a xlink:href="../../d3/d89/classcocos2d_1_1_c_c_grabber.html" target="_top" xlink:title="FBO class that grabs the the contents of the screen NA NA.">
<polygon fill="white" stroke="#666666" points="404.5,-639.5 335.5,-639.5 335.5,-620.5 404.5,-620.5 404.5,-639.5"/>
<text text-anchor="middle" x="370" y="-627.5" font-family="Helvetica,sans-Serif" font-size="10.00">CCGrabber</text>
</a>
</g>
</g>
<!-- Node7&#45;&gt;Node17 -->
<g id="edge25" class="edge">
<title>Node7&#45;&gt;Node17</title>
<path fill="none" stroke="#63b8ff" d="M138.64,-281.66C137.84,-348.75 139.04,-567.04 187,-613 226.3,-650.65 294.62,-645.49 335.45,-637.97"/>
<polygon fill="#63b8ff" stroke="#63b8ff" points="142.14,-281.65 138.79,-271.6 135.14,-281.54 142.14,-281.65"/>
</g>
<!-- Node18 -->
<g id="node18" class="node">
<title>Node18</title>
<g id="a_node18"><a xlink:href="../../d9/d2e/classcocos2d_1_1_c_c_array.html" target="_top" xlink:title="NA.">
<polygon fill="white" stroke="#666666" points="276,-309.5 220,-309.5 220,-290.5 276,-290.5 276,-309.5"/>
<text text-anchor="middle" x="248" y="-297.5" font-family="Helvetica,sans-Serif" font-size="10.00">CCArray</text>
</a>
</g>
</g>
<!-- Node7&#45;&gt;Node18 -->
<g id="edge28" class="edge">
<title>Node7&#45;&gt;Node18</title>
<path fill="none" stroke="#63b8ff" d="M175.87,-274.97C190.26,-280.03 206.45,-285.73 219.76,-290.41"/>
<polygon fill="#63b8ff" stroke="#63b8ff" points="176.85,-271.61 166.25,-271.59 174.52,-278.21 176.85,-271.61"/>
</g>
<!-- Node19 -->
<g id="node19" class="node">
<title>Node19</title>
<g id="a_node19"><a xlink:href="../../de/dee/classcocos2d_1_1_c_c_scheduler.html" target="_top" xlink:title="Scheduler is responsible for triggering the scheduled callbacks.">
<polygon fill="white" stroke="#666666" points="539,-291.5 461,-291.5 461,-272.5 539,-272.5 539,-291.5"/>
<text text-anchor="middle" x="500" y="-279.5" font-family="Helvetica,sans-Serif" font-size="10.00">CCScheduler</text>
</a>
</g>
</g>
<!-- Node7&#45;&gt;Node19 -->
<g id="edge33" class="edge">
<title>Node7&#45;&gt;Node19</title>
<path fill="none" stroke="#63b8ff" d="M179.25,-264.24C249.19,-268.12 392.22,-276.07 460.74,-279.87"/>
<polygon fill="#63b8ff" stroke="#63b8ff" points="179.25,-260.73 169.07,-263.67 178.86,-267.72 179.25,-260.73"/>
</g>
<!-- Node20 -->
<g id="node20" class="node">
<title>Node20</title>
<g id="a_node20"><a xlink:href="../../d5/dcb/classcocos2d_1_1_c_c_action_manager.html" target="_top" xlink:title="CCActionManager is a singleton that manages all the actions.">
<polygon fill="white" stroke="#666666" points="422,-239.5 318,-239.5 318,-220.5 422,-220.5 422,-239.5"/>
<text text-anchor="middle" x="370" y="-227.5" font-family="Helvetica,sans-Serif" font-size="10.00">CCActionManager</text>
</a>
</g>
</g>
<!-- Node7&#45;&gt;Node20 -->
<g id="edge36" class="edge">
<title>Node7&#45;&gt;Node20</title>
<path fill="none" stroke="#63b8ff" d="M178.34,-249.89C181.25,-249.19 184.16,-248.55 187,-248 230.64,-239.55 280.98,-234.96 317.64,-232.54"/>
<polygon fill="#63b8ff" stroke="#63b8ff" points="177.28,-246.55 168.49,-252.47 179.05,-253.33 177.28,-246.55"/>
</g>
<!-- Node8 -->
<g id="node8" class="node">
<title>Node8</title>
<g id="a_node8"><a xlink:href="../../d5/d61/classcocos2d_1_1_c_c_copying.html" target="_top" xlink:title="NA NA.">
<polygon fill="white" stroke="#666666" points="70,-271.5 0,-271.5 0,-252.5 70,-252.5 70,-271.5"/>
<text text-anchor="middle" x="35" y="-259.5" font-family="Helvetica,sans-Serif" font-size="10.00">CCCopying</text>
</a>
</g>
</g>
<!-- Node8&#45;&gt;Node7 -->
<g id="edge7" class="edge">
<title>Node8&#45;&gt;Node7</title>
<path fill="none" stroke="#63b8ff" d="M80.2,-262C89.22,-262 98.51,-262 106.9,-262"/>
<polygon fill="#63b8ff" stroke="#63b8ff" points="80.19,-258.5 70.19,-262 80.19,-265.5 80.19,-258.5"/>
</g>
<!-- Node9&#45;&gt;Node6 -->
<g id="edge8" class="edge">
<title>Node9&#45;&gt;Node6</title>
<path fill="none" stroke="#9a32cd" stroke-dasharray="5,2" d="M1050.64,-252C1085.54,-252 1136.79,-252 1168.87,-252"/>
<polygon fill="#9a32cd" stroke="#9a32cd" points="1050.37,-248.5 1040.37,-252 1050.37,-255.5 1050.37,-248.5"/>
<text text-anchor="middle" x="1104.5" y="-266" font-family="Helvetica,sans-Serif" font-size="10.00"> m_pOriginalTarget</text>
<text text-anchor="middle" x="1104.5" y="-255" font-family="Helvetica,sans-Serif" font-size="10.00">m_pTarget</text>
</g>
<!-- Node9&#45;&gt;Node9 -->
<g id="edge29" class="edge">
<title>Node9&#45;&gt;Node9</title>
<path fill="none" stroke="#9a32cd" stroke-dasharray="5,2" d="M995.06,-271.41C996.39,-276.06 1002.04,-279.5 1012,-279.5 1028.35,-279.5 1033.08,-270.23 1026.18,-261.58"/>
<polygon fill="#9a32cd" stroke="#9a32cd" points="998.48,-272.16 997.82,-261.58 991.75,-270.26 998.48,-272.16"/>
<text text-anchor="middle" x="1012" y="-282.5" font-family="Helvetica,sans-Serif" font-size="10.00"> m_pParent</text>
</g>
<!-- Node10 -->
<g id="node10" class="node">
<title>Node10</title>
<g id="a_node10"><a xlink:href="../../d2/df3/classcocos2d_1_1_c_c_point.html" target="_top" xlink:title="NA.">
<polygon fill="white" stroke="#666666" points="527.5,-661.5 472.5,-661.5 472.5,-642.5 527.5,-642.5 527.5,-661.5"/>
<text text-anchor="middle" x="500" y="-649.5" font-family="Helvetica,sans-Serif" font-size="10.00">CCPoint</text>
</a>
</g>
</g>
<!-- Node10&#45;&gt;Node1 -->
<g id="edge39" class="edge">
<title>Node10&#45;&gt;Node1</title>
<path fill="none" stroke="#9a32cd" stroke-dasharray="5,2" d="M537.79,-656.29C586.65,-661.62 675.68,-670 752,-670 752,-670 752,-670 1200.5,-670 1288.28,-670 1310.22,-669 1398,-669 1398,-669 1398,-669 1718.5,-669 1746.75,-669 1778.31,-663.76 1801.89,-658.78"/>
<polygon fill="#9a32cd" stroke="#9a32cd" points="538.03,-652.8 527.7,-655.18 537.25,-659.76 538.03,-652.8"/>
<text text-anchor="middle" x="1323.5" y="-672" font-family="Helvetica,sans-Serif" font-size="10.00"> m_position</text>
</g>
<!-- Node10&#45;&gt;Node9 -->
<g id="edge10" class="edge">
<title>Node10&#45;&gt;Node9</title>
<path fill="none" stroke="#9a32cd" stroke-dasharray="5,2" d="M537.52,-650.48C571.76,-648.35 624.12,-643.22 668,-631 676.43,-628.65 677.81,-626.1 686,-623 808.02,-576.88 880.77,-633.76 966,-535 1002.57,-492.63 1009.62,-306.13 1010.79,-261.58"/>
<polygon fill="#9a32cd" stroke="#9a32cd" points="537.29,-646.99 527.5,-651.06 537.69,-653.98 537.29,-646.99"/>
<text text-anchor="middle" x="753" y="-648" font-family="Helvetica,sans-Serif" font-size="10.00"> m_obAnchorPoint</text>
<text text-anchor="middle" x="753" y="-637" font-family="Helvetica,sans-Serif" font-size="10.00">m_obAnchorPointInPoints</text>
<text text-anchor="middle" x="753" y="-626" font-family="Helvetica,sans-Serif" font-size="10.00">m_obPosition</text>
</g>
<!-- Node10&#45;&gt;Node14 -->
<g id="edge23" class="edge">
<title>Node10&#45;&gt;Node14</title>
<path fill="none" stroke="#9a32cd" stroke-dasharray="5,2" d="M529.77,-637.9C546.05,-629.98 563.96,-621.41 568,-620 611.06,-604.97 627,-616.97 668,-597 699.04,-581.88 728.85,-553.37 743.17,-538.52"/>
<polygon fill="#9a32cd" stroke="#9a32cd" points="527.94,-634.9 520.48,-642.43 531.01,-641.19 527.94,-634.9"/>
<text text-anchor="middle" x="618" y="-623" font-family="Helvetica,sans-Serif" font-size="10.00"> m_obStep</text>
</g>
<!-- Node11 -->
<g id="node11" class="node">
<title>Node11</title>
<g id="a_node11"><a xlink:href="../../d9/d24/classcocos2d_1_1_c_c_size.html" target="_top" xlink:title="NA.">
<polygon fill="white" stroke="#666666" points="273,-510.5 223,-510.5 223,-491.5 273,-491.5 273,-510.5"/>
<text text-anchor="middle" x="248" y="-498.5" font-family="Helvetica,sans-Serif" font-size="10.00">CCSize</text>
</a>
</g>
</g>
<!-- Node11&#45;&gt;Node3 -->
<g id="edge38" class="edge">
<title>Node11&#45;&gt;Node3</title>
<path fill="none" stroke="#9a32cd" stroke-dasharray="5,2" d="M274.08,-515.9C323.55,-545.33 429.21,-608.41 432,-612 448.83,-633.64 428.89,-653.5 450,-671 475.16,-691.86 611.1,-708 901,-708 901,-708 901,-708 1249,-708 1370.59,-708 1510.67,-661.24 1566.58,-640.6"/>
<polygon fill="#9a32cd" stroke="#9a32cd" points="275.64,-512.75 265.26,-510.65 272.06,-518.77 275.64,-512.75"/>
<text text-anchor="middle" x="1104.5" y="-711" font-family="Helvetica,sans-Serif" font-size="10.00"> m_sGridSize</text>
</g>
<!-- Node11&#45;&gt;Node9 -->
<g id="edge11" class="edge">
<title>Node11&#45;&gt;Node9</title>
<path fill="none" stroke="#9a32cd" stroke-dasharray="5,2" d="M262.73,-483.07C273.56,-470.28 289.85,-453.85 308,-445 405.75,-397.36 442.94,-428.01 550,-409 735.89,-375.99 810.7,-430.36 966,-323 988.33,-307.56 1001.97,-277.08 1007.75,-261.56"/>
<polygon fill="#9a32cd" stroke="#9a32cd" points="259.71,-481.23 256.14,-491.2 265.15,-485.64 259.71,-481.23"/>
<text text-anchor="middle" x="618" y="-408" font-family="Helvetica,sans-Serif" font-size="10.00"> m_obContentSize</text>
</g>
<!-- Node11&#45;&gt;Node14 -->
<g id="edge17" class="edge">
<title>Node11&#45;&gt;Node14</title>
<path fill="none" stroke="#9a32cd" stroke-dasharray="5,2" d="M283.3,-499.23C339.23,-496.71 453.53,-493.11 550,-500 608.31,-504.16 675.37,-515.01 715.68,-522.19"/>
<polygon fill="#9a32cd" stroke="#9a32cd" points="283.06,-495.73 273.23,-499.7 283.38,-502.73 283.06,-495.73"/>
<text text-anchor="middle" x="500" y="-503" font-family="Helvetica,sans-Serif" font-size="10.00"> m_sGridSize</text>
</g>
<!-- Node11&#45;&gt;Node15 -->
<g id="edge20" class="edge">
<title>Node11&#45;&gt;Node15</title>
<path fill="none" stroke="#9a32cd" stroke-dasharray="5,2" d="M283.54,-504.87C329.72,-510.04 411.36,-519.18 459.8,-524.61"/>
<polygon fill="#9a32cd" stroke="#9a32cd" points="283.75,-501.37 273.43,-503.74 282.97,-508.33 283.75,-501.37"/>
<text text-anchor="middle" x="370" y="-524" font-family="Helvetica,sans-Serif" font-size="10.00"> m_tContentSize</text>
</g>
<!-- Node12 -->
<g id="node12" class="node">
<title>Node12</title>
<g id="a_node12"><a xlink:href="../../da/dbf/structcocos2d_1_1_c_c_affine_transform.html" target="_top" xlink:title=" ">
<polygon fill="white" stroke="#666666" points="806.5,-207.5 699.5,-207.5 699.5,-188.5 806.5,-188.5 806.5,-207.5"/>
<text text-anchor="middle" x="753" y="-195.5" font-family="Helvetica,sans-Serif" font-size="10.00">CCAffineTransform</text>
</a>
</g>
</g>
<!-- Node12&#45;&gt;Node9 -->
<g id="edge12" class="edge">
<title>Node12&#45;&gt;Node9</title>
<path fill="none" stroke="#9a32cd" stroke-dasharray="5,2" d="M801.74,-186.46C846.46,-178.19 914.01,-172.36 966,-197 985.85,-206.4 999.85,-229.32 1006.54,-242.41"/>
<polygon fill="#9a32cd" stroke="#9a32cd" points="800.87,-183.06 791.73,-188.42 802.21,-189.93 800.87,-183.06"/>
<text text-anchor="middle" x="902" y="-222" font-family="Helvetica,sans-Serif" font-size="10.00"> m_sAdditionalTransform</text>
<text text-anchor="middle" x="902" y="-211" font-family="Helvetica,sans-Serif" font-size="10.00">m_sInverse</text>
<text text-anchor="middle" x="902" y="-200" font-family="Helvetica,sans-Serif" font-size="10.00">m_sTransform</text>
</g>
<!-- Node13&#45;&gt;Node9 -->
<g id="edge13" class="edge">
<title>Node13&#45;&gt;Node9</title>
<path fill="none" stroke="#9a32cd" stroke-dasharray="5,2" d="M662.22,-31.23C734.36,-16.03 879.9,2.3 966,-71 992.75,-93.77 1006.48,-207.99 1010.05,-242.26"/>
<polygon fill="#9a32cd" stroke="#9a32cd" points="661.14,-27.88 652.12,-33.43 662.64,-34.72 661.14,-27.88"/>
<text text-anchor="middle" x="753" y="-30" font-family="Helvetica,sans-Serif" font-size="10.00"> m_pCamera</text>
</g>
<!-- Node14&#45;&gt;Node9 -->
<g id="edge15" class="edge">
<title>Node14&#45;&gt;Node9</title>
<path fill="none" stroke="#9a32cd" stroke-dasharray="5,2" d="M800.43,-526.39C848.89,-521.09 923.61,-505.23 966,-458 992.83,-428.1 1006.73,-298.03 1010.15,-261.55"/>
<polygon fill="#9a32cd" stroke="#9a32cd" points="799.82,-522.93 790.21,-527.39 800.5,-529.9 799.82,-522.93"/>
<text text-anchor="middle" x="902" y="-523" font-family="Helvetica,sans-Serif" font-size="10.00"> m_pGrid</text>
</g>
<!-- Node15&#45;&gt;Node14 -->
<g id="edge18" class="edge">
<title>Node15&#45;&gt;Node14</title>
<path fill="none" stroke="#9a32cd" stroke-dasharray="5,2" d="M550.22,-529C598.93,-529 672.36,-529 715.9,-529"/>
<polygon fill="#9a32cd" stroke="#9a32cd" points="550.22,-525.5 540.22,-529 550.22,-532.5 550.22,-525.5"/>
<text text-anchor="middle" x="618" y="-532" font-family="Helvetica,sans-Serif" font-size="10.00"> m_pTexture</text>
</g>
<!-- Node16&#45;&gt;Node9 -->
<g id="edge31" class="edge">
<title>Node16&#45;&gt;Node9</title>
<path fill="none" stroke="#9a32cd" stroke-dasharray="5,2" d="M300.2,-378.8C459.26,-362.53 936.05,-312.76 966,-298 982.84,-289.7 996.95,-272.49 1004.67,-261.63"/>
<polygon fill="#9a32cd" stroke="#9a32cd" points="299.78,-375.33 290.19,-379.82 300.49,-382.29 299.78,-375.33"/>
<text text-anchor="middle" x="618" y="-354" font-family="Helvetica,sans-Serif" font-size="10.00"> m_pShaderProgram</text>
</g>
<!-- Node16&#45;&gt;Node14 -->
<g id="edge26" class="edge">
<title>Node16&#45;&gt;Node14</title>
<path fill="none" stroke="#9a32cd" stroke-dasharray="5,2" d="M300.34,-383.65C397.89,-383.8 605.85,-388.22 668,-422 709.71,-444.67 737.7,-497.7 747.81,-519.44"/>
<polygon fill="#9a32cd" stroke="#9a32cd" points="300.12,-380.15 290.12,-383.65 300.12,-387.15 300.12,-380.15"/>
<text text-anchor="middle" x="500" y="-397" font-family="Helvetica,sans-Serif" font-size="10.00"> m_pShaderProgram</text>
</g>
<!-- Node16&#45;&gt;Node15 -->
<g id="edge21" class="edge">
<title>Node16&#45;&gt;Node15</title>
<path fill="none" stroke="#9a32cd" stroke-dasharray="5,2" d="M273.73,-398.69C284.28,-404.96 296.74,-412.35 308,-419 363.06,-451.54 378.46,-457.02 432,-492 440.26,-497.4 441.54,-499.92 450,-505 458.77,-510.26 468.86,-515.36 477.6,-519.49"/>
<polygon fill="#9a32cd" stroke="#9a32cd" points="275.4,-395.62 265.02,-393.52 271.83,-401.64 275.4,-395.62"/>
<text text-anchor="middle" x="370" y="-495" font-family="Helvetica,sans-Serif" font-size="10.00"> m_pShaderProgram</text>
</g>
<!-- Node17&#45;&gt;Node14 -->
<g id="edge24" class="edge">
<title>Node17&#45;&gt;Node14</title>
<path fill="none" stroke="#9a32cd" stroke-dasharray="5,2" d="M414.82,-625.34C473.66,-618.21 580.88,-602.13 668,-572 693.08,-563.32 720.06,-548.41 736.49,-538.63"/>
<polygon fill="#9a32cd" stroke="#9a32cd" points="414.28,-621.88 404.76,-626.53 415.1,-628.83 414.28,-621.88"/>
<text text-anchor="middle" x="500" y="-623" font-family="Helvetica,sans-Serif" font-size="10.00"> m_pGrabber</text>
</g>
<!-- Node18&#45;&gt;Node9 -->
<g id="edge27" class="edge">
<title>Node18&#45;&gt;Node9</title>
<path fill="none" stroke="#9a32cd" stroke-dasharray="5,2" d="M286.44,-305.12C293.58,-305.9 301.01,-306.59 308,-307 363.02,-310.25 376.9,-308.14 432,-307 604.55,-303.44 647.81,-302.8 820,-291 885.03,-286.54 903.75,-296.35 966,-277 977.09,-273.55 988.53,-267.16 997.09,-261.7"/>
<polygon fill="#9a32cd" stroke="#9a32cd" points="286.6,-301.61 276.26,-303.91 285.78,-308.56 286.6,-301.61"/>
<text text-anchor="middle" x="618" y="-307" font-family="Helvetica,sans-Serif" font-size="10.00"> m_pChildren</text>
</g>
<!-- Node18&#45;&gt;Node19 -->
<g id="edge34" class="edge">
<title>Node18&#45;&gt;Node19</title>
<path fill="none" stroke="#9a32cd" stroke-dasharray="5,2" d="M286.28,-297.32C333.23,-293.94 413.45,-288.16 460.82,-284.75"/>
<polygon fill="#9a32cd" stroke="#9a32cd" points="285.95,-293.83 276.23,-298.04 286.46,-300.81 285.95,-293.83"/>
<text text-anchor="middle" x="370" y="-299" font-family="Helvetica,sans-Serif" font-size="10.00"> m_pScriptHandlerEntries</text>
</g>
<!-- Node19&#45;&gt;Node9 -->
<g id="edge32" class="edge">
<title>Node19&#45;&gt;Node9</title>
<path fill="none" stroke="#9a32cd" stroke-dasharray="5,2" d="M549.11,-280.8C633.62,-278.41 814.16,-272.02 966,-258 971.81,-257.46 978.02,-256.74 983.91,-255.97"/>
<polygon fill="#9a32cd" stroke="#9a32cd" points="548.95,-277.3 539.05,-281.08 549.14,-284.3 548.95,-277.3"/>
<text text-anchor="middle" x="753" y="-279" font-family="Helvetica,sans-Serif" font-size="10.00"> m_pScheduler</text>
</g>
<!-- Node20&#45;&gt;Node9 -->
<g id="edge35" class="edge">
<title>Node20&#45;&gt;Node9</title>
<path fill="none" stroke="#9a32cd" stroke-dasharray="5,2" d="M432.23,-232.1C567.71,-236.76 888.4,-247.79 983.78,-251.06"/>
<polygon fill="#9a32cd" stroke="#9a32cd" points="432.14,-228.6 422.02,-231.75 431.9,-235.6 432.14,-228.6"/>
<text text-anchor="middle" x="618" y="-244" font-family="Helvetica,sans-Serif" font-size="10.00"> m_pActionManager</text>
</g>
<!-- Node21 -->
<g id="node21" class="node">
<title>Node21</title>
<g id="a_node21"><a xlink:href="../../d1/d65/classcocos2d_1_1_c_c_component_container.html" target="_top" xlink:title="NA NA.">
<polygon fill="white" stroke="#666666" points="820,-170.5 686,-170.5 686,-151.5 820,-151.5 820,-170.5"/>
<text text-anchor="middle" x="753" y="-158.5" font-family="Helvetica,sans-Serif" font-size="10.00">CCComponentContainer</text>
</a>
</g>
</g>
<!-- Node21&#45;&gt;Node9 -->
<g id="edge37" class="edge">
<title>Node21&#45;&gt;Node9</title>
<path fill="none" stroke="#9a32cd" stroke-dasharray="5,2" d="M798.87,-149.37C844.53,-140.22 915.57,-133.65 966,-165 994.02,-182.42 1005.41,-223.4 1009.29,-242.23"/>
<polygon fill="#9a32cd" stroke="#9a32cd" points="798.01,-145.97 788.96,-151.47 799.47,-152.82 798.01,-145.97"/>
<text text-anchor="middle" x="902" y="-168" font-family="Helvetica,sans-Serif" font-size="10.00"> m_pComponentContainer</text>
</g>
</g>
</svg>
