<?xml version="1.0" encoding="UTF-8" standalone="no"?>
<!DOCTYPE svg PUBLIC "-//W3C//DTD SVG 1.1//EN"
 "http://www.w3.org/Graphics/SVG/1.1/DTD/svg11.dtd">
<!-- Generated by graphviz version 2.43.0 (0)
 -->
<!-- Title: CCRipple3D Pages: 1 -->
<svg width="1884pt" height="746pt"
 viewBox="0.00 0.00 1884.00 745.50" xmlns="http://www.w3.org/2000/svg" xmlns:xlink="http://www.w3.org/1999/xlink">
<g id="graph0" class="graph" transform="scale(1 1) rotate(0) translate(4 741.5)">
<title>CCRipple3D</title>
<!-- Node1 -->
<g id="node1" class="node">
<title>Node1</title>
<g id="a_node1"><a xlink:title="CCRipple3D action.">
<polygon fill="#bfbfbf" stroke="black" points="1802,-635.5 1802,-654.5 1876,-654.5 1876,-635.5 1802,-635.5"/>
<text text-anchor="middle" x="1839" y="-642.5" font-family="Helvetica,sans-Serif" font-size="10.00">CCRipple3D</text>
</a>
</g>
</g>
<!-- Node2 -->
<g id="node2" class="node">
<title>Node2</title>
<g id="a_node2"><a xlink:href="../../d7/dce/classcocos2d_1_1_c_c_grid3_d_action.html" target="_top" xlink:title="Base class for CCGrid3D actions.">
<polygon fill="none" stroke="black" points="1670,-616.5 1670,-635.5 1765,-635.5 1765,-616.5 1670,-616.5"/>
<text text-anchor="middle" x="1717.5" y="-623.5" font-family="Helvetica,sans-Serif" font-size="10.00">CCGrid3DAction</text>
</a>
</g>
</g>
<!-- Node2&#45;&gt;Node1 -->
<g id="edge1" class="edge">
<title>Node2&#45;&gt;Node1</title>
<path fill="none" stroke="midnightblue" d="M1775.17,-635.01C1784.22,-636.45 1793.36,-637.9 1801.76,-639.24"/>
<polygon fill="midnightblue" stroke="midnightblue" points="1775.47,-631.51 1765.04,-633.4 1774.37,-638.43 1775.47,-631.51"/>
</g>
<!-- Node3 -->
<g id="node3" class="node">
<title>Node3</title>
<g id="a_node3"><a xlink:href="../../d5/d1e/classcocos2d_1_1_c_c_grid_action.html" target="_top" xlink:title="Base class for Grid actions.">
<polygon fill="none" stroke="black" points="1552,-616.5 1552,-635.5 1633,-635.5 1633,-616.5 1552,-616.5"/>
<text text-anchor="middle" x="1592.5" y="-623.5" font-family="Helvetica,sans-Serif" font-size="10.00">CCGridAction</text>
</a>
</g>
</g>
<!-- Node3&#45;&gt;Node2 -->
<g id="edge2" class="edge">
<title>Node3&#45;&gt;Node2</title>
<path fill="none" stroke="midnightblue" d="M1643.17,-626C1651.93,-626 1661.01,-626 1669.68,-626"/>
<polygon fill="midnightblue" stroke="midnightblue" points="1643.1,-622.5 1633.1,-626 1643.09,-629.5 1643.1,-622.5"/>
</g>
<!-- Node4 -->
<g id="node4" class="node">
<title>Node4</title>
<g id="a_node4"><a xlink:href="../../dd/d8d/classcocos2d_1_1_c_c_action_interval.html" target="_top" xlink:title="An interval action is an action that takes place within a certain period of time.">
<polygon fill="none" stroke="black" points="1417,-569.5 1417,-588.5 1515,-588.5 1515,-569.5 1417,-569.5"/>
<text text-anchor="middle" x="1466" y="-576.5" font-family="Helvetica,sans-Serif" font-size="10.00">CCActionInterval</text>
</a>
</g>
</g>
<!-- Node4&#45;&gt;Node3 -->
<g id="edge3" class="edge">
<title>Node4&#45;&gt;Node3</title>
<path fill="none" stroke="midnightblue" d="M1501.74,-592.12C1522.1,-599.8 1547.38,-609.34 1565.92,-616.34"/>
<polygon fill="midnightblue" stroke="midnightblue" points="1502.79,-588.77 1492.19,-588.51 1500.31,-595.32 1502.79,-588.77"/>
</g>
<!-- Node5 -->
<g id="node5" class="node">
<title>Node5</title>
<g id="a_node5"><a xlink:href="../../dd/d89/classcocos2d_1_1_c_c_finite_time_action.html" target="_top" xlink:title="Base class actions that do have a finite time duration.">
<polygon fill="none" stroke="black" points="1267,-430.5 1267,-449.5 1380,-449.5 1380,-430.5 1267,-430.5"/>
<text text-anchor="middle" x="1323.5" y="-437.5" font-family="Helvetica,sans-Serif" font-size="10.00">CCFiniteTimeAction</text>
</a>
</g>
</g>
<!-- Node5&#45;&gt;Node4 -->
<g id="edge4" class="edge">
<title>Node5&#45;&gt;Node4</title>
<path fill="none" stroke="midnightblue" d="M1341.31,-456.63C1370.96,-485.97 1431.64,-546 1455.28,-569.38"/>
<polygon fill="midnightblue" stroke="midnightblue" points="1343.73,-454.1 1334.16,-449.55 1338.8,-459.08 1343.73,-454.1"/>
</g>
<!-- Node6 -->
<g id="node6" class="node">
<title>Node6</title>
<g id="a_node6"><a xlink:href="../../d7/d12/classcocos2d_1_1_c_c_action.html" target="_top" xlink:title="Base class for CCAction objects.">
<polygon fill="none" stroke="black" points="1169,-241.5 1169,-260.5 1230,-260.5 1230,-241.5 1169,-241.5"/>
<text text-anchor="middle" x="1199.5" y="-248.5" font-family="Helvetica,sans-Serif" font-size="10.00">CCAction</text>
</a>
</g>
</g>
<!-- Node6&#45;&gt;Node5 -->
<g id="edge5" class="edge">
<title>Node6&#45;&gt;Node5</title>
<path fill="none" stroke="midnightblue" d="M1212.42,-269.47C1237.86,-308.87 1296.72,-400.06 1316.15,-430.16"/>
<polygon fill="midnightblue" stroke="midnightblue" points="1215.08,-267.14 1206.72,-260.63 1209.2,-270.93 1215.08,-267.14"/>
</g>
<!-- Node7 -->
<g id="node7" class="node">
<title>Node7</title>
<g id="a_node7"><a xlink:href="../../d3/dbf/classcocos2d_1_1_c_c_object.html" target="_top" xlink:title="NA.">
<polygon fill="none" stroke="black" points="107,-253.5 107,-272.5 169,-272.5 169,-253.5 107,-253.5"/>
<text text-anchor="middle" x="138" y="-260.5" font-family="Helvetica,sans-Serif" font-size="10.00">CCObject</text>
</a>
</g>
</g>
<!-- Node7&#45;&gt;Node6 -->
<g id="edge6" class="edge">
<title>Node7&#45;&gt;Node6</title>
<path fill="none" stroke="midnightblue" d="M138.21,-243.05C136.93,-181.7 141.97,0 247,0 247,0 247,0 1013,0 1135.46,0 1186.27,-195.62 1196.5,-241.47"/>
<polygon fill="midnightblue" stroke="midnightblue" points="134.72,-243.44 138.52,-253.33 141.72,-243.23 134.72,-243.44"/>
</g>
<!-- Node9 -->
<g id="node9" class="node">
<title>Node9</title>
<g id="a_node9"><a xlink:href="../../d0/ded/classcocos2d_1_1_c_c_node.html" target="_top" xlink:title="CCNode is the main element.">
<polygon fill="none" stroke="black" points="984,-241.5 984,-260.5 1040,-260.5 1040,-241.5 984,-241.5"/>
<text text-anchor="middle" x="1012" y="-248.5" font-family="Helvetica,sans-Serif" font-size="10.00">CCNode</text>
</a>
</g>
</g>
<!-- Node7&#45;&gt;Node9 -->
<g id="edge9" class="edge">
<title>Node7&#45;&gt;Node9</title>
<path fill="none" stroke="midnightblue" d="M165.77,-248.82C177.8,-242.92 192.34,-236.43 206,-232 249.95,-217.75 262.62,-220.65 308,-212 475.83,-180.01 516.02,-159.3 686,-142 753.22,-135.16 770.43,-139.67 838,-139 894.89,-138.44 918.87,-107.14 966,-139 1001.07,-162.7 1008.81,-218.73 1010.52,-241.32"/>
<polygon fill="midnightblue" stroke="midnightblue" points="164.08,-245.75 156.73,-253.37 167.23,-252 164.08,-245.75"/>
</g>
<!-- Node7&#45;&gt;Node9 -->
<g id="edge30" class="edge">
<title>Node7&#45;&gt;Node9</title>
<path fill="none" stroke="#9a32cd" stroke-dasharray="5,2" d="M141.51,-243.44C148.65,-197.19 173.54,-85 247,-85 247,-85 247,-85 754,-85 849.57,-85 893.08,-59.22 966,-121 1003.36,-152.65 1009.74,-216.97 1010.8,-241.35"/>
<polygon fill="#9a32cd" stroke="#9a32cd" points="138.03,-243.04 140.09,-253.43 144.96,-244.02 138.03,-243.04"/>
<text text-anchor="middle" x="500" y="-88" font-family="Helvetica,sans-Serif" font-size="10.00"> m_pUserObject</text>
</g>
<!-- Node13 -->
<g id="node13" class="node">
<title>Node13</title>
<g id="a_node13"><a xlink:href="../../d2/d51/classcocos2d_1_1_c_c_camera.html" target="_top" xlink:title="A CCCamera is used in every CCNode.">
<polygon fill="none" stroke="black" points="584,-32.5 584,-51.5 652,-51.5 652,-32.5 584,-32.5"/>
<text text-anchor="middle" x="618" y="-39.5" font-family="Helvetica,sans-Serif" font-size="10.00">CCCamera</text>
</a>
</g>
</g>
<!-- Node7&#45;&gt;Node13 -->
<g id="edge14" class="edge">
<title>Node7&#45;&gt;Node13</title>
<path fill="none" stroke="midnightblue" d="M141.06,-242.99C146.09,-198.4 160.57,-93.1 187,-71 246.76,-21.01 493.84,-33.16 583.94,-39.43"/>
<polygon fill="midnightblue" stroke="midnightblue" points="137.56,-242.83 139.96,-253.15 144.52,-243.59 137.56,-242.83"/>
</g>
<!-- Node14 -->
<g id="node14" class="node">
<title>Node14</title>
<g id="a_node14"><a xlink:href="../../d6/d70/classcocos2d_1_1_c_c_grid_base.html" target="_top" xlink:title="Base class for other.">
<polygon fill="none" stroke="black" points="716,-520.5 716,-539.5 790,-539.5 790,-520.5 716,-520.5"/>
<text text-anchor="middle" x="753" y="-527.5" font-family="Helvetica,sans-Serif" font-size="10.00">CCGridBase</text>
</a>
</g>
</g>
<!-- Node7&#45;&gt;Node14 -->
<g id="edge16" class="edge">
<title>Node7&#45;&gt;Node14</title>
<path fill="none" stroke="midnightblue" d="M140.48,-282.82C145.38,-342.55 163.29,-518.75 206,-553 284.37,-615.84 606.65,-558.99 715.72,-537.46"/>
<polygon fill="midnightblue" stroke="midnightblue" points="143.94,-282.2 139.67,-272.51 136.96,-282.75 143.94,-282.2"/>
</g>
<!-- Node15 -->
<g id="node15" class="node">
<title>Node15</title>
<g id="a_node15"><a xlink:href="../../d7/dfd/classcocos2d_1_1_c_c_texture2_d.html" target="_top" xlink:title="CCTexture2D class.">
<polygon fill="none" stroke="black" points="460,-520.5 460,-539.5 540,-539.5 540,-520.5 460,-520.5"/>
<text text-anchor="middle" x="500" y="-527.5" font-family="Helvetica,sans-Serif" font-size="10.00">CCTexture2D</text>
</a>
</g>
</g>
<!-- Node7&#45;&gt;Node15 -->
<g id="edge19" class="edge">
<title>Node7&#45;&gt;Node15</title>
<path fill="none" stroke="midnightblue" d="M141.34,-282.9C148.2,-337.67 170.07,-488.75 206,-521 280.43,-587.79 413.23,-557.35 470.94,-539.59"/>
<polygon fill="midnightblue" stroke="midnightblue" points="144.79,-282.25 140.1,-272.75 137.84,-283.1 144.79,-282.25"/>
</g>
<!-- Node16 -->
<g id="node16" class="node">
<title>Node16</title>
<g id="a_node16"><a xlink:href="../../db/d28/classcocos2d_1_1_c_c_g_l_program.html" target="_top" xlink:title="CCGLProgram Class that implements a glProgram.">
<polygon fill="none" stroke="black" points="206,-373.5 206,-392.5 290,-392.5 290,-373.5 206,-373.5"/>
<text text-anchor="middle" x="248" y="-380.5" font-family="Helvetica,sans-Serif" font-size="10.00">CCGLProgram</text>
</a>
</g>
</g>
<!-- Node7&#45;&gt;Node16 -->
<g id="edge22" class="edge">
<title>Node7&#45;&gt;Node16</title>
<path fill="none" stroke="midnightblue" d="M154.59,-280.33C177.67,-305.96 220.13,-353.15 238.34,-373.38"/>
<polygon fill="midnightblue" stroke="midnightblue" points="157.13,-277.91 147.84,-272.82 151.93,-282.59 157.13,-277.91"/>
</g>
<!-- Node17 -->
<g id="node17" class="node">
<title>Node17</title>
<g id="a_node17"><a xlink:href="../../d3/d89/classcocos2d_1_1_c_c_grabber.html" target="_top" xlink:title="FBO class that grabs the the contents of the screen NA NA.">
<polygon fill="none" stroke="black" points="335.5,-621.5 335.5,-640.5 404.5,-640.5 404.5,-621.5 335.5,-621.5"/>
<text text-anchor="middle" x="370" y="-628.5" font-family="Helvetica,sans-Serif" font-size="10.00">CCGrabber</text>
</a>
</g>
</g>
<!-- Node7&#45;&gt;Node17 -->
<g id="edge25" class="edge">
<title>Node7&#45;&gt;Node17</title>
<path fill="none" stroke="midnightblue" d="M138.64,-282.66C137.84,-349.75 139.04,-568.04 187,-614 226.3,-651.65 294.62,-646.49 335.45,-638.97"/>
<polygon fill="midnightblue" stroke="midnightblue" points="142.14,-282.65 138.79,-272.6 135.14,-282.54 142.14,-282.65"/>
</g>
<!-- Node18 -->
<g id="node18" class="node">
<title>Node18</title>
<g id="a_node18"><a xlink:href="../../d9/d2e/classcocos2d_1_1_c_c_array.html" target="_top" xlink:title="NA.">
<polygon fill="none" stroke="black" points="220,-291.5 220,-310.5 276,-310.5 276,-291.5 220,-291.5"/>
<text text-anchor="middle" x="248" y="-298.5" font-family="Helvetica,sans-Serif" font-size="10.00">CCArray</text>
</a>
</g>
</g>
<!-- Node7&#45;&gt;Node18 -->
<g id="edge28" class="edge">
<title>Node7&#45;&gt;Node18</title>
<path fill="none" stroke="midnightblue" d="M175.87,-275.97C190.26,-281.03 206.45,-286.73 219.76,-291.41"/>
<polygon fill="midnightblue" stroke="midnightblue" points="176.85,-272.61 166.25,-272.59 174.52,-279.21 176.85,-272.61"/>
</g>
<!-- Node19 -->
<g id="node19" class="node">
<title>Node19</title>
<g id="a_node19"><a xlink:href="../../de/dee/classcocos2d_1_1_c_c_scheduler.html" target="_top" xlink:title="Scheduler is responsible for triggering the scheduled callbacks.">
<polygon fill="none" stroke="black" points="461,-273.5 461,-292.5 539,-292.5 539,-273.5 461,-273.5"/>
<text text-anchor="middle" x="500" y="-280.5" font-family="Helvetica,sans-Serif" font-size="10.00">CCScheduler</text>
</a>
</g>
</g>
<!-- Node7&#45;&gt;Node19 -->
<g id="edge33" class="edge">
<title>Node7&#45;&gt;Node19</title>
<path fill="none" stroke="midnightblue" d="M179.25,-265.24C249.19,-269.12 392.22,-277.07 460.74,-280.87"/>
<polygon fill="midnightblue" stroke="midnightblue" points="179.25,-261.73 169.07,-264.67 178.86,-268.72 179.25,-261.73"/>
</g>
<!-- Node20 -->
<g id="node20" class="node">
<title>Node20</title>
<g id="a_node20"><a xlink:href="../../d5/dcb/classcocos2d_1_1_c_c_action_manager.html" target="_top" xlink:title="CCActionManager is a singleton that manages all the actions.">
<polygon fill="none" stroke="black" points="318,-221.5 318,-240.5 422,-240.5 422,-221.5 318,-221.5"/>
<text text-anchor="middle" x="370" y="-228.5" font-family="Helvetica,sans-Serif" font-size="10.00">CCActionManager</text>
</a>
</g>
</g>
<!-- Node7&#45;&gt;Node20 -->
<g id="edge36" class="edge">
<title>Node7&#45;&gt;Node20</title>
<path fill="none" stroke="midnightblue" d="M178.34,-250.89C181.25,-250.19 184.16,-249.55 187,-249 230.64,-240.55 280.98,-235.96 317.64,-233.54"/>
<polygon fill="midnightblue" stroke="midnightblue" points="177.28,-247.55 168.49,-253.47 179.05,-254.33 177.28,-247.55"/>
</g>
<!-- Node8 -->
<g id="node8" class="node">
<title>Node8</title>
<g id="a_node8"><a xlink:href="../../d5/d61/classcocos2d_1_1_c_c_copying.html" target="_top" xlink:title="NA NA.">
<polygon fill="none" stroke="black" points="0,-253.5 0,-272.5 70,-272.5 70,-253.5 0,-253.5"/>
<text text-anchor="middle" x="35" y="-260.5" font-family="Helvetica,sans-Serif" font-size="10.00">CCCopying</text>
</a>
</g>
</g>
<!-- Node8&#45;&gt;Node7 -->
<g id="edge7" class="edge">
<title>Node8&#45;&gt;Node7</title>
<path fill="none" stroke="midnightblue" d="M80.2,-263C89.22,-263 98.51,-263 106.9,-263"/>
<polygon fill="midnightblue" stroke="midnightblue" points="80.19,-259.5 70.19,-263 80.19,-266.5 80.19,-259.5"/>
</g>
<!-- Node9&#45;&gt;Node6 -->
<g id="edge8" class="edge">
<title>Node9&#45;&gt;Node6</title>
<path fill="none" stroke="#9a32cd" stroke-dasharray="5,2" d="M1050.64,-251C1085.54,-251 1136.79,-251 1168.87,-251"/>
<polygon fill="#9a32cd" stroke="#9a32cd" points="1050.37,-247.5 1040.37,-251 1050.37,-254.5 1050.37,-247.5"/>
<text text-anchor="middle" x="1104.5" y="-265" font-family="Helvetica,sans-Serif" font-size="10.00"> m_pOriginalTarget</text>
<text text-anchor="middle" x="1104.5" y="-254" font-family="Helvetica,sans-Serif" font-size="10.00">m_pTarget</text>
</g>
<!-- Node9&#45;&gt;Node9 -->
<g id="edge29" class="edge">
<title>Node9&#45;&gt;Node9</title>
<path fill="none" stroke="#9a32cd" stroke-dasharray="5,2" d="M994.96,-270.4C996.1,-275.31 1001.78,-279 1012,-279 1028.35,-279 1033.08,-269.57 1026.18,-260.76"/>
<polygon fill="#9a32cd" stroke="#9a32cd" points="998.34,-271.34 997.82,-260.76 991.62,-269.35 998.34,-271.34"/>
<text text-anchor="middle" x="1012" y="-282" font-family="Helvetica,sans-Serif" font-size="10.00"> m_pParent</text>
</g>
<!-- Node10 -->
<g id="node10" class="node">
<title>Node10</title>
<g id="a_node10"><a xlink:href="../../d2/df3/classcocos2d_1_1_c_c_point.html" target="_top" xlink:title="NA.">
<polygon fill="none" stroke="black" points="472.5,-643.5 472.5,-662.5 527.5,-662.5 527.5,-643.5 472.5,-643.5"/>
<text text-anchor="middle" x="500" y="-650.5" font-family="Helvetica,sans-Serif" font-size="10.00">CCPoint</text>
</a>
</g>
</g>
<!-- Node10&#45;&gt;Node1 -->
<g id="edge39" class="edge">
<title>Node10&#45;&gt;Node1</title>
<path fill="none" stroke="#9a32cd" stroke-dasharray="5,2" d="M537.82,-655.86C586.72,-659.41 675.79,-665 752,-665 752,-665 752,-665 1200.5,-665 1288.28,-665 1310.22,-664 1398,-664 1398,-664 1398,-664 1718.5,-664 1746.75,-664 1778.31,-658.76 1801.89,-653.78"/>
<polygon fill="#9a32cd" stroke="#9a32cd" points="537.96,-652.36 527.73,-655.12 537.44,-659.34 537.96,-652.36"/>
<text text-anchor="middle" x="1323.5" y="-667" font-family="Helvetica,sans-Serif" font-size="10.00"> m_position</text>
</g>
<!-- Node10&#45;&gt;Node9 -->
<g id="edge10" class="edge">
<title>Node10&#45;&gt;Node9</title>
<path fill="none" stroke="#9a32cd" stroke-dasharray="5,2" d="M537.52,-649.83C571.76,-646.22 624.12,-639.06 668,-626 676.39,-623.5 677.78,-621.01 686,-618 807.74,-573.35 880.37,-633.38 966,-536 1003.21,-493.68 1009.77,-305.59 1010.82,-260.66"/>
<polygon fill="#9a32cd" stroke="#9a32cd" points="537.1,-646.36 527.5,-650.84 537.8,-653.32 537.1,-646.36"/>
<text text-anchor="middle" x="753" y="-643" font-family="Helvetica,sans-Serif" font-size="10.00"> m_obAnchorPoint</text>
<text text-anchor="middle" x="753" y="-632" font-family="Helvetica,sans-Serif" font-size="10.00">m_obAnchorPointInPoints</text>
<text text-anchor="middle" x="753" y="-621" font-family="Helvetica,sans-Serif" font-size="10.00">m_obPosition</text>
</g>
<!-- Node10&#45;&gt;Node14 -->
<g id="edge23" class="edge">
<title>Node10&#45;&gt;Node14</title>
<path fill="none" stroke="#9a32cd" stroke-dasharray="5,2" d="M532.22,-638.91C538.24,-635.86 544.41,-632.49 550,-629 558.6,-623.63 558.85,-619.35 568,-615 609.19,-595.43 626.56,-611.05 668,-592 683.4,-584.92 721.12,-555.1 740.34,-539.54"/>
<polygon fill="#9a32cd" stroke="#9a32cd" points="530.43,-635.88 522.98,-643.41 533.5,-642.17 530.43,-635.88"/>
<text text-anchor="middle" x="618" y="-618" font-family="Helvetica,sans-Serif" font-size="10.00"> m_obStep</text>
</g>
<!-- Node11 -->
<g id="node11" class="node">
<title>Node11</title>
<g id="a_node11"><a xlink:href="../../d9/d24/classcocos2d_1_1_c_c_size.html" target="_top" xlink:title="NA.">
<polygon fill="none" stroke="black" points="223,-492.5 223,-511.5 273,-511.5 273,-492.5 223,-492.5"/>
<text text-anchor="middle" x="248" y="-499.5" font-family="Helvetica,sans-Serif" font-size="10.00">CCSize</text>
</a>
</g>
</g>
<!-- Node11&#45;&gt;Node3 -->
<g id="edge38" class="edge">
<title>Node11&#45;&gt;Node3</title>
<path fill="none" stroke="#9a32cd" stroke-dasharray="5,2" d="M273.95,-516.84C323.7,-546.46 430.6,-610.2 432,-612 449.08,-633.99 428.25,-654.62 450,-672 606.99,-797.39 700.08,-703 901,-703 901,-703 901,-703 1249,-703 1370.59,-703 1510.67,-656.24 1566.58,-635.6"/>
<polygon fill="#9a32cd" stroke="#9a32cd" points="275.47,-513.67 265.09,-511.57 271.89,-519.69 275.47,-513.67"/>
<text text-anchor="middle" x="1104.5" y="-706" font-family="Helvetica,sans-Serif" font-size="10.00"> m_sGridSize</text>
</g>
<!-- Node11&#45;&gt;Node9 -->
<g id="edge11" class="edge">
<title>Node11&#45;&gt;Node9</title>
<path fill="none" stroke="#9a32cd" stroke-dasharray="5,2" d="M262.73,-484.07C273.56,-471.28 289.85,-454.85 308,-446 405.75,-398.36 442.96,-429.14 550,-410 735.94,-376.76 811.09,-431.08 966,-323 988.49,-307.31 1002.05,-276.41 1007.79,-260.69"/>
<polygon fill="#9a32cd" stroke="#9a32cd" points="259.71,-482.23 256.14,-492.2 265.15,-486.64 259.71,-482.23"/>
<text text-anchor="middle" x="618" y="-409" font-family="Helvetica,sans-Serif" font-size="10.00"> m_obContentSize</text>
</g>
<!-- Node11&#45;&gt;Node14 -->
<g id="edge17" class="edge">
<title>Node11&#45;&gt;Node14</title>
<path fill="none" stroke="#9a32cd" stroke-dasharray="5,2" d="M283.3,-499.98C339.24,-497.1 453.55,-492.88 550,-500 608.34,-504.31 675.39,-515.53 715.69,-522.96"/>
<polygon fill="#9a32cd" stroke="#9a32cd" points="283.03,-496.49 273.23,-500.52 283.41,-503.48 283.03,-496.49"/>
<text text-anchor="middle" x="500" y="-503" font-family="Helvetica,sans-Serif" font-size="10.00"> m_sGridSize</text>
</g>
<!-- Node11&#45;&gt;Node15 -->
<g id="edge20" class="edge">
<title>Node11&#45;&gt;Node15</title>
<path fill="none" stroke="#9a32cd" stroke-dasharray="5,2" d="M283.54,-505.87C329.72,-511.04 411.36,-520.18 459.8,-525.61"/>
<polygon fill="#9a32cd" stroke="#9a32cd" points="283.75,-502.37 273.43,-504.74 282.97,-509.33 283.75,-502.37"/>
<text text-anchor="middle" x="370" y="-525" font-family="Helvetica,sans-Serif" font-size="10.00"> m_tContentSize</text>
</g>
<!-- Node12 -->
<g id="node12" class="node">
<title>Node12</title>
<g id="a_node12"><a xlink:href="../../da/dbf/structcocos2d_1_1_c_c_affine_transform.html" target="_top" xlink:title=" ">
<polygon fill="none" stroke="black" points="699.5,-189.5 699.5,-208.5 806.5,-208.5 806.5,-189.5 699.5,-189.5"/>
<text text-anchor="middle" x="753" y="-196.5" font-family="Helvetica,sans-Serif" font-size="10.00">CCAffineTransform</text>
</a>
</g>
</g>
<!-- Node12&#45;&gt;Node9 -->
<g id="edge12" class="edge">
<title>Node12&#45;&gt;Node9</title>
<path fill="none" stroke="#9a32cd" stroke-dasharray="5,2" d="M802.44,-187.53C847.09,-179.49 914.09,-173.98 966,-198 985.28,-206.92 999.32,-228.63 1006.21,-241.32"/>
<polygon fill="#9a32cd" stroke="#9a32cd" points="801.6,-184.13 792.43,-189.44 802.91,-191 801.6,-184.13"/>
<text text-anchor="middle" x="902" y="-223" font-family="Helvetica,sans-Serif" font-size="10.00"> m_sAdditionalTransform</text>
<text text-anchor="middle" x="902" y="-212" font-family="Helvetica,sans-Serif" font-size="10.00">m_sInverse</text>
<text text-anchor="middle" x="902" y="-201" font-family="Helvetica,sans-Serif" font-size="10.00">m_sTransform</text>
</g>
<!-- Node13&#45;&gt;Node9 -->
<g id="edge13" class="edge">
<title>Node13&#45;&gt;Node9</title>
<path fill="none" stroke="#9a32cd" stroke-dasharray="5,2" d="M662.21,-31.24C734.34,-16.06 879.85,2.24 966,-71 992.63,-93.64 1006.45,-207.23 1010.04,-241.32"/>
<polygon fill="#9a32cd" stroke="#9a32cd" points="661.14,-27.89 652.11,-33.44 662.63,-34.73 661.14,-27.89"/>
<text text-anchor="middle" x="753" y="-30" font-family="Helvetica,sans-Serif" font-size="10.00"> m_pCamera</text>
</g>
<!-- Node14&#45;&gt;Node9 -->
<g id="edge15" class="edge">
<title>Node14&#45;&gt;Node9</title>
<path fill="none" stroke="#9a32cd" stroke-dasharray="5,2" d="M800.45,-527.41C848.93,-522.13 923.66,-506.28 966,-459 993.05,-428.79 1006.8,-297.47 1010.17,-260.64"/>
<polygon fill="#9a32cd" stroke="#9a32cd" points="799.84,-523.95 790.22,-528.41 800.52,-530.92 799.84,-523.95"/>
<text text-anchor="middle" x="902" y="-524" font-family="Helvetica,sans-Serif" font-size="10.00"> m_pGrid</text>
</g>
<!-- Node15&#45;&gt;Node14 -->
<g id="edge18" class="edge">
<title>Node15&#45;&gt;Node14</title>
<path fill="none" stroke="#9a32cd" stroke-dasharray="5,2" d="M550.22,-530C598.93,-530 672.36,-530 715.9,-530"/>
<polygon fill="#9a32cd" stroke="#9a32cd" points="550.22,-526.5 540.22,-530 550.22,-533.5 550.22,-526.5"/>
<text text-anchor="middle" x="618" y="-533" font-family="Helvetica,sans-Serif" font-size="10.00"> m_pTexture</text>
</g>
<!-- Node16&#45;&gt;Node9 -->
<g id="edge31" class="edge">
<title>Node16&#45;&gt;Node9</title>
<path fill="none" stroke="#9a32cd" stroke-dasharray="5,2" d="M300.21,-377.97C459.31,-362.23 936.2,-314.03 966,-299 983.34,-290.26 997.49,-271.96 1005.05,-260.65"/>
<polygon fill="#9a32cd" stroke="#9a32cd" points="299.8,-374.5 290.2,-378.96 300.49,-381.46 299.8,-374.5"/>
<text text-anchor="middle" x="618" y="-353" font-family="Helvetica,sans-Serif" font-size="10.00"> m_pShaderProgram</text>
</g>
<!-- Node16&#45;&gt;Node14 -->
<g id="edge26" class="edge">
<title>Node16&#45;&gt;Node14</title>
<path fill="none" stroke="#9a32cd" stroke-dasharray="5,2" d="M300.34,-382.92C397.91,-383.58 605.9,-389.06 668,-423 709.65,-445.77 737.68,-498.75 747.8,-520.46"/>
<polygon fill="#9a32cd" stroke="#9a32cd" points="300.15,-379.42 290.13,-382.87 300.11,-386.42 300.15,-379.42"/>
<text text-anchor="middle" x="500" y="-398" font-family="Helvetica,sans-Serif" font-size="10.00"> m_pShaderProgram</text>
</g>
<!-- Node16&#45;&gt;Node15 -->
<g id="edge21" class="edge">
<title>Node16&#45;&gt;Node15</title>
<path fill="none" stroke="#9a32cd" stroke-dasharray="5,2" d="M272.43,-397.9C283.22,-404.71 296.21,-412.84 308,-420 362.65,-453.21 378.46,-458.02 432,-493 440.26,-498.4 441.54,-500.92 450,-506 458.77,-511.26 468.86,-516.36 477.6,-520.49"/>
<polygon fill="#9a32cd" stroke="#9a32cd" points="274.28,-394.94 263.96,-392.55 270.54,-400.85 274.28,-394.94"/>
<text text-anchor="middle" x="370" y="-496" font-family="Helvetica,sans-Serif" font-size="10.00"> m_pShaderProgram</text>
</g>
<!-- Node17&#45;&gt;Node14 -->
<g id="edge24" class="edge">
<title>Node17&#45;&gt;Node14</title>
<path fill="none" stroke="#9a32cd" stroke-dasharray="5,2" d="M414.55,-624.46C473.08,-615.03 579.96,-595.55 668,-567 691.04,-559.53 716.33,-547.89 733.08,-539.66"/>
<polygon fill="#9a32cd" stroke="#9a32cd" points="413.87,-621.02 404.54,-626.05 414.97,-627.94 413.87,-621.02"/>
<text text-anchor="middle" x="500" y="-621" font-family="Helvetica,sans-Serif" font-size="10.00"> m_pGrabber</text>
</g>
<!-- Node18&#45;&gt;Node9 -->
<g id="edge27" class="edge">
<title>Node18&#45;&gt;Node9</title>
<path fill="none" stroke="#9a32cd" stroke-dasharray="5,2" d="M286.44,-306.12C293.58,-306.9 301.01,-307.59 308,-308 363.02,-311.25 376.9,-309.06 432,-308 604.54,-304.67 647.86,-305.16 820,-293 885.07,-288.4 904.11,-298.61 966,-278 977.76,-274.09 989.72,-266.71 998.36,-260.66"/>
<polygon fill="#9a32cd" stroke="#9a32cd" points="286.6,-302.61 276.26,-304.91 285.78,-309.56 286.6,-302.61"/>
<text text-anchor="middle" x="618" y="-308" font-family="Helvetica,sans-Serif" font-size="10.00"> m_pChildren</text>
</g>
<!-- Node18&#45;&gt;Node19 -->
<g id="edge34" class="edge">
<title>Node18&#45;&gt;Node19</title>
<path fill="none" stroke="#9a32cd" stroke-dasharray="5,2" d="M286.28,-298.32C333.23,-294.94 413.45,-289.16 460.82,-285.75"/>
<polygon fill="#9a32cd" stroke="#9a32cd" points="285.95,-294.83 276.23,-299.04 286.46,-301.81 285.95,-294.83"/>
<text text-anchor="middle" x="370" y="-299" font-family="Helvetica,sans-Serif" font-size="10.00"> m_pScriptHandlerEntries</text>
</g>
<!-- Node19&#45;&gt;Node9 -->
<g id="edge32" class="edge">
<title>Node19&#45;&gt;Node9</title>
<path fill="none" stroke="#9a32cd" stroke-dasharray="5,2" d="M549.18,-282.48C633.8,-281.14 814.5,-276.31 966,-259 971.83,-258.33 978.06,-257.38 983.95,-256.37"/>
<polygon fill="#9a32cd" stroke="#9a32cd" points="549.05,-278.99 539.11,-282.64 549.16,-285.99 549.05,-278.99"/>
<text text-anchor="middle" x="753" y="-281" font-family="Helvetica,sans-Serif" font-size="10.00"> m_pScheduler</text>
</g>
<!-- Node20&#45;&gt;Node9 -->
<g id="edge35" class="edge">
<title>Node20&#45;&gt;Node9</title>
<path fill="none" stroke="#9a32cd" stroke-dasharray="5,2" d="M432.23,-232.91C567.71,-237.15 888.4,-247.17 983.78,-250.15"/>
<polygon fill="#9a32cd" stroke="#9a32cd" points="432.13,-229.41 422.02,-232.59 431.91,-236.41 432.13,-229.41"/>
<text text-anchor="middle" x="618" y="-244" font-family="Helvetica,sans-Serif" font-size="10.00"> m_pActionManager</text>
</g>
<!-- Node21 -->
<g id="node21" class="node">
<title>Node21</title>
<g id="a_node21"><a xlink:href="../../d1/d65/classcocos2d_1_1_c_c_component_container.html" target="_top" xlink:title="NA NA.">
<polygon fill="none" stroke="black" points="686,-151.5 686,-170.5 820,-170.5 820,-151.5 686,-151.5"/>
<text text-anchor="middle" x="753" y="-158.5" font-family="Helvetica,sans-Serif" font-size="10.00">CCComponentContainer</text>
</a>
</g>
</g>
<!-- Node21&#45;&gt;Node9 -->
<g id="edge37" class="edge">
<title>Node21&#45;&gt;Node9</title>
<path fill="none" stroke="#9a32cd" stroke-dasharray="5,2" d="M800.42,-149.42C846.1,-140.77 916.07,-135.13 966,-166 993.55,-183.03 1005.19,-223.06 1009.21,-241.46"/>
<polygon fill="#9a32cd" stroke="#9a32cd" points="799.6,-146.02 790.49,-151.42 800.99,-152.88 799.6,-146.02"/>
<text text-anchor="middle" x="902" y="-169" font-family="Helvetica,sans-Serif" font-size="10.00"> m_pComponentContainer</text>
</g>
</g>
</svg>
