<?xml version="1.0" encoding="UTF-8" standalone="no"?>
<!DOCTYPE svg PUBLIC "-//W3C//DTD SVG 1.1//EN"
 "http://www.w3.org/Graphics/SVG/1.1/DTD/svg11.dtd">
<!-- Generated by graphviz version 2.43.0 (0)
 -->
<!-- Title: CCDisplayLinkDirector Pages: 1 -->
<svg width="150pt" height="196pt"
 viewBox="0.00 0.00 150.00 196.00" xmlns="http://www.w3.org/2000/svg" xmlns:xlink="http://www.w3.org/1999/xlink">
<g id="graph0" class="graph" transform="scale(1 1) rotate(0) translate(4 192)">
<title>CCDisplayLinkDirector</title>
<!-- Node1 -->
<g id="node1" class="node">
<title>Node1</title>
<g id="a_node1"><a xlink:title="DisplayLinkDirector is a Director that synchronizes timers with the refresh rate of the display.">
<polygon fill="#bfbfbf" stroke="black" points="11,-0.5 11,-19.5 137,-19.5 137,-0.5 11,-0.5"/>
<text text-anchor="middle" x="74" y="-7.5" font-family="Helvetica,sans-Serif" font-size="10.00">CCDisplayLinkDirector</text>
</a>
</g>
</g>
<!-- Node2 -->
<g id="node2" class="node">
<title>Node2</title>
<g id="a_node2"><a xlink:href="../../db/d7f/classcocos2d_1_1_c_c_director.html" target="_top" xlink:title="Class that creates and handle the main Window and manages how and when to execute the Scenes.">
<polygon fill="none" stroke="black" points="39.5,-56.5 39.5,-75.5 108.5,-75.5 108.5,-56.5 39.5,-56.5"/>
<text text-anchor="middle" x="74" y="-63.5" font-family="Helvetica,sans-Serif" font-size="10.00">CCDirector</text>
</a>
</g>
</g>
<!-- Node2&#45;&gt;Node1 -->
<g id="edge1" class="edge">
<title>Node2&#45;&gt;Node1</title>
<path fill="none" stroke="midnightblue" d="M74,-45.8C74,-36.91 74,-26.78 74,-19.75"/>
<polygon fill="midnightblue" stroke="midnightblue" points="70.5,-46.08 74,-56.08 77.5,-46.08 70.5,-46.08"/>
</g>
<!-- Node3 -->
<g id="node3" class="node">
<title>Node3</title>
<g id="a_node3"><a xlink:href="../../d3/dbf/classcocos2d_1_1_c_c_object.html" target="_top" xlink:title="NA.">
<polygon fill="none" stroke="black" points="4,-112.5 4,-131.5 66,-131.5 66,-112.5 4,-112.5"/>
<text text-anchor="middle" x="35" y="-119.5" font-family="Helvetica,sans-Serif" font-size="10.00">CCObject</text>
</a>
</g>
</g>
<!-- Node3&#45;&gt;Node2 -->
<g id="edge2" class="edge">
<title>Node3&#45;&gt;Node2</title>
<path fill="none" stroke="midnightblue" d="M47.38,-103.86C54.14,-94.5 62.21,-83.33 67.68,-75.75"/>
<polygon fill="midnightblue" stroke="midnightblue" points="44.46,-101.93 41.44,-112.08 50.13,-106.03 44.46,-101.93"/>
</g>
<!-- Node4 -->
<g id="node4" class="node">
<title>Node4</title>
<g id="a_node4"><a xlink:href="../../d5/d61/classcocos2d_1_1_c_c_copying.html" target="_top" xlink:title="NA NA.">
<polygon fill="none" stroke="black" points="0,-168.5 0,-187.5 70,-187.5 70,-168.5 0,-168.5"/>
<text text-anchor="middle" x="35" y="-175.5" font-family="Helvetica,sans-Serif" font-size="10.00">CCCopying</text>
</a>
</g>
</g>
<!-- Node4&#45;&gt;Node3 -->
<g id="edge3" class="edge">
<title>Node4&#45;&gt;Node3</title>
<path fill="none" stroke="midnightblue" d="M35,-157.8C35,-148.91 35,-138.78 35,-131.75"/>
<polygon fill="midnightblue" stroke="midnightblue" points="31.5,-158.08 35,-168.08 38.5,-158.08 31.5,-158.08"/>
</g>
<!-- Node5 -->
<g id="node5" class="node">
<title>Node5</title>
<g id="a_node5"><a xlink:href="../../dc/d72/classcocos2d_1_1_type_info.html" target="_top" xlink:title=" ">
<polygon fill="none" stroke="black" points="84,-112.5 84,-131.5 142,-131.5 142,-112.5 84,-112.5"/>
<text text-anchor="middle" x="113" y="-119.5" font-family="Helvetica,sans-Serif" font-size="10.00">TypeInfo</text>
</a>
</g>
</g>
<!-- Node5&#45;&gt;Node2 -->
<g id="edge4" class="edge">
<title>Node5&#45;&gt;Node2</title>
<path fill="none" stroke="midnightblue" d="M100.62,-103.86C93.86,-94.5 85.79,-83.33 80.32,-75.75"/>
<polygon fill="midnightblue" stroke="midnightblue" points="97.87,-106.03 106.56,-112.08 103.54,-101.93 97.87,-106.03"/>
</g>
</g>
</svg>
