<?xml version="1.0" encoding="UTF-8" standalone="no"?>
<!DOCTYPE svg PUBLIC "-//W3C//DTD SVG 1.1//EN"
 "http://www.w3.org/Graphics/SVG/1.1/DTD/svg11.dtd">
<!-- Generated by graphviz version 2.43.0 (0)
 -->
<!-- Title: CCActionInstant Pages: 1 -->
<svg width="930pt" height="389pt"
 viewBox="0.00 0.00 930.00 389.00" xmlns="http://www.w3.org/2000/svg" xmlns:xlink="http://www.w3.org/1999/xlink">
<g id="graph0" class="graph" transform="scale(1 1) rotate(0) translate(4 385)">
<title>CCActionInstant</title>
<!-- Node1 -->
<g id="node1" class="node">
<title>Node1</title>
<g id="a_node1"><a xlink:title="Instant actions are immediate actions.">
<polygon fill="#bfbfbf" stroke="black" points="450,-171.5 450,-190.5 545,-190.5 545,-171.5 450,-171.5"/>
<text text-anchor="middle" x="497.5" y="-178.5" font-family="Helvetica,sans-Serif" font-size="10.00">CCActionInstant</text>
</a>
</g>
</g>
<!-- Node6 -->
<g id="node6" class="node">
<title>Node6</title>
<g id="a_node6"><a xlink:href="../../dd/d6e/classcocos2d_1_1_c_c_call_func.html" target="_top" xlink:title="Calls a &#39;callback&#39;.">
<polygon fill="none" stroke="black" points="597.5,-342.5 597.5,-361.5 668.5,-361.5 668.5,-342.5 597.5,-342.5"/>
<text text-anchor="middle" x="633" y="-349.5" font-family="Helvetica,sans-Serif" font-size="10.00">CCCallFunc</text>
</a>
</g>
</g>
<!-- Node1&#45;&gt;Node6 -->
<g id="edge5" class="edge">
<title>Node1&#45;&gt;Node6</title>
<path fill="none" stroke="midnightblue" d="M504.16,-200.63C514.37,-232.69 538.82,-296.37 581,-333 585.78,-337.15 591.55,-340.43 597.47,-343.01"/>
<polygon fill="midnightblue" stroke="midnightblue" points="507.4,-199.25 501.14,-190.71 500.71,-201.29 507.4,-199.25"/>
</g>
<!-- Node10 -->
<g id="node10" class="node">
<title>Node10</title>
<g id="a_node10"><a xlink:href="../../d8/d76/classcocos2d_1_1_c_c_flip_x.html" target="_top" xlink:title="Flips the sprite horizontally.">
<polygon fill="none" stroke="black" points="605.5,-304.5 605.5,-323.5 660.5,-323.5 660.5,-304.5 605.5,-304.5"/>
<text text-anchor="middle" x="633" y="-311.5" font-family="Helvetica,sans-Serif" font-size="10.00">CCFlipX</text>
</a>
</g>
</g>
<!-- Node1&#45;&gt;Node10 -->
<g id="edge9" class="edge">
<title>Node1&#45;&gt;Node10</title>
<path fill="none" stroke="midnightblue" d="M507.66,-199.91C520.69,-224.95 546.83,-268.99 581,-295 588.14,-300.44 597.01,-304.45 605.33,-307.36"/>
<polygon fill="midnightblue" stroke="midnightblue" points="510.66,-198.09 503.03,-190.73 504.41,-201.24 510.66,-198.09"/>
</g>
<!-- Node11 -->
<g id="node11" class="node">
<title>Node11</title>
<g id="a_node11"><a xlink:href="../../d8/d0c/classcocos2d_1_1_c_c_flip_y.html" target="_top" xlink:title="Flips the sprite vertically.">
<polygon fill="none" stroke="black" points="606,-266.5 606,-285.5 660,-285.5 660,-266.5 606,-266.5"/>
<text text-anchor="middle" x="633" y="-273.5" font-family="Helvetica,sans-Serif" font-size="10.00">CCFlipY</text>
</a>
</g>
</g>
<!-- Node1&#45;&gt;Node11 -->
<g id="edge10" class="edge">
<title>Node1&#45;&gt;Node11</title>
<path fill="none" stroke="midnightblue" d="M513.45,-198.22C528.91,-215.14 554.47,-240.72 581,-257 588.65,-261.7 597.65,-265.52 605.93,-268.48"/>
<polygon fill="midnightblue" stroke="midnightblue" points="515.98,-195.81 506.71,-190.69 510.77,-200.48 515.98,-195.81"/>
</g>
<!-- Node12 -->
<g id="node12" class="node">
<title>Node12</title>
<g id="a_node12"><a xlink:href="../../d1/d72/classcocos2d_1_1_c_c_hide.html" target="_top" xlink:title="Hide the node.">
<polygon fill="none" stroke="black" points="606.5,-228.5 606.5,-247.5 659.5,-247.5 659.5,-228.5 606.5,-228.5"/>
<text text-anchor="middle" x="633" y="-235.5" font-family="Helvetica,sans-Serif" font-size="10.00">CCHide</text>
</a>
</g>
</g>
<!-- Node1&#45;&gt;Node12 -->
<g id="edge11" class="edge">
<title>Node1&#45;&gt;Node12</title>
<path fill="none" stroke="midnightblue" d="M527.51,-195.01C543.22,-202.43 563.03,-211.53 581,-219 589.2,-222.41 598.26,-225.88 606.43,-228.9"/>
<polygon fill="midnightblue" stroke="midnightblue" points="528.85,-191.77 518.32,-190.64 525.85,-198.09 528.85,-191.77"/>
</g>
<!-- Node13 -->
<g id="node13" class="node">
<title>Node13</title>
<g id="a_node13"><a xlink:href="../../de/dbf/classcocos2d_1_1_c_c_place.html" target="_top" xlink:title="Places the node in a certain position.">
<polygon fill="none" stroke="black" points="605,-190.5 605,-209.5 661,-209.5 661,-190.5 605,-190.5"/>
<text text-anchor="middle" x="633" y="-197.5" font-family="Helvetica,sans-Serif" font-size="10.00">CCPlace</text>
</a>
</g>
</g>
<!-- Node1&#45;&gt;Node13 -->
<g id="edge12" class="edge">
<title>Node1&#45;&gt;Node13</title>
<path fill="none" stroke="midnightblue" d="M555.21,-189.07C572.48,-191.53 590.66,-194.12 604.99,-196.16"/>
<polygon fill="midnightblue" stroke="midnightblue" points="555.59,-185.59 545.19,-187.65 554.6,-192.52 555.59,-185.59"/>
</g>
<!-- Node14 -->
<g id="node14" class="node">
<title>Node14</title>
<g id="a_node14"><a xlink:href="../../da/d67/classcocos2d_1_1_c_c_remove_self.html" target="_top" xlink:title="Remove the node NA NA.">
<polygon fill="none" stroke="black" points="588.5,-152.5 588.5,-171.5 677.5,-171.5 677.5,-152.5 588.5,-152.5"/>
<text text-anchor="middle" x="633" y="-159.5" font-family="Helvetica,sans-Serif" font-size="10.00">CCRemoveSelf</text>
</a>
</g>
</g>
<!-- Node1&#45;&gt;Node14 -->
<g id="edge13" class="edge">
<title>Node1&#45;&gt;Node14</title>
<path fill="none" stroke="midnightblue" d="M555.2,-172.93C566.26,-171.36 577.69,-169.73 588.25,-168.23"/>
<polygon fill="midnightblue" stroke="midnightblue" points="554.6,-169.48 545.19,-174.35 555.59,-176.41 554.6,-169.48"/>
</g>
<!-- Node15 -->
<g id="node15" class="node">
<title>Node15</title>
<g id="a_node15"><a xlink:href="../../d8/d6f/classcocos2d_1_1_c_c_reuse_grid.html" target="_top" xlink:title="CCReuseGrid action.">
<polygon fill="none" stroke="black" points="593,-114.5 593,-133.5 673,-133.5 673,-114.5 593,-114.5"/>
<text text-anchor="middle" x="633" y="-121.5" font-family="Helvetica,sans-Serif" font-size="10.00">CCReuseGrid</text>
</a>
</g>
</g>
<!-- Node1&#45;&gt;Node15 -->
<g id="edge14" class="edge">
<title>Node1&#45;&gt;Node15</title>
<path fill="none" stroke="midnightblue" d="M527.51,-166.99C543.22,-159.57 563.03,-150.47 581,-143 588.76,-139.77 597.29,-136.49 605.12,-133.58"/>
<polygon fill="midnightblue" stroke="midnightblue" points="525.85,-163.91 518.32,-171.36 528.85,-170.23 525.85,-163.91"/>
</g>
<!-- Node16 -->
<g id="node16" class="node">
<title>Node16</title>
<g id="a_node16"><a xlink:href="../../d3/de8/classcocos2d_1_1_c_c_show.html" target="_top" xlink:title="Show the node.">
<polygon fill="none" stroke="black" points="605,-76.5 605,-95.5 661,-95.5 661,-76.5 605,-76.5"/>
<text text-anchor="middle" x="633" y="-83.5" font-family="Helvetica,sans-Serif" font-size="10.00">CCShow</text>
</a>
</g>
</g>
<!-- Node1&#45;&gt;Node16 -->
<g id="edge15" class="edge">
<title>Node1&#45;&gt;Node16</title>
<path fill="none" stroke="midnightblue" d="M513.45,-163.78C528.91,-146.86 554.47,-121.28 581,-105 588.33,-100.5 596.89,-96.8 604.88,-93.9"/>
<polygon fill="midnightblue" stroke="midnightblue" points="510.77,-161.52 506.71,-171.31 515.98,-166.19 510.77,-161.52"/>
</g>
<!-- Node17 -->
<g id="node17" class="node">
<title>Node17</title>
<g id="a_node17"><a xlink:href="../../d1/d13/classcocos2d_1_1_c_c_stop_grid.html" target="_top" xlink:title="CCStopGrid action.">
<polygon fill="none" stroke="black" points="597,-38.5 597,-57.5 669,-57.5 669,-38.5 597,-38.5"/>
<text text-anchor="middle" x="633" y="-45.5" font-family="Helvetica,sans-Serif" font-size="10.00">CCStopGrid</text>
</a>
</g>
</g>
<!-- Node1&#45;&gt;Node17 -->
<g id="edge16" class="edge">
<title>Node1&#45;&gt;Node17</title>
<path fill="none" stroke="midnightblue" d="M507.66,-162.09C520.69,-137.05 546.83,-93.01 581,-67 586.04,-63.17 591.93,-60.04 597.89,-57.51"/>
<polygon fill="midnightblue" stroke="midnightblue" points="504.41,-160.76 503.03,-171.27 510.66,-163.91 504.41,-160.76"/>
</g>
<!-- Node18 -->
<g id="node18" class="node">
<title>Node18</title>
<g id="a_node18"><a xlink:href="../../dc/d90/classcocos2d_1_1_c_c_toggle_visibility.html" target="_top" xlink:title="Toggles the visibility of a node.">
<polygon fill="none" stroke="black" points="581,-0.5 581,-19.5 685,-19.5 685,-0.5 581,-0.5"/>
<text text-anchor="middle" x="633" y="-7.5" font-family="Helvetica,sans-Serif" font-size="10.00">CCToggleVisibility</text>
</a>
</g>
</g>
<!-- Node1&#45;&gt;Node18 -->
<g id="edge17" class="edge">
<title>Node1&#45;&gt;Node18</title>
<path fill="none" stroke="midnightblue" d="M504.16,-161.37C514.37,-129.31 538.82,-65.63 581,-29 585.42,-25.16 590.7,-22.06 596.15,-19.58"/>
<polygon fill="midnightblue" stroke="midnightblue" points="500.71,-160.71 501.14,-171.29 507.4,-162.75 500.71,-160.71"/>
</g>
<!-- Node2 -->
<g id="node2" class="node">
<title>Node2</title>
<g id="a_node2"><a xlink:href="../../dd/d89/classcocos2d_1_1_c_c_finite_time_action.html" target="_top" xlink:title="Base class actions that do have a finite time duration.">
<polygon fill="none" stroke="black" points="301,-171.5 301,-190.5 414,-190.5 414,-171.5 301,-171.5"/>
<text text-anchor="middle" x="357.5" y="-178.5" font-family="Helvetica,sans-Serif" font-size="10.00">CCFiniteTimeAction</text>
</a>
</g>
</g>
<!-- Node2&#45;&gt;Node1 -->
<g id="edge1" class="edge">
<title>Node2&#45;&gt;Node1</title>
<path fill="none" stroke="midnightblue" d="M424.3,-181C432.93,-181 441.63,-181 449.85,-181"/>
<polygon fill="midnightblue" stroke="midnightblue" points="424.23,-177.5 414.23,-181 424.23,-184.5 424.23,-177.5"/>
</g>
<!-- Node3 -->
<g id="node3" class="node">
<title>Node3</title>
<g id="a_node3"><a xlink:href="../../d7/d12/classcocos2d_1_1_c_c_action.html" target="_top" xlink:title="Base class for CCAction objects.">
<polygon fill="none" stroke="black" points="204,-171.5 204,-190.5 265,-190.5 265,-171.5 204,-171.5"/>
<text text-anchor="middle" x="234.5" y="-178.5" font-family="Helvetica,sans-Serif" font-size="10.00">CCAction</text>
</a>
</g>
</g>
<!-- Node3&#45;&gt;Node2 -->
<g id="edge2" class="edge">
<title>Node3&#45;&gt;Node2</title>
<path fill="none" stroke="midnightblue" d="M275.11,-181C283.31,-181 292.09,-181 300.74,-181"/>
<polygon fill="midnightblue" stroke="midnightblue" points="275.1,-177.5 265.1,-181 275.1,-184.5 275.1,-177.5"/>
</g>
<!-- Node4 -->
<g id="node4" class="node">
<title>Node4</title>
<g id="a_node4"><a xlink:href="../../d3/dbf/classcocos2d_1_1_c_c_object.html" target="_top" xlink:title="NA.">
<polygon fill="none" stroke="black" points="106,-171.5 106,-190.5 168,-190.5 168,-171.5 106,-171.5"/>
<text text-anchor="middle" x="137" y="-178.5" font-family="Helvetica,sans-Serif" font-size="10.00">CCObject</text>
</a>
</g>
</g>
<!-- Node4&#45;&gt;Node3 -->
<g id="edge3" class="edge">
<title>Node4&#45;&gt;Node3</title>
<path fill="none" stroke="midnightblue" d="M178.38,-181C186.91,-181 195.76,-181 203.81,-181"/>
<polygon fill="midnightblue" stroke="midnightblue" points="178.22,-177.5 168.22,-181 178.22,-184.5 178.22,-177.5"/>
</g>
<!-- Node5 -->
<g id="node5" class="node">
<title>Node5</title>
<g id="a_node5"><a xlink:href="../../d5/d61/classcocos2d_1_1_c_c_copying.html" target="_top" xlink:title="NA NA.">
<polygon fill="none" stroke="black" points="0,-171.5 0,-190.5 70,-190.5 70,-171.5 0,-171.5"/>
<text text-anchor="middle" x="35" y="-178.5" font-family="Helvetica,sans-Serif" font-size="10.00">CCCopying</text>
</a>
</g>
</g>
<!-- Node5&#45;&gt;Node4 -->
<g id="edge4" class="edge">
<title>Node5&#45;&gt;Node4</title>
<path fill="none" stroke="midnightblue" d="M80.39,-181C88.95,-181 97.72,-181 105.7,-181"/>
<polygon fill="midnightblue" stroke="midnightblue" points="80.13,-177.5 70.13,-181 80.13,-184.5 80.13,-177.5"/>
</g>
<!-- Node7 -->
<g id="node7" class="node">
<title>Node7</title>
<g id="a_node7"><a xlink:href="../../dd/d1f/classcocos2d_1_1_c_c_call_func_n.html" target="_top" xlink:title="Calls a &#39;callback&#39; with the node as the first argument N means Node NA.">
<polygon fill="none" stroke="black" points="721,-361.5 721,-380.5 800,-380.5 800,-361.5 721,-361.5"/>
<text text-anchor="middle" x="760.5" y="-368.5" font-family="Helvetica,sans-Serif" font-size="10.00">CCCallFuncN</text>
</a>
</g>
</g>
<!-- Node6&#45;&gt;Node7 -->
<g id="edge6" class="edge">
<title>Node6&#45;&gt;Node7</title>
<path fill="none" stroke="midnightblue" d="M678.78,-358.78C692.43,-360.85 707.33,-363.1 720.57,-365.11"/>
<polygon fill="midnightblue" stroke="midnightblue" points="679.04,-355.28 668.63,-357.24 677.99,-362.2 679.04,-355.28"/>
</g>
<!-- Node9 -->
<g id="node9" class="node">
<title>Node9</title>
<g id="a_node9"><a xlink:href="../../d9/d91/classcocos2d_1_1_c_c_call_func_o.html" target="_top" xlink:title="Calls a &#39;callback&#39; with an object as the first argument.">
<polygon fill="none" stroke="black" points="721,-323.5 721,-342.5 800,-342.5 800,-323.5 721,-323.5"/>
<text text-anchor="middle" x="760.5" y="-330.5" font-family="Helvetica,sans-Serif" font-size="10.00">CCCallFuncO</text>
</a>
</g>
</g>
<!-- Node6&#45;&gt;Node9 -->
<g id="edge8" class="edge">
<title>Node6&#45;&gt;Node9</title>
<path fill="none" stroke="midnightblue" d="M678.78,-345.22C692.43,-343.15 707.33,-340.9 720.57,-338.89"/>
<polygon fill="midnightblue" stroke="midnightblue" points="677.99,-341.8 668.63,-346.76 679.04,-348.72 677.99,-341.8"/>
</g>
<!-- Node8 -->
<g id="node8" class="node">
<title>Node8</title>
<g id="a_node8"><a xlink:href="../../d9/d9f/classcocos2d_1_1_c_c_call_func_n_d.html" target="_top" xlink:title="Calls a &#39;callback&#39; with the node as the first argument and the 2nd argument is data ND means: Node an...">
<polygon fill="none" stroke="black" points="836,-361.5 836,-380.5 922,-380.5 922,-361.5 836,-361.5"/>
<text text-anchor="middle" x="879" y="-368.5" font-family="Helvetica,sans-Serif" font-size="10.00">CCCallFuncND</text>
</a>
</g>
</g>
<!-- Node7&#45;&gt;Node8 -->
<g id="edge7" class="edge">
<title>Node7&#45;&gt;Node8</title>
<path fill="none" stroke="midnightblue" d="M810.4,-371C818.83,-371 827.53,-371 835.77,-371"/>
<polygon fill="midnightblue" stroke="midnightblue" points="810.29,-367.5 800.29,-371 810.29,-374.5 810.29,-367.5"/>
</g>
</g>
</svg>
